<?xml version="1.0" encoding="UTF-8" standalone="no"?>
<svg
   xmlns:dc="http://purl.org/dc/elements/1.1/"
   xmlns:cc="http://creativecommons.org/ns#"
   xmlns:rdf="http://www.w3.org/1999/02/22-rdf-syntax-ns#"
   xmlns:svg="http://www.w3.org/2000/svg"
   xmlns="http://www.w3.org/2000/svg"
   xmlns:sodipodi="http://sodipodi.sourceforge.net/DTD/sodipodi-0.dtd"
   xmlns:inkscape="http://www.inkscape.org/namespaces/inkscape"
   width="143.65422mm"
   height="200.28218mm"
   id="svg8131"
   version="1.1"
   inkscape:version="0.91 r13725"
   sodipodi:docname="base_accessory.svg">
  <metadata
     id="metadata10469">
    <rdf:RDF>
      <cc:Work
         rdf:about="">
        <dc:format>image/svg+xml</dc:format>
        <dc:type
           rdf:resource="http://purl.org/dc/dcmitype/StillImage" />
        <dc:title></dc:title>
      </cc:Work>
    </rdf:RDF>
  </metadata>
  <sodipodi:namedview
     pagecolor="#ffffff"
     bordercolor="#666666"
     borderopacity="1"
     objecttolerance="10"
     gridtolerance="10"
     guidetolerance="10"
     inkscape:pageopacity="0"
     inkscape:pageshadow="2"
     inkscape:window-width="3734"
     inkscape:window-height="2121"
     id="namedview10467"
     showgrid="false"
     inkscape:zoom="2.5371828"
     inkscape:cx="224.23293"
     inkscape:cy="328.49422"
     inkscape:window-x="106"
     inkscape:window-y="39"
     inkscape:window-maximized="1"
     inkscape:current-layer="g8147"
     fit-margin-top="0"
     fit-margin-left="0"
     fit-margin-right="0"
     fit-margin-bottom="0"
     units="mm"
     inkscape:document-units="mm" />
  <desc
     id="desc8133">C:\Share\Robotics\SimpleBot\Parts\55r\base.dxf - scale = 1.000000, origin = (0.000000, 0.000000), auto = False</desc>
  <defs
     id="defs8135">
    <marker
       refY="0"
       refX="0"
       style="overflow:visible"
       id="DistanceX"
       orient="auto">
      <path
         style="stroke:#000000;stroke-width:0.5"
         d="M 3,-3 -3,3 M 0,-5 0,5"
         id="path8138"
         inkscape:connector-curvature="0" />
    </marker>
    <pattern
       height="8"
       width="8"
       patternUnits="userSpaceOnUse"
       y="0"
       x="0"
       id="Hatch">
      <path
         linecap="square"
         stroke="#000000"
         stroke-width="0.25"
         d="M8 4 l-4,4"
         id="path8141" />
      <path
         linecap="square"
         stroke="#000000"
         stroke-width="0.25"
         d="M6 2 l-4,4"
         id="path8143" />
      <path
         linecap="square"
         stroke="#000000"
         stroke-width="0.25"
         d="M4 0 l-4,4"
         id="path8145" />
    </pattern>
    <marker
       style="overflow:visible"
       refY="0"
       refX="0"
       orient="auto"
       id="DistanceX-3">
      <path
         id="path3486"
         style="stroke:#000000;stroke-width:0.5"
         d="M 3,-3 -3,3 M 0,-5 0,5"
         inkscape:connector-curvature="0" />
    </marker>
    <pattern
       y="0"
       x="0"
       width="8"
       patternUnits="userSpaceOnUse"
       id="Hatch-6"
       height="8">
      <path
         id="path3489"
         stroke-width="0.25"
         stroke="#000000"
         linecap="square"
         d="M8 4 l-4,4" />
      <path
         id="path3491"
         stroke-width="0.25"
         stroke="#000000"
         linecap="square"
         d="M6 2 l-4,4" />
      <path
         id="path3493"
         stroke-width="0.25"
         stroke="#000000"
         linecap="square"
         d="M4 0 l-4,4" />
    </pattern>
    <marker
       style="overflow:visible"
       refY="0"
       refX="0"
       orient="auto"
       id="DistanceX-7">
      <path
         id="path6904"
         style="stroke:#000000;stroke-width:0.5"
         d="M 3,-3 -3,3 M 0,-5 0,5"
         inkscape:connector-curvature="0" />
    </marker>
    <pattern
       y="0"
       x="0"
       width="8"
       patternUnits="userSpaceOnUse"
       id="Hatch-5"
       height="8">
      <path
         id="path6907"
         stroke-width="0.25"
         stroke="#000000"
         linecap="square"
         d="M8 4 l-4,4" />
      <path
         id="path6909"
         stroke-width="0.25"
         stroke="#000000"
         linecap="square"
         d="M6 2 l-4,4" />
      <path
         id="path6911"
         stroke-width="0.25"
         stroke="#000000"
         linecap="square"
         d="M4 0 l-4,4" />
    </pattern>
    <marker
       style="overflow:visible"
       refY="0"
       refX="0"
       orient="auto"
       id="DistanceX-36">
      <path
         id="path4242"
         style="stroke:#000000;stroke-width:0.5"
         d="M 3,-3 -3,3 M 0,-5 0,5"
         inkscape:connector-curvature="0" />
    </marker>
    <pattern
       y="0"
       x="0"
       width="8"
       patternUnits="userSpaceOnUse"
       id="Hatch-7"
       height="8">
      <path
         id="path4245"
         stroke-width="0.25"
         stroke="#000000"
         linecap="square"
         d="M8 4 l-4,4" />
      <path
         id="path4247"
         stroke-width="0.25"
         stroke="#000000"
         linecap="square"
         d="M6 2 l-4,4" />
      <path
         id="path4249"
         stroke-width="0.25"
         stroke="#000000"
         linecap="square"
         d="M4 0 l-4,4" />
    </pattern>
    <marker
       style="overflow:visible"
       refY="0"
       refX="0"
       orient="auto"
       id="DistanceX-367">
      <path
         id="path6002"
         style="stroke:#000000;stroke-width:0.5"
         d="M 3,-3 -3,3 M 0,-5 0,5"
         inkscape:connector-curvature="0" />
    </marker>
    <pattern
       y="0"
       x="0"
       width="8"
       patternUnits="userSpaceOnUse"
       id="Hatch-53"
       height="8">
      <path
         id="path6005"
         stroke-width="0.25"
         stroke="#000000"
         linecap="square"
         d="M8 4 l-4,4" />
      <path
         id="path6007"
         stroke-width="0.25"
         stroke="#000000"
         linecap="square"
         d="M6 2 l-4,4" />
      <path
         id="path6009"
         stroke-width="0.25"
         stroke="#000000"
         linecap="square"
         d="M4 0 l-4,4" />
    </pattern>
  </defs>
  <g
     inkscape:label="0"
     inkscape:groupmode="layer"
     id="g8147"
     transform="translate(-114.93858,-143.48063)">
    <path
       inkscape:connector-curvature="0"
       d="m 498.34103,511.85624 0.21968,0.0349 0.21721,0.0481 0.21401,0.0623 0.20941,0.0753 0.2041,0.0885 0.19842,0.1012 0.19169,0.1134 0.1839,0.1251 0.1761,0.1364 0.16689,0.1472 0.15733,0.1574 0.1474,0.1669 0.13642,0.1759 0.12508,0.1842 0.11338,0.1915 0.10099,0.1984 0.0882,0.2042 0.0755,0.2095 0.062,0.2138 0.0486,0.2172 0.0351,0.2199 0.0209,0.2215 0.007,0.2225 -1.3e-4,177.1652 0.11906,3.7825 0.3561,3.7672 0.59209,3.7375 0.82523,3.6932 1.05591,3.6337 1.28161,3.5603 1.50307,3.4731 1.7178,3.3715 1.9265,3.2574 2.12704,3.1298 2.3191,2.9898 2.50264,2.8385 2.67555,2.676 2.83854,2.5026 2.9902,2.3191 3.1298,2.127 3.25701,1.9262 3.37181,1.7181 3.47279,1.5027 3.56067,1.282 3.63366,1.0559 3.69319,0.8253 3.73748,0.592 3.76725,0.3561 3.78212,0.1187 3.78248,-0.1187 3.76725,-0.3561 3.73748,-0.592 3.69319,-0.8253 3.63366,-1.0559 3.56031,-1.282 3.47315,-1.5027 3.37146,-1.7181 3.25736,-1.9262 3.12981,-2.127 2.98984,-2.3191 2.83854,-2.5026 2.67591,-2.676 2.50264,-2.8385 2.31909,-2.9898 2.12705,-3.1298 1.92614,-3.2574 1.71815,-3.3715 1.50271,-3.4731 1.28197,-3.5603 1.05591,-3.6337 0.82523,-3.6932 0.59209,-3.7375 0.3561,-3.7672 0.1187,-3.7825 0,-177.1652 0.007,-0.2225 0.0209,-0.2215 0.0347,-0.2199 0.0485,-0.2172 0.0624,-0.2138 0.0755,-0.2095 0.0882,-0.2042 0.10099,-0.1984 0.11339,-0.1915 0.12508,-0.1842 0.13641,-0.1759 0.14741,-0.1669 0.15732,-0.1574 0.16689,-0.1472 0.17575,-0.1364 0.0765,-0.052 1e-5,-3.97865 -11.69256,0 0,-59.1786 11.69256,-4e-4 0,-49.0149 -11.6922,0 -3.6e-4,-49.37067 11.69256,-3.5e-4 0,-99.58146 -3.45579,-3.56634 -7.9937,-7.74638 -8.23287,-7.49126 -8.46425,-7.22905 -8.68713,-6.95977 -8.90149,-6.68338 -9.10701,-6.40063 -9.30331,-6.11114 -9.4911,-5.81599 -9.66862,-5.51516 -9.83764,-5.2083 -9.99603,-4.89721 -10.14484,-4.58079 -10.28374,-4.2594 -10.41271,-3.93485 -10.53107,-3.60531 -10.63913,-3.27331 -10.73658,-2.93705 -10.82374,-2.59866 -10.89992,-2.25708 -10.96547,-1.91374 -11.02004,-1.56863 -11.06387,-1.22137 -11.09689,-0.87343 -11.11879,-0.52441 -11.12978,-0.17468 -11.12978,0.17468 -11.11879,0.52441 -11.09689,0.87343 -11.06387,1.22137 -11.02004,1.56863 -10.96547,1.91374 -10.89992,2.25708 -10.82374,2.59866 -10.73658,2.93705 -10.63913,3.27331 -10.53107,3.60531 -10.41271,3.93485 -10.28374,4.2594 -10.14484,4.58079 -9.99603,4.89721 -9.83764,5.2083 -9.66862,5.51516 -9.4911,5.81599 -9.30331,6.11114 -9.10701,6.40063 -8.90149,6.68338 -8.68713,6.95977 -8.46425,7.22905 -8.23287,7.49126 -7.9937,7.74638 -3.45579,3.56634 0,99.58181 11.6922,-3.5e-4 0,49.37102 -11.6922,0 0,49.0153 11.6922,-4e-4 0,59.1794 -11.6922,-10e-5 0,3.9784 0.0765,0.052 0.17577,0.13635 0.16689,0.1472 0.15732,0.1574 0.14741,0.1669 0.13641,0.1759 0.12508,0.1842 0.11339,0.1915 0.10098,0.1984 0.0882,0.2042 0.0755,0.2095 0.0624,0.2138 0.0485,0.2172 0.0347,0.2199 0.0209,0.2215 0.007,0.2225 4e-5,177.1652 0.1187,3.7825 0.3561,3.7672 0.59209,3.7375 0.82523,3.6932 1.05591,3.6337 1.28197,3.5603 1.50271,3.4731 1.71815,3.3715 1.92614,3.2574 2.12705,3.1298 2.31909,2.9898 2.50264,2.8385 2.67591,2.676 2.83854,2.5026 2.98984,2.3191 3.12981,2.127 3.25736,1.9262 3.37146,1.7181 3.47315,1.5027 3.56031,1.282 3.63366,1.0559 3.69319,0.8253 3.73748,0.592 3.76725,0.3561 3.78248,0.1187 3.78212,-0.1187 3.76725,-0.3561 3.73748,-0.592 3.69319,-0.8253 3.63366,-1.0559 3.56067,-1.282 3.47279,-1.5027 3.37181,-1.7181 3.25701,-1.9262 3.1298,-2.127 2.9902,-2.3191 2.83854,-2.5026 2.67555,-2.676 2.50264,-2.8385 2.3191,-2.9898 2.12704,-3.1298 1.9265,-3.2574 1.7178,-3.3715 1.50307,-3.4731 1.28161,-3.5603 1.05591,-3.6337 0.82523,-3.6932 0.59209,-3.7375 0.3561,-3.7672 0.11906,-3.7825 0,-177.1652 0.007,-0.2225 0.0208,-0.2215 0.0351,-0.2199 0.0486,-0.2172 0.062,-0.2138 0.0755,-0.2095 0.0882,-0.2042 0.101,-0.1984 0.11338,-0.1915 0.12508,-0.1842 0.13642,-0.1759 0.1474,-0.1669 0.15733,-0.1574 0.16689,-0.1472 0.1761,-0.1364 0.1839,-0.1251 0.19169,-0.1134 0.19842,-0.101 0.2041,-0.0882 0.20941,-0.0754 0.21401,-0.0623 0.21721,-0.0483 0.21968,-0.0351 0.22181,-0.0208 0.22252,-0.009 0.22217,0.01 0.22181,0.0195 0.21968,0.0349 0.21721,0.0481 0.21402,0.0623 0.2094,0.0753 0.2041,0.0885 0.19842,0.1012 0.1917,0.1134 0.18389,0.1251 0.17611,0.1364 0.16689,0.1472 0.15732,0.1574 0.1474,0.1669 0.13642,0.1759 0.12508,0.1842 0.11338,0.1915 0.10099,0.1984 0.0882,0.2042 0.0755,0.2095 0.062,0.2138 0.0485,0.2172 0.0351,0.2199 0.0209,0.2215 0.007,0.2225 5e-5,177.1652 -0.13287,4.2275 -0.39827,4.2106 -0.66154,4.1772 -0.92267,4.1272 -1.17993,4.0617 -1.43255,3.9791 -1.67953,3.8814 -1.92012,3.7683 -2.15291,3.6404 -2.37721,3.4983 -2.59228,3.3417 -2.79673,3.1723 -2.99055,2.9905 -3.17268,2.7971 -3.3417,2.5923 -3.49795,2.3772 -3.64039,2.1529 -3.76831,1.9201 -3.88169,1.6796 -3.97914,1.4325 -4.06133,1.18 -4.1276,0.9226 -4.17721,0.6616 -4.21051,0.3979 -4.22716,0.1329 0,36.0648 2.37224,1.5583 9.4911,5.816 9.66862,5.5152 9.83764,5.2083 9.99603,4.8972 10.14484,4.5808 10.28374,4.2594 10.41271,3.9348 10.53107,3.6054 10.63913,3.2733 10.73658,2.937 10.82374,2.5987 10.89992,2.2571 10.96547,1.9137 11.02004,1.5686 11.06387,1.2214 11.09689,0.8734 11.11879,0.5244 11.12978,0.1747 11.12978,-0.1747 11.11879,-0.5244 11.09689,-0.8734 11.06387,-1.2214 11.02004,-1.5686 10.96547,-1.9137 10.89992,-2.2571 10.82374,-2.5987 10.73658,-2.937 10.63913,-3.2733 10.53107,-3.6054 10.41271,-3.9348 10.28374,-4.2594 10.14484,-4.5808 9.99603,-4.8972 9.83764,-5.2083 9.66862,-5.5152 9.4911,-5.816 2.37224,-1.5583 0,-36.0648 -4.22716,-0.1329 -4.21051,-0.3979 -4.17721,-0.6616 -4.1276,-0.9226 -4.06133,-1.18 -3.97914,-1.4325 -3.88169,-1.6796 -3.76831,-1.9201 -3.64039,-2.1529 -3.49795,-2.3772 -3.3417,-2.5923 -3.17268,-2.7971 -2.99055,-2.9905 -2.79673,-3.1723 -2.59228,-3.3417 -2.37721,-3.4983 -2.15291,-3.6404 -1.92012,-3.7683 -1.67953,-3.8814 -1.43255,-3.9791 -1.17993,-4.0617 -0.92267,-4.1272 -0.66154,-4.1772 -0.39827,-4.2106 -0.13287,-4.2275 0,-177.1652 0.007,-0.2225 0.0209,-0.2215 0.0351,-0.2199 0.0485,-0.2172 0.062,-0.2138 0.0755,-0.2095 0.0882,-0.2042 0.101,-0.1984 0.11338,-0.1915 0.12508,-0.1842 0.13642,-0.1759 0.1474,-0.1669 0.15732,-0.1574 0.16689,-0.1472 0.17611,-0.1364 0.18389,-0.1251 0.1917,-0.1134 0.19842,-0.101 0.2041,-0.0882 0.2094,-0.0754 0.21402,-0.0623 0.21721,-0.0483 0.21968,-0.0351 0.22181,-0.0208 0.22217,-0.009 0.22252,0.01 z"
       style="fill:none;stroke:#0000ff;stroke-opacity:1"
       id="path6605"
       sodipodi:nodetypes="ccccccccccccccccccccccccccccccccccccccccccccccccccccccccccccccccccccccccccccccccccccccccccccccccccccccccccccccccccccccccccccccccccccccccccccccccccccccccccccccccccccccccccccccccccccccccccccccccccccccccccccccccccccccccccccccccccccccccccccccccccccccccccccccccccccccccccccccccccccccccccccccccccccccccccccccccccccccccccccccccccccccccccccccccccccccccccccccccccccccccccccccccccccccccccccccccccccccccccccccc" />
    <g
       id="g12661"
       style="stroke:#ff0000;stroke-opacity:1">
      <path
         sodipodi:nodetypes="ccccccccccccccccccccc"
         id="path9009"
         style="fill:none;stroke:#ff0000;stroke-opacity:1"
         d="m 506.28052,787.19119 -1.17567,-1.176 -0.75508,-1.4815 -0.26008,-1.6426 0.26008,-1.6424 0.75508,-1.4814 1.17567,-1.1761 1.48181,-0.7547 1.64232,-0.2604 1.64232,0.2604 1.48181,0.7547 1.17567,1.1761 0.75508,1.4814 0.26008,1.6424 -0.26008,1.6426 -0.75508,1.4815 -1.17567,1.176 -1.48181,0.7547 -1.64232,0.2601 -1.64232,-0.2601 z"
         inkscape:connector-curvature="0" />
      <path
         sodipodi:nodetypes="ccccccccccccccccccccc"
         id="path9087"
         style="fill:none;stroke:#ff0000;stroke-opacity:1"
         d="m 227.84107,787.94589 -1.48181,-0.7547 -1.17567,-1.176 -0.75508,-1.4815 -0.26008,-1.6426 0.26008,-1.6424 0.75508,-1.4814 1.17567,-1.1761 1.48181,-0.7547 1.64232,-0.2604 1.64232,0.2604 1.48181,0.7547 1.17567,1.1761 0.75508,1.4814 0.26008,1.6424 -0.26008,1.6426 -0.75508,1.4815 -1.17567,1.176 -1.48181,0.7547 -1.64232,0.2601 z"
         inkscape:connector-curvature="0" />
      <g
         id="g12606"
         style="stroke:#ff0000;stroke-opacity:1">
        <path
           inkscape:connector-curvature="0"
           d="m 436.73887,410.17269 -0.0347,0.22004 -0.0485,0.21721 -0.0624,0.21366 -0.0755,0.20941 -0.0882,0.20445 -0.101,0.19842 -0.11339,0.19134 -0.12508,0.18425 -0.13641,0.17575 -0.14741,0.16689 -0.15732,0.15768 -0.16689,0.14705 -0.17575,0.13641 -0.18425,0.12508 -0.19169,0.11339 -0.19807,0.10098 -0.20445,0.0886 -0.20941,0.0751 -0.21366,0.0624 -0.21721,0.0485 -0.22004,0.0347 -0.22145,0.0209 -0.22252,0.007 -0.22252,-0.007 -0.22181,-0.021 -0.21969,-0.0347 -0.2172,-0.0485 -0.21366,-0.0624 -0.20941,-0.0751 -0.20445,-0.0886 -0.19843,-0.10097 -0.19134,-0.11339 -0.18425,-0.12508 -0.1761,-0.13641 -0.16689,-0.14705 -0.15732,-0.15768 -0.14705,-0.16689 -0.13642,-0.17575 -0.12508,-0.18425 -0.11338,-0.19134 -0.10099,-0.19842 -0.0886,-0.20445 -0.0755,-0.20941 -0.062,-0.21366 -0.0485,-0.21721 -0.0347,-0.22004 -0.0209,-0.22145 -0.007,-0.22252 -5e-5,-177.16536 -0.11905,-3.78212 -0.35611,-3.7676 -0.59173,-3.73748 -0.82559,-3.69284 -1.05555,-3.63401 -1.28197,-3.56032 -1.50307,-3.47279 -1.7178,-3.37181 -1.92614,-3.25736 -2.12704,-3.12945 -2.31945,-2.9902 -2.50229,-2.83854 -2.6759,-2.67591 -2.83855,-2.50228 -2.99005,-2.31945 -3.12977,-2.12705 -3.25718,-1.92614 -3.37167,-1.7178 -3.47294,-1.50307 -3.56039,-1.28197 -3.63387,-1.05555 -3.69301,-0.82559 -3.73752,-0.59173 -3.76735,-0.3561 -3.78223,-0.11906 -3.78216,0.11906 -3.76739,0.3561 -3.73751,0.59173 -3.69301,0.82559 -3.63388,1.05555 -3.56038,1.28197 -3.47291,1.50307 -3.3717,1.7178 -3.25719,1.92614 -3.12973,2.12705 -2.99012,2.31945 -2.83855,2.50228 -2.67555,2.67591 -2.50264,2.83854 -2.31944,2.9902 -2.1267,3.12945 -1.92649,3.25736 -1.7178,3.37181 -1.50307,3.47279 -1.28197,3.56032 -1.05555,3.63401 -0.82559,3.69284 -0.59173,3.73748 -0.3561,3.7676 -0.11906,3.78212 0,177.16536 -0.007,0.22252 -0.021,0.22145 -0.0347,0.22004 -0.0485,0.21721 -0.062,0.21366 -0.0755,0.20941 -0.0886,0.20445 -0.10098,0.19842 -0.11338,0.19134 -0.12508,0.18425 -0.13642,0.17575 -0.14705,0.16689 -0.15732,0.15768 -0.16724,0.14705 -0.17575,0.13641 -0.18425,0.12508 -0.19134,0.11339 -0.19843,0.10098 -0.20445,0.0886 -0.20941,0.0751 -0.21366,0.0624 -0.2172,0.0485 -0.22004,0.0347 -0.22146,0.0209 -0.22252,0.007 -0.22252,-0.007 -0.22145,-0.021 -0.22004,-0.0347 -0.21721,-0.0485 -0.21366,-0.0624 -0.20941,-0.0751 -0.20445,-0.0886 -0.19842,-0.10097 -0.19134,-0.11339 -0.18425,-0.12508 -0.17575,-0.13641 -0.16689,-0.14705 -0.15768,-0.15768 -0.14705,-0.16689 -0.13641,-0.17575 -0.12508,-0.18425 -0.11339,-0.19134 -0.10098,-0.19842 -0.0886,-0.20445 -0.0751,-0.20941 -0.0624,-0.21366 -0.0485,-0.21721 -0.0347,-0.22004 -0.0209,-0.22145 -0.007,-0.22252 -4e-5,-177.16536 0.13287,-4.22716 0.39791,-4.21051 0.66154,-4.17721 0.92268,-4.1276 1.17992,-4.06134 1.43291,-3.97948 1.67953,-3.88134 1.92012,-3.76831 2.15291,-3.64039 2.3772,-3.49796 2.59229,-3.34204 2.79673,-3.17233 2.99055,-2.99055 3.17268,-2.79673 3.34169,-2.59228 3.49795,-2.37721 3.64043,-2.15291 3.76834,-1.92012 3.88149,-1.67953 3.97924,-1.43291 4.06144,-1.17992 4.12742,-0.92268 4.17731,-0.66153 4.21055,-0.39792 4.22713,-0.13287 4.2272,0.13287 4.21055,0.39792 4.17727,0.66153 4.12746,0.92268 4.06141,1.17992 3.97924,1.43291 3.88152,1.67953 3.76834,1.92012 3.64036,2.15291 3.49795,2.37721 3.34205,2.59228 3.17232,2.79673 2.99055,2.99055 2.79673,3.17233 2.59229,3.34204 2.3772,3.49796 2.15291,3.64039 1.92012,3.76831 1.67953,3.88134 1.43291,3.97948 1.17992,4.06134 0.92268,4.1276 0.66154,4.17721 0.39791,4.21051 0.13288,4.22716 0,177.16536 -0.007,0.22252 z"
           style="fill:none;stroke:#ff0000;stroke-opacity:1"
           id="path7167"
           sodipodi:nodetypes="ccccccccccccccccccccccccccccccccccccccccccccccccccccccccccccccccccccccccccccccccccccccccccccccccccccccccccccccccccccccccccccccccccccccccccccccccccccccccccccccccccccccccccccccccccccccccccccccccccccccccccccc" />
        <path
           inkscape:connector-curvature="0"
           d="m 364.12917,207.76021 0.26011,-1.64232 0.75494,-1.48181 1.17583,-1.17567 1.48164,-0.75508 1.64233,-0.26008 1.64238,0.26008 1.48164,0.75508 1.17585,1.17567 0.75491,1.48181 0.26018,1.64232 -0.26018,1.64233 -0.75491,1.48181 -1.17585,1.17567 -1.48164,0.75508 -1.64238,0.26007 -1.64233,-0.26007 -1.48164,-0.75508 -1.17583,-1.17567 -0.75494,-1.48181 z"
           style="fill:none;stroke:#ff0000;stroke-opacity:1"
           id="path7223"
           sodipodi:nodetypes="ccccccccccccccccccccc" />
        <path
           inkscape:connector-curvature="0"
           d="m 352.81936,247.12671 -0.90567,1.39465 -1.29228,1.04633 -1.5525,0.59599 -1.66057,0.0872 -1.60622,-0.43053 -1.39465,-0.90567 -1.04648,-1.29224 -0.59591,-1.55232 -0.0871,-1.66075 0.43039,-1.60618 0.90574,-1.39465 1.29231,-1.04634 1.5524,-0.59598 1.66061,-0.0872 1.60621,0.43053 1.39465,0.90567 1.04644,1.29225 0.59592,1.55232 0.0871,1.66075 z"
           style="fill:none;stroke:#ff0000;stroke-opacity:1"
           id="path7285"
           sodipodi:nodetypes="ccccccccccccccccccccc" />
        <path
           inkscape:connector-curvature="0"
           d="m 388.2666,249.56769 -1.29232,-1.04633 -0.90567,-1.39465 -0.43037,-1.60618 0.0871,-1.66075 0.59593,-1.55232 1.04644,-1.29225 1.39465,-0.90567 1.60622,-0.43051 1.6606,0.0872 1.55239,0.59597 1.29232,1.04634 0.90574,1.39465 0.43037,1.60618 -0.0871,1.66075 -0.59592,1.55232 -1.04645,1.29224 -1.39464,0.90567 -1.60622,0.43051 -1.66061,-0.0872 z"
           style="fill:none;stroke:#ff0000;stroke-opacity:1"
           id="path7297"
           sodipodi:nodetypes="ccccccccccccccccccccc" />
        <path
           inkscape:connector-curvature="0"
           d="m 524.84993,336.37872 0.98787,0.50315 0.78378,0.78378 0.5035,0.98787 0.17327,1.09488 56.99764,0 0.17327,-1.09488 0.5035,-0.98787 0.78378,-0.78378 0.98787,-0.50315 1.09489,-0.17362 1.09488,0.17362 0.98787,0.50315 0.78378,0.78378 0.50315,0.98787 0.17362,1.09488 0,11.33858 -0.17362,1.09489 -0.50315,0.98787 -0.78378,0.78378 -0.98787,0.50315 -1.09488,0.17362 -1.09489,-0.17362 -0.98787,-0.50315 -0.78378,-0.78378 -0.5035,-0.98787 -0.17327,-1.09489 -56.99764,0 -0.17327,1.09489 -0.5035,0.98787 -0.78378,0.78378 -0.98787,0.50315 -1.09489,0.17362 -1.09488,-0.17362 -0.98787,-0.50315 -0.78378,-0.78378 -0.50351,-0.98787 -0.17326,-1.09489 0,-11.33858 0.17326,-1.09488 0.50351,-0.98787 0.78378,-0.78378 0.98787,-0.50315 1.09488,-0.17362 z"
           style="fill:none;stroke:#ff0000;stroke-opacity:1"
           id="path7379"
           sodipodi:nodetypes="ccccccccccccccccccccccccccccccccccccccccccccc" />
        <path
           inkscape:connector-curvature="0"
           d="m 218.50268,338.65352 0.17362,1.09488 0,11.33858 -0.17362,1.09489 -0.50315,0.98787 -0.78378,0.78378 -0.98787,0.50315 -1.09488,0.17362 -1.09489,-0.17362 -0.98787,-0.50315 -0.78378,-0.78378 -0.5035,-0.98787 -0.17327,-1.09489 -56.99764,0 -0.17327,1.09489 -0.5035,0.98787 -0.78378,0.78378 -0.98787,0.50315 -1.09489,0.17362 -1.09488,-0.17362 -0.98787,-0.50315 -0.78378,-0.78378 -0.5035,-0.98787 -0.17327,-1.09489 0,-11.33858 0.17327,-1.09488 0.5035,-0.98787 0.78378,-0.78378 0.98787,-0.50315 1.09488,-0.17362 1.09489,0.17362 0.98787,0.50315 0.78378,0.78378 0.5035,0.98787 0.17327,1.09488 56.99764,0 0.17327,-1.09488 0.5035,-0.98787 0.78378,-0.78378 0.98787,-0.50315 1.09489,-0.17362 1.09488,0.17362 0.98787,0.50315 0.78378,0.78378 z"
           style="fill:none;stroke:#ff0000;stroke-opacity:1"
           id="path7495"
           sodipodi:nodetypes="ccccccccccccccccccccccccccccccccccccccccccccc" />
        <path
           inkscape:connector-curvature="0"
           d="m 176.06414,368.98069 13.37386,-3.6e-4 0,31.30016 -13.37351,0 z"
           style="fill:none;stroke:#ff0000;stroke-opacity:1"
           id="path7513"
           sodipodi:nodetypes="ccccc" />
        <path
           inkscape:connector-curvature="0"
           d="m 562.82355,368.98033 0,31.30016 -13.37351,0 -3.5e-4,-31.2998 z"
           style="fill:none;stroke:#ff0000;stroke-opacity:1"
           id="path7523"
           sodipodi:nodetypes="ccccc" />
        <path
           inkscape:connector-curvature="0"
           d="m 605.733,390.24053 -7.08662,0 0,-14.17323 7.08662,0 z"
           style="fill:none;stroke:#ff0000;stroke-opacity:1"
           id="path7533"
           sodipodi:nodetypes="ccccc" />
        <path
           inkscape:connector-curvature="0"
           d="m 140.24166,390.24053 -7.08662,0 0,-14.17323 7.08662,0 z"
           style="fill:none;stroke:#ff0000;stroke-opacity:1"
           id="path7541"
           sodipodi:nodetypes="ccccc" />
        <path
           inkscape:connector-curvature="0"
           d="m 471.36831,462.10389 -0.81071,-0.1943 -0.77067,-0.3193 -0.71114,-0.4358 -0.63425,-0.5414 -0.54142,-0.6343 -0.43582,-0.7111 -0.31926,-0.7707 -0.19452,-0.8107 -0.0655,-0.8316 -2e-5,-63.77952 0.0655,-0.83126 0.19455,-0.81106 0.31926,-0.77067 0.43582,-0.71114 0.54142,-0.63425 0.63425,-0.54142 0.71114,-0.43583 0.77067,-0.31925 0.81071,-0.19453 0.83162,-0.0656 0.83126,0.0656 0.81106,0.19451 0.77067,0.31925 0.71114,0.43583 0.63425,0.54142 0.54142,0.63425 0.43583,0.71114 0.31925,0.77067 0.19452,0.81106 0.0656,0.83126 -2e-5,63.77952 -0.0656,0.8316 -0.1945,0.8107 -0.31925,0.7707 -0.43583,0.7111 -0.54142,0.6343 -0.63425,0.5414 -0.71114,0.4358 -0.77067,0.3193 -0.81106,0.1945 -0.83126,0.0658 z"
           style="fill:none;stroke:#ff0000;stroke-opacity:1"
           id="path7627"
           sodipodi:nodetypes="ccccccccccccccccccccccccccccccccccccccccccc" />
        <path
           inkscape:connector-curvature="0"
           d="m 265.85685,462.10389 -0.81106,-0.1943 -0.77067,-0.3193 -0.71114,-0.4358 -0.63425,-0.5414 -0.54142,-0.6343 -0.43583,-0.7111 -0.31925,-0.7707 -0.19452,-0.8107 -0.0656,-0.8316 2e-5,-63.77952 0.0656,-0.83126 0.1945,-0.81106 0.31925,-0.77067 0.43583,-0.71114 0.54142,-0.63425 0.63425,-0.54142 0.71114,-0.43583 0.77067,-0.31925 0.81106,-0.19453 0.83126,-0.0656 0.83162,0.0656 0.81071,0.19451 0.77067,0.31925 0.71114,0.43583 0.63425,0.54142 0.54142,0.63425 0.43582,0.71114 0.31926,0.77067 0.19452,0.81106 0.0655,0.83126 3e-5,63.77952 -0.0656,0.8316 -0.1945,0.8107 -0.31926,0.7707 -0.43582,0.7111 -0.54142,0.6343 -0.63425,0.5414 -0.71114,0.4358 -0.77067,0.3193 -0.81071,0.1945 -0.83162,0.0658 z"
           style="fill:none;stroke:#ff0000;stroke-opacity:1"
           id="path7711"
           sodipodi:nodetypes="ccccccccccccccccccccccccccccccccccccccccccc" />
        <path
           inkscape:connector-curvature="0"
           d="m 200.47788,417.99632 0,14.17322 -7.08662,0 0,-14.17322 z"
           style="fill:none;stroke:#ff0000;stroke-opacity:1"
           id="path7715"
           sodipodi:nodetypes="ccccc" />
        <path
           inkscape:connector-curvature="0"
           d="m 545.49678,432.16954 -7.08662,0 0,-14.17322 7.08662,0 z"
           style="fill:none;stroke:#ff0000;stroke-opacity:1"
           id="path7725"
           sodipodi:nodetypes="ccccc" />
        <path
           inkscape:connector-curvature="0"
           d="m 577.38654,417.99632 0,14.17322 -7.08661,0 0,-14.17322 z"
           style="fill:none;stroke:#ff0000;stroke-opacity:1"
           id="path7731"
           sodipodi:nodetypes="ccccc" />
        <path
           inkscape:connector-curvature="0"
           d="m 168.58811,417.99632 0,14.17322 -7.08661,0 0,-14.17322 z"
           style="fill:none;stroke:#ff0000;stroke-opacity:1"
           id="path7739"
           sodipodi:nodetypes="ccccc" />
        <path
           inkscape:connector-curvature="0"
           d="m 562.8239,508.47439 -13.37421,3e-4 0,-59.1789 13.37386,-4e-4 z"
           style="fill:none;stroke:#ff0000;stroke-opacity:1"
           id="path7747"
           sodipodi:nodetypes="ccccc" />
        <path
           inkscape:connector-curvature="0"
           d="m 176.06414,449.29579 13.37386,-4e-4 0,59.1797 -13.37351,-3e-4 z"
           style="fill:none;stroke:#ff0000;stroke-opacity:1"
           id="path7753"
           sodipodi:nodetypes="ccccc" />
        <path
           inkscape:connector-curvature="0"
           d="m 598.64638,481.14889 7.08662,0 0,14.1733 -7.08662,0 z"
           style="fill:none;stroke:#ff0000;stroke-opacity:1"
           id="path7761"
           sodipodi:nodetypes="ccccc" />
        <path
           inkscape:connector-curvature="0"
           d="m 133.15504,481.14889 7.08662,0 0,14.1733 -7.08662,0 z"
           style="fill:none;stroke:#ff0000;stroke-opacity:1"
           id="path7769"
           sodipodi:nodetypes="ccccc" />
        <path
           inkscape:connector-curvature="0"
           d="m 268.33044,501.40619 0.77067,0.3191 0.71114,0.4358 0.63425,0.5416 0.54142,0.6342 0.43582,0.7111 0.31926,0.7706 0.19452,0.8109 0.0655,0.8315 3e-5,63.7795 -0.0656,0.8313 -0.1945,0.8111 -0.31926,0.7706 -0.43582,0.7112 -0.54142,0.6342 -0.63425,0.5414 -0.71114,0.4359 -0.77067,0.3192 -0.81071,0.1945 -0.83162,0.0658 -0.83126,-0.066 -0.81106,-0.1943 -0.77067,-0.3192 -0.71114,-0.4359 -0.63425,-0.5414 -0.54142,-0.6342 -0.43583,-0.7112 -0.31925,-0.7706 -0.19452,-0.8111 -0.0656,-0.8313 2e-5,-63.7795 0.0656,-0.8315 0.1945,-0.8109 0.31925,-0.7706 0.43583,-0.7111 0.54142,-0.6342 0.63425,-0.5416 0.71114,-0.4358 0.77067,-0.3191 0.81106,-0.1947 0.83126,-0.0658 0.83162,0.066 z"
           style="fill:none;stroke:#ff0000;stroke-opacity:1"
           id="path7819"
           sodipodi:nodetypes="ccccccccccccccccccccccccccccccccccccccccccc" />
        <path
           inkscape:connector-curvature="0"
           d="m 473.84225,501.40619 0.77067,0.3191 0.71114,0.4358 0.63425,0.5416 0.54142,0.6342 0.43583,0.7111 0.31925,0.7706 0.19452,0.8109 0.0656,0.8315 -2e-5,63.7795 -0.0656,0.8313 -0.1945,0.8111 -0.31925,0.7706 -0.43583,0.7112 -0.54142,0.6342 -0.63425,0.5414 -0.71114,0.4359 -0.77067,0.3192 -0.81106,0.1945 -0.83126,0.0658 -0.83162,-0.066 -0.81071,-0.1943 -0.77067,-0.3192 -0.71114,-0.4359 -0.63425,-0.5414 -0.54142,-0.6342 -0.43582,-0.7112 -0.31926,-0.7706 -0.19452,-0.8111 -0.0655,-0.8313 -2e-5,-63.7795 0.0655,-0.8315 0.19455,-0.8109 0.31926,-0.7706 0.43582,-0.7111 0.54142,-0.6342 0.63425,-0.5416 0.71114,-0.4358 0.77067,-0.3191 0.81071,-0.1947 0.83162,-0.0658 0.83126,0.066 z"
           style="fill:none;stroke:#ff0000;stroke-opacity:1"
           id="path7903"
           sodipodi:nodetypes="ccccccccccccccccccccccccccccccccccccccccccc" />
        <path
           inkscape:connector-curvature="0"
           d="m 284.40465,597.70079 2.1352,0.3384 1.92614,0.9811 1.52894,1.529 0.98149,1.9261 0.33803,2.1352 0,42.5197 -0.33803,2.1352 -0.98149,1.9261 -1.52894,1.529 -1.92614,0.9815 -2.1352,0.338 -2.1352,-0.338 -1.92614,-0.9815 -1.52894,-1.529 -0.98114,-1.9261 -0.33838,-2.1352 0,-42.5197 0.33838,-2.1352 0.98114,-1.9261 1.52894,-1.529 1.92614,-0.9811 z"
           style="fill:none;stroke:#ff0000;stroke-opacity:1"
           id="path7963"
           sodipodi:nodetypes="ccccccccccccccccccccccc" />
        <path
           inkscape:connector-curvature="0"
           d="m 375.03412,600.54929 0.98146,1.9261 0.33821,2.1352 0,42.5197 -0.33821,2.1352 -0.98146,1.9261 -1.52869,1.529 -1.92621,0.9815 -2.1352,0.338 -2.1352,-0.338 -1.92621,-0.9815 -1.52869,-1.529 -0.98146,-1.9261 -0.33821,-2.1352 0,-42.5197 0.33821,-2.1352 0.98146,-1.9261 1.52869,-1.529 1.92621,-0.9811 2.1352,-0.3384 2.1352,0.3384 1.92621,0.9811 z"
           style="fill:none;stroke:#ff0000;stroke-opacity:1"
           id="path8013"
           sodipodi:nodetypes="ccccccccccccccccccccccc" />
        <path
           inkscape:connector-curvature="0"
           d="m 450.42205,599.02029 1.92614,-0.9811 2.1352,-0.3384 2.1352,0.3384 1.92614,0.9811 1.52894,1.529 0.98114,1.9261 0.33838,2.1352 0,42.5197 -0.33838,2.1352 -0.98114,1.9261 -1.52894,1.529 -1.92614,0.9815 -2.1352,0.338 -2.1352,-0.338 -1.92614,-0.9815 -1.52894,-1.529 -0.98149,-1.9261 -0.33803,-2.1352 0,-42.5197 0.33803,-2.1352 0.98149,-1.9261 z"
           style="fill:none;stroke:#ff0000;stroke-opacity:1"
           id="path8047"
           sodipodi:nodetypes="ccccccccccccccccccccccc" />
        <path
           inkscape:connector-curvature="0"
           d="m 320.35292,623.73529 0.98149,-1.9262 1.52859,-1.5286 1.92614,-0.9815 2.1352,-0.338 2.13519,0.338 1.92614,0.9815 1.52859,1.5286 0.98149,1.9262 0.33803,2.1352 -0.33803,2.1352 -0.98149,1.9261 -1.52859,1.5286 -1.92614,0.9815 -2.13519,0.338 -2.1352,-0.338 -1.92614,-0.9815 -1.52859,-1.5286 -0.98149,-1.9261 -0.33803,-2.1352 z"
           style="fill:none;stroke:#ff0000;stroke-opacity:1"
           id="path8085"
           sodipodi:nodetypes="ccccccccccccccccccccc" />
        <path
           inkscape:connector-curvature="0"
           d="m 407.90237,631.46039 -1.52859,-1.5286 -0.98149,-1.9261 -0.33803,-2.1352 0.33803,-2.1352 0.98149,-1.9262 1.52859,-1.5286 1.92614,-0.9815 2.13519,-0.338 2.1352,0.338 1.92614,0.9815 1.52859,1.5286 0.98149,1.9262 0.33803,2.1352 -0.33803,2.1352 -0.98149,1.9261 -1.52859,1.5286 -1.92614,0.9815 -2.1352,0.338 -2.13519,-0.338 z"
           style="fill:none;stroke:#ff0000;stroke-opacity:1"
           id="path8117"
           sodipodi:nodetypes="ccccccccccccccccccccc" />
        <path
           inkscape:connector-curvature="0"
           d="m 417.55363,664.32879 0.98149,1.9261 0.33803,2.1352 -0.33803,2.1352 -0.98149,1.9262 -1.52859,1.5286 -1.92614,0.9815 -2.1352,0.338 -2.13519,-0.338 -1.92614,-0.9815 -1.52859,-1.5286 -0.98149,-1.9262 -0.33803,-2.1352 0.33803,-2.1352 0.98149,-1.9261 1.52859,-1.5286 1.92614,-0.9815 2.13519,-0.338 2.1352,0.338 1.92614,0.9815 z"
           style="fill:none;stroke:#ff0000;stroke-opacity:1"
           id="path8179"
           sodipodi:nodetypes="ccccccccccccccccccccc" />
        <path
           inkscape:connector-curvature="0"
           d="m 332.51426,664.32879 0.98149,1.9261 0.33803,2.1352 -0.33803,2.1352 -0.98149,1.9262 -1.52859,1.5286 -1.92614,0.9815 -2.13519,0.338 -2.1352,-0.338 -1.92614,-0.9815 -1.52859,-1.5286 -0.98149,-1.9262 -0.33803,-2.1352 0.33803,-2.1352 0.98149,-1.9261 1.52859,-1.5286 1.92614,-0.9815 2.1352,-0.338 2.13519,0.338 1.92614,0.9815 z"
           style="fill:none;stroke:#ff0000;stroke-opacity:1"
           id="path8219"
           sodipodi:nodetypes="ccccccccccccccccccccc" />
        <path
           inkscape:connector-curvature="0"
           d="m 460.07331,664.32879 0.9815,1.9261 0.33803,2.1352 -0.33803,2.1352 -0.9815,1.9262 -1.52858,1.5286 -1.92614,0.9815 -2.1352,0.338 -2.1352,-0.338 -1.92614,-0.9815 -1.52858,-1.5286 -0.9815,-1.9262 -0.33803,-2.1352 0.33803,-2.1352 0.9815,-1.9261 1.52858,-1.5286 1.92614,-0.9815 2.1352,-0.338 2.1352,0.338 1.92614,0.9815 z"
           style="fill:none;stroke:#ff0000;stroke-opacity:1"
           id="path8259"
           sodipodi:nodetypes="ccccccccccccccccccccc" />
        <path
           inkscape:connector-curvature="0"
           d="m 284.40465,661.48069 2.1352,0.338 1.92614,0.9815 1.52858,1.5286 0.9815,1.9261 0.33803,2.1352 -0.33803,2.1352 -0.9815,1.9262 -1.52858,1.5286 -1.92614,0.9815 -2.1352,0.338 -2.1352,-0.338 -1.92614,-0.9815 -1.52858,-1.5286 -0.9815,-1.9262 -0.33803,-2.1352 0.33803,-2.1352 0.9815,-1.9261 1.52858,-1.5286 1.92614,-0.9815 z"
           style="fill:none;stroke:#ff0000;stroke-opacity:1"
           id="path8293"
           sodipodi:nodetypes="ccccccccccccccccccccc" />
        <path
           inkscape:connector-curvature="0"
           d="m 363.85417,664.32879 1.52858,-1.5286 1.92618,-0.9815 2.13509,-0.338 2.13509,0.338 1.92618,0.9815 1.52858,1.5286 0.98139,1.9261 0.33821,2.1352 -0.33821,2.1352 -0.98139,1.9262 -1.52858,1.5286 -1.92618,0.9815 -2.13509,0.338 -2.13509,-0.338 -1.92618,-0.9815 -1.52858,-1.5286 -0.98139,-1.9262 -0.33821,-2.1352 0.33821,-2.1352 z"
           style="fill:none;stroke:#ff0000;stroke-opacity:1"
           id="path8327"
           sodipodi:nodetypes="ccccccccccccccccccccc" />
        <path
           inkscape:connector-curvature="0"
           d="m 542.85382,675.53239 1.29225,1.0467 0.90567,1.3946 0.43051,1.6062 -0.0872,1.6604 -0.59596,1.5523 -1.04634,1.2926 -1.39465,0.9057 -1.60618,0.4302 -1.66075,-0.087 -1.55232,-0.59585 -1.29224,-1.0464 -0.90602,-1.3946 -0.43016,-1.6066 0.0872,-1.6604 0.59561,-1.5526 1.0467,-1.2923 1.39464,-0.9056 1.60618,-0.4302 1.6604,0.0869 z"
           style="fill:none;stroke:#ff0000;stroke-opacity:1"
           id="path8377"
           sodipodi:nodetypes="ccccccccccccccccccccc" />
        <path
           inkscape:connector-curvature="0"
           d="m 585.31823,675.27979 1.39465,0.9056 1.04634,1.2923 0.59598,1.5526 0.0872,1.6604 -0.43054,1.6066 -0.90567,1.3946 -1.29224,1.0464 -1.55232,0.5959 -1.66075,0.087 -1.60618,-0.43025 -1.39465,-0.9057 -1.04633,-1.2926 -0.59599,-1.5523 -0.0872,-1.6604 0.43053,-1.6062 0.90567,-1.3946 1.29224,-1.0467 1.55232,-0.596 1.66075,-0.0869 z"
           style="fill:none;stroke:#ff0000;stroke-opacity:1"
           id="path8415"
           sodipodi:nodetypes="ccccccccccccccccccccc" />
        <path
           inkscape:connector-curvature="0"
           d="m 200.85347,675.27979 1.39464,0.9056 1.0467,1.2923 0.59563,1.5526 0.0872,1.6604 -0.43018,1.6066 -0.90602,1.3946 -1.29224,1.0464 -1.55232,0.5959 -1.66075,0.087 -1.60618,-0.43025 -1.39465,-0.9057 -1.04634,-1.2926 -0.59598,-1.5523 -0.0872,-1.6604 0.43053,-1.6062 0.90567,-1.3946 1.29225,-1.0467 1.55267,-0.596 1.6604,-0.0869 z"
           style="fill:none;stroke:#ff0000;stroke-opacity:1"
           id="path8455"
           sodipodi:nodetypes="ccccccccccccccccccccc" />
        <path
           inkscape:connector-curvature="0"
           d="m 158.38906,675.53239 1.29224,1.0467 0.90567,1.3946 0.43052,1.6062 -0.0872,1.6604 -0.59597,1.5523 -1.04633,1.2926 -1.39465,0.9057 -1.60618,0.4302 -1.66075,-0.087 -1.55232,-0.59585 -1.29224,-1.0464 -0.90567,-1.3946 -0.43052,-1.6066 0.0872,-1.6604 0.59597,-1.5526 1.04634,-1.2923 1.39465,-0.9056 1.60618,-0.4302 1.66075,0.0869 z"
           style="fill:none;stroke:#ff0000;stroke-opacity:1"
           id="path8497"
           sodipodi:nodetypes="ccccccccccccccccccccc" />
        <path
           inkscape:connector-curvature="0"
           d="m 284.40465,682.74019 2.1352,0.3384 1.92614,0.9811 1.52894,1.5289 0.98149,1.9262 0.33803,2.1352 0,42.5197 -0.33803,2.1352 -0.98149,1.9261 -1.52894,1.5289 -1.92614,0.9812 -2.1352,0.3384 -2.1352,-0.3384 -1.92614,-0.9812 -1.52894,-1.5289 -0.98114,-1.9261 -0.33838,-2.1352 0,-42.5197 0.33838,-2.1352 0.98114,-1.9262 1.52894,-1.5289 1.92614,-0.9811 z"
           style="fill:none;stroke:#ff0000;stroke-opacity:1"
           id="path8535"
           sodipodi:nodetypes="ccccccccccccccccccccccc" />
        <path
           inkscape:connector-curvature="0"
           d="m 375.03412,685.58859 0.98146,1.9262 0.33821,2.1352 0,42.5197 -0.33821,2.1352 -0.98146,1.9261 -1.52869,1.5289 -1.92621,0.9812 -2.1352,0.3384 -2.1352,-0.3384 -1.92621,-0.9812 -1.52869,-1.5289 -0.98146,-1.9261 -0.33821,-2.1352 0,-42.5197 0.33821,-2.1352 0.98146,-1.9262 1.52869,-1.5289 1.92621,-0.9811 2.1352,-0.3384 2.1352,0.3384 1.92621,0.9811 z"
           style="fill:none;stroke:#ff0000;stroke-opacity:1"
           id="path8585"
           sodipodi:nodetypes="ccccccccccccccccccccccc" />
        <path
           inkscape:connector-curvature="0"
           d="m 460.07367,685.58859 0.98114,1.9262 0.33838,2.1352 0,42.5197 -0.33838,2.1352 -0.98114,1.9261 -1.52894,1.5289 -1.92614,0.9812 -2.1352,0.3384 -2.1352,-0.3384 -1.92614,-0.9812 -1.52894,-1.5289 -0.98149,-1.9261 -0.33803,-2.1352 0,-42.5197 0.33803,-2.1352 0.98149,-1.9262 1.52894,-1.5289 1.92614,-0.9811 2.1352,-0.3384 2.1352,0.3384 1.92614,0.9811 z"
           style="fill:none;stroke:#ff0000;stroke-opacity:1"
           id="path8629"
           sodipodi:nodetypes="ccccccccccccccccccccccc" />
        <path
           inkscape:connector-curvature="0"
           d="m 405.39229,708.77459 0.98149,-1.9261 1.52859,-1.5286 1.92614,-0.9815 2.13519,-0.338 2.1352,0.338 1.92614,0.9815 1.52859,1.5286 0.98149,1.9261 0.33803,2.1352 -0.33803,2.1352 -0.98149,1.9262 -1.52859,1.5286 -1.92614,0.9814 -2.1352,0.3381 -2.13519,-0.3381 -1.92614,-0.9814 -1.52859,-1.5286 -0.98149,-1.9262 -0.33803,-2.1352 z"
           style="fill:none;stroke:#ff0000;stroke-opacity:1"
           id="path8657"
           sodipodi:nodetypes="ccccccccccccccccccccc" />
        <path
           inkscape:connector-curvature="0"
           d="m 332.51426,714.97119 -1.52859,1.5286 -1.92614,0.9814 -2.13519,0.3381 -2.1352,-0.3381 -1.92614,-0.9814 -1.52859,-1.5286 -0.98149,-1.9262 -0.33803,-2.1352 0.33803,-2.1352 0.98149,-1.9261 1.52859,-1.5286 1.92614,-0.9815 2.1352,-0.338 2.13519,0.338 1.92614,0.9815 1.52859,1.5286 0.98149,1.9261 0.33803,2.1352 -0.33803,2.1352 z"
           style="fill:none;stroke:#ff0000;stroke-opacity:1"
           id="path8719"
           sodipodi:nodetypes="ccccccccccccccccccccc" />
        <path
           inkscape:connector-curvature="0"
           d="m 174.08768,721.63999 -1.17602,-1.176 -0.75473,-1.4815 -0.26007,-1.6426 0.26007,-1.6424 0.75473,-1.4814 1.17602,-1.176 1.48146,-0.7548 1.64268,-0.2604 1.64232,0.2604 1.48146,0.7548 1.17602,1.176 0.75472,1.4814 0.26008,1.6424 -0.26008,1.6426 -0.75472,1.4815 -1.17602,1.176 -1.48146,0.7548 -1.64232,0.26 -1.64268,-0.26 z"
           style="fill:none;stroke:#ff0000;stroke-opacity:1"
           id="path8729"
           sodipodi:nodetypes="ccccccccccccccccccccc" />
        <path
           inkscape:connector-curvature="0"
           d="m 558.55244,721.63999 -1.17602,-1.176 -0.75472,-1.4815 -0.26044,-1.6426 0.26044,-1.6424 0.75472,-1.4814 1.17602,-1.176 1.48146,-0.7548 1.64232,-0.2604 1.64268,0.2604 1.48146,0.7548 1.17602,1.176 0.75473,1.4814 0.26007,1.6424 -0.26007,1.6426 -0.75473,1.4815 -1.17602,1.176 -1.48146,0.7548 -1.64268,0.26 -1.64232,-0.26 z"
           style="fill:none;stroke:#ff0000;stroke-opacity:1"
           id="path8769"
           sodipodi:nodetypes="ccccccccccccccccccccc" />
        <path
           inkscape:connector-curvature="0"
           d="m 406.37378,749.36819 1.52859,-1.5286 1.92614,-0.9815 2.13519,-0.338 2.1352,0.338 1.92614,0.9815 1.52859,1.5286 0.98149,1.9261 0.33803,2.1352 -0.33803,2.1352 -0.98149,1.9262 -1.52859,1.5285 -1.92614,0.9815 -2.1352,0.3381 -2.13519,-0.3381 -1.92614,-0.9815 -1.52859,-1.5285 -0.98149,-1.9262 -0.33803,-2.1352 0.33803,-2.1352 z"
           style="fill:none;stroke:#ff0000;stroke-opacity:1"
           id="path8819"
           sodipodi:nodetypes="ccccccccccccccccccccc" />
        <path
           inkscape:connector-curvature="0"
           d="m 365.38275,759.01939 -1.52858,-1.5285 -0.98139,-1.9262 -0.33821,-2.1352 0.33821,-2.1352 0.98139,-1.9261 1.52858,-1.5286 1.92618,-0.9815 2.13509,-0.338 2.13509,0.338 1.92618,0.9815 1.52858,1.5286 0.98139,1.9261 0.33821,2.1352 -0.33821,2.1352 -0.98139,1.9262 -1.52858,1.5285 -1.92618,0.9815 -2.13509,0.3381 -2.13509,-0.3381 z"
           style="fill:none;stroke:#ff0000;stroke-opacity:1"
           id="path8849"
           sodipodi:nodetypes="ccccccccccccccccccccc" />
        <path
           inkscape:connector-curvature="0"
           d="m 460.07331,749.36819 0.9815,1.9261 0.33803,2.1352 -0.33803,2.1352 -0.9815,1.9262 -1.52858,1.5285 -1.92614,0.9815 -2.1352,0.3381 -2.1352,-0.3381 -1.92614,-0.9815 -1.52858,-1.5285 -0.9815,-1.9262 -0.33803,-2.1352 0.33803,-2.1352 0.9815,-1.9261 1.52858,-1.5286 1.92614,-0.9815 2.1352,-0.338 2.1352,0.338 1.92614,0.9815 z"
           style="fill:none;stroke:#ff0000;stroke-opacity:1"
           id="path8911"
           sodipodi:nodetypes="ccccccccccccccccccccc" />
        <path
           inkscape:connector-curvature="0"
           d="m 284.40465,746.52009 2.1352,0.338 1.92614,0.9815 1.52858,1.5286 0.9815,1.9261 0.33803,2.1352 -0.33803,2.1352 -0.9815,1.9262 -1.52858,1.5285 -1.92614,0.9815 -2.1352,0.3381 -2.1352,-0.3381 -1.92614,-0.9815 -1.52858,-1.5285 -0.9815,-1.9262 -0.33803,-2.1352 0.33803,-2.1352 0.9815,-1.9261 1.52858,-1.5286 1.92614,-0.9815 z"
           style="fill:none;stroke:#ff0000;stroke-opacity:1"
           id="path8945"
           sodipodi:nodetypes="ccccccccccccccccccccc" />
        <path
           inkscape:connector-curvature="0"
           d="m 332.51426,749.36819 0.98149,1.9261 0.33803,2.1352 -0.33803,2.1352 -0.98149,1.9262 -1.52859,1.5285 -1.92614,0.9815 -2.13519,0.3381 -2.1352,-0.3381 -1.92614,-0.9815 -1.52859,-1.5285 -0.98149,-1.9262 -0.33803,-2.1352 0.33803,-2.1352 0.98149,-1.9261 1.52859,-1.5286 1.92614,-0.9815 2.1352,-0.338 2.13519,0.338 1.92614,0.9815 z"
           style="fill:none;stroke:#ff0000;stroke-opacity:1"
           id="path8991"
           sodipodi:nodetypes="ccccccccccccccccccccc" />
        <path
           inkscape:connector-curvature="0"
           d="m 407.90237,801.53909 -1.52859,-1.5286 -0.98149,-1.9261 -0.33803,-2.1352 0.33803,-2.1352 0.98149,-1.9261 1.52859,-1.5286 1.92614,-0.9815 2.13519,-0.338 2.1352,0.338 1.92614,0.9815 1.52859,1.5286 0.98149,1.9261 0.33803,2.1352 -0.33803,2.1352 -0.98149,1.9261 -1.52859,1.5286 -1.92614,0.9815 -2.1352,0.338 -2.13519,-0.338 z"
           style="fill:none;stroke:#ff0000;stroke-opacity:1"
           id="path9089"
           sodipodi:nodetypes="ccccccccccccccccccccc" />
        <path
           inkscape:connector-curvature="0"
           d="m 332.51426,800.01049 -1.52859,1.5286 -1.92614,0.9815 -2.13519,0.338 -2.1352,-0.338 -1.92614,-0.9815 -1.52859,-1.5286 -0.98149,-1.9261 -0.33803,-2.1352 0.33803,-2.1352 0.98149,-1.9261 1.52859,-1.5286 1.92614,-0.9815 2.1352,-0.338 2.13519,0.338 1.92614,0.9815 1.52859,1.5286 0.98149,1.9261 0.33803,2.1352 -0.33803,2.1352 z"
           style="fill:none;stroke:#ff0000;stroke-opacity:1"
           id="path9159"
           sodipodi:nodetypes="ccccccccccccccccccccc" />
        <path
           inkscape:connector-curvature="0"
           d="m 365.38275,801.53909 -1.52858,-1.5286 -0.98139,-1.9261 -0.33821,-2.1352 0.33821,-2.1352 0.98139,-1.9261 1.52858,-1.5286 1.92618,-0.9815 2.13509,-0.338 2.13509,0.338 1.92618,0.9815 1.52858,1.5286 0.98139,1.9261 0.33821,2.1352 -0.33821,2.1352 -0.98139,1.9261 -1.52858,1.5286 -1.92618,0.9815 -2.13509,0.338 -2.13509,-0.338 z"
           style="fill:none;stroke:#ff0000;stroke-opacity:1"
           id="path9169"
           sodipodi:nodetypes="ccccccccccccccccccccc" />
        <path
           inkscape:connector-curvature="0"
           d="m 289.99457,800.01049 -1.52858,1.5286 -1.92614,0.9815 -2.1352,0.338 -2.1352,-0.338 -1.92614,-0.9815 -1.52858,-1.5286 -0.9815,-1.9261 -0.33803,-2.1352 0.33803,-2.1352 0.9815,-1.9261 1.52858,-1.5286 1.92614,-0.9815 2.1352,-0.338 2.1352,0.338 1.92614,0.9815 1.52858,1.5286 0.9815,1.9261 0.33803,2.1352 -0.33803,2.1352 z"
           style="fill:none;stroke:#ff0000;stroke-opacity:1"
           id="path9239"
           sodipodi:nodetypes="ccccccccccccccccccccc" />
        <path
           inkscape:connector-curvature="0"
           d="m 460.07331,800.01049 -1.52858,1.5286 -1.92614,0.9815 -2.1352,0.338 -2.1352,-0.338 -1.92614,-0.9815 -1.52858,-1.5286 -0.9815,-1.9261 -0.33803,-2.1352 0.33803,-2.1352 0.9815,-1.9261 1.52858,-1.5286 1.92614,-0.9815 2.1352,-0.338 2.1352,0.338 1.92614,0.9815 1.52858,1.5286 0.9815,1.9261 0.33803,2.1352 -0.33803,2.1352 z"
           style="fill:none;stroke:#ff0000;stroke-opacity:1"
           id="path9279"
           sodipodi:nodetypes="ccccccccccccccccccccc" />
      </g>
    </g>
  </g>
</svg>
