<?xml version="1.0" encoding="UTF-8" standalone="no"?>
<svg
   xmlns:dc="http://purl.org/dc/elements/1.1/"
   xmlns:cc="http://creativecommons.org/ns#"
   xmlns:rdf="http://www.w3.org/1999/02/22-rdf-syntax-ns#"
   xmlns:svg="http://www.w3.org/2000/svg"
   xmlns="http://www.w3.org/2000/svg"
   xmlns:sodipodi="http://sodipodi.sourceforge.net/DTD/sodipodi-0.dtd"
   xmlns:inkscape="http://www.inkscape.org/namespaces/inkscape"
   width="509.01102"
   height="709.66199"
   id="svg8131"
   version="1.1"
   inkscape:version="0.91 r13725"
   sodipodi:docname="base_accessory.svg">
  <metadata
     id="metadata10469">
    <rdf:RDF>
      <cc:Work
         rdf:about="">
        <dc:format>image/svg+xml</dc:format>
        <dc:type
           rdf:resource="http://purl.org/dc/dcmitype/StillImage" />
        <dc:title></dc:title>
      </cc:Work>
    </rdf:RDF>
  </metadata>
  <sodipodi:namedview
     pagecolor="#ffffff"
     bordercolor="#666666"
     borderopacity="1"
     objecttolerance="10"
     gridtolerance="10"
     guidetolerance="10"
     inkscape:pageopacity="0"
     inkscape:pageshadow="2"
     inkscape:window-width="3734"
     inkscape:window-height="2121"
     id="namedview10467"
     showgrid="false"
     inkscape:zoom="1.2685914"
     inkscape:cx="-206.22977"
     inkscape:cy="140.14161"
     inkscape:window-x="106"
     inkscape:window-y="39"
     inkscape:window-maximized="1"
     inkscape:current-layer="g8147"
     fit-margin-top="0"
     fit-margin-left="0"
     fit-margin-right="0"
     fit-margin-bottom="0" />
  <desc
     id="desc8133">C:\Share\Robotics\SimpleBot\Parts\55r\base.dxf - scale = 1.000000, origin = (0.000000, 0.000000), auto = False</desc>
  <defs
     id="defs8135">
    <marker
       refY="0"
       refX="0"
       style="overflow:visible"
       id="DistanceX"
       orient="auto">
      <path
         style="stroke:#000000;stroke-width:0.5"
         d="M 3,-3 -3,3 M 0,-5 0,5"
         id="path8138"
         inkscape:connector-curvature="0" />
    </marker>
    <pattern
       height="8"
       width="8"
       patternUnits="userSpaceOnUse"
       y="0"
       x="0"
       id="Hatch">
      <path
         linecap="square"
         stroke="#000000"
         stroke-width="0.25"
         d="M8 4 l-4,4"
         id="path8141" />
      <path
         linecap="square"
         stroke="#000000"
         stroke-width="0.25"
         d="M6 2 l-4,4"
         id="path8143" />
      <path
         linecap="square"
         stroke="#000000"
         stroke-width="0.25"
         d="M4 0 l-4,4"
         id="path8145" />
    </pattern>
    <marker
       style="overflow:visible"
       refY="0"
       refX="0"
       orient="auto"
       id="DistanceX-3">
      <path
         id="path3486"
         style="stroke:#000000;stroke-width:0.5"
         d="M 3,-3 -3,3 M 0,-5 0,5"
         inkscape:connector-curvature="0" />
    </marker>
    <pattern
       y="0"
       x="0"
       width="8"
       patternUnits="userSpaceOnUse"
       id="Hatch-6"
       height="8">
      <path
         id="path3489"
         stroke-width="0.25"
         stroke="#000000"
         linecap="square"
         d="M8 4 l-4,4" />
      <path
         id="path3491"
         stroke-width="0.25"
         stroke="#000000"
         linecap="square"
         d="M6 2 l-4,4" />
      <path
         id="path3493"
         stroke-width="0.25"
         stroke="#000000"
         linecap="square"
         d="M4 0 l-4,4" />
    </pattern>
    <marker
       style="overflow:visible"
       refY="0"
       refX="0"
       orient="auto"
       id="DistanceX-7">
      <path
         id="path6904"
         style="stroke:#000000;stroke-width:0.5"
         d="M 3,-3 -3,3 M 0,-5 0,5"
         inkscape:connector-curvature="0" />
    </marker>
    <pattern
       y="0"
       x="0"
       width="8"
       patternUnits="userSpaceOnUse"
       id="Hatch-5"
       height="8">
      <path
         id="path6907"
         stroke-width="0.25"
         stroke="#000000"
         linecap="square"
         d="M8 4 l-4,4" />
      <path
         id="path6909"
         stroke-width="0.25"
         stroke="#000000"
         linecap="square"
         d="M6 2 l-4,4" />
      <path
         id="path6911"
         stroke-width="0.25"
         stroke="#000000"
         linecap="square"
         d="M4 0 l-4,4" />
    </pattern>
    <marker
       style="overflow:visible"
       refY="0"
       refX="0"
       orient="auto"
       id="DistanceX-36">
      <path
         id="path4242"
         style="stroke:#000000;stroke-width:0.5"
         d="M 3,-3 -3,3 M 0,-5 0,5"
         inkscape:connector-curvature="0" />
    </marker>
    <pattern
       y="0"
       x="0"
       width="8"
       patternUnits="userSpaceOnUse"
       id="Hatch-7"
       height="8">
      <path
         id="path4245"
         stroke-width="0.25"
         stroke="#000000"
         linecap="square"
         d="M8 4 l-4,4" />
      <path
         id="path4247"
         stroke-width="0.25"
         stroke="#000000"
         linecap="square"
         d="M6 2 l-4,4" />
      <path
         id="path4249"
         stroke-width="0.25"
         stroke="#000000"
         linecap="square"
         d="M4 0 l-4,4" />
    </pattern>
  </defs>
  <g
     inkscape:label="0"
     inkscape:groupmode="layer"
     id="g8147"
     transform="translate(-115.19574,-143.37355)">
    <path
       inkscape:connector-curvature="0"
       d="m 498.5984,511.74894 0.32882,0.0573 0.32208,0.0882 0.31217,0.1181 0.29976,0.1468 0.28453,0.1744 0.26716,0.2005 0.24697,0.2247 0.22465,0.2468 0.2002,0.267 0.17468,0.2846 0.14669,0.2998 0.118,0.3123 0.0882,0.322 0.0574,0.3289 0.0262,0.3327 10e-4,177.2765 0.03,1.8921 0.0893,1.8904 0.14845,1.8865 0.20764,1.8807 0.26646,1.8734 0.32563,1.8641 0.38374,1.8532 0.44149,1.84 0.49961,1.8252 0.5563,1.8085 0.61299,1.7904 0.66862,1.7699 0.72426,1.7486 0.77881,1.7245 0.83233,1.6994 0.88547,1.6721 0.93756,1.6437 0.98894,1.6137 1.03889,1.5813 1.08815,1.5485 1.13599,1.5133 1.18311,1.4765 1.22917,1.4389 1.27347,1.3996 1.31669,1.3593 1.35886,1.3167 1.3996,1.2734 1.43894,1.2292 1.47685,1.1831 1.51335,1.136 1.54807,1.0881 1.58173,1.0389 1.61327,0.989 1.64374,0.9372 1.67244,0.8858 1.69937,0.8323 1.72453,0.7788 1.74826,0.7239 1.77024,0.669 1.79043,0.613 1.80851,0.5563 1.82515,0.4996 1.84004,0.4415 1.85315,0.3838 1.86414,0.3252 1.87334,0.2668 1.88079,0.2077 1.88646,0.1484 1.89035,0.0892 1.89177,0.0293 1.89213,-0.029 1.89035,-0.0893 1.88646,-0.14855 1.88079,-0.2077 1.87335,-0.2668 1.86413,-0.3252 1.85315,-0.3838 1.84004,-0.4415 1.82516,-0.4996 1.8085,-0.5563 1.79043,-0.613 1.76988,-0.669 1.74863,-0.7239 1.72452,-0.7788 1.69937,-0.8323 1.67209,-0.8858 1.64374,-0.9372 1.61362,-0.989 1.58138,-1.0389 1.54843,-1.0881 1.51334,-1.136 1.4765,-1.1831 1.43894,-1.2292 1.3996,-1.2734 1.35921,-1.3167 1.3167,-1.3593 1.27346,-1.3996 1.22918,-1.4389 1.18311,-1.4765 1.13598,-1.5133 1.08815,-1.5485 1.0389,-1.5813 0.98893,-1.6137 0.93721,-1.6437 0.88583,-1.6721 0.83232,-1.6994 0.77882,-1.7245 0.72389,-1.7486 0.66898,-1.7699 0.61299,-1.7904 0.5563,-1.8085 0.49961,-1.8252 0.44149,-1.84 0.38374,-1.8532 0.32528,-1.8641 0.26681,-1.8734 0.20764,-1.8807 0.14846,-1.8865 0.0893,-1.8904 0.0294,-1.8921 0,-177.1652 0.016,-0.3334 0.0468,-0.3305 0.078,-0.3246 0.10841,-0.3159 0.13713,-0.3042 0.16547,-0.2899 0.19204,-0.2732 0.21686,-0.2538 0.23952,-0.2323 0.26044,-0.2087 0.0765,-0.0501 10e-6,-3.9862 -10.44248,0 -3.5e-4,-59.1729 10.44283,-4e-4 0,-49.0149 -10.44248,0 -3.5e-4,-49.37067 10.44283,-3.5e-4 0,-99.63709 -3.45579,-3.51071 -3.96637,-3.90437 -4.02733,-3.84201 -4.0872,-3.77787 -4.14567,-3.71339 -4.20378,-3.64783 -4.26047,-3.58122 -4.31611,-3.5139 -4.37102,-3.44587 -4.42453,-3.37677 -4.47696,-3.30661 -4.52835,-3.2361 -4.57866,-3.16453 -4.62756,-3.09189 -4.67575,-3.01925 -4.72287,-2.9452 -4.76823,-2.87079 -4.81252,-2.79531 -4.8561,-2.71985 -4.89827,-2.64295 -4.93937,-2.56535 -4.9787,-2.48776 -5.01733,-2.40945 -5.05452,-2.33008 -5.09032,-2.25071 -5.12539,-2.16992 -5.15835,-2.08948 -5.19094,-2.00835 -5.22177,-1.9265 -5.25154,-1.84393 -5.27953,-1.76138 -5.30681,-1.67847 -5.33232,-1.59484 -5.35677,-1.51051 -5.37981,-1.42654 -5.40177,-1.34185 -5.42197,-1.25681 -5.4411,-1.17142 -5.45882,-1.08566 -5.47512,-0.99993 -5.49035,-0.91381 -5.50382,-0.82772 -5.51622,-0.74091 -5.5272,-0.65409 -5.53667,-0.56728 -5.54503,-0.48012 -5.55186,-0.39331 -5.55736,-0.30579 -5.56143,-0.21862 -5.56424,-0.1311 -5.56554,-0.0436 -5.56554,0.0436 -5.56424,0.13109 -5.56143,0.21862 -5.55736,0.30579 -5.55186,0.39331 -5.54503,0.48012 -5.53667,0.56728 -5.5272,0.65409 -5.51622,0.74091 -5.50382,0.82772 -5.49035,0.91381 -5.47512,0.99993 -5.45882,1.08566 -5.4411,1.17142 -5.42197,1.25681 -5.40177,1.34185 -5.37981,1.42654 -5.35677,1.51051 -5.33232,1.59484 -5.30681,1.67847 -5.27953,1.76138 -5.25154,1.84393 -5.22177,1.9265 -5.19094,2.00835 -5.15835,2.08948 -5.12539,2.16992 -5.09032,2.25071 -5.05452,2.33008 -5.01733,2.40945 -4.9787,2.48776 -4.93937,2.56535 -4.89827,2.64295 -4.8561,2.71985 -4.81252,2.79531 -4.76823,2.87079 -4.72287,2.9452 -4.67575,3.01925 -4.62756,3.09189 -4.57866,3.16453 -4.52835,3.2361 -4.47696,3.30661 -4.42453,3.37677 -4.37102,3.44587 -4.31611,3.5139 -4.26047,3.58122 -4.20378,3.64783 -4.14567,3.71339 -4.0872,3.77787 -4.02733,3.84201 -3.96637,3.90437 -3.45579,3.51071 0,99.63744 10.44248,-3.5e-4 0,49.37102 -10.44248,0 0,49.0153 10.44248,-4e-4 0,59.1733 -10.44248,0 0,3.9833 0.25228,0.1894 0.24697,0.2247 0.22465,0.2468 0.20019,0.267 0.17469,0.2846 0.14669,0.2998 0.11799,0.3123 0.0882,0.322 0.0574,0.3289 0.0262,0.3327 0.002,177.2765 0.0293,1.8921 0.0893,1.8904 0.14846,1.8865 0.20764,1.8807 0.26681,1.8734 0.32528,1.8641 0.38374,1.8532 0.44149,1.84 0.49961,1.8252 0.5563,1.8085 0.61299,1.7904 0.66898,1.7699 0.72389,1.7486 0.77882,1.7245 0.83232,1.6994 0.88583,1.6721 0.93721,1.6437 0.98893,1.6137 1.0389,1.5813 1.08815,1.5485 1.13598,1.5133 1.18311,1.4765 1.22918,1.4389 1.27346,1.3996 1.3167,1.3593 1.35921,1.3167 1.3996,1.2734 1.43894,1.2292 1.4765,1.1831 1.51334,1.136 1.54843,1.0881 1.58138,1.0389 1.61362,0.989 1.64374,0.9372 1.67209,0.8858 1.69937,0.8323 1.72452,0.7788 1.74863,0.7239 1.76988,0.669 1.79043,0.613 1.8085,0.5563 1.82516,0.4996 1.84004,0.4415 1.85315,0.3838 1.86413,0.3252 1.87335,0.2668 1.88079,0.2077 1.88646,0.1484 1.89035,0.0892 1.89213,0.0293 1.89177,-0.029 1.89035,-0.0893 1.88646,-0.14855 1.88079,-0.2077 1.87334,-0.2668 1.86414,-0.3252 1.85315,-0.3838 1.84004,-0.4415 1.82515,-0.4996 1.80851,-0.5563 1.79043,-0.613 1.77024,-0.669 1.74826,-0.7239 1.72453,-0.7788 1.69937,-0.8323 1.67244,-0.8858 1.64374,-0.9372 1.61327,-0.989 1.58173,-1.0389 1.54807,-1.0881 1.51335,-1.136 1.47685,-1.1831 1.43894,-1.2292 1.3996,-1.2734 1.35886,-1.3167 1.31669,-1.3593 1.27347,-1.3996 1.22917,-1.4389 1.18311,-1.4765 1.13599,-1.5133 1.08815,-1.5485 1.03889,-1.5813 0.98894,-1.6137 0.93756,-1.6437 0.88547,-1.6721 0.83233,-1.6994 0.77881,-1.7245 0.72426,-1.7486 0.66862,-1.7699 0.61299,-1.7904 0.5563,-1.8085 0.49961,-1.8252 0.44149,-1.84 0.38374,-1.8532 0.32563,-1.8641 0.26646,-1.8734 0.20764,-1.8807 0.14846,-1.8865 0.0893,-1.8904 0.0298,-1.8921 -1e-5,-177.1652 0.0156,-0.3334 0.0471,-0.3305 0.078,-0.3246 0.10805,-0.3159 0.13712,-0.3042 0.16547,-0.2899 0.19205,-0.2732 0.21685,-0.2538 0.23953,-0.2323 0.26079,-0.2087 0.27886,-0.1833 0.29515,-0.1562 0.30827,-0.1278 0.31925,-0.0981 0.3267,-0.0679 0.332,-0.0366 0.33378,-0.007 0.33272,0.0285 0.32882,0.0573 0.32209,0.0882 0.31216,0.1181 0.29976,0.1468 0.28453,0.1744 0.26717,0.2005 0.24661,0.2247 0.225,0.2468 0.2002,0.267 0.17468,0.2846 0.1467,0.2998 0.11799,0.3123 0.0882,0.322 0.0574,0.3289 0.0262,0.3327 0.002,177.2765 -0.0334,2.1147 -0.0996,2.1128 -0.16617,2.1083 -0.23208,2.1023 -0.29799,2.0937 -0.36355,2.0835 -0.42874,2.071 -0.49393,2.0562 -0.55808,2.0402 -0.62185,2.0215 -0.68492,2.0009 -0.74763,1.9782 -0.8093,1.9538 -0.87023,1.9276 -0.93047,1.8995 -0.98965,1.8688 -1.04776,1.8372 -1.10515,1.8032 -1.16115,1.7677 -1.21606,1.7306 -1.26992,1.6912 -1.32236,1.6505 -1.37339,1.6083 -1.42334,1.564 -1.47189,1.519 -1.51866,1.4715 -1.56438,1.4234 -1.6083,1.3737 -1.65047,1.3224 -1.69123,1.2699 -1.73055,1.2161 -1.7674,1.1611 -1.80354,1.1048 -1.83685,1.0481 -1.8691,0.9897 -1.89921,0.9304 -1.92756,0.8703 -1.95413,0.8093 -1.97823,0.7476 -2.00091,0.6849 -2.02145,0.6219 -2.03988,0.5581 -2.05654,0.4935 -2.07106,0.4291 -2.08347,0.3636 -2.09374,0.298 -2.10224,0.2321 -2.10827,0.1658 -2.11252,0.0999 -2.11464,0.033 0,36.091 2.37224,1.5321 4.72287,2.9452 4.76823,2.8708 4.81252,2.7953 4.8561,2.7199 4.89827,2.6429 4.93937,2.5654 4.9787,2.4877 5.01733,2.4095 5.05452,2.3301 5.09032,2.2507 5.12539,2.1699 5.15835,2.0895 5.19094,2.0083 5.22177,1.9265 5.25154,1.844 5.27953,1.7614 5.30681,1.6784 5.33232,1.5949 5.35677,1.5105 5.37981,1.4265 5.40177,1.3419 5.42197,1.2568 5.4411,1.1714 5.45882,1.0857 5.47512,0.9999 5.49035,0.9138 5.50382,0.8277 5.51622,0.7409 5.5272,0.6541 5.53667,0.5673 5.54503,0.4801 5.55186,0.3933 5.55736,0.3058 5.56143,0.2186 5.56424,0.1311 5.56554,0.0436 5.56554,-0.0438 5.56424,-0.1309 5.56143,-0.2186 5.55736,-0.3058 5.55186,-0.3933 5.54503,-0.4801 5.53667,-0.5673 5.5272,-0.6541 5.51622,-0.7409 5.50382,-0.8277 5.49035,-0.9138 5.47512,-0.9999 5.45882,-1.0857 5.4411,-1.1714 5.42197,-1.2568 5.40177,-1.3419 5.37981,-1.4265 5.35677,-1.5105 5.33232,-1.5949 5.30681,-1.6784 5.27953,-1.7614 5.25154,-1.844 5.22177,-1.9265 5.19094,-2.0083 5.15835,-2.0895 5.12539,-2.1699 5.09032,-2.2507 5.05452,-2.3301 5.01733,-2.4095 4.9787,-2.4877 4.93937,-2.5654 4.89827,-2.6429 4.8561,-2.7199 4.81252,-2.7953 4.76823,-2.8708 4.72287,-2.9452 2.37224,-1.5321 0,-36.091 -2.11464,-0.033 -2.11252,-0.0999 -2.10827,-0.16575 -2.10224,-0.2321 -2.09374,-0.298 -2.08347,-0.3636 -2.07106,-0.4291 -2.05654,-0.4935 -2.03988,-0.5581 -2.02145,-0.6219 -2.00091,-0.6849 -1.97823,-0.7476 -1.95413,-0.8093 -1.92756,-0.8703 -1.89921,-0.9304 -1.8691,-0.9897 -1.83685,-1.0481 -1.80354,-1.1048 -1.7674,-1.1611 -1.73055,-1.2161 -1.69123,-1.2699 -1.65047,-1.3224 -1.6083,-1.3737 -1.56438,-1.4234 -1.51866,-1.4715 -1.47189,-1.519 -1.42334,-1.564 -1.37339,-1.6083 -1.32236,-1.6505 -1.26992,-1.6912 -1.21606,-1.7306 -1.16115,-1.7677 -1.10515,-1.8032 -1.04776,-1.8372 -0.98965,-1.8688 -0.93047,-1.8995 -0.87023,-1.9276 -0.8093,-1.9538 -0.74763,-1.9782 -0.68492,-2.0009 -0.62185,-2.0215 -0.55808,-2.0402 -0.49393,-2.0562 -0.42874,-2.071 -0.36355,-2.0835 -0.29799,-2.0937 -0.23208,-2.1023 -0.16619,-2.1083 -0.0996,-2.1128 -0.0333,-2.1147 -10e-6,-177.1652 0.0159,-0.3334 0.0471,-0.3305 0.0779,-0.3246 0.10811,-0.3159 0.13712,-0.3042 0.16547,-0.2899 0.19205,-0.2732 0.21685,-0.2538 0.23953,-0.2323 0.26079,-0.2087 0.27885,-0.1833 0.29516,-0.1562 0.30827,-0.1278 0.31925,-0.0981 0.32669,-0.0679 0.33201,-0.0366 0.33378,-0.007 z"
       style="fill:none;stroke:#0000ff;stroke-opacity:1"
       id="path5161"
       sodipodi:nodetypes="cccccccccccccccccccccccccccccccccccccccccccccccccccccccccccccccccccccccccccccccccccccccccccccccccccccccccccccccccccccccccccccccccccccccccccccccccccccccccccccccccccccccccccccccccccccccccccccccccccccccccccccccccccccccccccccccccccccccccccccccccccccccccccccccccccccccccccccccccccccccccccccccccccccccccccccccccccccccccccccccccccccccccccccccccccccccccccccccccccccccccccccccccccccccccccccccccccccccccccccccccccccccccccccccccccccccccccccccccccccccccccccccccccccccccccccccccccccccccccccccccccccccccccccccccccccccccccccccccccccccccccccccccccccccccccccccccccccccccccccccccccccccccccccccccccccccccccccc" />
    <path
       inkscape:connector-curvature="0"
       d="m 305.47789,413.13689 -0.32882,-0.0574 -0.32209,-0.0882 -0.31217,-0.118 -0.30011,-0.14669 -0.28453,-0.17433 -0.26681,-0.20055 -0.24697,-0.22465 -0.22465,-0.24697 -0.20055,-0.26681 -0.17433,-0.28453 -0.14669,-0.30012 -0.11799,-0.31216 -0.0882,-0.32209 -0.0574,-0.32882 -0.0262,-0.33271 -0.002,-177.27662 0.0334,-2.11464 0.0996,-2.11252 0.16582,-2.10862 0.23208,-2.10189 0.29799,-2.09374 0.36355,-2.08347 0.42909,-2.07106 0.49359,-2.05654 0.55807,-2.03988 0.62185,-2.02146 0.68527,-2.0009 0.74764,-1.97858 0.80929,-1.95378 0.87024,-1.92756 0.93047,-1.89922 0.98965,-1.86909 1.04775,-1.8372 1.10516,-1.80319 1.16114,-1.76776 1.21606,-1.7302 1.26992,-1.69122 1.32237,-1.65082 1.37338,-1.60796 1.42335,-1.56437 1.47189,-1.51866 1.51866,-1.47189 1.56437,-1.42334 1.60831,-1.37339 1.65047,-1.32236 1.69122,-1.26992 1.7302,-1.21607 1.76775,-1.16114 1.8033,-1.10516 1.83713,-1.04775 1.8691,-0.98965 1.89924,-0.93047 1.92753,-0.87023 1.95396,-0.8093 1.97837,-0.74764 2.00087,-0.68527 2.02145,-0.62185 2.03999,-0.55807 2.05646,-0.49358 2.07096,-0.4291 2.08347,-0.36354 2.09384,-0.29799 2.1021,-0.23209 2.10845,-0.16583 2.11253,-0.0996 2.1146,-0.0333 2.11465,0.0333 2.11255,0.0996 2.10845,0.16581 2.1021,0.23209 2.09381,0.29799 2.08346,0.36354 2.07096,0.4291 2.0565,0.49358 2.03999,0.55807 2.02142,0.62185 2.00091,0.68527 1.97833,0.74764 1.95399,0.8093 1.92753,0.87023 1.89924,0.93047 1.8691,0.98965 1.8371,1.04775 1.80326,1.10516 1.76775,1.16114 1.7302,1.21607 1.69122,1.26992 1.65083,1.32236 1.60795,1.37339 1.56437,1.42334 1.51866,1.47189 1.47189,1.51866 1.42335,1.56437 1.37338,1.60796 1.32236,1.65082 1.26993,1.69122 1.21606,1.7302 1.16114,1.76776 1.10516,1.80319 1.04775,1.8372 0.98965,1.86909 0.93047,1.89922 0.87024,1.92756 0.80929,1.95378 0.74764,1.97858 0.68527,2.0009 0.62185,2.02146 0.55807,2.03988 0.49359,2.05654 0.42909,2.07106 0.36354,2.08347 0.298,2.09374 0.23208,2.10189 0.16583,2.10862 0.0996,2.11252 0.0333,2.11464 0,177.16536 -0.0159,0.33342 -0.0468,0.33059 -0.0779,0.32457 -0.10845,0.31571 -0.13713,0.30437 -0.16547,0.28984 -0.19205,0.27319 -0.21685,0.2537 -0.23952,0.23244 -0.26044,0.2087 -0.27921,0.18319 -0.2948,0.15626 -0.30862,0.12791 -0.3189,0.0982 -0.32705,0.0677 -0.33165,0.0365 -0.33378,0.005 -0.33307,-0.0261 -0.32882,-0.0574 -0.32173,-0.0882 -0.31252,-0.118 -0.29977,-0.14669 -0.28452,-0.17433 -0.26717,-0.20055 -0.24662,-0.22465 -0.22464,-0.24697 -0.20055,-0.26681 -0.17433,-0.28453 -0.14705,-0.30012 -0.11799,-0.31216 -0.0879,-0.32209 -0.0574,-0.32882 -0.0262,-0.33271 -0.002,-177.27662 -0.0297,-1.89212 -0.0893,-1.89 -0.14846,-1.88646 -0.20764,-1.88114 -0.26645,-1.87335 -0.32528,-1.86413 -0.38374,-1.8528 -0.44185,-1.84004 -0.49925,-1.82515 -0.5563,-1.80886 -0.61299,-1.79008 -0.66898,-1.77024 -0.72425,-1.74826 -0.77882,-1.72453 -0.83232,-1.69937 -0.88548,-1.67244 -0.93755,-1.64374 -0.98859,-1.61362 -1.0389,-1.58138 -1.08815,-1.54807 -1.13633,-1.51335 -1.18311,-1.47685 -1.22882,-1.43894 -1.27347,-1.3996 -1.31704,-1.35886 -1.35886,-1.31705 -1.39961,-1.27346 -1.43894,-1.22882 -1.47685,-1.18311 -1.5132,-1.13634 -1.54821,-1.08815 -1.58156,-1.0389 -1.61344,-0.98858 -1.64374,-0.93756 -1.67234,-0.88547 -1.69933,-0.83233 -1.72464,-0.77881 -1.7483,-0.72426 -1.77013,-0.66897 -1.79026,-0.613 -1.80864,-0.5563 -1.82523,-0.49925 -1.83997,-0.44185 -1.85304,-0.38374 -1.8641,-0.32527 -1.87342,-0.26646 -1.88086,-0.20764 -1.88649,-0.14846 -1.89017,-0.0893 -1.89206,-0.0298 -1.89201,0.0298 -1.89015,0.0893 -1.88649,0.14845 -1.8809,0.20764 -1.87338,0.26646 -1.86413,0.32527 -1.85301,0.38374 -1.84001,0.44185 -1.82522,0.49925 -1.80865,0.5563 -1.79022,0.613 -1.77016,0.66897 -1.74831,0.72426 -1.7246,0.77881 -1.69937,0.83233 -1.67233,0.88547 -1.64374,0.93756 -1.61345,0.98858 -1.58155,1.0389 -1.54818,1.08815 -1.51327,1.13634 -1.47685,1.18311 -1.43894,1.22882 -1.39961,1.27346 -1.35886,1.31705 -1.31669,1.35886 -1.27382,1.3996 -1.22882,1.43894 -1.18311,1.47685 -1.13634,1.51335 -1.08779,1.54807 -1.0389,1.58138 -0.98894,1.61362 -0.93755,1.64374 -0.88548,1.67244 -0.83232,1.69937 -0.77882,1.72453 -0.72425,1.74826 -0.66898,1.77024 -0.61299,1.79008 -0.5563,1.80886 -0.49925,1.82515 -0.44185,1.84004 -0.38374,1.8528 -0.32528,1.86413 -0.26645,1.87335 -0.20764,1.88114 -0.14847,1.88646 -0.0893,1.89 -0.0298,1.89212 2e-5,177.16536 -0.0156,0.33342 -0.0471,0.33059 -0.0779,0.32457 -0.10809,0.31571 -0.13748,0.30437 -0.16547,0.28984 -0.1917,0.27319 -0.21685,0.2537 -0.23988,0.23244 -0.26043,0.2087 -0.27921,0.18319 -0.29481,0.15626 -0.30862,0.12791 -0.3189,0.0982 -0.32704,0.0677 -0.33166,0.0365 -0.33378,0.005 z"
       style="fill:none;stroke:#ff0000;stroke-opacity:1"
       id="path5699"
       sodipodi:nodetypes="ccccccccccccccccccccccccccccccccccccccccccccccccccccccccccccccccccccccccccccccccccccccccccccccccccccccccccccccccccccccccccccccccccccccccccccccccccccccccccccccccccccccccccccccccccccccccccccccccccccccccccccccccccccccccccccccccccccccccccccccccccccccccccccccccccccccccccccccc" />
    <path
       inkscape:connector-curvature="0"
       d="m 371.34377,202.59818 0.77055,0.31925 0.71109,0.43583 0.63419,0.54142 0.54166,0.63425 0.43576,0.71114 0.31915,0.77067 0.1947,0.81106 0.0655,0.83126 -0.0655,0.83162 -0.19469,0.81071 -0.31915,0.77067 -0.43576,0.71114 -0.54166,0.63425 -0.63419,0.54142 -0.71109,0.43582 -0.77055,0.31926 -0.81094,0.19452 -0.83144,0.0656 -0.83138,-0.0656 -0.81095,-0.19449 -0.77055,-0.31926 -0.71109,-0.43582 -0.6342,-0.54142 -0.54163,-0.63425 -0.43579,-0.71114 -0.31915,-0.77067 -0.1947,-0.81071 -0.0654,-0.83162 0.0654,-0.83126 0.1947,-0.81106 0.31915,-0.77067 0.43579,-0.71114 0.54163,-0.63425 0.6342,-0.54142 0.71109,-0.43583 0.77055,-0.31925 0.81095,-0.19453 0.83138,-0.0656 0.83144,0.0656 z"
       style="fill:none;stroke:#ff0000;stroke-opacity:1"
       id="path6011"
       sodipodi:nodetypes="ccccccccccccccccccccccccccccccccccccccccc" />
    <path
       inkscape:connector-curvature="0"
       d="m 349.59691,239.72389 0.78612,0.2785 0.73297,0.39792 0.66168,0.50775 0.57408,0.60485 0.47236,0.6874 0.35908,0.7526 0.23684,0.79972 0.10892,0.82701 -0.0219,0.83374 -0.15195,0.81992 -0.2784,0.78626 -0.39798,0.73311 -0.50768,0.66154 -0.60499,0.57401 -0.68729,0.47232 -0.75278,0.3593 -0.79972,0.23669 -0.82687,0.10878 -0.83371,-0.0216 -0.82002,-0.15201 -0.78619,-0.27851 -0.73301,-0.39791 -0.66164,-0.50776 -0.57408,-0.60484 -0.4724,-0.6874 -0.35904,-0.7526 -0.23687,-0.79972 -0.10889,-0.82701 0.0218,-0.83374 0.15202,-0.81992 0.27836,-0.78626 0.39798,-0.73311 0.50776,-0.66154 0.60495,-0.57402 0.68736,-0.47232 0.75274,-0.35929 0.79966,-0.23669 0.8269,-0.10914 0.8337,0.022 z"
       style="fill:none;stroke:#ff0000;stroke-opacity:1"
       id="path6091"
       sodipodi:nodetypes="ccccccccccccccccccccccccccccccccccccccccc" />
    <path
       inkscape:connector-curvature="0"
       d="m 396.38026,245.96295 -0.23687,0.79972 -0.35904,0.7526 -0.4724,0.6874 -0.57405,0.60484 -0.66167,0.50776 -0.73297,0.39791 -0.78619,0.27851 -0.82003,0.152 -0.8337,0.0216 -0.82691,-0.10877 -0.79969,-0.23669 -0.75277,-0.3593 -0.6873,-0.47232 -0.60502,-0.57401 -0.50768,-0.66154 -0.39799,-0.73311 -0.27836,-0.78626 -0.15201,-0.81992 -0.0218,-0.83374 0.10892,-0.82701 0.23684,-0.79972 0.35908,-0.7526 0.47236,-0.6874 0.57408,-0.60485 0.66168,-0.50775 0.73297,-0.39792 0.78612,-0.2785 0.82009,-0.15201 0.83371,-0.022 0.8269,0.10916 0.79966,0.23669 0.75274,0.35929 0.68736,0.47232 0.60495,0.57402 0.50776,0.66154 0.39798,0.73311 0.27836,0.78626 0.15201,0.81992 0.0218,0.83374 z"
       style="fill:none;stroke:#ff0000;stroke-opacity:1"
       id="path6189"
       sodipodi:nodetypes="ccccccccccccccccccccccccccccccccccccccccc" />
    <path
       inkscape:connector-curvature="0"
       d="m 524.56659,336.14154 0.54071,0.13003 0.51377,0.2126 0.4741,0.29055 0.42272,0.36106 0.36106,0.42272 0.29055,0.47409 0.21295,0.51378 0.12969,0.54071 0.0436,0.55417 56.99763,0 0.0436,-0.55417 0.12968,-0.54071 0.21295,-0.51378 0.29055,-0.47409 0.36106,-0.42272 0.42272,-0.36106 0.47409,-0.29055 0.51378,-0.2126 0.54071,-0.13004 0.55418,-0.0436 0.55417,0.0436 0.54071,0.13003 0.51378,0.2126 0.47409,0.29055 0.42272,0.36106 0.36106,0.42272 0.29055,0.47409 0.2126,0.51378 0.13004,0.54071 0.0436,0.55417 -10e-6,11.33858 -0.0436,0.55418 -0.13003,0.54071 -0.2126,0.51378 -0.29055,0.47409 -0.36106,0.42272 -0.42272,0.36106 -0.47409,0.29055 -0.51378,0.2126 -0.54071,0.13004 -0.55417,0.0436 -0.55418,-0.0436 -0.54071,-0.13003 -0.51378,-0.2126 -0.47409,-0.29055 -0.42272,-0.36106 -0.36106,-0.42272 -0.29055,-0.47409 -0.21295,-0.51378 -0.12969,-0.54071 -0.0436,-0.55418 -56.99763,0 -0.0436,0.55418 -0.12968,0.54071 -0.21295,0.51378 -0.29055,0.47409 -0.36106,0.42272 -0.42272,0.36106 -0.4741,0.29055 -0.51377,0.2126 -0.54071,0.13004 -0.55418,0.0436 -0.55417,-0.0436 -0.54071,-0.13003 -0.51378,-0.2126 -0.47409,-0.29055 -0.42272,-0.36106 -0.36106,-0.42272 -0.29055,-0.47409 -0.21296,-0.51378 -0.12968,-0.54071 -0.0436,-0.55418 10e-6,-11.33858 0.0436,-0.55417 0.12967,-0.54071 0.21296,-0.51378 0.29055,-0.47409 0.36106,-0.42272 0.42272,-0.36106 0.47409,-0.29055 0.51378,-0.2126 0.54071,-0.13004 0.55417,-0.0436 z"
       style="fill:none;stroke:#ff0000;stroke-opacity:1"
       id="path6293"
       sodipodi:nodetypes="ccccccccccccccccccccccccccccccccccccccccccccccccccccccccccccccccccccccccccccccccccccc" />
    <path
       inkscape:connector-curvature="0"
       d="m 151.86029,336.14154 0.54071,0.13003 0.51378,0.2126 0.47409,0.29055 0.42272,0.36106 0.36106,0.42272 0.29055,0.47409 0.21295,0.51378 0.12969,0.54071 0.0436,0.55417 56.99763,0 0.0436,-0.55417 0.12968,-0.54071 0.21295,-0.51378 0.29055,-0.47409 0.36106,-0.42272 0.42272,-0.36106 0.4741,-0.29055 0.51377,-0.2126 0.54071,-0.13004 0.55418,-0.0436 0.55417,0.0436 0.54071,0.13003 0.51378,0.2126 0.47409,0.29055 0.42272,0.36106 0.36106,0.42272 0.29055,0.47409 0.2126,0.51378 0.13004,0.54071 0.0436,0.55417 -1e-5,11.33858 -0.0436,0.55418 -0.13003,0.54071 -0.2126,0.51378 -0.29055,0.47409 -0.36106,0.42272 -0.42272,0.36106 -0.47409,0.29055 -0.51378,0.2126 -0.54071,0.13004 -0.55417,0.0436 -0.55418,-0.0436 -0.54071,-0.13003 -0.51377,-0.2126 -0.4741,-0.29055 -0.42272,-0.36106 -0.36106,-0.42272 -0.29055,-0.47409 -0.21295,-0.51378 -0.12969,-0.54071 -0.0436,-0.55418 -56.99763,0 -0.0436,0.55418 -0.12968,0.54071 -0.21295,0.51378 -0.29055,0.47409 -0.36106,0.42272 -0.42272,0.36106 -0.47409,0.29055 -0.51378,0.2126 -0.54071,0.13004 -0.55418,0.0436 -0.55417,-0.0436 -0.54071,-0.13003 -0.51378,-0.2126 -0.47409,-0.29055 -0.42272,-0.36106 -0.36106,-0.42272 -0.29055,-0.47409 -0.21295,-0.51378 -0.12969,-0.54071 -0.0436,-0.55418 1e-5,-11.33858 0.0436,-0.55417 0.12968,-0.54071 0.21295,-0.51378 0.29055,-0.47409 0.36106,-0.42272 0.42272,-0.36106 0.47409,-0.29055 0.51378,-0.2126 0.54071,-0.13004 0.55417,-0.0436 z"
       style="fill:none;stroke:#ff0000;stroke-opacity:1"
       id="path6461"
       sodipodi:nodetypes="ccccccccccccccccccccccccccccccccccccccccccccccccccccccccccccccccccccccccccccccccccccc" />
    <path
       inkscape:connector-curvature="0"
       d="m 188.44564,400.17334 -13.35437,0 -3.5e-4,-31.2998 13.35472,-3.6e-4 z"
       style="fill:none;stroke:#ff0000;stroke-opacity:1"
       id="path6551"
       sodipodi:nodetypes="ccccc" />
    <path
       inkscape:connector-curvature="0"
       d="m 564.31151,400.17334 -13.35437,0 -3.6e-4,-31.2998 13.35473,-3.6e-4 z"
       style="fill:none;stroke:#ff0000;stroke-opacity:1"
       id="path6559"
       sodipodi:nodetypes="ccccc" />
    <path
       inkscape:connector-curvature="0"
       d="m 598.90375,390.13338 0,-14.17323 7.08662,0 0,14.17323 z"
       style="fill:none;stroke:#ff0000;stroke-opacity:1"
       id="path6569"
       sodipodi:nodetypes="ccccc" />
    <path
       inkscape:connector-curvature="0"
       d="m 133.41241,375.96015 7.08662,0 0,14.17323 -7.08662,0 z"
       style="fill:none;stroke:#ff0000;stroke-opacity:1"
       id="path6571"
       sodipodi:nodetypes="ccccc" />
    <path
       inkscape:connector-curvature="0"
       d="m 472.4573,462.06239 -0.41705,-0.016 -0.41457,-0.0493 -0.40925,-0.0812 -0.40146,-0.11345 -0.39153,-0.1446 -0.37914,-0.1747 -0.36425,-0.2037 -0.34689,-0.2321 -0.32775,-0.2583 -0.3065,-0.2831 -0.28311,-0.3065 -0.25831,-0.3278 -0.23208,-0.3468 -0.20374,-0.3643 -0.17469,-0.3791 -0.14457,-0.3916 -0.11338,-0.4014 -0.0811,-0.4093 -0.0493,-0.4145 -0.0163,-0.4171 0,-63.77952 0.0163,-0.41704 0.0492,-0.41422 0.0812,-0.4096 0.1134,-0.40146 0.14457,-0.39153 0.17469,-0.37914 0.20374,-0.3639 0.23208,-0.34724 0.25831,-0.32776 0.28311,-0.30649 0.3065,-0.28311 0.32775,-0.25831 0.34689,-0.23209 0.36425,-0.20374 0.37914,-0.17468 0.39153,-0.14457 0.40146,-0.11338 0.40925,-0.0811 0.41457,-0.0493 0.41705,-0.0163 0.41704,0.0163 0.41422,0.0493 0.4096,0.0811 0.40146,0.1134 0.39153,0.14457 0.37914,0.17468 0.36389,0.20374 0.34725,0.23209 0.32776,0.25831 0.30649,0.28311 0.28311,0.30649 0.25831,0.32776 0.23173,0.34724 0.2041,0.3639 0.17468,0.37914 0.14457,0.39153 0.11303,0.40146 0.0815,0.4096 0.0493,0.41422 0.0163,0.41704 0,63.77952 -0.0163,0.4171 -0.0493,0.4145 -0.0815,0.4093 -0.11302,0.4014 -0.14457,0.3916 -0.17468,0.3791 -0.2041,0.3643 -0.23173,0.3468 -0.25831,0.3278 -0.28311,0.3065 -0.30649,0.2831 -0.32776,0.2583 -0.34725,0.2321 -0.36389,0.2037 -0.37914,0.1747 -0.39153,0.1446 -0.40146,0.1134 -0.4096,0.0811 -0.41422,0.0492 z"
       style="fill:none;stroke:#ff0000;stroke-opacity:1"
       id="path6739"
       sodipodi:nodetypes="ccccccccccccccccccccccccccccccccccccccccccccccccccccccccccccccccccccccccccccccccccc" />
    <path
       inkscape:connector-curvature="0"
       d="m 266.52844,462.04639 -0.41422,-0.0493 -0.4096,-0.0812 -0.40146,-0.11345 -0.39153,-0.1446 -0.37914,-0.1747 -0.36389,-0.2037 -0.34725,-0.2321 -0.32776,-0.2583 -0.30649,-0.2831 -0.28311,-0.3065 -0.25831,-0.3278 -0.23173,-0.3468 -0.2041,-0.3643 -0.17468,-0.3791 -0.14457,-0.3916 -0.11303,-0.4014 -0.0815,-0.4093 -0.0493,-0.4145 -0.0163,-0.4171 0,-63.77952 0.0163,-0.41704 0.0493,-0.41422 0.0815,-0.4096 0.11302,-0.40146 0.14457,-0.39153 0.17468,-0.37914 0.2041,-0.3639 0.23173,-0.34724 0.25831,-0.32776 0.28311,-0.30649 0.30649,-0.28311 0.32776,-0.25831 0.34725,-0.23209 0.36389,-0.20374 0.37914,-0.17468 0.39153,-0.14457 0.40146,-0.11338 0.4096,-0.0811 0.41422,-0.0493 0.41704,-0.0163 0.41705,0.0163 0.41457,0.0493 0.40925,0.0811 0.40146,0.1134 0.39153,0.14457 0.37914,0.17468 0.36425,0.20374 0.34689,0.23209 0.32775,0.25831 0.3065,0.28311 0.28311,0.30649 0.25831,0.32776 0.23208,0.34724 0.20374,0.3639 0.17469,0.37914 0.14457,0.39153 0.11338,0.40146 0.0811,0.4096 0.0493,0.41422 0.0163,0.41704 0,63.77952 -0.0163,0.4171 -0.0492,0.4145 -0.0812,0.4093 -0.1134,0.4014 -0.14457,0.3916 -0.17469,0.3791 -0.20374,0.3643 -0.23208,0.3468 -0.25831,0.3278 -0.28311,0.3065 -0.3065,0.2831 -0.32775,0.2583 -0.34689,0.2321 -0.36425,0.2037 -0.37914,0.1747 -0.39153,0.1446 -0.40146,0.1134 -0.40925,0.0811 -0.41457,0.0492 -0.41705,0.0163 z"
       style="fill:none;stroke:#ff0000;stroke-opacity:1"
       id="path6905"
       sodipodi:nodetypes="ccccccccccccccccccccccccccccccccccccccccccccccccccccccccccccccccccccccccccccccccccc" />
    <path
       inkscape:connector-curvature="0"
       d="m 200.73525,417.88917 0,14.17322 -7.08662,0 0,-14.17322 z"
       style="fill:none;stroke:#ff0000;stroke-opacity:1"
       id="path6909-3"
       sodipodi:nodetypes="ccccc" />
    <path
       inkscape:connector-curvature="0"
       d="m 545.75415,432.06239 -7.08662,0 0,-14.17322 7.08662,0 z"
       style="fill:none;stroke:#ff0000;stroke-opacity:1"
       id="path6919"
       sodipodi:nodetypes="ccccc" />
    <path
       inkscape:connector-curvature="0"
       d="m 577.64391,417.88917 0,14.17322 -7.08661,0 0,-14.17322 z"
       style="fill:none;stroke:#ff0000;stroke-opacity:1"
       id="path6925"
       sodipodi:nodetypes="ccccc" />
    <path
       inkscape:connector-curvature="0"
       d="m 168.84548,432.06239 -7.08661,0 0,-14.17322 7.08661,0 z"
       style="fill:none;stroke:#ff0000;stroke-opacity:1"
       id="path6935"
       sodipodi:nodetypes="ccccc" />
    <path
       inkscape:connector-curvature="0"
       d="m 564.31151,449.18824 0,59.1733 -13.35437,0 -3.6e-4,-59.1729 z"
       style="fill:none;stroke:#ff0000;stroke-opacity:1"
       id="path6941"
       sodipodi:nodetypes="ccccc" />
    <path
       inkscape:connector-curvature="0"
       d="m 188.44564,449.18824 0,59.1733 -13.35437,0 -3.5e-4,-59.1729 z"
       style="fill:none;stroke:#ff0000;stroke-opacity:1"
       id="path6949"
       sodipodi:nodetypes="ccccc" />
    <path
       inkscape:connector-curvature="0"
       d="m 598.90375,495.21504 0,-14.1733 7.08662,0 0,14.1733 z"
       style="fill:none;stroke:#ff0000;stroke-opacity:1"
       id="path6961"
       sodipodi:nodetypes="ccccc" />
    <path
       inkscape:connector-curvature="0"
       d="m 140.49903,481.04174 0,14.1733 -7.08662,0 0,-14.1733 z"
       style="fill:none;stroke:#ff0000;stroke-opacity:1"
       id="path6965"
       sodipodi:nodetypes="ccccc" />
    <path
       inkscape:connector-curvature="0"
       d="m 267.36253,501.05504 0.41457,0.0492 0.40925,0.0813 0.40146,0.1135 0.39153,0.1444 0.37914,0.1747 0.36425,0.2039 0.34689,0.2319 0.32775,0.2583 0.3065,0.2833 0.28311,0.3065 0.25831,0.3277 0.23208,0.347 0.20374,0.3641 0.17469,0.379 0.14457,0.3916 0.11338,0.4017 0.0811,0.4092 0.0493,0.4145 0.0163,0.417 0,63.7795 -0.0163,0.4171 -0.0492,0.4142 -0.0812,0.4096 -0.1134,0.4015 -0.14457,0.3915 -0.17469,0.3791 -0.20374,0.3639 -0.23208,0.3473 -0.25831,0.3277 -0.28311,0.3065 -0.3065,0.2831 -0.32775,0.2583 -0.34689,0.2318 -0.36425,0.2041 -0.37914,0.1747 -0.39153,0.1445 -0.40146,0.1131 -0.40925,0.0812 -0.41457,0.0494 -0.41705,0.0163 -0.41704,-0.016 -0.41422,-0.0493 -0.4096,-0.0813 -0.40146,-0.1133 -0.39153,-0.1445 -0.37914,-0.1747 -0.36389,-0.2041 -0.34725,-0.2318 -0.32776,-0.2583 -0.30649,-0.2831 -0.28311,-0.3065 -0.25831,-0.3277 -0.23173,-0.3473 -0.2041,-0.3639 -0.17468,-0.3791 -0.14457,-0.3915 -0.11303,-0.4015 -0.0815,-0.4096 -0.0493,-0.4142 -0.0163,-0.4171 0,-63.7795 0.0163,-0.417 0.0493,-0.4145 0.0815,-0.4092 0.11302,-0.4017 0.14457,-0.3916 0.17468,-0.379 0.2041,-0.3641 0.23173,-0.347 0.25831,-0.3277 0.28311,-0.3065 0.30649,-0.2833 0.32776,-0.2583 0.34725,-0.2319 0.36389,-0.2039 0.37914,-0.1747 0.39153,-0.1444 0.40146,-0.1133 0.4096,-0.0812 0.41422,-0.0492 0.41704,-0.0163 z"
       style="fill:none;stroke:#ff0000;stroke-opacity:1"
       id="path7051"
       sodipodi:nodetypes="ccccccccccccccccccccccccccccccccccccccccccccccccccccccccccccccccccccccccccccccccccc" />
    <path
       inkscape:connector-curvature="0"
       d="m 472.87434,501.05504 0.41422,0.0492 0.4096,0.0813 0.40146,0.1135 0.39153,0.1444 0.37914,0.1747 0.36389,0.2039 0.34725,0.2319 0.32776,0.2583 0.30649,0.2833 0.28311,0.3065 0.25831,0.3277 0.23173,0.347 0.2041,0.3641 0.17468,0.379 0.14457,0.3916 0.11303,0.4017 0.0815,0.4092 0.0493,0.4145 0.0163,0.417 0,63.7795 -0.0163,0.4171 -0.0493,0.4142 -0.0815,0.4096 -0.11302,0.4015 -0.14457,0.3915 -0.17468,0.3791 -0.2041,0.3639 -0.23173,0.3473 -0.25831,0.3277 -0.28311,0.3065 -0.30649,0.2831 -0.32776,0.2583 -0.34725,0.2318 -0.36389,0.2041 -0.37914,0.1747 -0.39153,0.1445 -0.40146,0.1131 -0.4096,0.0812 -0.41422,0.0494 -0.41704,0.0163 -0.41705,-0.016 -0.41457,-0.0493 -0.40925,-0.0813 -0.40146,-0.1133 -0.39153,-0.1445 -0.37914,-0.1747 -0.36425,-0.2041 -0.34689,-0.2318 -0.32775,-0.2583 -0.3065,-0.2831 -0.28311,-0.3065 -0.25831,-0.3277 -0.23208,-0.3473 -0.20374,-0.3639 -0.17469,-0.3791 -0.14457,-0.3915 -0.11338,-0.4015 -0.0811,-0.4096 -0.0493,-0.4142 -0.0163,-0.4171 0,-63.7795 0.0163,-0.417 0.0492,-0.4145 0.0812,-0.4092 0.1134,-0.4017 0.14457,-0.3916 0.17469,-0.379 0.20374,-0.3641 0.23208,-0.347 0.25831,-0.3277 0.28311,-0.3065 0.3065,-0.2833 0.32775,-0.2583 0.34689,-0.2319 0.36425,-0.2039 0.37914,-0.1747 0.39153,-0.1444 0.40146,-0.1133 0.40925,-0.0812 0.41457,-0.0492 0.41705,-0.0163 z"
       style="fill:none;stroke:#ff0000;stroke-opacity:1"
       id="path7215"
       sodipodi:nodetypes="ccccccccccccccccccccccccccccccccccccccccccccccccccccccccccccccccccccccccccccccccccc" />
    <path
       inkscape:connector-curvature="0"
       d="m 285.74308,597.67869 1.05414,0.25335 1.00169,0.4149 0.92445,0.5662 0.82453,0.7045 0.70441,0.8245 0.56657,0.9244 0.41492,1.0017 0.25299,1.0542 0.085,1.081 2e-5,42.5197 -0.085,1.0811 -0.25301,1.0541 -0.41492,1.0017 -0.56657,0.9244 -0.70441,0.8246 -0.82453,0.7044 -0.92445,0.5666 -1.00169,0.4149 -1.05414,0.253 -1.08106,0.085 -1.08106,-0.085 -1.05414,-0.253 -1.00169,-0.4149 -0.92445,-0.5666 -0.82453,-0.7044 -0.70441,-0.8246 -0.56622,-0.9244 -0.41492,-1.0017 -0.25334,-1.0541 -0.085,-1.0811 -2e-5,-42.5197 0.085,-1.081 0.25336,-1.0542 0.41492,-1.0017 0.56622,-0.9244 0.70441,-0.8245 0.82453,-0.7045 0.92445,-0.5662 1.00169,-0.4149 1.05414,-0.2533 1.08106,-0.085 z"
       style="fill:none;stroke:#ff0000;stroke-opacity:1"
       id="path7339"
       sodipodi:nodetypes="ccccccccccccccccccccccccccccccccccccccccccc" />
    <path
       inkscape:connector-curvature="0"
       d="m 371.83659,597.93204 1.00174,0.4149 0.92447,0.5662 0.82453,0.7045 0.70416,0.8245 0.56657,0.9244 0.41489,1.0017 0.25317,1.0542 0.085,1.081 2e-5,42.5197 -0.085,1.0811 -0.25319,1.0541 -0.41489,1.0017 -0.56657,0.9244 -0.70416,0.8246 -0.82453,0.7044 -0.92447,0.5666 -1.00174,0.4149 -1.0543,0.253 -1.0809,0.085 -1.0809,-0.085 -1.0543,-0.253 -1.00174,-0.4149 -0.92447,-0.5666 -0.82453,-0.7044 -0.70416,-0.8246 -0.56657,-0.9244 -0.41489,-1.0017 -0.25317,-1.0541 -0.085,-1.0811 -2e-5,-42.5197 0.085,-1.081 0.25319,-1.0542 0.41489,-1.0017 0.56657,-0.9244 0.70416,-0.8245 0.82453,-0.7045 0.92447,-0.5662 1.00174,-0.4149 1.0543,-0.2533 1.0809,-0.0851 1.0809,0.085 z"
       style="fill:none;stroke:#ff0000;stroke-opacity:1"
       id="path7425"
       sodipodi:nodetypes="ccccccccccccccccccccccccccccccccccccccccccc" />
    <path
       inkscape:connector-curvature="0"
       d="m 456.87596,597.93204 1.00169,0.4149 0.92445,0.5662 0.82453,0.7045 0.70441,0.8245 0.56622,0.9244 0.41492,1.0017 0.25334,1.0542 0.085,1.081 2e-5,42.5197 -0.085,1.0811 -0.25336,1.0541 -0.41492,1.0017 -0.56622,0.9244 -0.70441,0.8246 -0.82453,0.7044 -0.92445,0.5666 -1.00169,0.4149 -1.05414,0.253 -1.08106,0.085 -1.08106,-0.085 -1.05414,-0.253 -1.00169,-0.4149 -0.92445,-0.5666 -0.82453,-0.7044 -0.70441,-0.8246 -0.56657,-0.9244 -0.41492,-1.0017 -0.25299,-1.0541 -0.085,-1.0811 -2e-5,-42.5197 0.085,-1.081 0.25301,-1.0542 0.41492,-1.0017 0.56657,-0.9244 0.70441,-0.8245 0.82453,-0.7045 0.92445,-0.5662 1.00169,-0.4149 1.05414,-0.2533 1.08106,-0.085 1.08106,0.085 z"
       style="fill:none;stroke:#ff0000;stroke-opacity:1"
       id="path7509"
       sodipodi:nodetypes="ccccccccccccccccccccccccccccccccccccccccccc" />
    <path
       inkscape:connector-curvature="0"
       d="m 328.26277,618.93889 1.05413,0.25295 1.0017,0.415 0.92444,0.5665 0.82453,0.7044 0.70406,0.8242 0.56657,0.9245 0.41492,1.0017 0.25299,1.0545 0.085,1.0807 -0.085,1.081 -0.25301,1.0542 -0.41492,1.0017 -0.56657,0.9244 -0.70406,0.8245 -0.82453,0.7041 -0.92444,0.5666 -1.0017,0.4149 -1.05413,0.253 -1.08106,0.085 -1.08071,-0.085 -1.05449,-0.253 -1.0017,-0.4149 -0.92444,-0.5666 -0.82418,-0.7041 -0.70441,-0.8245 -0.56657,-0.9244 -0.41492,-1.0017 -0.25299,-1.0542 -0.085,-1.081 0.085,-1.0807 0.25301,-1.0545 0.41492,-1.0017 0.56657,-0.9245 0.70441,-0.8242 0.82418,-0.7044 0.92445,-0.5665 1.00169,-0.415 1.05449,-0.2529 1.08071,-0.0851 z"
       style="fill:none;stroke:#ff0000;stroke-opacity:1"
       id="path7589"
       sodipodi:nodetypes="ccccccccccccccccccccccccccccccccccccccccc" />
    <path
       inkscape:connector-curvature="0"
       d="m 413.30178,618.93889 1.05449,0.25295 1.0017,0.415 0.92444,0.5665 0.82418,0.7044 0.70441,0.8242 0.56657,0.9245 0.41492,1.0017 0.25299,1.0545 0.085,1.0807 -0.085,1.081 -0.25301,1.0542 -0.41492,1.0017 -0.56657,0.9244 -0.70441,0.8245 -0.82418,0.7041 -0.92445,0.5666 -1.00169,0.4149 -1.05449,0.253 -1.08071,0.085 -1.08106,-0.085 -1.05413,-0.253 -1.0017,-0.4149 -0.92444,-0.5666 -0.82453,-0.7041 -0.70406,-0.8245 -0.56657,-0.9244 -0.41492,-1.0017 -0.25299,-1.0542 -0.085,-1.081 0.085,-1.0807 0.25301,-1.0545 0.41492,-1.0017 0.56657,-0.9245 0.70406,-0.8242 0.82453,-0.7044 0.92444,-0.5665 1.0017,-0.415 1.05413,-0.2529 1.08106,-0.0851 z"
       style="fill:none;stroke:#ff0000;stroke-opacity:1"
       id="path7669"
       sodipodi:nodetypes="ccccccccccccccccccccccccccccccccccccccccc" />
    <path
       inkscape:connector-curvature="0"
       d="m 418.79249,670.41814 -0.41492,1.0017 -0.56657,0.9245 -0.70441,0.8245 -0.82418,0.7041 -0.92445,0.5665 -1.00169,0.415 -1.05449,0.253 -1.08071,0.085 -1.08106,-0.085 -1.05413,-0.253 -1.0017,-0.415 -0.92444,-0.5665 -0.82453,-0.7041 -0.70406,-0.8245 -0.56657,-0.9245 -0.41492,-1.0017 -0.25299,-1.0541 -0.085,-1.0811 0.085,-1.0807 0.25301,-1.0545 0.41492,-1.0016 0.56657,-0.9245 0.70406,-0.8242 0.82453,-0.7044 0.92444,-0.5666 1.0017,-0.4149 1.05413,-0.253 1.08106,-0.085 1.08071,0.085 1.05449,0.253 1.0017,0.4149 0.92444,0.5666 0.82418,0.7044 0.70441,0.8242 0.56657,0.9245 0.41492,1.0016 0.25299,1.0545 0.085,1.0807 -0.085,1.0811 z"
       style="fill:none;stroke:#ff0000;stroke-opacity:1"
       id="path7771"
       sodipodi:nodetypes="ccccccccccccccccccccccccccccccccccccccccc" />
    <path
       inkscape:connector-curvature="0"
       d="m 334.00613,669.36404 -0.25301,1.0541 -0.41492,1.0017 -0.56657,0.9245 -0.70406,0.8245 -0.82453,0.7041 -0.92444,0.5665 -1.0017,0.415 -1.05413,0.253 -1.08106,0.085 -1.08071,-0.085 -1.05449,-0.253 -1.0017,-0.415 -0.92444,-0.5665 -0.82418,-0.7041 -0.70441,-0.8245 -0.56657,-0.9245 -0.41492,-1.0017 -0.25299,-1.0541 -0.085,-1.0811 0.085,-1.0807 0.25301,-1.0545 0.41492,-1.0016 0.56657,-0.9245 0.70441,-0.8242 0.82418,-0.7044 0.92445,-0.5666 1.00169,-0.4149 1.05449,-0.253 1.08071,-0.085 1.08106,0.085 1.05413,0.253 1.0017,0.4149 0.92444,0.5666 0.82453,0.7044 0.70406,0.8242 0.56657,0.9245 0.41492,1.0016 0.25299,1.0545 0.085,1.0807 z"
       style="fill:none;stroke:#ff0000;stroke-opacity:1"
       id="path7849"
       sodipodi:nodetypes="ccccccccccccccccccccccccccccccccccccccccc" />
    <path
       inkscape:connector-curvature="0"
       d="m 448.16934,666.14774 0.41492,-1.0016 0.56658,-0.9245 0.70405,-0.8242 0.82453,-0.7044 0.92445,-0.5666 1.00169,-0.4149 1.05414,-0.253 1.08106,-0.085 1.08071,0.085 1.05449,0.253 1.00169,0.4149 0.92445,0.5666 0.82417,0.7044 0.70441,0.8242 0.56658,0.9245 0.41492,1.0016 0.25299,1.0545 0.085,1.0807 -0.085,1.0811 -0.25301,1.0541 -0.41492,1.0017 -0.56658,0.9245 -0.70441,0.8245 -0.82417,0.7041 -0.92445,0.5665 -1.00169,0.415 -1.05449,0.253 -1.08071,0.085 -1.08106,-0.085 -1.05414,-0.253 -1.00169,-0.415 -0.92445,-0.5665 -0.82453,-0.7041 -0.70405,-0.8245 -0.56658,-0.9245 -0.41492,-1.0017 -0.25299,-1.0541 -0.085,-1.0811 0.085,-1.0807 z"
       style="fill:none;stroke:#ff0000;stroke-opacity:1"
       id="path7891"
       sodipodi:nodetypes="ccccccccccccccccccccccccccccccccccccccccc" />
    <path
       inkscape:connector-curvature="0"
       d="m 278.0906,666.14774 0.41492,-1.0016 0.56658,-0.9245 0.70441,-0.8242 0.82417,-0.7044 0.92445,-0.5666 1.00169,-0.4149 1.05449,-0.253 1.08071,-0.085 1.08106,0.085 1.05414,0.253 1.00169,0.4149 0.92445,0.5666 0.82453,0.7044 0.70405,0.8242 0.56658,0.9245 0.41492,1.0016 0.25299,1.0545 0.085,1.0807 -0.085,1.0811 -0.25301,1.0541 -0.41492,1.0017 -0.56658,0.9245 -0.70405,0.8245 -0.82453,0.7041 -0.92445,0.5665 -1.00169,0.415 -1.05414,0.253 -1.08106,0.085 -1.08071,-0.085 -1.05449,-0.253 -1.00169,-0.415 -0.92445,-0.5665 -0.82417,-0.7041 -0.70441,-0.8245 -0.56658,-0.9245 -0.41492,-1.0017 -0.25299,-1.0541 -0.085,-1.0811 0.085,-1.0807 z"
       style="fill:none;stroke:#ff0000;stroke-opacity:1"
       id="path7971"
       sodipodi:nodetypes="ccccccccccccccccccccccccccccccccccccccccc" />
    <path
       inkscape:connector-curvature="0"
       d="m 376.52573,669.36404 -0.2531,1.0541 -0.41489,1.0017 -0.5665,0.9245 -0.70416,0.8245 -0.82442,0.7041 -0.92449,0.5665 -1.00169,0.415 -1.05425,0.253 -1.08084,0.085 -1.08084,-0.085 -1.05425,-0.253 -1.00169,-0.415 -0.92449,-0.5665 -0.82442,-0.7041 -0.70416,-0.8245 -0.5665,-0.9245 -0.41489,-1.0017 -0.2531,-1.0541 -0.0851,-1.0811 0.0851,-1.0807 0.25311,-1.0545 0.41489,-1.0016 0.5665,-0.9245 0.70416,-0.8242 0.82442,-0.7044 0.92449,-0.5666 1.00169,-0.4149 1.05425,-0.253 1.08084,-0.085 1.08084,0.085 1.05425,0.253 1.00169,0.4149 0.92449,0.5666 0.82442,0.7044 0.70416,0.8242 0.5665,0.9245 0.41489,1.0016 0.2531,1.0545 0.0851,1.0807 z"
       style="fill:none;stroke:#ff0000;stroke-opacity:1"
       id="path8089"
       sodipodi:nodetypes="ccccccccccccccccccccccccccccccccccccccccc" />
    <path
       inkscape:connector-curvature="0"
       d="m 539.34855,685.22704 -0.79972,-0.237 -0.7526,-0.3589 -0.6874,-0.4724 -0.60484,-0.574 -0.50776,-0.6619 -0.39826,-0.7327 -0.27816,-0.7863 -0.152,-0.8203 -0.022,-0.8333 0.10914,-0.8271 0.2367,-0.7997 0.35893,-0.7529 0.47268,-0.6871 0.57402,-0.6052 0.66153,-0.5077 0.73311,-0.3979 0.78591,-0.2782 0.82027,-0.152 0.83374,-0.022 0.82666,0.1088 0.79972,0.2371 0.75295,0.3589 0.68705,0.4723 0.6052,0.5744 0.50775,0.6615 0.39792,0.7331 0.2785,0.7859 0.15201,0.8203 0.0216,0.8334 -0.10877,0.827 -0.23704,0.7997 -0.35894,0.7526 -0.47232,0.6874 -0.57402,0.6052 -0.66189,0.5078 -0.73276,0.3979 -0.78626,0.2781 -0.81992,0.1521 -0.83374,0.0219 z"
       style="fill:none;stroke:#ff0000;stroke-opacity:1"
       id="path8189"
       sodipodi:nodetypes="ccccccccccccccccccccccccccccccccccccccccc" />
    <path
       inkscape:connector-curvature="0"
       d="m 582.03832,685.16184 -0.78626,-0.2781 -0.73276,-0.3979 -0.66189,-0.5078 -0.57401,-0.6052 -0.47232,-0.6874 -0.3593,-0.7526 -0.23669,-0.7997 -0.10878,-0.827 0.0216,-0.8334 0.15201,-0.8203 0.27851,-0.7859 0.39791,-0.7331 0.50776,-0.6615 0.60484,-0.5744 0.6874,-0.4723 0.75295,-0.3589 0.79937,-0.2371 0.82701,-0.1088 0.83374,0.022 0.81992,0.152 0.78626,0.2782 0.73311,0.3979 0.66154,0.5077 0.57401,0.6052 0.47233,0.6871 0.35929,0.7529 0.23669,0.7997 0.10913,0.8271 -0.022,0.8333 -0.15199,0.8203 -0.27851,0.7863 -0.39791,0.7327 -0.50776,0.6619 -0.60484,0.574 -0.6874,0.4724 -0.7526,0.3589 -0.79972,0.237 -0.82701,0.1088 -0.83374,-0.0219 z"
       style="fill:none;stroke:#ff0000;stroke-opacity:1"
       id="path8191"
       sodipodi:nodetypes="ccccccccccccccccccccccccccccccccccccccccc" />
    <path
       inkscape:connector-curvature="0"
       d="m 197.57356,685.16184 -0.78626,-0.2781 -0.73276,-0.3979 -0.66189,-0.5078 -0.57402,-0.6052 -0.47232,-0.6874 -0.35894,-0.7526 -0.23704,-0.7997 -0.10878,-0.827 0.0216,-0.8334 0.15201,-0.8203 0.2785,-0.7859 0.39792,-0.7331 0.50775,-0.6615 0.6052,-0.5744 0.68705,-0.4723 0.75295,-0.3589 0.79972,-0.2371 0.82666,-0.1088 0.83374,0.022 0.82027,0.152 0.78591,0.2782 0.73311,0.3979 0.66153,0.5077 0.57402,0.6052 0.47268,0.6871 0.35893,0.7529 0.2367,0.7997 0.10913,0.8271 -0.022,0.8333 -0.15199,0.8203 -0.27816,0.7863 -0.39826,0.7327 -0.50776,0.6619 -0.60484,0.574 -0.6874,0.4724 -0.7526,0.3589 -0.79972,0.237 -0.82701,0.1088 -0.83374,-0.0219 z"
       style="fill:none;stroke:#ff0000;stroke-opacity:1"
       id="path8271"
       sodipodi:nodetypes="ccccccccccccccccccccccccccccccccccccccccc" />
    <path
       inkscape:connector-curvature="0"
       d="m 154.88379,685.22704 -0.79972,-0.237 -0.7526,-0.3589 -0.6874,-0.4724 -0.60484,-0.574 -0.50776,-0.6619 -0.39791,-0.7327 -0.27851,-0.7863 -0.15201,-0.8203 -0.022,-0.8333 0.10915,-0.8271 0.23669,-0.7997 0.35929,-0.7529 0.47233,-0.6871 0.57401,-0.6052 0.66154,-0.5077 0.73311,-0.3979 0.78626,-0.2782 0.81992,-0.152 0.83374,-0.022 0.82701,0.1088 0.79937,0.2371 0.75295,0.3589 0.6874,0.4723 0.60484,0.5744 0.50776,0.6615 0.39791,0.7331 0.27851,0.7859 0.15201,0.8203 0.0216,0.8334 -0.10877,0.827 -0.23669,0.7997 -0.3593,0.7526 -0.47232,0.6874 -0.57401,0.6052 -0.66189,0.5078 -0.73276,0.3979 -0.78626,0.2781 -0.81992,0.1521 -0.83374,0.0219 z"
       style="fill:none;stroke:#ff0000;stroke-opacity:1"
       id="path8429"
       sodipodi:nodetypes="ccccccccccccccccccccccccccccccccccccccccc" />
    <path
       inkscape:connector-curvature="0"
       d="m 283.58096,738.88729 -1.05414,-0.25335 -1.00169,-0.4149 -0.92445,-0.5663 -0.82453,-0.7044 -0.70441,-0.8245 -0.56622,-0.9244 -0.41492,-1.0017 -0.25334,-1.0542 -0.085,-1.081 -2e-5,-42.5197 0.085,-1.0811 0.25336,-1.0541 0.41492,-1.0017 0.56622,-0.9245 0.70441,-0.8245 0.82453,-0.7044 0.92445,-0.5662 1.00169,-0.4149 1.05414,-0.2534 1.08106,-0.085 1.08106,0.085 1.05414,0.2534 1.00169,0.4149 0.92445,0.5662 0.82453,0.7044 0.70441,0.8245 0.56657,0.9245 0.41492,1.0017 0.25299,1.0541 0.085,1.0811 2e-5,42.5197 -0.085,1.081 -0.25301,1.0542 -0.41492,1.0017 -0.56657,0.9244 -0.70441,0.8245 -0.82453,0.7044 -0.92445,0.5663 -1.00169,0.4149 -1.05414,0.2533 -1.08106,0.0851 z"
       style="fill:none;stroke:#ff0000;stroke-opacity:1"
       id="path8513"
       sodipodi:nodetypes="ccccccccccccccccccccccccccccccccccccccccccc" />
    <path
       inkscape:connector-curvature="0"
       d="m 367.56619,738.63394 -1.00174,-0.4149 -0.92447,-0.5663 -0.82453,-0.7044 -0.70416,-0.8245 -0.56657,-0.9244 -0.41489,-1.0017 -0.25317,-1.0542 -0.085,-1.081 -2e-5,-42.5197 0.085,-1.0811 0.25319,-1.0541 0.41489,-1.0017 0.56657,-0.9245 0.70416,-0.8245 0.82453,-0.7044 0.92447,-0.5662 1.00174,-0.4149 1.0543,-0.2534 1.0809,-0.085 1.0809,0.085 1.0543,0.2534 1.00174,0.4149 0.92447,0.5662 0.82453,0.7044 0.70416,0.8245 0.56657,0.9245 0.41489,1.0017 0.25317,1.0541 0.085,1.0811 2e-5,42.5197 -0.085,1.081 -0.25319,1.0542 -0.41489,1.0017 -0.56657,0.9244 -0.70416,0.8245 -0.82453,0.7044 -0.92447,0.5663 -1.00174,0.4149 -1.0543,0.2533 -1.0809,0.0851 -1.0809,-0.0851 z"
       style="fill:none;stroke:#ff0000;stroke-opacity:1"
       id="path8515"
       sodipodi:nodetypes="ccccccccccccccccccccccccccccccccccccccccccc" />
    <path
       inkscape:connector-curvature="0"
       d="m 452.60556,738.63394 -1.00169,-0.4149 -0.92445,-0.5663 -0.82453,-0.7044 -0.70441,-0.8245 -0.56657,-0.9244 -0.41492,-1.0017 -0.25299,-1.0542 -0.085,-1.081 -2e-5,-42.5197 0.085,-1.0811 0.25301,-1.0541 0.41492,-1.0017 0.56657,-0.9245 0.70441,-0.8245 0.82453,-0.7044 0.92445,-0.5662 1.00169,-0.4149 1.05414,-0.2534 1.08106,-0.085 1.08106,0.085 1.05414,0.2534 1.00169,0.4149 0.92445,0.5662 0.82453,0.7044 0.70441,0.8245 0.56622,0.9245 0.41492,1.0017 0.25334,1.0541 0.085,1.0811 2e-5,42.5197 -0.085,1.081 -0.25336,1.0542 -0.41492,1.0017 -0.56622,0.9244 -0.70441,0.8245 -0.82453,0.7044 -0.92445,0.5663 -1.00169,0.4149 -1.05414,0.2533 -1.08106,0.0851 -1.08106,-0.085 z"
       style="fill:none;stroke:#ff0000;stroke-opacity:1"
       id="path8599"
       sodipodi:nodetypes="ccccccccccccccccccccccccccccccccccccccccccc" />
    <path
       inkscape:connector-curvature="0"
       d="m 410.08588,717.37404 -1.0017,-0.4149 -0.92444,-0.5665 -0.82453,-0.7045 -0.70406,-0.8241 -0.56657,-0.9245 -0.41492,-1.0017 -0.25299,-1.0545 -0.085,-1.0807 0.085,-1.0807 0.25301,-1.0545 0.41492,-1.0017 0.56657,-0.9244 0.70406,-0.8242 0.82453,-0.7044 0.92444,-0.5666 1.0017,-0.4149 1.05413,-0.253 1.08106,-0.085 1.08071,0.085 1.05449,0.253 1.0017,0.4149 0.92444,0.5666 0.82418,0.7044 0.70441,0.8242 0.56657,0.9244 0.41492,1.0017 0.25299,1.0545 0.085,1.0807 -0.085,1.0807 -0.25301,1.0545 -0.41492,1.0017 -0.56657,0.9245 -0.70441,0.8241 -0.82418,0.7045 -0.92445,0.5665 -1.00169,0.4149 -1.05449,0.253 -1.08071,0.0851 -1.08106,-0.085 z"
       style="fill:none;stroke:#ff0000;stroke-opacity:1"
       id="path8683"
       sodipodi:nodetypes="ccccccccccccccccccccccccccccccccccccccccc" />
    <path
       inkscape:connector-curvature="0"
       d="m 325.04651,717.37404 -1.0017,-0.4149 -0.92444,-0.5665 -0.82418,-0.7045 -0.70441,-0.8241 -0.56657,-0.9245 -0.41492,-1.0017 -0.25299,-1.0545 -0.085,-1.0807 0.085,-1.0807 0.25301,-1.0545 0.41492,-1.0017 0.56657,-0.9244 0.70441,-0.8242 0.82418,-0.7044 0.92445,-0.5666 1.00169,-0.4149 1.05449,-0.253 1.08071,-0.085 1.08106,0.085 1.05413,0.253 1.0017,0.4149 0.92444,0.5666 0.82453,0.7044 0.70406,0.8242 0.56657,0.9244 0.41492,1.0017 0.25299,1.0545 0.085,1.0807 -0.085,1.0807 -0.25301,1.0545 -0.41492,1.0017 -0.56657,0.9245 -0.70406,0.8241 -0.82453,0.7045 -0.92444,0.5665 -1.0017,0.4149 -1.05413,0.253 -1.08106,0.0851 -1.08071,-0.085 z"
       style="fill:none;stroke:#ff0000;stroke-opacity:1"
       id="path8763"
       sodipodi:nodetypes="ccccccccccccccccccccccccccccccccccccccccc" />
    <path
       inkscape:connector-curvature="0"
       d="m 179.11151,712.17814 0.77031,0.3189 0.71115,0.4359 0.63425,0.5417 0.54177,0.6343 0.43583,0.7108 0.31889,0.7706 0.19489,0.8111 0.0652,0.8313 -0.0652,0.8316 -0.19488,0.811 -0.31889,0.7704 -0.43583,0.7111 -0.54177,0.6343 -0.63425,0.5417 -0.71115,0.4355 -0.77031,0.3193 -0.81106,0.1948 -0.83126,0.0651 -0.83162,-0.065 -0.81106,-0.1949 -0.77032,-0.3193 -0.71114,-0.4355 -0.63425,-0.5417 -0.54177,-0.6343 -0.43547,-0.7111 -0.31926,-0.7704 -0.19488,-0.811 -0.0652,-0.8316 0.0652,-0.8313 0.19488,-0.8111 0.31926,-0.7706 0.43547,-0.7108 0.54177,-0.6343 0.63425,-0.5417 0.71114,-0.4359 0.77032,-0.3189 0.81106,-0.1948 0.83162,-0.0658 0.83126,0.066 z"
       style="fill:none;stroke:#ff0000;stroke-opacity:1"
       id="path8883"
       sodipodi:nodetypes="ccccccccccccccccccccccccccccccccccccccccc" />
    <path
       inkscape:connector-curvature="0"
       d="m 562.76521,711.98354 0.81106,0.1946 0.77032,0.3189 0.71114,0.4359 0.63425,0.5417 0.54177,0.6343 0.43547,0.7108 0.31926,0.7706 0.19488,0.8111 0.0652,0.8313 -0.0652,0.8316 -0.19487,0.811 -0.31926,0.7704 -0.43547,0.7111 -0.54177,0.6343 -0.63425,0.5417 -0.71114,0.4355 -0.77032,0.3193 -0.81106,0.1948 -0.83162,0.0651 -0.83126,-0.065 -0.81106,-0.1949 -0.77031,-0.3193 -0.71115,-0.4355 -0.63425,-0.5417 -0.54177,-0.6343 -0.43583,-0.7111 -0.31889,-0.7704 -0.19489,-0.811 -0.0656,-0.8316 0.0656,-0.8313 0.19486,-0.8111 0.31889,-0.7706 0.43583,-0.7108 0.54177,-0.6343 0.63425,-0.5417 0.71115,-0.4359 0.77031,-0.3189 0.81106,-0.1948 0.83126,-0.0658 z"
       style="fill:none;stroke:#ff0000;stroke-opacity:1"
       id="path8961"
       sodipodi:nodetypes="ccccccccccccccccccccccccccccccccccccccccc" />
    <path
       inkscape:connector-curvature="0"
       d="m 411.14001,760.14679 -1.05413,-0.25305 -1.0017,-0.4149 -0.92444,-0.5666 -0.82453,-0.7044 -0.70406,-0.8241 -0.56657,-0.9245 -0.41492,-1.0017 -0.25299,-1.0545 -0.085,-1.0807 0.085,-1.081 0.25301,-1.0542 0.41492,-1.0017 0.56657,-0.9244 0.70406,-0.8246 0.82453,-0.704 0.92444,-0.5666 1.0017,-0.4149 1.05413,-0.253 1.08106,-0.085 1.08071,0.085 1.05449,0.253 1.0017,0.4149 0.92444,0.5666 0.82418,0.704 0.70441,0.8246 0.56657,0.9244 0.41492,1.0017 0.25299,1.0542 0.085,1.081 -0.085,1.0807 -0.25301,1.0545 -0.41492,1.0017 -0.56657,0.9245 -0.70441,0.8241 -0.82418,0.7044 -0.92445,0.5666 -1.00169,0.4149 -1.05449,0.253 -1.08071,0.0851 z"
       style="fill:none;stroke:#ff0000;stroke-opacity:1"
       id="path9081"
       sodipodi:nodetypes="ccccccccccccccccccccccccccccccccccccccccc" />
    <path
       inkscape:connector-curvature="0"
       d="m 367.5663,759.89374 -1.00169,-0.4149 -0.92449,-0.5666 -0.82442,-0.7044 -0.70416,-0.8241 -0.5665,-0.9245 -0.41489,-1.0017 -0.2531,-1.0545 -0.0851,-1.0807 0.0851,-1.081 0.25311,-1.0542 0.41489,-1.0017 0.5665,-0.9244 0.70416,-0.8246 0.82442,-0.704 0.92449,-0.5666 1.00169,-0.4149 1.05425,-0.253 1.08084,-0.085 1.08084,0.085 1.05425,0.253 1.00169,0.4149 0.92449,0.5666 0.82442,0.704 0.70416,0.8246 0.5665,0.9244 0.41489,1.0017 0.2531,1.0542 0.0851,1.081 -0.0851,1.0807 -0.2531,1.0545 -0.41489,1.0017 -0.5665,0.9245 -0.70416,0.8241 -0.82442,0.7044 -0.92449,0.5666 -1.00169,0.4149 -1.05425,0.253 -1.08084,0.0851 -1.08084,-0.0851 z"
       style="fill:none;stroke:#ff0000;stroke-opacity:1"
       id="path9083"
       sodipodi:nodetypes="ccccccccccccccccccccccccccccccccccccccccc" />
    <path
       inkscape:connector-curvature="0"
       d="m 452.60556,759.89374 -1.00169,-0.4149 -0.92445,-0.5666 -0.82453,-0.7044 -0.70405,-0.8241 -0.56658,-0.9245 -0.41492,-1.0017 -0.25299,-1.0545 -0.085,-1.0807 0.085,-1.081 0.25301,-1.0542 0.41492,-1.0017 0.56658,-0.9244 0.70405,-0.8246 0.82453,-0.704 0.92445,-0.5666 1.00169,-0.4149 1.05414,-0.253 1.08106,-0.085 1.08071,0.085 1.05449,0.253 1.00169,0.4149 0.92445,0.5666 0.82417,0.704 0.70441,0.8246 0.56658,0.9244 0.41492,1.0017 0.25299,1.0542 0.085,1.081 -0.085,1.0807 -0.25301,1.0545 -0.41492,1.0017 -0.56658,0.9245 -0.70441,0.8241 -0.82417,0.7044 -0.92445,0.5666 -1.00169,0.4149 -1.05449,0.253 -1.08071,0.0851 -1.08106,-0.085 z"
       style="fill:none;stroke:#ff0000;stroke-opacity:1"
       id="path9163"
       sodipodi:nodetypes="ccccccccccccccccccccccccccccccccccccccccc" />
    <path
       inkscape:connector-curvature="0"
       d="m 282.52682,759.89374 -1.00169,-0.4149 -0.92445,-0.5666 -0.82417,-0.7044 -0.70441,-0.8241 -0.56658,-0.9245 -0.41492,-1.0017 -0.25299,-1.0545 -0.085,-1.0807 0.085,-1.081 0.25301,-1.0542 0.41492,-1.0017 0.56658,-0.9244 0.70441,-0.8246 0.82417,-0.704 0.92445,-0.5666 1.00169,-0.4149 1.05449,-0.253 1.08071,-0.085 1.08106,0.085 1.05414,0.253 1.00169,0.4149 0.92445,0.5666 0.82453,0.704 0.70405,0.8246 0.56658,0.9244 0.41492,1.0017 0.25299,1.0542 0.085,1.081 -0.085,1.0807 -0.25301,1.0545 -0.41492,1.0017 -0.56658,0.9245 -0.70405,0.8241 -0.82453,0.7044 -0.92445,0.5666 -1.00169,0.4149 -1.05414,0.253 -1.08106,0.0851 -1.08071,-0.085 z"
       style="fill:none;stroke:#ff0000;stroke-opacity:1"
       id="path9243"
       sodipodi:nodetypes="ccccccccccccccccccccccccccccccccccccccccc" />
    <path
       inkscape:connector-curvature="0"
       d="m 325.04651,759.89374 -1.0017,-0.4149 -0.92444,-0.5666 -0.82418,-0.7044 -0.70441,-0.8241 -0.56657,-0.9245 -0.41492,-1.0017 -0.25299,-1.0545 -0.085,-1.0807 0.085,-1.081 0.25301,-1.0542 0.41492,-1.0017 0.56657,-0.9244 0.70441,-0.8246 0.82418,-0.704 0.92445,-0.5666 1.00169,-0.4149 1.05449,-0.253 1.08071,-0.085 1.08106,0.085 1.05413,0.253 1.0017,0.4149 0.92444,0.5666 0.82453,0.704 0.70406,0.8246 0.56657,0.9244 0.41492,1.0017 0.25299,1.0542 0.085,1.081 -0.085,1.0807 -0.25301,1.0545 -0.41492,1.0017 -0.56657,0.9245 -0.70406,0.8241 -0.82453,0.7044 -0.92444,0.5666 -1.0017,0.4149 -1.05413,0.253 -1.08106,0.0851 -1.08071,-0.085 z"
       style="fill:none;stroke:#ff0000;stroke-opacity:1"
       id="path9323"
       sodipodi:nodetypes="ccccccccccccccccccccccccccccccccccccccccc" />
    <path
       inkscape:connector-curvature="0"
       d="m 511.30434,777.72934 0.77067,0.3189 0.71114,0.4358 0.63426,0.5418 0.54141,0.6343 0.43583,0.7111 0.31925,0.7703 0.19453,0.8111 0.0656,0.8313 -0.0656,0.8316 -0.19451,0.811 -0.31925,0.7703 -0.43583,0.7112 -0.54141,0.6342 -0.63426,0.5418 -0.71114,0.4355 -0.77067,0.3192 -0.81106,0.1949 -0.83126,0.0651 -0.83161,-0.065 -0.81071,-0.195 -0.77067,-0.3192 -0.71114,-0.4355 -0.63426,-0.5418 -0.54141,-0.6342 -0.43583,-0.7112 -0.31925,-0.7703 -0.19453,-0.811 -0.0656,-0.8316 0.0656,-0.8313 0.1945,-0.8111 0.31925,-0.7703 0.43583,-0.7111 0.54141,-0.6343 0.63426,-0.5418 0.71114,-0.4358 0.77067,-0.3189 0.81071,-0.1949 0.83161,-0.0652 0.83126,0.065 z"
       style="fill:none;stroke:#ff0000;stroke-opacity:1"
       id="path9443"
       sodipodi:nodetypes="ccccccccccccccccccccccccccccccccccccccccc" />
    <path
       inkscape:connector-curvature="0"
       d="m 231.38308,777.72934 0.77067,0.3189 0.71114,0.4358 0.63426,0.5418 0.54141,0.6343 0.43583,0.7111 0.31925,0.7703 0.19453,0.8111 0.0656,0.8313 -0.0656,0.8316 -0.1945,0.811 -0.31925,0.7703 -0.43583,0.7112 -0.54141,0.6342 -0.63426,0.5418 -0.71114,0.4355 -0.77067,0.3192 -0.81071,0.1949 -0.83161,0.0651 -0.83126,-0.065 -0.81106,-0.195 -0.77067,-0.3192 -0.71114,-0.4355 -0.63426,-0.5418 -0.54141,-0.6342 -0.43583,-0.7112 -0.31925,-0.7703 -0.19453,-0.811 -0.0656,-0.8316 0.0656,-0.8313 0.19451,-0.8111 0.31925,-0.7703 0.43583,-0.7111 0.54141,-0.6343 0.63426,-0.5418 0.71114,-0.4358 0.77067,-0.3189 0.81106,-0.1949 0.83126,-0.0652 0.83161,0.065 z"
       style="fill:none;stroke:#ff0000;stroke-opacity:1"
       id="path9523"
       sodipodi:nodetypes="ccccccccccccccccccccccccccccccccccccccccc" />
    <path
       inkscape:connector-curvature="0"
       d="m 405.64966,793.70684 0.41492,-1.0017 0.56657,-0.9244 0.70406,-0.8246 0.82453,-0.704 0.92444,-0.5666 1.0017,-0.4149 1.05413,-0.253 1.08106,-0.085 1.08071,0.085 1.05449,0.253 1.0017,0.4149 0.92444,0.5666 0.82418,0.704 0.70441,0.8246 0.56657,0.9244 0.41492,1.0017 0.25299,1.0541 0.085,1.0811 -0.085,1.0807 -0.25301,1.0545 -0.41492,1.0017 -0.56657,0.9244 -0.70441,0.8242 -0.82418,0.7044 -0.92445,0.5666 -1.00169,0.4149 -1.05449,0.253 -1.08071,0.085 -1.08106,-0.085 -1.05413,-0.253 -1.0017,-0.4149 -0.92444,-0.5666 -0.82453,-0.7044 -0.70406,-0.8242 -0.56657,-0.9244 -0.41492,-1.0017 -0.25299,-1.0545 -0.085,-1.0807 0.085,-1.0811 z"
       style="fill:none;stroke:#ff0000;stroke-opacity:1"
       id="path9583"
       sodipodi:nodetypes="ccccccccccccccccccccccccccccccccccccccccc" />
    <path
       inkscape:connector-curvature="0"
       d="m 333.75312,797.97724 -0.41492,1.0017 -0.56657,0.9244 -0.70406,0.8242 -0.82453,0.7044 -0.92444,0.5666 -1.0017,0.4149 -1.05413,0.253 -1.08106,0.085 -1.08071,-0.085 -1.05449,-0.253 -1.0017,-0.4149 -0.92444,-0.5666 -0.82418,-0.7044 -0.70441,-0.8242 -0.56657,-0.9244 -0.41492,-1.0017 -0.25299,-1.0545 -0.085,-1.0807 0.085,-1.0811 0.25301,-1.0541 0.41492,-1.0017 0.56657,-0.9244 0.70441,-0.8246 0.82418,-0.704 0.92445,-0.5666 1.00169,-0.4149 1.05449,-0.253 1.08071,-0.085 1.08106,0.085 1.05413,0.253 1.0017,0.4149 0.92444,0.5666 0.82453,0.704 0.70406,0.8246 0.56657,0.9244 0.41492,1.0017 0.25299,1.0541 0.085,1.0811 -0.085,1.0807 z"
       style="fill:none;stroke:#ff0000;stroke-opacity:1"
       id="path9703"
       sodipodi:nodetypes="ccccccccccccccccccccccccccccccccccccccccc" />
    <path
       inkscape:connector-curvature="0"
       d="m 376.27263,797.97724 -0.41489,1.0017 -0.5665,0.9244 -0.70416,0.8242 -0.82442,0.7044 -0.92449,0.5666 -1.00169,0.4149 -1.05425,0.253 -1.08084,0.085 -1.08084,-0.085 -1.05425,-0.253 -1.00169,-0.4149 -0.92449,-0.5666 -0.82442,-0.7044 -0.70416,-0.8242 -0.5665,-0.9244 -0.41489,-1.0017 -0.2531,-1.0545 -0.0851,-1.0807 0.0851,-1.0811 0.25311,-1.0541 0.41489,-1.0017 0.5665,-0.9244 0.70416,-0.8246 0.82442,-0.704 0.92449,-0.5666 1.00169,-0.4149 1.05425,-0.253 1.08084,-0.085 1.08084,0.085 1.05425,0.253 1.00169,0.4149 0.92449,0.5666 0.82442,0.704 0.70416,0.8246 0.5665,0.9244 0.41489,1.0017 0.2531,1.0541 0.0851,1.0811 -0.0851,1.0807 z"
       style="fill:none;stroke:#ff0000;stroke-opacity:1"
       id="path9783"
       sodipodi:nodetypes="ccccccccccccccccccccccccccccccccccccccccc" />
    <path
       inkscape:connector-curvature="0"
       d="m 291.48645,796.92274 -0.25301,1.0545 -0.41492,1.0017 -0.56658,0.9244 -0.70405,0.8242 -0.82453,0.7044 -0.92445,0.5666 -1.00169,0.4149 -1.05414,0.253 -1.08106,0.085 -1.08071,-0.085 -1.05449,-0.253 -1.00169,-0.4149 -0.92445,-0.5666 -0.82417,-0.7044 -0.70441,-0.8242 -0.56658,-0.9244 -0.41492,-1.0017 -0.25299,-1.0545 -0.085,-1.0807 0.085,-1.0811 0.25301,-1.0541 0.41492,-1.0017 0.56658,-0.9244 0.70441,-0.8246 0.82417,-0.704 0.92445,-0.5666 1.00169,-0.4149 1.05449,-0.253 1.08071,-0.085 1.08106,0.085 1.05414,0.253 1.00169,0.4149 0.92445,0.5666 0.82453,0.704 0.70405,0.8246 0.56658,0.9244 0.41492,1.0017 0.25299,1.0541 0.085,1.0811 z"
       style="fill:none;stroke:#ff0000;stroke-opacity:1"
       id="path9861"
       sodipodi:nodetypes="ccccccccccccccccccccccccccccccccccccccccc" />
    <path
       inkscape:connector-curvature="0"
       d="m 448.16934,793.70684 0.41492,-1.0017 0.56658,-0.9244 0.70405,-0.8246 0.82453,-0.704 0.92445,-0.5666 1.00169,-0.4149 1.05414,-0.253 1.08106,-0.085 1.08071,0.085 1.05449,0.253 1.00169,0.4149 0.92445,0.5666 0.82417,0.704 0.70441,0.8246 0.56658,0.9244 0.41492,1.0017 0.25299,1.0541 0.085,1.0811 -0.085,1.0807 -0.25301,1.0545 -0.41492,1.0017 -0.56658,0.9244 -0.70441,0.8242 -0.82417,0.7044 -0.92445,0.5666 -1.00169,0.4149 -1.05449,0.253 -1.08071,0.085 -1.08106,-0.085 -1.05414,-0.253 -1.00169,-0.4149 -0.92445,-0.5666 -0.82453,-0.7044 -0.70405,-0.8242 -0.56658,-0.9244 -0.41492,-1.0017 -0.25299,-1.0545 -0.085,-1.0807 0.085,-1.0811 z"
       style="fill:none;stroke:#ff0000;stroke-opacity:1"
       id="path9903"
       sodipodi:nodetypes="ccccccccccccccccccccccccccccccccccccccccc" />
  </g>
</svg>
