  0
SECTION
  2
BLOCKS
  0
ENDSEC
  0
SECTION
  2
ENTITIES
  0
LINE
  8
0
 10
68.7389
 20
27.6665
 11
68.7388
 21
41.6
  0
LINE
  8
0
 10
68.7388
 20
41.6
 11
71.686
 21
41.6001
  0
LINE
  8
0
 10
71.686
 20
41.6001
 11
71.686
 21
69.7042
  0
LINE
  8
0
 10
71.686
 20
69.7042
 11
70.7107
 21
70.7107
  0
LINE
  8
0
 10
70.7107
 20
70.7107
 11
68.4547
 21
72.8969
  0
LINE
  8
0
 10
68.4547
 20
72.8969
 11
66.1312
 21
75.0111
  0
LINE
  8
0
 10
66.1312
 20
75.0111
 11
63.7424
 21
77.0513
  0
LINE
  8
0
 10
63.7424
 20
77.0513
 11
61.2907
 21
79.0155
  0
LINE
  8
0
 10
61.2907
 20
79.0155
 11
58.7785
 21
80.9017
  0
LINE
  8
0
 10
58.7785
 20
80.9017
 11
56.2083
 21
82.7081
  0
LINE
  8
0
 10
56.2083
 20
82.7081
 11
53.5827
 21
84.4328
  0
LINE
  8
0
 10
53.5827
 20
84.4328
 11
50.9041
 21
86.0742
  0
LINE
  8
0
 10
50.9041
 20
86.0742
 11
48.1754
 21
87.6307
  0
LINE
  8
0
 10
48.1754
 20
87.6307
 11
45.399
 21
89.1006
  0
LINE
  8
0
 10
45.399
 20
89.1006
 11
42.5779
 21
90.4827
  0
LINE
  8
0
 10
42.5779
 20
90.4827
 11
39.7148
 21
91.7755
  0
LINE
  8
0
 10
39.7148
 20
91.7755
 11
36.8125
 21
92.9776
  0
LINE
  8
0
 10
36.8125
 20
92.9776
 11
33.8738
 21
94.0881
  0
LINE
  8
0
 10
33.8738
 20
94.0881
 11
30.9017
 21
95.1056
  0
LINE
  8
0
 10
30.9017
 20
95.1056
 11
27.8991
 21
96.0294
  0
LINE
  8
0
 10
27.8991
 20
96.0294
 11
24.869
 21
96.8583
  0
LINE
  8
0
 10
24.869
 20
96.8583
 11
21.8143
 21
97.5917
  0
LINE
  8
0
 10
21.8143
 20
97.5917
 11
18.7381
 21
98.2287
  0
LINE
  8
0
 10
18.7381
 20
98.2287
 11
15.6434
 21
98.7688
  0
LINE
  8
0
 10
15.6434
 20
98.7688
 11
12.5333
 21
99.2115
  0
LINE
  8
0
 10
12.5333
 20
99.2115
 11
9.41083
 21
99.5562
  0
LINE
  8
0
 10
9.41083
 20
99.5562
 11
6.27904
 21
99.8027
  0
LINE
  8
0
 10
6.27904
 20
99.8027
 11
3.14107
 21
99.9507
  0
LINE
  8
0
 10
3.14107
 20
99.9507
 11
0
 21
100
  0
LINE
  8
0
 10
0
 20
100
 11
-3.14107
 21
99.9507
  0
LINE
  8
0
 10
-3.14107
 20
99.9507
 11
-6.27904
 21
99.8027
  0
LINE
  8
0
 10
-6.27904
 20
99.8027
 11
-9.41083
 21
99.5562
  0
LINE
  8
0
 10
-9.41083
 20
99.5562
 11
-12.5333
 21
99.2115
  0
LINE
  8
0
 10
-12.5333
 20
99.2115
 11
-15.6434
 21
98.7688
  0
LINE
  8
0
 10
-15.6434
 20
98.7688
 11
-18.7381
 21
98.2287
  0
LINE
  8
0
 10
-18.7381
 20
98.2287
 11
-21.8143
 21
97.5917
  0
LINE
  8
0
 10
-21.8143
 20
97.5917
 11
-24.869
 21
96.8583
  0
LINE
  8
0
 10
-24.869
 20
96.8583
 11
-27.8991
 21
96.0294
  0
LINE
  8
0
 10
-27.8991
 20
96.0294
 11
-30.9017
 21
95.1056
  0
LINE
  8
0
 10
-30.9017
 20
95.1056
 11
-33.8738
 21
94.0881
  0
LINE
  8
0
 10
-33.8738
 20
94.0881
 11
-36.8125
 21
92.9776
  0
LINE
  8
0
 10
-36.8125
 20
92.9776
 11
-39.7148
 21
91.7755
  0
LINE
  8
0
 10
-39.7148
 20
91.7755
 11
-42.5779
 21
90.4827
  0
LINE
  8
0
 10
-42.5779
 20
90.4827
 11
-45.399
 21
89.1006
  0
LINE
  8
0
 10
-45.399
 20
89.1006
 11
-48.1754
 21
87.6307
  0
LINE
  8
0
 10
-48.1754
 20
87.6307
 11
-50.9041
 21
86.0742
  0
LINE
  8
0
 10
-50.9041
 20
86.0742
 11
-53.5827
 21
84.4328
  0
LINE
  8
0
 10
-53.5827
 20
84.4328
 11
-56.2083
 21
82.7081
  0
LINE
  8
0
 10
-56.2083
 20
82.7081
 11
-58.7785
 21
80.9017
  0
LINE
  8
0
 10
-58.7785
 20
80.9017
 11
-61.2907
 21
79.0155
  0
LINE
  8
0
 10
-61.2907
 20
79.0155
 11
-63.7424
 21
77.0513
  0
LINE
  8
0
 10
-63.7424
 20
77.0513
 11
-66.1312
 21
75.0111
  0
LINE
  8
0
 10
-66.1312
 20
75.0111
 11
-68.4547
 21
72.8969
  0
LINE
  8
0
 10
-68.4547
 20
72.8969
 11
-70.7107
 21
70.7107
  0
LINE
  8
0
 10
-70.7107
 20
70.7107
 11
-71.686
 21
69.7042
  0
LINE
  8
0
 10
-71.686
 20
69.7042
 11
-71.686
 21
41.6
  0
LINE
  8
0
 10
-71.686
 20
41.6
 11
-68.7389
 21
41.6001
  0
LINE
  8
0
 10
-68.7389
 20
41.6001
 11
-68.7389
 21
27.6665
  0
LINE
  8
0
 10
-68.7389
 20
27.6665
 11
-71.686
 21
27.6665
  0
LINE
  8
0
 10
-71.686
 20
27.6665
 11
-71.686
 21
13.8333
  0
LINE
  8
0
 10
-71.686
 20
13.8333
 11
-68.7389
 21
13.8334
  0
LINE
  8
0
 10
-68.7389
 20
13.8334
 11
-68.7389
 21
-2.86661
  0
LINE
  8
0
 10
-68.7389
 20
-2.86661
 11
-71.686
 21
-2.86661
  0
LINE
  8
0
 10
-71.686
 20
-2.86661
 11
-71.686
 21
-3.9908
  0
LINE
  8
0
 10
-71.686
 20
-3.9908
 11
-71.6148
 21
-4.04424
  0
LINE
  8
0
 10
-71.6148
 20
-4.04424
 11
-71.5451
 21
-4.10765
  0
LINE
  8
0
 10
-71.5451
 20
-4.10765
 11
-71.4817
 21
-4.17732
  0
LINE
  8
0
 10
-71.4817
 20
-4.17732
 11
-71.4252
 21
-4.25267
  0
LINE
  8
0
 10
-71.4252
 20
-4.25267
 11
-71.3759
 21
-4.33299
  0
LINE
  8
0
 10
-71.3759
 20
-4.33299
 11
-71.3345
 21
-4.4176
  0
LINE
  8
0
 10
-71.3345
 20
-4.4176
 11
-71.3012
 21
-4.50574
  0
LINE
  8
0
 10
-71.3012
 20
-4.50574
 11
-71.2763
 21
-4.5966
  0
LINE
  8
0
 10
-71.2763
 20
-4.5966
 11
-71.2601
 21
-4.68942
  0
LINE
  8
0
 10
-71.2601
 20
-4.68942
 11
-71.2527
 21
-4.78334
  0
LINE
  8
0
 10
-71.2527
 20
-4.78334
 11
-71.2522
 21
-54.8147
  0
LINE
  8
0
 10
-71.2522
 20
-54.8147
 11
-71.2439
 21
-55.3487
  0
LINE
  8
0
 10
-71.2439
 20
-55.3487
 11
-71.2187
 21
-55.8822
  0
LINE
  8
0
 10
-71.2187
 20
-55.8822
 11
-71.1768
 21
-56.4146
  0
LINE
  8
0
 10
-71.1768
 20
-56.4146
 11
-71.1182
 21
-56.9454
  0
LINE
  8
0
 10
-71.1182
 20
-56.9454
 11
-71.0429
 21
-57.4741
  0
LINE
  8
0
 10
-71.0429
 20
-57.4741
 11
-70.9511
 21
-58.0002
  0
LINE
  8
0
 10
-70.9511
 20
-58.0002
 11
-70.8428
 21
-58.5232
  0
LINE
  8
0
 10
-70.8428
 20
-58.5232
 11
-70.7182
 21
-59.0425
  0
LINE
  8
0
 10
-70.7182
 20
-59.0425
 11
-70.5772
 21
-59.5576
  0
LINE
  8
0
 10
-70.5772
 20
-59.5576
 11
-70.4202
 21
-60.068
  0
LINE
  8
0
 10
-70.4202
 20
-60.068
 11
-70.2472
 21
-60.5733
  0
LINE
  8
0
 10
-70.2472
 20
-60.5733
 11
-70.0584
 21
-61.0728
  0
LINE
  8
0
 10
-70.0584
 20
-61.0728
 11
-69.8541
 21
-61.5663
  0
LINE
  8
0
 10
-69.8541
 20
-61.5663
 11
-69.6343
 21
-62.053
  0
LINE
  8
0
 10
-69.6343
 20
-62.053
 11
-69.3994
 21
-62.5326
  0
LINE
  8
0
 10
-69.3994
 20
-62.5326
 11
-69.1494
 21
-63.0045
  0
LINE
  8
0
 10
-69.1494
 20
-63.0045
 11
-68.8849
 21
-63.4684
  0
LINE
  8
0
 10
-68.8849
 20
-63.4684
 11
-68.6058
 21
-63.9238
  0
LINE
  8
0
 10
-68.6058
 20
-63.9238
 11
-68.3126
 21
-64.3701
  0
LINE
  8
0
 10
-68.3126
 20
-64.3701
 11
-68.0055
 21
-64.8071
  0
LINE
  8
0
 10
-68.0055
 20
-64.8071
 11
-67.6849
 21
-65.2342
  0
LINE
  8
0
 10
-67.6849
 20
-65.2342
 11
-67.351
 21
-65.6509
  0
LINE
  8
0
 10
-67.351
 20
-65.6509
 11
-67.0041
 21
-66.057
  0
LINE
  8
0
 10
-67.0041
 20
-66.057
 11
-66.6447
 21
-66.452
  0
LINE
  8
0
 10
-66.6447
 20
-66.452
 11
-66.2731
 21
-66.8356
  0
LINE
  8
0
 10
-66.2731
 20
-66.8356
 11
-65.8895
 21
-67.2072
  0
LINE
  8
0
 10
-65.8895
 20
-67.2072
 11
-65.4945
 21
-67.5666
  0
LINE
  8
0
 10
-65.4945
 20
-67.5666
 11
-65.0884
 21
-67.9135
  0
LINE
  8
0
 10
-65.0884
 20
-67.9135
 11
-64.6717
 21
-68.2474
  0
LINE
  8
0
 10
-64.6717
 20
-68.2474
 11
-64.2446
 21
-68.568
  0
LINE
  8
0
 10
-64.2446
 20
-68.568
 11
-63.8076
 21
-68.8751
  0
LINE
  8
0
 10
-63.8076
 20
-68.8751
 11
-63.3613
 21
-69.1683
  0
LINE
  8
0
 10
-63.3613
 20
-69.1683
 11
-62.9059
 21
-69.4474
  0
LINE
  8
0
 10
-62.9059
 20
-69.4474
 11
-62.442
 21
-69.7119
  0
LINE
  8
0
 10
-62.442
 20
-69.7119
 11
-61.9701
 21
-69.9619
  0
LINE
  8
0
 10
-61.9701
 20
-69.9619
 11
-61.4905
 21
-70.1968
  0
LINE
  8
0
 10
-61.4905
 20
-70.1968
 11
-61.0038
 21
-70.4166
  0
LINE
  8
0
 10
-61.0038
 20
-70.4166
 11
-60.5103
 21
-70.6209
  0
LINE
  8
0
 10
-60.5103
 20
-70.6209
 11
-60.0108
 21
-70.8097
  0
LINE
  8
0
 10
-60.0108
 20
-70.8097
 11
-59.5055
 21
-70.9827
  0
LINE
  8
0
 10
-59.5055
 20
-70.9827
 11
-58.9951
 21
-71.1397
  0
LINE
  8
0
 10
-58.9951
 20
-71.1397
 11
-58.48
 21
-71.2807
  0
LINE
  8
0
 10
-58.48
 20
-71.2807
 11
-57.9607
 21
-71.4053
  0
LINE
  8
0
 10
-57.9607
 20
-71.4053
 11
-57.4377
 21
-71.5136
  0
LINE
  8
0
 10
-57.4377
 20
-71.5136
 11
-56.9116
 21
-71.6054
  0
LINE
  8
0
 10
-56.9116
 20
-71.6054
 11
-56.3829
 21
-71.6807
  0
LINE
  8
0
 10
-56.3829
 20
-71.6807
 11
-55.8521
 21
-71.7393
  0
LINE
  8
0
 10
-55.8521
 20
-71.7393
 11
-55.3197
 21
-71.7812
  0
LINE
  8
0
 10
-55.3197
 20
-71.7812
 11
-54.7862
 21
-71.8064
  0
LINE
  8
0
 10
-54.7862
 20
-71.8064
 11
-54.2522
 21
-71.8147
  0
LINE
  8
0
 10
-54.2522
 20
-71.8147
 11
-53.7183
 21
-71.8064
  0
LINE
  8
0
 10
-53.7183
 20
-71.8064
 11
-53.1848
 21
-71.7812
  0
LINE
  8
0
 10
-53.1848
 20
-71.7812
 11
-52.6524
 21
-71.7393
  0
LINE
  8
0
 10
-52.6524
 20
-71.7393
 11
-52.1216
 21
-71.6807
  0
LINE
  8
0
 10
-52.1216
 20
-71.6807
 11
-51.5929
 21
-71.6054
  0
LINE
  8
0
 10
-51.5929
 20
-71.6054
 11
-51.0668
 21
-71.5136
  0
LINE
  8
0
 10
-51.0668
 20
-71.5136
 11
-50.5438
 21
-71.4053
  0
LINE
  8
0
 10
-50.5438
 20
-71.4053
 11
-50.0245
 21
-71.2807
  0
LINE
  8
0
 10
-50.0245
 20
-71.2807
 11
-49.5094
 21
-71.1397
  0
LINE
  8
0
 10
-49.5094
 20
-71.1397
 11
-48.999
 21
-70.9827
  0
LINE
  8
0
 10
-48.999
 20
-70.9827
 11
-48.4937
 21
-70.8097
  0
LINE
  8
0
 10
-48.4937
 20
-70.8097
 11
-47.9941
 21
-70.6209
  0
LINE
  8
0
 10
-47.9941
 20
-70.6209
 11
-47.5007
 21
-70.4166
  0
LINE
  8
0
 10
-47.5007
 20
-70.4166
 11
-47.014
 21
-70.1968
  0
LINE
  8
0
 10
-47.014
 20
-70.1968
 11
-46.5344
 21
-69.9619
  0
LINE
  8
0
 10
-46.5344
 20
-69.9619
 11
-46.0624
 21
-69.7119
  0
LINE
  8
0
 10
-46.0624
 20
-69.7119
 11
-45.5985
 21
-69.4474
  0
LINE
  8
0
 10
-45.5985
 20
-69.4474
 11
-45.1432
 21
-69.1683
  0
LINE
  8
0
 10
-45.1432
 20
-69.1683
 11
-44.6968
 21
-68.8751
  0
LINE
  8
0
 10
-44.6968
 20
-68.8751
 11
-44.2599
 21
-68.568
  0
LINE
  8
0
 10
-44.2599
 20
-68.568
 11
-43.8328
 21
-68.2474
  0
LINE
  8
0
 10
-43.8328
 20
-68.2474
 11
-43.416
 21
-67.9135
  0
LINE
  8
0
 10
-43.416
 20
-67.9135
 11
-43.0099
 21
-67.5666
  0
LINE
  8
0
 10
-43.0099
 20
-67.5666
 11
-42.6149
 21
-67.2072
  0
LINE
  8
0
 10
-42.6149
 20
-67.2072
 11
-42.2314
 21
-66.8356
  0
LINE
  8
0
 10
-42.2314
 20
-66.8356
 11
-41.8598
 21
-66.452
  0
LINE
  8
0
 10
-41.8598
 20
-66.452
 11
-41.5004
 21
-66.057
  0
LINE
  8
0
 10
-41.5004
 20
-66.057
 11
-41.1535
 21
-65.6509
  0
LINE
  8
0
 10
-41.1535
 20
-65.6509
 11
-40.8196
 21
-65.2342
  0
LINE
  8
0
 10
-40.8196
 20
-65.2342
 11
-40.499
 21
-64.8071
  0
LINE
  8
0
 10
-40.499
 20
-64.8071
 11
-40.1919
 21
-64.3701
  0
LINE
  8
0
 10
-40.1919
 20
-64.3701
 11
-39.8987
 21
-63.9238
  0
LINE
  8
0
 10
-39.8987
 20
-63.9238
 11
-39.6196
 21
-63.4684
  0
LINE
  8
0
 10
-39.6196
 20
-63.4684
 11
-39.355
 21
-63.0045
  0
LINE
  8
0
 10
-39.355
 20
-63.0045
 11
-39.1051
 21
-62.5326
  0
LINE
  8
0
 10
-39.1051
 20
-62.5326
 11
-38.8702
 21
-62.053
  0
LINE
  8
0
 10
-38.8702
 20
-62.053
 11
-38.6504
 21
-61.5663
  0
LINE
  8
0
 10
-38.6504
 20
-61.5663
 11
-38.446
 21
-61.0728
  0
LINE
  8
0
 10
-38.446
 20
-61.0728
 11
-38.2573
 21
-60.5733
  0
LINE
  8
0
 10
-38.2573
 20
-60.5733
 11
-38.0843
 21
-60.068
  0
LINE
  8
0
 10
-38.0843
 20
-60.068
 11
-37.9273
 21
-59.5576
  0
LINE
  8
0
 10
-37.9273
 20
-59.5576
 11
-37.7863
 21
-59.0425
  0
LINE
  8
0
 10
-37.7863
 20
-59.0425
 11
-37.6617
 21
-58.5232
  0
LINE
  8
0
 10
-37.6617
 20
-58.5232
 11
-37.5534
 21
-58.0002
  0
LINE
  8
0
 10
-37.5534
 20
-58.0002
 11
-37.4615
 21
-57.4741
  0
LINE
  8
0
 10
-37.4615
 20
-57.4741
 11
-37.3863
 21
-56.9454
  0
LINE
  8
0
 10
-37.3863
 20
-56.9454
 11
-37.3277
 21
-56.4146
  0
LINE
  8
0
 10
-37.3277
 20
-56.4146
 11
-37.2858
 21
-55.8822
  0
LINE
  8
0
 10
-37.2858
 20
-55.8822
 11
-37.2606
 21
-55.3487
  0
LINE
  8
0
 10
-37.2606
 20
-55.3487
 11
-37.2522
 21
-54.8147
  0
LINE
  8
0
 10
-37.2522
 20
-54.8147
 11
-37.2522
 21
-4.81474
  0
LINE
  8
0
 10
-37.2522
 20
-4.81474
 11
-37.2478
 21
-4.72064
  0
LINE
  8
0
 10
-37.2478
 20
-4.72064
 11
-37.2345
 21
-4.62737
  0
LINE
  8
0
 10
-37.2345
 20
-4.62737
 11
-37.2125
 21
-4.53577
  0
LINE
  8
0
 10
-37.2125
 20
-4.53577
 11
-37.182
 21
-4.44662
  0
LINE
  8
0
 10
-37.182
 20
-4.44662
 11
-37.1433
 21
-4.36076
  0
LINE
  8
0
 10
-37.1433
 20
-4.36076
 11
-37.0966
 21
-4.27893
  0
LINE
  8
0
 10
-37.0966
 20
-4.27893
 11
-37.0424
 21
-4.20184
  0
LINE
  8
0
 10
-37.0424
 20
-4.20184
 11
-36.9812
 21
-4.1302
  0
LINE
  8
0
 10
-36.9812
 20
-4.1302
 11
-36.9136
 21
-4.06464
  0
LINE
  8
0
 10
-36.9136
 20
-4.06464
 11
-36.84
 21
-4.00574
  0
LINE
  8
0
 10
-36.84
 20
-4.00574
 11
-36.7613
 21
-3.95401
  0
LINE
  8
0
 10
-36.7613
 20
-3.95401
 11
-36.678
 21
-3.90993
  0
LINE
  8
0
 10
-36.678
 20
-3.90993
 11
-36.591
 21
-3.87387
  0
LINE
  8
0
 10
-36.591
 20
-3.87387
 11
-36.5009
 21
-3.84616
  0
LINE
  8
0
 10
-36.5009
 20
-3.84616
 11
-36.4087
 21
-3.82706
  0
LINE
  8
0
 10
-36.4087
 20
-3.82706
 11
-36.315
 21
-3.81673
  0
LINE
  8
0
 10
-36.315
 20
-3.81673
 11
-36.2208
 21
-3.81525
  0
LINE
  8
0
 10
-36.2208
 20
-3.81525
 11
-36.1269
 21
-3.82263
  0
LINE
  8
0
 10
-36.1269
 20
-3.82263
 11
-36.0341
 21
-3.83884
  0
LINE
  8
0
 10
-36.0341
 20
-3.83884
 11
-35.9432
 21
-3.86369
  0
LINE
  8
0
 10
-35.9432
 20
-3.86369
 11
-35.8551
 21
-3.897
  0
LINE
  8
0
 10
-35.8551
 20
-3.897
 11
-35.7705
 21
-3.93845
  0
LINE
  8
0
 10
-35.7705
 20
-3.93845
 11
-35.6902
 21
-3.98767
  0
LINE
  8
0
 10
-35.6902
 20
-3.98767
 11
-35.6148
 21
-4.04424
  0
LINE
  8
0
 10
-35.6148
 20
-4.04424
 11
-35.5452
 21
-4.10765
  0
LINE
  8
0
 10
-35.5452
 20
-4.10765
 11
-35.4817
 21
-4.17732
  0
LINE
  8
0
 10
-35.4817
 20
-4.17732
 11
-35.4252
 21
-4.25267
  0
LINE
  8
0
 10
-35.4252
 20
-4.25267
 11
-35.3759
 21
-4.33299
  0
LINE
  8
0
 10
-35.3759
 20
-4.33299
 11
-35.3345
 21
-4.4176
  0
LINE
  8
0
 10
-35.3345
 20
-4.4176
 11
-35.3012
 21
-4.50574
  0
LINE
  8
0
 10
-35.3012
 20
-4.50574
 11
-35.2763
 21
-4.5966
  0
LINE
  8
0
 10
-35.2763
 20
-4.5966
 11
-35.2601
 21
-4.68942
  0
LINE
  8
0
 10
-35.2601
 20
-4.68942
 11
-35.2527
 21
-4.78334
  0
LINE
  8
0
 10
-35.2527
 20
-4.78334
 11
-35.2522
 21
-54.8147
  0
LINE
  8
0
 10
-35.2522
 20
-54.8147
 11
-35.2616
 21
-55.4115
  0
LINE
  8
0
 10
-35.2616
 20
-55.4115
 11
-35.2897
 21
-56.0078
  0
LINE
  8
0
 10
-35.2897
 20
-56.0078
 11
-35.3366
 21
-56.6028
  0
LINE
  8
0
 10
-35.3366
 20
-56.6028
 11
-35.4021
 21
-57.1961
  0
LINE
  8
0
 10
-35.4021
 20
-57.1961
 11
-35.4862
 21
-57.787
  0
LINE
  8
0
 10
-35.4862
 20
-57.787
 11
-35.5888
 21
-58.375
  0
LINE
  8
0
 10
-35.5888
 20
-58.375
 11
-35.7098
 21
-58.9595
  0
LINE
  8
0
 10
-35.7098
 20
-58.9595
 11
-35.8492
 21
-59.5398
  0
LINE
  8
0
 10
-35.8492
 20
-59.5398
 11
-36.0067
 21
-60.1156
  0
LINE
  8
0
 10
-36.0067
 20
-60.1156
 11
-36.1822
 21
-60.6861
  0
LINE
  8
0
 10
-36.1822
 20
-60.6861
 11
-36.3755
 21
-61.2508
  0
LINE
  8
0
 10
-36.3755
 20
-61.2508
 11
-36.5865
 21
-61.8091
  0
LINE
  8
0
 10
-36.5865
 20
-61.8091
 11
-36.8149
 21
-62.3605
  0
LINE
  8
0
 10
-36.8149
 20
-62.3605
 11
-37.0605
 21
-62.9045
  0
LINE
  8
0
 10
-37.0605
 20
-62.9045
 11
-37.3231
 21
-63.4406
  0
LINE
  8
0
 10
-37.3231
 20
-63.4406
 11
-37.6024
 21
-63.968
  0
LINE
  8
0
 10
-37.6024
 20
-63.968
 11
-37.8981
 21
-64.4865
  0
LINE
  8
0
 10
-37.8981
 20
-64.4865
 11
-38.21
 21
-64.9954
  0
LINE
  8
0
 10
-38.21
 20
-64.9954
 11
-38.5377
 21
-65.4943
  0
LINE
  8
0
 10
-38.5377
 20
-65.4943
 11
-38.8809
 21
-65.9827
  0
LINE
  8
0
 10
-38.8809
 20
-65.9827
 11
-39.2393
 21
-66.46
  0
LINE
  8
0
 10
-39.2393
 20
-66.46
 11
-39.6125
 21
-66.9258
  0
LINE
  8
0
 10
-39.6125
 20
-66.9258
 11
-40.0001
 21
-67.3797
  0
LINE
  8
0
 10
-40.0001
 20
-67.3797
 11
-40.4018
 21
-67.8211
  0
LINE
  8
0
 10
-40.4018
 20
-67.8211
 11
-40.8172
 21
-68.2498
  0
LINE
  8
0
 10
-40.8172
 20
-68.2498
 11
-41.2458
 21
-68.6651
  0
LINE
  8
0
 10
-41.2458
 20
-68.6651
 11
-41.6873
 21
-69.0668
  0
LINE
  8
0
 10
-41.6873
 20
-69.0668
 11
-42.1412
 21
-69.4545
  0
LINE
  8
0
 10
-42.1412
 20
-69.4545
 11
-42.607
 21
-69.8277
  0
LINE
  8
0
 10
-42.607
 20
-69.8277
 11
-43.0843
 21
-70.1861
  0
LINE
  8
0
 10
-43.0843
 20
-70.1861
 11
-43.5727
 21
-70.5293
  0
LINE
  8
0
 10
-43.5727
 20
-70.5293
 11
-44.0715
 21
-70.857
  0
LINE
  8
0
 10
-44.0715
 20
-70.857
 11
-44.5805
 21
-71.1688
  0
LINE
  8
0
 10
-44.5805
 20
-71.1688
 11
-45.0989
 21
-71.4646
  0
LINE
  8
0
 10
-45.0989
 20
-71.4646
 11
-45.6264
 21
-71.7439
  0
LINE
  8
0
 10
-45.6264
 20
-71.7439
 11
-46.1624
 21
-72.0065
  0
LINE
  8
0
 10
-46.1624
 20
-72.0065
 11
-46.7064
 21
-72.2521
  0
LINE
  8
0
 10
-46.7064
 20
-72.2521
 11
-47.2579
 21
-72.4805
  0
LINE
  8
0
 10
-47.2579
 20
-72.4805
 11
-47.8162
 21
-72.6915
  0
LINE
  8
0
 10
-47.8162
 20
-72.6915
 11
-48.3809
 21
-72.8848
  0
LINE
  8
0
 10
-48.3809
 20
-72.8848
 11
-48.9514
 21
-73.0603
  0
LINE
  8
0
 10
-48.9514
 20
-73.0603
 11
-49.5271
 21
-73.2178
  0
LINE
  8
0
 10
-49.5271
 20
-73.2178
 11
-50.1075
 21
-73.3571
  0
LINE
  8
0
 10
-50.1075
 20
-73.3571
 11
-50.692
 21
-73.4782
  0
LINE
  8
0
 10
-50.692
 20
-73.4782
 11
-51.28
 21
-73.5808
  0
LINE
  8
0
 10
-51.28
 20
-73.5808
 11
-51.8709
 21
-73.6649
  0
LINE
  8
0
 10
-51.8709
 20
-73.6649
 11
-52.4642
 21
-73.7304
  0
LINE
  8
0
 10
-52.4642
 20
-73.7304
 11
-53.0592
 21
-73.7772
  0
LINE
  8
0
 10
-53.0592
 20
-73.7772
 11
-53.6554
 21
-73.8054
  0
LINE
  8
0
 10
-53.6554
 20
-73.8054
 11
-54.2522
 21
-73.8147
  0
LINE
  8
0
 10
-54.2522
 20
-73.8147
 11
-54.2522
 21
-83.993
  0
LINE
  8
0
 10
-54.2522
 20
-83.993
 11
-53.5827
 21
-84.4328
  0
LINE
  8
0
 10
-53.5827
 20
-84.4328
 11
-50.9041
 21
-86.0742
  0
LINE
  8
0
 10
-50.9041
 20
-86.0742
 11
-48.1754
 21
-87.6307
  0
LINE
  8
0
 10
-48.1754
 20
-87.6307
 11
-45.399
 21
-89.1006
  0
LINE
  8
0
 10
-45.399
 20
-89.1006
 11
-42.5779
 21
-90.4827
  0
LINE
  8
0
 10
-42.5779
 20
-90.4827
 11
-39.7148
 21
-91.7755
  0
LINE
  8
0
 10
-39.7148
 20
-91.7755
 11
-36.8125
 21
-92.9776
  0
LINE
  8
0
 10
-36.8125
 20
-92.9776
 11
-33.8738
 21
-94.0881
  0
LINE
  8
0
 10
-33.8738
 20
-94.0881
 11
-30.9017
 21
-95.1056
  0
LINE
  8
0
 10
-30.9017
 20
-95.1056
 11
-27.8991
 21
-96.0294
  0
LINE
  8
0
 10
-27.8991
 20
-96.0294
 11
-24.869
 21
-96.8583
  0
LINE
  8
0
 10
-24.869
 20
-96.8583
 11
-21.8143
 21
-97.5917
  0
LINE
  8
0
 10
-21.8143
 20
-97.5917
 11
-18.7381
 21
-98.2287
  0
LINE
  8
0
 10
-18.7381
 20
-98.2287
 11
-15.6434
 21
-98.7688
  0
LINE
  8
0
 10
-15.6434
 20
-98.7688
 11
-12.5333
 21
-99.2115
  0
LINE
  8
0
 10
-12.5333
 20
-99.2115
 11
-9.41083
 21
-99.5562
  0
LINE
  8
0
 10
-9.41083
 20
-99.5562
 11
-6.27904
 21
-99.8027
  0
LINE
  8
0
 10
-6.27904
 20
-99.8027
 11
-3.14107
 21
-99.9507
  0
LINE
  8
0
 10
-3.14107
 20
-99.9507
 11
0
 21
-100
  0
LINE
  8
0
 10
0
 20
-100
 11
3.14107
 21
-99.9507
  0
LINE
  8
0
 10
3.14107
 20
-99.9507
 11
6.27904
 21
-99.8027
  0
LINE
  8
0
 10
6.27904
 20
-99.8027
 11
9.41083
 21
-99.5562
  0
LINE
  8
0
 10
9.41083
 20
-99.5562
 11
12.5333
 21
-99.2115
  0
LINE
  8
0
 10
12.5333
 20
-99.2115
 11
15.6434
 21
-98.7688
  0
LINE
  8
0
 10
15.6434
 20
-98.7688
 11
18.7381
 21
-98.2287
  0
LINE
  8
0
 10
18.7381
 20
-98.2287
 11
21.8143
 21
-97.5917
  0
LINE
  8
0
 10
21.8143
 20
-97.5917
 11
24.869
 21
-96.8583
  0
LINE
  8
0
 10
24.869
 20
-96.8583
 11
27.8991
 21
-96.0294
  0
LINE
  8
0
 10
27.8991
 20
-96.0294
 11
30.9017
 21
-95.1056
  0
LINE
  8
0
 10
30.9017
 20
-95.1056
 11
33.8738
 21
-94.0881
  0
LINE
  8
0
 10
33.8738
 20
-94.0881
 11
36.8125
 21
-92.9776
  0
LINE
  8
0
 10
36.8125
 20
-92.9776
 11
39.7148
 21
-91.7755
  0
LINE
  8
0
 10
39.7148
 20
-91.7755
 11
42.5779
 21
-90.4827
  0
LINE
  8
0
 10
42.5779
 20
-90.4827
 11
45.399
 21
-89.1006
  0
LINE
  8
0
 10
45.399
 20
-89.1006
 11
48.1754
 21
-87.6307
  0
LINE
  8
0
 10
48.1754
 20
-87.6307
 11
50.9041
 21
-86.0742
  0
LINE
  8
0
 10
50.9041
 20
-86.0742
 11
53.5827
 21
-84.4328
  0
LINE
  8
0
 10
53.5827
 20
-84.4328
 11
54.2522
 21
-83.993
  0
LINE
  8
0
 10
54.2522
 20
-83.993
 11
54.2522
 21
-73.8147
  0
LINE
  8
0
 10
54.2522
 20
-73.8147
 11
53.6554
 21
-73.8054
  0
LINE
  8
0
 10
53.6554
 20
-73.8054
 11
53.0592
 21
-73.7772
  0
LINE
  8
0
 10
53.0592
 20
-73.7772
 11
52.4642
 21
-73.7304
  0
LINE
  8
0
 10
52.4642
 20
-73.7304
 11
51.8709
 21
-73.6649
  0
LINE
  8
0
 10
51.8709
 20
-73.6649
 11
51.28
 21
-73.5808
  0
LINE
  8
0
 10
51.28
 20
-73.5808
 11
50.692
 21
-73.4782
  0
LINE
  8
0
 10
50.692
 20
-73.4782
 11
50.1075
 21
-73.3571
  0
LINE
  8
0
 10
50.1075
 20
-73.3571
 11
49.5271
 21
-73.2178
  0
LINE
  8
0
 10
49.5271
 20
-73.2178
 11
48.9514
 21
-73.0603
  0
LINE
  8
0
 10
48.9514
 20
-73.0603
 11
48.3809
 21
-72.8848
  0
LINE
  8
0
 10
48.3809
 20
-72.8848
 11
47.8162
 21
-72.6915
  0
LINE
  8
0
 10
47.8162
 20
-72.6915
 11
47.2579
 21
-72.4805
  0
LINE
  8
0
 10
47.2579
 20
-72.4805
 11
46.7064
 21
-72.2521
  0
LINE
  8
0
 10
46.7064
 20
-72.2521
 11
46.1624
 21
-72.0065
  0
LINE
  8
0
 10
46.1624
 20
-72.0065
 11
45.6264
 21
-71.7439
  0
LINE
  8
0
 10
45.6264
 20
-71.7439
 11
45.0989
 21
-71.4646
  0
LINE
  8
0
 10
45.0989
 20
-71.4646
 11
44.5805
 21
-71.1688
  0
LINE
  8
0
 10
44.5805
 20
-71.1688
 11
44.0715
 21
-70.857
  0
LINE
  8
0
 10
44.0715
 20
-70.857
 11
43.5727
 21
-70.5293
  0
LINE
  8
0
 10
43.5727
 20
-70.5293
 11
43.0843
 21
-70.1861
  0
LINE
  8
0
 10
43.0843
 20
-70.1861
 11
42.607
 21
-69.8277
  0
LINE
  8
0
 10
42.607
 20
-69.8277
 11
42.1412
 21
-69.4545
  0
LINE
  8
0
 10
42.1412
 20
-69.4545
 11
41.6873
 21
-69.0668
  0
LINE
  8
0
 10
41.6873
 20
-69.0668
 11
41.2458
 21
-68.6651
  0
LINE
  8
0
 10
41.2458
 20
-68.6651
 11
40.8172
 21
-68.2498
  0
LINE
  8
0
 10
40.8172
 20
-68.2498
 11
40.4018
 21
-67.8211
  0
LINE
  8
0
 10
40.4018
 20
-67.8211
 11
40.0001
 21
-67.3797
  0
LINE
  8
0
 10
40.0001
 20
-67.3797
 11
39.6125
 21
-66.9258
  0
LINE
  8
0
 10
39.6125
 20
-66.9258
 11
39.2393
 21
-66.46
  0
LINE
  8
0
 10
39.2393
 20
-66.46
 11
38.8809
 21
-65.9827
  0
LINE
  8
0
 10
38.8809
 20
-65.9827
 11
38.5377
 21
-65.4943
  0
LINE
  8
0
 10
38.5377
 20
-65.4943
 11
38.21
 21
-64.9954
  0
LINE
  8
0
 10
38.21
 20
-64.9954
 11
37.8981
 21
-64.4865
  0
LINE
  8
0
 10
37.8981
 20
-64.4865
 11
37.6024
 21
-63.968
  0
LINE
  8
0
 10
37.6024
 20
-63.968
 11
37.3231
 21
-63.4406
  0
LINE
  8
0
 10
37.3231
 20
-63.4406
 11
37.0605
 21
-62.9045
  0
LINE
  8
0
 10
37.0605
 20
-62.9045
 11
36.8149
 21
-62.3605
  0
LINE
  8
0
 10
36.8149
 20
-62.3605
 11
36.5865
 21
-61.8091
  0
LINE
  8
0
 10
36.5865
 20
-61.8091
 11
36.3755
 21
-61.2508
  0
LINE
  8
0
 10
36.3755
 20
-61.2508
 11
36.1822
 21
-60.6861
  0
LINE
  8
0
 10
36.1822
 20
-60.6861
 11
36.0067
 21
-60.1156
  0
LINE
  8
0
 10
36.0067
 20
-60.1156
 11
35.8492
 21
-59.5398
  0
LINE
  8
0
 10
35.8492
 20
-59.5398
 11
35.7098
 21
-58.9595
  0
LINE
  8
0
 10
35.7098
 20
-58.9595
 11
35.5888
 21
-58.375
  0
LINE
  8
0
 10
35.5888
 20
-58.375
 11
35.4862
 21
-57.787
  0
LINE
  8
0
 10
35.4862
 20
-57.787
 11
35.4021
 21
-57.1961
  0
LINE
  8
0
 10
35.4021
 20
-57.1961
 11
35.3366
 21
-56.6028
  0
LINE
  8
0
 10
35.3366
 20
-56.6028
 11
35.2897
 21
-56.0078
  0
LINE
  8
0
 10
35.2897
 20
-56.0078
 11
35.2616
 21
-55.4115
  0
LINE
  8
0
 10
35.2616
 20
-55.4115
 11
35.2522
 21
-54.8147
  0
LINE
  8
0
 10
35.2522
 20
-54.8147
 11
35.2522
 21
-4.81474
  0
LINE
  8
0
 10
35.2522
 20
-4.81474
 11
35.2567
 21
-4.72064
  0
LINE
  8
0
 10
35.2567
 20
-4.72064
 11
35.27
 21
-4.62737
  0
LINE
  8
0
 10
35.27
 20
-4.62737
 11
35.292
 21
-4.53577
  0
LINE
  8
0
 10
35.292
 20
-4.53577
 11
35.3225
 21
-4.44662
  0
LINE
  8
0
 10
35.3225
 20
-4.44662
 11
35.3612
 21
-4.36076
  0
LINE
  8
0
 10
35.3612
 20
-4.36076
 11
35.4079
 21
-4.27893
  0
LINE
  8
0
 10
35.4079
 20
-4.27893
 11
35.4621
 21
-4.20184
  0
LINE
  8
0
 10
35.4621
 20
-4.20184
 11
35.5233
 21
-4.1302
  0
LINE
  8
0
 10
35.5233
 20
-4.1302
 11
35.5909
 21
-4.06464
  0
LINE
  8
0
 10
35.5909
 20
-4.06464
 11
35.6645
 21
-4.00574
  0
LINE
  8
0
 10
35.6645
 20
-4.00574
 11
35.7432
 21
-3.95401
  0
LINE
  8
0
 10
35.7432
 20
-3.95401
 11
35.8265
 21
-3.90993
  0
LINE
  8
0
 10
35.8265
 20
-3.90993
 11
35.9135
 21
-3.87387
  0
LINE
  8
0
 10
35.9135
 20
-3.87387
 11
36.0036
 21
-3.84616
  0
LINE
  8
0
 10
36.0036
 20
-3.84616
 11
36.0958
 21
-3.82706
  0
LINE
  8
0
 10
36.0958
 20
-3.82706
 11
36.1895
 21
-3.81673
  0
LINE
  8
0
 10
36.1895
 20
-3.81673
 11
36.2837
 21
-3.81525
  0
LINE
  8
0
 10
36.2837
 20
-3.81525
 11
36.3776
 21
-3.82263
  0
LINE
  8
0
 10
36.3776
 20
-3.82263
 11
36.4704
 21
-3.83884
  0
LINE
  8
0
 10
36.4704
 20
-3.83884
 11
36.5613
 21
-3.86369
  0
LINE
  8
0
 10
36.5613
 20
-3.86369
 11
36.6494
 21
-3.897
  0
LINE
  8
0
 10
36.6494
 20
-3.897
 11
36.734
 21
-3.93845
  0
LINE
  8
0
 10
36.734
 20
-3.93845
 11
36.8143
 21
-3.98767
  0
LINE
  8
0
 10
36.8143
 20
-3.98767
 11
36.8897
 21
-4.04424
  0
LINE
  8
0
 10
36.8897
 20
-4.04424
 11
36.9594
 21
-4.10765
  0
LINE
  8
0
 10
36.9594
 20
-4.10765
 11
37.0228
 21
-4.17732
  0
LINE
  8
0
 10
37.0228
 20
-4.17732
 11
37.0793
 21
-4.25267
  0
LINE
  8
0
 10
37.0793
 20
-4.25267
 11
37.1286
 21
-4.33299
  0
LINE
  8
0
 10
37.1286
 20
-4.33299
 11
37.17
 21
-4.4176
  0
LINE
  8
0
 10
37.17
 20
-4.4176
 11
37.2033
 21
-4.50574
  0
LINE
  8
0
 10
37.2033
 20
-4.50574
 11
37.2282
 21
-4.5966
  0
LINE
  8
0
 10
37.2282
 20
-4.5966
 11
37.2444
 21
-4.68942
  0
LINE
  8
0
 10
37.2444
 20
-4.68942
 11
37.2518
 21
-4.78334
  0
LINE
  8
0
 10
37.2518
 20
-4.78334
 11
37.2522
 21
-54.8147
  0
LINE
  8
0
 10
37.2522
 20
-54.8147
 11
37.2606
 21
-55.3487
  0
LINE
  8
0
 10
37.2606
 20
-55.3487
 11
37.2858
 21
-55.8822
  0
LINE
  8
0
 10
37.2858
 20
-55.8822
 11
37.3277
 21
-56.4146
  0
LINE
  8
0
 10
37.3277
 20
-56.4146
 11
37.3863
 21
-56.9454
  0
LINE
  8
0
 10
37.3863
 20
-56.9454
 11
37.4615
 21
-57.4741
  0
LINE
  8
0
 10
37.4615
 20
-57.4741
 11
37.5534
 21
-58.0002
  0
LINE
  8
0
 10
37.5534
 20
-58.0002
 11
37.6617
 21
-58.5232
  0
LINE
  8
0
 10
37.6617
 20
-58.5232
 11
37.7863
 21
-59.0425
  0
LINE
  8
0
 10
37.7863
 20
-59.0425
 11
37.9273
 21
-59.5576
  0
LINE
  8
0
 10
37.9273
 20
-59.5576
 11
38.0843
 21
-60.068
  0
LINE
  8
0
 10
38.0843
 20
-60.068
 11
38.2573
 21
-60.5733
  0
LINE
  8
0
 10
38.2573
 20
-60.5733
 11
38.446
 21
-61.0728
  0
LINE
  8
0
 10
38.446
 20
-61.0728
 11
38.6504
 21
-61.5663
  0
LINE
  8
0
 10
38.6504
 20
-61.5663
 11
38.8702
 21
-62.053
  0
LINE
  8
0
 10
38.8702
 20
-62.053
 11
39.1051
 21
-62.5326
  0
LINE
  8
0
 10
39.1051
 20
-62.5326
 11
39.355
 21
-63.0045
  0
LINE
  8
0
 10
39.355
 20
-63.0045
 11
39.6196
 21
-63.4684
  0
LINE
  8
0
 10
39.6196
 20
-63.4684
 11
39.8987
 21
-63.9238
  0
LINE
  8
0
 10
39.8987
 20
-63.9238
 11
40.1919
 21
-64.3701
  0
LINE
  8
0
 10
40.1919
 20
-64.3701
 11
40.499
 21
-64.8071
  0
LINE
  8
0
 10
40.499
 20
-64.8071
 11
40.8196
 21
-65.2342
  0
LINE
  8
0
 10
40.8196
 20
-65.2342
 11
41.1535
 21
-65.6509
  0
LINE
  8
0
 10
41.1535
 20
-65.6509
 11
41.5004
 21
-66.057
  0
LINE
  8
0
 10
41.5004
 20
-66.057
 11
41.8598
 21
-66.452
  0
LINE
  8
0
 10
41.8598
 20
-66.452
 11
42.2314
 21
-66.8356
  0
LINE
  8
0
 10
42.2314
 20
-66.8356
 11
42.6149
 21
-67.2072
  0
LINE
  8
0
 10
42.6149
 20
-67.2072
 11
43.0099
 21
-67.5666
  0
LINE
  8
0
 10
43.0099
 20
-67.5666
 11
43.416
 21
-67.9135
  0
LINE
  8
0
 10
43.416
 20
-67.9135
 11
43.8328
 21
-68.2474
  0
LINE
  8
0
 10
43.8328
 20
-68.2474
 11
44.2599
 21
-68.568
  0
LINE
  8
0
 10
44.2599
 20
-68.568
 11
44.6968
 21
-68.8751
  0
LINE
  8
0
 10
44.6968
 20
-68.8751
 11
45.1432
 21
-69.1683
  0
LINE
  8
0
 10
45.1432
 20
-69.1683
 11
45.5985
 21
-69.4474
  0
LINE
  8
0
 10
45.5985
 20
-69.4474
 11
46.0624
 21
-69.7119
  0
LINE
  8
0
 10
46.0624
 20
-69.7119
 11
46.5344
 21
-69.9619
  0
LINE
  8
0
 10
46.5344
 20
-69.9619
 11
47.014
 21
-70.1968
  0
LINE
  8
0
 10
47.014
 20
-70.1968
 11
47.5007
 21
-70.4166
  0
LINE
  8
0
 10
47.5007
 20
-70.4166
 11
47.9941
 21
-70.6209
  0
LINE
  8
0
 10
47.9941
 20
-70.6209
 11
48.4937
 21
-70.8097
  0
LINE
  8
0
 10
48.4937
 20
-70.8097
 11
48.999
 21
-70.9827
  0
LINE
  8
0
 10
48.999
 20
-70.9827
 11
49.5094
 21
-71.1397
  0
LINE
  8
0
 10
49.5094
 20
-71.1397
 11
50.0245
 21
-71.2807
  0
LINE
  8
0
 10
50.0245
 20
-71.2807
 11
50.5438
 21
-71.4053
  0
LINE
  8
0
 10
50.5438
 20
-71.4053
 11
51.0668
 21
-71.5136
  0
LINE
  8
0
 10
51.0668
 20
-71.5136
 11
51.5929
 21
-71.6054
  0
LINE
  8
0
 10
51.5929
 20
-71.6054
 11
52.1216
 21
-71.6807
  0
LINE
  8
0
 10
52.1216
 20
-71.6807
 11
52.6524
 21
-71.7393
  0
LINE
  8
0
 10
52.6524
 20
-71.7393
 11
53.1848
 21
-71.7812
  0
LINE
  8
0
 10
53.1848
 20
-71.7812
 11
53.7183
 21
-71.8064
  0
LINE
  8
0
 10
53.7183
 20
-71.8064
 11
54.2522
 21
-71.8147
  0
LINE
  8
0
 10
54.2522
 20
-71.8147
 11
54.7862
 21
-71.8064
  0
LINE
  8
0
 10
54.7862
 20
-71.8064
 11
55.3197
 21
-71.7812
  0
LINE
  8
0
 10
55.3197
 20
-71.7812
 11
55.8521
 21
-71.7393
  0
LINE
  8
0
 10
55.8521
 20
-71.7393
 11
56.3829
 21
-71.6807
  0
LINE
  8
0
 10
56.3829
 20
-71.6807
 11
56.9116
 21
-71.6054
  0
LINE
  8
0
 10
56.9116
 20
-71.6054
 11
57.4377
 21
-71.5136
  0
LINE
  8
0
 10
57.4377
 20
-71.5136
 11
57.9607
 21
-71.4053
  0
LINE
  8
0
 10
57.9607
 20
-71.4053
 11
58.48
 21
-71.2807
  0
LINE
  8
0
 10
58.48
 20
-71.2807
 11
58.9951
 21
-71.1397
  0
LINE
  8
0
 10
58.9951
 20
-71.1397
 11
59.5055
 21
-70.9827
  0
LINE
  8
0
 10
59.5055
 20
-70.9827
 11
60.0108
 21
-70.8097
  0
LINE
  8
0
 10
60.0108
 20
-70.8097
 11
60.5103
 21
-70.6209
  0
LINE
  8
0
 10
60.5103
 20
-70.6209
 11
61.0038
 21
-70.4166
  0
LINE
  8
0
 10
61.0038
 20
-70.4166
 11
61.4905
 21
-70.1968
  0
LINE
  8
0
 10
61.4905
 20
-70.1968
 11
61.9701
 21
-69.9619
  0
LINE
  8
0
 10
61.9701
 20
-69.9619
 11
62.442
 21
-69.7119
  0
LINE
  8
0
 10
62.442
 20
-69.7119
 11
62.9059
 21
-69.4474
  0
LINE
  8
0
 10
62.9059
 20
-69.4474
 11
63.3613
 21
-69.1683
  0
LINE
  8
0
 10
63.3613
 20
-69.1683
 11
63.8076
 21
-68.8751
  0
LINE
  8
0
 10
63.8076
 20
-68.8751
 11
64.2446
 21
-68.568
  0
LINE
  8
0
 10
64.2446
 20
-68.568
 11
64.6717
 21
-68.2474
  0
LINE
  8
0
 10
64.6717
 20
-68.2474
 11
65.0884
 21
-67.9135
  0
LINE
  8
0
 10
65.0884
 20
-67.9135
 11
65.4945
 21
-67.5666
  0
LINE
  8
0
 10
65.4945
 20
-67.5666
 11
65.8895
 21
-67.2072
  0
LINE
  8
0
 10
65.8895
 20
-67.2072
 11
66.2731
 21
-66.8356
  0
LINE
  8
0
 10
66.2731
 20
-66.8356
 11
66.6447
 21
-66.452
  0
LINE
  8
0
 10
66.6447
 20
-66.452
 11
67.0041
 21
-66.057
  0
LINE
  8
0
 10
67.0041
 20
-66.057
 11
67.351
 21
-65.6509
  0
LINE
  8
0
 10
67.351
 20
-65.6509
 11
67.6849
 21
-65.2342
  0
LINE
  8
0
 10
67.6849
 20
-65.2342
 11
68.0055
 21
-64.8071
  0
LINE
  8
0
 10
68.0055
 20
-64.8071
 11
68.3126
 21
-64.3701
  0
LINE
  8
0
 10
68.3126
 20
-64.3701
 11
68.6058
 21
-63.9238
  0
LINE
  8
0
 10
68.6058
 20
-63.9238
 11
68.8849
 21
-63.4684
  0
LINE
  8
0
 10
68.8849
 20
-63.4684
 11
69.1494
 21
-63.0045
  0
LINE
  8
0
 10
69.1494
 20
-63.0045
 11
69.3994
 21
-62.5326
  0
LINE
  8
0
 10
69.3994
 20
-62.5326
 11
69.6343
 21
-62.053
  0
LINE
  8
0
 10
69.6343
 20
-62.053
 11
69.8541
 21
-61.5663
  0
LINE
  8
0
 10
69.8541
 20
-61.5663
 11
70.0584
 21
-61.0728
  0
LINE
  8
0
 10
70.0584
 20
-61.0728
 11
70.2472
 21
-60.5733
  0
LINE
  8
0
 10
70.2472
 20
-60.5733
 11
70.4202
 21
-60.068
  0
LINE
  8
0
 10
70.4202
 20
-60.068
 11
70.5772
 21
-59.5576
  0
LINE
  8
0
 10
70.5772
 20
-59.5576
 11
70.7182
 21
-59.0425
  0
LINE
  8
0
 10
70.7182
 20
-59.0425
 11
70.8428
 21
-58.5232
  0
LINE
  8
0
 10
70.8428
 20
-58.5232
 11
70.9511
 21
-58.0002
  0
LINE
  8
0
 10
70.9511
 20
-58.0002
 11
71.0429
 21
-57.4741
  0
LINE
  8
0
 10
71.0429
 20
-57.4741
 11
71.1182
 21
-56.9454
  0
LINE
  8
0
 10
71.1182
 20
-56.9454
 11
71.1768
 21
-56.4146
  0
LINE
  8
0
 10
71.1768
 20
-56.4146
 11
71.2187
 21
-55.8822
  0
LINE
  8
0
 10
71.2187
 20
-55.8822
 11
71.2439
 21
-55.3487
  0
LINE
  8
0
 10
71.2439
 20
-55.3487
 11
71.2522
 21
-54.8147
  0
LINE
  8
0
 10
71.2522
 20
-54.8147
 11
71.2522
 21
-4.81474
  0
LINE
  8
0
 10
71.2522
 20
-4.81474
 11
71.2567
 21
-4.72064
  0
LINE
  8
0
 10
71.2567
 20
-4.72064
 11
71.2699
 21
-4.62737
  0
LINE
  8
0
 10
71.2699
 20
-4.62737
 11
71.2919
 21
-4.53577
  0
LINE
  8
0
 10
71.2919
 20
-4.53577
 11
71.3225
 21
-4.44662
  0
LINE
  8
0
 10
71.3225
 20
-4.44662
 11
71.3612
 21
-4.36076
  0
LINE
  8
0
 10
71.3612
 20
-4.36076
 11
71.4079
 21
-4.27893
  0
LINE
  8
0
 10
71.4079
 20
-4.27893
 11
71.4621
 21
-4.20184
  0
LINE
  8
0
 10
71.4621
 20
-4.20184
 11
71.5233
 21
-4.1302
  0
LINE
  8
0
 10
71.5233
 20
-4.1302
 11
71.5909
 21
-4.06464
  0
LINE
  8
0
 10
71.5909
 20
-4.06464
 11
71.6644
 21
-4.00574
  0
LINE
  8
0
 10
71.6644
 20
-4.00574
 11
71.686
 21
-3.99159
  0
LINE
  8
0
 10
71.686
 20
-3.99159
 11
71.686
 21
-2.86661
  0
LINE
  8
0
 10
71.686
 20
-2.86661
 11
68.7389
 21
-2.86661
  0
LINE
  8
0
 10
68.7389
 20
-2.86661
 11
68.7388
 21
13.8333
  0
LINE
  8
0
 10
68.7388
 20
13.8333
 11
71.686
 21
13.8334
  0
LINE
  8
0
 10
71.686
 20
13.8334
 11
71.686
 21
27.6665
  0
LINE
  8
0
 10
71.686
 20
27.6665
 11
68.7389
 21
27.6665
  0
LINE
  8
0
 10
17.8746
 20
24.0079
 11
17.7818
 21
24.0241
  0
LINE
  8
0
 10
17.7818
 20
24.0241
 11
17.691
 21
24.049
  0
LINE
  8
0
 10
17.691
 20
24.049
 11
17.6028
 21
24.0823
  0
LINE
  8
0
 10
17.6028
 20
24.0823
 11
17.5182
 21
24.1237
  0
LINE
  8
0
 10
17.5182
 20
24.1237
 11
17.4379
 21
24.1729
  0
LINE
  8
0
 10
17.4379
 20
24.1729
 11
17.3625
 21
24.2295
  0
LINE
  8
0
 10
17.3625
 20
24.2295
 11
17.2929
 21
24.2929
  0
LINE
  8
0
 10
17.2929
 20
24.2929
 11
17.2295
 21
24.3626
  0
LINE
  8
0
 10
17.2295
 20
24.3626
 11
17.1729
 21
24.4379
  0
LINE
  8
0
 10
17.1729
 20
24.4379
 11
17.1237
 21
24.5182
  0
LINE
  8
0
 10
17.1237
 20
24.5182
 11
17.0822
 21
24.6029
  0
LINE
  8
0
 10
17.0822
 20
24.6029
 11
17.0489
 21
24.691
  0
LINE
  8
0
 10
17.0489
 20
24.691
 11
17.0241
 21
24.7819
  0
LINE
  8
0
 10
17.0241
 20
24.7819
 11
17.0079
 21
24.8747
  0
LINE
  8
0
 10
17.0079
 20
24.8747
 11
17.0005
 21
24.9686
  0
LINE
  8
0
 10
17.0005
 20
24.9686
 11
17
 21
75
  0
LINE
  8
0
 10
17
 20
75
 11
16.9916
 21
75.534
  0
LINE
  8
0
 10
16.9916
 20
75.534
 11
16.9664
 21
76.0674
  0
LINE
  8
0
 10
16.9664
 20
76.0674
 11
16.9245
 21
76.5998
  0
LINE
  8
0
 10
16.9245
 20
76.5998
 11
16.8659
 21
77.1307
  0
LINE
  8
0
 10
16.8659
 20
77.1307
 11
16.7907
 21
77.6594
  0
LINE
  8
0
 10
16.7907
 20
77.6594
 11
16.6989
 21
78.1855
  0
LINE
  8
0
 10
16.6989
 20
78.1855
 11
16.5906
 21
78.7084
  0
LINE
  8
0
 10
16.5906
 20
78.7084
 11
16.4659
 21
79.2277
  0
LINE
  8
0
 10
16.4659
 20
79.2277
 11
16.325
 21
79.7428
  0
LINE
  8
0
 10
16.325
 20
79.7428
 11
16.168
 21
80.2533
  0
LINE
  8
0
 10
16.168
 20
80.2533
 11
15.995
 21
80.7585
  0
LINE
  8
0
 10
15.995
 20
80.7585
 11
15.8062
 21
81.2581
  0
LINE
  8
0
 10
15.8062
 20
81.2581
 11
15.6018
 21
81.7515
  0
LINE
  8
0
 10
15.6018
 20
81.7515
 11
15.382
 21
82.2382
  0
LINE
  8
0
 10
15.382
 20
82.2382
 11
15.1471
 21
82.7178
  0
LINE
  8
0
 10
15.1471
 20
82.7178
 11
14.8972
 21
83.1898
  0
LINE
  8
0
 10
14.8972
 20
83.1898
 11
14.6326
 21
83.6537
  0
LINE
  8
0
 10
14.6326
 20
83.6537
 11
14.3536
 21
84.1091
  0
LINE
  8
0
 10
14.3536
 20
84.1091
 11
14.0604
 21
84.5554
  0
LINE
  8
0
 10
14.0604
 20
84.5554
 11
13.7533
 21
84.9923
  0
LINE
  8
0
 10
13.7533
 20
84.9923
 11
13.4326
 21
85.4194
  0
LINE
  8
0
 10
13.4326
 20
85.4194
 11
13.0987
 21
85.8362
  0
LINE
  8
0
 10
13.0987
 20
85.8362
 11
12.7519
 21
86.2423
  0
LINE
  8
0
 10
12.7519
 20
86.2423
 11
12.3925
 21
86.6373
  0
LINE
  8
0
 10
12.3925
 20
86.6373
 11
12.0208
 21
87.0208
  0
LINE
  8
0
 10
12.0208
 20
87.0208
 11
11.6373
 21
87.3925
  0
LINE
  8
0
 10
11.6373
 20
87.3925
 11
11.2423
 21
87.7519
  0
LINE
  8
0
 10
11.2423
 20
87.7519
 11
10.8362
 21
88.0987
  0
LINE
  8
0
 10
10.8362
 20
88.0987
 11
10.4194
 21
88.4326
  0
LINE
  8
0
 10
10.4194
 20
88.4326
 11
9.99234
 21
88.7533
  0
LINE
  8
0
 10
9.99234
 20
88.7533
 11
9.5554
 21
89.0604
  0
LINE
  8
0
 10
9.5554
 20
89.0604
 11
9.10905
 21
89.3536
  0
LINE
  8
0
 10
9.10905
 20
89.3536
 11
8.6537
 21
89.6326
  0
LINE
  8
0
 10
8.6537
 20
89.6326
 11
8.1898
 21
89.8972
  0
LINE
  8
0
 10
8.1898
 20
89.8972
 11
7.71783
 21
90.1471
  0
LINE
  8
0
 10
7.71783
 20
90.1471
 11
7.23824
 21
90.382
  0
LINE
  8
0
 10
7.23824
 20
90.382
 11
6.75151
 21
90.6018
  0
LINE
  8
0
 10
6.75151
 20
90.6018
 11
6.2581
 21
90.8062
  0
LINE
  8
0
 10
6.2581
 20
90.8062
 11
5.75853
 21
90.995
  0
LINE
  8
0
 10
5.75853
 20
90.995
 11
5.25328
 21
91.168
  0
LINE
  8
0
 10
5.25328
 20
91.168
 11
4.74284
 21
91.325
  0
LINE
  8
0
 10
4.74284
 20
91.325
 11
4.22772
 21
91.4659
  0
LINE
  8
0
 10
4.22772
 20
91.4659
 11
3.70844
 21
91.5906
  0
LINE
  8
0
 10
3.70844
 20
91.5906
 11
3.18547
 21
91.6989
  0
LINE
  8
0
 10
3.18547
 20
91.6989
 11
2.65938
 21
91.7907
  0
LINE
  8
0
 10
2.65938
 20
91.7907
 11
2.13066
 21
91.8659
  0
LINE
  8
0
 10
2.13066
 20
91.8659
 11
1.59984
 21
91.9245
  0
LINE
  8
0
 10
1.59984
 20
91.9245
 11
1.06743
 21
91.9664
  0
LINE
  8
0
 10
1.06743
 20
91.9664
 11
0.533981
 21
91.9916
  0
LINE
  8
0
 10
0.533981
 20
91.9916
 11
0
 21
92
  0
LINE
  8
0
 10
0
 20
92
 11
-0.533966
 21
91.9916
  0
LINE
  8
0
 10
-0.533966
 20
91.9916
 11
-1.06741
 21
91.9664
  0
LINE
  8
0
 10
-1.06741
 20
91.9664
 11
-1.59982
 21
91.9245
  0
LINE
  8
0
 10
-1.59982
 20
91.9245
 11
-2.13065
 21
91.8659
  0
LINE
  8
0
 10
-2.13065
 20
91.8659
 11
-2.65936
 21
91.7907
  0
LINE
  8
0
 10
-2.65936
 20
91.7907
 11
-3.18546
 21
91.6989
  0
LINE
  8
0
 10
-3.18546
 20
91.6989
 11
-3.70842
 21
91.5906
  0
LINE
  8
0
 10
-3.70842
 20
91.5906
 11
-4.22771
 21
91.4659
  0
LINE
  8
0
 10
-4.22771
 20
91.4659
 11
-4.74283
 21
91.325
  0
LINE
  8
0
 10
-4.74283
 20
91.325
 11
-5.25327
 21
91.168
  0
LINE
  8
0
 10
-5.25327
 20
91.168
 11
-5.75851
 21
90.995
  0
LINE
  8
0
 10
-5.75851
 20
90.995
 11
-6.25809
 21
90.8062
  0
LINE
  8
0
 10
-6.25809
 20
90.8062
 11
-6.7515
 21
90.6018
  0
LINE
  8
0
 10
-6.7515
 20
90.6018
 11
-7.23822
 21
90.382
  0
LINE
  8
0
 10
-7.23822
 20
90.382
 11
-7.71782
 21
90.1471
  0
LINE
  8
0
 10
-7.71782
 20
90.1471
 11
-8.18979
 21
89.8972
  0
LINE
  8
0
 10
-8.18979
 20
89.8972
 11
-8.65369
 21
89.6326
  0
LINE
  8
0
 10
-8.65369
 20
89.6326
 11
-9.10904
 21
89.3536
  0
LINE
  8
0
 10
-9.10904
 20
89.3536
 11
-9.55539
 21
89.0604
  0
LINE
  8
0
 10
-9.55539
 20
89.0604
 11
-9.99232
 21
88.7533
  0
LINE
  8
0
 10
-9.99232
 20
88.7533
 11
-10.4194
 21
88.4326
  0
LINE
  8
0
 10
-10.4194
 20
88.4326
 11
-10.8362
 21
88.0987
  0
LINE
  8
0
 10
-10.8362
 20
88.0987
 11
-11.2423
 21
87.7519
  0
LINE
  8
0
 10
-11.2423
 20
87.7519
 11
-11.6373
 21
87.3925
  0
LINE
  8
0
 10
-11.6373
 20
87.3925
 11
-12.0208
 21
87.0208
  0
LINE
  8
0
 10
-12.0208
 20
87.0208
 11
-12.3924
 21
86.6373
  0
LINE
  8
0
 10
-12.3924
 20
86.6373
 11
-12.7519
 21
86.2423
  0
LINE
  8
0
 10
-12.7519
 20
86.2423
 11
-13.0987
 21
85.8362
  0
LINE
  8
0
 10
-13.0987
 20
85.8362
 11
-13.4326
 21
85.4194
  0
LINE
  8
0
 10
-13.4326
 20
85.4194
 11
-13.7533
 21
84.9923
  0
LINE
  8
0
 10
-13.7533
 20
84.9923
 11
-14.0603
 21
84.5554
  0
LINE
  8
0
 10
-14.0603
 20
84.5554
 11
-14.3535
 21
84.1091
  0
LINE
  8
0
 10
-14.3535
 20
84.1091
 11
-14.6326
 21
83.6537
  0
LINE
  8
0
 10
-14.6326
 20
83.6537
 11
-14.8972
 21
83.1898
  0
LINE
  8
0
 10
-14.8972
 20
83.1898
 11
-15.1471
 21
82.7178
  0
LINE
  8
0
 10
-15.1471
 20
82.7178
 11
-15.382
 21
82.2382
  0
LINE
  8
0
 10
-15.382
 20
82.2382
 11
-15.6018
 21
81.7515
  0
LINE
  8
0
 10
-15.6018
 20
81.7515
 11
-15.8062
 21
81.2581
  0
LINE
  8
0
 10
-15.8062
 20
81.2581
 11
-15.995
 21
80.7585
  0
LINE
  8
0
 10
-15.995
 20
80.7585
 11
-16.168
 21
80.2533
  0
LINE
  8
0
 10
-16.168
 20
80.2533
 11
-16.325
 21
79.7428
  0
LINE
  8
0
 10
-16.325
 20
79.7428
 11
-16.4659
 21
79.2277
  0
LINE
  8
0
 10
-16.4659
 20
79.2277
 11
-16.5906
 21
78.7084
  0
LINE
  8
0
 10
-16.5906
 20
78.7084
 11
-16.6989
 21
78.1855
  0
LINE
  8
0
 10
-16.6989
 20
78.1855
 11
-16.7907
 21
77.6594
  0
LINE
  8
0
 10
-16.7907
 20
77.6594
 11
-16.8659
 21
77.1307
  0
LINE
  8
0
 10
-16.8659
 20
77.1307
 11
-16.9245
 21
76.5998
  0
LINE
  8
0
 10
-16.9245
 20
76.5998
 11
-16.9664
 21
76.0674
  0
LINE
  8
0
 10
-16.9664
 20
76.0674
 11
-16.9916
 21
75.534
  0
LINE
  8
0
 10
-16.9916
 20
75.534
 11
-17
 21
75
  0
LINE
  8
0
 10
-17
 20
75
 11
-17
 21
25
  0
LINE
  8
0
 10
-17
 20
25
 11
-17.0044
 21
24.9059
  0
LINE
  8
0
 10
-17.0044
 20
24.9059
 11
-17.0177
 21
24.8126
  0
LINE
  8
0
 10
-17.0177
 20
24.8126
 11
-17.0397
 21
24.721
  0
LINE
  8
0
 10
-17.0397
 20
24.721
 11
-17.0702
 21
24.6319
  0
LINE
  8
0
 10
-17.0702
 20
24.6319
 11
-17.109
 21
24.546
  0
LINE
  8
0
 10
-17.109
 20
24.546
 11
-17.1557
 21
24.4642
  0
LINE
  8
0
 10
-17.1557
 20
24.4642
 11
-17.2098
 21
24.3871
  0
LINE
  8
0
 10
-17.2098
 20
24.3871
 11
-17.271
 21
24.3155
  0
LINE
  8
0
 10
-17.271
 20
24.3155
 11
-17.3387
 21
24.2499
  0
LINE
  8
0
 10
-17.3387
 20
24.2499
 11
-17.4122
 21
24.191
  0
LINE
  8
0
 10
-17.4122
 20
24.191
 11
-17.491
 21
24.1393
  0
LINE
  8
0
 10
-17.491
 20
24.1393
 11
-17.5742
 21
24.0952
  0
LINE
  8
0
 10
-17.5742
 20
24.0952
 11
-17.6613
 21
24.0591
  0
LINE
  8
0
 10
-17.6613
 20
24.0591
 11
-17.7513
 21
24.0314
  0
LINE
  8
0
 10
-17.7513
 20
24.0314
 11
-17.8436
 21
24.0123
  0
LINE
  8
0
 10
-17.8436
 20
24.0123
 11
-17.9372
 21
24.002
  0
LINE
  8
0
 10
-17.9372
 20
24.002
 11
-18.0314
 21
24.0005
  0
LINE
  8
0
 10
-18.0314
 20
24.0005
 11
-18.1253
 21
24.0079
  0
LINE
  8
0
 10
-18.1253
 20
24.0079
 11
-18.2181
 21
24.0241
  0
LINE
  8
0
 10
-18.2181
 20
24.0241
 11
-18.309
 21
24.049
  0
LINE
  8
0
 10
-18.309
 20
24.049
 11
-18.3971
 21
24.0823
  0
LINE
  8
0
 10
-18.3971
 20
24.0823
 11
-18.4818
 21
24.1237
  0
LINE
  8
0
 10
-18.4818
 20
24.1237
 11
-18.5621
 21
24.1729
  0
LINE
  8
0
 10
-18.5621
 20
24.1729
 11
-18.6374
 21
24.2295
  0
LINE
  8
0
 10
-18.6374
 20
24.2295
 11
-18.7071
 21
24.2929
  0
LINE
  8
0
 10
-18.7071
 20
24.2929
 11
-18.7705
 21
24.3626
  0
LINE
  8
0
 10
-18.7705
 20
24.3626
 11
-18.8271
 21
24.4379
  0
LINE
  8
0
 10
-18.8271
 20
24.4379
 11
-18.8763
 21
24.5182
  0
LINE
  8
0
 10
-18.8763
 20
24.5182
 11
-18.9177
 21
24.6029
  0
LINE
  8
0
 10
-18.9177
 20
24.6029
 11
-18.951
 21
24.691
  0
LINE
  8
0
 10
-18.951
 20
24.691
 11
-18.9759
 21
24.7819
  0
LINE
  8
0
 10
-18.9759
 20
24.7819
 11
-18.9921
 21
24.8747
  0
LINE
  8
0
 10
-18.9921
 20
24.8747
 11
-18.9995
 21
24.9686
  0
LINE
  8
0
 10
-18.9995
 20
24.9686
 11
-19
 21
75
  0
LINE
  8
0
 10
-19
 20
75
 11
-18.9906
 21
75.5968
  0
LINE
  8
0
 10
-18.9906
 20
75.5968
 11
-18.9625
 21
76.193
  0
LINE
  8
0
 10
-18.9625
 20
76.193
 11
-18.9157
 21
76.7881
  0
LINE
  8
0
 10
-18.9157
 20
76.7881
 11
-18.8502
 21
77.3813
  0
LINE
  8
0
 10
-18.8502
 20
77.3813
 11
-18.7661
 21
77.9722
  0
LINE
  8
0
 10
-18.7661
 20
77.9722
 11
-18.6635
 21
78.5602
  0
LINE
  8
0
 10
-18.6635
 20
78.5602
 11
-18.5424
 21
79.1447
  0
LINE
  8
0
 10
-18.5424
 20
79.1447
 11
-18.4031
 21
79.7251
  0
LINE
  8
0
 10
-18.4031
 20
79.7251
 11
-18.2456
 21
80.3008
  0
LINE
  8
0
 10
-18.2456
 20
80.3008
 11
-18.0701
 21
80.8713
  0
LINE
  8
0
 10
-18.0701
 20
80.8713
 11
-17.8767
 21
81.436
  0
LINE
  8
0
 10
-17.8767
 20
81.436
 11
-17.6657
 21
81.9944
  0
LINE
  8
0
 10
-17.6657
 20
81.9944
 11
-17.4373
 21
82.5458
  0
LINE
  8
0
 10
-17.4373
 20
82.5458
 11
-17.1917
 21
83.0898
  0
LINE
  8
0
 10
-17.1917
 20
83.0898
 11
-16.9291
 21
83.6258
  0
LINE
  8
0
 10
-16.9291
 20
83.6258
 11
-16.6498
 21
84.1533
  0
LINE
  8
0
 10
-16.6498
 20
84.1533
 11
-16.3541
 21
84.6718
  0
LINE
  8
0
 10
-16.3541
 20
84.6718
 11
-16.0422
 21
85.1807
  0
LINE
  8
0
 10
-16.0422
 20
85.1807
 11
-15.7145
 21
85.6796
  0
LINE
  8
0
 10
-15.7145
 20
85.6796
 11
-15.3713
 21
86.1679
  0
LINE
  8
0
 10
-15.3713
 20
86.1679
 11
-15.0129
 21
86.6452
  0
LINE
  8
0
 10
-15.0129
 20
86.6452
 11
-14.6397
 21
87.1111
  0
LINE
  8
0
 10
-14.6397
 20
87.1111
 11
-14.2521
 21
87.5649
  0
LINE
  8
0
 10
-14.2521
 20
87.5649
 11
-13.8504
 21
88.0064
  0
LINE
  8
0
 10
-13.8504
 20
88.0064
 11
-13.435
 21
88.435
  0
LINE
  8
0
 10
-13.435
 20
88.435
 11
-13.0064
 21
88.8504
  0
LINE
  8
0
 10
-13.0064
 20
88.8504
 11
-12.5649
 21
89.2521
  0
LINE
  8
0
 10
-12.5649
 20
89.2521
 11
-12.111
 21
89.6397
  0
LINE
  8
0
 10
-12.111
 20
89.6397
 11
-11.6452
 21
90.0129
  0
LINE
  8
0
 10
-11.6452
 20
90.0129
 11
-11.1679
 21
90.3713
  0
LINE
  8
0
 10
-11.1679
 20
90.3713
 11
-10.6796
 21
90.7145
  0
LINE
  8
0
 10
-10.6796
 20
90.7145
 11
-10.1807
 21
91.0422
  0
LINE
  8
0
 10
-10.1807
 20
91.0422
 11
-9.67177
 21
91.3541
  0
LINE
  8
0
 10
-9.67177
 20
91.3541
 11
-9.15329
 21
91.6498
  0
LINE
  8
0
 10
-9.15329
 20
91.6498
 11
-8.62579
 21
91.9291
  0
LINE
  8
0
 10
-8.62579
 20
91.9291
 11
-8.08978
 21
92.1917
  0
LINE
  8
0
 10
-8.08978
 20
92.1917
 11
-7.54579
 21
92.4373
  0
LINE
  8
0
 10
-7.54579
 20
92.4373
 11
-6.99434
 21
92.6657
  0
LINE
  8
0
 10
-6.99434
 20
92.6657
 11
-6.436
 21
92.8767
  0
LINE
  8
0
 10
-6.436
 20
92.8767
 11
-5.87131
 21
93.0701
  0
LINE
  8
0
 10
-5.87131
 20
93.0701
 11
-5.30081
 21
93.2456
  0
LINE
  8
0
 10
-5.30081
 20
93.2456
 11
-4.72508
 21
93.4031
  0
LINE
  8
0
 10
-4.72508
 20
93.4031
 11
-4.1447
 21
93.5424
  0
LINE
  8
0
 10
-4.1447
 20
93.5424
 11
-3.56023
 21
93.6635
  0
LINE
  8
0
 10
-3.56023
 20
93.6635
 11
-2.97223
 21
93.7661
  0
LINE
  8
0
 10
-2.97223
 20
93.7661
 11
-2.3813
 21
93.8502
  0
LINE
  8
0
 10
-2.3813
 20
93.8502
 11
-1.78804
 21
93.9157
  0
LINE
  8
0
 10
-1.78804
 20
93.9157
 11
-1.19299
 21
93.9625
  0
LINE
  8
0
 10
-1.19299
 20
93.9625
 11
-0.596786
 21
93.9906
  0
LINE
  8
0
 10
-0.596786
 20
93.9906
 11
0
 21
94
  0
LINE
  8
0
 10
0
 20
94
 11
0.596802
 21
93.9906
  0
LINE
  8
0
 10
0.596802
 20
93.9906
 11
1.19301
 21
93.9625
  0
LINE
  8
0
 10
1.19301
 20
93.9625
 11
1.78806
 21
93.9157
  0
LINE
  8
0
 10
1.78806
 20
93.9157
 11
2.38132
 21
93.8502
  0
LINE
  8
0
 10
2.38132
 20
93.8502
 11
2.97224
 21
93.7661
  0
LINE
  8
0
 10
2.97224
 20
93.7661
 11
3.56024
 21
93.6635
  0
LINE
  8
0
 10
3.56024
 20
93.6635
 11
4.14471
 21
93.5424
  0
LINE
  8
0
 10
4.14471
 20
93.5424
 11
4.7251
 21
93.4031
  0
LINE
  8
0
 10
4.7251
 20
93.4031
 11
5.30083
 21
93.2456
  0
LINE
  8
0
 10
5.30083
 20
93.2456
 11
5.87132
 21
93.0701
  0
LINE
  8
0
 10
5.87132
 20
93.0701
 11
6.43602
 21
92.8767
  0
LINE
  8
0
 10
6.43602
 20
92.8767
 11
6.99435
 21
92.6657
  0
LINE
  8
0
 10
6.99435
 20
92.6657
 11
7.54581
 21
92.4373
  0
LINE
  8
0
 10
7.54581
 20
92.4373
 11
8.0898
 21
92.1917
  0
LINE
  8
0
 10
8.0898
 20
92.1917
 11
8.62581
 21
91.9291
  0
LINE
  8
0
 10
8.62581
 20
91.9291
 11
9.15331
 21
91.6498
  0
LINE
  8
0
 10
9.15331
 20
91.6498
 11
9.67178
 21
91.3541
  0
LINE
  8
0
 10
9.67178
 20
91.3541
 11
10.1807
 21
91.0422
  0
LINE
  8
0
 10
10.1807
 20
91.0422
 11
10.6796
 21
90.7145
  0
LINE
  8
0
 10
10.6796
 20
90.7145
 11
11.1679
 21
90.3713
  0
LINE
  8
0
 10
11.1679
 20
90.3713
 11
11.6452
 21
90.0129
  0
LINE
  8
0
 10
11.6452
 20
90.0129
 11
12.1111
 21
89.6397
  0
LINE
  8
0
 10
12.1111
 20
89.6397
 11
12.5649
 21
89.2521
  0
LINE
  8
0
 10
12.5649
 20
89.2521
 11
13.0064
 21
88.8504
  0
LINE
  8
0
 10
13.0064
 20
88.8504
 11
13.435
 21
88.435
  0
LINE
  8
0
 10
13.435
 20
88.435
 11
13.8504
 21
88.0064
  0
LINE
  8
0
 10
13.8504
 20
88.0064
 11
14.2521
 21
87.5649
  0
LINE
  8
0
 10
14.2521
 20
87.5649
 11
14.6397
 21
87.1111
  0
LINE
  8
0
 10
14.6397
 20
87.1111
 11
15.0129
 21
86.6452
  0
LINE
  8
0
 10
15.0129
 20
86.6452
 11
15.3713
 21
86.1679
  0
LINE
  8
0
 10
15.3713
 20
86.1679
 11
15.7145
 21
85.6796
  0
LINE
  8
0
 10
15.7145
 20
85.6796
 11
16.0422
 21
85.1807
  0
LINE
  8
0
 10
16.0422
 20
85.1807
 11
16.3541
 21
84.6718
  0
LINE
  8
0
 10
16.3541
 20
84.6718
 11
16.6498
 21
84.1533
  0
LINE
  8
0
 10
16.6498
 20
84.1533
 11
16.9291
 21
83.6258
  0
LINE
  8
0
 10
16.9291
 20
83.6258
 11
17.1917
 21
83.0898
  0
LINE
  8
0
 10
17.1917
 20
83.0898
 11
17.4373
 21
82.5458
  0
LINE
  8
0
 10
17.4373
 20
82.5458
 11
17.6657
 21
81.9944
  0
LINE
  8
0
 10
17.6657
 20
81.9944
 11
17.8767
 21
81.436
  0
LINE
  8
0
 10
17.8767
 20
81.436
 11
18.0701
 21
80.8713
  0
LINE
  8
0
 10
18.0701
 20
80.8713
 11
18.2456
 21
80.3008
  0
LINE
  8
0
 10
18.2456
 20
80.3008
 11
18.4031
 21
79.7251
  0
LINE
  8
0
 10
18.4031
 20
79.7251
 11
18.5424
 21
79.1447
  0
LINE
  8
0
 10
18.5424
 20
79.1447
 11
18.6635
 21
78.5602
  0
LINE
  8
0
 10
18.6635
 20
78.5602
 11
18.7661
 21
77.9722
  0
LINE
  8
0
 10
18.7661
 20
77.9722
 11
18.8502
 21
77.3813
  0
LINE
  8
0
 10
18.8502
 20
77.3813
 11
18.9157
 21
76.7881
  0
LINE
  8
0
 10
18.9157
 20
76.7881
 11
18.9625
 21
76.193
  0
LINE
  8
0
 10
18.9625
 20
76.193
 11
18.9906
 21
75.5968
  0
LINE
  8
0
 10
18.9906
 20
75.5968
 11
19
 21
75
  0
LINE
  8
0
 10
19
 20
75
 11
19
 21
25
  0
LINE
  8
0
 10
19
 20
25
 11
18.9955
 21
24.9059
  0
LINE
  8
0
 10
18.9955
 20
24.9059
 11
18.9823
 21
24.8126
  0
LINE
  8
0
 10
18.9823
 20
24.8126
 11
18.9603
 21
24.721
  0
LINE
  8
0
 10
18.9603
 20
24.721
 11
18.9297
 21
24.6319
  0
LINE
  8
0
 10
18.9297
 20
24.6319
 11
18.891
 21
24.546
  0
LINE
  8
0
 10
18.891
 20
24.546
 11
18.8443
 21
24.4642
  0
LINE
  8
0
 10
18.8443
 20
24.4642
 11
18.7901
 21
24.3871
  0
LINE
  8
0
 10
18.7901
 20
24.3871
 11
18.7289
 21
24.3155
  0
LINE
  8
0
 10
18.7289
 20
24.3155
 11
18.6613
 21
24.2499
  0
LINE
  8
0
 10
18.6613
 20
24.2499
 11
18.5878
 21
24.191
  0
LINE
  8
0
 10
18.5878
 20
24.191
 11
18.509
 21
24.1393
  0
LINE
  8
0
 10
18.509
 20
24.1393
 11
18.4258
 21
24.0952
  0
LINE
  8
0
 10
18.4258
 20
24.0952
 11
18.3387
 21
24.0591
  0
LINE
  8
0
 10
18.3387
 20
24.0591
 11
18.2487
 21
24.0314
  0
LINE
  8
0
 10
18.2487
 20
24.0314
 11
18.1564
 21
24.0123
  0
LINE
  8
0
 10
18.1564
 20
24.0123
 11
18.0628
 21
24.002
  0
LINE
  8
0
 10
18.0628
 20
24.002
 11
17.9686
 21
24.0005
  0
LINE
  8
0
 10
17.9686
 20
24.0005
 11
17.8746
 21
24.0079
  0
LINE
  8
0
 10
-0.234634
 20
80.5185
 11
-0.463501
 21
80.5734
  0
LINE
  8
0
 10
-0.463501
 20
80.5734
 11
-0.680969
 21
80.6635
  0
LINE
  8
0
 10
-0.680969
 20
80.6635
 11
-0.881653
 21
80.7865
  0
LINE
  8
0
 10
-0.881653
 20
80.7865
 11
-1.06064
 21
80.9393
  0
LINE
  8
0
 10
-1.06064
 20
80.9393
 11
-1.2135
 21
81.1183
  0
LINE
  8
0
 10
-1.2135
 20
81.1183
 11
-1.33649
 21
81.319
  0
LINE
  8
0
 10
-1.33649
 20
81.319
 11
-1.42656
 21
81.5365
  0
LINE
  8
0
 10
-1.42656
 20
81.5365
 11
-1.48151
 21
81.7653
  0
LINE
  8
0
 10
-1.48151
 20
81.7653
 11
-1.49997
 21
82
  0
LINE
  8
0
 10
-1.49997
 20
82
 11
-1.48151
 21
82.2346
  0
LINE
  8
0
 10
-1.48151
 20
82.2346
 11
-1.42656
 21
82.4635
  0
LINE
  8
0
 10
-1.42656
 20
82.4635
 11
-1.33649
 21
82.681
  0
LINE
  8
0
 10
-1.33649
 20
82.681
 11
-1.2135
 21
82.8817
  0
LINE
  8
0
 10
-1.2135
 20
82.8817
 11
-1.06064
 21
83.0607
  0
LINE
  8
0
 10
-1.06064
 20
83.0607
 11
-0.881653
 21
83.2135
  0
LINE
  8
0
 10
-0.881653
 20
83.2135
 11
-0.680969
 21
83.3365
  0
LINE
  8
0
 10
-0.680969
 20
83.3365
 11
-0.463501
 21
83.4266
  0
LINE
  8
0
 10
-0.463501
 20
83.4266
 11
-0.234634
 21
83.4815
  0
LINE
  8
0
 10
-0.234634
 20
83.4815
 11
0
 21
83.5
  0
LINE
  8
0
 10
0
 20
83.5
 11
0.23465
 21
83.4815
  0
LINE
  8
0
 10
0.23465
 20
83.4815
 11
0.463516
 21
83.4266
  0
LINE
  8
0
 10
0.463516
 20
83.4266
 11
0.680984
 21
83.3365
  0
LINE
  8
0
 10
0.680984
 20
83.3365
 11
0.881668
 21
83.2135
  0
LINE
  8
0
 10
0.881668
 20
83.2135
 11
1.06065
 21
83.0607
  0
LINE
  8
0
 10
1.06065
 20
83.0607
 11
1.21352
 21
82.8817
  0
LINE
  8
0
 10
1.21352
 20
82.8817
 11
1.3365
 21
82.681
  0
LINE
  8
0
 10
1.3365
 20
82.681
 11
1.42657
 21
82.4635
  0
LINE
  8
0
 10
1.42657
 20
82.4635
 11
1.48152
 21
82.2346
  0
LINE
  8
0
 10
1.48152
 20
82.2346
 11
1.5
 21
82
  0
LINE
  8
0
 10
1.5
 20
82
 11
1.48152
 21
81.7653
  0
LINE
  8
0
 10
1.48152
 20
81.7653
 11
1.42657
 21
81.5365
  0
LINE
  8
0
 10
1.42657
 20
81.5365
 11
1.3365
 21
81.319
  0
LINE
  8
0
 10
1.3365
 20
81.319
 11
1.21352
 21
81.1183
  0
LINE
  8
0
 10
1.21352
 20
81.1183
 11
1.06065
 21
80.9393
  0
LINE
  8
0
 10
1.06065
 20
80.9393
 11
0.881668
 21
80.7865
  0
LINE
  8
0
 10
0.881668
 20
80.7865
 11
0.680984
 21
80.6635
  0
LINE
  8
0
 10
0.680984
 20
80.6635
 11
0.463516
 21
80.5734
  0
LINE
  8
0
 10
0.463516
 20
80.5734
 11
0.23465
 21
80.5185
  0
LINE
  8
0
 10
0.23465
 20
80.5185
 11
0
 21
80.5
  0
LINE
  8
0
 10
0
 20
80.5
 11
-0.234634
 21
80.5185
  0
LINE
  8
0
 10
5.75029
 20
70.0328
 11
5.5246
 21
70.0996
  0
LINE
  8
0
 10
5.5246
 20
70.0996
 11
5.31215
 21
70.201
  0
LINE
  8
0
 10
5.31215
 20
70.201
 11
5.11818
 21
70.3343
  0
LINE
  8
0
 10
5.11818
 20
70.3343
 11
4.94743
 21
70.4963
  0
LINE
  8
0
 10
4.94743
 20
70.4963
 11
4.80415
 21
70.683
  0
LINE
  8
0
 10
4.80415
 20
70.683
 11
4.69183
 21
70.8899
  0
LINE
  8
0
 10
4.69183
 20
70.8899
 11
4.61327
 21
71.1118
  0
LINE
  8
0
 10
4.61327
 20
71.1118
 11
4.57037
 21
71.3432
  0
LINE
  8
0
 10
4.57037
 20
71.3432
 11
4.56422
 21
71.5785
  0
LINE
  8
0
 10
4.56422
 20
71.5785
 11
4.59496
 21
71.8119
  0
LINE
  8
0
 10
4.59496
 20
71.8119
 11
4.6618
 21
72.0376
  0
LINE
  8
0
 10
4.6618
 20
72.0376
 11
4.76314
 21
72.25
  0
LINE
  8
0
 10
4.76314
 20
72.25
 11
4.89645
 21
72.444
  0
LINE
  8
0
 10
4.89645
 20
72.444
 11
5.05847
 21
72.6147
  0
LINE
  8
0
 10
5.05847
 20
72.6147
 11
5.24521
 21
72.758
  0
LINE
  8
0
 10
5.24521
 20
72.758
 11
5.45207
 21
72.8703
  0
LINE
  8
0
 10
5.45207
 20
72.8703
 11
5.67393
 21
72.9489
  0
LINE
  8
0
 10
5.67393
 20
72.9489
 11
5.90538
 21
72.9918
  0
LINE
  8
0
 10
5.90538
 20
72.9918
 11
6.14067
 21
72.998
  0
LINE
  8
0
 10
6.14067
 20
72.998
 11
6.37404
 21
72.9672
  0
LINE
  8
0
 10
6.37404
 20
72.9672
 11
6.59972
 21
72.9004
  0
LINE
  8
0
 10
6.59972
 20
72.9004
 11
6.81216
 21
72.799
  0
LINE
  8
0
 10
6.81216
 20
72.799
 11
7.00615
 21
72.6657
  0
LINE
  8
0
 10
7.00615
 20
72.6657
 11
7.17688
 21
72.5037
  0
LINE
  8
0
 10
7.17688
 20
72.5037
 11
7.32018
 21
72.317
  0
LINE
  8
0
 10
7.32018
 20
72.317
 11
7.4325
 21
72.1101
  0
LINE
  8
0
 10
7.4325
 20
72.1101
 11
7.51106
 21
71.8882
  0
LINE
  8
0
 10
7.51106
 20
71.8882
 11
7.55396
 21
71.6568
  0
LINE
  8
0
 10
7.55396
 20
71.6568
 11
7.56012
 21
71.4215
  0
LINE
  8
0
 10
7.56012
 20
71.4215
 11
7.52937
 21
71.1881
  0
LINE
  8
0
 10
7.52937
 20
71.1881
 11
7.46252
 21
70.9624
  0
LINE
  8
0
 10
7.46252
 20
70.9624
 11
7.36119
 21
70.75
  0
LINE
  8
0
 10
7.36119
 20
70.75
 11
7.22787
 21
70.556
  0
LINE
  8
0
 10
7.22787
 20
70.556
 11
7.06586
 21
70.3853
  0
LINE
  8
0
 10
7.06586
 20
70.3853
 11
6.87912
 21
70.242
  0
LINE
  8
0
 10
6.87912
 20
70.242
 11
6.67226
 21
70.1297
  0
LINE
  8
0
 10
6.67226
 20
70.1297
 11
6.45038
 21
70.0511
  0
LINE
  8
0
 10
6.45038
 20
70.0511
 11
6.21895
 21
70.0082
  0
LINE
  8
0
 10
6.21895
 20
70.0082
 11
5.98366
 21
70.0021
  0
LINE
  8
0
 10
5.98366
 20
70.0021
 11
5.75029
 21
70.0328
  0
LINE
  8
0
 10
-6.21896
 20
70.0082
 11
-6.45039
 21
70.0511
  0
LINE
  8
0
 10
-6.45039
 20
70.0511
 11
-6.67227
 21
70.1297
  0
LINE
  8
0
 10
-6.67227
 20
70.1297
 11
-6.87914
 21
70.242
  0
LINE
  8
0
 10
-6.87914
 20
70.242
 11
-7.06587
 21
70.3853
  0
LINE
  8
0
 10
-7.06587
 20
70.3853
 11
-7.22789
 21
70.556
  0
LINE
  8
0
 10
-7.22789
 20
70.556
 11
-7.36121
 21
70.75
  0
LINE
  8
0
 10
-7.36121
 20
70.75
 11
-7.46254
 21
70.9624
  0
LINE
  8
0
 10
-7.46254
 20
70.9624
 11
-7.52939
 21
71.1881
  0
LINE
  8
0
 10
-7.52939
 20
71.1881
 11
-7.56012
 21
71.4215
  0
LINE
  8
0
 10
-7.56012
 20
71.4215
 11
-7.55396
 21
71.6568
  0
LINE
  8
0
 10
-7.55396
 20
71.6568
 11
-7.51106
 21
71.8882
  0
LINE
  8
0
 10
-7.51106
 20
71.8882
 11
-7.4325
 21
72.1101
  0
LINE
  8
0
 10
-7.4325
 20
72.1101
 11
-7.32018
 21
72.317
  0
LINE
  8
0
 10
-7.32018
 20
72.317
 11
-7.17688
 21
72.5037
  0
LINE
  8
0
 10
-7.17688
 20
72.5037
 11
-7.00615
 21
72.6657
  0
LINE
  8
0
 10
-7.00615
 20
72.6657
 11
-6.81216
 21
72.799
  0
LINE
  8
0
 10
-6.81216
 20
72.799
 11
-6.59972
 21
72.9004
  0
LINE
  8
0
 10
-6.59972
 20
72.9004
 11
-6.37404
 21
72.9672
  0
LINE
  8
0
 10
-6.37404
 20
72.9672
 11
-6.14067
 21
72.998
  0
LINE
  8
0
 10
-6.14067
 20
72.998
 11
-5.90538
 21
72.9918
  0
LINE
  8
0
 10
-5.90538
 20
72.9918
 11
-5.67393
 21
72.9489
  0
LINE
  8
0
 10
-5.67393
 20
72.9489
 11
-5.45207
 21
72.8703
  0
LINE
  8
0
 10
-5.45207
 20
72.8703
 11
-5.24521
 21
72.758
  0
LINE
  8
0
 10
-5.24521
 20
72.758
 11
-5.05847
 21
72.6147
  0
LINE
  8
0
 10
-5.05847
 20
72.6147
 11
-4.89645
 21
72.444
  0
LINE
  8
0
 10
-4.89645
 20
72.444
 11
-4.76314
 21
72.25
  0
LINE
  8
0
 10
-4.76314
 20
72.25
 11
-4.6618
 21
72.0376
  0
LINE
  8
0
 10
-4.6618
 20
72.0376
 11
-4.59496
 21
71.8119
  0
LINE
  8
0
 10
-4.59496
 20
71.8119
 11
-4.56422
 21
71.5785
  0
LINE
  8
0
 10
-4.56422
 20
71.5785
 11
-4.57039
 21
71.3432
  0
LINE
  8
0
 10
-4.57039
 20
71.3432
 11
-4.61328
 21
71.1118
  0
LINE
  8
0
 10
-4.61328
 20
71.1118
 11
-4.69185
 21
70.8899
  0
LINE
  8
0
 10
-4.69185
 20
70.8899
 11
-4.80417
 21
70.683
  0
LINE
  8
0
 10
-4.80417
 20
70.683
 11
-4.94745
 21
70.4963
  0
LINE
  8
0
 10
-4.94745
 20
70.4963
 11
-5.11819
 21
70.3343
  0
LINE
  8
0
 10
-5.11819
 20
70.3343
 11
-5.31216
 21
70.201
  0
LINE
  8
0
 10
-5.31216
 20
70.201
 11
-5.52461
 21
70.0996
  0
LINE
  8
0
 10
-5.52461
 20
70.0996
 11
-5.75031
 21
70.0328
  0
LINE
  8
0
 10
-5.75031
 20
70.0328
 11
-5.98367
 21
70.0021
  0
LINE
  8
0
 10
-5.98367
 20
70.0021
 11
-6.21896
 21
70.0082
  0
LINE
  8
0
 10
-43.6285
 20
40.5531
 11
-43.7064
 21
40.5623
  0
LINE
  8
0
 10
-43.7064
 20
40.5623
 11
-43.7834
 21
40.5776
  0
LINE
  8
0
 10
-43.7834
 20
40.5776
 11
-43.859
 21
40.599
  0
LINE
  8
0
 10
-43.859
 20
40.599
 11
-43.9327
 21
40.6261
  0
LINE
  8
0
 10
-43.9327
 20
40.6261
 11
-44.004
 21
40.659
  0
LINE
  8
0
 10
-44.004
 20
40.659
 11
-44.0725
 21
40.6974
  0
LINE
  8
0
 10
-44.0725
 20
40.6974
 11
-44.1378
 21
40.741
  0
LINE
  8
0
 10
-44.1378
 20
40.741
 11
-44.1995
 21
40.7896
  0
LINE
  8
0
 10
-44.1995
 20
40.7896
 11
-44.2571
 21
40.8429
  0
LINE
  8
0
 10
-44.2571
 20
40.8429
 11
-44.3104
 21
40.9006
  0
LINE
  8
0
 10
-44.3104
 20
40.9006
 11
-44.359
 21
40.9622
  0
LINE
  8
0
 10
-44.359
 20
40.9622
 11
-44.4026
 21
41.0275
  0
LINE
  8
0
 10
-44.4026
 20
41.0275
 11
-44.441
 21
41.096
  0
LINE
  8
0
 10
-44.441
 20
41.096
 11
-44.4739
 21
41.1673
  0
LINE
  8
0
 10
-44.4739
 20
41.1673
 11
-44.5011
 21
41.241
  0
LINE
  8
0
 10
-44.5011
 20
41.241
 11
-44.5224
 21
41.3166
  0
LINE
  8
0
 10
-44.5224
 20
41.3166
 11
-44.5377
 21
41.3936
  0
LINE
  8
0
 10
-44.5377
 20
41.3936
 11
-44.5469
 21
41.4715
  0
LINE
  8
0
 10
-44.5469
 20
41.4715
 11
-44.55
 21
41.55
  0
LINE
  8
0
 10
-44.55
 20
41.55
 11
-60.636
 21
41.55
  0
LINE
  8
0
 10
-60.636
 20
41.55
 11
-60.6391
 21
41.4715
  0
LINE
  8
0
 10
-60.6391
 20
41.4715
 11
-60.6483
 21
41.3936
  0
LINE
  8
0
 10
-60.6483
 20
41.3936
 11
-60.6636
 21
41.3166
  0
LINE
  8
0
 10
-60.6636
 20
41.3166
 11
-60.6849
 21
41.241
  0
LINE
  8
0
 10
-60.6849
 20
41.241
 11
-60.7121
 21
41.1673
  0
LINE
  8
0
 10
-60.7121
 20
41.1673
 11
-60.745
 21
41.096
  0
LINE
  8
0
 10
-60.745
 20
41.096
 11
-60.7834
 21
41.0275
  0
LINE
  8
0
 10
-60.7834
 20
41.0275
 11
-60.827
 21
40.9622
  0
LINE
  8
0
 10
-60.827
 20
40.9622
 11
-60.8756
 21
40.9006
  0
LINE
  8
0
 10
-60.8756
 20
40.9006
 11
-60.9289
 21
40.8429
  0
LINE
  8
0
 10
-60.9289
 20
40.8429
 11
-60.9865
 21
40.7896
  0
LINE
  8
0
 10
-60.9865
 20
40.7896
 11
-61.0482
 21
40.741
  0
LINE
  8
0
 10
-61.0482
 20
40.741
 11
-61.1135
 21
40.6974
  0
LINE
  8
0
 10
-61.1135
 20
40.6974
 11
-61.182
 21
40.659
  0
LINE
  8
0
 10
-61.182
 20
40.659
 11
-61.2533
 21
40.6261
  0
LINE
  8
0
 10
-61.2533
 20
40.6261
 11
-61.327
 21
40.599
  0
LINE
  8
0
 10
-61.327
 20
40.599
 11
-61.4026
 21
40.5776
  0
LINE
  8
0
 10
-61.4026
 20
40.5776
 11
-61.4796
 21
40.5623
  0
LINE
  8
0
 10
-61.4796
 20
40.5623
 11
-61.5575
 21
40.5531
  0
LINE
  8
0
 10
-61.5575
 20
40.5531
 11
-61.636
 21
40.55
  0
LINE
  8
0
 10
-61.636
 20
40.55
 11
-61.7145
 21
40.5531
  0
LINE
  8
0
 10
-61.7145
 20
40.5531
 11
-61.7924
 21
40.5623
  0
LINE
  8
0
 10
-61.7924
 20
40.5623
 11
-61.8694
 21
40.5776
  0
LINE
  8
0
 10
-61.8694
 20
40.5776
 11
-61.945
 21
40.599
  0
LINE
  8
0
 10
-61.945
 20
40.599
 11
-62.0187
 21
40.6261
  0
LINE
  8
0
 10
-62.0187
 20
40.6261
 11
-62.09
 21
40.659
  0
LINE
  8
0
 10
-62.09
 20
40.659
 11
-62.1585
 21
40.6974
  0
LINE
  8
0
 10
-62.1585
 20
40.6974
 11
-62.2238
 21
40.741
  0
LINE
  8
0
 10
-62.2238
 20
40.741
 11
-62.2854
 21
40.7896
  0
LINE
  8
0
 10
-62.2854
 20
40.7896
 11
-62.3431
 21
40.8429
  0
LINE
  8
0
 10
-62.3431
 20
40.8429
 11
-62.3964
 21
40.9006
  0
LINE
  8
0
 10
-62.3964
 20
40.9006
 11
-62.445
 21
40.9622
  0
LINE
  8
0
 10
-62.445
 20
40.9622
 11
-62.4886
 21
41.0275
  0
LINE
  8
0
 10
-62.4886
 20
41.0275
 11
-62.527
 21
41.096
  0
LINE
  8
0
 10
-62.527
 20
41.096
 11
-62.5599
 21
41.1673
  0
LINE
  8
0
 10
-62.5599
 20
41.1673
 11
-62.5871
 21
41.241
  0
LINE
  8
0
 10
-62.5871
 20
41.241
 11
-62.6084
 21
41.3166
  0
LINE
  8
0
 10
-62.6084
 20
41.3166
 11
-62.6237
 21
41.3936
  0
LINE
  8
0
 10
-62.6237
 20
41.3936
 11
-62.6329
 21
41.4715
  0
LINE
  8
0
 10
-62.6329
 20
41.4715
 11
-62.636
 21
41.55
  0
LINE
  8
0
 10
-62.636
 20
41.55
 11
-62.636
 21
44.75
  0
LINE
  8
0
 10
-62.636
 20
44.75
 11
-62.6329
 21
44.8284
  0
LINE
  8
0
 10
-62.6329
 20
44.8284
 11
-62.6237
 21
44.9064
  0
LINE
  8
0
 10
-62.6237
 20
44.9064
 11
-62.6084
 21
44.9834
  0
LINE
  8
0
 10
-62.6084
 20
44.9834
 11
-62.5871
 21
45.059
  0
LINE
  8
0
 10
-62.5871
 20
45.059
 11
-62.5599
 21
45.1327
  0
LINE
  8
0
 10
-62.5599
 20
45.1327
 11
-62.527
 21
45.204
  0
LINE
  8
0
 10
-62.527
 20
45.204
 11
-62.4886
 21
45.2725
  0
LINE
  8
0
 10
-62.4886
 20
45.2725
 11
-62.445
 21
45.3378
  0
LINE
  8
0
 10
-62.445
 20
45.3378
 11
-62.3964
 21
45.3994
  0
LINE
  8
0
 10
-62.3964
 20
45.3994
 11
-62.3431
 21
45.4571
  0
LINE
  8
0
 10
-62.3431
 20
45.4571
 11
-62.2854
 21
45.5104
  0
LINE
  8
0
 10
-62.2854
 20
45.5104
 11
-62.2238
 21
45.559
  0
LINE
  8
0
 10
-62.2238
 20
45.559
 11
-62.1585
 21
45.6026
  0
LINE
  8
0
 10
-62.1585
 20
45.6026
 11
-62.09
 21
45.641
  0
LINE
  8
0
 10
-62.09
 20
45.641
 11
-62.0187
 21
45.6739
  0
LINE
  8
0
 10
-62.0187
 20
45.6739
 11
-61.945
 21
45.701
  0
LINE
  8
0
 10
-61.945
 20
45.701
 11
-61.8694
 21
45.7224
  0
LINE
  8
0
 10
-61.8694
 20
45.7224
 11
-61.7924
 21
45.7377
  0
LINE
  8
0
 10
-61.7924
 20
45.7377
 11
-61.7145
 21
45.7469
  0
LINE
  8
0
 10
-61.7145
 20
45.7469
 11
-61.636
 21
45.75
  0
LINE
  8
0
 10
-61.636
 20
45.75
 11
-61.5575
 21
45.7469
  0
LINE
  8
0
 10
-61.5575
 20
45.7469
 11
-61.4796
 21
45.7377
  0
LINE
  8
0
 10
-61.4796
 20
45.7377
 11
-61.4026
 21
45.7224
  0
LINE
  8
0
 10
-61.4026
 20
45.7224
 11
-61.327
 21
45.701
  0
LINE
  8
0
 10
-61.327
 20
45.701
 11
-61.2533
 21
45.6739
  0
LINE
  8
0
 10
-61.2533
 20
45.6739
 11
-61.182
 21
45.641
  0
LINE
  8
0
 10
-61.182
 20
45.641
 11
-61.1135
 21
45.6026
  0
LINE
  8
0
 10
-61.1135
 20
45.6026
 11
-61.0482
 21
45.559
  0
LINE
  8
0
 10
-61.0482
 20
45.559
 11
-60.9865
 21
45.5104
  0
LINE
  8
0
 10
-60.9865
 20
45.5104
 11
-60.9289
 21
45.4571
  0
LINE
  8
0
 10
-60.9289
 20
45.4571
 11
-60.8756
 21
45.3994
  0
LINE
  8
0
 10
-60.8756
 20
45.3994
 11
-60.827
 21
45.3378
  0
LINE
  8
0
 10
-60.827
 20
45.3378
 11
-60.7834
 21
45.2725
  0
LINE
  8
0
 10
-60.7834
 20
45.2725
 11
-60.745
 21
45.204
  0
LINE
  8
0
 10
-60.745
 20
45.204
 11
-60.7121
 21
45.1327
  0
LINE
  8
0
 10
-60.7121
 20
45.1327
 11
-60.6849
 21
45.059
  0
LINE
  8
0
 10
-60.6849
 20
45.059
 11
-60.6636
 21
44.9834
  0
LINE
  8
0
 10
-60.6636
 20
44.9834
 11
-60.6483
 21
44.9064
  0
LINE
  8
0
 10
-60.6483
 20
44.9064
 11
-60.6391
 21
44.8284
  0
LINE
  8
0
 10
-60.6391
 20
44.8284
 11
-60.636
 21
44.75
  0
LINE
  8
0
 10
-60.636
 20
44.75
 11
-44.55
 21
44.75
  0
LINE
  8
0
 10
-44.55
 20
44.75
 11
-44.5469
 21
44.8284
  0
LINE
  8
0
 10
-44.5469
 20
44.8284
 11
-44.5377
 21
44.9064
  0
LINE
  8
0
 10
-44.5377
 20
44.9064
 11
-44.5224
 21
44.9834
  0
LINE
  8
0
 10
-44.5224
 20
44.9834
 11
-44.5011
 21
45.059
  0
LINE
  8
0
 10
-44.5011
 20
45.059
 11
-44.4739
 21
45.1327
  0
LINE
  8
0
 10
-44.4739
 20
45.1327
 11
-44.441
 21
45.204
  0
LINE
  8
0
 10
-44.441
 20
45.204
 11
-44.4026
 21
45.2725
  0
LINE
  8
0
 10
-44.4026
 20
45.2725
 11
-44.359
 21
45.3378
  0
LINE
  8
0
 10
-44.359
 20
45.3378
 11
-44.3104
 21
45.3994
  0
LINE
  8
0
 10
-44.3104
 20
45.3994
 11
-44.2571
 21
45.4571
  0
LINE
  8
0
 10
-44.2571
 20
45.4571
 11
-44.1995
 21
45.5104
  0
LINE
  8
0
 10
-44.1995
 20
45.5104
 11
-44.1378
 21
45.559
  0
LINE
  8
0
 10
-44.1378
 20
45.559
 11
-44.0725
 21
45.6026
  0
LINE
  8
0
 10
-44.0725
 20
45.6026
 11
-44.004
 21
45.641
  0
LINE
  8
0
 10
-44.004
 20
45.641
 11
-43.9327
 21
45.6739
  0
LINE
  8
0
 10
-43.9327
 20
45.6739
 11
-43.859
 21
45.701
  0
LINE
  8
0
 10
-43.859
 20
45.701
 11
-43.7834
 21
45.7224
  0
LINE
  8
0
 10
-43.7834
 20
45.7224
 11
-43.7064
 21
45.7377
  0
LINE
  8
0
 10
-43.7064
 20
45.7377
 11
-43.6285
 21
45.7469
  0
LINE
  8
0
 10
-43.6285
 20
45.7469
 11
-43.55
 21
45.75
  0
LINE
  8
0
 10
-43.55
 20
45.75
 11
-43.4715
 21
45.7469
  0
LINE
  8
0
 10
-43.4715
 20
45.7469
 11
-43.3936
 21
45.7377
  0
LINE
  8
0
 10
-43.3936
 20
45.7377
 11
-43.3166
 21
45.7224
  0
LINE
  8
0
 10
-43.3166
 20
45.7224
 11
-43.241
 21
45.701
  0
LINE
  8
0
 10
-43.241
 20
45.701
 11
-43.1673
 21
45.6739
  0
LINE
  8
0
 10
-43.1673
 20
45.6739
 11
-43.096
 21
45.641
  0
LINE
  8
0
 10
-43.096
 20
45.641
 11
-43.0275
 21
45.6026
  0
LINE
  8
0
 10
-43.0275
 20
45.6026
 11
-42.9622
 21
45.559
  0
LINE
  8
0
 10
-42.9622
 20
45.559
 11
-42.9006
 21
45.5104
  0
LINE
  8
0
 10
-42.9006
 20
45.5104
 11
-42.8429
 21
45.4571
  0
LINE
  8
0
 10
-42.8429
 20
45.4571
 11
-42.7896
 21
45.3994
  0
LINE
  8
0
 10
-42.7896
 20
45.3994
 11
-42.741
 21
45.3378
  0
LINE
  8
0
 10
-42.741
 20
45.3378
 11
-42.6974
 21
45.2725
  0
LINE
  8
0
 10
-42.6974
 20
45.2725
 11
-42.659
 21
45.204
  0
LINE
  8
0
 10
-42.659
 20
45.204
 11
-42.6261
 21
45.1327
  0
LINE
  8
0
 10
-42.6261
 20
45.1327
 11
-42.599
 21
45.059
  0
LINE
  8
0
 10
-42.599
 20
45.059
 11
-42.5776
 21
44.9834
  0
LINE
  8
0
 10
-42.5776
 20
44.9834
 11
-42.5623
 21
44.9064
  0
LINE
  8
0
 10
-42.5623
 20
44.9064
 11
-42.5531
 21
44.8284
  0
LINE
  8
0
 10
-42.5531
 20
44.8284
 11
-42.55
 21
44.75
  0
LINE
  8
0
 10
-42.55
 20
44.75
 11
-42.55
 21
41.55
  0
LINE
  8
0
 10
-42.55
 20
41.55
 11
-42.5531
 21
41.4715
  0
LINE
  8
0
 10
-42.5531
 20
41.4715
 11
-42.5623
 21
41.3936
  0
LINE
  8
0
 10
-42.5623
 20
41.3936
 11
-42.5776
 21
41.3166
  0
LINE
  8
0
 10
-42.5776
 20
41.3166
 11
-42.599
 21
41.241
  0
LINE
  8
0
 10
-42.599
 20
41.241
 11
-42.6261
 21
41.1673
  0
LINE
  8
0
 10
-42.6261
 20
41.1673
 11
-42.659
 21
41.096
  0
LINE
  8
0
 10
-42.659
 20
41.096
 11
-42.6974
 21
41.0275
  0
LINE
  8
0
 10
-42.6974
 20
41.0275
 11
-42.741
 21
40.9622
  0
LINE
  8
0
 10
-42.741
 20
40.9622
 11
-42.7896
 21
40.9006
  0
LINE
  8
0
 10
-42.7896
 20
40.9006
 11
-42.8429
 21
40.8429
  0
LINE
  8
0
 10
-42.8429
 20
40.8429
 11
-42.9006
 21
40.7896
  0
LINE
  8
0
 10
-42.9006
 20
40.7896
 11
-42.9622
 21
40.741
  0
LINE
  8
0
 10
-42.9622
 20
40.741
 11
-43.0275
 21
40.6974
  0
LINE
  8
0
 10
-43.0275
 20
40.6974
 11
-43.096
 21
40.659
  0
LINE
  8
0
 10
-43.096
 20
40.659
 11
-43.1673
 21
40.6261
  0
LINE
  8
0
 10
-43.1673
 20
40.6261
 11
-43.241
 21
40.599
  0
LINE
  8
0
 10
-43.241
 20
40.599
 11
-43.3166
 21
40.5776
  0
LINE
  8
0
 10
-43.3166
 20
40.5776
 11
-43.3936
 21
40.5623
  0
LINE
  8
0
 10
-43.3936
 20
40.5623
 11
-43.4715
 21
40.5531
  0
LINE
  8
0
 10
-43.4715
 20
40.5531
 11
-43.55
 21
40.55
  0
LINE
  8
0
 10
-43.55
 20
40.55
 11
-43.6285
 21
40.5531
  0
LINE
  8
0
 10
61.5575
 20
40.5531
 11
61.4796
 21
40.5623
  0
LINE
  8
0
 10
61.4796
 20
40.5623
 11
61.4025
 21
40.5776
  0
LINE
  8
0
 10
61.4025
 20
40.5776
 11
61.327
 21
40.599
  0
LINE
  8
0
 10
61.327
 20
40.599
 11
61.2533
 21
40.6261
  0
LINE
  8
0
 10
61.2533
 20
40.6261
 11
61.182
 21
40.659
  0
LINE
  8
0
 10
61.182
 20
40.659
 11
61.1135
 21
40.6974
  0
LINE
  8
0
 10
61.1135
 20
40.6974
 11
61.0482
 21
40.741
  0
LINE
  8
0
 10
61.0482
 20
40.741
 11
60.9865
 21
40.7896
  0
LINE
  8
0
 10
60.9865
 20
40.7896
 11
60.9289
 21
40.8429
  0
LINE
  8
0
 10
60.9289
 20
40.8429
 11
60.8756
 21
40.9006
  0
LINE
  8
0
 10
60.8756
 20
40.9006
 11
60.827
 21
40.9622
  0
LINE
  8
0
 10
60.827
 20
40.9622
 11
60.7833
 21
41.0275
  0
LINE
  8
0
 10
60.7833
 20
41.0275
 11
60.745
 21
41.096
  0
LINE
  8
0
 10
60.745
 20
41.096
 11
60.7121
 21
41.1673
  0
LINE
  8
0
 10
60.7121
 20
41.1673
 11
60.6849
 21
41.241
  0
LINE
  8
0
 10
60.6849
 20
41.241
 11
60.6636
 21
41.3166
  0
LINE
  8
0
 10
60.6636
 20
41.3166
 11
60.6483
 21
41.3936
  0
LINE
  8
0
 10
60.6483
 20
41.3936
 11
60.6391
 21
41.4715
  0
LINE
  8
0
 10
60.6391
 20
41.4715
 11
60.636
 21
41.55
  0
LINE
  8
0
 10
60.636
 20
41.55
 11
44.55
 21
41.55
  0
LINE
  8
0
 10
44.55
 20
41.55
 11
44.5469
 21
41.4715
  0
LINE
  8
0
 10
44.5469
 20
41.4715
 11
44.5377
 21
41.3936
  0
LINE
  8
0
 10
44.5377
 20
41.3936
 11
44.5224
 21
41.3166
  0
LINE
  8
0
 10
44.5224
 20
41.3166
 11
44.5011
 21
41.241
  0
LINE
  8
0
 10
44.5011
 20
41.241
 11
44.4739
 21
41.1673
  0
LINE
  8
0
 10
44.4739
 20
41.1673
 11
44.441
 21
41.096
  0
LINE
  8
0
 10
44.441
 20
41.096
 11
44.4026
 21
41.0275
  0
LINE
  8
0
 10
44.4026
 20
41.0275
 11
44.359
 21
40.9622
  0
LINE
  8
0
 10
44.359
 20
40.9622
 11
44.3104
 21
40.9006
  0
LINE
  8
0
 10
44.3104
 20
40.9006
 11
44.2571
 21
40.8429
  0
LINE
  8
0
 10
44.2571
 20
40.8429
 11
44.1994
 21
40.7896
  0
LINE
  8
0
 10
44.1994
 20
40.7896
 11
44.1378
 21
40.741
  0
LINE
  8
0
 10
44.1378
 20
40.741
 11
44.0725
 21
40.6974
  0
LINE
  8
0
 10
44.0725
 20
40.6974
 11
44.004
 21
40.659
  0
LINE
  8
0
 10
44.004
 20
40.659
 11
43.9327
 21
40.6261
  0
LINE
  8
0
 10
43.9327
 20
40.6261
 11
43.859
 21
40.599
  0
LINE
  8
0
 10
43.859
 20
40.599
 11
43.7834
 21
40.5776
  0
LINE
  8
0
 10
43.7834
 20
40.5776
 11
43.7064
 21
40.5623
  0
LINE
  8
0
 10
43.7064
 20
40.5623
 11
43.6284
 21
40.5531
  0
LINE
  8
0
 10
43.6284
 20
40.5531
 11
43.55
 21
40.55
  0
LINE
  8
0
 10
43.55
 20
40.55
 11
43.4715
 21
40.5531
  0
LINE
  8
0
 10
43.4715
 20
40.5531
 11
43.3936
 21
40.5623
  0
LINE
  8
0
 10
43.3936
 20
40.5623
 11
43.3165
 21
40.5776
  0
LINE
  8
0
 10
43.3165
 20
40.5776
 11
43.241
 21
40.599
  0
LINE
  8
0
 10
43.241
 20
40.599
 11
43.1673
 21
40.6261
  0
LINE
  8
0
 10
43.1673
 20
40.6261
 11
43.096
 21
40.659
  0
LINE
  8
0
 10
43.096
 20
40.659
 11
43.0275
 21
40.6974
  0
LINE
  8
0
 10
43.0275
 20
40.6974
 11
42.9622
 21
40.741
  0
LINE
  8
0
 10
42.9622
 20
40.741
 11
42.9005
 21
40.7896
  0
LINE
  8
0
 10
42.9005
 20
40.7896
 11
42.8429
 21
40.8429
  0
LINE
  8
0
 10
42.8429
 20
40.8429
 11
42.7896
 21
40.9006
  0
LINE
  8
0
 10
42.7896
 20
40.9006
 11
42.741
 21
40.9622
  0
LINE
  8
0
 10
42.741
 20
40.9622
 11
42.6974
 21
41.0275
  0
LINE
  8
0
 10
42.6974
 20
41.0275
 11
42.659
 21
41.096
  0
LINE
  8
0
 10
42.659
 20
41.096
 11
42.6261
 21
41.1673
  0
LINE
  8
0
 10
42.6261
 20
41.1673
 11
42.5989
 21
41.241
  0
LINE
  8
0
 10
42.5989
 20
41.241
 11
42.5776
 21
41.3166
  0
LINE
  8
0
 10
42.5776
 20
41.3166
 11
42.5623
 21
41.3936
  0
LINE
  8
0
 10
42.5623
 20
41.3936
 11
42.5531
 21
41.4715
  0
LINE
  8
0
 10
42.5531
 20
41.4715
 11
42.55
 21
41.55
  0
LINE
  8
0
 10
42.55
 20
41.55
 11
42.55
 21
44.75
  0
LINE
  8
0
 10
42.55
 20
44.75
 11
42.5531
 21
44.8284
  0
LINE
  8
0
 10
42.5531
 20
44.8284
 11
42.5623
 21
44.9064
  0
LINE
  8
0
 10
42.5623
 20
44.9064
 11
42.5776
 21
44.9834
  0
LINE
  8
0
 10
42.5776
 20
44.9834
 11
42.5989
 21
45.059
  0
LINE
  8
0
 10
42.5989
 20
45.059
 11
42.6261
 21
45.1327
  0
LINE
  8
0
 10
42.6261
 20
45.1327
 11
42.659
 21
45.204
  0
LINE
  8
0
 10
42.659
 20
45.204
 11
42.6974
 21
45.2725
  0
LINE
  8
0
 10
42.6974
 20
45.2725
 11
42.741
 21
45.3378
  0
LINE
  8
0
 10
42.741
 20
45.3378
 11
42.7896
 21
45.3994
  0
LINE
  8
0
 10
42.7896
 20
45.3994
 11
42.8429
 21
45.4571
  0
LINE
  8
0
 10
42.8429
 20
45.4571
 11
42.9005
 21
45.5104
  0
LINE
  8
0
 10
42.9005
 20
45.5104
 11
42.9622
 21
45.559
  0
LINE
  8
0
 10
42.9622
 20
45.559
 11
43.0275
 21
45.6026
  0
LINE
  8
0
 10
43.0275
 20
45.6026
 11
43.096
 21
45.641
  0
LINE
  8
0
 10
43.096
 20
45.641
 11
43.1673
 21
45.6739
  0
LINE
  8
0
 10
43.1673
 20
45.6739
 11
43.241
 21
45.701
  0
LINE
  8
0
 10
43.241
 20
45.701
 11
43.3165
 21
45.7224
  0
LINE
  8
0
 10
43.3165
 20
45.7224
 11
43.3936
 21
45.7377
  0
LINE
  8
0
 10
43.3936
 20
45.7377
 11
43.4715
 21
45.7469
  0
LINE
  8
0
 10
43.4715
 20
45.7469
 11
43.55
 21
45.75
  0
LINE
  8
0
 10
43.55
 20
45.75
 11
43.6284
 21
45.7469
  0
LINE
  8
0
 10
43.6284
 20
45.7469
 11
43.7064
 21
45.7377
  0
LINE
  8
0
 10
43.7064
 20
45.7377
 11
43.7834
 21
45.7224
  0
LINE
  8
0
 10
43.7834
 20
45.7224
 11
43.859
 21
45.701
  0
LINE
  8
0
 10
43.859
 20
45.701
 11
43.9327
 21
45.6739
  0
LINE
  8
0
 10
43.9327
 20
45.6739
 11
44.004
 21
45.641
  0
LINE
  8
0
 10
44.004
 20
45.641
 11
44.0725
 21
45.6026
  0
LINE
  8
0
 10
44.0725
 20
45.6026
 11
44.1378
 21
45.559
  0
LINE
  8
0
 10
44.1378
 20
45.559
 11
44.1994
 21
45.5104
  0
LINE
  8
0
 10
44.1994
 20
45.5104
 11
44.2571
 21
45.4571
  0
LINE
  8
0
 10
44.2571
 20
45.4571
 11
44.3104
 21
45.3994
  0
LINE
  8
0
 10
44.3104
 20
45.3994
 11
44.359
 21
45.3378
  0
LINE
  8
0
 10
44.359
 20
45.3378
 11
44.4026
 21
45.2725
  0
LINE
  8
0
 10
44.4026
 20
45.2725
 11
44.441
 21
45.204
  0
LINE
  8
0
 10
44.441
 20
45.204
 11
44.4739
 21
45.1327
  0
LINE
  8
0
 10
44.4739
 20
45.1327
 11
44.5011
 21
45.059
  0
LINE
  8
0
 10
44.5011
 20
45.059
 11
44.5224
 21
44.9834
  0
LINE
  8
0
 10
44.5224
 20
44.9834
 11
44.5377
 21
44.9064
  0
LINE
  8
0
 10
44.5377
 20
44.9064
 11
44.5469
 21
44.8284
  0
LINE
  8
0
 10
44.5469
 20
44.8284
 11
44.55
 21
44.75
  0
LINE
  8
0
 10
44.55
 20
44.75
 11
60.636
 21
44.75
  0
LINE
  8
0
 10
60.636
 20
44.75
 11
60.6391
 21
44.8284
  0
LINE
  8
0
 10
60.6391
 20
44.8284
 11
60.6483
 21
44.9064
  0
LINE
  8
0
 10
60.6483
 20
44.9064
 11
60.6636
 21
44.9834
  0
LINE
  8
0
 10
60.6636
 20
44.9834
 11
60.6849
 21
45.059
  0
LINE
  8
0
 10
60.6849
 20
45.059
 11
60.7121
 21
45.1327
  0
LINE
  8
0
 10
60.7121
 20
45.1327
 11
60.745
 21
45.204
  0
LINE
  8
0
 10
60.745
 20
45.204
 11
60.7833
 21
45.2725
  0
LINE
  8
0
 10
60.7833
 20
45.2725
 11
60.827
 21
45.3378
  0
LINE
  8
0
 10
60.827
 20
45.3378
 11
60.8756
 21
45.3994
  0
LINE
  8
0
 10
60.8756
 20
45.3994
 11
60.9289
 21
45.4571
  0
LINE
  8
0
 10
60.9289
 20
45.4571
 11
60.9865
 21
45.5104
  0
LINE
  8
0
 10
60.9865
 20
45.5104
 11
61.0482
 21
45.559
  0
LINE
  8
0
 10
61.0482
 20
45.559
 11
61.1135
 21
45.6026
  0
LINE
  8
0
 10
61.1135
 20
45.6026
 11
61.182
 21
45.641
  0
LINE
  8
0
 10
61.182
 20
45.641
 11
61.2533
 21
45.6739
  0
LINE
  8
0
 10
61.2533
 20
45.6739
 11
61.327
 21
45.701
  0
LINE
  8
0
 10
61.327
 20
45.701
 11
61.4025
 21
45.7224
  0
LINE
  8
0
 10
61.4025
 20
45.7224
 11
61.4796
 21
45.7377
  0
LINE
  8
0
 10
61.4796
 20
45.7377
 11
61.5575
 21
45.7469
  0
LINE
  8
0
 10
61.5575
 20
45.7469
 11
61.636
 21
45.75
  0
LINE
  8
0
 10
61.636
 20
45.75
 11
61.7144
 21
45.7469
  0
LINE
  8
0
 10
61.7144
 20
45.7469
 11
61.7924
 21
45.7377
  0
LINE
  8
0
 10
61.7924
 20
45.7377
 11
61.8694
 21
45.7224
  0
LINE
  8
0
 10
61.8694
 20
45.7224
 11
61.945
 21
45.701
  0
LINE
  8
0
 10
61.945
 20
45.701
 11
62.0187
 21
45.6739
  0
LINE
  8
0
 10
62.0187
 20
45.6739
 11
62.09
 21
45.641
  0
LINE
  8
0
 10
62.09
 20
45.641
 11
62.1585
 21
45.6026
  0
LINE
  8
0
 10
62.1585
 20
45.6026
 11
62.2238
 21
45.559
  0
LINE
  8
0
 10
62.2238
 20
45.559
 11
62.2854
 21
45.5104
  0
LINE
  8
0
 10
62.2854
 20
45.5104
 11
62.3431
 21
45.4571
  0
LINE
  8
0
 10
62.3431
 20
45.4571
 11
62.3964
 21
45.3994
  0
LINE
  8
0
 10
62.3964
 20
45.3994
 11
62.445
 21
45.3378
  0
LINE
  8
0
 10
62.445
 20
45.3378
 11
62.4886
 21
45.2725
  0
LINE
  8
0
 10
62.4886
 20
45.2725
 11
62.527
 21
45.204
  0
LINE
  8
0
 10
62.527
 20
45.204
 11
62.5599
 21
45.1327
  0
LINE
  8
0
 10
62.5599
 20
45.1327
 11
62.587
 21
45.059
  0
LINE
  8
0
 10
62.587
 20
45.059
 11
62.6084
 21
44.9834
  0
LINE
  8
0
 10
62.6084
 20
44.9834
 11
62.6237
 21
44.9064
  0
LINE
  8
0
 10
62.6237
 20
44.9064
 11
62.6329
 21
44.8284
  0
LINE
  8
0
 10
62.6329
 20
44.8284
 11
62.636
 21
44.75
  0
LINE
  8
0
 10
62.636
 20
44.75
 11
62.636
 21
41.55
  0
LINE
  8
0
 10
62.636
 20
41.55
 11
62.6329
 21
41.4715
  0
LINE
  8
0
 10
62.6329
 20
41.4715
 11
62.6237
 21
41.3936
  0
LINE
  8
0
 10
62.6237
 20
41.3936
 11
62.6084
 21
41.3166
  0
LINE
  8
0
 10
62.6084
 20
41.3166
 11
62.587
 21
41.241
  0
LINE
  8
0
 10
62.587
 20
41.241
 11
62.5599
 21
41.1673
  0
LINE
  8
0
 10
62.5599
 20
41.1673
 11
62.527
 21
41.096
  0
LINE
  8
0
 10
62.527
 20
41.096
 11
62.4886
 21
41.0275
  0
LINE
  8
0
 10
62.4886
 20
41.0275
 11
62.445
 21
40.9622
  0
LINE
  8
0
 10
62.445
 20
40.9622
 11
62.3964
 21
40.9006
  0
LINE
  8
0
 10
62.3964
 20
40.9006
 11
62.3431
 21
40.8429
  0
LINE
  8
0
 10
62.3431
 20
40.8429
 11
62.2854
 21
40.7896
  0
LINE
  8
0
 10
62.2854
 20
40.7896
 11
62.2238
 21
40.741
  0
LINE
  8
0
 10
62.2238
 20
40.741
 11
62.1585
 21
40.6974
  0
LINE
  8
0
 10
62.1585
 20
40.6974
 11
62.09
 21
40.659
  0
LINE
  8
0
 10
62.09
 20
40.659
 11
62.0187
 21
40.6261
  0
LINE
  8
0
 10
62.0187
 20
40.6261
 11
61.945
 21
40.599
  0
LINE
  8
0
 10
61.945
 20
40.599
 11
61.8694
 21
40.5776
  0
LINE
  8
0
 10
61.8694
 20
40.5776
 11
61.7924
 21
40.5623
  0
LINE
  8
0
 10
61.7924
 20
40.5623
 11
61.7144
 21
40.5531
  0
LINE
  8
0
 10
61.7144
 20
40.5531
 11
61.636
 21
40.55
  0
LINE
  8
0
 10
61.636
 20
40.55
 11
61.5575
 21
40.5531
  0
LINE
  8
0
 10
-54.9233
 20
27.6665
 11
-54.9234
 21
36.5
  0
LINE
  8
0
 10
-54.9234
 20
36.5
 11
-51.1544
 21
36.5001
  0
LINE
  8
0
 10
-51.1544
 20
36.5001
 11
-51.1544
 21
27.6665
  0
LINE
  8
0
 10
-51.1544
 20
27.6665
 11
-54.9233
 21
27.6665
  0
LINE
  8
0
 10
51.1544
 20
27.6665
 11
51.1543
 21
36.5
  0
LINE
  8
0
 10
51.1543
 20
36.5
 11
54.9233
 21
36.5001
  0
LINE
  8
0
 10
54.9233
 20
36.5001
 11
54.9233
 21
27.6665
  0
LINE
  8
0
 10
54.9233
 20
27.6665
 11
51.1544
 21
27.6665
  0
LINE
  8
0
 10
64.686
 20
30.5
 11
64.686
 21
34.5
  0
LINE
  8
0
 10
64.686
 20
34.5
 11
66.686
 21
34.5
  0
LINE
  8
0
 10
66.686
 20
34.5
 11
66.686
 21
30.5
  0
LINE
  8
0
 10
66.686
 20
30.5
 11
64.686
 21
30.5
  0
LINE
  8
0
 10
-66.686
 20
30.5
 11
-66.686
 21
34.5
  0
LINE
  8
0
 10
-66.686
 20
34.5
 11
-64.686
 21
34.5
  0
LINE
  8
0
 10
-64.686
 20
34.5
 11
-64.686
 21
30.5
  0
LINE
  8
0
 10
-64.686
 20
30.5
 11
-66.686
 21
30.5
  0
LINE
  8
0
 10
28.7653
 20
10.2185
 11
28.5365
 21
10.2734
  0
LINE
  8
0
 10
28.5365
 20
10.2734
 11
28.319
 21
10.3635
  0
LINE
  8
0
 10
28.319
 20
10.3635
 11
28.1183
 21
10.4865
  0
LINE
  8
0
 10
28.1183
 20
10.4865
 11
27.9393
 21
10.6393
  0
LINE
  8
0
 10
27.9393
 20
10.6393
 11
27.7865
 21
10.8183
  0
LINE
  8
0
 10
27.7865
 20
10.8183
 11
27.6635
 21
11.019
  0
LINE
  8
0
 10
27.6635
 20
11.019
 11
27.5734
 21
11.2365
  0
LINE
  8
0
 10
27.5734
 20
11.2365
 11
27.5185
 21
11.4653
  0
LINE
  8
0
 10
27.5185
 20
11.4653
 11
27.5
 21
11.7
  0
LINE
  8
0
 10
27.5
 20
11.7
 11
27.5
 21
29.7
  0
LINE
  8
0
 10
27.5
 20
29.7
 11
27.5185
 21
29.9346
  0
LINE
  8
0
 10
27.5185
 20
29.9346
 11
27.5734
 21
30.1635
  0
LINE
  8
0
 10
27.5734
 20
30.1635
 11
27.6635
 21
30.381
  0
LINE
  8
0
 10
27.6635
 20
30.381
 11
27.7865
 21
30.5817
  0
LINE
  8
0
 10
27.7865
 20
30.5817
 11
27.9393
 21
30.7607
  0
LINE
  8
0
 10
27.9393
 20
30.7607
 11
28.1183
 21
30.9135
  0
LINE
  8
0
 10
28.1183
 20
30.9135
 11
28.319
 21
31.0365
  0
LINE
  8
0
 10
28.319
 20
31.0365
 11
28.5365
 21
31.1266
  0
LINE
  8
0
 10
28.5365
 20
31.1266
 11
28.7653
 21
31.1815
  0
LINE
  8
0
 10
28.7653
 20
31.1815
 11
29
 21
31.2
  0
LINE
  8
0
 10
29
 20
31.2
 11
29.2346
 21
31.1815
  0
LINE
  8
0
 10
29.2346
 20
31.1815
 11
29.4635
 21
31.1266
  0
LINE
  8
0
 10
29.4635
 20
31.1266
 11
29.681
 21
31.0365
  0
LINE
  8
0
 10
29.681
 20
31.0365
 11
29.8817
 21
30.9135
  0
LINE
  8
0
 10
29.8817
 20
30.9135
 11
30.0607
 21
30.7607
  0
LINE
  8
0
 10
30.0607
 20
30.7607
 11
30.2135
 21
30.5817
  0
LINE
  8
0
 10
30.2135
 20
30.5817
 11
30.3365
 21
30.381
  0
LINE
  8
0
 10
30.3365
 20
30.381
 11
30.4266
 21
30.1635
  0
LINE
  8
0
 10
30.4266
 20
30.1635
 11
30.4815
 21
29.9346
  0
LINE
  8
0
 10
30.4815
 20
29.9346
 11
30.5
 21
29.7
  0
LINE
  8
0
 10
30.5
 20
29.7
 11
30.5
 21
11.7
  0
LINE
  8
0
 10
30.5
 20
11.7
 11
30.4815
 21
11.4653
  0
LINE
  8
0
 10
30.4815
 20
11.4653
 11
30.4266
 21
11.2365
  0
LINE
  8
0
 10
30.4266
 20
11.2365
 11
30.3365
 21
11.019
  0
LINE
  8
0
 10
30.3365
 20
11.019
 11
30.2135
 21
10.8183
  0
LINE
  8
0
 10
30.2135
 20
10.8183
 11
30.0607
 21
10.6393
  0
LINE
  8
0
 10
30.0607
 20
10.6393
 11
29.8817
 21
10.4865
  0
LINE
  8
0
 10
29.8817
 20
10.4865
 11
29.681
 21
10.3635
  0
LINE
  8
0
 10
29.681
 20
10.3635
 11
29.4635
 21
10.2734
  0
LINE
  8
0
 10
29.4635
 20
10.2734
 11
29.2346
 21
10.2185
  0
LINE
  8
0
 10
29.2346
 20
10.2185
 11
29
 21
10.2
  0
LINE
  8
0
 10
29
 20
10.2
 11
28.7653
 21
10.2185
  0
LINE
  8
0
 10
-29.2346
 20
10.2185
 11
-29.4635
 21
10.2734
  0
LINE
  8
0
 10
-29.4635
 20
10.2734
 11
-29.681
 21
10.3635
  0
LINE
  8
0
 10
-29.681
 20
10.3635
 11
-29.8817
 21
10.4865
  0
LINE
  8
0
 10
-29.8817
 20
10.4865
 11
-30.0607
 21
10.6393
  0
LINE
  8
0
 10
-30.0607
 20
10.6393
 11
-30.2135
 21
10.8183
  0
LINE
  8
0
 10
-30.2135
 20
10.8183
 11
-30.3365
 21
11.019
  0
LINE
  8
0
 10
-30.3365
 20
11.019
 11
-30.4266
 21
11.2365
  0
LINE
  8
0
 10
-30.4266
 20
11.2365
 11
-30.4815
 21
11.4653
  0
LINE
  8
0
 10
-30.4815
 20
11.4653
 11
-30.5
 21
11.7
  0
LINE
  8
0
 10
-30.5
 20
11.7
 11
-30.5
 21
29.7
  0
LINE
  8
0
 10
-30.5
 20
29.7
 11
-30.4815
 21
29.9346
  0
LINE
  8
0
 10
-30.4815
 20
29.9346
 11
-30.4266
 21
30.1635
  0
LINE
  8
0
 10
-30.4266
 20
30.1635
 11
-30.3365
 21
30.381
  0
LINE
  8
0
 10
-30.3365
 20
30.381
 11
-30.2135
 21
30.5817
  0
LINE
  8
0
 10
-30.2135
 20
30.5817
 11
-30.0607
 21
30.7607
  0
LINE
  8
0
 10
-30.0607
 20
30.7607
 11
-29.8817
 21
30.9135
  0
LINE
  8
0
 10
-29.8817
 20
30.9135
 11
-29.681
 21
31.0365
  0
LINE
  8
0
 10
-29.681
 20
31.0365
 11
-29.4635
 21
31.1266
  0
LINE
  8
0
 10
-29.4635
 20
31.1266
 11
-29.2346
 21
31.1815
  0
LINE
  8
0
 10
-29.2346
 20
31.1815
 11
-29
 21
31.2
  0
LINE
  8
0
 10
-29
 20
31.2
 11
-28.7653
 21
31.1815
  0
LINE
  8
0
 10
-28.7653
 20
31.1815
 11
-28.5365
 21
31.1266
  0
LINE
  8
0
 10
-28.5365
 20
31.1266
 11
-28.319
 21
31.0365
  0
LINE
  8
0
 10
-28.319
 20
31.0365
 11
-28.1183
 21
30.9135
  0
LINE
  8
0
 10
-28.1183
 20
30.9135
 11
-27.9393
 21
30.7607
  0
LINE
  8
0
 10
-27.9393
 20
30.7607
 11
-27.7865
 21
30.5817
  0
LINE
  8
0
 10
-27.7865
 20
30.5817
 11
-27.6635
 21
30.381
  0
LINE
  8
0
 10
-27.6635
 20
30.381
 11
-27.5734
 21
30.1635
  0
LINE
  8
0
 10
-27.5734
 20
30.1635
 11
-27.5185
 21
29.9346
  0
LINE
  8
0
 10
-27.5185
 20
29.9346
 11
-27.5
 21
29.7
  0
LINE
  8
0
 10
-27.5
 20
29.7
 11
-27.5
 21
11.7
  0
LINE
  8
0
 10
-27.5
 20
11.7
 11
-27.5185
 21
11.4653
  0
LINE
  8
0
 10
-27.5185
 20
11.4653
 11
-27.5734
 21
11.2365
  0
LINE
  8
0
 10
-27.5734
 20
11.2365
 11
-27.6635
 21
11.019
  0
LINE
  8
0
 10
-27.6635
 20
11.019
 11
-27.7865
 21
10.8183
  0
LINE
  8
0
 10
-27.7865
 20
10.8183
 11
-27.9393
 21
10.6393
  0
LINE
  8
0
 10
-27.9393
 20
10.6393
 11
-28.1183
 21
10.4865
  0
LINE
  8
0
 10
-28.1183
 20
10.4865
 11
-28.319
 21
10.3635
  0
LINE
  8
0
 10
-28.319
 20
10.3635
 11
-28.5365
 21
10.2734
  0
LINE
  8
0
 10
-28.5365
 20
10.2734
 11
-28.7653
 21
10.2185
  0
LINE
  8
0
 10
-28.7653
 20
10.2185
 11
-29
 21
10.2
  0
LINE
  8
0
 10
-29
 20
10.2
 11
-29.2346
 21
10.2185
  0
LINE
  8
0
 10
-58.686
 20
18.6667
 11
-58.686
 21
22.6667
  0
LINE
  8
0
 10
-58.686
 20
22.6667
 11
-56.686
 21
22.6667
  0
LINE
  8
0
 10
-56.686
 20
22.6667
 11
-56.686
 21
18.6667
  0
LINE
  8
0
 10
-56.686
 20
18.6667
 11
-58.686
 21
18.6667
  0
LINE
  8
0
 10
47.686
 20
18.6667
 11
47.686
 21
22.6667
  0
LINE
  8
0
 10
47.686
 20
22.6667
 11
49.686
 21
22.6667
  0
LINE
  8
0
 10
49.686
 20
22.6667
 11
49.686
 21
18.6667
  0
LINE
  8
0
 10
49.686
 20
18.6667
 11
47.686
 21
18.6667
  0
LINE
  8
0
 10
-49.686
 20
18.6667
 11
-49.686
 21
22.6667
  0
LINE
  8
0
 10
-49.686
 20
22.6667
 11
-47.686
 21
22.6667
  0
LINE
  8
0
 10
-47.686
 20
22.6667
 11
-47.686
 21
18.6667
  0
LINE
  8
0
 10
-47.686
 20
18.6667
 11
-49.686
 21
18.6667
  0
LINE
  8
0
 10
56.686
 20
18.6667
 11
56.686
 21
22.6667
  0
LINE
  8
0
 10
56.686
 20
22.6667
 11
58.686
 21
22.6667
  0
LINE
  8
0
 10
58.686
 20
22.6667
 11
58.686
 21
18.6667
  0
LINE
  8
0
 10
58.686
 20
18.6667
 11
56.686
 21
18.6667
  0
LINE
  8
0
 10
-54.9233
 20
-2.86661
 11
-54.9234
 21
13.8333
  0
LINE
  8
0
 10
-54.9234
 20
13.8333
 11
-51.1544
 21
13.8334
  0
LINE
  8
0
 10
-51.1544
 20
13.8334
 11
-51.1544
 21
-2.86661
  0
LINE
  8
0
 10
-51.1544
 20
-2.86661
 11
-54.9233
 21
-2.86661
  0
LINE
  8
0
 10
51.1544
 20
-2.86661
 11
51.1543
 21
13.8333
  0
LINE
  8
0
 10
51.1543
 20
13.8333
 11
54.9233
 21
13.8334
  0
LINE
  8
0
 10
54.9233
 20
13.8334
 11
54.9233
 21
-2.86661
  0
LINE
  8
0
 10
54.9233
 20
-2.86661
 11
51.1544
 21
-2.86661
  0
LINE
  8
0
 10
64.686
 20
0.843628
 11
64.686
 21
4.84363
  0
LINE
  8
0
 10
64.686
 20
4.84363
 11
66.686
 21
4.84363
  0
LINE
  8
0
 10
66.686
 20
4.84363
 11
66.686
 21
0.843628
  0
LINE
  8
0
 10
66.686
 20
0.843628
 11
64.686
 21
0.843628
  0
LINE
  8
0
 10
-66.686
 20
0.843628
 11
-66.686
 21
4.84363
  0
LINE
  8
0
 10
-66.686
 20
4.84363
 11
-64.686
 21
4.84363
  0
LINE
  8
0
 10
-64.686
 20
4.84363
 11
-64.686
 21
0.843628
  0
LINE
  8
0
 10
-64.686
 20
0.843628
 11
-66.686
 21
0.843628
  0
LINE
  8
0
 10
28.7653
 20
-21.7815
 11
28.5365
 21
-21.7266
  0
LINE
  8
0
 10
28.5365
 20
-21.7266
 11
28.319
 21
-21.6365
  0
LINE
  8
0
 10
28.319
 20
-21.6365
 11
28.1183
 21
-21.5135
  0
LINE
  8
0
 10
28.1183
 20
-21.5135
 11
27.9393
 21
-21.3607
  0
LINE
  8
0
 10
27.9393
 20
-21.3607
 11
27.7865
 21
-21.1817
  0
LINE
  8
0
 10
27.7865
 20
-21.1817
 11
27.6635
 21
-20.981
  0
LINE
  8
0
 10
27.6635
 20
-20.981
 11
27.5734
 21
-20.7635
  0
LINE
  8
0
 10
27.5734
 20
-20.7635
 11
27.5185
 21
-20.5346
  0
LINE
  8
0
 10
27.5185
 20
-20.5346
 11
27.5
 21
-20.3
  0
LINE
  8
0
 10
27.5
 20
-20.3
 11
27.5
 21
-2.29999
  0
LINE
  8
0
 10
27.5
 20
-2.29999
 11
27.5185
 21
-2.06534
  0
LINE
  8
0
 10
27.5185
 20
-2.06534
 11
27.5734
 21
-1.83647
  0
LINE
  8
0
 10
27.5734
 20
-1.83647
 11
27.6635
 21
-1.619
  0
LINE
  8
0
 10
27.6635
 20
-1.619
 11
27.7865
 21
-1.41832
  0
LINE
  8
0
 10
27.7865
 20
-1.41832
 11
27.9393
 21
-1.23933
  0
LINE
  8
0
 10
27.9393
 20
-1.23933
 11
28.1183
 21
-1.08647
  0
LINE
  8
0
 10
28.1183
 20
-1.08647
 11
28.319
 21
-0.963486
  0
LINE
  8
0
 10
28.319
 20
-0.963486
 11
28.5365
 21
-0.873413
  0
LINE
  8
0
 10
28.5365
 20
-0.873413
 11
28.7653
 21
-0.818466
  0
LINE
  8
0
 10
28.7653
 20
-0.818466
 11
29
 21
-0.799988
  0
LINE
  8
0
 10
29
 20
-0.799988
 11
29.2346
 21
-0.818466
  0
LINE
  8
0
 10
29.2346
 20
-0.818466
 11
29.4635
 21
-0.873413
  0
LINE
  8
0
 10
29.4635
 20
-0.873413
 11
29.681
 21
-0.963486
  0
LINE
  8
0
 10
29.681
 20
-0.963486
 11
29.8817
 21
-1.08647
  0
LINE
  8
0
 10
29.8817
 20
-1.08647
 11
30.0607
 21
-1.23933
  0
LINE
  8
0
 10
30.0607
 20
-1.23933
 11
30.2135
 21
-1.41832
  0
LINE
  8
0
 10
30.2135
 20
-1.41832
 11
30.3365
 21
-1.619
  0
LINE
  8
0
 10
30.3365
 20
-1.619
 11
30.4266
 21
-1.83647
  0
LINE
  8
0
 10
30.4266
 20
-1.83647
 11
30.4815
 21
-2.06534
  0
LINE
  8
0
 10
30.4815
 20
-2.06534
 11
30.5
 21
-2.29999
  0
LINE
  8
0
 10
30.5
 20
-2.29999
 11
30.5
 21
-20.3
  0
LINE
  8
0
 10
30.5
 20
-20.3
 11
30.4815
 21
-20.5346
  0
LINE
  8
0
 10
30.4815
 20
-20.5346
 11
30.4266
 21
-20.7635
  0
LINE
  8
0
 10
30.4266
 20
-20.7635
 11
30.3365
 21
-20.981
  0
LINE
  8
0
 10
30.3365
 20
-20.981
 11
30.2135
 21
-21.1817
  0
LINE
  8
0
 10
30.2135
 20
-21.1817
 11
30.0607
 21
-21.3607
  0
LINE
  8
0
 10
30.0607
 20
-21.3607
 11
29.8817
 21
-21.5135
  0
LINE
  8
0
 10
29.8817
 20
-21.5135
 11
29.681
 21
-21.6365
  0
LINE
  8
0
 10
29.681
 20
-21.6365
 11
29.4635
 21
-21.7266
  0
LINE
  8
0
 10
29.4635
 20
-21.7266
 11
29.2346
 21
-21.7815
  0
LINE
  8
0
 10
29.2346
 20
-21.7815
 11
29
 21
-21.8
  0
LINE
  8
0
 10
29
 20
-21.8
 11
28.7653
 21
-21.7815
  0
LINE
  8
0
 10
-29.2346
 20
-21.7815
 11
-29.4635
 21
-21.7266
  0
LINE
  8
0
 10
-29.4635
 20
-21.7266
 11
-29.681
 21
-21.6365
  0
LINE
  8
0
 10
-29.681
 20
-21.6365
 11
-29.8817
 21
-21.5135
  0
LINE
  8
0
 10
-29.8817
 20
-21.5135
 11
-30.0607
 21
-21.3607
  0
LINE
  8
0
 10
-30.0607
 20
-21.3607
 11
-30.2135
 21
-21.1817
  0
LINE
  8
0
 10
-30.2135
 20
-21.1817
 11
-30.3365
 21
-20.981
  0
LINE
  8
0
 10
-30.3365
 20
-20.981
 11
-30.4266
 21
-20.7635
  0
LINE
  8
0
 10
-30.4266
 20
-20.7635
 11
-30.4815
 21
-20.5346
  0
LINE
  8
0
 10
-30.4815
 20
-20.5346
 11
-30.5
 21
-20.3
  0
LINE
  8
0
 10
-30.5
 20
-20.3
 11
-30.5
 21
-2.29999
  0
LINE
  8
0
 10
-30.5
 20
-2.29999
 11
-30.4815
 21
-2.06534
  0
LINE
  8
0
 10
-30.4815
 20
-2.06534
 11
-30.4266
 21
-1.83647
  0
LINE
  8
0
 10
-30.4266
 20
-1.83647
 11
-30.3365
 21
-1.619
  0
LINE
  8
0
 10
-30.3365
 20
-1.619
 11
-30.2135
 21
-1.41832
  0
LINE
  8
0
 10
-30.2135
 20
-1.41832
 11
-30.0607
 21
-1.23933
  0
LINE
  8
0
 10
-30.0607
 20
-1.23933
 11
-29.8817
 21
-1.08647
  0
LINE
  8
0
 10
-29.8817
 20
-1.08647
 11
-29.681
 21
-0.963486
  0
LINE
  8
0
 10
-29.681
 20
-0.963486
 11
-29.4635
 21
-0.873413
  0
LINE
  8
0
 10
-29.4635
 20
-0.873413
 11
-29.2346
 21
-0.818466
  0
LINE
  8
0
 10
-29.2346
 20
-0.818466
 11
-29
 21
-0.799988
  0
LINE
  8
0
 10
-29
 20
-0.799988
 11
-28.7653
 21
-0.818466
  0
LINE
  8
0
 10
-28.7653
 20
-0.818466
 11
-28.5365
 21
-0.873413
  0
LINE
  8
0
 10
-28.5365
 20
-0.873413
 11
-28.319
 21
-0.963486
  0
LINE
  8
0
 10
-28.319
 20
-0.963486
 11
-28.1183
 21
-1.08647
  0
LINE
  8
0
 10
-28.1183
 20
-1.08647
 11
-27.9393
 21
-1.23933
  0
LINE
  8
0
 10
-27.9393
 20
-1.23933
 11
-27.7865
 21
-1.41832
  0
LINE
  8
0
 10
-27.7865
 20
-1.41832
 11
-27.6635
 21
-1.619
  0
LINE
  8
0
 10
-27.6635
 20
-1.619
 11
-27.5734
 21
-1.83647
  0
LINE
  8
0
 10
-27.5734
 20
-1.83647
 11
-27.5185
 21
-2.06534
  0
LINE
  8
0
 10
-27.5185
 20
-2.06534
 11
-27.5
 21
-2.29999
  0
LINE
  8
0
 10
-27.5
 20
-2.29999
 11
-27.5
 21
-20.3
  0
LINE
  8
0
 10
-27.5
 20
-20.3
 11
-27.5185
 21
-20.5346
  0
LINE
  8
0
 10
-27.5185
 20
-20.5346
 11
-27.5734
 21
-20.7635
  0
LINE
  8
0
 10
-27.5734
 20
-20.7635
 11
-27.6635
 21
-20.981
  0
LINE
  8
0
 10
-27.6635
 20
-20.981
 11
-27.7865
 21
-21.1817
  0
LINE
  8
0
 10
-27.7865
 20
-21.1817
 11
-27.9393
 21
-21.3607
  0
LINE
  8
0
 10
-27.9393
 20
-21.3607
 11
-28.1183
 21
-21.5135
  0
LINE
  8
0
 10
-28.1183
 20
-21.5135
 11
-28.319
 21
-21.6365
  0
LINE
  8
0
 10
-28.319
 20
-21.6365
 11
-28.5365
 21
-21.7266
  0
LINE
  8
0
 10
-28.5365
 20
-21.7266
 11
-28.7653
 21
-21.7815
  0
LINE
  8
0
 10
-28.7653
 20
-21.7815
 11
-29
 21
-21.8
  0
LINE
  8
0
 10
-29
 20
-21.8
 11
-29.2346
 21
-21.7815
  0
LINE
  8
0
 10
-60.6263
 20
-52.782
 11
-60.852
 21
-52.7151
  0
LINE
  8
0
 10
-60.852
 20
-52.7151
 11
-61.0644
 21
-52.6138
  0
LINE
  8
0
 10
-61.0644
 20
-52.6138
 11
-61.2584
 21
-52.4805
  0
LINE
  8
0
 10
-61.2584
 20
-52.4805
 11
-61.4291
 21
-52.3185
  0
LINE
  8
0
 10
-61.4291
 20
-52.3185
 11
-61.5724
 21
-52.1317
  0
LINE
  8
0
 10
-61.5724
 20
-52.1317
 11
-61.6847
 21
-51.9249
  0
LINE
  8
0
 10
-61.6847
 20
-51.9249
 11
-61.7633
 21
-51.703
  0
LINE
  8
0
 10
-61.7633
 20
-51.703
 11
-61.8062
 21
-51.4715
  0
LINE
  8
0
 10
-61.8062
 20
-51.4715
 11
-61.8124
 21
-51.2363
  0
LINE
  8
0
 10
-61.8124
 20
-51.2363
 11
-61.7816
 21
-51.0029
  0
LINE
  8
0
 10
-61.7816
 20
-51.0029
 11
-61.7148
 21
-50.7772
  0
LINE
  8
0
 10
-61.7148
 20
-50.7772
 11
-61.6134
 21
-50.5647
  0
LINE
  8
0
 10
-61.6134
 20
-50.5647
 11
-61.4801
 21
-50.3708
  0
LINE
  8
0
 10
-61.4801
 20
-50.3708
 11
-61.3181
 21
-50.2
  0
LINE
  8
0
 10
-61.3181
 20
-50.2
 11
-61.1314
 21
-50.0567
  0
LINE
  8
0
 10
-61.1314
 20
-50.0567
 11
-60.9245
 21
-49.9444
  0
LINE
  8
0
 10
-60.9245
 20
-49.9444
 11
-60.7026
 21
-49.8659
  0
LINE
  8
0
 10
-60.7026
 20
-49.8659
 11
-60.4712
 21
-49.823
  0
LINE
  8
0
 10
-60.4712
 20
-49.823
 11
-60.2359
 21
-49.8168
  0
LINE
  8
0
 10
-60.2359
 20
-49.8168
 11
-60.0025
 21
-49.8475
  0
LINE
  8
0
 10
-60.0025
 20
-49.8475
 11
-59.7769
 21
-49.9144
  0
LINE
  8
0
 10
-59.7769
 20
-49.9144
 11
-59.5644
 21
-50.0157
  0
LINE
  8
0
 10
-59.5644
 20
-50.0157
 11
-59.3704
 21
-50.149
  0
LINE
  8
0
 10
-59.3704
 20
-50.149
 11
-59.1997
 21
-50.3111
  0
LINE
  8
0
 10
-59.1997
 20
-50.3111
 11
-59.0564
 21
-50.4978
  0
LINE
  8
0
 10
-59.0564
 20
-50.4978
 11
-58.9441
 21
-50.7047
  0
LINE
  8
0
 10
-58.9441
 20
-50.7047
 11
-58.8655
 21
-50.9265
  0
LINE
  8
0
 10
-58.8655
 20
-50.9265
 11
-58.8226
 21
-51.158
  0
LINE
  8
0
 10
-58.8226
 20
-51.158
 11
-58.8165
 21
-51.3932
  0
LINE
  8
0
 10
-58.8165
 20
-51.3932
 11
-58.8472
 21
-51.6266
  0
LINE
  8
0
 10
-58.8472
 20
-51.6266
 11
-58.914
 21
-51.8523
  0
LINE
  8
0
 10
-58.914
 20
-51.8523
 11
-59.0154
 21
-52.0647
  0
LINE
  8
0
 10
-59.0154
 20
-52.0647
 11
-59.1487
 21
-52.2587
  0
LINE
  8
0
 10
-59.1487
 20
-52.2587
 11
-59.3107
 21
-52.4295
  0
LINE
  8
0
 10
-59.3107
 20
-52.4295
 11
-59.4975
 21
-52.5728
  0
LINE
  8
0
 10
-59.4975
 20
-52.5728
 11
-59.7043
 21
-52.6851
  0
LINE
  8
0
 10
-59.7043
 20
-52.6851
 11
-59.9262
 21
-52.7636
  0
LINE
  8
0
 10
-59.9262
 20
-52.7636
 11
-60.1576
 21
-52.8065
  0
LINE
  8
0
 10
-60.1576
 20
-52.8065
 11
-60.3929
 21
-52.8127
  0
LINE
  8
0
 10
-60.3929
 20
-52.8127
 11
-60.6263
 21
-52.782
  0
LINE
  8
0
 10
-48.3469
 20
-52.8065
 11
-48.5783
 21
-52.7636
  0
LINE
  8
0
 10
-48.5783
 20
-52.7636
 11
-48.8002
 21
-52.6851
  0
LINE
  8
0
 10
-48.8002
 20
-52.6851
 11
-49.007
 21
-52.5728
  0
LINE
  8
0
 10
-49.007
 20
-52.5728
 11
-49.1938
 21
-52.4295
  0
LINE
  8
0
 10
-49.1938
 20
-52.4295
 11
-49.3558
 21
-52.2587
  0
LINE
  8
0
 10
-49.3558
 20
-52.2587
 11
-49.4891
 21
-52.0647
  0
LINE
  8
0
 10
-49.4891
 20
-52.0647
 11
-49.5904
 21
-51.8523
  0
LINE
  8
0
 10
-49.5904
 20
-51.8523
 11
-49.6573
 21
-51.6266
  0
LINE
  8
0
 10
-49.6573
 20
-51.6266
 11
-49.688
 21
-51.3932
  0
LINE
  8
0
 10
-49.688
 20
-51.3932
 11
-49.6819
 21
-51.158
  0
LINE
  8
0
 10
-49.6819
 20
-51.158
 11
-49.639
 21
-50.9265
  0
LINE
  8
0
 10
-49.639
 20
-50.9265
 11
-49.5604
 21
-50.7047
  0
LINE
  8
0
 10
-49.5604
 20
-50.7047
 11
-49.4481
 21
-50.4978
  0
LINE
  8
0
 10
-49.4481
 20
-50.4978
 11
-49.3048
 21
-50.3111
  0
LINE
  8
0
 10
-49.3048
 20
-50.3111
 11
-49.134
 21
-50.149
  0
LINE
  8
0
 10
-49.134
 20
-50.149
 11
-48.9401
 21
-50.0157
  0
LINE
  8
0
 10
-48.9401
 20
-50.0157
 11
-48.7276
 21
-49.9144
  0
LINE
  8
0
 10
-48.7276
 20
-49.9144
 11
-48.5019
 21
-49.8475
  0
LINE
  8
0
 10
-48.5019
 20
-49.8475
 11
-48.2686
 21
-49.8168
  0
LINE
  8
0
 10
-48.2686
 20
-49.8168
 11
-48.0333
 21
-49.823
  0
LINE
  8
0
 10
-48.0333
 20
-49.823
 11
-47.8018
 21
-49.8659
  0
LINE
  8
0
 10
-47.8018
 20
-49.8659
 11
-47.58
 21
-49.9444
  0
LINE
  8
0
 10
-47.58
 20
-49.9444
 11
-47.3731
 21
-50.0567
  0
LINE
  8
0
 10
-47.3731
 20
-50.0567
 11
-47.1864
 21
-50.2
  0
LINE
  8
0
 10
-47.1864
 20
-50.2
 11
-47.0244
 21
-50.3708
  0
LINE
  8
0
 10
-47.0244
 20
-50.3708
 11
-46.891
 21
-50.5647
  0
LINE
  8
0
 10
-46.891
 20
-50.5647
 11
-46.7897
 21
-50.7772
  0
LINE
  8
0
 10
-46.7897
 20
-50.7772
 11
-46.7229
 21
-51.0029
  0
LINE
  8
0
 10
-46.7229
 20
-51.0029
 11
-46.6921
 21
-51.2363
  0
LINE
  8
0
 10
-46.6921
 20
-51.2363
 11
-46.6983
 21
-51.4715
  0
LINE
  8
0
 10
-46.6983
 20
-51.4715
 11
-46.7412
 21
-51.703
  0
LINE
  8
0
 10
-46.7412
 20
-51.703
 11
-46.8197
 21
-51.9249
  0
LINE
  8
0
 10
-46.8197
 20
-51.9249
 11
-46.9321
 21
-52.1317
  0
LINE
  8
0
 10
-46.9321
 20
-52.1317
 11
-47.0754
 21
-52.3185
  0
LINE
  8
0
 10
-47.0754
 20
-52.3185
 11
-47.2461
 21
-52.4805
  0
LINE
  8
0
 10
-47.2461
 20
-52.4805
 11
-47.4401
 21
-52.6138
  0
LINE
  8
0
 10
-47.4401
 20
-52.6138
 11
-47.6525
 21
-52.7151
  0
LINE
  8
0
 10
-47.6525
 20
-52.7151
 11
-47.8782
 21
-52.782
  0
LINE
  8
0
 10
-47.8782
 20
-52.782
 11
-48.1116
 21
-52.8127
  0
LINE
  8
0
 10
-48.1116
 20
-52.8127
 11
-48.3469
 21
-52.8065
  0
LINE
  8
0
 10
47.8782
 20
-52.782
 11
47.6525
 21
-52.7151
  0
LINE
  8
0
 10
47.6525
 20
-52.7151
 11
47.4401
 21
-52.6138
  0
LINE
  8
0
 10
47.4401
 20
-52.6138
 11
47.2461
 21
-52.4805
  0
LINE
  8
0
 10
47.2461
 20
-52.4805
 11
47.0754
 21
-52.3185
  0
LINE
  8
0
 10
47.0754
 20
-52.3185
 11
46.9321
 21
-52.1317
  0
LINE
  8
0
 10
46.9321
 20
-52.1317
 11
46.8197
 21
-51.9249
  0
LINE
  8
0
 10
46.8197
 20
-51.9249
 11
46.7412
 21
-51.703
  0
LINE
  8
0
 10
46.7412
 20
-51.703
 11
46.6983
 21
-51.4715
  0
LINE
  8
0
 10
46.6983
 20
-51.4715
 11
46.6921
 21
-51.2363
  0
LINE
  8
0
 10
46.6921
 20
-51.2363
 11
46.7229
 21
-51.0029
  0
LINE
  8
0
 10
46.7229
 20
-51.0029
 11
46.7897
 21
-50.7772
  0
LINE
  8
0
 10
46.7897
 20
-50.7772
 11
46.891
 21
-50.5647
  0
LINE
  8
0
 10
46.891
 20
-50.5647
 11
47.0244
 21
-50.3708
  0
LINE
  8
0
 10
47.0244
 20
-50.3708
 11
47.1864
 21
-50.2
  0
LINE
  8
0
 10
47.1864
 20
-50.2
 11
47.3731
 21
-50.0567
  0
LINE
  8
0
 10
47.3731
 20
-50.0567
 11
47.58
 21
-49.9444
  0
LINE
  8
0
 10
47.58
 20
-49.9444
 11
47.8018
 21
-49.8659
  0
LINE
  8
0
 10
47.8018
 20
-49.8659
 11
48.0333
 21
-49.823
  0
LINE
  8
0
 10
48.0333
 20
-49.823
 11
48.2686
 21
-49.8168
  0
LINE
  8
0
 10
48.2686
 20
-49.8168
 11
48.5019
 21
-49.8475
  0
LINE
  8
0
 10
48.5019
 20
-49.8475
 11
48.7276
 21
-49.9144
  0
LINE
  8
0
 10
48.7276
 20
-49.9144
 11
48.9401
 21
-50.0157
  0
LINE
  8
0
 10
48.9401
 20
-50.0157
 11
49.134
 21
-50.149
  0
LINE
  8
0
 10
49.134
 20
-50.149
 11
49.3048
 21
-50.3111
  0
LINE
  8
0
 10
49.3048
 20
-50.3111
 11
49.4481
 21
-50.4978
  0
LINE
  8
0
 10
49.4481
 20
-50.4978
 11
49.5604
 21
-50.7047
  0
LINE
  8
0
 10
49.5604
 20
-50.7047
 11
49.639
 21
-50.9265
  0
LINE
  8
0
 10
49.639
 20
-50.9265
 11
49.6819
 21
-51.158
  0
LINE
  8
0
 10
49.6819
 20
-51.158
 11
49.688
 21
-51.3932
  0
LINE
  8
0
 10
49.688
 20
-51.3932
 11
49.6573
 21
-51.6266
  0
LINE
  8
0
 10
49.6573
 20
-51.6266
 11
49.5904
 21
-51.8523
  0
LINE
  8
0
 10
49.5904
 20
-51.8523
 11
49.4891
 21
-52.0647
  0
LINE
  8
0
 10
49.4891
 20
-52.0647
 11
49.3558
 21
-52.2587
  0
LINE
  8
0
 10
49.3558
 20
-52.2587
 11
49.1938
 21
-52.4295
  0
LINE
  8
0
 10
49.1938
 20
-52.4295
 11
49.007
 21
-52.5728
  0
LINE
  8
0
 10
49.007
 20
-52.5728
 11
48.8002
 21
-52.6851
  0
LINE
  8
0
 10
48.8002
 20
-52.6851
 11
48.5783
 21
-52.7636
  0
LINE
  8
0
 10
48.5783
 20
-52.7636
 11
48.3469
 21
-52.8065
  0
LINE
  8
0
 10
48.3469
 20
-52.8065
 11
48.1116
 21
-52.8127
  0
LINE
  8
0
 10
48.1116
 20
-52.8127
 11
47.8782
 21
-52.782
  0
LINE
  8
0
 10
60.1576
 20
-52.8065
 11
59.9262
 21
-52.7636
  0
LINE
  8
0
 10
59.9262
 20
-52.7636
 11
59.7043
 21
-52.6851
  0
LINE
  8
0
 10
59.7043
 20
-52.6851
 11
59.4975
 21
-52.5728
  0
LINE
  8
0
 10
59.4975
 20
-52.5728
 11
59.3107
 21
-52.4295
  0
LINE
  8
0
 10
59.3107
 20
-52.4295
 11
59.1487
 21
-52.2587
  0
LINE
  8
0
 10
59.1487
 20
-52.2587
 11
59.0154
 21
-52.0647
  0
LINE
  8
0
 10
59.0154
 20
-52.0647
 11
58.914
 21
-51.8523
  0
LINE
  8
0
 10
58.914
 20
-51.8523
 11
58.8472
 21
-51.6266
  0
LINE
  8
0
 10
58.8472
 20
-51.6266
 11
58.8165
 21
-51.3932
  0
LINE
  8
0
 10
58.8165
 20
-51.3932
 11
58.8226
 21
-51.158
  0
LINE
  8
0
 10
58.8226
 20
-51.158
 11
58.8655
 21
-50.9265
  0
LINE
  8
0
 10
58.8655
 20
-50.9265
 11
58.9441
 21
-50.7047
  0
LINE
  8
0
 10
58.9441
 20
-50.7047
 11
59.0564
 21
-50.4978
  0
LINE
  8
0
 10
59.0564
 20
-50.4978
 11
59.1997
 21
-50.3111
  0
LINE
  8
0
 10
59.1997
 20
-50.3111
 11
59.3704
 21
-50.149
  0
LINE
  8
0
 10
59.3704
 20
-50.149
 11
59.5644
 21
-50.0157
  0
LINE
  8
0
 10
59.5644
 20
-50.0157
 11
59.7769
 21
-49.9144
  0
LINE
  8
0
 10
59.7769
 20
-49.9144
 11
60.0025
 21
-49.8475
  0
LINE
  8
0
 10
60.0025
 20
-49.8475
 11
60.2359
 21
-49.8168
  0
LINE
  8
0
 10
60.2359
 20
-49.8168
 11
60.4712
 21
-49.823
  0
LINE
  8
0
 10
60.4712
 20
-49.823
 11
60.7026
 21
-49.8659
  0
LINE
  8
0
 10
60.7026
 20
-49.8659
 11
60.9245
 21
-49.9444
  0
LINE
  8
0
 10
60.9245
 20
-49.9444
 11
61.1314
 21
-50.0567
  0
LINE
  8
0
 10
61.1314
 20
-50.0567
 11
61.3181
 21
-50.2
  0
LINE
  8
0
 10
61.3181
 20
-50.2
 11
61.4801
 21
-50.3708
  0
LINE
  8
0
 10
61.4801
 20
-50.3708
 11
61.6134
 21
-50.5647
  0
LINE
  8
0
 10
61.6134
 20
-50.5647
 11
61.7148
 21
-50.7772
  0
LINE
  8
0
 10
61.7148
 20
-50.7772
 11
61.7816
 21
-51.0029
  0
LINE
  8
0
 10
61.7816
 20
-51.0029
 11
61.8124
 21
-51.2363
  0
LINE
  8
0
 10
61.8124
 20
-51.2363
 11
61.8062
 21
-51.4715
  0
LINE
  8
0
 10
61.8062
 20
-51.4715
 11
61.7633
 21
-51.703
  0
LINE
  8
0
 10
61.7633
 20
-51.703
 11
61.6847
 21
-51.9249
  0
LINE
  8
0
 10
61.6847
 20
-51.9249
 11
61.5724
 21
-52.1317
  0
LINE
  8
0
 10
61.5724
 20
-52.1317
 11
61.4291
 21
-52.3185
  0
LINE
  8
0
 10
61.4291
 20
-52.3185
 11
61.2584
 21
-52.4805
  0
LINE
  8
0
 10
61.2584
 20
-52.4805
 11
61.0644
 21
-52.6138
  0
LINE
  8
0
 10
61.0644
 20
-52.6138
 11
60.852
 21
-52.7151
  0
LINE
  8
0
 10
60.852
 20
-52.7151
 11
60.6263
 21
-52.782
  0
LINE
  8
0
 10
60.6263
 20
-52.782
 11
60.3929
 21
-52.8127
  0
LINE
  8
0
 10
60.3929
 20
-52.8127
 11
60.1576
 21
-52.8065
  0
LINE
  8
0
 10
-54.4869
 20
-63.2963
 11
-54.7158
 21
-63.2413
  0
LINE
  8
0
 10
-54.7158
 20
-63.2413
 11
-54.9332
 21
-63.1512
  0
LINE
  8
0
 10
-54.9332
 20
-63.1512
 11
-55.1339
 21
-63.0283
  0
LINE
  8
0
 10
-55.1339
 20
-63.0283
 11
-55.3129
 21
-62.8754
  0
LINE
  8
0
 10
-55.3129
 20
-62.8754
 11
-55.4658
 21
-62.6964
  0
LINE
  8
0
 10
-55.4658
 20
-62.6964
 11
-55.5887
 21
-62.4957
  0
LINE
  8
0
 10
-55.5887
 20
-62.4957
 11
-55.6788
 21
-62.2783
  0
LINE
  8
0
 10
-55.6788
 20
-62.2783
 11
-55.7338
 21
-62.0494
  0
LINE
  8
0
 10
-55.7338
 20
-62.0494
 11
-55.7522
 21
-61.8147
  0
LINE
  8
0
 10
-55.7522
 20
-61.8147
 11
-55.7338
 21
-61.5801
  0
LINE
  8
0
 10
-55.7338
 20
-61.5801
 11
-55.6788
 21
-61.3512
  0
LINE
  8
0
 10
-55.6788
 20
-61.3512
 11
-55.5887
 21
-61.1337
  0
LINE
  8
0
 10
-55.5887
 20
-61.1337
 11
-55.4658
 21
-60.9331
  0
LINE
  8
0
 10
-55.4658
 20
-60.9331
 11
-55.3129
 21
-60.7541
  0
LINE
  8
0
 10
-55.3129
 20
-60.7541
 11
-55.1339
 21
-60.6012
  0
LINE
  8
0
 10
-55.1339
 20
-60.6012
 11
-54.9332
 21
-60.4782
  0
LINE
  8
0
 10
-54.9332
 20
-60.4782
 11
-54.7158
 21
-60.3882
  0
LINE
  8
0
 10
-54.7158
 20
-60.3882
 11
-54.4869
 21
-60.3332
  0
LINE
  8
0
 10
-54.4869
 20
-60.3332
 11
-54.2522
 21
-60.3147
  0
LINE
  8
0
 10
-54.2522
 20
-60.3147
 11
-54.0176
 21
-60.3332
  0
LINE
  8
0
 10
-54.0176
 20
-60.3332
 11
-53.7887
 21
-60.3882
  0
LINE
  8
0
 10
-53.7887
 20
-60.3882
 11
-53.5713
 21
-60.4782
  0
LINE
  8
0
 10
-53.5713
 20
-60.4782
 11
-53.3706
 21
-60.6012
  0
LINE
  8
0
 10
-53.3706
 20
-60.6012
 11
-53.1916
 21
-60.7541
  0
LINE
  8
0
 10
-53.1916
 20
-60.7541
 11
-53.0387
 21
-60.9331
  0
LINE
  8
0
 10
-53.0387
 20
-60.9331
 11
-52.9157
 21
-61.1337
  0
LINE
  8
0
 10
-52.9157
 20
-61.1337
 11
-52.8257
 21
-61.3512
  0
LINE
  8
0
 10
-52.8257
 20
-61.3512
 11
-52.7707
 21
-61.5801
  0
LINE
  8
0
 10
-52.7707
 20
-61.5801
 11
-52.7523
 21
-61.8147
  0
LINE
  8
0
 10
-52.7523
 20
-61.8147
 11
-52.7707
 21
-62.0494
  0
LINE
  8
0
 10
-52.7707
 20
-62.0494
 11
-52.8257
 21
-62.2783
  0
LINE
  8
0
 10
-52.8257
 20
-62.2783
 11
-52.9157
 21
-62.4957
  0
LINE
  8
0
 10
-52.9157
 20
-62.4957
 11
-53.0387
 21
-62.6964
  0
LINE
  8
0
 10
-53.0387
 20
-62.6964
 11
-53.1916
 21
-62.8754
  0
LINE
  8
0
 10
-53.1916
 20
-62.8754
 11
-53.3706
 21
-63.0283
  0
LINE
  8
0
 10
-53.3706
 20
-63.0283
 11
-53.5713
 21
-63.1512
  0
LINE
  8
0
 10
-53.5713
 20
-63.1512
 11
-53.7887
 21
-63.2413
  0
LINE
  8
0
 10
-53.7887
 20
-63.2413
 11
-54.0176
 21
-63.2963
  0
LINE
  8
0
 10
-54.0176
 20
-63.2963
 11
-54.2522
 21
-63.3147
  0
LINE
  8
0
 10
-54.2522
 20
-63.3147
 11
-54.4869
 21
-63.2963
  0
LINE
  8
0
 10
54.0176
 20
-63.2963
 11
53.7887
 21
-63.2413
  0
LINE
  8
0
 10
53.7887
 20
-63.2413
 11
53.5713
 21
-63.1512
  0
LINE
  8
0
 10
53.5713
 20
-63.1512
 11
53.3706
 21
-63.0283
  0
LINE
  8
0
 10
53.3706
 20
-63.0283
 11
53.1916
 21
-62.8754
  0
LINE
  8
0
 10
53.1916
 20
-62.8754
 11
53.0387
 21
-62.6964
  0
LINE
  8
0
 10
53.0387
 20
-62.6964
 11
52.9157
 21
-62.4957
  0
LINE
  8
0
 10
52.9157
 20
-62.4957
 11
52.8257
 21
-62.2783
  0
LINE
  8
0
 10
52.8257
 20
-62.2783
 11
52.7707
 21
-62.0494
  0
LINE
  8
0
 10
52.7707
 20
-62.0494
 11
52.7522
 21
-61.8147
  0
LINE
  8
0
 10
52.7522
 20
-61.8147
 11
52.7707
 21
-61.5801
  0
LINE
  8
0
 10
52.7707
 20
-61.5801
 11
52.8257
 21
-61.3512
  0
LINE
  8
0
 10
52.8257
 20
-61.3512
 11
52.9157
 21
-61.1337
  0
LINE
  8
0
 10
52.9157
 20
-61.1337
 11
53.0387
 21
-60.9331
  0
LINE
  8
0
 10
53.0387
 20
-60.9331
 11
53.1916
 21
-60.7541
  0
LINE
  8
0
 10
53.1916
 20
-60.7541
 11
53.3706
 21
-60.6012
  0
LINE
  8
0
 10
53.3706
 20
-60.6012
 11
53.5713
 21
-60.4782
  0
LINE
  8
0
 10
53.5713
 20
-60.4782
 11
53.7887
 21
-60.3882
  0
LINE
  8
0
 10
53.7887
 20
-60.3882
 11
54.0176
 21
-60.3332
  0
LINE
  8
0
 10
54.0176
 20
-60.3332
 11
54.2522
 21
-60.3147
  0
LINE
  8
0
 10
54.2522
 20
-60.3147
 11
54.4869
 21
-60.3332
  0
LINE
  8
0
 10
54.4869
 20
-60.3332
 11
54.7158
 21
-60.3882
  0
LINE
  8
0
 10
54.7158
 20
-60.3882
 11
54.9332
 21
-60.4782
  0
LINE
  8
0
 10
54.9332
 20
-60.4782
 11
55.1339
 21
-60.6012
  0
LINE
  8
0
 10
55.1339
 20
-60.6012
 11
55.3129
 21
-60.7541
  0
LINE
  8
0
 10
55.3129
 20
-60.7541
 11
55.4658
 21
-60.9331
  0
LINE
  8
0
 10
55.4658
 20
-60.9331
 11
55.5887
 21
-61.1337
  0
LINE
  8
0
 10
55.5887
 20
-61.1337
 11
55.6788
 21
-61.3512
  0
LINE
  8
0
 10
55.6788
 20
-61.3512
 11
55.7338
 21
-61.5801
  0
LINE
  8
0
 10
55.7338
 20
-61.5801
 11
55.7522
 21
-61.8147
  0
LINE
  8
0
 10
55.7522
 20
-61.8147
 11
55.7338
 21
-62.0494
  0
LINE
  8
0
 10
55.7338
 20
-62.0494
 11
55.6788
 21
-62.2783
  0
LINE
  8
0
 10
55.6788
 20
-62.2783
 11
55.5887
 21
-62.4957
  0
LINE
  8
0
 10
55.5887
 20
-62.4957
 11
55.4658
 21
-62.6964
  0
LINE
  8
0
 10
55.4658
 20
-62.6964
 11
55.3129
 21
-62.8754
  0
LINE
  8
0
 10
55.3129
 20
-62.8754
 11
55.1339
 21
-63.0283
  0
LINE
  8
0
 10
55.1339
 20
-63.0283
 11
54.9332
 21
-63.1512
  0
LINE
  8
0
 10
54.9332
 20
-63.1512
 11
54.7158
 21
-63.2413
  0
LINE
  8
0
 10
54.7158
 20
-63.2413
 11
54.4869
 21
-63.2963
  0
LINE
  8
0
 10
54.4869
 20
-63.2963
 11
54.2522
 21
-63.3147
  0
LINE
  8
0
 10
54.2522
 20
-63.3147
 11
54.0176
 21
-63.2963
  0
LINE
  8
0
 10
-39.7346
 20
-81.7963
 11
-39.9635
 21
-81.7413
  0
LINE
  8
0
 10
-39.9635
 20
-81.7413
 11
-40.181
 21
-81.6512
  0
LINE
  8
0
 10
-40.181
 20
-81.6512
 11
-40.3817
 21
-81.5283
  0
LINE
  8
0
 10
-40.3817
 20
-81.5283
 11
-40.5607
 21
-81.3754
  0
LINE
  8
0
 10
-40.5607
 20
-81.3754
 11
-40.7135
 21
-81.1964
  0
LINE
  8
0
 10
-40.7135
 20
-81.1964
 11
-40.8365
 21
-80.9957
  0
LINE
  8
0
 10
-40.8365
 20
-80.9957
 11
-40.9266
 21
-80.7783
  0
LINE
  8
0
 10
-40.9266
 20
-80.7783
 11
-40.9815
 21
-80.5494
  0
LINE
  8
0
 10
-40.9815
 20
-80.5494
 11
-41
 21
-80.3147
  0
LINE
  8
0
 10
-41
 20
-80.3147
 11
-40.9815
 21
-80.0801
  0
LINE
  8
0
 10
-40.9815
 20
-80.0801
 11
-40.9266
 21
-79.8512
  0
LINE
  8
0
 10
-40.9266
 20
-79.8512
 11
-40.8365
 21
-79.6338
  0
LINE
  8
0
 10
-40.8365
 20
-79.6338
 11
-40.7135
 21
-79.4331
  0
LINE
  8
0
 10
-40.7135
 20
-79.4331
 11
-40.5607
 21
-79.2541
  0
LINE
  8
0
 10
-40.5607
 20
-79.2541
 11
-40.3817
 21
-79.1012
  0
LINE
  8
0
 10
-40.3817
 20
-79.1012
 11
-40.181
 21
-78.9782
  0
LINE
  8
0
 10
-40.181
 20
-78.9782
 11
-39.9635
 21
-78.8882
  0
LINE
  8
0
 10
-39.9635
 20
-78.8882
 11
-39.7346
 21
-78.8332
  0
LINE
  8
0
 10
-39.7346
 20
-78.8332
 11
-39.5
 21
-78.8147
  0
LINE
  8
0
 10
-39.5
 20
-78.8147
 11
-39.2653
 21
-78.8332
  0
LINE
  8
0
 10
-39.2653
 20
-78.8332
 11
-39.0365
 21
-78.8882
  0
LINE
  8
0
 10
-39.0365
 20
-78.8882
 11
-38.819
 21
-78.9782
  0
LINE
  8
0
 10
-38.819
 20
-78.9782
 11
-38.6183
 21
-79.1012
  0
LINE
  8
0
 10
-38.6183
 20
-79.1012
 11
-38.4393
 21
-79.2541
  0
LINE
  8
0
 10
-38.4393
 20
-79.2541
 11
-38.2865
 21
-79.4331
  0
LINE
  8
0
 10
-38.2865
 20
-79.4331
 11
-38.1635
 21
-79.6338
  0
LINE
  8
0
 10
-38.1635
 20
-79.6338
 11
-38.0734
 21
-79.8512
  0
LINE
  8
0
 10
-38.0734
 20
-79.8512
 11
-38.0185
 21
-80.0801
  0
LINE
  8
0
 10
-38.0185
 20
-80.0801
 11
-38
 21
-80.3147
  0
LINE
  8
0
 10
-38
 20
-80.3147
 11
-38.0185
 21
-80.5494
  0
LINE
  8
0
 10
-38.0185
 20
-80.5494
 11
-38.0734
 21
-80.7783
  0
LINE
  8
0
 10
-38.0734
 20
-80.7783
 11
-38.1635
 21
-80.9957
  0
LINE
  8
0
 10
-38.1635
 20
-80.9957
 11
-38.2865
 21
-81.1964
  0
LINE
  8
0
 10
-38.2865
 20
-81.1964
 11
-38.4393
 21
-81.3754
  0
LINE
  8
0
 10
-38.4393
 20
-81.3754
 11
-38.6183
 21
-81.5283
  0
LINE
  8
0
 10
-38.6183
 20
-81.5283
 11
-38.819
 21
-81.6512
  0
LINE
  8
0
 10
-38.819
 20
-81.6512
 11
-39.0365
 21
-81.7413
  0
LINE
  8
0
 10
-39.0365
 20
-81.7413
 11
-39.2653
 21
-81.7963
  0
LINE
  8
0
 10
-39.2653
 20
-81.7963
 11
-39.5
 21
-81.8147
  0
LINE
  8
0
 10
-39.5
 20
-81.8147
 11
-39.7346
 21
-81.7963
  0
LINE
  8
0
 10
39.2653
 20
-81.7963
 11
39.0365
 21
-81.7413
  0
LINE
  8
0
 10
39.0365
 20
-81.7413
 11
38.819
 21
-81.6512
  0
LINE
  8
0
 10
38.819
 20
-81.6512
 11
38.6183
 21
-81.5283
  0
LINE
  8
0
 10
38.6183
 20
-81.5283
 11
38.4393
 21
-81.3754
  0
LINE
  8
0
 10
38.4393
 20
-81.3754
 11
38.2865
 21
-81.1964
  0
LINE
  8
0
 10
38.2865
 20
-81.1964
 11
38.1635
 21
-80.9957
  0
LINE
  8
0
 10
38.1635
 20
-80.9957
 11
38.0734
 21
-80.7783
  0
LINE
  8
0
 10
38.0734
 20
-80.7783
 11
38.0185
 21
-80.5494
  0
LINE
  8
0
 10
38.0185
 20
-80.5494
 11
38
 21
-80.3147
  0
LINE
  8
0
 10
38
 20
-80.3147
 11
38.0185
 21
-80.0801
  0
LINE
  8
0
 10
38.0185
 20
-80.0801
 11
38.0734
 21
-79.8512
  0
LINE
  8
0
 10
38.0734
 20
-79.8512
 11
38.1635
 21
-79.6338
  0
LINE
  8
0
 10
38.1635
 20
-79.6338
 11
38.2865
 21
-79.4331
  0
LINE
  8
0
 10
38.2865
 20
-79.4331
 11
38.4393
 21
-79.2541
  0
LINE
  8
0
 10
38.4393
 20
-79.2541
 11
38.6183
 21
-79.1012
  0
LINE
  8
0
 10
38.6183
 20
-79.1012
 11
38.819
 21
-78.9782
  0
LINE
  8
0
 10
38.819
 20
-78.9782
 11
39.0365
 21
-78.8882
  0
LINE
  8
0
 10
39.0365
 20
-78.8882
 11
39.2653
 21
-78.8332
  0
LINE
  8
0
 10
39.2653
 20
-78.8332
 11
39.5
 21
-78.8147
  0
LINE
  8
0
 10
39.5
 20
-78.8147
 11
39.7346
 21
-78.8332
  0
LINE
  8
0
 10
39.7346
 20
-78.8332
 11
39.9635
 21
-78.8882
  0
LINE
  8
0
 10
39.9635
 20
-78.8882
 11
40.181
 21
-78.9782
  0
LINE
  8
0
 10
40.181
 20
-78.9782
 11
40.3817
 21
-79.1012
  0
LINE
  8
0
 10
40.3817
 20
-79.1012
 11
40.5607
 21
-79.2541
  0
LINE
  8
0
 10
40.5607
 20
-79.2541
 11
40.7135
 21
-79.4331
  0
LINE
  8
0
 10
40.7135
 20
-79.4331
 11
40.8365
 21
-79.6338
  0
LINE
  8
0
 10
40.8365
 20
-79.6338
 11
40.9266
 21
-79.8512
  0
LINE
  8
0
 10
40.9266
 20
-79.8512
 11
40.9815
 21
-80.0801
  0
LINE
  8
0
 10
40.9815
 20
-80.0801
 11
41
 21
-80.3147
  0
LINE
  8
0
 10
41
 20
-80.3147
 11
40.9815
 21
-80.5494
  0
LINE
  8
0
 10
40.9815
 20
-80.5494
 11
40.9266
 21
-80.7783
  0
LINE
  8
0
 10
40.9266
 20
-80.7783
 11
40.8365
 21
-80.9957
  0
LINE
  8
0
 10
40.8365
 20
-80.9957
 11
40.7135
 21
-81.1964
  0
LINE
  8
0
 10
40.7135
 20
-81.1964
 11
40.5607
 21
-81.3754
  0
LINE
  8
0
 10
40.5607
 20
-81.3754
 11
40.3817
 21
-81.5283
  0
LINE
  8
0
 10
40.3817
 20
-81.5283
 11
40.181
 21
-81.6512
  0
LINE
  8
0
 10
40.181
 20
-81.6512
 11
39.9635
 21
-81.7413
  0
LINE
  8
0
 10
39.9635
 20
-81.7413
 11
39.7346
 21
-81.7963
  0
LINE
  8
0
 10
39.7346
 20
-81.7963
 11
39.5
 21
-81.8147
  0
LINE
  8
0
 10
39.5
 20
-81.8147
 11
39.2653
 21
-81.7963
  0
ENDSEC
  0
SECTION
  2
OBJECTS
  0
DICTIONARY
  0
ENDSEC
  0
EOF
