<?xml version="1.0" encoding="UTF-8" standalone="no"?>
<svg
   xmlns:dc="http://purl.org/dc/elements/1.1/"
   xmlns:cc="http://creativecommons.org/ns#"
   xmlns:rdf="http://www.w3.org/1999/02/22-rdf-syntax-ns#"
   xmlns:svg="http://www.w3.org/2000/svg"
   xmlns="http://www.w3.org/2000/svg"
   xmlns:sodipodi="http://sodipodi.sourceforge.net/DTD/sodipodi-0.dtd"
   xmlns:inkscape="http://www.inkscape.org/namespaces/inkscape"
   width="744.094488189"
   height="1052.36220472"
   id="svg8131"
   version="1.1"
   inkscape:version="0.91 r13725"
   sodipodi:docname="base_accessory.svg">
  <metadata
     id="metadata10469">
    <rdf:RDF>
      <cc:Work
         rdf:about="">
        <dc:format>image/svg+xml</dc:format>
        <dc:type
           rdf:resource="http://purl.org/dc/dcmitype/StillImage" />
        <dc:title></dc:title>
      </cc:Work>
    </rdf:RDF>
  </metadata>
  <sodipodi:namedview
     pagecolor="#ffffff"
     bordercolor="#666666"
     borderopacity="1"
     objecttolerance="10"
     gridtolerance="10"
     guidetolerance="10"
     inkscape:pageopacity="0"
     inkscape:pageshadow="2"
     inkscape:window-width="3734"
     inkscape:window-height="2121"
     id="namedview10467"
     showgrid="false"
     inkscape:zoom="1.2685914"
     inkscape:cx="-91.034035"
     inkscape:cy="339.46825"
     inkscape:window-x="106"
     inkscape:window-y="39"
     inkscape:window-maximized="1"
     inkscape:current-layer="g8147" />
  <desc
     id="desc8133">C:\Share\Robotics\SimpleBot\Parts\55r\base.dxf - scale = 1.000000, origin = (0.000000, 0.000000), auto = False</desc>
  <defs
     id="defs8135">
    <marker
       refY="0.0"
       refX="0.0"
       style="overflow:visible"
       id="DistanceX"
       orient="auto">
      <path
         style="stroke:#000000; stroke-width:0.5"
         d="M 3,-3 L -3,3 M 0,-5 L  0,5"
         id="path8138" />
    </marker>
    <pattern
       height="8"
       width="8"
       patternUnits="userSpaceOnUse"
       y="0"
       x="0"
       id="Hatch">
      <path
         linecap="square"
         stroke="#000000"
         stroke-width="0.25"
         d="M8 4 l-4,4"
         id="path8141" />
      <path
         linecap="square"
         stroke="#000000"
         stroke-width="0.25"
         d="M6 2 l-4,4"
         id="path8143" />
      <path
         linecap="square"
         stroke="#000000"
         stroke-width="0.25"
         d="M4 0 l-4,4"
         id="path8145" />
    </pattern>
    <marker
       style="overflow:visible"
       refY="0.0"
       refX="0.0"
       orient="auto"
       id="DistanceX-3">
      <path
         id="path3486"
         style="stroke:#000000; stroke-width:0.5"
         d="M 3,-3 L -3,3 M 0,-5 L  0,5" />
    </marker>
    <pattern
       y="0"
       x="0"
       width="8"
       patternUnits="userSpaceOnUse"
       id="Hatch-6"
       height="8">
      <path
         id="path3489"
         stroke-width="0.25"
         stroke="#000000"
         linecap="square"
         d="M8 4 l-4,4" />
      <path
         id="path3491"
         stroke-width="0.25"
         stroke="#000000"
         linecap="square"
         d="M6 2 l-4,4" />
      <path
         id="path3493"
         stroke-width="0.25"
         stroke="#000000"
         linecap="square"
         d="M4 0 l-4,4" />
    </pattern>
    <marker
       style="overflow:visible"
       refY="0.0"
       refX="0.0"
       orient="auto"
       id="DistanceX-7">
      <path
         id="path6904"
         style="stroke:#000000; stroke-width:0.5"
         d="M 3,-3 L -3,3 M 0,-5 L  0,5" />
    </marker>
    <pattern
       y="0"
       x="0"
       width="8"
       patternUnits="userSpaceOnUse"
       id="Hatch-5"
       height="8">
      <path
         id="path6907"
         stroke-width="0.25"
         stroke="#000000"
         linecap="square"
         d="M8 4 l-4,4" />
      <path
         id="path6909"
         stroke-width="0.25"
         stroke="#000000"
         linecap="square"
         d="M6 2 l-4,4" />
      <path
         id="path6911"
         stroke-width="0.25"
         stroke="#000000"
         linecap="square"
         d="M4 0 l-4,4" />
    </pattern>
  </defs>
  <g
     inkscape:label="0"
     inkscape:groupmode="layer"
     id="g8147">
    <path
       inkscape:connector-curvature="0"
       d="m 125.94346,522.59853 0.25228,0.1833 0.32421,0.3046 0.28382,0.3428 0.23847,0.3757 0.18921,0.4026 0.13784,0.4233 0.0833,0.4371 0.028,0.444 0,177.1652 0.4748,7.5497 1.41732,7.4307 2.33788,7.194 3.22086,6.8446 4.05319,6.3872 4.82173,5.8283 5.51445,5.1786 6.11965,4.4461 6.62882,3.6443 7.03346,2.7847 7.32685,1.8812 7.50473,0.9481 7.5646,0 7.50473,-0.9481 7.32685,-1.8812 7.03346,-2.7847 6.62882,-3.6443 6.12,-4.4461 5.51409,-5.1786 4.82174,-5.8283 4.05354,-6.3872 3.22087,-6.8446 2.33752,-7.194 1.41732,-7.4307 0.47516,-7.5497 0,-177.1652 0.0276,-0.444 0.0836,-0.4371 0.1375,-0.4233 0.18921,-0.4026 0.23846,-0.3757 0.28382,-0.3428 0.32422,-0.3046 0.36,-0.2615 0.39011,-0.2144 0.41351,-0.1639 0.43122,-0.1106 0.44149,-0.0558 0.44469,1.5e-4 0.44149,0.0558 0.43123,0.11045 0.4135,0.1639 0.39012,0.2144 0.36,0.2615 0.32421,0.3046 0.28382,0.3428 0.23846,0.3757 0.18921,0.4026 0.13749,0.4233 0.0836,0.4371 0.028,0.444 0,177.1652 -0.53114,8.4381 -1.58421,8.3044 -2.61248,8.0408 -3.59965,7.6497 -4.53012,7.1387 -5.38901,6.514 -6.16323,5.7876 -6.83965,4.9695 -7.4087,4.073 -7.86083,3.1121 -8.18893,2.1026 -8.38772,1.0595 -4.22716,0 0,36.0322 2.37224,1.7238 38.99339,21.4367 41.37236,16.3804 43.09937,11.0661 44.14627,5.5771 44.49714,0 44.14627,-5.5771 43.09937,-11.0661 41.37236,-16.3804 38.99339,-21.4367 2.37224,-1.7238 0,-36.0322 -4.22716,0 -8.38772,-1.0595 -8.18893,-2.1026 -7.86083,-3.1121 -7.4087,-4.073 -6.83965,-4.9695 -6.16323,-5.7876 -5.38901,-6.514 -4.53012,-7.1387 -3.59965,-7.6497 -2.61248,-8.0408 -1.58421,-8.3044 -0.53114,-8.4381 0,-177.1652 0.028,-0.444 0.0836,-0.4371 0.1375,-0.4233 0.18921,-0.4026 0.23846,-0.3757 0.28382,-0.3428 0.32421,-0.3046 0.36,-0.2615 0.39012,-0.2144 0.4135,-0.1639 0.43123,-0.1106 0.44149,-0.0558 0.44469,1.5e-4 0.44149,0.0558 0.43122,0.11045 0.41351,0.1639 0.39011,0.2144 0.36,0.2615 0.32422,0.3046 0.28382,0.3428 0.23846,0.3757 0.18921,0.4026 0.13748,0.4233 0.0836,0.4371 0.0276,0.444 2e-5,177.1652 0.47516,7.5497 1.41732,7.4307 2.33752,7.194 3.22087,6.8446 4.05354,6.3872 4.82174,5.8283 5.51409,5.1786 6.12,4.4461 6.62882,3.6443 7.03346,2.7847 7.32685,1.8812 7.50473,0.9481 7.5646,0 7.50473,-0.9481 7.32685,-1.8812 7.03346,-2.7847 6.62882,-3.6443 6.11965,-4.4461 5.51445,-5.1786 4.82173,-5.8283 4.05319,-6.3872 3.22086,-6.8446 2.33788,-7.194 1.41732,-7.4307 0.4748,-7.5497 0,-177.1652 0.028,-0.444 0.0833,-0.4371 0.13782,-0.4233 0.18921,-0.4026 0.23847,-0.3757 0.28382,-0.3428 0.32421,-0.3046 0.25228,-0.1833 0,-3.9747 -10.44248,-6e-4 -3.5e-4,-59.187 10.44283,-4e-4 0,-49.0149 -10.44248,0 -3.5e-4,-49.37067 10.44283,-3.5e-4 0,-99.18319 -28.14661,-26.4313 -35.99894,-26.15492 -38.99339,-21.43666 -41.37236,-16.38035 -43.09937,-11.0661 -44.14627,-5.57717 -44.49714,0 -44.14627,5.57717 -43.09937,11.0661 -41.37236,16.38035 -38.99339,21.43666 -35.99894,26.15492 -28.14661,26.4313 0,99.18354 10.44248,-3.5e-4 0,49.37102 -10.44248,0 0,49.0153 10.44248,-4e-4 3.5e-4,59.1864 -10.44283,6.5e-4 z"
       style="fill:none;stroke:#0000ff;stroke-opacity:1"
       id="path6963"
       sodipodi:nodetypes="ccccccccccccccccccccccccccccccccccccccccccccccccccccccccccccccccccccccccccccccccccccccccccccccccccccccccccccccccccccccccccccccccccccccccccccccccccccccccccccccccccccccccccccccccccccccccccccccccc" />
    <path
       inkscape:connector-curvature="0"
       d="m 312.62613,419.86916 0,-177.16536 0.53079,-8.43767 1.58421,-8.30481 2.61284,-8.04082 3.59965,-7.64965 4.53011,-7.13835 5.38902,-6.51437 6.16323,-5.78728 6.83964,-4.96949 7.40877,-4.07303 7.86073,-3.11244 8.18886,-2.1026 8.38786,-1.05945 8.45433,0 8.38782,1.05945 8.18887,2.1026 7.86076,3.11244 7.4087,4.07303 6.84,4.96949 6.16287,5.78728 5.38902,6.51437 4.53011,7.13835 3.59965,7.64965 2.61283,8.04082 1.58422,8.30481 0.53078,8.43767 0,177.16536 -0.028,0.44397 -0.0833,0.43725 -0.13781,0.42307 -0.18921,0.40287 -0.23847,0.37559 -0.28382,0.34264 -0.32421,0.30473 -0.36,0.26149 -0.38976,0.21437 -0.41386,0.1637 -0.43087,0.11091 -0.44149,0.0556 -0.44504,2e-5 -0.4415,-0.0556 -0.43086,-0.11092 -0.41386,-0.1637 -0.38977,-0.21437 -0.36035,-0.26149 -0.32421,-0.30473 -0.28347,-0.34264 -0.23846,-0.37559 -0.18957,-0.40287 -0.13748,-0.42307 -0.0833,-0.43725 -0.028,-0.44397 10e-6,-177.16536 -0.47516,-7.54972 -1.41732,-7.43032 -2.33752,-7.19433 -3.22087,-6.8446 -4.05319,-6.38681 -4.82173,-5.82874 -5.51445,-5.17819 -6.11982,-4.4465 -6.62885,-3.64394 -7.03333,-2.78504 -7.32688,-1.88114 -7.50487,-0.94783 -7.56439,0 -7.5049,0.94783 -7.32689,1.88114 -7.03329,2.78504 -6.62889,3.64394 -6.11985,4.4465 -5.5141,5.17819 -4.82209,5.82874 -4.05318,6.38681 -3.22087,6.8446 -2.33752,7.19433 -1.41732,7.43032 -0.47516,7.54972 0,177.16536 -0.028,0.44397 -0.0833,0.43725 -0.13746,0.42307 -0.18957,0.40287 -0.23846,0.37559 -0.28347,0.34264 -0.32456,0.30473 -0.36,0.26149 -0.38977,0.21437 -0.41386,0.1637 -0.43086,0.11091 -0.4415,0.0556 -0.44504,2e-5 -0.44149,-0.0556 -0.43087,-0.11092 -0.41386,-0.1637 -0.38976,-0.21437 -0.36,-0.26149 -0.32457,-0.30473 -0.28346,-0.34264 -0.23847,-0.37559 -0.18956,-0.40287 -0.13749,-0.42307 -0.0833,-0.43725 z"
       style="fill:none;stroke:#ff0000;stroke-opacity:1"
       id="path7321"
       sodipodi:nodetypes="ccccccccccccccccccccccccccccccccccccccccccccccccccccccccccccccccccccccccccccccccccccccccccccccccccccccccc" />
    <path
       inkscape:connector-curvature="0"
       d="m 381.59135,222.95554 -3.28471,0 -2.65747,-1.93075 -1.01505,-3.12414 1.01505,-3.12413 2.65747,-1.93075 3.28471,0 2.65749,1.93075 1.01509,3.12413 -1.01509,3.12414 z"
       style="fill:none;stroke:#ff0000;stroke-opacity:1"
       id="path7523"
       sodipodi:nodetypes="ccccccccccc" />
    <path
       inkscape:connector-curvature="0"
       d="m 362.02526,251.15565 1.64236,2.84457 -0.34332,3.26693 -2.19794,2.44098 -3.21308,0.68315 -3.00086,-1.33618 -1.64239,-2.84456 0.34331,-3.26693 2.19805,-2.44099 3.213,-0.68315 z"
       style="fill:none;stroke:#ff0000;stroke-opacity:1"
       id="path7535"
       sodipodi:nodetypes="ccccccccccc" />
    <path
       inkscape:connector-curvature="0"
       d="m 396.23032,254.00022 1.64236,-2.84457 3.00086,-1.33618 3.213,0.68315 2.19806,2.44099 0.34324,3.26693 -1.64236,2.84456 -3.00086,1.33618 -3.21307,-0.68315 -2.19799,-2.44098 z"
       style="fill:none;stroke:#ff0000;stroke-opacity:1"
       id="path7549"
       sodipodi:nodetypes="ccccccccccc" />
    <path
       inkscape:connector-curvature="0"
       d="m 537.63003,362.32231 -0.5035,0.98787 -0.78378,0.78378 -0.98787,0.50315 -1.09489,0.17362 -1.09488,-0.17362 -0.98787,-0.50315 -0.78378,-0.78378 -0.50351,-0.98787 -0.17326,-1.09489 0,-11.33858 0.17326,-1.09488 0.50351,-0.98787 0.78378,-0.78378 0.98787,-0.50315 1.09488,-0.17362 1.09489,0.17362 0.98787,0.50315 0.78378,0.78378 0.5035,0.98787 0.17327,1.09488 56.99764,0 0.17327,-1.09488 0.5035,-0.98787 0.78378,-0.78378 0.98787,-0.50315 1.09489,-0.17362 1.09488,0.17362 0.98787,0.50315 0.78378,0.78378 0.50315,0.98787 0.17362,1.09488 0,11.33858 -0.17362,1.09489 -0.50315,0.98787 -0.78378,0.78378 -0.98787,0.50315 -1.09488,0.17362 -1.09489,-0.17362 -0.98787,-0.50315 -0.78378,-0.78378 -0.5035,-0.98787 -0.17327,-1.09489 -56.99764,0 z"
       style="fill:none;stroke:#ff0000;stroke-opacity:1"
       id="path7577"
       sodipodi:nodetypes="ccccccccccccccccccccccccccccccccccccccccccccc" />
    <path
       inkscape:connector-curvature="0"
       d="m 160.45881,364.59711 -0.98787,-0.50315 -0.78378,-0.78378 -0.5035,-0.98787 -0.17327,-1.09489 0,-11.33858 0.17327,-1.09488 0.5035,-0.98787 0.78378,-0.78378 0.98787,-0.50315 1.09488,-0.17362 1.09489,0.17362 0.98787,0.50315 0.78378,0.78378 0.5035,0.98787 0.17327,1.09488 56.99764,0 0.17327,-1.09488 0.5035,-0.98787 0.78378,-0.78378 0.98787,-0.50315 1.09489,-0.17362 1.09488,0.17362 0.98787,0.50315 0.78378,0.78378 0.50315,0.98787 0.17362,1.09488 0,11.33858 -0.17362,1.09489 -0.50315,0.98787 -0.78378,0.78378 -0.98787,0.50315 -1.09488,0.17362 -1.09489,-0.17362 -0.98787,-0.50315 -0.78378,-0.78378 -0.5035,-0.98787 -0.17327,-1.09489 -56.99764,0 -0.17327,1.09489 -0.5035,0.98787 -0.78378,0.78378 -0.98787,0.50315 -1.09489,0.17362 z"
       style="fill:none;stroke:#ff0000;stroke-opacity:1"
       id="path7675"
       sodipodi:nodetypes="ccccccccccccccccccccccccccccccccccccccccccccc" />
    <path
       inkscape:connector-curvature="0"
       d="m 198.69322,379.12077 0,31.30016 -13.35437,0 -3.5e-4,-31.2998 z"
       style="fill:none;stroke:#ff0000;stroke-opacity:1"
       id="path7745"
       sodipodi:nodetypes="ccccc" />
    <path
       inkscape:connector-curvature="0"
       d="m 561.20436,379.12113 13.35473,-3.6e-4 0,31.30016 -13.35437,0 z"
       style="fill:none;stroke:#ff0000;stroke-opacity:1"
       id="path7751"
       sodipodi:nodetypes="ccccc" />
    <path
       inkscape:connector-curvature="0"
       d="m 609.15133,386.20774 7.08662,0 0,14.17323 -7.08662,0 z"
       style="fill:none;stroke:#ff0000;stroke-opacity:1"
       id="path7759"
       sodipodi:nodetypes="ccccc" />
    <path
       inkscape:connector-curvature="0"
       d="m 143.65999,400.38097 0,-14.17323 7.08662,0 0,14.17323 z"
       style="fill:none;stroke:#ff0000;stroke-opacity:1"
       id="path7773"
       sodipodi:nodetypes="ccccc" />
    <path
       inkscape:connector-curvature="0"
       d="m 482.70488,472.31013 -1.64233,-0.2601 -1.48181,-0.7551 -1.17567,-1.1757 -0.75508,-1.4818 -0.26008,-1.6423 0,-63.77952 0.26008,-1.64232 0.75508,-1.48181 1.17567,-1.17567 1.48181,-0.75508 1.64233,-0.26008 1.64232,0.26008 1.48181,0.75508 1.17567,1.17567 0.75508,1.48181 0.26008,1.64232 0,63.77952 -0.26008,1.6423 -0.75508,1.4818 -1.17567,1.1757 -1.48181,0.7551 z"
       style="fill:none;stroke:#ff0000;stroke-opacity:1"
       id="path7815"
       sodipodi:nodetypes="ccccccccccccccccccccccc" />
    <path
       inkscape:connector-curvature="0"
       d="m 277.19306,472.31013 -1.64232,-0.2601 -1.48181,-0.7551 -1.17567,-1.1757 -0.75508,-1.4818 -0.26008,-1.6423 0,-63.77952 0.26008,-1.64232 0.75508,-1.48181 1.17567,-1.17567 1.48181,-0.75508 1.64232,-0.26008 1.64233,0.26008 1.48181,0.75508 1.17567,1.17567 0.75508,1.48181 0.26007,1.64232 0,63.77952 -0.26007,1.6423 -0.75508,1.4818 -1.17567,1.1757 -1.48181,0.7551 z"
       style="fill:none;stroke:#ff0000;stroke-opacity:1"
       id="path7859"
       sodipodi:nodetypes="ccccccccccccccccccccccc" />
    <path
       inkscape:connector-curvature="0"
       d="m 210.98283,428.13676 0,14.17322 -7.08662,0 0,-14.17322 z"
       style="fill:none;stroke:#ff0000;stroke-opacity:1"
       id="path7865"
       sodipodi:nodetypes="ccccc" />
    <path
       inkscape:connector-curvature="0"
       d="m 556.00173,442.30998 -7.08662,0 0,-14.17322 7.08662,0 z"
       style="fill:none;stroke:#ff0000;stroke-opacity:1"
       id="path7875"
       sodipodi:nodetypes="ccccc" />
    <path
       inkscape:connector-curvature="0"
       d="m 587.89149,442.30998 -7.08661,0 0,-14.17322 7.08661,0 z"
       style="fill:none;stroke:#ff0000;stroke-opacity:1"
       id="path7883"
       sodipodi:nodetypes="ccccc" />
    <path
       inkscape:connector-curvature="0"
       d="m 179.09306,428.13676 0,14.17322 -7.08661,0 0,-14.17322 z"
       style="fill:none;stroke:#ff0000;stroke-opacity:1"
       id="path7889"
       sodipodi:nodetypes="ccccc" />
    <path
       inkscape:connector-curvature="0"
       d="m 561.20436,459.43623 13.35473,-4e-4 0,59.1869 -13.35437,-6.5e-4 z"
       style="fill:none;stroke:#ff0000;stroke-opacity:1"
       id="path7895"
       sodipodi:nodetypes="ccccc" />
    <path
       inkscape:connector-curvature="0"
       d="m 185.3385,459.43623 13.35472,-4e-4 3.6e-4,59.1852 -13.35508,6.5e-4 z"
       style="fill:none;stroke:#ff0000;stroke-opacity:1"
       id="path7909"
       sodipodi:nodetypes="ccccc" />
    <path
       inkscape:connector-curvature="0"
       d="m 609.15133,491.28933 7.08662,0 0,14.1733 -7.08662,0 z"
       style="fill:none;stroke:#ff0000;stroke-opacity:1"
       id="path7911"
       sodipodi:nodetypes="ccccc" />
    <path
       inkscape:connector-curvature="0"
       d="m 150.74661,491.28933 0,14.1733 -7.08662,0 0,-14.1733 z"
       style="fill:none;stroke:#ff0000;stroke-opacity:1"
       id="path7921"
       sodipodi:nodetypes="ccccc" />
    <path
       inkscape:connector-curvature="0"
       d="m 272.89326,513.47733 1.17567,-1.1758 1.48181,-0.7549 1.64232,-0.2602 1.64233,0.2602 1.48181,0.7549 1.17567,1.1758 0.75508,1.4817 0.26007,1.6424 0,63.7795 -0.26007,1.6424 -0.75508,1.4818 -1.17567,1.1756 -1.48181,0.7551 -1.64233,0.2601 -1.64232,-0.2601 -1.48181,-0.7551 -1.17567,-1.1756 -0.75508,-1.4818 -0.26008,-1.6424 0,-63.7795 0.26008,-1.6424 z"
       style="fill:none;stroke:#ff0000;stroke-opacity:1"
       id="path7939"
       sodipodi:nodetypes="ccccccccccccccccccccccc" />
    <path
       inkscape:connector-curvature="0"
       d="m 481.06255,511.54663 1.64233,-0.2602 1.64232,0.2602 1.48181,0.7549 1.17567,1.1758 0.75508,1.4817 0.26008,1.6424 0,63.7795 -0.26008,1.6424 -0.75508,1.4818 -1.17567,1.1756 -1.48181,0.7551 -1.64232,0.2601 -1.64233,-0.2601 -1.48181,-0.7551 -1.17567,-1.1756 -0.75508,-1.4818 -0.26008,-1.6424 0,-63.7795 0.26008,-1.6424 0.75508,-1.4817 1.17567,-1.1758 z"
       style="fill:none;stroke:#ff0000;stroke-opacity:1"
       id="path7987"
       sodipodi:nodetypes="ccccccccccccccccccccccc" />
    <path
       inkscape:connector-curvature="0"
       d="m 301.48137,612.61583 0.33803,2.1352 0,42.5197 -0.33803,2.1352 -0.98149,1.9261 -1.52894,1.529 -1.92614,0.9815 -2.1352,0.338 -2.1352,-0.338 -1.92614,-0.9815 -1.52894,-1.529 -0.98114,-1.9261 -0.33838,-2.1352 0,-42.5197 0.33838,-2.1352 0.98114,-1.9261 1.52894,-1.529 1.92614,-0.9811 2.1352,-0.3384 2.1352,0.3384 1.92614,0.9811 1.52894,1.529 z"
       style="fill:none;stroke:#ff0000;stroke-opacity:1"
       id="path8041"
       sodipodi:nodetypes="ccccccccccccccccccccccc" />
    <path
       inkscape:connector-curvature="0"
       d="m 386.52053,612.61583 0.33821,2.1352 0,42.5197 -0.33821,2.1352 -0.98146,1.9261 -1.52869,1.529 -1.92621,0.9815 -2.1352,0.338 -2.1352,-0.338 -1.92621,-0.9815 -1.52869,-1.529 -0.98146,-1.9261 -0.33821,-2.1352 0,-42.5197 0.33821,-2.1352 0.98146,-1.9261 1.52869,-1.529 1.92621,-0.9811 2.1352,-0.3384 2.1352,0.3384 1.92621,0.9811 1.52869,1.529 z"
       style="fill:none;stroke:#ff0000;stroke-opacity:1"
       id="path8085"
       sodipodi:nodetypes="ccccccccccccccccccccccc" />
    <path
       inkscape:connector-curvature="0"
       d="m 462.85314,608.17963 2.1352,-0.3384 2.1352,0.3384 1.92614,0.9811 1.52894,1.529 0.98114,1.9261 0.33838,2.1352 0,42.5197 -0.33838,2.1352 -0.98114,1.9261 -1.52894,1.529 -1.92614,0.9815 -2.1352,0.338 -2.1352,-0.338 -1.92614,-0.9815 -1.52894,-1.529 -0.98149,-1.9261 -0.33803,-2.1352 0,-42.5197 0.33803,-2.1352 0.98149,-1.9261 1.52894,-1.529 z"
       style="fill:none;stroke:#ff0000;stroke-opacity:1"
       id="path8119"
       sodipodi:nodetypes="ccccccccccccccccccccccc" />
    <path
       inkscape:connector-curvature="0"
       d="m 330.85787,633.87573 0.98149,-1.9262 1.52859,-1.5286 1.92614,-0.9815 2.13519,-0.338 2.1352,0.338 1.92614,0.9815 1.52859,1.5286 0.98149,1.9262 0.33803,2.1352 -0.33803,2.1352 -0.98149,1.9261 -1.52859,1.5286 -1.92614,0.9815 -2.1352,0.338 -2.13519,-0.338 -1.92614,-0.9815 -1.52859,-1.5286 -0.98149,-1.9261 -0.33803,-2.1352 z"
       style="fill:none;stroke:#ff0000;stroke-opacity:1"
       id="path8155"
       sodipodi:nodetypes="ccccccccccccccccccccc" />
    <path
       inkscape:connector-curvature="0"
       d="m 415.89724,633.87573 0.98149,-1.9262 1.52859,-1.5286 1.92614,-0.9815 2.13519,-0.338 2.1352,0.338 1.92614,0.9815 1.52859,1.5286 0.98149,1.9262 0.33803,2.1352 -0.33803,2.1352 -0.98149,1.9261 -1.52859,1.5286 -1.92614,0.9815 -2.1352,0.338 -2.13519,-0.338 -1.92614,-0.9815 -1.52859,-1.5286 -0.98149,-1.9261 -0.33803,-2.1352 z"
       style="fill:none;stroke:#ff0000;stroke-opacity:1"
       id="path8195"
       sodipodi:nodetypes="ccccccccccccccccccccc" />
    <path
       inkscape:connector-curvature="0"
       d="m 428.05858,674.46923 0.98149,1.9261 0.33803,2.1352 -0.33803,2.1352 -0.98149,1.9262 -1.52859,1.5286 -1.92614,0.9815 -2.1352,0.338 -2.13519,-0.338 -1.92614,-0.9815 -1.52859,-1.5286 -0.98149,-1.9262 -0.33803,-2.1352 0.33803,-2.1352 0.98149,-1.9261 1.52859,-1.5286 1.92614,-0.9815 2.13519,-0.338 2.1352,0.338 1.92614,0.9815 z"
       style="fill:none;stroke:#ff0000;stroke-opacity:1"
       id="path8249"
       sodipodi:nodetypes="ccccccccccccccccccccc" />
    <path
       inkscape:connector-curvature="0"
       d="m 343.01921,674.46923 0.98149,1.9261 0.33803,2.1352 -0.33803,2.1352 -0.98149,1.9262 -1.52859,1.5286 -1.92614,0.9815 -2.1352,0.338 -2.13519,-0.338 -1.92614,-0.9815 -1.52859,-1.5286 -0.98149,-1.9262 -0.33803,-2.1352 0.33803,-2.1352 0.98149,-1.9261 1.52859,-1.5286 1.92614,-0.9815 2.13519,-0.338 2.1352,0.338 1.92614,0.9815 z"
       style="fill:none;stroke:#ff0000;stroke-opacity:1"
       id="path8289"
       sodipodi:nodetypes="ccccccccccccccccccccc" />
    <path
       inkscape:connector-curvature="0"
       d="m 470.57826,674.46923 0.9815,1.9261 0.33803,2.1352 -0.33803,2.1352 -0.9815,1.9262 -1.52858,1.5286 -1.92614,0.9815 -2.1352,0.338 -2.1352,-0.338 -1.92614,-0.9815 -1.52858,-1.5286 -0.9815,-1.9262 -0.33803,-2.1352 0.33803,-2.1352 0.9815,-1.9261 1.52858,-1.5286 1.92614,-0.9815 2.1352,-0.338 2.1352,0.338 1.92614,0.9815 z"
       style="fill:none;stroke:#ff0000;stroke-opacity:1"
       id="path8329"
       sodipodi:nodetypes="ccccccccccccccccccccc" />
    <path
       inkscape:connector-curvature="0"
       d="m 294.9096,671.62113 2.1352,0.338 1.92614,0.9815 1.52858,1.5286 0.9815,1.9261 0.33803,2.1352 -0.33803,2.1352 -0.9815,1.9262 -1.52858,1.5286 -1.92614,0.9815 -2.1352,0.338 -2.1352,-0.338 -1.92614,-0.9815 -1.52858,-1.5286 -0.9815,-1.9262 -0.33803,-2.1352 0.33803,-2.1352 0.9815,-1.9261 1.52858,-1.5286 1.92614,-0.9815 z"
       style="fill:none;stroke:#ff0000;stroke-opacity:1"
       id="path8363"
       sodipodi:nodetypes="ccccccccccccccccccccc" />
    <path
       inkscape:connector-curvature="0"
       d="m 375.8877,672.94063 1.92618,-0.9815 2.13509,-0.338 2.13509,0.338 1.92618,0.9815 1.52858,1.5286 0.98139,1.9261 0.33821,2.1352 -0.33821,2.1352 -0.98139,1.9262 -1.52858,1.5286 -1.92618,0.9815 -2.13509,0.338 -2.13509,-0.338 -1.92618,-0.9815 -1.52858,-1.5286 -0.98139,-1.9262 -0.33821,-2.1352 0.33821,-2.1352 0.98139,-1.9261 z"
       style="fill:none;stroke:#ff0000;stroke-opacity:1"
       id="path8399"
       sodipodi:nodetypes="ccccccccccccccccccccc" />
    <path
       inkscape:connector-curvature="0"
       d="m 555.55669,688.11413 0.34334,3.2666 -1.64232,2.8449 -3.00083,1.3359 -3.21307,-0.6828 -2.19826,-2.441 -0.343,-3.267 1.64233,-2.8449 3.00082,-1.3358 3.21307,0.6828 z"
       style="fill:none;stroke:#ff0000;stroke-opacity:1"
       id="path8437"
       sodipodi:nodetypes="ccccccccccc" />
    <path
       inkscape:connector-curvature="0"
       d="m 591.00393,685.67283 3.21307,-0.6828 3.00083,1.3358 1.64232,2.8449 -0.34335,3.267 -2.19791,2.441 -3.21307,0.6828 -3.00083,-1.3359 -1.64232,-2.8449 0.34335,-3.2666 z"
       style="fill:none;stroke:#ff0000;stroke-opacity:1"
       id="path8451"
       sodipodi:nodetypes="ccccccccccc" />
    <path
       inkscape:connector-curvature="0"
       d="m 206.53917,685.67283 3.21307,-0.6828 3.00082,1.3358 1.64233,2.8449 -0.343,3.267 -2.19826,2.441 -3.21307,0.6828 -3.00083,-1.3359 -1.64232,-2.8449 0.34334,-3.2666 z"
       style="fill:none;stroke:#ff0000;stroke-opacity:1"
       id="path8471"
       sodipodi:nodetypes="ccccccccccc" />
    <path
       inkscape:connector-curvature="0"
       d="m 169.79295,694.22563 -3.00083,1.3359 -3.21307,-0.6828 -2.19791,-2.441 -0.34335,-3.267 1.64232,-2.8449 3.00083,-1.3358 3.21307,0.6828 2.19791,2.4413 0.34335,3.2666 z"
       style="fill:none;stroke:#ff0000;stroke-opacity:1"
       id="path8501"
       sodipodi:nodetypes="ccccccccccc" />
    <path
       inkscape:connector-curvature="0"
       d="m 301.48137,744.44533 -0.98149,1.9261 -1.52894,1.5289 -1.92614,0.9812 -2.1352,0.3384 -2.1352,-0.3384 -1.92614,-0.9812 -1.52894,-1.5289 -0.98114,-1.9261 -0.33838,-2.1352 0,-42.5197 0.33838,-2.1352 0.98114,-1.9262 1.52894,-1.5289 1.92614,-0.9811 2.1352,-0.3384 2.1352,0.3384 1.92614,0.9811 1.52894,1.5289 0.98149,1.9262 0.33803,2.1352 0,42.5197 z"
       style="fill:none;stroke:#ff0000;stroke-opacity:1"
       id="path8539"
       sodipodi:nodetypes="ccccccccccccccccccccccc" />
    <path
       inkscape:connector-curvature="0"
       d="m 386.52053,744.44533 -0.98146,1.9261 -1.52869,1.5289 -1.92621,0.9812 -2.1352,0.3384 -2.1352,-0.3384 -1.92621,-0.9812 -1.52869,-1.5289 -0.98146,-1.9261 -0.33821,-2.1352 0,-42.5197 0.33821,-2.1352 0.98146,-1.9262 1.52869,-1.5289 1.92621,-0.9811 2.1352,-0.3384 2.1352,0.3384 1.92621,0.9811 1.52869,1.5289 0.98146,1.9262 0.33821,2.1352 0,42.5197 z"
       style="fill:none;stroke:#ff0000;stroke-opacity:1"
       id="path8583"
       sodipodi:nodetypes="ccccccccccccccccccccccc" />
    <path
       inkscape:connector-curvature="0"
       d="m 471.55976,744.44533 -0.98114,1.9261 -1.52894,1.5289 -1.92614,0.9812 -2.1352,0.3384 -2.1352,-0.3384 -1.92614,-0.9812 -1.52894,-1.5289 -0.98149,-1.9261 -0.33803,-2.1352 0,-42.5197 0.33803,-2.1352 0.98149,-1.9262 1.52894,-1.5289 1.92614,-0.9811 2.1352,-0.3384 2.1352,0.3384 1.92614,0.9811 1.52894,1.5289 0.98114,1.9262 0.33838,2.1352 0,42.5197 z"
       style="fill:none;stroke:#ff0000;stroke-opacity:1"
       id="path8627"
       sodipodi:nodetypes="ccccccccccccccccccccccc" />
    <path
       inkscape:connector-curvature="0"
       d="m 428.05858,725.11163 -1.52859,1.5286 -1.92614,0.9814 -2.1352,0.3381 -2.13519,-0.3381 -1.92614,-0.9814 -1.52859,-1.5286 -0.98149,-1.9262 -0.33803,-2.1352 0.33803,-2.1352 0.98149,-1.9261 1.52859,-1.5286 1.92614,-0.9815 2.13519,-0.338 2.1352,0.338 1.92614,0.9815 1.52859,1.5286 0.98149,1.9261 0.33803,2.1352 -0.33803,2.1352 z"
       style="fill:none;stroke:#ff0000;stroke-opacity:1"
       id="path8669"
       sodipodi:nodetypes="ccccccccccccccccccccc" />
    <path
       inkscape:connector-curvature="0"
       d="m 330.85787,718.91503 0.98149,-1.9261 1.52859,-1.5286 1.92614,-0.9815 2.13519,-0.338 2.1352,0.338 1.92614,0.9815 1.52859,1.5286 0.98149,1.9261 0.33803,2.1352 -0.33803,2.1352 -0.98149,1.9262 -1.52859,1.5286 -1.92614,0.9814 -2.1352,0.3381 -2.13519,-0.3381 -1.92614,-0.9814 -1.52859,-1.5286 -0.98149,-1.9262 -0.33803,-2.1352 z"
       style="fill:none;stroke:#ff0000;stroke-opacity:1"
       id="path8687"
       sodipodi:nodetypes="ccccccccccccccccccccc" />
    <path
       inkscape:connector-curvature="0"
       d="m 182.40181,727.48033 1.0148,-3.1238 2.65748,-1.9308 3.285,0 2.65748,1.9308 1.0148,3.1238 -1.0148,3.1241 -2.65748,1.9308 -3.285,0 -2.65748,-1.9308 z"
       style="fill:none;stroke:#ff0000;stroke-opacity:1"
       id="path8721"
       sodipodi:nodetypes="ccccccccccc" />
    <path
       inkscape:connector-curvature="0"
       d="m 566.86621,727.48033 1.01516,-3.1238 2.65748,-1.9308 3.285,0 2.65748,1.9308 1.0148,3.1238 -1.0148,3.1241 -2.65748,1.9308 -3.285,0 -2.65748,-1.9308 z"
       style="fill:none;stroke:#ff0000;stroke-opacity:1"
       id="path8741"
       sodipodi:nodetypes="ccccccccccc" />
    <path
       inkscape:connector-curvature="0"
       d="m 418.40732,757.98003 1.92614,-0.9815 2.13519,-0.338 2.1352,0.338 1.92614,0.9815 1.52859,1.5286 0.98149,1.9261 0.33803,2.1352 -0.33803,2.1352 -0.98149,1.9262 -1.52859,1.5285 -1.92614,0.9815 -2.1352,0.3381 -2.13519,-0.3381 -1.92614,-0.9815 -1.52859,-1.5285 -0.98149,-1.9262 -0.33803,-2.1352 0.33803,-2.1352 0.98149,-1.9261 z"
       style="fill:none;stroke:#ff0000;stroke-opacity:1"
       id="path8771"
       sodipodi:nodetypes="ccccccccccccccccccccc" />
    <path
       inkscape:connector-curvature="0"
       d="m 377.81388,770.14133 -1.92618,-0.9815 -1.52858,-1.5285 -0.98139,-1.9262 -0.33821,-2.1352 0.33821,-2.1352 0.98139,-1.9261 1.52858,-1.5286 1.92618,-0.9815 2.13509,-0.338 2.13509,0.338 1.92618,0.9815 1.52858,1.5286 0.98139,1.9261 0.33821,2.1352 -0.33821,2.1352 -0.98139,1.9262 -1.52858,1.5285 -1.92618,0.9815 -2.13509,0.3381 z"
       style="fill:none;stroke:#ff0000;stroke-opacity:1"
       id="path8837"
       sodipodi:nodetypes="ccccccccccccccccccccc" />
    <path
       inkscape:connector-curvature="0"
       d="m 470.57826,759.50863 0.9815,1.9261 0.33803,2.1352 -0.33803,2.1352 -0.9815,1.9262 -1.52858,1.5285 -1.92614,0.9815 -2.1352,0.3381 -2.1352,-0.3381 -1.92614,-0.9815 -1.52858,-1.5285 -0.9815,-1.9262 -0.33803,-2.1352 0.33803,-2.1352 0.9815,-1.9261 1.52858,-1.5286 1.92614,-0.9815 2.1352,-0.338 2.1352,0.338 1.92614,0.9815 z"
       style="fill:none;stroke:#ff0000;stroke-opacity:1"
       id="path8861"
       sodipodi:nodetypes="ccccccccccccccccccccc" />
    <path
       inkscape:connector-curvature="0"
       d="m 294.9096,756.66053 2.1352,0.338 1.92614,0.9815 1.52858,1.5286 0.9815,1.9261 0.33803,2.1352 -0.33803,2.1352 -0.9815,1.9262 -1.52858,1.5285 -1.92614,0.9815 -2.1352,0.3381 -2.1352,-0.3381 -1.92614,-0.9815 -1.52858,-1.5285 -0.9815,-1.9262 -0.33803,-2.1352 0.33803,-2.1352 0.9815,-1.9261 1.52858,-1.5286 1.92614,-0.9815 z"
       style="fill:none;stroke:#ff0000;stroke-opacity:1"
       id="path8895"
       sodipodi:nodetypes="ccccccccccccccccccccc" />
    <path
       inkscape:connector-curvature="0"
       d="m 333.36795,757.98003 1.92614,-0.9815 2.13519,-0.338 2.1352,0.338 1.92614,0.9815 1.52859,1.5286 0.98149,1.9261 0.33803,2.1352 -0.33803,2.1352 -0.98149,1.9262 -1.52859,1.5285 -1.92614,0.9815 -2.1352,0.3381 -2.13519,-0.3381 -1.92614,-0.9815 -1.52859,-1.5285 -0.98149,-1.9262 -0.33803,-2.1352 0.33803,-2.1352 0.98149,-1.9261 z"
       style="fill:none;stroke:#ff0000;stroke-opacity:1"
       id="path8931"
       sodipodi:nodetypes="ccccccccccccccccccccc" />
    <path
       inkscape:connector-curvature="0"
       d="m 518.26728,787.97693 3.28464,0 2.65748,1.9308 1.01516,3.1238 -1.01516,3.1241 -2.65748,1.9307 -3.28464,0 -2.65748,-1.9307 -1.01516,-3.1241 1.01516,-3.1238 z"
       style="fill:none;stroke:#ff0000;stroke-opacity:1"
       id="path8965"
       sodipodi:nodetypes="ccccccccccc" />
    <path
       inkscape:connector-curvature="0"
       d="m 238.34602,787.97693 3.28464,0 2.65748,1.9308 1.01516,3.1238 -1.01516,3.1241 -2.65748,1.9307 -3.28464,0 -2.65748,-1.9307 -1.01516,-3.1241 1.01516,-3.1238 z"
       style="fill:none;stroke:#ff0000;stroke-opacity:1"
       id="path8985"
       sodipodi:nodetypes="ccccccccccc" />
    <path
       inkscape:connector-curvature="0"
       d="m 415.89724,803.95443 0.98149,-1.9261 1.52859,-1.5286 1.92614,-0.9815 2.13519,-0.338 2.1352,0.338 1.92614,0.9815 1.52859,1.5286 0.98149,1.9261 0.33803,2.1352 -0.33803,2.1352 -0.98149,1.9261 -1.52859,1.5286 -1.92614,0.9815 -2.1352,0.338 -2.13519,-0.338 -1.92614,-0.9815 -1.52859,-1.5286 -0.98149,-1.9261 -0.33803,-2.1352 z"
       style="fill:none;stroke:#ff0000;stroke-opacity:1"
       id="path9007"
       sodipodi:nodetypes="ccccccccccccccccccccc" />
    <path
       inkscape:connector-curvature="0"
       d="m 330.85787,803.95443 0.98149,-1.9261 1.52859,-1.5286 1.92614,-0.9815 2.13519,-0.338 2.1352,0.338 1.92614,0.9815 1.52859,1.5286 0.98149,1.9261 0.33803,2.1352 -0.33803,2.1352 -0.98149,1.9261 -1.52859,1.5286 -1.92614,0.9815 -2.1352,0.338 -2.13519,-0.338 -1.92614,-0.9815 -1.52859,-1.5286 -0.98149,-1.9261 -0.33803,-2.1352 z"
       style="fill:none;stroke:#ff0000;stroke-opacity:1"
       id="path9047"
       sodipodi:nodetypes="ccccccccccccccccccccc" />
    <path
       inkscape:connector-curvature="0"
       d="m 385.53882,810.15093 -1.52858,1.5286 -1.92618,0.9815 -2.13509,0.338 -2.13509,-0.338 -1.92618,-0.9815 -1.52858,-1.5286 -0.98139,-1.9261 -0.33821,-2.1352 0.33821,-2.1352 0.98139,-1.9261 1.52858,-1.5286 1.92618,-0.9815 2.13509,-0.338 2.13509,0.338 1.92618,0.9815 1.52858,1.5286 0.98139,1.9261 0.33821,2.1352 -0.33821,2.1352 z"
       style="fill:none;stroke:#ff0000;stroke-opacity:1"
       id="path9109"
       sodipodi:nodetypes="ccccccccccccccccccccc" />
    <path
       inkscape:connector-curvature="0"
       d="m 300.49952,810.15093 -1.52858,1.5286 -1.92614,0.9815 -2.1352,0.338 -2.1352,-0.338 -1.92614,-0.9815 -1.52858,-1.5286 -0.9815,-1.9261 -0.33803,-2.1352 0.33803,-2.1352 0.9815,-1.9261 1.52858,-1.5286 1.92614,-0.9815 2.1352,-0.338 2.1352,0.338 1.92614,0.9815 1.52858,1.5286 0.9815,1.9261 0.33803,2.1352 -0.33803,2.1352 z"
       style="fill:none;stroke:#ff0000;stroke-opacity:1"
       id="path9149"
       sodipodi:nodetypes="ccccccccccccccccccccc" />
    <path
       inkscape:connector-curvature="0"
       d="m 458.41692,803.95443 0.9815,-1.9261 1.52858,-1.5286 1.92614,-0.9815 2.1352,-0.338 2.1352,0.338 1.92614,0.9815 1.52858,1.5286 0.9815,1.9261 0.33803,2.1352 -0.33803,2.1352 -0.9815,1.9261 -1.52858,1.5286 -1.92614,0.9815 -2.1352,0.338 -2.1352,-0.338 -1.92614,-0.9815 -1.52858,-1.5286 -0.9815,-1.9261 -0.33803,-2.1352 z"
       style="fill:none;stroke:#ff0000;stroke-opacity:1"
       id="path9167"
       sodipodi:nodetypes="ccccccccccccccccccccc" />
  </g>
</svg>
