  0
SECTION
  2
BLOCKS
  0
ENDSEC
  0
SECTION
  2
ENTITIES
  0
LINE
  8
0
 10
1.16866
 20
-7.91417
 11
1.49904
 21
-7.85829
  0
LINE
  8
0
 10
1.49904
 20
-7.85829
 11
1.8268
 21
-7.78862
  0
LINE
  8
0
 10
1.8268
 20
-7.78862
 11
2.15135
 21
-7.70529
  0
LINE
  8
0
 10
2.15135
 20
-7.70529
 11
2.47212
 21
-7.60844
  0
LINE
  8
0
 10
2.47212
 20
-7.60844
 11
2.78857
 21
-7.49825
  0
LINE
  8
0
 10
2.78857
 20
-7.49825
 11
3.10011
 21
-7.37489
  0
LINE
  8
0
 10
3.10011
 20
-7.37489
 11
3.40622
 21
-7.2386
  0
LINE
  8
0
 10
3.40622
 20
-7.2386
 11
3.70636
 21
-7.08961
  0
LINE
  8
0
 10
3.70636
 20
-7.08961
 11
3.99998
 21
-6.92819
  0
LINE
  8
0
 10
3.99998
 20
-6.92819
 11
4.28661
 21
-6.75461
  0
LINE
  8
0
 10
4.28661
 20
-6.75461
 11
4.5657
 21
-6.56918
  0
LINE
  8
0
 10
4.5657
 20
-6.56918
 11
4.83679
 21
-6.37224
  0
LINE
  8
0
 10
4.83679
 20
-6.37224
 11
5.09938
 21
-6.16409
  0
LINE
  8
0
 10
5.09938
 20
-6.16409
 11
5.35304
 21
-5.94514
  0
LINE
  8
0
 10
5.35304
 20
-5.94514
 11
5.59731
 21
-5.71577
  0
LINE
  8
0
 10
5.59731
 20
-5.71577
 11
5.83174
 21
-5.47636
  0
LINE
  8
0
 10
5.83174
 20
-5.47636
 11
6.05595
 21
-5.22736
  0
LINE
  8
0
 10
6.05595
 20
-5.22736
 11
6.26955
 21
-4.96918
  0
LINE
  8
0
 10
6.26955
 20
-4.96918
 11
6.47212
 21
-4.70227
  0
LINE
  8
0
 10
6.47212
 20
-4.70227
 11
6.66336
 21
-4.42712
  0
LINE
  8
0
 10
6.66336
 20
-4.42712
 11
6.84291
 21
-4.14421
  0
LINE
  8
0
 10
6.84291
 20
-4.14421
 11
7.01045
 21
-3.85402
  0
LINE
  8
0
 10
7.01045
 20
-3.85402
 11
7.16568
 21
-3.55707
  0
LINE
  8
0
 10
7.16568
 20
-3.55707
 11
7.30835
 21
-3.25389
  0
LINE
  8
0
 10
7.30835
 20
-3.25389
 11
7.4382
 21
-2.94499
  0
LINE
  8
0
 10
7.4382
 20
-2.94499
 11
7.55501
 21
-2.63092
  0
LINE
  8
0
 10
7.55501
 20
-2.63092
 11
7.65855
 21
-2.31224
  0
LINE
  8
0
 10
7.65855
 20
-2.31224
 11
7.74866
 21
-1.98952
  0
LINE
  8
0
 10
7.74866
 20
-1.98952
 11
7.82518
 21
-1.66328
  0
LINE
  8
0
 10
7.82518
 20
-1.66328
 11
7.88795
 21
-1.33414
  0
LINE
  8
0
 10
7.88795
 20
-1.33414
 11
7.93776
 21
-0.994507
  0
LINE
  8
0
 10
7.93776
 20
-0.994507
 11
7.89546
 21
-0.994507
  0
LINE
  8
0
 10
7.89546
 20
-0.994507
 11
7.69098
 21
-0.95105
  0
LINE
  8
0
 10
7.69098
 20
-0.95105
 11
7.5
 21
-0.866013
  0
LINE
  8
0
 10
7.5
 20
-0.866013
 11
7.33086
 21
-0.743134
  0
LINE
  8
0
 10
7.33086
 20
-0.743134
 11
7.19098
 21
-0.587784
  0
LINE
  8
0
 10
7.19098
 20
-0.587784
 11
7.08644
 21
-0.406723
  0
LINE
  8
0
 10
7.08644
 20
-0.406723
 11
7.02185
 21
-0.207901
  0
LINE
  8
0
 10
7.02185
 20
-0.207901
 11
7
 21
0
  0
LINE
  8
0
 10
7
 20
0
 11
7.02185
 21
0.207901
  0
LINE
  8
0
 10
7.02185
 20
0.207901
 11
7.08644
 21
0.406723
  0
LINE
  8
0
 10
7.08644
 20
0.406723
 11
7.19098
 21
0.587784
  0
LINE
  8
0
 10
7.19098
 20
0.587784
 11
7.33086
 21
0.743134
  0
LINE
  8
0
 10
7.33086
 20
0.743134
 11
7.5
 21
0.866013
  0
LINE
  8
0
 10
7.5
 20
0.866013
 11
7.69098
 21
0.95105
  0
LINE
  8
0
 10
7.69098
 20
0.95105
 11
7.89546
 21
0.994507
  0
LINE
  8
0
 10
7.89546
 20
0.994507
 11
7.93776
 21
0.994507
  0
LINE
  8
0
 10
7.93776
 20
0.994507
 11
7.88795
 21
1.33414
  0
LINE
  8
0
 10
7.88795
 20
1.33414
 11
7.82518
 21
1.66328
  0
LINE
  8
0
 10
7.82518
 20
1.66328
 11
7.74866
 21
1.98952
  0
LINE
  8
0
 10
7.74866
 20
1.98952
 11
7.65855
 21
2.31224
  0
LINE
  8
0
 10
7.65855
 20
2.31224
 11
7.55501
 21
2.63092
  0
LINE
  8
0
 10
7.55501
 20
2.63092
 11
7.4382
 21
2.94499
  0
LINE
  8
0
 10
7.4382
 20
2.94499
 11
7.30835
 21
3.25389
  0
LINE
  8
0
 10
7.30835
 20
3.25389
 11
7.16568
 21
3.55707
  0
LINE
  8
0
 10
7.16568
 20
3.55707
 11
7.01045
 21
3.85402
  0
LINE
  8
0
 10
7.01045
 20
3.85402
 11
6.84291
 21
4.14421
  0
LINE
  8
0
 10
6.84291
 20
4.14421
 11
6.66336
 21
4.42712
  0
LINE
  8
0
 10
6.66336
 20
4.42712
 11
6.47212
 21
4.70227
  0
LINE
  8
0
 10
6.47212
 20
4.70227
 11
6.26955
 21
4.96918
  0
LINE
  8
0
 10
6.26955
 20
4.96918
 11
6.05595
 21
5.22736
  0
LINE
  8
0
 10
6.05595
 20
5.22736
 11
5.83174
 21
5.47636
  0
LINE
  8
0
 10
5.83174
 20
5.47636
 11
5.59731
 21
5.71577
  0
LINE
  8
0
 10
5.59731
 20
5.71577
 11
5.35304
 21
5.94514
  0
LINE
  8
0
 10
5.35304
 20
5.94514
 11
5.09938
 21
6.16409
  0
LINE
  8
0
 10
5.09938
 20
6.16409
 11
4.83679
 21
6.37224
  0
LINE
  8
0
 10
4.83679
 20
6.37224
 11
4.5657
 21
6.56918
  0
LINE
  8
0
 10
4.5657
 20
6.56918
 11
4.28661
 21
6.75461
  0
LINE
  8
0
 10
4.28661
 20
6.75461
 11
3.99998
 21
6.92819
  0
LINE
  8
0
 10
3.99998
 20
6.92819
 11
3.70636
 21
7.08961
  0
LINE
  8
0
 10
3.70636
 20
7.08961
 11
3.40622
 21
7.2386
  0
LINE
  8
0
 10
3.40622
 20
7.2386
 11
3.10011
 21
7.37489
  0
LINE
  8
0
 10
3.10011
 20
7.37489
 11
2.78857
 21
7.49825
  0
LINE
  8
0
 10
2.78857
 20
7.49825
 11
2.47212
 21
7.60844
  0
LINE
  8
0
 10
2.47212
 20
7.60844
 11
2.15135
 21
7.70529
  0
LINE
  8
0
 10
2.15135
 20
7.70529
 11
1.8268
 21
7.78862
  0
LINE
  8
0
 10
1.8268
 20
7.78862
 11
1.49904
 21
7.85829
  0
LINE
  8
0
 10
1.49904
 20
7.85829
 11
1.16866
 21
7.91417
  0
LINE
  8
0
 10
1.16866
 20
7.91417
 11
0.994507
 21
7.93617
  0
LINE
  8
0
 10
0.994507
 20
7.93617
 11
0.994507
 21
7.89546
  0
LINE
  8
0
 10
0.994507
 20
7.89546
 11
0.95105
 21
7.69098
  0
LINE
  8
0
 10
0.95105
 20
7.69098
 11
0.866013
 21
7.5
  0
LINE
  8
0
 10
0.866013
 20
7.5
 11
0.743134
 21
7.33086
  0
LINE
  8
0
 10
0.743134
 20
7.33086
 11
0.587784
 21
7.19098
  0
LINE
  8
0
 10
0.587784
 20
7.19098
 11
0.406723
 21
7.08644
  0
LINE
  8
0
 10
0.406723
 20
7.08644
 11
0.207901
 21
7.02185
  0
LINE
  8
0
 10
0.207901
 20
7.02185
 11
0
 21
7
  0
LINE
  8
0
 10
0
 20
7
 11
-0.207901
 21
7.02185
  0
LINE
  8
0
 10
-0.207901
 20
7.02185
 11
-0.406723
 21
7.08644
  0
LINE
  8
0
 10
-0.406723
 20
7.08644
 11
-0.587784
 21
7.19098
  0
LINE
  8
0
 10
-0.587784
 20
7.19098
 11
-0.743134
 21
7.33086
  0
LINE
  8
0
 10
-0.743134
 20
7.33086
 11
-0.866013
 21
7.5
  0
LINE
  8
0
 10
-0.866013
 20
7.5
 11
-0.95105
 21
7.69098
  0
LINE
  8
0
 10
-0.95105
 20
7.69098
 11
-0.994507
 21
7.89546
  0
LINE
  8
0
 10
-0.994507
 20
7.89546
 11
-0.994507
 21
7.93617
  0
LINE
  8
0
 10
-0.994507
 20
7.93617
 11
-1.16866
 21
7.91417
  0
LINE
  8
0
 10
-1.16866
 20
7.91417
 11
-1.49904
 21
7.85829
  0
LINE
  8
0
 10
-1.49904
 20
7.85829
 11
-1.8268
 21
7.78862
  0
LINE
  8
0
 10
-1.8268
 20
7.78862
 11
-2.15135
 21
7.70529
  0
LINE
  8
0
 10
-2.15135
 20
7.70529
 11
-2.47212
 21
7.60844
  0
LINE
  8
0
 10
-2.47212
 20
7.60844
 11
-2.78857
 21
7.49825
  0
LINE
  8
0
 10
-2.78857
 20
7.49825
 11
-3.10011
 21
7.37489
  0
LINE
  8
0
 10
-3.10011
 20
7.37489
 11
-3.40622
 21
7.2386
  0
LINE
  8
0
 10
-3.40622
 20
7.2386
 11
-3.70636
 21
7.08961
  0
LINE
  8
0
 10
-3.70636
 20
7.08961
 11
-4
 21
6.92819
  0
LINE
  8
0
 10
-4
 20
6.92819
 11
-4.28661
 21
6.75461
  0
LINE
  8
0
 10
-4.28661
 20
6.75461
 11
-4.5657
 21
6.56918
  0
LINE
  8
0
 10
-4.5657
 20
6.56918
 11
-4.83679
 21
6.37224
  0
LINE
  8
0
 10
-4.83679
 20
6.37224
 11
-5.09938
 21
6.16409
  0
LINE
  8
0
 10
-5.09938
 20
6.16409
 11
-5.35304
 21
5.94514
  0
LINE
  8
0
 10
-5.35304
 20
5.94514
 11
-5.59731
 21
5.71577
  0
LINE
  8
0
 10
-5.59731
 20
5.71577
 11
-5.83174
 21
5.47636
  0
LINE
  8
0
 10
-5.83174
 20
5.47636
 11
-6.05595
 21
5.22736
  0
LINE
  8
0
 10
-6.05595
 20
5.22736
 11
-6.26955
 21
4.96918
  0
LINE
  8
0
 10
-6.26955
 20
4.96918
 11
-6.47212
 21
4.70227
  0
LINE
  8
0
 10
-6.47212
 20
4.70227
 11
-6.66336
 21
4.42712
  0
LINE
  8
0
 10
-6.66336
 20
4.42712
 11
-6.84291
 21
4.14421
  0
LINE
  8
0
 10
-6.84291
 20
4.14421
 11
-7.01045
 21
3.85402
  0
LINE
  8
0
 10
-7.01045
 20
3.85402
 11
-7.16568
 21
3.55707
  0
LINE
  8
0
 10
-7.16568
 20
3.55707
 11
-7.30835
 21
3.25389
  0
LINE
  8
0
 10
-7.30835
 20
3.25389
 11
-7.4382
 21
2.94499
  0
LINE
  8
0
 10
-7.4382
 20
2.94499
 11
-7.55501
 21
2.63092
  0
LINE
  8
0
 10
-7.55501
 20
2.63092
 11
-7.65855
 21
2.31224
  0
LINE
  8
0
 10
-7.65855
 20
2.31224
 11
-7.74866
 21
1.98952
  0
LINE
  8
0
 10
-7.74866
 20
1.98952
 11
-7.82518
 21
1.66328
  0
LINE
  8
0
 10
-7.82518
 20
1.66328
 11
-7.88795
 21
1.33414
  0
LINE
  8
0
 10
-7.88795
 20
1.33414
 11
-7.93776
 21
0.994507
  0
LINE
  8
0
 10
-7.93776
 20
0.994507
 11
-7.89546
 21
0.994507
  0
LINE
  8
0
 10
-7.89546
 20
0.994507
 11
-7.69098
 21
0.95105
  0
LINE
  8
0
 10
-7.69098
 20
0.95105
 11
-7.5
 21
0.866013
  0
LINE
  8
0
 10
-7.5
 20
0.866013
 11
-7.33086
 21
0.743134
  0
LINE
  8
0
 10
-7.33086
 20
0.743134
 11
-7.19098
 21
0.587784
  0
LINE
  8
0
 10
-7.19098
 20
0.587784
 11
-7.08644
 21
0.406723
  0
LINE
  8
0
 10
-7.08644
 20
0.406723
 11
-7.02185
 21
0.207901
  0
LINE
  8
0
 10
-7.02185
 20
0.207901
 11
-7
 21
0
  0
LINE
  8
0
 10
-7
 20
0
 11
-7.02185
 21
-0.207901
  0
LINE
  8
0
 10
-7.02185
 20
-0.207901
 11
-7.08644
 21
-0.406723
  0
LINE
  8
0
 10
-7.08644
 20
-0.406723
 11
-7.19098
 21
-0.587784
  0
LINE
  8
0
 10
-7.19098
 20
-0.587784
 11
-7.33086
 21
-0.743134
  0
LINE
  8
0
 10
-7.33086
 20
-0.743134
 11
-7.5
 21
-0.866013
  0
LINE
  8
0
 10
-7.5
 20
-0.866013
 11
-7.69098
 21
-0.95105
  0
LINE
  8
0
 10
-7.69098
 20
-0.95105
 11
-7.89546
 21
-0.994507
  0
LINE
  8
0
 10
-7.89546
 20
-0.994507
 11
-7.93776
 21
-0.994507
  0
LINE
  8
0
 10
-7.93776
 20
-0.994507
 11
-7.88795
 21
-1.33414
  0
LINE
  8
0
 10
-7.88795
 20
-1.33414
 11
-7.82518
 21
-1.66328
  0
LINE
  8
0
 10
-7.82518
 20
-1.66328
 11
-7.74866
 21
-1.98952
  0
LINE
  8
0
 10
-7.74866
 20
-1.98952
 11
-7.65855
 21
-2.31224
  0
LINE
  8
0
 10
-7.65855
 20
-2.31224
 11
-7.55501
 21
-2.63092
  0
LINE
  8
0
 10
-7.55501
 20
-2.63092
 11
-7.4382
 21
-2.94499
  0
LINE
  8
0
 10
-7.4382
 20
-2.94499
 11
-7.30835
 21
-3.25389
  0
LINE
  8
0
 10
-7.30835
 20
-3.25389
 11
-7.16568
 21
-3.55707
  0
LINE
  8
0
 10
-7.16568
 20
-3.55707
 11
-7.01045
 21
-3.85402
  0
LINE
  8
0
 10
-7.01045
 20
-3.85402
 11
-6.84291
 21
-4.14421
  0
LINE
  8
0
 10
-6.84291
 20
-4.14421
 11
-6.66336
 21
-4.42712
  0
LINE
  8
0
 10
-6.66336
 20
-4.42712
 11
-6.47212
 21
-4.70227
  0
LINE
  8
0
 10
-6.47212
 20
-4.70227
 11
-6.26955
 21
-4.96918
  0
LINE
  8
0
 10
-6.26955
 20
-4.96918
 11
-6.05595
 21
-5.22736
  0
LINE
  8
0
 10
-6.05595
 20
-5.22736
 11
-5.83174
 21
-5.47636
  0
LINE
  8
0
 10
-5.83174
 20
-5.47636
 11
-5.59731
 21
-5.71577
  0
LINE
  8
0
 10
-5.59731
 20
-5.71577
 11
-5.35304
 21
-5.94514
  0
LINE
  8
0
 10
-5.35304
 20
-5.94514
 11
-5.09938
 21
-6.16409
  0
LINE
  8
0
 10
-5.09938
 20
-6.16409
 11
-4.83679
 21
-6.37224
  0
LINE
  8
0
 10
-4.83679
 20
-6.37224
 11
-4.5657
 21
-6.56918
  0
LINE
  8
0
 10
-4.5657
 20
-6.56918
 11
-4.28661
 21
-6.75461
  0
LINE
  8
0
 10
-4.28661
 20
-6.75461
 11
-3.99998
 21
-6.92819
  0
LINE
  8
0
 10
-3.99998
 20
-6.92819
 11
-3.70636
 21
-7.08961
  0
LINE
  8
0
 10
-3.70636
 20
-7.08961
 11
-3.40622
 21
-7.2386
  0
LINE
  8
0
 10
-3.40622
 20
-7.2386
 11
-3.10011
 21
-7.37489
  0
LINE
  8
0
 10
-3.10011
 20
-7.37489
 11
-2.78857
 21
-7.49825
  0
LINE
  8
0
 10
-2.78857
 20
-7.49825
 11
-2.47212
 21
-7.60844
  0
LINE
  8
0
 10
-2.47212
 20
-7.60844
 11
-2.15135
 21
-7.70529
  0
LINE
  8
0
 10
-2.15135
 20
-7.70529
 11
-1.8268
 21
-7.78862
  0
LINE
  8
0
 10
-1.8268
 20
-7.78862
 11
-1.49904
 21
-7.85829
  0
LINE
  8
0
 10
-1.49904
 20
-7.85829
 11
-1.16866
 21
-7.91417
  0
LINE
  8
0
 10
-1.16866
 20
-7.91417
 11
-0.994507
 21
-7.93617
  0
LINE
  8
0
 10
-0.994507
 20
-7.93617
 11
-0.994507
 21
-7.89546
  0
LINE
  8
0
 10
-0.994507
 20
-7.89546
 11
-0.95105
 21
-7.69098
  0
LINE
  8
0
 10
-0.95105
 20
-7.69098
 11
-0.866013
 21
-7.5
  0
LINE
  8
0
 10
-0.866013
 20
-7.5
 11
-0.743134
 21
-7.33086
  0
LINE
  8
0
 10
-0.743134
 20
-7.33086
 11
-0.587784
 21
-7.19098
  0
LINE
  8
0
 10
-0.587784
 20
-7.19098
 11
-0.406723
 21
-7.08644
  0
LINE
  8
0
 10
-0.406723
 20
-7.08644
 11
-0.207901
 21
-7.02185
  0
LINE
  8
0
 10
-0.207901
 20
-7.02185
 11
0
 21
-7
  0
LINE
  8
0
 10
0
 20
-7
 11
0.207901
 21
-7.02185
  0
LINE
  8
0
 10
0.207901
 20
-7.02185
 11
0.406723
 21
-7.08644
  0
LINE
  8
0
 10
0.406723
 20
-7.08644
 11
0.587784
 21
-7.19098
  0
LINE
  8
0
 10
0.587784
 20
-7.19098
 11
0.743134
 21
-7.33086
  0
LINE
  8
0
 10
0.743134
 20
-7.33086
 11
0.866013
 21
-7.5
  0
LINE
  8
0
 10
0.866013
 20
-7.5
 11
0.95105
 21
-7.69098
  0
LINE
  8
0
 10
0.95105
 20
-7.69098
 11
0.994507
 21
-7.89546
  0
LINE
  8
0
 10
0.994507
 20
-7.89546
 11
0.994507
 21
-7.93617
  0
LINE
  8
0
 10
0.994507
 20
-7.93617
 11
1.16866
 21
-7.91417
  0
LINE
  8
0
 10
-0.313583
 20
-2.98355
 11
-0.927048
 21
-2.85316
  0
LINE
  8
0
 10
-0.927048
 20
-2.85316
 11
-1.5
 21
-2.59807
  0
LINE
  8
0
 10
-1.5
 20
-2.59807
 11
-2.00739
 21
-2.22943
  0
LINE
  8
0
 10
-2.00739
 20
-2.22943
 11
-2.42705
 21
-1.76335
  0
LINE
  8
0
 10
-2.42705
 20
-1.76335
 11
-2.74063
 21
-1.2202
  0
LINE
  8
0
 10
-2.74063
 20
-1.2202
 11
-2.93443
 21
-0.623734
  0
LINE
  8
0
 10
-2.93443
 20
-0.623734
 11
-3
 21
0
  0
LINE
  8
0
 10
-3
 20
0
 11
-2.93443
 21
0.623734
  0
LINE
  8
0
 10
-2.93443
 20
0.623734
 11
-2.74063
 21
1.2202
  0
LINE
  8
0
 10
-2.74063
 20
1.2202
 11
-2.42705
 21
1.76335
  0
LINE
  8
0
 10
-2.42705
 20
1.76335
 11
-2.00739
 21
2.22943
  0
LINE
  8
0
 10
-2.00739
 20
2.22943
 11
-1.49998
 21
2.59807
  0
LINE
  8
0
 10
-1.49998
 20
2.59807
 11
-0.927048
 21
2.85316
  0
LINE
  8
0
 10
-0.927048
 20
2.85316
 11
-0.313583
 21
2.98355
  0
LINE
  8
0
 10
-0.313583
 20
2.98355
 11
0.313583
 21
2.98355
  0
LINE
  8
0
 10
0.313583
 20
2.98355
 11
0.927048
 21
2.85316
  0
LINE
  8
0
 10
0.927048
 20
2.85316
 11
1.5
 21
2.59807
  0
LINE
  8
0
 10
1.5
 20
2.59807
 11
2.00739
 21
2.22943
  0
LINE
  8
0
 10
2.00739
 20
2.22943
 11
2.42705
 21
1.76335
  0
LINE
  8
0
 10
2.42705
 20
1.76335
 11
2.74063
 21
1.2202
  0
LINE
  8
0
 10
2.74063
 20
1.2202
 11
2.93443
 21
0.623734
  0
LINE
  8
0
 10
2.93443
 20
0.623734
 11
3
 21
0
  0
LINE
  8
0
 10
3
 20
0
 11
2.93443
 21
-0.623734
  0
LINE
  8
0
 10
2.93443
 20
-0.623734
 11
2.74063
 21
-1.2202
  0
LINE
  8
0
 10
2.74063
 20
-1.2202
 11
2.42705
 21
-1.76335
  0
LINE
  8
0
 10
2.42705
 20
-1.76335
 11
2.00739
 21
-2.22943
  0
LINE
  8
0
 10
2.00739
 20
-2.22943
 11
1.5
 21
-2.59807
  0
LINE
  8
0
 10
1.5
 20
-2.59807
 11
0.927048
 21
-2.85316
  0
LINE
  8
0
 10
0.927048
 20
-2.85316
 11
0.313583
 21
-2.98355
  0
LINE
  8
0
 10
0.313583
 20
-2.98355
 11
-0.313583
 21
-2.98355
  0
ENDSEC
  0
SECTION
  2
OBJECTS
  0
DICTIONARY
  0
ENDSEC
  0
EOF
