<?xml version="1.0" encoding="UTF-8" standalone="no"?>
<svg
   xmlns:dc="http://purl.org/dc/elements/1.1/"
   xmlns:cc="http://creativecommons.org/ns#"
   xmlns:rdf="http://www.w3.org/1999/02/22-rdf-syntax-ns#"
   xmlns:svg="http://www.w3.org/2000/svg"
   xmlns="http://www.w3.org/2000/svg"
   xmlns:sodipodi="http://sodipodi.sourceforge.net/DTD/sodipodi-0.dtd"
   xmlns:inkscape="http://www.inkscape.org/namespaces/inkscape"
   width="744.094488189"
   height="1052.36220472"
   id="svg11017"
   version="1.1"
   inkscape:version="0.91 r13725"
   sodipodi:docname="driver.svg">
  <metadata
     id="metadata11721">
    <rdf:RDF>
      <cc:Work
         rdf:about="">
        <dc:format>image/svg+xml</dc:format>
        <dc:type
           rdf:resource="http://purl.org/dc/dcmitype/StillImage" />
        <dc:title></dc:title>
      </cc:Work>
    </rdf:RDF>
  </metadata>
  <sodipodi:namedview
     pagecolor="#ffffff"
     bordercolor="#666666"
     borderopacity="1"
     objecttolerance="10"
     gridtolerance="10"
     guidetolerance="10"
     inkscape:pageopacity="0"
     inkscape:pageshadow="2"
     inkscape:window-width="2880"
     inkscape:window-height="1711"
     id="namedview11719"
     showgrid="false"
     inkscape:zoom="14.352473"
     inkscape:cx="10.699429"
     inkscape:cy="-11.235695"
     inkscape:window-x="-11"
     inkscape:window-y="-11"
     inkscape:window-maximized="1"
     inkscape:current-layer="g11033" />
  <desc
     id="desc11019">C:\Share\Robotics\SimpleBot\Parts\55r\driver.dxf - scale = 1.000000, origin = (0.000000, 0.000000), auto = False</desc>
  <defs
     id="defs11021">
    <marker
       refY="0.0"
       refX="0.0"
       style="overflow:visible"
       id="DistanceX"
       orient="auto">
      <path
         style="stroke:#000000; stroke-width:0.5"
         d="M 3,-3 L -3,3 M 0,-5 L  0,5"
         id="path11024" />
    </marker>
    <pattern
       height="8"
       width="8"
       patternUnits="userSpaceOnUse"
       y="0"
       x="0"
       id="Hatch">
      <path
         linecap="square"
         stroke="#000000"
         stroke-width="0.25"
         d="M8 4 l-4,4"
         id="path11027" />
      <path
         linecap="square"
         stroke="#000000"
         stroke-width="0.25"
         d="M6 2 l-4,4"
         id="path11029" />
      <path
         linecap="square"
         stroke="#000000"
         stroke-width="0.25"
         d="M4 0 l-4,4"
         id="path11031" />
    </pattern>
  </defs>
  <g
     inkscape:label="0"
     inkscape:groupmode="layer"
     id="g11033">
    <path
       style="fill:none;stroke:#0000ff;stroke-opacity:1"
       d="m -32.105445,1042.8779 -0.162957,-0.088 -0.33548,1.2015 -0.321909,1.3726 -0.264225,1.385 -0.205937,1.3947 -0.07505,0.714 0.18,-0.019 1.401236,0.4553 0.864,0.7779 0.308374,-0.3425 0.59928,-0.4354 0.676736,-0.3014 0.724571,-0.1539 0.740764,0 0.724535,0.1539 0.676701,0.3014 0.599315,0.4354 0.495638,0.5504 0.370417,0.6416 0.228862,0.7044 0.07742,0.7367 -0.07742,0.7367 -0.228862,0.7044 -0.370417,0.6416 -0.495638,0.5505 -0.599315,0.4354 -0.676701,0.3013 -0.724535,0.1539 -0.740764,0 -0.724571,-0.1539 -0.676736,-0.3013 -0.59928,-0.4354 -0.308374,-0.3426 -0.864,0.778 -1.401236,0.4552 -0.18,-0.019 0.07505,0.714 0.205937,1.3947 0.264225,1.385 0.321909,1.3726 0.33548,1.2015 0.162957,-0.088 1.468878,-0.1156 1.38887,0.4918 1.068732,1.0142 0.563882,1.3612 -0.03855,1.4729 -0.634323,1.3299 -1.120358,0.9569 -0.177413,0.053 0.08801,0.1683 0.704977,1.2211 0.755433,1.1905 0.804685,1.1577 0.852413,1.123 0.233114,0.2818 0.115016,-0.142 1.312831,-0.6688 1.471358,-0.077 1.375512,0.528 1.041874,1.0419 0.528024,1.3755 -0.07717,1.4713 -0.668834,1.3129 -0.142264,0.1151 0.839126,0.6651 1.140626,0.8287 1.174323,0.7802 1.206035,0.7304 0.783532,0.4308 0.05155,-0.1741 0.95687,-1.1203 1.329874,-0.6344 1.472882,-0.038 1.361232,0.5639 1.014201,1.0687 0.491846,1.3889 -0.115618,1.4689 -0.086563,0.1593 0.518634,0.1566 1.365591,0.3506 1.37909,0.2932 1.390146,0.2351 1.413202,0.1779 -0.01968,-0.1872 0.455294,-1.4012 0.777912,-0.864 -0.342514,-0.3084 -0.435398,-0.5993 -0.301312,-0.6767 -0.153982,-0.7246 0,-0.7408 0.153982,-0.7245 0.301312,-0.6767 0.435398,-0.5993 0.550453,-0.4956 0.641555,-0.3705 0.704487,-0.2288 0.736657,-0.077 0.736657,0.077 0.704487,0.2288 0.641555,0.3705 0.550453,0.4956 0.435398,0.5993 0.301312,0.6767 0.153982,0.7245 0,0.7408 -0.153982,0.7246 -0.301312,0.6767 -0.435398,0.5993 -0.342514,0.3084 0.777912,0.864 0.455294,1.4012 -0.01968,0.1872 1.413202,-0.1779 1.390146,-0.2351 1.37909,-0.2932 1.365591,-0.3506 0.518634,-0.1566 -0.086563,-0.1593 -0.115618,-1.4689 0.491846,-1.3889 1.014201,-1.0687 1.361232,-0.5639 1.472882,0.038 1.329874,0.6344 0.95687,1.1203 0.05155,0.1741 0.783532,-0.4308 1.206035,-0.7304 1.174323,-0.7802 1.140626,-0.8287 0.839126,-0.6651 -0.142264,-0.1151 -0.668834,-1.3129 -0.07717,-1.4713 0.528024,-1.3755 1.041874,-1.0419 1.375512,-0.528 1.471358,0.077 1.312831,0.6688 0.115016,0.142 0.233114,-0.2818 0.852413,-1.123 0.804685,-1.1577 0.755433,-1.1905 0.704977,-1.2211 0.08801,-0.1683 -0.177413,-0.053 -1.120358,-0.9569 -0.634323,-1.3299 -0.03855,-1.4729 0.563882,-1.3612 1.068732,-1.0142 1.38887,-0.4918 1.468878,0.1156 0.162957,0.088 0.33548,-1.2015 0.321909,-1.3726 0.264225,-1.385 0.205937,-1.3947 0.07505,-0.714 -0.18,0.019 -1.401236,-0.4552 -0.864,-0.778 -0.308374,0.3426 -0.59928,0.4354 -0.676736,0.3013 -0.724571,0.1539 -0.740764,0 -0.724535,-0.1539 -0.676701,-0.3013 -0.599315,-0.4354 -0.495638,-0.5505 -0.370417,-0.6416 -0.228862,-0.7044 -0.07742,-0.7367 0.07742,-0.7367 0.228862,-0.7044 0.370417,-0.6416 0.495638,-0.5504 0.599315,-0.4354 0.676701,-0.3014 0.724535,-0.1539 0.740764,0 0.724571,0.1539 0.676736,0.3014 0.59928,0.4354 0.308374,0.3425 0.864,-0.7779 1.401236,-0.4553 0.18,0.019 -0.07505,-0.714 -0.205937,-1.3947 -0.264225,-1.385 -0.321909,-1.3726 -0.33548,-1.2015 -0.162957,0.088 -1.468878,0.1157 -1.38887,-0.4919 -1.068732,-1.0142 -0.563882,-1.3612 0.03855,-1.4729 0.634323,-1.3299 1.120358,-0.9568 0.177413,-0.053 -0.08801,-0.1683 -0.704977,-1.2211 -0.755433,-1.1904 -0.804685,-1.1577 -0.852413,-1.1231 -0.233114,-0.2818 -0.115016,0.142 -1.312831,0.6689 -1.471358,0.077 -1.375512,-0.528 -1.041874,-1.0419 -0.528024,-1.3755 0.07717,-1.4713 0.668834,-1.3129 0.142264,-0.1151 -0.839126,-0.6651 -1.140626,-0.8287 -1.174323,-0.7802 -1.206035,-0.7304 -0.783532,-0.4308 -0.05155,0.1741 -0.95687,1.1203 -1.329874,0.6344 -1.472882,0.039 -1.361232,-0.5639 -1.014201,-1.0687 -0.491846,-1.3889 0.115618,-1.4688 0.086563,-0.1594 -0.518634,-0.1566 -1.365591,-0.3506 -1.37909,-0.2932 -1.390146,-0.2351 -1.413202,-0.1779 0.01968,0.1872 -0.455294,1.4012 -0.777912,0.864 0.342514,0.3084 0.435398,0.5993 0.301312,0.6767 0.153982,0.7246 0,0.7408 -0.153982,0.7245 -0.301312,0.6767 -0.435398,0.5993 -0.550453,0.4957 -0.641555,0.3704 -0.704487,0.2288 -0.736657,0.077 -0.736657,-0.077 -0.704487,-0.2288 -0.641555,-0.3704 -0.550453,-0.4957 -0.435398,-0.5993 -0.301312,-0.6767 -0.153982,-0.7245 0,-0.7408 0.153982,-0.7246 0.301312,-0.6767 0.435398,-0.5993 0.342514,-0.3084 -0.777912,-0.864 -0.455294,-1.4012 0.01968,-0.1872 -1.413202,0.1779 -1.390146,0.2351 -1.37909,0.2932 -1.365591,0.3506 -0.518634,0.1566 0.086563,0.1594 0.115618,1.4688 -0.491846,1.3889 -1.014201,1.0687 -1.361232,0.5639 -1.472882,-0.039 -1.329874,-0.6344 -0.95687,-1.1203 -0.05155,-0.1741 -0.783603,0.4308 -1.205964,0.7304 -1.174323,0.7802 -1.140626,0.8287 -0.839126,0.6651 0.142264,0.1151 0.668834,1.3129 0.07717,1.4713 -0.528024,1.3755 -1.041874,1.0419 -1.375512,0.528 -1.471358,-0.077 -1.312831,-0.6689 -0.115016,-0.142 -0.233114,0.2818 -0.852413,1.1231 -0.804685,1.1577 -0.755433,1.1904 -0.704977,1.2211 -0.08801,0.1683 0.177413,0.053 1.120358,0.9568 0.634323,1.3299 0.03855,1.4729 -0.563882,1.3612 -1.068732,1.0142 -1.38887,0.4919 z"
       id="path11429"
       inkscape:connector-curvature="0"
       sodipodi:nodetypes="ccccccccccccccccccccccccccccccccccccccccccccccccccccccccccccccccccccccccccccccccccccccccccccccccccccccccccccccccccccccccccccccccccccccccccccccccccccccccccccccccccccccccccccccccccccccccccccccccccccccccccccccccccccccccccccccccccccccccccccccccccccccccccccccccccccccccccccccccccccccccccccccccccccccccccccccccccccccccc" />
    <path
       style="fill:none;stroke:#ff0000;stroke-opacity:1"
       d="m 7.112799,1044.4627 1.486984,1.6514 1.111111,1.9246 0.686693,2.1134 0.232334,2.2101 -0.232334,2.2101 -0.686693,2.1134 -1.111111,1.9246 -1.486984,1.6515 -1.797838,1.3062 -2.030145,0.9038 -2.173695,0.462 -2.222242,0 -2.173695,-0.462 -2.030145,-0.9038 -1.797838,-1.3062 -1.486984,-1.6515 -1.111111,-1.9246 -0.686693,-2.1134 -0.232334,-2.2101 0.232334,-2.2101 0.686693,-2.1134 1.111111,-1.9246 1.486984,-1.6514 1.797909,-1.3063 2.030074,-0.9038 2.173695,-0.462 2.222242,0 2.173695,0.462 2.030145,0.9038 z"
       id="path11693"
       inkscape:connector-curvature="0"
       sodipodi:nodetypes="ccccccccccccccccccccccccccccccc" />
  </g>
</svg>
