  0
SECTION
  2
BLOCKS
  0
ENDSEC
  0
SECTION
  2
ENTITIES
  0
LINE
  8
0
 10
0.416977
 20
-13.2684
 11
0.833542
 21
-13.2488
  0
LINE
  8
0
 10
0.833542
 20
-13.2488
 11
1.24928
 21
-13.2161
  0
LINE
  8
0
 10
1.24928
 20
-13.2161
 11
1.66379
 21
-13.1703
  0
LINE
  8
0
 10
1.66379
 20
-13.1703
 11
2.07666
 21
-13.1116
  0
LINE
  8
0
 10
2.07666
 20
-13.1116
 11
2.48747
 21
-13.0399
  0
LINE
  8
0
 10
2.48747
 20
-13.0399
 11
2.89584
 21
-12.9553
  0
LINE
  8
0
 10
2.89584
 20
-12.9553
 11
3.30135
 21
-12.8579
  0
LINE
  8
0
 10
3.30135
 20
-12.8579
 11
3.7036
 21
-12.7479
  0
LINE
  8
0
 10
3.7036
 20
-12.7479
 11
4.10219
 21
-12.6253
  0
LINE
  8
0
 10
4.10219
 20
-12.6253
 11
4.49673
 21
-12.4902
  0
LINE
  8
0
 10
4.49673
 20
-12.4902
 11
4.88684
 21
-12.3428
  0
LINE
  8
0
 10
4.88684
 20
-12.3428
 11
5.27213
 21
-12.1832
  0
LINE
  8
0
 10
5.27213
 20
-12.1832
 11
5.65221
 21
-12.0116
  0
LINE
  8
0
 10
5.65221
 20
-12.0116
 11
6.02672
 21
-11.8281
  0
LINE
  8
0
 10
6.02672
 20
-11.8281
 11
6.39528
 21
-11.633
  0
LINE
  8
0
 10
6.39528
 20
-11.633
 11
6.75752
 21
-11.4263
  0
LINE
  8
0
 10
6.75752
 20
-11.4263
 11
7.1131
 21
-11.2085
  0
LINE
  8
0
 10
7.1131
 20
-11.2085
 11
7.46165
 21
-10.9795
  0
LINE
  8
0
 10
7.46165
 20
-10.9795
 11
7.80284
 21
-10.7397
  0
LINE
  8
0
 10
7.80284
 20
-10.7397
 11
8.13634
 21
-10.4893
  0
LINE
  8
0
 10
8.13634
 20
-10.4893
 11
8.46179
 21
-10.2286
  0
LINE
  8
0
 10
8.46179
 20
-10.2286
 11
8.7789
 21
-9.95772
  0
LINE
  8
0
 10
8.7789
 20
-9.95772
 11
9.08736
 21
-9.67705
  0
LINE
  8
0
 10
9.08736
 20
-9.67705
 11
9.38684
 21
-9.38684
  0
LINE
  8
0
 10
9.38684
 20
-9.38684
 11
9.67705
 21
-9.08736
  0
LINE
  8
0
 10
9.67705
 20
-9.08736
 11
9.95772
 21
-8.7789
  0
LINE
  8
0
 10
9.95772
 20
-8.7789
 11
10.2286
 21
-8.46179
  0
LINE
  8
0
 10
10.2286
 20
-8.46179
 11
10.4893
 21
-8.13634
  0
LINE
  8
0
 10
10.4893
 20
-8.13634
 11
10.7397
 21
-7.80284
  0
LINE
  8
0
 10
10.7397
 20
-7.80284
 11
10.9795
 21
-7.46165
  0
LINE
  8
0
 10
10.9795
 20
-7.46165
 11
11.2085
 21
-7.1131
  0
LINE
  8
0
 10
11.2085
 20
-7.1131
 11
11.4263
 21
-6.75752
  0
LINE
  8
0
 10
11.4263
 20
-6.75752
 11
11.633
 21
-6.39528
  0
LINE
  8
0
 10
11.633
 20
-6.39528
 11
11.8281
 21
-6.02672
  0
LINE
  8
0
 10
11.8281
 20
-6.02672
 11
12.0116
 21
-5.65221
  0
LINE
  8
0
 10
12.0116
 20
-5.65221
 11
12.1832
 21
-5.27213
  0
LINE
  8
0
 10
12.1832
 20
-5.27213
 11
12.3428
 21
-4.88684
  0
LINE
  8
0
 10
12.3428
 20
-4.88684
 11
12.4902
 21
-4.49673
  0
LINE
  8
0
 10
12.4902
 20
-4.49673
 11
12.6253
 21
-4.10219
  0
LINE
  8
0
 10
12.6253
 20
-4.10219
 11
12.7479
 21
-3.7036
  0
LINE
  8
0
 10
12.7479
 20
-3.7036
 11
12.8579
 21
-3.30135
  0
LINE
  8
0
 10
12.8579
 20
-3.30135
 11
12.9553
 21
-2.89584
  0
LINE
  8
0
 10
12.9553
 20
-2.89584
 11
13.0399
 21
-2.48747
  0
LINE
  8
0
 10
13.0399
 20
-2.48747
 11
13.1116
 21
-2.07666
  0
LINE
  8
0
 10
13.1116
 20
-2.07666
 11
13.1703
 21
-1.66379
  0
LINE
  8
0
 10
13.1703
 20
-1.66379
 11
13.2161
 21
-1.24928
  0
LINE
  8
0
 10
13.2161
 20
-1.24928
 11
13.2488
 21
-0.833542
  0
LINE
  8
0
 10
13.2488
 20
-0.833542
 11
13.2684
 21
-0.416977
  0
LINE
  8
0
 10
13.2684
 20
-0.416977
 11
13.275
 21
0
  0
LINE
  8
0
 10
13.275
 20
0
 11
13.2684
 21
0.416977
  0
LINE
  8
0
 10
13.2684
 20
0.416977
 11
13.2488
 21
0.833542
  0
LINE
  8
0
 10
13.2488
 20
0.833542
 11
13.2161
 21
1.24928
  0
LINE
  8
0
 10
13.2161
 20
1.24928
 11
13.1703
 21
1.66379
  0
LINE
  8
0
 10
13.1703
 20
1.66379
 11
13.1116
 21
2.07666
  0
LINE
  8
0
 10
13.1116
 20
2.07666
 11
13.0399
 21
2.48747
  0
LINE
  8
0
 10
13.0399
 20
2.48747
 11
12.9553
 21
2.89584
  0
LINE
  8
0
 10
12.9553
 20
2.89584
 11
12.8579
 21
3.30135
  0
LINE
  8
0
 10
12.8579
 20
3.30135
 11
12.7479
 21
3.7036
  0
LINE
  8
0
 10
12.7479
 20
3.7036
 11
12.6253
 21
4.10219
  0
LINE
  8
0
 10
12.6253
 20
4.10219
 11
12.4902
 21
4.49673
  0
LINE
  8
0
 10
12.4902
 20
4.49673
 11
12.3428
 21
4.88684
  0
LINE
  8
0
 10
12.3428
 20
4.88684
 11
12.1832
 21
5.27213
  0
LINE
  8
0
 10
12.1832
 20
5.27213
 11
12.0116
 21
5.65221
  0
LINE
  8
0
 10
12.0116
 20
5.65221
 11
11.8281
 21
6.02672
  0
LINE
  8
0
 10
11.8281
 20
6.02672
 11
11.633
 21
6.39528
  0
LINE
  8
0
 10
11.633
 20
6.39528
 11
11.4263
 21
6.75752
  0
LINE
  8
0
 10
11.4263
 20
6.75752
 11
11.2085
 21
7.1131
  0
LINE
  8
0
 10
11.2085
 20
7.1131
 11
10.9795
 21
7.46165
  0
LINE
  8
0
 10
10.9795
 20
7.46165
 11
10.7397
 21
7.80284
  0
LINE
  8
0
 10
10.7397
 20
7.80284
 11
10.4893
 21
8.13634
  0
LINE
  8
0
 10
10.4893
 20
8.13634
 11
10.2286
 21
8.46179
  0
LINE
  8
0
 10
10.2286
 20
8.46179
 11
9.95772
 21
8.7789
  0
LINE
  8
0
 10
9.95772
 20
8.7789
 11
9.67705
 21
9.08736
  0
LINE
  8
0
 10
9.67705
 20
9.08736
 11
9.38684
 21
9.38684
  0
LINE
  8
0
 10
9.38684
 20
9.38684
 11
9.08736
 21
9.67705
  0
LINE
  8
0
 10
9.08736
 20
9.67705
 11
8.7789
 21
9.95772
  0
LINE
  8
0
 10
8.7789
 20
9.95772
 11
8.46179
 21
10.2286
  0
LINE
  8
0
 10
8.46179
 20
10.2286
 11
8.13634
 21
10.4893
  0
LINE
  8
0
 10
8.13634
 20
10.4893
 11
7.80284
 21
10.7397
  0
LINE
  8
0
 10
7.80284
 20
10.7397
 11
7.46165
 21
10.9795
  0
LINE
  8
0
 10
7.46165
 20
10.9795
 11
7.1131
 21
11.2085
  0
LINE
  8
0
 10
7.1131
 20
11.2085
 11
6.75752
 21
11.4263
  0
LINE
  8
0
 10
6.75752
 20
11.4263
 11
6.39528
 21
11.633
  0
LINE
  8
0
 10
6.39528
 20
11.633
 11
6.02672
 21
11.8281
  0
LINE
  8
0
 10
6.02672
 20
11.8281
 11
5.65221
 21
12.0116
  0
LINE
  8
0
 10
5.65221
 20
12.0116
 11
5.27213
 21
12.1832
  0
LINE
  8
0
 10
5.27213
 20
12.1832
 11
4.88684
 21
12.3428
  0
LINE
  8
0
 10
4.88684
 20
12.3428
 11
4.49673
 21
12.4902
  0
LINE
  8
0
 10
4.49673
 20
12.4902
 11
4.10219
 21
12.6253
  0
LINE
  8
0
 10
4.10219
 20
12.6253
 11
3.7036
 21
12.7479
  0
LINE
  8
0
 10
3.7036
 20
12.7479
 11
3.30135
 21
12.8579
  0
LINE
  8
0
 10
3.30135
 20
12.8579
 11
2.89584
 21
12.9553
  0
LINE
  8
0
 10
2.89584
 20
12.9553
 11
2.48747
 21
13.0399
  0
LINE
  8
0
 10
2.48747
 20
13.0399
 11
2.07666
 21
13.1116
  0
LINE
  8
0
 10
2.07666
 20
13.1116
 11
1.66379
 21
13.1703
  0
LINE
  8
0
 10
1.66379
 20
13.1703
 11
1.24928
 21
13.2161
  0
LINE
  8
0
 10
1.24928
 20
13.2161
 11
0.833542
 21
13.2488
  0
LINE
  8
0
 10
0.833542
 20
13.2488
 11
0.416977
 21
13.2684
  0
LINE
  8
0
 10
0.416977
 20
13.2684
 11
0
 21
13.275
  0
LINE
  8
0
 10
0
 20
13.275
 11
-0.416977
 21
13.2684
  0
LINE
  8
0
 10
-0.416977
 20
13.2684
 11
-0.833542
 21
13.2488
  0
LINE
  8
0
 10
-0.833542
 20
13.2488
 11
-1.24928
 21
13.2161
  0
LINE
  8
0
 10
-1.24928
 20
13.2161
 11
-1.66379
 21
13.1703
  0
LINE
  8
0
 10
-1.66379
 20
13.1703
 11
-2.07666
 21
13.1116
  0
LINE
  8
0
 10
-2.07666
 20
13.1116
 11
-2.48747
 21
13.0399
  0
LINE
  8
0
 10
-2.48747
 20
13.0399
 11
-2.89584
 21
12.9553
  0
LINE
  8
0
 10
-2.89584
 20
12.9553
 11
-3.30135
 21
12.8579
  0
LINE
  8
0
 10
-3.30135
 20
12.8579
 11
-3.7036
 21
12.7479
  0
LINE
  8
0
 10
-3.7036
 20
12.7479
 11
-4.10219
 21
12.6253
  0
LINE
  8
0
 10
-4.10219
 20
12.6253
 11
-4.49673
 21
12.4902
  0
LINE
  8
0
 10
-4.49673
 20
12.4902
 11
-4.88684
 21
12.3428
  0
LINE
  8
0
 10
-4.88684
 20
12.3428
 11
-5.27213
 21
12.1832
  0
LINE
  8
0
 10
-5.27213
 20
12.1832
 11
-5.65221
 21
12.0116
  0
LINE
  8
0
 10
-5.65221
 20
12.0116
 11
-6.02672
 21
11.8281
  0
LINE
  8
0
 10
-6.02672
 20
11.8281
 11
-6.39528
 21
11.633
  0
LINE
  8
0
 10
-6.39528
 20
11.633
 11
-6.75752
 21
11.4263
  0
LINE
  8
0
 10
-6.75752
 20
11.4263
 11
-7.1131
 21
11.2085
  0
LINE
  8
0
 10
-7.1131
 20
11.2085
 11
-7.46165
 21
10.9795
  0
LINE
  8
0
 10
-7.46165
 20
10.9795
 11
-7.80284
 21
10.7397
  0
LINE
  8
0
 10
-7.80284
 20
10.7397
 11
-8.13634
 21
10.4893
  0
LINE
  8
0
 10
-8.13634
 20
10.4893
 11
-8.46179
 21
10.2286
  0
LINE
  8
0
 10
-8.46179
 20
10.2286
 11
-8.7789
 21
9.95772
  0
LINE
  8
0
 10
-8.7789
 20
9.95772
 11
-9.08736
 21
9.67705
  0
LINE
  8
0
 10
-9.08736
 20
9.67705
 11
-9.38684
 21
9.38684
  0
LINE
  8
0
 10
-9.38684
 20
9.38684
 11
-9.67705
 21
9.08736
  0
LINE
  8
0
 10
-9.67705
 20
9.08736
 11
-9.95772
 21
8.7789
  0
LINE
  8
0
 10
-9.95772
 20
8.7789
 11
-10.2286
 21
8.46179
  0
LINE
  8
0
 10
-10.2286
 20
8.46179
 11
-10.4893
 21
8.13634
  0
LINE
  8
0
 10
-10.4893
 20
8.13634
 11
-10.7397
 21
7.80284
  0
LINE
  8
0
 10
-10.7397
 20
7.80284
 11
-10.9795
 21
7.46165
  0
LINE
  8
0
 10
-10.9795
 20
7.46165
 11
-11.2085
 21
7.1131
  0
LINE
  8
0
 10
-11.2085
 20
7.1131
 11
-11.4263
 21
6.75752
  0
LINE
  8
0
 10
-11.4263
 20
6.75752
 11
-11.633
 21
6.39528
  0
LINE
  8
0
 10
-11.633
 20
6.39528
 11
-11.8281
 21
6.02672
  0
LINE
  8
0
 10
-11.8281
 20
6.02672
 11
-12.0116
 21
5.65221
  0
LINE
  8
0
 10
-12.0116
 20
5.65221
 11
-12.1832
 21
5.27213
  0
LINE
  8
0
 10
-12.1832
 20
5.27213
 11
-12.3428
 21
4.88684
  0
LINE
  8
0
 10
-12.3428
 20
4.88684
 11
-12.4902
 21
4.49673
  0
LINE
  8
0
 10
-12.4902
 20
4.49673
 11
-12.6253
 21
4.10219
  0
LINE
  8
0
 10
-12.6253
 20
4.10219
 11
-12.7479
 21
3.7036
  0
LINE
  8
0
 10
-12.7479
 20
3.7036
 11
-12.8579
 21
3.30135
  0
LINE
  8
0
 10
-12.8579
 20
3.30135
 11
-12.9553
 21
2.89584
  0
LINE
  8
0
 10
-12.9553
 20
2.89584
 11
-13.0399
 21
2.48747
  0
LINE
  8
0
 10
-13.0399
 20
2.48747
 11
-13.1116
 21
2.07666
  0
LINE
  8
0
 10
-13.1116
 20
2.07666
 11
-13.1703
 21
1.66379
  0
LINE
  8
0
 10
-13.1703
 20
1.66379
 11
-13.2161
 21
1.24928
  0
LINE
  8
0
 10
-13.2161
 20
1.24928
 11
-13.2488
 21
0.833542
  0
LINE
  8
0
 10
-13.2488
 20
0.833542
 11
-13.2684
 21
0.416977
  0
LINE
  8
0
 10
-13.2684
 20
0.416977
 11
-13.275
 21
0
  0
LINE
  8
0
 10
-13.275
 20
0
 11
-13.2684
 21
-0.416977
  0
LINE
  8
0
 10
-13.2684
 20
-0.416977
 11
-13.2488
 21
-0.833542
  0
LINE
  8
0
 10
-13.2488
 20
-0.833542
 11
-13.2161
 21
-1.24928
  0
LINE
  8
0
 10
-13.2161
 20
-1.24928
 11
-13.1703
 21
-1.66379
  0
LINE
  8
0
 10
-13.1703
 20
-1.66379
 11
-13.1116
 21
-2.07666
  0
LINE
  8
0
 10
-13.1116
 20
-2.07666
 11
-13.0399
 21
-2.48747
  0
LINE
  8
0
 10
-13.0399
 20
-2.48747
 11
-12.9553
 21
-2.89584
  0
LINE
  8
0
 10
-12.9553
 20
-2.89584
 11
-12.8579
 21
-3.30135
  0
LINE
  8
0
 10
-12.8579
 20
-3.30135
 11
-12.7479
 21
-3.7036
  0
LINE
  8
0
 10
-12.7479
 20
-3.7036
 11
-12.6253
 21
-4.10219
  0
LINE
  8
0
 10
-12.6253
 20
-4.10219
 11
-12.4902
 21
-4.49673
  0
LINE
  8
0
 10
-12.4902
 20
-4.49673
 11
-12.3428
 21
-4.88684
  0
LINE
  8
0
 10
-12.3428
 20
-4.88684
 11
-12.1832
 21
-5.27213
  0
LINE
  8
0
 10
-12.1832
 20
-5.27213
 11
-12.0116
 21
-5.65221
  0
LINE
  8
0
 10
-12.0116
 20
-5.65221
 11
-11.8281
 21
-6.02672
  0
LINE
  8
0
 10
-11.8281
 20
-6.02672
 11
-11.633
 21
-6.39528
  0
LINE
  8
0
 10
-11.633
 20
-6.39528
 11
-11.4263
 21
-6.75752
  0
LINE
  8
0
 10
-11.4263
 20
-6.75752
 11
-11.2085
 21
-7.1131
  0
LINE
  8
0
 10
-11.2085
 20
-7.1131
 11
-10.9795
 21
-7.46165
  0
LINE
  8
0
 10
-10.9795
 20
-7.46165
 11
-10.7397
 21
-7.80284
  0
LINE
  8
0
 10
-10.7397
 20
-7.80284
 11
-10.4893
 21
-8.13634
  0
LINE
  8
0
 10
-10.4893
 20
-8.13634
 11
-10.2286
 21
-8.46179
  0
LINE
  8
0
 10
-10.2286
 20
-8.46179
 11
-9.95772
 21
-8.7789
  0
LINE
  8
0
 10
-9.95772
 20
-8.7789
 11
-9.67705
 21
-9.08736
  0
LINE
  8
0
 10
-9.67705
 20
-9.08736
 11
-9.38684
 21
-9.38684
  0
LINE
  8
0
 10
-9.38684
 20
-9.38684
 11
-9.08736
 21
-9.67705
  0
LINE
  8
0
 10
-9.08736
 20
-9.67705
 11
-8.7789
 21
-9.95772
  0
LINE
  8
0
 10
-8.7789
 20
-9.95772
 11
-8.46179
 21
-10.2286
  0
LINE
  8
0
 10
-8.46179
 20
-10.2286
 11
-8.13634
 21
-10.4893
  0
LINE
  8
0
 10
-8.13634
 20
-10.4893
 11
-7.80284
 21
-10.7397
  0
LINE
  8
0
 10
-7.80284
 20
-10.7397
 11
-7.46165
 21
-10.9795
  0
LINE
  8
0
 10
-7.46165
 20
-10.9795
 11
-7.1131
 21
-11.2085
  0
LINE
  8
0
 10
-7.1131
 20
-11.2085
 11
-6.75752
 21
-11.4263
  0
LINE
  8
0
 10
-6.75752
 20
-11.4263
 11
-6.39528
 21
-11.633
  0
LINE
  8
0
 10
-6.39528
 20
-11.633
 11
-6.02672
 21
-11.8281
  0
LINE
  8
0
 10
-6.02672
 20
-11.8281
 11
-5.65221
 21
-12.0116
  0
LINE
  8
0
 10
-5.65221
 20
-12.0116
 11
-5.27213
 21
-12.1832
  0
LINE
  8
0
 10
-5.27213
 20
-12.1832
 11
-4.88684
 21
-12.3428
  0
LINE
  8
0
 10
-4.88684
 20
-12.3428
 11
-4.49673
 21
-12.4902
  0
LINE
  8
0
 10
-4.49673
 20
-12.4902
 11
-4.10219
 21
-12.6253
  0
LINE
  8
0
 10
-4.10219
 20
-12.6253
 11
-3.7036
 21
-12.7479
  0
LINE
  8
0
 10
-3.7036
 20
-12.7479
 11
-3.30135
 21
-12.8579
  0
LINE
  8
0
 10
-3.30135
 20
-12.8579
 11
-2.89584
 21
-12.9553
  0
LINE
  8
0
 10
-2.89584
 20
-12.9553
 11
-2.48747
 21
-13.0399
  0
LINE
  8
0
 10
-2.48747
 20
-13.0399
 11
-2.07666
 21
-13.1116
  0
LINE
  8
0
 10
-2.07666
 20
-13.1116
 11
-1.66379
 21
-13.1703
  0
LINE
  8
0
 10
-1.66379
 20
-13.1703
 11
-1.24928
 21
-13.2161
  0
LINE
  8
0
 10
-1.24928
 20
-13.2161
 11
-0.833542
 21
-13.2488
  0
LINE
  8
0
 10
-0.833542
 20
-13.2488
 11
-0.416977
 21
-13.2684
  0
LINE
  8
0
 10
-0.416977
 20
-13.2684
 11
0
 21
-13.275
  0
LINE
  8
0
 10
0
 20
-13.275
 11
0.416977
 21
-13.2684
  0
LINE
  8
0
 10
-0.156433
 20
7.0123
 11
-0.309006
 21
7.04893
  0
LINE
  8
0
 10
-0.309006
 20
7.04893
 11
-0.453979
 21
7.10898
  0
LINE
  8
0
 10
-0.453979
 20
7.10898
 11
-0.587784
 21
7.19098
  0
LINE
  8
0
 10
-0.587784
 20
7.19098
 11
-0.707092
 21
7.29289
  0
LINE
  8
0
 10
-0.707092
 20
7.29289
 11
-0.809006
 21
7.4122
  0
LINE
  8
0
 10
-0.809006
 20
7.4122
 11
-0.891006
 21
7.54601
  0
LINE
  8
0
 10
-0.891006
 20
7.54601
 11
-0.95105
 21
7.69098
  0
LINE
  8
0
 10
-0.95105
 20
7.69098
 11
-0.987686
 21
7.84355
  0
LINE
  8
0
 10
-0.987686
 20
7.84355
 11
-0.999985
 21
8
  0
LINE
  8
0
 10
-0.999985
 20
8
 11
-0.987686
 21
8.15643
  0
LINE
  8
0
 10
-0.987686
 20
8.15643
 11
-0.95105
 21
8.30901
  0
LINE
  8
0
 10
-0.95105
 20
8.30901
 11
-0.891006
 21
8.45398
  0
LINE
  8
0
 10
-0.891006
 20
8.45398
 11
-0.809006
 21
8.58778
  0
LINE
  8
0
 10
-0.809006
 20
8.58778
 11
-0.707092
 21
8.70709
  0
LINE
  8
0
 10
-0.707092
 20
8.70709
 11
-0.587784
 21
8.80901
  0
LINE
  8
0
 10
-0.587784
 20
8.80901
 11
-0.453979
 21
8.89101
  0
LINE
  8
0
 10
-0.453979
 20
8.89101
 11
-0.309006
 21
8.95105
  0
LINE
  8
0
 10
-0.309006
 20
8.95105
 11
-0.156433
 21
8.98769
  0
LINE
  8
0
 10
-0.156433
 20
8.98769
 11
0
 21
9
  0
LINE
  8
0
 10
0
 20
9
 11
0.156433
 21
8.98769
  0
LINE
  8
0
 10
0.156433
 20
8.98769
 11
0.309006
 21
8.95105
  0
LINE
  8
0
 10
0.309006
 20
8.95105
 11
0.453979
 21
8.89101
  0
LINE
  8
0
 10
0.453979
 20
8.89101
 11
0.587784
 21
8.80901
  0
LINE
  8
0
 10
0.587784
 20
8.80901
 11
0.707092
 21
8.70709
  0
LINE
  8
0
 10
0.707092
 20
8.70709
 11
0.809006
 21
8.58778
  0
LINE
  8
0
 10
0.809006
 20
8.58778
 11
0.891006
 21
8.45398
  0
LINE
  8
0
 10
0.891006
 20
8.45398
 11
0.95105
 21
8.30901
  0
LINE
  8
0
 10
0.95105
 20
8.30901
 11
0.987686
 21
8.15643
  0
LINE
  8
0
 10
0.987686
 20
8.15643
 11
1
 21
8
  0
LINE
  8
0
 10
1
 20
8
 11
0.987686
 21
7.84355
  0
LINE
  8
0
 10
0.987686
 20
7.84355
 11
0.95105
 21
7.69098
  0
LINE
  8
0
 10
0.95105
 20
7.69098
 11
0.891006
 21
7.54601
  0
LINE
  8
0
 10
0.891006
 20
7.54601
 11
0.809006
 21
7.4122
  0
LINE
  8
0
 10
0.809006
 20
7.4122
 11
0.707092
 21
7.29289
  0
LINE
  8
0
 10
0.707092
 20
7.29289
 11
0.587784
 21
7.19098
  0
LINE
  8
0
 10
0.587784
 20
7.19098
 11
0.453979
 21
7.10898
  0
LINE
  8
0
 10
0.453979
 20
7.10898
 11
0.309006
 21
7.04893
  0
LINE
  8
0
 10
0.309006
 20
7.04893
 11
0.156433
 21
7.0123
  0
LINE
  8
0
 10
0.156433
 20
7.0123
 11
0
 21
7
  0
LINE
  8
0
 10
0
 20
7
 11
-0.156433
 21
7.0123
  0
LINE
  8
0
 10
-0.469299
 20
-2.96306
 11
-0.927048
 21
-2.85316
  0
LINE
  8
0
 10
-0.927048
 20
-2.85316
 11
-1.36197
 21
-2.67302
  0
LINE
  8
0
 10
-1.36197
 20
-2.67302
 11
-1.76335
 21
-2.42705
  0
LINE
  8
0
 10
-1.76335
 20
-2.42705
 11
-2.12131
 21
-2.12131
  0
LINE
  8
0
 10
-2.12131
 20
-2.12131
 11
-2.42705
 21
-1.76335
  0
LINE
  8
0
 10
-2.42705
 20
-1.76335
 11
-2.67302
 21
-1.36197
  0
LINE
  8
0
 10
-2.67302
 20
-1.36197
 11
-2.85316
 21
-0.927048
  0
LINE
  8
0
 10
-2.85316
 20
-0.927048
 11
-2.96306
 21
-0.469299
  0
LINE
  8
0
 10
-2.96306
 20
-0.469299
 11
-3
 21
0
  0
LINE
  8
0
 10
-3
 20
0
 11
-2.96306
 21
0.469299
  0
LINE
  8
0
 10
-2.96306
 20
0.469299
 11
-2.85316
 21
0.927048
  0
LINE
  8
0
 10
-2.85316
 20
0.927048
 11
-2.67302
 21
1.36197
  0
LINE
  8
0
 10
-2.67302
 20
1.36197
 11
-2.42705
 21
1.76335
  0
LINE
  8
0
 10
-2.42705
 20
1.76335
 11
-2.12131
 21
2.12131
  0
LINE
  8
0
 10
-2.12131
 20
2.12131
 11
-1.76335
 21
2.42705
  0
LINE
  8
0
 10
-1.76335
 20
2.42705
 11
-1.36197
 21
2.67302
  0
LINE
  8
0
 10
-1.36197
 20
2.67302
 11
-0.927048
 21
2.85316
  0
LINE
  8
0
 10
-0.927048
 20
2.85316
 11
-0.469299
 21
2.96306
  0
LINE
  8
0
 10
-0.469299
 20
2.96306
 11
0
 21
3
  0
LINE
  8
0
 10
0
 20
3
 11
0.469299
 21
2.96306
  0
LINE
  8
0
 10
0.469299
 20
2.96306
 11
0.927048
 21
2.85316
  0
LINE
  8
0
 10
0.927048
 20
2.85316
 11
1.36197
 21
2.67302
  0
LINE
  8
0
 10
1.36197
 20
2.67302
 11
1.76335
 21
2.42705
  0
LINE
  8
0
 10
1.76335
 20
2.42705
 11
2.12131
 21
2.12131
  0
LINE
  8
0
 10
2.12131
 20
2.12131
 11
2.42705
 21
1.76335
  0
LINE
  8
0
 10
2.42705
 20
1.76335
 11
2.67302
 21
1.36197
  0
LINE
  8
0
 10
2.67302
 20
1.36197
 11
2.85316
 21
0.927048
  0
LINE
  8
0
 10
2.85316
 20
0.927048
 11
2.96306
 21
0.469299
  0
LINE
  8
0
 10
2.96306
 20
0.469299
 11
3
 21
0
  0
LINE
  8
0
 10
3
 20
0
 11
2.96306
 21
-0.469299
  0
LINE
  8
0
 10
2.96306
 20
-0.469299
 11
2.85316
 21
-0.927048
  0
LINE
  8
0
 10
2.85316
 20
-0.927048
 11
2.67302
 21
-1.36197
  0
LINE
  8
0
 10
2.67302
 20
-1.36197
 11
2.42705
 21
-1.76335
  0
LINE
  8
0
 10
2.42705
 20
-1.76335
 11
2.12131
 21
-2.12131
  0
LINE
  8
0
 10
2.12131
 20
-2.12131
 11
1.76335
 21
-2.42705
  0
LINE
  8
0
 10
1.76335
 20
-2.42705
 11
1.36197
 21
-2.67302
  0
LINE
  8
0
 10
1.36197
 20
-2.67302
 11
0.927048
 21
-2.85316
  0
LINE
  8
0
 10
0.927048
 20
-2.85316
 11
0.469299
 21
-2.96306
  0
LINE
  8
0
 10
0.469299
 20
-2.96306
 11
0
 21
-3
  0
LINE
  8
0
 10
0
 20
-3
 11
-0.469299
 21
-2.96306
  0
LINE
  8
0
 10
7.84355
 20
-0.987686
 11
7.69098
 21
-0.95105
  0
LINE
  8
0
 10
7.69098
 20
-0.95105
 11
7.54601
 21
-0.891006
  0
LINE
  8
0
 10
7.54601
 20
-0.891006
 11
7.4122
 21
-0.809006
  0
LINE
  8
0
 10
7.4122
 20
-0.809006
 11
7.29289
 21
-0.707092
  0
LINE
  8
0
 10
7.29289
 20
-0.707092
 11
7.19098
 21
-0.587784
  0
LINE
  8
0
 10
7.19098
 20
-0.587784
 11
7.10898
 21
-0.453979
  0
LINE
  8
0
 10
7.10898
 20
-0.453979
 11
7.04893
 21
-0.309006
  0
LINE
  8
0
 10
7.04893
 20
-0.309006
 11
7.0123
 21
-0.156433
  0
LINE
  8
0
 10
7.0123
 20
-0.156433
 11
7
 21
0
  0
LINE
  8
0
 10
7
 20
0
 11
7.0123
 21
0.156433
  0
LINE
  8
0
 10
7.0123
 20
0.156433
 11
7.04893
 21
0.309006
  0
LINE
  8
0
 10
7.04893
 20
0.309006
 11
7.10898
 21
0.453979
  0
LINE
  8
0
 10
7.10898
 20
0.453979
 11
7.19098
 21
0.587784
  0
LINE
  8
0
 10
7.19098
 20
0.587784
 11
7.29289
 21
0.707092
  0
LINE
  8
0
 10
7.29289
 20
0.707092
 11
7.4122
 21
0.809006
  0
LINE
  8
0
 10
7.4122
 20
0.809006
 11
7.54601
 21
0.891006
  0
LINE
  8
0
 10
7.54601
 20
0.891006
 11
7.69098
 21
0.95105
  0
LINE
  8
0
 10
7.69098
 20
0.95105
 11
7.84355
 21
0.987686
  0
LINE
  8
0
 10
7.84355
 20
0.987686
 11
8
 21
1
  0
LINE
  8
0
 10
8
 20
1
 11
8.15643
 21
0.987686
  0
LINE
  8
0
 10
8.15643
 20
0.987686
 11
8.30901
 21
0.95105
  0
LINE
  8
0
 10
8.30901
 20
0.95105
 11
8.45398
 21
0.891006
  0
LINE
  8
0
 10
8.45398
 20
0.891006
 11
8.58778
 21
0.809006
  0
LINE
  8
0
 10
8.58778
 20
0.809006
 11
8.70709
 21
0.707092
  0
LINE
  8
0
 10
8.70709
 20
0.707092
 11
8.80901
 21
0.587784
  0
LINE
  8
0
 10
8.80901
 20
0.587784
 11
8.89101
 21
0.453979
  0
LINE
  8
0
 10
8.89101
 20
0.453979
 11
8.95105
 21
0.309006
  0
LINE
  8
0
 10
8.95105
 20
0.309006
 11
8.98769
 21
0.156433
  0
LINE
  8
0
 10
8.98769
 20
0.156433
 11
9
 21
0
  0
LINE
  8
0
 10
9
 20
0
 11
8.98769
 21
-0.156433
  0
LINE
  8
0
 10
8.98769
 20
-0.156433
 11
8.95105
 21
-0.309006
  0
LINE
  8
0
 10
8.95105
 20
-0.309006
 11
8.89101
 21
-0.453979
  0
LINE
  8
0
 10
8.89101
 20
-0.453979
 11
8.80901
 21
-0.587784
  0
LINE
  8
0
 10
8.80901
 20
-0.587784
 11
8.70709
 21
-0.707092
  0
LINE
  8
0
 10
8.70709
 20
-0.707092
 11
8.58778
 21
-0.809006
  0
LINE
  8
0
 10
8.58778
 20
-0.809006
 11
8.45398
 21
-0.891006
  0
LINE
  8
0
 10
8.45398
 20
-0.891006
 11
8.30901
 21
-0.95105
  0
LINE
  8
0
 10
8.30901
 20
-0.95105
 11
8.15643
 21
-0.987686
  0
LINE
  8
0
 10
8.15643
 20
-0.987686
 11
8
 21
-1
  0
LINE
  8
0
 10
8
 20
-1
 11
7.84355
 21
-0.987686
  0
LINE
  8
0
 10
-8.15643
 20
-0.987686
 11
-8.30901
 21
-0.95105
  0
LINE
  8
0
 10
-8.30901
 20
-0.95105
 11
-8.45398
 21
-0.891006
  0
LINE
  8
0
 10
-8.45398
 20
-0.891006
 11
-8.58778
 21
-0.809006
  0
LINE
  8
0
 10
-8.58778
 20
-0.809006
 11
-8.70709
 21
-0.707092
  0
LINE
  8
0
 10
-8.70709
 20
-0.707092
 11
-8.80901
 21
-0.587784
  0
LINE
  8
0
 10
-8.80901
 20
-0.587784
 11
-8.89101
 21
-0.453979
  0
LINE
  8
0
 10
-8.89101
 20
-0.453979
 11
-8.95105
 21
-0.309006
  0
LINE
  8
0
 10
-8.95105
 20
-0.309006
 11
-8.98769
 21
-0.156433
  0
LINE
  8
0
 10
-8.98769
 20
-0.156433
 11
-9
 21
0
  0
LINE
  8
0
 10
-9
 20
0
 11
-8.98769
 21
0.156433
  0
LINE
  8
0
 10
-8.98769
 20
0.156433
 11
-8.95105
 21
0.309006
  0
LINE
  8
0
 10
-8.95105
 20
0.309006
 11
-8.89101
 21
0.453979
  0
LINE
  8
0
 10
-8.89101
 20
0.453979
 11
-8.80901
 21
0.587784
  0
LINE
  8
0
 10
-8.80901
 20
0.587784
 11
-8.70709
 21
0.707092
  0
LINE
  8
0
 10
-8.70709
 20
0.707092
 11
-8.58778
 21
0.809006
  0
LINE
  8
0
 10
-8.58778
 20
0.809006
 11
-8.45398
 21
0.891006
  0
LINE
  8
0
 10
-8.45398
 20
0.891006
 11
-8.30901
 21
0.95105
  0
LINE
  8
0
 10
-8.30901
 20
0.95105
 11
-8.15643
 21
0.987686
  0
LINE
  8
0
 10
-8.15643
 20
0.987686
 11
-8
 21
1
  0
LINE
  8
0
 10
-8
 20
1
 11
-7.84355
 21
0.987686
  0
LINE
  8
0
 10
-7.84355
 20
0.987686
 11
-7.69098
 21
0.95105
  0
LINE
  8
0
 10
-7.69098
 20
0.95105
 11
-7.54601
 21
0.891006
  0
LINE
  8
0
 10
-7.54601
 20
0.891006
 11
-7.4122
 21
0.809006
  0
LINE
  8
0
 10
-7.4122
 20
0.809006
 11
-7.29289
 21
0.707092
  0
LINE
  8
0
 10
-7.29289
 20
0.707092
 11
-7.19098
 21
0.587784
  0
LINE
  8
0
 10
-7.19098
 20
0.587784
 11
-7.10898
 21
0.453979
  0
LINE
  8
0
 10
-7.10898
 20
0.453979
 11
-7.04893
 21
0.309006
  0
LINE
  8
0
 10
-7.04893
 20
0.309006
 11
-7.0123
 21
0.156433
  0
LINE
  8
0
 10
-7.0123
 20
0.156433
 11
-7
 21
0
  0
LINE
  8
0
 10
-7
 20
0
 11
-7.0123
 21
-0.156433
  0
LINE
  8
0
 10
-7.0123
 20
-0.156433
 11
-7.04893
 21
-0.309006
  0
LINE
  8
0
 10
-7.04893
 20
-0.309006
 11
-7.10898
 21
-0.453979
  0
LINE
  8
0
 10
-7.10898
 20
-0.453979
 11
-7.19098
 21
-0.587784
  0
LINE
  8
0
 10
-7.19098
 20
-0.587784
 11
-7.29289
 21
-0.707092
  0
LINE
  8
0
 10
-7.29289
 20
-0.707092
 11
-7.4122
 21
-0.809006
  0
LINE
  8
0
 10
-7.4122
 20
-0.809006
 11
-7.54601
 21
-0.891006
  0
LINE
  8
0
 10
-7.54601
 20
-0.891006
 11
-7.69098
 21
-0.95105
  0
LINE
  8
0
 10
-7.69098
 20
-0.95105
 11
-7.84355
 21
-0.987686
  0
LINE
  8
0
 10
-7.84355
 20
-0.987686
 11
-8
 21
-0.999985
  0
LINE
  8
0
 10
-8
 20
-0.999985
 11
-8.15643
 21
-0.987686
  0
LINE
  8
0
 10
-0.156433
 20
-8.98769
 11
-0.309006
 21
-8.95105
  0
LINE
  8
0
 10
-0.309006
 20
-8.95105
 11
-0.453979
 21
-8.89101
  0
LINE
  8
0
 10
-0.453979
 20
-8.89101
 11
-0.587784
 21
-8.80901
  0
LINE
  8
0
 10
-0.587784
 20
-8.80901
 11
-0.707092
 21
-8.70709
  0
LINE
  8
0
 10
-0.707092
 20
-8.70709
 11
-0.809006
 21
-8.58778
  0
LINE
  8
0
 10
-0.809006
 20
-8.58778
 11
-0.891006
 21
-8.45398
  0
LINE
  8
0
 10
-0.891006
 20
-8.45398
 11
-0.95105
 21
-8.30901
  0
LINE
  8
0
 10
-0.95105
 20
-8.30901
 11
-0.987686
 21
-8.15643
  0
LINE
  8
0
 10
-0.987686
 20
-8.15643
 11
-1
 21
-8
  0
LINE
  8
0
 10
-1
 20
-8
 11
-0.987686
 21
-7.84355
  0
LINE
  8
0
 10
-0.987686
 20
-7.84355
 11
-0.95105
 21
-7.69098
  0
LINE
  8
0
 10
-0.95105
 20
-7.69098
 11
-0.891006
 21
-7.54601
  0
LINE
  8
0
 10
-0.891006
 20
-7.54601
 11
-0.809006
 21
-7.4122
  0
LINE
  8
0
 10
-0.809006
 20
-7.4122
 11
-0.707092
 21
-7.29289
  0
LINE
  8
0
 10
-0.707092
 20
-7.29289
 11
-0.587784
 21
-7.19098
  0
LINE
  8
0
 10
-0.587784
 20
-7.19098
 11
-0.453979
 21
-7.10898
  0
LINE
  8
0
 10
-0.453979
 20
-7.10898
 11
-0.309006
 21
-7.04893
  0
LINE
  8
0
 10
-0.309006
 20
-7.04893
 11
-0.156433
 21
-7.0123
  0
LINE
  8
0
 10
-0.156433
 20
-7.0123
 11
0
 21
-7
  0
LINE
  8
0
 10
0
 20
-7
 11
0.156433
 21
-7.0123
  0
LINE
  8
0
 10
0.156433
 20
-7.0123
 11
0.309006
 21
-7.04893
  0
LINE
  8
0
 10
0.309006
 20
-7.04893
 11
0.453979
 21
-7.10898
  0
LINE
  8
0
 10
0.453979
 20
-7.10898
 11
0.587784
 21
-7.19098
  0
LINE
  8
0
 10
0.587784
 20
-7.19098
 11
0.707092
 21
-7.29289
  0
LINE
  8
0
 10
0.707092
 20
-7.29289
 11
0.809006
 21
-7.4122
  0
LINE
  8
0
 10
0.809006
 20
-7.4122
 11
0.891006
 21
-7.54601
  0
LINE
  8
0
 10
0.891006
 20
-7.54601
 11
0.95105
 21
-7.69098
  0
LINE
  8
0
 10
0.95105
 20
-7.69098
 11
0.987686
 21
-7.84355
  0
LINE
  8
0
 10
0.987686
 20
-7.84355
 11
0.999985
 21
-8
  0
LINE
  8
0
 10
0.999985
 20
-8
 11
0.987686
 21
-8.15643
  0
LINE
  8
0
 10
0.987686
 20
-8.15643
 11
0.95105
 21
-8.30901
  0
LINE
  8
0
 10
0.95105
 20
-8.30901
 11
0.891006
 21
-8.45398
  0
LINE
  8
0
 10
0.891006
 20
-8.45398
 11
0.809006
 21
-8.58778
  0
LINE
  8
0
 10
0.809006
 20
-8.58778
 11
0.707092
 21
-8.70709
  0
LINE
  8
0
 10
0.707092
 20
-8.70709
 11
0.587784
 21
-8.80901
  0
LINE
  8
0
 10
0.587784
 20
-8.80901
 11
0.453979
 21
-8.89101
  0
LINE
  8
0
 10
0.453979
 20
-8.89101
 11
0.309006
 21
-8.95105
  0
LINE
  8
0
 10
0.309006
 20
-8.95105
 11
0.156433
 21
-8.98769
  0
LINE
  8
0
 10
0.156433
 20
-8.98769
 11
0
 21
-9
  0
LINE
  8
0
 10
0
 20
-9
 11
-0.156433
 21
-8.98769
  0
ENDSEC
  0
SECTION
  2
OBJECTS
  0
DICTIONARY
  0
ENDSEC
  0
EOF
