  0
SECTION
  2
BLOCKS
  0
ENDSEC
  0
SECTION
  2
ENTITIES
  0
LINE
  8
0
 10
0.941849
 20
-14.9704
 11
1.56792
 21
-14.9178
  0
LINE
  8
0
 10
1.56792
 20
-14.9178
 11
2.19124
 21
-14.8391
  0
LINE
  8
0
 10
2.19124
 20
-14.8391
 11
2.81071
 21
-14.7343
  0
LINE
  8
0
 10
2.81071
 20
-14.7343
 11
3.42526
 21
-14.6037
  0
LINE
  8
0
 10
3.42526
 20
-14.6037
 11
4.03378
 21
-14.4474
  0
LINE
  8
0
 10
4.03378
 20
-14.4474
 11
4.63525
 21
-14.2658
  0
LINE
  8
0
 10
4.63525
 20
-14.2658
 11
5.22858
 21
-14.0592
  0
LINE
  8
0
 10
5.22858
 20
-14.0592
 11
5.81273
 21
-13.8279
  0
LINE
  8
0
 10
5.81273
 20
-13.8279
 11
6.38669
 21
-13.5724
  0
LINE
  8
0
 10
6.38669
 20
-13.5724
 11
6.94943
 21
-13.293
  0
LINE
  8
0
 10
6.94943
 20
-13.293
 11
7.49998
 21
-12.9904
  0
LINE
  8
0
 10
7.49998
 20
-12.9904
 11
8.0374
 21
-12.6649
  0
LINE
  8
0
 10
8.0374
 20
-12.6649
 11
8.5607
 21
-12.3172
  0
LINE
  8
0
 10
8.5607
 20
-12.3172
 11
9.06898
 21
-11.9479
  0
LINE
  8
0
 10
9.06898
 20
-11.9479
 11
9.56136
 21
-11.5577
  0
LINE
  8
0
 10
9.56136
 20
-11.5577
 11
10.037
 21
-11.1472
  0
LINE
  8
0
 10
10.037
 20
-11.1472
 11
10.4949
 21
-10.7171
  0
LINE
  8
0
 10
10.4949
 20
-10.7171
 11
10.9345
 21
-10.2682
  0
LINE
  8
0
 10
10.9345
 20
-10.2682
 11
11.3549
 21
-9.8013
  0
LINE
  8
0
 10
11.3549
 20
-9.8013
 11
11.7554
 21
-9.31721
  0
LINE
  8
0
 10
11.7554
 20
-9.31721
 11
12.1353
 21
-8.81677
  0
LINE
  8
0
 10
12.1353
 20
-8.81677
 11
12.4938
 21
-8.30087
  0
LINE
  8
0
 10
12.4938
 20
-8.30087
 11
12.8305
 21
-7.7704
  0
LINE
  8
0
 10
12.8305
 20
-7.7704
 11
13.1446
 21
-7.2263
  0
LINE
  8
0
 10
13.1446
 20
-7.2263
 11
13.4357
 21
-6.66953
  0
LINE
  8
0
 10
13.4357
 20
-6.66953
 11
13.7032
 21
-6.10104
  0
LINE
  8
0
 10
13.7032
 20
-6.10104
 11
13.9466
 21
-5.52187
  0
LINE
  8
0
 10
13.9466
 20
-5.52187
 11
14.1656
 21
-4.933
  0
LINE
  8
0
 10
14.1656
 20
-4.933
 11
14.3598
 21
-4.33546
  0
LINE
  8
0
 10
14.3598
 20
-4.33546
 11
14.5287
 21
-3.73035
  0
LINE
  8
0
 10
14.5287
 20
-3.73035
 11
14.6722
 21
-3.11867
  0
LINE
  8
0
 10
14.6722
 20
-3.11867
 11
14.7899
 21
-2.50153
  0
LINE
  8
0
 10
14.7899
 20
-2.50153
 11
14.8817
 21
-1.87999
  0
LINE
  8
0
 10
14.8817
 20
-1.87999
 11
14.9474
 21
-1.25516
  0
LINE
  8
0
 10
14.9474
 20
-1.25516
 11
14.9868
 21
-0.628128
  0
LINE
  8
0
 10
14.9868
 20
-0.628128
 11
15
 21
0
  0
LINE
  8
0
 10
15
 20
0
 11
14.9868
 21
0.628128
  0
LINE
  8
0
 10
14.9868
 20
0.628128
 11
14.9474
 21
1.25516
  0
LINE
  8
0
 10
14.9474
 20
1.25516
 11
14.8817
 21
1.87999
  0
LINE
  8
0
 10
14.8817
 20
1.87999
 11
14.7899
 21
2.50153
  0
LINE
  8
0
 10
14.7899
 20
2.50153
 11
14.6722
 21
3.11867
  0
LINE
  8
0
 10
14.6722
 20
3.11867
 11
14.5287
 21
3.73035
  0
LINE
  8
0
 10
14.5287
 20
3.73035
 11
14.3598
 21
4.33546
  0
LINE
  8
0
 10
14.3598
 20
4.33546
 11
14.1656
 21
4.933
  0
LINE
  8
0
 10
14.1656
 20
4.933
 11
13.9466
 21
5.52187
  0
LINE
  8
0
 10
13.9466
 20
5.52187
 11
13.7032
 21
6.10104
  0
LINE
  8
0
 10
13.7032
 20
6.10104
 11
13.4357
 21
6.66953
  0
LINE
  8
0
 10
13.4357
 20
6.66953
 11
13.1446
 21
7.2263
  0
LINE
  8
0
 10
13.1446
 20
7.2263
 11
12.8305
 21
7.7704
  0
LINE
  8
0
 10
12.8305
 20
7.7704
 11
12.4938
 21
8.30087
  0
LINE
  8
0
 10
12.4938
 20
8.30087
 11
12.1353
 21
8.81677
  0
LINE
  8
0
 10
12.1353
 20
8.81677
 11
11.7554
 21
9.31721
  0
LINE
  8
0
 10
11.7554
 20
9.31721
 11
11.3549
 21
9.8013
  0
LINE
  8
0
 10
11.3549
 20
9.8013
 11
10.9345
 21
10.2682
  0
LINE
  8
0
 10
10.9345
 20
10.2682
 11
10.4949
 21
10.7171
  0
LINE
  8
0
 10
10.4949
 20
10.7171
 11
10.037
 21
11.1472
  0
LINE
  8
0
 10
10.037
 20
11.1472
 11
9.56136
 21
11.5577
  0
LINE
  8
0
 10
9.56136
 20
11.5577
 11
9.06898
 21
11.9479
  0
LINE
  8
0
 10
9.06898
 20
11.9479
 11
8.5607
 21
12.3172
  0
LINE
  8
0
 10
8.5607
 20
12.3172
 11
8.0374
 21
12.6649
  0
LINE
  8
0
 10
8.0374
 20
12.6649
 11
7.49998
 21
12.9904
  0
LINE
  8
0
 10
7.49998
 20
12.9904
 11
6.94943
 21
13.293
  0
LINE
  8
0
 10
6.94943
 20
13.293
 11
6.38669
 21
13.5724
  0
LINE
  8
0
 10
6.38669
 20
13.5724
 11
5.81273
 21
13.8279
  0
LINE
  8
0
 10
5.81273
 20
13.8279
 11
5.22858
 21
14.0592
  0
LINE
  8
0
 10
5.22858
 20
14.0592
 11
4.63525
 21
14.2658
  0
LINE
  8
0
 10
4.63525
 20
14.2658
 11
4.03378
 21
14.4474
  0
LINE
  8
0
 10
4.03378
 20
14.4474
 11
3.42526
 21
14.6037
  0
LINE
  8
0
 10
3.42526
 20
14.6037
 11
2.81071
 21
14.7343
  0
LINE
  8
0
 10
2.81071
 20
14.7343
 11
2.19124
 21
14.8391
  0
LINE
  8
0
 10
2.19124
 20
14.8391
 11
1.56792
 21
14.9178
  0
LINE
  8
0
 10
1.56792
 20
14.9178
 11
0.941849
 21
14.9704
  0
LINE
  8
0
 10
0.941849
 20
14.9704
 11
0.314133
 21
14.9967
  0
LINE
  8
0
 10
0.314133
 20
14.9967
 11
-0.314133
 21
14.9967
  0
LINE
  8
0
 10
-0.314133
 20
14.9967
 11
-0.941849
 21
14.9704
  0
LINE
  8
0
 10
-0.941849
 20
14.9704
 11
-1.56792
 21
14.9178
  0
LINE
  8
0
 10
-1.56792
 20
14.9178
 11
-2.19124
 21
14.8391
  0
LINE
  8
0
 10
-2.19124
 20
14.8391
 11
-2.81071
 21
14.7343
  0
LINE
  8
0
 10
-2.81071
 20
14.7343
 11
-3.42526
 21
14.6037
  0
LINE
  8
0
 10
-3.42526
 20
14.6037
 11
-4.03378
 21
14.4474
  0
LINE
  8
0
 10
-4.03378
 20
14.4474
 11
-4.63525
 21
14.2658
  0
LINE
  8
0
 10
-4.63525
 20
14.2658
 11
-5.22858
 21
14.0592
  0
LINE
  8
0
 10
-5.22858
 20
14.0592
 11
-5.81273
 21
13.8279
  0
LINE
  8
0
 10
-5.81273
 20
13.8279
 11
-6.38669
 21
13.5724
  0
LINE
  8
0
 10
-6.38669
 20
13.5724
 11
-6.94943
 21
13.293
  0
LINE
  8
0
 10
-6.94943
 20
13.293
 11
-7.5
 21
12.9904
  0
LINE
  8
0
 10
-7.5
 20
12.9904
 11
-8.0374
 21
12.6649
  0
LINE
  8
0
 10
-8.0374
 20
12.6649
 11
-8.5607
 21
12.3172
  0
LINE
  8
0
 10
-8.5607
 20
12.3172
 11
-9.06898
 21
11.9479
  0
LINE
  8
0
 10
-9.06898
 20
11.9479
 11
-9.56136
 21
11.5577
  0
LINE
  8
0
 10
-9.56136
 20
11.5577
 11
-10.037
 21
11.1472
  0
LINE
  8
0
 10
-10.037
 20
11.1472
 11
-10.4949
 21
10.7171
  0
LINE
  8
0
 10
-10.4949
 20
10.7171
 11
-10.9345
 21
10.2682
  0
LINE
  8
0
 10
-10.9345
 20
10.2682
 11
-11.3549
 21
9.8013
  0
LINE
  8
0
 10
-11.3549
 20
9.8013
 11
-11.7554
 21
9.31721
  0
LINE
  8
0
 10
-11.7554
 20
9.31721
 11
-12.1353
 21
8.81677
  0
LINE
  8
0
 10
-12.1353
 20
8.81677
 11
-12.4938
 21
8.30087
  0
LINE
  8
0
 10
-12.4938
 20
8.30087
 11
-12.8305
 21
7.7704
  0
LINE
  8
0
 10
-12.8305
 20
7.7704
 11
-13.1446
 21
7.2263
  0
LINE
  8
0
 10
-13.1446
 20
7.2263
 11
-13.4357
 21
6.66953
  0
LINE
  8
0
 10
-13.4357
 20
6.66953
 11
-13.7032
 21
6.10104
  0
LINE
  8
0
 10
-13.7032
 20
6.10104
 11
-13.9466
 21
5.52187
  0
LINE
  8
0
 10
-13.9466
 20
5.52187
 11
-14.1656
 21
4.933
  0
LINE
  8
0
 10
-14.1656
 20
4.933
 11
-14.3598
 21
4.33546
  0
LINE
  8
0
 10
-14.3598
 20
4.33546
 11
-14.5287
 21
3.73035
  0
LINE
  8
0
 10
-14.5287
 20
3.73035
 11
-14.6722
 21
3.11867
  0
LINE
  8
0
 10
-14.6722
 20
3.11867
 11
-14.7899
 21
2.50153
  0
LINE
  8
0
 10
-14.7899
 20
2.50153
 11
-14.8817
 21
1.87999
  0
LINE
  8
0
 10
-14.8817
 20
1.87999
 11
-14.9474
 21
1.25516
  0
LINE
  8
0
 10
-14.9474
 20
1.25516
 11
-14.9868
 21
0.628128
  0
LINE
  8
0
 10
-14.9868
 20
0.628128
 11
-15
 21
0
  0
LINE
  8
0
 10
-15
 20
0
 11
-14.9868
 21
-0.628128
  0
LINE
  8
0
 10
-14.9868
 20
-0.628128
 11
-14.9474
 21
-1.25516
  0
LINE
  8
0
 10
-14.9474
 20
-1.25516
 11
-14.8817
 21
-1.87999
  0
LINE
  8
0
 10
-14.8817
 20
-1.87999
 11
-14.7899
 21
-2.50153
  0
LINE
  8
0
 10
-14.7899
 20
-2.50153
 11
-14.6722
 21
-3.11867
  0
LINE
  8
0
 10
-14.6722
 20
-3.11867
 11
-14.5287
 21
-3.73035
  0
LINE
  8
0
 10
-14.5287
 20
-3.73035
 11
-14.3598
 21
-4.33546
  0
LINE
  8
0
 10
-14.3598
 20
-4.33546
 11
-14.1656
 21
-4.933
  0
LINE
  8
0
 10
-14.1656
 20
-4.933
 11
-13.9466
 21
-5.52187
  0
LINE
  8
0
 10
-13.9466
 20
-5.52187
 11
-13.7032
 21
-6.10104
  0
LINE
  8
0
 10
-13.7032
 20
-6.10104
 11
-13.4357
 21
-6.66953
  0
LINE
  8
0
 10
-13.4357
 20
-6.66953
 11
-13.1446
 21
-7.2263
  0
LINE
  8
0
 10
-13.1446
 20
-7.2263
 11
-12.8305
 21
-7.7704
  0
LINE
  8
0
 10
-12.8305
 20
-7.7704
 11
-12.4938
 21
-8.30087
  0
LINE
  8
0
 10
-12.4938
 20
-8.30087
 11
-12.1353
 21
-8.81677
  0
LINE
  8
0
 10
-12.1353
 20
-8.81677
 11
-11.7554
 21
-9.31721
  0
LINE
  8
0
 10
-11.7554
 20
-9.31721
 11
-11.3549
 21
-9.8013
  0
LINE
  8
0
 10
-11.3549
 20
-9.8013
 11
-10.9345
 21
-10.2682
  0
LINE
  8
0
 10
-10.9345
 20
-10.2682
 11
-10.4949
 21
-10.7171
  0
LINE
  8
0
 10
-10.4949
 20
-10.7171
 11
-10.037
 21
-11.1472
  0
LINE
  8
0
 10
-10.037
 20
-11.1472
 11
-9.56136
 21
-11.5577
  0
LINE
  8
0
 10
-9.56136
 20
-11.5577
 11
-9.06898
 21
-11.9479
  0
LINE
  8
0
 10
-9.06898
 20
-11.9479
 11
-8.5607
 21
-12.3172
  0
LINE
  8
0
 10
-8.5607
 20
-12.3172
 11
-8.0374
 21
-12.6649
  0
LINE
  8
0
 10
-8.0374
 20
-12.6649
 11
-7.49998
 21
-12.9904
  0
LINE
  8
0
 10
-7.49998
 20
-12.9904
 11
-6.94943
 21
-13.293
  0
LINE
  8
0
 10
-6.94943
 20
-13.293
 11
-6.38669
 21
-13.5724
  0
LINE
  8
0
 10
-6.38669
 20
-13.5724
 11
-5.81273
 21
-13.8279
  0
LINE
  8
0
 10
-5.81273
 20
-13.8279
 11
-5.22858
 21
-14.0592
  0
LINE
  8
0
 10
-5.22858
 20
-14.0592
 11
-4.63525
 21
-14.2658
  0
LINE
  8
0
 10
-4.63525
 20
-14.2658
 11
-4.03378
 21
-14.4474
  0
LINE
  8
0
 10
-4.03378
 20
-14.4474
 11
-3.42526
 21
-14.6037
  0
LINE
  8
0
 10
-3.42526
 20
-14.6037
 11
-2.81071
 21
-14.7343
  0
LINE
  8
0
 10
-2.81071
 20
-14.7343
 11
-2.19124
 21
-14.8391
  0
LINE
  8
0
 10
-2.19124
 20
-14.8391
 11
-1.56792
 21
-14.9178
  0
LINE
  8
0
 10
-1.56792
 20
-14.9178
 11
-0.941849
 21
-14.9704
  0
LINE
  8
0
 10
-0.941849
 20
-14.9704
 11
-0.314133
 21
-14.9967
  0
LINE
  8
0
 10
-0.314133
 20
-14.9967
 11
0.314133
 21
-14.9967
  0
LINE
  8
0
 10
0.314133
 20
-14.9967
 11
0.941849
 21
-14.9704
  0
LINE
  8
0
 10
-0.207901
 20
7.02185
 11
-0.406723
 21
7.08644
  0
LINE
  8
0
 10
-0.406723
 20
7.08644
 11
-0.587784
 21
7.19098
  0
LINE
  8
0
 10
-0.587784
 20
7.19098
 11
-0.743134
 21
7.33086
  0
LINE
  8
0
 10
-0.743134
 20
7.33086
 11
-0.866013
 21
7.5
  0
LINE
  8
0
 10
-0.866013
 20
7.5
 11
-0.95105
 21
7.69098
  0
LINE
  8
0
 10
-0.95105
 20
7.69098
 11
-0.994507
 21
7.89546
  0
LINE
  8
0
 10
-0.994507
 20
7.89546
 11
-0.994507
 21
8.10452
  0
LINE
  8
0
 10
-0.994507
 20
8.10452
 11
-0.95105
 21
8.30901
  0
LINE
  8
0
 10
-0.95105
 20
8.30901
 11
-0.866013
 21
8.5
  0
LINE
  8
0
 10
-0.866013
 20
8.5
 11
-0.743134
 21
8.66913
  0
LINE
  8
0
 10
-0.743134
 20
8.66913
 11
-0.587784
 21
8.80901
  0
LINE
  8
0
 10
-0.587784
 20
8.80901
 11
-0.406723
 21
8.91354
  0
LINE
  8
0
 10
-0.406723
 20
8.91354
 11
-0.207901
 21
8.97813
  0
LINE
  8
0
 10
-0.207901
 20
8.97813
 11
0
 21
9
  0
LINE
  8
0
 10
0
 20
9
 11
0.207901
 21
8.97813
  0
LINE
  8
0
 10
0.207901
 20
8.97813
 11
0.406723
 21
8.91354
  0
LINE
  8
0
 10
0.406723
 20
8.91354
 11
0.587784
 21
8.80901
  0
LINE
  8
0
 10
0.587784
 20
8.80901
 11
0.743134
 21
8.66913
  0
LINE
  8
0
 10
0.743134
 20
8.66913
 11
0.866013
 21
8.5
  0
LINE
  8
0
 10
0.866013
 20
8.5
 11
0.95105
 21
8.30901
  0
LINE
  8
0
 10
0.95105
 20
8.30901
 11
0.994507
 21
8.10452
  0
LINE
  8
0
 10
0.994507
 20
8.10452
 11
0.994507
 21
7.89546
  0
LINE
  8
0
 10
0.994507
 20
7.89546
 11
0.95105
 21
7.69098
  0
LINE
  8
0
 10
0.95105
 20
7.69098
 11
0.866013
 21
7.5
  0
LINE
  8
0
 10
0.866013
 20
7.5
 11
0.743134
 21
7.33086
  0
LINE
  8
0
 10
0.743134
 20
7.33086
 11
0.587784
 21
7.19098
  0
LINE
  8
0
 10
0.587784
 20
7.19098
 11
0.406723
 21
7.08644
  0
LINE
  8
0
 10
0.406723
 20
7.08644
 11
0.207901
 21
7.02185
  0
LINE
  8
0
 10
0.207901
 20
7.02185
 11
0
 21
7
  0
LINE
  8
0
 10
0
 20
7
 11
-0.207901
 21
7.02185
  0
LINE
  8
0
 10
-0.313583
 20
-2.98355
 11
-0.927048
 21
-2.85316
  0
LINE
  8
0
 10
-0.927048
 20
-2.85316
 11
-1.5
 21
-2.59807
  0
LINE
  8
0
 10
-1.5
 20
-2.59807
 11
-2.00739
 21
-2.22943
  0
LINE
  8
0
 10
-2.00739
 20
-2.22943
 11
-2.42705
 21
-1.76335
  0
LINE
  8
0
 10
-2.42705
 20
-1.76335
 11
-2.74063
 21
-1.2202
  0
LINE
  8
0
 10
-2.74063
 20
-1.2202
 11
-2.93443
 21
-0.623734
  0
LINE
  8
0
 10
-2.93443
 20
-0.623734
 11
-3
 21
0
  0
LINE
  8
0
 10
-3
 20
0
 11
-2.93443
 21
0.623734
  0
LINE
  8
0
 10
-2.93443
 20
0.623734
 11
-2.74063
 21
1.2202
  0
LINE
  8
0
 10
-2.74063
 20
1.2202
 11
-2.42705
 21
1.76335
  0
LINE
  8
0
 10
-2.42705
 20
1.76335
 11
-2.00739
 21
2.22943
  0
LINE
  8
0
 10
-2.00739
 20
2.22943
 11
-1.49998
 21
2.59807
  0
LINE
  8
0
 10
-1.49998
 20
2.59807
 11
-0.927048
 21
2.85316
  0
LINE
  8
0
 10
-0.927048
 20
2.85316
 11
-0.313583
 21
2.98355
  0
LINE
  8
0
 10
-0.313583
 20
2.98355
 11
0.313583
 21
2.98355
  0
LINE
  8
0
 10
0.313583
 20
2.98355
 11
0.927048
 21
2.85316
  0
LINE
  8
0
 10
0.927048
 20
2.85316
 11
1.5
 21
2.59807
  0
LINE
  8
0
 10
1.5
 20
2.59807
 11
2.00739
 21
2.22943
  0
LINE
  8
0
 10
2.00739
 20
2.22943
 11
2.42705
 21
1.76335
  0
LINE
  8
0
 10
2.42705
 20
1.76335
 11
2.74063
 21
1.2202
  0
LINE
  8
0
 10
2.74063
 20
1.2202
 11
2.93443
 21
0.623734
  0
LINE
  8
0
 10
2.93443
 20
0.623734
 11
3
 21
0
  0
LINE
  8
0
 10
3
 20
0
 11
2.93443
 21
-0.623734
  0
LINE
  8
0
 10
2.93443
 20
-0.623734
 11
2.74063
 21
-1.2202
  0
LINE
  8
0
 10
2.74063
 20
-1.2202
 11
2.42705
 21
-1.76335
  0
LINE
  8
0
 10
2.42705
 20
-1.76335
 11
2.00739
 21
-2.22943
  0
LINE
  8
0
 10
2.00739
 20
-2.22943
 11
1.5
 21
-2.59807
  0
LINE
  8
0
 10
1.5
 20
-2.59807
 11
0.927048
 21
-2.85316
  0
LINE
  8
0
 10
0.927048
 20
-2.85316
 11
0.313583
 21
-2.98355
  0
LINE
  8
0
 10
0.313583
 20
-2.98355
 11
-0.313583
 21
-2.98355
  0
LINE
  8
0
 10
7.89546
 20
-0.994507
 11
7.69098
 21
-0.95105
  0
LINE
  8
0
 10
7.69098
 20
-0.95105
 11
7.5
 21
-0.866013
  0
LINE
  8
0
 10
7.5
 20
-0.866013
 11
7.33086
 21
-0.743134
  0
LINE
  8
0
 10
7.33086
 20
-0.743134
 11
7.19098
 21
-0.587784
  0
LINE
  8
0
 10
7.19098
 20
-0.587784
 11
7.08644
 21
-0.406723
  0
LINE
  8
0
 10
7.08644
 20
-0.406723
 11
7.02185
 21
-0.207901
  0
LINE
  8
0
 10
7.02185
 20
-0.207901
 11
7
 21
0
  0
LINE
  8
0
 10
7
 20
0
 11
7.02185
 21
0.207901
  0
LINE
  8
0
 10
7.02185
 20
0.207901
 11
7.08644
 21
0.406723
  0
LINE
  8
0
 10
7.08644
 20
0.406723
 11
7.19098
 21
0.587784
  0
LINE
  8
0
 10
7.19098
 20
0.587784
 11
7.33086
 21
0.743134
  0
LINE
  8
0
 10
7.33086
 20
0.743134
 11
7.5
 21
0.866013
  0
LINE
  8
0
 10
7.5
 20
0.866013
 11
7.69098
 21
0.95105
  0
LINE
  8
0
 10
7.69098
 20
0.95105
 11
7.89546
 21
0.994507
  0
LINE
  8
0
 10
7.89546
 20
0.994507
 11
8.10452
 21
0.994507
  0
LINE
  8
0
 10
8.10452
 20
0.994507
 11
8.30901
 21
0.95105
  0
LINE
  8
0
 10
8.30901
 20
0.95105
 11
8.5
 21
0.866013
  0
LINE
  8
0
 10
8.5
 20
0.866013
 11
8.66913
 21
0.743134
  0
LINE
  8
0
 10
8.66913
 20
0.743134
 11
8.80901
 21
0.587784
  0
LINE
  8
0
 10
8.80901
 20
0.587784
 11
8.91354
 21
0.406723
  0
LINE
  8
0
 10
8.91354
 20
0.406723
 11
8.97813
 21
0.207901
  0
LINE
  8
0
 10
8.97813
 20
0.207901
 11
9
 21
0
  0
LINE
  8
0
 10
9
 20
0
 11
8.97813
 21
-0.207901
  0
LINE
  8
0
 10
8.97813
 20
-0.207901
 11
8.91354
 21
-0.406723
  0
LINE
  8
0
 10
8.91354
 20
-0.406723
 11
8.80901
 21
-0.587784
  0
LINE
  8
0
 10
8.80901
 20
-0.587784
 11
8.66913
 21
-0.743134
  0
LINE
  8
0
 10
8.66913
 20
-0.743134
 11
8.5
 21
-0.866013
  0
LINE
  8
0
 10
8.5
 20
-0.866013
 11
8.30901
 21
-0.95105
  0
LINE
  8
0
 10
8.30901
 20
-0.95105
 11
8.10452
 21
-0.994507
  0
LINE
  8
0
 10
8.10452
 20
-0.994507
 11
7.89546
 21
-0.994507
  0
LINE
  8
0
 10
-8.10452
 20
-0.994507
 11
-8.30901
 21
-0.95105
  0
LINE
  8
0
 10
-8.30901
 20
-0.95105
 11
-8.5
 21
-0.866013
  0
LINE
  8
0
 10
-8.5
 20
-0.866013
 11
-8.66913
 21
-0.743134
  0
LINE
  8
0
 10
-8.66913
 20
-0.743134
 11
-8.80901
 21
-0.587784
  0
LINE
  8
0
 10
-8.80901
 20
-0.587784
 11
-8.91354
 21
-0.406723
  0
LINE
  8
0
 10
-8.91354
 20
-0.406723
 11
-8.97813
 21
-0.207901
  0
LINE
  8
0
 10
-8.97813
 20
-0.207901
 11
-9
 21
0
  0
LINE
  8
0
 10
-9
 20
0
 11
-8.97813
 21
0.207901
  0
LINE
  8
0
 10
-8.97813
 20
0.207901
 11
-8.91354
 21
0.406723
  0
LINE
  8
0
 10
-8.91354
 20
0.406723
 11
-8.80901
 21
0.587784
  0
LINE
  8
0
 10
-8.80901
 20
0.587784
 11
-8.66913
 21
0.743134
  0
LINE
  8
0
 10
-8.66913
 20
0.743134
 11
-8.5
 21
0.866013
  0
LINE
  8
0
 10
-8.5
 20
0.866013
 11
-8.30901
 21
0.95105
  0
LINE
  8
0
 10
-8.30901
 20
0.95105
 11
-8.10452
 21
0.994507
  0
LINE
  8
0
 10
-8.10452
 20
0.994507
 11
-7.89546
 21
0.994507
  0
LINE
  8
0
 10
-7.89546
 20
0.994507
 11
-7.69098
 21
0.95105
  0
LINE
  8
0
 10
-7.69098
 20
0.95105
 11
-7.5
 21
0.866013
  0
LINE
  8
0
 10
-7.5
 20
0.866013
 11
-7.33086
 21
0.743134
  0
LINE
  8
0
 10
-7.33086
 20
0.743134
 11
-7.19098
 21
0.587784
  0
LINE
  8
0
 10
-7.19098
 20
0.587784
 11
-7.08644
 21
0.406723
  0
LINE
  8
0
 10
-7.08644
 20
0.406723
 11
-7.02185
 21
0.207901
  0
LINE
  8
0
 10
-7.02185
 20
0.207901
 11
-7
 21
0
  0
LINE
  8
0
 10
-7
 20
0
 11
-7.02185
 21
-0.207901
  0
LINE
  8
0
 10
-7.02185
 20
-0.207901
 11
-7.08644
 21
-0.406723
  0
LINE
  8
0
 10
-7.08644
 20
-0.406723
 11
-7.19098
 21
-0.587784
  0
LINE
  8
0
 10
-7.19098
 20
-0.587784
 11
-7.33086
 21
-0.743134
  0
LINE
  8
0
 10
-7.33086
 20
-0.743134
 11
-7.5
 21
-0.866013
  0
LINE
  8
0
 10
-7.5
 20
-0.866013
 11
-7.69098
 21
-0.95105
  0
LINE
  8
0
 10
-7.69098
 20
-0.95105
 11
-7.89546
 21
-0.994507
  0
LINE
  8
0
 10
-7.89546
 20
-0.994507
 11
-8.10452
 21
-0.994507
  0
LINE
  8
0
 10
-0.207901
 20
-8.97813
 11
-0.406723
 21
-8.91354
  0
LINE
  8
0
 10
-0.406723
 20
-8.91354
 11
-0.587784
 21
-8.80901
  0
LINE
  8
0
 10
-0.587784
 20
-8.80901
 11
-0.743134
 21
-8.66913
  0
LINE
  8
0
 10
-0.743134
 20
-8.66913
 11
-0.866013
 21
-8.5
  0
LINE
  8
0
 10
-0.866013
 20
-8.5
 11
-0.95105
 21
-8.30901
  0
LINE
  8
0
 10
-0.95105
 20
-8.30901
 11
-0.994507
 21
-8.10452
  0
LINE
  8
0
 10
-0.994507
 20
-8.10452
 11
-0.994507
 21
-7.89546
  0
LINE
  8
0
 10
-0.994507
 20
-7.89546
 11
-0.95105
 21
-7.69098
  0
LINE
  8
0
 10
-0.95105
 20
-7.69098
 11
-0.866013
 21
-7.5
  0
LINE
  8
0
 10
-0.866013
 20
-7.5
 11
-0.743134
 21
-7.33086
  0
LINE
  8
0
 10
-0.743134
 20
-7.33086
 11
-0.587784
 21
-7.19098
  0
LINE
  8
0
 10
-0.587784
 20
-7.19098
 11
-0.406723
 21
-7.08644
  0
LINE
  8
0
 10
-0.406723
 20
-7.08644
 11
-0.207901
 21
-7.02185
  0
LINE
  8
0
 10
-0.207901
 20
-7.02185
 11
0
 21
-7
  0
LINE
  8
0
 10
0
 20
-7
 11
0.207901
 21
-7.02185
  0
LINE
  8
0
 10
0.207901
 20
-7.02185
 11
0.406723
 21
-7.08644
  0
LINE
  8
0
 10
0.406723
 20
-7.08644
 11
0.587784
 21
-7.19098
  0
LINE
  8
0
 10
0.587784
 20
-7.19098
 11
0.743134
 21
-7.33086
  0
LINE
  8
0
 10
0.743134
 20
-7.33086
 11
0.866013
 21
-7.5
  0
LINE
  8
0
 10
0.866013
 20
-7.5
 11
0.95105
 21
-7.69098
  0
LINE
  8
0
 10
0.95105
 20
-7.69098
 11
0.994507
 21
-7.89546
  0
LINE
  8
0
 10
0.994507
 20
-7.89546
 11
0.994507
 21
-8.10452
  0
LINE
  8
0
 10
0.994507
 20
-8.10452
 11
0.95105
 21
-8.30901
  0
LINE
  8
0
 10
0.95105
 20
-8.30901
 11
0.866013
 21
-8.5
  0
LINE
  8
0
 10
0.866013
 20
-8.5
 11
0.743134
 21
-8.66913
  0
LINE
  8
0
 10
0.743134
 20
-8.66913
 11
0.587784
 21
-8.80901
  0
LINE
  8
0
 10
0.587784
 20
-8.80901
 11
0.406723
 21
-8.91354
  0
LINE
  8
0
 10
0.406723
 20
-8.91354
 11
0.207901
 21
-8.97813
  0
LINE
  8
0
 10
0.207901
 20
-8.97813
 11
0
 21
-9
  0
LINE
  8
0
 10
0
 20
-9
 11
-0.207901
 21
-8.97813
  0
ENDSEC
  0
SECTION
  2
OBJECTS
  0
DICTIONARY
  0
ENDSEC
  0
EOF
