<?xml version="1.0" encoding="UTF-8" standalone="no"?>
<svg
   xmlns:dc="http://purl.org/dc/elements/1.1/"
   xmlns:cc="http://creativecommons.org/ns#"
   xmlns:rdf="http://www.w3.org/1999/02/22-rdf-syntax-ns#"
   xmlns:svg="http://www.w3.org/2000/svg"
   xmlns="http://www.w3.org/2000/svg"
   xmlns:sodipodi="http://sodipodi.sourceforge.net/DTD/sodipodi-0.dtd"
   xmlns:inkscape="http://www.inkscape.org/namespaces/inkscape"
   width="85.282211mm"
   height="70.280701mm"
   id="svg4136"
   version="1.1"
   inkscape:version="0.91 r13725"
   sodipodi:docname="fan_plate.svg">
  <metadata
     id="metadata6200">
    <rdf:RDF>
      <cc:Work
         rdf:about="">
        <dc:format>image/svg+xml</dc:format>
        <dc:type
           rdf:resource="http://purl.org/dc/dcmitype/StillImage" />
        <dc:title></dc:title>
      </cc:Work>
    </rdf:RDF>
  </metadata>
  <sodipodi:namedview
     pagecolor="#ffffff"
     bordercolor="#666666"
     borderopacity="1"
     objecttolerance="10"
     gridtolerance="10"
     guidetolerance="10"
     inkscape:pageopacity="0"
     inkscape:pageshadow="2"
     inkscape:window-width="3734"
     inkscape:window-height="2121"
     id="namedview6198"
     showgrid="false"
     inkscape:zoom="1.3854546"
     inkscape:cx="371.36614"
     inkscape:cy="386.89548"
     inkscape:window-x="106"
     inkscape:window-y="39"
     inkscape:window-maximized="1"
     inkscape:current-layer="g4152"
     fit-margin-top="0"
     fit-margin-left="0"
     fit-margin-right="0"
     fit-margin-bottom="0"
     units="mm"
     inkscape:document-units="mm" />
  <desc
     id="desc4138">C:\Share\Robotics\Whr_bot\Parts\65\fan_plate.dxf - scale = 1.000000, origin = (0.000000, 0.000000), auto = False</desc>
  <defs
     id="defs4140">
    <marker
       refY="0"
       refX="0"
       style="overflow:visible"
       id="DistanceX"
       orient="auto">
      <path
         style="stroke:#000000;stroke-width:0.5"
         d="M 3,-3 -3,3 M 0,-5 0,5"
         id="path4143"
         inkscape:connector-curvature="0" />
    </marker>
    <pattern
       height="8"
       width="8"
       patternUnits="userSpaceOnUse"
       y="0"
       x="0"
       id="Hatch">
      <path
         linecap="square"
         stroke="#000000"
         stroke-width="0.25"
         d="M8 4 l-4,4"
         id="path4146" />
      <path
         linecap="square"
         stroke="#000000"
         stroke-width="0.25"
         d="M6 2 l-4,4"
         id="path4148" />
      <path
         linecap="square"
         stroke="#000000"
         stroke-width="0.25"
         d="M4 0 l-4,4"
         id="path4150" />
    </pattern>
    <marker
       style="overflow:visible"
       refY="0"
       refX="0"
       orient="auto"
       id="DistanceX-4">
      <path
         id="path53141"
         style="stroke:#000000;stroke-width:0.5"
         d="M 3,-3 -3,3 M 0,-5 0,5"
         inkscape:connector-curvature="0" />
    </marker>
    <pattern
       y="0"
       x="0"
       width="8"
       patternUnits="userSpaceOnUse"
       id="Hatch-4"
       height="8">
      <path
         id="path53144"
         stroke-width="0.25"
         stroke="#000000"
         linecap="square"
         d="M8 4 l-4,4" />
      <path
         id="path53146"
         stroke-width="0.25"
         stroke="#000000"
         linecap="square"
         d="M6 2 l-4,4" />
      <path
         id="path53148"
         stroke-width="0.25"
         stroke="#000000"
         linecap="square"
         d="M4 0 l-4,4" />
    </pattern>
  </defs>
  <g
     inkscape:label="0"
     inkscape:groupmode="layer"
     id="g4152"
     transform="translate(142.23228,-892.4166)">
    <path
       style="fill:none;stroke:#0000ff;stroke-opacity:1"
       d="m -137.891,1136.474 0.41563,0.4241 0.43264,0.4065 0.44929,0.3876 0.46523,0.3689 0.48012,0.349 0.49465,0.3284 0.50775,0.3076 0.52016,0.2859 0.53185,0.264 0.54248,0.2413 0.55169,0.2186 0.56056,0.1953 0.56834,0.1715 0.57508,0.1477 0.58075,0.1233 0.58535,0.099 0.5889,0.075 0.59138,0.05 0.59315,0.025 273.4285,0 0.59315,-0.025 0.59138,-0.05 0.5889,-0.075 0.58535,-0.099 0.58075,-0.1233 0.57508,-0.1477 0.56834,-0.1715 0.56056,-0.1953 0.55169,-0.2186 0.54248,-0.2413 0.53185,-0.264 0.52016,-0.2859 0.50775,-0.3076 0.49465,-0.3284 0.48012,-0.349 0.46523,-0.3689 0.44929,-0.3876 0.43264,-0.4065 0.41563,-0.4241 0.39721,-0.4411 0.37842,-0.4575 0.35894,-0.473 0.33874,-0.4872 0.31783,-0.5014 0.29693,-0.5141 0.27496,-0.5262 0.253,-0.5372 0.22996,-0.5471 0.20692,-0.5563 0.18355,-0.5648 0.15945,-0.5715 0.13571,-0.5783 0.11126,-0.5828 0.0864,-0.5875 0.0624,-0.5903 0.0372,-0.5925 0.0124,-0.5935 0,-219.6851 -0.0124,-0.5935 -0.0372,-0.59244 -0.0624,-0.59032 -0.0864,-0.58748 -0.11126,-0.58287 -0.13571,-0.57827 -0.15945,-0.57153 -0.18355,-0.5648 -0.20692,-0.55631 -0.22996,-0.54708 -0.253,-0.53717 -0.27496,-0.52618 -0.29693,-0.51413 -0.31783,-0.50138 -0.33874,-0.4872 -0.35894,-0.47304 -0.37842,-0.45744 -0.39721,-0.44114 -0.41563,-0.42413 -0.43264,-0.40642 -0.44929,-0.38764 -0.46523,-0.36886 -0.48012,-0.34901 -0.49465,-0.32847 -0.50775,-0.30756 -0.52016,-0.28594 -0.53185,-0.26398 -0.54248,-0.2413 -0.55169,-0.21862 -0.56056,-0.19523 -0.56834,-0.1715 -0.57508,-0.14776 -0.58075,-0.1233 -0.58535,-0.0992 -0.5889,-0.0744 -0.59138,-0.0496 -0.59315,-0.0248 -273.4285,0 -0.59315,0.0248 -0.59138,0.0496 -0.5889,0.0744 -0.58535,0.0992 -0.58075,0.1233 -0.57508,0.14776 -0.56834,0.1715 -0.56056,0.19523 -0.55169,0.21862 -0.54248,0.2413 -0.53185,0.26398 -0.52016,0.28594 -0.50775,0.30756 -0.49465,0.32847 -0.48012,0.34901 -0.46523,0.36886 -0.44929,0.38764 -0.43264,0.40642 -0.41563,0.42413 -0.39721,0.44114 -0.37842,0.45744 -0.35894,0.47304 -0.33874,0.4872 -0.31783,0.50138 -0.29693,0.51413 -0.27496,0.52618 -0.253,0.53717 -0.22996,0.54708 -0.20692,0.55631 -0.18355,0.5648 -0.15945,0.57153 -0.13571,0.57827 -0.11126,0.58287 -0.0864,0.58748 -0.0624,0.59032 -0.0372,0.59244 -0.0124,0.5935 0,219.6851 0.0124,0.5935 0.0372,0.5925 0.0624,0.5903 0.0864,0.5875 0.11126,0.5828 0.13571,0.5783 0.15945,0.5715 0.18355,0.5648 0.20692,0.5563 0.22996,0.5471 0.253,0.5372 0.27496,0.5262 0.29693,0.5141 0.31783,0.5014 0.33874,0.4872 0.35894,0.473 0.37842,0.4575 z"
       id="path4414"
       inkscape:connector-curvature="0"
       sodipodi:nodetypes="ccccccccccccccccccccccccccccccccccccccccccccccccccccccccccccccccccccccccccccccccccccccccccccccccccccccccccccccccccccccccccccccccccccccccccccccccccccccccc" />
    <path
       style="fill:none;stroke:#ff0000;stroke-opacity:1"
       d="m -124.69254,905.00385 0.37063,0.64169 0.22855,0.70441 0.0776,0.73665 -0.0776,0.73666 -0.22855,0.70441 -0.37063,0.64169 -0.49571,0.55028 -0.59917,0.43547 -0.67677,0.30153 -0.72461,0.15378 -0.74055,0 -0.7246,-0.15378 -0.67678,-0.30153 -0.59917,-0.43547 -0.49571,-0.55028 -0.37027,-0.64169 -0.2289,-0.70441 -0.0776,-0.73666 0.0776,-0.73665 0.2289,-0.70441 0.37027,-0.64169 0.49571,-0.55028 0.59917,-0.43547 0.67678,-0.30118 0.7246,-0.15413 0.74055,0 0.72461,0.15413 0.67677,0.30118 0.59917,0.43547 z"
       id="path4494"
       inkscape:connector-curvature="0"
       sodipodi:nodetypes="ccccccccccccccccccccccccccccccc" />
    <path
       style="fill:none;stroke:#ff0000;stroke-opacity:1"
       d="m 148.74128,906.34995 0.0776,0.73665 -0.0776,0.73666 -0.2289,0.70441 -0.37027,0.64169 -0.49571,0.55028 -0.59917,0.43547 -0.67678,0.30153 -0.7246,0.15378 -0.74055,0 -0.72461,-0.15378 -0.67677,-0.30153 -0.59917,-0.43547 -0.49571,-0.55028 -0.37063,-0.64169 -0.22855,-0.70441 -0.0776,-0.73666 0.0776,-0.73665 0.22855,-0.70441 0.37063,-0.64169 0.49571,-0.55028 0.59917,-0.43547 0.67677,-0.30118 0.72461,-0.15413 0.74055,0 0.7246,0.15413 0.67678,0.30118 0.59917,0.43547 0.49571,0.55028 0.37027,0.64169 z"
       id="path4558"
       inkscape:connector-curvature="0"
       sodipodi:nodetypes="ccccccccccccccccccccccccccccccc" />
    <path
       style="fill:none;stroke:#ff0000;stroke-opacity:1"
       d="m 109.36876,995.56506 0.80646,4.2276 0.62858,4.25784 0.45,4.2803 0.27,4.2954 0.0904,4.303 -0.0904,4.303 -0.27,4.2954 -0.45,4.2803 -0.62858,4.2578 -0.80646,4.2276 -0.98291,4.1903 -1.15724,4.1453 -1.33016,4.0933 -1.50023,4.0339 -1.66783,3.9675 -1.83259,3.8944 -1.993821,3.8144 -2.151851,3.7272 -2.306338,3.6337 -2.456221,3.5344 -2.602205,3.4282 -2.743228,3.3161 -2.88,3.1986 -3.011457,3.0749 -3.137244,2.9462 -3.258071,2.8123 -3.372874,2.6735 -3.482007,2.5295 -3.584764,2.3819 -3.681496,2.2294 -3.771496,2.0735 -3.855118,1.9138 -3.932008,1.7504 -4.001457,1.5845 -4.064563,1.4152 -4.120264,1.2441 -4.168701,1.0704 -4.209838,0.8947 -4.243642,0.7179 -4.270004,0.5393 -4.288784,0.3603 -4.300176,0.18 -4.3038084,0 -4.300175,-0.18 -4.2887831,-0.3603 -4.270003,-0.5393 -4.2436405,-0.7179 -4.209838,-0.8947 -4.168701,-1.0704 -4.120264,-1.2441 -4.064563,-1.4152 -4.001457,-1.5845 -3.932008,-1.7504 -3.855118,-1.9138 -3.771496,-2.0735 -3.681496,-2.2294 -3.584764,-2.3819 -3.482007,-2.5295 -3.372874,-2.6735 -3.258071,-2.8123 -3.137244,-2.9462 -3.011457,-3.0749 -2.88,-3.1986 -2.743228,-3.3161 -2.602205,-3.4282 -2.456221,-3.5344 -2.306338,-3.6337 -2.151851,-3.7272 -1.993819,-3.8144 -1.832598,-3.8944 -1.667835,-3.9675 -1.500236,-4.0339 -1.330157,-4.0933 -1.157244,-4.1453 -0.982912,-4.1903 -0.80646,-4.2276 -0.628584,-4.2578 -0.45,-4.2803 -0.27,-4.2954 -0.0904,-4.303 0.0904,-4.303 0.27,-4.2954 0.45,-4.2803 0.628584,-4.25784 0.80646,-4.2276 0.982912,-4.1903 1.157244,-4.1453 1.330157,-4.0932 1.500236,-4.03404 1.667835,-3.9675 1.832598,-3.8944 1.993819,-3.8144 2.151851,-3.72719 2.306338,-3.63366 2.456221,-3.53445 2.602205,-3.42815 2.743228,-3.31618 2.88,-3.19854 3.011457,-3.07488 3.137244,-2.94627 3.258071,-2.81232 3.372874,-2.67342 3.482007,-2.52957 3.584764,-2.38181 3.681496,-2.22945 3.771496,-2.07354 3.855118,-1.91374 3.932008,-1.7504 4.001457,-1.58456 4.064563,-1.4152 4.120264,-1.24406 4.168701,-1.07043 4.209838,-0.89468 4.2436405,-0.71788 4.270003,-0.53929 4.2887831,-0.36035 4.300175,-0.18 4.3038084,0 4.300176,0.18 4.288784,0.36035 4.270004,0.53929 4.243642,0.71788 4.209838,0.89468 4.168701,1.07043 4.120264,1.24406 4.064563,1.4152 4.001457,1.58456 3.932008,1.7504 3.855118,1.91374 3.771496,2.07354 3.681496,2.22945 3.584764,2.38181 3.482007,2.52957 3.372874,2.67342 3.258071,2.81232 3.137244,2.94627 3.011457,3.07488 2.88,3.19854 2.743228,3.31618 2.602205,3.42815 2.456221,3.53445 2.306338,3.63366 2.151851,3.72719 1.993821,3.8144 1.83259,3.8944 1.66783,3.9675 1.50023,4.03404 1.33016,4.0932 1.15724,4.1453 z"
       id="path4790"
       inkscape:connector-curvature="0"
       sodipodi:nodetypes="ccccccccccccccccccccccccccccccccccccccccccccccccccccccccccccccccccccccccccccccccccccccccccccccccccccccccccccccccccccccccccccccccccccccccccccccccccccccc" />
    <path
       style="fill:none;stroke:#ff0000;stroke-opacity:1"
       d="m -82.937832,932.57999 -0.174331,-0.13819 -0.168661,-0.14563 -0.162284,-0.15236 -0.155551,-0.1591 -0.149173,-0.16547 -0.141733,-0.17149 -0.134645,-0.17717 -0.127205,-0.18283 -0.119055,-0.1878 -0.111614,-0.19311 -0.103111,-0.19701 -0.09461,-0.20161 -0.08646,-0.20516 -0.07724,-0.2087 -0.06909,-0.21189 -0.05988,-0.21437 -0.05067,-0.2165 -0.04181,-0.21862 -0.0326,-0.22039 -0.02303,-0.22146 -0.01417,-0.22216 -0.0046,-0.22252 0.0046,-0.22252 0.01417,-0.22217 0.02303,-0.22145 0.0326,-0.2204 0.04181,-0.21862 0.05067,-0.2165 0.05988,-0.21437 0.06909,-0.21189 0.07724,-0.2087 0.08646,-0.20515 0.09461,-0.20126 0.103111,-0.19737 0.111614,-0.19275 0.119055,-0.18815 0.127205,-0.18284 0.134645,-0.17716 0.141733,-0.1715 0.149173,-0.16547 0.155551,-0.1591 0.162284,-0.15236 0.168661,-0.14563 0.174331,-0.13819 0.18,-0.13074 0.185669,-0.12331 0.190276,-0.11516 0.195236,-0.10736 0.199134,-0.0989 0.203385,-0.0907 0.20693,-0.0818 0.210472,-0.0733 0.212953,-0.0641 0.215787,-0.0556 0.217559,-0.0461 0.219685,-0.0372 0.220748,-0.028 0.221811,-0.0184 0.22252,-0.01 0.22252,0 0.222519,0.01 0.221811,0.0184 0.220748,0.028 0.219685,0.0372 0.21756,0.0461 0.215787,0.0556 0.212953,0.0641 0.210472,0.0733 0.206929,0.0818 0.203386,0.0907 0.199134,0.0989 0.195236,0.10736 0.190276,0.11516 0.185669,0.12331 0.18,0.13074 0.174331,0.13819 0.168661,0.14563 0.162284,0.15236 0.155905,0.1591 0.148819,0.16547 0.142087,0.1715 0.134291,0.17716 0.127205,0.18284 0.119409,0.18815 0.11126,0.19275 0.10311,0.19737 0.09461,0.20126 0.08646,0.20515 0.0776,0.2087 0.06874,0.21189 0.05988,0.21437 0.05067,0.2165 0.04181,0.21862 0.0326,0.2204 0.02339,0.22145 0.01382,0.22217 0.0046,0.22252 -0.0046,0.22252 -0.01382,0.22216 -0.02339,0.22146 -0.0326,0.22039 -0.04181,0.21862 -0.05067,0.2165 -0.05988,0.21437 -0.06874,0.21189 -0.0776,0.2087 -0.08646,0.20516 -0.09461,0.20161 -0.10311,0.19701 -0.11126,0.19311 -0.119409,0.1878 -0.127205,0.18283 -0.134291,0.17717 -0.142087,0.17149 -0.148819,0.16547 -0.155905,0.1591 -0.162284,0.15236 -0.168661,0.14563 -0.174331,0.13819 -0.18,0.13075 -0.185669,0.12331 -0.190276,0.11515 -0.195236,0.10737 -0.199134,0.0992 -0.203386,0.0904 -0.206929,0.0819 -0.210472,0.0734 -0.212953,0.0641 -0.215787,0.0556 -0.21756,0.0461 -0.219685,0.0372 -0.220748,0.028 -0.221811,0.0188 -0.222519,0.009 -0.22252,0 -0.22252,-0.009 -0.221811,-0.0188 -0.220748,-0.028 -0.219685,-0.0372 -0.217559,-0.0461 -0.215787,-0.0556 -0.212953,-0.0641 -0.210472,-0.0734 -0.20693,-0.0819 -0.203385,-0.0904 -0.199134,-0.0992 -0.195236,-0.10737 -0.190276,-0.11515 -0.185669,-0.12331 z"
       id="path4906"
       inkscape:connector-curvature="0"
       sodipodi:nodetypes="ccccccccccccccccccccccccccccccccccccccccccccccccccccccccccccccccccccccccccccccccccccccccccccccccccccccccccccccccccccccccccccccccccccccccccccccccccccccc" />
    <path
       style="fill:none;stroke:#ff0000;stroke-opacity:1"
       d="m 100.47437,932.71074 -0.18567,0.12331 -0.19027,0.11515 -0.195239,0.10737 -0.199134,0.0992 -0.203385,0.0904 -0.20693,0.0819 -0.210472,0.0734 -0.212953,0.0641 -0.215787,0.0556 -0.217559,0.0461 -0.219685,0.0372 -0.220748,0.028 -0.221811,0.0188 -0.22252,0.009 -0.22252,0 -0.222519,-0.009 -0.221811,-0.0188 -0.220748,-0.028 -0.219685,-0.0372 -0.21756,-0.0461 -0.215787,-0.0556 -0.212953,-0.0641 -0.210472,-0.0734 -0.206929,-0.0819 -0.203386,-0.0904 -0.199134,-0.0992 -0.195236,-0.10737 -0.190276,-0.11515 -0.185669,-0.12331 -0.18,-0.13075 -0.174331,-0.13819 -0.168661,-0.14563 -0.162284,-0.15236 -0.155905,-0.1591 -0.148819,-0.16547 -0.142087,-0.17149 -0.134291,-0.17717 -0.127205,-0.18283 -0.119409,-0.1878 -0.11126,-0.19311 -0.10311,-0.19701 -0.09461,-0.20161 -0.08646,-0.20516 -0.0776,-0.2087 -0.06874,-0.21189 -0.05988,-0.21437 -0.05067,-0.2165 -0.04181,-0.21862 -0.0326,-0.22039 -0.02339,-0.22146 -0.01382,-0.22216 -0.0046,-0.22252 0.0046,-0.22252 0.01382,-0.22217 0.02339,-0.22145 0.0326,-0.2204 0.04181,-0.21862 0.05067,-0.2165 0.05988,-0.21437 0.06874,-0.21189 0.0776,-0.2087 0.08646,-0.20515 0.09461,-0.20126 0.10311,-0.19737 0.11126,-0.19275 0.119409,-0.18815 0.127205,-0.18284 0.134291,-0.17716 0.142087,-0.1715 0.148819,-0.16547 0.155905,-0.1591 0.162284,-0.15236 0.168661,-0.14563 0.174331,-0.13819 0.18,-0.13074 0.185669,-0.12331 0.190276,-0.11516 0.195236,-0.10736 0.199134,-0.0989 0.203386,-0.0907 0.206929,-0.0818 0.210472,-0.0733 0.212953,-0.0641 0.215787,-0.0556 0.21756,-0.0461 0.219685,-0.0372 0.220748,-0.028 0.221811,-0.0184 0.222519,-0.01 0.22252,0 0.22252,0.01 0.221811,0.0184 0.220748,0.028 0.219685,0.0372 0.217559,0.0461 0.215787,0.0556 0.212953,0.0641 0.210472,0.0733 0.20693,0.0818 0.203385,0.0907 0.199134,0.0989 0.195239,0.10736 0.19027,0.11516 0.18567,0.12331 0.18,0.13074 0.17433,0.13819 0.16866,0.14563 0.16229,0.15236 0.15555,0.1591 0.14917,0.16547 0.14173,0.1715 0.13465,0.17716 0.1272,0.18284 0.11906,0.18815 0.11161,0.19275 0.10311,0.19737 0.0946,0.20126 0.0865,0.20515 0.0772,0.2087 0.0691,0.21189 0.0599,0.21437 0.0507,0.2165 0.0418,0.21862 0.0326,0.2204 0.023,0.22145 0.0142,0.22217 0.005,0.22252 -0.005,0.22252 -0.0142,0.22216 -0.023,0.22146 -0.0326,0.22039 -0.0418,0.21862 -0.0507,0.2165 -0.0599,0.21437 -0.0691,0.21189 -0.0772,0.2087 -0.0865,0.20516 -0.0946,0.20161 -0.10311,0.19701 -0.11161,0.19311 -0.11906,0.1878 -0.1272,0.18283 -0.13465,0.17717 -0.14173,0.17149 -0.14917,0.16547 -0.15555,0.1591 -0.16229,0.15236 -0.16866,0.14563 -0.17433,0.13819 z"
       id="path5446"
       inkscape:connector-curvature="0"
       sodipodi:nodetypes="ccccccccccccccccccccccccccccccccccccccccccccccccccccccccccccccccccccccccccccccccccccccccccccccccccccccccccccccccccccccccccccccccccccccccccccccccccccccc" />
    <path
       style="fill:none;stroke:#ff0000;stroke-opacity:1"
       d="m -129.9299,1078.0268 -0.49571,-0.5503 -0.37027,-0.6417 -0.2289,-0.7044 -0.0776,-0.7366 0.0776,-0.7367 0.2289,-0.7044 0.37027,-0.6417 0.49571,-0.5503 0.59917,-0.4354 0.67678,-0.3016 0.7246,-0.1537 0.74055,0 0.72461,0.1537 0.67677,0.3016 0.59917,0.4354 0.49571,0.5503 0.37063,0.6417 0.22855,0.7044 0.0776,0.7367 -0.0776,0.7366 -0.22855,0.7044 -0.37063,0.6417 -0.49571,0.5503 -0.59917,0.4355 -0.67677,0.3012 -0.72461,0.1541 -0.74055,0 -0.7246,-0.1541 -0.67678,-0.3012 z"
       id="path5482"
       inkscape:connector-curvature="0"
       sodipodi:nodetypes="ccccccccccccccccccccccccccccccc" />
    <path
       style="fill:none;stroke:#ff0000;stroke-opacity:1"
       d="m -78.948069,1100.254 0.219685,0.037 0.21756,0.046 0.215787,0.056 0.212953,0.064 0.210472,0.073 0.206929,0.082 0.203386,0.09 0.199134,0.099 0.195236,0.1073 0.190276,0.1152 0.185669,0.1233 0.18,0.1307 0.174331,0.1382 0.168661,0.1457 0.162284,0.1523 0.155905,0.1591 0.148819,0.1655 0.142087,0.1715 0.134291,0.1771 0.127205,0.1829 0.119409,0.1878 0.11126,0.1931 0.10311,0.197 0.09461,0.2016 0.08646,0.2052 0.0776,0.2087 0.06874,0.2119 0.05988,0.2143 0.05067,0.2165 0.04181,0.2186 0.0326,0.2204 0.02339,0.2215 0.01382,0.2222 0.0046,0.2225 -0.0046,0.2225 -0.01382,0.2222 -0.02339,0.2214 -0.0326,0.2204 -0.04181,0.2186 -0.05067,0.2165 -0.05988,0.2144 -0.06874,0.2119 -0.0776,0.2087 -0.08646,0.2052 -0.09461,0.2012 -0.10311,0.1974 -0.11126,0.1927 -0.119409,0.1882 -0.127205,0.1828 -0.134291,0.1772 -0.142087,0.1715 -0.148819,0.1655 -0.155905,0.159 -0.162284,0.1524 -0.168661,0.1456 -0.174331,0.1382 -0.18,0.1308 -0.185669,0.1233 -0.190276,0.1151 -0.195236,0.1074 -0.199134,0.099 -0.203386,0.091 -0.206929,0.082 -0.210472,0.073 -0.212953,0.064 -0.215787,0.056 -0.21756,0.046 -0.219685,0.037 -0.220748,0.028 -0.221811,0.018 -0.222519,0.01 -0.22252,0 -0.22252,-0.01 -0.221811,-0.018 -0.220748,-0.028 -0.219685,-0.037 -0.217559,-0.046 -0.215787,-0.056 -0.212953,-0.064 -0.210472,-0.073 -0.20693,-0.082 -0.203385,-0.091 -0.199134,-0.099 -0.195236,-0.1074 -0.190276,-0.1151 -0.185669,-0.1233 -0.18,-0.1308 -0.174331,-0.1382 -0.168661,-0.1456 -0.162284,-0.1524 -0.155551,-0.159 -0.149173,-0.1655 -0.141733,-0.1715 -0.134645,-0.1772 -0.127205,-0.1828 -0.119055,-0.1882 -0.111614,-0.1927 -0.103111,-0.1974 -0.09461,-0.2012 -0.08646,-0.2052 -0.07724,-0.2087 -0.06909,-0.2119 -0.05988,-0.2144 -0.05067,-0.2165 -0.04181,-0.2186 -0.0326,-0.2204 -0.02303,-0.2214 -0.01417,-0.2222 -0.0046,-0.2225 0.0046,-0.2225 0.01417,-0.2222 0.02303,-0.2215 0.0326,-0.2204 0.04181,-0.2186 0.05067,-0.2165 0.05988,-0.2143 0.06909,-0.2119 0.07724,-0.2087 0.08646,-0.2052 0.09461,-0.2016 0.103111,-0.197 0.111614,-0.1931 0.119055,-0.1878 0.127205,-0.1829 0.134645,-0.1771 0.141733,-0.1715 0.149173,-0.1655 0.155551,-0.1591 0.162284,-0.1523 0.168661,-0.1457 0.174331,-0.1382 0.18,-0.1307 0.185669,-0.1233 0.190276,-0.1152 0.195236,-0.1073 0.199134,-0.099 0.203385,-0.09 0.20693,-0.082 0.210472,-0.073 0.212953,-0.064 0.215787,-0.056 0.217559,-0.046 0.219685,-0.037 0.220748,-0.028 0.221811,-0.019 0.22252,-0.01 0.22252,0 0.222519,0.01 0.221811,0.019 z"
       id="path5692"
       inkscape:connector-curvature="0"
       sodipodi:nodetypes="ccccccccccccccccccccccccccccccccccccccccccccccccccccccccccccccccccccccccccccccccccccccccccccccccccccccccccccccccccccccccccccccccccccccccccccccccccccccc" />
    <path
       style="fill:none;stroke:#ff0000;stroke-opacity:1"
       d="m 96.227364,1110.6865 -0.215787,-0.056 -0.212953,-0.064 -0.210472,-0.073 -0.206929,-0.082 -0.203386,-0.091 -0.199134,-0.099 -0.195236,-0.1074 -0.190276,-0.1151 -0.185669,-0.1233 -0.18,-0.1308 -0.174331,-0.1382 -0.168661,-0.1456 -0.162284,-0.1524 -0.155905,-0.159 -0.148819,-0.1655 -0.142087,-0.1715 -0.134291,-0.1772 -0.127205,-0.1828 -0.119409,-0.1882 -0.11126,-0.1927 -0.10311,-0.1974 -0.09461,-0.2012 -0.08646,-0.2052 -0.0776,-0.2087 -0.06874,-0.2119 -0.05988,-0.2144 -0.05067,-0.2165 -0.04181,-0.2186 -0.0326,-0.2204 -0.02339,-0.2214 -0.01382,-0.2222 -0.0046,-0.2225 0.0046,-0.2225 0.01382,-0.2222 0.02339,-0.2215 0.0326,-0.2204 0.04181,-0.2186 0.05067,-0.2165 0.05988,-0.2143 0.06874,-0.2119 0.0776,-0.2087 0.08646,-0.2052 0.09461,-0.2016 0.10311,-0.197 0.11126,-0.1931 0.119409,-0.1878 0.127205,-0.1829 0.134291,-0.1771 0.142087,-0.1715 0.148819,-0.1655 0.155905,-0.1591 0.162284,-0.1523 0.168661,-0.1457 0.174331,-0.1382 0.18,-0.1307 0.185669,-0.1233 0.190276,-0.1152 0.195236,-0.1073 0.199134,-0.099 0.203386,-0.09 0.206929,-0.082 0.210472,-0.073 0.212953,-0.064 0.215787,-0.056 0.21756,-0.046 0.219685,-0.037 0.220748,-0.028 0.221811,-0.019 0.222519,-0.01 0.22252,0 0.22252,0.01 0.221811,0.019 0.220748,0.028 0.219685,0.037 0.217559,0.046 0.215787,0.056 0.212953,0.064 0.210472,0.073 0.20693,0.082 0.203385,0.09 0.199134,0.099 0.195239,0.1073 0.19027,0.1152 0.18567,0.1233 0.18,0.1307 0.17433,0.1382 0.16866,0.1457 0.16229,0.1523 0.15555,0.1591 0.14917,0.1655 0.14173,0.1715 0.13465,0.1771 0.1272,0.1829 0.11906,0.1878 0.11161,0.1931 0.10311,0.197 0.0946,0.2016 0.0865,0.2052 0.0772,0.2087 0.0691,0.2119 0.0599,0.2143 0.0507,0.2165 0.0418,0.2186 0.0326,0.2204 0.023,0.2215 0.0142,0.2222 0.005,0.2225 -0.005,0.2225 -0.0142,0.2222 -0.023,0.2214 -0.0326,0.2204 -0.0418,0.2186 -0.0507,0.2165 -0.0599,0.2144 -0.0691,0.2119 -0.0772,0.2087 -0.0865,0.2052 -0.0946,0.2012 -0.10311,0.1974 -0.11161,0.1927 -0.11906,0.1882 -0.1272,0.1828 -0.13465,0.1772 -0.14173,0.1715 -0.14917,0.1655 -0.15555,0.159 -0.16229,0.1524 -0.16866,0.1456 -0.17433,0.1382 -0.18,0.1308 -0.18567,0.1233 -0.19027,0.1151 -0.195239,0.1074 -0.199134,0.099 -0.203385,0.091 -0.20693,0.082 -0.210472,0.073 -0.212953,0.064 -0.215787,0.056 -0.217559,0.046 -0.219685,0.037 -0.220748,0.028 -0.221811,0.018 -0.22252,0.01 -0.22252,0 -0.222519,-0.01 -0.221811,-0.018 -0.220748,-0.028 -0.219685,-0.037 z"
       id="path5846"
       inkscape:connector-curvature="0"
       sodipodi:nodetypes="ccccccccccccccccccccccccccccccccccccccccccccccccccccccccccccccccccccccccccccccccccccccccccccccccccccccccccccccccccccccccccccccccccccccccccccccccccccccc" />
    <path
       style="fill:none;stroke:#ff0000;stroke-opacity:1"
       d="m 146.37045,1100.3702 0.67678,0.3015 0.59917,0.4355 0.49571,0.5503 0.37027,0.6417 0.2289,0.7044 0.0776,0.7366 -0.0776,0.7367 -0.2289,0.7044 -0.37027,0.6417 -0.49571,0.5503 -0.59917,0.4354 -0.67678,0.3012 -0.7246,0.1541 -0.74055,0 -0.72461,-0.1541 -0.67677,-0.3012 -0.59917,-0.4354 -0.49571,-0.5503 -0.37063,-0.6417 -0.22855,-0.7044 -0.0776,-0.7367 0.0776,-0.7366 0.22855,-0.7044 0.37063,-0.6417 0.49571,-0.5503 0.59917,-0.4355 0.67677,-0.3015 0.72461,-0.1538 0.74055,0 z"
       id="path6168"
       inkscape:connector-curvature="0"
       sodipodi:nodetypes="ccccccccccccccccccccccccccccccc" />
  </g>
</svg>
