  0
SECTION
  2
BLOCKS
  0
ENDSEC
  0
SECTION
  2
ENTITIES
  0
LINE
  8
0
 10
38.6256
 20
-34.998
 11
38.7512
 21
-34.9921
  0
LINE
  8
0
 10
38.7512
 20
-34.9921
 11
38.8764
 21
-34.9822
  0
LINE
  8
0
 10
38.8764
 20
-34.9822
 11
39.0013
 21
-34.9684
  0
LINE
  8
0
 10
39.0013
 20
-34.9684
 11
39.1257
 21
-34.9507
  0
LINE
  8
0
 10
39.1257
 20
-34.9507
 11
39.2495
 21
-34.9291
  0
LINE
  8
0
 10
39.2495
 20
-34.9291
 11
39.3726
 21
-34.9037
  0
LINE
  8
0
 10
39.3726
 20
-34.9037
 11
39.4948
 21
-34.8743
  0
LINE
  8
0
 10
39.4948
 20
-34.8743
 11
39.616
 21
-34.8412
  0
LINE
  8
0
 10
39.616
 20
-34.8412
 11
39.7361
 21
-34.8042
  0
LINE
  8
0
 10
39.7361
 20
-34.8042
 11
39.8549
 21
-34.7635
  0
LINE
  8
0
 10
39.8549
 20
-34.7635
 11
39.9725
 21
-34.7191
  0
LINE
  8
0
 10
39.9725
 20
-34.7191
 11
40.0886
 21
-34.671
  0
LINE
  8
0
 10
40.0886
 20
-34.671
 11
40.2031
 21
-34.6193
  0
LINE
  8
0
 10
40.2031
 20
-34.6193
 11
40.3159
 21
-34.564
  0
LINE
  8
0
 10
40.3159
 20
-34.564
 11
40.427
 21
-34.5052
  0
LINE
  8
0
 10
40.427
 20
-34.5052
 11
40.5362
 21
-34.443
  0
LINE
  8
0
 10
40.5362
 20
-34.443
 11
40.6433
 21
-34.3773
  0
LINE
  8
0
 10
40.6433
 20
-34.3773
 11
40.7483
 21
-34.3083
  0
LINE
  8
0
 10
40.7483
 20
-34.3083
 11
40.8511
 21
-34.2361
  0
LINE
  8
0
 10
40.8511
 20
-34.2361
 11
40.9516
 21
-34.1606
  0
LINE
  8
0
 10
40.9516
 20
-34.1606
 11
41.0497
 21
-34.082
  0
LINE
  8
0
 10
41.0497
 20
-34.082
 11
41.1452
 21
-34.0004
  0
LINE
  8
0
 10
41.1452
 20
-34.0004
 11
41.2382
 21
-33.9159
  0
LINE
  8
0
 10
41.2382
 20
-33.9159
 11
41.3284
 21
-33.8284
  0
LINE
  8
0
 10
41.3284
 20
-33.8284
 11
41.4159
 21
-33.7382
  0
LINE
  8
0
 10
41.4159
 20
-33.7382
 11
41.5004
 21
-33.6452
  0
LINE
  8
0
 10
41.5004
 20
-33.6452
 11
41.582
 21
-33.5497
  0
LINE
  8
0
 10
41.582
 20
-33.5497
 11
41.6606
 21
-33.4516
  0
LINE
  8
0
 10
41.6606
 20
-33.4516
 11
41.7361
 21
-33.3511
  0
LINE
  8
0
 10
41.7361
 20
-33.3511
 11
41.8083
 21
-33.2483
  0
LINE
  8
0
 10
41.8083
 20
-33.2483
 11
41.8773
 21
-33.1433
  0
LINE
  8
0
 10
41.8773
 20
-33.1433
 11
41.943
 21
-33.0362
  0
LINE
  8
0
 10
41.943
 20
-33.0362
 11
42.0052
 21
-32.927
  0
LINE
  8
0
 10
42.0052
 20
-32.927
 11
42.064
 21
-32.8159
  0
LINE
  8
0
 10
42.064
 20
-32.8159
 11
42.1193
 21
-32.7031
  0
LINE
  8
0
 10
42.1193
 20
-32.7031
 11
42.171
 21
-32.5886
  0
LINE
  8
0
 10
42.171
 20
-32.5886
 11
42.2191
 21
-32.4725
  0
LINE
  8
0
 10
42.2191
 20
-32.4725
 11
42.2635
 21
-32.3549
  0
LINE
  8
0
 10
42.2635
 20
-32.3549
 11
42.3042
 21
-32.2361
  0
LINE
  8
0
 10
42.3042
 20
-32.2361
 11
42.3412
 21
-32.116
  0
LINE
  8
0
 10
42.3412
 20
-32.116
 11
42.3743
 21
-31.9948
  0
LINE
  8
0
 10
42.3743
 20
-31.9948
 11
42.4037
 21
-31.8726
  0
LINE
  8
0
 10
42.4037
 20
-31.8726
 11
42.4291
 21
-31.7495
  0
LINE
  8
0
 10
42.4291
 20
-31.7495
 11
42.4507
 21
-31.6257
  0
LINE
  8
0
 10
42.4507
 20
-31.6257
 11
42.4684
 21
-31.5013
  0
LINE
  8
0
 10
42.4684
 20
-31.5013
 11
42.4822
 21
-31.3764
  0
LINE
  8
0
 10
42.4822
 20
-31.3764
 11
42.4921
 21
-31.2512
  0
LINE
  8
0
 10
42.4921
 20
-31.2512
 11
42.498
 21
-31.1256
  0
LINE
  8
0
 10
42.498
 20
-31.1256
 11
42.5
 21
-31
  0
LINE
  8
0
 10
42.5
 20
-31
 11
42.5
 21
31
  0
LINE
  8
0
 10
42.5
 20
31
 11
42.498
 21
31.1256
  0
LINE
  8
0
 10
42.498
 20
31.1256
 11
42.4921
 21
31.2512
  0
LINE
  8
0
 10
42.4921
 20
31.2512
 11
42.4822
 21
31.3764
  0
LINE
  8
0
 10
42.4822
 20
31.3764
 11
42.4684
 21
31.5013
  0
LINE
  8
0
 10
42.4684
 20
31.5013
 11
42.4507
 21
31.6257
  0
LINE
  8
0
 10
42.4507
 20
31.6257
 11
42.4291
 21
31.7495
  0
LINE
  8
0
 10
42.4291
 20
31.7495
 11
42.4037
 21
31.8726
  0
LINE
  8
0
 10
42.4037
 20
31.8726
 11
42.3743
 21
31.9948
  0
LINE
  8
0
 10
42.3743
 20
31.9948
 11
42.3412
 21
32.116
  0
LINE
  8
0
 10
42.3412
 20
32.116
 11
42.3042
 21
32.2361
  0
LINE
  8
0
 10
42.3042
 20
32.2361
 11
42.2635
 21
32.3549
  0
LINE
  8
0
 10
42.2635
 20
32.3549
 11
42.2191
 21
32.4725
  0
LINE
  8
0
 10
42.2191
 20
32.4725
 11
42.171
 21
32.5886
  0
LINE
  8
0
 10
42.171
 20
32.5886
 11
42.1193
 21
32.7031
  0
LINE
  8
0
 10
42.1193
 20
32.7031
 11
42.064
 21
32.8159
  0
LINE
  8
0
 10
42.064
 20
32.8159
 11
42.0052
 21
32.927
  0
LINE
  8
0
 10
42.0052
 20
32.927
 11
41.943
 21
33.0362
  0
LINE
  8
0
 10
41.943
 20
33.0362
 11
41.8773
 21
33.1433
  0
LINE
  8
0
 10
41.8773
 20
33.1433
 11
41.8083
 21
33.2483
  0
LINE
  8
0
 10
41.8083
 20
33.2483
 11
41.7361
 21
33.3511
  0
LINE
  8
0
 10
41.7361
 20
33.3511
 11
41.6606
 21
33.4516
  0
LINE
  8
0
 10
41.6606
 20
33.4516
 11
41.582
 21
33.5497
  0
LINE
  8
0
 10
41.582
 20
33.5497
 11
41.5004
 21
33.6452
  0
LINE
  8
0
 10
41.5004
 20
33.6452
 11
41.4159
 21
33.7382
  0
LINE
  8
0
 10
41.4159
 20
33.7382
 11
41.3284
 21
33.8284
  0
LINE
  8
0
 10
41.3284
 20
33.8284
 11
41.2382
 21
33.9159
  0
LINE
  8
0
 10
41.2382
 20
33.9159
 11
41.1452
 21
34.0004
  0
LINE
  8
0
 10
41.1452
 20
34.0004
 11
41.0497
 21
34.082
  0
LINE
  8
0
 10
41.0497
 20
34.082
 11
40.9516
 21
34.1606
  0
LINE
  8
0
 10
40.9516
 20
34.1606
 11
40.8511
 21
34.2361
  0
LINE
  8
0
 10
40.8511
 20
34.2361
 11
40.7483
 21
34.3083
  0
LINE
  8
0
 10
40.7483
 20
34.3083
 11
40.6433
 21
34.3773
  0
LINE
  8
0
 10
40.6433
 20
34.3773
 11
40.5362
 21
34.443
  0
LINE
  8
0
 10
40.5362
 20
34.443
 11
40.427
 21
34.5052
  0
LINE
  8
0
 10
40.427
 20
34.5052
 11
40.3159
 21
34.564
  0
LINE
  8
0
 10
40.3159
 20
34.564
 11
40.2031
 21
34.6193
  0
LINE
  8
0
 10
40.2031
 20
34.6193
 11
40.0886
 21
34.671
  0
LINE
  8
0
 10
40.0886
 20
34.671
 11
39.9725
 21
34.7191
  0
LINE
  8
0
 10
39.9725
 20
34.7191
 11
39.8549
 21
34.7635
  0
LINE
  8
0
 10
39.8549
 20
34.7635
 11
39.7361
 21
34.8042
  0
LINE
  8
0
 10
39.7361
 20
34.8042
 11
39.616
 21
34.8412
  0
LINE
  8
0
 10
39.616
 20
34.8412
 11
39.4948
 21
34.8743
  0
LINE
  8
0
 10
39.4948
 20
34.8743
 11
39.3726
 21
34.9037
  0
LINE
  8
0
 10
39.3726
 20
34.9037
 11
39.2495
 21
34.9291
  0
LINE
  8
0
 10
39.2495
 20
34.9291
 11
39.1257
 21
34.9507
  0
LINE
  8
0
 10
39.1257
 20
34.9507
 11
39.0013
 21
34.9684
  0
LINE
  8
0
 10
39.0013
 20
34.9684
 11
38.8764
 21
34.9822
  0
LINE
  8
0
 10
38.8764
 20
34.9822
 11
38.7512
 21
34.9921
  0
LINE
  8
0
 10
38.7512
 20
34.9921
 11
38.6256
 21
34.998
  0
LINE
  8
0
 10
38.6256
 20
34.998
 11
38.5
 21
35
  0
LINE
  8
0
 10
38.5
 20
35
 11
-38.5
 21
35
  0
LINE
  8
0
 10
-38.5
 20
35
 11
-38.6256
 21
34.998
  0
LINE
  8
0
 10
-38.6256
 20
34.998
 11
-38.7512
 21
34.9921
  0
LINE
  8
0
 10
-38.7512
 20
34.9921
 11
-38.8764
 21
34.9822
  0
LINE
  8
0
 10
-38.8764
 20
34.9822
 11
-39.0013
 21
34.9684
  0
LINE
  8
0
 10
-39.0013
 20
34.9684
 11
-39.1257
 21
34.9507
  0
LINE
  8
0
 10
-39.1257
 20
34.9507
 11
-39.2495
 21
34.9291
  0
LINE
  8
0
 10
-39.2495
 20
34.9291
 11
-39.3726
 21
34.9037
  0
LINE
  8
0
 10
-39.3726
 20
34.9037
 11
-39.4948
 21
34.8743
  0
LINE
  8
0
 10
-39.4948
 20
34.8743
 11
-39.616
 21
34.8412
  0
LINE
  8
0
 10
-39.616
 20
34.8412
 11
-39.7361
 21
34.8042
  0
LINE
  8
0
 10
-39.7361
 20
34.8042
 11
-39.8549
 21
34.7635
  0
LINE
  8
0
 10
-39.8549
 20
34.7635
 11
-39.9725
 21
34.7191
  0
LINE
  8
0
 10
-39.9725
 20
34.7191
 11
-40.0886
 21
34.671
  0
LINE
  8
0
 10
-40.0886
 20
34.671
 11
-40.2031
 21
34.6193
  0
LINE
  8
0
 10
-40.2031
 20
34.6193
 11
-40.3159
 21
34.564
  0
LINE
  8
0
 10
-40.3159
 20
34.564
 11
-40.427
 21
34.5052
  0
LINE
  8
0
 10
-40.427
 20
34.5052
 11
-40.5362
 21
34.443
  0
LINE
  8
0
 10
-40.5362
 20
34.443
 11
-40.6433
 21
34.3773
  0
LINE
  8
0
 10
-40.6433
 20
34.3773
 11
-40.7483
 21
34.3083
  0
LINE
  8
0
 10
-40.7483
 20
34.3083
 11
-40.8511
 21
34.2361
  0
LINE
  8
0
 10
-40.8511
 20
34.2361
 11
-40.9516
 21
34.1606
  0
LINE
  8
0
 10
-40.9516
 20
34.1606
 11
-41.0497
 21
34.082
  0
LINE
  8
0
 10
-41.0497
 20
34.082
 11
-41.1452
 21
34.0004
  0
LINE
  8
0
 10
-41.1452
 20
34.0004
 11
-41.2382
 21
33.9159
  0
LINE
  8
0
 10
-41.2382
 20
33.9159
 11
-41.3284
 21
33.8284
  0
LINE
  8
0
 10
-41.3284
 20
33.8284
 11
-41.4159
 21
33.7382
  0
LINE
  8
0
 10
-41.4159
 20
33.7382
 11
-41.5004
 21
33.6452
  0
LINE
  8
0
 10
-41.5004
 20
33.6452
 11
-41.582
 21
33.5497
  0
LINE
  8
0
 10
-41.582
 20
33.5497
 11
-41.6606
 21
33.4516
  0
LINE
  8
0
 10
-41.6606
 20
33.4516
 11
-41.7361
 21
33.3511
  0
LINE
  8
0
 10
-41.7361
 20
33.3511
 11
-41.8083
 21
33.2483
  0
LINE
  8
0
 10
-41.8083
 20
33.2483
 11
-41.8773
 21
33.1433
  0
LINE
  8
0
 10
-41.8773
 20
33.1433
 11
-41.943
 21
33.0362
  0
LINE
  8
0
 10
-41.943
 20
33.0362
 11
-42.0052
 21
32.927
  0
LINE
  8
0
 10
-42.0052
 20
32.927
 11
-42.064
 21
32.8159
  0
LINE
  8
0
 10
-42.064
 20
32.8159
 11
-42.1193
 21
32.7031
  0
LINE
  8
0
 10
-42.1193
 20
32.7031
 11
-42.171
 21
32.5886
  0
LINE
  8
0
 10
-42.171
 20
32.5886
 11
-42.2191
 21
32.4725
  0
LINE
  8
0
 10
-42.2191
 20
32.4725
 11
-42.2635
 21
32.3549
  0
LINE
  8
0
 10
-42.2635
 20
32.3549
 11
-42.3042
 21
32.2361
  0
LINE
  8
0
 10
-42.3042
 20
32.2361
 11
-42.3412
 21
32.116
  0
LINE
  8
0
 10
-42.3412
 20
32.116
 11
-42.3743
 21
31.9948
  0
LINE
  8
0
 10
-42.3743
 20
31.9948
 11
-42.4037
 21
31.8726
  0
LINE
  8
0
 10
-42.4037
 20
31.8726
 11
-42.4291
 21
31.7495
  0
LINE
  8
0
 10
-42.4291
 20
31.7495
 11
-42.4507
 21
31.6257
  0
LINE
  8
0
 10
-42.4507
 20
31.6257
 11
-42.4684
 21
31.5013
  0
LINE
  8
0
 10
-42.4684
 20
31.5013
 11
-42.4822
 21
31.3764
  0
LINE
  8
0
 10
-42.4822
 20
31.3764
 11
-42.4921
 21
31.2512
  0
LINE
  8
0
 10
-42.4921
 20
31.2512
 11
-42.498
 21
31.1256
  0
LINE
  8
0
 10
-42.498
 20
31.1256
 11
-42.5
 21
31
  0
LINE
  8
0
 10
-42.5
 20
31
 11
-42.5
 21
-31
  0
LINE
  8
0
 10
-42.5
 20
-31
 11
-42.498
 21
-31.1256
  0
LINE
  8
0
 10
-42.498
 20
-31.1256
 11
-42.4921
 21
-31.2512
  0
LINE
  8
0
 10
-42.4921
 20
-31.2512
 11
-42.4822
 21
-31.3764
  0
LINE
  8
0
 10
-42.4822
 20
-31.3764
 11
-42.4684
 21
-31.5013
  0
LINE
  8
0
 10
-42.4684
 20
-31.5013
 11
-42.4507
 21
-31.6257
  0
LINE
  8
0
 10
-42.4507
 20
-31.6257
 11
-42.4291
 21
-31.7495
  0
LINE
  8
0
 10
-42.4291
 20
-31.7495
 11
-42.4037
 21
-31.8726
  0
LINE
  8
0
 10
-42.4037
 20
-31.8726
 11
-42.3743
 21
-31.9948
  0
LINE
  8
0
 10
-42.3743
 20
-31.9948
 11
-42.3412
 21
-32.116
  0
LINE
  8
0
 10
-42.3412
 20
-32.116
 11
-42.3042
 21
-32.2361
  0
LINE
  8
0
 10
-42.3042
 20
-32.2361
 11
-42.2635
 21
-32.3549
  0
LINE
  8
0
 10
-42.2635
 20
-32.3549
 11
-42.2191
 21
-32.4725
  0
LINE
  8
0
 10
-42.2191
 20
-32.4725
 11
-42.171
 21
-32.5886
  0
LINE
  8
0
 10
-42.171
 20
-32.5886
 11
-42.1193
 21
-32.7031
  0
LINE
  8
0
 10
-42.1193
 20
-32.7031
 11
-42.064
 21
-32.8159
  0
LINE
  8
0
 10
-42.064
 20
-32.8159
 11
-42.0052
 21
-32.927
  0
LINE
  8
0
 10
-42.0052
 20
-32.927
 11
-41.943
 21
-33.0362
  0
LINE
  8
0
 10
-41.943
 20
-33.0362
 11
-41.8773
 21
-33.1433
  0
LINE
  8
0
 10
-41.8773
 20
-33.1433
 11
-41.8083
 21
-33.2483
  0
LINE
  8
0
 10
-41.8083
 20
-33.2483
 11
-41.7361
 21
-33.3511
  0
LINE
  8
0
 10
-41.7361
 20
-33.3511
 11
-41.6606
 21
-33.4516
  0
LINE
  8
0
 10
-41.6606
 20
-33.4516
 11
-41.582
 21
-33.5497
  0
LINE
  8
0
 10
-41.582
 20
-33.5497
 11
-41.5004
 21
-33.6452
  0
LINE
  8
0
 10
-41.5004
 20
-33.6452
 11
-41.4159
 21
-33.7382
  0
LINE
  8
0
 10
-41.4159
 20
-33.7382
 11
-41.3284
 21
-33.8284
  0
LINE
  8
0
 10
-41.3284
 20
-33.8284
 11
-41.2382
 21
-33.9159
  0
LINE
  8
0
 10
-41.2382
 20
-33.9159
 11
-41.1452
 21
-34.0004
  0
LINE
  8
0
 10
-41.1452
 20
-34.0004
 11
-41.0497
 21
-34.082
  0
LINE
  8
0
 10
-41.0497
 20
-34.082
 11
-40.9516
 21
-34.1606
  0
LINE
  8
0
 10
-40.9516
 20
-34.1606
 11
-40.8511
 21
-34.2361
  0
LINE
  8
0
 10
-40.8511
 20
-34.2361
 11
-40.7483
 21
-34.3083
  0
LINE
  8
0
 10
-40.7483
 20
-34.3083
 11
-40.6433
 21
-34.3773
  0
LINE
  8
0
 10
-40.6433
 20
-34.3773
 11
-40.5362
 21
-34.443
  0
LINE
  8
0
 10
-40.5362
 20
-34.443
 11
-40.427
 21
-34.5052
  0
LINE
  8
0
 10
-40.427
 20
-34.5052
 11
-40.3159
 21
-34.564
  0
LINE
  8
0
 10
-40.3159
 20
-34.564
 11
-40.2031
 21
-34.6193
  0
LINE
  8
0
 10
-40.2031
 20
-34.6193
 11
-40.0886
 21
-34.671
  0
LINE
  8
0
 10
-40.0886
 20
-34.671
 11
-39.9725
 21
-34.7191
  0
LINE
  8
0
 10
-39.9725
 20
-34.7191
 11
-39.8549
 21
-34.7635
  0
LINE
  8
0
 10
-39.8549
 20
-34.7635
 11
-39.7361
 21
-34.8042
  0
LINE
  8
0
 10
-39.7361
 20
-34.8042
 11
-39.616
 21
-34.8412
  0
LINE
  8
0
 10
-39.616
 20
-34.8412
 11
-39.4948
 21
-34.8743
  0
LINE
  8
0
 10
-39.4948
 20
-34.8743
 11
-39.3726
 21
-34.9037
  0
LINE
  8
0
 10
-39.3726
 20
-34.9037
 11
-39.2495
 21
-34.9291
  0
LINE
  8
0
 10
-39.2495
 20
-34.9291
 11
-39.1257
 21
-34.9507
  0
LINE
  8
0
 10
-39.1257
 20
-34.9507
 11
-39.0013
 21
-34.9684
  0
LINE
  8
0
 10
-39.0013
 20
-34.9684
 11
-38.8764
 21
-34.9822
  0
LINE
  8
0
 10
-38.8764
 20
-34.9822
 11
-38.7512
 21
-34.9921
  0
LINE
  8
0
 10
-38.7512
 20
-34.9921
 11
-38.6256
 21
-34.998
  0
LINE
  8
0
 10
-38.6256
 20
-34.998
 11
-38.5
 21
-35
  0
LINE
  8
0
 10
-38.5
 20
-35
 11
38.5
 21
-35
  0
LINE
  8
0
 10
38.5
 20
-35
 11
38.6256
 21
-34.998
  0
LINE
  8
0
 10
-38.6564
 20
30.0123
 11
-38.809
 21
30.0489
  0
LINE
  8
0
 10
-38.809
 20
30.0489
 11
-38.954
 21
30.109
  0
LINE
  8
0
 10
-38.954
 20
30.109
 11
-39.0878
 21
30.191
  0
LINE
  8
0
 10
-39.0878
 20
30.191
 11
-39.2071
 21
30.2929
  0
LINE
  8
0
 10
-39.2071
 20
30.2929
 11
-39.309
 21
30.4122
  0
LINE
  8
0
 10
-39.309
 20
30.4122
 11
-39.391
 21
30.546
  0
LINE
  8
0
 10
-39.391
 20
30.546
 11
-39.451
 21
30.691
  0
LINE
  8
0
 10
-39.451
 20
30.691
 11
-39.4877
 21
30.8436
  0
LINE
  8
0
 10
-39.4877
 20
30.8436
 11
-39.5
 21
31
  0
LINE
  8
0
 10
-39.5
 20
31
 11
-39.4877
 21
31.1564
  0
LINE
  8
0
 10
-39.4877
 20
31.1564
 11
-39.451
 21
31.309
  0
LINE
  8
0
 10
-39.451
 20
31.309
 11
-39.391
 21
31.454
  0
LINE
  8
0
 10
-39.391
 20
31.454
 11
-39.309
 21
31.5878
  0
LINE
  8
0
 10
-39.309
 20
31.5878
 11
-39.2071
 21
31.7071
  0
LINE
  8
0
 10
-39.2071
 20
31.7071
 11
-39.0878
 21
31.809
  0
LINE
  8
0
 10
-39.0878
 20
31.809
 11
-38.954
 21
31.891
  0
LINE
  8
0
 10
-38.954
 20
31.891
 11
-38.809
 21
31.951
  0
LINE
  8
0
 10
-38.809
 20
31.951
 11
-38.6564
 21
31.9877
  0
LINE
  8
0
 10
-38.6564
 20
31.9877
 11
-38.5
 21
32
  0
LINE
  8
0
 10
-38.5
 20
32
 11
-38.3436
 21
31.9877
  0
LINE
  8
0
 10
-38.3436
 20
31.9877
 11
-38.191
 21
31.951
  0
LINE
  8
0
 10
-38.191
 20
31.951
 11
-38.046
 21
31.891
  0
LINE
  8
0
 10
-38.046
 20
31.891
 11
-37.9122
 21
31.809
  0
LINE
  8
0
 10
-37.9122
 20
31.809
 11
-37.7929
 21
31.7071
  0
LINE
  8
0
 10
-37.7929
 20
31.7071
 11
-37.691
 21
31.5878
  0
LINE
  8
0
 10
-37.691
 20
31.5878
 11
-37.609
 21
31.454
  0
LINE
  8
0
 10
-37.609
 20
31.454
 11
-37.5489
 21
31.309
  0
LINE
  8
0
 10
-37.5489
 20
31.309
 11
-37.5123
 21
31.1564
  0
LINE
  8
0
 10
-37.5123
 20
31.1564
 11
-37.5
 21
31
  0
LINE
  8
0
 10
-37.5
 20
31
 11
-37.5123
 21
30.8436
  0
LINE
  8
0
 10
-37.5123
 20
30.8436
 11
-37.5489
 21
30.691
  0
LINE
  8
0
 10
-37.5489
 20
30.691
 11
-37.609
 21
30.546
  0
LINE
  8
0
 10
-37.609
 20
30.546
 11
-37.691
 21
30.4122
  0
LINE
  8
0
 10
-37.691
 20
30.4122
 11
-37.7929
 21
30.2929
  0
LINE
  8
0
 10
-37.7929
 20
30.2929
 11
-37.9122
 21
30.191
  0
LINE
  8
0
 10
-37.9122
 20
30.191
 11
-38.046
 21
30.109
  0
LINE
  8
0
 10
-38.046
 20
30.109
 11
-38.191
 21
30.0489
  0
LINE
  8
0
 10
-38.191
 20
30.0489
 11
-38.3436
 21
30.0123
  0
LINE
  8
0
 10
-38.3436
 20
30.0123
 11
-38.5
 21
30
  0
LINE
  8
0
 10
-38.5
 20
30
 11
-38.6564
 21
30.0123
  0
LINE
  8
0
 10
38.3436
 20
30.0123
 11
38.191
 21
30.0489
  0
LINE
  8
0
 10
38.191
 20
30.0489
 11
38.046
 21
30.109
  0
LINE
  8
0
 10
38.046
 20
30.109
 11
37.9122
 21
30.191
  0
LINE
  8
0
 10
37.9122
 20
30.191
 11
37.7929
 21
30.2929
  0
LINE
  8
0
 10
37.7929
 20
30.2929
 11
37.691
 21
30.4122
  0
LINE
  8
0
 10
37.691
 20
30.4122
 11
37.609
 21
30.546
  0
LINE
  8
0
 10
37.609
 20
30.546
 11
37.5489
 21
30.691
  0
LINE
  8
0
 10
37.5489
 20
30.691
 11
37.5123
 21
30.8436
  0
LINE
  8
0
 10
37.5123
 20
30.8436
 11
37.5
 21
31
  0
LINE
  8
0
 10
37.5
 20
31
 11
37.5123
 21
31.1564
  0
LINE
  8
0
 10
37.5123
 20
31.1564
 11
37.5489
 21
31.309
  0
LINE
  8
0
 10
37.5489
 20
31.309
 11
37.609
 21
31.454
  0
LINE
  8
0
 10
37.609
 20
31.454
 11
37.691
 21
31.5878
  0
LINE
  8
0
 10
37.691
 20
31.5878
 11
37.7929
 21
31.7071
  0
LINE
  8
0
 10
37.7929
 20
31.7071
 11
37.9122
 21
31.809
  0
LINE
  8
0
 10
37.9122
 20
31.809
 11
38.046
 21
31.891
  0
LINE
  8
0
 10
38.046
 20
31.891
 11
38.191
 21
31.951
  0
LINE
  8
0
 10
38.191
 20
31.951
 11
38.3436
 21
31.9877
  0
LINE
  8
0
 10
38.3436
 20
31.9877
 11
38.5
 21
32
  0
LINE
  8
0
 10
38.5
 20
32
 11
38.6564
 21
31.9877
  0
LINE
  8
0
 10
38.6564
 20
31.9877
 11
38.809
 21
31.951
  0
LINE
  8
0
 10
38.809
 20
31.951
 11
38.954
 21
31.891
  0
LINE
  8
0
 10
38.954
 20
31.891
 11
39.0878
 21
31.809
  0
LINE
  8
0
 10
39.0878
 20
31.809
 11
39.2071
 21
31.7071
  0
LINE
  8
0
 10
39.2071
 20
31.7071
 11
39.309
 21
31.5878
  0
LINE
  8
0
 10
39.309
 20
31.5878
 11
39.391
 21
31.454
  0
LINE
  8
0
 10
39.391
 20
31.454
 11
39.451
 21
31.309
  0
LINE
  8
0
 10
39.451
 20
31.309
 11
39.4877
 21
31.1564
  0
LINE
  8
0
 10
39.4877
 20
31.1564
 11
39.5
 21
31
  0
LINE
  8
0
 10
39.5
 20
31
 11
39.4877
 21
30.8436
  0
LINE
  8
0
 10
39.4877
 20
30.8436
 11
39.451
 21
30.691
  0
LINE
  8
0
 10
39.451
 20
30.691
 11
39.391
 21
30.546
  0
LINE
  8
0
 10
39.391
 20
30.546
 11
39.309
 21
30.4122
  0
LINE
  8
0
 10
39.309
 20
30.4122
 11
39.2071
 21
30.2929
  0
LINE
  8
0
 10
39.2071
 20
30.2929
 11
39.0878
 21
30.191
  0
LINE
  8
0
 10
39.0878
 20
30.191
 11
38.954
 21
30.109
  0
LINE
  8
0
 10
38.954
 20
30.109
 11
38.809
 21
30.0489
  0
LINE
  8
0
 10
38.809
 20
30.0489
 11
38.6564
 21
30.0123
  0
LINE
  8
0
 10
38.6564
 20
30.0123
 11
38.5
 21
30
  0
LINE
  8
0
 10
38.5
 20
30
 11
38.3436
 21
30.0123
  0
LINE
  8
0
 10
-0.910904
 20
-28.9857
 11
-1.82092
 21
-28.9428
  0
LINE
  8
0
 10
-1.82092
 20
-28.9428
 11
-2.72913
 21
-28.8713
  0
LINE
  8
0
 10
-2.72913
 20
-28.8713
 11
-3.63466
 21
-28.7713
  0
LINE
  8
0
 10
-3.63466
 20
-28.7713
 11
-4.53659
 21
-28.643
  0
LINE
  8
0
 10
-4.53659
 20
-28.643
 11
-5.43405
 21
-28.4863
  0
LINE
  8
0
 10
-5.43405
 20
-28.4863
 11
-6.32614
 21
-28.3016
  0
LINE
  8
0
 10
-6.32614
 20
-28.3016
 11
-7.21201
 21
-28.0889
  0
LINE
  8
0
 10
-7.21201
 20
-28.0889
 11
-8.09073
 21
-27.8485
  0
LINE
  8
0
 10
-8.09073
 20
-27.8485
 11
-8.96149
 21
-27.5806
  0
LINE
  8
0
 10
-8.96149
 20
-27.5806
 11
-9.82339
 21
-27.2855
  0
LINE
  8
0
 10
-9.82339
 20
-27.2855
 11
-10.6756
 21
-26.9635
  0
LINE
  8
0
 10
-10.6756
 20
-26.9635
 11
-11.5173
 21
-26.6149
  0
LINE
  8
0
 10
-11.5173
 20
-26.6149
 11
-12.3476
 21
-26.24
  0
LINE
  8
0
 10
-12.3476
 20
-26.24
 11
-13.1657
 21
-25.8392
  0
LINE
  8
0
 10
-13.1657
 20
-25.8392
 11
-13.9709
 21
-25.4129
  0
LINE
  8
0
 10
-13.9709
 20
-25.4129
 11
-14.7622
 21
-24.9615
  0
LINE
  8
0
 10
-14.7622
 20
-24.9615
 11
-15.539
 21
-24.4855
  0
LINE
  8
0
 10
-15.539
 20
-24.4855
 11
-16.3004
 21
-23.9853
  0
LINE
  8
0
 10
-16.3004
 20
-23.9853
 11
-17.0458
 21
-23.4615
  0
LINE
  8
0
 10
-17.0458
 20
-23.4615
 11
-17.7743
 21
-22.9145
  0
LINE
  8
0
 10
-17.7743
 20
-22.9145
 11
-18.4853
 21
-22.3449
  0
LINE
  8
0
 10
-18.4853
 20
-22.3449
 11
-19.178
 21
-21.7532
  0
LINE
  8
0
 10
-19.178
 20
-21.7532
 11
-19.8519
 21
-21.1401
  0
LINE
  8
0
 10
-19.8519
 20
-21.1401
 11
-20.5061
 21
-20.5061
  0
LINE
  8
0
 10
-20.5061
 20
-20.5061
 11
-21.1401
 21
-19.8519
  0
LINE
  8
0
 10
-21.1401
 20
-19.8519
 11
-21.7532
 21
-19.178
  0
LINE
  8
0
 10
-21.7532
 20
-19.178
 11
-22.3449
 21
-18.4853
  0
LINE
  8
0
 10
-22.3449
 20
-18.4853
 11
-22.9145
 21
-17.7743
  0
LINE
  8
0
 10
-22.9145
 20
-17.7743
 11
-23.4615
 21
-17.0458
  0
LINE
  8
0
 10
-23.4615
 20
-17.0458
 11
-23.9853
 21
-16.3004
  0
LINE
  8
0
 10
-23.9853
 20
-16.3004
 11
-24.4855
 21
-15.539
  0
LINE
  8
0
 10
-24.4855
 20
-15.539
 11
-24.9615
 21
-14.7622
  0
LINE
  8
0
 10
-24.9615
 20
-14.7622
 11
-25.4129
 21
-13.9709
  0
LINE
  8
0
 10
-25.4129
 20
-13.9709
 11
-25.8392
 21
-13.1657
  0
LINE
  8
0
 10
-25.8392
 20
-13.1657
 11
-26.24
 21
-12.3476
  0
LINE
  8
0
 10
-26.24
 20
-12.3476
 11
-26.6149
 21
-11.5173
  0
LINE
  8
0
 10
-26.6149
 20
-11.5173
 11
-26.9635
 21
-10.6756
  0
LINE
  8
0
 10
-26.9635
 20
-10.6756
 11
-27.2855
 21
-9.82339
  0
LINE
  8
0
 10
-27.2855
 20
-9.82339
 11
-27.5806
 21
-8.96149
  0
LINE
  8
0
 10
-27.5806
 20
-8.96149
 11
-27.8485
 21
-8.09073
  0
LINE
  8
0
 10
-27.8485
 20
-8.09073
 11
-28.0889
 21
-7.21201
  0
LINE
  8
0
 10
-28.0889
 20
-7.21201
 11
-28.3016
 21
-6.32614
  0
LINE
  8
0
 10
-28.3016
 20
-6.32614
 11
-28.4863
 21
-5.43405
  0
LINE
  8
0
 10
-28.4863
 20
-5.43405
 11
-28.643
 21
-4.53659
  0
LINE
  8
0
 10
-28.643
 20
-4.53659
 11
-28.7713
 21
-3.63466
  0
LINE
  8
0
 10
-28.7713
 20
-3.63466
 11
-28.8713
 21
-2.72913
  0
LINE
  8
0
 10
-28.8713
 20
-2.72913
 11
-28.9428
 21
-1.82092
  0
LINE
  8
0
 10
-28.9428
 20
-1.82092
 11
-28.9857
 21
-0.910904
  0
LINE
  8
0
 10
-28.9857
 20
-0.910904
 11
-29
 21
0
  0
LINE
  8
0
 10
-29
 20
0
 11
-28.9857
 21
0.910904
  0
LINE
  8
0
 10
-28.9857
 20
0.910904
 11
-28.9428
 21
1.82092
  0
LINE
  8
0
 10
-28.9428
 20
1.82092
 11
-28.8713
 21
2.72913
  0
LINE
  8
0
 10
-28.8713
 20
2.72913
 11
-28.7713
 21
3.63466
  0
LINE
  8
0
 10
-28.7713
 20
3.63466
 11
-28.643
 21
4.53659
  0
LINE
  8
0
 10
-28.643
 20
4.53659
 11
-28.4863
 21
5.43405
  0
LINE
  8
0
 10
-28.4863
 20
5.43405
 11
-28.3016
 21
6.32614
  0
LINE
  8
0
 10
-28.3016
 20
6.32614
 11
-28.0889
 21
7.21201
  0
LINE
  8
0
 10
-28.0889
 20
7.21201
 11
-27.8485
 21
8.09073
  0
LINE
  8
0
 10
-27.8485
 20
8.09073
 11
-27.5806
 21
8.96149
  0
LINE
  8
0
 10
-27.5806
 20
8.96149
 11
-27.2855
 21
9.82339
  0
LINE
  8
0
 10
-27.2855
 20
9.82339
 11
-26.9635
 21
10.6756
  0
LINE
  8
0
 10
-26.9635
 20
10.6756
 11
-26.6149
 21
11.5173
  0
LINE
  8
0
 10
-26.6149
 20
11.5173
 11
-26.24
 21
12.3476
  0
LINE
  8
0
 10
-26.24
 20
12.3476
 11
-25.8392
 21
13.1657
  0
LINE
  8
0
 10
-25.8392
 20
13.1657
 11
-25.4129
 21
13.9709
  0
LINE
  8
0
 10
-25.4129
 20
13.9709
 11
-24.9615
 21
14.7622
  0
LINE
  8
0
 10
-24.9615
 20
14.7622
 11
-24.4855
 21
15.539
  0
LINE
  8
0
 10
-24.4855
 20
15.539
 11
-23.9853
 21
16.3004
  0
LINE
  8
0
 10
-23.9853
 20
16.3004
 11
-23.4615
 21
17.0458
  0
LINE
  8
0
 10
-23.4615
 20
17.0458
 11
-22.9145
 21
17.7743
  0
LINE
  8
0
 10
-22.9145
 20
17.7743
 11
-22.3449
 21
18.4853
  0
LINE
  8
0
 10
-22.3449
 20
18.4853
 11
-21.7532
 21
19.178
  0
LINE
  8
0
 10
-21.7532
 20
19.178
 11
-21.1401
 21
19.8519
  0
LINE
  8
0
 10
-21.1401
 20
19.8519
 11
-20.5061
 21
20.5061
  0
LINE
  8
0
 10
-20.5061
 20
20.5061
 11
-19.8519
 21
21.1401
  0
LINE
  8
0
 10
-19.8519
 20
21.1401
 11
-19.178
 21
21.7532
  0
LINE
  8
0
 10
-19.178
 20
21.7532
 11
-18.4853
 21
22.3449
  0
LINE
  8
0
 10
-18.4853
 20
22.3449
 11
-17.7743
 21
22.9145
  0
LINE
  8
0
 10
-17.7743
 20
22.9145
 11
-17.0458
 21
23.4615
  0
LINE
  8
0
 10
-17.0458
 20
23.4615
 11
-16.3004
 21
23.9853
  0
LINE
  8
0
 10
-16.3004
 20
23.9853
 11
-15.539
 21
24.4855
  0
LINE
  8
0
 10
-15.539
 20
24.4855
 11
-14.7622
 21
24.9615
  0
LINE
  8
0
 10
-14.7622
 20
24.9615
 11
-13.9709
 21
25.4129
  0
LINE
  8
0
 10
-13.9709
 20
25.4129
 11
-13.1657
 21
25.8392
  0
LINE
  8
0
 10
-13.1657
 20
25.8392
 11
-12.3476
 21
26.24
  0
LINE
  8
0
 10
-12.3476
 20
26.24
 11
-11.5173
 21
26.6149
  0
LINE
  8
0
 10
-11.5173
 20
26.6149
 11
-10.6756
 21
26.9635
  0
LINE
  8
0
 10
-10.6756
 20
26.9635
 11
-9.82339
 21
27.2855
  0
LINE
  8
0
 10
-9.82339
 20
27.2855
 11
-8.96149
 21
27.5806
  0
LINE
  8
0
 10
-8.96149
 20
27.5806
 11
-8.09073
 21
27.8485
  0
LINE
  8
0
 10
-8.09073
 20
27.8485
 11
-7.21201
 21
28.0889
  0
LINE
  8
0
 10
-7.21201
 20
28.0889
 11
-6.32614
 21
28.3016
  0
LINE
  8
0
 10
-6.32614
 20
28.3016
 11
-5.43405
 21
28.4863
  0
LINE
  8
0
 10
-5.43405
 20
28.4863
 11
-4.53659
 21
28.643
  0
LINE
  8
0
 10
-4.53659
 20
28.643
 11
-3.63466
 21
28.7713
  0
LINE
  8
0
 10
-3.63466
 20
28.7713
 11
-2.72913
 21
28.8713
  0
LINE
  8
0
 10
-2.72913
 20
28.8713
 11
-1.82092
 21
28.9428
  0
LINE
  8
0
 10
-1.82092
 20
28.9428
 11
-0.910904
 21
28.9857
  0
LINE
  8
0
 10
-0.910904
 20
28.9857
 11
0
 21
29
  0
LINE
  8
0
 10
0
 20
29
 11
0.910904
 21
28.9857
  0
LINE
  8
0
 10
0.910904
 20
28.9857
 11
1.82092
 21
28.9428
  0
LINE
  8
0
 10
1.82092
 20
28.9428
 11
2.72913
 21
28.8713
  0
LINE
  8
0
 10
2.72913
 20
28.8713
 11
3.63466
 21
28.7713
  0
LINE
  8
0
 10
3.63466
 20
28.7713
 11
4.53659
 21
28.643
  0
LINE
  8
0
 10
4.53659
 20
28.643
 11
5.43405
 21
28.4863
  0
LINE
  8
0
 10
5.43405
 20
28.4863
 11
6.32614
 21
28.3016
  0
LINE
  8
0
 10
6.32614
 20
28.3016
 11
7.21201
 21
28.0889
  0
LINE
  8
0
 10
7.21201
 20
28.0889
 11
8.09073
 21
27.8485
  0
LINE
  8
0
 10
8.09073
 20
27.8485
 11
8.96149
 21
27.5806
  0
LINE
  8
0
 10
8.96149
 20
27.5806
 11
9.82339
 21
27.2855
  0
LINE
  8
0
 10
9.82339
 20
27.2855
 11
10.6756
 21
26.9635
  0
LINE
  8
0
 10
10.6756
 20
26.9635
 11
11.5173
 21
26.6149
  0
LINE
  8
0
 10
11.5173
 20
26.6149
 11
12.3476
 21
26.24
  0
LINE
  8
0
 10
12.3476
 20
26.24
 11
13.1657
 21
25.8392
  0
LINE
  8
0
 10
13.1657
 20
25.8392
 11
13.9709
 21
25.4129
  0
LINE
  8
0
 10
13.9709
 20
25.4129
 11
14.7622
 21
24.9615
  0
LINE
  8
0
 10
14.7622
 20
24.9615
 11
15.539
 21
24.4855
  0
LINE
  8
0
 10
15.539
 20
24.4855
 11
16.3004
 21
23.9853
  0
LINE
  8
0
 10
16.3004
 20
23.9853
 11
17.0458
 21
23.4615
  0
LINE
  8
0
 10
17.0458
 20
23.4615
 11
17.7743
 21
22.9145
  0
LINE
  8
0
 10
17.7743
 20
22.9145
 11
18.4853
 21
22.3449
  0
LINE
  8
0
 10
18.4853
 20
22.3449
 11
19.178
 21
21.7532
  0
LINE
  8
0
 10
19.178
 20
21.7532
 11
19.8519
 21
21.1401
  0
LINE
  8
0
 10
19.8519
 20
21.1401
 11
20.5061
 21
20.5061
  0
LINE
  8
0
 10
20.5061
 20
20.5061
 11
21.1401
 21
19.8519
  0
LINE
  8
0
 10
21.1401
 20
19.8519
 11
21.7532
 21
19.178
  0
LINE
  8
0
 10
21.7532
 20
19.178
 11
22.3449
 21
18.4853
  0
LINE
  8
0
 10
22.3449
 20
18.4853
 11
22.9145
 21
17.7743
  0
LINE
  8
0
 10
22.9145
 20
17.7743
 11
23.4615
 21
17.0458
  0
LINE
  8
0
 10
23.4615
 20
17.0458
 11
23.9853
 21
16.3004
  0
LINE
  8
0
 10
23.9853
 20
16.3004
 11
24.4855
 21
15.539
  0
LINE
  8
0
 10
24.4855
 20
15.539
 11
24.9615
 21
14.7622
  0
LINE
  8
0
 10
24.9615
 20
14.7622
 11
25.4129
 21
13.9709
  0
LINE
  8
0
 10
25.4129
 20
13.9709
 11
25.8392
 21
13.1657
  0
LINE
  8
0
 10
25.8392
 20
13.1657
 11
26.24
 21
12.3476
  0
LINE
  8
0
 10
26.24
 20
12.3476
 11
26.6149
 21
11.5173
  0
LINE
  8
0
 10
26.6149
 20
11.5173
 11
26.9635
 21
10.6756
  0
LINE
  8
0
 10
26.9635
 20
10.6756
 11
27.2855
 21
9.82339
  0
LINE
  8
0
 10
27.2855
 20
9.82339
 11
27.5806
 21
8.96149
  0
LINE
  8
0
 10
27.5806
 20
8.96149
 11
27.8485
 21
8.09073
  0
LINE
  8
0
 10
27.8485
 20
8.09073
 11
28.0889
 21
7.21201
  0
LINE
  8
0
 10
28.0889
 20
7.21201
 11
28.3016
 21
6.32614
  0
LINE
  8
0
 10
28.3016
 20
6.32614
 11
28.4863
 21
5.43405
  0
LINE
  8
0
 10
28.4863
 20
5.43405
 11
28.643
 21
4.53659
  0
LINE
  8
0
 10
28.643
 20
4.53659
 11
28.7713
 21
3.63466
  0
LINE
  8
0
 10
28.7713
 20
3.63466
 11
28.8713
 21
2.72913
  0
LINE
  8
0
 10
28.8713
 20
2.72913
 11
28.9428
 21
1.82092
  0
LINE
  8
0
 10
28.9428
 20
1.82092
 11
28.9857
 21
0.910904
  0
LINE
  8
0
 10
28.9857
 20
0.910904
 11
29
 21
0
  0
LINE
  8
0
 10
29
 20
0
 11
28.9857
 21
-0.910904
  0
LINE
  8
0
 10
28.9857
 20
-0.910904
 11
28.9428
 21
-1.82092
  0
LINE
  8
0
 10
28.9428
 20
-1.82092
 11
28.8713
 21
-2.72913
  0
LINE
  8
0
 10
28.8713
 20
-2.72913
 11
28.7713
 21
-3.63466
  0
LINE
  8
0
 10
28.7713
 20
-3.63466
 11
28.643
 21
-4.53659
  0
LINE
  8
0
 10
28.643
 20
-4.53659
 11
28.4863
 21
-5.43405
  0
LINE
  8
0
 10
28.4863
 20
-5.43405
 11
28.3016
 21
-6.32614
  0
LINE
  8
0
 10
28.3016
 20
-6.32614
 11
28.0889
 21
-7.21201
  0
LINE
  8
0
 10
28.0889
 20
-7.21201
 11
27.8485
 21
-8.09073
  0
LINE
  8
0
 10
27.8485
 20
-8.09073
 11
27.5806
 21
-8.96149
  0
LINE
  8
0
 10
27.5806
 20
-8.96149
 11
27.2855
 21
-9.82339
  0
LINE
  8
0
 10
27.2855
 20
-9.82339
 11
26.9635
 21
-10.6756
  0
LINE
  8
0
 10
26.9635
 20
-10.6756
 11
26.6149
 21
-11.5173
  0
LINE
  8
0
 10
26.6149
 20
-11.5173
 11
26.24
 21
-12.3476
  0
LINE
  8
0
 10
26.24
 20
-12.3476
 11
25.8392
 21
-13.1657
  0
LINE
  8
0
 10
25.8392
 20
-13.1657
 11
25.4129
 21
-13.9709
  0
LINE
  8
0
 10
25.4129
 20
-13.9709
 11
24.9615
 21
-14.7622
  0
LINE
  8
0
 10
24.9615
 20
-14.7622
 11
24.4855
 21
-15.539
  0
LINE
  8
0
 10
24.4855
 20
-15.539
 11
23.9853
 21
-16.3004
  0
LINE
  8
0
 10
23.9853
 20
-16.3004
 11
23.4615
 21
-17.0458
  0
LINE
  8
0
 10
23.4615
 20
-17.0458
 11
22.9145
 21
-17.7743
  0
LINE
  8
0
 10
22.9145
 20
-17.7743
 11
22.3449
 21
-18.4853
  0
LINE
  8
0
 10
22.3449
 20
-18.4853
 11
21.7532
 21
-19.178
  0
LINE
  8
0
 10
21.7532
 20
-19.178
 11
21.1401
 21
-19.8519
  0
LINE
  8
0
 10
21.1401
 20
-19.8519
 11
20.5061
 21
-20.5061
  0
LINE
  8
0
 10
20.5061
 20
-20.5061
 11
19.8519
 21
-21.1401
  0
LINE
  8
0
 10
19.8519
 20
-21.1401
 11
19.178
 21
-21.7532
  0
LINE
  8
0
 10
19.178
 20
-21.7532
 11
18.4853
 21
-22.3449
  0
LINE
  8
0
 10
18.4853
 20
-22.3449
 11
17.7743
 21
-22.9145
  0
LINE
  8
0
 10
17.7743
 20
-22.9145
 11
17.0458
 21
-23.4615
  0
LINE
  8
0
 10
17.0458
 20
-23.4615
 11
16.3004
 21
-23.9853
  0
LINE
  8
0
 10
16.3004
 20
-23.9853
 11
15.539
 21
-24.4855
  0
LINE
  8
0
 10
15.539
 20
-24.4855
 11
14.7622
 21
-24.9615
  0
LINE
  8
0
 10
14.7622
 20
-24.9615
 11
13.9709
 21
-25.4129
  0
LINE
  8
0
 10
13.9709
 20
-25.4129
 11
13.1657
 21
-25.8392
  0
LINE
  8
0
 10
13.1657
 20
-25.8392
 11
12.3476
 21
-26.24
  0
LINE
  8
0
 10
12.3476
 20
-26.24
 11
11.5173
 21
-26.6149
  0
LINE
  8
0
 10
11.5173
 20
-26.6149
 11
10.6756
 21
-26.9635
  0
LINE
  8
0
 10
10.6756
 20
-26.9635
 11
9.82339
 21
-27.2855
  0
LINE
  8
0
 10
9.82339
 20
-27.2855
 11
8.96149
 21
-27.5806
  0
LINE
  8
0
 10
8.96149
 20
-27.5806
 11
8.09073
 21
-27.8485
  0
LINE
  8
0
 10
8.09073
 20
-27.8485
 11
7.21201
 21
-28.0889
  0
LINE
  8
0
 10
7.21201
 20
-28.0889
 11
6.32614
 21
-28.3016
  0
LINE
  8
0
 10
6.32614
 20
-28.3016
 11
5.43405
 21
-28.4863
  0
LINE
  8
0
 10
5.43405
 20
-28.4863
 11
4.53659
 21
-28.643
  0
LINE
  8
0
 10
4.53659
 20
-28.643
 11
3.63466
 21
-28.7713
  0
LINE
  8
0
 10
3.63466
 20
-28.7713
 11
2.72913
 21
-28.8713
  0
LINE
  8
0
 10
2.72913
 20
-28.8713
 11
1.82092
 21
-28.9428
  0
LINE
  8
0
 10
1.82092
 20
-28.9428
 11
0.910904
 21
-28.9857
  0
LINE
  8
0
 10
0.910904
 20
-28.9857
 11
0
 21
-29
  0
LINE
  8
0
 10
0
 20
-29
 11
-0.910904
 21
-28.9857
  0
LINE
  8
0
 10
-25
 20
23.5
 11
-25.0942
 21
23.5029
  0
LINE
  8
0
 10
-25.0942
 20
23.5029
 11
-25.188
 21
23.5118
  0
LINE
  8
0
 10
-25.188
 20
23.5118
 11
-25.2811
 21
23.5266
  0
LINE
  8
0
 10
-25.2811
 20
23.5266
 11
-25.373
 21
23.5471
  0
LINE
  8
0
 10
-25.373
 20
23.5471
 11
-25.4635
 21
23.5734
  0
LINE
  8
0
 10
-25.4635
 20
23.5734
 11
-25.5522
 21
23.6053
  0
LINE
  8
0
 10
-25.5522
 20
23.6053
 11
-25.6387
 21
23.6427
  0
LINE
  8
0
 10
-25.6387
 20
23.6427
 11
-25.7226
 21
23.6855
  0
LINE
  8
0
 10
-25.7226
 20
23.6855
 11
-25.8037
 21
23.7335
  0
LINE
  8
0
 10
-25.8037
 20
23.7335
 11
-25.8817
 21
23.7865
  0
LINE
  8
0
 10
-25.8817
 20
23.7865
 11
-25.9561
 21
23.8442
  0
LINE
  8
0
 10
-25.9561
 20
23.8442
 11
-26.0268
 21
23.9065
  0
LINE
  8
0
 10
-26.0268
 20
23.9065
 11
-26.0934
 21
23.9732
  0
LINE
  8
0
 10
-26.0934
 20
23.9732
 11
-26.1558
 21
24.0439
  0
LINE
  8
0
 10
-26.1558
 20
24.0439
 11
-26.2135
 21
24.1183
  0
LINE
  8
0
 10
-26.2135
 20
24.1183
 11
-26.2665
 21
24.1963
  0
LINE
  8
0
 10
-26.2665
 20
24.1963
 11
-26.3145
 21
24.2774
  0
LINE
  8
0
 10
-26.3145
 20
24.2774
 11
-26.3572
 21
24.3613
  0
LINE
  8
0
 10
-26.3572
 20
24.3613
 11
-26.3947
 21
24.4478
  0
LINE
  8
0
 10
-26.3947
 20
24.4478
 11
-26.4266
 21
24.5365
  0
LINE
  8
0
 10
-26.4266
 20
24.5365
 11
-26.4529
 21
24.627
  0
LINE
  8
0
 10
-26.4529
 20
24.627
 11
-26.4734
 21
24.7189
  0
LINE
  8
0
 10
-26.4734
 20
24.7189
 11
-26.4882
 21
24.812
  0
LINE
  8
0
 10
-26.4882
 20
24.812
 11
-26.497
 21
24.9058
  0
LINE
  8
0
 10
-26.497
 20
24.9058
 11
-26.5
 21
25
  0
LINE
  8
0
 10
-26.5
 20
25
 11
-26.497
 21
25.0942
  0
LINE
  8
0
 10
-26.497
 20
25.0942
 11
-26.4882
 21
25.188
  0
LINE
  8
0
 10
-26.4882
 20
25.188
 11
-26.4734
 21
25.2811
  0
LINE
  8
0
 10
-26.4734
 20
25.2811
 11
-26.4529
 21
25.373
  0
LINE
  8
0
 10
-26.4529
 20
25.373
 11
-26.4266
 21
25.4635
  0
LINE
  8
0
 10
-26.4266
 20
25.4635
 11
-26.3947
 21
25.5522
  0
LINE
  8
0
 10
-26.3947
 20
25.5522
 11
-26.3572
 21
25.6387
  0
LINE
  8
0
 10
-26.3572
 20
25.6387
 11
-26.3145
 21
25.7226
  0
LINE
  8
0
 10
-26.3145
 20
25.7226
 11
-26.2665
 21
25.8037
  0
LINE
  8
0
 10
-26.2665
 20
25.8037
 11
-26.2135
 21
25.8817
  0
LINE
  8
0
 10
-26.2135
 20
25.8817
 11
-26.1558
 21
25.9561
  0
LINE
  8
0
 10
-26.1558
 20
25.9561
 11
-26.0934
 21
26.0268
  0
LINE
  8
0
 10
-26.0934
 20
26.0268
 11
-26.0268
 21
26.0934
  0
LINE
  8
0
 10
-26.0268
 20
26.0934
 11
-25.9561
 21
26.1558
  0
LINE
  8
0
 10
-25.9561
 20
26.1558
 11
-25.8817
 21
26.2135
  0
LINE
  8
0
 10
-25.8817
 20
26.2135
 11
-25.8037
 21
26.2665
  0
LINE
  8
0
 10
-25.8037
 20
26.2665
 11
-25.7226
 21
26.3145
  0
LINE
  8
0
 10
-25.7226
 20
26.3145
 11
-25.6387
 21
26.3572
  0
LINE
  8
0
 10
-25.6387
 20
26.3572
 11
-25.5522
 21
26.3947
  0
LINE
  8
0
 10
-25.5522
 20
26.3947
 11
-25.4635
 21
26.4266
  0
LINE
  8
0
 10
-25.4635
 20
26.4266
 11
-25.373
 21
26.4529
  0
LINE
  8
0
 10
-25.373
 20
26.4529
 11
-25.2811
 21
26.4734
  0
LINE
  8
0
 10
-25.2811
 20
26.4734
 11
-25.188
 21
26.4882
  0
LINE
  8
0
 10
-25.188
 20
26.4882
 11
-25.0942
 21
26.497
  0
LINE
  8
0
 10
-25.0942
 20
26.497
 11
-25
 21
26.5
  0
LINE
  8
0
 10
-25
 20
26.5
 11
-24.9058
 21
26.497
  0
LINE
  8
0
 10
-24.9058
 20
26.497
 11
-24.812
 21
26.4882
  0
LINE
  8
0
 10
-24.812
 20
26.4882
 11
-24.7189
 21
26.4734
  0
LINE
  8
0
 10
-24.7189
 20
26.4734
 11
-24.627
 21
26.4529
  0
LINE
  8
0
 10
-24.627
 20
26.4529
 11
-24.5365
 21
26.4266
  0
LINE
  8
0
 10
-24.5365
 20
26.4266
 11
-24.4478
 21
26.3947
  0
LINE
  8
0
 10
-24.4478
 20
26.3947
 11
-24.3613
 21
26.3572
  0
LINE
  8
0
 10
-24.3613
 20
26.3572
 11
-24.2774
 21
26.3145
  0
LINE
  8
0
 10
-24.2774
 20
26.3145
 11
-24.1963
 21
26.2665
  0
LINE
  8
0
 10
-24.1963
 20
26.2665
 11
-24.1183
 21
26.2135
  0
LINE
  8
0
 10
-24.1183
 20
26.2135
 11
-24.0439
 21
26.1558
  0
LINE
  8
0
 10
-24.0439
 20
26.1558
 11
-23.9732
 21
26.0934
  0
LINE
  8
0
 10
-23.9732
 20
26.0934
 11
-23.9065
 21
26.0268
  0
LINE
  8
0
 10
-23.9065
 20
26.0268
 11
-23.8442
 21
25.9561
  0
LINE
  8
0
 10
-23.8442
 20
25.9561
 11
-23.7865
 21
25.8817
  0
LINE
  8
0
 10
-23.7865
 20
25.8817
 11
-23.7335
 21
25.8037
  0
LINE
  8
0
 10
-23.7335
 20
25.8037
 11
-23.6855
 21
25.7226
  0
LINE
  8
0
 10
-23.6855
 20
25.7226
 11
-23.6427
 21
25.6387
  0
LINE
  8
0
 10
-23.6427
 20
25.6387
 11
-23.6053
 21
25.5522
  0
LINE
  8
0
 10
-23.6053
 20
25.5522
 11
-23.5734
 21
25.4635
  0
LINE
  8
0
 10
-23.5734
 20
25.4635
 11
-23.5471
 21
25.373
  0
LINE
  8
0
 10
-23.5471
 20
25.373
 11
-23.5266
 21
25.2811
  0
LINE
  8
0
 10
-23.5266
 20
25.2811
 11
-23.5118
 21
25.188
  0
LINE
  8
0
 10
-23.5118
 20
25.188
 11
-23.5029
 21
25.0942
  0
LINE
  8
0
 10
-23.5029
 20
25.0942
 11
-23.5
 21
25
  0
LINE
  8
0
 10
-23.5
 20
25
 11
-23.5029
 21
24.9058
  0
LINE
  8
0
 10
-23.5029
 20
24.9058
 11
-23.5118
 21
24.812
  0
LINE
  8
0
 10
-23.5118
 20
24.812
 11
-23.5266
 21
24.7189
  0
LINE
  8
0
 10
-23.5266
 20
24.7189
 11
-23.5471
 21
24.627
  0
LINE
  8
0
 10
-23.5471
 20
24.627
 11
-23.5734
 21
24.5365
  0
LINE
  8
0
 10
-23.5734
 20
24.5365
 11
-23.6053
 21
24.4478
  0
LINE
  8
0
 10
-23.6053
 20
24.4478
 11
-23.6427
 21
24.3613
  0
LINE
  8
0
 10
-23.6427
 20
24.3613
 11
-23.6855
 21
24.2774
  0
LINE
  8
0
 10
-23.6855
 20
24.2774
 11
-23.7335
 21
24.1963
  0
LINE
  8
0
 10
-23.7335
 20
24.1963
 11
-23.7865
 21
24.1183
  0
LINE
  8
0
 10
-23.7865
 20
24.1183
 11
-23.8442
 21
24.0439
  0
LINE
  8
0
 10
-23.8442
 20
24.0439
 11
-23.9065
 21
23.9732
  0
LINE
  8
0
 10
-23.9065
 20
23.9732
 11
-23.9732
 21
23.9065
  0
LINE
  8
0
 10
-23.9732
 20
23.9065
 11
-24.0439
 21
23.8442
  0
LINE
  8
0
 10
-24.0439
 20
23.8442
 11
-24.1183
 21
23.7865
  0
LINE
  8
0
 10
-24.1183
 20
23.7865
 11
-24.1963
 21
23.7335
  0
LINE
  8
0
 10
-24.1963
 20
23.7335
 11
-24.2774
 21
23.6855
  0
LINE
  8
0
 10
-24.2774
 20
23.6855
 11
-24.3613
 21
23.6427
  0
LINE
  8
0
 10
-24.3613
 20
23.6427
 11
-24.4478
 21
23.6053
  0
LINE
  8
0
 10
-24.4478
 20
23.6053
 11
-24.5365
 21
23.5734
  0
LINE
  8
0
 10
-24.5365
 20
23.5734
 11
-24.627
 21
23.5471
  0
LINE
  8
0
 10
-24.627
 20
23.5471
 11
-24.7189
 21
23.5266
  0
LINE
  8
0
 10
-24.7189
 20
23.5266
 11
-24.812
 21
23.5118
  0
LINE
  8
0
 10
-24.812
 20
23.5118
 11
-24.9058
 21
23.5029
  0
LINE
  8
0
 10
-24.9058
 20
23.5029
 11
-25
 21
23.5
  0
LINE
  8
0
 10
25
 20
23.5
 11
24.9058
 21
23.5029
  0
LINE
  8
0
 10
24.9058
 20
23.5029
 11
24.812
 21
23.5118
  0
LINE
  8
0
 10
24.812
 20
23.5118
 11
24.7189
 21
23.5266
  0
LINE
  8
0
 10
24.7189
 20
23.5266
 11
24.627
 21
23.5471
  0
LINE
  8
0
 10
24.627
 20
23.5471
 11
24.5365
 21
23.5734
  0
LINE
  8
0
 10
24.5365
 20
23.5734
 11
24.4478
 21
23.6053
  0
LINE
  8
0
 10
24.4478
 20
23.6053
 11
24.3613
 21
23.6427
  0
LINE
  8
0
 10
24.3613
 20
23.6427
 11
24.2774
 21
23.6855
  0
LINE
  8
0
 10
24.2774
 20
23.6855
 11
24.1963
 21
23.7335
  0
LINE
  8
0
 10
24.1963
 20
23.7335
 11
24.1183
 21
23.7865
  0
LINE
  8
0
 10
24.1183
 20
23.7865
 11
24.0439
 21
23.8442
  0
LINE
  8
0
 10
24.0439
 20
23.8442
 11
23.9732
 21
23.9065
  0
LINE
  8
0
 10
23.9732
 20
23.9065
 11
23.9065
 21
23.9732
  0
LINE
  8
0
 10
23.9065
 20
23.9732
 11
23.8442
 21
24.0439
  0
LINE
  8
0
 10
23.8442
 20
24.0439
 11
23.7865
 21
24.1183
  0
LINE
  8
0
 10
23.7865
 20
24.1183
 11
23.7335
 21
24.1963
  0
LINE
  8
0
 10
23.7335
 20
24.1963
 11
23.6855
 21
24.2774
  0
LINE
  8
0
 10
23.6855
 20
24.2774
 11
23.6427
 21
24.3613
  0
LINE
  8
0
 10
23.6427
 20
24.3613
 11
23.6053
 21
24.4478
  0
LINE
  8
0
 10
23.6053
 20
24.4478
 11
23.5734
 21
24.5365
  0
LINE
  8
0
 10
23.5734
 20
24.5365
 11
23.5471
 21
24.627
  0
LINE
  8
0
 10
23.5471
 20
24.627
 11
23.5266
 21
24.7189
  0
LINE
  8
0
 10
23.5266
 20
24.7189
 11
23.5118
 21
24.812
  0
LINE
  8
0
 10
23.5118
 20
24.812
 11
23.5029
 21
24.9058
  0
LINE
  8
0
 10
23.5029
 20
24.9058
 11
23.5
 21
25
  0
LINE
  8
0
 10
23.5
 20
25
 11
23.5029
 21
25.0942
  0
LINE
  8
0
 10
23.5029
 20
25.0942
 11
23.5118
 21
25.188
  0
LINE
  8
0
 10
23.5118
 20
25.188
 11
23.5266
 21
25.2811
  0
LINE
  8
0
 10
23.5266
 20
25.2811
 11
23.5471
 21
25.373
  0
LINE
  8
0
 10
23.5471
 20
25.373
 11
23.5734
 21
25.4635
  0
LINE
  8
0
 10
23.5734
 20
25.4635
 11
23.6053
 21
25.5522
  0
LINE
  8
0
 10
23.6053
 20
25.5522
 11
23.6427
 21
25.6387
  0
LINE
  8
0
 10
23.6427
 20
25.6387
 11
23.6855
 21
25.7226
  0
LINE
  8
0
 10
23.6855
 20
25.7226
 11
23.7335
 21
25.8037
  0
LINE
  8
0
 10
23.7335
 20
25.8037
 11
23.7865
 21
25.8817
  0
LINE
  8
0
 10
23.7865
 20
25.8817
 11
23.8442
 21
25.9561
  0
LINE
  8
0
 10
23.8442
 20
25.9561
 11
23.9065
 21
26.0268
  0
LINE
  8
0
 10
23.9065
 20
26.0268
 11
23.9732
 21
26.0934
  0
LINE
  8
0
 10
23.9732
 20
26.0934
 11
24.0439
 21
26.1558
  0
LINE
  8
0
 10
24.0439
 20
26.1558
 11
24.1183
 21
26.2135
  0
LINE
  8
0
 10
24.1183
 20
26.2135
 11
24.1963
 21
26.2665
  0
LINE
  8
0
 10
24.1963
 20
26.2665
 11
24.2774
 21
26.3145
  0
LINE
  8
0
 10
24.2774
 20
26.3145
 11
24.3613
 21
26.3572
  0
LINE
  8
0
 10
24.3613
 20
26.3572
 11
24.4478
 21
26.3947
  0
LINE
  8
0
 10
24.4478
 20
26.3947
 11
24.5365
 21
26.4266
  0
LINE
  8
0
 10
24.5365
 20
26.4266
 11
24.627
 21
26.4529
  0
LINE
  8
0
 10
24.627
 20
26.4529
 11
24.7189
 21
26.4734
  0
LINE
  8
0
 10
24.7189
 20
26.4734
 11
24.812
 21
26.4882
  0
LINE
  8
0
 10
24.812
 20
26.4882
 11
24.9058
 21
26.497
  0
LINE
  8
0
 10
24.9058
 20
26.497
 11
25
 21
26.5
  0
LINE
  8
0
 10
25
 20
26.5
 11
25.0942
 21
26.497
  0
LINE
  8
0
 10
25.0942
 20
26.497
 11
25.188
 21
26.4882
  0
LINE
  8
0
 10
25.188
 20
26.4882
 11
25.2811
 21
26.4734
  0
LINE
  8
0
 10
25.2811
 20
26.4734
 11
25.373
 21
26.4529
  0
LINE
  8
0
 10
25.373
 20
26.4529
 11
25.4635
 21
26.4266
  0
LINE
  8
0
 10
25.4635
 20
26.4266
 11
25.5522
 21
26.3947
  0
LINE
  8
0
 10
25.5522
 20
26.3947
 11
25.6387
 21
26.3572
  0
LINE
  8
0
 10
25.6387
 20
26.3572
 11
25.7226
 21
26.3145
  0
LINE
  8
0
 10
25.7226
 20
26.3145
 11
25.8037
 21
26.2665
  0
LINE
  8
0
 10
25.8037
 20
26.2665
 11
25.8817
 21
26.2135
  0
LINE
  8
0
 10
25.8817
 20
26.2135
 11
25.9561
 21
26.1558
  0
LINE
  8
0
 10
25.9561
 20
26.1558
 11
26.0268
 21
26.0934
  0
LINE
  8
0
 10
26.0268
 20
26.0934
 11
26.0934
 21
26.0268
  0
LINE
  8
0
 10
26.0934
 20
26.0268
 11
26.1558
 21
25.9561
  0
LINE
  8
0
 10
26.1558
 20
25.9561
 11
26.2135
 21
25.8817
  0
LINE
  8
0
 10
26.2135
 20
25.8817
 11
26.2665
 21
25.8037
  0
LINE
  8
0
 10
26.2665
 20
25.8037
 11
26.3145
 21
25.7226
  0
LINE
  8
0
 10
26.3145
 20
25.7226
 11
26.3572
 21
25.6387
  0
LINE
  8
0
 10
26.3572
 20
25.6387
 11
26.3947
 21
25.5522
  0
LINE
  8
0
 10
26.3947
 20
25.5522
 11
26.4266
 21
25.4635
  0
LINE
  8
0
 10
26.4266
 20
25.4635
 11
26.4529
 21
25.373
  0
LINE
  8
0
 10
26.4529
 20
25.373
 11
26.4734
 21
25.2811
  0
LINE
  8
0
 10
26.4734
 20
25.2811
 11
26.4882
 21
25.188
  0
LINE
  8
0
 10
26.4882
 20
25.188
 11
26.497
 21
25.0942
  0
LINE
  8
0
 10
26.497
 20
25.0942
 11
26.5
 21
25
  0
LINE
  8
0
 10
26.5
 20
25
 11
26.497
 21
24.9058
  0
LINE
  8
0
 10
26.497
 20
24.9058
 11
26.4882
 21
24.812
  0
LINE
  8
0
 10
26.4882
 20
24.812
 11
26.4734
 21
24.7189
  0
LINE
  8
0
 10
26.4734
 20
24.7189
 11
26.4529
 21
24.627
  0
LINE
  8
0
 10
26.4529
 20
24.627
 11
26.4266
 21
24.5365
  0
LINE
  8
0
 10
26.4266
 20
24.5365
 11
26.3947
 21
24.4478
  0
LINE
  8
0
 10
26.3947
 20
24.4478
 11
26.3572
 21
24.3613
  0
LINE
  8
0
 10
26.3572
 20
24.3613
 11
26.3145
 21
24.2774
  0
LINE
  8
0
 10
26.3145
 20
24.2774
 11
26.2665
 21
24.1963
  0
LINE
  8
0
 10
26.2665
 20
24.1963
 11
26.2135
 21
24.1183
  0
LINE
  8
0
 10
26.2135
 20
24.1183
 11
26.1558
 21
24.0439
  0
LINE
  8
0
 10
26.1558
 20
24.0439
 11
26.0934
 21
23.9732
  0
LINE
  8
0
 10
26.0934
 20
23.9732
 11
26.0268
 21
23.9065
  0
LINE
  8
0
 10
26.0268
 20
23.9065
 11
25.9561
 21
23.8442
  0
LINE
  8
0
 10
25.9561
 20
23.8442
 11
25.8817
 21
23.7865
  0
LINE
  8
0
 10
25.8817
 20
23.7865
 11
25.8037
 21
23.7335
  0
LINE
  8
0
 10
25.8037
 20
23.7335
 11
25.7226
 21
23.6855
  0
LINE
  8
0
 10
25.7226
 20
23.6855
 11
25.6387
 21
23.6427
  0
LINE
  8
0
 10
25.6387
 20
23.6427
 11
25.5522
 21
23.6053
  0
LINE
  8
0
 10
25.5522
 20
23.6053
 11
25.4635
 21
23.5734
  0
LINE
  8
0
 10
25.4635
 20
23.5734
 11
25.373
 21
23.5471
  0
LINE
  8
0
 10
25.373
 20
23.5471
 11
25.2811
 21
23.5266
  0
LINE
  8
0
 10
25.2811
 20
23.5266
 11
25.188
 21
23.5118
  0
LINE
  8
0
 10
25.188
 20
23.5118
 11
25.0942
 21
23.5029
  0
LINE
  8
0
 10
25.0942
 20
23.5029
 11
25
 21
23.5
  0
LINE
  8
0
 10
-38.6564
 20
-17.4877
 11
-38.809
 21
-17.451
  0
LINE
  8
0
 10
-38.809
 20
-17.451
 11
-38.954
 21
-17.391
  0
LINE
  8
0
 10
-38.954
 20
-17.391
 11
-39.0878
 21
-17.309
  0
LINE
  8
0
 10
-39.0878
 20
-17.309
 11
-39.2071
 21
-17.2071
  0
LINE
  8
0
 10
-39.2071
 20
-17.2071
 11
-39.309
 21
-17.0878
  0
LINE
  8
0
 10
-39.309
 20
-17.0878
 11
-39.391
 21
-16.954
  0
LINE
  8
0
 10
-39.391
 20
-16.954
 11
-39.451
 21
-16.809
  0
LINE
  8
0
 10
-39.451
 20
-16.809
 11
-39.4877
 21
-16.6564
  0
LINE
  8
0
 10
-39.4877
 20
-16.6564
 11
-39.5
 21
-16.5
  0
LINE
  8
0
 10
-39.5
 20
-16.5
 11
-39.4877
 21
-16.3436
  0
LINE
  8
0
 10
-39.4877
 20
-16.3436
 11
-39.451
 21
-16.191
  0
LINE
  8
0
 10
-39.451
 20
-16.191
 11
-39.391
 21
-16.046
  0
LINE
  8
0
 10
-39.391
 20
-16.046
 11
-39.309
 21
-15.9122
  0
LINE
  8
0
 10
-39.309
 20
-15.9122
 11
-39.2071
 21
-15.7929
  0
LINE
  8
0
 10
-39.2071
 20
-15.7929
 11
-39.0878
 21
-15.691
  0
LINE
  8
0
 10
-39.0878
 20
-15.691
 11
-38.954
 21
-15.609
  0
LINE
  8
0
 10
-38.954
 20
-15.609
 11
-38.809
 21
-15.5489
  0
LINE
  8
0
 10
-38.809
 20
-15.5489
 11
-38.6564
 21
-15.5123
  0
LINE
  8
0
 10
-38.6564
 20
-15.5123
 11
-38.5
 21
-15.5
  0
LINE
  8
0
 10
-38.5
 20
-15.5
 11
-38.3436
 21
-15.5123
  0
LINE
  8
0
 10
-38.3436
 20
-15.5123
 11
-38.191
 21
-15.5489
  0
LINE
  8
0
 10
-38.191
 20
-15.5489
 11
-38.046
 21
-15.609
  0
LINE
  8
0
 10
-38.046
 20
-15.609
 11
-37.9122
 21
-15.691
  0
LINE
  8
0
 10
-37.9122
 20
-15.691
 11
-37.7929
 21
-15.7929
  0
LINE
  8
0
 10
-37.7929
 20
-15.7929
 11
-37.691
 21
-15.9122
  0
LINE
  8
0
 10
-37.691
 20
-15.9122
 11
-37.609
 21
-16.046
  0
LINE
  8
0
 10
-37.609
 20
-16.046
 11
-37.5489
 21
-16.191
  0
LINE
  8
0
 10
-37.5489
 20
-16.191
 11
-37.5123
 21
-16.3436
  0
LINE
  8
0
 10
-37.5123
 20
-16.3436
 11
-37.5
 21
-16.5
  0
LINE
  8
0
 10
-37.5
 20
-16.5
 11
-37.5123
 21
-16.6564
  0
LINE
  8
0
 10
-37.5123
 20
-16.6564
 11
-37.5489
 21
-16.809
  0
LINE
  8
0
 10
-37.5489
 20
-16.809
 11
-37.609
 21
-16.954
  0
LINE
  8
0
 10
-37.609
 20
-16.954
 11
-37.691
 21
-17.0878
  0
LINE
  8
0
 10
-37.691
 20
-17.0878
 11
-37.7929
 21
-17.2071
  0
LINE
  8
0
 10
-37.7929
 20
-17.2071
 11
-37.9122
 21
-17.309
  0
LINE
  8
0
 10
-37.9122
 20
-17.309
 11
-38.046
 21
-17.391
  0
LINE
  8
0
 10
-38.046
 20
-17.391
 11
-38.191
 21
-17.451
  0
LINE
  8
0
 10
-38.191
 20
-17.451
 11
-38.3436
 21
-17.4877
  0
LINE
  8
0
 10
-38.3436
 20
-17.4877
 11
-38.5
 21
-17.5
  0
LINE
  8
0
 10
-38.5
 20
-17.5
 11
-38.6564
 21
-17.4877
  0
LINE
  8
0
 10
-25
 20
-26.5
 11
-25.0942
 21
-26.497
  0
LINE
  8
0
 10
-25.0942
 20
-26.497
 11
-25.188
 21
-26.4882
  0
LINE
  8
0
 10
-25.188
 20
-26.4882
 11
-25.2811
 21
-26.4734
  0
LINE
  8
0
 10
-25.2811
 20
-26.4734
 11
-25.373
 21
-26.4529
  0
LINE
  8
0
 10
-25.373
 20
-26.4529
 11
-25.4635
 21
-26.4266
  0
LINE
  8
0
 10
-25.4635
 20
-26.4266
 11
-25.5522
 21
-26.3947
  0
LINE
  8
0
 10
-25.5522
 20
-26.3947
 11
-25.6387
 21
-26.3572
  0
LINE
  8
0
 10
-25.6387
 20
-26.3572
 11
-25.7226
 21
-26.3145
  0
LINE
  8
0
 10
-25.7226
 20
-26.3145
 11
-25.8037
 21
-26.2665
  0
LINE
  8
0
 10
-25.8037
 20
-26.2665
 11
-25.8817
 21
-26.2135
  0
LINE
  8
0
 10
-25.8817
 20
-26.2135
 11
-25.9561
 21
-26.1558
  0
LINE
  8
0
 10
-25.9561
 20
-26.1558
 11
-26.0268
 21
-26.0934
  0
LINE
  8
0
 10
-26.0268
 20
-26.0934
 11
-26.0934
 21
-26.0268
  0
LINE
  8
0
 10
-26.0934
 20
-26.0268
 11
-26.1558
 21
-25.9561
  0
LINE
  8
0
 10
-26.1558
 20
-25.9561
 11
-26.2135
 21
-25.8817
  0
LINE
  8
0
 10
-26.2135
 20
-25.8817
 11
-26.2665
 21
-25.8037
  0
LINE
  8
0
 10
-26.2665
 20
-25.8037
 11
-26.3145
 21
-25.7226
  0
LINE
  8
0
 10
-26.3145
 20
-25.7226
 11
-26.3572
 21
-25.6387
  0
LINE
  8
0
 10
-26.3572
 20
-25.6387
 11
-26.3947
 21
-25.5522
  0
LINE
  8
0
 10
-26.3947
 20
-25.5522
 11
-26.4266
 21
-25.4635
  0
LINE
  8
0
 10
-26.4266
 20
-25.4635
 11
-26.4529
 21
-25.373
  0
LINE
  8
0
 10
-26.4529
 20
-25.373
 11
-26.4734
 21
-25.2811
  0
LINE
  8
0
 10
-26.4734
 20
-25.2811
 11
-26.4882
 21
-25.188
  0
LINE
  8
0
 10
-26.4882
 20
-25.188
 11
-26.497
 21
-25.0942
  0
LINE
  8
0
 10
-26.497
 20
-25.0942
 11
-26.5
 21
-25
  0
LINE
  8
0
 10
-26.5
 20
-25
 11
-26.497
 21
-24.9058
  0
LINE
  8
0
 10
-26.497
 20
-24.9058
 11
-26.4882
 21
-24.812
  0
LINE
  8
0
 10
-26.4882
 20
-24.812
 11
-26.4734
 21
-24.7189
  0
LINE
  8
0
 10
-26.4734
 20
-24.7189
 11
-26.4529
 21
-24.627
  0
LINE
  8
0
 10
-26.4529
 20
-24.627
 11
-26.4266
 21
-24.5365
  0
LINE
  8
0
 10
-26.4266
 20
-24.5365
 11
-26.3947
 21
-24.4478
  0
LINE
  8
0
 10
-26.3947
 20
-24.4478
 11
-26.3572
 21
-24.3613
  0
LINE
  8
0
 10
-26.3572
 20
-24.3613
 11
-26.3145
 21
-24.2774
  0
LINE
  8
0
 10
-26.3145
 20
-24.2774
 11
-26.2665
 21
-24.1963
  0
LINE
  8
0
 10
-26.2665
 20
-24.1963
 11
-26.2135
 21
-24.1183
  0
LINE
  8
0
 10
-26.2135
 20
-24.1183
 11
-26.1558
 21
-24.0439
  0
LINE
  8
0
 10
-26.1558
 20
-24.0439
 11
-26.0934
 21
-23.9732
  0
LINE
  8
0
 10
-26.0934
 20
-23.9732
 11
-26.0268
 21
-23.9065
  0
LINE
  8
0
 10
-26.0268
 20
-23.9065
 11
-25.9561
 21
-23.8442
  0
LINE
  8
0
 10
-25.9561
 20
-23.8442
 11
-25.8817
 21
-23.7865
  0
LINE
  8
0
 10
-25.8817
 20
-23.7865
 11
-25.8037
 21
-23.7335
  0
LINE
  8
0
 10
-25.8037
 20
-23.7335
 11
-25.7226
 21
-23.6855
  0
LINE
  8
0
 10
-25.7226
 20
-23.6855
 11
-25.6387
 21
-23.6427
  0
LINE
  8
0
 10
-25.6387
 20
-23.6427
 11
-25.5522
 21
-23.6053
  0
LINE
  8
0
 10
-25.5522
 20
-23.6053
 11
-25.4635
 21
-23.5734
  0
LINE
  8
0
 10
-25.4635
 20
-23.5734
 11
-25.373
 21
-23.5471
  0
LINE
  8
0
 10
-25.373
 20
-23.5471
 11
-25.2811
 21
-23.5266
  0
LINE
  8
0
 10
-25.2811
 20
-23.5266
 11
-25.188
 21
-23.5118
  0
LINE
  8
0
 10
-25.188
 20
-23.5118
 11
-25.0942
 21
-23.5029
  0
LINE
  8
0
 10
-25.0942
 20
-23.5029
 11
-25
 21
-23.5
  0
LINE
  8
0
 10
-25
 20
-23.5
 11
-24.9058
 21
-23.5029
  0
LINE
  8
0
 10
-24.9058
 20
-23.5029
 11
-24.812
 21
-23.5118
  0
LINE
  8
0
 10
-24.812
 20
-23.5118
 11
-24.7189
 21
-23.5266
  0
LINE
  8
0
 10
-24.7189
 20
-23.5266
 11
-24.627
 21
-23.5471
  0
LINE
  8
0
 10
-24.627
 20
-23.5471
 11
-24.5365
 21
-23.5734
  0
LINE
  8
0
 10
-24.5365
 20
-23.5734
 11
-24.4478
 21
-23.6053
  0
LINE
  8
0
 10
-24.4478
 20
-23.6053
 11
-24.3613
 21
-23.6427
  0
LINE
  8
0
 10
-24.3613
 20
-23.6427
 11
-24.2774
 21
-23.6855
  0
LINE
  8
0
 10
-24.2774
 20
-23.6855
 11
-24.1963
 21
-23.7335
  0
LINE
  8
0
 10
-24.1963
 20
-23.7335
 11
-24.1183
 21
-23.7865
  0
LINE
  8
0
 10
-24.1183
 20
-23.7865
 11
-24.0439
 21
-23.8442
  0
LINE
  8
0
 10
-24.0439
 20
-23.8442
 11
-23.9732
 21
-23.9065
  0
LINE
  8
0
 10
-23.9732
 20
-23.9065
 11
-23.9065
 21
-23.9732
  0
LINE
  8
0
 10
-23.9065
 20
-23.9732
 11
-23.8442
 21
-24.0439
  0
LINE
  8
0
 10
-23.8442
 20
-24.0439
 11
-23.7865
 21
-24.1183
  0
LINE
  8
0
 10
-23.7865
 20
-24.1183
 11
-23.7335
 21
-24.1963
  0
LINE
  8
0
 10
-23.7335
 20
-24.1963
 11
-23.6855
 21
-24.2774
  0
LINE
  8
0
 10
-23.6855
 20
-24.2774
 11
-23.6427
 21
-24.3613
  0
LINE
  8
0
 10
-23.6427
 20
-24.3613
 11
-23.6053
 21
-24.4478
  0
LINE
  8
0
 10
-23.6053
 20
-24.4478
 11
-23.5734
 21
-24.5365
  0
LINE
  8
0
 10
-23.5734
 20
-24.5365
 11
-23.5471
 21
-24.627
  0
LINE
  8
0
 10
-23.5471
 20
-24.627
 11
-23.5266
 21
-24.7189
  0
LINE
  8
0
 10
-23.5266
 20
-24.7189
 11
-23.5118
 21
-24.812
  0
LINE
  8
0
 10
-23.5118
 20
-24.812
 11
-23.5029
 21
-24.9058
  0
LINE
  8
0
 10
-23.5029
 20
-24.9058
 11
-23.5
 21
-25
  0
LINE
  8
0
 10
-23.5
 20
-25
 11
-23.5029
 21
-25.0942
  0
LINE
  8
0
 10
-23.5029
 20
-25.0942
 11
-23.5118
 21
-25.188
  0
LINE
  8
0
 10
-23.5118
 20
-25.188
 11
-23.5266
 21
-25.2811
  0
LINE
  8
0
 10
-23.5266
 20
-25.2811
 11
-23.5471
 21
-25.373
  0
LINE
  8
0
 10
-23.5471
 20
-25.373
 11
-23.5734
 21
-25.4635
  0
LINE
  8
0
 10
-23.5734
 20
-25.4635
 11
-23.6053
 21
-25.5522
  0
LINE
  8
0
 10
-23.6053
 20
-25.5522
 11
-23.6427
 21
-25.6387
  0
LINE
  8
0
 10
-23.6427
 20
-25.6387
 11
-23.6855
 21
-25.7226
  0
LINE
  8
0
 10
-23.6855
 20
-25.7226
 11
-23.7335
 21
-25.8037
  0
LINE
  8
0
 10
-23.7335
 20
-25.8037
 11
-23.7865
 21
-25.8817
  0
LINE
  8
0
 10
-23.7865
 20
-25.8817
 11
-23.8442
 21
-25.9561
  0
LINE
  8
0
 10
-23.8442
 20
-25.9561
 11
-23.9065
 21
-26.0268
  0
LINE
  8
0
 10
-23.9065
 20
-26.0268
 11
-23.9732
 21
-26.0934
  0
LINE
  8
0
 10
-23.9732
 20
-26.0934
 11
-24.0439
 21
-26.1558
  0
LINE
  8
0
 10
-24.0439
 20
-26.1558
 11
-24.1183
 21
-26.2135
  0
LINE
  8
0
 10
-24.1183
 20
-26.2135
 11
-24.1963
 21
-26.2665
  0
LINE
  8
0
 10
-24.1963
 20
-26.2665
 11
-24.2774
 21
-26.3145
  0
LINE
  8
0
 10
-24.2774
 20
-26.3145
 11
-24.3613
 21
-26.3572
  0
LINE
  8
0
 10
-24.3613
 20
-26.3572
 11
-24.4478
 21
-26.3947
  0
LINE
  8
0
 10
-24.4478
 20
-26.3947
 11
-24.5365
 21
-26.4266
  0
LINE
  8
0
 10
-24.5365
 20
-26.4266
 11
-24.627
 21
-26.4529
  0
LINE
  8
0
 10
-24.627
 20
-26.4529
 11
-24.7189
 21
-26.4734
  0
LINE
  8
0
 10
-24.7189
 20
-26.4734
 11
-24.812
 21
-26.4882
  0
LINE
  8
0
 10
-24.812
 20
-26.4882
 11
-24.9058
 21
-26.497
  0
LINE
  8
0
 10
-24.9058
 20
-26.497
 11
-25
 21
-26.5
  0
LINE
  8
0
 10
25
 20
-26.5
 11
24.9058
 21
-26.497
  0
LINE
  8
0
 10
24.9058
 20
-26.497
 11
24.812
 21
-26.4882
  0
LINE
  8
0
 10
24.812
 20
-26.4882
 11
24.7189
 21
-26.4734
  0
LINE
  8
0
 10
24.7189
 20
-26.4734
 11
24.627
 21
-26.4529
  0
LINE
  8
0
 10
24.627
 20
-26.4529
 11
24.5365
 21
-26.4266
  0
LINE
  8
0
 10
24.5365
 20
-26.4266
 11
24.4478
 21
-26.3947
  0
LINE
  8
0
 10
24.4478
 20
-26.3947
 11
24.3613
 21
-26.3572
  0
LINE
  8
0
 10
24.3613
 20
-26.3572
 11
24.2774
 21
-26.3145
  0
LINE
  8
0
 10
24.2774
 20
-26.3145
 11
24.1963
 21
-26.2665
  0
LINE
  8
0
 10
24.1963
 20
-26.2665
 11
24.1183
 21
-26.2135
  0
LINE
  8
0
 10
24.1183
 20
-26.2135
 11
24.0439
 21
-26.1558
  0
LINE
  8
0
 10
24.0439
 20
-26.1558
 11
23.9732
 21
-26.0934
  0
LINE
  8
0
 10
23.9732
 20
-26.0934
 11
23.9065
 21
-26.0268
  0
LINE
  8
0
 10
23.9065
 20
-26.0268
 11
23.8442
 21
-25.9561
  0
LINE
  8
0
 10
23.8442
 20
-25.9561
 11
23.7865
 21
-25.8817
  0
LINE
  8
0
 10
23.7865
 20
-25.8817
 11
23.7335
 21
-25.8037
  0
LINE
  8
0
 10
23.7335
 20
-25.8037
 11
23.6855
 21
-25.7226
  0
LINE
  8
0
 10
23.6855
 20
-25.7226
 11
23.6427
 21
-25.6387
  0
LINE
  8
0
 10
23.6427
 20
-25.6387
 11
23.6053
 21
-25.5522
  0
LINE
  8
0
 10
23.6053
 20
-25.5522
 11
23.5734
 21
-25.4635
  0
LINE
  8
0
 10
23.5734
 20
-25.4635
 11
23.5471
 21
-25.373
  0
LINE
  8
0
 10
23.5471
 20
-25.373
 11
23.5266
 21
-25.2811
  0
LINE
  8
0
 10
23.5266
 20
-25.2811
 11
23.5118
 21
-25.188
  0
LINE
  8
0
 10
23.5118
 20
-25.188
 11
23.5029
 21
-25.0942
  0
LINE
  8
0
 10
23.5029
 20
-25.0942
 11
23.5
 21
-25
  0
LINE
  8
0
 10
23.5
 20
-25
 11
23.5029
 21
-24.9058
  0
LINE
  8
0
 10
23.5029
 20
-24.9058
 11
23.5118
 21
-24.812
  0
LINE
  8
0
 10
23.5118
 20
-24.812
 11
23.5266
 21
-24.7189
  0
LINE
  8
0
 10
23.5266
 20
-24.7189
 11
23.5471
 21
-24.627
  0
LINE
  8
0
 10
23.5471
 20
-24.627
 11
23.5734
 21
-24.5365
  0
LINE
  8
0
 10
23.5734
 20
-24.5365
 11
23.6053
 21
-24.4478
  0
LINE
  8
0
 10
23.6053
 20
-24.4478
 11
23.6427
 21
-24.3613
  0
LINE
  8
0
 10
23.6427
 20
-24.3613
 11
23.6855
 21
-24.2774
  0
LINE
  8
0
 10
23.6855
 20
-24.2774
 11
23.7335
 21
-24.1963
  0
LINE
  8
0
 10
23.7335
 20
-24.1963
 11
23.7865
 21
-24.1183
  0
LINE
  8
0
 10
23.7865
 20
-24.1183
 11
23.8442
 21
-24.0439
  0
LINE
  8
0
 10
23.8442
 20
-24.0439
 11
23.9065
 21
-23.9732
  0
LINE
  8
0
 10
23.9065
 20
-23.9732
 11
23.9732
 21
-23.9065
  0
LINE
  8
0
 10
23.9732
 20
-23.9065
 11
24.0439
 21
-23.8442
  0
LINE
  8
0
 10
24.0439
 20
-23.8442
 11
24.1183
 21
-23.7865
  0
LINE
  8
0
 10
24.1183
 20
-23.7865
 11
24.1963
 21
-23.7335
  0
LINE
  8
0
 10
24.1963
 20
-23.7335
 11
24.2774
 21
-23.6855
  0
LINE
  8
0
 10
24.2774
 20
-23.6855
 11
24.3613
 21
-23.6427
  0
LINE
  8
0
 10
24.3613
 20
-23.6427
 11
24.4478
 21
-23.6053
  0
LINE
  8
0
 10
24.4478
 20
-23.6053
 11
24.5365
 21
-23.5734
  0
LINE
  8
0
 10
24.5365
 20
-23.5734
 11
24.627
 21
-23.5471
  0
LINE
  8
0
 10
24.627
 20
-23.5471
 11
24.7189
 21
-23.5266
  0
LINE
  8
0
 10
24.7189
 20
-23.5266
 11
24.812
 21
-23.5118
  0
LINE
  8
0
 10
24.812
 20
-23.5118
 11
24.9058
 21
-23.5029
  0
LINE
  8
0
 10
24.9058
 20
-23.5029
 11
25
 21
-23.5
  0
LINE
  8
0
 10
25
 20
-23.5
 11
25.0942
 21
-23.5029
  0
LINE
  8
0
 10
25.0942
 20
-23.5029
 11
25.188
 21
-23.5118
  0
LINE
  8
0
 10
25.188
 20
-23.5118
 11
25.2811
 21
-23.5266
  0
LINE
  8
0
 10
25.2811
 20
-23.5266
 11
25.373
 21
-23.5471
  0
LINE
  8
0
 10
25.373
 20
-23.5471
 11
25.4635
 21
-23.5734
  0
LINE
  8
0
 10
25.4635
 20
-23.5734
 11
25.5522
 21
-23.6053
  0
LINE
  8
0
 10
25.5522
 20
-23.6053
 11
25.6387
 21
-23.6427
  0
LINE
  8
0
 10
25.6387
 20
-23.6427
 11
25.7226
 21
-23.6855
  0
LINE
  8
0
 10
25.7226
 20
-23.6855
 11
25.8037
 21
-23.7335
  0
LINE
  8
0
 10
25.8037
 20
-23.7335
 11
25.8817
 21
-23.7865
  0
LINE
  8
0
 10
25.8817
 20
-23.7865
 11
25.9561
 21
-23.8442
  0
LINE
  8
0
 10
25.9561
 20
-23.8442
 11
26.0268
 21
-23.9065
  0
LINE
  8
0
 10
26.0268
 20
-23.9065
 11
26.0934
 21
-23.9732
  0
LINE
  8
0
 10
26.0934
 20
-23.9732
 11
26.1558
 21
-24.0439
  0
LINE
  8
0
 10
26.1558
 20
-24.0439
 11
26.2135
 21
-24.1183
  0
LINE
  8
0
 10
26.2135
 20
-24.1183
 11
26.2665
 21
-24.1963
  0
LINE
  8
0
 10
26.2665
 20
-24.1963
 11
26.3145
 21
-24.2774
  0
LINE
  8
0
 10
26.3145
 20
-24.2774
 11
26.3572
 21
-24.3613
  0
LINE
  8
0
 10
26.3572
 20
-24.3613
 11
26.3947
 21
-24.4478
  0
LINE
  8
0
 10
26.3947
 20
-24.4478
 11
26.4266
 21
-24.5365
  0
LINE
  8
0
 10
26.4266
 20
-24.5365
 11
26.4529
 21
-24.627
  0
LINE
  8
0
 10
26.4529
 20
-24.627
 11
26.4734
 21
-24.7189
  0
LINE
  8
0
 10
26.4734
 20
-24.7189
 11
26.4882
 21
-24.812
  0
LINE
  8
0
 10
26.4882
 20
-24.812
 11
26.497
 21
-24.9058
  0
LINE
  8
0
 10
26.497
 20
-24.9058
 11
26.5
 21
-25
  0
LINE
  8
0
 10
26.5
 20
-25
 11
26.497
 21
-25.0942
  0
LINE
  8
0
 10
26.497
 20
-25.0942
 11
26.4882
 21
-25.188
  0
LINE
  8
0
 10
26.4882
 20
-25.188
 11
26.4734
 21
-25.2811
  0
LINE
  8
0
 10
26.4734
 20
-25.2811
 11
26.4529
 21
-25.373
  0
LINE
  8
0
 10
26.4529
 20
-25.373
 11
26.4266
 21
-25.4635
  0
LINE
  8
0
 10
26.4266
 20
-25.4635
 11
26.3947
 21
-25.5522
  0
LINE
  8
0
 10
26.3947
 20
-25.5522
 11
26.3572
 21
-25.6387
  0
LINE
  8
0
 10
26.3572
 20
-25.6387
 11
26.3145
 21
-25.7226
  0
LINE
  8
0
 10
26.3145
 20
-25.7226
 11
26.2665
 21
-25.8037
  0
LINE
  8
0
 10
26.2665
 20
-25.8037
 11
26.2135
 21
-25.8817
  0
LINE
  8
0
 10
26.2135
 20
-25.8817
 11
26.1558
 21
-25.9561
  0
LINE
  8
0
 10
26.1558
 20
-25.9561
 11
26.0934
 21
-26.0268
  0
LINE
  8
0
 10
26.0934
 20
-26.0268
 11
26.0268
 21
-26.0934
  0
LINE
  8
0
 10
26.0268
 20
-26.0934
 11
25.9561
 21
-26.1558
  0
LINE
  8
0
 10
25.9561
 20
-26.1558
 11
25.8817
 21
-26.2135
  0
LINE
  8
0
 10
25.8817
 20
-26.2135
 11
25.8037
 21
-26.2665
  0
LINE
  8
0
 10
25.8037
 20
-26.2665
 11
25.7226
 21
-26.3145
  0
LINE
  8
0
 10
25.7226
 20
-26.3145
 11
25.6387
 21
-26.3572
  0
LINE
  8
0
 10
25.6387
 20
-26.3572
 11
25.5522
 21
-26.3947
  0
LINE
  8
0
 10
25.5522
 20
-26.3947
 11
25.4635
 21
-26.4266
  0
LINE
  8
0
 10
25.4635
 20
-26.4266
 11
25.373
 21
-26.4529
  0
LINE
  8
0
 10
25.373
 20
-26.4529
 11
25.2811
 21
-26.4734
  0
LINE
  8
0
 10
25.2811
 20
-26.4734
 11
25.188
 21
-26.4882
  0
LINE
  8
0
 10
25.188
 20
-26.4882
 11
25.0942
 21
-26.497
  0
LINE
  8
0
 10
25.0942
 20
-26.497
 11
25
 21
-26.5
  0
LINE
  8
0
 10
38.3436
 20
-25.4877
 11
38.191
 21
-25.451
  0
LINE
  8
0
 10
38.191
 20
-25.451
 11
38.046
 21
-25.391
  0
LINE
  8
0
 10
38.046
 20
-25.391
 11
37.9122
 21
-25.309
  0
LINE
  8
0
 10
37.9122
 20
-25.309
 11
37.7929
 21
-25.2071
  0
LINE
  8
0
 10
37.7929
 20
-25.2071
 11
37.691
 21
-25.0878
  0
LINE
  8
0
 10
37.691
 20
-25.0878
 11
37.609
 21
-24.954
  0
LINE
  8
0
 10
37.609
 20
-24.954
 11
37.5489
 21
-24.809
  0
LINE
  8
0
 10
37.5489
 20
-24.809
 11
37.5123
 21
-24.6564
  0
LINE
  8
0
 10
37.5123
 20
-24.6564
 11
37.5
 21
-24.5
  0
LINE
  8
0
 10
37.5
 20
-24.5
 11
37.5123
 21
-24.3436
  0
LINE
  8
0
 10
37.5123
 20
-24.3436
 11
37.5489
 21
-24.191
  0
LINE
  8
0
 10
37.5489
 20
-24.191
 11
37.609
 21
-24.046
  0
LINE
  8
0
 10
37.609
 20
-24.046
 11
37.691
 21
-23.9122
  0
LINE
  8
0
 10
37.691
 20
-23.9122
 11
37.7929
 21
-23.7929
  0
LINE
  8
0
 10
37.7929
 20
-23.7929
 11
37.9122
 21
-23.691
  0
LINE
  8
0
 10
37.9122
 20
-23.691
 11
38.046
 21
-23.609
  0
LINE
  8
0
 10
38.046
 20
-23.609
 11
38.191
 21
-23.5489
  0
LINE
  8
0
 10
38.191
 20
-23.5489
 11
38.3436
 21
-23.5123
  0
LINE
  8
0
 10
38.3436
 20
-23.5123
 11
38.5
 21
-23.5
  0
LINE
  8
0
 10
38.5
 20
-23.5
 11
38.6564
 21
-23.5123
  0
LINE
  8
0
 10
38.6564
 20
-23.5123
 11
38.809
 21
-23.5489
  0
LINE
  8
0
 10
38.809
 20
-23.5489
 11
38.954
 21
-23.609
  0
LINE
  8
0
 10
38.954
 20
-23.609
 11
39.0878
 21
-23.691
  0
LINE
  8
0
 10
39.0878
 20
-23.691
 11
39.2071
 21
-23.7929
  0
LINE
  8
0
 10
39.2071
 20
-23.7929
 11
39.309
 21
-23.9122
  0
LINE
  8
0
 10
39.309
 20
-23.9122
 11
39.391
 21
-24.046
  0
LINE
  8
0
 10
39.391
 20
-24.046
 11
39.451
 21
-24.191
  0
LINE
  8
0
 10
39.451
 20
-24.191
 11
39.4877
 21
-24.3436
  0
LINE
  8
0
 10
39.4877
 20
-24.3436
 11
39.5
 21
-24.5
  0
LINE
  8
0
 10
39.5
 20
-24.5
 11
39.4877
 21
-24.6564
  0
LINE
  8
0
 10
39.4877
 20
-24.6564
 11
39.451
 21
-24.809
  0
LINE
  8
0
 10
39.451
 20
-24.809
 11
39.391
 21
-24.954
  0
LINE
  8
0
 10
39.391
 20
-24.954
 11
39.309
 21
-25.0878
  0
LINE
  8
0
 10
39.309
 20
-25.0878
 11
39.2071
 21
-25.2071
  0
LINE
  8
0
 10
39.2071
 20
-25.2071
 11
39.0878
 21
-25.309
  0
LINE
  8
0
 10
39.0878
 20
-25.309
 11
38.954
 21
-25.391
  0
LINE
  8
0
 10
38.954
 20
-25.391
 11
38.809
 21
-25.451
  0
LINE
  8
0
 10
38.809
 20
-25.451
 11
38.6564
 21
-25.4877
  0
LINE
  8
0
 10
38.6564
 20
-25.4877
 11
38.5
 21
-25.5
  0
LINE
  8
0
 10
38.5
 20
-25.5
 11
38.3436
 21
-25.4877
  0
ENDSEC
  0
SECTION
  2
OBJECTS
  0
DICTIONARY
  0
ENDSEC
  0
EOF
