  0
SECTION
  2
BLOCKS
  0
ENDSEC
  0
SECTION
  2
ENTITIES
  0
LINE
  8
0
 10
1.952
 20
-17.9706
 11
2.38661
 21
-17.9911
  0
LINE
  8
0
 10
2.38661
 20
-17.9911
 11
2.95201
 21
-18
  0
LINE
  8
0
 10
2.95201
 20
-18
 11
3.51741
 21
-17.9911
  0
LINE
  8
0
 10
3.51741
 20
-17.9911
 11
4.08224
 21
-17.9645
  0
LINE
  8
0
 10
4.08224
 20
-17.9645
 11
4.64597
 21
-17.9201
  0
LINE
  8
0
 10
4.64597
 20
-17.9201
 11
5.20801
 21
-17.8581
  0
LINE
  8
0
 10
5.20801
 20
-17.8581
 11
5.76784
 21
-17.7784
  0
LINE
  8
0
 10
5.76784
 20
-17.7784
 11
6.32487
 21
-17.6812
  0
LINE
  8
0
 10
6.32487
 20
-17.6812
 11
6.87859
 21
-17.5665
  0
LINE
  8
0
 10
6.87859
 20
-17.5665
 11
7.42844
 21
-17.4345
  0
LINE
  8
0
 10
7.42844
 20
-17.4345
 11
7.97385
 21
-17.2853
  0
LINE
  8
0
 10
7.97385
 20
-17.2853
 11
8.51431
 21
-17.119
  0
LINE
  8
0
 10
8.51431
 20
-17.119
 11
9.0493
 21
-16.9359
  0
LINE
  8
0
 10
9.0493
 20
-16.9359
 11
9.57825
 21
-16.736
  0
LINE
  8
0
 10
9.57825
 20
-16.736
 11
10.1007
 21
-16.5196
  0
LINE
  8
0
 10
10.1007
 20
-16.5196
 11
10.616
 21
-16.2869
  0
LINE
  8
0
 10
10.616
 20
-16.2869
 11
11.1238
 21
-16.0381
  0
LINE
  8
0
 10
11.1238
 20
-16.0381
 11
11.6236
 21
-15.7735
  0
LINE
  8
0
 10
11.6236
 20
-15.7735
 11
12.1148
 21
-15.4933
  0
LINE
  8
0
 10
12.1148
 20
-15.4933
 11
12.5969
 21
-15.1979
  0
LINE
  8
0
 10
12.5969
 20
-15.1979
 11
13.0695
 21
-14.8874
  0
LINE
  8
0
 10
13.0695
 20
-14.8874
 11
13.5322
 21
-14.5623
  0
LINE
  8
0
 10
13.5322
 20
-14.5623
 11
13.9843
 21
-14.2228
  0
LINE
  8
0
 10
13.9843
 20
-14.2228
 11
14.4256
 21
-13.8692
  0
LINE
  8
0
 10
14.4256
 20
-13.8692
 11
14.8556
 21
-13.502
  0
LINE
  8
0
 10
14.8556
 20
-13.502
 11
15.2739
 21
-13.1214
  0
LINE
  8
0
 10
15.2739
 20
-13.1214
 11
15.6799
 21
-12.7279
  0
LINE
  8
0
 10
15.6799
 20
-12.7279
 11
16.0734
 21
-12.3218
  0
LINE
  8
0
 10
16.0734
 20
-12.3218
 11
16.454
 21
-11.9036
  0
LINE
  8
0
 10
16.454
 20
-11.9036
 11
16.8212
 21
-11.4736
  0
LINE
  8
0
 10
16.8212
 20
-11.4736
 11
17.1748
 21
-11.0323
  0
LINE
  8
0
 10
17.1748
 20
-11.0323
 11
17.5143
 21
-10.5801
  0
LINE
  8
0
 10
17.5143
 20
-10.5801
 11
17.8395
 21
-10.1175
  0
LINE
  8
0
 10
17.8395
 20
-10.1175
 11
18.1499
 21
-9.64488
  0
LINE
  8
0
 10
18.1499
 20
-9.64488
 11
18.4454
 21
-9.16273
  0
LINE
  8
0
 10
18.4454
 20
-9.16273
 11
18.7255
 21
-8.67155
  0
LINE
  8
0
 10
18.7255
 20
-8.67155
 11
18.9901
 21
-8.17181
  0
LINE
  8
0
 10
18.9901
 20
-8.17181
 11
19.2389
 21
-7.66402
  0
LINE
  8
0
 10
19.2389
 20
-7.66402
 11
19.4716
 21
-7.14865
  0
LINE
  8
0
 10
19.4716
 20
-7.14865
 11
19.688
 21
-6.62624
  0
LINE
  8
0
 10
19.688
 20
-6.62624
 11
19.9225
 21
-6.00963
  0
LINE
  8
0
 10
19.9225
 20
-6.00963
 11
19.9831
 21
-5.86472
  0
LINE
  8
0
 10
19.9831
 20
-5.86472
 11
20.0483
 21
-5.72179
  0
LINE
  8
0
 10
20.0483
 20
-5.72179
 11
20.1179
 21
-5.58096
  0
LINE
  8
0
 10
20.1179
 20
-5.58096
 11
20.1918
 21
-5.44241
  0
LINE
  8
0
 10
20.1918
 20
-5.44241
 11
20.2702
 21
-5.30624
  0
LINE
  8
0
 10
20.2702
 20
-5.30624
 11
20.3527
 21
-5.17261
  0
LINE
  8
0
 10
20.3527
 20
-5.17261
 11
20.4394
 21
-5.04163
  0
LINE
  8
0
 10
20.4394
 20
-5.04163
 11
20.5301
 21
-4.91344
  0
LINE
  8
0
 10
20.5301
 20
-4.91344
 11
20.6249
 21
-4.78816
  0
LINE
  8
0
 10
20.6249
 20
-4.78816
 11
20.7235
 21
-4.66592
  0
LINE
  8
0
 10
20.7235
 20
-4.66592
 11
20.826
 21
-4.54683
  0
LINE
  8
0
 10
20.826
 20
-4.54683
 11
20.9321
 21
-4.43103
  0
LINE
  8
0
 10
20.9321
 20
-4.43103
 11
21.0418
 21
-4.3186
  0
LINE
  8
0
 10
21.0418
 20
-4.3186
 11
21.155
 21
-4.2097
  0
LINE
  8
0
 10
21.155
 20
-4.2097
 11
21.2715
 21
-4.10439
  0
LINE
  8
0
 10
21.2715
 20
-4.10439
 11
21.3913
 21
-4.00281
  0
LINE
  8
0
 10
21.3913
 20
-4.00281
 11
21.5142
 21
-3.90501
  0
LINE
  8
0
 10
21.5142
 20
-3.90501
 11
21.6402
 21
-3.81114
  0
LINE
  8
0
 10
21.6402
 20
-3.81114
 11
21.769
 21
-3.72128
  0
LINE
  8
0
 10
21.769
 20
-3.72128
 11
21.9006
 21
-3.6355
  0
LINE
  8
0
 10
21.9006
 20
-3.6355
 11
22.0348
 21
-3.55389
  0
LINE
  8
0
 10
22.0348
 20
-3.55389
 11
22.1715
 21
-3.47655
  0
LINE
  8
0
 10
22.1715
 20
-3.47655
 11
22.3106
 21
-3.40353
  0
LINE
  8
0
 10
22.3106
 20
-3.40353
 11
22.4519
 21
-3.33493
  0
LINE
  8
0
 10
22.4519
 20
-3.33493
 11
22.5952
 21
-3.27078
  0
LINE
  8
0
 10
22.5952
 20
-3.27078
 11
22.7406
 21
-3.21118
  0
LINE
  8
0
 10
22.7406
 20
-3.21118
 11
22.8877
 21
-3.15617
  0
LINE
  8
0
 10
22.8877
 20
-3.15617
 11
23.0365
 21
-3.10582
  0
LINE
  8
0
 10
23.0365
 20
-3.10582
 11
23.1868
 21
-3.06017
  0
LINE
  8
0
 10
23.1868
 20
-3.06017
 11
23.3384
 21
-3.01924
  0
LINE
  8
0
 10
23.3384
 20
-3.01924
 11
23.4913
 21
-2.98311
  0
LINE
  8
0
 10
23.4913
 20
-2.98311
 11
23.6452
 21
-2.9518
  0
LINE
  8
0
 10
23.6452
 20
-2.9518
 11
23.8
 21
-2.92532
  0
LINE
  8
0
 10
23.8
 20
-2.92532
 11
23.9556
 21
-2.90373
  0
LINE
  8
0
 10
23.9556
 20
-2.90373
 11
24.1118
 21
-2.88704
  0
LINE
  8
0
 10
24.1118
 20
-2.88704
 11
24.2684
 21
-2.87527
  0
LINE
  8
0
 10
24.2684
 20
-2.87527
 11
24.4253
 21
-2.86841
  0
LINE
  8
0
 10
24.4253
 20
-2.86841
 11
24.5824
 21
-2.8665
  0
LINE
  8
0
 10
24.5824
 20
-2.8665
 11
29.7898
 21
-2.8665
  0
LINE
  8
0
 10
29.7898
 20
-2.8665
 11
29.7898
 21
13.8333
  0
LINE
  8
0
 10
29.7898
 20
13.8333
 11
26.748
 21
13.8333
  0
LINE
  8
0
 10
26.748
 20
13.8333
 11
26.748
 21
27.6667
  0
LINE
  8
0
 10
26.748
 20
27.6667
 11
29.7898
 21
27.6667
  0
LINE
  8
0
 10
29.7898
 20
27.6667
 11
29.7898
 21
36.5
  0
LINE
  8
0
 10
29.7898
 20
36.5
 11
25.7899
 21
36.5
  0
LINE
  8
0
 10
25.7899
 20
36.5
 11
25.7899
 21
36.593
  0
LINE
  8
0
 10
25.7899
 20
36.593
 11
25.6572
 21
36.6204
  0
LINE
  8
0
 10
25.6572
 20
36.6204
 11
25.5045
 21
36.6571
  0
LINE
  8
0
 10
25.5045
 20
36.6571
 11
25.353
 21
36.6985
  0
LINE
  8
0
 10
25.353
 20
36.6985
 11
25.2029
 21
36.7447
  0
LINE
  8
0
 10
25.2029
 20
36.7447
 11
25.0543
 21
36.7956
  0
LINE
  8
0
 10
25.0543
 20
36.7956
 11
24.9073
 21
36.8511
  0
LINE
  8
0
 10
24.9073
 20
36.8511
 11
24.7622
 21
36.9112
  0
LINE
  8
0
 10
24.7622
 20
36.9112
 11
24.6191
 21
36.9759
  0
LINE
  8
0
 10
24.6191
 20
36.9759
 11
24.478
 21
37.045
  0
LINE
  8
0
 10
24.478
 20
37.045
 11
24.3392
 21
37.1185
  0
LINE
  8
0
 10
24.3392
 20
37.1185
 11
24.2028
 21
37.1963
  0
LINE
  8
0
 10
24.2028
 20
37.1963
 11
24.0688
 21
37.2784
  0
LINE
  8
0
 10
24.0688
 20
37.2784
 11
23.9375
 21
37.3646
  0
LINE
  8
0
 10
23.9375
 20
37.3646
 11
23.809
 21
37.4549
  0
LINE
  8
0
 10
23.809
 20
37.4549
 11
23.6834
 21
37.5492
  0
LINE
  8
0
 10
23.6834
 20
37.5492
 11
23.5608
 21
37.6474
  0
LINE
  8
0
 10
23.5608
 20
37.6474
 11
23.4414
 21
37.7494
  0
LINE
  8
0
 10
23.4414
 20
37.7494
 11
23.3252
 21
37.8551
  0
LINE
  8
0
 10
23.3252
 20
37.8551
 11
23.2124
 21
37.9645
  0
LINE
  8
0
 10
23.2124
 20
37.9645
 11
23.1031
 21
38.0773
  0
LINE
  8
0
 10
23.1031
 20
38.0773
 11
22.9974
 21
38.1934
  0
LINE
  8
0
 10
22.9974
 20
38.1934
 11
22.8954
 21
38.3129
  0
LINE
  8
0
 10
22.8954
 20
38.3129
 11
22.7972
 21
38.4355
  0
LINE
  8
0
 10
22.7972
 20
38.4355
 11
22.7029
 21
38.5611
  0
LINE
  8
0
 10
22.7029
 20
38.5611
 11
22.6126
 21
38.6896
  0
LINE
  8
0
 10
22.6126
 20
38.6896
 11
22.5263
 21
38.8209
  0
LINE
  8
0
 10
22.5263
 20
38.8209
 11
22.4442
 21
38.9548
  0
LINE
  8
0
 10
22.4442
 20
38.9548
 11
22.3664
 21
39.0912
  0
LINE
  8
0
 10
22.3664
 20
39.0912
 11
22.2929
 21
39.23
  0
LINE
  8
0
 10
22.2929
 20
39.23
 11
22.2238
 21
39.3711
  0
LINE
  8
0
 10
22.2238
 20
39.3711
 11
22.1592
 21
39.5143
  0
LINE
  8
0
 10
22.1592
 20
39.5143
 11
22.0991
 21
39.6594
  0
LINE
  8
0
 10
22.0991
 20
39.6594
 11
22.0435
 21
39.8063
  0
LINE
  8
0
 10
22.0435
 20
39.8063
 11
21.9927
 21
39.9549
  0
LINE
  8
0
 10
21.9927
 20
39.9549
 11
21.9465
 21
40.105
  0
LINE
  8
0
 10
21.9465
 20
40.105
 11
21.905
 21
40.2565
  0
LINE
  8
0
 10
21.905
 20
40.2565
 11
21.8684
 21
40.4093
  0
LINE
  8
0
 10
21.8684
 20
40.4093
 11
21.8365
 21
40.5631
  0
LINE
  8
0
 10
21.8365
 20
40.5631
 11
21.8095
 21
40.7178
  0
LINE
  8
0
 10
21.8095
 20
40.7178
 11
21.7874
 21
40.8733
  0
LINE
  8
0
 10
21.7874
 20
40.8733
 11
21.7702
 21
41.0294
  0
LINE
  8
0
 10
21.7702
 20
41.0294
 11
21.7572
 21
41.2
  0
LINE
  8
0
 10
21.7572
 20
41.2
 11
7.81377
 21
41.2
  0
LINE
  8
0
 10
7.81377
 20
41.2
 11
7.81377
 21
43.9
  0
LINE
  8
0
 10
7.81377
 20
43.9
 11
-1.90973
 21
43.9
  0
LINE
  8
0
 10
-1.90973
 20
43.9
 11
-1.90973
 21
41.2
  0
LINE
  8
0
 10
-1.90973
 20
41.2
 11
-13.5141
 21
41.2
  0
LINE
  8
0
 10
-13.5141
 20
41.2
 11
-13.5291
 21
40.8721
  0
LINE
  8
0
 10
-13.5291
 20
40.8721
 11
-13.5537
 21
40.5589
  0
LINE
  8
0
 10
-13.5537
 20
40.5589
 11
-13.5882
 21
40.2467
  0
LINE
  8
0
 10
-13.5882
 20
40.2467
 11
-13.6325
 21
39.9357
  0
LINE
  8
0
 10
-13.6325
 20
39.9357
 11
-13.6865
 21
39.6262
  0
LINE
  8
0
 10
-13.6865
 20
39.6262
 11
-13.7502
 21
39.3186
  0
LINE
  8
0
 10
-13.7502
 20
39.3186
 11
-13.8235
 21
39.0131
  0
LINE
  8
0
 10
-13.8235
 20
39.0131
 11
-13.9064
 21
38.7101
  0
LINE
  8
0
 10
-13.9064
 20
38.7101
 11
-13.9988
 21
38.4098
  0
LINE
  8
0
 10
-13.9988
 20
38.4098
 11
-14.1005
 21
38.1126
  0
LINE
  8
0
 10
-14.1005
 20
38.1126
 11
-14.2116
 21
37.8187
  0
LINE
  8
0
 10
-14.2116
 20
37.8187
 11
-14.3318
 21
37.5285
  0
LINE
  8
0
 10
-14.3318
 20
37.5285
 11
-14.4611
 21
37.2422
  0
LINE
  8
0
 10
-14.4611
 20
37.2422
 11
-14.5993
 21
36.9601
  0
LINE
  8
0
 10
-14.5993
 20
36.9601
 11
-14.7463
 21
36.6824
  0
LINE
  8
0
 10
-14.7463
 20
36.6824
 11
-14.9019
 21
36.4096
  0
LINE
  8
0
 10
-14.9019
 20
36.4096
 11
-15.0661
 21
36.1417
  0
LINE
  8
0
 10
-15.0661
 20
36.1417
 11
-15.2385
 21
35.8792
  0
LINE
  8
0
 10
-15.2385
 20
35.8792
 11
-15.4192
 21
35.6221
  0
LINE
  8
0
 10
-15.4192
 20
35.6221
 11
-15.6078
 21
35.3709
  0
LINE
  8
0
 10
-15.6078
 20
35.3709
 11
-15.8042
 21
35.1257
  0
LINE
  8
0
 10
-15.8042
 20
35.1257
 11
-16.0082
 21
34.8869
  0
LINE
  8
0
 10
-16.0082
 20
34.8869
 11
-16.2197
 21
34.6545
  0
LINE
  8
0
 10
-16.2197
 20
34.6545
 11
-16.4383
 21
34.4289
  0
LINE
  8
0
 10
-16.4383
 20
34.4289
 11
-16.6639
 21
34.2103
  0
LINE
  8
0
 10
-16.6639
 20
34.2103
 11
-16.8962
 21
33.9989
  0
LINE
  8
0
 10
-16.8962
 20
33.9989
 11
-17.1351
 21
33.7949
  0
LINE
  8
0
 10
-17.1351
 20
33.7949
 11
-17.3803
 21
33.5984
  0
LINE
  8
0
 10
-17.3803
 20
33.5984
 11
-17.6315
 21
33.4098
  0
LINE
  8
0
 10
-17.6315
 20
33.4098
 11
-17.8885
 21
33.2292
  0
LINE
  8
0
 10
-17.8885
 20
33.2292
 11
-18.1511
 21
33.0567
  0
LINE
  8
0
 10
-18.1511
 20
33.0567
 11
-18.4189
 21
32.8926
  0
LINE
  8
0
 10
-18.4189
 20
32.8926
 11
-18.6918
 21
32.7369
  0
LINE
  8
0
 10
-18.6918
 20
32.7369
 11
-18.9694
 21
32.5899
  0
LINE
  8
0
 10
-18.9694
 20
32.5899
 11
-19.2516
 21
32.4517
  0
LINE
  8
0
 10
-19.2516
 20
32.4517
 11
-19.5379
 21
32.3224
  0
LINE
  8
0
 10
-19.5379
 20
32.3224
 11
-19.8281
 21
32.2022
  0
LINE
  8
0
 10
-19.8281
 20
32.2022
 11
-20.122
 21
32.0912
  0
LINE
  8
0
 10
-20.122
 20
32.0912
 11
-20.4192
 21
31.9894
  0
LINE
  8
0
 10
-20.4192
 20
31.9894
 11
-20.7194
 21
31.897
  0
LINE
  8
0
 10
-20.7194
 20
31.897
 11
-21.0224
 21
31.8142
  0
LINE
  8
0
 10
-21.0224
 20
31.8142
 11
-21.3279
 21
31.7408
  0
LINE
  8
0
 10
-21.3279
 20
31.7408
 11
-21.6355
 21
31.6771
  0
LINE
  8
0
 10
-21.6355
 20
31.6771
 11
-21.945
 21
31.6231
  0
LINE
  8
0
 10
-21.945
 20
31.6231
 11
-22.256
 21
31.5788
  0
LINE
  8
0
 10
-22.256
 20
31.5788
 11
-22.5683
 21
31.5444
  0
LINE
  8
0
 10
-22.5683
 20
31.5444
 11
-22.8814
 21
31.5197
  0
LINE
  8
0
 10
-22.8814
 20
31.5197
 11
-23.1952
 21
31.5049
  0
LINE
  8
0
 10
-23.1952
 20
31.5049
 11
-23.5094
 21
31.5
  0
LINE
  8
0
 10
-23.5094
 20
31.5
 11
-26.5512
 21
31.5
  0
LINE
  8
0
 10
-26.5512
 20
31.5
 11
-26.5512
 21
18.6667
  0
LINE
  8
0
 10
-26.5512
 20
18.6667
 11
-23.5094
 21
18.6667
  0
LINE
  8
0
 10
-23.5094
 20
18.6667
 11
-23.5094
 21
4.83333
  0
LINE
  8
0
 10
-23.5094
 20
4.83333
 11
-26.5512
 21
4.83333
  0
LINE
  8
0
 10
-26.5512
 20
4.83333
 11
-26.5512
 21
-18
  0
LINE
  8
0
 10
-26.5512
 20
-18
 11
1.952
 21
-18
  0
LINE
  8
0
 10
1.952
 20
-18
 11
1.952
 21
-17.9706
  0
LINE
  8
0
 10
-20.5094
 20
23.5
 11
-20.5094
 21
27.5
  0
LINE
  8
0
 10
-20.5094
 20
27.5
 11
-18.5094
 21
27.5
  0
LINE
  8
0
 10
-18.5094
 20
27.5
 11
-18.5094
 21
23.5
  0
LINE
  8
0
 10
-18.5094
 20
23.5
 11
-20.5094
 21
23.5
  0
LINE
  8
0
 10
21.748
 20
18.6667
 11
21.748
 21
22.6667
  0
LINE
  8
0
 10
21.748
 20
22.6667
 11
23.748
 21
22.6667
  0
LINE
  8
0
 10
23.748
 20
22.6667
 11
23.748
 21
18.6667
  0
LINE
  8
0
 10
23.748
 20
18.6667
 11
21.748
 21
18.6667
  0
LINE
  8
0
 10
2.47488
 20
-3.01244
 11
2.00951
 21
-2.90071
  0
LINE
  8
0
 10
2.00951
 20
-2.90071
 11
1.56734
 21
-2.71756
  0
LINE
  8
0
 10
1.56734
 20
-2.71756
 11
1.15927
 21
-2.4675
  0
LINE
  8
0
 10
1.15927
 20
-2.4675
 11
0.795334
 21
-2.15666
  0
LINE
  8
0
 10
0.795334
 20
-2.15666
 11
0.484512
 21
-1.79274
  0
LINE
  8
0
 10
0.484512
 20
-1.79274
 11
0.234436
 21
-1.38466
  0
LINE
  8
0
 10
0.234436
 20
-1.38466
 11
0.0512848
 21
-0.94249
  0
LINE
  8
0
 10
0.0512848
 20
-0.94249
 11
-0.0604248
 21
-0.477112
  0
LINE
  8
0
 10
-0.0604248
 20
-0.477112
 11
-0.0979767
 21
0
  0
LINE
  8
0
 10
-0.0979767
 20
0
 11
-0.0604248
 21
0.477112
  0
LINE
  8
0
 10
-0.0604248
 20
0.477112
 11
0.0512848
 21
0.94249
  0
LINE
  8
0
 10
0.0512848
 20
0.94249
 11
0.234436
 21
1.38466
  0
LINE
  8
0
 10
0.234436
 20
1.38466
 11
0.484512
 21
1.79274
  0
LINE
  8
0
 10
0.484512
 20
1.79274
 11
0.795334
 21
2.15666
  0
LINE
  8
0
 10
0.795334
 20
2.15666
 11
1.15927
 21
2.4675
  0
LINE
  8
0
 10
1.15927
 20
2.4675
 11
1.56734
 21
2.71756
  0
LINE
  8
0
 10
1.56734
 20
2.71756
 11
2.00951
 21
2.90071
  0
LINE
  8
0
 10
2.00951
 20
2.90071
 11
2.47488
 21
3.01244
  0
LINE
  8
0
 10
2.47488
 20
3.01244
 11
2.95201
 21
3.04999
  0
LINE
  8
0
 10
2.95201
 20
3.04999
 11
3.42914
 21
3.01244
  0
LINE
  8
0
 10
3.42914
 20
3.01244
 11
3.89452
 21
2.90071
  0
LINE
  8
0
 10
3.89452
 20
2.90071
 11
4.33669
 21
2.71756
  0
LINE
  8
0
 10
4.33669
 20
2.71756
 11
4.74475
 21
2.4675
  0
LINE
  8
0
 10
4.74475
 20
2.4675
 11
5.10869
 21
2.15666
  0
LINE
  8
0
 10
5.10869
 20
2.15666
 11
5.41951
 21
1.79274
  0
LINE
  8
0
 10
5.41951
 20
1.79274
 11
5.66959
 21
1.38466
  0
LINE
  8
0
 10
5.66959
 20
1.38466
 11
5.85274
 21
0.94249
  0
LINE
  8
0
 10
5.85274
 20
0.94249
 11
5.96446
 21
0.477112
  0
LINE
  8
0
 10
5.96446
 20
0.477112
 11
6.00201
 21
0
  0
LINE
  8
0
 10
6.00201
 20
0
 11
5.96446
 21
-0.477112
  0
LINE
  8
0
 10
5.96446
 20
-0.477112
 11
5.85274
 21
-0.94249
  0
LINE
  8
0
 10
5.85274
 20
-0.94249
 11
5.66959
 21
-1.38466
  0
LINE
  8
0
 10
5.66959
 20
-1.38466
 11
5.41951
 21
-1.79274
  0
LINE
  8
0
 10
5.41951
 20
-1.79274
 11
5.10869
 21
-2.15666
  0
LINE
  8
0
 10
5.10869
 20
-2.15666
 11
4.74475
 21
-2.4675
  0
LINE
  8
0
 10
4.74475
 20
-2.4675
 11
4.33669
 21
-2.71756
  0
LINE
  8
0
 10
4.33669
 20
-2.71756
 11
3.89452
 21
-2.90071
  0
LINE
  8
0
 10
3.89452
 20
-2.90071
 11
3.42914
 21
-3.01244
  0
LINE
  8
0
 10
3.42914
 20
-3.01244
 11
2.95201
 21
-3.04999
  0
LINE
  8
0
 10
2.95201
 20
-3.04999
 11
2.47488
 21
-3.01244
  0
LINE
  8
0
 10
-20.5094
 20
-11
 11
-20.5094
 21
-7
  0
LINE
  8
0
 10
-20.5094
 20
-7
 11
-18.5094
 21
-7
  0
LINE
  8
0
 10
-18.5094
 20
-7
 11
-18.5094
 21
-11
  0
LINE
  8
0
 10
-18.5094
 20
-11
 11
-20.5094
 21
-11
  0
ENDSEC
  0
SECTION
  2
OBJECTS
  0
DICTIONARY
  0
ENDSEC
  0
EOF
