<?xml version="1.0" encoding="UTF-8" standalone="no"?>
<svg
   xmlns:dc="http://purl.org/dc/elements/1.1/"
   xmlns:cc="http://creativecommons.org/ns#"
   xmlns:rdf="http://www.w3.org/1999/02/22-rdf-syntax-ns#"
   xmlns:svg="http://www.w3.org/2000/svg"
   xmlns="http://www.w3.org/2000/svg"
   xmlns:sodipodi="http://sodipodi.sourceforge.net/DTD/sodipodi-0.dtd"
   xmlns:inkscape="http://www.inkscape.org/namespaces/inkscape"
   width="744.094488189"
   height="1052.36220472"
   id="svg4548"
   version="1.1"
   inkscape:version="0.91 r"
   sodipodi:docname="mount.svg">
  <metadata
     id="metadata5662">
    <rdf:RDF>
      <cc:Work
         rdf:about="">
        <dc:format>image/svg+xml</dc:format>
        <dc:type
           rdf:resource="http://purl.org/dc/dcmitype/StillImage" />
        <dc:title />
      </cc:Work>
    </rdf:RDF>
  </metadata>
  <sodipodi:namedview
     pagecolor="#ffffff"
     bordercolor="#666666"
     borderopacity="1"
     objecttolerance="10"
     gridtolerance="10"
     guidetolerance="10"
     inkscape:pageopacity="0"
     inkscape:pageshadow="2"
     inkscape:window-width="1855"
     inkscape:window-height="1176"
     id="namedview5660"
     showgrid="false"
     inkscape:zoom="0.89702955"
     inkscape:cx="-164.91849"
     inkscape:cy="191.34135"
     inkscape:window-x="65"
     inkscape:window-y="24"
     inkscape:window-maximized="1"
     inkscape:current-layer="g4564" />
  <desc
     id="desc4550">C:\Share\Robotics\Whr_bot\Parts\61r\mount.dxf - scale = 1.000000, origin = (0.000000, 0.000000), auto = False</desc>
  <defs
     id="defs4552">
    <marker
       refY="0.0"
       refX="0.0"
       style="overflow:visible"
       id="DistanceX"
       orient="auto">
      <path
         style="stroke:#000000; stroke-width:0.5"
         d="M 3,-3 L -3,3 M 0,-5 L  0,5"
         id="path4555" />
    </marker>
    <pattern
       height="8"
       width="8"
       patternUnits="userSpaceOnUse"
       y="0"
       x="0"
       id="Hatch">
      <path
         linecap="square"
         stroke="#000000"
         stroke-width="0.25"
         d="M8 4 l-4,4"
         id="path4558" />
      <path
         linecap="square"
         stroke="#000000"
         stroke-width="0.25"
         d="M6 2 l-4,4"
         id="path4560" />
      <path
         linecap="square"
         stroke="#000000"
         stroke-width="0.25"
         d="M4 0 l-4,4"
         id="path4562" />
    </pattern>
    <marker
       style="overflow:visible"
       refY="0.0"
       refX="0.0"
       orient="auto"
       id="DistanceX-7">
      <path
         id="path22688"
         style="stroke:#000000; stroke-width:0.5"
         d="M 3,-3 L -3,3 M 0,-5 L  0,5" />
    </marker>
    <pattern
       y="0"
       x="0"
       width="8"
       patternUnits="userSpaceOnUse"
       id="Hatch-0"
       height="8">
      <path
         id="path22691"
         stroke-width="0.25"
         stroke="#000000"
         linecap="square"
         d="M8 4 l-4,4" />
      <path
         id="path22693"
         stroke-width="0.25"
         stroke="#000000"
         linecap="square"
         d="M6 2 l-4,4" />
      <path
         id="path22695"
         stroke-width="0.25"
         stroke="#000000"
         linecap="square"
         d="M4 0 l-4,4" />
    </pattern>
  </defs>
  <g
     inkscape:label="0"
     inkscape:groupmode="layer"
     id="g4564">
    <path
       inkscape:connector-curvature="0"
       d="m 576.94705,684.241 0,-59.1725 -10.77803,0 0,-49.01601 10.77803,0 0,-47.95264 -41.77488,0 0,-158.74016 -0.0315,-2.00338 -0.0942,-2.00126 -0.15735,-1.99736 -0.21969,-1.9917 -0.2824,-1.98354 -0.34441,-1.97362 -0.40642,-1.96228 -0.46771,-1.94812 -0.52866,-1.93251 -0.58926,-1.91516 -0.64878,-1.89567 -0.7083,-1.87406 -0.76677,-1.85137 -0.82453,-1.82587 -0.88158,-1.79929 -0.93756,-1.77095 -0.99283,-1.74012 -1.04669,-1.70858 -1.1002,-1.67456 -1.15193,-1.63914 -1.20295,-1.60228 -1.25291,-1.56366 -1.30111,-1.52362 -1.34858,-1.48182 -1.39429,-1.43893 -1.43894,-1.39429 -1.48181,-1.34859 -1.52362,-1.3011 -1.56366,-1.25362 -1.60229,-1.20118 -1.63913,-1.15158 -1.67464,-1.10197 -1.7084,-1.04527 -1.74041,-0.99567 -1.77073,-0.93543 -1.79925,-0.88229 -1.82612,-0.82559 -1.85106,-0.76535 -1.8743,-0.70866 -1.89556,-0.64843 -1.91502,-0.58819 -1.93263,-0.52795 -1.94825,-0.46772 -1.962,-0.40748 -1.97376,-0.3437 -1.98358,-0.28346 -1.99155,-0.21969 -1.99743,-0.1559 -2.00139,-0.0957 -2.00333,-0.0319 -2.00333,0.0319 -2.00139,0.0957 -1.99743,0.15588 -1.99155,0.21969 -1.98358,0.28346 -1.97376,0.3437 -1.962,0.40748 -1.94826,0.46772 -1.93262,0.52795 -1.91502,0.58819 -1.89556,0.64843 -1.8743,0.70866 -1.85106,0.76535 -1.82612,0.82559 -1.79925,0.88229 -1.77074,0.93543 -1.7404,0.99567 -1.7084,1.04527 -1.67464,1.10197 -1.63913,1.15158 -1.60229,1.20118 -1.56366,1.25362 -1.52362,1.3011 -1.48181,1.34859 -1.43894,1.39429 -1.39429,1.43893 -1.34858,1.48182 -1.30111,1.52362 -1.25291,1.56366 -1.20295,1.60228 -1.15193,1.63914 -1.1002,1.67456 -1.04669,1.70858 -0.99283,1.74012 -0.93756,1.77095 -0.88158,1.79929 -0.82453,1.82587 -0.76677,1.85137 -0.7083,1.87406 -0.64878,1.89567 -0.58926,1.91516 -0.52866,1.93251 -0.46771,1.94812 -0.40642,1.96228 -0.34441,1.97362 -0.2824,1.98354 -0.21969,1.9917 -0.15732,1.99736 -0.0942,2.00126 -0.0315,2.00338 -2e-5,158.74016 -30.29953,0 0,79.8424 10.77804,0 0,49.01585 -10.77804,0 0,80.9055 90.53575,0 0,-0.1041 1.53998,0.0728 2.00333,0.0313 2.00333,-0.0312 2.00139,-0.0944 1.99743,-0.15745 1.99155,-0.2197 1.98358,-0.2824 1.97376,-0.3444 1.962,-0.4064 1.94825,-0.4677 1.93263,-0.5287 1.91502,-0.5892 1.89556,-0.6488 1.8743,-0.7083 1.85106,-0.7668 1.82612,-0.8245 1.79925,-0.8816 1.77073,-0.9375 1.74041,-0.9929 1.7084,-1.0467 1.67464,-1.1002 1.63913,-1.1519 1.60229,-1.2029 1.56366,-1.253 1.52362,-1.3011 1.48181,-1.3485 1.43894,-1.3943 1.39429,-1.439 1.34858,-1.4818 1.30111,-1.5236 1.25291,-1.5637 1.20295,-1.6023 1.15193,-1.6391 1.1002,-1.6746 1.04669,-1.7084 0.99283,-1.7404 0.93756,-1.7708 0.88158,-1.7992 0.82453,-1.8261 0.76677,-1.8511 0.8309,-2.1848 0.21473,-0.5135 0.23102,-0.5064 0.24626,-0.499 0.26221,-0.491 0.27744,-0.4825 0.29267,-0.4734 0.30721,-0.4642 0.32138,-0.4542 0.3359,-0.4439 0.34937,-0.4331 0.36284,-0.422 0.3763,-0.4103 0.3887,-0.3984 0.40074,-0.3858 0.41315,-0.3732 0.42449,-0.3599 0.43548,-0.3465 0.4461,-0.3327 0.45673,-0.3184 0.46594,-0.3039 0.47587,-0.2892 0.48437,-0.274 0.49252,-0.2587 0.50067,-0.2431 0.50811,-0.2273 0.51484,-0.2112 0.52158,-0.1949 0.52689,-0.1784 0.53256,-0.1618 0.53752,-0.145 0.54177,-0.128 0.54531,-0.111 0.54851,-0.0939 0.55133,-0.0761 0.55347,-0.0593 0.55488,-0.0419 0.55595,-0.024 0.55665,-0.009 z"
       style="fill:none;stroke:#0000ff;stroke-opacity:1"
       id="path22857"
       sodipodi:nodetypes="ccccccccccccccccccccccccccccccccccccccccccccccccccccccccccccccccccccccccccccccccccccccccccccccccccccccccccccccccccccccccccccccccccccccccccccccccccccccccccccccccccccccccccccccccccccccccccccccccccccc" />
    <path
       inkscape:connector-curvature="0"
       d="m 471.39264,328.61166 1.27992,0.0202 1.27862,0.0602 1.27617,0.10029 1.27236,0.14067 1.26734,0.18036 1.26099,0.22003 1.25348,0.25973 1.24469,0.2987 1.23474,0.33768 1.22347,0.37665 1.2111,0.41457 1.19746,0.45248 1.18265,0.48968 1.16664,0.52689 1.14959,0.56304 1.13127,0.59917 1.11192,0.63425 1.09145,0.66862 1.06993,0.70299 1.04726,0.73595 1.02367,0.76854 0.99903,0.80044 0.97335,0.83126 0.94681,0.86173 0.91924,0.89079 0.89085,0.91913 0.86152,0.94677 0.83137,0.97335 0.80036,0.99921 0.76854,1.02366 0.73606,1.04705 0.70281,1.07008 0.66887,1.09134 0.63415,1.11188 0.59917,1.13138 0.56303,1.14945 0.52689,1.16681 0.48969,1.18276 0.45248,1.19728 0.41456,1.2111 0.37666,1.22351 0.33767,1.23484 0.2987,1.24476 0.25973,1.25327 0.22004,1.26107 0.18035,1.26744 0.14067,1.2724 0.10028,1.27594 0.0602,1.27878 0.0202,1.27984 -0.0202,1.27985 -0.0602,1.27878 -0.10029,1.27594 -0.14067,1.2724 -0.18035,1.26744 -0.22004,1.26107 -0.25973,1.25326 -0.2987,1.24477 -0.33767,1.23484 -0.37666,1.22351 -0.41456,1.2111 -0.45248,1.19728 -0.48969,1.18276 -0.52689,1.16681 -0.56303,1.14945 -0.59917,1.13137 -0.27461,0.48154 0,93.27331 10.62992,11.33894 0,34.01574 -92.12598,0 0,-34.01574 10.62992,-11.33894 0,-93.27331 -0.27461,-0.48154 -0.59917,-1.13137 -0.56303,-1.14945 -0.52689,-1.16681 -0.48969,-1.18276 -0.45248,-1.19728 -0.41456,-1.2111 -0.37666,-1.22351 -0.33768,-1.23484 -0.2987,-1.24477 -0.25972,-1.25326 -0.22004,-1.26107 -0.18035,-1.26744 -0.14067,-1.2724 -0.10028,-1.27594 -0.0602,-1.27878 -0.0202,-1.27985 0.0202,-1.27984 0.0602,-1.27878 0.1003,-1.27594 0.14067,-1.2724 0.18035,-1.26744 0.22004,-1.26107 0.25972,-1.25327 0.2987,-1.24476 0.33768,-1.23484 0.37666,-1.22351 0.41456,-1.2111 0.45248,-1.19728 0.48969,-1.18276 0.52689,-1.16681 0.56303,-1.14945 0.59917,-1.13138 0.63415,-1.11188 0.66887,-1.09134 0.70281,-1.07008 0.73605,-1.04705 0.76855,-1.02366 0.80036,-0.99921 0.83137,-0.97335 0.86152,-0.94677 0.89085,-0.91913 0.91924,-0.89079 0.94681,-0.86173 0.97335,-0.83126 0.99903,-0.80044 1.02366,-0.76854 1.04726,-0.73595 1.06994,-0.70299 1.09145,-0.66862 1.11192,-0.63425 1.13127,-0.59917 1.14959,-0.56304 1.16664,-0.52689 1.18265,-0.48968 1.19746,-0.45248 1.2111,-0.41457 1.22347,-0.37665 1.23473,-0.33768 1.2447,-0.2987 1.25348,-0.25973 1.26099,-0.22003 1.26733,-0.18036 1.27237,-0.14067 1.27617,-0.10027 1.27862,-0.0602 z"
       style="fill:none;stroke:#ff0000;stroke-opacity:1"
       id="path23229"
       sodipodi:nodetypes="cccccccccccccccccccccccccccccccccccccccccccccccccccccccccccccccccccccccccccccccccccccccccccccccccccccccccccccccccccccccccccccccccccccccccccccc" />
    <path
       inkscape:connector-curvature="0"
       d="m 427.05771,393.83119 -0.12968,0.54071 -0.21295,0.51378 -0.29055,0.47409 -0.36106,0.42272 -0.42272,0.36106 -0.47409,0.29056 -0.51378,0.21295 -0.54071,0.12968 -0.55418,0.0436 -0.55417,-0.0436 -0.54071,-0.12968 -0.51378,-0.21295 -0.47409,-0.29056 -0.42272,-0.36106 -0.36106,-0.42272 -0.29055,-0.47409 -0.2126,-0.51378 -0.13004,-0.54071 -0.0436,-0.55417 0.0436,-0.55418 0.13003,-0.5407 0.2126,-0.51378 0.29055,-0.4741 0.36106,-0.42271 0.42272,-0.36107 0.47409,-0.29055 0.51378,-0.2126 0.54071,-0.13004 0.55417,-0.0436 0.55418,0.0436 0.54071,0.13003 0.51378,0.2126 0.47409,0.29055 0.42272,0.36107 0.36106,0.42271 0.29055,0.4741 0.21295,0.51378 0.12969,0.5407 0.0436,0.55418 z"
       style="fill:none;stroke:#ff0000;stroke-opacity:1"
       id="path23431"
       sodipodi:nodetypes="ccccccccccccccccccccccccccccccccccccccccc" />
    <path
       inkscape:connector-curvature="0"
       d="m 520.32217,389.90733 0.51378,0.2126 0.47409,0.29055 0.42272,0.36107 0.36106,0.42271 0.29055,0.4741 0.2126,0.51378 0.13004,0.5407 0.0436,0.55418 -0.0436,0.55417 -0.13003,0.54071 -0.2126,0.51378 -0.29055,0.47409 -0.36106,0.42272 -0.42272,0.36106 -0.47409,0.29056 -0.51378,0.21295 -0.54071,0.12968 -0.55417,0.0436 -0.55418,-0.0436 -0.54071,-0.12968 -0.51378,-0.21295 -0.47409,-0.29056 -0.42272,-0.36106 -0.36106,-0.42272 -0.29055,-0.47409 -0.21295,-0.51378 -0.12969,-0.54071 -0.0436,-0.55417 0.0436,-0.55418 0.12968,-0.5407 0.21295,-0.51378 0.29055,-0.4741 0.36106,-0.42271 0.42272,-0.36107 0.47409,-0.29055 0.51378,-0.2126 0.54071,-0.13004 0.55418,-0.0436 0.55417,0.0436 z"
       style="fill:none;stroke:#ff0000;stroke-opacity:1"
       id="path23493"
       sodipodi:nodetypes="ccccccccccccccccccccccccccccccccccccccccc" />
    <path
       inkscape:connector-curvature="0"
       d="m 424.65288,418.25379 0.51378,0.2126 0.47409,0.29055 0.42272,0.36106 0.36106,0.42272 0.29055,0.47409 0.21295,0.51378 0.12969,0.54071 0.0436,0.55417 -0.0436,0.55418 -0.12968,0.54071 -0.21295,0.51378 -0.29055,0.47409 -0.36106,0.42272 -0.42272,0.36106 -0.47409,0.29055 -0.51378,0.21295 -0.54071,0.12969 -0.55418,0.0436 -0.55417,-0.0436 -0.54071,-0.12968 -0.51378,-0.21295 -0.47409,-0.29055 -0.42272,-0.36106 -0.36106,-0.42272 -0.29055,-0.47409 -0.2126,-0.51378 -0.13004,-0.54071 -0.0436,-0.55418 0.0436,-0.55417 0.13003,-0.54071 0.2126,-0.51378 0.29055,-0.47409 0.36106,-0.42272 0.42272,-0.36106 0.47409,-0.29055 0.51378,-0.2126 0.54071,-0.13004 0.55417,-0.0436 0.55418,0.0436 z"
       style="fill:none;stroke:#ff0000;stroke-opacity:1"
       id="path23573"
       sodipodi:nodetypes="ccccccccccccccccccccccccccccccccccccccccc" />
    <path
       inkscape:connector-curvature="0"
       d="m 520.32217,418.25379 0.51378,0.2126 0.47409,0.29055 0.42272,0.36106 0.36106,0.42272 0.29055,0.47409 0.2126,0.51378 0.13004,0.54071 0.0436,0.55417 -0.0436,0.55418 -0.13003,0.54071 -0.2126,0.51378 -0.29055,0.47409 -0.36106,0.42272 -0.42272,0.36106 -0.47409,0.29055 -0.51378,0.21295 -0.54071,0.12969 -0.55417,0.0436 -0.55418,-0.0436 -0.54071,-0.12968 -0.51378,-0.21295 -0.47409,-0.29055 -0.42272,-0.36106 -0.36106,-0.42272 -0.29055,-0.47409 -0.21295,-0.51378 -0.12969,-0.54071 -0.0436,-0.55418 0.0436,-0.55417 0.12968,-0.54071 0.21295,-0.51378 0.29055,-0.47409 0.36106,-0.42272 0.42272,-0.36106 0.47409,-0.29055 0.51378,-0.2126 0.54071,-0.13004 0.55418,-0.0436 0.55417,0.0436 z"
       style="fill:none;stroke:#ff0000;stroke-opacity:1"
       id="path23653"
       sodipodi:nodetypes="ccccccccccccccccccccccccccccccccccccccccc" />
    <path
       inkscape:connector-curvature="0"
       d="m 522.59697,451.06481 -0.2126,0.51378 -0.29055,0.4741 -0.36106,0.42271 -0.42272,0.36107 -0.47409,0.29055 -0.51378,0.21295 -0.54071,0.12969 -0.55417,0.0436 -0.55418,-0.0436 -0.54071,-0.12968 -0.51378,-0.21295 -0.47409,-0.29055 -0.42272,-0.36107 -0.36106,-0.42271 -0.29055,-0.4741 -0.21295,-0.51378 -0.12969,-0.54071 -0.0436,-0.55417 0.0436,-0.55417 0.12968,-0.54071 0.21295,-0.51378 0.29055,-0.47409 0.36106,-0.42272 0.42272,-0.36106 0.47409,-0.29055 0.51378,-0.2126 0.54071,-0.13004 0.55418,-0.0436 0.55417,0.0436 0.54071,0.13003 0.51378,0.2126 0.47409,0.29055 0.42272,0.36106 0.36106,0.42272 0.29055,0.47409 0.2126,0.51378 0.13004,0.54071 0.0436,0.55417 -0.0436,0.55417 z"
       style="fill:none;stroke:#ff0000;stroke-opacity:1"
       id="path23753"
       sodipodi:nodetypes="ccccccccccccccccccccccccccccccccccccccccc" />
    <path
       inkscape:connector-curvature="0"
       d="m 426.92803,451.06481 -0.21295,0.51378 -0.29055,0.4741 -0.36106,0.42271 -0.42272,0.36107 -0.47409,0.29055 -0.51378,0.21295 -0.54071,0.12969 -0.55418,0.0436 -0.55417,-0.0436 -0.54071,-0.12968 -0.51378,-0.21295 -0.47409,-0.29055 -0.42272,-0.36107 -0.36106,-0.42271 -0.29055,-0.4741 -0.2126,-0.51378 -0.13004,-0.54071 -0.0436,-0.55417 0.0436,-0.55417 0.13003,-0.54071 0.2126,-0.51378 0.29055,-0.47409 0.36106,-0.42272 0.42272,-0.36106 0.47409,-0.29055 0.51378,-0.2126 0.54071,-0.13004 0.55417,-0.0436 0.55418,0.0436 0.54071,0.13003 0.51378,0.2126 0.47409,0.29055 0.42272,0.36106 0.36106,0.42272 0.29055,0.47409 0.21295,0.51378 0.12969,0.54071 0.0436,0.55417 -0.0436,0.55417 z"
       style="fill:none;stroke:#ff0000;stroke-opacity:1"
       id="path23833"
       sodipodi:nodetypes="ccccccccccccccccccccccccccccccccccccccccc" />
    <path
       inkscape:connector-curvature="0"
       d="m 520.32217,474.9467 0.51378,0.2126 0.47409,0.29055 0.42272,0.36107 0.36106,0.42271 0.29055,0.4741 0.2126,0.51378 0.13004,0.5407 0.0436,0.55418 -0.0436,0.55417 -0.13003,0.54071 -0.2126,0.51378 -0.29055,0.47409 -0.36106,0.42272 -0.42272,0.36106 -0.47409,0.29055 -0.51378,0.21296 -0.54071,0.12968 -0.55417,0.0436 -0.55418,-0.0436 -0.54071,-0.12967 -0.51378,-0.21296 -0.47409,-0.29055 -0.42272,-0.36106 -0.36106,-0.42272 -0.29055,-0.47409 -0.21295,-0.51378 -0.12969,-0.54071 -0.0436,-0.55417 0.0436,-0.55418 0.12968,-0.5407 0.21295,-0.51378 0.29055,-0.4741 0.36106,-0.42271 0.42272,-0.36107 0.47409,-0.29055 0.51378,-0.2126 0.54071,-0.13004 0.55418,-0.0436 0.55417,0.0436 z"
       style="fill:none;stroke:#ff0000;stroke-opacity:1"
       id="path23893"
       sodipodi:nodetypes="ccccccccccccccccccccccccccccccccccccccccc" />
    <path
       inkscape:connector-curvature="0"
       d="m 426.92803,479.41127 -0.21295,0.51378 -0.29055,0.47409 -0.36106,0.42272 -0.42272,0.36106 -0.47409,0.29055 -0.51378,0.21296 -0.54071,0.12968 -0.55418,0.0436 -0.55417,-0.0436 -0.54071,-0.12967 -0.51378,-0.21296 -0.47409,-0.29055 -0.42272,-0.36106 -0.36106,-0.42272 -0.29055,-0.47409 -0.2126,-0.51378 -0.13004,-0.54071 -0.0436,-0.55417 0.0436,-0.55418 0.13003,-0.5407 0.2126,-0.51378 0.29055,-0.4741 0.36106,-0.42271 0.42272,-0.36107 0.47409,-0.29055 0.51378,-0.2126 0.54071,-0.13004 0.55417,-0.0436 0.55418,0.0436 0.54071,0.13003 0.51378,0.2126 0.47409,0.29055 0.42272,0.36107 0.36106,0.42271 0.29055,0.4741 0.21295,0.51378 0.12969,0.5407 0.0436,0.55418 -0.0436,0.55417 z"
       style="fill:none;stroke:#ff0000;stroke-opacity:1"
       id="path23993"
       sodipodi:nodetypes="ccccccccccccccccccccccccccccccccccccccccc" />
    <path
       inkscape:connector-curvature="0"
       d="m 398.72154,551.84001 7.08661,0 0,14.17323 -7.08661,0 z"
       style="fill:none;stroke:#ff0000;stroke-opacity:1"
       id="path24013"
       sodipodi:nodetypes="ccccc" />
    <path
       inkscape:connector-curvature="0"
       d="m 548.45248,551.84001 7.08662,0 0,14.17323 -7.08662,0 z"
       style="fill:none;stroke:#ff0000;stroke-opacity:1"
       id="path24021"
       sodipodi:nodetypes="ccccc" />
    <path
       inkscape:connector-curvature="0"
       d="m 548.45248,656.9216 7.08662,0 0,14.1733 -7.08662,0 z"
       style="fill:none;stroke:#ff0000;stroke-opacity:1"
       id="path24029"
       sodipodi:nodetypes="ccccc" />
    <path
       inkscape:connector-curvature="0"
       d="m 477.74487,682.8272 -1.44595,0.8861 -1.56675,0.6489 -1.64898,0.3959 -1.69055,0.1331 -1.69055,-0.1331 -1.64898,-0.3959 -1.56675,-0.6489 -1.44595,-0.8861 -1.28948,-1.1014 -1.1014,-1.2895 -0.88604,-1.4459 -0.64896,-1.5668 -0.39589,-1.6489 -0.13305,-1.6906 0.13305,-1.6905 0.39589,-1.649 0.64896,-1.5668 0.88604,-1.4459 1.1014,-1.2895 1.28948,-1.1014 1.44595,-0.886 1.56675,-0.649 1.64898,-0.3959 1.69055,-0.133 1.69055,0.133 1.64898,0.3959 1.56675,0.649 1.44595,0.886 1.28948,1.1014 1.1014,1.2895 0.88604,1.4459 0.64896,1.5668 0.39589,1.649 0.13305,1.6905 -0.13305,1.6906 -0.39589,1.6489 -0.64896,1.5668 -0.88604,1.4459 -1.1014,1.2895 z"
       style="fill:none;stroke:#ff0000;stroke-opacity:1"
       id="path24105"
       sodipodi:nodetypes="ccccccccccccccccccccccccccccccccccccccccc" />
    <path
       inkscape:connector-curvature="0"
       d="m 398.72154,713.0605 0,-14.1732 7.08661,0 0,14.1732 z"
       style="fill:none;stroke:#ff0000;stroke-opacity:1"
       id="path24123"
       sodipodi:nodetypes="ccccc" />
  </g>
</svg>
