  0
SECTION
  2
BLOCKS
  0
ENDSEC
  0
SECTION
  2
ENTITIES
  0
LINE
  8
0
 10
26.8712
 20
-10.8973
 11
27.0422
 21
-10.8892
  0
LINE
  8
0
 10
27.0422
 20
-10.8892
 11
27.2129
 21
-10.8758
  0
LINE
  8
0
 10
27.2129
 20
-10.8758
 11
27.3831
 21
-10.857
  0
LINE
  8
0
 10
27.3831
 20
-10.857
 11
27.5526
 21
-10.8329
  0
LINE
  8
0
 10
27.5526
 20
-10.8329
 11
27.7212
 21
-10.8035
  0
LINE
  8
0
 10
27.7212
 20
-10.8035
 11
27.8889
 21
-10.7687
  0
LINE
  8
0
 10
27.8889
 20
-10.7687
 11
28.0554
 21
-10.7288
  0
LINE
  8
0
 10
28.0554
 20
-10.7288
 11
28.2205
 21
-10.6836
  0
LINE
  8
0
 10
28.2205
 20
-10.6836
 11
28.3841
 21
-10.6332
  0
LINE
  8
0
 10
28.3841
 20
-10.6332
 11
28.5461
 21
-10.5778
  0
LINE
  8
0
 10
28.5461
 20
-10.5778
 11
28.7063
 21
-10.5173
  0
LINE
  8
0
 10
28.7063
 20
-10.5173
 11
28.8644
 21
-10.4518
  0
LINE
  8
0
 10
28.8644
 20
-10.4518
 11
29.0205
 21
-10.3813
  0
LINE
  8
0
 10
29.0205
 20
-10.3813
 11
29.1742
 21
-10.306
  0
LINE
  8
0
 10
29.1742
 20
-10.306
 11
29.3255
 21
-10.2259
  0
LINE
  8
0
 10
29.3255
 20
-10.2259
 11
29.4743
 21
-10.141
  0
LINE
  8
0
 10
29.4743
 20
-10.141
 11
29.6203
 21
-10.0516
  0
LINE
  8
0
 10
29.6203
 20
-10.0516
 11
29.7634
 21
-9.95758
  0
LINE
  8
0
 10
29.7634
 20
-9.95758
 11
29.9034
 21
-9.85913
  0
LINE
  8
0
 10
29.9034
 20
-9.85913
 11
30.0403
 21
-9.75634
  0
LINE
  8
0
 10
30.0403
 20
-9.75634
 11
30.174
 21
-9.6493
  0
LINE
  8
0
 10
30.174
 20
-9.6493
 11
30.3041
 21
-9.5381
  0
LINE
  8
0
 10
30.3041
 20
-9.5381
 11
30.4308
 21
-9.42287
  0
LINE
  8
0
 10
30.4308
 20
-9.42287
 11
30.5537
 21
-9.30373
  0
LINE
  8
0
 10
30.5537
 20
-9.30373
 11
30.6729
 21
-9.18077
  0
LINE
  8
0
 10
30.6729
 20
-9.18077
 11
30.7881
 21
-9.05414
  0
LINE
  8
0
 10
30.7881
 20
-9.05414
 11
30.8993
 21
-8.92395
  0
LINE
  8
0
 10
30.8993
 20
-8.92395
 11
31.0063
 21
-8.79033
  0
LINE
  8
0
 10
31.0063
 20
-8.79033
 11
31.1091
 21
-8.65341
  0
LINE
  8
0
 10
31.1091
 20
-8.65341
 11
31.2076
 21
-8.51334
  0
LINE
  8
0
 10
31.2076
 20
-8.51334
 11
31.3016
 21
-8.37024
  0
LINE
  8
0
 10
31.3016
 20
-8.37024
 11
31.391
 21
-8.22426
  0
LINE
  8
0
 10
31.391
 20
-8.22426
 11
31.4759
 21
-8.07555
  0
LINE
  8
0
 10
31.4759
 20
-8.07555
 11
31.556
 21
-7.92424
  0
LINE
  8
0
 10
31.556
 20
-7.92424
 11
31.6313
 21
-7.7705
  0
LINE
  8
0
 10
31.6313
 20
-7.7705
 11
31.7018
 21
-7.61444
  0
LINE
  8
0
 10
31.7018
 20
-7.61444
 11
31.7673
 21
-7.45627
  0
LINE
  8
0
 10
31.7673
 20
-7.45627
 11
31.8278
 21
-7.29612
  0
LINE
  8
0
 10
31.8278
 20
-7.29612
 11
31.8833
 21
-7.13413
  0
LINE
  8
0
 10
31.8833
 20
-7.13413
 11
31.9336
 21
-6.97049
  0
LINE
  8
0
 10
31.9336
 20
-6.97049
 11
31.9788
 21
-6.80535
  0
LINE
  8
0
 10
31.9788
 20
-6.80535
 11
32.0187
 21
-6.63887
  0
LINE
  8
0
 10
32.0187
 20
-6.63887
 11
32.0535
 21
-6.47122
  0
LINE
  8
0
 10
32.0535
 20
-6.47122
 11
32.0829
 21
-6.30255
  0
LINE
  8
0
 10
32.0829
 20
-6.30255
 11
32.107
 21
-6.13306
  0
LINE
  8
0
 10
32.107
 20
-6.13306
 11
32.1258
 21
-5.96288
  0
LINE
  8
0
 10
32.1258
 20
-5.96288
 11
32.1392
 21
-5.79219
  0
LINE
  8
0
 10
32.1392
 20
-5.79219
 11
32.1473
 21
-5.62119
  0
LINE
  8
0
 10
32.1473
 20
-5.62119
 11
32.15
 21
-5.45
  0
LINE
  8
0
 10
32.15
 20
-5.45
 11
32.15
 21
-3.05176e-06
  0
LINE
  8
0
 10
32.15
 20
-3.05176e-06
 11
25.875
 21
-3.05176e-06
  0
LINE
  8
0
 10
25.875
 20
-3.05176e-06
 11
25.875
 21
-1.9
  0
LINE
  8
0
 10
25.875
 20
-1.9
 11
27.15
 21
-1.9
  0
LINE
  8
0
 10
27.15
 20
-1.9
 11
27.2755
 21
-1.90526
  0
LINE
  8
0
 10
27.2755
 20
-1.90526
 11
27.4001
 21
-1.92101
  0
LINE
  8
0
 10
27.4001
 20
-1.92101
 11
27.523
 21
-1.94712
  0
LINE
  8
0
 10
27.523
 20
-1.94712
 11
27.6433
 21
-1.98343
  0
LINE
  8
0
 10
27.6433
 20
-1.98343
 11
27.7601
 21
-2.02968
  0
LINE
  8
0
 10
27.7601
 20
-2.02968
 11
27.8726
 21
-2.08553
  0
LINE
  8
0
 10
27.8726
 20
-2.08553
 11
27.9801
 21
-2.15061
  0
LINE
  8
0
 10
27.9801
 20
-2.15061
 11
28.0817
 21
-2.22446
  0
LINE
  8
0
 10
28.0817
 20
-2.22446
 11
28.1768
 21
-2.30654
  0
LINE
  8
0
 10
28.1768
 20
-2.30654
 11
28.2647
 21
-2.3963
  0
LINE
  8
0
 10
28.2647
 20
-2.3963
 11
28.3448
 21
-2.49309
  0
LINE
  8
0
 10
28.3448
 20
-2.49309
 11
28.4165
 21
-2.59626
  0
LINE
  8
0
 10
28.4165
 20
-2.59626
 11
28.4793
 21
-2.70505
  0
LINE
  8
0
 10
28.4793
 20
-2.70505
 11
28.5328
 21
-2.81873
  0
LINE
  8
0
 10
28.5328
 20
-2.81873
 11
28.5766
 21
-2.93647
  0
LINE
  8
0
 10
28.5766
 20
-2.93647
 11
28.6104
 21
-3.05747
  0
LINE
  8
0
 10
28.6104
 20
-3.05747
 11
28.6339
 21
-3.18087
  0
LINE
  8
0
 10
28.6339
 20
-3.18087
 11
28.647
 21
-3.3058
  0
LINE
  8
0
 10
28.647
 20
-3.3058
 11
28.6497
 21
-3.43141
  0
LINE
  8
0
 10
28.6497
 20
-3.43141
 11
28.6418
 21
-3.55678
  0
LINE
  8
0
 10
28.6418
 20
-3.55678
 11
28.6234
 21
-3.68106
  0
LINE
  8
0
 10
28.6234
 20
-3.68106
 11
28.5947
 21
-3.80338
  0
LINE
  8
0
 10
28.5947
 20
-3.80338
 11
28.5559
 21
-3.92285
  0
LINE
  8
0
 10
28.5559
 20
-3.92285
 11
28.5072
 21
-4.03867
  0
LINE
  8
0
 10
28.5072
 20
-4.03867
 11
28.449
 21
-4.15
  0
LINE
  8
0
 10
28.449
 20
-4.15
 11
28.3817
 21
-4.25606
  0
LINE
  8
0
 10
28.3817
 20
-4.25606
 11
28.3058
 21
-4.35613
  0
LINE
  8
0
 10
28.3058
 20
-4.35613
 11
28.2217
 21
-4.4495
  0
LINE
  8
0
 10
28.2217
 20
-4.4495
 11
28.1301
 21
-4.53549
  0
LINE
  8
0
 10
28.1301
 20
-4.53549
 11
28.0317
 21
-4.61353
  0
LINE
  8
0
 10
28.0317
 20
-4.61353
 11
27.927
 21
-4.68305
  0
LINE
  8
0
 10
27.927
 20
-4.68305
 11
27.8169
 21
-4.74356
  0
LINE
  8
0
 10
27.8169
 20
-4.74356
 11
27.7022
 21
-4.79467
  0
LINE
  8
0
 10
27.7022
 20
-4.79467
 11
27.5835
 21
-4.83597
  0
LINE
  8
0
 10
27.5835
 20
-4.83597
 11
27.4619
 21
-4.86722
  0
LINE
  8
0
 10
27.4619
 20
-4.86722
 11
27.338
 21
-4.88817
  0
LINE
  8
0
 10
27.338
 20
-4.88817
 11
27.2128
 21
-4.89868
  0
LINE
  8
0
 10
27.2128
 20
-4.89868
 11
22.15
 21
-4.9
  0
LINE
  8
0
 10
22.15
 20
-4.9
 11
22.0245
 21
-4.89473
  0
LINE
  8
0
 10
22.0245
 20
-4.89473
 11
21.8998
 21
-4.87899
  0
LINE
  8
0
 10
21.8998
 20
-4.87899
 11
21.777
 21
-4.85286
  0
LINE
  8
0
 10
21.777
 20
-4.85286
 11
21.6567
 21
-4.81656
  0
LINE
  8
0
 10
21.6567
 20
-4.81656
 11
21.5399
 21
-4.77031
  0
LINE
  8
0
 10
21.5399
 20
-4.77031
 11
21.4274
 21
-4.71445
  0
LINE
  8
0
 10
21.4274
 20
-4.71445
 11
21.3199
 21
-4.64937
  0
LINE
  8
0
 10
21.3199
 20
-4.64937
 11
21.2183
 21
-4.57553
  0
LINE
  8
0
 10
21.2183
 20
-4.57553
 11
21.1232
 21
-4.49344
  0
LINE
  8
0
 10
21.1232
 20
-4.49344
 11
21.0353
 21
-4.40369
  0
LINE
  8
0
 10
21.0353
 20
-4.40369
 11
20.9552
 21
-4.30689
  0
LINE
  8
0
 10
20.9552
 20
-4.30689
 11
20.8835
 21
-4.20374
  0
LINE
  8
0
 10
20.8835
 20
-4.20374
 11
20.8207
 21
-4.09494
  0
LINE
  8
0
 10
20.8207
 20
-4.09494
 11
20.7672
 21
-3.98127
  0
LINE
  8
0
 10
20.7672
 20
-3.98127
 11
20.7234
 21
-3.86353
  0
LINE
  8
0
 10
20.7234
 20
-3.86353
 11
20.6896
 21
-3.74253
  0
LINE
  8
0
 10
20.6896
 20
-3.74253
 11
20.6661
 21
-3.61911
  0
LINE
  8
0
 10
20.6661
 20
-3.61911
 11
20.653
 21
-3.49417
  0
LINE
  8
0
 10
20.653
 20
-3.49417
 11
20.6503
 21
-3.36858
  0
LINE
  8
0
 10
20.6503
 20
-3.36858
 11
20.6582
 21
-3.2432
  0
LINE
  8
0
 10
20.6582
 20
-3.2432
 11
20.6766
 21
-3.11893
  0
LINE
  8
0
 10
20.6766
 20
-3.11893
 11
20.7053
 21
-2.99662
  0
LINE
  8
0
 10
20.7053
 20
-2.99662
 11
20.7441
 21
-2.87714
  0
LINE
  8
0
 10
20.7441
 20
-2.87714
 11
20.7928
 21
-2.76133
  0
LINE
  8
0
 10
20.7928
 20
-2.76133
 11
20.851
 21
-2.65
  0
LINE
  8
0
 10
20.851
 20
-2.65
 11
20.9183
 21
-2.54392
  0
LINE
  8
0
 10
20.9183
 20
-2.54392
 11
20.9942
 21
-2.44387
  0
LINE
  8
0
 10
20.9942
 20
-2.44387
 11
21.0783
 21
-2.3505
  0
LINE
  8
0
 10
21.0783
 20
-2.3505
 11
21.1699
 21
-2.2645
  0
LINE
  8
0
 10
21.1699
 20
-2.2645
 11
21.2683
 21
-2.18647
  0
LINE
  8
0
 10
21.2683
 20
-2.18647
 11
21.373
 21
-2.11695
  0
LINE
  8
0
 10
21.373
 20
-2.11695
 11
21.483
 21
-2.05643
  0
LINE
  8
0
 10
21.483
 20
-2.05643
 11
21.5978
 21
-2.00533
  0
LINE
  8
0
 10
21.5978
 20
-2.00533
 11
21.7165
 21
-1.96402
  0
LINE
  8
0
 10
21.7165
 20
-1.96402
 11
21.8381
 21
-1.93277
  0
LINE
  8
0
 10
21.8381
 20
-1.93277
 11
21.962
 21
-1.91182
  0
LINE
  8
0
 10
21.962
 20
-1.91182
 11
22.0872
 21
-1.90131
  0
LINE
  8
0
 10
22.0872
 20
-1.90131
 11
23.425
 21
-1.9
  0
LINE
  8
0
 10
23.425
 20
-1.9
 11
23.425
 21
-3.05176e-06
  0
LINE
  8
0
 10
23.425
 20
-3.05176e-06
 11
16
 21
-3.05176e-06
  0
LINE
  8
0
 10
16
 20
-3.05176e-06
 11
16
 21
3
  0
LINE
  8
0
 10
16
 20
3
 11
-16
 21
3
  0
LINE
  8
0
 10
-16
 20
3
 11
-16
 21
-3.05176e-06
  0
LINE
  8
0
 10
-16
 20
-3.05176e-06
 11
-23.425
 21
-3.05176e-06
  0
LINE
  8
0
 10
-23.425
 20
-3.05176e-06
 11
-23.425
 21
-1.9
  0
LINE
  8
0
 10
-23.425
 20
-1.9
 11
-22.15
 21
-1.9
  0
LINE
  8
0
 10
-22.15
 20
-1.9
 11
-22.0245
 21
-1.90526
  0
LINE
  8
0
 10
-22.0245
 20
-1.90526
 11
-21.8998
 21
-1.92101
  0
LINE
  8
0
 10
-21.8998
 20
-1.92101
 11
-21.777
 21
-1.94712
  0
LINE
  8
0
 10
-21.777
 20
-1.94712
 11
-21.6567
 21
-1.98343
  0
LINE
  8
0
 10
-21.6567
 20
-1.98343
 11
-21.5399
 21
-2.02968
  0
LINE
  8
0
 10
-21.5399
 20
-2.02968
 11
-21.4274
 21
-2.08553
  0
LINE
  8
0
 10
-21.4274
 20
-2.08553
 11
-21.3199
 21
-2.15061
  0
LINE
  8
0
 10
-21.3199
 20
-2.15061
 11
-21.2183
 21
-2.22446
  0
LINE
  8
0
 10
-21.2183
 20
-2.22446
 11
-21.1232
 21
-2.30654
  0
LINE
  8
0
 10
-21.1232
 20
-2.30654
 11
-21.0353
 21
-2.3963
  0
LINE
  8
0
 10
-21.0353
 20
-2.3963
 11
-20.9552
 21
-2.49309
  0
LINE
  8
0
 10
-20.9552
 20
-2.49309
 11
-20.8835
 21
-2.59626
  0
LINE
  8
0
 10
-20.8835
 20
-2.59626
 11
-20.8207
 21
-2.70505
  0
LINE
  8
0
 10
-20.8207
 20
-2.70505
 11
-20.7672
 21
-2.81873
  0
LINE
  8
0
 10
-20.7672
 20
-2.81873
 11
-20.7234
 21
-2.93647
  0
LINE
  8
0
 10
-20.7234
 20
-2.93647
 11
-20.6896
 21
-3.05747
  0
LINE
  8
0
 10
-20.6896
 20
-3.05747
 11
-20.6661
 21
-3.18087
  0
LINE
  8
0
 10
-20.6661
 20
-3.18087
 11
-20.653
 21
-3.3058
  0
LINE
  8
0
 10
-20.653
 20
-3.3058
 11
-20.6503
 21
-3.43141
  0
LINE
  8
0
 10
-20.6503
 20
-3.43141
 11
-20.6582
 21
-3.55678
  0
LINE
  8
0
 10
-20.6582
 20
-3.55678
 11
-20.6766
 21
-3.68106
  0
LINE
  8
0
 10
-20.6766
 20
-3.68106
 11
-20.7053
 21
-3.80338
  0
LINE
  8
0
 10
-20.7053
 20
-3.80338
 11
-20.7441
 21
-3.92285
  0
LINE
  8
0
 10
-20.7441
 20
-3.92285
 11
-20.7928
 21
-4.03867
  0
LINE
  8
0
 10
-20.7928
 20
-4.03867
 11
-20.851
 21
-4.15
  0
LINE
  8
0
 10
-20.851
 20
-4.15
 11
-20.9183
 21
-4.25606
  0
LINE
  8
0
 10
-20.9183
 20
-4.25606
 11
-20.9942
 21
-4.35613
  0
LINE
  8
0
 10
-20.9942
 20
-4.35613
 11
-21.0783
 21
-4.4495
  0
LINE
  8
0
 10
-21.0783
 20
-4.4495
 11
-21.1699
 21
-4.53549
  0
LINE
  8
0
 10
-21.1699
 20
-4.53549
 11
-21.2683
 21
-4.61353
  0
LINE
  8
0
 10
-21.2683
 20
-4.61353
 11
-21.373
 21
-4.68305
  0
LINE
  8
0
 10
-21.373
 20
-4.68305
 11
-21.483
 21
-4.74356
  0
LINE
  8
0
 10
-21.483
 20
-4.74356
 11
-21.5978
 21
-4.79467
  0
LINE
  8
0
 10
-21.5978
 20
-4.79467
 11
-21.7165
 21
-4.83597
  0
LINE
  8
0
 10
-21.7165
 20
-4.83597
 11
-21.8381
 21
-4.86722
  0
LINE
  8
0
 10
-21.8381
 20
-4.86722
 11
-21.962
 21
-4.88817
  0
LINE
  8
0
 10
-21.962
 20
-4.88817
 11
-22.0872
 21
-4.89868
  0
LINE
  8
0
 10
-22.0872
 20
-4.89868
 11
-27.15
 21
-4.9
  0
LINE
  8
0
 10
-27.15
 20
-4.9
 11
-27.2755
 21
-4.89473
  0
LINE
  8
0
 10
-27.2755
 20
-4.89473
 11
-27.4001
 21
-4.87899
  0
LINE
  8
0
 10
-27.4001
 20
-4.87899
 11
-27.523
 21
-4.85286
  0
LINE
  8
0
 10
-27.523
 20
-4.85286
 11
-27.6433
 21
-4.81656
  0
LINE
  8
0
 10
-27.6433
 20
-4.81656
 11
-27.7601
 21
-4.77031
  0
LINE
  8
0
 10
-27.7601
 20
-4.77031
 11
-27.8726
 21
-4.71445
  0
LINE
  8
0
 10
-27.8726
 20
-4.71445
 11
-27.9801
 21
-4.64937
  0
LINE
  8
0
 10
-27.9801
 20
-4.64937
 11
-28.0817
 21
-4.57553
  0
LINE
  8
0
 10
-28.0817
 20
-4.57553
 11
-28.1768
 21
-4.49344
  0
LINE
  8
0
 10
-28.1768
 20
-4.49344
 11
-28.2647
 21
-4.40369
  0
LINE
  8
0
 10
-28.2647
 20
-4.40369
 11
-28.3448
 21
-4.30689
  0
LINE
  8
0
 10
-28.3448
 20
-4.30689
 11
-28.4165
 21
-4.20374
  0
LINE
  8
0
 10
-28.4165
 20
-4.20374
 11
-28.4793
 21
-4.09494
  0
LINE
  8
0
 10
-28.4793
 20
-4.09494
 11
-28.5328
 21
-3.98127
  0
LINE
  8
0
 10
-28.5328
 20
-3.98127
 11
-28.5766
 21
-3.86353
  0
LINE
  8
0
 10
-28.5766
 20
-3.86353
 11
-28.6104
 21
-3.74253
  0
LINE
  8
0
 10
-28.6104
 20
-3.74253
 11
-28.6339
 21
-3.61911
  0
LINE
  8
0
 10
-28.6339
 20
-3.61911
 11
-28.647
 21
-3.49417
  0
LINE
  8
0
 10
-28.647
 20
-3.49417
 11
-28.6497
 21
-3.36858
  0
LINE
  8
0
 10
-28.6497
 20
-3.36858
 11
-28.6418
 21
-3.2432
  0
LINE
  8
0
 10
-28.6418
 20
-3.2432
 11
-28.6234
 21
-3.11893
  0
LINE
  8
0
 10
-28.6234
 20
-3.11893
 11
-28.5947
 21
-2.99662
  0
LINE
  8
0
 10
-28.5947
 20
-2.99662
 11
-28.5559
 21
-2.87714
  0
LINE
  8
0
 10
-28.5559
 20
-2.87714
 11
-28.5072
 21
-2.76133
  0
LINE
  8
0
 10
-28.5072
 20
-2.76133
 11
-28.449
 21
-2.65
  0
LINE
  8
0
 10
-28.449
 20
-2.65
 11
-28.3817
 21
-2.54392
  0
LINE
  8
0
 10
-28.3817
 20
-2.54392
 11
-28.3058
 21
-2.44387
  0
LINE
  8
0
 10
-28.3058
 20
-2.44387
 11
-28.2217
 21
-2.3505
  0
LINE
  8
0
 10
-28.2217
 20
-2.3505
 11
-28.1301
 21
-2.2645
  0
LINE
  8
0
 10
-28.1301
 20
-2.2645
 11
-28.0317
 21
-2.18647
  0
LINE
  8
0
 10
-28.0317
 20
-2.18647
 11
-27.927
 21
-2.11695
  0
LINE
  8
0
 10
-27.927
 20
-2.11695
 11
-27.8169
 21
-2.05643
  0
LINE
  8
0
 10
-27.8169
 20
-2.05643
 11
-27.7022
 21
-2.00533
  0
LINE
  8
0
 10
-27.7022
 20
-2.00533
 11
-27.5835
 21
-1.96402
  0
LINE
  8
0
 10
-27.5835
 20
-1.96402
 11
-27.4619
 21
-1.93277
  0
LINE
  8
0
 10
-27.4619
 20
-1.93277
 11
-27.338
 21
-1.91182
  0
LINE
  8
0
 10
-27.338
 20
-1.91182
 11
-27.2128
 21
-1.90131
  0
LINE
  8
0
 10
-27.2128
 20
-1.90131
 11
-25.875
 21
-1.9
  0
LINE
  8
0
 10
-25.875
 20
-1.9
 11
-25.875
 21
-3.05176e-06
  0
LINE
  8
0
 10
-25.875
 20
-3.05176e-06
 11
-32.15
 21
-3.05176e-06
  0
LINE
  8
0
 10
-32.15
 20
-3.05176e-06
 11
-32.15
 21
-5.45
  0
LINE
  8
0
 10
-32.15
 20
-5.45
 11
-32.1473
 21
-5.62119
  0
LINE
  8
0
 10
-32.1473
 20
-5.62119
 11
-32.1392
 21
-5.79219
  0
LINE
  8
0
 10
-32.1392
 20
-5.79219
 11
-32.1258
 21
-5.96288
  0
LINE
  8
0
 10
-32.1258
 20
-5.96288
 11
-32.107
 21
-6.13306
  0
LINE
  8
0
 10
-32.107
 20
-6.13306
 11
-32.0829
 21
-6.30255
  0
LINE
  8
0
 10
-32.0829
 20
-6.30255
 11
-32.0535
 21
-6.47122
  0
LINE
  8
0
 10
-32.0535
 20
-6.47122
 11
-32.0187
 21
-6.63887
  0
LINE
  8
0
 10
-32.0187
 20
-6.63887
 11
-31.9788
 21
-6.80535
  0
LINE
  8
0
 10
-31.9788
 20
-6.80535
 11
-31.9336
 21
-6.97049
  0
LINE
  8
0
 10
-31.9336
 20
-6.97049
 11
-31.8833
 21
-7.13413
  0
LINE
  8
0
 10
-31.8833
 20
-7.13413
 11
-31.8278
 21
-7.29612
  0
LINE
  8
0
 10
-31.8278
 20
-7.29612
 11
-31.7673
 21
-7.45627
  0
LINE
  8
0
 10
-31.7673
 20
-7.45627
 11
-31.7018
 21
-7.61444
  0
LINE
  8
0
 10
-31.7018
 20
-7.61444
 11
-31.6313
 21
-7.7705
  0
LINE
  8
0
 10
-31.6313
 20
-7.7705
 11
-31.556
 21
-7.92424
  0
LINE
  8
0
 10
-31.556
 20
-7.92424
 11
-31.4759
 21
-8.07555
  0
LINE
  8
0
 10
-31.4759
 20
-8.07555
 11
-31.391
 21
-8.22426
  0
LINE
  8
0
 10
-31.391
 20
-8.22426
 11
-31.3016
 21
-8.37024
  0
LINE
  8
0
 10
-31.3016
 20
-8.37024
 11
-31.2076
 21
-8.51334
  0
LINE
  8
0
 10
-31.2076
 20
-8.51334
 11
-31.1091
 21
-8.65341
  0
LINE
  8
0
 10
-31.1091
 20
-8.65341
 11
-31.0063
 21
-8.79033
  0
LINE
  8
0
 10
-31.0063
 20
-8.79033
 11
-30.8993
 21
-8.92395
  0
LINE
  8
0
 10
-30.8993
 20
-8.92395
 11
-30.7881
 21
-9.05414
  0
LINE
  8
0
 10
-30.7881
 20
-9.05414
 11
-30.6729
 21
-9.18077
  0
LINE
  8
0
 10
-30.6729
 20
-9.18077
 11
-30.5537
 21
-9.30373
  0
LINE
  8
0
 10
-30.5537
 20
-9.30373
 11
-30.4308
 21
-9.42287
  0
LINE
  8
0
 10
-30.4308
 20
-9.42287
 11
-30.3041
 21
-9.5381
  0
LINE
  8
0
 10
-30.3041
 20
-9.5381
 11
-30.174
 21
-9.6493
  0
LINE
  8
0
 10
-30.174
 20
-9.6493
 11
-30.0403
 21
-9.75634
  0
LINE
  8
0
 10
-30.0403
 20
-9.75634
 11
-29.9034
 21
-9.85913
  0
LINE
  8
0
 10
-29.9034
 20
-9.85913
 11
-29.7634
 21
-9.95758
  0
LINE
  8
0
 10
-29.7634
 20
-9.95758
 11
-29.6203
 21
-10.0516
  0
LINE
  8
0
 10
-29.6203
 20
-10.0516
 11
-29.4743
 21
-10.141
  0
LINE
  8
0
 10
-29.4743
 20
-10.141
 11
-29.3255
 21
-10.2259
  0
LINE
  8
0
 10
-29.3255
 20
-10.2259
 11
-29.1742
 21
-10.306
  0
LINE
  8
0
 10
-29.1742
 20
-10.306
 11
-29.0205
 21
-10.3813
  0
LINE
  8
0
 10
-29.0205
 20
-10.3813
 11
-28.8644
 21
-10.4518
  0
LINE
  8
0
 10
-28.8644
 20
-10.4518
 11
-28.7063
 21
-10.5173
  0
LINE
  8
0
 10
-28.7063
 20
-10.5173
 11
-28.5461
 21
-10.5778
  0
LINE
  8
0
 10
-28.5461
 20
-10.5778
 11
-28.3841
 21
-10.6332
  0
LINE
  8
0
 10
-28.3841
 20
-10.6332
 11
-28.2205
 21
-10.6836
  0
LINE
  8
0
 10
-28.2205
 20
-10.6836
 11
-28.0554
 21
-10.7288
  0
LINE
  8
0
 10
-28.0554
 20
-10.7288
 11
-27.8889
 21
-10.7687
  0
LINE
  8
0
 10
-27.8889
 20
-10.7687
 11
-27.7212
 21
-10.8035
  0
LINE
  8
0
 10
-27.7212
 20
-10.8035
 11
-27.5526
 21
-10.8329
  0
LINE
  8
0
 10
-27.5526
 20
-10.8329
 11
-27.3831
 21
-10.857
  0
LINE
  8
0
 10
-27.3831
 20
-10.857
 11
-27.2129
 21
-10.8758
  0
LINE
  8
0
 10
-27.2129
 20
-10.8758
 11
-27.0422
 21
-10.8892
  0
LINE
  8
0
 10
-27.0422
 20
-10.8892
 11
-26.8712
 21
-10.8973
  0
LINE
  8
0
 10
-26.8712
 20
-10.8973
 11
-26.7
 21
-10.9
  0
LINE
  8
0
 10
-26.7
 20
-10.9
 11
26.7
 21
-10.9
  0
LINE
  8
0
 10
26.7
 20
-10.9
 11
26.8712
 21
-10.8973
  0
LINE
  8
0
 10
-9.07848
 20
-7.39753
 11
-9.15666
 21
-7.39014
  0
LINE
  8
0
 10
-9.15666
 20
-7.39014
 11
-9.23422
 21
-7.37786
  0
LINE
  8
0
 10
-9.23422
 20
-7.37786
 11
-9.31085
 21
-7.36072
  0
LINE
  8
0
 10
-9.31085
 20
-7.36072
 11
-9.38626
 21
-7.33881
  0
LINE
  8
0
 10
-9.38626
 20
-7.33881
 11
-9.46014
 21
-7.31221
  0
LINE
  8
0
 10
-9.46014
 20
-7.31221
 11
-9.53221
 21
-7.28102
  0
LINE
  8
0
 10
-9.53221
 20
-7.28102
 11
-9.60219
 21
-7.24538
  0
LINE
  8
0
 10
-9.60219
 20
-7.24538
 11
-9.66977
 21
-7.2054
  0
LINE
  8
0
 10
-9.66977
 20
-7.2054
 11
-9.73473
 21
-7.16126
  0
LINE
  8
0
 10
-9.73473
 20
-7.16126
 11
-9.79677
 21
-7.11313
  0
LINE
  8
0
 10
-9.79677
 20
-7.11313
 11
-9.85568
 21
-7.06121
  0
LINE
  8
0
 10
-9.85568
 20
-7.06121
 11
-9.91121
 21
-7.00568
  0
LINE
  8
0
 10
-9.91121
 20
-7.00568
 11
-9.96313
 21
-6.94677
  0
LINE
  8
0
 10
-9.96313
 20
-6.94677
 11
-10.0113
 21
-6.88472
  0
LINE
  8
0
 10
-10.0113
 20
-6.88472
 11
-10.0554
 21
-6.81978
  0
LINE
  8
0
 10
-10.0554
 20
-6.81978
 11
-10.0954
 21
-6.75219
  0
LINE
  8
0
 10
-10.0954
 20
-6.75219
 11
-10.131
 21
-6.68222
  0
LINE
  8
0
 10
-10.131
 20
-6.68222
 11
-10.1622
 21
-6.61014
  0
LINE
  8
0
 10
-10.1622
 20
-6.61014
 11
-10.1888
 21
-6.53626
  0
LINE
  8
0
 10
-10.1888
 20
-6.53626
 11
-10.2107
 21
-6.46085
  0
LINE
  8
0
 10
-10.2107
 20
-6.46085
 11
-10.2278
 21
-6.38422
  0
LINE
  8
0
 10
-10.2278
 20
-6.38422
 11
-10.2401
 21
-6.30666
  0
LINE
  8
0
 10
-10.2401
 20
-6.30666
 11
-10.2475
 21
-6.22847
  0
LINE
  8
0
 10
-10.2475
 20
-6.22847
 11
-10.25
 21
-6.15
  0
LINE
  8
0
 10
-10.25
 20
-6.15
 11
-10.25
 21
-4.75
  0
LINE
  8
0
 10
-10.25
 20
-4.75
 11
-10.2475
 21
-4.67153
  0
LINE
  8
0
 10
-10.2475
 20
-4.67153
 11
-10.2401
 21
-4.59334
  0
LINE
  8
0
 10
-10.2401
 20
-4.59334
 11
-10.2278
 21
-4.51578
  0
LINE
  8
0
 10
-10.2278
 20
-4.51578
 11
-10.2107
 21
-4.43915
  0
LINE
  8
0
 10
-10.2107
 20
-4.43915
 11
-10.1888
 21
-4.36374
  0
LINE
  8
0
 10
-10.1888
 20
-4.36374
 11
-10.1622
 21
-4.28986
  0
LINE
  8
0
 10
-10.1622
 20
-4.28986
 11
-10.131
 21
-4.21778
  0
LINE
  8
0
 10
-10.131
 20
-4.21778
 11
-10.0954
 21
-4.14781
  0
LINE
  8
0
 10
-10.0954
 20
-4.14781
 11
-10.0554
 21
-4.08022
  0
LINE
  8
0
 10
-10.0554
 20
-4.08022
 11
-10.0113
 21
-4.01528
  0
LINE
  8
0
 10
-10.0113
 20
-4.01528
 11
-9.96313
 21
-3.95323
  0
LINE
  8
0
 10
-9.96313
 20
-3.95323
 11
-9.91121
 21
-3.89432
  0
LINE
  8
0
 10
-9.91121
 20
-3.89432
 11
-9.85568
 21
-3.83879
  0
LINE
  8
0
 10
-9.85568
 20
-3.83879
 11
-9.79677
 21
-3.78687
  0
LINE
  8
0
 10
-9.79677
 20
-3.78687
 11
-9.73473
 21
-3.73874
  0
LINE
  8
0
 10
-9.73473
 20
-3.73874
 11
-9.66977
 21
-3.6946
  0
LINE
  8
0
 10
-9.66977
 20
-3.6946
 11
-9.60219
 21
-3.65462
  0
LINE
  8
0
 10
-9.60219
 20
-3.65462
 11
-9.53221
 21
-3.61898
  0
LINE
  8
0
 10
-9.53221
 20
-3.61898
 11
-9.46014
 21
-3.58779
  0
LINE
  8
0
 10
-9.46014
 20
-3.58779
 11
-9.38626
 21
-3.56119
  0
LINE
  8
0
 10
-9.38626
 20
-3.56119
 11
-9.31085
 21
-3.53928
  0
LINE
  8
0
 10
-9.31085
 20
-3.53928
 11
-9.23422
 21
-3.52214
  0
LINE
  8
0
 10
-9.23422
 20
-3.52214
 11
-9.15666
 21
-3.50986
  0
LINE
  8
0
 10
-9.15666
 20
-3.50986
 11
-9.07848
 21
-3.50247
  0
LINE
  8
0
 10
-9.07848
 20
-3.50247
 11
-9
 21
-3.5
  0
LINE
  8
0
 10
-9
 20
-3.5
 11
-8.92151
 21
-3.50247
  0
LINE
  8
0
 10
-8.92151
 20
-3.50247
 11
-8.84332
 21
-3.50986
  0
LINE
  8
0
 10
-8.84332
 20
-3.50986
 11
-8.76576
 21
-3.52214
  0
LINE
  8
0
 10
-8.76576
 20
-3.52214
 11
-8.68913
 21
-3.53928
  0
LINE
  8
0
 10
-8.68913
 20
-3.53928
 11
-8.61372
 21
-3.56119
  0
LINE
  8
0
 10
-8.61372
 20
-3.56119
 11
-8.53984
 21
-3.58779
  0
LINE
  8
0
 10
-8.53984
 20
-3.58779
 11
-8.46777
 21
-3.61898
  0
LINE
  8
0
 10
-8.46777
 20
-3.61898
 11
-8.3978
 21
-3.65462
  0
LINE
  8
0
 10
-8.3978
 20
-3.65462
 11
-8.33022
 21
-3.6946
  0
LINE
  8
0
 10
-8.33022
 20
-3.6946
 11
-8.26526
 21
-3.73874
  0
LINE
  8
0
 10
-8.26526
 20
-3.73874
 11
-8.20322
 21
-3.78687
  0
LINE
  8
0
 10
-8.20322
 20
-3.78687
 11
-8.1443
 21
-3.83879
  0
LINE
  8
0
 10
-8.1443
 20
-3.83879
 11
-8.08878
 21
-3.89432
  0
LINE
  8
0
 10
-8.08878
 20
-3.89432
 11
-8.03685
 21
-3.95323
  0
LINE
  8
0
 10
-8.03685
 20
-3.95323
 11
-7.98872
 21
-4.01528
  0
LINE
  8
0
 10
-7.98872
 20
-4.01528
 11
-7.94458
 21
-4.08022
  0
LINE
  8
0
 10
-7.94458
 20
-4.08022
 11
-7.9046
 21
-4.14781
  0
LINE
  8
0
 10
-7.9046
 20
-4.14781
 11
-7.86896
 21
-4.21778
  0
LINE
  8
0
 10
-7.86896
 20
-4.21778
 11
-7.83777
 21
-4.28986
  0
LINE
  8
0
 10
-7.83777
 20
-4.28986
 11
-7.81117
 21
-4.36374
  0
LINE
  8
0
 10
-7.81117
 20
-4.36374
 11
-7.78926
 21
-4.43915
  0
LINE
  8
0
 10
-7.78926
 20
-4.43915
 11
-7.77214
 21
-4.51578
  0
LINE
  8
0
 10
-7.77214
 20
-4.51578
 11
-7.75984
 21
-4.59334
  0
LINE
  8
0
 10
-7.75984
 20
-4.59334
 11
-7.75246
 21
-4.67153
  0
LINE
  8
0
 10
-7.75246
 20
-4.67153
 11
-7.75
 21
-4.75
  0
LINE
  8
0
 10
-7.75
 20
-4.75
 11
-7.75
 21
-6.15
  0
LINE
  8
0
 10
-7.75
 20
-6.15
 11
-7.75246
 21
-6.22847
  0
LINE
  8
0
 10
-7.75246
 20
-6.22847
 11
-7.75984
 21
-6.30666
  0
LINE
  8
0
 10
-7.75984
 20
-6.30666
 11
-7.77214
 21
-6.38422
  0
LINE
  8
0
 10
-7.77214
 20
-6.38422
 11
-7.78926
 21
-6.46085
  0
LINE
  8
0
 10
-7.78926
 20
-6.46085
 11
-7.81117
 21
-6.53626
  0
LINE
  8
0
 10
-7.81117
 20
-6.53626
 11
-7.83777
 21
-6.61014
  0
LINE
  8
0
 10
-7.83777
 20
-6.61014
 11
-7.86896
 21
-6.68222
  0
LINE
  8
0
 10
-7.86896
 20
-6.68222
 11
-7.9046
 21
-6.75219
  0
LINE
  8
0
 10
-7.9046
 20
-6.75219
 11
-7.94458
 21
-6.81978
  0
LINE
  8
0
 10
-7.94458
 20
-6.81978
 11
-7.98872
 21
-6.88472
  0
LINE
  8
0
 10
-7.98872
 20
-6.88472
 11
-8.03685
 21
-6.94677
  0
LINE
  8
0
 10
-8.03685
 20
-6.94677
 11
-8.08878
 21
-7.00568
  0
LINE
  8
0
 10
-8.08878
 20
-7.00568
 11
-8.1443
 21
-7.06121
  0
LINE
  8
0
 10
-8.1443
 20
-7.06121
 11
-8.20322
 21
-7.11313
  0
LINE
  8
0
 10
-8.20322
 20
-7.11313
 11
-8.26526
 21
-7.16126
  0
LINE
  8
0
 10
-8.26526
 20
-7.16126
 11
-8.33022
 21
-7.2054
  0
LINE
  8
0
 10
-8.33022
 20
-7.2054
 11
-8.3978
 21
-7.24538
  0
LINE
  8
0
 10
-8.3978
 20
-7.24538
 11
-8.46777
 21
-7.28102
  0
LINE
  8
0
 10
-8.46777
 20
-7.28102
 11
-8.53984
 21
-7.31221
  0
LINE
  8
0
 10
-8.53984
 20
-7.31221
 11
-8.61372
 21
-7.33881
  0
LINE
  8
0
 10
-8.61372
 20
-7.33881
 11
-8.68913
 21
-7.36072
  0
LINE
  8
0
 10
-8.68913
 20
-7.36072
 11
-8.76576
 21
-7.37786
  0
LINE
  8
0
 10
-8.76576
 20
-7.37786
 11
-8.84332
 21
-7.39014
  0
LINE
  8
0
 10
-8.84332
 20
-7.39014
 11
-8.92151
 21
-7.39753
  0
LINE
  8
0
 10
-8.92151
 20
-7.39753
 11
-9
 21
-7.4
  0
LINE
  8
0
 10
-9
 20
-7.4
 11
-9.07848
 21
-7.39753
  0
LINE
  8
0
 10
8.92151
 20
-7.39753
 11
8.84332
 21
-7.39014
  0
LINE
  8
0
 10
8.84332
 20
-7.39014
 11
8.76576
 21
-7.37786
  0
LINE
  8
0
 10
8.76576
 20
-7.37786
 11
8.68913
 21
-7.36072
  0
LINE
  8
0
 10
8.68913
 20
-7.36072
 11
8.61372
 21
-7.33881
  0
LINE
  8
0
 10
8.61372
 20
-7.33881
 11
8.53984
 21
-7.31221
  0
LINE
  8
0
 10
8.53984
 20
-7.31221
 11
8.46777
 21
-7.28102
  0
LINE
  8
0
 10
8.46777
 20
-7.28102
 11
8.3978
 21
-7.24538
  0
LINE
  8
0
 10
8.3978
 20
-7.24538
 11
8.33022
 21
-7.2054
  0
LINE
  8
0
 10
8.33022
 20
-7.2054
 11
8.26526
 21
-7.16126
  0
LINE
  8
0
 10
8.26526
 20
-7.16126
 11
8.20322
 21
-7.11313
  0
LINE
  8
0
 10
8.20322
 20
-7.11313
 11
8.1443
 21
-7.06121
  0
LINE
  8
0
 10
8.1443
 20
-7.06121
 11
8.08878
 21
-7.00568
  0
LINE
  8
0
 10
8.08878
 20
-7.00568
 11
8.03685
 21
-6.94677
  0
LINE
  8
0
 10
8.03685
 20
-6.94677
 11
7.98872
 21
-6.88472
  0
LINE
  8
0
 10
7.98872
 20
-6.88472
 11
7.94458
 21
-6.81978
  0
LINE
  8
0
 10
7.94458
 20
-6.81978
 11
7.9046
 21
-6.75219
  0
LINE
  8
0
 10
7.9046
 20
-6.75219
 11
7.86896
 21
-6.68222
  0
LINE
  8
0
 10
7.86896
 20
-6.68222
 11
7.83777
 21
-6.61014
  0
LINE
  8
0
 10
7.83777
 20
-6.61014
 11
7.81117
 21
-6.53626
  0
LINE
  8
0
 10
7.81117
 20
-6.53626
 11
7.78926
 21
-6.46085
  0
LINE
  8
0
 10
7.78926
 20
-6.46085
 11
7.77214
 21
-6.38422
  0
LINE
  8
0
 10
7.77214
 20
-6.38422
 11
7.75984
 21
-6.30666
  0
LINE
  8
0
 10
7.75984
 20
-6.30666
 11
7.75246
 21
-6.22847
  0
LINE
  8
0
 10
7.75246
 20
-6.22847
 11
7.75
 21
-6.15
  0
LINE
  8
0
 10
7.75
 20
-6.15
 11
7.75
 21
-4.75
  0
LINE
  8
0
 10
7.75
 20
-4.75
 11
7.75246
 21
-4.67153
  0
LINE
  8
0
 10
7.75246
 20
-4.67153
 11
7.75984
 21
-4.59334
  0
LINE
  8
0
 10
7.75984
 20
-4.59334
 11
7.77214
 21
-4.51578
  0
LINE
  8
0
 10
7.77214
 20
-4.51578
 11
7.78926
 21
-4.43915
  0
LINE
  8
0
 10
7.78926
 20
-4.43915
 11
7.81117
 21
-4.36374
  0
LINE
  8
0
 10
7.81117
 20
-4.36374
 11
7.83777
 21
-4.28986
  0
LINE
  8
0
 10
7.83777
 20
-4.28986
 11
7.86896
 21
-4.21778
  0
LINE
  8
0
 10
7.86896
 20
-4.21778
 11
7.9046
 21
-4.14781
  0
LINE
  8
0
 10
7.9046
 20
-4.14781
 11
7.94458
 21
-4.08022
  0
LINE
  8
0
 10
7.94458
 20
-4.08022
 11
7.98872
 21
-4.01528
  0
LINE
  8
0
 10
7.98872
 20
-4.01528
 11
8.03685
 21
-3.95323
  0
LINE
  8
0
 10
8.03685
 20
-3.95323
 11
8.08878
 21
-3.89432
  0
LINE
  8
0
 10
8.08878
 20
-3.89432
 11
8.1443
 21
-3.83879
  0
LINE
  8
0
 10
8.1443
 20
-3.83879
 11
8.20322
 21
-3.78687
  0
LINE
  8
0
 10
8.20322
 20
-3.78687
 11
8.26526
 21
-3.73874
  0
LINE
  8
0
 10
8.26526
 20
-3.73874
 11
8.33022
 21
-3.6946
  0
LINE
  8
0
 10
8.33022
 20
-3.6946
 11
8.3978
 21
-3.65462
  0
LINE
  8
0
 10
8.3978
 20
-3.65462
 11
8.46777
 21
-3.61898
  0
LINE
  8
0
 10
8.46777
 20
-3.61898
 11
8.53984
 21
-3.58779
  0
LINE
  8
0
 10
8.53984
 20
-3.58779
 11
8.61372
 21
-3.56119
  0
LINE
  8
0
 10
8.61372
 20
-3.56119
 11
8.68913
 21
-3.53928
  0
LINE
  8
0
 10
8.68913
 20
-3.53928
 11
8.76576
 21
-3.52214
  0
LINE
  8
0
 10
8.76576
 20
-3.52214
 11
8.84332
 21
-3.50986
  0
LINE
  8
0
 10
8.84332
 20
-3.50986
 11
8.92151
 21
-3.50247
  0
LINE
  8
0
 10
8.92151
 20
-3.50247
 11
9
 21
-3.5
  0
LINE
  8
0
 10
9
 20
-3.5
 11
9.07848
 21
-3.50247
  0
LINE
  8
0
 10
9.07848
 20
-3.50247
 11
9.15666
 21
-3.50986
  0
LINE
  8
0
 10
9.15666
 20
-3.50986
 11
9.23422
 21
-3.52214
  0
LINE
  8
0
 10
9.23422
 20
-3.52214
 11
9.31085
 21
-3.53928
  0
LINE
  8
0
 10
9.31085
 20
-3.53928
 11
9.38626
 21
-3.56119
  0
LINE
  8
0
 10
9.38626
 20
-3.56119
 11
9.46014
 21
-3.58779
  0
LINE
  8
0
 10
9.46014
 20
-3.58779
 11
9.53221
 21
-3.61898
  0
LINE
  8
0
 10
9.53221
 20
-3.61898
 11
9.60219
 21
-3.65462
  0
LINE
  8
0
 10
9.60219
 20
-3.65462
 11
9.66977
 21
-3.6946
  0
LINE
  8
0
 10
9.66977
 20
-3.6946
 11
9.73473
 21
-3.73874
  0
LINE
  8
0
 10
9.73473
 20
-3.73874
 11
9.79677
 21
-3.78687
  0
LINE
  8
0
 10
9.79677
 20
-3.78687
 11
9.85568
 21
-3.83879
  0
LINE
  8
0
 10
9.85568
 20
-3.83879
 11
9.91121
 21
-3.89432
  0
LINE
  8
0
 10
9.91121
 20
-3.89432
 11
9.96313
 21
-3.95323
  0
LINE
  8
0
 10
9.96313
 20
-3.95323
 11
10.0113
 21
-4.01528
  0
LINE
  8
0
 10
10.0113
 20
-4.01528
 11
10.0554
 21
-4.08022
  0
LINE
  8
0
 10
10.0554
 20
-4.08022
 11
10.0954
 21
-4.14781
  0
LINE
  8
0
 10
10.0954
 20
-4.14781
 11
10.131
 21
-4.21778
  0
LINE
  8
0
 10
10.131
 20
-4.21778
 11
10.1622
 21
-4.28986
  0
LINE
  8
0
 10
10.1622
 20
-4.28986
 11
10.1888
 21
-4.36374
  0
LINE
  8
0
 10
10.1888
 20
-4.36374
 11
10.2107
 21
-4.43915
  0
LINE
  8
0
 10
10.2107
 20
-4.43915
 11
10.2278
 21
-4.51578
  0
LINE
  8
0
 10
10.2278
 20
-4.51578
 11
10.2401
 21
-4.59334
  0
LINE
  8
0
 10
10.2401
 20
-4.59334
 11
10.2475
 21
-4.67153
  0
LINE
  8
0
 10
10.2475
 20
-4.67153
 11
10.25
 21
-4.75
  0
LINE
  8
0
 10
10.25
 20
-4.75
 11
10.25
 21
-6.15
  0
LINE
  8
0
 10
10.25
 20
-6.15
 11
10.2475
 21
-6.22847
  0
LINE
  8
0
 10
10.2475
 20
-6.22847
 11
10.2401
 21
-6.30666
  0
LINE
  8
0
 10
10.2401
 20
-6.30666
 11
10.2278
 21
-6.38422
  0
LINE
  8
0
 10
10.2278
 20
-6.38422
 11
10.2107
 21
-6.46085
  0
LINE
  8
0
 10
10.2107
 20
-6.46085
 11
10.1888
 21
-6.53626
  0
LINE
  8
0
 10
10.1888
 20
-6.53626
 11
10.1622
 21
-6.61014
  0
LINE
  8
0
 10
10.1622
 20
-6.61014
 11
10.131
 21
-6.68222
  0
LINE
  8
0
 10
10.131
 20
-6.68222
 11
10.0954
 21
-6.75219
  0
LINE
  8
0
 10
10.0954
 20
-6.75219
 11
10.0554
 21
-6.81978
  0
LINE
  8
0
 10
10.0554
 20
-6.81978
 11
10.0113
 21
-6.88472
  0
LINE
  8
0
 10
10.0113
 20
-6.88472
 11
9.96313
 21
-6.94677
  0
LINE
  8
0
 10
9.96313
 20
-6.94677
 11
9.91121
 21
-7.00568
  0
LINE
  8
0
 10
9.91121
 20
-7.00568
 11
9.85568
 21
-7.06121
  0
LINE
  8
0
 10
9.85568
 20
-7.06121
 11
9.79677
 21
-7.11313
  0
LINE
  8
0
 10
9.79677
 20
-7.11313
 11
9.73473
 21
-7.16126
  0
LINE
  8
0
 10
9.73473
 20
-7.16126
 11
9.66977
 21
-7.2054
  0
LINE
  8
0
 10
9.66977
 20
-7.2054
 11
9.60219
 21
-7.24538
  0
LINE
  8
0
 10
9.60219
 20
-7.24538
 11
9.53221
 21
-7.28102
  0
LINE
  8
0
 10
9.53221
 20
-7.28102
 11
9.46014
 21
-7.31221
  0
LINE
  8
0
 10
9.46014
 20
-7.31221
 11
9.38626
 21
-7.33881
  0
LINE
  8
0
 10
9.38626
 20
-7.33881
 11
9.31085
 21
-7.36072
  0
LINE
  8
0
 10
9.31085
 20
-7.36072
 11
9.23422
 21
-7.37786
  0
LINE
  8
0
 10
9.23422
 20
-7.37786
 11
9.15666
 21
-7.39014
  0
LINE
  8
0
 10
9.15666
 20
-7.39014
 11
9.07848
 21
-7.39753
  0
LINE
  8
0
 10
9.07848
 20
-7.39753
 11
9
 21
-7.4
  0
LINE
  8
0
 10
9
 20
-7.4
 11
8.92151
 21
-7.39753
  0
ENDSEC
  0
SECTION
  2
OBJECTS
  0
DICTIONARY
  0
ENDSEC
  0
EOF
