  0
SECTION
  2
BLOCKS
  0
ENDSEC
  0
SECTION
  2
ENTITIES
  0
LINE
  8
0
 10
27.1276
 20
-10.8832
 11
27.5526
 21
-10.8329
  0
LINE
  8
0
 10
27.5526
 20
-10.8329
 11
27.9723
 21
-10.7494
  0
LINE
  8
0
 10
27.9723
 20
-10.7494
 11
28.3841
 21
-10.6332
  0
LINE
  8
0
 10
28.3841
 20
-10.6332
 11
28.7856
 21
-10.4851
  0
LINE
  8
0
 10
28.7856
 20
-10.4851
 11
29.1742
 21
-10.306
  0
LINE
  8
0
 10
29.1742
 20
-10.306
 11
29.5476
 21
-10.0969
  0
LINE
  8
0
 10
29.5476
 20
-10.0969
 11
29.9034
 21
-9.85913
  0
LINE
  8
0
 10
29.9034
 20
-9.85913
 11
30.2395
 21
-9.59421
  0
LINE
  8
0
 10
30.2395
 20
-9.59421
 11
30.5537
 21
-9.30373
  0
LINE
  8
0
 10
30.5537
 20
-9.30373
 11
30.8442
 21
-8.98949
  0
LINE
  8
0
 10
30.8442
 20
-8.98949
 11
31.1091
 21
-8.65341
  0
LINE
  8
0
 10
31.1091
 20
-8.65341
 11
31.3469
 21
-8.29761
  0
LINE
  8
0
 10
31.3469
 20
-8.29761
 11
31.556
 21
-7.92424
  0
LINE
  8
0
 10
31.556
 20
-7.92424
 11
31.7351
 21
-7.53562
  0
LINE
  8
0
 10
31.7351
 20
-7.53562
 11
31.8833
 21
-7.13413
  0
LINE
  8
0
 10
31.8833
 20
-7.13413
 11
31.9994
 21
-6.72226
  0
LINE
  8
0
 10
31.9994
 20
-6.72226
 11
32.0829
 21
-6.30255
  0
LINE
  8
0
 10
32.0829
 20
-6.30255
 11
32.1332
 21
-5.8776
  0
LINE
  8
0
 10
32.1332
 20
-5.8776
 11
32.15
 21
-5.45
  0
LINE
  8
0
 10
32.15
 20
-5.45
 11
32.15
 21
-3.05176e-06
  0
LINE
  8
0
 10
32.15
 20
-3.05176e-06
 11
25.875
 21
-3.05176e-06
  0
LINE
  8
0
 10
25.875
 20
-3.05176e-06
 11
25.875
 21
-1.9
  0
LINE
  8
0
 10
25.875
 20
-1.9
 11
27.15
 21
-1.9
  0
LINE
  8
0
 10
27.15
 20
-1.9
 11
27.2677
 21
-1.90462
  0
LINE
  8
0
 10
27.2677
 20
-1.90462
 11
27.3846
 21
-1.91846
  0
LINE
  8
0
 10
27.3846
 20
-1.91846
 11
27.5002
 21
-1.94144
  0
LINE
  8
0
 10
27.5002
 20
-1.94144
 11
27.6135
 21
-1.97341
  0
LINE
  8
0
 10
27.6135
 20
-1.97341
 11
27.724
 21
-2.01418
  0
LINE
  8
0
 10
27.724
 20
-2.01418
 11
27.831
 21
-2.06348
  0
LINE
  8
0
 10
27.831
 20
-2.06348
 11
27.9337
 21
-2.12104
  0
LINE
  8
0
 10
27.9337
 20
-2.12104
 11
28.0317
 21
-2.18647
  0
LINE
  8
0
 10
28.0317
 20
-2.18647
 11
28.1242
 21
-2.25939
  0
LINE
  8
0
 10
28.1242
 20
-2.25939
 11
28.2106
 21
-2.33933
  0
LINE
  8
0
 10
28.2106
 20
-2.33933
 11
28.2906
 21
-2.42583
  0
LINE
  8
0
 10
28.2906
 20
-2.42583
 11
28.3635
 21
-2.51831
  0
LINE
  8
0
 10
28.3635
 20
-2.51831
 11
28.4289
 21
-2.61624
  0
LINE
  8
0
 10
28.4289
 20
-2.61624
 11
28.4865
 21
-2.71901
  0
LINE
  8
0
 10
28.4865
 20
-2.71901
 11
28.5358
 21
-2.82598
  0
LINE
  8
0
 10
28.5358
 20
-2.82598
 11
28.5766
 21
-2.93647
  0
LINE
  8
0
 10
28.5766
 20
-2.93647
 11
28.6085
 21
-3.04982
  0
LINE
  8
0
 10
28.6085
 20
-3.04982
 11
28.6315
 21
-3.16535
  0
LINE
  8
0
 10
28.6315
 20
-3.16535
 11
28.6454
 21
-3.28231
  0
LINE
  8
0
 10
28.6454
 20
-3.28231
 11
28.65
 21
-3.4
  0
LINE
  8
0
 10
28.65
 20
-3.4
 11
28.6454
 21
-3.51769
  0
LINE
  8
0
 10
28.6454
 20
-3.51769
 11
28.6315
 21
-3.63465
  0
LINE
  8
0
 10
28.6315
 20
-3.63465
 11
28.6085
 21
-3.75017
  0
LINE
  8
0
 10
28.6085
 20
-3.75017
 11
28.5766
 21
-3.86353
  0
LINE
  8
0
 10
28.5766
 20
-3.86353
 11
28.5358
 21
-3.97402
  0
LINE
  8
0
 10
28.5358
 20
-3.97402
 11
28.4865
 21
-4.08098
  0
LINE
  8
0
 10
28.4865
 20
-4.08098
 11
28.4289
 21
-4.18375
  0
LINE
  8
0
 10
28.4289
 20
-4.18375
 11
28.3635
 21
-4.28168
  0
LINE
  8
0
 10
28.3635
 20
-4.28168
 11
28.2906
 21
-4.37416
  0
LINE
  8
0
 10
28.2906
 20
-4.37416
 11
28.2106
 21
-4.46065
  0
LINE
  8
0
 10
28.2106
 20
-4.46065
 11
28.1242
 21
-4.54061
  0
LINE
  8
0
 10
28.1242
 20
-4.54061
 11
28.0317
 21
-4.61353
  0
LINE
  8
0
 10
28.0317
 20
-4.61353
 11
27.9337
 21
-4.67896
  0
LINE
  8
0
 10
27.9337
 20
-4.67896
 11
27.831
 21
-4.7365
  0
LINE
  8
0
 10
27.831
 20
-4.7365
 11
27.724
 21
-4.78582
  0
LINE
  8
0
 10
27.724
 20
-4.78582
 11
27.6135
 21
-4.82659
  0
LINE
  8
0
 10
27.6135
 20
-4.82659
 11
27.5002
 21
-4.85855
  0
LINE
  8
0
 10
27.5002
 20
-4.85855
 11
27.3846
 21
-4.88153
  0
LINE
  8
0
 10
27.3846
 20
-4.88153
 11
27.2677
 21
-4.89537
  0
LINE
  8
0
 10
27.2677
 20
-4.89537
 11
27.15
 21
-4.9
  0
LINE
  8
0
 10
27.15
 20
-4.9
 11
22.15
 21
-4.9
  0
LINE
  8
0
 10
22.15
 20
-4.9
 11
22.0323
 21
-4.89537
  0
LINE
  8
0
 10
22.0323
 20
-4.89537
 11
21.9153
 21
-4.88153
  0
LINE
  8
0
 10
21.9153
 20
-4.88153
 11
21.7998
 21
-4.85855
  0
LINE
  8
0
 10
21.7998
 20
-4.85855
 11
21.6865
 21
-4.82659
  0
LINE
  8
0
 10
21.6865
 20
-4.82659
 11
21.576
 21
-4.78582
  0
LINE
  8
0
 10
21.576
 20
-4.78582
 11
21.469
 21
-4.7365
  0
LINE
  8
0
 10
21.469
 20
-4.7365
 11
21.3663
 21
-4.67896
  0
LINE
  8
0
 10
21.3663
 20
-4.67896
 11
21.2683
 21
-4.61353
  0
LINE
  8
0
 10
21.2683
 20
-4.61353
 11
21.1758
 21
-4.54061
  0
LINE
  8
0
 10
21.1758
 20
-4.54061
 11
21.0893
 21
-4.46065
  0
LINE
  8
0
 10
21.0893
 20
-4.46065
 11
21.0094
 21
-4.37416
  0
LINE
  8
0
 10
21.0094
 20
-4.37416
 11
20.9365
 21
-4.28168
  0
LINE
  8
0
 10
20.9365
 20
-4.28168
 11
20.871
 21
-4.18375
  0
LINE
  8
0
 10
20.871
 20
-4.18375
 11
20.8135
 21
-4.08098
  0
LINE
  8
0
 10
20.8135
 20
-4.08098
 11
20.7642
 21
-3.97402
  0
LINE
  8
0
 10
20.7642
 20
-3.97402
 11
20.7234
 21
-3.86353
  0
LINE
  8
0
 10
20.7234
 20
-3.86353
 11
20.6915
 21
-3.75017
  0
LINE
  8
0
 10
20.6915
 20
-3.75017
 11
20.6685
 21
-3.63465
  0
LINE
  8
0
 10
20.6685
 20
-3.63465
 11
20.6546
 21
-3.51769
  0
LINE
  8
0
 10
20.6546
 20
-3.51769
 11
20.65
 21
-3.4
  0
LINE
  8
0
 10
20.65
 20
-3.4
 11
20.6546
 21
-3.28231
  0
LINE
  8
0
 10
20.6546
 20
-3.28231
 11
20.6685
 21
-3.16535
  0
LINE
  8
0
 10
20.6685
 20
-3.16535
 11
20.6915
 21
-3.04982
  0
LINE
  8
0
 10
20.6915
 20
-3.04982
 11
20.7234
 21
-2.93647
  0
LINE
  8
0
 10
20.7234
 20
-2.93647
 11
20.7642
 21
-2.82598
  0
LINE
  8
0
 10
20.7642
 20
-2.82598
 11
20.8135
 21
-2.71901
  0
LINE
  8
0
 10
20.8135
 20
-2.71901
 11
20.871
 21
-2.61624
  0
LINE
  8
0
 10
20.871
 20
-2.61624
 11
20.9365
 21
-2.51831
  0
LINE
  8
0
 10
20.9365
 20
-2.51831
 11
21.0094
 21
-2.42583
  0
LINE
  8
0
 10
21.0094
 20
-2.42583
 11
21.0893
 21
-2.33933
  0
LINE
  8
0
 10
21.0893
 20
-2.33933
 11
21.1758
 21
-2.25939
  0
LINE
  8
0
 10
21.1758
 20
-2.25939
 11
21.2683
 21
-2.18647
  0
LINE
  8
0
 10
21.2683
 20
-2.18647
 11
21.3663
 21
-2.12104
  0
LINE
  8
0
 10
21.3663
 20
-2.12104
 11
21.469
 21
-2.06348
  0
LINE
  8
0
 10
21.469
 20
-2.06348
 11
21.576
 21
-2.01418
  0
LINE
  8
0
 10
21.576
 20
-2.01418
 11
21.6865
 21
-1.97341
  0
LINE
  8
0
 10
21.6865
 20
-1.97341
 11
21.7998
 21
-1.94144
  0
LINE
  8
0
 10
21.7998
 20
-1.94144
 11
21.9153
 21
-1.91846
  0
LINE
  8
0
 10
21.9153
 20
-1.91846
 11
22.0323
 21
-1.90462
  0
LINE
  8
0
 10
22.0323
 20
-1.90462
 11
22.15
 21
-1.9
  0
LINE
  8
0
 10
22.15
 20
-1.9
 11
23.425
 21
-1.9
  0
LINE
  8
0
 10
23.425
 20
-1.9
 11
23.425
 21
-3.05176e-06
  0
LINE
  8
0
 10
23.425
 20
-3.05176e-06
 11
16
 21
-3.05176e-06
  0
LINE
  8
0
 10
16
 20
-3.05176e-06
 11
16
 21
3
  0
LINE
  8
0
 10
16
 20
3
 11
-16
 21
3
  0
LINE
  8
0
 10
-16
 20
3
 11
-16
 21
-3.05176e-06
  0
LINE
  8
0
 10
-16
 20
-3.05176e-06
 11
-23.425
 21
-3.05176e-06
  0
LINE
  8
0
 10
-23.425
 20
-3.05176e-06
 11
-23.425
 21
-1.9
  0
LINE
  8
0
 10
-23.425
 20
-1.9
 11
-22.15
 21
-1.9
  0
LINE
  8
0
 10
-22.15
 20
-1.9
 11
-22.0323
 21
-1.90462
  0
LINE
  8
0
 10
-22.0323
 20
-1.90462
 11
-21.9153
 21
-1.91846
  0
LINE
  8
0
 10
-21.9153
 20
-1.91846
 11
-21.7998
 21
-1.94144
  0
LINE
  8
0
 10
-21.7998
 20
-1.94144
 11
-21.6865
 21
-1.97341
  0
LINE
  8
0
 10
-21.6865
 20
-1.97341
 11
-21.576
 21
-2.01418
  0
LINE
  8
0
 10
-21.576
 20
-2.01418
 11
-21.469
 21
-2.06348
  0
LINE
  8
0
 10
-21.469
 20
-2.06348
 11
-21.3663
 21
-2.12104
  0
LINE
  8
0
 10
-21.3663
 20
-2.12104
 11
-21.2683
 21
-2.18647
  0
LINE
  8
0
 10
-21.2683
 20
-2.18647
 11
-21.1758
 21
-2.25939
  0
LINE
  8
0
 10
-21.1758
 20
-2.25939
 11
-21.0893
 21
-2.33933
  0
LINE
  8
0
 10
-21.0893
 20
-2.33933
 11
-21.0094
 21
-2.42583
  0
LINE
  8
0
 10
-21.0094
 20
-2.42583
 11
-20.9365
 21
-2.51831
  0
LINE
  8
0
 10
-20.9365
 20
-2.51831
 11
-20.871
 21
-2.61624
  0
LINE
  8
0
 10
-20.871
 20
-2.61624
 11
-20.8135
 21
-2.71901
  0
LINE
  8
0
 10
-20.8135
 20
-2.71901
 11
-20.7642
 21
-2.82598
  0
LINE
  8
0
 10
-20.7642
 20
-2.82598
 11
-20.7234
 21
-2.93647
  0
LINE
  8
0
 10
-20.7234
 20
-2.93647
 11
-20.6915
 21
-3.04982
  0
LINE
  8
0
 10
-20.6915
 20
-3.04982
 11
-20.6685
 21
-3.16535
  0
LINE
  8
0
 10
-20.6685
 20
-3.16535
 11
-20.6546
 21
-3.28231
  0
LINE
  8
0
 10
-20.6546
 20
-3.28231
 11
-20.65
 21
-3.4
  0
LINE
  8
0
 10
-20.65
 20
-3.4
 11
-20.6546
 21
-3.51769
  0
LINE
  8
0
 10
-20.6546
 20
-3.51769
 11
-20.6685
 21
-3.63465
  0
LINE
  8
0
 10
-20.6685
 20
-3.63465
 11
-20.6915
 21
-3.75017
  0
LINE
  8
0
 10
-20.6915
 20
-3.75017
 11
-20.7234
 21
-3.86353
  0
LINE
  8
0
 10
-20.7234
 20
-3.86353
 11
-20.7642
 21
-3.97402
  0
LINE
  8
0
 10
-20.7642
 20
-3.97402
 11
-20.8135
 21
-4.08098
  0
LINE
  8
0
 10
-20.8135
 20
-4.08098
 11
-20.871
 21
-4.18375
  0
LINE
  8
0
 10
-20.871
 20
-4.18375
 11
-20.9365
 21
-4.28168
  0
LINE
  8
0
 10
-20.9365
 20
-4.28168
 11
-21.0094
 21
-4.37416
  0
LINE
  8
0
 10
-21.0094
 20
-4.37416
 11
-21.0893
 21
-4.46065
  0
LINE
  8
0
 10
-21.0893
 20
-4.46065
 11
-21.1758
 21
-4.54061
  0
LINE
  8
0
 10
-21.1758
 20
-4.54061
 11
-21.2683
 21
-4.61353
  0
LINE
  8
0
 10
-21.2683
 20
-4.61353
 11
-21.3663
 21
-4.67896
  0
LINE
  8
0
 10
-21.3663
 20
-4.67896
 11
-21.469
 21
-4.7365
  0
LINE
  8
0
 10
-21.469
 20
-4.7365
 11
-21.576
 21
-4.78582
  0
LINE
  8
0
 10
-21.576
 20
-4.78582
 11
-21.6865
 21
-4.82659
  0
LINE
  8
0
 10
-21.6865
 20
-4.82659
 11
-21.7998
 21
-4.85855
  0
LINE
  8
0
 10
-21.7998
 20
-4.85855
 11
-21.9153
 21
-4.88153
  0
LINE
  8
0
 10
-21.9153
 20
-4.88153
 11
-22.0323
 21
-4.89537
  0
LINE
  8
0
 10
-22.0323
 20
-4.89537
 11
-22.15
 21
-4.9
  0
LINE
  8
0
 10
-22.15
 20
-4.9
 11
-27.15
 21
-4.9
  0
LINE
  8
0
 10
-27.15
 20
-4.9
 11
-27.2677
 21
-4.89537
  0
LINE
  8
0
 10
-27.2677
 20
-4.89537
 11
-27.3846
 21
-4.88153
  0
LINE
  8
0
 10
-27.3846
 20
-4.88153
 11
-27.5002
 21
-4.85855
  0
LINE
  8
0
 10
-27.5002
 20
-4.85855
 11
-27.6135
 21
-4.82659
  0
LINE
  8
0
 10
-27.6135
 20
-4.82659
 11
-27.724
 21
-4.78582
  0
LINE
  8
0
 10
-27.724
 20
-4.78582
 11
-27.831
 21
-4.7365
  0
LINE
  8
0
 10
-27.831
 20
-4.7365
 11
-27.9337
 21
-4.67896
  0
LINE
  8
0
 10
-27.9337
 20
-4.67896
 11
-28.0317
 21
-4.61353
  0
LINE
  8
0
 10
-28.0317
 20
-4.61353
 11
-28.1242
 21
-4.54061
  0
LINE
  8
0
 10
-28.1242
 20
-4.54061
 11
-28.2106
 21
-4.46065
  0
LINE
  8
0
 10
-28.2106
 20
-4.46065
 11
-28.2906
 21
-4.37416
  0
LINE
  8
0
 10
-28.2906
 20
-4.37416
 11
-28.3635
 21
-4.28168
  0
LINE
  8
0
 10
-28.3635
 20
-4.28168
 11
-28.4289
 21
-4.18375
  0
LINE
  8
0
 10
-28.4289
 20
-4.18375
 11
-28.4865
 21
-4.08098
  0
LINE
  8
0
 10
-28.4865
 20
-4.08098
 11
-28.5358
 21
-3.97402
  0
LINE
  8
0
 10
-28.5358
 20
-3.97402
 11
-28.5766
 21
-3.86353
  0
LINE
  8
0
 10
-28.5766
 20
-3.86353
 11
-28.6085
 21
-3.75017
  0
LINE
  8
0
 10
-28.6085
 20
-3.75017
 11
-28.6315
 21
-3.63465
  0
LINE
  8
0
 10
-28.6315
 20
-3.63465
 11
-28.6454
 21
-3.51769
  0
LINE
  8
0
 10
-28.6454
 20
-3.51769
 11
-28.65
 21
-3.4
  0
LINE
  8
0
 10
-28.65
 20
-3.4
 11
-28.6454
 21
-3.28231
  0
LINE
  8
0
 10
-28.6454
 20
-3.28231
 11
-28.6315
 21
-3.16535
  0
LINE
  8
0
 10
-28.6315
 20
-3.16535
 11
-28.6085
 21
-3.04982
  0
LINE
  8
0
 10
-28.6085
 20
-3.04982
 11
-28.5766
 21
-2.93647
  0
LINE
  8
0
 10
-28.5766
 20
-2.93647
 11
-28.5358
 21
-2.82598
  0
LINE
  8
0
 10
-28.5358
 20
-2.82598
 11
-28.4865
 21
-2.71901
  0
LINE
  8
0
 10
-28.4865
 20
-2.71901
 11
-28.4289
 21
-2.61624
  0
LINE
  8
0
 10
-28.4289
 20
-2.61624
 11
-28.3635
 21
-2.51831
  0
LINE
  8
0
 10
-28.3635
 20
-2.51831
 11
-28.2906
 21
-2.42583
  0
LINE
  8
0
 10
-28.2906
 20
-2.42583
 11
-28.2106
 21
-2.33933
  0
LINE
  8
0
 10
-28.2106
 20
-2.33933
 11
-28.1242
 21
-2.25939
  0
LINE
  8
0
 10
-28.1242
 20
-2.25939
 11
-28.0317
 21
-2.18647
  0
LINE
  8
0
 10
-28.0317
 20
-2.18647
 11
-27.9337
 21
-2.12104
  0
LINE
  8
0
 10
-27.9337
 20
-2.12104
 11
-27.831
 21
-2.06348
  0
LINE
  8
0
 10
-27.831
 20
-2.06348
 11
-27.724
 21
-2.01418
  0
LINE
  8
0
 10
-27.724
 20
-2.01418
 11
-27.6135
 21
-1.97341
  0
LINE
  8
0
 10
-27.6135
 20
-1.97341
 11
-27.5002
 21
-1.94144
  0
LINE
  8
0
 10
-27.5002
 20
-1.94144
 11
-27.3846
 21
-1.91846
  0
LINE
  8
0
 10
-27.3846
 20
-1.91846
 11
-27.2677
 21
-1.90462
  0
LINE
  8
0
 10
-27.2677
 20
-1.90462
 11
-27.15
 21
-1.9
  0
LINE
  8
0
 10
-27.15
 20
-1.9
 11
-25.875
 21
-1.9
  0
LINE
  8
0
 10
-25.875
 20
-1.9
 11
-25.875
 21
-3.05176e-06
  0
LINE
  8
0
 10
-25.875
 20
-3.05176e-06
 11
-32.15
 21
-3.05176e-06
  0
LINE
  8
0
 10
-32.15
 20
-3.05176e-06
 11
-32.15
 21
-5.45
  0
LINE
  8
0
 10
-32.15
 20
-5.45
 11
-32.1332
 21
-5.8776
  0
LINE
  8
0
 10
-32.1332
 20
-5.8776
 11
-32.0829
 21
-6.30255
  0
LINE
  8
0
 10
-32.0829
 20
-6.30255
 11
-31.9994
 21
-6.72226
  0
LINE
  8
0
 10
-31.9994
 20
-6.72226
 11
-31.8833
 21
-7.13413
  0
LINE
  8
0
 10
-31.8833
 20
-7.13413
 11
-31.7351
 21
-7.53562
  0
LINE
  8
0
 10
-31.7351
 20
-7.53562
 11
-31.556
 21
-7.92424
  0
LINE
  8
0
 10
-31.556
 20
-7.92424
 11
-31.3469
 21
-8.29761
  0
LINE
  8
0
 10
-31.3469
 20
-8.29761
 11
-31.1091
 21
-8.65341
  0
LINE
  8
0
 10
-31.1091
 20
-8.65341
 11
-30.8442
 21
-8.98949
  0
LINE
  8
0
 10
-30.8442
 20
-8.98949
 11
-30.5537
 21
-9.30373
  0
LINE
  8
0
 10
-30.5537
 20
-9.30373
 11
-30.2395
 21
-9.59421
  0
LINE
  8
0
 10
-30.2395
 20
-9.59421
 11
-29.9034
 21
-9.85913
  0
LINE
  8
0
 10
-29.9034
 20
-9.85913
 11
-29.5476
 21
-10.0969
  0
LINE
  8
0
 10
-29.5476
 20
-10.0969
 11
-29.1742
 21
-10.306
  0
LINE
  8
0
 10
-29.1742
 20
-10.306
 11
-28.7856
 21
-10.4851
  0
LINE
  8
0
 10
-28.7856
 20
-10.4851
 11
-28.3841
 21
-10.6332
  0
LINE
  8
0
 10
-28.3841
 20
-10.6332
 11
-27.9723
 21
-10.7494
  0
LINE
  8
0
 10
-27.9723
 20
-10.7494
 11
-27.5526
 21
-10.8329
  0
LINE
  8
0
 10
-27.5526
 20
-10.8329
 11
-27.1276
 21
-10.8832
  0
LINE
  8
0
 10
-27.1276
 20
-10.8832
 11
-26.7
 21
-10.9
  0
LINE
  8
0
 10
-26.7
 20
-10.9
 11
26.7
 21
-10.9
  0
LINE
  8
0
 10
26.7
 20
-10.9
 11
27.1276
 21
-10.8832
  0
LINE
  8
0
 10
-9.19554
 20
-7.3846
 11
-9.38626
 21
-7.33881
  0
LINE
  8
0
 10
-9.38626
 20
-7.33881
 11
-9.56747
 21
-7.26375
  0
LINE
  8
0
 10
-9.56747
 20
-7.26375
 11
-9.73473
 21
-7.16126
  0
LINE
  8
0
 10
-9.73473
 20
-7.16126
 11
-9.88388
 21
-7.03388
  0
LINE
  8
0
 10
-9.88388
 20
-7.03388
 11
-10.0113
 21
-6.88472
  0
LINE
  8
0
 10
-10.0113
 20
-6.88472
 11
-10.1138
 21
-6.71749
  0
LINE
  8
0
 10
-10.1138
 20
-6.71749
 11
-10.1888
 21
-6.53626
  0
LINE
  8
0
 10
-10.1888
 20
-6.53626
 11
-10.2346
 21
-6.34554
  0
LINE
  8
0
 10
-10.2346
 20
-6.34554
 11
-10.25
 21
-6.15
  0
LINE
  8
0
 10
-10.25
 20
-6.15
 11
-10.25
 21
-4.75
  0
LINE
  8
0
 10
-10.25
 20
-4.75
 11
-10.2346
 21
-4.55446
  0
LINE
  8
0
 10
-10.2346
 20
-4.55446
 11
-10.1888
 21
-4.36374
  0
LINE
  8
0
 10
-10.1888
 20
-4.36374
 11
-10.1138
 21
-4.18251
  0
LINE
  8
0
 10
-10.1138
 20
-4.18251
 11
-10.0113
 21
-4.01528
  0
LINE
  8
0
 10
-10.0113
 20
-4.01528
 11
-9.88388
 21
-3.86612
  0
LINE
  8
0
 10
-9.88388
 20
-3.86612
 11
-9.73473
 21
-3.73874
  0
LINE
  8
0
 10
-9.73473
 20
-3.73874
 11
-9.56747
 21
-3.63625
  0
LINE
  8
0
 10
-9.56747
 20
-3.63625
 11
-9.38626
 21
-3.56119
  0
LINE
  8
0
 10
-9.38626
 20
-3.56119
 11
-9.19554
 21
-3.5154
  0
LINE
  8
0
 10
-9.19554
 20
-3.5154
 11
-9
 21
-3.5
  0
LINE
  8
0
 10
-9
 20
-3.5
 11
-8.80444
 21
-3.5154
  0
LINE
  8
0
 10
-8.80444
 20
-3.5154
 11
-8.61372
 21
-3.56119
  0
LINE
  8
0
 10
-8.61372
 20
-3.56119
 11
-8.43251
 21
-3.63625
  0
LINE
  8
0
 10
-8.43251
 20
-3.63625
 11
-8.26526
 21
-3.73874
  0
LINE
  8
0
 10
-8.26526
 20
-3.73874
 11
-8.1161
 21
-3.86612
  0
LINE
  8
0
 10
-8.1161
 20
-3.86612
 11
-7.98872
 21
-4.01528
  0
LINE
  8
0
 10
-7.98872
 20
-4.01528
 11
-7.88623
 21
-4.18251
  0
LINE
  8
0
 10
-7.88623
 20
-4.18251
 11
-7.81117
 21
-4.36374
  0
LINE
  8
0
 10
-7.81117
 20
-4.36374
 11
-7.76538
 21
-4.55446
  0
LINE
  8
0
 10
-7.76538
 20
-4.55446
 11
-7.75
 21
-4.75
  0
LINE
  8
0
 10
-7.75
 20
-4.75
 11
-7.75
 21
-6.15
  0
LINE
  8
0
 10
-7.75
 20
-6.15
 11
-7.76538
 21
-6.34554
  0
LINE
  8
0
 10
-7.76538
 20
-6.34554
 11
-7.81117
 21
-6.53626
  0
LINE
  8
0
 10
-7.81117
 20
-6.53626
 11
-7.88623
 21
-6.71749
  0
LINE
  8
0
 10
-7.88623
 20
-6.71749
 11
-7.98872
 21
-6.88472
  0
LINE
  8
0
 10
-7.98872
 20
-6.88472
 11
-8.1161
 21
-7.03388
  0
LINE
  8
0
 10
-8.1161
 20
-7.03388
 11
-8.26526
 21
-7.16126
  0
LINE
  8
0
 10
-8.26526
 20
-7.16126
 11
-8.43251
 21
-7.26375
  0
LINE
  8
0
 10
-8.43251
 20
-7.26375
 11
-8.61372
 21
-7.33881
  0
LINE
  8
0
 10
-8.61372
 20
-7.33881
 11
-8.80444
 21
-7.3846
  0
LINE
  8
0
 10
-8.80444
 20
-7.3846
 11
-9
 21
-7.4
  0
LINE
  8
0
 10
-9
 20
-7.4
 11
-9.19554
 21
-7.3846
  0
LINE
  8
0
 10
8.80444
 20
-7.3846
 11
8.61372
 21
-7.33881
  0
LINE
  8
0
 10
8.61372
 20
-7.33881
 11
8.43251
 21
-7.26375
  0
LINE
  8
0
 10
8.43251
 20
-7.26375
 11
8.26526
 21
-7.16126
  0
LINE
  8
0
 10
8.26526
 20
-7.16126
 11
8.1161
 21
-7.03388
  0
LINE
  8
0
 10
8.1161
 20
-7.03388
 11
7.98872
 21
-6.88472
  0
LINE
  8
0
 10
7.98872
 20
-6.88472
 11
7.88623
 21
-6.71749
  0
LINE
  8
0
 10
7.88623
 20
-6.71749
 11
7.81117
 21
-6.53626
  0
LINE
  8
0
 10
7.81117
 20
-6.53626
 11
7.76538
 21
-6.34554
  0
LINE
  8
0
 10
7.76538
 20
-6.34554
 11
7.75
 21
-6.15
  0
LINE
  8
0
 10
7.75
 20
-6.15
 11
7.75
 21
-4.75
  0
LINE
  8
0
 10
7.75
 20
-4.75
 11
7.76538
 21
-4.55446
  0
LINE
  8
0
 10
7.76538
 20
-4.55446
 11
7.81117
 21
-4.36374
  0
LINE
  8
0
 10
7.81117
 20
-4.36374
 11
7.88623
 21
-4.18251
  0
LINE
  8
0
 10
7.88623
 20
-4.18251
 11
7.98872
 21
-4.01528
  0
LINE
  8
0
 10
7.98872
 20
-4.01528
 11
8.1161
 21
-3.86612
  0
LINE
  8
0
 10
8.1161
 20
-3.86612
 11
8.26526
 21
-3.73874
  0
LINE
  8
0
 10
8.26526
 20
-3.73874
 11
8.43251
 21
-3.63625
  0
LINE
  8
0
 10
8.43251
 20
-3.63625
 11
8.61372
 21
-3.56119
  0
LINE
  8
0
 10
8.61372
 20
-3.56119
 11
8.80444
 21
-3.5154
  0
LINE
  8
0
 10
8.80444
 20
-3.5154
 11
9
 21
-3.5
  0
LINE
  8
0
 10
9
 20
-3.5
 11
9.19554
 21
-3.5154
  0
LINE
  8
0
 10
9.19554
 20
-3.5154
 11
9.38626
 21
-3.56119
  0
LINE
  8
0
 10
9.38626
 20
-3.56119
 11
9.56747
 21
-3.63625
  0
LINE
  8
0
 10
9.56747
 20
-3.63625
 11
9.73473
 21
-3.73874
  0
LINE
  8
0
 10
9.73473
 20
-3.73874
 11
9.88388
 21
-3.86612
  0
LINE
  8
0
 10
9.88388
 20
-3.86612
 11
10.0113
 21
-4.01528
  0
LINE
  8
0
 10
10.0113
 20
-4.01528
 11
10.1138
 21
-4.18251
  0
LINE
  8
0
 10
10.1138
 20
-4.18251
 11
10.1888
 21
-4.36374
  0
LINE
  8
0
 10
10.1888
 20
-4.36374
 11
10.2346
 21
-4.55446
  0
LINE
  8
0
 10
10.2346
 20
-4.55446
 11
10.25
 21
-4.75
  0
LINE
  8
0
 10
10.25
 20
-4.75
 11
10.25
 21
-6.15
  0
LINE
  8
0
 10
10.25
 20
-6.15
 11
10.2346
 21
-6.34554
  0
LINE
  8
0
 10
10.2346
 20
-6.34554
 11
10.1888
 21
-6.53626
  0
LINE
  8
0
 10
10.1888
 20
-6.53626
 11
10.1138
 21
-6.71749
  0
LINE
  8
0
 10
10.1138
 20
-6.71749
 11
10.0113
 21
-6.88472
  0
LINE
  8
0
 10
10.0113
 20
-6.88472
 11
9.88388
 21
-7.03388
  0
LINE
  8
0
 10
9.88388
 20
-7.03388
 11
9.73473
 21
-7.16126
  0
LINE
  8
0
 10
9.73473
 20
-7.16126
 11
9.56747
 21
-7.26375
  0
LINE
  8
0
 10
9.56747
 20
-7.26375
 11
9.38626
 21
-7.33881
  0
LINE
  8
0
 10
9.38626
 20
-7.33881
 11
9.19554
 21
-7.3846
  0
LINE
  8
0
 10
9.19554
 20
-7.3846
 11
9
 21
-7.4
  0
LINE
  8
0
 10
9
 20
-7.4
 11
8.80444
 21
-7.3846
  0
ENDSEC
  0
SECTION
  2
OBJECTS
  0
DICTIONARY
  0
ENDSEC
  0
EOF
