  0
SECTION
  2
BLOCKS
  0
ENDSEC
  0
SECTION
  2
ENTITIES
  0
LINE
  8
0
 10
69.1533
 20
27.6665
 11
69.1532
 21
41.6
  0
LINE
  8
0
 10
69.1532
 20
41.6
 11
71.686
 21
41.6001
  0
LINE
  8
0
 10
71.686
 20
41.6001
 11
71.686
 21
69.6912
  0
LINE
  8
0
 10
71.686
 20
69.6912
 11
69.9663
 21
71.4473
  0
LINE
  8
0
 10
69.9663
 20
71.4473
 11
66.9131
 21
74.3145
  0
LINE
  8
0
 10
66.9131
 20
74.3145
 11
63.7424
 21
77.0513
  0
LINE
  8
0
 10
63.7424
 20
77.0513
 11
60.4599
 21
79.653
  0
LINE
  8
0
 10
60.4599
 20
79.653
 11
57.0714
 21
82.1149
  0
LINE
  8
0
 10
57.0714
 20
82.1149
 11
53.5827
 21
84.4328
  0
LINE
  8
0
 10
53.5827
 20
84.4328
 11
50
 21
86.6025
  0
LINE
  8
0
 10
50
 20
86.6025
 11
46.3296
 21
88.6203
  0
LINE
  8
0
 10
46.3296
 20
88.6203
 11
42.5779
 21
90.4827
  0
LINE
  8
0
 10
42.5779
 20
90.4827
 11
38.7516
 21
92.1863
  0
LINE
  8
0
 10
38.7516
 20
92.1863
 11
34.8572
 21
93.7282
  0
LINE
  8
0
 10
34.8572
 20
93.7282
 11
30.9017
 21
95.1056
  0
LINE
  8
0
 10
30.9017
 20
95.1056
 11
26.892
 21
96.3163
  0
LINE
  8
0
 10
26.892
 20
96.3163
 11
22.8351
 21
97.3579
  0
LINE
  8
0
 10
22.8351
 20
97.3579
 11
18.7381
 21
98.2287
  0
LINE
  8
0
 10
18.7381
 20
98.2287
 11
14.6083
 21
98.9272
  0
LINE
  8
0
 10
14.6083
 20
98.9272
 11
10.4528
 21
99.4522
  0
LINE
  8
0
 10
10.4528
 20
99.4522
 11
6.27904
 21
99.8027
  0
LINE
  8
0
 10
6.27904
 20
99.8027
 11
2.09424
 21
99.9781
  0
LINE
  8
0
 10
2.09424
 20
99.9781
 11
-2.09424
 21
99.9781
  0
LINE
  8
0
 10
-2.09424
 20
99.9781
 11
-6.27904
 21
99.8027
  0
LINE
  8
0
 10
-6.27904
 20
99.8027
 11
-10.4528
 21
99.4522
  0
LINE
  8
0
 10
-10.4528
 20
99.4522
 11
-14.6083
 21
98.9272
  0
LINE
  8
0
 10
-14.6083
 20
98.9272
 11
-18.7381
 21
98.2287
  0
LINE
  8
0
 10
-18.7381
 20
98.2287
 11
-22.8351
 21
97.3579
  0
LINE
  8
0
 10
-22.8351
 20
97.3579
 11
-26.892
 21
96.3163
  0
LINE
  8
0
 10
-26.892
 20
96.3163
 11
-30.9017
 21
95.1056
  0
LINE
  8
0
 10
-30.9017
 20
95.1056
 11
-34.8572
 21
93.7282
  0
LINE
  8
0
 10
-34.8572
 20
93.7282
 11
-38.7516
 21
92.1863
  0
LINE
  8
0
 10
-38.7516
 20
92.1863
 11
-42.5779
 21
90.4827
  0
LINE
  8
0
 10
-42.5779
 20
90.4827
 11
-46.3296
 21
88.6203
  0
LINE
  8
0
 10
-46.3296
 20
88.6203
 11
-50
 21
86.6025
  0
LINE
  8
0
 10
-50
 20
86.6025
 11
-53.5827
 21
84.4328
  0
LINE
  8
0
 10
-53.5827
 20
84.4328
 11
-57.0714
 21
82.1149
  0
LINE
  8
0
 10
-57.0714
 20
82.1149
 11
-60.4599
 21
79.653
  0
LINE
  8
0
 10
-60.4599
 20
79.653
 11
-63.7424
 21
77.0513
  0
LINE
  8
0
 10
-63.7424
 20
77.0513
 11
-66.9131
 21
74.3145
  0
LINE
  8
0
 10
-66.9131
 20
74.3145
 11
-69.9663
 21
71.4473
  0
LINE
  8
0
 10
-69.9663
 20
71.4473
 11
-71.686
 21
69.6912
  0
LINE
  8
0
 10
-71.686
 20
69.6912
 11
-71.686
 21
41.6
  0
LINE
  8
0
 10
-71.686
 20
41.6
 11
-69.1533
 21
41.6001
  0
LINE
  8
0
 10
-69.1533
 20
41.6001
 11
-69.1533
 21
27.6665
  0
LINE
  8
0
 10
-69.1533
 20
27.6665
 11
-71.686
 21
27.6665
  0
LINE
  8
0
 10
-71.686
 20
27.6665
 11
-71.686
 21
13.8333
  0
LINE
  8
0
 10
-71.686
 20
13.8333
 11
-69.1533
 21
13.8334
  0
LINE
  8
0
 10
-69.1533
 20
13.8334
 11
-69.1532
 21
-2.86674
  0
LINE
  8
0
 10
-69.1532
 20
-2.86674
 11
-71.686
 21
-2.86681
  0
LINE
  8
0
 10
-71.686
 20
-2.86681
 11
-71.686
 21
-69.6912
  0
LINE
  8
0
 10
-71.686
 20
-69.6912
 11
-69.9663
 21
-71.4473
  0
LINE
  8
0
 10
-69.9663
 20
-71.4473
 11
-66.9131
 21
-74.3145
  0
LINE
  8
0
 10
-66.9131
 20
-74.3145
 11
-63.7424
 21
-77.0513
  0
LINE
  8
0
 10
-63.7424
 20
-77.0513
 11
-60.4599
 21
-79.653
  0
LINE
  8
0
 10
-60.4599
 20
-79.653
 11
-57.0714
 21
-82.1149
  0
LINE
  8
0
 10
-57.0714
 20
-82.1149
 11
-53.5827
 21
-84.4328
  0
LINE
  8
0
 10
-53.5827
 20
-84.4328
 11
-50
 21
-86.6025
  0
LINE
  8
0
 10
-50
 20
-86.6025
 11
-46.3296
 21
-88.6203
  0
LINE
  8
0
 10
-46.3296
 20
-88.6203
 11
-42.5779
 21
-90.4827
  0
LINE
  8
0
 10
-42.5779
 20
-90.4827
 11
-38.7516
 21
-92.1863
  0
LINE
  8
0
 10
-38.7516
 20
-92.1863
 11
-34.8572
 21
-93.7282
  0
LINE
  8
0
 10
-34.8572
 20
-93.7282
 11
-30.9017
 21
-95.1056
  0
LINE
  8
0
 10
-30.9017
 20
-95.1056
 11
-26.892
 21
-96.3163
  0
LINE
  8
0
 10
-26.892
 20
-96.3163
 11
-22.8351
 21
-97.3579
  0
LINE
  8
0
 10
-22.8351
 20
-97.3579
 11
-18.7381
 21
-98.2287
  0
LINE
  8
0
 10
-18.7381
 20
-98.2287
 11
-14.6083
 21
-98.9272
  0
LINE
  8
0
 10
-14.6083
 20
-98.9272
 11
-10.4528
 21
-99.4522
  0
LINE
  8
0
 10
-10.4528
 20
-99.4522
 11
-6.27904
 21
-99.8027
  0
LINE
  8
0
 10
-6.27904
 20
-99.8027
 11
-2.09424
 21
-99.9781
  0
LINE
  8
0
 10
-2.09424
 20
-99.9781
 11
2.09424
 21
-99.9781
  0
LINE
  8
0
 10
2.09424
 20
-99.9781
 11
6.27904
 21
-99.8027
  0
LINE
  8
0
 10
6.27904
 20
-99.8027
 11
10.4528
 21
-99.4522
  0
LINE
  8
0
 10
10.4528
 20
-99.4522
 11
14.6083
 21
-98.9272
  0
LINE
  8
0
 10
14.6083
 20
-98.9272
 11
18.7381
 21
-98.2287
  0
LINE
  8
0
 10
18.7381
 20
-98.2287
 11
22.8351
 21
-97.3579
  0
LINE
  8
0
 10
22.8351
 20
-97.3579
 11
26.892
 21
-96.3163
  0
LINE
  8
0
 10
26.892
 20
-96.3163
 11
30.9017
 21
-95.1056
  0
LINE
  8
0
 10
30.9017
 20
-95.1056
 11
34.8572
 21
-93.7282
  0
LINE
  8
0
 10
34.8572
 20
-93.7282
 11
38.7516
 21
-92.1863
  0
LINE
  8
0
 10
38.7516
 20
-92.1863
 11
42.5779
 21
-90.4827
  0
LINE
  8
0
 10
42.5779
 20
-90.4827
 11
46.3296
 21
-88.6203
  0
LINE
  8
0
 10
46.3296
 20
-88.6203
 11
50
 21
-86.6025
  0
LINE
  8
0
 10
50
 20
-86.6025
 11
53.5827
 21
-84.4328
  0
LINE
  8
0
 10
53.5827
 20
-84.4328
 11
57.0714
 21
-82.1149
  0
LINE
  8
0
 10
57.0714
 20
-82.1149
 11
60.4599
 21
-79.653
  0
LINE
  8
0
 10
60.4599
 20
-79.653
 11
63.7424
 21
-77.0513
  0
LINE
  8
0
 10
63.7424
 20
-77.0513
 11
66.9131
 21
-74.3145
  0
LINE
  8
0
 10
66.9131
 20
-74.3145
 11
69.9663
 21
-71.4473
  0
LINE
  8
0
 10
69.9663
 20
-71.4473
 11
71.686
 21
-69.6912
  0
LINE
  8
0
 10
71.686
 20
-69.6912
 11
71.686
 21
-2.86691
  0
LINE
  8
0
 10
71.686
 20
-2.86691
 11
69.1533
 21
-2.86685
  0
LINE
  8
0
 10
69.1533
 20
-2.86685
 11
69.1532
 21
13.8333
  0
LINE
  8
0
 10
69.1532
 20
13.8333
 11
71.686
 21
13.8334
  0
LINE
  8
0
 10
71.686
 20
13.8334
 11
71.686
 21
27.6665
  0
LINE
  8
0
 10
71.686
 20
27.6665
 11
69.1533
 21
27.6665
  0
LINE
  8
0
 10
-0.156769
 20
80.5082
 11
-0.463501
 21
80.5734
  0
LINE
  8
0
 10
-0.463501
 20
80.5734
 11
-0.749985
 21
80.701
  0
LINE
  8
0
 10
-0.749985
 20
80.701
 11
-1.00368
 21
80.8853
  0
LINE
  8
0
 10
-1.00368
 20
80.8853
 11
-1.2135
 21
81.1183
  0
LINE
  8
0
 10
-1.2135
 20
81.1183
 11
-1.3703
 21
81.3899
  0
LINE
  8
0
 10
-1.3703
 20
81.3899
 11
-1.46719
 21
81.6881
  0
LINE
  8
0
 10
-1.46719
 20
81.6881
 11
-1.49997
 21
82
  0
LINE
  8
0
 10
-1.49997
 20
82
 11
-1.46719
 21
82.3119
  0
LINE
  8
0
 10
-1.46719
 20
82.3119
 11
-1.3703
 21
82.6101
  0
LINE
  8
0
 10
-1.3703
 20
82.6101
 11
-1.2135
 21
82.8817
  0
LINE
  8
0
 10
-1.2135
 20
82.8817
 11
-1.00368
 21
83.1147
  0
LINE
  8
0
 10
-1.00368
 20
83.1147
 11
-0.749969
 21
83.299
  0
LINE
  8
0
 10
-0.749969
 20
83.299
 11
-0.463501
 21
83.4266
  0
LINE
  8
0
 10
-0.463501
 20
83.4266
 11
-0.156769
 21
83.4918
  0
LINE
  8
0
 10
-0.156769
 20
83.4918
 11
0.156784
 21
83.4918
  0
LINE
  8
0
 10
0.156784
 20
83.4918
 11
0.463516
 21
83.4266
  0
LINE
  8
0
 10
0.463516
 20
83.4266
 11
0.75
 21
83.299
  0
LINE
  8
0
 10
0.75
 20
83.299
 11
1.00369
 21
83.1147
  0
LINE
  8
0
 10
1.00369
 20
83.1147
 11
1.21352
 21
82.8817
  0
LINE
  8
0
 10
1.21352
 20
82.8817
 11
1.37032
 21
82.6101
  0
LINE
  8
0
 10
1.37032
 20
82.6101
 11
1.46721
 21
82.3119
  0
LINE
  8
0
 10
1.46721
 20
82.3119
 11
1.5
 21
82
  0
LINE
  8
0
 10
1.5
 20
82
 11
1.46721
 21
81.6881
  0
LINE
  8
0
 10
1.46721
 20
81.6881
 11
1.37032
 21
81.3899
  0
LINE
  8
0
 10
1.37032
 20
81.3899
 11
1.21352
 21
81.1183
  0
LINE
  8
0
 10
1.21352
 20
81.1183
 11
1.00369
 21
80.8853
  0
LINE
  8
0
 10
1.00369
 20
80.8853
 11
0.75
 21
80.701
  0
LINE
  8
0
 10
0.75
 20
80.701
 11
0.463516
 21
80.5734
  0
LINE
  8
0
 10
0.463516
 20
80.5734
 11
0.156784
 21
80.5082
  0
LINE
  8
0
 10
0.156784
 20
80.5082
 11
-0.156769
 21
80.5082
  0
LINE
  8
0
 10
5.90536
 20
70.0082
 11
5.59863
 21
70.0734
  0
LINE
  8
0
 10
5.59863
 20
70.0734
 11
5.31215
 21
70.201
  0
LINE
  8
0
 10
5.31215
 20
70.201
 11
5.05846
 21
70.3853
  0
LINE
  8
0
 10
5.05846
 20
70.3853
 11
4.84863
 21
70.6183
  0
LINE
  8
0
 10
4.84863
 20
70.6183
 11
4.69183
 21
70.8899
  0
LINE
  8
0
 10
4.69183
 20
70.8899
 11
4.59494
 21
71.1881
  0
LINE
  8
0
 10
4.59494
 20
71.1881
 11
4.56216
 21
71.5
  0
LINE
  8
0
 10
4.56216
 20
71.5
 11
4.59496
 21
71.8119
  0
LINE
  8
0
 10
4.59496
 20
71.8119
 11
4.69185
 21
72.1101
  0
LINE
  8
0
 10
4.69185
 20
72.1101
 11
4.84865
 21
72.3817
  0
LINE
  8
0
 10
4.84865
 20
72.3817
 11
5.05847
 21
72.6147
  0
LINE
  8
0
 10
5.05847
 20
72.6147
 11
5.31216
 21
72.799
  0
LINE
  8
0
 10
5.31216
 20
72.799
 11
5.59865
 21
72.9266
  0
LINE
  8
0
 10
5.59865
 20
72.9266
 11
5.90538
 21
72.9918
  0
LINE
  8
0
 10
5.90538
 20
72.9918
 11
6.21896
 21
72.9918
  0
LINE
  8
0
 10
6.21896
 20
72.9918
 11
6.5257
 21
72.9266
  0
LINE
  8
0
 10
6.5257
 20
72.9266
 11
6.81216
 21
72.799
  0
LINE
  8
0
 10
6.81216
 20
72.799
 11
7.06587
 21
72.6147
  0
LINE
  8
0
 10
7.06587
 20
72.6147
 11
7.2757
 21
72.3817
  0
LINE
  8
0
 10
7.2757
 20
72.3817
 11
7.4325
 21
72.1101
  0
LINE
  8
0
 10
7.4325
 20
72.1101
 11
7.52939
 21
71.8119
  0
LINE
  8
0
 10
7.52939
 20
71.8119
 11
7.56216
 21
71.5
  0
LINE
  8
0
 10
7.56216
 20
71.5
 11
7.52937
 21
71.1881
  0
LINE
  8
0
 10
7.52937
 20
71.1881
 11
7.43248
 21
70.8899
  0
LINE
  8
0
 10
7.43248
 20
70.8899
 11
7.27568
 21
70.6183
  0
LINE
  8
0
 10
7.27568
 20
70.6183
 11
7.06586
 21
70.3853
  0
LINE
  8
0
 10
7.06586
 20
70.3853
 11
6.81215
 21
70.201
  0
LINE
  8
0
 10
6.81215
 20
70.201
 11
6.52568
 21
70.0734
  0
LINE
  8
0
 10
6.52568
 20
70.0734
 11
6.21895
 21
70.0082
  0
LINE
  8
0
 10
6.21895
 20
70.0082
 11
5.90536
 21
70.0082
  0
LINE
  8
0
 10
-6.21896
 20
70.0082
 11
-6.5257
 21
70.0734
  0
LINE
  8
0
 10
-6.5257
 20
70.0734
 11
-6.81216
 21
70.201
  0
LINE
  8
0
 10
-6.81216
 20
70.201
 11
-7.06587
 21
70.3853
  0
LINE
  8
0
 10
-7.06587
 20
70.3853
 11
-7.2757
 21
70.6183
  0
LINE
  8
0
 10
-7.2757
 20
70.6183
 11
-7.4325
 21
70.8899
  0
LINE
  8
0
 10
-7.4325
 20
70.8899
 11
-7.52939
 21
71.1881
  0
LINE
  8
0
 10
-7.52939
 20
71.1881
 11
-7.56216
 21
71.5
  0
LINE
  8
0
 10
-7.56216
 20
71.5
 11
-7.52939
 21
71.8119
  0
LINE
  8
0
 10
-7.52939
 20
71.8119
 11
-7.4325
 21
72.1101
  0
LINE
  8
0
 10
-7.4325
 20
72.1101
 11
-7.2757
 21
72.3817
  0
LINE
  8
0
 10
-7.2757
 20
72.3817
 11
-7.06587
 21
72.6147
  0
LINE
  8
0
 10
-7.06587
 20
72.6147
 11
-6.81216
 21
72.799
  0
LINE
  8
0
 10
-6.81216
 20
72.799
 11
-6.5257
 21
72.9266
  0
LINE
  8
0
 10
-6.5257
 20
72.9266
 11
-6.21896
 21
72.9918
  0
LINE
  8
0
 10
-6.21896
 20
72.9918
 11
-5.90538
 21
72.9918
  0
LINE
  8
0
 10
-5.90538
 20
72.9918
 11
-5.59865
 21
72.9266
  0
LINE
  8
0
 10
-5.59865
 20
72.9266
 11
-5.31216
 21
72.799
  0
LINE
  8
0
 10
-5.31216
 20
72.799
 11
-5.05847
 21
72.6147
  0
LINE
  8
0
 10
-5.05847
 20
72.6147
 11
-4.84865
 21
72.3817
  0
LINE
  8
0
 10
-4.84865
 20
72.3817
 11
-4.69185
 21
72.1101
  0
LINE
  8
0
 10
-4.69185
 20
72.1101
 11
-4.59496
 21
71.8119
  0
LINE
  8
0
 10
-4.59496
 20
71.8119
 11
-4.56216
 21
71.5
  0
LINE
  8
0
 10
-4.56216
 20
71.5
 11
-4.59496
 21
71.1881
  0
LINE
  8
0
 10
-4.59496
 20
71.1881
 11
-4.69185
 21
70.8899
  0
LINE
  8
0
 10
-4.69185
 20
70.8899
 11
-4.84865
 21
70.6183
  0
LINE
  8
0
 10
-4.84865
 20
70.6183
 11
-5.05847
 21
70.3853
  0
LINE
  8
0
 10
-5.05847
 20
70.3853
 11
-5.31216
 21
70.201
  0
LINE
  8
0
 10
-5.31216
 20
70.201
 11
-5.59865
 21
70.0734
  0
LINE
  8
0
 10
-5.59865
 20
70.0734
 11
-5.90538
 21
70.0082
  0
LINE
  8
0
 10
-5.90538
 20
70.0082
 11
-6.21896
 21
70.0082
  0
LINE
  8
0
 10
-65.636
 20
41.55
 11
-65.636
 21
44.75
  0
LINE
  8
0
 10
-65.636
 20
44.75
 11
-39.55
 21
44.75
  0
LINE
  8
0
 10
-39.55
 20
44.75
 11
-39.55
 21
41.55
  0
LINE
  8
0
 10
-39.55
 20
41.55
 11
-65.636
 21
41.55
  0
LINE
  8
0
 10
39.55
 20
41.55
 11
39.55
 21
44.75
  0
LINE
  8
0
 10
39.55
 20
44.75
 11
65.636
 21
44.75
  0
LINE
  8
0
 10
65.636
 20
44.75
 11
65.636
 21
41.55
  0
LINE
  8
0
 10
65.636
 20
41.55
 11
39.55
 21
41.55
  0
LINE
  8
0
 10
-54.3337
 20
27.6665
 11
-54.3338
 21
36.5
  0
LINE
  8
0
 10
-54.3338
 20
36.5
 11
-50.571
 21
36.5001
  0
LINE
  8
0
 10
-50.571
 20
36.5001
 11
-50.571
 21
27.6665
  0
LINE
  8
0
 10
-50.571
 20
27.6665
 11
-54.3337
 21
27.6665
  0
LINE
  8
0
 10
50.571
 20
27.6665
 11
50.5709
 21
36.5
  0
LINE
  8
0
 10
50.5709
 20
36.5
 11
54.3337
 21
36.5001
  0
LINE
  8
0
 10
54.3337
 20
36.5001
 11
54.3337
 21
27.6665
  0
LINE
  8
0
 10
54.3337
 20
27.6665
 11
50.571
 21
27.6665
  0
LINE
  8
0
 10
-66.686
 20
30.5
 11
-66.686
 21
34.5
  0
LINE
  8
0
 10
-66.686
 20
34.5
 11
-64.686
 21
34.5
  0
LINE
  8
0
 10
-64.686
 20
34.5
 11
-64.686
 21
30.5
  0
LINE
  8
0
 10
-64.686
 20
30.5
 11
-66.686
 21
30.5
  0
LINE
  8
0
 10
64.686
 20
30.5
 11
64.686
 21
34.5
  0
LINE
  8
0
 10
64.686
 20
34.5
 11
66.686
 21
34.5
  0
LINE
  8
0
 10
66.686
 20
34.5
 11
66.686
 21
30.5
  0
LINE
  8
0
 10
66.686
 20
30.5
 11
64.686
 21
30.5
  0
LINE
  8
0
 10
28.8432
 20
10.2082
 11
28.5365
 21
10.2734
  0
LINE
  8
0
 10
28.5365
 20
10.2734
 11
28.25
 21
10.401
  0
LINE
  8
0
 10
28.25
 20
10.401
 11
27.9963
 21
10.5853
  0
LINE
  8
0
 10
27.9963
 20
10.5853
 11
27.7865
 21
10.8183
  0
LINE
  8
0
 10
27.7865
 20
10.8183
 11
27.6297
 21
11.0899
  0
LINE
  8
0
 10
27.6297
 20
11.0899
 11
27.5328
 21
11.3881
  0
LINE
  8
0
 10
27.5328
 20
11.3881
 11
27.5
 21
11.7
  0
LINE
  8
0
 10
27.5
 20
11.7
 11
27.5
 21
29.7
  0
LINE
  8
0
 10
27.5
 20
29.7
 11
27.5328
 21
30.0119
  0
LINE
  8
0
 10
27.5328
 20
30.0119
 11
27.6297
 21
30.3101
  0
LINE
  8
0
 10
27.6297
 20
30.3101
 11
27.7865
 21
30.5817
  0
LINE
  8
0
 10
27.7865
 20
30.5817
 11
27.9963
 21
30.8147
  0
LINE
  8
0
 10
27.9963
 20
30.8147
 11
28.25
 21
30.999
  0
LINE
  8
0
 10
28.25
 20
30.999
 11
28.5365
 21
31.1266
  0
LINE
  8
0
 10
28.5365
 20
31.1266
 11
28.8432
 21
31.1918
  0
LINE
  8
0
 10
28.8432
 20
31.1918
 11
29.1568
 21
31.1918
  0
LINE
  8
0
 10
29.1568
 20
31.1918
 11
29.4635
 21
31.1266
  0
LINE
  8
0
 10
29.4635
 20
31.1266
 11
29.75
 21
30.999
  0
LINE
  8
0
 10
29.75
 20
30.999
 11
30.0037
 21
30.8147
  0
LINE
  8
0
 10
30.0037
 20
30.8147
 11
30.2135
 21
30.5817
  0
LINE
  8
0
 10
30.2135
 20
30.5817
 11
30.3703
 21
30.3101
  0
LINE
  8
0
 10
30.3703
 20
30.3101
 11
30.4672
 21
30.0119
  0
LINE
  8
0
 10
30.4672
 20
30.0119
 11
30.5
 21
29.7
  0
LINE
  8
0
 10
30.5
 20
29.7
 11
30.5
 21
11.7
  0
LINE
  8
0
 10
30.5
 20
11.7
 11
30.4672
 21
11.3881
  0
LINE
  8
0
 10
30.4672
 20
11.3881
 11
30.3703
 21
11.0899
  0
LINE
  8
0
 10
30.3703
 20
11.0899
 11
30.2135
 21
10.8183
  0
LINE
  8
0
 10
30.2135
 20
10.8183
 11
30.0037
 21
10.5853
  0
LINE
  8
0
 10
30.0037
 20
10.5853
 11
29.75
 21
10.401
  0
LINE
  8
0
 10
29.75
 20
10.401
 11
29.4635
 21
10.2734
  0
LINE
  8
0
 10
29.4635
 20
10.2734
 11
29.1568
 21
10.2082
  0
LINE
  8
0
 10
29.1568
 20
10.2082
 11
28.8432
 21
10.2082
  0
LINE
  8
0
 10
-29.1568
 20
10.2082
 11
-29.4635
 21
10.2734
  0
LINE
  8
0
 10
-29.4635
 20
10.2734
 11
-29.75
 21
10.401
  0
LINE
  8
0
 10
-29.75
 20
10.401
 11
-30.0037
 21
10.5853
  0
LINE
  8
0
 10
-30.0037
 20
10.5853
 11
-30.2135
 21
10.8183
  0
LINE
  8
0
 10
-30.2135
 20
10.8183
 11
-30.3703
 21
11.0899
  0
LINE
  8
0
 10
-30.3703
 20
11.0899
 11
-30.4672
 21
11.3881
  0
LINE
  8
0
 10
-30.4672
 20
11.3881
 11
-30.5
 21
11.7
  0
LINE
  8
0
 10
-30.5
 20
11.7
 11
-30.5
 21
29.7
  0
LINE
  8
0
 10
-30.5
 20
29.7
 11
-30.4672
 21
30.0119
  0
LINE
  8
0
 10
-30.4672
 20
30.0119
 11
-30.3703
 21
30.3101
  0
LINE
  8
0
 10
-30.3703
 20
30.3101
 11
-30.2135
 21
30.5817
  0
LINE
  8
0
 10
-30.2135
 20
30.5817
 11
-30.0037
 21
30.8147
  0
LINE
  8
0
 10
-30.0037
 20
30.8147
 11
-29.75
 21
30.999
  0
LINE
  8
0
 10
-29.75
 20
30.999
 11
-29.4635
 21
31.1266
  0
LINE
  8
0
 10
-29.4635
 20
31.1266
 11
-29.1568
 21
31.1918
  0
LINE
  8
0
 10
-29.1568
 20
31.1918
 11
-28.8432
 21
31.1918
  0
LINE
  8
0
 10
-28.8432
 20
31.1918
 11
-28.5365
 21
31.1266
  0
LINE
  8
0
 10
-28.5365
 20
31.1266
 11
-28.25
 21
30.999
  0
LINE
  8
0
 10
-28.25
 20
30.999
 11
-27.9963
 21
30.8147
  0
LINE
  8
0
 10
-27.9963
 20
30.8147
 11
-27.7865
 21
30.5817
  0
LINE
  8
0
 10
-27.7865
 20
30.5817
 11
-27.6297
 21
30.3101
  0
LINE
  8
0
 10
-27.6297
 20
30.3101
 11
-27.5328
 21
30.0119
  0
LINE
  8
0
 10
-27.5328
 20
30.0119
 11
-27.5
 21
29.7
  0
LINE
  8
0
 10
-27.5
 20
29.7
 11
-27.5
 21
11.7
  0
LINE
  8
0
 10
-27.5
 20
11.7
 11
-27.5328
 21
11.3881
  0
LINE
  8
0
 10
-27.5328
 20
11.3881
 11
-27.6297
 21
11.0899
  0
LINE
  8
0
 10
-27.6297
 20
11.0899
 11
-27.7865
 21
10.8183
  0
LINE
  8
0
 10
-27.7865
 20
10.8183
 11
-27.9963
 21
10.5853
  0
LINE
  8
0
 10
-27.9963
 20
10.5853
 11
-28.25
 21
10.401
  0
LINE
  8
0
 10
-28.25
 20
10.401
 11
-28.5365
 21
10.2734
  0
LINE
  8
0
 10
-28.5365
 20
10.2734
 11
-28.8432
 21
10.2082
  0
LINE
  8
0
 10
-28.8432
 20
10.2082
 11
-29.1568
 21
10.2082
  0
LINE
  8
0
 10
46.686
 20
18.6667
 11
46.686
 21
22.6667
  0
LINE
  8
0
 10
46.686
 20
22.6667
 11
48.686
 21
22.6667
  0
LINE
  8
0
 10
48.686
 20
22.6667
 11
48.686
 21
18.6667
  0
LINE
  8
0
 10
48.686
 20
18.6667
 11
46.686
 21
18.6667
  0
LINE
  8
0
 10
-48.686
 20
18.6667
 11
-48.686
 21
22.6667
  0
LINE
  8
0
 10
-48.686
 20
22.6667
 11
-46.686
 21
22.6667
  0
LINE
  8
0
 10
-46.686
 20
22.6667
 11
-46.686
 21
18.6667
  0
LINE
  8
0
 10
-46.686
 20
18.6667
 11
-48.686
 21
18.6667
  0
LINE
  8
0
 10
55.686
 20
18.6667
 11
55.686
 21
22.6667
  0
LINE
  8
0
 10
55.686
 20
22.6667
 11
57.686
 21
22.6667
  0
LINE
  8
0
 10
57.686
 20
22.6667
 11
57.686
 21
18.6667
  0
LINE
  8
0
 10
57.686
 20
18.6667
 11
55.686
 21
18.6667
  0
LINE
  8
0
 10
-57.686
 20
18.6667
 11
-57.686
 21
22.6667
  0
LINE
  8
0
 10
-57.686
 20
22.6667
 11
-55.686
 21
22.6667
  0
LINE
  8
0
 10
-55.686
 20
22.6667
 11
-55.686
 21
18.6667
  0
LINE
  8
0
 10
-55.686
 20
18.6667
 11
-57.686
 21
18.6667
  0
LINE
  8
0
 10
50.571
 20
-2.86679
 11
50.5709
 21
13.8333
  0
LINE
  8
0
 10
50.5709
 20
13.8333
 11
54.3337
 21
13.8334
  0
LINE
  8
0
 10
54.3337
 20
13.8334
 11
54.3337
 21
-2.86685
  0
LINE
  8
0
 10
54.3337
 20
-2.86685
 11
50.571
 21
-2.86679
  0
LINE
  8
0
 10
-54.3338
 20
13.8333
 11
-50.571
 21
13.8334
  0
LINE
  8
0
 10
-50.571
 20
13.8334
 11
-50.5709
 21
-2.86668
  0
LINE
  8
0
 10
-50.5709
 20
-2.86668
 11
-54.3338
 21
-2.86674
  0
LINE
  8
0
 10
-54.3338
 20
-2.86674
 11
-54.3338
 21
13.8333
  0
LINE
  8
0
 10
-66.686
 20
0.843628
 11
-66.686
 21
4.84363
  0
LINE
  8
0
 10
-66.686
 20
4.84363
 11
-64.686
 21
4.84363
  0
LINE
  8
0
 10
-64.686
 20
4.84363
 11
-64.686
 21
0.843628
  0
LINE
  8
0
 10
-64.686
 20
0.843628
 11
-66.686
 21
0.843628
  0
LINE
  8
0
 10
64.686
 20
0.843628
 11
64.686
 21
4.84363
  0
LINE
  8
0
 10
64.686
 20
4.84363
 11
66.686
 21
4.84363
  0
LINE
  8
0
 10
66.686
 20
4.84363
 11
66.686
 21
0.843628
  0
LINE
  8
0
 10
66.686
 20
0.843628
 11
64.686
 21
0.843628
  0
LINE
  8
0
 10
-29.1568
 20
-21.7918
 11
-29.4635
 21
-21.7266
  0
LINE
  8
0
 10
-29.4635
 20
-21.7266
 11
-29.75
 21
-21.599
  0
LINE
  8
0
 10
-29.75
 20
-21.599
 11
-30.0037
 21
-21.4147
  0
LINE
  8
0
 10
-30.0037
 20
-21.4147
 11
-30.2135
 21
-21.1817
  0
LINE
  8
0
 10
-30.2135
 20
-21.1817
 11
-30.3703
 21
-20.9101
  0
LINE
  8
0
 10
-30.3703
 20
-20.9101
 11
-30.4672
 21
-20.6119
  0
LINE
  8
0
 10
-30.4672
 20
-20.6119
 11
-30.5
 21
-20.3
  0
LINE
  8
0
 10
-30.5
 20
-20.3
 11
-30.5
 21
-2.29999
  0
LINE
  8
0
 10
-30.5
 20
-2.29999
 11
-30.4672
 21
-1.98813
  0
LINE
  8
0
 10
-30.4672
 20
-1.98813
 11
-30.3703
 21
-1.68988
  0
LINE
  8
0
 10
-30.3703
 20
-1.68988
 11
-30.2135
 21
-1.41832
  0
LINE
  8
0
 10
-30.2135
 20
-1.41832
 11
-30.0037
 21
-1.18527
  0
LINE
  8
0
 10
-30.0037
 20
-1.18527
 11
-29.75
 21
-1.00096
  0
LINE
  8
0
 10
-29.75
 20
-1.00096
 11
-29.4635
 21
-0.873413
  0
LINE
  8
0
 10
-29.4635
 20
-0.873413
 11
-29.1568
 21
-0.808212
  0
LINE
  8
0
 10
-29.1568
 20
-0.808212
 11
-28.8432
 21
-0.808212
  0
LINE
  8
0
 10
-28.8432
 20
-0.808212
 11
-28.5365
 21
-0.873413
  0
LINE
  8
0
 10
-28.5365
 20
-0.873413
 11
-28.25
 21
-1.00096
  0
LINE
  8
0
 10
-28.25
 20
-1.00096
 11
-27.9963
 21
-1.18527
  0
LINE
  8
0
 10
-27.9963
 20
-1.18527
 11
-27.7865
 21
-1.41832
  0
LINE
  8
0
 10
-27.7865
 20
-1.41832
 11
-27.6297
 21
-1.68988
  0
LINE
  8
0
 10
-27.6297
 20
-1.68988
 11
-27.5328
 21
-1.98813
  0
LINE
  8
0
 10
-27.5328
 20
-1.98813
 11
-27.5
 21
-2.29999
  0
LINE
  8
0
 10
-27.5
 20
-2.29999
 11
-27.5
 21
-20.3
  0
LINE
  8
0
 10
-27.5
 20
-20.3
 11
-27.5328
 21
-20.6119
  0
LINE
  8
0
 10
-27.5328
 20
-20.6119
 11
-27.6297
 21
-20.9101
  0
LINE
  8
0
 10
-27.6297
 20
-20.9101
 11
-27.7865
 21
-21.1817
  0
LINE
  8
0
 10
-27.7865
 20
-21.1817
 11
-27.9963
 21
-21.4147
  0
LINE
  8
0
 10
-27.9963
 20
-21.4147
 11
-28.25
 21
-21.599
  0
LINE
  8
0
 10
-28.25
 20
-21.599
 11
-28.5365
 21
-21.7266
  0
LINE
  8
0
 10
-28.5365
 20
-21.7266
 11
-28.8432
 21
-21.7918
  0
LINE
  8
0
 10
-28.8432
 20
-21.7918
 11
-29.1568
 21
-21.7918
  0
LINE
  8
0
 10
28.8432
 20
-21.7918
 11
28.5365
 21
-21.7266
  0
LINE
  8
0
 10
28.5365
 20
-21.7266
 11
28.25
 21
-21.599
  0
LINE
  8
0
 10
28.25
 20
-21.599
 11
27.9963
 21
-21.4147
  0
LINE
  8
0
 10
27.9963
 20
-21.4147
 11
27.7865
 21
-21.1817
  0
LINE
  8
0
 10
27.7865
 20
-21.1817
 11
27.6297
 21
-20.9101
  0
LINE
  8
0
 10
27.6297
 20
-20.9101
 11
27.5328
 21
-20.6119
  0
LINE
  8
0
 10
27.5328
 20
-20.6119
 11
27.5
 21
-20.3
  0
LINE
  8
0
 10
27.5
 20
-20.3
 11
27.5
 21
-2.29999
  0
LINE
  8
0
 10
27.5
 20
-2.29999
 11
27.5328
 21
-1.98813
  0
LINE
  8
0
 10
27.5328
 20
-1.98813
 11
27.6297
 21
-1.68988
  0
LINE
  8
0
 10
27.6297
 20
-1.68988
 11
27.7865
 21
-1.41832
  0
LINE
  8
0
 10
27.7865
 20
-1.41832
 11
27.9963
 21
-1.18527
  0
LINE
  8
0
 10
27.9963
 20
-1.18527
 11
28.25
 21
-1.00096
  0
LINE
  8
0
 10
28.25
 20
-1.00096
 11
28.5365
 21
-0.873413
  0
LINE
  8
0
 10
28.5365
 20
-0.873413
 11
28.8432
 21
-0.808212
  0
LINE
  8
0
 10
28.8432
 20
-0.808212
 11
29.1568
 21
-0.808212
  0
LINE
  8
0
 10
29.1568
 20
-0.808212
 11
29.4635
 21
-0.873413
  0
LINE
  8
0
 10
29.4635
 20
-0.873413
 11
29.75
 21
-1.00096
  0
LINE
  8
0
 10
29.75
 20
-1.00096
 11
30.0037
 21
-1.18527
  0
LINE
  8
0
 10
30.0037
 20
-1.18527
 11
30.2135
 21
-1.41832
  0
LINE
  8
0
 10
30.2135
 20
-1.41832
 11
30.3703
 21
-1.68988
  0
LINE
  8
0
 10
30.3703
 20
-1.68988
 11
30.4672
 21
-1.98813
  0
LINE
  8
0
 10
30.4672
 20
-1.98813
 11
30.5
 21
-2.29999
  0
LINE
  8
0
 10
30.5
 20
-2.29999
 11
30.5
 21
-20.3
  0
LINE
  8
0
 10
30.5
 20
-20.3
 11
30.4672
 21
-20.6119
  0
LINE
  8
0
 10
30.4672
 20
-20.6119
 11
30.3703
 21
-20.9101
  0
LINE
  8
0
 10
30.3703
 20
-20.9101
 11
30.2135
 21
-21.1817
  0
LINE
  8
0
 10
30.2135
 20
-21.1817
 11
30.0037
 21
-21.4147
  0
LINE
  8
0
 10
30.0037
 20
-21.4147
 11
29.75
 21
-21.599
  0
LINE
  8
0
 10
29.75
 20
-21.599
 11
29.4635
 21
-21.7266
  0
LINE
  8
0
 10
29.4635
 20
-21.7266
 11
29.1568
 21
-21.7918
  0
LINE
  8
0
 10
29.1568
 20
-21.7918
 11
28.8432
 21
-21.7918
  0
LINE
  8
0
 10
39.3432
 20
-81.8065
 11
39.0365
 21
-81.7413
  0
LINE
  8
0
 10
39.0365
 20
-81.7413
 11
38.75
 21
-81.6138
  0
LINE
  8
0
 10
38.75
 20
-81.6138
 11
38.4963
 21
-81.4295
  0
LINE
  8
0
 10
38.4963
 20
-81.4295
 11
38.2865
 21
-81.1964
  0
LINE
  8
0
 10
38.2865
 20
-81.1964
 11
38.1297
 21
-80.9248
  0
LINE
  8
0
 10
38.1297
 20
-80.9248
 11
38.0328
 21
-80.6266
  0
LINE
  8
0
 10
38.0328
 20
-80.6266
 11
38
 21
-80.3147
  0
LINE
  8
0
 10
38
 20
-80.3147
 11
38.0328
 21
-80.0029
  0
LINE
  8
0
 10
38.0328
 20
-80.0029
 11
38.1297
 21
-79.7047
  0
LINE
  8
0
 10
38.1297
 20
-79.7047
 11
38.2865
 21
-79.4331
  0
LINE
  8
0
 10
38.2865
 20
-79.4331
 11
38.4963
 21
-79.2
  0
LINE
  8
0
 10
38.4963
 20
-79.2
 11
38.75
 21
-79.0157
  0
LINE
  8
0
 10
38.75
 20
-79.0157
 11
39.0365
 21
-78.8882
  0
LINE
  8
0
 10
39.0365
 20
-78.8882
 11
39.3432
 21
-78.823
  0
LINE
  8
0
 10
39.3432
 20
-78.823
 11
39.6568
 21
-78.823
  0
LINE
  8
0
 10
39.6568
 20
-78.823
 11
39.9635
 21
-78.8882
  0
LINE
  8
0
 10
39.9635
 20
-78.8882
 11
40.25
 21
-79.0157
  0
LINE
  8
0
 10
40.25
 20
-79.0157
 11
40.5037
 21
-79.2
  0
LINE
  8
0
 10
40.5037
 20
-79.2
 11
40.7135
 21
-79.4331
  0
LINE
  8
0
 10
40.7135
 20
-79.4331
 11
40.8703
 21
-79.7047
  0
LINE
  8
0
 10
40.8703
 20
-79.7047
 11
40.9672
 21
-80.0029
  0
LINE
  8
0
 10
40.9672
 20
-80.0029
 11
41
 21
-80.3147
  0
LINE
  8
0
 10
41
 20
-80.3147
 11
40.9672
 21
-80.6266
  0
LINE
  8
0
 10
40.9672
 20
-80.6266
 11
40.8703
 21
-80.9248
  0
LINE
  8
0
 10
40.8703
 20
-80.9248
 11
40.7135
 21
-81.1964
  0
LINE
  8
0
 10
40.7135
 20
-81.1964
 11
40.5037
 21
-81.4295
  0
LINE
  8
0
 10
40.5037
 20
-81.4295
 11
40.25
 21
-81.6138
  0
LINE
  8
0
 10
40.25
 20
-81.6138
 11
39.9635
 21
-81.7413
  0
LINE
  8
0
 10
39.9635
 20
-81.7413
 11
39.6568
 21
-81.8065
  0
LINE
  8
0
 10
39.6568
 20
-81.8065
 11
39.3432
 21
-81.8065
  0
LINE
  8
0
 10
-39.6568
 20
-81.8065
 11
-39.9635
 21
-81.7413
  0
LINE
  8
0
 10
-39.9635
 20
-81.7413
 11
-40.25
 21
-81.6138
  0
LINE
  8
0
 10
-40.25
 20
-81.6138
 11
-40.5037
 21
-81.4295
  0
LINE
  8
0
 10
-40.5037
 20
-81.4295
 11
-40.7135
 21
-81.1964
  0
LINE
  8
0
 10
-40.7135
 20
-81.1964
 11
-40.8703
 21
-80.9248
  0
LINE
  8
0
 10
-40.8703
 20
-80.9248
 11
-40.9672
 21
-80.6266
  0
LINE
  8
0
 10
-40.9672
 20
-80.6266
 11
-41
 21
-80.3147
  0
LINE
  8
0
 10
-41
 20
-80.3147
 11
-40.9672
 21
-80.0029
  0
LINE
  8
0
 10
-40.9672
 20
-80.0029
 11
-40.8703
 21
-79.7047
  0
LINE
  8
0
 10
-40.8703
 20
-79.7047
 11
-40.7135
 21
-79.4331
  0
LINE
  8
0
 10
-40.7135
 20
-79.4331
 11
-40.5037
 21
-79.2
  0
LINE
  8
0
 10
-40.5037
 20
-79.2
 11
-40.25
 21
-79.0157
  0
LINE
  8
0
 10
-40.25
 20
-79.0157
 11
-39.9635
 21
-78.8882
  0
LINE
  8
0
 10
-39.9635
 20
-78.8882
 11
-39.6568
 21
-78.823
  0
LINE
  8
0
 10
-39.6568
 20
-78.823
 11
-39.3432
 21
-78.823
  0
LINE
  8
0
 10
-39.3432
 20
-78.823
 11
-39.0365
 21
-78.8882
  0
LINE
  8
0
 10
-39.0365
 20
-78.8882
 11
-38.75
 21
-79.0157
  0
LINE
  8
0
 10
-38.75
 20
-79.0157
 11
-38.4963
 21
-79.2
  0
LINE
  8
0
 10
-38.4963
 20
-79.2
 11
-38.2865
 21
-79.4331
  0
LINE
  8
0
 10
-38.2865
 20
-79.4331
 11
-38.1297
 21
-79.7047
  0
LINE
  8
0
 10
-38.1297
 20
-79.7047
 11
-38.0328
 21
-80.0029
  0
LINE
  8
0
 10
-38.0328
 20
-80.0029
 11
-38
 21
-80.3147
  0
LINE
  8
0
 10
-38
 20
-80.3147
 11
-38.0328
 21
-80.6266
  0
LINE
  8
0
 10
-38.0328
 20
-80.6266
 11
-38.1297
 21
-80.9248
  0
LINE
  8
0
 10
-38.1297
 20
-80.9248
 11
-38.2865
 21
-81.1964
  0
LINE
  8
0
 10
-38.2865
 20
-81.1964
 11
-38.4963
 21
-81.4295
  0
LINE
  8
0
 10
-38.4963
 20
-81.4295
 11
-38.75
 21
-81.6138
  0
LINE
  8
0
 10
-38.75
 20
-81.6138
 11
-39.0365
 21
-81.7413
  0
LINE
  8
0
 10
-39.0365
 20
-81.7413
 11
-39.3432
 21
-81.8065
  0
LINE
  8
0
 10
-39.3432
 20
-81.8065
 11
-39.6568
 21
-81.8065
  0
ENDSEC
  0
SECTION
  2
OBJECTS
  0
DICTIONARY
  0
ENDSEC
  0
EOF
