  0
SECTION
  2
BLOCKS
  0
ENDSEC
  0
SECTION
  2
ENTITIES
  0
LINE
  8
0
 10
68.3862
 20
27.6665
 11
68.3861
 21
41.6
  0
LINE
  8
0
 10
68.3861
 20
41.6
 11
71.686
 21
41.6001
  0
LINE
  8
0
 10
71.686
 20
41.6001
 11
71.686
 21
69.7212
  0
LINE
  8
0
 10
71.686
 20
69.7212
 11
71.1536
 21
70.265
  0
LINE
  8
0
 10
71.1536
 20
70.265
 11
70.7107
 21
70.7107
  0
LINE
  8
0
 10
70.7107
 20
70.7107
 11
70.265
 21
71.1536
  0
LINE
  8
0
 10
70.265
 20
71.1536
 11
69.8165
 21
71.5936
  0
LINE
  8
0
 10
69.8165
 20
71.5936
 11
69.3653
 21
72.0309
  0
LINE
  8
0
 10
69.3653
 20
72.0309
 11
68.9114
 21
72.4653
  0
LINE
  8
0
 10
68.9114
 20
72.4653
 11
68.4547
 21
72.8969
  0
LINE
  8
0
 10
68.4547
 20
72.8969
 11
67.9953
 21
73.3255
  0
LINE
  8
0
 10
67.9953
 20
73.3255
 11
67.5333
 21
73.7513
  0
LINE
  8
0
 10
67.5333
 20
73.7513
 11
67.0685
 21
74.1742
  0
LINE
  8
0
 10
67.0685
 20
74.1742
 11
66.6012
 21
74.5941
  0
LINE
  8
0
 10
66.6012
 20
74.5941
 11
66.1312
 21
75.0111
  0
LINE
  8
0
 10
66.1312
 20
75.0111
 11
65.6586
 21
75.4251
  0
LINE
  8
0
 10
65.6586
 20
75.4251
 11
65.1834
 21
75.8362
  0
LINE
  8
0
 10
65.1834
 20
75.8362
 11
64.7056
 21
76.2442
  0
LINE
  8
0
 10
64.7056
 20
76.2442
 11
64.2253
 21
76.6493
  0
LINE
  8
0
 10
64.2253
 20
76.6493
 11
63.7424
 21
77.0513
  0
LINE
  8
0
 10
63.7424
 20
77.0513
 11
63.257
 21
77.4503
  0
LINE
  8
0
 10
63.257
 20
77.4503
 11
62.7691
 21
77.8462
  0
LINE
  8
0
 10
62.7691
 20
77.8462
 11
62.2788
 21
78.2391
  0
LINE
  8
0
 10
62.2788
 20
78.2391
 11
61.7859
 21
78.6288
  0
LINE
  8
0
 10
61.7859
 20
78.6288
 11
61.2907
 21
79.0155
  0
LINE
  8
0
 10
61.2907
 20
79.0155
 11
60.793
 21
79.399
  0
LINE
  8
0
 10
60.793
 20
79.399
 11
60.293
 21
79.7794
  0
LINE
  8
0
 10
60.293
 20
79.7794
 11
59.7905
 21
80.1567
  0
LINE
  8
0
 10
59.7905
 20
80.1567
 11
59.2857
 21
80.5308
  0
LINE
  8
0
 10
59.2857
 20
80.5308
 11
58.7785
 21
80.9017
  0
LINE
  8
0
 10
58.7785
 20
80.9017
 11
58.269
 21
81.2694
  0
LINE
  8
0
 10
58.269
 20
81.2694
 11
57.7573
 21
81.6339
  0
LINE
  8
0
 10
57.7573
 20
81.6339
 11
57.2432
 21
81.9952
  0
LINE
  8
0
 10
57.2432
 20
81.9952
 11
56.7269
 21
82.3533
  0
LINE
  8
0
 10
56.7269
 20
82.3533
 11
56.2083
 21
82.7081
  0
LINE
  8
0
 10
56.2083
 20
82.7081
 11
55.6876
 21
83.0596
  0
LINE
  8
0
 10
55.6876
 20
83.0596
 11
55.1646
 21
83.4078
  0
LINE
  8
0
 10
55.1646
 20
83.4078
 11
54.6394
 21
83.7528
  0
LINE
  8
0
 10
54.6394
 20
83.7528
 11
54.1121
 21
84.0945
  0
LINE
  8
0
 10
54.1121
 20
84.0945
 11
53.5827
 21
84.4328
  0
LINE
  8
0
 10
53.5827
 20
84.4328
 11
53.0511
 21
84.7678
  0
LINE
  8
0
 10
53.0511
 20
84.7678
 11
52.5175
 21
85.0994
  0
LINE
  8
0
 10
52.5175
 20
85.0994
 11
51.9817
 21
85.4277
  0
LINE
  8
0
 10
51.9817
 20
85.4277
 11
51.4439
 21
85.7527
  0
LINE
  8
0
 10
51.4439
 20
85.7527
 11
50.9041
 21
86.0742
  0
LINE
  8
0
 10
50.9041
 20
86.0742
 11
50.3623
 21
86.3923
  0
LINE
  8
0
 10
50.3623
 20
86.3923
 11
49.8185
 21
86.7071
  0
LINE
  8
0
 10
49.8185
 20
86.7071
 11
49.2727
 21
87.0184
  0
LINE
  8
0
 10
49.2727
 20
87.0184
 11
48.725
 21
87.3262
  0
LINE
  8
0
 10
48.725
 20
87.3262
 11
48.1754
 21
87.6307
  0
LINE
  8
0
 10
48.1754
 20
87.6307
 11
47.6238
 21
87.9316
  0
LINE
  8
0
 10
47.6238
 20
87.9316
 11
47.0704
 21
88.2291
  0
LINE
  8
0
 10
47.0704
 20
88.2291
 11
46.5151
 21
88.5231
  0
LINE
  8
0
 10
46.5151
 20
88.5231
 11
45.958
 21
88.8136
  0
LINE
  8
0
 10
45.958
 20
88.8136
 11
45.399
 21
89.1006
  0
LINE
  8
0
 10
45.399
 20
89.1006
 11
44.8383
 21
89.3841
  0
LINE
  8
0
 10
44.8383
 20
89.3841
 11
44.2758
 21
89.6641
  0
LINE
  8
0
 10
44.2758
 20
89.6641
 11
43.7116
 21
89.9405
  0
LINE
  8
0
 10
43.7116
 20
89.9405
 11
43.1456
 21
90.2134
  0
LINE
  8
0
 10
43.1456
 20
90.2134
 11
42.5779
 21
90.4827
  0
LINE
  8
0
 10
42.5779
 20
90.4827
 11
42.0086
 21
90.7484
  0
LINE
  8
0
 10
42.0086
 20
90.7484
 11
41.4375
 21
91.0106
  0
LINE
  8
0
 10
41.4375
 20
91.0106
 11
40.8649
 21
91.2691
  0
LINE
  8
0
 10
40.8649
 20
91.2691
 11
40.2906
 21
91.5241
  0
LINE
  8
0
 10
40.2906
 20
91.5241
 11
39.7148
 21
91.7755
  0
LINE
  8
0
 10
39.7148
 20
91.7755
 11
39.1374
 21
92.0232
  0
LINE
  8
0
 10
39.1374
 20
92.0232
 11
38.5584
 21
92.2673
  0
LINE
  8
0
 10
38.5584
 20
92.2673
 11
37.9779
 21
92.5077
  0
LINE
  8
0
 10
37.9779
 20
92.5077
 11
37.3959
 21
92.7445
  0
LINE
  8
0
 10
37.3959
 20
92.7445
 11
36.8125
 21
92.9776
  0
LINE
  8
0
 10
36.8125
 20
92.9776
 11
36.2275
 21
93.2071
  0
LINE
  8
0
 10
36.2275
 20
93.2071
 11
35.6412
 21
93.4329
  0
LINE
  8
0
 10
35.6412
 20
93.4329
 11
35.0534
 21
93.655
  0
LINE
  8
0
 10
35.0534
 20
93.655
 11
34.4643
 21
93.8734
  0
LINE
  8
0
 10
34.4643
 20
93.8734
 11
33.8738
 21
94.0881
  0
LINE
  8
0
 10
33.8738
 20
94.0881
 11
33.282
 21
94.299
  0
LINE
  8
0
 10
33.282
 20
94.299
 11
32.6888
 21
94.5063
  0
LINE
  8
0
 10
32.6888
 20
94.5063
 11
32.0944
 21
94.7098
  0
LINE
  8
0
 10
32.0944
 20
94.7098
 11
31.4986
 21
94.9096
  0
LINE
  8
0
 10
31.4986
 20
94.9096
 11
30.9017
 21
95.1056
  0
LINE
  8
0
 10
30.9017
 20
95.1056
 11
30.3035
 21
95.2979
  0
LINE
  8
0
 10
30.3035
 20
95.2979
 11
29.7041
 21
95.4865
  0
LINE
  8
0
 10
29.7041
 20
95.4865
 11
29.1036
 21
95.6712
  0
LINE
  8
0
 10
29.1036
 20
95.6712
 11
28.5019
 21
95.8522
  0
LINE
  8
0
 10
28.5019
 20
95.8522
 11
27.8991
 21
96.0294
  0
LINE
  8
0
 10
27.8991
 20
96.0294
 11
27.2952
 21
96.2028
  0
LINE
  8
0
 10
27.2952
 20
96.2028
 11
26.6902
 21
96.3724
  0
LINE
  8
0
 10
26.6902
 20
96.3724
 11
26.0841
 21
96.5382
  0
LINE
  8
0
 10
26.0841
 20
96.5382
 11
25.4771
 21
96.7001
  0
LINE
  8
0
 10
25.4771
 20
96.7001
 11
24.869
 21
96.8583
  0
LINE
  8
0
 10
24.869
 20
96.8583
 11
24.2599
 21
97.0126
  0
LINE
  8
0
 10
24.2599
 20
97.0126
 11
23.6499
 21
97.1632
  0
LINE
  8
0
 10
23.6499
 20
97.1632
 11
23.0389
 21
97.3098
  0
LINE
  8
0
 10
23.0389
 20
97.3098
 11
22.4271
 21
97.4527
  0
LINE
  8
0
 10
22.4271
 20
97.4527
 11
21.8143
 21
97.5917
  0
LINE
  8
0
 10
21.8143
 20
97.5917
 11
21.2007
 21
97.7268
  0
LINE
  8
0
 10
21.2007
 20
97.7268
 11
20.5863
 21
97.8581
  0
LINE
  8
0
 10
20.5863
 20
97.8581
 11
19.971
 21
97.9855
  0
LINE
  8
0
 10
19.971
 20
97.9855
 11
19.3549
 21
98.109
  0
LINE
  8
0
 10
19.3549
 20
98.109
 11
18.7381
 21
98.2287
  0
LINE
  8
0
 10
18.7381
 20
98.2287
 11
18.1206
 21
98.3445
  0
LINE
  8
0
 10
18.1206
 20
98.3445
 11
17.5023
 21
98.4564
  0
LINE
  8
0
 10
17.5023
 20
98.4564
 11
16.8833
 21
98.5645
  0
LINE
  8
0
 10
16.8833
 20
98.5645
 11
16.2637
 21
98.6686
  0
LINE
  8
0
 10
16.2637
 20
98.6686
 11
15.6434
 21
98.7688
  0
LINE
  8
0
 10
15.6434
 20
98.7688
 11
15.0226
 21
98.8652
  0
LINE
  8
0
 10
15.0226
 20
98.8652
 11
14.4011
 21
98.9576
  0
LINE
  8
0
 10
14.4011
 20
98.9576
 11
13.779
 21
99.0461
  0
LINE
  8
0
 10
13.779
 20
99.0461
 11
13.1564
 21
99.1308
  0
LINE
  8
0
 10
13.1564
 20
99.1308
 11
12.5333
 21
99.2115
  0
LINE
  8
0
 10
12.5333
 20
99.2115
 11
11.9097
 21
99.2883
  0
LINE
  8
0
 10
11.9097
 20
99.2883
 11
11.2856
 21
99.3611
  0
LINE
  8
0
 10
11.2856
 20
99.3611
 11
10.6611
 21
99.4301
  0
LINE
  8
0
 10
10.6611
 20
99.4301
 11
10.0362
 21
99.4951
  0
LINE
  8
0
 10
10.0362
 20
99.4951
 11
9.41083
 21
99.5562
  0
LINE
  8
0
 10
9.41083
 20
99.5562
 11
8.78511
 21
99.6134
  0
LINE
  8
0
 10
8.78511
 20
99.6134
 11
8.15906
 21
99.6666
  0
LINE
  8
0
 10
8.15906
 20
99.6666
 11
7.53267
 21
99.7159
  0
LINE
  8
0
 10
7.53267
 20
99.7159
 11
6.90599
 21
99.7612
  0
LINE
  8
0
 10
6.90599
 20
99.7612
 11
6.27904
 21
99.8027
  0
LINE
  8
0
 10
6.27904
 20
99.8027
 11
5.65184
 21
99.8401
  0
LINE
  8
0
 10
5.65184
 20
99.8401
 11
5.02443
 21
99.8737
  0
LINE
  8
0
 10
5.02443
 20
99.8737
 11
4.3968
 21
99.9033
  0
LINE
  8
0
 10
4.3968
 20
99.9033
 11
3.76901
 21
99.9289
  0
LINE
  8
0
 10
3.76901
 20
99.9289
 11
3.14107
 21
99.9507
  0
LINE
  8
0
 10
3.14107
 20
99.9507
 11
2.513
 21
99.9684
  0
LINE
  8
0
 10
2.513
 20
99.9684
 11
1.88484
 21
99.9822
  0
LINE
  8
0
 10
1.88484
 20
99.9822
 11
1.25659
 21
99.9921
  0
LINE
  8
0
 10
1.25659
 20
99.9921
 11
0.628311
 21
99.998
  0
LINE
  8
0
 10
0.628311
 20
99.998
 11
0
 21
100
  0
LINE
  8
0
 10
0
 20
100
 11
-0.628311
 21
99.998
  0
LINE
  8
0
 10
-0.628311
 20
99.998
 11
-1.25659
 21
99.9921
  0
LINE
  8
0
 10
-1.25659
 20
99.9921
 11
-1.88484
 21
99.9822
  0
LINE
  8
0
 10
-1.88484
 20
99.9822
 11
-2.513
 21
99.9684
  0
LINE
  8
0
 10
-2.513
 20
99.9684
 11
-3.14107
 21
99.9507
  0
LINE
  8
0
 10
-3.14107
 20
99.9507
 11
-3.76901
 21
99.9289
  0
LINE
  8
0
 10
-3.76901
 20
99.9289
 11
-4.3968
 21
99.9033
  0
LINE
  8
0
 10
-4.3968
 20
99.9033
 11
-5.02443
 21
99.8737
  0
LINE
  8
0
 10
-5.02443
 20
99.8737
 11
-5.65184
 21
99.8401
  0
LINE
  8
0
 10
-5.65184
 20
99.8401
 11
-6.27904
 21
99.8027
  0
LINE
  8
0
 10
-6.27904
 20
99.8027
 11
-6.90599
 21
99.7612
  0
LINE
  8
0
 10
-6.90599
 20
99.7612
 11
-7.53267
 21
99.7159
  0
LINE
  8
0
 10
-7.53267
 20
99.7159
 11
-8.15906
 21
99.6666
  0
LINE
  8
0
 10
-8.15906
 20
99.6666
 11
-8.78511
 21
99.6134
  0
LINE
  8
0
 10
-8.78511
 20
99.6134
 11
-9.41083
 21
99.5562
  0
LINE
  8
0
 10
-9.41083
 20
99.5562
 11
-10.0362
 21
99.4951
  0
LINE
  8
0
 10
-10.0362
 20
99.4951
 11
-10.6611
 21
99.4301
  0
LINE
  8
0
 10
-10.6611
 20
99.4301
 11
-11.2856
 21
99.3611
  0
LINE
  8
0
 10
-11.2856
 20
99.3611
 11
-11.9097
 21
99.2883
  0
LINE
  8
0
 10
-11.9097
 20
99.2883
 11
-12.5333
 21
99.2115
  0
LINE
  8
0
 10
-12.5333
 20
99.2115
 11
-13.1564
 21
99.1308
  0
LINE
  8
0
 10
-13.1564
 20
99.1308
 11
-13.779
 21
99.0461
  0
LINE
  8
0
 10
-13.779
 20
99.0461
 11
-14.4011
 21
98.9576
  0
LINE
  8
0
 10
-14.4011
 20
98.9576
 11
-15.0226
 21
98.8652
  0
LINE
  8
0
 10
-15.0226
 20
98.8652
 11
-15.6434
 21
98.7688
  0
LINE
  8
0
 10
-15.6434
 20
98.7688
 11
-16.2637
 21
98.6686
  0
LINE
  8
0
 10
-16.2637
 20
98.6686
 11
-16.8833
 21
98.5645
  0
LINE
  8
0
 10
-16.8833
 20
98.5645
 11
-17.5023
 21
98.4564
  0
LINE
  8
0
 10
-17.5023
 20
98.4564
 11
-18.1206
 21
98.3445
  0
LINE
  8
0
 10
-18.1206
 20
98.3445
 11
-18.7381
 21
98.2287
  0
LINE
  8
0
 10
-18.7381
 20
98.2287
 11
-19.3549
 21
98.109
  0
LINE
  8
0
 10
-19.3549
 20
98.109
 11
-19.971
 21
97.9855
  0
LINE
  8
0
 10
-19.971
 20
97.9855
 11
-20.5863
 21
97.8581
  0
LINE
  8
0
 10
-20.5863
 20
97.8581
 11
-21.2007
 21
97.7268
  0
LINE
  8
0
 10
-21.2007
 20
97.7268
 11
-21.8143
 21
97.5917
  0
LINE
  8
0
 10
-21.8143
 20
97.5917
 11
-22.4271
 21
97.4527
  0
LINE
  8
0
 10
-22.4271
 20
97.4527
 11
-23.0389
 21
97.3098
  0
LINE
  8
0
 10
-23.0389
 20
97.3098
 11
-23.6499
 21
97.1632
  0
LINE
  8
0
 10
-23.6499
 20
97.1632
 11
-24.2599
 21
97.0126
  0
LINE
  8
0
 10
-24.2599
 20
97.0126
 11
-24.869
 21
96.8583
  0
LINE
  8
0
 10
-24.869
 20
96.8583
 11
-25.4771
 21
96.7001
  0
LINE
  8
0
 10
-25.4771
 20
96.7001
 11
-26.0841
 21
96.5382
  0
LINE
  8
0
 10
-26.0841
 20
96.5382
 11
-26.6902
 21
96.3724
  0
LINE
  8
0
 10
-26.6902
 20
96.3724
 11
-27.2952
 21
96.2028
  0
LINE
  8
0
 10
-27.2952
 20
96.2028
 11
-27.8991
 21
96.0294
  0
LINE
  8
0
 10
-27.8991
 20
96.0294
 11
-28.5019
 21
95.8522
  0
LINE
  8
0
 10
-28.5019
 20
95.8522
 11
-29.1036
 21
95.6712
  0
LINE
  8
0
 10
-29.1036
 20
95.6712
 11
-29.7041
 21
95.4865
  0
LINE
  8
0
 10
-29.7041
 20
95.4865
 11
-30.3035
 21
95.2979
  0
LINE
  8
0
 10
-30.3035
 20
95.2979
 11
-30.9017
 21
95.1056
  0
LINE
  8
0
 10
-30.9017
 20
95.1056
 11
-31.4986
 21
94.9096
  0
LINE
  8
0
 10
-31.4986
 20
94.9096
 11
-32.0944
 21
94.7098
  0
LINE
  8
0
 10
-32.0944
 20
94.7098
 11
-32.6888
 21
94.5063
  0
LINE
  8
0
 10
-32.6888
 20
94.5063
 11
-33.282
 21
94.299
  0
LINE
  8
0
 10
-33.282
 20
94.299
 11
-33.8738
 21
94.0881
  0
LINE
  8
0
 10
-33.8738
 20
94.0881
 11
-34.4643
 21
93.8734
  0
LINE
  8
0
 10
-34.4643
 20
93.8734
 11
-35.0534
 21
93.655
  0
LINE
  8
0
 10
-35.0534
 20
93.655
 11
-35.6412
 21
93.4329
  0
LINE
  8
0
 10
-35.6412
 20
93.4329
 11
-36.2275
 21
93.2071
  0
LINE
  8
0
 10
-36.2275
 20
93.2071
 11
-36.8125
 21
92.9776
  0
LINE
  8
0
 10
-36.8125
 20
92.9776
 11
-37.3959
 21
92.7445
  0
LINE
  8
0
 10
-37.3959
 20
92.7445
 11
-37.9779
 21
92.5077
  0
LINE
  8
0
 10
-37.9779
 20
92.5077
 11
-38.5584
 21
92.2673
  0
LINE
  8
0
 10
-38.5584
 20
92.2673
 11
-39.1374
 21
92.0232
  0
LINE
  8
0
 10
-39.1374
 20
92.0232
 11
-39.7148
 21
91.7755
  0
LINE
  8
0
 10
-39.7148
 20
91.7755
 11
-40.2906
 21
91.5241
  0
LINE
  8
0
 10
-40.2906
 20
91.5241
 11
-40.8649
 21
91.2691
  0
LINE
  8
0
 10
-40.8649
 20
91.2691
 11
-41.4375
 21
91.0106
  0
LINE
  8
0
 10
-41.4375
 20
91.0106
 11
-42.0086
 21
90.7484
  0
LINE
  8
0
 10
-42.0086
 20
90.7484
 11
-42.5779
 21
90.4827
  0
LINE
  8
0
 10
-42.5779
 20
90.4827
 11
-43.1456
 21
90.2134
  0
LINE
  8
0
 10
-43.1456
 20
90.2134
 11
-43.7116
 21
89.9405
  0
LINE
  8
0
 10
-43.7116
 20
89.9405
 11
-44.2758
 21
89.6641
  0
LINE
  8
0
 10
-44.2758
 20
89.6641
 11
-44.8383
 21
89.3841
  0
LINE
  8
0
 10
-44.8383
 20
89.3841
 11
-45.399
 21
89.1006
  0
LINE
  8
0
 10
-45.399
 20
89.1006
 11
-45.958
 21
88.8136
  0
LINE
  8
0
 10
-45.958
 20
88.8136
 11
-46.5151
 21
88.5231
  0
LINE
  8
0
 10
-46.5151
 20
88.5231
 11
-47.0704
 21
88.2291
  0
LINE
  8
0
 10
-47.0704
 20
88.2291
 11
-47.6238
 21
87.9316
  0
LINE
  8
0
 10
-47.6238
 20
87.9316
 11
-48.1754
 21
87.6307
  0
LINE
  8
0
 10
-48.1754
 20
87.6307
 11
-48.725
 21
87.3262
  0
LINE
  8
0
 10
-48.725
 20
87.3262
 11
-49.2727
 21
87.0184
  0
LINE
  8
0
 10
-49.2727
 20
87.0184
 11
-49.8185
 21
86.7071
  0
LINE
  8
0
 10
-49.8185
 20
86.7071
 11
-50.3623
 21
86.3923
  0
LINE
  8
0
 10
-50.3623
 20
86.3923
 11
-50.9041
 21
86.0742
  0
LINE
  8
0
 10
-50.9041
 20
86.0742
 11
-51.4439
 21
85.7527
  0
LINE
  8
0
 10
-51.4439
 20
85.7527
 11
-51.9817
 21
85.4277
  0
LINE
  8
0
 10
-51.9817
 20
85.4277
 11
-52.5175
 21
85.0994
  0
LINE
  8
0
 10
-52.5175
 20
85.0994
 11
-53.0511
 21
84.7678
  0
LINE
  8
0
 10
-53.0511
 20
84.7678
 11
-53.5827
 21
84.4328
  0
LINE
  8
0
 10
-53.5827
 20
84.4328
 11
-54.1121
 21
84.0945
  0
LINE
  8
0
 10
-54.1121
 20
84.0945
 11
-54.6394
 21
83.7528
  0
LINE
  8
0
 10
-54.6394
 20
83.7528
 11
-55.1646
 21
83.4078
  0
LINE
  8
0
 10
-55.1646
 20
83.4078
 11
-55.6876
 21
83.0596
  0
LINE
  8
0
 10
-55.6876
 20
83.0596
 11
-56.2083
 21
82.7081
  0
LINE
  8
0
 10
-56.2083
 20
82.7081
 11
-56.7269
 21
82.3533
  0
LINE
  8
0
 10
-56.7269
 20
82.3533
 11
-57.2432
 21
81.9952
  0
LINE
  8
0
 10
-57.2432
 20
81.9952
 11
-57.7573
 21
81.6339
  0
LINE
  8
0
 10
-57.7573
 20
81.6339
 11
-58.269
 21
81.2694
  0
LINE
  8
0
 10
-58.269
 20
81.2694
 11
-58.7785
 21
80.9017
  0
LINE
  8
0
 10
-58.7785
 20
80.9017
 11
-59.2857
 21
80.5308
  0
LINE
  8
0
 10
-59.2857
 20
80.5308
 11
-59.7905
 21
80.1567
  0
LINE
  8
0
 10
-59.7905
 20
80.1567
 11
-60.293
 21
79.7794
  0
LINE
  8
0
 10
-60.293
 20
79.7794
 11
-60.793
 21
79.399
  0
LINE
  8
0
 10
-60.793
 20
79.399
 11
-61.2907
 21
79.0155
  0
LINE
  8
0
 10
-61.2907
 20
79.0155
 11
-61.7859
 21
78.6288
  0
LINE
  8
0
 10
-61.7859
 20
78.6288
 11
-62.2788
 21
78.2391
  0
LINE
  8
0
 10
-62.2788
 20
78.2391
 11
-62.7691
 21
77.8462
  0
LINE
  8
0
 10
-62.7691
 20
77.8462
 11
-63.257
 21
77.4503
  0
LINE
  8
0
 10
-63.257
 20
77.4503
 11
-63.7424
 21
77.0513
  0
LINE
  8
0
 10
-63.7424
 20
77.0513
 11
-64.2253
 21
76.6493
  0
LINE
  8
0
 10
-64.2253
 20
76.6493
 11
-64.7056
 21
76.2442
  0
LINE
  8
0
 10
-64.7056
 20
76.2442
 11
-65.1834
 21
75.8362
  0
LINE
  8
0
 10
-65.1834
 20
75.8362
 11
-65.6586
 21
75.4251
  0
LINE
  8
0
 10
-65.6586
 20
75.4251
 11
-66.1312
 21
75.0111
  0
LINE
  8
0
 10
-66.1312
 20
75.0111
 11
-66.6012
 21
74.5941
  0
LINE
  8
0
 10
-66.6012
 20
74.5941
 11
-67.0685
 21
74.1742
  0
LINE
  8
0
 10
-67.0685
 20
74.1742
 11
-67.5333
 21
73.7513
  0
LINE
  8
0
 10
-67.5333
 20
73.7513
 11
-67.9953
 21
73.3255
  0
LINE
  8
0
 10
-67.9953
 20
73.3255
 11
-68.4547
 21
72.8969
  0
LINE
  8
0
 10
-68.4547
 20
72.8969
 11
-68.9114
 21
72.4653
  0
LINE
  8
0
 10
-68.9114
 20
72.4653
 11
-69.3653
 21
72.0309
  0
LINE
  8
0
 10
-69.3653
 20
72.0309
 11
-69.8165
 21
71.5936
  0
LINE
  8
0
 10
-69.8165
 20
71.5936
 11
-70.265
 21
71.1536
  0
LINE
  8
0
 10
-70.265
 20
71.1536
 11
-70.7107
 21
70.7107
  0
LINE
  8
0
 10
-70.7107
 20
70.7107
 11
-71.1536
 21
70.265
  0
LINE
  8
0
 10
-71.1536
 20
70.265
 11
-71.686
 21
69.7212
  0
LINE
  8
0
 10
-71.686
 20
69.7212
 11
-71.686
 21
41.6
  0
LINE
  8
0
 10
-71.686
 20
41.6
 11
-68.3862
 21
41.6001
  0
LINE
  8
0
 10
-68.3862
 20
41.6001
 11
-68.3862
 21
27.6665
  0
LINE
  8
0
 10
-68.3862
 20
27.6665
 11
-71.686
 21
27.6665
  0
LINE
  8
0
 10
-71.686
 20
27.6665
 11
-71.686
 21
13.8333
  0
LINE
  8
0
 10
-71.686
 20
13.8333
 11
-68.3862
 21
13.8334
  0
LINE
  8
0
 10
-68.3862
 20
13.8334
 11
-68.3862
 21
-2.86659
  0
LINE
  8
0
 10
-68.3862
 20
-2.86659
 11
-71.686
 21
-2.86659
  0
LINE
  8
0
 10
-71.686
 20
-2.86659
 11
-71.686
 21
-69.7212
  0
LINE
  8
0
 10
-71.686
 20
-69.7212
 11
-71.1536
 21
-70.265
  0
LINE
  8
0
 10
-71.1536
 20
-70.265
 11
-70.7107
 21
-70.7107
  0
LINE
  8
0
 10
-70.7107
 20
-70.7107
 11
-70.265
 21
-71.1536
  0
LINE
  8
0
 10
-70.265
 20
-71.1536
 11
-69.8165
 21
-71.5936
  0
LINE
  8
0
 10
-69.8165
 20
-71.5936
 11
-69.3653
 21
-72.0309
  0
LINE
  8
0
 10
-69.3653
 20
-72.0309
 11
-68.9114
 21
-72.4653
  0
LINE
  8
0
 10
-68.9114
 20
-72.4653
 11
-68.4547
 21
-72.8969
  0
LINE
  8
0
 10
-68.4547
 20
-72.8969
 11
-67.9953
 21
-73.3255
  0
LINE
  8
0
 10
-67.9953
 20
-73.3255
 11
-67.5333
 21
-73.7513
  0
LINE
  8
0
 10
-67.5333
 20
-73.7513
 11
-67.0685
 21
-74.1742
  0
LINE
  8
0
 10
-67.0685
 20
-74.1742
 11
-66.6012
 21
-74.5941
  0
LINE
  8
0
 10
-66.6012
 20
-74.5941
 11
-66.1312
 21
-75.0111
  0
LINE
  8
0
 10
-66.1312
 20
-75.0111
 11
-65.6586
 21
-75.4251
  0
LINE
  8
0
 10
-65.6586
 20
-75.4251
 11
-65.1834
 21
-75.8362
  0
LINE
  8
0
 10
-65.1834
 20
-75.8362
 11
-64.7056
 21
-76.2442
  0
LINE
  8
0
 10
-64.7056
 20
-76.2442
 11
-64.2253
 21
-76.6493
  0
LINE
  8
0
 10
-64.2253
 20
-76.6493
 11
-63.7424
 21
-77.0513
  0
LINE
  8
0
 10
-63.7424
 20
-77.0513
 11
-63.257
 21
-77.4503
  0
LINE
  8
0
 10
-63.257
 20
-77.4503
 11
-62.7691
 21
-77.8462
  0
LINE
  8
0
 10
-62.7691
 20
-77.8462
 11
-62.2788
 21
-78.2391
  0
LINE
  8
0
 10
-62.2788
 20
-78.2391
 11
-61.7859
 21
-78.6288
  0
LINE
  8
0
 10
-61.7859
 20
-78.6288
 11
-61.2907
 21
-79.0155
  0
LINE
  8
0
 10
-61.2907
 20
-79.0155
 11
-60.793
 21
-79.399
  0
LINE
  8
0
 10
-60.793
 20
-79.399
 11
-60.293
 21
-79.7794
  0
LINE
  8
0
 10
-60.293
 20
-79.7794
 11
-59.7905
 21
-80.1567
  0
LINE
  8
0
 10
-59.7905
 20
-80.1567
 11
-59.2857
 21
-80.5308
  0
LINE
  8
0
 10
-59.2857
 20
-80.5308
 11
-58.7785
 21
-80.9017
  0
LINE
  8
0
 10
-58.7785
 20
-80.9017
 11
-58.269
 21
-81.2694
  0
LINE
  8
0
 10
-58.269
 20
-81.2694
 11
-57.7573
 21
-81.6339
  0
LINE
  8
0
 10
-57.7573
 20
-81.6339
 11
-57.2432
 21
-81.9952
  0
LINE
  8
0
 10
-57.2432
 20
-81.9952
 11
-56.7269
 21
-82.3533
  0
LINE
  8
0
 10
-56.7269
 20
-82.3533
 11
-56.2083
 21
-82.7081
  0
LINE
  8
0
 10
-56.2083
 20
-82.7081
 11
-55.6876
 21
-83.0596
  0
LINE
  8
0
 10
-55.6876
 20
-83.0596
 11
-55.1646
 21
-83.4078
  0
LINE
  8
0
 10
-55.1646
 20
-83.4078
 11
-54.6394
 21
-83.7528
  0
LINE
  8
0
 10
-54.6394
 20
-83.7528
 11
-54.1121
 21
-84.0945
  0
LINE
  8
0
 10
-54.1121
 20
-84.0945
 11
-53.5827
 21
-84.4328
  0
LINE
  8
0
 10
-53.5827
 20
-84.4328
 11
-53.0511
 21
-84.7678
  0
LINE
  8
0
 10
-53.0511
 20
-84.7678
 11
-52.5175
 21
-85.0994
  0
LINE
  8
0
 10
-52.5175
 20
-85.0994
 11
-51.9817
 21
-85.4277
  0
LINE
  8
0
 10
-51.9817
 20
-85.4277
 11
-51.4439
 21
-85.7527
  0
LINE
  8
0
 10
-51.4439
 20
-85.7527
 11
-50.9041
 21
-86.0742
  0
LINE
  8
0
 10
-50.9041
 20
-86.0742
 11
-50.3623
 21
-86.3923
  0
LINE
  8
0
 10
-50.3623
 20
-86.3923
 11
-49.8185
 21
-86.7071
  0
LINE
  8
0
 10
-49.8185
 20
-86.7071
 11
-49.2727
 21
-87.0184
  0
LINE
  8
0
 10
-49.2727
 20
-87.0184
 11
-48.725
 21
-87.3262
  0
LINE
  8
0
 10
-48.725
 20
-87.3262
 11
-48.1754
 21
-87.6307
  0
LINE
  8
0
 10
-48.1754
 20
-87.6307
 11
-47.6238
 21
-87.9316
  0
LINE
  8
0
 10
-47.6238
 20
-87.9316
 11
-47.0704
 21
-88.2291
  0
LINE
  8
0
 10
-47.0704
 20
-88.2291
 11
-46.5151
 21
-88.5231
  0
LINE
  8
0
 10
-46.5151
 20
-88.5231
 11
-45.958
 21
-88.8136
  0
LINE
  8
0
 10
-45.958
 20
-88.8136
 11
-45.399
 21
-89.1006
  0
LINE
  8
0
 10
-45.399
 20
-89.1006
 11
-44.8383
 21
-89.3841
  0
LINE
  8
0
 10
-44.8383
 20
-89.3841
 11
-44.2758
 21
-89.6641
  0
LINE
  8
0
 10
-44.2758
 20
-89.6641
 11
-43.7116
 21
-89.9405
  0
LINE
  8
0
 10
-43.7116
 20
-89.9405
 11
-43.1456
 21
-90.2134
  0
LINE
  8
0
 10
-43.1456
 20
-90.2134
 11
-42.5779
 21
-90.4827
  0
LINE
  8
0
 10
-42.5779
 20
-90.4827
 11
-42.0086
 21
-90.7484
  0
LINE
  8
0
 10
-42.0086
 20
-90.7484
 11
-41.4375
 21
-91.0106
  0
LINE
  8
0
 10
-41.4375
 20
-91.0106
 11
-40.8649
 21
-91.2691
  0
LINE
  8
0
 10
-40.8649
 20
-91.2691
 11
-40.2906
 21
-91.5241
  0
LINE
  8
0
 10
-40.2906
 20
-91.5241
 11
-39.7148
 21
-91.7755
  0
LINE
  8
0
 10
-39.7148
 20
-91.7755
 11
-39.1374
 21
-92.0232
  0
LINE
  8
0
 10
-39.1374
 20
-92.0232
 11
-38.5584
 21
-92.2673
  0
LINE
  8
0
 10
-38.5584
 20
-92.2673
 11
-37.9779
 21
-92.5077
  0
LINE
  8
0
 10
-37.9779
 20
-92.5077
 11
-37.3959
 21
-92.7445
  0
LINE
  8
0
 10
-37.3959
 20
-92.7445
 11
-36.8125
 21
-92.9776
  0
LINE
  8
0
 10
-36.8125
 20
-92.9776
 11
-36.2275
 21
-93.2071
  0
LINE
  8
0
 10
-36.2275
 20
-93.2071
 11
-35.6412
 21
-93.4329
  0
LINE
  8
0
 10
-35.6412
 20
-93.4329
 11
-35.0534
 21
-93.655
  0
LINE
  8
0
 10
-35.0534
 20
-93.655
 11
-34.4643
 21
-93.8734
  0
LINE
  8
0
 10
-34.4643
 20
-93.8734
 11
-33.8738
 21
-94.0881
  0
LINE
  8
0
 10
-33.8738
 20
-94.0881
 11
-33.282
 21
-94.299
  0
LINE
  8
0
 10
-33.282
 20
-94.299
 11
-32.6888
 21
-94.5063
  0
LINE
  8
0
 10
-32.6888
 20
-94.5063
 11
-32.0944
 21
-94.7098
  0
LINE
  8
0
 10
-32.0944
 20
-94.7098
 11
-31.4986
 21
-94.9096
  0
LINE
  8
0
 10
-31.4986
 20
-94.9096
 11
-30.9017
 21
-95.1056
  0
LINE
  8
0
 10
-30.9017
 20
-95.1056
 11
-30.3035
 21
-95.2979
  0
LINE
  8
0
 10
-30.3035
 20
-95.2979
 11
-29.7041
 21
-95.4865
  0
LINE
  8
0
 10
-29.7041
 20
-95.4865
 11
-29.1036
 21
-95.6712
  0
LINE
  8
0
 10
-29.1036
 20
-95.6712
 11
-28.5019
 21
-95.8522
  0
LINE
  8
0
 10
-28.5019
 20
-95.8522
 11
-27.8991
 21
-96.0294
  0
LINE
  8
0
 10
-27.8991
 20
-96.0294
 11
-27.2952
 21
-96.2028
  0
LINE
  8
0
 10
-27.2952
 20
-96.2028
 11
-26.6902
 21
-96.3724
  0
LINE
  8
0
 10
-26.6902
 20
-96.3724
 11
-26.0841
 21
-96.5382
  0
LINE
  8
0
 10
-26.0841
 20
-96.5382
 11
-25.4771
 21
-96.7001
  0
LINE
  8
0
 10
-25.4771
 20
-96.7001
 11
-24.869
 21
-96.8583
  0
LINE
  8
0
 10
-24.869
 20
-96.8583
 11
-24.2599
 21
-97.0126
  0
LINE
  8
0
 10
-24.2599
 20
-97.0126
 11
-23.6499
 21
-97.1632
  0
LINE
  8
0
 10
-23.6499
 20
-97.1632
 11
-23.0389
 21
-97.3098
  0
LINE
  8
0
 10
-23.0389
 20
-97.3098
 11
-22.4271
 21
-97.4527
  0
LINE
  8
0
 10
-22.4271
 20
-97.4527
 11
-21.8143
 21
-97.5917
  0
LINE
  8
0
 10
-21.8143
 20
-97.5917
 11
-21.2007
 21
-97.7268
  0
LINE
  8
0
 10
-21.2007
 20
-97.7268
 11
-20.5863
 21
-97.8581
  0
LINE
  8
0
 10
-20.5863
 20
-97.8581
 11
-19.971
 21
-97.9855
  0
LINE
  8
0
 10
-19.971
 20
-97.9855
 11
-19.3549
 21
-98.109
  0
LINE
  8
0
 10
-19.3549
 20
-98.109
 11
-18.7381
 21
-98.2287
  0
LINE
  8
0
 10
-18.7381
 20
-98.2287
 11
-18.1206
 21
-98.3445
  0
LINE
  8
0
 10
-18.1206
 20
-98.3445
 11
-17.5023
 21
-98.4564
  0
LINE
  8
0
 10
-17.5023
 20
-98.4564
 11
-16.8833
 21
-98.5645
  0
LINE
  8
0
 10
-16.8833
 20
-98.5645
 11
-16.2637
 21
-98.6686
  0
LINE
  8
0
 10
-16.2637
 20
-98.6686
 11
-15.6434
 21
-98.7688
  0
LINE
  8
0
 10
-15.6434
 20
-98.7688
 11
-15.0226
 21
-98.8652
  0
LINE
  8
0
 10
-15.0226
 20
-98.8652
 11
-14.4011
 21
-98.9576
  0
LINE
  8
0
 10
-14.4011
 20
-98.9576
 11
-13.779
 21
-99.0461
  0
LINE
  8
0
 10
-13.779
 20
-99.0461
 11
-13.1564
 21
-99.1308
  0
LINE
  8
0
 10
-13.1564
 20
-99.1308
 11
-12.5333
 21
-99.2115
  0
LINE
  8
0
 10
-12.5333
 20
-99.2115
 11
-11.9097
 21
-99.2883
  0
LINE
  8
0
 10
-11.9097
 20
-99.2883
 11
-11.2856
 21
-99.3611
  0
LINE
  8
0
 10
-11.2856
 20
-99.3611
 11
-10.6611
 21
-99.4301
  0
LINE
  8
0
 10
-10.6611
 20
-99.4301
 11
-10.0362
 21
-99.4951
  0
LINE
  8
0
 10
-10.0362
 20
-99.4951
 11
-9.41083
 21
-99.5562
  0
LINE
  8
0
 10
-9.41083
 20
-99.5562
 11
-8.78511
 21
-99.6134
  0
LINE
  8
0
 10
-8.78511
 20
-99.6134
 11
-8.15906
 21
-99.6666
  0
LINE
  8
0
 10
-8.15906
 20
-99.6666
 11
-7.53267
 21
-99.7159
  0
LINE
  8
0
 10
-7.53267
 20
-99.7159
 11
-6.90599
 21
-99.7612
  0
LINE
  8
0
 10
-6.90599
 20
-99.7612
 11
-6.27904
 21
-99.8027
  0
LINE
  8
0
 10
-6.27904
 20
-99.8027
 11
-5.65184
 21
-99.8401
  0
LINE
  8
0
 10
-5.65184
 20
-99.8401
 11
-5.02443
 21
-99.8737
  0
LINE
  8
0
 10
-5.02443
 20
-99.8737
 11
-4.3968
 21
-99.9033
  0
LINE
  8
0
 10
-4.3968
 20
-99.9033
 11
-3.76901
 21
-99.9289
  0
LINE
  8
0
 10
-3.76901
 20
-99.9289
 11
-3.14107
 21
-99.9507
  0
LINE
  8
0
 10
-3.14107
 20
-99.9507
 11
-2.513
 21
-99.9684
  0
LINE
  8
0
 10
-2.513
 20
-99.9684
 11
-1.88484
 21
-99.9822
  0
LINE
  8
0
 10
-1.88484
 20
-99.9822
 11
-1.25659
 21
-99.9921
  0
LINE
  8
0
 10
-1.25659
 20
-99.9921
 11
-0.628311
 21
-99.998
  0
LINE
  8
0
 10
-0.628311
 20
-99.998
 11
0
 21
-100
  0
LINE
  8
0
 10
0
 20
-100
 11
0.628311
 21
-99.998
  0
LINE
  8
0
 10
0.628311
 20
-99.998
 11
1.25659
 21
-99.9921
  0
LINE
  8
0
 10
1.25659
 20
-99.9921
 11
1.88484
 21
-99.9822
  0
LINE
  8
0
 10
1.88484
 20
-99.9822
 11
2.513
 21
-99.9684
  0
LINE
  8
0
 10
2.513
 20
-99.9684
 11
3.14107
 21
-99.9507
  0
LINE
  8
0
 10
3.14107
 20
-99.9507
 11
3.76901
 21
-99.9289
  0
LINE
  8
0
 10
3.76901
 20
-99.9289
 11
4.3968
 21
-99.9033
  0
LINE
  8
0
 10
4.3968
 20
-99.9033
 11
5.02443
 21
-99.8737
  0
LINE
  8
0
 10
5.02443
 20
-99.8737
 11
5.65184
 21
-99.8401
  0
LINE
  8
0
 10
5.65184
 20
-99.8401
 11
6.27904
 21
-99.8027
  0
LINE
  8
0
 10
6.27904
 20
-99.8027
 11
6.90599
 21
-99.7612
  0
LINE
  8
0
 10
6.90599
 20
-99.7612
 11
7.53267
 21
-99.7159
  0
LINE
  8
0
 10
7.53267
 20
-99.7159
 11
8.15906
 21
-99.6666
  0
LINE
  8
0
 10
8.15906
 20
-99.6666
 11
8.78511
 21
-99.6134
  0
LINE
  8
0
 10
8.78511
 20
-99.6134
 11
9.41083
 21
-99.5562
  0
LINE
  8
0
 10
9.41083
 20
-99.5562
 11
10.0362
 21
-99.4951
  0
LINE
  8
0
 10
10.0362
 20
-99.4951
 11
10.6611
 21
-99.4301
  0
LINE
  8
0
 10
10.6611
 20
-99.4301
 11
11.2856
 21
-99.3611
  0
LINE
  8
0
 10
11.2856
 20
-99.3611
 11
11.9097
 21
-99.2883
  0
LINE
  8
0
 10
11.9097
 20
-99.2883
 11
12.5333
 21
-99.2115
  0
LINE
  8
0
 10
12.5333
 20
-99.2115
 11
13.1564
 21
-99.1308
  0
LINE
  8
0
 10
13.1564
 20
-99.1308
 11
13.779
 21
-99.0461
  0
LINE
  8
0
 10
13.779
 20
-99.0461
 11
14.4011
 21
-98.9576
  0
LINE
  8
0
 10
14.4011
 20
-98.9576
 11
15.0226
 21
-98.8652
  0
LINE
  8
0
 10
15.0226
 20
-98.8652
 11
15.6434
 21
-98.7688
  0
LINE
  8
0
 10
15.6434
 20
-98.7688
 11
16.2637
 21
-98.6686
  0
LINE
  8
0
 10
16.2637
 20
-98.6686
 11
16.8833
 21
-98.5645
  0
LINE
  8
0
 10
16.8833
 20
-98.5645
 11
17.5023
 21
-98.4564
  0
LINE
  8
0
 10
17.5023
 20
-98.4564
 11
18.1206
 21
-98.3445
  0
LINE
  8
0
 10
18.1206
 20
-98.3445
 11
18.7381
 21
-98.2287
  0
LINE
  8
0
 10
18.7381
 20
-98.2287
 11
19.3549
 21
-98.109
  0
LINE
  8
0
 10
19.3549
 20
-98.109
 11
19.971
 21
-97.9855
  0
LINE
  8
0
 10
19.971
 20
-97.9855
 11
20.5863
 21
-97.8581
  0
LINE
  8
0
 10
20.5863
 20
-97.8581
 11
21.2007
 21
-97.7268
  0
LINE
  8
0
 10
21.2007
 20
-97.7268
 11
21.8143
 21
-97.5917
  0
LINE
  8
0
 10
21.8143
 20
-97.5917
 11
22.4271
 21
-97.4527
  0
LINE
  8
0
 10
22.4271
 20
-97.4527
 11
23.0389
 21
-97.3098
  0
LINE
  8
0
 10
23.0389
 20
-97.3098
 11
23.6499
 21
-97.1632
  0
LINE
  8
0
 10
23.6499
 20
-97.1632
 11
24.2599
 21
-97.0126
  0
LINE
  8
0
 10
24.2599
 20
-97.0126
 11
24.869
 21
-96.8583
  0
LINE
  8
0
 10
24.869
 20
-96.8583
 11
25.4771
 21
-96.7001
  0
LINE
  8
0
 10
25.4771
 20
-96.7001
 11
26.0841
 21
-96.5382
  0
LINE
  8
0
 10
26.0841
 20
-96.5382
 11
26.6902
 21
-96.3724
  0
LINE
  8
0
 10
26.6902
 20
-96.3724
 11
27.2952
 21
-96.2028
  0
LINE
  8
0
 10
27.2952
 20
-96.2028
 11
27.8991
 21
-96.0294
  0
LINE
  8
0
 10
27.8991
 20
-96.0294
 11
28.5019
 21
-95.8522
  0
LINE
  8
0
 10
28.5019
 20
-95.8522
 11
29.1036
 21
-95.6712
  0
LINE
  8
0
 10
29.1036
 20
-95.6712
 11
29.7041
 21
-95.4865
  0
LINE
  8
0
 10
29.7041
 20
-95.4865
 11
30.3035
 21
-95.2979
  0
LINE
  8
0
 10
30.3035
 20
-95.2979
 11
30.9017
 21
-95.1056
  0
LINE
  8
0
 10
30.9017
 20
-95.1056
 11
31.4986
 21
-94.9096
  0
LINE
  8
0
 10
31.4986
 20
-94.9096
 11
32.0944
 21
-94.7098
  0
LINE
  8
0
 10
32.0944
 20
-94.7098
 11
32.6888
 21
-94.5063
  0
LINE
  8
0
 10
32.6888
 20
-94.5063
 11
33.282
 21
-94.299
  0
LINE
  8
0
 10
33.282
 20
-94.299
 11
33.8738
 21
-94.0881
  0
LINE
  8
0
 10
33.8738
 20
-94.0881
 11
34.4643
 21
-93.8734
  0
LINE
  8
0
 10
34.4643
 20
-93.8734
 11
35.0534
 21
-93.655
  0
LINE
  8
0
 10
35.0534
 20
-93.655
 11
35.6412
 21
-93.4329
  0
LINE
  8
0
 10
35.6412
 20
-93.4329
 11
36.2275
 21
-93.2071
  0
LINE
  8
0
 10
36.2275
 20
-93.2071
 11
36.8125
 21
-92.9776
  0
LINE
  8
0
 10
36.8125
 20
-92.9776
 11
37.3959
 21
-92.7445
  0
LINE
  8
0
 10
37.3959
 20
-92.7445
 11
37.9779
 21
-92.5077
  0
LINE
  8
0
 10
37.9779
 20
-92.5077
 11
38.5584
 21
-92.2673
  0
LINE
  8
0
 10
38.5584
 20
-92.2673
 11
39.1374
 21
-92.0232
  0
LINE
  8
0
 10
39.1374
 20
-92.0232
 11
39.7148
 21
-91.7755
  0
LINE
  8
0
 10
39.7148
 20
-91.7755
 11
40.2906
 21
-91.5241
  0
LINE
  8
0
 10
40.2906
 20
-91.5241
 11
40.8649
 21
-91.2691
  0
LINE
  8
0
 10
40.8649
 20
-91.2691
 11
41.4375
 21
-91.0106
  0
LINE
  8
0
 10
41.4375
 20
-91.0106
 11
42.0086
 21
-90.7484
  0
LINE
  8
0
 10
42.0086
 20
-90.7484
 11
42.5779
 21
-90.4827
  0
LINE
  8
0
 10
42.5779
 20
-90.4827
 11
43.1456
 21
-90.2134
  0
LINE
  8
0
 10
43.1456
 20
-90.2134
 11
43.7116
 21
-89.9405
  0
LINE
  8
0
 10
43.7116
 20
-89.9405
 11
44.2758
 21
-89.6641
  0
LINE
  8
0
 10
44.2758
 20
-89.6641
 11
44.8383
 21
-89.3841
  0
LINE
  8
0
 10
44.8383
 20
-89.3841
 11
45.399
 21
-89.1006
  0
LINE
  8
0
 10
45.399
 20
-89.1006
 11
45.958
 21
-88.8136
  0
LINE
  8
0
 10
45.958
 20
-88.8136
 11
46.5151
 21
-88.5231
  0
LINE
  8
0
 10
46.5151
 20
-88.5231
 11
47.0704
 21
-88.2291
  0
LINE
  8
0
 10
47.0704
 20
-88.2291
 11
47.6238
 21
-87.9316
  0
LINE
  8
0
 10
47.6238
 20
-87.9316
 11
48.1754
 21
-87.6307
  0
LINE
  8
0
 10
48.1754
 20
-87.6307
 11
48.725
 21
-87.3262
  0
LINE
  8
0
 10
48.725
 20
-87.3262
 11
49.2727
 21
-87.0184
  0
LINE
  8
0
 10
49.2727
 20
-87.0184
 11
49.8185
 21
-86.7071
  0
LINE
  8
0
 10
49.8185
 20
-86.7071
 11
50.3623
 21
-86.3923
  0
LINE
  8
0
 10
50.3623
 20
-86.3923
 11
50.9041
 21
-86.0742
  0
LINE
  8
0
 10
50.9041
 20
-86.0742
 11
51.4439
 21
-85.7527
  0
LINE
  8
0
 10
51.4439
 20
-85.7527
 11
51.9817
 21
-85.4277
  0
LINE
  8
0
 10
51.9817
 20
-85.4277
 11
52.5175
 21
-85.0994
  0
LINE
  8
0
 10
52.5175
 20
-85.0994
 11
53.0511
 21
-84.7678
  0
LINE
  8
0
 10
53.0511
 20
-84.7678
 11
53.5827
 21
-84.4328
  0
LINE
  8
0
 10
53.5827
 20
-84.4328
 11
54.1121
 21
-84.0945
  0
LINE
  8
0
 10
54.1121
 20
-84.0945
 11
54.6394
 21
-83.7528
  0
LINE
  8
0
 10
54.6394
 20
-83.7528
 11
55.1646
 21
-83.4078
  0
LINE
  8
0
 10
55.1646
 20
-83.4078
 11
55.6876
 21
-83.0596
  0
LINE
  8
0
 10
55.6876
 20
-83.0596
 11
56.2083
 21
-82.7081
  0
LINE
  8
0
 10
56.2083
 20
-82.7081
 11
56.7269
 21
-82.3533
  0
LINE
  8
0
 10
56.7269
 20
-82.3533
 11
57.2432
 21
-81.9952
  0
LINE
  8
0
 10
57.2432
 20
-81.9952
 11
57.7573
 21
-81.6339
  0
LINE
  8
0
 10
57.7573
 20
-81.6339
 11
58.269
 21
-81.2694
  0
LINE
  8
0
 10
58.269
 20
-81.2694
 11
58.7785
 21
-80.9017
  0
LINE
  8
0
 10
58.7785
 20
-80.9017
 11
59.2857
 21
-80.5308
  0
LINE
  8
0
 10
59.2857
 20
-80.5308
 11
59.7905
 21
-80.1567
  0
LINE
  8
0
 10
59.7905
 20
-80.1567
 11
60.293
 21
-79.7794
  0
LINE
  8
0
 10
60.293
 20
-79.7794
 11
60.793
 21
-79.399
  0
LINE
  8
0
 10
60.793
 20
-79.399
 11
61.2907
 21
-79.0155
  0
LINE
  8
0
 10
61.2907
 20
-79.0155
 11
61.7859
 21
-78.6288
  0
LINE
  8
0
 10
61.7859
 20
-78.6288
 11
62.2788
 21
-78.2391
  0
LINE
  8
0
 10
62.2788
 20
-78.2391
 11
62.7691
 21
-77.8462
  0
LINE
  8
0
 10
62.7691
 20
-77.8462
 11
63.257
 21
-77.4503
  0
LINE
  8
0
 10
63.257
 20
-77.4503
 11
63.7424
 21
-77.0513
  0
LINE
  8
0
 10
63.7424
 20
-77.0513
 11
64.2253
 21
-76.6493
  0
LINE
  8
0
 10
64.2253
 20
-76.6493
 11
64.7056
 21
-76.2442
  0
LINE
  8
0
 10
64.7056
 20
-76.2442
 11
65.1834
 21
-75.8362
  0
LINE
  8
0
 10
65.1834
 20
-75.8362
 11
65.6586
 21
-75.4251
  0
LINE
  8
0
 10
65.6586
 20
-75.4251
 11
66.1312
 21
-75.0111
  0
LINE
  8
0
 10
66.1312
 20
-75.0111
 11
66.6012
 21
-74.5941
  0
LINE
  8
0
 10
66.6012
 20
-74.5941
 11
67.0685
 21
-74.1742
  0
LINE
  8
0
 10
67.0685
 20
-74.1742
 11
67.5333
 21
-73.7513
  0
LINE
  8
0
 10
67.5333
 20
-73.7513
 11
67.9953
 21
-73.3255
  0
LINE
  8
0
 10
67.9953
 20
-73.3255
 11
68.4547
 21
-72.8969
  0
LINE
  8
0
 10
68.4547
 20
-72.8969
 11
68.9114
 21
-72.4653
  0
LINE
  8
0
 10
68.9114
 20
-72.4653
 11
69.3653
 21
-72.0309
  0
LINE
  8
0
 10
69.3653
 20
-72.0309
 11
69.8165
 21
-71.5936
  0
LINE
  8
0
 10
69.8165
 20
-71.5936
 11
70.265
 21
-71.1536
  0
LINE
  8
0
 10
70.265
 20
-71.1536
 11
70.7107
 21
-70.7107
  0
LINE
  8
0
 10
70.7107
 20
-70.7107
 11
71.1536
 21
-70.265
  0
LINE
  8
0
 10
71.1536
 20
-70.265
 11
71.686
 21
-69.7212
  0
LINE
  8
0
 10
71.686
 20
-69.7212
 11
71.686
 21
-2.86659
  0
LINE
  8
0
 10
71.686
 20
-2.86659
 11
68.3862
 21
-2.86659
  0
LINE
  8
0
 10
68.3862
 20
-2.86659
 11
68.3861
 21
13.8333
  0
LINE
  8
0
 10
68.3861
 20
13.8333
 11
71.686
 21
13.8334
  0
LINE
  8
0
 10
71.686
 20
13.8334
 11
71.686
 21
27.6665
  0
LINE
  8
0
 10
71.686
 20
27.6665
 11
68.3862
 21
27.6665
  0
LINE
  8
0
 10
-0.094162
 20
80.5029
 11
-0.187973
 21
80.5118
  0
LINE
  8
0
 10
-0.187973
 20
80.5118
 11
-0.281052
 21
80.5266
  0
LINE
  8
0
 10
-0.281052
 20
80.5266
 11
-0.373016
 21
80.5471
  0
LINE
  8
0
 10
-0.373016
 20
80.5471
 11
-0.463501
 21
80.5734
  0
LINE
  8
0
 10
-0.463501
 20
80.5734
 11
-0.55217
 21
80.6053
  0
LINE
  8
0
 10
-0.55217
 20
80.6053
 11
-0.638641
 21
80.6427
  0
LINE
  8
0
 10
-0.638641
 20
80.6427
 11
-0.72261
 21
80.6855
  0
LINE
  8
0
 10
-0.72261
 20
80.6855
 11
-0.803711
 21
80.7335
  0
LINE
  8
0
 10
-0.803711
 20
80.7335
 11
-0.881653
 21
80.7865
  0
LINE
  8
0
 10
-0.881653
 20
80.7865
 11
-0.956116
 21
80.8442
  0
LINE
  8
0
 10
-0.956116
 20
80.8442
 11
-1.02679
 21
80.9065
  0
LINE
  8
0
 10
-1.02679
 20
80.9065
 11
-1.09343
 21
80.9732
  0
LINE
  8
0
 10
-1.09343
 20
80.9732
 11
-1.15575
 21
81.0439
  0
LINE
  8
0
 10
-1.15575
 20
81.0439
 11
-1.2135
 21
81.1183
  0
LINE
  8
0
 10
-1.2135
 20
81.1183
 11
-1.26646
 21
81.1963
  0
LINE
  8
0
 10
-1.26646
 20
81.1963
 11
-1.31444
 21
81.2774
  0
LINE
  8
0
 10
-1.31444
 20
81.2774
 11
-1.35722
 21
81.3613
  0
LINE
  8
0
 10
-1.35722
 20
81.3613
 11
-1.39464
 21
81.4478
  0
LINE
  8
0
 10
-1.39464
 20
81.4478
 11
-1.42656
 21
81.5365
  0
LINE
  8
0
 10
-1.42656
 20
81.5365
 11
-1.45285
 21
81.627
  0
LINE
  8
0
 10
-1.45285
 20
81.627
 11
-1.4734
 21
81.7189
  0
LINE
  8
0
 10
-1.4734
 20
81.7189
 11
-1.48814
 21
81.812
  0
LINE
  8
0
 10
-1.48814
 20
81.812
 11
-1.49702
 21
81.9058
  0
LINE
  8
0
 10
-1.49702
 20
81.9058
 11
-1.49997
 21
82
  0
LINE
  8
0
 10
-1.49997
 20
82
 11
-1.49702
 21
82.0942
  0
LINE
  8
0
 10
-1.49702
 20
82.0942
 11
-1.48814
 21
82.188
  0
LINE
  8
0
 10
-1.48814
 20
82.188
 11
-1.4734
 21
82.2811
  0
LINE
  8
0
 10
-1.4734
 20
82.2811
 11
-1.45285
 21
82.373
  0
LINE
  8
0
 10
-1.45285
 20
82.373
 11
-1.42656
 21
82.4635
  0
LINE
  8
0
 10
-1.42656
 20
82.4635
 11
-1.39464
 21
82.5522
  0
LINE
  8
0
 10
-1.39464
 20
82.5522
 11
-1.35722
 21
82.6387
  0
LINE
  8
0
 10
-1.35722
 20
82.6387
 11
-1.31444
 21
82.7226
  0
LINE
  8
0
 10
-1.31444
 20
82.7226
 11
-1.26646
 21
82.8037
  0
LINE
  8
0
 10
-1.26646
 20
82.8037
 11
-1.2135
 21
82.8817
  0
LINE
  8
0
 10
-1.2135
 20
82.8817
 11
-1.15575
 21
82.9561
  0
LINE
  8
0
 10
-1.15575
 20
82.9561
 11
-1.09343
 21
83.0268
  0
LINE
  8
0
 10
-1.09343
 20
83.0268
 11
-1.02679
 21
83.0934
  0
LINE
  8
0
 10
-1.02679
 20
83.0934
 11
-0.956116
 21
83.1558
  0
LINE
  8
0
 10
-0.956116
 20
83.1558
 11
-0.881653
 21
83.2135
  0
LINE
  8
0
 10
-0.881653
 20
83.2135
 11
-0.803711
 21
83.2665
  0
LINE
  8
0
 10
-0.803711
 20
83.2665
 11
-0.72261
 21
83.3145
  0
LINE
  8
0
 10
-0.72261
 20
83.3145
 11
-0.638641
 21
83.3572
  0
LINE
  8
0
 10
-0.638641
 20
83.3572
 11
-0.55217
 21
83.3947
  0
LINE
  8
0
 10
-0.55217
 20
83.3947
 11
-0.463501
 21
83.4266
  0
LINE
  8
0
 10
-0.463501
 20
83.4266
 11
-0.373016
 21
83.4529
  0
LINE
  8
0
 10
-0.373016
 20
83.4529
 11
-0.281052
 21
83.4734
  0
LINE
  8
0
 10
-0.281052
 20
83.4734
 11
-0.187973
 21
83.4882
  0
LINE
  8
0
 10
-0.187973
 20
83.4882
 11
-0.094162
 21
83.497
  0
LINE
  8
0
 10
-0.094162
 20
83.497
 11
0
 21
83.5
  0
LINE
  8
0
 10
0
 20
83.5
 11
0.0941772
 21
83.497
  0
LINE
  8
0
 10
0.0941772
 20
83.497
 11
0.187988
 21
83.4882
  0
LINE
  8
0
 10
0.187988
 20
83.4882
 11
0.281067
 21
83.4734
  0
LINE
  8
0
 10
0.281067
 20
83.4734
 11
0.373032
 21
83.4529
  0
LINE
  8
0
 10
0.373032
 20
83.4529
 11
0.463516
 21
83.4266
  0
LINE
  8
0
 10
0.463516
 20
83.4266
 11
0.552185
 21
83.3947
  0
LINE
  8
0
 10
0.552185
 20
83.3947
 11
0.638657
 21
83.3572
  0
LINE
  8
0
 10
0.638657
 20
83.3572
 11
0.722626
 21
83.3145
  0
LINE
  8
0
 10
0.722626
 20
83.3145
 11
0.803726
 21
83.2665
  0
LINE
  8
0
 10
0.803726
 20
83.2665
 11
0.881668
 21
83.2135
  0
LINE
  8
0
 10
0.881668
 20
83.2135
 11
0.956131
 21
83.1558
  0
LINE
  8
0
 10
0.956131
 20
83.1558
 11
1.02681
 21
83.0934
  0
LINE
  8
0
 10
1.02681
 20
83.0934
 11
1.09344
 21
83.0268
  0
LINE
  8
0
 10
1.09344
 20
83.0268
 11
1.15576
 21
82.9561
  0
LINE
  8
0
 10
1.15576
 20
82.9561
 11
1.21352
 21
82.8817
  0
LINE
  8
0
 10
1.21352
 20
82.8817
 11
1.26648
 21
82.8037
  0
LINE
  8
0
 10
1.26648
 20
82.8037
 11
1.31445
 21
82.7226
  0
LINE
  8
0
 10
1.31445
 20
82.7226
 11
1.35724
 21
82.6387
  0
LINE
  8
0
 10
1.35724
 20
82.6387
 11
1.39465
 21
82.5522
  0
LINE
  8
0
 10
1.39465
 20
82.5522
 11
1.42657
 21
82.4635
  0
LINE
  8
0
 10
1.42657
 20
82.4635
 11
1.45287
 21
82.373
  0
LINE
  8
0
 10
1.45287
 20
82.373
 11
1.47342
 21
82.2811
  0
LINE
  8
0
 10
1.47342
 20
82.2811
 11
1.48816
 21
82.188
  0
LINE
  8
0
 10
1.48816
 20
82.188
 11
1.49704
 21
82.0942
  0
LINE
  8
0
 10
1.49704
 20
82.0942
 11
1.5
 21
82
  0
LINE
  8
0
 10
1.5
 20
82
 11
1.49704
 21
81.9058
  0
LINE
  8
0
 10
1.49704
 20
81.9058
 11
1.48816
 21
81.812
  0
LINE
  8
0
 10
1.48816
 20
81.812
 11
1.47342
 21
81.7189
  0
LINE
  8
0
 10
1.47342
 20
81.7189
 11
1.45287
 21
81.627
  0
LINE
  8
0
 10
1.45287
 20
81.627
 11
1.42657
 21
81.5365
  0
LINE
  8
0
 10
1.42657
 20
81.5365
 11
1.39465
 21
81.4478
  0
LINE
  8
0
 10
1.39465
 20
81.4478
 11
1.35724
 21
81.3613
  0
LINE
  8
0
 10
1.35724
 20
81.3613
 11
1.31445
 21
81.2774
  0
LINE
  8
0
 10
1.31445
 20
81.2774
 11
1.26648
 21
81.1963
  0
LINE
  8
0
 10
1.26648
 20
81.1963
 11
1.21352
 21
81.1183
  0
LINE
  8
0
 10
1.21352
 20
81.1183
 11
1.15576
 21
81.0439
  0
LINE
  8
0
 10
1.15576
 20
81.0439
 11
1.09344
 21
80.9732
  0
LINE
  8
0
 10
1.09344
 20
80.9732
 11
1.02681
 21
80.9065
  0
LINE
  8
0
 10
1.02681
 20
80.9065
 11
0.956131
 21
80.8442
  0
LINE
  8
0
 10
0.956131
 20
80.8442
 11
0.881668
 21
80.7865
  0
LINE
  8
0
 10
0.881668
 20
80.7865
 11
0.803726
 21
80.7335
  0
LINE
  8
0
 10
0.803726
 20
80.7335
 11
0.722626
 21
80.6855
  0
LINE
  8
0
 10
0.722626
 20
80.6855
 11
0.638657
 21
80.6427
  0
LINE
  8
0
 10
0.638657
 20
80.6427
 11
0.552185
 21
80.6053
  0
LINE
  8
0
 10
0.552185
 20
80.6053
 11
0.463516
 21
80.5734
  0
LINE
  8
0
 10
0.463516
 20
80.5734
 11
0.373032
 21
80.5471
  0
LINE
  8
0
 10
0.373032
 20
80.5471
 11
0.281067
 21
80.5266
  0
LINE
  8
0
 10
0.281067
 20
80.5266
 11
0.187988
 21
80.5118
  0
LINE
  8
0
 10
0.187988
 20
80.5118
 11
0.0941772
 21
80.5029
  0
LINE
  8
0
 10
0.0941772
 20
80.5029
 11
0
 21
80.5
  0
LINE
  8
0
 10
0
 20
80.5
 11
-0.094162
 21
80.5029
  0
LINE
  8
0
 10
5.93665
 20
70.0053
 11
5.84303
 21
70.0161
  0
LINE
  8
0
 10
5.84303
 20
70.0161
 11
5.75029
 21
70.0328
  0
LINE
  8
0
 10
5.75029
 20
70.0328
 11
5.65877
 21
70.0553
  0
LINE
  8
0
 10
5.65877
 20
70.0553
 11
5.56885
 21
70.0835
  0
LINE
  8
0
 10
5.56885
 20
70.0835
 11
5.48088
 21
70.1172
  0
LINE
  8
0
 10
5.48088
 20
70.1172
 11
5.3952
 21
70.1564
  0
LINE
  8
0
 10
5.3952
 20
70.1564
 11
5.31215
 21
70.201
  0
LINE
  8
0
 10
5.31215
 20
70.201
 11
5.23207
 21
70.2506
  0
LINE
  8
0
 10
5.23207
 20
70.2506
 11
5.15526
 21
70.3052
  0
LINE
  8
0
 10
5.15526
 20
70.3052
 11
5.08203
 21
70.3645
  0
LINE
  8
0
 10
5.08203
 20
70.3645
 11
5.01266
 21
70.4283
  0
LINE
  8
0
 10
5.01266
 20
70.4283
 11
4.94743
 21
70.4963
  0
LINE
  8
0
 10
4.94743
 20
70.4963
 11
4.88661
 21
70.5683
  0
LINE
  8
0
 10
4.88661
 20
70.5683
 11
4.83043
 21
70.6439
  0
LINE
  8
0
 10
4.83043
 20
70.6439
 11
4.77911
 21
70.723
  0
LINE
  8
0
 10
4.77911
 20
70.723
 11
4.73285
 21
70.8051
  0
LINE
  8
0
 10
4.73285
 20
70.8051
 11
4.69183
 21
70.8899
  0
LINE
  8
0
 10
4.69183
 20
70.8899
 11
4.65623
 21
70.9771
  0
LINE
  8
0
 10
4.65623
 20
70.9771
 11
4.62617
 21
71.0665
  0
LINE
  8
0
 10
4.62617
 20
71.0665
 11
4.60179
 21
71.1575
  0
LINE
  8
0
 10
4.60179
 20
71.1575
 11
4.58316
 21
71.2498
  0
LINE
  8
0
 10
4.58316
 20
71.2498
 11
4.57037
 21
71.3432
  0
LINE
  8
0
 10
4.57037
 20
71.3432
 11
4.56349
 21
71.4372
  0
LINE
  8
0
 10
4.56349
 20
71.4372
 11
4.5625
 21
71.5314
  0
LINE
  8
0
 10
4.5625
 20
71.5314
 11
4.56743
 21
71.6255
  0
LINE
  8
0
 10
4.56743
 20
71.6255
 11
4.57826
 21
71.7191
  0
LINE
  8
0
 10
4.57826
 20
71.7191
 11
4.59496
 21
71.8119
  0
LINE
  8
0
 10
4.59496
 20
71.8119
 11
4.61743
 21
71.9034
  0
LINE
  8
0
 10
4.61743
 20
71.9034
 11
4.6456
 21
71.9933
  0
LINE
  8
0
 10
4.6456
 20
71.9933
 11
4.67938
 21
72.0813
  0
LINE
  8
0
 10
4.67938
 20
72.0813
 11
4.7186
 21
72.167
  0
LINE
  8
0
 10
4.7186
 20
72.167
 11
4.76314
 21
72.25
  0
LINE
  8
0
 10
4.76314
 20
72.25
 11
4.81279
 21
72.3301
  0
LINE
  8
0
 10
4.81279
 20
72.3301
 11
4.86737
 21
72.4069
  0
LINE
  8
0
 10
4.86737
 20
72.4069
 11
4.92668
 21
72.4801
  0
LINE
  8
0
 10
4.92668
 20
72.4801
 11
4.99046
 21
72.5495
  0
LINE
  8
0
 10
4.99046
 20
72.5495
 11
5.05847
 21
72.6147
  0
LINE
  8
0
 10
5.05847
 20
72.6147
 11
5.13045
 21
72.6756
  0
LINE
  8
0
 10
5.13045
 20
72.6756
 11
5.2061
 21
72.7317
  0
LINE
  8
0
 10
5.2061
 20
72.7317
 11
5.28513
 21
72.7831
  0
LINE
  8
0
 10
5.28513
 20
72.7831
 11
5.36723
 21
72.8293
  0
LINE
  8
0
 10
5.36723
 20
72.8293
 11
5.45207
 21
72.8703
  0
LINE
  8
0
 10
5.45207
 20
72.8703
 11
5.53931
 21
72.9059
  0
LINE
  8
0
 10
5.53931
 20
72.9059
 11
5.62862
 21
72.936
  0
LINE
  8
0
 10
5.62862
 20
72.936
 11
5.71965
 21
72.9604
  0
LINE
  8
0
 10
5.71965
 20
72.9604
 11
5.81201
 21
72.979
  0
LINE
  8
0
 10
5.81201
 20
72.979
 11
5.90538
 21
72.9918
  0
LINE
  8
0
 10
5.90538
 20
72.9918
 11
5.99936
 21
72.9987
  0
LINE
  8
0
 10
5.99936
 20
72.9987
 11
6.09358
 21
72.9997
  0
LINE
  8
0
 10
6.09358
 20
72.9997
 11
6.18768
 21
72.9948
  0
LINE
  8
0
 10
6.18768
 20
72.9948
 11
6.2813
 21
72.9839
  0
LINE
  8
0
 10
6.2813
 20
72.9839
 11
6.37404
 21
72.9672
  0
LINE
  8
0
 10
6.37404
 20
72.9672
 11
6.46555
 21
72.9447
  0
LINE
  8
0
 10
6.46555
 20
72.9447
 11
6.55547
 21
72.9166
  0
LINE
  8
0
 10
6.55547
 20
72.9166
 11
6.64345
 21
72.8828
  0
LINE
  8
0
 10
6.64345
 20
72.8828
 11
6.72913
 21
72.8436
  0
LINE
  8
0
 10
6.72913
 20
72.8436
 11
6.81216
 21
72.799
  0
LINE
  8
0
 10
6.81216
 20
72.799
 11
6.89226
 21
72.7494
  0
LINE
  8
0
 10
6.89226
 20
72.7494
 11
6.96907
 21
72.6948
  0
LINE
  8
0
 10
6.96907
 20
72.6948
 11
7.0423
 21
72.6355
  0
LINE
  8
0
 10
7.0423
 20
72.6355
 11
7.11166
 21
72.5717
  0
LINE
  8
0
 10
7.11166
 20
72.5717
 11
7.17688
 21
72.5037
  0
LINE
  8
0
 10
7.17688
 20
72.5037
 11
7.23772
 21
72.4317
  0
LINE
  8
0
 10
7.23772
 20
72.4317
 11
7.2939
 21
72.3561
  0
LINE
  8
0
 10
7.2939
 20
72.3561
 11
7.34521
 21
72.2771
  0
LINE
  8
0
 10
7.34521
 20
72.2771
 11
7.39148
 21
72.1949
  0
LINE
  8
0
 10
7.39148
 20
72.1949
 11
7.4325
 21
72.1101
  0
LINE
  8
0
 10
7.4325
 20
72.1101
 11
7.46809
 21
72.0229
  0
LINE
  8
0
 10
7.46809
 20
72.0229
 11
7.49815
 21
71.9335
  0
LINE
  8
0
 10
7.49815
 20
71.9335
 11
7.52254
 21
71.8425
  0
LINE
  8
0
 10
7.52254
 20
71.8425
 11
7.54117
 21
71.7502
  0
LINE
  8
0
 10
7.54117
 20
71.7502
 11
7.55396
 21
71.6568
  0
LINE
  8
0
 10
7.55396
 20
71.6568
 11
7.56085
 21
71.5628
  0
LINE
  8
0
 10
7.56085
 20
71.5628
 11
7.56184
 21
71.4686
  0
LINE
  8
0
 10
7.56184
 20
71.4686
 11
7.55692
 21
71.3745
  0
LINE
  8
0
 10
7.55692
 20
71.3745
 11
7.54607
 21
71.2809
  0
LINE
  8
0
 10
7.54607
 20
71.2809
 11
7.52937
 21
71.1881
  0
LINE
  8
0
 10
7.52937
 20
71.1881
 11
7.5069
 21
71.0966
  0
LINE
  8
0
 10
7.5069
 20
71.0966
 11
7.47871
 21
71.0067
  0
LINE
  8
0
 10
7.47871
 20
71.0067
 11
7.44495
 21
70.9187
  0
LINE
  8
0
 10
7.44495
 20
70.9187
 11
7.40572
 21
70.8331
  0
LINE
  8
0
 10
7.40572
 20
70.8331
 11
7.36119
 21
70.75
  0
LINE
  8
0
 10
7.36119
 20
70.75
 11
7.31154
 21
70.6699
  0
LINE
  8
0
 10
7.31154
 20
70.6699
 11
7.25694
 21
70.5931
  0
LINE
  8
0
 10
7.25694
 20
70.5931
 11
7.19765
 21
70.5199
  0
LINE
  8
0
 10
7.19765
 20
70.5199
 11
7.13387
 21
70.4505
  0
LINE
  8
0
 10
7.13387
 20
70.4505
 11
7.06586
 21
70.3853
  0
LINE
  8
0
 10
7.06586
 20
70.3853
 11
6.99388
 21
70.3245
  0
LINE
  8
0
 10
6.99388
 20
70.3245
 11
6.91823
 21
70.2683
  0
LINE
  8
0
 10
6.91823
 20
70.2683
 11
6.8392
 21
70.217
  0
LINE
  8
0
 10
6.8392
 20
70.217
 11
6.7571
 21
70.1707
  0
LINE
  8
0
 10
6.7571
 20
70.1707
 11
6.67226
 21
70.1297
  0
LINE
  8
0
 10
6.67226
 20
70.1297
 11
6.58501
 21
70.0941
  0
LINE
  8
0
 10
6.58501
 20
70.0941
 11
6.4957
 21
70.064
  0
LINE
  8
0
 10
6.4957
 20
70.064
 11
6.40468
 21
70.0396
  0
LINE
  8
0
 10
6.40468
 20
70.0396
 11
6.3123
 21
70.021
  0
LINE
  8
0
 10
6.3123
 20
70.021
 11
6.21895
 21
70.0082
  0
LINE
  8
0
 10
6.21895
 20
70.0082
 11
6.12497
 21
70.0013
  0
LINE
  8
0
 10
6.12497
 20
70.0013
 11
6.03075
 21
70.0003
  0
LINE
  8
0
 10
6.03075
 20
70.0003
 11
5.93665
 21
70.0053
  0
LINE
  8
0
 10
-6.12498
 20
70.0013
 11
-6.21896
 21
70.0082
  0
LINE
  8
0
 10
-6.21896
 20
70.0082
 11
-6.31232
 21
70.021
  0
LINE
  8
0
 10
-6.31232
 20
70.021
 11
-6.40469
 21
70.0396
  0
LINE
  8
0
 10
-6.40469
 20
70.0396
 11
-6.49571
 21
70.064
  0
LINE
  8
0
 10
-6.49571
 20
70.064
 11
-6.58502
 21
70.0941
  0
LINE
  8
0
 10
-6.58502
 20
70.0941
 11
-6.67227
 21
70.1297
  0
LINE
  8
0
 10
-6.67227
 20
70.1297
 11
-6.75711
 21
70.1707
  0
LINE
  8
0
 10
-6.75711
 20
70.1707
 11
-6.83922
 21
70.217
  0
LINE
  8
0
 10
-6.83922
 20
70.217
 11
-6.91824
 21
70.2683
  0
LINE
  8
0
 10
-6.91824
 20
70.2683
 11
-6.9939
 21
70.3245
  0
LINE
  8
0
 10
-6.9939
 20
70.3245
 11
-7.06587
 21
70.3853
  0
LINE
  8
0
 10
-7.06587
 20
70.3853
 11
-7.13388
 21
70.4505
  0
LINE
  8
0
 10
-7.13388
 20
70.4505
 11
-7.19766
 21
70.5199
  0
LINE
  8
0
 10
-7.19766
 20
70.5199
 11
-7.25696
 21
70.5931
  0
LINE
  8
0
 10
-7.25696
 20
70.5931
 11
-7.31155
 21
70.6699
  0
LINE
  8
0
 10
-7.31155
 20
70.6699
 11
-7.36121
 21
70.75
  0
LINE
  8
0
 10
-7.36121
 20
70.75
 11
-7.40573
 21
70.8331
  0
LINE
  8
0
 10
-7.40573
 20
70.8331
 11
-7.44496
 21
70.9187
  0
LINE
  8
0
 10
-7.44496
 20
70.9187
 11
-7.47873
 21
71.0067
  0
LINE
  8
0
 10
-7.47873
 20
71.0067
 11
-7.50691
 21
71.0966
  0
LINE
  8
0
 10
-7.50691
 20
71.0966
 11
-7.52939
 21
71.1881
  0
LINE
  8
0
 10
-7.52939
 20
71.1881
 11
-7.54608
 21
71.2809
  0
LINE
  8
0
 10
-7.54608
 20
71.2809
 11
-7.55692
 21
71.3745
  0
LINE
  8
0
 10
-7.55692
 20
71.3745
 11
-7.56184
 21
71.4686
  0
LINE
  8
0
 10
-7.56184
 20
71.4686
 11
-7.56085
 21
71.5628
  0
LINE
  8
0
 10
-7.56085
 20
71.5628
 11
-7.55396
 21
71.6568
  0
LINE
  8
0
 10
-7.55396
 20
71.6568
 11
-7.54117
 21
71.7502
  0
LINE
  8
0
 10
-7.54117
 20
71.7502
 11
-7.52254
 21
71.8425
  0
LINE
  8
0
 10
-7.52254
 20
71.8425
 11
-7.49815
 21
71.9335
  0
LINE
  8
0
 10
-7.49815
 20
71.9335
 11
-7.46809
 21
72.0229
  0
LINE
  8
0
 10
-7.46809
 20
72.0229
 11
-7.4325
 21
72.1101
  0
LINE
  8
0
 10
-7.4325
 20
72.1101
 11
-7.39148
 21
72.1949
  0
LINE
  8
0
 10
-7.39148
 20
72.1949
 11
-7.34521
 21
72.2771
  0
LINE
  8
0
 10
-7.34521
 20
72.2771
 11
-7.2939
 21
72.3561
  0
LINE
  8
0
 10
-7.2939
 20
72.3561
 11
-7.23772
 21
72.4317
  0
LINE
  8
0
 10
-7.23772
 20
72.4317
 11
-7.17688
 21
72.5037
  0
LINE
  8
0
 10
-7.17688
 20
72.5037
 11
-7.11166
 21
72.5717
  0
LINE
  8
0
 10
-7.11166
 20
72.5717
 11
-7.0423
 21
72.6355
  0
LINE
  8
0
 10
-7.0423
 20
72.6355
 11
-6.96907
 21
72.6948
  0
LINE
  8
0
 10
-6.96907
 20
72.6948
 11
-6.89226
 21
72.7494
  0
LINE
  8
0
 10
-6.89226
 20
72.7494
 11
-6.81216
 21
72.799
  0
LINE
  8
0
 10
-6.81216
 20
72.799
 11
-6.72913
 21
72.8436
  0
LINE
  8
0
 10
-6.72913
 20
72.8436
 11
-6.64345
 21
72.8828
  0
LINE
  8
0
 10
-6.64345
 20
72.8828
 11
-6.55547
 21
72.9166
  0
LINE
  8
0
 10
-6.55547
 20
72.9166
 11
-6.46555
 21
72.9447
  0
LINE
  8
0
 10
-6.46555
 20
72.9447
 11
-6.37404
 21
72.9672
  0
LINE
  8
0
 10
-6.37404
 20
72.9672
 11
-6.2813
 21
72.9839
  0
LINE
  8
0
 10
-6.2813
 20
72.9839
 11
-6.18768
 21
72.9948
  0
LINE
  8
0
 10
-6.18768
 20
72.9948
 11
-6.09358
 21
72.9997
  0
LINE
  8
0
 10
-6.09358
 20
72.9997
 11
-5.99936
 21
72.9987
  0
LINE
  8
0
 10
-5.99936
 20
72.9987
 11
-5.90538
 21
72.9918
  0
LINE
  8
0
 10
-5.90538
 20
72.9918
 11
-5.81201
 21
72.979
  0
LINE
  8
0
 10
-5.81201
 20
72.979
 11
-5.71965
 21
72.9604
  0
LINE
  8
0
 10
-5.71965
 20
72.9604
 11
-5.62862
 21
72.936
  0
LINE
  8
0
 10
-5.62862
 20
72.936
 11
-5.53931
 21
72.9059
  0
LINE
  8
0
 10
-5.53931
 20
72.9059
 11
-5.45207
 21
72.8703
  0
LINE
  8
0
 10
-5.45207
 20
72.8703
 11
-5.36723
 21
72.8293
  0
LINE
  8
0
 10
-5.36723
 20
72.8293
 11
-5.28513
 21
72.7831
  0
LINE
  8
0
 10
-5.28513
 20
72.7831
 11
-5.2061
 21
72.7317
  0
LINE
  8
0
 10
-5.2061
 20
72.7317
 11
-5.13045
 21
72.6756
  0
LINE
  8
0
 10
-5.13045
 20
72.6756
 11
-5.05847
 21
72.6147
  0
LINE
  8
0
 10
-5.05847
 20
72.6147
 11
-4.99046
 21
72.5495
  0
LINE
  8
0
 10
-4.99046
 20
72.5495
 11
-4.92668
 21
72.4801
  0
LINE
  8
0
 10
-4.92668
 20
72.4801
 11
-4.86737
 21
72.4069
  0
LINE
  8
0
 10
-4.86737
 20
72.4069
 11
-4.81279
 21
72.3301
  0
LINE
  8
0
 10
-4.81279
 20
72.3301
 11
-4.76314
 21
72.25
  0
LINE
  8
0
 10
-4.76314
 20
72.25
 11
-4.7186
 21
72.167
  0
LINE
  8
0
 10
-4.7186
 20
72.167
 11
-4.67938
 21
72.0813
  0
LINE
  8
0
 10
-4.67938
 20
72.0813
 11
-4.6456
 21
71.9933
  0
LINE
  8
0
 10
-4.6456
 20
71.9933
 11
-4.61743
 21
71.9034
  0
LINE
  8
0
 10
-4.61743
 20
71.9034
 11
-4.59496
 21
71.8119
  0
LINE
  8
0
 10
-4.59496
 20
71.8119
 11
-4.57826
 21
71.7191
  0
LINE
  8
0
 10
-4.57826
 20
71.7191
 11
-4.56743
 21
71.6255
  0
LINE
  8
0
 10
-4.56743
 20
71.6255
 11
-4.5625
 21
71.5314
  0
LINE
  8
0
 10
-4.5625
 20
71.5314
 11
-4.56349
 21
71.4372
  0
LINE
  8
0
 10
-4.56349
 20
71.4372
 11
-4.57039
 21
71.3432
  0
LINE
  8
0
 10
-4.57039
 20
71.3432
 11
-4.58318
 21
71.2498
  0
LINE
  8
0
 10
-4.58318
 20
71.2498
 11
-4.60181
 21
71.1575
  0
LINE
  8
0
 10
-4.60181
 20
71.1575
 11
-4.62619
 21
71.0665
  0
LINE
  8
0
 10
-4.62619
 20
71.0665
 11
-4.65625
 21
70.9771
  0
LINE
  8
0
 10
-4.65625
 20
70.9771
 11
-4.69185
 21
70.8899
  0
LINE
  8
0
 10
-4.69185
 20
70.8899
 11
-4.73286
 21
70.8051
  0
LINE
  8
0
 10
-4.73286
 20
70.8051
 11
-4.77913
 21
70.723
  0
LINE
  8
0
 10
-4.77913
 20
70.723
 11
-4.83044
 21
70.6439
  0
LINE
  8
0
 10
-4.83044
 20
70.6439
 11
-4.88663
 21
70.5683
  0
LINE
  8
0
 10
-4.88663
 20
70.5683
 11
-4.94745
 21
70.4963
  0
LINE
  8
0
 10
-4.94745
 20
70.4963
 11
-5.01268
 21
70.4283
  0
LINE
  8
0
 10
-5.01268
 20
70.4283
 11
-5.08205
 21
70.3645
  0
LINE
  8
0
 10
-5.08205
 20
70.3645
 11
-5.15527
 21
70.3052
  0
LINE
  8
0
 10
-5.15527
 20
70.3052
 11
-5.23209
 21
70.2506
  0
LINE
  8
0
 10
-5.23209
 20
70.2506
 11
-5.31216
 21
70.201
  0
LINE
  8
0
 10
-5.31216
 20
70.201
 11
-5.39522
 21
70.1564
  0
LINE
  8
0
 10
-5.39522
 20
70.1564
 11
-5.4809
 21
70.1172
  0
LINE
  8
0
 10
-5.4809
 20
70.1172
 11
-5.56886
 21
70.0835
  0
LINE
  8
0
 10
-5.56886
 20
70.0835
 11
-5.65878
 21
70.0553
  0
LINE
  8
0
 10
-5.65878
 20
70.0553
 11
-5.75031
 21
70.0328
  0
LINE
  8
0
 10
-5.75031
 20
70.0328
 11
-5.84305
 21
70.0161
  0
LINE
  8
0
 10
-5.84305
 20
70.0161
 11
-5.93666
 21
70.0053
  0
LINE
  8
0
 10
-5.93666
 20
70.0053
 11
-6.03076
 21
70.0003
  0
LINE
  8
0
 10
-6.03076
 20
70.0003
 11
-6.12498
 21
70.0013
  0
LINE
  8
0
 10
-43.6753
 20
40.5579
 11
-43.7682
 21
40.5741
  0
LINE
  8
0
 10
-43.7682
 20
40.5741
 11
-43.859
 21
40.599
  0
LINE
  8
0
 10
-43.859
 20
40.599
 11
-43.9472
 21
40.6322
  0
LINE
  8
0
 10
-43.9472
 20
40.6322
 11
-44.0318
 21
40.6737
  0
LINE
  8
0
 10
-44.0318
 20
40.6737
 11
-44.1121
 21
40.7229
  0
LINE
  8
0
 10
-44.1121
 20
40.7229
 11
-44.1874
 21
40.7795
  0
LINE
  8
0
 10
-44.1874
 20
40.7795
 11
-44.2571
 21
40.8429
  0
LINE
  8
0
 10
-44.2571
 20
40.8429
 11
-44.3205
 21
40.9126
  0
LINE
  8
0
 10
-44.3205
 20
40.9126
 11
-44.3771
 21
40.9879
  0
LINE
  8
0
 10
-44.3771
 20
40.9879
 11
-44.4263
 21
41.0683
  0
LINE
  8
0
 10
-44.4263
 20
41.0683
 11
-44.4678
 21
41.1529
  0
LINE
  8
0
 10
-44.4678
 20
41.1529
 11
-44.5011
 21
41.241
  0
LINE
  8
0
 10
-44.5011
 20
41.241
 11
-44.5259
 21
41.3319
  0
LINE
  8
0
 10
-44.5259
 20
41.3319
 11
-44.5421
 21
41.4247
  0
LINE
  8
0
 10
-44.5421
 20
41.4247
 11
-44.5495
 21
41.5186
  0
LINE
  8
0
 10
-44.5495
 20
41.5186
 11
-44.5495
 21
41.55
  0
LINE
  8
0
 10
-44.5495
 20
41.55
 11
-60.6365
 21
41.55
  0
LINE
  8
0
 10
-60.6365
 20
41.55
 11
-60.6365
 21
41.5186
  0
LINE
  8
0
 10
-60.6365
 20
41.5186
 11
-60.6439
 21
41.4247
  0
LINE
  8
0
 10
-60.6439
 20
41.4247
 11
-60.6537
 21
41.3626
  0
LINE
  8
0
 10
-60.6537
 20
41.3626
 11
-60.6757
 21
41.271
  0
LINE
  8
0
 10
-60.6757
 20
41.271
 11
-60.7062
 21
41.1819
  0
LINE
  8
0
 10
-60.7062
 20
41.1819
 11
-60.745
 21
41.096
  0
LINE
  8
0
 10
-60.745
 20
41.096
 11
-60.7917
 21
41.0142
  0
LINE
  8
0
 10
-60.7917
 20
41.0142
 11
-60.8458
 21
40.9371
  0
LINE
  8
0
 10
-60.8458
 20
40.9371
 11
-60.907
 21
40.8655
  0
LINE
  8
0
 10
-60.907
 20
40.8655
 11
-60.9747
 21
40.7999
  0
LINE
  8
0
 10
-60.9747
 20
40.7999
 11
-61.0482
 21
40.741
  0
LINE
  8
0
 10
-61.0482
 20
40.741
 11
-61.127
 21
40.6893
  0
LINE
  8
0
 10
-61.127
 20
40.6893
 11
-61.2102
 21
40.6452
  0
LINE
  8
0
 10
-61.2102
 20
40.6452
 11
-61.2973
 21
40.6091
  0
LINE
  8
0
 10
-61.2973
 20
40.6091
 11
-61.3873
 21
40.5814
  0
LINE
  8
0
 10
-61.3873
 20
40.5814
 11
-61.4796
 21
40.5623
  0
LINE
  8
0
 10
-61.4796
 20
40.5623
 11
-61.5732
 21
40.552
  0
LINE
  8
0
 10
-61.5732
 20
40.552
 11
-61.6674
 21
40.5505
  0
LINE
  8
0
 10
-61.6674
 20
40.5505
 11
-61.7301
 21
40.5544
  0
LINE
  8
0
 10
-61.7301
 20
40.5544
 11
-61.8234
 21
40.5677
  0
LINE
  8
0
 10
-61.8234
 20
40.5677
 11
-61.915
 21
40.5897
  0
LINE
  8
0
 10
-61.915
 20
40.5897
 11
-62.0041
 21
40.6202
  0
LINE
  8
0
 10
-62.0041
 20
40.6202
 11
-62.09
 21
40.659
  0
LINE
  8
0
 10
-62.09
 20
40.659
 11
-62.1718
 21
40.7057
  0
LINE
  8
0
 10
-62.1718
 20
40.7057
 11
-62.2238
 21
40.741
  0
LINE
  8
0
 10
-62.2238
 20
40.741
 11
-62.2973
 21
40.7999
  0
LINE
  8
0
 10
-62.2973
 20
40.7999
 11
-62.365
 21
40.8655
  0
LINE
  8
0
 10
-62.365
 20
40.8655
 11
-62.4261
 21
40.9371
  0
LINE
  8
0
 10
-62.4261
 20
40.9371
 11
-62.4803
 21
41.0142
  0
LINE
  8
0
 10
-62.4803
 20
41.0142
 11
-62.5123
 21
41.0683
  0
LINE
  8
0
 10
-62.5123
 20
41.0683
 11
-62.5538
 21
41.1529
  0
LINE
  8
0
 10
-62.5538
 20
41.1529
 11
-62.5871
 21
41.241
  0
LINE
  8
0
 10
-62.5871
 20
41.241
 11
-62.6119
 21
41.3319
  0
LINE
  8
0
 10
-62.6119
 20
41.3319
 11
-62.6281
 21
41.4247
  0
LINE
  8
0
 10
-62.6281
 20
41.4247
 11
-62.6355
 21
41.5186
  0
LINE
  8
0
 10
-62.6355
 20
41.5186
 11
-62.636
 21
44.75
  0
LINE
  8
0
 10
-62.636
 20
44.75
 11
-62.6316
 21
44.8441
  0
LINE
  8
0
 10
-62.6316
 20
44.8441
 11
-62.6183
 21
44.9374
  0
LINE
  8
0
 10
-62.6183
 20
44.9374
 11
-62.5963
 21
45.029
  0
LINE
  8
0
 10
-62.5963
 20
45.029
 11
-62.5658
 21
45.1181
  0
LINE
  8
0
 10
-62.5658
 20
45.1181
 11
-62.527
 21
45.204
  0
LINE
  8
0
 10
-62.527
 20
45.204
 11
-62.4803
 21
45.2858
  0
LINE
  8
0
 10
-62.4803
 20
45.2858
 11
-62.4261
 21
45.3629
  0
LINE
  8
0
 10
-62.4261
 20
45.3629
 11
-62.365
 21
45.4345
  0
LINE
  8
0
 10
-62.365
 20
45.4345
 11
-62.2973
 21
45.5001
  0
LINE
  8
0
 10
-62.2973
 20
45.5001
 11
-62.2238
 21
45.559
  0
LINE
  8
0
 10
-62.2238
 20
45.559
 11
-62.145
 21
45.6107
  0
LINE
  8
0
 10
-62.145
 20
45.6107
 11
-62.0618
 21
45.6548
  0
LINE
  8
0
 10
-62.0618
 20
45.6548
 11
-61.9747
 21
45.6909
  0
LINE
  8
0
 10
-61.9747
 20
45.6909
 11
-61.8847
 21
45.7186
  0
LINE
  8
0
 10
-61.8847
 20
45.7186
 11
-61.7924
 21
45.7377
  0
LINE
  8
0
 10
-61.7924
 20
45.7377
 11
-61.6988
 21
45.748
  0
LINE
  8
0
 10
-61.6988
 20
45.748
 11
-61.6046
 21
45.7495
  0
LINE
  8
0
 10
-61.6046
 20
45.7495
 11
-61.5107
 21
45.7421
  0
LINE
  8
0
 10
-61.5107
 20
45.7421
 11
-61.4178
 21
45.7259
  0
LINE
  8
0
 10
-61.4178
 20
45.7259
 11
-61.327
 21
45.701
  0
LINE
  8
0
 10
-61.327
 20
45.701
 11
-61.2388
 21
45.6677
  0
LINE
  8
0
 10
-61.2388
 20
45.6677
 11
-61.1542
 21
45.6263
  0
LINE
  8
0
 10
-61.1542
 20
45.6263
 11
-61.0739
 21
45.5771
  0
LINE
  8
0
 10
-61.0739
 20
45.5771
 11
-60.9986
 21
45.5205
  0
LINE
  8
0
 10
-60.9986
 20
45.5205
 11
-60.9289
 21
45.4571
  0
LINE
  8
0
 10
-60.9289
 20
45.4571
 11
-60.8655
 21
45.3874
  0
LINE
  8
0
 10
-60.8655
 20
45.3874
 11
-60.8089
 21
45.3121
  0
LINE
  8
0
 10
-60.8089
 20
45.3121
 11
-60.7597
 21
45.2318
  0
LINE
  8
0
 10
-60.7597
 20
45.2318
 11
-60.7182
 21
45.1471
  0
LINE
  8
0
 10
-60.7182
 20
45.1471
 11
-60.6849
 21
45.059
  0
LINE
  8
0
 10
-60.6849
 20
45.059
 11
-60.6601
 21
44.9681
  0
LINE
  8
0
 10
-60.6601
 20
44.9681
 11
-60.6439
 21
44.8753
  0
LINE
  8
0
 10
-60.6439
 20
44.8753
 11
-60.6365
 21
44.7814
  0
LINE
  8
0
 10
-60.6365
 20
44.7814
 11
-60.6365
 21
44.75
  0
LINE
  8
0
 10
-60.6365
 20
44.75
 11
-44.55
 21
44.75
  0
LINE
  8
0
 10
-44.55
 20
44.75
 11
-44.5456
 21
44.8441
  0
LINE
  8
0
 10
-44.5456
 20
44.8441
 11
-44.5323
 21
44.9374
  0
LINE
  8
0
 10
-44.5323
 20
44.9374
 11
-44.5103
 21
45.029
  0
LINE
  8
0
 10
-44.5103
 20
45.029
 11
-44.4798
 21
45.1181
  0
LINE
  8
0
 10
-44.4798
 20
45.1181
 11
-44.441
 21
45.204
  0
LINE
  8
0
 10
-44.441
 20
45.204
 11
-44.3943
 21
45.2858
  0
LINE
  8
0
 10
-44.3943
 20
45.2858
 11
-44.3402
 21
45.3629
  0
LINE
  8
0
 10
-44.3402
 20
45.3629
 11
-44.279
 21
45.4345
  0
LINE
  8
0
 10
-44.279
 20
45.4345
 11
-44.2113
 21
45.5001
  0
LINE
  8
0
 10
-44.2113
 20
45.5001
 11
-44.1378
 21
45.559
  0
LINE
  8
0
 10
-44.1378
 20
45.559
 11
-44.0591
 21
45.6107
  0
LINE
  8
0
 10
-44.0591
 20
45.6107
 11
-43.9758
 21
45.6548
  0
LINE
  8
0
 10
-43.9758
 20
45.6548
 11
-43.8887
 21
45.6909
  0
LINE
  8
0
 10
-43.8887
 20
45.6909
 11
-43.7987
 21
45.7186
  0
LINE
  8
0
 10
-43.7987
 20
45.7186
 11
-43.7064
 21
45.7377
  0
LINE
  8
0
 10
-43.7064
 20
45.7377
 11
-43.6128
 21
45.748
  0
LINE
  8
0
 10
-43.6128
 20
45.748
 11
-43.5186
 21
45.7495
  0
LINE
  8
0
 10
-43.5186
 20
45.7495
 11
-43.4247
 21
45.7421
  0
LINE
  8
0
 10
-43.4247
 20
45.7421
 11
-43.3319
 21
45.7259
  0
LINE
  8
0
 10
-43.3319
 20
45.7259
 11
-43.241
 21
45.701
  0
LINE
  8
0
 10
-43.241
 20
45.701
 11
-43.1529
 21
45.6677
  0
LINE
  8
0
 10
-43.1529
 20
45.6677
 11
-43.0683
 21
45.6263
  0
LINE
  8
0
 10
-43.0683
 20
45.6263
 11
-42.9879
 21
45.5771
  0
LINE
  8
0
 10
-42.9879
 20
45.5771
 11
-42.9126
 21
45.5205
  0
LINE
  8
0
 10
-42.9126
 20
45.5205
 11
-42.8429
 21
45.4571
  0
LINE
  8
0
 10
-42.8429
 20
45.4571
 11
-42.7795
 21
45.3874
  0
LINE
  8
0
 10
-42.7795
 20
45.3874
 11
-42.7229
 21
45.3121
  0
LINE
  8
0
 10
-42.7229
 20
45.3121
 11
-42.6737
 21
45.2318
  0
LINE
  8
0
 10
-42.6737
 20
45.2318
 11
-42.6322
 21
45.1471
  0
LINE
  8
0
 10
-42.6322
 20
45.1471
 11
-42.599
 21
45.059
  0
LINE
  8
0
 10
-42.599
 20
45.059
 11
-42.5741
 21
44.9681
  0
LINE
  8
0
 10
-42.5741
 20
44.9681
 11
-42.5579
 21
44.8753
  0
LINE
  8
0
 10
-42.5579
 20
44.8753
 11
-42.5505
 21
44.7814
  0
LINE
  8
0
 10
-42.5505
 20
44.7814
 11
-42.55
 21
41.55
  0
LINE
  8
0
 10
-42.55
 20
41.55
 11
-42.5544
 21
41.4559
  0
LINE
  8
0
 10
-42.5544
 20
41.4559
 11
-42.5677
 21
41.3626
  0
LINE
  8
0
 10
-42.5677
 20
41.3626
 11
-42.5897
 21
41.271
  0
LINE
  8
0
 10
-42.5897
 20
41.271
 11
-42.6202
 21
41.1819
  0
LINE
  8
0
 10
-42.6202
 20
41.1819
 11
-42.659
 21
41.096
  0
LINE
  8
0
 10
-42.659
 20
41.096
 11
-42.7057
 21
41.0142
  0
LINE
  8
0
 10
-42.7057
 20
41.0142
 11
-42.7599
 21
40.9371
  0
LINE
  8
0
 10
-42.7599
 20
40.9371
 11
-42.821
 21
40.8655
  0
LINE
  8
0
 10
-42.821
 20
40.8655
 11
-42.8887
 21
40.7999
  0
LINE
  8
0
 10
-42.8887
 20
40.7999
 11
-42.9622
 21
40.741
  0
LINE
  8
0
 10
-42.9622
 20
40.741
 11
-43.041
 21
40.6893
  0
LINE
  8
0
 10
-43.041
 20
40.6893
 11
-43.1242
 21
40.6452
  0
LINE
  8
0
 10
-43.1242
 20
40.6452
 11
-43.2113
 21
40.6091
  0
LINE
  8
0
 10
-43.2113
 20
40.6091
 11
-43.3013
 21
40.5814
  0
LINE
  8
0
 10
-43.3013
 20
40.5814
 11
-43.3936
 21
40.5623
  0
LINE
  8
0
 10
-43.3936
 20
40.5623
 11
-43.4872
 21
40.552
  0
LINE
  8
0
 10
-43.4872
 20
40.552
 11
-43.5814
 21
40.5505
  0
LINE
  8
0
 10
-43.5814
 20
40.5505
 11
-43.6753
 21
40.5579
  0
LINE
  8
0
 10
61.5107
 20
40.5579
 11
61.4178
 21
40.5741
  0
LINE
  8
0
 10
61.4178
 20
40.5741
 11
61.327
 21
40.599
  0
LINE
  8
0
 10
61.327
 20
40.599
 11
61.2388
 21
40.6322
  0
LINE
  8
0
 10
61.2388
 20
40.6322
 11
61.1542
 21
40.6737
  0
LINE
  8
0
 10
61.1542
 20
40.6737
 11
61.0739
 21
40.7229
  0
LINE
  8
0
 10
61.0739
 20
40.7229
 11
60.9986
 21
40.7795
  0
LINE
  8
0
 10
60.9986
 20
40.7795
 11
60.9289
 21
40.8429
  0
LINE
  8
0
 10
60.9289
 20
40.8429
 11
60.8655
 21
40.9126
  0
LINE
  8
0
 10
60.8655
 20
40.9126
 11
60.8089
 21
40.9879
  0
LINE
  8
0
 10
60.8089
 20
40.9879
 11
60.7597
 21
41.0683
  0
LINE
  8
0
 10
60.7597
 20
41.0683
 11
60.7182
 21
41.1529
  0
LINE
  8
0
 10
60.7182
 20
41.1529
 11
60.6849
 21
41.241
  0
LINE
  8
0
 10
60.6849
 20
41.241
 11
60.6601
 21
41.3319
  0
LINE
  8
0
 10
60.6601
 20
41.3319
 11
60.6439
 21
41.4247
  0
LINE
  8
0
 10
60.6439
 20
41.4247
 11
60.6365
 21
41.5186
  0
LINE
  8
0
 10
60.6365
 20
41.5186
 11
60.6365
 21
41.55
  0
LINE
  8
0
 10
60.6365
 20
41.55
 11
44.5495
 21
41.55
  0
LINE
  8
0
 10
44.5495
 20
41.55
 11
44.5495
 21
41.5186
  0
LINE
  8
0
 10
44.5495
 20
41.5186
 11
44.5421
 21
41.4247
  0
LINE
  8
0
 10
44.5421
 20
41.4247
 11
44.5323
 21
41.3626
  0
LINE
  8
0
 10
44.5323
 20
41.3626
 11
44.5103
 21
41.271
  0
LINE
  8
0
 10
44.5103
 20
41.271
 11
44.4798
 21
41.1819
  0
LINE
  8
0
 10
44.4798
 20
41.1819
 11
44.441
 21
41.096
  0
LINE
  8
0
 10
44.441
 20
41.096
 11
44.3943
 21
41.0142
  0
LINE
  8
0
 10
44.3943
 20
41.0142
 11
44.3401
 21
40.9371
  0
LINE
  8
0
 10
44.3401
 20
40.9371
 11
44.279
 21
40.8655
  0
LINE
  8
0
 10
44.279
 20
40.8655
 11
44.2113
 21
40.7999
  0
LINE
  8
0
 10
44.2113
 20
40.7999
 11
44.1378
 21
40.741
  0
LINE
  8
0
 10
44.1378
 20
40.741
 11
44.059
 21
40.6893
  0
LINE
  8
0
 10
44.059
 20
40.6893
 11
43.9758
 21
40.6452
  0
LINE
  8
0
 10
43.9758
 20
40.6452
 11
43.8887
 21
40.6091
  0
LINE
  8
0
 10
43.8887
 20
40.6091
 11
43.7987
 21
40.5814
  0
LINE
  8
0
 10
43.7987
 20
40.5814
 11
43.7064
 21
40.5623
  0
LINE
  8
0
 10
43.7064
 20
40.5623
 11
43.6128
 21
40.552
  0
LINE
  8
0
 10
43.6128
 20
40.552
 11
43.5186
 21
40.5505
  0
LINE
  8
0
 10
43.5186
 20
40.5505
 11
43.4559
 21
40.5544
  0
LINE
  8
0
 10
43.4559
 20
40.5544
 11
43.3626
 21
40.5677
  0
LINE
  8
0
 10
43.3626
 20
40.5677
 11
43.271
 21
40.5897
  0
LINE
  8
0
 10
43.271
 20
40.5897
 11
43.1819
 21
40.6202
  0
LINE
  8
0
 10
43.1819
 20
40.6202
 11
43.096
 21
40.659
  0
LINE
  8
0
 10
43.096
 20
40.659
 11
43.0142
 21
40.7057
  0
LINE
  8
0
 10
43.0142
 20
40.7057
 11
42.9622
 21
40.741
  0
LINE
  8
0
 10
42.9622
 20
40.741
 11
42.8887
 21
40.7999
  0
LINE
  8
0
 10
42.8887
 20
40.7999
 11
42.821
 21
40.8655
  0
LINE
  8
0
 10
42.821
 20
40.8655
 11
42.7598
 21
40.9371
  0
LINE
  8
0
 10
42.7598
 20
40.9371
 11
42.7057
 21
41.0142
  0
LINE
  8
0
 10
42.7057
 20
41.0142
 11
42.6737
 21
41.0683
  0
LINE
  8
0
 10
42.6737
 20
41.0683
 11
42.6322
 21
41.1529
  0
LINE
  8
0
 10
42.6322
 20
41.1529
 11
42.5989
 21
41.241
  0
LINE
  8
0
 10
42.5989
 20
41.241
 11
42.5741
 21
41.3319
  0
LINE
  8
0
 10
42.5741
 20
41.3319
 11
42.5579
 21
41.4247
  0
LINE
  8
0
 10
42.5579
 20
41.4247
 11
42.5505
 21
41.5186
  0
LINE
  8
0
 10
42.5505
 20
41.5186
 11
42.55
 21
44.75
  0
LINE
  8
0
 10
42.55
 20
44.75
 11
42.5544
 21
44.8441
  0
LINE
  8
0
 10
42.5544
 20
44.8441
 11
42.5677
 21
44.9374
  0
LINE
  8
0
 10
42.5677
 20
44.9374
 11
42.5897
 21
45.029
  0
LINE
  8
0
 10
42.5897
 20
45.029
 11
42.6202
 21
45.1181
  0
LINE
  8
0
 10
42.6202
 20
45.1181
 11
42.659
 21
45.204
  0
LINE
  8
0
 10
42.659
 20
45.204
 11
42.7057
 21
45.2858
  0
LINE
  8
0
 10
42.7057
 20
45.2858
 11
42.7598
 21
45.3629
  0
LINE
  8
0
 10
42.7598
 20
45.3629
 11
42.821
 21
45.4345
  0
LINE
  8
0
 10
42.821
 20
45.4345
 11
42.8887
 21
45.5001
  0
LINE
  8
0
 10
42.8887
 20
45.5001
 11
42.9622
 21
45.559
  0
LINE
  8
0
 10
42.9622
 20
45.559
 11
43.041
 21
45.6107
  0
LINE
  8
0
 10
43.041
 20
45.6107
 11
43.1242
 21
45.6548
  0
LINE
  8
0
 10
43.1242
 20
45.6548
 11
43.2113
 21
45.6909
  0
LINE
  8
0
 10
43.2113
 20
45.6909
 11
43.3013
 21
45.7186
  0
LINE
  8
0
 10
43.3013
 20
45.7186
 11
43.3936
 21
45.7377
  0
LINE
  8
0
 10
43.3936
 20
45.7377
 11
43.4872
 21
45.748
  0
LINE
  8
0
 10
43.4872
 20
45.748
 11
43.5814
 21
45.7495
  0
LINE
  8
0
 10
43.5814
 20
45.7495
 11
43.6753
 21
45.7421
  0
LINE
  8
0
 10
43.6753
 20
45.7421
 11
43.7681
 21
45.7259
  0
LINE
  8
0
 10
43.7681
 20
45.7259
 11
43.859
 21
45.701
  0
LINE
  8
0
 10
43.859
 20
45.701
 11
43.9471
 21
45.6677
  0
LINE
  8
0
 10
43.9471
 20
45.6677
 11
44.0318
 21
45.6263
  0
LINE
  8
0
 10
44.0318
 20
45.6263
 11
44.1121
 21
45.5771
  0
LINE
  8
0
 10
44.1121
 20
45.5771
 11
44.1874
 21
45.5205
  0
LINE
  8
0
 10
44.1874
 20
45.5205
 11
44.2571
 21
45.4571
  0
LINE
  8
0
 10
44.2571
 20
45.4571
 11
44.3205
 21
45.3874
  0
LINE
  8
0
 10
44.3205
 20
45.3874
 11
44.3771
 21
45.3121
  0
LINE
  8
0
 10
44.3771
 20
45.3121
 11
44.4263
 21
45.2318
  0
LINE
  8
0
 10
44.4263
 20
45.2318
 11
44.4677
 21
45.1471
  0
LINE
  8
0
 10
44.4677
 20
45.1471
 11
44.5011
 21
45.059
  0
LINE
  8
0
 10
44.5011
 20
45.059
 11
44.5259
 21
44.9681
  0
LINE
  8
0
 10
44.5259
 20
44.9681
 11
44.5421
 21
44.8753
  0
LINE
  8
0
 10
44.5421
 20
44.8753
 11
44.5495
 21
44.7814
  0
LINE
  8
0
 10
44.5495
 20
44.7814
 11
44.5495
 21
44.75
  0
LINE
  8
0
 10
44.5495
 20
44.75
 11
60.636
 21
44.75
  0
LINE
  8
0
 10
60.636
 20
44.75
 11
60.6404
 21
44.8441
  0
LINE
  8
0
 10
60.6404
 20
44.8441
 11
60.6537
 21
44.9374
  0
LINE
  8
0
 10
60.6537
 20
44.9374
 11
60.6757
 21
45.029
  0
LINE
  8
0
 10
60.6757
 20
45.029
 11
60.7062
 21
45.1181
  0
LINE
  8
0
 10
60.7062
 20
45.1181
 11
60.745
 21
45.204
  0
LINE
  8
0
 10
60.745
 20
45.204
 11
60.7917
 21
45.2858
  0
LINE
  8
0
 10
60.7917
 20
45.2858
 11
60.8458
 21
45.3629
  0
LINE
  8
0
 10
60.8458
 20
45.3629
 11
60.907
 21
45.4345
  0
LINE
  8
0
 10
60.907
 20
45.4345
 11
60.9747
 21
45.5001
  0
LINE
  8
0
 10
60.9747
 20
45.5001
 11
61.0482
 21
45.559
  0
LINE
  8
0
 10
61.0482
 20
45.559
 11
61.1269
 21
45.6107
  0
LINE
  8
0
 10
61.1269
 20
45.6107
 11
61.2102
 21
45.6548
  0
LINE
  8
0
 10
61.2102
 20
45.6548
 11
61.2972
 21
45.6909
  0
LINE
  8
0
 10
61.2972
 20
45.6909
 11
61.3873
 21
45.7186
  0
LINE
  8
0
 10
61.3873
 20
45.7186
 11
61.4796
 21
45.7377
  0
LINE
  8
0
 10
61.4796
 20
45.7377
 11
61.5732
 21
45.748
  0
LINE
  8
0
 10
61.5732
 20
45.748
 11
61.6674
 21
45.7495
  0
LINE
  8
0
 10
61.6674
 20
45.7495
 11
61.7613
 21
45.7421
  0
LINE
  8
0
 10
61.7613
 20
45.7421
 11
61.8541
 21
45.7259
  0
LINE
  8
0
 10
61.8541
 20
45.7259
 11
61.945
 21
45.701
  0
LINE
  8
0
 10
61.945
 20
45.701
 11
62.0331
 21
45.6677
  0
LINE
  8
0
 10
62.0331
 20
45.6677
 11
62.1177
 21
45.6263
  0
LINE
  8
0
 10
62.1177
 20
45.6263
 11
62.1981
 21
45.5771
  0
LINE
  8
0
 10
62.1981
 20
45.5771
 11
62.2734
 21
45.5205
  0
LINE
  8
0
 10
62.2734
 20
45.5205
 11
62.3431
 21
45.4571
  0
LINE
  8
0
 10
62.3431
 20
45.4571
 11
62.4065
 21
45.3874
  0
LINE
  8
0
 10
62.4065
 20
45.3874
 11
62.4631
 21
45.3121
  0
LINE
  8
0
 10
62.4631
 20
45.3121
 11
62.5123
 21
45.2318
  0
LINE
  8
0
 10
62.5123
 20
45.2318
 11
62.5537
 21
45.1471
  0
LINE
  8
0
 10
62.5537
 20
45.1471
 11
62.587
 21
45.059
  0
LINE
  8
0
 10
62.587
 20
45.059
 11
62.6119
 21
44.9681
  0
LINE
  8
0
 10
62.6119
 20
44.9681
 11
62.6281
 21
44.8753
  0
LINE
  8
0
 10
62.6281
 20
44.8753
 11
62.6355
 21
44.7814
  0
LINE
  8
0
 10
62.6355
 20
44.7814
 11
62.636
 21
41.55
  0
LINE
  8
0
 10
62.636
 20
41.55
 11
62.6315
 21
41.4559
  0
LINE
  8
0
 10
62.6315
 20
41.4559
 11
62.6183
 21
41.3626
  0
LINE
  8
0
 10
62.6183
 20
41.3626
 11
62.5963
 21
41.271
  0
LINE
  8
0
 10
62.5963
 20
41.271
 11
62.5658
 21
41.1819
  0
LINE
  8
0
 10
62.5658
 20
41.1819
 11
62.527
 21
41.096
  0
LINE
  8
0
 10
62.527
 20
41.096
 11
62.4803
 21
41.0142
  0
LINE
  8
0
 10
62.4803
 20
41.0142
 11
62.4261
 21
40.9371
  0
LINE
  8
0
 10
62.4261
 20
40.9371
 11
62.3649
 21
40.8655
  0
LINE
  8
0
 10
62.3649
 20
40.8655
 11
62.2973
 21
40.7999
  0
LINE
  8
0
 10
62.2973
 20
40.7999
 11
62.2238
 21
40.741
  0
LINE
  8
0
 10
62.2238
 20
40.741
 11
62.145
 21
40.6893
  0
LINE
  8
0
 10
62.145
 20
40.6893
 11
62.0618
 21
40.6452
  0
LINE
  8
0
 10
62.0618
 20
40.6452
 11
61.9747
 21
40.6091
  0
LINE
  8
0
 10
61.9747
 20
40.6091
 11
61.8847
 21
40.5814
  0
LINE
  8
0
 10
61.8847
 20
40.5814
 11
61.7924
 21
40.5623
  0
LINE
  8
0
 10
61.7924
 20
40.5623
 11
61.6988
 21
40.552
  0
LINE
  8
0
 10
61.6988
 20
40.552
 11
61.6046
 21
40.5505
  0
LINE
  8
0
 10
61.6046
 20
40.5505
 11
61.5107
 21
40.5579
  0
LINE
  8
0
 10
-54.576
 20
27.6665
 11
-54.5761
 21
36.5
  0
LINE
  8
0
 10
-54.5761
 20
36.5
 11
-50.8017
 21
36.5001
  0
LINE
  8
0
 10
-50.8017
 20
36.5001
 11
-50.8017
 21
27.6665
  0
LINE
  8
0
 10
-50.8017
 20
27.6665
 11
-54.576
 21
27.6665
  0
LINE
  8
0
 10
50.8017
 20
27.6665
 11
50.8016
 21
36.5
  0
LINE
  8
0
 10
50.8016
 20
36.5
 11
54.576
 21
36.5001
  0
LINE
  8
0
 10
54.576
 20
36.5001
 11
54.576
 21
27.6665
  0
LINE
  8
0
 10
54.576
 20
27.6665
 11
50.8017
 21
27.6665
  0
LINE
  8
0
 10
64.686
 20
30.5
 11
64.686
 21
34.5
  0
LINE
  8
0
 10
64.686
 20
34.5
 11
66.686
 21
34.5
  0
LINE
  8
0
 10
66.686
 20
34.5
 11
66.686
 21
30.5
  0
LINE
  8
0
 10
66.686
 20
30.5
 11
64.686
 21
30.5
  0
LINE
  8
0
 10
-66.686
 20
30.5
 11
-66.686
 21
34.5
  0
LINE
  8
0
 10
-66.686
 20
34.5
 11
-64.686
 21
34.5
  0
LINE
  8
0
 10
-64.686
 20
34.5
 11
-64.686
 21
30.5
  0
LINE
  8
0
 10
-64.686
 20
30.5
 11
-66.686
 21
30.5
  0
LINE
  8
0
 10
28.9058
 20
10.203
 11
28.812
 21
10.2118
  0
LINE
  8
0
 10
28.812
 20
10.2118
 11
28.7189
 21
10.2266
  0
LINE
  8
0
 10
28.7189
 20
10.2266
 11
28.627
 21
10.2471
  0
LINE
  8
0
 10
28.627
 20
10.2471
 11
28.5365
 21
10.2734
  0
LINE
  8
0
 10
28.5365
 20
10.2734
 11
28.4478
 21
10.3053
  0
LINE
  8
0
 10
28.4478
 20
10.3053
 11
28.3613
 21
10.3428
  0
LINE
  8
0
 10
28.3613
 20
10.3428
 11
28.2774
 21
10.3855
  0
LINE
  8
0
 10
28.2774
 20
10.3855
 11
28.1963
 21
10.4335
  0
LINE
  8
0
 10
28.1963
 20
10.4335
 11
28.1183
 21
10.4865
  0
LINE
  8
0
 10
28.1183
 20
10.4865
 11
28.0439
 21
10.5442
  0
LINE
  8
0
 10
28.0439
 20
10.5442
 11
27.9732
 21
10.6065
  0
LINE
  8
0
 10
27.9732
 20
10.6065
 11
27.9065
 21
10.6732
  0
LINE
  8
0
 10
27.9065
 20
10.6732
 11
27.8442
 21
10.7439
  0
LINE
  8
0
 10
27.8442
 20
10.7439
 11
27.7865
 21
10.8183
  0
LINE
  8
0
 10
27.7865
 20
10.8183
 11
27.7335
 21
10.8963
  0
LINE
  8
0
 10
27.7335
 20
10.8963
 11
27.6855
 21
10.9774
  0
LINE
  8
0
 10
27.6855
 20
10.9774
 11
27.6427
 21
11.0613
  0
LINE
  8
0
 10
27.6427
 20
11.0613
 11
27.6053
 21
11.1478
  0
LINE
  8
0
 10
27.6053
 20
11.1478
 11
27.5734
 21
11.2365
  0
LINE
  8
0
 10
27.5734
 20
11.2365
 11
27.5471
 21
11.327
  0
LINE
  8
0
 10
27.5471
 20
11.327
 11
27.5266
 21
11.4189
  0
LINE
  8
0
 10
27.5266
 20
11.4189
 11
27.5118
 21
11.512
  0
LINE
  8
0
 10
27.5118
 20
11.512
 11
27.5029
 21
11.6058
  0
LINE
  8
0
 10
27.5029
 20
11.6058
 11
27.5
 21
11.7
  0
LINE
  8
0
 10
27.5
 20
11.7
 11
27.5007
 21
29.7471
  0
LINE
  8
0
 10
27.5007
 20
29.7471
 11
27.5067
 21
29.8412
  0
LINE
  8
0
 10
27.5067
 20
29.8412
 11
27.5185
 21
29.9346
  0
LINE
  8
0
 10
27.5185
 20
29.9346
 11
27.5361
 21
30.0272
  0
LINE
  8
0
 10
27.5361
 20
30.0272
 11
27.5596
 21
30.1185
  0
LINE
  8
0
 10
27.5596
 20
30.1185
 11
27.5887
 21
30.2081
  0
LINE
  8
0
 10
27.5887
 20
30.2081
 11
27.6234
 21
30.2957
  0
LINE
  8
0
 10
27.6234
 20
30.2957
 11
27.6635
 21
30.381
  0
LINE
  8
0
 10
27.6635
 20
30.381
 11
27.7089
 21
30.4636
  0
LINE
  8
0
 10
27.7089
 20
30.4636
 11
27.7594
 21
30.5431
  0
LINE
  8
0
 10
27.7594
 20
30.5431
 11
27.8148
 21
30.6194
  0
LINE
  8
0
 10
27.8148
 20
30.6194
 11
27.8748
 21
30.692
  0
LINE
  8
0
 10
27.8748
 20
30.692
 11
27.9393
 21
30.7607
  0
LINE
  8
0
 10
27.9393
 20
30.7607
 11
28.008
 21
30.8252
  0
LINE
  8
0
 10
28.008
 20
30.8252
 11
28.0806
 21
30.8852
  0
LINE
  8
0
 10
28.0806
 20
30.8852
 11
28.1569
 21
30.9406
  0
LINE
  8
0
 10
28.1569
 20
30.9406
 11
28.2364
 21
30.9911
  0
LINE
  8
0
 10
28.2364
 20
30.9911
 11
28.319
 21
31.0365
  0
LINE
  8
0
 10
28.319
 20
31.0365
 11
28.4043
 21
31.0766
  0
LINE
  8
0
 10
28.4043
 20
31.0766
 11
28.4919
 21
31.1113
  0
LINE
  8
0
 10
28.4919
 20
31.1113
 11
28.5815
 21
31.1404
  0
LINE
  8
0
 10
28.5815
 20
31.1404
 11
28.6728
 21
31.1639
  0
LINE
  8
0
 10
28.6728
 20
31.1639
 11
28.7653
 21
31.1815
  0
LINE
  8
0
 10
28.7653
 20
31.1815
 11
28.8588
 21
31.1933
  0
LINE
  8
0
 10
28.8588
 20
31.1933
 11
28.9529
 21
31.1992
  0
LINE
  8
0
 10
28.9529
 20
31.1992
 11
29.0471
 21
31.1992
  0
LINE
  8
0
 10
29.0471
 20
31.1992
 11
29.1412
 21
31.1933
  0
LINE
  8
0
 10
29.1412
 20
31.1933
 11
29.2346
 21
31.1815
  0
LINE
  8
0
 10
29.2346
 20
31.1815
 11
29.3272
 21
31.1639
  0
LINE
  8
0
 10
29.3272
 20
31.1639
 11
29.4185
 21
31.1404
  0
LINE
  8
0
 10
29.4185
 20
31.1404
 11
29.5081
 21
31.1113
  0
LINE
  8
0
 10
29.5081
 20
31.1113
 11
29.5957
 21
31.0766
  0
LINE
  8
0
 10
29.5957
 20
31.0766
 11
29.681
 21
31.0365
  0
LINE
  8
0
 10
29.681
 20
31.0365
 11
29.7635
 21
30.9911
  0
LINE
  8
0
 10
29.7635
 20
30.9911
 11
29.8431
 21
30.9406
  0
LINE
  8
0
 10
29.8431
 20
30.9406
 11
29.9194
 21
30.8852
  0
LINE
  8
0
 10
29.9194
 20
30.8852
 11
29.992
 21
30.8252
  0
LINE
  8
0
 10
29.992
 20
30.8252
 11
30.0607
 21
30.7607
  0
LINE
  8
0
 10
30.0607
 20
30.7607
 11
30.1252
 21
30.692
  0
LINE
  8
0
 10
30.1252
 20
30.692
 11
30.1852
 21
30.6194
  0
LINE
  8
0
 10
30.1852
 20
30.6194
 11
30.2406
 21
30.5431
  0
LINE
  8
0
 10
30.2406
 20
30.5431
 11
30.2911
 21
30.4636
  0
LINE
  8
0
 10
30.2911
 20
30.4636
 11
30.3365
 21
30.381
  0
LINE
  8
0
 10
30.3365
 20
30.381
 11
30.3766
 21
30.2957
  0
LINE
  8
0
 10
30.3766
 20
30.2957
 11
30.4113
 21
30.2081
  0
LINE
  8
0
 10
30.4113
 20
30.2081
 11
30.4404
 21
30.1185
  0
LINE
  8
0
 10
30.4404
 20
30.1185
 11
30.4639
 21
30.0272
  0
LINE
  8
0
 10
30.4639
 20
30.0272
 11
30.4815
 21
29.9346
  0
LINE
  8
0
 10
30.4815
 20
29.9346
 11
30.4933
 21
29.8412
  0
LINE
  8
0
 10
30.4933
 20
29.8412
 11
30.4993
 21
29.7471
  0
LINE
  8
0
 10
30.4993
 20
29.7471
 11
30.4993
 21
11.6529
  0
LINE
  8
0
 10
30.4993
 20
11.6529
 11
30.4933
 21
11.5588
  0
LINE
  8
0
 10
30.4933
 20
11.5588
 11
30.4815
 21
11.4653
  0
LINE
  8
0
 10
30.4815
 20
11.4653
 11
30.4639
 21
11.3728
  0
LINE
  8
0
 10
30.4639
 20
11.3728
 11
30.4404
 21
11.2815
  0
LINE
  8
0
 10
30.4404
 20
11.2815
 11
30.4113
 21
11.1919
  0
LINE
  8
0
 10
30.4113
 20
11.1919
 11
30.3766
 21
11.1043
  0
LINE
  8
0
 10
30.3766
 20
11.1043
 11
30.3365
 21
11.019
  0
LINE
  8
0
 10
30.3365
 20
11.019
 11
30.2911
 21
10.9364
  0
LINE
  8
0
 10
30.2911
 20
10.9364
 11
30.2406
 21
10.8569
  0
LINE
  8
0
 10
30.2406
 20
10.8569
 11
30.1852
 21
10.7806
  0
LINE
  8
0
 10
30.1852
 20
10.7806
 11
30.1252
 21
10.708
  0
LINE
  8
0
 10
30.1252
 20
10.708
 11
30.0607
 21
10.6393
  0
LINE
  8
0
 10
30.0607
 20
10.6393
 11
29.992
 21
10.5748
  0
LINE
  8
0
 10
29.992
 20
10.5748
 11
29.9194
 21
10.5148
  0
LINE
  8
0
 10
29.9194
 20
10.5148
 11
29.8431
 21
10.4594
  0
LINE
  8
0
 10
29.8431
 20
10.4594
 11
29.7635
 21
10.4089
  0
LINE
  8
0
 10
29.7635
 20
10.4089
 11
29.681
 21
10.3635
  0
LINE
  8
0
 10
29.681
 20
10.3635
 11
29.5957
 21
10.3234
  0
LINE
  8
0
 10
29.5957
 20
10.3234
 11
29.5081
 21
10.2887
  0
LINE
  8
0
 10
29.5081
 20
10.2887
 11
29.4185
 21
10.2596
  0
LINE
  8
0
 10
29.4185
 20
10.2596
 11
29.3272
 21
10.2361
  0
LINE
  8
0
 10
29.3272
 20
10.2361
 11
29.2346
 21
10.2185
  0
LINE
  8
0
 10
29.2346
 20
10.2185
 11
29.1412
 21
10.2066
  0
LINE
  8
0
 10
29.1412
 20
10.2066
 11
29.0471
 21
10.2007
  0
LINE
  8
0
 10
29.0471
 20
10.2007
 11
29
 21
10.2
  0
LINE
  8
0
 10
29
 20
10.2
 11
28.9058
 21
10.203
  0
LINE
  8
0
 10
-29.0942
 20
10.203
 11
-29.188
 21
10.2118
  0
LINE
  8
0
 10
-29.188
 20
10.2118
 11
-29.2811
 21
10.2266
  0
LINE
  8
0
 10
-29.2811
 20
10.2266
 11
-29.373
 21
10.2471
  0
LINE
  8
0
 10
-29.373
 20
10.2471
 11
-29.4635
 21
10.2734
  0
LINE
  8
0
 10
-29.4635
 20
10.2734
 11
-29.5522
 21
10.3053
  0
LINE
  8
0
 10
-29.5522
 20
10.3053
 11
-29.6387
 21
10.3428
  0
LINE
  8
0
 10
-29.6387
 20
10.3428
 11
-29.7226
 21
10.3855
  0
LINE
  8
0
 10
-29.7226
 20
10.3855
 11
-29.8037
 21
10.4335
  0
LINE
  8
0
 10
-29.8037
 20
10.4335
 11
-29.8817
 21
10.4865
  0
LINE
  8
0
 10
-29.8817
 20
10.4865
 11
-29.9561
 21
10.5442
  0
LINE
  8
0
 10
-29.9561
 20
10.5442
 11
-30.0268
 21
10.6065
  0
LINE
  8
0
 10
-30.0268
 20
10.6065
 11
-30.0934
 21
10.6732
  0
LINE
  8
0
 10
-30.0934
 20
10.6732
 11
-30.1558
 21
10.7439
  0
LINE
  8
0
 10
-30.1558
 20
10.7439
 11
-30.2135
 21
10.8183
  0
LINE
  8
0
 10
-30.2135
 20
10.8183
 11
-30.2665
 21
10.8963
  0
LINE
  8
0
 10
-30.2665
 20
10.8963
 11
-30.3145
 21
10.9774
  0
LINE
  8
0
 10
-30.3145
 20
10.9774
 11
-30.3572
 21
11.0613
  0
LINE
  8
0
 10
-30.3572
 20
11.0613
 11
-30.3947
 21
11.1478
  0
LINE
  8
0
 10
-30.3947
 20
11.1478
 11
-30.4266
 21
11.2365
  0
LINE
  8
0
 10
-30.4266
 20
11.2365
 11
-30.4529
 21
11.327
  0
LINE
  8
0
 10
-30.4529
 20
11.327
 11
-30.4734
 21
11.4189
  0
LINE
  8
0
 10
-30.4734
 20
11.4189
 11
-30.4882
 21
11.512
  0
LINE
  8
0
 10
-30.4882
 20
11.512
 11
-30.497
 21
11.6058
  0
LINE
  8
0
 10
-30.497
 20
11.6058
 11
-30.5
 21
11.7
  0
LINE
  8
0
 10
-30.5
 20
11.7
 11
-30.4993
 21
29.7471
  0
LINE
  8
0
 10
-30.4993
 20
29.7471
 11
-30.4933
 21
29.8412
  0
LINE
  8
0
 10
-30.4933
 20
29.8412
 11
-30.4815
 21
29.9346
  0
LINE
  8
0
 10
-30.4815
 20
29.9346
 11
-30.4639
 21
30.0272
  0
LINE
  8
0
 10
-30.4639
 20
30.0272
 11
-30.4404
 21
30.1185
  0
LINE
  8
0
 10
-30.4404
 20
30.1185
 11
-30.4113
 21
30.2081
  0
LINE
  8
0
 10
-30.4113
 20
30.2081
 11
-30.3766
 21
30.2957
  0
LINE
  8
0
 10
-30.3766
 20
30.2957
 11
-30.3365
 21
30.381
  0
LINE
  8
0
 10
-30.3365
 20
30.381
 11
-30.2911
 21
30.4636
  0
LINE
  8
0
 10
-30.2911
 20
30.4636
 11
-30.2406
 21
30.5431
  0
LINE
  8
0
 10
-30.2406
 20
30.5431
 11
-30.1852
 21
30.6194
  0
LINE
  8
0
 10
-30.1852
 20
30.6194
 11
-30.1252
 21
30.692
  0
LINE
  8
0
 10
-30.1252
 20
30.692
 11
-30.0607
 21
30.7607
  0
LINE
  8
0
 10
-30.0607
 20
30.7607
 11
-29.992
 21
30.8252
  0
LINE
  8
0
 10
-29.992
 20
30.8252
 11
-29.9194
 21
30.8852
  0
LINE
  8
0
 10
-29.9194
 20
30.8852
 11
-29.8431
 21
30.9406
  0
LINE
  8
0
 10
-29.8431
 20
30.9406
 11
-29.7635
 21
30.9911
  0
LINE
  8
0
 10
-29.7635
 20
30.9911
 11
-29.681
 21
31.0365
  0
LINE
  8
0
 10
-29.681
 20
31.0365
 11
-29.5957
 21
31.0766
  0
LINE
  8
0
 10
-29.5957
 20
31.0766
 11
-29.5081
 21
31.1113
  0
LINE
  8
0
 10
-29.5081
 20
31.1113
 11
-29.4185
 21
31.1404
  0
LINE
  8
0
 10
-29.4185
 20
31.1404
 11
-29.3272
 21
31.1639
  0
LINE
  8
0
 10
-29.3272
 20
31.1639
 11
-29.2346
 21
31.1815
  0
LINE
  8
0
 10
-29.2346
 20
31.1815
 11
-29.1412
 21
31.1933
  0
LINE
  8
0
 10
-29.1412
 20
31.1933
 11
-29.0471
 21
31.1992
  0
LINE
  8
0
 10
-29.0471
 20
31.1992
 11
-28.9529
 21
31.1992
  0
LINE
  8
0
 10
-28.9529
 20
31.1992
 11
-28.8588
 21
31.1933
  0
LINE
  8
0
 10
-28.8588
 20
31.1933
 11
-28.7653
 21
31.1815
  0
LINE
  8
0
 10
-28.7653
 20
31.1815
 11
-28.6728
 21
31.1639
  0
LINE
  8
0
 10
-28.6728
 20
31.1639
 11
-28.5815
 21
31.1404
  0
LINE
  8
0
 10
-28.5815
 20
31.1404
 11
-28.4919
 21
31.1113
  0
LINE
  8
0
 10
-28.4919
 20
31.1113
 11
-28.4043
 21
31.0766
  0
LINE
  8
0
 10
-28.4043
 20
31.0766
 11
-28.319
 21
31.0365
  0
LINE
  8
0
 10
-28.319
 20
31.0365
 11
-28.2364
 21
30.9911
  0
LINE
  8
0
 10
-28.2364
 20
30.9911
 11
-28.1569
 21
30.9406
  0
LINE
  8
0
 10
-28.1569
 20
30.9406
 11
-28.0806
 21
30.8852
  0
LINE
  8
0
 10
-28.0806
 20
30.8852
 11
-28.008
 21
30.8252
  0
LINE
  8
0
 10
-28.008
 20
30.8252
 11
-27.9393
 21
30.7607
  0
LINE
  8
0
 10
-27.9393
 20
30.7607
 11
-27.8748
 21
30.692
  0
LINE
  8
0
 10
-27.8748
 20
30.692
 11
-27.8148
 21
30.6194
  0
LINE
  8
0
 10
-27.8148
 20
30.6194
 11
-27.7594
 21
30.5431
  0
LINE
  8
0
 10
-27.7594
 20
30.5431
 11
-27.7089
 21
30.4636
  0
LINE
  8
0
 10
-27.7089
 20
30.4636
 11
-27.6635
 21
30.381
  0
LINE
  8
0
 10
-27.6635
 20
30.381
 11
-27.6234
 21
30.2957
  0
LINE
  8
0
 10
-27.6234
 20
30.2957
 11
-27.5887
 21
30.2081
  0
LINE
  8
0
 10
-27.5887
 20
30.2081
 11
-27.5596
 21
30.1185
  0
LINE
  8
0
 10
-27.5596
 20
30.1185
 11
-27.5361
 21
30.0272
  0
LINE
  8
0
 10
-27.5361
 20
30.0272
 11
-27.5185
 21
29.9346
  0
LINE
  8
0
 10
-27.5185
 20
29.9346
 11
-27.5067
 21
29.8412
  0
LINE
  8
0
 10
-27.5067
 20
29.8412
 11
-27.5007
 21
29.7471
  0
LINE
  8
0
 10
-27.5007
 20
29.7471
 11
-27.5007
 21
11.6529
  0
LINE
  8
0
 10
-27.5007
 20
11.6529
 11
-27.5067
 21
11.5588
  0
LINE
  8
0
 10
-27.5067
 20
11.5588
 11
-27.5185
 21
11.4653
  0
LINE
  8
0
 10
-27.5185
 20
11.4653
 11
-27.5361
 21
11.3728
  0
LINE
  8
0
 10
-27.5361
 20
11.3728
 11
-27.5596
 21
11.2815
  0
LINE
  8
0
 10
-27.5596
 20
11.2815
 11
-27.5887
 21
11.1919
  0
LINE
  8
0
 10
-27.5887
 20
11.1919
 11
-27.6234
 21
11.1043
  0
LINE
  8
0
 10
-27.6234
 20
11.1043
 11
-27.6635
 21
11.019
  0
LINE
  8
0
 10
-27.6635
 20
11.019
 11
-27.7089
 21
10.9364
  0
LINE
  8
0
 10
-27.7089
 20
10.9364
 11
-27.7594
 21
10.8569
  0
LINE
  8
0
 10
-27.7594
 20
10.8569
 11
-27.8148
 21
10.7806
  0
LINE
  8
0
 10
-27.8148
 20
10.7806
 11
-27.8748
 21
10.708
  0
LINE
  8
0
 10
-27.8748
 20
10.708
 11
-27.9393
 21
10.6393
  0
LINE
  8
0
 10
-27.9393
 20
10.6393
 11
-28.008
 21
10.5748
  0
LINE
  8
0
 10
-28.008
 20
10.5748
 11
-28.0806
 21
10.5148
  0
LINE
  8
0
 10
-28.0806
 20
10.5148
 11
-28.1569
 21
10.4594
  0
LINE
  8
0
 10
-28.1569
 20
10.4594
 11
-28.2364
 21
10.4089
  0
LINE
  8
0
 10
-28.2364
 20
10.4089
 11
-28.319
 21
10.3635
  0
LINE
  8
0
 10
-28.319
 20
10.3635
 11
-28.4043
 21
10.3234
  0
LINE
  8
0
 10
-28.4043
 20
10.3234
 11
-28.4919
 21
10.2887
  0
LINE
  8
0
 10
-28.4919
 20
10.2887
 11
-28.5815
 21
10.2596
  0
LINE
  8
0
 10
-28.5815
 20
10.2596
 11
-28.6728
 21
10.2361
  0
LINE
  8
0
 10
-28.6728
 20
10.2361
 11
-28.7653
 21
10.2185
  0
LINE
  8
0
 10
-28.7653
 20
10.2185
 11
-28.8588
 21
10.2066
  0
LINE
  8
0
 10
-28.8588
 20
10.2066
 11
-28.9529
 21
10.2007
  0
LINE
  8
0
 10
-28.9529
 20
10.2007
 11
-29
 21
10.2
  0
LINE
  8
0
 10
-29
 20
10.2
 11
-29.0942
 21
10.203
  0
LINE
  8
0
 10
47.686
 20
18.6667
 11
47.686
 21
22.6667
  0
LINE
  8
0
 10
47.686
 20
22.6667
 11
49.686
 21
22.6667
  0
LINE
  8
0
 10
49.686
 20
22.6667
 11
49.686
 21
18.6667
  0
LINE
  8
0
 10
49.686
 20
18.6667
 11
47.686
 21
18.6667
  0
LINE
  8
0
 10
-49.686
 20
18.6667
 11
-49.686
 21
22.6667
  0
LINE
  8
0
 10
-49.686
 20
22.6667
 11
-47.686
 21
22.6667
  0
LINE
  8
0
 10
-47.686
 20
22.6667
 11
-47.686
 21
18.6667
  0
LINE
  8
0
 10
-47.686
 20
18.6667
 11
-49.686
 21
18.6667
  0
LINE
  8
0
 10
56.686
 20
18.6667
 11
56.686
 21
22.6667
  0
LINE
  8
0
 10
56.686
 20
22.6667
 11
58.686
 21
22.6667
  0
LINE
  8
0
 10
58.686
 20
22.6667
 11
58.686
 21
18.6667
  0
LINE
  8
0
 10
58.686
 20
18.6667
 11
56.686
 21
18.6667
  0
LINE
  8
0
 10
-58.686
 20
18.6667
 11
-58.686
 21
22.6667
  0
LINE
  8
0
 10
-58.686
 20
22.6667
 11
-56.686
 21
22.6667
  0
LINE
  8
0
 10
-56.686
 20
22.6667
 11
-56.686
 21
18.6667
  0
LINE
  8
0
 10
-56.686
 20
18.6667
 11
-58.686
 21
18.6667
  0
LINE
  8
0
 10
50.8017
 20
-2.86659
 11
50.8016
 21
13.8333
  0
LINE
  8
0
 10
50.8016
 20
13.8333
 11
54.576
 21
13.8334
  0
LINE
  8
0
 10
54.576
 20
13.8334
 11
54.576
 21
-2.86659
  0
LINE
  8
0
 10
54.576
 20
-2.86659
 11
50.8017
 21
-2.86659
  0
LINE
  8
0
 10
-54.576
 20
-2.86659
 11
-54.5761
 21
13.8333
  0
LINE
  8
0
 10
-54.5761
 20
13.8333
 11
-50.8017
 21
13.8334
  0
LINE
  8
0
 10
-50.8017
 20
13.8334
 11
-50.8017
 21
-2.86659
  0
LINE
  8
0
 10
-50.8017
 20
-2.86659
 11
-54.576
 21
-2.86659
  0
LINE
  8
0
 10
-66.686
 20
0.843628
 11
-66.686
 21
4.84363
  0
LINE
  8
0
 10
-66.686
 20
4.84363
 11
-64.686
 21
4.84363
  0
LINE
  8
0
 10
-64.686
 20
4.84363
 11
-64.686
 21
0.843628
  0
LINE
  8
0
 10
-64.686
 20
0.843628
 11
-66.686
 21
0.843628
  0
LINE
  8
0
 10
64.686
 20
0.843628
 11
64.686
 21
4.84363
  0
LINE
  8
0
 10
64.686
 20
4.84363
 11
66.686
 21
4.84363
  0
LINE
  8
0
 10
66.686
 20
4.84363
 11
66.686
 21
0.843628
  0
LINE
  8
0
 10
66.686
 20
0.843628
 11
64.686
 21
0.843628
  0
LINE
  8
0
 10
-29.0942
 20
-21.797
 11
-29.188
 21
-21.7882
  0
LINE
  8
0
 10
-29.188
 20
-21.7882
 11
-29.2811
 21
-21.7734
  0
LINE
  8
0
 10
-29.2811
 20
-21.7734
 11
-29.373
 21
-21.7529
  0
LINE
  8
0
 10
-29.373
 20
-21.7529
 11
-29.4635
 21
-21.7266
  0
LINE
  8
0
 10
-29.4635
 20
-21.7266
 11
-29.5522
 21
-21.6947
  0
LINE
  8
0
 10
-29.5522
 20
-21.6947
 11
-29.6387
 21
-21.6572
  0
LINE
  8
0
 10
-29.6387
 20
-21.6572
 11
-29.7226
 21
-21.6145
  0
LINE
  8
0
 10
-29.7226
 20
-21.6145
 11
-29.8037
 21
-21.5665
  0
LINE
  8
0
 10
-29.8037
 20
-21.5665
 11
-29.8817
 21
-21.5135
  0
LINE
  8
0
 10
-29.8817
 20
-21.5135
 11
-29.9561
 21
-21.4558
  0
LINE
  8
0
 10
-29.9561
 20
-21.4558
 11
-30.0268
 21
-21.3934
  0
LINE
  8
0
 10
-30.0268
 20
-21.3934
 11
-30.0934
 21
-21.3268
  0
LINE
  8
0
 10
-30.0934
 20
-21.3268
 11
-30.1558
 21
-21.2561
  0
LINE
  8
0
 10
-30.1558
 20
-21.2561
 11
-30.2135
 21
-21.1817
  0
LINE
  8
0
 10
-30.2135
 20
-21.1817
 11
-30.2665
 21
-21.1037
  0
LINE
  8
0
 10
-30.2665
 20
-21.1037
 11
-30.3145
 21
-21.0226
  0
LINE
  8
0
 10
-30.3145
 20
-21.0226
 11
-30.3572
 21
-20.9387
  0
LINE
  8
0
 10
-30.3572
 20
-20.9387
 11
-30.3947
 21
-20.8522
  0
LINE
  8
0
 10
-30.3947
 20
-20.8522
 11
-30.4266
 21
-20.7635
  0
LINE
  8
0
 10
-30.4266
 20
-20.7635
 11
-30.4529
 21
-20.673
  0
LINE
  8
0
 10
-30.4529
 20
-20.673
 11
-30.4734
 21
-20.5811
  0
LINE
  8
0
 10
-30.4734
 20
-20.5811
 11
-30.4882
 21
-20.488
  0
LINE
  8
0
 10
-30.4882
 20
-20.488
 11
-30.497
 21
-20.3942
  0
LINE
  8
0
 10
-30.497
 20
-20.3942
 11
-30.5
 21
-20.3
  0
LINE
  8
0
 10
-30.5
 20
-20.3
 11
-30.4993
 21
-2.25287
  0
LINE
  8
0
 10
-30.4993
 20
-2.25287
 11
-30.4933
 21
-2.15883
  0
LINE
  8
0
 10
-30.4933
 20
-2.15883
 11
-30.4815
 21
-2.06534
  0
LINE
  8
0
 10
-30.4815
 20
-2.06534
 11
-30.4639
 21
-1.97278
  0
LINE
  8
0
 10
-30.4639
 20
-1.97278
 11
-30.4404
 21
-1.8815
  0
LINE
  8
0
 10
-30.4404
 20
-1.8815
 11
-30.4113
 21
-1.79189
  0
LINE
  8
0
 10
-30.4113
 20
-1.79189
 11
-30.3766
 21
-1.70427
  0
LINE
  8
0
 10
-30.3766
 20
-1.70427
 11
-30.3365
 21
-1.619
  0
LINE
  8
0
 10
-30.3365
 20
-1.619
 11
-30.2911
 21
-1.53642
  0
LINE
  8
0
 10
-30.2911
 20
-1.53642
 11
-30.2406
 21
-1.45686
  0
LINE
  8
0
 10
-30.2406
 20
-1.45686
 11
-30.1852
 21
-1.38063
  0
LINE
  8
0
 10
-30.1852
 20
-1.38063
 11
-30.1252
 21
-1.30803
  0
LINE
  8
0
 10
-30.1252
 20
-1.30803
 11
-30.0607
 21
-1.23933
  0
LINE
  8
0
 10
-30.0607
 20
-1.23933
 11
-29.992
 21
-1.17482
  0
LINE
  8
0
 10
-29.992
 20
-1.17482
 11
-29.9194
 21
-1.11476
  0
LINE
  8
0
 10
-29.9194
 20
-1.11476
 11
-29.8431
 21
-1.05937
  0
LINE
  8
0
 10
-29.8431
 20
-1.05937
 11
-29.7635
 21
-1.00888
  0
LINE
  8
0
 10
-29.7635
 20
-1.00888
 11
-29.681
 21
-0.963486
  0
LINE
  8
0
 10
-29.681
 20
-0.963486
 11
-29.5957
 21
-0.923355
  0
LINE
  8
0
 10
-29.5957
 20
-0.923355
 11
-29.5081
 21
-0.888672
  0
LINE
  8
0
 10
-29.5081
 20
-0.888672
 11
-29.4185
 21
-0.859558
  0
LINE
  8
0
 10
-29.4185
 20
-0.859558
 11
-29.3272
 21
-0.836121
  0
LINE
  8
0
 10
-29.3272
 20
-0.836121
 11
-29.2346
 21
-0.818466
  0
LINE
  8
0
 10
-29.2346
 20
-0.818466
 11
-29.1412
 21
-0.806656
  0
LINE
  8
0
 10
-29.1412
 20
-0.806656
 11
-29.0471
 21
-0.800735
  0
LINE
  8
0
 10
-29.0471
 20
-0.800735
 11
-28.9529
 21
-0.800735
  0
LINE
  8
0
 10
-28.9529
 20
-0.800735
 11
-28.8588
 21
-0.806656
  0
LINE
  8
0
 10
-28.8588
 20
-0.806656
 11
-28.7653
 21
-0.818466
  0
LINE
  8
0
 10
-28.7653
 20
-0.818466
 11
-28.6728
 21
-0.836121
  0
LINE
  8
0
 10
-28.6728
 20
-0.836121
 11
-28.5815
 21
-0.859558
  0
LINE
  8
0
 10
-28.5815
 20
-0.859558
 11
-28.4919
 21
-0.888672
  0
LINE
  8
0
 10
-28.4919
 20
-0.888672
 11
-28.4043
 21
-0.923355
  0
LINE
  8
0
 10
-28.4043
 20
-0.923355
 11
-28.319
 21
-0.963486
  0
LINE
  8
0
 10
-28.319
 20
-0.963486
 11
-28.2364
 21
-1.00888
  0
LINE
  8
0
 10
-28.2364
 20
-1.00888
 11
-28.1569
 21
-1.05937
  0
LINE
  8
0
 10
-28.1569
 20
-1.05937
 11
-28.0806
 21
-1.11476
  0
LINE
  8
0
 10
-28.0806
 20
-1.11476
 11
-28.008
 21
-1.17482
  0
LINE
  8
0
 10
-28.008
 20
-1.17482
 11
-27.9393
 21
-1.23933
  0
LINE
  8
0
 10
-27.9393
 20
-1.23933
 11
-27.8748
 21
-1.30803
  0
LINE
  8
0
 10
-27.8748
 20
-1.30803
 11
-27.8148
 21
-1.38063
  0
LINE
  8
0
 10
-27.8148
 20
-1.38063
 11
-27.7594
 21
-1.45686
  0
LINE
  8
0
 10
-27.7594
 20
-1.45686
 11
-27.7089
 21
-1.53642
  0
LINE
  8
0
 10
-27.7089
 20
-1.53642
 11
-27.6635
 21
-1.619
  0
LINE
  8
0
 10
-27.6635
 20
-1.619
 11
-27.6234
 21
-1.70427
  0
LINE
  8
0
 10
-27.6234
 20
-1.70427
 11
-27.5887
 21
-1.79189
  0
LINE
  8
0
 10
-27.5887
 20
-1.79189
 11
-27.5596
 21
-1.8815
  0
LINE
  8
0
 10
-27.5596
 20
-1.8815
 11
-27.5361
 21
-1.97278
  0
LINE
  8
0
 10
-27.5361
 20
-1.97278
 11
-27.5185
 21
-2.06534
  0
LINE
  8
0
 10
-27.5185
 20
-2.06534
 11
-27.5067
 21
-2.15883
  0
LINE
  8
0
 10
-27.5067
 20
-2.15883
 11
-27.5007
 21
-2.25287
  0
LINE
  8
0
 10
-27.5007
 20
-2.25287
 11
-27.5007
 21
-20.3471
  0
LINE
  8
0
 10
-27.5007
 20
-20.3471
 11
-27.5067
 21
-20.4412
  0
LINE
  8
0
 10
-27.5067
 20
-20.4412
 11
-27.5185
 21
-20.5346
  0
LINE
  8
0
 10
-27.5185
 20
-20.5346
 11
-27.5361
 21
-20.6272
  0
LINE
  8
0
 10
-27.5361
 20
-20.6272
 11
-27.5596
 21
-20.7185
  0
LINE
  8
0
 10
-27.5596
 20
-20.7185
 11
-27.5887
 21
-20.8081
  0
LINE
  8
0
 10
-27.5887
 20
-20.8081
 11
-27.6234
 21
-20.8957
  0
LINE
  8
0
 10
-27.6234
 20
-20.8957
 11
-27.6635
 21
-20.981
  0
LINE
  8
0
 10
-27.6635
 20
-20.981
 11
-27.7089
 21
-21.0636
  0
LINE
  8
0
 10
-27.7089
 20
-21.0636
 11
-27.7594
 21
-21.1431
  0
LINE
  8
0
 10
-27.7594
 20
-21.1431
 11
-27.8148
 21
-21.2194
  0
LINE
  8
0
 10
-27.8148
 20
-21.2194
 11
-27.8748
 21
-21.292
  0
LINE
  8
0
 10
-27.8748
 20
-21.292
 11
-27.9393
 21
-21.3607
  0
LINE
  8
0
 10
-27.9393
 20
-21.3607
 11
-28.008
 21
-21.4252
  0
LINE
  8
0
 10
-28.008
 20
-21.4252
 11
-28.0806
 21
-21.4852
  0
LINE
  8
0
 10
-28.0806
 20
-21.4852
 11
-28.1569
 21
-21.5406
  0
LINE
  8
0
 10
-28.1569
 20
-21.5406
 11
-28.2364
 21
-21.5911
  0
LINE
  8
0
 10
-28.2364
 20
-21.5911
 11
-28.319
 21
-21.6365
  0
LINE
  8
0
 10
-28.319
 20
-21.6365
 11
-28.4043
 21
-21.6766
  0
LINE
  8
0
 10
-28.4043
 20
-21.6766
 11
-28.4919
 21
-21.7113
  0
LINE
  8
0
 10
-28.4919
 20
-21.7113
 11
-28.5815
 21
-21.7404
  0
LINE
  8
0
 10
-28.5815
 20
-21.7404
 11
-28.6728
 21
-21.7639
  0
LINE
  8
0
 10
-28.6728
 20
-21.7639
 11
-28.7653
 21
-21.7815
  0
LINE
  8
0
 10
-28.7653
 20
-21.7815
 11
-28.8588
 21
-21.7933
  0
LINE
  8
0
 10
-28.8588
 20
-21.7933
 11
-28.9529
 21
-21.7993
  0
LINE
  8
0
 10
-28.9529
 20
-21.7993
 11
-29
 21
-21.8
  0
LINE
  8
0
 10
-29
 20
-21.8
 11
-29.0942
 21
-21.797
  0
LINE
  8
0
 10
28.9058
 20
-21.797
 11
28.812
 21
-21.7882
  0
LINE
  8
0
 10
28.812
 20
-21.7882
 11
28.7189
 21
-21.7734
  0
LINE
  8
0
 10
28.7189
 20
-21.7734
 11
28.627
 21
-21.7529
  0
LINE
  8
0
 10
28.627
 20
-21.7529
 11
28.5365
 21
-21.7266
  0
LINE
  8
0
 10
28.5365
 20
-21.7266
 11
28.4478
 21
-21.6947
  0
LINE
  8
0
 10
28.4478
 20
-21.6947
 11
28.3613
 21
-21.6572
  0
LINE
  8
0
 10
28.3613
 20
-21.6572
 11
28.2774
 21
-21.6145
  0
LINE
  8
0
 10
28.2774
 20
-21.6145
 11
28.1963
 21
-21.5665
  0
LINE
  8
0
 10
28.1963
 20
-21.5665
 11
28.1183
 21
-21.5135
  0
LINE
  8
0
 10
28.1183
 20
-21.5135
 11
28.0439
 21
-21.4558
  0
LINE
  8
0
 10
28.0439
 20
-21.4558
 11
27.9732
 21
-21.3934
  0
LINE
  8
0
 10
27.9732
 20
-21.3934
 11
27.9065
 21
-21.3268
  0
LINE
  8
0
 10
27.9065
 20
-21.3268
 11
27.8442
 21
-21.2561
  0
LINE
  8
0
 10
27.8442
 20
-21.2561
 11
27.7865
 21
-21.1817
  0
LINE
  8
0
 10
27.7865
 20
-21.1817
 11
27.7335
 21
-21.1037
  0
LINE
  8
0
 10
27.7335
 20
-21.1037
 11
27.6855
 21
-21.0226
  0
LINE
  8
0
 10
27.6855
 20
-21.0226
 11
27.6427
 21
-20.9387
  0
LINE
  8
0
 10
27.6427
 20
-20.9387
 11
27.6053
 21
-20.8522
  0
LINE
  8
0
 10
27.6053
 20
-20.8522
 11
27.5734
 21
-20.7635
  0
LINE
  8
0
 10
27.5734
 20
-20.7635
 11
27.5471
 21
-20.673
  0
LINE
  8
0
 10
27.5471
 20
-20.673
 11
27.5266
 21
-20.5811
  0
LINE
  8
0
 10
27.5266
 20
-20.5811
 11
27.5118
 21
-20.488
  0
LINE
  8
0
 10
27.5118
 20
-20.488
 11
27.5029
 21
-20.3942
  0
LINE
  8
0
 10
27.5029
 20
-20.3942
 11
27.5
 21
-20.3
  0
LINE
  8
0
 10
27.5
 20
-20.3
 11
27.5007
 21
-2.25287
  0
LINE
  8
0
 10
27.5007
 20
-2.25287
 11
27.5067
 21
-2.15883
  0
LINE
  8
0
 10
27.5067
 20
-2.15883
 11
27.5185
 21
-2.06534
  0
LINE
  8
0
 10
27.5185
 20
-2.06534
 11
27.5361
 21
-1.97278
  0
LINE
  8
0
 10
27.5361
 20
-1.97278
 11
27.5596
 21
-1.8815
  0
LINE
  8
0
 10
27.5596
 20
-1.8815
 11
27.5887
 21
-1.79189
  0
LINE
  8
0
 10
27.5887
 20
-1.79189
 11
27.6234
 21
-1.70427
  0
LINE
  8
0
 10
27.6234
 20
-1.70427
 11
27.6635
 21
-1.619
  0
LINE
  8
0
 10
27.6635
 20
-1.619
 11
27.7089
 21
-1.53642
  0
LINE
  8
0
 10
27.7089
 20
-1.53642
 11
27.7594
 21
-1.45686
  0
LINE
  8
0
 10
27.7594
 20
-1.45686
 11
27.8148
 21
-1.38063
  0
LINE
  8
0
 10
27.8148
 20
-1.38063
 11
27.8748
 21
-1.30803
  0
LINE
  8
0
 10
27.8748
 20
-1.30803
 11
27.9393
 21
-1.23933
  0
LINE
  8
0
 10
27.9393
 20
-1.23933
 11
28.008
 21
-1.17482
  0
LINE
  8
0
 10
28.008
 20
-1.17482
 11
28.0806
 21
-1.11476
  0
LINE
  8
0
 10
28.0806
 20
-1.11476
 11
28.1569
 21
-1.05937
  0
LINE
  8
0
 10
28.1569
 20
-1.05937
 11
28.2364
 21
-1.00888
  0
LINE
  8
0
 10
28.2364
 20
-1.00888
 11
28.319
 21
-0.963486
  0
LINE
  8
0
 10
28.319
 20
-0.963486
 11
28.4043
 21
-0.923355
  0
LINE
  8
0
 10
28.4043
 20
-0.923355
 11
28.4919
 21
-0.888672
  0
LINE
  8
0
 10
28.4919
 20
-0.888672
 11
28.5815
 21
-0.859558
  0
LINE
  8
0
 10
28.5815
 20
-0.859558
 11
28.6728
 21
-0.836121
  0
LINE
  8
0
 10
28.6728
 20
-0.836121
 11
28.7653
 21
-0.818466
  0
LINE
  8
0
 10
28.7653
 20
-0.818466
 11
28.8588
 21
-0.806656
  0
LINE
  8
0
 10
28.8588
 20
-0.806656
 11
28.9529
 21
-0.800735
  0
LINE
  8
0
 10
28.9529
 20
-0.800735
 11
29.0471
 21
-0.800735
  0
LINE
  8
0
 10
29.0471
 20
-0.800735
 11
29.1412
 21
-0.806656
  0
LINE
  8
0
 10
29.1412
 20
-0.806656
 11
29.2346
 21
-0.818466
  0
LINE
  8
0
 10
29.2346
 20
-0.818466
 11
29.3272
 21
-0.836121
  0
LINE
  8
0
 10
29.3272
 20
-0.836121
 11
29.4185
 21
-0.859558
  0
LINE
  8
0
 10
29.4185
 20
-0.859558
 11
29.5081
 21
-0.888672
  0
LINE
  8
0
 10
29.5081
 20
-0.888672
 11
29.5957
 21
-0.923355
  0
LINE
  8
0
 10
29.5957
 20
-0.923355
 11
29.681
 21
-0.963486
  0
LINE
  8
0
 10
29.681
 20
-0.963486
 11
29.7635
 21
-1.00888
  0
LINE
  8
0
 10
29.7635
 20
-1.00888
 11
29.8431
 21
-1.05937
  0
LINE
  8
0
 10
29.8431
 20
-1.05937
 11
29.9194
 21
-1.11476
  0
LINE
  8
0
 10
29.9194
 20
-1.11476
 11
29.992
 21
-1.17482
  0
LINE
  8
0
 10
29.992
 20
-1.17482
 11
30.0607
 21
-1.23933
  0
LINE
  8
0
 10
30.0607
 20
-1.23933
 11
30.1252
 21
-1.30803
  0
LINE
  8
0
 10
30.1252
 20
-1.30803
 11
30.1852
 21
-1.38063
  0
LINE
  8
0
 10
30.1852
 20
-1.38063
 11
30.2406
 21
-1.45686
  0
LINE
  8
0
 10
30.2406
 20
-1.45686
 11
30.2911
 21
-1.53642
  0
LINE
  8
0
 10
30.2911
 20
-1.53642
 11
30.3365
 21
-1.619
  0
LINE
  8
0
 10
30.3365
 20
-1.619
 11
30.3766
 21
-1.70427
  0
LINE
  8
0
 10
30.3766
 20
-1.70427
 11
30.4113
 21
-1.79189
  0
LINE
  8
0
 10
30.4113
 20
-1.79189
 11
30.4404
 21
-1.8815
  0
LINE
  8
0
 10
30.4404
 20
-1.8815
 11
30.4639
 21
-1.97278
  0
LINE
  8
0
 10
30.4639
 20
-1.97278
 11
30.4815
 21
-2.06534
  0
LINE
  8
0
 10
30.4815
 20
-2.06534
 11
30.4933
 21
-2.15883
  0
LINE
  8
0
 10
30.4933
 20
-2.15883
 11
30.4993
 21
-2.25287
  0
LINE
  8
0
 10
30.4993
 20
-2.25287
 11
30.4993
 21
-20.3471
  0
LINE
  8
0
 10
30.4993
 20
-20.3471
 11
30.4933
 21
-20.4412
  0
LINE
  8
0
 10
30.4933
 20
-20.4412
 11
30.4815
 21
-20.5346
  0
LINE
  8
0
 10
30.4815
 20
-20.5346
 11
30.4639
 21
-20.6272
  0
LINE
  8
0
 10
30.4639
 20
-20.6272
 11
30.4404
 21
-20.7185
  0
LINE
  8
0
 10
30.4404
 20
-20.7185
 11
30.4113
 21
-20.8081
  0
LINE
  8
0
 10
30.4113
 20
-20.8081
 11
30.3766
 21
-20.8957
  0
LINE
  8
0
 10
30.3766
 20
-20.8957
 11
30.3365
 21
-20.981
  0
LINE
  8
0
 10
30.3365
 20
-20.981
 11
30.2911
 21
-21.0636
  0
LINE
  8
0
 10
30.2911
 20
-21.0636
 11
30.2406
 21
-21.1431
  0
LINE
  8
0
 10
30.2406
 20
-21.1431
 11
30.1852
 21
-21.2194
  0
LINE
  8
0
 10
30.1852
 20
-21.2194
 11
30.1252
 21
-21.292
  0
LINE
  8
0
 10
30.1252
 20
-21.292
 11
30.0607
 21
-21.3607
  0
LINE
  8
0
 10
30.0607
 20
-21.3607
 11
29.992
 21
-21.4252
  0
LINE
  8
0
 10
29.992
 20
-21.4252
 11
29.9194
 21
-21.4852
  0
LINE
  8
0
 10
29.9194
 20
-21.4852
 11
29.8431
 21
-21.5406
  0
LINE
  8
0
 10
29.8431
 20
-21.5406
 11
29.7635
 21
-21.5911
  0
LINE
  8
0
 10
29.7635
 20
-21.5911
 11
29.681
 21
-21.6365
  0
LINE
  8
0
 10
29.681
 20
-21.6365
 11
29.5957
 21
-21.6766
  0
LINE
  8
0
 10
29.5957
 20
-21.6766
 11
29.5081
 21
-21.7113
  0
LINE
  8
0
 10
29.5081
 20
-21.7113
 11
29.4185
 21
-21.7404
  0
LINE
  8
0
 10
29.4185
 20
-21.7404
 11
29.3272
 21
-21.7639
  0
LINE
  8
0
 10
29.3272
 20
-21.7639
 11
29.2346
 21
-21.7815
  0
LINE
  8
0
 10
29.2346
 20
-21.7815
 11
29.1412
 21
-21.7933
  0
LINE
  8
0
 10
29.1412
 20
-21.7933
 11
29.0471
 21
-21.7993
  0
LINE
  8
0
 10
29.0471
 20
-21.7993
 11
29
 21
-21.8
  0
LINE
  8
0
 10
29
 20
-21.8
 11
28.9058
 21
-21.797
  0
LINE
  8
0
 10
-48.2529
 20
-52.8134
 11
-48.3469
 21
-52.8065
  0
LINE
  8
0
 10
-48.3469
 20
-52.8065
 11
-48.4402
 21
-52.7937
  0
LINE
  8
0
 10
-48.4402
 20
-52.7937
 11
-48.5326
 21
-52.7751
  0
LINE
  8
0
 10
-48.5326
 20
-52.7751
 11
-48.6236
 21
-52.7507
  0
LINE
  8
0
 10
-48.6236
 20
-52.7507
 11
-48.7129
 21
-52.7207
  0
LINE
  8
0
 10
-48.7129
 20
-52.7207
 11
-48.8002
 21
-52.6851
  0
LINE
  8
0
 10
-48.8002
 20
-52.6851
 11
-48.885
 21
-52.6441
  0
LINE
  8
0
 10
-48.885
 20
-52.6441
 11
-48.9671
 21
-52.5978
  0
LINE
  8
0
 10
-48.9671
 20
-52.5978
 11
-49.0461
 21
-52.5465
  0
LINE
  8
0
 10
-49.0461
 20
-52.5465
 11
-49.1218
 21
-52.4903
  0
LINE
  8
0
 10
-49.1218
 20
-52.4903
 11
-49.1938
 21
-52.4295
  0
LINE
  8
0
 10
-49.1938
 20
-52.4295
 11
-49.2618
 21
-52.3642
  0
LINE
  8
0
 10
-49.2618
 20
-52.3642
 11
-49.3256
 21
-52.2949
  0
LINE
  8
0
 10
-49.3256
 20
-52.2949
 11
-49.3849
 21
-52.2216
  0
LINE
  8
0
 10
-49.3849
 20
-52.2216
 11
-49.4395
 21
-52.1448
  0
LINE
  8
0
 10
-49.4395
 20
-52.1448
 11
-49.4891
 21
-52.0647
  0
LINE
  8
0
 10
-49.4891
 20
-52.0647
 11
-49.5336
 21
-51.9817
  0
LINE
  8
0
 10
-49.5336
 20
-51.9817
 11
-49.5729
 21
-51.896
  0
LINE
  8
0
 10
-49.5729
 20
-51.896
 11
-49.6066
 21
-51.808
  0
LINE
  8
0
 10
-49.6066
 20
-51.808
 11
-49.6348
 21
-51.7181
  0
LINE
  8
0
 10
-49.6348
 20
-51.7181
 11
-49.6573
 21
-51.6266
  0
LINE
  8
0
 10
-49.6573
 20
-51.6266
 11
-49.674
 21
-51.5339
  0
LINE
  8
0
 10
-49.674
 20
-51.5339
 11
-49.6848
 21
-51.4403
  0
LINE
  8
0
 10
-49.6848
 20
-51.4403
 11
-49.6897
 21
-51.3462
  0
LINE
  8
0
 10
-49.6897
 20
-51.3462
 11
-49.6888
 21
-51.2519
  0
LINE
  8
0
 10
-49.6888
 20
-51.2519
 11
-49.6819
 21
-51.158
  0
LINE
  8
0
 10
-49.6819
 20
-51.158
 11
-49.6691
 21
-51.0646
  0
LINE
  8
0
 10
-49.6691
 20
-51.0646
 11
-49.6504
 21
-50.9722
  0
LINE
  8
0
 10
-49.6504
 20
-50.9722
 11
-49.6261
 21
-50.8812
  0
LINE
  8
0
 10
-49.6261
 20
-50.8812
 11
-49.596
 21
-50.7919
  0
LINE
  8
0
 10
-49.596
 20
-50.7919
 11
-49.5604
 21
-50.7047
  0
LINE
  8
0
 10
-49.5604
 20
-50.7047
 11
-49.5194
 21
-50.6198
  0
LINE
  8
0
 10
-49.5194
 20
-50.6198
 11
-49.4731
 21
-50.5377
  0
LINE
  8
0
 10
-49.4731
 20
-50.5377
 11
-49.4218
 21
-50.4587
  0
LINE
  8
0
 10
-49.4218
 20
-50.4587
 11
-49.3656
 21
-50.383
  0
LINE
  8
0
 10
-49.3656
 20
-50.383
 11
-49.3048
 21
-50.3111
  0
LINE
  8
0
 10
-49.3048
 20
-50.3111
 11
-49.2396
 21
-50.243
  0
LINE
  8
0
 10
-49.2396
 20
-50.243
 11
-49.1702
 21
-50.1793
  0
LINE
  8
0
 10
-49.1702
 20
-50.1793
 11
-49.097
 21
-50.1199
  0
LINE
  8
0
 10
-49.097
 20
-50.1199
 11
-49.0202
 21
-50.0654
  0
LINE
  8
0
 10
-49.0202
 20
-50.0654
 11
-48.9401
 21
-50.0157
  0
LINE
  8
0
 10
-48.9401
 20
-50.0157
 11
-48.857
 21
-49.9712
  0
LINE
  8
0
 10
-48.857
 20
-49.9712
 11
-48.7713
 21
-49.932
  0
LINE
  8
0
 10
-48.7713
 20
-49.932
 11
-48.6834
 21
-49.8982
  0
LINE
  8
0
 10
-48.6834
 20
-49.8982
 11
-48.5935
 21
-49.87
  0
LINE
  8
0
 10
-48.5935
 20
-49.87
 11
-48.5019
 21
-49.8475
  0
LINE
  8
0
 10
-48.5019
 20
-49.8475
 11
-48.4092
 21
-49.8308
  0
LINE
  8
0
 10
-48.4092
 20
-49.8308
 11
-48.3156
 21
-49.82
  0
LINE
  8
0
 10
-48.3156
 20
-49.82
 11
-48.2215
 21
-49.8151
  0
LINE
  8
0
 10
-48.2215
 20
-49.8151
 11
-48.1273
 21
-49.8161
  0
LINE
  8
0
 10
-48.1273
 20
-49.8161
 11
-48.0333
 21
-49.823
  0
LINE
  8
0
 10
-48.0333
 20
-49.823
 11
-47.9399
 21
-49.8358
  0
LINE
  8
0
 10
-47.9399
 20
-49.8358
 11
-47.8475
 21
-49.8544
  0
LINE
  8
0
 10
-47.8475
 20
-49.8544
 11
-47.7565
 21
-49.8788
  0
LINE
  8
0
 10
-47.7565
 20
-49.8788
 11
-47.6672
 21
-49.9088
  0
LINE
  8
0
 10
-47.6672
 20
-49.9088
 11
-47.58
 21
-49.9444
  0
LINE
  8
0
 10
-47.58
 20
-49.9444
 11
-47.4951
 21
-49.9854
  0
LINE
  8
0
 10
-47.4951
 20
-49.9854
 11
-47.413
 21
-50.0317
  0
LINE
  8
0
 10
-47.413
 20
-50.0317
 11
-47.334
 21
-50.083
  0
LINE
  8
0
 10
-47.334
 20
-50.083
 11
-47.2583
 21
-50.1392
  0
LINE
  8
0
 10
-47.2583
 20
-50.1392
 11
-47.1864
 21
-50.2
  0
LINE
  8
0
 10
-47.1864
 20
-50.2
 11
-47.1184
 21
-50.2653
  0
LINE
  8
0
 10
-47.1184
 20
-50.2653
 11
-47.0546
 21
-50.3346
  0
LINE
  8
0
 10
-47.0546
 20
-50.3346
 11
-46.9953
 21
-50.4079
  0
LINE
  8
0
 10
-46.9953
 20
-50.4079
 11
-46.9407
 21
-50.4847
  0
LINE
  8
0
 10
-46.9407
 20
-50.4847
 11
-46.891
 21
-50.5647
  0
LINE
  8
0
 10
-46.891
 20
-50.5647
 11
-46.8465
 21
-50.6478
  0
LINE
  8
0
 10
-46.8465
 20
-50.6478
 11
-46.8073
 21
-50.7335
  0
LINE
  8
0
 10
-46.8073
 20
-50.7335
 11
-46.7735
 21
-50.8215
  0
LINE
  8
0
 10
-46.7735
 20
-50.8215
 11
-46.7453
 21
-50.9114
  0
LINE
  8
0
 10
-46.7453
 20
-50.9114
 11
-46.7229
 21
-51.0029
  0
LINE
  8
0
 10
-46.7229
 20
-51.0029
 11
-46.7062
 21
-51.0956
  0
LINE
  8
0
 10
-46.7062
 20
-51.0956
 11
-46.6953
 21
-51.1892
  0
LINE
  8
0
 10
-46.6953
 20
-51.1892
 11
-46.6904
 21
-51.2833
  0
LINE
  8
0
 10
-46.6904
 20
-51.2833
 11
-46.6914
 21
-51.3776
  0
LINE
  8
0
 10
-46.6914
 20
-51.3776
 11
-46.6983
 21
-51.4715
  0
LINE
  8
0
 10
-46.6983
 20
-51.4715
 11
-46.7111
 21
-51.5649
  0
LINE
  8
0
 10
-46.7111
 20
-51.5649
 11
-46.7297
 21
-51.6573
  0
LINE
  8
0
 10
-46.7297
 20
-51.6573
 11
-46.7541
 21
-51.7483
  0
LINE
  8
0
 10
-46.7541
 20
-51.7483
 11
-46.7841
 21
-51.8376
  0
LINE
  8
0
 10
-46.7841
 20
-51.8376
 11
-46.8197
 21
-51.9249
  0
LINE
  8
0
 10
-46.8197
 20
-51.9249
 11
-46.8608
 21
-52.0097
  0
LINE
  8
0
 10
-46.8608
 20
-52.0097
 11
-46.907
 21
-52.0918
  0
LINE
  8
0
 10
-46.907
 20
-52.0918
 11
-46.9583
 21
-52.1708
  0
LINE
  8
0
 10
-46.9583
 20
-52.1708
 11
-47.0145
 21
-52.2465
  0
LINE
  8
0
 10
-47.0145
 20
-52.2465
 11
-47.0754
 21
-52.3185
  0
LINE
  8
0
 10
-47.0754
 20
-52.3185
 11
-47.1406
 21
-52.3865
  0
LINE
  8
0
 10
-47.1406
 20
-52.3865
 11
-47.2099
 21
-52.4502
  0
LINE
  8
0
 10
-47.2099
 20
-52.4502
 11
-47.2832
 21
-52.5096
  0
LINE
  8
0
 10
-47.2832
 20
-52.5096
 11
-47.36
 21
-52.5641
  0
LINE
  8
0
 10
-47.36
 20
-52.5641
 11
-47.4401
 21
-52.6138
  0
LINE
  8
0
 10
-47.4401
 20
-52.6138
 11
-47.5231
 21
-52.6583
  0
LINE
  8
0
 10
-47.5231
 20
-52.6583
 11
-47.6088
 21
-52.6975
  0
LINE
  8
0
 10
-47.6088
 20
-52.6975
 11
-47.6968
 21
-52.7313
  0
LINE
  8
0
 10
-47.6968
 20
-52.7313
 11
-47.7867
 21
-52.7595
  0
LINE
  8
0
 10
-47.7867
 20
-52.7595
 11
-47.8782
 21
-52.782
  0
LINE
  8
0
 10
-47.8782
 20
-52.782
 11
-47.9709
 21
-52.7987
  0
LINE
  8
0
 10
-47.9709
 20
-52.7987
 11
-48.0646
 21
-52.8095
  0
LINE
  8
0
 10
-48.0646
 20
-52.8095
 11
-48.1587
 21
-52.8144
  0
LINE
  8
0
 10
-48.1587
 20
-52.8144
 11
-48.2529
 21
-52.8134
  0
LINE
  8
0
 10
-60.4399
 20
-52.8095
 11
-60.5335
 21
-52.7987
  0
LINE
  8
0
 10
-60.5335
 20
-52.7987
 11
-60.6263
 21
-52.782
  0
LINE
  8
0
 10
-60.6263
 20
-52.782
 11
-60.7178
 21
-52.7595
  0
LINE
  8
0
 10
-60.7178
 20
-52.7595
 11
-60.8077
 21
-52.7313
  0
LINE
  8
0
 10
-60.8077
 20
-52.7313
 11
-60.8957
 21
-52.6975
  0
LINE
  8
0
 10
-60.8957
 20
-52.6975
 11
-60.9814
 21
-52.6583
  0
LINE
  8
0
 10
-60.9814
 20
-52.6583
 11
-61.0644
 21
-52.6138
  0
LINE
  8
0
 10
-61.0644
 20
-52.6138
 11
-61.1445
 21
-52.5641
  0
LINE
  8
0
 10
-61.1445
 20
-52.5641
 11
-61.2213
 21
-52.5096
  0
LINE
  8
0
 10
-61.2213
 20
-52.5096
 11
-61.2945
 21
-52.4502
  0
LINE
  8
0
 10
-61.2945
 20
-52.4502
 11
-61.3639
 21
-52.3865
  0
LINE
  8
0
 10
-61.3639
 20
-52.3865
 11
-61.4291
 21
-52.3185
  0
LINE
  8
0
 10
-61.4291
 20
-52.3185
 11
-61.49
 21
-52.2465
  0
LINE
  8
0
 10
-61.49
 20
-52.2465
 11
-61.5461
 21
-52.1708
  0
LINE
  8
0
 10
-61.5461
 20
-52.1708
 11
-61.5975
 21
-52.0918
  0
LINE
  8
0
 10
-61.5975
 20
-52.0918
 11
-61.6437
 21
-52.0097
  0
LINE
  8
0
 10
-61.6437
 20
-52.0097
 11
-61.6847
 21
-51.9249
  0
LINE
  8
0
 10
-61.6847
 20
-51.9249
 11
-61.7203
 21
-51.8376
  0
LINE
  8
0
 10
-61.7203
 20
-51.8376
 11
-61.7504
 21
-51.7483
  0
LINE
  8
0
 10
-61.7504
 20
-51.7483
 11
-61.7748
 21
-51.6573
  0
LINE
  8
0
 10
-61.7748
 20
-51.6573
 11
-61.7934
 21
-51.5649
  0
LINE
  8
0
 10
-61.7934
 20
-51.5649
 11
-61.8062
 21
-51.4715
  0
LINE
  8
0
 10
-61.8062
 20
-51.4715
 11
-61.8131
 21
-51.3776
  0
LINE
  8
0
 10
-61.8131
 20
-51.3776
 11
-61.8141
 21
-51.2833
  0
LINE
  8
0
 10
-61.8141
 20
-51.2833
 11
-61.8092
 21
-51.1892
  0
LINE
  8
0
 10
-61.8092
 20
-51.1892
 11
-61.7983
 21
-51.0956
  0
LINE
  8
0
 10
-61.7983
 20
-51.0956
 11
-61.7816
 21
-51.0029
  0
LINE
  8
0
 10
-61.7816
 20
-51.0029
 11
-61.7592
 21
-50.9114
  0
LINE
  8
0
 10
-61.7592
 20
-50.9114
 11
-61.731
 21
-50.8215
  0
LINE
  8
0
 10
-61.731
 20
-50.8215
 11
-61.6972
 21
-50.7335
  0
LINE
  8
0
 10
-61.6972
 20
-50.7335
 11
-61.658
 21
-50.6478
  0
LINE
  8
0
 10
-61.658
 20
-50.6478
 11
-61.6134
 21
-50.5647
  0
LINE
  8
0
 10
-61.6134
 20
-50.5647
 11
-61.5638
 21
-50.4847
  0
LINE
  8
0
 10
-61.5638
 20
-50.4847
 11
-61.5092
 21
-50.4079
  0
LINE
  8
0
 10
-61.5092
 20
-50.4079
 11
-61.4499
 21
-50.3346
  0
LINE
  8
0
 10
-61.4499
 20
-50.3346
 11
-61.3861
 21
-50.2653
  0
LINE
  8
0
 10
-61.3861
 20
-50.2653
 11
-61.3181
 21
-50.2
  0
LINE
  8
0
 10
-61.3181
 20
-50.2
 11
-61.2461
 21
-50.1392
  0
LINE
  8
0
 10
-61.2461
 20
-50.1392
 11
-61.1705
 21
-50.083
  0
LINE
  8
0
 10
-61.1705
 20
-50.083
 11
-61.0915
 21
-50.0317
  0
LINE
  8
0
 10
-61.0915
 20
-50.0317
 11
-61.0094
 21
-49.9854
  0
LINE
  8
0
 10
-61.0094
 20
-49.9854
 11
-60.9245
 21
-49.9444
  0
LINE
  8
0
 10
-60.9245
 20
-49.9444
 11
-60.8373
 21
-49.9088
  0
LINE
  8
0
 10
-60.8373
 20
-49.9088
 11
-60.748
 21
-49.8788
  0
LINE
  8
0
 10
-60.748
 20
-49.8788
 11
-60.6569
 21
-49.8544
  0
LINE
  8
0
 10
-60.6569
 20
-49.8544
 11
-60.5646
 21
-49.8358
  0
LINE
  8
0
 10
-60.5646
 20
-49.8358
 11
-60.4712
 21
-49.823
  0
LINE
  8
0
 10
-60.4712
 20
-49.823
 11
-60.3772
 21
-49.8161
  0
LINE
  8
0
 10
-60.3772
 20
-49.8161
 11
-60.283
 21
-49.8151
  0
LINE
  8
0
 10
-60.283
 20
-49.8151
 11
-60.1889
 21
-49.82
  0
LINE
  8
0
 10
-60.1889
 20
-49.82
 11
-60.0953
 21
-49.8308
  0
LINE
  8
0
 10
-60.0953
 20
-49.8308
 11
-60.0025
 21
-49.8475
  0
LINE
  8
0
 10
-60.0025
 20
-49.8475
 11
-59.911
 21
-49.87
  0
LINE
  8
0
 10
-59.911
 20
-49.87
 11
-59.8211
 21
-49.8982
  0
LINE
  8
0
 10
-59.8211
 20
-49.8982
 11
-59.7331
 21
-49.932
  0
LINE
  8
0
 10
-59.7331
 20
-49.932
 11
-59.6475
 21
-49.9712
  0
LINE
  8
0
 10
-59.6475
 20
-49.9712
 11
-59.5644
 21
-50.0157
  0
LINE
  8
0
 10
-59.5644
 20
-50.0157
 11
-59.4843
 21
-50.0654
  0
LINE
  8
0
 10
-59.4843
 20
-50.0654
 11
-59.4075
 21
-50.1199
  0
LINE
  8
0
 10
-59.4075
 20
-50.1199
 11
-59.3343
 21
-50.1793
  0
LINE
  8
0
 10
-59.3343
 20
-50.1793
 11
-59.2649
 21
-50.243
  0
LINE
  8
0
 10
-59.2649
 20
-50.243
 11
-59.1997
 21
-50.3111
  0
LINE
  8
0
 10
-59.1997
 20
-50.3111
 11
-59.1389
 21
-50.383
  0
LINE
  8
0
 10
-59.1389
 20
-50.383
 11
-59.0827
 21
-50.4587
  0
LINE
  8
0
 10
-59.0827
 20
-50.4587
 11
-59.0314
 21
-50.5377
  0
LINE
  8
0
 10
-59.0314
 20
-50.5377
 11
-58.9851
 21
-50.6198
  0
LINE
  8
0
 10
-58.9851
 20
-50.6198
 11
-58.9441
 21
-50.7047
  0
LINE
  8
0
 10
-58.9441
 20
-50.7047
 11
-58.9085
 21
-50.7919
  0
LINE
  8
0
 10
-58.9085
 20
-50.7919
 11
-58.8784
 21
-50.8812
  0
LINE
  8
0
 10
-58.8784
 20
-50.8812
 11
-58.854
 21
-50.9722
  0
LINE
  8
0
 10
-58.854
 20
-50.9722
 11
-58.8354
 21
-51.0646
  0
LINE
  8
0
 10
-58.8354
 20
-51.0646
 11
-58.8226
 21
-51.158
  0
LINE
  8
0
 10
-58.8226
 20
-51.158
 11
-58.8157
 21
-51.2519
  0
LINE
  8
0
 10
-58.8157
 20
-51.2519
 11
-58.8147
 21
-51.3462
  0
LINE
  8
0
 10
-58.8147
 20
-51.3462
 11
-58.8197
 21
-51.4403
  0
LINE
  8
0
 10
-58.8197
 20
-51.4403
 11
-58.8305
 21
-51.5339
  0
LINE
  8
0
 10
-58.8305
 20
-51.5339
 11
-58.8472
 21
-51.6266
  0
LINE
  8
0
 10
-58.8472
 20
-51.6266
 11
-58.8697
 21
-51.7181
  0
LINE
  8
0
 10
-58.8697
 20
-51.7181
 11
-58.8978
 21
-51.808
  0
LINE
  8
0
 10
-58.8978
 20
-51.808
 11
-58.9316
 21
-51.896
  0
LINE
  8
0
 10
-58.9316
 20
-51.896
 11
-58.9708
 21
-51.9817
  0
LINE
  8
0
 10
-58.9708
 20
-51.9817
 11
-59.0154
 21
-52.0647
  0
LINE
  8
0
 10
-59.0154
 20
-52.0647
 11
-59.065
 21
-52.1448
  0
LINE
  8
0
 10
-59.065
 20
-52.1448
 11
-59.1196
 21
-52.2216
  0
LINE
  8
0
 10
-59.1196
 20
-52.2216
 11
-59.1789
 21
-52.2949
  0
LINE
  8
0
 10
-59.1789
 20
-52.2949
 11
-59.2427
 21
-52.3642
  0
LINE
  8
0
 10
-59.2427
 20
-52.3642
 11
-59.3107
 21
-52.4295
  0
LINE
  8
0
 10
-59.3107
 20
-52.4295
 11
-59.3827
 21
-52.4903
  0
LINE
  8
0
 10
-59.3827
 20
-52.4903
 11
-59.4583
 21
-52.5465
  0
LINE
  8
0
 10
-59.4583
 20
-52.5465
 11
-59.5374
 21
-52.5978
  0
LINE
  8
0
 10
-59.5374
 20
-52.5978
 11
-59.6195
 21
-52.6441
  0
LINE
  8
0
 10
-59.6195
 20
-52.6441
 11
-59.7043
 21
-52.6851
  0
LINE
  8
0
 10
-59.7043
 20
-52.6851
 11
-59.7915
 21
-52.7207
  0
LINE
  8
0
 10
-59.7915
 20
-52.7207
 11
-59.8809
 21
-52.7507
  0
LINE
  8
0
 10
-59.8809
 20
-52.7507
 11
-59.9719
 21
-52.7751
  0
LINE
  8
0
 10
-59.9719
 20
-52.7751
 11
-60.0643
 21
-52.7937
  0
LINE
  8
0
 10
-60.0643
 20
-52.7937
 11
-60.1576
 21
-52.8065
  0
LINE
  8
0
 10
-60.1576
 20
-52.8065
 11
-60.2516
 21
-52.8134
  0
LINE
  8
0
 10
-60.2516
 20
-52.8134
 11
-60.3458
 21
-52.8144
  0
LINE
  8
0
 10
-60.3458
 20
-52.8144
 11
-60.4399
 21
-52.8095
  0
LINE
  8
0
 10
60.2516
 20
-52.8134
 11
60.1576
 21
-52.8065
  0
LINE
  8
0
 10
60.1576
 20
-52.8065
 11
60.0643
 21
-52.7937
  0
LINE
  8
0
 10
60.0643
 20
-52.7937
 11
59.9719
 21
-52.7751
  0
LINE
  8
0
 10
59.9719
 20
-52.7751
 11
59.8809
 21
-52.7507
  0
LINE
  8
0
 10
59.8809
 20
-52.7507
 11
59.7915
 21
-52.7207
  0
LINE
  8
0
 10
59.7915
 20
-52.7207
 11
59.7043
 21
-52.6851
  0
LINE
  8
0
 10
59.7043
 20
-52.6851
 11
59.6195
 21
-52.6441
  0
LINE
  8
0
 10
59.6195
 20
-52.6441
 11
59.5374
 21
-52.5978
  0
LINE
  8
0
 10
59.5374
 20
-52.5978
 11
59.4583
 21
-52.5465
  0
LINE
  8
0
 10
59.4583
 20
-52.5465
 11
59.3827
 21
-52.4903
  0
LINE
  8
0
 10
59.3827
 20
-52.4903
 11
59.3107
 21
-52.4295
  0
LINE
  8
0
 10
59.3107
 20
-52.4295
 11
59.2427
 21
-52.3642
  0
LINE
  8
0
 10
59.2427
 20
-52.3642
 11
59.1789
 21
-52.2949
  0
LINE
  8
0
 10
59.1789
 20
-52.2949
 11
59.1196
 21
-52.2216
  0
LINE
  8
0
 10
59.1196
 20
-52.2216
 11
59.065
 21
-52.1448
  0
LINE
  8
0
 10
59.065
 20
-52.1448
 11
59.0154
 21
-52.0647
  0
LINE
  8
0
 10
59.0154
 20
-52.0647
 11
58.9708
 21
-51.9817
  0
LINE
  8
0
 10
58.9708
 20
-51.9817
 11
58.9316
 21
-51.896
  0
LINE
  8
0
 10
58.9316
 20
-51.896
 11
58.8978
 21
-51.808
  0
LINE
  8
0
 10
58.8978
 20
-51.808
 11
58.8697
 21
-51.7181
  0
LINE
  8
0
 10
58.8697
 20
-51.7181
 11
58.8472
 21
-51.6266
  0
LINE
  8
0
 10
58.8472
 20
-51.6266
 11
58.8305
 21
-51.5339
  0
LINE
  8
0
 10
58.8305
 20
-51.5339
 11
58.8197
 21
-51.4403
  0
LINE
  8
0
 10
58.8197
 20
-51.4403
 11
58.8147
 21
-51.3462
  0
LINE
  8
0
 10
58.8147
 20
-51.3462
 11
58.8157
 21
-51.2519
  0
LINE
  8
0
 10
58.8157
 20
-51.2519
 11
58.8226
 21
-51.158
  0
LINE
  8
0
 10
58.8226
 20
-51.158
 11
58.8354
 21
-51.0646
  0
LINE
  8
0
 10
58.8354
 20
-51.0646
 11
58.854
 21
-50.9722
  0
LINE
  8
0
 10
58.854
 20
-50.9722
 11
58.8784
 21
-50.8812
  0
LINE
  8
0
 10
58.8784
 20
-50.8812
 11
58.9085
 21
-50.7919
  0
LINE
  8
0
 10
58.9085
 20
-50.7919
 11
58.9441
 21
-50.7047
  0
LINE
  8
0
 10
58.9441
 20
-50.7047
 11
58.9851
 21
-50.6198
  0
LINE
  8
0
 10
58.9851
 20
-50.6198
 11
59.0314
 21
-50.5377
  0
LINE
  8
0
 10
59.0314
 20
-50.5377
 11
59.0827
 21
-50.4587
  0
LINE
  8
0
 10
59.0827
 20
-50.4587
 11
59.1389
 21
-50.383
  0
LINE
  8
0
 10
59.1389
 20
-50.383
 11
59.1997
 21
-50.3111
  0
LINE
  8
0
 10
59.1997
 20
-50.3111
 11
59.2649
 21
-50.243
  0
LINE
  8
0
 10
59.2649
 20
-50.243
 11
59.3343
 21
-50.1793
  0
LINE
  8
0
 10
59.3343
 20
-50.1793
 11
59.4075
 21
-50.1199
  0
LINE
  8
0
 10
59.4075
 20
-50.1199
 11
59.4843
 21
-50.0654
  0
LINE
  8
0
 10
59.4843
 20
-50.0654
 11
59.5644
 21
-50.0157
  0
LINE
  8
0
 10
59.5644
 20
-50.0157
 11
59.6475
 21
-49.9712
  0
LINE
  8
0
 10
59.6475
 20
-49.9712
 11
59.7331
 21
-49.932
  0
LINE
  8
0
 10
59.7331
 20
-49.932
 11
59.8211
 21
-49.8982
  0
LINE
  8
0
 10
59.8211
 20
-49.8982
 11
59.911
 21
-49.87
  0
LINE
  8
0
 10
59.911
 20
-49.87
 11
60.0025
 21
-49.8475
  0
LINE
  8
0
 10
60.0025
 20
-49.8475
 11
60.0953
 21
-49.8308
  0
LINE
  8
0
 10
60.0953
 20
-49.8308
 11
60.1889
 21
-49.82
  0
LINE
  8
0
 10
60.1889
 20
-49.82
 11
60.283
 21
-49.8151
  0
LINE
  8
0
 10
60.283
 20
-49.8151
 11
60.3772
 21
-49.8161
  0
LINE
  8
0
 10
60.3772
 20
-49.8161
 11
60.4712
 21
-49.823
  0
LINE
  8
0
 10
60.4712
 20
-49.823
 11
60.5646
 21
-49.8358
  0
LINE
  8
0
 10
60.5646
 20
-49.8358
 11
60.6569
 21
-49.8544
  0
LINE
  8
0
 10
60.6569
 20
-49.8544
 11
60.748
 21
-49.8788
  0
LINE
  8
0
 10
60.748
 20
-49.8788
 11
60.8373
 21
-49.9088
  0
LINE
  8
0
 10
60.8373
 20
-49.9088
 11
60.9245
 21
-49.9444
  0
LINE
  8
0
 10
60.9245
 20
-49.9444
 11
61.0094
 21
-49.9854
  0
LINE
  8
0
 10
61.0094
 20
-49.9854
 11
61.0915
 21
-50.0317
  0
LINE
  8
0
 10
61.0915
 20
-50.0317
 11
61.1705
 21
-50.083
  0
LINE
  8
0
 10
61.1705
 20
-50.083
 11
61.2461
 21
-50.1392
  0
LINE
  8
0
 10
61.2461
 20
-50.1392
 11
61.3181
 21
-50.2
  0
LINE
  8
0
 10
61.3181
 20
-50.2
 11
61.3861
 21
-50.2653
  0
LINE
  8
0
 10
61.3861
 20
-50.2653
 11
61.4499
 21
-50.3346
  0
LINE
  8
0
 10
61.4499
 20
-50.3346
 11
61.5092
 21
-50.4079
  0
LINE
  8
0
 10
61.5092
 20
-50.4079
 11
61.5638
 21
-50.4847
  0
LINE
  8
0
 10
61.5638
 20
-50.4847
 11
61.6134
 21
-50.5647
  0
LINE
  8
0
 10
61.6134
 20
-50.5647
 11
61.658
 21
-50.6478
  0
LINE
  8
0
 10
61.658
 20
-50.6478
 11
61.6972
 21
-50.7335
  0
LINE
  8
0
 10
61.6972
 20
-50.7335
 11
61.731
 21
-50.8215
  0
LINE
  8
0
 10
61.731
 20
-50.8215
 11
61.7592
 21
-50.9114
  0
LINE
  8
0
 10
61.7592
 20
-50.9114
 11
61.7816
 21
-51.0029
  0
LINE
  8
0
 10
61.7816
 20
-51.0029
 11
61.7983
 21
-51.0956
  0
LINE
  8
0
 10
61.7983
 20
-51.0956
 11
61.8092
 21
-51.1892
  0
LINE
  8
0
 10
61.8092
 20
-51.1892
 11
61.8141
 21
-51.2833
  0
LINE
  8
0
 10
61.8141
 20
-51.2833
 11
61.8131
 21
-51.3776
  0
LINE
  8
0
 10
61.8131
 20
-51.3776
 11
61.8062
 21
-51.4715
  0
LINE
  8
0
 10
61.8062
 20
-51.4715
 11
61.7934
 21
-51.5649
  0
LINE
  8
0
 10
61.7934
 20
-51.5649
 11
61.7748
 21
-51.6573
  0
LINE
  8
0
 10
61.7748
 20
-51.6573
 11
61.7504
 21
-51.7483
  0
LINE
  8
0
 10
61.7504
 20
-51.7483
 11
61.7203
 21
-51.8376
  0
LINE
  8
0
 10
61.7203
 20
-51.8376
 11
61.6847
 21
-51.9249
  0
LINE
  8
0
 10
61.6847
 20
-51.9249
 11
61.6437
 21
-52.0097
  0
LINE
  8
0
 10
61.6437
 20
-52.0097
 11
61.5975
 21
-52.0918
  0
LINE
  8
0
 10
61.5975
 20
-52.0918
 11
61.5461
 21
-52.1708
  0
LINE
  8
0
 10
61.5461
 20
-52.1708
 11
61.49
 21
-52.2465
  0
LINE
  8
0
 10
61.49
 20
-52.2465
 11
61.4291
 21
-52.3185
  0
LINE
  8
0
 10
61.4291
 20
-52.3185
 11
61.3639
 21
-52.3865
  0
LINE
  8
0
 10
61.3639
 20
-52.3865
 11
61.2945
 21
-52.4502
  0
LINE
  8
0
 10
61.2945
 20
-52.4502
 11
61.2213
 21
-52.5096
  0
LINE
  8
0
 10
61.2213
 20
-52.5096
 11
61.1445
 21
-52.5641
  0
LINE
  8
0
 10
61.1445
 20
-52.5641
 11
61.0644
 21
-52.6138
  0
LINE
  8
0
 10
61.0644
 20
-52.6138
 11
60.9814
 21
-52.6583
  0
LINE
  8
0
 10
60.9814
 20
-52.6583
 11
60.8957
 21
-52.6975
  0
LINE
  8
0
 10
60.8957
 20
-52.6975
 11
60.8077
 21
-52.7313
  0
LINE
  8
0
 10
60.8077
 20
-52.7313
 11
60.7178
 21
-52.7595
  0
LINE
  8
0
 10
60.7178
 20
-52.7595
 11
60.6263
 21
-52.782
  0
LINE
  8
0
 10
60.6263
 20
-52.782
 11
60.5335
 21
-52.7987
  0
LINE
  8
0
 10
60.5335
 20
-52.7987
 11
60.4399
 21
-52.8095
  0
LINE
  8
0
 10
60.4399
 20
-52.8095
 11
60.3458
 21
-52.8144
  0
LINE
  8
0
 10
60.3458
 20
-52.8144
 11
60.2516
 21
-52.8134
  0
LINE
  8
0
 10
48.0646
 20
-52.8095
 11
47.9709
 21
-52.7987
  0
LINE
  8
0
 10
47.9709
 20
-52.7987
 11
47.8782
 21
-52.782
  0
LINE
  8
0
 10
47.8782
 20
-52.782
 11
47.7867
 21
-52.7595
  0
LINE
  8
0
 10
47.7867
 20
-52.7595
 11
47.6968
 21
-52.7313
  0
LINE
  8
0
 10
47.6968
 20
-52.7313
 11
47.6088
 21
-52.6975
  0
LINE
  8
0
 10
47.6088
 20
-52.6975
 11
47.5231
 21
-52.6583
  0
LINE
  8
0
 10
47.5231
 20
-52.6583
 11
47.4401
 21
-52.6138
  0
LINE
  8
0
 10
47.4401
 20
-52.6138
 11
47.36
 21
-52.5641
  0
LINE
  8
0
 10
47.36
 20
-52.5641
 11
47.2832
 21
-52.5096
  0
LINE
  8
0
 10
47.2832
 20
-52.5096
 11
47.2099
 21
-52.4502
  0
LINE
  8
0
 10
47.2099
 20
-52.4502
 11
47.1406
 21
-52.3865
  0
LINE
  8
0
 10
47.1406
 20
-52.3865
 11
47.0754
 21
-52.3185
  0
LINE
  8
0
 10
47.0754
 20
-52.3185
 11
47.0145
 21
-52.2465
  0
LINE
  8
0
 10
47.0145
 20
-52.2465
 11
46.9583
 21
-52.1708
  0
LINE
  8
0
 10
46.9583
 20
-52.1708
 11
46.907
 21
-52.0918
  0
LINE
  8
0
 10
46.907
 20
-52.0918
 11
46.8608
 21
-52.0097
  0
LINE
  8
0
 10
46.8608
 20
-52.0097
 11
46.8197
 21
-51.9249
  0
LINE
  8
0
 10
46.8197
 20
-51.9249
 11
46.7841
 21
-51.8376
  0
LINE
  8
0
 10
46.7841
 20
-51.8376
 11
46.7541
 21
-51.7483
  0
LINE
  8
0
 10
46.7541
 20
-51.7483
 11
46.7297
 21
-51.6573
  0
LINE
  8
0
 10
46.7297
 20
-51.6573
 11
46.7111
 21
-51.5649
  0
LINE
  8
0
 10
46.7111
 20
-51.5649
 11
46.6983
 21
-51.4715
  0
LINE
  8
0
 10
46.6983
 20
-51.4715
 11
46.6914
 21
-51.3776
  0
LINE
  8
0
 10
46.6914
 20
-51.3776
 11
46.6904
 21
-51.2833
  0
LINE
  8
0
 10
46.6904
 20
-51.2833
 11
46.6953
 21
-51.1892
  0
LINE
  8
0
 10
46.6953
 20
-51.1892
 11
46.7062
 21
-51.0956
  0
LINE
  8
0
 10
46.7062
 20
-51.0956
 11
46.7229
 21
-51.0029
  0
LINE
  8
0
 10
46.7229
 20
-51.0029
 11
46.7453
 21
-50.9114
  0
LINE
  8
0
 10
46.7453
 20
-50.9114
 11
46.7735
 21
-50.8215
  0
LINE
  8
0
 10
46.7735
 20
-50.8215
 11
46.8073
 21
-50.7335
  0
LINE
  8
0
 10
46.8073
 20
-50.7335
 11
46.8465
 21
-50.6478
  0
LINE
  8
0
 10
46.8465
 20
-50.6478
 11
46.891
 21
-50.5647
  0
LINE
  8
0
 10
46.891
 20
-50.5647
 11
46.9407
 21
-50.4847
  0
LINE
  8
0
 10
46.9407
 20
-50.4847
 11
46.9953
 21
-50.4079
  0
LINE
  8
0
 10
46.9953
 20
-50.4079
 11
47.0546
 21
-50.3346
  0
LINE
  8
0
 10
47.0546
 20
-50.3346
 11
47.1184
 21
-50.2653
  0
LINE
  8
0
 10
47.1184
 20
-50.2653
 11
47.1864
 21
-50.2
  0
LINE
  8
0
 10
47.1864
 20
-50.2
 11
47.2583
 21
-50.1392
  0
LINE
  8
0
 10
47.2583
 20
-50.1392
 11
47.334
 21
-50.083
  0
LINE
  8
0
 10
47.334
 20
-50.083
 11
47.413
 21
-50.0317
  0
LINE
  8
0
 10
47.413
 20
-50.0317
 11
47.4951
 21
-49.9854
  0
LINE
  8
0
 10
47.4951
 20
-49.9854
 11
47.58
 21
-49.9444
  0
LINE
  8
0
 10
47.58
 20
-49.9444
 11
47.6672
 21
-49.9088
  0
LINE
  8
0
 10
47.6672
 20
-49.9088
 11
47.7565
 21
-49.8788
  0
LINE
  8
0
 10
47.7565
 20
-49.8788
 11
47.8475
 21
-49.8544
  0
LINE
  8
0
 10
47.8475
 20
-49.8544
 11
47.9399
 21
-49.8358
  0
LINE
  8
0
 10
47.9399
 20
-49.8358
 11
48.0333
 21
-49.823
  0
LINE
  8
0
 10
48.0333
 20
-49.823
 11
48.1273
 21
-49.8161
  0
LINE
  8
0
 10
48.1273
 20
-49.8161
 11
48.2215
 21
-49.8151
  0
LINE
  8
0
 10
48.2215
 20
-49.8151
 11
48.3156
 21
-49.82
  0
LINE
  8
0
 10
48.3156
 20
-49.82
 11
48.4092
 21
-49.8308
  0
LINE
  8
0
 10
48.4092
 20
-49.8308
 11
48.5019
 21
-49.8475
  0
LINE
  8
0
 10
48.5019
 20
-49.8475
 11
48.5935
 21
-49.87
  0
LINE
  8
0
 10
48.5935
 20
-49.87
 11
48.6834
 21
-49.8982
  0
LINE
  8
0
 10
48.6834
 20
-49.8982
 11
48.7713
 21
-49.932
  0
LINE
  8
0
 10
48.7713
 20
-49.932
 11
48.857
 21
-49.9712
  0
LINE
  8
0
 10
48.857
 20
-49.9712
 11
48.9401
 21
-50.0157
  0
LINE
  8
0
 10
48.9401
 20
-50.0157
 11
49.0202
 21
-50.0654
  0
LINE
  8
0
 10
49.0202
 20
-50.0654
 11
49.097
 21
-50.1199
  0
LINE
  8
0
 10
49.097
 20
-50.1199
 11
49.1702
 21
-50.1793
  0
LINE
  8
0
 10
49.1702
 20
-50.1793
 11
49.2396
 21
-50.243
  0
LINE
  8
0
 10
49.2396
 20
-50.243
 11
49.3048
 21
-50.3111
  0
LINE
  8
0
 10
49.3048
 20
-50.3111
 11
49.3656
 21
-50.383
  0
LINE
  8
0
 10
49.3656
 20
-50.383
 11
49.4218
 21
-50.4587
  0
LINE
  8
0
 10
49.4218
 20
-50.4587
 11
49.4731
 21
-50.5377
  0
LINE
  8
0
 10
49.4731
 20
-50.5377
 11
49.5194
 21
-50.6198
  0
LINE
  8
0
 10
49.5194
 20
-50.6198
 11
49.5604
 21
-50.7047
  0
LINE
  8
0
 10
49.5604
 20
-50.7047
 11
49.596
 21
-50.7919
  0
LINE
  8
0
 10
49.596
 20
-50.7919
 11
49.6261
 21
-50.8812
  0
LINE
  8
0
 10
49.6261
 20
-50.8812
 11
49.6504
 21
-50.9722
  0
LINE
  8
0
 10
49.6504
 20
-50.9722
 11
49.6691
 21
-51.0646
  0
LINE
  8
0
 10
49.6691
 20
-51.0646
 11
49.6819
 21
-51.158
  0
LINE
  8
0
 10
49.6819
 20
-51.158
 11
49.6888
 21
-51.2519
  0
LINE
  8
0
 10
49.6888
 20
-51.2519
 11
49.6897
 21
-51.3462
  0
LINE
  8
0
 10
49.6897
 20
-51.3462
 11
49.6848
 21
-51.4403
  0
LINE
  8
0
 10
49.6848
 20
-51.4403
 11
49.674
 21
-51.5339
  0
LINE
  8
0
 10
49.674
 20
-51.5339
 11
49.6573
 21
-51.6266
  0
LINE
  8
0
 10
49.6573
 20
-51.6266
 11
49.6348
 21
-51.7181
  0
LINE
  8
0
 10
49.6348
 20
-51.7181
 11
49.6066
 21
-51.808
  0
LINE
  8
0
 10
49.6066
 20
-51.808
 11
49.5729
 21
-51.896
  0
LINE
  8
0
 10
49.5729
 20
-51.896
 11
49.5336
 21
-51.9817
  0
LINE
  8
0
 10
49.5336
 20
-51.9817
 11
49.4891
 21
-52.0647
  0
LINE
  8
0
 10
49.4891
 20
-52.0647
 11
49.4395
 21
-52.1448
  0
LINE
  8
0
 10
49.4395
 20
-52.1448
 11
49.3849
 21
-52.2216
  0
LINE
  8
0
 10
49.3849
 20
-52.2216
 11
49.3256
 21
-52.2949
  0
LINE
  8
0
 10
49.3256
 20
-52.2949
 11
49.2618
 21
-52.3642
  0
LINE
  8
0
 10
49.2618
 20
-52.3642
 11
49.1938
 21
-52.4295
  0
LINE
  8
0
 10
49.1938
 20
-52.4295
 11
49.1218
 21
-52.4903
  0
LINE
  8
0
 10
49.1218
 20
-52.4903
 11
49.0461
 21
-52.5465
  0
LINE
  8
0
 10
49.0461
 20
-52.5465
 11
48.9671
 21
-52.5978
  0
LINE
  8
0
 10
48.9671
 20
-52.5978
 11
48.885
 21
-52.6441
  0
LINE
  8
0
 10
48.885
 20
-52.6441
 11
48.8002
 21
-52.6851
  0
LINE
  8
0
 10
48.8002
 20
-52.6851
 11
48.7129
 21
-52.7207
  0
LINE
  8
0
 10
48.7129
 20
-52.7207
 11
48.6236
 21
-52.7507
  0
LINE
  8
0
 10
48.6236
 20
-52.7507
 11
48.5326
 21
-52.7751
  0
LINE
  8
0
 10
48.5326
 20
-52.7751
 11
48.4402
 21
-52.7937
  0
LINE
  8
0
 10
48.4402
 20
-52.7937
 11
48.3469
 21
-52.8065
  0
LINE
  8
0
 10
48.3469
 20
-52.8065
 11
48.2529
 21
-52.8134
  0
LINE
  8
0
 10
48.2529
 20
-52.8134
 11
48.1587
 21
-52.8144
  0
LINE
  8
0
 10
48.1587
 20
-52.8144
 11
48.0646
 21
-52.8095
  0
LINE
  8
0
 10
54.1581
 20
-63.3118
 11
54.0643
 21
-63.3029
  0
LINE
  8
0
 10
54.0643
 20
-63.3029
 11
53.9712
 21
-63.2882
  0
LINE
  8
0
 10
53.9712
 20
-63.2882
 11
53.8792
 21
-63.2676
  0
LINE
  8
0
 10
53.8792
 20
-63.2676
 11
53.7887
 21
-63.2413
  0
LINE
  8
0
 10
53.7887
 20
-63.2413
 11
53.7001
 21
-63.2094
  0
LINE
  8
0
 10
53.7001
 20
-63.2094
 11
53.6136
 21
-63.172
  0
LINE
  8
0
 10
53.6136
 20
-63.172
 11
53.5296
 21
-63.1292
  0
LINE
  8
0
 10
53.5296
 20
-63.1292
 11
53.4485
 21
-63.0812
  0
LINE
  8
0
 10
53.4485
 20
-63.0812
 11
53.3706
 21
-63.0283
  0
LINE
  8
0
 10
53.3706
 20
-63.0283
 11
53.2961
 21
-62.9705
  0
LINE
  8
0
 10
53.2961
 20
-62.9705
 11
53.2254
 21
-62.9082
  0
LINE
  8
0
 10
53.2254
 20
-62.9082
 11
53.1588
 21
-62.8416
  0
LINE
  8
0
 10
53.1588
 20
-62.8416
 11
53.0965
 21
-62.7709
  0
LINE
  8
0
 10
53.0965
 20
-62.7709
 11
53.0387
 21
-62.6964
  0
LINE
  8
0
 10
53.0387
 20
-62.6964
 11
52.9858
 21
-62.6185
  0
LINE
  8
0
 10
52.9858
 20
-62.6185
 11
52.9378
 21
-62.5374
  0
LINE
  8
0
 10
52.9378
 20
-62.5374
 11
52.895
 21
-62.4534
  0
LINE
  8
0
 10
52.895
 20
-62.4534
 11
52.8576
 21
-62.3669
  0
LINE
  8
0
 10
52.8576
 20
-62.3669
 11
52.8257
 21
-62.2783
  0
LINE
  8
0
 10
52.8257
 20
-62.2783
 11
52.7994
 21
-62.1878
  0
LINE
  8
0
 10
52.7994
 20
-62.1878
 11
52.7788
 21
-62.0958
  0
LINE
  8
0
 10
52.7788
 20
-62.0958
 11
52.7641
 21
-62.0027
  0
LINE
  8
0
 10
52.7641
 20
-62.0027
 11
52.7552
 21
-61.9089
  0
LINE
  8
0
 10
52.7552
 20
-61.9089
 11
52.7522
 21
-61.8147
  0
LINE
  8
0
 10
52.7522
 20
-61.8147
 11
52.7552
 21
-61.7206
  0
LINE
  8
0
 10
52.7552
 20
-61.7206
 11
52.7641
 21
-61.6267
  0
LINE
  8
0
 10
52.7641
 20
-61.6267
 11
52.7788
 21
-61.5337
  0
LINE
  8
0
 10
52.7788
 20
-61.5337
 11
52.7994
 21
-61.4417
  0
LINE
  8
0
 10
52.7994
 20
-61.4417
 11
52.8257
 21
-61.3512
  0
LINE
  8
0
 10
52.8257
 20
-61.3512
 11
52.8576
 21
-61.2625
  0
LINE
  8
0
 10
52.8576
 20
-61.2625
 11
52.895
 21
-61.1761
  0
LINE
  8
0
 10
52.895
 20
-61.1761
 11
52.9378
 21
-61.0921
  0
LINE
  8
0
 10
52.9378
 20
-61.0921
 11
52.9858
 21
-61.011
  0
LINE
  8
0
 10
52.9858
 20
-61.011
 11
53.0387
 21
-60.9331
  0
LINE
  8
0
 10
53.0387
 20
-60.9331
 11
53.0965
 21
-60.8586
  0
LINE
  8
0
 10
53.0965
 20
-60.8586
 11
53.1588
 21
-60.7879
  0
LINE
  8
0
 10
53.1588
 20
-60.7879
 11
53.2254
 21
-60.7213
  0
LINE
  8
0
 10
53.2254
 20
-60.7213
 11
53.2961
 21
-60.659
  0
LINE
  8
0
 10
53.2961
 20
-60.659
 11
53.3706
 21
-60.6012
  0
LINE
  8
0
 10
53.3706
 20
-60.6012
 11
53.4485
 21
-60.5482
  0
LINE
  8
0
 10
53.4485
 20
-60.5482
 11
53.5296
 21
-60.5003
  0
LINE
  8
0
 10
53.5296
 20
-60.5003
 11
53.6136
 21
-60.4575
  0
LINE
  8
0
 10
53.6136
 20
-60.4575
 11
53.7001
 21
-60.4201
  0
LINE
  8
0
 10
53.7001
 20
-60.4201
 11
53.7887
 21
-60.3882
  0
LINE
  8
0
 10
53.7887
 20
-60.3882
 11
53.8792
 21
-60.3619
  0
LINE
  8
0
 10
53.8792
 20
-60.3619
 11
53.9712
 21
-60.3413
  0
LINE
  8
0
 10
53.9712
 20
-60.3413
 11
54.0643
 21
-60.3266
  0
LINE
  8
0
 10
54.0643
 20
-60.3266
 11
54.1581
 21
-60.3177
  0
LINE
  8
0
 10
54.1581
 20
-60.3177
 11
54.2522
 21
-60.3147
  0
LINE
  8
0
 10
54.2522
 20
-60.3147
 11
54.3464
 21
-60.3177
  0
LINE
  8
0
 10
54.3464
 20
-60.3177
 11
54.4402
 21
-60.3266
  0
LINE
  8
0
 10
54.4402
 20
-60.3266
 11
54.5333
 21
-60.3413
  0
LINE
  8
0
 10
54.5333
 20
-60.3413
 11
54.6253
 21
-60.3619
  0
LINE
  8
0
 10
54.6253
 20
-60.3619
 11
54.7158
 21
-60.3882
  0
LINE
  8
0
 10
54.7158
 20
-60.3882
 11
54.8044
 21
-60.4201
  0
LINE
  8
0
 10
54.8044
 20
-60.4201
 11
54.8909
 21
-60.4575
  0
LINE
  8
0
 10
54.8909
 20
-60.4575
 11
54.9749
 21
-60.5003
  0
LINE
  8
0
 10
54.9749
 20
-60.5003
 11
55.056
 21
-60.5482
  0
LINE
  8
0
 10
55.056
 20
-60.5482
 11
55.1339
 21
-60.6012
  0
LINE
  8
0
 10
55.1339
 20
-60.6012
 11
55.2084
 21
-60.659
  0
LINE
  8
0
 10
55.2084
 20
-60.659
 11
55.2791
 21
-60.7213
  0
LINE
  8
0
 10
55.2791
 20
-60.7213
 11
55.3457
 21
-60.7879
  0
LINE
  8
0
 10
55.3457
 20
-60.7879
 11
55.408
 21
-60.8586
  0
LINE
  8
0
 10
55.408
 20
-60.8586
 11
55.4658
 21
-60.9331
  0
LINE
  8
0
 10
55.4658
 20
-60.9331
 11
55.5187
 21
-61.011
  0
LINE
  8
0
 10
55.5187
 20
-61.011
 11
55.5667
 21
-61.0921
  0
LINE
  8
0
 10
55.5667
 20
-61.0921
 11
55.6095
 21
-61.1761
  0
LINE
  8
0
 10
55.6095
 20
-61.1761
 11
55.6469
 21
-61.2625
  0
LINE
  8
0
 10
55.6469
 20
-61.2625
 11
55.6788
 21
-61.3512
  0
LINE
  8
0
 10
55.6788
 20
-61.3512
 11
55.7051
 21
-61.4417
  0
LINE
  8
0
 10
55.7051
 20
-61.4417
 11
55.7257
 21
-61.5337
  0
LINE
  8
0
 10
55.7257
 20
-61.5337
 11
55.7404
 21
-61.6267
  0
LINE
  8
0
 10
55.7404
 20
-61.6267
 11
55.7493
 21
-61.7206
  0
LINE
  8
0
 10
55.7493
 20
-61.7206
 11
55.7522
 21
-61.8147
  0
LINE
  8
0
 10
55.7522
 20
-61.8147
 11
55.7493
 21
-61.9089
  0
LINE
  8
0
 10
55.7493
 20
-61.9089
 11
55.7404
 21
-62.0027
  0
LINE
  8
0
 10
55.7404
 20
-62.0027
 11
55.7257
 21
-62.0958
  0
LINE
  8
0
 10
55.7257
 20
-62.0958
 11
55.7051
 21
-62.1878
  0
LINE
  8
0
 10
55.7051
 20
-62.1878
 11
55.6788
 21
-62.2783
  0
LINE
  8
0
 10
55.6788
 20
-62.2783
 11
55.6469
 21
-62.3669
  0
LINE
  8
0
 10
55.6469
 20
-62.3669
 11
55.6095
 21
-62.4534
  0
LINE
  8
0
 10
55.6095
 20
-62.4534
 11
55.5667
 21
-62.5374
  0
LINE
  8
0
 10
55.5667
 20
-62.5374
 11
55.5187
 21
-62.6185
  0
LINE
  8
0
 10
55.5187
 20
-62.6185
 11
55.4658
 21
-62.6964
  0
LINE
  8
0
 10
55.4658
 20
-62.6964
 11
55.408
 21
-62.7709
  0
LINE
  8
0
 10
55.408
 20
-62.7709
 11
55.3457
 21
-62.8416
  0
LINE
  8
0
 10
55.3457
 20
-62.8416
 11
55.2791
 21
-62.9082
  0
LINE
  8
0
 10
55.2791
 20
-62.9082
 11
55.2084
 21
-62.9705
  0
LINE
  8
0
 10
55.2084
 20
-62.9705
 11
55.1339
 21
-63.0283
  0
LINE
  8
0
 10
55.1339
 20
-63.0283
 11
55.056
 21
-63.0812
  0
LINE
  8
0
 10
55.056
 20
-63.0812
 11
54.9749
 21
-63.1292
  0
LINE
  8
0
 10
54.9749
 20
-63.1292
 11
54.8909
 21
-63.172
  0
LINE
  8
0
 10
54.8909
 20
-63.172
 11
54.8044
 21
-63.2094
  0
LINE
  8
0
 10
54.8044
 20
-63.2094
 11
54.7158
 21
-63.2413
  0
LINE
  8
0
 10
54.7158
 20
-63.2413
 11
54.6253
 21
-63.2676
  0
LINE
  8
0
 10
54.6253
 20
-63.2676
 11
54.5333
 21
-63.2882
  0
LINE
  8
0
 10
54.5333
 20
-63.2882
 11
54.4402
 21
-63.3029
  0
LINE
  8
0
 10
54.4402
 20
-63.3029
 11
54.3464
 21
-63.3118
  0
LINE
  8
0
 10
54.3464
 20
-63.3118
 11
54.2522
 21
-63.3147
  0
LINE
  8
0
 10
54.2522
 20
-63.3147
 11
54.1581
 21
-63.3118
  0
LINE
  8
0
 10
-54.3464
 20
-63.3118
 11
-54.4402
 21
-63.3029
  0
LINE
  8
0
 10
-54.4402
 20
-63.3029
 11
-54.5333
 21
-63.2882
  0
LINE
  8
0
 10
-54.5333
 20
-63.2882
 11
-54.6253
 21
-63.2676
  0
LINE
  8
0
 10
-54.6253
 20
-63.2676
 11
-54.7158
 21
-63.2413
  0
LINE
  8
0
 10
-54.7158
 20
-63.2413
 11
-54.8044
 21
-63.2094
  0
LINE
  8
0
 10
-54.8044
 20
-63.2094
 11
-54.8909
 21
-63.172
  0
LINE
  8
0
 10
-54.8909
 20
-63.172
 11
-54.9749
 21
-63.1292
  0
LINE
  8
0
 10
-54.9749
 20
-63.1292
 11
-55.056
 21
-63.0812
  0
LINE
  8
0
 10
-55.056
 20
-63.0812
 11
-55.1339
 21
-63.0283
  0
LINE
  8
0
 10
-55.1339
 20
-63.0283
 11
-55.2084
 21
-62.9705
  0
LINE
  8
0
 10
-55.2084
 20
-62.9705
 11
-55.2791
 21
-62.9082
  0
LINE
  8
0
 10
-55.2791
 20
-62.9082
 11
-55.3457
 21
-62.8416
  0
LINE
  8
0
 10
-55.3457
 20
-62.8416
 11
-55.408
 21
-62.7709
  0
LINE
  8
0
 10
-55.408
 20
-62.7709
 11
-55.4658
 21
-62.6964
  0
LINE
  8
0
 10
-55.4658
 20
-62.6964
 11
-55.5187
 21
-62.6185
  0
LINE
  8
0
 10
-55.5187
 20
-62.6185
 11
-55.5667
 21
-62.5374
  0
LINE
  8
0
 10
-55.5667
 20
-62.5374
 11
-55.6095
 21
-62.4534
  0
LINE
  8
0
 10
-55.6095
 20
-62.4534
 11
-55.6469
 21
-62.3669
  0
LINE
  8
0
 10
-55.6469
 20
-62.3669
 11
-55.6788
 21
-62.2783
  0
LINE
  8
0
 10
-55.6788
 20
-62.2783
 11
-55.7051
 21
-62.1878
  0
LINE
  8
0
 10
-55.7051
 20
-62.1878
 11
-55.7257
 21
-62.0958
  0
LINE
  8
0
 10
-55.7257
 20
-62.0958
 11
-55.7404
 21
-62.0027
  0
LINE
  8
0
 10
-55.7404
 20
-62.0027
 11
-55.7493
 21
-61.9089
  0
LINE
  8
0
 10
-55.7493
 20
-61.9089
 11
-55.7522
 21
-61.8147
  0
LINE
  8
0
 10
-55.7522
 20
-61.8147
 11
-55.7493
 21
-61.7206
  0
LINE
  8
0
 10
-55.7493
 20
-61.7206
 11
-55.7404
 21
-61.6267
  0
LINE
  8
0
 10
-55.7404
 20
-61.6267
 11
-55.7257
 21
-61.5337
  0
LINE
  8
0
 10
-55.7257
 20
-61.5337
 11
-55.7051
 21
-61.4417
  0
LINE
  8
0
 10
-55.7051
 20
-61.4417
 11
-55.6788
 21
-61.3512
  0
LINE
  8
0
 10
-55.6788
 20
-61.3512
 11
-55.6469
 21
-61.2625
  0
LINE
  8
0
 10
-55.6469
 20
-61.2625
 11
-55.6095
 21
-61.1761
  0
LINE
  8
0
 10
-55.6095
 20
-61.1761
 11
-55.5667
 21
-61.0921
  0
LINE
  8
0
 10
-55.5667
 20
-61.0921
 11
-55.5187
 21
-61.011
  0
LINE
  8
0
 10
-55.5187
 20
-61.011
 11
-55.4658
 21
-60.9331
  0
LINE
  8
0
 10
-55.4658
 20
-60.9331
 11
-55.408
 21
-60.8586
  0
LINE
  8
0
 10
-55.408
 20
-60.8586
 11
-55.3457
 21
-60.7879
  0
LINE
  8
0
 10
-55.3457
 20
-60.7879
 11
-55.2791
 21
-60.7213
  0
LINE
  8
0
 10
-55.2791
 20
-60.7213
 11
-55.2084
 21
-60.659
  0
LINE
  8
0
 10
-55.2084
 20
-60.659
 11
-55.1339
 21
-60.6012
  0
LINE
  8
0
 10
-55.1339
 20
-60.6012
 11
-55.056
 21
-60.5482
  0
LINE
  8
0
 10
-55.056
 20
-60.5482
 11
-54.9749
 21
-60.5003
  0
LINE
  8
0
 10
-54.9749
 20
-60.5003
 11
-54.8909
 21
-60.4575
  0
LINE
  8
0
 10
-54.8909
 20
-60.4575
 11
-54.8044
 21
-60.4201
  0
LINE
  8
0
 10
-54.8044
 20
-60.4201
 11
-54.7158
 21
-60.3882
  0
LINE
  8
0
 10
-54.7158
 20
-60.3882
 11
-54.6253
 21
-60.3619
  0
LINE
  8
0
 10
-54.6253
 20
-60.3619
 11
-54.5333
 21
-60.3413
  0
LINE
  8
0
 10
-54.5333
 20
-60.3413
 11
-54.4402
 21
-60.3266
  0
LINE
  8
0
 10
-54.4402
 20
-60.3266
 11
-54.3464
 21
-60.3177
  0
LINE
  8
0
 10
-54.3464
 20
-60.3177
 11
-54.2522
 21
-60.3147
  0
LINE
  8
0
 10
-54.2522
 20
-60.3147
 11
-54.1581
 21
-60.3177
  0
LINE
  8
0
 10
-54.1581
 20
-60.3177
 11
-54.0643
 21
-60.3266
  0
LINE
  8
0
 10
-54.0643
 20
-60.3266
 11
-53.9712
 21
-60.3413
  0
LINE
  8
0
 10
-53.9712
 20
-60.3413
 11
-53.8792
 21
-60.3619
  0
LINE
  8
0
 10
-53.8792
 20
-60.3619
 11
-53.7887
 21
-60.3882
  0
LINE
  8
0
 10
-53.7887
 20
-60.3882
 11
-53.7001
 21
-60.4201
  0
LINE
  8
0
 10
-53.7001
 20
-60.4201
 11
-53.6136
 21
-60.4575
  0
LINE
  8
0
 10
-53.6136
 20
-60.4575
 11
-53.5296
 21
-60.5003
  0
LINE
  8
0
 10
-53.5296
 20
-60.5003
 11
-53.4485
 21
-60.5482
  0
LINE
  8
0
 10
-53.4485
 20
-60.5482
 11
-53.3706
 21
-60.6012
  0
LINE
  8
0
 10
-53.3706
 20
-60.6012
 11
-53.2961
 21
-60.659
  0
LINE
  8
0
 10
-53.2961
 20
-60.659
 11
-53.2254
 21
-60.7213
  0
LINE
  8
0
 10
-53.2254
 20
-60.7213
 11
-53.1588
 21
-60.7879
  0
LINE
  8
0
 10
-53.1588
 20
-60.7879
 11
-53.0965
 21
-60.8586
  0
LINE
  8
0
 10
-53.0965
 20
-60.8586
 11
-53.0387
 21
-60.9331
  0
LINE
  8
0
 10
-53.0387
 20
-60.9331
 11
-52.9858
 21
-61.011
  0
LINE
  8
0
 10
-52.9858
 20
-61.011
 11
-52.9378
 21
-61.0921
  0
LINE
  8
0
 10
-52.9378
 20
-61.0921
 11
-52.895
 21
-61.1761
  0
LINE
  8
0
 10
-52.895
 20
-61.1761
 11
-52.8576
 21
-61.2625
  0
LINE
  8
0
 10
-52.8576
 20
-61.2625
 11
-52.8257
 21
-61.3512
  0
LINE
  8
0
 10
-52.8257
 20
-61.3512
 11
-52.7994
 21
-61.4417
  0
LINE
  8
0
 10
-52.7994
 20
-61.4417
 11
-52.7788
 21
-61.5337
  0
LINE
  8
0
 10
-52.7788
 20
-61.5337
 11
-52.7641
 21
-61.6267
  0
LINE
  8
0
 10
-52.7641
 20
-61.6267
 11
-52.7552
 21
-61.7206
  0
LINE
  8
0
 10
-52.7552
 20
-61.7206
 11
-52.7523
 21
-61.8147
  0
LINE
  8
0
 10
-52.7523
 20
-61.8147
 11
-52.7552
 21
-61.9089
  0
LINE
  8
0
 10
-52.7552
 20
-61.9089
 11
-52.7641
 21
-62.0027
  0
LINE
  8
0
 10
-52.7641
 20
-62.0027
 11
-52.7788
 21
-62.0958
  0
LINE
  8
0
 10
-52.7788
 20
-62.0958
 11
-52.7994
 21
-62.1878
  0
LINE
  8
0
 10
-52.7994
 20
-62.1878
 11
-52.8257
 21
-62.2783
  0
LINE
  8
0
 10
-52.8257
 20
-62.2783
 11
-52.8576
 21
-62.3669
  0
LINE
  8
0
 10
-52.8576
 20
-62.3669
 11
-52.895
 21
-62.4534
  0
LINE
  8
0
 10
-52.895
 20
-62.4534
 11
-52.9378
 21
-62.5374
  0
LINE
  8
0
 10
-52.9378
 20
-62.5374
 11
-52.9858
 21
-62.6185
  0
LINE
  8
0
 10
-52.9858
 20
-62.6185
 11
-53.0387
 21
-62.6964
  0
LINE
  8
0
 10
-53.0387
 20
-62.6964
 11
-53.0965
 21
-62.7709
  0
LINE
  8
0
 10
-53.0965
 20
-62.7709
 11
-53.1588
 21
-62.8416
  0
LINE
  8
0
 10
-53.1588
 20
-62.8416
 11
-53.2254
 21
-62.9082
  0
LINE
  8
0
 10
-53.2254
 20
-62.9082
 11
-53.2961
 21
-62.9705
  0
LINE
  8
0
 10
-53.2961
 20
-62.9705
 11
-53.3706
 21
-63.0283
  0
LINE
  8
0
 10
-53.3706
 20
-63.0283
 11
-53.4485
 21
-63.0812
  0
LINE
  8
0
 10
-53.4485
 20
-63.0812
 11
-53.5296
 21
-63.1292
  0
LINE
  8
0
 10
-53.5296
 20
-63.1292
 11
-53.6136
 21
-63.172
  0
LINE
  8
0
 10
-53.6136
 20
-63.172
 11
-53.7001
 21
-63.2094
  0
LINE
  8
0
 10
-53.7001
 20
-63.2094
 11
-53.7887
 21
-63.2413
  0
LINE
  8
0
 10
-53.7887
 20
-63.2413
 11
-53.8792
 21
-63.2676
  0
LINE
  8
0
 10
-53.8792
 20
-63.2676
 11
-53.9712
 21
-63.2882
  0
LINE
  8
0
 10
-53.9712
 20
-63.2882
 11
-54.0643
 21
-63.3029
  0
LINE
  8
0
 10
-54.0643
 20
-63.3029
 11
-54.1581
 21
-63.3118
  0
LINE
  8
0
 10
-54.1581
 20
-63.3118
 11
-54.2522
 21
-63.3147
  0
LINE
  8
0
 10
-54.2522
 20
-63.3147
 11
-54.3464
 21
-63.3118
  0
LINE
  8
0
 10
-39.5942
 20
-81.8118
 11
-39.688
 21
-81.8029
  0
LINE
  8
0
 10
-39.688
 20
-81.8029
 11
-39.7811
 21
-81.7882
  0
LINE
  8
0
 10
-39.7811
 20
-81.7882
 11
-39.873
 21
-81.7676
  0
LINE
  8
0
 10
-39.873
 20
-81.7676
 11
-39.9635
 21
-81.7413
  0
LINE
  8
0
 10
-39.9635
 20
-81.7413
 11
-40.0522
 21
-81.7094
  0
LINE
  8
0
 10
-40.0522
 20
-81.7094
 11
-40.1387
 21
-81.672
  0
LINE
  8
0
 10
-40.1387
 20
-81.672
 11
-40.2226
 21
-81.6292
  0
LINE
  8
0
 10
-40.2226
 20
-81.6292
 11
-40.3037
 21
-81.5812
  0
LINE
  8
0
 10
-40.3037
 20
-81.5812
 11
-40.3817
 21
-81.5283
  0
LINE
  8
0
 10
-40.3817
 20
-81.5283
 11
-40.4561
 21
-81.4705
  0
LINE
  8
0
 10
-40.4561
 20
-81.4705
 11
-40.5268
 21
-81.4082
  0
LINE
  8
0
 10
-40.5268
 20
-81.4082
 11
-40.5934
 21
-81.3416
  0
LINE
  8
0
 10
-40.5934
 20
-81.3416
 11
-40.6558
 21
-81.2709
  0
LINE
  8
0
 10
-40.6558
 20
-81.2709
 11
-40.7135
 21
-81.1964
  0
LINE
  8
0
 10
-40.7135
 20
-81.1964
 11
-40.7665
 21
-81.1185
  0
LINE
  8
0
 10
-40.7665
 20
-81.1185
 11
-40.8145
 21
-81.0374
  0
LINE
  8
0
 10
-40.8145
 20
-81.0374
 11
-40.8572
 21
-80.9534
  0
LINE
  8
0
 10
-40.8572
 20
-80.9534
 11
-40.8947
 21
-80.8669
  0
LINE
  8
0
 10
-40.8947
 20
-80.8669
 11
-40.9266
 21
-80.7783
  0
LINE
  8
0
 10
-40.9266
 20
-80.7783
 11
-40.9529
 21
-80.6878
  0
LINE
  8
0
 10
-40.9529
 20
-80.6878
 11
-40.9734
 21
-80.5958
  0
LINE
  8
0
 10
-40.9734
 20
-80.5958
 11
-40.9882
 21
-80.5027
  0
LINE
  8
0
 10
-40.9882
 20
-80.5027
 11
-40.997
 21
-80.4089
  0
LINE
  8
0
 10
-40.997
 20
-80.4089
 11
-41
 21
-80.3147
  0
LINE
  8
0
 10
-41
 20
-80.3147
 11
-40.997
 21
-80.2206
  0
LINE
  8
0
 10
-40.997
 20
-80.2206
 11
-40.9882
 21
-80.1268
  0
LINE
  8
0
 10
-40.9882
 20
-80.1268
 11
-40.9734
 21
-80.0337
  0
LINE
  8
0
 10
-40.9734
 20
-80.0337
 11
-40.9529
 21
-79.9417
  0
LINE
  8
0
 10
-40.9529
 20
-79.9417
 11
-40.9266
 21
-79.8512
  0
LINE
  8
0
 10
-40.9266
 20
-79.8512
 11
-40.8947
 21
-79.7626
  0
LINE
  8
0
 10
-40.8947
 20
-79.7626
 11
-40.8572
 21
-79.6761
  0
LINE
  8
0
 10
-40.8572
 20
-79.6761
 11
-40.8145
 21
-79.5921
  0
LINE
  8
0
 10
-40.8145
 20
-79.5921
 11
-40.7665
 21
-79.511
  0
LINE
  8
0
 10
-40.7665
 20
-79.511
 11
-40.7135
 21
-79.4331
  0
LINE
  8
0
 10
-40.7135
 20
-79.4331
 11
-40.6558
 21
-79.3586
  0
LINE
  8
0
 10
-40.6558
 20
-79.3586
 11
-40.5934
 21
-79.2879
  0
LINE
  8
0
 10
-40.5934
 20
-79.2879
 11
-40.5268
 21
-79.2213
  0
LINE
  8
0
 10
-40.5268
 20
-79.2213
 11
-40.4561
 21
-79.159
  0
LINE
  8
0
 10
-40.4561
 20
-79.159
 11
-40.3817
 21
-79.1012
  0
LINE
  8
0
 10
-40.3817
 20
-79.1012
 11
-40.3037
 21
-79.0483
  0
LINE
  8
0
 10
-40.3037
 20
-79.0483
 11
-40.2226
 21
-79.0003
  0
LINE
  8
0
 10
-40.2226
 20
-79.0003
 11
-40.1387
 21
-78.9575
  0
LINE
  8
0
 10
-40.1387
 20
-78.9575
 11
-40.0522
 21
-78.9201
  0
LINE
  8
0
 10
-40.0522
 20
-78.9201
 11
-39.9635
 21
-78.8882
  0
LINE
  8
0
 10
-39.9635
 20
-78.8882
 11
-39.873
 21
-78.8619
  0
LINE
  8
0
 10
-39.873
 20
-78.8619
 11
-39.7811
 21
-78.8413
  0
LINE
  8
0
 10
-39.7811
 20
-78.8413
 11
-39.688
 21
-78.8266
  0
LINE
  8
0
 10
-39.688
 20
-78.8266
 11
-39.5942
 21
-78.8177
  0
LINE
  8
0
 10
-39.5942
 20
-78.8177
 11
-39.5
 21
-78.8147
  0
LINE
  8
0
 10
-39.5
 20
-78.8147
 11
-39.4058
 21
-78.8177
  0
LINE
  8
0
 10
-39.4058
 20
-78.8177
 11
-39.312
 21
-78.8266
  0
LINE
  8
0
 10
-39.312
 20
-78.8266
 11
-39.2189
 21
-78.8413
  0
LINE
  8
0
 10
-39.2189
 20
-78.8413
 11
-39.127
 21
-78.8619
  0
LINE
  8
0
 10
-39.127
 20
-78.8619
 11
-39.0365
 21
-78.8882
  0
LINE
  8
0
 10
-39.0365
 20
-78.8882
 11
-38.9478
 21
-78.9201
  0
LINE
  8
0
 10
-38.9478
 20
-78.9201
 11
-38.8613
 21
-78.9575
  0
LINE
  8
0
 10
-38.8613
 20
-78.9575
 11
-38.7774
 21
-79.0003
  0
LINE
  8
0
 10
-38.7774
 20
-79.0003
 11
-38.6963
 21
-79.0483
  0
LINE
  8
0
 10
-38.6963
 20
-79.0483
 11
-38.6183
 21
-79.1012
  0
LINE
  8
0
 10
-38.6183
 20
-79.1012
 11
-38.5439
 21
-79.159
  0
LINE
  8
0
 10
-38.5439
 20
-79.159
 11
-38.4732
 21
-79.2213
  0
LINE
  8
0
 10
-38.4732
 20
-79.2213
 11
-38.4065
 21
-79.2879
  0
LINE
  8
0
 10
-38.4065
 20
-79.2879
 11
-38.3442
 21
-79.3586
  0
LINE
  8
0
 10
-38.3442
 20
-79.3586
 11
-38.2865
 21
-79.4331
  0
LINE
  8
0
 10
-38.2865
 20
-79.4331
 11
-38.2335
 21
-79.511
  0
LINE
  8
0
 10
-38.2335
 20
-79.511
 11
-38.1855
 21
-79.5921
  0
LINE
  8
0
 10
-38.1855
 20
-79.5921
 11
-38.1427
 21
-79.6761
  0
LINE
  8
0
 10
-38.1427
 20
-79.6761
 11
-38.1053
 21
-79.7626
  0
LINE
  8
0
 10
-38.1053
 20
-79.7626
 11
-38.0734
 21
-79.8512
  0
LINE
  8
0
 10
-38.0734
 20
-79.8512
 11
-38.0471
 21
-79.9417
  0
LINE
  8
0
 10
-38.0471
 20
-79.9417
 11
-38.0266
 21
-80.0337
  0
LINE
  8
0
 10
-38.0266
 20
-80.0337
 11
-38.0118
 21
-80.1268
  0
LINE
  8
0
 10
-38.0118
 20
-80.1268
 11
-38.0029
 21
-80.2206
  0
LINE
  8
0
 10
-38.0029
 20
-80.2206
 11
-38
 21
-80.3147
  0
LINE
  8
0
 10
-38
 20
-80.3147
 11
-38.0029
 21
-80.4089
  0
LINE
  8
0
 10
-38.0029
 20
-80.4089
 11
-38.0118
 21
-80.5027
  0
LINE
  8
0
 10
-38.0118
 20
-80.5027
 11
-38.0266
 21
-80.5958
  0
LINE
  8
0
 10
-38.0266
 20
-80.5958
 11
-38.0471
 21
-80.6878
  0
LINE
  8
0
 10
-38.0471
 20
-80.6878
 11
-38.0734
 21
-80.7783
  0
LINE
  8
0
 10
-38.0734
 20
-80.7783
 11
-38.1053
 21
-80.8669
  0
LINE
  8
0
 10
-38.1053
 20
-80.8669
 11
-38.1427
 21
-80.9534
  0
LINE
  8
0
 10
-38.1427
 20
-80.9534
 11
-38.1855
 21
-81.0374
  0
LINE
  8
0
 10
-38.1855
 20
-81.0374
 11
-38.2335
 21
-81.1185
  0
LINE
  8
0
 10
-38.2335
 20
-81.1185
 11
-38.2865
 21
-81.1964
  0
LINE
  8
0
 10
-38.2865
 20
-81.1964
 11
-38.3442
 21
-81.2709
  0
LINE
  8
0
 10
-38.3442
 20
-81.2709
 11
-38.4065
 21
-81.3416
  0
LINE
  8
0
 10
-38.4065
 20
-81.3416
 11
-38.4732
 21
-81.4082
  0
LINE
  8
0
 10
-38.4732
 20
-81.4082
 11
-38.5439
 21
-81.4705
  0
LINE
  8
0
 10
-38.5439
 20
-81.4705
 11
-38.6183
 21
-81.5283
  0
LINE
  8
0
 10
-38.6183
 20
-81.5283
 11
-38.6963
 21
-81.5812
  0
LINE
  8
0
 10
-38.6963
 20
-81.5812
 11
-38.7774
 21
-81.6292
  0
LINE
  8
0
 10
-38.7774
 20
-81.6292
 11
-38.8613
 21
-81.672
  0
LINE
  8
0
 10
-38.8613
 20
-81.672
 11
-38.9478
 21
-81.7094
  0
LINE
  8
0
 10
-38.9478
 20
-81.7094
 11
-39.0365
 21
-81.7413
  0
LINE
  8
0
 10
-39.0365
 20
-81.7413
 11
-39.127
 21
-81.7676
  0
LINE
  8
0
 10
-39.127
 20
-81.7676
 11
-39.2189
 21
-81.7882
  0
LINE
  8
0
 10
-39.2189
 20
-81.7882
 11
-39.312
 21
-81.8029
  0
LINE
  8
0
 10
-39.312
 20
-81.8029
 11
-39.4058
 21
-81.8118
  0
LINE
  8
0
 10
-39.4058
 20
-81.8118
 11
-39.5
 21
-81.8147
  0
LINE
  8
0
 10
-39.5
 20
-81.8147
 11
-39.5942
 21
-81.8118
  0
LINE
  8
0
 10
39.4058
 20
-81.8118
 11
39.312
 21
-81.8029
  0
LINE
  8
0
 10
39.312
 20
-81.8029
 11
39.2189
 21
-81.7882
  0
LINE
  8
0
 10
39.2189
 20
-81.7882
 11
39.127
 21
-81.7676
  0
LINE
  8
0
 10
39.127
 20
-81.7676
 11
39.0365
 21
-81.7413
  0
LINE
  8
0
 10
39.0365
 20
-81.7413
 11
38.9478
 21
-81.7094
  0
LINE
  8
0
 10
38.9478
 20
-81.7094
 11
38.8613
 21
-81.672
  0
LINE
  8
0
 10
38.8613
 20
-81.672
 11
38.7774
 21
-81.6292
  0
LINE
  8
0
 10
38.7774
 20
-81.6292
 11
38.6963
 21
-81.5812
  0
LINE
  8
0
 10
38.6963
 20
-81.5812
 11
38.6183
 21
-81.5283
  0
LINE
  8
0
 10
38.6183
 20
-81.5283
 11
38.5439
 21
-81.4705
  0
LINE
  8
0
 10
38.5439
 20
-81.4705
 11
38.4732
 21
-81.4082
  0
LINE
  8
0
 10
38.4732
 20
-81.4082
 11
38.4065
 21
-81.3416
  0
LINE
  8
0
 10
38.4065
 20
-81.3416
 11
38.3442
 21
-81.2709
  0
LINE
  8
0
 10
38.3442
 20
-81.2709
 11
38.2865
 21
-81.1964
  0
LINE
  8
0
 10
38.2865
 20
-81.1964
 11
38.2335
 21
-81.1185
  0
LINE
  8
0
 10
38.2335
 20
-81.1185
 11
38.1855
 21
-81.0374
  0
LINE
  8
0
 10
38.1855
 20
-81.0374
 11
38.1427
 21
-80.9534
  0
LINE
  8
0
 10
38.1427
 20
-80.9534
 11
38.1053
 21
-80.8669
  0
LINE
  8
0
 10
38.1053
 20
-80.8669
 11
38.0734
 21
-80.7783
  0
LINE
  8
0
 10
38.0734
 20
-80.7783
 11
38.0471
 21
-80.6878
  0
LINE
  8
0
 10
38.0471
 20
-80.6878
 11
38.0266
 21
-80.5958
  0
LINE
  8
0
 10
38.0266
 20
-80.5958
 11
38.0118
 21
-80.5027
  0
LINE
  8
0
 10
38.0118
 20
-80.5027
 11
38.0029
 21
-80.4089
  0
LINE
  8
0
 10
38.0029
 20
-80.4089
 11
38
 21
-80.3147
  0
LINE
  8
0
 10
38
 20
-80.3147
 11
38.0029
 21
-80.2206
  0
LINE
  8
0
 10
38.0029
 20
-80.2206
 11
38.0118
 21
-80.1268
  0
LINE
  8
0
 10
38.0118
 20
-80.1268
 11
38.0266
 21
-80.0337
  0
LINE
  8
0
 10
38.0266
 20
-80.0337
 11
38.0471
 21
-79.9417
  0
LINE
  8
0
 10
38.0471
 20
-79.9417
 11
38.0734
 21
-79.8512
  0
LINE
  8
0
 10
38.0734
 20
-79.8512
 11
38.1053
 21
-79.7626
  0
LINE
  8
0
 10
38.1053
 20
-79.7626
 11
38.1427
 21
-79.6761
  0
LINE
  8
0
 10
38.1427
 20
-79.6761
 11
38.1855
 21
-79.5921
  0
LINE
  8
0
 10
38.1855
 20
-79.5921
 11
38.2335
 21
-79.511
  0
LINE
  8
0
 10
38.2335
 20
-79.511
 11
38.2865
 21
-79.4331
  0
LINE
  8
0
 10
38.2865
 20
-79.4331
 11
38.3442
 21
-79.3586
  0
LINE
  8
0
 10
38.3442
 20
-79.3586
 11
38.4065
 21
-79.2879
  0
LINE
  8
0
 10
38.4065
 20
-79.2879
 11
38.4732
 21
-79.2213
  0
LINE
  8
0
 10
38.4732
 20
-79.2213
 11
38.5439
 21
-79.159
  0
LINE
  8
0
 10
38.5439
 20
-79.159
 11
38.6183
 21
-79.1012
  0
LINE
  8
0
 10
38.6183
 20
-79.1012
 11
38.6963
 21
-79.0483
  0
LINE
  8
0
 10
38.6963
 20
-79.0483
 11
38.7774
 21
-79.0003
  0
LINE
  8
0
 10
38.7774
 20
-79.0003
 11
38.8613
 21
-78.9575
  0
LINE
  8
0
 10
38.8613
 20
-78.9575
 11
38.9478
 21
-78.9201
  0
LINE
  8
0
 10
38.9478
 20
-78.9201
 11
39.0365
 21
-78.8882
  0
LINE
  8
0
 10
39.0365
 20
-78.8882
 11
39.127
 21
-78.8619
  0
LINE
  8
0
 10
39.127
 20
-78.8619
 11
39.2189
 21
-78.8413
  0
LINE
  8
0
 10
39.2189
 20
-78.8413
 11
39.312
 21
-78.8266
  0
LINE
  8
0
 10
39.312
 20
-78.8266
 11
39.4058
 21
-78.8177
  0
LINE
  8
0
 10
39.4058
 20
-78.8177
 11
39.5
 21
-78.8147
  0
LINE
  8
0
 10
39.5
 20
-78.8147
 11
39.5942
 21
-78.8177
  0
LINE
  8
0
 10
39.5942
 20
-78.8177
 11
39.688
 21
-78.8266
  0
LINE
  8
0
 10
39.688
 20
-78.8266
 11
39.7811
 21
-78.8413
  0
LINE
  8
0
 10
39.7811
 20
-78.8413
 11
39.873
 21
-78.8619
  0
LINE
  8
0
 10
39.873
 20
-78.8619
 11
39.9635
 21
-78.8882
  0
LINE
  8
0
 10
39.9635
 20
-78.8882
 11
40.0522
 21
-78.9201
  0
LINE
  8
0
 10
40.0522
 20
-78.9201
 11
40.1387
 21
-78.9575
  0
LINE
  8
0
 10
40.1387
 20
-78.9575
 11
40.2226
 21
-79.0003
  0
LINE
  8
0
 10
40.2226
 20
-79.0003
 11
40.3037
 21
-79.0483
  0
LINE
  8
0
 10
40.3037
 20
-79.0483
 11
40.3817
 21
-79.1012
  0
LINE
  8
0
 10
40.3817
 20
-79.1012
 11
40.4561
 21
-79.159
  0
LINE
  8
0
 10
40.4561
 20
-79.159
 11
40.5268
 21
-79.2213
  0
LINE
  8
0
 10
40.5268
 20
-79.2213
 11
40.5934
 21
-79.2879
  0
LINE
  8
0
 10
40.5934
 20
-79.2879
 11
40.6558
 21
-79.3586
  0
LINE
  8
0
 10
40.6558
 20
-79.3586
 11
40.7135
 21
-79.4331
  0
LINE
  8
0
 10
40.7135
 20
-79.4331
 11
40.7665
 21
-79.511
  0
LINE
  8
0
 10
40.7665
 20
-79.511
 11
40.8145
 21
-79.5921
  0
LINE
  8
0
 10
40.8145
 20
-79.5921
 11
40.8572
 21
-79.6761
  0
LINE
  8
0
 10
40.8572
 20
-79.6761
 11
40.8947
 21
-79.7626
  0
LINE
  8
0
 10
40.8947
 20
-79.7626
 11
40.9266
 21
-79.8512
  0
LINE
  8
0
 10
40.9266
 20
-79.8512
 11
40.9529
 21
-79.9417
  0
LINE
  8
0
 10
40.9529
 20
-79.9417
 11
40.9734
 21
-80.0337
  0
LINE
  8
0
 10
40.9734
 20
-80.0337
 11
40.9882
 21
-80.1268
  0
LINE
  8
0
 10
40.9882
 20
-80.1268
 11
40.997
 21
-80.2206
  0
LINE
  8
0
 10
40.997
 20
-80.2206
 11
41
 21
-80.3147
  0
LINE
  8
0
 10
41
 20
-80.3147
 11
40.997
 21
-80.4089
  0
LINE
  8
0
 10
40.997
 20
-80.4089
 11
40.9882
 21
-80.5027
  0
LINE
  8
0
 10
40.9882
 20
-80.5027
 11
40.9734
 21
-80.5958
  0
LINE
  8
0
 10
40.9734
 20
-80.5958
 11
40.9529
 21
-80.6878
  0
LINE
  8
0
 10
40.9529
 20
-80.6878
 11
40.9266
 21
-80.7783
  0
LINE
  8
0
 10
40.9266
 20
-80.7783
 11
40.8947
 21
-80.8669
  0
LINE
  8
0
 10
40.8947
 20
-80.8669
 11
40.8572
 21
-80.9534
  0
LINE
  8
0
 10
40.8572
 20
-80.9534
 11
40.8145
 21
-81.0374
  0
LINE
  8
0
 10
40.8145
 20
-81.0374
 11
40.7665
 21
-81.1185
  0
LINE
  8
0
 10
40.7665
 20
-81.1185
 11
40.7135
 21
-81.1964
  0
LINE
  8
0
 10
40.7135
 20
-81.1964
 11
40.6558
 21
-81.2709
  0
LINE
  8
0
 10
40.6558
 20
-81.2709
 11
40.5934
 21
-81.3416
  0
LINE
  8
0
 10
40.5934
 20
-81.3416
 11
40.5268
 21
-81.4082
  0
LINE
  8
0
 10
40.5268
 20
-81.4082
 11
40.4561
 21
-81.4705
  0
LINE
  8
0
 10
40.4561
 20
-81.4705
 11
40.3817
 21
-81.5283
  0
LINE
  8
0
 10
40.3817
 20
-81.5283
 11
40.3037
 21
-81.5812
  0
LINE
  8
0
 10
40.3037
 20
-81.5812
 11
40.2226
 21
-81.6292
  0
LINE
  8
0
 10
40.2226
 20
-81.6292
 11
40.1387
 21
-81.672
  0
LINE
  8
0
 10
40.1387
 20
-81.672
 11
40.0522
 21
-81.7094
  0
LINE
  8
0
 10
40.0522
 20
-81.7094
 11
39.9635
 21
-81.7413
  0
LINE
  8
0
 10
39.9635
 20
-81.7413
 11
39.873
 21
-81.7676
  0
LINE
  8
0
 10
39.873
 20
-81.7676
 11
39.7811
 21
-81.7882
  0
LINE
  8
0
 10
39.7811
 20
-81.7882
 11
39.688
 21
-81.8029
  0
LINE
  8
0
 10
39.688
 20
-81.8029
 11
39.5942
 21
-81.8118
  0
LINE
  8
0
 10
39.5942
 20
-81.8118
 11
39.5
 21
-81.8147
  0
LINE
  8
0
 10
39.5
 20
-81.8147
 11
39.4058
 21
-81.8118
  0
ENDSEC
  0
SECTION
  2
OBJECTS
  0
DICTIONARY
  0
ENDSEC
  0
EOF
