<?xml version="1.0" encoding="UTF-8" standalone="no"?>
<svg
   xmlns:dc="http://purl.org/dc/elements/1.1/"
   xmlns:cc="http://creativecommons.org/ns#"
   xmlns:rdf="http://www.w3.org/1999/02/22-rdf-syntax-ns#"
   xmlns:svg="http://www.w3.org/2000/svg"
   xmlns="http://www.w3.org/2000/svg"
   xmlns:sodipodi="http://sodipodi.sourceforge.net/DTD/sodipodi-0.dtd"
   xmlns:inkscape="http://www.inkscape.org/namespaces/inkscape"
   width="744.094488189"
   height="1052.36220472"
   id="svg4185"
   version="1.1"
   inkscape:version="0.91 r13725"
   sodipodi:docname="simple_base.svg">
  <metadata
     id="metadata5065">
    <rdf:RDF>
      <cc:Work
         rdf:about="">
        <dc:format>image/svg+xml</dc:format>
        <dc:type
           rdf:resource="http://purl.org/dc/dcmitype/StillImage" />
        <dc:title />
      </cc:Work>
    </rdf:RDF>
  </metadata>
  <sodipodi:namedview
     pagecolor="#ffffff"
     bordercolor="#666666"
     borderopacity="1"
     objecttolerance="10"
     gridtolerance="10"
     guidetolerance="10"
     inkscape:pageopacity="0"
     inkscape:pageshadow="2"
     inkscape:window-width="3734"
     inkscape:window-height="2121"
     id="namedview5063"
     showgrid="false"
     inkscape:zoom="0.89702957"
     inkscape:cx="-50.35536"
     inkscape:cy="510.36267"
     inkscape:window-x="106"
     inkscape:window-y="39"
     inkscape:window-maximized="1"
     inkscape:current-layer="g4201" />
  <desc
     id="desc4187">C:\Share\Robotics\Whr_bot\Parts\64\base.dxf - scale = 1.000000, origin = (0.000000, 0.000000), auto = False</desc>
  <defs
     id="defs4189">
    <marker
       refY="0.0"
       refX="0.0"
       style="overflow:visible"
       id="DistanceX"
       orient="auto">
      <path
         style="stroke:#000000; stroke-width:0.5"
         d="M 3,-3 L -3,3 M 0,-5 L  0,5"
         id="path4192" />
    </marker>
    <pattern
       height="8"
       width="8"
       patternUnits="userSpaceOnUse"
       y="0"
       x="0"
       id="Hatch">
      <path
         linecap="square"
         stroke="#000000"
         stroke-width="0.25"
         d="M8 4 l-4,4"
         id="path4195" />
      <path
         linecap="square"
         stroke="#000000"
         stroke-width="0.25"
         d="M6 2 l-4,4"
         id="path4197" />
      <path
         linecap="square"
         stroke="#000000"
         stroke-width="0.25"
         d="M4 0 l-4,4"
         id="path4199" />
    </pattern>
    <marker
       style="overflow:visible"
       refY="0.0"
       refX="0.0"
       orient="auto"
       id="DistanceX-7">
      <path
         id="path9284"
         style="stroke:#000000; stroke-width:0.5"
         d="M 3,-3 L -3,3 M 0,-5 L  0,5" />
    </marker>
    <pattern
       y="0"
       x="0"
       width="8"
       patternUnits="userSpaceOnUse"
       id="Hatch-5"
       height="8">
      <path
         id="path9287"
         stroke-width="0.25"
         stroke="#000000"
         linecap="square"
         d="M8 4 l-4,4" />
      <path
         id="path9289"
         stroke-width="0.25"
         stroke="#000000"
         linecap="square"
         d="M6 2 l-4,4" />
      <path
         id="path9291"
         stroke-width="0.25"
         stroke="#000000"
         linecap="square"
         d="M4 0 l-4,4" />
    </pattern>
    <marker
       style="overflow:visible"
       refY="0.0"
       refX="0.0"
       orient="auto"
       id="DistanceX-2">
      <path
         id="path11674"
         style="stroke:#000000; stroke-width:0.5"
         d="M 3,-3 L -3,3 M 0,-5 L  0,5" />
    </marker>
    <pattern
       y="0"
       x="0"
       width="8"
       patternUnits="userSpaceOnUse"
       id="Hatch-9"
       height="8">
      <path
         id="path11677"
         stroke-width="0.25"
         stroke="#000000"
         linecap="square"
         d="M8 4 l-4,4" />
      <path
         id="path11679"
         stroke-width="0.25"
         stroke="#000000"
         linecap="square"
         d="M6 2 l-4,4" />
      <path
         id="path11681"
         stroke-width="0.25"
         stroke="#000000"
         linecap="square"
         d="M4 0 l-4,4" />
    </pattern>
    <marker
       style="overflow:visible"
       refY="0.0"
       refX="0.0"
       orient="auto"
       id="DistanceX-3">
      <path
         id="path4216"
         style="stroke:#000000; stroke-width:0.5"
         d="M 3,-3 L -3,3 M 0,-5 L  0,5" />
    </marker>
    <pattern
       y="0"
       x="0"
       width="8"
       patternUnits="userSpaceOnUse"
       id="Hatch-6"
       height="8">
      <path
         id="path4219"
         stroke-width="0.25"
         stroke="#000000"
         linecap="square"
         d="M8 4 l-4,4" />
      <path
         id="path4221"
         stroke-width="0.25"
         stroke="#000000"
         linecap="square"
         d="M6 2 l-4,4" />
      <path
         id="path4223"
         stroke-width="0.25"
         stroke="#000000"
         linecap="square"
         d="M4 0 l-4,4" />
    </pattern>
  </defs>
  <g
     inkscape:label="0"
     inkscape:groupmode="layer"
     id="g4201">
    <path
       inkscape:connector-curvature="0"
       d="m 382.36645,872.68021 2.22609,-0.035 2.22576,-0.049 2.22545,-0.0628 2.22498,-0.077 2.22445,-0.091 2.22389,-0.10475 2.2231,-0.1191 2.22237,-0.1325 2.22147,-0.147 2.22052,-0.1605 2.21949,-0.1747 2.21829,-0.1885 2.21712,-0.2027 2.21588,-0.2165 2.21421,-0.2303 2.2128,-0.2445 2.21137,-0.258 2.20961,-0.2721 2.20783,-0.2859 2.20607,-0.3001 2.20429,-0.3136 2.20217,-0.3274 2.19968,-0.3416 2.19791,-0.355 2.19544,-0.3689 2.1933,-0.383 2.19083,-0.3965 2.18799,-0.4103 2.18551,-0.4242 2.18304,-0.4376 2.18019,-0.4514 2.17701,-0.4652 2.17417,-0.4787 2.17134,-0.4926 2.1678,-0.5063 2.16496,-0.5194 2.16142,-0.5337 2.15822,-0.5467 2.15469,-0.5605 2.15079,-0.5737 2.14759,-0.5875 2.14371,-0.6009 2.1398,-0.6144 2.1359,-0.6279 2.13201,-0.6414 2.12776,-0.6544 2.12386,-0.6683 2.1196,-0.6813 2.115,-0.6945 2.11111,-0.708 2.10614,-0.7211 2.10189,-0.7345 2.09693,-0.7473 2.09232,-0.7607 2.08736,-0.7739 2.08276,-0.7869 2.07744,-0.8001 2.07283,-0.8132 2.06717,-0.826 2.0622,-0.839 2.05689,-0.8518 2.05158,-0.8649 2.0459,-0.8777 2.04024,-0.8908 2.03492,-0.9035 2.0289,-0.916 2.02358,-0.929 2.0172,-0.9415 2.01154,-0.9542 2.00551,-0.967 1.99914,-0.9794 1.99311,-0.9921 1.98673,-1.0045 1.98071,-1.0169 1.97397,-1.0294 1.9676,-1.0417 1.96087,-1.0541 1.95449,-1.0662 1.9474,-1.079 1.94067,-1.0906 1.93393,-1.103 1.92685,-1.1154 1.91977,-1.1272 1.91267,-1.1391 1.9056,-1.1516 1.8985,-1.1633 1.89071,-1.1749 1.88362,-1.1871 1.87583,-1.1987 1.86838,-1.2107 1.86095,-1.2224 1.85315,-1.2338 1.845,-1.2455 1.83756,-1.2572 1.82941,-1.2688 1.82161,-1.2802 1.81311,-1.2916 1.80532,-1.3028 1.79716,-1.3142 1.78866,-1.3256 1.78051,-1.3369 1.77166,-1.3479 1.7635,-1.3588 1.75465,-1.3702 1.74649,-1.3808 1.73729,-1.3922 1.72878,-1.4028 1.71992,-1.4138 1.71106,-1.4244 1.70185,-1.4354 1.69299,-1.4456 1.68378,-1.4567 1.67457,-1.4669 1.66535,-1.4776 1.65579,-1.4878 1.64693,-1.4985 1.63701,-1.5087 1.62779,-1.5187 1.61823,-1.5293 1.60831,-1.5392 1.59874,-1.5495 1.58917,-1.559 1.57925,-1.5694 1.56933,-1.5792 1.88646,-1.9269 0,-236.8864 -11.6922,0 -3.6e-4,-59.1728 11.69256,-4e-4 0,-49.0149 -11.6922,0 -3.6e-4,-49.37067 11.69256,-3.5e-4 0,-99.6417 -1.88646,-1.92685 -1.56933,-1.57925 -1.57925,-1.56933 -1.58917,-1.55906 -1.59874,-1.54948 -1.60831,-1.53922 -1.61823,-1.52929 -1.62779,-1.51866 -1.63701,-1.50874 -1.64693,-1.49846 -1.65579,-1.48784 -1.66535,-1.47756 -1.67457,-1.46693 -1.68378,-1.45665 -1.69299,-1.44567 -1.70185,-1.43539 -1.71106,-1.42441 -1.71992,-1.41378 -1.72878,-1.4028 -1.73729,-1.39216 -1.74649,-1.38083 -1.75465,-1.3702 -1.7635,-1.35886 -1.77166,-1.34787 -1.78051,-1.33689 -1.78866,-1.32555 -1.79716,-1.31421 -1.80532,-1.30288 -1.81311,-1.29153 -1.82161,-1.2802 -1.82941,-1.26886 -1.83756,-1.25716 -1.845,-1.24547 -1.85315,-1.23378 -1.86095,-1.22244 -1.86838,-1.21075 -1.87583,-1.1987 -1.88362,-1.18701 -1.89071,-1.17496 -1.8985,-1.16327 -1.9056,-1.15158 -1.91267,-1.13917 -1.91977,-1.12712 -1.92685,-1.11544 -1.93393,-1.10303 -1.94067,-1.09063 -1.9474,-1.07894 -1.95449,-1.06618 -1.96087,-1.05413 -1.9676,-1.04173 -1.97397,-1.02933 -1.98071,-1.01693 -1.98673,-1.00453 -1.99311,-0.99213 -1.99914,-0.97937 -2.00551,-0.96696 -2.01154,-0.95422 -2.0172,-0.94145 -2.02358,-0.92906 -2.0289,-0.91594 -2.03492,-0.90355 -2.04024,-0.89079 -2.0459,-0.87767 -2.05158,-0.86492 -2.05689,-0.85181 -2.0622,-0.83906 -2.06717,-0.82594 -2.07283,-0.81319 -2.07744,-0.80008 -2.08276,-0.78697 -2.08736,-0.77386 -2.09232,-0.76075 -2.09693,-0.74728 -2.10189,-0.73453 -2.10614,-0.72106 -2.11111,-0.70795 -2.115,-0.69449 -2.1196,-0.68138 -2.12386,-0.66827 -2.12776,-0.65445 -2.13201,-0.64133 -2.1359,-0.62788 -2.1398,-0.61441 -2.14371,-0.60094 -2.14759,-0.58748 -2.15079,-0.57366 -2.15469,-0.56056 -2.15822,-0.54673 -2.16142,-0.53362 -2.16496,-0.51945 -2.1678,-0.50634 -2.17134,-0.49252 -2.17417,-0.4787 -2.17701,-0.46523 -2.18019,-0.45142 -2.18304,-0.4376 -2.18551,-0.42413 -2.18799,-0.41032 -2.19083,-0.3965 -2.1933,-0.38303 -2.19544,-0.36886 -2.19791,-0.35503 -2.19968,-0.34158 -2.20217,-0.3274 -2.20429,-0.31358 -2.20607,-0.30012 -2.20783,-0.28595 -2.20961,-0.27212 -2.21137,-0.25796 -2.2128,-0.24448 -2.21421,-0.23032 -2.21588,-0.21649 -2.21712,-0.20268 -2.21829,-0.1885 -2.21949,-0.17469 -2.22052,-0.16051 -2.22147,-0.14705 -2.22237,-0.13252 -2.2231,-0.11905 -2.22389,-0.10489 -2.22445,-0.0907 -2.22498,-0.0772 -2.22545,-0.0627 -2.22576,-0.0489 -2.22609,-0.0351 -2.22618,-0.0209 -2.2263,-0.007 -2.2263,0.007 -2.22618,0.0209 -2.22609,0.0351 -2.22576,0.0489 -2.22545,0.0627 -2.22498,0.0772 -2.22445,0.0907 -2.22389,0.10489 -2.22311,0.11905 -2.22236,0.13252 -2.22147,0.14705 -2.22052,0.16051 -2.2195,0.17469 -2.21828,0.1885 -2.21712,0.20268 -2.21588,0.21649 -2.21421,0.23032 -2.2128,0.24448 -2.21137,0.25796 -2.20961,0.27212 -2.20784,0.28595 -2.20606,0.30012 -2.20429,0.31358 -2.20217,0.3274 -2.19968,0.34158 -2.19791,0.35503 -2.19544,0.36886 -2.1933,0.38303 -2.19083,0.3965 -2.18799,0.41032 -2.18551,0.42413 -2.18304,0.4376 -2.18019,0.45142 -2.17701,0.46523 -2.17417,0.4787 -2.17134,0.49252 -2.1678,0.50634 -2.16496,0.51945 -2.16142,0.53362 -2.15822,0.54673 -2.15469,0.56056 -2.15079,0.57366 -2.1476,0.58748 -2.1437,0.60094 -2.1398,0.61441 -2.1359,0.62788 -2.13201,0.64133 -2.12776,0.65445 -2.12386,0.66827 -2.1196,0.68138 -2.115,0.69449 -2.11111,0.70795 -2.10614,0.72106 -2.10189,0.73453 -2.09693,0.74728 -2.09232,0.76075 -2.08736,0.77386 -2.08276,0.78697 -2.07744,0.80008 -2.07283,0.81319 -2.06717,0.82594 -2.0622,0.83906 -2.05689,0.85181 -2.05158,0.86492 -2.0459,0.87767 -2.04024,0.89079 -2.03492,0.90355 -2.0289,0.91594 -2.02358,0.92906 -2.0172,0.94145 -2.01154,0.95422 -2.00551,0.96696 -1.99914,0.97937 -1.99311,0.99213 -1.98673,1.00453 -1.98071,1.01693 -1.97397,1.02933 -1.9676,1.04173 -1.96087,1.05413 -1.95449,1.06618 -1.9474,1.07894 -1.94067,1.09063 -1.93393,1.10303 -1.92685,1.11544 -1.91977,1.12712 -1.91267,1.13917 -1.9056,1.15158 -1.8985,1.16327 -1.89071,1.17496 -1.88362,1.18701 -1.87583,1.1987 -1.86838,1.21075 -1.86095,1.22244 -1.85315,1.23378 -1.845,1.24547 -1.83756,1.25716 -1.82941,1.26886 -1.82161,1.2802 -1.81311,1.29153 -1.80532,1.30288 -1.79716,1.31421 -1.78866,1.32555 -1.78051,1.33689 -1.77166,1.34787 -1.7635,1.35886 -1.75465,1.3702 -1.74649,1.38083 -1.73729,1.39216 -1.72878,1.4028 -1.71992,1.41378 -1.71106,1.42441 -1.70185,1.43539 -1.69299,1.44567 -1.68378,1.45665 -1.67457,1.46693 -1.66535,1.47756 -1.65579,1.48784 -1.64693,1.49846 -1.63701,1.50874 -1.62779,1.51866 -1.61823,1.52929 -1.60831,1.53922 -1.59874,1.54948 -1.58917,1.55906 -1.57925,1.56933 -1.56933,1.57925 -1.88646,1.92685 0,99.64205 11.6922,-3.5e-4 0,49.37102 -11.6922,0 0,49.0153 11.6922,-4e-4 0,59.1732 -11.6922,0 0,236.8864 1.88646,1.9269 1.56933,1.5792 1.57925,1.5694 1.58917,1.559 1.59874,1.5495 1.60831,1.5392 1.61823,1.5293 1.62779,1.5187 1.63701,1.5087 1.64693,1.4985 1.65579,1.4878 1.66535,1.4776 1.67457,1.4669 1.68378,1.4567 1.69299,1.4456 1.70185,1.4354 1.71106,1.4244 1.71992,1.4138 1.72878,1.4028 1.73729,1.3922 1.74649,1.3808 1.75465,1.3702 1.7635,1.3588 1.77166,1.3479 1.78051,1.3369 1.78866,1.3256 1.79716,1.3142 1.80532,1.3028 1.81311,1.2916 1.82161,1.2802 1.82941,1.2688 1.83756,1.2572 1.845,1.2455 1.85315,1.2338 1.86095,1.2224 1.86838,1.2107 1.87583,1.1987 1.88362,1.1871 1.89071,1.1749 1.8985,1.1633 1.9056,1.1516 1.91267,1.1391 1.91977,1.1272 1.92685,1.1154 1.93393,1.103 1.94067,1.0906 1.9474,1.079 1.95449,1.0662 1.96087,1.0541 1.9676,1.0417 1.97397,1.0294 1.98071,1.0169 1.98673,1.0045 1.99311,0.9921 1.99914,0.9794 2.00551,0.967 2.01154,0.9542 2.0172,0.9415 2.02358,0.929 2.0289,0.916 2.03492,0.9035 2.04024,0.8908 2.0459,0.8777 2.05158,0.8649 2.05689,0.8518 2.0622,0.839 2.06717,0.826 2.07283,0.8132 2.07744,0.8001 2.08276,0.7869 2.08736,0.7739 2.09232,0.7607 2.09693,0.7473 2.10189,0.7345 2.10614,0.7211 2.11111,0.708 2.115,0.6945 2.1196,0.6813 2.12386,0.6683 2.12776,0.6544 2.13201,0.6414 2.1359,0.6279 2.1398,0.6144 2.1437,0.6009 2.1476,0.5875 2.15079,0.5737 2.15469,0.5605 2.15822,0.5467 2.16142,0.5337 2.16496,0.5194 2.1678,0.5063 2.17134,0.4926 2.17417,0.4787 2.17701,0.4652 2.18019,0.4514 2.18304,0.4376 2.18551,0.4242 2.18799,0.4103 2.19083,0.3965 2.1933,0.383 2.19544,0.3689 2.19791,0.355 2.19968,0.3416 2.20217,0.3274 2.20429,0.3136 2.20606,0.3001 2.20784,0.2859 2.20961,0.2721 2.21137,0.258 2.2128,0.2445 2.21421,0.2303 2.21588,0.2165 2.21712,0.2027 2.21828,0.1885 2.2195,0.1747 2.22052,0.1605 2.22147,0.147 2.22236,0.1325 2.22311,0.1191 2.22389,0.1049 2.22445,0.0908 2.22498,0.077 2.22545,0.063 2.22576,0.0488 2.22609,0.035 2.22618,0.021 2.2263,0.007 2.2263,-0.009 z"
       style="fill:none;stroke:#0000ff;stroke-opacity:1"
       id="path5015"
       sodipodi:nodetypes="ccccccccccccccccccccccccccccccccccccccccccccccccccccccccccccccccccccccccccccccccccccccccccccccccccccccccccccccccccccccccccccccccccccccccccccccccccccccccccccccccccccccccccccccccccccccccccccccccccccccccccccccccccccccccccccccccccccccccccccccccccccccccccccccccccccccccccccccccccccccccccccccccccccccccccccccccccccccccccccccccccccccccccccccccccccccccccccccccccccccccccccccccccccccccccccccccccccccccccccccccccccccccccccccccccccccccccccccccccccccccccccccccccccccccccccccccccccccccccccccccccccccccccccccccccccccccccccccccccccccccccccccc" />
    <path
       inkscape:connector-curvature="0"
       d="m 372.97233,225.86977 0.13259,-0.3065 0.15158,-0.29728 0.17001,-0.28736 0.18766,-0.27638 0.20462,-0.26362 0.22082,-0.25051 0.23613,-0.23599 0.25042,-0.2211 0.26384,-0.20445 0.27617,-0.18779 0.28737,-0.17008 0.29753,-0.1513 0.30639,-0.13288 0.31418,-0.11303 0.32062,-0.0932 0.32586,-0.0726 0.3298,-0.0525 0.33241,-0.0312 0.33364,-0.0106 0.3337,0.0106 0.3324,0.0312 0.32981,0.0525 0.32586,0.0726 0.32061,0.0932 0.31418,0.11302 0.3064,0.13288 0.29753,0.1513 0.28736,0.17008 0.27617,0.18779 0.26385,0.20445 0.25043,0.2211 0.23609,0.23599 0.22082,0.25051 0.20466,0.26362 0.18766,0.27638 0.16997,0.28736 0.15162,0.29728 0.13255,0.3065 0.11311,0.31429 0.0932,0.32067 0.0728,0.32563 0.0522,0.32988 0.0315,0.33236 0.0105,0.33378 -0.0105,0.33378 -0.0315,0.33237 -0.0522,0.32988 -0.0728,0.32563 -0.0932,0.32067 -0.1131,0.31429 -0.13255,0.30649 -0.15162,0.29729 -0.16997,0.28736 -0.18766,0.27638 -0.20466,0.26362 -0.22082,0.25051 -0.23609,0.23634 -0.25043,0.22075 -0.26385,0.20445 -0.27617,0.18779 -0.28736,0.17008 -0.29753,0.15165 -0.3064,0.13252 -0.31418,0.11304 -0.32061,0.0932 -0.32586,0.0726 -0.32981,0.0524 -0.3324,0.0315 -0.3337,0.0103 -0.33364,-0.0103 -0.33241,-0.0315 -0.3298,-0.0524 -0.32586,-0.0726 -0.32062,-0.0932 -0.31418,-0.11303 -0.30639,-0.13252 -0.29753,-0.15165 -0.28737,-0.17008 -0.27617,-0.18779 -0.26384,-0.20445 -0.25042,-0.22075 -0.23613,-0.23634 -0.22082,-0.25051 -0.20462,-0.26362 -0.18766,-0.27638 -0.17001,-0.28736 -0.15158,-0.29729 -0.13259,-0.30649 -0.1131,-0.31429 -0.0932,-0.32067 -0.0728,-0.32563 -0.0522,-0.32988 -0.0315,-0.33237 -0.0104,-0.33378 0.0104,-0.33378 0.0315,-0.33236 0.0522,-0.32988 0.0728,-0.32563 0.0932,-0.32067 z"
       style="fill:none;stroke:#ff0000;stroke-opacity:1"
       id="path5337"
       sodipodi:nodetypes="ccccccccccccccccccccccccccccccccccccccccccccccccccccccccccccccccccccccccccccccccccccccccccccccccccccc" />
    <path
       inkscape:connector-curvature="0"
       d="m 404.69047,265.47579 -0.0384,0.33166 -0.0592,0.32882 -0.0796,0.32421 -0.0999,0.31854 -0.11962,0.31181 -0.139,0.30331 -0.15778,0.29445 -0.17593,0.28382 -0.19346,0.27212 -0.21009,0.25937 -0.22599,0.24591 -0.24098,0.23102 -0.25504,0.21544 -0.26806,0.19913 -0.28002,0.18177 -0.29091,0.16406 -0.30061,0.14527 -0.30916,0.12614 -0.31645,0.10666 -0.32251,0.0865 -0.32733,0.0659 -0.33077,0.0453 -0.333,0.0245 -0.33385,0.004 -0.33343,-0.0179 -0.33172,-0.0383 -0.32861,-0.0592 -0.32428,-0.0797 -0.31861,-0.0999 -0.31171,-0.11942 -0.30359,-0.1389 -0.29427,-0.15803 -0.28375,-0.17574 -0.27216,-0.19347 -0.25948,-0.21012 -0.2458,-0.22606 -0.23113,-0.24094 -0.2155,-0.25512 -0.19906,-0.26788 -0.18185,-0.28027 -0.16391,-0.29091 -0.14535,-0.30047 -0.12614,-0.30898 -0.10651,-0.31677 -0.0864,-0.32244 -0.066,-0.32705 -0.0453,-0.33094 -0.0244,-0.33307 -0.004,-0.33378 0.0177,-0.33343 0.0384,-0.33165 0.0592,-0.32882 0.0796,-0.32421 0.0998,-0.31855 0.1197,-0.31181 0.13897,-0.30366 0.15782,-0.29409 0.17592,-0.28382 0.1934,-0.27213 0.21015,-0.25937 0.22599,-0.2459 0.24098,-0.23103 0.25505,-0.21578 0.26805,-0.19878 0.28003,-0.18213 0.2909,-0.1637 0.30062,-0.14528 0.30912,-0.12614 0.31645,-0.10665 0.32255,-0.0865 0.32726,-0.0659 0.33083,-0.0454 0.333,-0.0245 0.33386,-0.004 0.33342,0.0176 0.33172,0.0386 0.32861,0.0592 0.32425,0.0797 0.31861,0.0996 0.31174,0.11975 0.30359,0.1389 0.29421,0.15803 0.28381,0.17575 0.27216,0.19346 0.25948,0.21012 0.24577,0.22607 0.23109,0.24094 0.21557,0.25512 0.19907,0.26787 0.18181,0.27992 0.16394,0.29126 0.14535,0.30048 0.12611,0.30897 0.10651,0.31677 0.0864,0.32244 0.066,0.32705 0.0453,0.33095 0.0244,0.33307 0.003,0.33378 z"
       style="fill:none;stroke:#ff0000;stroke-opacity:1"
       id="path5627"
       sodipodi:nodetypes="ccccccccccccccccccccccccccccccccccccccccccccccccccccccccccccccccccccccccccccccccccccccccccccccccccccc" />
    <path
       inkscape:connector-curvature="0"
       d="m 361.71965,265.5867 -0.0453,0.33094 -0.066,0.32705 -0.0864,0.32244 -0.1065,0.31677 -0.12614,0.30898 -0.14532,0.30047 -0.16394,0.29091 -0.18181,0.28027 -0.1991,0.26788 -0.2155,0.25512 -0.23113,0.24094 -0.2458,0.22606 -0.25945,0.21012 -0.27219,0.19347 -0.28371,0.17574 -0.29431,0.15803 -0.30359,0.1389 -0.31167,0.11941 -0.31862,0.0999 -0.32431,0.0797 -0.32861,0.0592 -0.33169,0.0383 -0.33342,0.0177 -0.33386,-0.004 -0.333,-0.0242 -0.3308,-0.0453 -0.32729,-0.0659 -0.32252,-0.0865 -0.31645,-0.10664 -0.30915,-0.12614 -0.30062,-0.14527 -0.29094,-0.16406 -0.27999,-0.18177 -0.26809,-0.19913 -0.25501,-0.21544 -0.24098,-0.23102 -0.22599,-0.24591 -0.21012,-0.25937 -0.19343,-0.27212 -0.17596,-0.28382 -0.15775,-0.29445 -0.139,-0.30331 -0.11966,-0.31181 -0.0999,-0.31854 -0.0797,-0.32421 -0.0591,-0.32882 -0.0384,-0.33166 -0.0174,-0.33342 0.004,-0.33378 0.0242,-0.33307 0.0453,-0.33095 0.066,-0.32705 0.0864,-0.32244 0.10652,-0.31677 0.12611,-0.30897 0.14535,-0.30048 0.16394,-0.29126 0.18181,-0.27992 0.19906,-0.26787 0.21558,-0.25512 0.23109,-0.24094 0.24577,-0.22607 0.25947,-0.21012 0.27217,-0.19346 0.28381,-0.17575 0.29421,-0.15803 0.30359,-0.1389 0.31174,-0.11976 0.31861,-0.0996 0.32425,-0.0797 0.3286,-0.0592 0.33173,-0.0386 0.33342,-0.0174 0.33385,0.004 0.333,0.0242 0.33084,0.0454 0.32726,0.0659 0.32255,0.0865 0.31645,0.10663 0.30912,0.12614 0.30062,0.14528 0.2909,0.1637 0.28003,0.18213 0.26805,0.19878 0.25505,0.21578 0.24098,0.23103 0.22599,0.2459 0.21015,0.25937 0.1934,0.27213 0.17592,0.28382 0.15782,0.29409 0.13897,0.30366 0.11969,0.31181 0.0998,0.31855 0.0796,0.32421 0.0592,0.32882 0.0384,0.33165 0.0175,0.33343 -0.004,0.33378 z"
       style="fill:none;stroke:#ff0000;stroke-opacity:1"
       id="path5829"
       sodipodi:nodetypes="ccccccccccccccccccccccccccccccccccccccccccccccccccccccccccccccccccccccccccccccccccccccccccccccccccccc" />
    <path
       inkscape:connector-curvature="0"
       d="m 223.15897,374.66848 -0.32917,-0.0574 -0.32174,-0.0882 -0.31251,-0.11765 -0.29977,-0.14705 -0.28453,-0.17433 -0.26681,-0.20055 -0.24697,-0.22464 -0.22464,-0.24697 -0.20055,-0.26681 -0.17433,-0.28488 -0.14705,-0.29977 -0.11799,-0.31216 -0.0879,-0.32209 -0.0574,-0.32882 -0.0262,-0.33272 -1e-5,-0.11126 -57.00118,0 0,0.11126 -0.0262,0.33272 -0.0347,0.22004 -0.078,0.32457 -0.10805,0.31571 -0.13748,0.30437 -0.16547,0.28984 -0.19169,0.27319 -0.21685,0.2537 -0.23989,0.23244 -0.26043,0.2087 -0.27921,0.18319 -0.2948,0.15626 -0.30863,0.12791 -0.3189,0.0982 -0.32704,0.0677 -0.33166,0.0365 -0.33378,0.005 -0.22216,-0.0137 -0.33059,-0.0471 -0.32457,-0.078 -0.31571,-0.10805 -0.30437,-0.13748 -0.28984,-0.16547 -0.18425,-0.12508 -0.26043,-0.2087 -0.23989,-0.23244 -0.21649,-0.2537 -0.19205,-0.27319 -0.11339,-0.19169 -0.14704,-0.29977 -0.11799,-0.31216 -0.0879,-0.32209 -0.0574,-0.32882 -0.0262,-0.33272 -0.002,-11.44984 0.0157,-0.33342 0.0471,-0.33059 0.078,-0.32457 0.10805,-0.31571 0.13748,-0.30437 0.16547,-0.28984 0.19205,-0.27319 0.21649,-0.2537 0.23989,-0.23244 0.26043,-0.2087 0.27921,-0.18319 0.2948,-0.15626 0.30863,-0.12791 0.31889,-0.0982 0.32705,-0.0677 0.33166,-0.0365 0.33377,-0.005 0.33272,0.0261 0.32917,0.0574 0.32174,0.0882 0.31252,0.11801 0.29976,0.14669 0.28453,0.17433 0.26681,0.20055 0.24697,0.22465 0.22464,0.24697 0.20055,0.26681 0.17433,0.28453 0.14705,0.30011 0.11799,0.31217 0.0879,0.32209 0.0574,0.32882 0.0262,0.33271 1e-5,0.11126 56.99941,0 0.0156,-0.33342 0.0471,-0.33059 0.0779,-0.32457 0.1081,-0.31571 0.13748,-0.30437 0.16547,-0.28984 0.1917,-0.27319 0.21685,-0.2537 0.23988,-0.23244 0.26043,-0.2087 0.27886,-0.18319 0.29516,-0.15626 0.30862,-0.12791 0.3189,-0.0982 0.32704,-0.0677 0.33166,-0.0365 0.33378,-0.005 0.33271,0.0261 0.32882,0.0574 0.32209,0.0882 0.31216,0.11801 0.29977,0.14669 0.28488,0.17433 0.26681,0.20055 0.24697,0.22465 0.22464,0.24697 0.20056,0.26681 0.17433,0.28453 0.14704,0.30011 0.11764,0.31217 0.0882,0.32209 0.0574,0.32882 0.0262,0.33271 0.002,11.44984 -0.0157,0.33343 -0.0471,0.33059 -0.078,0.32457 -0.10805,0.31571 -0.13748,0.30437 -0.16547,0.28984 -0.19205,0.27319 -0.21649,0.2537 -0.23988,0.23244 -0.26044,0.2087 -0.27921,0.18319 -0.2948,0.15626 -0.30863,0.12791 -0.31889,0.0982 -0.32705,0.0677 -0.33165,0.0365 -0.33378,0.005 z"
       style="fill:none;stroke:#ff0000;stroke-opacity:1"
       id="path6157"
       sodipodi:nodetypes="ccccccccccccccccccccccccccccccccccccccccccccccccccccccccccccccccccccccccccccccccccccccccccccccccccccccccccccccccccccccccccccccccccccccccccccc" />
    <path
       inkscape:connector-curvature="0"
       d="m 595.86527,374.66848 -0.32917,-0.0574 -0.32174,-0.0882 -0.31252,-0.11765 -0.29976,-0.14705 -0.28453,-0.17433 -0.26681,-0.20055 -0.24697,-0.22464 -0.22464,-0.24697 -0.20055,-0.26681 -0.17433,-0.28488 -0.14705,-0.29977 -0.11799,-0.31216 -0.0879,-0.32209 -0.0574,-0.32882 -0.0262,-0.33272 -1e-5,-0.11126 -57.00118,0 0,0.11126 -0.0262,0.33272 -0.0347,0.22004 -0.0779,0.32457 -0.10809,0.31571 -0.13748,0.30437 -0.16547,0.28984 -0.19205,0.27319 -0.2165,0.2537 -0.23988,0.23244 -0.26043,0.2087 -0.27921,0.18319 -0.29481,0.15626 -0.30862,0.12791 -0.3189,0.0982 -0.32704,0.0677 -0.33166,0.0365 -0.33378,0.005 -0.22216,-0.0137 -0.33059,-0.0471 -0.32457,-0.078 -0.31571,-0.10805 -0.30437,-0.13748 -0.28984,-0.16547 -0.18425,-0.12508 -0.26044,-0.2087 -0.23988,-0.23244 -0.21685,-0.2537 -0.19169,-0.27319 -0.11339,-0.19169 -0.14704,-0.29977 -0.118,-0.31216 -0.0879,-0.32209 -0.0574,-0.32882 -0.0262,-0.33272 -0.002,-11.44984 0.0157,-0.33342 0.0471,-0.33059 0.078,-0.32457 0.10805,-0.31571 0.13748,-0.30437 0.16547,-0.28984 0.19169,-0.27319 0.21685,-0.2537 0.23988,-0.23244 0.26044,-0.2087 0.27921,-0.18319 0.2948,-0.15626 0.30863,-0.12791 0.31889,-0.0982 0.32705,-0.0677 0.33165,-0.0365 0.33378,-0.005 0.33272,0.0261 0.32882,0.0574 0.32209,0.0882 0.31216,0.11801 0.30012,0.14669 0.28453,0.17433 0.26681,0.20055 0.24697,0.22465 0.22464,0.24697 0.20055,0.26681 0.17433,0.28453 0.1467,0.30011 0.11834,0.31217 0.0879,0.32209 0.0574,0.32882 0.0262,0.33271 10e-6,0.11126 56.99941,0 0.0156,-0.33342 0.0471,-0.33059 0.078,-0.32457 0.10805,-0.31571 0.13748,-0.30437 0.16547,-0.28984 0.19169,-0.27319 0.21685,-0.2537 0.23989,-0.23244 0.26043,-0.2087 0.27886,-0.18319 0.29515,-0.15626 0.30827,-0.12791 0.31926,-0.0982 0.32704,-0.0677 0.33166,-0.0365 0.33378,-0.005 0.33271,0.0261 0.32882,0.0574 0.32209,0.0882 0.31216,0.11801 0.29977,0.14669 0.28488,0.17433 0.26681,0.20055 0.24697,0.22465 0.22464,0.24697 0.20055,0.26681 0.17434,0.28453 0.14669,0.30011 0.11799,0.31217 0.0882,0.32209 0.0574,0.32882 0.0262,0.33271 0.002,11.44984 -0.016,0.33343 -0.0468,0.33059 -0.078,0.32457 -0.10805,0.31571 -0.13748,0.30437 -0.16547,0.28984 -0.19205,0.27319 -0.21685,0.2537 -0.23953,0.23244 -0.26043,0.2087 -0.27921,0.18319 -0.2948,0.15626 -0.30863,0.12791 -0.31889,0.0982 -0.32705,0.0677 -0.33166,0.0365 -0.33377,0.005 z"
       style="fill:none;stroke:#ff0000;stroke-opacity:1"
       id="path6437"
       sodipodi:nodetypes="ccccccccccccccccccccccccccccccccccccccccccccccccccccccccccccccccccccccccccccccccccccccccccccccccccccccccccccccccccccccccccccccccccccccccccccc" />
    <path
       inkscape:connector-curvature="0"
       d="m 184.53444,420.34666 -3.5e-4,-31.2998 13.37386,-3.6e-4 0,31.30016 z"
       style="fill:none;stroke:#ff0000;stroke-opacity:1"
       id="path6445"
       sodipodi:nodetypes="ccccc" />
    <path
       inkscape:connector-curvature="0"
       d="m 557.91964,389.04686 13.37386,-3.6e-4 0,31.30016 -13.37351,0 z"
       style="fill:none;stroke:#ff0000;stroke-opacity:1"
       id="path6447"
       sodipodi:nodetypes="ccccc" />
    <path
       inkscape:connector-curvature="0"
       d="m 607.11633,410.3067 0,-14.17323 7.08662,0 0,14.17323 z"
       style="fill:none;stroke:#ff0000;stroke-opacity:1"
       id="path6461"
       sodipodi:nodetypes="ccccc" />
    <path
       inkscape:connector-curvature="0"
       d="m 148.71161,410.3067 -7.08662,0 0,-14.17323 7.08662,0 z"
       style="fill:none;stroke:#ff0000;stroke-opacity:1"
       id="path6467"
       sodipodi:nodetypes="ccccc" />
    <path
       inkscape:connector-curvature="0"
       d="m 480.3361,482.22501 -0.33237,-0.0309 -0.32988,-0.0528 -0.32563,-0.0725 -0.32067,-0.0929 -0.31429,-0.1131 -0.30649,-0.1329 -0.29729,-0.1513 -0.28736,-0.1701 -0.27638,-0.1878 -0.26362,-0.2044 -0.25051,-0.2208 -0.23634,-0.2363 -0.22075,-0.2505 -0.20445,-0.2637 -0.18779,-0.2763 -0.17008,-0.2874 -0.15166,-0.2973 -0.13252,-0.3065 -0.11303,-0.3143 -0.0932,-0.3206 -0.0726,-0.3257 -0.0524,-0.3298 -0.0315,-0.3324 -0.0103,-0.3338 0.002,-63.94641 0.0215,-0.33342 0.0418,-0.33095 0.0624,-0.32811 0.0833,-0.3235 0.1031,-0.31748 0.12295,-0.31039 0.14209,-0.30225 0.16086,-0.29268 0.17894,-0.28169 0.1963,-0.27035 0.2126,-0.25725 0.22854,-0.24342 0.24343,-0.22855 0.25724,-0.21259 0.27035,-0.1963 0.2817,-0.17894 0.29267,-0.16087 0.30225,-0.14208 0.31039,-0.12296 0.31748,-0.10311 0.32351,-0.0833 0.32775,-0.0624 0.3313,-0.0418 0.33343,-0.0209 0.33377,0 0.33343,0.0209 0.33095,0.0418 0.32811,0.0624 0.3235,0.0833 0.31748,0.10309 0.31039,0.12296 0.30225,0.14208 0.29232,0.16087 0.28205,0.17894 0.27035,0.1963 0.25725,0.21259 0.24342,0.22855 0.22855,0.24342 0.21259,0.25725 0.1963,0.27035 0.17894,0.28169 0.16087,0.29268 0.14208,0.30225 0.12295,0.31039 0.10312,0.31748 0.0833,0.3235 0.0624,0.32811 0.0418,0.33095 0.0213,0.33342 -2e-5,64.11331 -0.0213,0.3334 -0.0418,0.3313 -0.0624,0.3278 -0.0833,0.3235 -0.1031,0.3175 -0.12295,0.3104 -0.14208,0.3022 -0.16087,0.2927 -0.17894,0.2817 -0.1963,0.2703 -0.21259,0.2573 -0.22855,0.2434 -0.24342,0.2285 -0.25725,0.2126 -0.27035,0.1963 -0.28205,0.179 -0.29232,0.1608 -0.30225,0.1421 -0.31039,0.123 -0.31748,0.1031 -0.3235,0.0831 -0.32811,0.0623 -0.33095,0.0422 -0.33343,0.0211 -0.16688,0.001 z"
       style="fill:none;stroke:#ff0000;stroke-opacity:1"
       id="path6671"
       sodipodi:nodetypes="cccccccccccccccccccccccccccccccccccccccccccccccccccccccccccccccccccccccccccccccccccccccccccccccccccccc" />
    <path
       inkscape:connector-curvature="0"
       d="m 274.82428,482.22501 -0.33236,-0.0309 -0.32988,-0.0528 -0.32563,-0.0725 -0.32067,-0.0929 -0.31429,-0.1131 -0.3065,-0.1329 -0.29728,-0.1513 -0.28736,-0.1701 -0.27638,-0.1878 -0.26362,-0.2044 -0.25051,-0.2208 -0.23599,-0.2363 -0.2211,-0.2505 -0.20445,-0.2637 -0.18779,-0.2763 -0.17008,-0.2874 -0.1513,-0.2973 -0.13288,-0.3065 -0.11303,-0.3143 -0.0932,-0.3206 -0.0726,-0.3257 -0.0525,-0.3298 -0.0312,-0.3324 -0.0106,-0.3338 0.002,-63.94641 0.0215,-0.33342 0.0418,-0.33095 0.0624,-0.32811 0.0833,-0.3235 0.1031,-0.31748 0.12295,-0.31039 0.14208,-0.30225 0.16087,-0.29268 0.17894,-0.28169 0.1963,-0.27035 0.21259,-0.25725 0.22855,-0.24342 0.24342,-0.22855 0.25725,-0.21259 0.27035,-0.1963 0.28205,-0.17894 0.29232,-0.16087 0.30225,-0.14208 0.31039,-0.12296 0.31748,-0.10311 0.3235,-0.0833 0.32811,-0.0624 0.33095,-0.0418 0.33343,-0.0209 0.33377,0 0.33343,0.0209 0.3313,0.0418 0.32775,0.0624 0.32351,0.0833 0.31748,0.10309 0.31039,0.12296 0.30225,0.14208 0.29267,0.16087 0.2817,0.17894 0.27035,0.1963 0.25724,0.21259 0.24343,0.22855 0.22854,0.24342 0.2126,0.25725 0.1963,0.27035 0.17894,0.28169 0.16086,0.29268 0.14209,0.30225 0.12295,0.31039 0.10311,0.31748 0.0833,0.3235 0.0624,0.32811 0.0418,0.33095 0.0213,0.33342 -2e-5,64.11331 -0.0213,0.3334 -0.0418,0.3313 -0.0624,0.3278 -0.0833,0.3235 -0.10309,0.3175 -0.12295,0.3104 -0.14209,0.3022 -0.16086,0.2927 -0.17894,0.2817 -0.1963,0.2703 -0.2126,0.2573 -0.22854,0.2434 -0.24343,0.2285 -0.25724,0.2126 -0.27035,0.1963 -0.2817,0.179 -0.29267,0.1608 -0.30225,0.1421 -0.31039,0.123 -0.31748,0.1031 -0.32351,0.0831 -0.32775,0.0623 -0.3313,0.0422 -0.33343,0.0211 -0.16689,0.001 z"
       style="fill:none;stroke:#ff0000;stroke-opacity:1"
       id="path6873"
       sodipodi:nodetypes="cccccccccccccccccccccccccccccccccccccccccccccccccccccccccccccccccccccccccccccccccccccccccccccccccccccc" />
    <path
       inkscape:connector-curvature="0"
       d="m 546.88011,452.23571 0,-14.17322 7.08662,0 0,14.17322 z"
       style="fill:none;stroke:#ff0000;stroke-opacity:1"
       id="path6881"
       sodipodi:nodetypes="ccccc" />
    <path
       inkscape:connector-curvature="0"
       d="m 201.86121,452.23571 0,-14.17322 7.08662,0 0,14.17322 z"
       style="fill:none;stroke:#ff0000;stroke-opacity:1"
       id="path6889"
       sodipodi:nodetypes="ccccc" />
    <path
       inkscape:connector-curvature="0"
       d="m 578.76988,438.06249 7.08661,0 0,14.17322 -7.08661,0 z"
       style="fill:none;stroke:#ff0000;stroke-opacity:1"
       id="path6891"
       sodipodi:nodetypes="ccccc" />
    <path
       inkscape:connector-curvature="0"
       d="m 169.97145,452.23571 0,-14.17322 7.08661,0 0,14.17322 z"
       style="fill:none;stroke:#ff0000;stroke-opacity:1"
       id="path6905"
       sodipodi:nodetypes="ccccc" />
    <path
       inkscape:connector-curvature="0"
       d="m 557.91964,469.36196 13.37386,-4e-4 0,59.1732 -13.37351,0 z"
       style="fill:none;stroke:#ff0000;stroke-opacity:1"
       id="path6907"
       sodipodi:nodetypes="ccccc" />
    <path
       inkscape:connector-curvature="0"
       d="m 184.53444,528.53476 -3.5e-4,-59.1728 13.37386,-4e-4 0,59.1732 z"
       style="fill:none;stroke:#ff0000;stroke-opacity:1"
       id="path6921"
       sodipodi:nodetypes="ccccc" />
    <path
       inkscape:connector-curvature="0"
       d="m 148.71161,501.21506 0,14.1733 -7.08662,0 0,-14.1733 z"
       style="fill:none;stroke:#ff0000;stroke-opacity:1"
       id="path6925"
       sodipodi:nodetypes="ccccc" />
    <path
       inkscape:connector-curvature="0"
       d="m 614.20295,515.38836 -7.08662,0 0,-14.1733 7.08662,0 z"
       style="fill:none;stroke:#ff0000;stroke-opacity:1"
       id="path6935"
       sodipodi:nodetypes="ccccc" />
    <path
       inkscape:connector-curvature="0"
       d="m 274.82428,595.61086 -0.33236,-0.0309 -0.32988,-0.0529 -0.32563,-0.0725 -0.32067,-0.0929 -0.31429,-0.1131 -0.3065,-0.1329 -0.29728,-0.1513 -0.28736,-0.1701 -0.27638,-0.1878 -0.26362,-0.2044 -0.25051,-0.2211 -0.23599,-0.236 -0.2211,-0.2505 -0.20445,-0.2636 -0.18779,-0.2764 -0.17008,-0.2874 -0.1513,-0.2973 -0.13288,-0.3064 -0.11303,-0.3143 -0.0932,-0.3207 -0.0726,-0.3256 -0.0525,-0.3299 -0.0312,-0.3324 -0.0106,-0.3338 0.002,-63.9465 0.0215,-0.3332 0.0418,-0.3313 0.0624,-0.3279 0.0833,-0.3235 0.1031,-0.3175 0.12295,-0.3104 0.14208,-0.3022 0.16087,-0.2926 0.17894,-0.2819 0.1963,-0.2701 0.21259,-0.2572 0.22855,-0.2435 0.24342,-0.2285 0.25725,-0.2129 0.27035,-0.1962 0.28205,-0.1789 0.29232,-0.1609 0.30225,-0.1422 0.31039,-0.1229 0.31748,-0.1031 0.3235,-0.0831 0.32811,-0.0623 0.33095,-0.0422 0.33343,-0.0209 0.33377,5e-5 0.33343,0.0209 0.3313,0.0419 0.32775,0.0622 0.32351,0.0833 0.31748,0.10315 0.31039,0.1229 0.30225,0.1422 0.29267,0.1609 0.2817,0.1789 0.27035,0.1962 0.25724,0.2129 0.24343,0.2285 0.22854,0.2435 0.2126,0.2572 0.1963,0.2701 0.17894,0.2819 0.16086,0.2926 0.14209,0.3022 0.12295,0.3104 0.10311,0.3175 0.0833,0.3235 0.0624,0.3279 0.0418,0.3313 0.0213,0.3332 -2e-5,64.1134 -0.0213,0.3335 -0.0418,0.3309 -0.0624,0.3281 -0.0833,0.3235 -0.10309,0.3175 -0.12295,0.3104 -0.14209,0.3022 -0.16086,0.2927 -0.17894,0.2817 -0.1963,0.2704 -0.2126,0.2572 -0.22854,0.2434 -0.24343,0.2286 -0.25724,0.2126 -0.27035,0.1963 -0.2817,0.1789 -0.29267,0.1609 -0.30225,0.1421 -0.31039,0.1229 -0.31748,0.1031 -0.32351,0.0832 -0.32775,0.0623 -0.3313,0.0421 -0.33343,0.021 -0.16689,0.001 z"
       style="fill:none;stroke:#ff0000;stroke-opacity:1"
       id="path7139"
       sodipodi:nodetypes="cccccccccccccccccccccccccccccccccccccccccccccccccccccccccccccccccccccccccccccccccccccccccccccccccccccc" />
    <path
       inkscape:connector-curvature="0"
       d="m 480.3361,595.61086 -0.33237,-0.0309 -0.32988,-0.0529 -0.32563,-0.0725 -0.32067,-0.0929 -0.31429,-0.1131 -0.30649,-0.1329 -0.29729,-0.1513 -0.28736,-0.1701 -0.27638,-0.1878 -0.26362,-0.2044 -0.25051,-0.2211 -0.23634,-0.236 -0.22075,-0.2505 -0.20445,-0.2636 -0.18779,-0.2764 -0.17008,-0.2874 -0.15166,-0.2973 -0.13252,-0.3064 -0.11303,-0.3143 -0.0932,-0.3207 -0.0726,-0.3256 -0.0524,-0.3299 -0.0315,-0.3324 -0.0103,-0.3338 0.002,-63.9465 0.0215,-0.3332 0.0418,-0.3313 0.0624,-0.3279 0.0833,-0.3235 0.1031,-0.3175 0.12295,-0.3104 0.14209,-0.3022 0.16086,-0.2926 0.17894,-0.2819 0.1963,-0.2701 0.2126,-0.2572 0.22854,-0.2435 0.24343,-0.2285 0.25724,-0.2129 0.27035,-0.1962 0.2817,-0.1789 0.29267,-0.1609 0.30225,-0.1422 0.31039,-0.1229 0.31748,-0.1031 0.32351,-0.0831 0.32775,-0.0623 0.3313,-0.0422 0.33343,-0.0209 0.33377,5e-5 0.33343,0.0209 0.33095,0.0419 0.32811,0.0622 0.3235,0.0833 0.31748,0.10315 0.31039,0.1229 0.30225,0.1422 0.29232,0.1609 0.28205,0.1789 0.27035,0.1962 0.25725,0.2129 0.24342,0.2285 0.22855,0.2435 0.21259,0.2572 0.1963,0.2701 0.17894,0.2819 0.16087,0.2926 0.14208,0.3022 0.12295,0.3104 0.10312,0.3175 0.0833,0.3235 0.0624,0.3279 0.0418,0.3313 0.0213,0.3332 -2e-5,64.1134 -0.0213,0.3335 -0.0418,0.3309 -0.0624,0.3281 -0.0833,0.3235 -0.1031,0.3175 -0.12295,0.3104 -0.14208,0.3022 -0.16087,0.2927 -0.17894,0.2817 -0.1963,0.2704 -0.21259,0.2572 -0.22855,0.2434 -0.24342,0.2286 -0.25725,0.2126 -0.27035,0.1963 -0.28205,0.1789 -0.29232,0.1609 -0.30225,0.1421 -0.31039,0.1229 -0.31748,0.1031 -0.3235,0.0832 -0.32811,0.0623 -0.33095,0.0421 -0.33343,0.021 -0.16688,0.001 z"
       style="fill:none;stroke:#ff0000;stroke-opacity:1"
       id="path7341"
       sodipodi:nodetypes="cccccccccccccccccccccccccccccccccccccccccccccccccccccccccccccccccccccccccccccccccccccccccccccccccccccc" />
    <path
       inkscape:connector-curvature="0"
       d="m 207.71724,694.91551 0.33094,0.0454 0.3274,0.0661 0.32245,0.0862 0.31641,0.1065 0.30898,0.1262 0.30083,0.1452 0.2909,0.1641 0.27992,0.1818 0.26823,0.1991 0.25476,0.2154 0.24095,0.2314 0.22606,0.2456 0.21012,0.2597 0.19347,0.2721 0.1761,0.2835 0.15768,0.2944 0.13889,0.3037 0.11977,0.3118 0.0999,0.3185 0.0794,0.3242 0.0592,0.3285 0.0386,0.3317 0.0174,0.3334 -0.004,0.3341 -0.0242,0.3327 -0.0454,0.331 -0.0659,0.3274 -0.0865,0.3224 -0.10627,0.3164 -0.12615,0.3094 -0.14562,0.3004 -0.16371,0.2909 -0.18177,0.28 -0.19913,0.2682 -0.21579,0.2551 -0.23102,0.241 -0.24555,0.2257 -0.25973,0.2104 -0.27212,0.1932 -0.28382,0.1761 -0.2941,0.1576 -0.30366,0.1389 -0.31181,0.1198 -0.31854,0.0999 -0.32421,0.0798 -0.32847,0.0589 -0.33201,0.0382 -0.33342,0.0173 -0.33378,-0.002 -0.33307,-0.0259 -0.33059,-0.0454 -0.32741,-0.0661 -0.32244,-0.0862 -0.31641,-0.10655 -0.30933,-0.1261 -0.30048,-0.1453 -0.2909,-0.164 -0.27992,-0.1818 -0.26823,-0.1991 -0.25512,-0.2155 -0.24094,-0.2314 -0.22607,-0.2455 -0.21012,-0.2597 -0.19346,-0.2722 -0.17575,-0.2838 -0.15768,-0.2941 -0.13925,-0.3036 -0.11941,-0.3118 -0.0999,-0.3186 -0.0797,-0.3242 -0.0592,-0.3285 -0.0383,-0.3316 -0.0174,-0.3334 0.003,-0.3342 0.0246,-0.3327 0.0454,-0.3309 0.0663,-0.3274 0.0861,-0.3225 0.10665,-0.3164 0.12614,-0.309 0.14528,-0.3008 0.16405,-0.2909 0.18178,-0.2799 0.19913,-0.2683 0.21543,-0.2547 0.23103,-0.2413 0.2459,-0.2257 0.25937,-0.2105 0.27213,-0.1931 0.28382,-0.1761 0.29445,-0.1577 0.30366,-0.1389 0.31145,-0.1197 0.31855,-0.1 0.32456,-0.0798 0.32847,-0.059 0.33165,-0.0382 0.33343,-0.0173 0.33378,0.002 z"
       style="fill:none;stroke:#ff0000;stroke-opacity:1"
       id="path7443"
       sodipodi:nodetypes="ccccccccccccccccccccccccccccccccccccccccccccccccccccccccccccccccccccccccccccccccccccccccccccccccccccc" />
    <path
       inkscape:connector-curvature="0"
       d="m 164.64621,694.90496 0.33166,0.0383 0.32882,0.0592 0.32421,0.0799 0.31854,0.0999 0.31181,0.1197 0.30331,0.1389 0.29445,0.1577 0.28382,0.1761 0.27212,0.1931 0.25937,0.2105 0.24591,0.2257 0.23102,0.2413 0.21544,0.2547 0.19913,0.2683 0.18177,0.2799 0.16406,0.2909 0.14527,0.3008 0.12614,0.309 0.10666,0.3164 0.0865,0.3225 0.0659,0.3274 0.0454,0.3309 0.0244,0.3327 0.004,0.3342 -0.0179,0.3334 -0.0383,0.3316 -0.0592,0.3285 -0.0797,0.3242 -0.0996,0.3186 -0.11975,0.3118 -0.13889,0.3036 -0.15804,0.2941 -0.17574,0.2838 -0.19347,0.2722 -0.21012,0.2597 -0.22606,0.2455 -0.24094,0.2314 -0.25512,0.2155 -0.26788,0.1991 -0.28027,0.1818 -0.29091,0.164 -0.30047,0.1453 -0.30898,0.1261 -0.31677,0.1063 -0.32244,0.0863 -0.3274,0.0662 -0.33059,0.0452 -0.33307,0.0244 -0.33378,0.002 -0.33343,-0.0154 -0.33165,-0.0383 -0.32882,-0.0593 -0.32421,-0.0799 -0.31854,-0.0998 -0.31181,-0.11975 -0.30367,-0.1389 -0.29409,-0.1576 -0.28382,-0.1761 -0.27213,-0.1932 -0.25937,-0.2104 -0.2459,-0.2257 -0.23102,-0.241 -0.21579,-0.2551 -0.19878,-0.2682 -0.18213,-0.28 -0.1637,-0.2909 -0.14527,-0.3004 -0.12615,-0.3094 -0.10665,-0.3164 -0.0865,-0.3224 -0.0659,-0.3274 -0.0454,-0.331 -0.0244,-0.3327 -0.004,-0.3341 0.0176,-0.3334 0.0386,-0.3317 0.0592,-0.3285 0.0794,-0.3242 0.0999,-0.3185 0.11977,-0.3118 0.1389,-0.3037 0.15803,-0.2944 0.17575,-0.2835 0.19347,-0.2721 0.21011,-0.2597 0.22607,-0.2456 0.24094,-0.2314 0.25512,-0.2154 0.26787,-0.1991 0.27993,-0.1818 0.2909,-0.1641 0.30083,-0.1452 0.30897,-0.1262 0.31642,-0.1063 0.3228,-0.0862 0.32704,-0.0662 0.33095,-0.0451 0.33307,-0.0244 0.33378,-0.002 z"
       style="fill:none;stroke:#ff0000;stroke-opacity:1"
       id="path7641"
       sodipodi:nodetypes="ccccccccccccccccccccccccccccccccccccccccccccccccccccccccccccccccccccccccccccccccccccccccccccccccccccc" />
    <path
       inkscape:connector-curvature="0"
       d="m 592.182,694.91551 0.33095,0.0454 0.32704,0.0661 0.3228,0.0862 0.31642,0.1065 0.30897,0.1262 0.30083,0.1452 0.2909,0.1641 0.27993,0.1818 0.26787,0.1991 0.25512,0.2154 0.24094,0.2314 0.22607,0.2456 0.21011,0.2597 0.19347,0.2721 0.17575,0.2835 0.15803,0.2944 0.1389,0.3037 0.11976,0.3118 0.0999,0.3185 0.0794,0.3242 0.0592,0.3285 0.0386,0.3317 0.0174,0.3334 -0.004,0.3341 -0.0242,0.3327 -0.0454,0.331 -0.0659,0.3274 -0.0865,0.3224 -0.10663,0.3164 -0.12615,0.3094 -0.14527,0.3004 -0.1637,0.2909 -0.18213,0.28 -0.19878,0.2682 -0.21579,0.2551 -0.23102,0.241 -0.2459,0.2257 -0.25937,0.2104 -0.27213,0.1932 -0.28382,0.1761 -0.29409,0.1576 -0.30367,0.1389 -0.31181,0.1198 -0.31854,0.0999 -0.32421,0.0798 -0.32882,0.0589 -0.33165,0.0382 -0.33343,0.0173 -0.33378,-0.002 -0.33307,-0.0259 -0.33059,-0.0454 -0.3274,-0.0661 -0.32244,-0.0862 -0.31677,-0.10655 -0.30898,-0.1261 -0.30047,-0.1453 -0.29091,-0.164 -0.28027,-0.1818 -0.26788,-0.1991 -0.25512,-0.2155 -0.24094,-0.2314 -0.22606,-0.2455 -0.21012,-0.2597 -0.19347,-0.2722 -0.17574,-0.2838 -0.15804,-0.2941 -0.13889,-0.3036 -0.11977,-0.3118 -0.0996,-0.3186 -0.0797,-0.3242 -0.0592,-0.3285 -0.0383,-0.3316 -0.0177,-0.3334 0.004,-0.3342 0.0242,-0.3327 0.0454,-0.3309 0.0659,-0.3274 0.0865,-0.3225 0.10664,-0.3164 0.12614,-0.309 0.14527,-0.3008 0.16406,-0.2909 0.18177,-0.2799 0.19913,-0.2683 0.21544,-0.2547 0.23102,-0.2413 0.24591,-0.2257 0.25937,-0.2105 0.27212,-0.1931 0.28382,-0.1761 0.29445,-0.1577 0.30331,-0.1389 0.31181,-0.1197 0.31854,-0.1 0.32421,-0.0798 0.32882,-0.059 0.33166,-0.0382 0.33342,-0.0173 0.33378,0.002 z"
       style="fill:none;stroke:#ff0000;stroke-opacity:1"
       id="path7843"
       sodipodi:nodetypes="ccccccccccccccccccccccccccccccccccccccccccccccccccccccccccccccccccccccccccccccccccccccccccccccccccccc" />
    <path
       inkscape:connector-curvature="0"
       d="m 549.11098,694.90496 0.33165,0.0383 0.32847,0.0592 0.32456,0.0799 0.31855,0.0999 0.31145,0.1197 0.30366,0.1389 0.29445,0.1577 0.28382,0.1761 0.27213,0.1931 0.25937,0.2105 0.2459,0.2257 0.23103,0.2413 0.21543,0.2547 0.19913,0.2683 0.18178,0.2799 0.16405,0.2909 0.14528,0.3008 0.12614,0.309 0.10665,0.3164 0.0861,0.3225 0.0663,0.3274 0.0454,0.3309 0.0245,0.3327 0.003,0.3342 -0.0173,0.3334 -0.0383,0.3316 -0.0592,0.3285 -0.0797,0.3242 -0.0999,0.3186 -0.11942,0.3118 -0.13925,0.3036 -0.15768,0.2941 -0.17575,0.2838 -0.19346,0.2722 -0.21012,0.2597 -0.22607,0.2455 -0.24094,0.2314 -0.25512,0.2155 -0.26823,0.1991 -0.27992,0.1818 -0.2909,0.164 -0.30048,0.1453 -0.30933,0.1261 -0.31641,0.1063 -0.32244,0.0863 -0.32741,0.0662 -0.33059,0.0452 -0.33307,0.0244 -0.33378,0.002 -0.33342,-0.0154 -0.33201,-0.0383 -0.32847,-0.0593 -0.32421,-0.0799 -0.31854,-0.0998 -0.31181,-0.11975 -0.30366,-0.1389 -0.2941,-0.1576 -0.28382,-0.1761 -0.27212,-0.1932 -0.25973,-0.2104 -0.24555,-0.2257 -0.23102,-0.241 -0.21579,-0.2551 -0.19913,-0.2682 -0.18177,-0.28 -0.16371,-0.2909 -0.14562,-0.3004 -0.12615,-0.3094 -0.1063,-0.3164 -0.0865,-0.3224 -0.0659,-0.3274 -0.0454,-0.331 -0.0244,-0.3327 -0.004,-0.3341 0.0176,-0.3334 0.0386,-0.3317 0.0592,-0.3285 0.0794,-0.3242 0.0999,-0.3185 0.11978,-0.3118 0.13889,-0.3037 0.15768,-0.2944 0.1761,-0.2835 0.19347,-0.2721 0.21012,-0.2597 0.22606,-0.2456 0.24095,-0.2314 0.25476,-0.2154 0.26823,-0.1991 0.27992,-0.1818 0.2909,-0.1641 0.30083,-0.1452 0.30898,-0.1262 0.31641,-0.1063 0.32245,-0.0862 0.3274,-0.0662 0.33094,-0.0451 0.33307,-0.0244 0.33378,-0.002 z"
       style="fill:none;stroke:#ff0000;stroke-opacity:1"
       id="path8041"
       sodipodi:nodetypes="ccccccccccccccccccccccccccccccccccccccccccccccccccccccccccccccccccccccccccccccccccccccccccccccccccccc" />
    <path
       inkscape:connector-curvature="0"
       d="m 571.1422,732.18531 0.32598,0.0731 0.32067,0.093 0.31394,0.11315 0.30649,0.1325 0.29764,0.1516 0.28737,0.1698 0.27602,0.1878 0.26397,0.2048 0.25052,0.2207 0.23598,0.236 0.22075,0.2505 0.2048,0.264 0.18744,0.276 0.17008,0.2874 0.15165,0.2976 0.13252,0.3062 0.11304,0.3142 0.0932,0.3207 0.073,0.326 0.0521,0.3295 0.0315,0.3327 0.0103,0.3335 -0.0103,0.3337 -0.0315,0.3324 -0.0521,0.3299 -0.073,0.326 -0.0932,0.3206 -0.11303,0.314 -0.13252,0.3065 -0.15165,0.2976 -0.17008,0.2874 -0.18744,0.276 -0.2048,0.264 -0.22075,0.2505 -0.23598,0.236 -0.25052,0.2207 -0.26397,0.2048 -0.27602,0.1875 -0.28737,0.17 -0.29764,0.1517 -0.30649,0.1325 -0.31394,0.1131 -0.32067,0.093 -0.32598,0.0731 -0.32988,0.0521 -0.33237,0.0318 -0.33378,0.01 -0.33342,-0.01 -0.33236,-0.0319 -0.32989,-0.0518 -0.32598,-0.073 -0.32067,-0.0931 -0.31394,-0.11315 -0.30649,-0.1325 -0.29764,-0.1517 -0.28736,-0.17 -0.27603,-0.1875 -0.26397,-0.2048 -0.25051,-0.2207 -0.23599,-0.236 -0.22075,-0.2505 -0.2048,-0.264 -0.18744,-0.276 -0.17008,-0.2874 -0.15165,-0.2976 -0.13252,-0.3065 -0.11303,-0.314 -0.0932,-0.3206 -0.073,-0.326 -0.0521,-0.3299 -0.0315,-0.3324 -0.0106,-0.3337 0.0106,-0.3335 0.0315,-0.3327 0.0521,-0.3295 0.073,-0.326 0.0932,-0.3207 0.11303,-0.3142 0.13252,-0.3062 0.15165,-0.2976 0.17008,-0.2874 0.18744,-0.276 0.2048,-0.264 0.22075,-0.2505 0.23599,-0.236 0.25051,-0.2207 0.26397,-0.2048 0.27603,-0.1878 0.28736,-0.1698 0.29764,-0.1516 0.30649,-0.1325 0.31394,-0.1131 0.32067,-0.093 0.32598,-0.0731 0.32989,-0.052 0.33236,-0.0319 0.33342,-0.0106 0.33378,0.011 0.33237,0.0316 z"
       style="fill:none;stroke:#ff0000;stroke-opacity:1"
       id="path8245"
       sodipodi:nodetypes="ccccccccccccccccccccccccccccccccccccccccccccccccccccccccccccccccccccccccccccccccccccccccccccccccccccc" />
    <path
       inkscape:connector-curvature="0"
       d="m 185.68177,732.09086 0.33342,0.011 0.33236,0.0316 0.32989,0.0518 0.32598,0.0731 0.32067,0.093 0.31394,0.11315 0.30649,0.1325 0.29764,0.1516 0.28736,0.1698 0.27603,0.1878 0.26397,0.2048 0.25051,0.2207 0.23599,0.236 0.22075,0.2505 0.2048,0.264 0.18744,0.276 0.17008,0.2874 0.15165,0.2976 0.13252,0.3062 0.11303,0.3142 0.0932,0.3207 0.073,0.326 0.0521,0.3295 0.0315,0.3327 0.0103,0.3335 -0.0103,0.3337 -0.0315,0.3324 -0.0521,0.3299 -0.073,0.326 -0.0932,0.3206 -0.11302,0.314 -0.13252,0.3065 -0.15165,0.2976 -0.17008,0.2874 -0.18744,0.276 -0.2048,0.264 -0.22075,0.2505 -0.23599,0.236 -0.25051,0.2207 -0.26397,0.2048 -0.27603,0.1875 -0.28736,0.17 -0.29764,0.1517 -0.30649,0.1325 -0.31394,0.1131 -0.32067,0.093 -0.32598,0.0731 -0.32989,0.0521 -0.33236,0.0318 -0.33342,0.01 -0.33378,-0.01 -0.33237,-0.0319 -0.32988,-0.0518 -0.32598,-0.073 -0.32067,-0.0931 -0.31394,-0.11315 -0.30649,-0.1325 -0.29764,-0.1517 -0.28737,-0.17 -0.27602,-0.1875 -0.26397,-0.2048 -0.25052,-0.2207 -0.23598,-0.236 -0.22075,-0.2505 -0.2048,-0.264 -0.18744,-0.276 -0.17008,-0.2874 -0.15165,-0.2976 -0.13252,-0.3065 -0.11304,-0.314 -0.0932,-0.3206 -0.073,-0.326 -0.0521,-0.3299 -0.0315,-0.3324 -0.0103,-0.3337 0.0103,-0.3335 0.0315,-0.3327 0.0521,-0.3295 0.073,-0.326 0.0932,-0.3207 0.11303,-0.3142 0.13252,-0.3062 0.15165,-0.2976 0.17008,-0.2874 0.18744,-0.276 0.2048,-0.264 0.22075,-0.2505 0.23598,-0.236 0.25052,-0.2207 0.26397,-0.2048 0.27602,-0.1878 0.28737,-0.1698 0.29764,-0.1516 0.30649,-0.1325 0.31394,-0.1131 0.32067,-0.093 0.32598,-0.0731 0.32988,-0.052 0.33237,-0.0319 z"
       style="fill:none;stroke:#ff0000;stroke-opacity:1"
       id="path8439"
       sodipodi:nodetypes="ccccccccccccccccccccccccccccccccccccccccccccccccccccccccccccccccccccccccccccccccccccccccccccccccccccc" />
    <path
       inkscape:connector-curvature="0"
       d="m 237.95334,808.27201 -0.33378,-0.01 -0.33236,-0.0319 -0.32988,-0.0518 -0.32563,-0.073 -0.32067,-0.0931 -0.31429,-0.1131 -0.3065,-0.1325 -0.29728,-0.1517 -0.28737,-0.1701 -0.27637,-0.1874 -0.26363,-0.2048 -0.25051,-0.2207 -0.23598,-0.236 -0.2211,-0.2505 -0.20445,-0.264 -0.1878,-0.276 -0.17008,-0.2874 -0.1513,-0.2976 -0.13287,-0.3065 -0.11303,-0.314 -0.0932,-0.3206 -0.0726,-0.326 -0.0524,-0.3299 -0.0312,-0.3324 -0.0106,-0.3337 0.0106,-0.3335 0.0312,-0.3323 0.0524,-0.3299 0.0726,-0.326 0.0932,-0.3207 0.11303,-0.3139 0.13287,-0.3065 0.1513,-0.2976 0.17008,-0.2874 0.1878,-0.276 0.20445,-0.264 0.2211,-0.2505 0.23598,-0.236 0.25051,-0.2207 0.26363,-0.2049 0.27637,-0.1874 0.28737,-0.1701 0.29728,-0.1516 0.3065,-0.1325 0.31429,-0.1131 0.32067,-0.0931 0.32563,-0.0731 0.32988,-0.052 0.33236,-0.0318 0.33378,-0.0106 0.33378,0.011 0.33236,0.0316 0.32988,0.0518 0.32563,0.073 0.32067,0.0931 0.31429,0.1132 0.3065,0.1325 0.29728,0.1516 0.28737,0.1701 0.27637,0.1874 0.26363,0.2049 0.25051,0.2207 0.23634,0.236 0.22074,0.2505 0.20445,0.264 0.1878,0.276 0.17008,0.2874 0.15165,0.2976 0.13252,0.3065 0.11303,0.3139 0.0932,0.3207 0.0726,0.326 0.0524,0.3299 0.0315,0.3323 0.0103,0.3335 -0.0103,0.3337 -0.0315,0.3324 -0.0524,0.3299 -0.0726,0.326 -0.0932,0.3206 -0.11302,0.314 -0.13252,0.3065 -0.15165,0.2976 -0.17008,0.2874 -0.1878,0.276 -0.20445,0.264 -0.22074,0.2505 -0.23634,0.236 -0.25051,0.2207 -0.26363,0.2048 -0.27637,0.1874 -0.28737,0.1701 -0.29728,0.1517 -0.3065,0.1325 -0.31429,0.113 -0.32067,0.0931 -0.32563,0.0731 -0.32988,0.0521 -0.33236,0.0318 z"
       style="fill:none;stroke:#ff0000;stroke-opacity:1"
       id="path8739"
       sodipodi:nodetypes="ccccccccccccccccccccccccccccccccccccccccccccccccccccccccccccccccccccccccccccccccccccccccccccccccccccc" />
    <path
       inkscape:connector-curvature="0"
       d="m 517.8746,808.27201 -0.33378,-0.01 -0.33236,-0.0319 -0.32988,-0.0518 -0.32563,-0.073 -0.32067,-0.0931 -0.31429,-0.1131 -0.3065,-0.1325 -0.29728,-0.1517 -0.28737,-0.1701 -0.27637,-0.1874 -0.26363,-0.2048 -0.25051,-0.2207 -0.23634,-0.236 -0.22074,-0.2505 -0.20445,-0.264 -0.1878,-0.276 -0.17008,-0.2874 -0.15165,-0.2976 -0.13252,-0.3065 -0.11303,-0.314 -0.0932,-0.3206 -0.0726,-0.326 -0.0524,-0.3299 -0.0315,-0.3324 -0.0103,-0.3337 0.0103,-0.3335 0.0315,-0.3323 0.0524,-0.3299 0.0726,-0.326 0.0932,-0.3207 0.11302,-0.3139 0.13252,-0.3065 0.15165,-0.2976 0.17008,-0.2874 0.1878,-0.276 0.20445,-0.264 0.22074,-0.2505 0.23634,-0.236 0.25051,-0.2207 0.26363,-0.2049 0.27637,-0.1874 0.28737,-0.1701 0.29728,-0.1516 0.3065,-0.1325 0.31429,-0.1131 0.32067,-0.0931 0.32563,-0.0731 0.32988,-0.052 0.33236,-0.0318 0.33378,-0.0106 0.33378,0.011 0.33236,0.0316 0.32988,0.0518 0.32563,0.073 0.32067,0.0931 0.31429,0.1132 0.3065,0.1325 0.29728,0.1516 0.28737,0.1701 0.27637,0.1874 0.26363,0.2049 0.25051,0.2207 0.23598,0.236 0.2211,0.2505 0.20445,0.264 0.1878,0.276 0.17008,0.2874 0.1513,0.2976 0.13287,0.3065 0.11303,0.3139 0.0932,0.3207 0.0726,0.326 0.0524,0.3299 0.0312,0.3323 0.0106,0.3335 -0.0106,0.3337 -0.0312,0.3324 -0.0524,0.3299 -0.0726,0.326 -0.0932,0.3206 -0.11302,0.314 -0.13287,0.3065 -0.1513,0.2976 -0.17008,0.2874 -0.1878,0.276 -0.20445,0.264 -0.2211,0.2505 -0.23598,0.236 -0.25051,0.2207 -0.26363,0.2048 -0.27637,0.1874 -0.28737,0.1701 -0.29728,0.1517 -0.3065,0.1325 -0.31429,0.113 -0.32067,0.0931 -0.32563,0.0731 -0.32988,0.0521 -0.33236,0.0318 z"
       style="fill:none;stroke:#ff0000;stroke-opacity:1"
       id="path8939"
       sodipodi:nodetypes="ccccccccccccccccccccccccccccccccccccccccccccccccccccccccccccccccccccccccccccccccccccccccccccccccccccc" />
  </g>
</svg>
