  0
SECTION
  2
BLOCKS
  0
ENDSEC
  0
SECTION
  2
ENTITIES
  0
LINE
  8
0
 10
68.3862
 20
27.6665
 11
68.3861
 21
41.6
  0
LINE
  8
0
 10
68.3861
 20
41.6
 11
71.686
 21
41.6001
  0
LINE
  8
0
 10
71.686
 20
41.6001
 11
71.686
 21
69.7199
  0
LINE
  8
0
 10
71.686
 20
69.7199
 11
70.7107
 21
70.7107
  0
LINE
  8
0
 10
70.7107
 20
70.7107
 11
69.5913
 21
71.8126
  0
LINE
  8
0
 10
69.5913
 20
71.8126
 11
68.4547
 21
72.8969
  0
LINE
  8
0
 10
68.4547
 20
72.8969
 11
67.3012
 21
73.9631
  0
LINE
  8
0
 10
67.3012
 20
73.9631
 11
66.1312
 21
75.0111
  0
LINE
  8
0
 10
66.1312
 20
75.0111
 11
64.9448
 21
76.0406
  0
LINE
  8
0
 10
64.9448
 20
76.0406
 11
63.7424
 21
77.0513
  0
LINE
  8
0
 10
63.7424
 20
77.0513
 11
62.5243
 21
78.043
  0
LINE
  8
0
 10
62.5243
 20
78.043
 11
61.2907
 21
79.0155
  0
LINE
  8
0
 10
61.2907
 20
79.0155
 11
60.042
 21
79.9685
  0
LINE
  8
0
 10
60.042
 20
79.9685
 11
58.7785
 21
80.9017
  0
LINE
  8
0
 10
58.7785
 20
80.9017
 11
57.5005
 21
81.815
  0
LINE
  8
0
 10
57.5005
 20
81.815
 11
56.2083
 21
82.7081
  0
LINE
  8
0
 10
56.2083
 20
82.7081
 11
54.9023
 21
83.5807
  0
LINE
  8
0
 10
54.9023
 20
83.5807
 11
53.5827
 21
84.4328
  0
LINE
  8
0
 10
53.5827
 20
84.4328
 11
52.2498
 21
85.264
  0
LINE
  8
0
 10
52.2498
 20
85.264
 11
50.9041
 21
86.0742
  0
LINE
  8
0
 10
50.9041
 20
86.0742
 11
49.5459
 21
86.8631
  0
LINE
  8
0
 10
49.5459
 20
86.8631
 11
48.1754
 21
87.6307
  0
LINE
  8
0
 10
48.1754
 20
87.6307
 11
46.793
 21
88.3766
  0
LINE
  8
0
 10
46.793
 20
88.3766
 11
45.399
 21
89.1006
  0
LINE
  8
0
 10
45.399
 20
89.1006
 11
43.9939
 21
89.8027
  0
LINE
  8
0
 10
43.9939
 20
89.8027
 11
42.5779
 21
90.4827
  0
LINE
  8
0
 10
42.5779
 20
90.4827
 11
41.1514
 21
91.1403
  0
LINE
  8
0
 10
41.1514
 20
91.1403
 11
39.7148
 21
91.7755
  0
LINE
  8
0
 10
39.7148
 20
91.7755
 11
38.2683
 21
92.3879
  0
LINE
  8
0
 10
38.2683
 20
92.3879
 11
36.8125
 21
92.9776
  0
LINE
  8
0
 10
36.8125
 20
92.9776
 11
35.3475
 21
93.5444
  0
LINE
  8
0
 10
35.3475
 20
93.5444
 11
33.8738
 21
94.0881
  0
LINE
  8
0
 10
33.8738
 20
94.0881
 11
32.3917
 21
94.6085
  0
LINE
  8
0
 10
32.3917
 20
94.6085
 11
30.9017
 21
95.1056
  0
LINE
  8
0
 10
30.9017
 20
95.1056
 11
29.404
 21
95.5793
  0
LINE
  8
0
 10
29.404
 20
95.5793
 11
27.8991
 21
96.0294
  0
LINE
  8
0
 10
27.8991
 20
96.0294
 11
26.3873
 21
96.4557
  0
LINE
  8
0
 10
26.3873
 20
96.4557
 11
24.869
 21
96.8583
  0
LINE
  8
0
 10
24.869
 20
96.8583
 11
23.3445
 21
97.237
  0
LINE
  8
0
 10
23.3445
 20
97.237
 11
21.8143
 21
97.5917
  0
LINE
  8
0
 10
21.8143
 20
97.5917
 11
20.2787
 21
97.9223
  0
LINE
  8
0
 10
20.2787
 20
97.9223
 11
18.7381
 21
98.2287
  0
LINE
  8
0
 10
18.7381
 20
98.2287
 11
17.1929
 21
98.5109
  0
LINE
  8
0
 10
17.1929
 20
98.5109
 11
15.6434
 21
98.7688
  0
LINE
  8
0
 10
15.6434
 20
98.7688
 11
14.0901
 21
99.0024
  0
LINE
  8
0
 10
14.0901
 20
99.0024
 11
12.5333
 21
99.2115
  0
LINE
  8
0
 10
12.5333
 20
99.2115
 11
10.9734
 21
99.3961
  0
LINE
  8
0
 10
10.9734
 20
99.3961
 11
9.41083
 21
99.5562
  0
LINE
  8
0
 10
9.41083
 20
99.5562
 11
7.8459
 21
99.6917
  0
LINE
  8
0
 10
7.8459
 20
99.6917
 11
6.27904
 21
99.8027
  0
LINE
  8
0
 10
6.27904
 20
99.8027
 11
4.71063
 21
99.889
  0
LINE
  8
0
 10
4.71063
 20
99.889
 11
3.14107
 21
99.9507
  0
LINE
  8
0
 10
3.14107
 20
99.9507
 11
1.57072
 21
99.9877
  0
LINE
  8
0
 10
1.57072
 20
99.9877
 11
0
 21
100
  0
LINE
  8
0
 10
0
 20
100
 11
-1.57072
 21
99.9877
  0
LINE
  8
0
 10
-1.57072
 20
99.9877
 11
-3.14107
 21
99.9507
  0
LINE
  8
0
 10
-3.14107
 20
99.9507
 11
-4.71063
 21
99.889
  0
LINE
  8
0
 10
-4.71063
 20
99.889
 11
-6.27904
 21
99.8027
  0
LINE
  8
0
 10
-6.27904
 20
99.8027
 11
-7.8459
 21
99.6917
  0
LINE
  8
0
 10
-7.8459
 20
99.6917
 11
-9.41083
 21
99.5562
  0
LINE
  8
0
 10
-9.41083
 20
99.5562
 11
-10.9734
 21
99.3961
  0
LINE
  8
0
 10
-10.9734
 20
99.3961
 11
-12.5333
 21
99.2115
  0
LINE
  8
0
 10
-12.5333
 20
99.2115
 11
-14.0901
 21
99.0024
  0
LINE
  8
0
 10
-14.0901
 20
99.0024
 11
-15.6434
 21
98.7688
  0
LINE
  8
0
 10
-15.6434
 20
98.7688
 11
-17.1929
 21
98.5109
  0
LINE
  8
0
 10
-17.1929
 20
98.5109
 11
-18.7381
 21
98.2287
  0
LINE
  8
0
 10
-18.7381
 20
98.2287
 11
-20.2787
 21
97.9223
  0
LINE
  8
0
 10
-20.2787
 20
97.9223
 11
-21.8143
 21
97.5917
  0
LINE
  8
0
 10
-21.8143
 20
97.5917
 11
-23.3445
 21
97.237
  0
LINE
  8
0
 10
-23.3445
 20
97.237
 11
-24.869
 21
96.8583
  0
LINE
  8
0
 10
-24.869
 20
96.8583
 11
-26.3873
 21
96.4557
  0
LINE
  8
0
 10
-26.3873
 20
96.4557
 11
-27.8991
 21
96.0294
  0
LINE
  8
0
 10
-27.8991
 20
96.0294
 11
-29.404
 21
95.5793
  0
LINE
  8
0
 10
-29.404
 20
95.5793
 11
-30.9017
 21
95.1056
  0
LINE
  8
0
 10
-30.9017
 20
95.1056
 11
-32.3917
 21
94.6085
  0
LINE
  8
0
 10
-32.3917
 20
94.6085
 11
-33.8738
 21
94.0881
  0
LINE
  8
0
 10
-33.8738
 20
94.0881
 11
-35.3475
 21
93.5444
  0
LINE
  8
0
 10
-35.3475
 20
93.5444
 11
-36.8125
 21
92.9776
  0
LINE
  8
0
 10
-36.8125
 20
92.9776
 11
-38.2683
 21
92.3879
  0
LINE
  8
0
 10
-38.2683
 20
92.3879
 11
-39.7148
 21
91.7755
  0
LINE
  8
0
 10
-39.7148
 20
91.7755
 11
-41.1514
 21
91.1403
  0
LINE
  8
0
 10
-41.1514
 20
91.1403
 11
-42.5779
 21
90.4827
  0
LINE
  8
0
 10
-42.5779
 20
90.4827
 11
-43.9939
 21
89.8027
  0
LINE
  8
0
 10
-43.9939
 20
89.8027
 11
-45.399
 21
89.1006
  0
LINE
  8
0
 10
-45.399
 20
89.1006
 11
-46.793
 21
88.3766
  0
LINE
  8
0
 10
-46.793
 20
88.3766
 11
-48.1754
 21
87.6307
  0
LINE
  8
0
 10
-48.1754
 20
87.6307
 11
-49.5459
 21
86.8631
  0
LINE
  8
0
 10
-49.5459
 20
86.8631
 11
-50.9041
 21
86.0742
  0
LINE
  8
0
 10
-50.9041
 20
86.0742
 11
-52.2498
 21
85.264
  0
LINE
  8
0
 10
-52.2498
 20
85.264
 11
-53.5827
 21
84.4328
  0
LINE
  8
0
 10
-53.5827
 20
84.4328
 11
-54.9023
 21
83.5807
  0
LINE
  8
0
 10
-54.9023
 20
83.5807
 11
-56.2083
 21
82.7081
  0
LINE
  8
0
 10
-56.2083
 20
82.7081
 11
-57.5005
 21
81.815
  0
LINE
  8
0
 10
-57.5005
 20
81.815
 11
-58.7785
 21
80.9017
  0
LINE
  8
0
 10
-58.7785
 20
80.9017
 11
-60.042
 21
79.9685
  0
LINE
  8
0
 10
-60.042
 20
79.9685
 11
-61.2907
 21
79.0155
  0
LINE
  8
0
 10
-61.2907
 20
79.0155
 11
-62.5243
 21
78.043
  0
LINE
  8
0
 10
-62.5243
 20
78.043
 11
-63.7424
 21
77.0513
  0
LINE
  8
0
 10
-63.7424
 20
77.0513
 11
-64.9448
 21
76.0406
  0
LINE
  8
0
 10
-64.9448
 20
76.0406
 11
-66.1312
 21
75.0111
  0
LINE
  8
0
 10
-66.1312
 20
75.0111
 11
-67.3012
 21
73.9631
  0
LINE
  8
0
 10
-67.3012
 20
73.9631
 11
-68.4547
 21
72.8969
  0
LINE
  8
0
 10
-68.4547
 20
72.8969
 11
-69.5913
 21
71.8126
  0
LINE
  8
0
 10
-69.5913
 20
71.8126
 11
-70.7107
 21
70.7107
  0
LINE
  8
0
 10
-70.7107
 20
70.7107
 11
-71.686
 21
69.7199
  0
LINE
  8
0
 10
-71.686
 20
69.7199
 11
-71.686
 21
41.6
  0
LINE
  8
0
 10
-71.686
 20
41.6
 11
-68.3862
 21
41.6001
  0
LINE
  8
0
 10
-68.3862
 20
41.6001
 11
-68.3862
 21
27.6665
  0
LINE
  8
0
 10
-68.3862
 20
27.6665
 11
-71.686
 21
27.6665
  0
LINE
  8
0
 10
-71.686
 20
27.6665
 11
-71.686
 21
13.8333
  0
LINE
  8
0
 10
-71.686
 20
13.8333
 11
-68.3862
 21
13.8334
  0
LINE
  8
0
 10
-68.3862
 20
13.8334
 11
-68.3862
 21
-2.86661
  0
LINE
  8
0
 10
-68.3862
 20
-2.86661
 11
-71.686
 21
-2.86661
  0
LINE
  8
0
 10
-71.686
 20
-2.86661
 11
-71.686
 21
-69.7199
  0
LINE
  8
0
 10
-71.686
 20
-69.7199
 11
-70.7107
 21
-70.7107
  0
LINE
  8
0
 10
-70.7107
 20
-70.7107
 11
-69.5913
 21
-71.8126
  0
LINE
  8
0
 10
-69.5913
 20
-71.8126
 11
-68.4547
 21
-72.8969
  0
LINE
  8
0
 10
-68.4547
 20
-72.8969
 11
-67.3012
 21
-73.9631
  0
LINE
  8
0
 10
-67.3012
 20
-73.9631
 11
-66.1312
 21
-75.0111
  0
LINE
  8
0
 10
-66.1312
 20
-75.0111
 11
-64.9448
 21
-76.0406
  0
LINE
  8
0
 10
-64.9448
 20
-76.0406
 11
-63.7424
 21
-77.0513
  0
LINE
  8
0
 10
-63.7424
 20
-77.0513
 11
-62.5243
 21
-78.043
  0
LINE
  8
0
 10
-62.5243
 20
-78.043
 11
-61.2907
 21
-79.0155
  0
LINE
  8
0
 10
-61.2907
 20
-79.0155
 11
-60.042
 21
-79.9685
  0
LINE
  8
0
 10
-60.042
 20
-79.9685
 11
-58.7785
 21
-80.9017
  0
LINE
  8
0
 10
-58.7785
 20
-80.9017
 11
-57.5005
 21
-81.815
  0
LINE
  8
0
 10
-57.5005
 20
-81.815
 11
-56.2083
 21
-82.7081
  0
LINE
  8
0
 10
-56.2083
 20
-82.7081
 11
-54.9023
 21
-83.5807
  0
LINE
  8
0
 10
-54.9023
 20
-83.5807
 11
-53.5827
 21
-84.4328
  0
LINE
  8
0
 10
-53.5827
 20
-84.4328
 11
-52.2498
 21
-85.264
  0
LINE
  8
0
 10
-52.2498
 20
-85.264
 11
-50.9041
 21
-86.0742
  0
LINE
  8
0
 10
-50.9041
 20
-86.0742
 11
-49.5459
 21
-86.8631
  0
LINE
  8
0
 10
-49.5459
 20
-86.8631
 11
-48.1754
 21
-87.6307
  0
LINE
  8
0
 10
-48.1754
 20
-87.6307
 11
-46.793
 21
-88.3766
  0
LINE
  8
0
 10
-46.793
 20
-88.3766
 11
-45.399
 21
-89.1006
  0
LINE
  8
0
 10
-45.399
 20
-89.1006
 11
-43.9939
 21
-89.8027
  0
LINE
  8
0
 10
-43.9939
 20
-89.8027
 11
-42.5779
 21
-90.4827
  0
LINE
  8
0
 10
-42.5779
 20
-90.4827
 11
-41.1514
 21
-91.1403
  0
LINE
  8
0
 10
-41.1514
 20
-91.1403
 11
-39.7148
 21
-91.7755
  0
LINE
  8
0
 10
-39.7148
 20
-91.7755
 11
-38.2683
 21
-92.3879
  0
LINE
  8
0
 10
-38.2683
 20
-92.3879
 11
-36.8125
 21
-92.9776
  0
LINE
  8
0
 10
-36.8125
 20
-92.9776
 11
-35.3475
 21
-93.5444
  0
LINE
  8
0
 10
-35.3475
 20
-93.5444
 11
-33.8738
 21
-94.0881
  0
LINE
  8
0
 10
-33.8738
 20
-94.0881
 11
-32.3917
 21
-94.6085
  0
LINE
  8
0
 10
-32.3917
 20
-94.6085
 11
-30.9017
 21
-95.1056
  0
LINE
  8
0
 10
-30.9017
 20
-95.1056
 11
-29.404
 21
-95.5793
  0
LINE
  8
0
 10
-29.404
 20
-95.5793
 11
-27.8991
 21
-96.0294
  0
LINE
  8
0
 10
-27.8991
 20
-96.0294
 11
-26.3873
 21
-96.4557
  0
LINE
  8
0
 10
-26.3873
 20
-96.4557
 11
-24.869
 21
-96.8583
  0
LINE
  8
0
 10
-24.869
 20
-96.8583
 11
-23.3445
 21
-97.237
  0
LINE
  8
0
 10
-23.3445
 20
-97.237
 11
-21.8143
 21
-97.5917
  0
LINE
  8
0
 10
-21.8143
 20
-97.5917
 11
-20.2787
 21
-97.9223
  0
LINE
  8
0
 10
-20.2787
 20
-97.9223
 11
-18.7381
 21
-98.2287
  0
LINE
  8
0
 10
-18.7381
 20
-98.2287
 11
-17.1929
 21
-98.5109
  0
LINE
  8
0
 10
-17.1929
 20
-98.5109
 11
-15.6434
 21
-98.7688
  0
LINE
  8
0
 10
-15.6434
 20
-98.7688
 11
-14.0901
 21
-99.0024
  0
LINE
  8
0
 10
-14.0901
 20
-99.0024
 11
-12.5333
 21
-99.2115
  0
LINE
  8
0
 10
-12.5333
 20
-99.2115
 11
-10.9734
 21
-99.3961
  0
LINE
  8
0
 10
-10.9734
 20
-99.3961
 11
-9.41083
 21
-99.5562
  0
LINE
  8
0
 10
-9.41083
 20
-99.5562
 11
-7.8459
 21
-99.6917
  0
LINE
  8
0
 10
-7.8459
 20
-99.6917
 11
-6.27904
 21
-99.8027
  0
LINE
  8
0
 10
-6.27904
 20
-99.8027
 11
-4.71063
 21
-99.889
  0
LINE
  8
0
 10
-4.71063
 20
-99.889
 11
-3.14107
 21
-99.9507
  0
LINE
  8
0
 10
-3.14107
 20
-99.9507
 11
-1.57072
 21
-99.9877
  0
LINE
  8
0
 10
-1.57072
 20
-99.9877
 11
0
 21
-100
  0
LINE
  8
0
 10
0
 20
-100
 11
1.57072
 21
-99.9877
  0
LINE
  8
0
 10
1.57072
 20
-99.9877
 11
3.14107
 21
-99.9507
  0
LINE
  8
0
 10
3.14107
 20
-99.9507
 11
4.71063
 21
-99.889
  0
LINE
  8
0
 10
4.71063
 20
-99.889
 11
6.27904
 21
-99.8027
  0
LINE
  8
0
 10
6.27904
 20
-99.8027
 11
7.8459
 21
-99.6917
  0
LINE
  8
0
 10
7.8459
 20
-99.6917
 11
9.41083
 21
-99.5562
  0
LINE
  8
0
 10
9.41083
 20
-99.5562
 11
10.9734
 21
-99.3961
  0
LINE
  8
0
 10
10.9734
 20
-99.3961
 11
12.5333
 21
-99.2115
  0
LINE
  8
0
 10
12.5333
 20
-99.2115
 11
14.0901
 21
-99.0024
  0
LINE
  8
0
 10
14.0901
 20
-99.0024
 11
15.6434
 21
-98.7688
  0
LINE
  8
0
 10
15.6434
 20
-98.7688
 11
17.1929
 21
-98.5109
  0
LINE
  8
0
 10
17.1929
 20
-98.5109
 11
18.7381
 21
-98.2287
  0
LINE
  8
0
 10
18.7381
 20
-98.2287
 11
20.2787
 21
-97.9223
  0
LINE
  8
0
 10
20.2787
 20
-97.9223
 11
21.8143
 21
-97.5917
  0
LINE
  8
0
 10
21.8143
 20
-97.5917
 11
23.3445
 21
-97.237
  0
LINE
  8
0
 10
23.3445
 20
-97.237
 11
24.869
 21
-96.8583
  0
LINE
  8
0
 10
24.869
 20
-96.8583
 11
26.3873
 21
-96.4557
  0
LINE
  8
0
 10
26.3873
 20
-96.4557
 11
27.8991
 21
-96.0294
  0
LINE
  8
0
 10
27.8991
 20
-96.0294
 11
29.404
 21
-95.5793
  0
LINE
  8
0
 10
29.404
 20
-95.5793
 11
30.9017
 21
-95.1056
  0
LINE
  8
0
 10
30.9017
 20
-95.1056
 11
32.3917
 21
-94.6085
  0
LINE
  8
0
 10
32.3917
 20
-94.6085
 11
33.8738
 21
-94.0881
  0
LINE
  8
0
 10
33.8738
 20
-94.0881
 11
35.3475
 21
-93.5444
  0
LINE
  8
0
 10
35.3475
 20
-93.5444
 11
36.8125
 21
-92.9776
  0
LINE
  8
0
 10
36.8125
 20
-92.9776
 11
38.2683
 21
-92.3879
  0
LINE
  8
0
 10
38.2683
 20
-92.3879
 11
39.7148
 21
-91.7755
  0
LINE
  8
0
 10
39.7148
 20
-91.7755
 11
41.1514
 21
-91.1403
  0
LINE
  8
0
 10
41.1514
 20
-91.1403
 11
42.5779
 21
-90.4827
  0
LINE
  8
0
 10
42.5779
 20
-90.4827
 11
43.9939
 21
-89.8027
  0
LINE
  8
0
 10
43.9939
 20
-89.8027
 11
45.399
 21
-89.1006
  0
LINE
  8
0
 10
45.399
 20
-89.1006
 11
46.793
 21
-88.3766
  0
LINE
  8
0
 10
46.793
 20
-88.3766
 11
48.1754
 21
-87.6307
  0
LINE
  8
0
 10
48.1754
 20
-87.6307
 11
49.5459
 21
-86.8631
  0
LINE
  8
0
 10
49.5459
 20
-86.8631
 11
50.9041
 21
-86.0742
  0
LINE
  8
0
 10
50.9041
 20
-86.0742
 11
52.2498
 21
-85.264
  0
LINE
  8
0
 10
52.2498
 20
-85.264
 11
53.5827
 21
-84.4328
  0
LINE
  8
0
 10
53.5827
 20
-84.4328
 11
54.9023
 21
-83.5807
  0
LINE
  8
0
 10
54.9023
 20
-83.5807
 11
56.2083
 21
-82.7081
  0
LINE
  8
0
 10
56.2083
 20
-82.7081
 11
57.5005
 21
-81.815
  0
LINE
  8
0
 10
57.5005
 20
-81.815
 11
58.7785
 21
-80.9017
  0
LINE
  8
0
 10
58.7785
 20
-80.9017
 11
60.042
 21
-79.9685
  0
LINE
  8
0
 10
60.042
 20
-79.9685
 11
61.2907
 21
-79.0155
  0
LINE
  8
0
 10
61.2907
 20
-79.0155
 11
62.5243
 21
-78.043
  0
LINE
  8
0
 10
62.5243
 20
-78.043
 11
63.7424
 21
-77.0513
  0
LINE
  8
0
 10
63.7424
 20
-77.0513
 11
64.9448
 21
-76.0406
  0
LINE
  8
0
 10
64.9448
 20
-76.0406
 11
66.1312
 21
-75.0111
  0
LINE
  8
0
 10
66.1312
 20
-75.0111
 11
67.3012
 21
-73.9631
  0
LINE
  8
0
 10
67.3012
 20
-73.9631
 11
68.4547
 21
-72.8969
  0
LINE
  8
0
 10
68.4547
 20
-72.8969
 11
69.5913
 21
-71.8126
  0
LINE
  8
0
 10
69.5913
 20
-71.8126
 11
70.7107
 21
-70.7107
  0
LINE
  8
0
 10
70.7107
 20
-70.7107
 11
71.686
 21
-69.7199
  0
LINE
  8
0
 10
71.686
 20
-69.7199
 11
71.686
 21
-2.86661
  0
LINE
  8
0
 10
71.686
 20
-2.86661
 11
68.3862
 21
-2.86661
  0
LINE
  8
0
 10
68.3862
 20
-2.86661
 11
68.3861
 21
13.8333
  0
LINE
  8
0
 10
68.3861
 20
13.8333
 11
71.686
 21
13.8334
  0
LINE
  8
0
 10
71.686
 20
13.8334
 11
71.686
 21
27.6665
  0
LINE
  8
0
 10
71.686
 20
27.6665
 11
68.3862
 21
27.6665
  0
LINE
  8
0
 10
-0.234634
 20
80.5185
 11
-0.463501
 21
80.5734
  0
LINE
  8
0
 10
-0.463501
 20
80.5734
 11
-0.680969
 21
80.6635
  0
LINE
  8
0
 10
-0.680969
 20
80.6635
 11
-0.881653
 21
80.7865
  0
LINE
  8
0
 10
-0.881653
 20
80.7865
 11
-1.06064
 21
80.9393
  0
LINE
  8
0
 10
-1.06064
 20
80.9393
 11
-1.2135
 21
81.1183
  0
LINE
  8
0
 10
-1.2135
 20
81.1183
 11
-1.33649
 21
81.319
  0
LINE
  8
0
 10
-1.33649
 20
81.319
 11
-1.42656
 21
81.5365
  0
LINE
  8
0
 10
-1.42656
 20
81.5365
 11
-1.48151
 21
81.7653
  0
LINE
  8
0
 10
-1.48151
 20
81.7653
 11
-1.49997
 21
82
  0
LINE
  8
0
 10
-1.49997
 20
82
 11
-1.48151
 21
82.2346
  0
LINE
  8
0
 10
-1.48151
 20
82.2346
 11
-1.42656
 21
82.4635
  0
LINE
  8
0
 10
-1.42656
 20
82.4635
 11
-1.33649
 21
82.681
  0
LINE
  8
0
 10
-1.33649
 20
82.681
 11
-1.2135
 21
82.8817
  0
LINE
  8
0
 10
-1.2135
 20
82.8817
 11
-1.06064
 21
83.0607
  0
LINE
  8
0
 10
-1.06064
 20
83.0607
 11
-0.881653
 21
83.2135
  0
LINE
  8
0
 10
-0.881653
 20
83.2135
 11
-0.680969
 21
83.3365
  0
LINE
  8
0
 10
-0.680969
 20
83.3365
 11
-0.463501
 21
83.4266
  0
LINE
  8
0
 10
-0.463501
 20
83.4266
 11
-0.234634
 21
83.4815
  0
LINE
  8
0
 10
-0.234634
 20
83.4815
 11
0
 21
83.5
  0
LINE
  8
0
 10
0
 20
83.5
 11
0.23465
 21
83.4815
  0
LINE
  8
0
 10
0.23465
 20
83.4815
 11
0.463516
 21
83.4266
  0
LINE
  8
0
 10
0.463516
 20
83.4266
 11
0.680984
 21
83.3365
  0
LINE
  8
0
 10
0.680984
 20
83.3365
 11
0.881668
 21
83.2135
  0
LINE
  8
0
 10
0.881668
 20
83.2135
 11
1.06065
 21
83.0607
  0
LINE
  8
0
 10
1.06065
 20
83.0607
 11
1.21352
 21
82.8817
  0
LINE
  8
0
 10
1.21352
 20
82.8817
 11
1.3365
 21
82.681
  0
LINE
  8
0
 10
1.3365
 20
82.681
 11
1.42657
 21
82.4635
  0
LINE
  8
0
 10
1.42657
 20
82.4635
 11
1.48152
 21
82.2346
  0
LINE
  8
0
 10
1.48152
 20
82.2346
 11
1.5
 21
82
  0
LINE
  8
0
 10
1.5
 20
82
 11
1.48152
 21
81.7653
  0
LINE
  8
0
 10
1.48152
 20
81.7653
 11
1.42657
 21
81.5365
  0
LINE
  8
0
 10
1.42657
 20
81.5365
 11
1.3365
 21
81.319
  0
LINE
  8
0
 10
1.3365
 20
81.319
 11
1.21352
 21
81.1183
  0
LINE
  8
0
 10
1.21352
 20
81.1183
 11
1.06065
 21
80.9393
  0
LINE
  8
0
 10
1.06065
 20
80.9393
 11
0.881668
 21
80.7865
  0
LINE
  8
0
 10
0.881668
 20
80.7865
 11
0.680984
 21
80.6635
  0
LINE
  8
0
 10
0.680984
 20
80.6635
 11
0.463516
 21
80.5734
  0
LINE
  8
0
 10
0.463516
 20
80.5734
 11
0.23465
 21
80.5185
  0
LINE
  8
0
 10
0.23465
 20
80.5185
 11
0
 21
80.5
  0
LINE
  8
0
 10
0
 20
80.5
 11
-0.234634
 21
80.5185
  0
LINE
  8
0
 10
5.75029
 20
70.0328
 11
5.5246
 21
70.0996
  0
LINE
  8
0
 10
5.5246
 20
70.0996
 11
5.31215
 21
70.201
  0
LINE
  8
0
 10
5.31215
 20
70.201
 11
5.11818
 21
70.3343
  0
LINE
  8
0
 10
5.11818
 20
70.3343
 11
4.94743
 21
70.4963
  0
LINE
  8
0
 10
4.94743
 20
70.4963
 11
4.80415
 21
70.683
  0
LINE
  8
0
 10
4.80415
 20
70.683
 11
4.69183
 21
70.8899
  0
LINE
  8
0
 10
4.69183
 20
70.8899
 11
4.61327
 21
71.1118
  0
LINE
  8
0
 10
4.61327
 20
71.1118
 11
4.57037
 21
71.3432
  0
LINE
  8
0
 10
4.57037
 20
71.3432
 11
4.56422
 21
71.5785
  0
LINE
  8
0
 10
4.56422
 20
71.5785
 11
4.59496
 21
71.8119
  0
LINE
  8
0
 10
4.59496
 20
71.8119
 11
4.6618
 21
72.0376
  0
LINE
  8
0
 10
4.6618
 20
72.0376
 11
4.76314
 21
72.25
  0
LINE
  8
0
 10
4.76314
 20
72.25
 11
4.89645
 21
72.444
  0
LINE
  8
0
 10
4.89645
 20
72.444
 11
5.05847
 21
72.6147
  0
LINE
  8
0
 10
5.05847
 20
72.6147
 11
5.24521
 21
72.758
  0
LINE
  8
0
 10
5.24521
 20
72.758
 11
5.45207
 21
72.8703
  0
LINE
  8
0
 10
5.45207
 20
72.8703
 11
5.67393
 21
72.9489
  0
LINE
  8
0
 10
5.67393
 20
72.9489
 11
5.90538
 21
72.9918
  0
LINE
  8
0
 10
5.90538
 20
72.9918
 11
6.14067
 21
72.998
  0
LINE
  8
0
 10
6.14067
 20
72.998
 11
6.37404
 21
72.9672
  0
LINE
  8
0
 10
6.37404
 20
72.9672
 11
6.59972
 21
72.9004
  0
LINE
  8
0
 10
6.59972
 20
72.9004
 11
6.81216
 21
72.799
  0
LINE
  8
0
 10
6.81216
 20
72.799
 11
7.00615
 21
72.6657
  0
LINE
  8
0
 10
7.00615
 20
72.6657
 11
7.17688
 21
72.5037
  0
LINE
  8
0
 10
7.17688
 20
72.5037
 11
7.32018
 21
72.317
  0
LINE
  8
0
 10
7.32018
 20
72.317
 11
7.4325
 21
72.1101
  0
LINE
  8
0
 10
7.4325
 20
72.1101
 11
7.51106
 21
71.8882
  0
LINE
  8
0
 10
7.51106
 20
71.8882
 11
7.55396
 21
71.6568
  0
LINE
  8
0
 10
7.55396
 20
71.6568
 11
7.56012
 21
71.4215
  0
LINE
  8
0
 10
7.56012
 20
71.4215
 11
7.52937
 21
71.1881
  0
LINE
  8
0
 10
7.52937
 20
71.1881
 11
7.46252
 21
70.9624
  0
LINE
  8
0
 10
7.46252
 20
70.9624
 11
7.36119
 21
70.75
  0
LINE
  8
0
 10
7.36119
 20
70.75
 11
7.22787
 21
70.556
  0
LINE
  8
0
 10
7.22787
 20
70.556
 11
7.06586
 21
70.3853
  0
LINE
  8
0
 10
7.06586
 20
70.3853
 11
6.87912
 21
70.242
  0
LINE
  8
0
 10
6.87912
 20
70.242
 11
6.67226
 21
70.1297
  0
LINE
  8
0
 10
6.67226
 20
70.1297
 11
6.45038
 21
70.0511
  0
LINE
  8
0
 10
6.45038
 20
70.0511
 11
6.21895
 21
70.0082
  0
LINE
  8
0
 10
6.21895
 20
70.0082
 11
5.98366
 21
70.0021
  0
LINE
  8
0
 10
5.98366
 20
70.0021
 11
5.75029
 21
70.0328
  0
LINE
  8
0
 10
-6.21896
 20
70.0082
 11
-6.45039
 21
70.0511
  0
LINE
  8
0
 10
-6.45039
 20
70.0511
 11
-6.67227
 21
70.1297
  0
LINE
  8
0
 10
-6.67227
 20
70.1297
 11
-6.87914
 21
70.242
  0
LINE
  8
0
 10
-6.87914
 20
70.242
 11
-7.06587
 21
70.3853
  0
LINE
  8
0
 10
-7.06587
 20
70.3853
 11
-7.22789
 21
70.556
  0
LINE
  8
0
 10
-7.22789
 20
70.556
 11
-7.36121
 21
70.75
  0
LINE
  8
0
 10
-7.36121
 20
70.75
 11
-7.46254
 21
70.9624
  0
LINE
  8
0
 10
-7.46254
 20
70.9624
 11
-7.52939
 21
71.1881
  0
LINE
  8
0
 10
-7.52939
 20
71.1881
 11
-7.56012
 21
71.4215
  0
LINE
  8
0
 10
-7.56012
 20
71.4215
 11
-7.55396
 21
71.6568
  0
LINE
  8
0
 10
-7.55396
 20
71.6568
 11
-7.51106
 21
71.8882
  0
LINE
  8
0
 10
-7.51106
 20
71.8882
 11
-7.4325
 21
72.1101
  0
LINE
  8
0
 10
-7.4325
 20
72.1101
 11
-7.32018
 21
72.317
  0
LINE
  8
0
 10
-7.32018
 20
72.317
 11
-7.17688
 21
72.5037
  0
LINE
  8
0
 10
-7.17688
 20
72.5037
 11
-7.00615
 21
72.6657
  0
LINE
  8
0
 10
-7.00615
 20
72.6657
 11
-6.81216
 21
72.799
  0
LINE
  8
0
 10
-6.81216
 20
72.799
 11
-6.59972
 21
72.9004
  0
LINE
  8
0
 10
-6.59972
 20
72.9004
 11
-6.37404
 21
72.9672
  0
LINE
  8
0
 10
-6.37404
 20
72.9672
 11
-6.14067
 21
72.998
  0
LINE
  8
0
 10
-6.14067
 20
72.998
 11
-5.90538
 21
72.9918
  0
LINE
  8
0
 10
-5.90538
 20
72.9918
 11
-5.67393
 21
72.9489
  0
LINE
  8
0
 10
-5.67393
 20
72.9489
 11
-5.45207
 21
72.8703
  0
LINE
  8
0
 10
-5.45207
 20
72.8703
 11
-5.24521
 21
72.758
  0
LINE
  8
0
 10
-5.24521
 20
72.758
 11
-5.05847
 21
72.6147
  0
LINE
  8
0
 10
-5.05847
 20
72.6147
 11
-4.89645
 21
72.444
  0
LINE
  8
0
 10
-4.89645
 20
72.444
 11
-4.76314
 21
72.25
  0
LINE
  8
0
 10
-4.76314
 20
72.25
 11
-4.6618
 21
72.0376
  0
LINE
  8
0
 10
-4.6618
 20
72.0376
 11
-4.59496
 21
71.8119
  0
LINE
  8
0
 10
-4.59496
 20
71.8119
 11
-4.56422
 21
71.5785
  0
LINE
  8
0
 10
-4.56422
 20
71.5785
 11
-4.57039
 21
71.3432
  0
LINE
  8
0
 10
-4.57039
 20
71.3432
 11
-4.61328
 21
71.1118
  0
LINE
  8
0
 10
-4.61328
 20
71.1118
 11
-4.69185
 21
70.8899
  0
LINE
  8
0
 10
-4.69185
 20
70.8899
 11
-4.80417
 21
70.683
  0
LINE
  8
0
 10
-4.80417
 20
70.683
 11
-4.94745
 21
70.4963
  0
LINE
  8
0
 10
-4.94745
 20
70.4963
 11
-5.11819
 21
70.3343
  0
LINE
  8
0
 10
-5.11819
 20
70.3343
 11
-5.31216
 21
70.201
  0
LINE
  8
0
 10
-5.31216
 20
70.201
 11
-5.52461
 21
70.0996
  0
LINE
  8
0
 10
-5.52461
 20
70.0996
 11
-5.75031
 21
70.0328
  0
LINE
  8
0
 10
-5.75031
 20
70.0328
 11
-5.98367
 21
70.0021
  0
LINE
  8
0
 10
-5.98367
 20
70.0021
 11
-6.21896
 21
70.0082
  0
LINE
  8
0
 10
-43.7064
 20
40.5623
 11
-43.859
 21
40.599
  0
LINE
  8
0
 10
-43.859
 20
40.599
 11
-44.004
 21
40.659
  0
LINE
  8
0
 10
-44.004
 20
40.659
 11
-44.1378
 21
40.741
  0
LINE
  8
0
 10
-44.1378
 20
40.741
 11
-44.2571
 21
40.8429
  0
LINE
  8
0
 10
-44.2571
 20
40.8429
 11
-44.359
 21
40.9622
  0
LINE
  8
0
 10
-44.359
 20
40.9622
 11
-44.441
 21
41.096
  0
LINE
  8
0
 10
-44.441
 20
41.096
 11
-44.5011
 21
41.241
  0
LINE
  8
0
 10
-44.5011
 20
41.241
 11
-44.5377
 21
41.3936
  0
LINE
  8
0
 10
-44.5377
 20
41.3936
 11
-44.55
 21
41.55
  0
LINE
  8
0
 10
-44.55
 20
41.55
 11
-60.636
 21
41.55
  0
LINE
  8
0
 10
-60.636
 20
41.55
 11
-60.6483
 21
41.3936
  0
LINE
  8
0
 10
-60.6483
 20
41.3936
 11
-60.6849
 21
41.241
  0
LINE
  8
0
 10
-60.6849
 20
41.241
 11
-60.745
 21
41.096
  0
LINE
  8
0
 10
-60.745
 20
41.096
 11
-60.827
 21
40.9622
  0
LINE
  8
0
 10
-60.827
 20
40.9622
 11
-60.9289
 21
40.8429
  0
LINE
  8
0
 10
-60.9289
 20
40.8429
 11
-61.0482
 21
40.741
  0
LINE
  8
0
 10
-61.0482
 20
40.741
 11
-61.182
 21
40.659
  0
LINE
  8
0
 10
-61.182
 20
40.659
 11
-61.327
 21
40.599
  0
LINE
  8
0
 10
-61.327
 20
40.599
 11
-61.4796
 21
40.5623
  0
LINE
  8
0
 10
-61.4796
 20
40.5623
 11
-61.636
 21
40.55
  0
LINE
  8
0
 10
-61.636
 20
40.55
 11
-61.7924
 21
40.5623
  0
LINE
  8
0
 10
-61.7924
 20
40.5623
 11
-61.945
 21
40.599
  0
LINE
  8
0
 10
-61.945
 20
40.599
 11
-62.09
 21
40.659
  0
LINE
  8
0
 10
-62.09
 20
40.659
 11
-62.2238
 21
40.741
  0
LINE
  8
0
 10
-62.2238
 20
40.741
 11
-62.3431
 21
40.8429
  0
LINE
  8
0
 10
-62.3431
 20
40.8429
 11
-62.445
 21
40.9622
  0
LINE
  8
0
 10
-62.445
 20
40.9622
 11
-62.527
 21
41.096
  0
LINE
  8
0
 10
-62.527
 20
41.096
 11
-62.5871
 21
41.241
  0
LINE
  8
0
 10
-62.5871
 20
41.241
 11
-62.6237
 21
41.3936
  0
LINE
  8
0
 10
-62.6237
 20
41.3936
 11
-62.636
 21
41.55
  0
LINE
  8
0
 10
-62.636
 20
41.55
 11
-62.636
 21
44.75
  0
LINE
  8
0
 10
-62.636
 20
44.75
 11
-62.6237
 21
44.9064
  0
LINE
  8
0
 10
-62.6237
 20
44.9064
 11
-62.5871
 21
45.059
  0
LINE
  8
0
 10
-62.5871
 20
45.059
 11
-62.527
 21
45.204
  0
LINE
  8
0
 10
-62.527
 20
45.204
 11
-62.445
 21
45.3378
  0
LINE
  8
0
 10
-62.445
 20
45.3378
 11
-62.3431
 21
45.4571
  0
LINE
  8
0
 10
-62.3431
 20
45.4571
 11
-62.2238
 21
45.559
  0
LINE
  8
0
 10
-62.2238
 20
45.559
 11
-62.09
 21
45.641
  0
LINE
  8
0
 10
-62.09
 20
45.641
 11
-61.945
 21
45.701
  0
LINE
  8
0
 10
-61.945
 20
45.701
 11
-61.7924
 21
45.7377
  0
LINE
  8
0
 10
-61.7924
 20
45.7377
 11
-61.636
 21
45.75
  0
LINE
  8
0
 10
-61.636
 20
45.75
 11
-61.4796
 21
45.7377
  0
LINE
  8
0
 10
-61.4796
 20
45.7377
 11
-61.327
 21
45.701
  0
LINE
  8
0
 10
-61.327
 20
45.701
 11
-61.182
 21
45.641
  0
LINE
  8
0
 10
-61.182
 20
45.641
 11
-61.0482
 21
45.559
  0
LINE
  8
0
 10
-61.0482
 20
45.559
 11
-60.9289
 21
45.4571
  0
LINE
  8
0
 10
-60.9289
 20
45.4571
 11
-60.827
 21
45.3378
  0
LINE
  8
0
 10
-60.827
 20
45.3378
 11
-60.745
 21
45.204
  0
LINE
  8
0
 10
-60.745
 20
45.204
 11
-60.6849
 21
45.059
  0
LINE
  8
0
 10
-60.6849
 20
45.059
 11
-60.6483
 21
44.9064
  0
LINE
  8
0
 10
-60.6483
 20
44.9064
 11
-60.636
 21
44.75
  0
LINE
  8
0
 10
-60.636
 20
44.75
 11
-44.55
 21
44.75
  0
LINE
  8
0
 10
-44.55
 20
44.75
 11
-44.5377
 21
44.9064
  0
LINE
  8
0
 10
-44.5377
 20
44.9064
 11
-44.5011
 21
45.059
  0
LINE
  8
0
 10
-44.5011
 20
45.059
 11
-44.441
 21
45.204
  0
LINE
  8
0
 10
-44.441
 20
45.204
 11
-44.359
 21
45.3378
  0
LINE
  8
0
 10
-44.359
 20
45.3378
 11
-44.2571
 21
45.4571
  0
LINE
  8
0
 10
-44.2571
 20
45.4571
 11
-44.1378
 21
45.559
  0
LINE
  8
0
 10
-44.1378
 20
45.559
 11
-44.004
 21
45.641
  0
LINE
  8
0
 10
-44.004
 20
45.641
 11
-43.859
 21
45.701
  0
LINE
  8
0
 10
-43.859
 20
45.701
 11
-43.7064
 21
45.7377
  0
LINE
  8
0
 10
-43.7064
 20
45.7377
 11
-43.55
 21
45.75
  0
LINE
  8
0
 10
-43.55
 20
45.75
 11
-43.3936
 21
45.7377
  0
LINE
  8
0
 10
-43.3936
 20
45.7377
 11
-43.241
 21
45.701
  0
LINE
  8
0
 10
-43.241
 20
45.701
 11
-43.096
 21
45.641
  0
LINE
  8
0
 10
-43.096
 20
45.641
 11
-42.9622
 21
45.559
  0
LINE
  8
0
 10
-42.9622
 20
45.559
 11
-42.8429
 21
45.4571
  0
LINE
  8
0
 10
-42.8429
 20
45.4571
 11
-42.741
 21
45.3378
  0
LINE
  8
0
 10
-42.741
 20
45.3378
 11
-42.659
 21
45.204
  0
LINE
  8
0
 10
-42.659
 20
45.204
 11
-42.599
 21
45.059
  0
LINE
  8
0
 10
-42.599
 20
45.059
 11
-42.5623
 21
44.9064
  0
LINE
  8
0
 10
-42.5623
 20
44.9064
 11
-42.55
 21
44.75
  0
LINE
  8
0
 10
-42.55
 20
44.75
 11
-42.55
 21
41.55
  0
LINE
  8
0
 10
-42.55
 20
41.55
 11
-42.5623
 21
41.3936
  0
LINE
  8
0
 10
-42.5623
 20
41.3936
 11
-42.599
 21
41.241
  0
LINE
  8
0
 10
-42.599
 20
41.241
 11
-42.659
 21
41.096
  0
LINE
  8
0
 10
-42.659
 20
41.096
 11
-42.741
 21
40.9622
  0
LINE
  8
0
 10
-42.741
 20
40.9622
 11
-42.8429
 21
40.8429
  0
LINE
  8
0
 10
-42.8429
 20
40.8429
 11
-42.9622
 21
40.741
  0
LINE
  8
0
 10
-42.9622
 20
40.741
 11
-43.096
 21
40.659
  0
LINE
  8
0
 10
-43.096
 20
40.659
 11
-43.241
 21
40.599
  0
LINE
  8
0
 10
-43.241
 20
40.599
 11
-43.3936
 21
40.5623
  0
LINE
  8
0
 10
-43.3936
 20
40.5623
 11
-43.55
 21
40.55
  0
LINE
  8
0
 10
-43.55
 20
40.55
 11
-43.7064
 21
40.5623
  0
LINE
  8
0
 10
61.4796
 20
40.5623
 11
61.327
 21
40.599
  0
LINE
  8
0
 10
61.327
 20
40.599
 11
61.182
 21
40.659
  0
LINE
  8
0
 10
61.182
 20
40.659
 11
61.0482
 21
40.741
  0
LINE
  8
0
 10
61.0482
 20
40.741
 11
60.9289
 21
40.8429
  0
LINE
  8
0
 10
60.9289
 20
40.8429
 11
60.827
 21
40.9622
  0
LINE
  8
0
 10
60.827
 20
40.9622
 11
60.745
 21
41.096
  0
LINE
  8
0
 10
60.745
 20
41.096
 11
60.6849
 21
41.241
  0
LINE
  8
0
 10
60.6849
 20
41.241
 11
60.6483
 21
41.3936
  0
LINE
  8
0
 10
60.6483
 20
41.3936
 11
60.636
 21
41.55
  0
LINE
  8
0
 10
60.636
 20
41.55
 11
44.55
 21
41.55
  0
LINE
  8
0
 10
44.55
 20
41.55
 11
44.5377
 21
41.3936
  0
LINE
  8
0
 10
44.5377
 20
41.3936
 11
44.5011
 21
41.241
  0
LINE
  8
0
 10
44.5011
 20
41.241
 11
44.441
 21
41.096
  0
LINE
  8
0
 10
44.441
 20
41.096
 11
44.359
 21
40.9622
  0
LINE
  8
0
 10
44.359
 20
40.9622
 11
44.2571
 21
40.8429
  0
LINE
  8
0
 10
44.2571
 20
40.8429
 11
44.1378
 21
40.741
  0
LINE
  8
0
 10
44.1378
 20
40.741
 11
44.004
 21
40.659
  0
LINE
  8
0
 10
44.004
 20
40.659
 11
43.859
 21
40.599
  0
LINE
  8
0
 10
43.859
 20
40.599
 11
43.7064
 21
40.5623
  0
LINE
  8
0
 10
43.7064
 20
40.5623
 11
43.55
 21
40.55
  0
LINE
  8
0
 10
43.55
 20
40.55
 11
43.3936
 21
40.5623
  0
LINE
  8
0
 10
43.3936
 20
40.5623
 11
43.241
 21
40.599
  0
LINE
  8
0
 10
43.241
 20
40.599
 11
43.096
 21
40.659
  0
LINE
  8
0
 10
43.096
 20
40.659
 11
42.9622
 21
40.741
  0
LINE
  8
0
 10
42.9622
 20
40.741
 11
42.8429
 21
40.8429
  0
LINE
  8
0
 10
42.8429
 20
40.8429
 11
42.741
 21
40.9622
  0
LINE
  8
0
 10
42.741
 20
40.9622
 11
42.659
 21
41.096
  0
LINE
  8
0
 10
42.659
 20
41.096
 11
42.5989
 21
41.241
  0
LINE
  8
0
 10
42.5989
 20
41.241
 11
42.5623
 21
41.3936
  0
LINE
  8
0
 10
42.5623
 20
41.3936
 11
42.55
 21
41.55
  0
LINE
  8
0
 10
42.55
 20
41.55
 11
42.55
 21
44.75
  0
LINE
  8
0
 10
42.55
 20
44.75
 11
42.5623
 21
44.9064
  0
LINE
  8
0
 10
42.5623
 20
44.9064
 11
42.5989
 21
45.059
  0
LINE
  8
0
 10
42.5989
 20
45.059
 11
42.659
 21
45.204
  0
LINE
  8
0
 10
42.659
 20
45.204
 11
42.741
 21
45.3378
  0
LINE
  8
0
 10
42.741
 20
45.3378
 11
42.8429
 21
45.4571
  0
LINE
  8
0
 10
42.8429
 20
45.4571
 11
42.9622
 21
45.559
  0
LINE
  8
0
 10
42.9622
 20
45.559
 11
43.096
 21
45.641
  0
LINE
  8
0
 10
43.096
 20
45.641
 11
43.241
 21
45.701
  0
LINE
  8
0
 10
43.241
 20
45.701
 11
43.3936
 21
45.7377
  0
LINE
  8
0
 10
43.3936
 20
45.7377
 11
43.55
 21
45.75
  0
LINE
  8
0
 10
43.55
 20
45.75
 11
43.7064
 21
45.7377
  0
LINE
  8
0
 10
43.7064
 20
45.7377
 11
43.859
 21
45.701
  0
LINE
  8
0
 10
43.859
 20
45.701
 11
44.004
 21
45.641
  0
LINE
  8
0
 10
44.004
 20
45.641
 11
44.1378
 21
45.559
  0
LINE
  8
0
 10
44.1378
 20
45.559
 11
44.2571
 21
45.4571
  0
LINE
  8
0
 10
44.2571
 20
45.4571
 11
44.359
 21
45.3378
  0
LINE
  8
0
 10
44.359
 20
45.3378
 11
44.441
 21
45.204
  0
LINE
  8
0
 10
44.441
 20
45.204
 11
44.5011
 21
45.059
  0
LINE
  8
0
 10
44.5011
 20
45.059
 11
44.5377
 21
44.9064
  0
LINE
  8
0
 10
44.5377
 20
44.9064
 11
44.55
 21
44.75
  0
LINE
  8
0
 10
44.55
 20
44.75
 11
60.636
 21
44.75
  0
LINE
  8
0
 10
60.636
 20
44.75
 11
60.6483
 21
44.9064
  0
LINE
  8
0
 10
60.6483
 20
44.9064
 11
60.6849
 21
45.059
  0
LINE
  8
0
 10
60.6849
 20
45.059
 11
60.745
 21
45.204
  0
LINE
  8
0
 10
60.745
 20
45.204
 11
60.827
 21
45.3378
  0
LINE
  8
0
 10
60.827
 20
45.3378
 11
60.9289
 21
45.4571
  0
LINE
  8
0
 10
60.9289
 20
45.4571
 11
61.0482
 21
45.559
  0
LINE
  8
0
 10
61.0482
 20
45.559
 11
61.182
 21
45.641
  0
LINE
  8
0
 10
61.182
 20
45.641
 11
61.327
 21
45.701
  0
LINE
  8
0
 10
61.327
 20
45.701
 11
61.4796
 21
45.7377
  0
LINE
  8
0
 10
61.4796
 20
45.7377
 11
61.636
 21
45.75
  0
LINE
  8
0
 10
61.636
 20
45.75
 11
61.7924
 21
45.7377
  0
LINE
  8
0
 10
61.7924
 20
45.7377
 11
61.945
 21
45.701
  0
LINE
  8
0
 10
61.945
 20
45.701
 11
62.09
 21
45.641
  0
LINE
  8
0
 10
62.09
 20
45.641
 11
62.2238
 21
45.559
  0
LINE
  8
0
 10
62.2238
 20
45.559
 11
62.3431
 21
45.4571
  0
LINE
  8
0
 10
62.3431
 20
45.4571
 11
62.445
 21
45.3378
  0
LINE
  8
0
 10
62.445
 20
45.3378
 11
62.527
 21
45.204
  0
LINE
  8
0
 10
62.527
 20
45.204
 11
62.587
 21
45.059
  0
LINE
  8
0
 10
62.587
 20
45.059
 11
62.6237
 21
44.9064
  0
LINE
  8
0
 10
62.6237
 20
44.9064
 11
62.636
 21
44.75
  0
LINE
  8
0
 10
62.636
 20
44.75
 11
62.636
 21
41.55
  0
LINE
  8
0
 10
62.636
 20
41.55
 11
62.6237
 21
41.3936
  0
LINE
  8
0
 10
62.6237
 20
41.3936
 11
62.587
 21
41.241
  0
LINE
  8
0
 10
62.587
 20
41.241
 11
62.527
 21
41.096
  0
LINE
  8
0
 10
62.527
 20
41.096
 11
62.445
 21
40.9622
  0
LINE
  8
0
 10
62.445
 20
40.9622
 11
62.3431
 21
40.8429
  0
LINE
  8
0
 10
62.3431
 20
40.8429
 11
62.2238
 21
40.741
  0
LINE
  8
0
 10
62.2238
 20
40.741
 11
62.09
 21
40.659
  0
LINE
  8
0
 10
62.09
 20
40.659
 11
61.945
 21
40.599
  0
LINE
  8
0
 10
61.945
 20
40.599
 11
61.7924
 21
40.5623
  0
LINE
  8
0
 10
61.7924
 20
40.5623
 11
61.636
 21
40.55
  0
LINE
  8
0
 10
61.636
 20
40.55
 11
61.4796
 21
40.5623
  0
LINE
  8
0
 10
-54.576
 20
27.6665
 11
-54.5761
 21
36.5
  0
LINE
  8
0
 10
-54.5761
 20
36.5
 11
-50.8017
 21
36.5001
  0
LINE
  8
0
 10
-50.8017
 20
36.5001
 11
-50.8017
 21
27.6665
  0
LINE
  8
0
 10
-50.8017
 20
27.6665
 11
-54.576
 21
27.6665
  0
LINE
  8
0
 10
50.8017
 20
27.6665
 11
50.8016
 21
36.5
  0
LINE
  8
0
 10
50.8016
 20
36.5
 11
54.576
 21
36.5001
  0
LINE
  8
0
 10
54.576
 20
36.5001
 11
54.576
 21
27.6665
  0
LINE
  8
0
 10
54.576
 20
27.6665
 11
50.8017
 21
27.6665
  0
LINE
  8
0
 10
64.686
 20
30.5
 11
64.686
 21
34.5
  0
LINE
  8
0
 10
64.686
 20
34.5
 11
66.686
 21
34.5
  0
LINE
  8
0
 10
66.686
 20
34.5
 11
66.686
 21
30.5
  0
LINE
  8
0
 10
66.686
 20
30.5
 11
64.686
 21
30.5
  0
LINE
  8
0
 10
-66.686
 20
30.5
 11
-66.686
 21
34.5
  0
LINE
  8
0
 10
-66.686
 20
34.5
 11
-64.686
 21
34.5
  0
LINE
  8
0
 10
-64.686
 20
34.5
 11
-64.686
 21
30.5
  0
LINE
  8
0
 10
-64.686
 20
30.5
 11
-66.686
 21
30.5
  0
LINE
  8
0
 10
28.8823
 20
10.2046
 11
28.7653
 21
10.2185
  0
LINE
  8
0
 10
28.7653
 20
10.2185
 11
28.6498
 21
10.2414
  0
LINE
  8
0
 10
28.6498
 20
10.2414
 11
28.5365
 21
10.2734
  0
LINE
  8
0
 10
28.5365
 20
10.2734
 11
28.426
 21
10.3142
  0
LINE
  8
0
 10
28.426
 20
10.3142
 11
28.319
 21
10.3635
  0
LINE
  8
0
 10
28.319
 20
10.3635
 11
28.2162
 21
10.421
  0
LINE
  8
0
 10
28.2162
 20
10.421
 11
28.1183
 21
10.4865
  0
LINE
  8
0
 10
28.1183
 20
10.4865
 11
28.0258
 21
10.5594
  0
LINE
  8
0
 10
28.0258
 20
10.5594
 11
27.9393
 21
10.6393
  0
LINE
  8
0
 10
27.9393
 20
10.6393
 11
27.8594
 21
10.7258
  0
LINE
  8
0
 10
27.8594
 20
10.7258
 11
27.7865
 21
10.8183
  0
LINE
  8
0
 10
27.7865
 20
10.8183
 11
27.721
 21
10.9162
  0
LINE
  8
0
 10
27.721
 20
10.9162
 11
27.6635
 21
11.019
  0
LINE
  8
0
 10
27.6635
 20
11.019
 11
27.6142
 21
11.126
  0
LINE
  8
0
 10
27.6142
 20
11.126
 11
27.5734
 21
11.2365
  0
LINE
  8
0
 10
27.5734
 20
11.2365
 11
27.5414
 21
11.3498
  0
LINE
  8
0
 10
27.5414
 20
11.3498
 11
27.5185
 21
11.4653
  0
LINE
  8
0
 10
27.5185
 20
11.4653
 11
27.5046
 21
11.5823
  0
LINE
  8
0
 10
27.5046
 20
11.5823
 11
27.5
 21
11.7
  0
LINE
  8
0
 10
27.5
 20
11.7
 11
27.5
 21
29.7
  0
LINE
  8
0
 10
27.5
 20
29.7
 11
27.5046
 21
29.8177
  0
LINE
  8
0
 10
27.5046
 20
29.8177
 11
27.5185
 21
29.9346
  0
LINE
  8
0
 10
27.5185
 20
29.9346
 11
27.5414
 21
30.0502
  0
LINE
  8
0
 10
27.5414
 20
30.0502
 11
27.5734
 21
30.1635
  0
LINE
  8
0
 10
27.5734
 20
30.1635
 11
27.6142
 21
30.274
  0
LINE
  8
0
 10
27.6142
 20
30.274
 11
27.6635
 21
30.381
  0
LINE
  8
0
 10
27.6635
 20
30.381
 11
27.721
 21
30.4837
  0
LINE
  8
0
 10
27.721
 20
30.4837
 11
27.7865
 21
30.5817
  0
LINE
  8
0
 10
27.7865
 20
30.5817
 11
27.8594
 21
30.6742
  0
LINE
  8
0
 10
27.8594
 20
30.6742
 11
27.9393
 21
30.7607
  0
LINE
  8
0
 10
27.9393
 20
30.7607
 11
28.0258
 21
30.8406
  0
LINE
  8
0
 10
28.0258
 20
30.8406
 11
28.1183
 21
30.9135
  0
LINE
  8
0
 10
28.1183
 20
30.9135
 11
28.2162
 21
30.979
  0
LINE
  8
0
 10
28.2162
 20
30.979
 11
28.319
 21
31.0365
  0
LINE
  8
0
 10
28.319
 20
31.0365
 11
28.426
 21
31.0858
  0
LINE
  8
0
 10
28.426
 20
31.0858
 11
28.5365
 21
31.1266
  0
LINE
  8
0
 10
28.5365
 20
31.1266
 11
28.6498
 21
31.1586
  0
LINE
  8
0
 10
28.6498
 20
31.1586
 11
28.7653
 21
31.1815
  0
LINE
  8
0
 10
28.7653
 20
31.1815
 11
28.8823
 21
31.1954
  0
LINE
  8
0
 10
28.8823
 20
31.1954
 11
29
 21
31.2
  0
LINE
  8
0
 10
29
 20
31.2
 11
29.1177
 21
31.1954
  0
LINE
  8
0
 10
29.1177
 20
31.1954
 11
29.2346
 21
31.1815
  0
LINE
  8
0
 10
29.2346
 20
31.1815
 11
29.3502
 21
31.1586
  0
LINE
  8
0
 10
29.3502
 20
31.1586
 11
29.4635
 21
31.1266
  0
LINE
  8
0
 10
29.4635
 20
31.1266
 11
29.574
 21
31.0858
  0
LINE
  8
0
 10
29.574
 20
31.0858
 11
29.681
 21
31.0365
  0
LINE
  8
0
 10
29.681
 20
31.0365
 11
29.7837
 21
30.979
  0
LINE
  8
0
 10
29.7837
 20
30.979
 11
29.8817
 21
30.9135
  0
LINE
  8
0
 10
29.8817
 20
30.9135
 11
29.9742
 21
30.8406
  0
LINE
  8
0
 10
29.9742
 20
30.8406
 11
30.0607
 21
30.7607
  0
LINE
  8
0
 10
30.0607
 20
30.7607
 11
30.1406
 21
30.6742
  0
LINE
  8
0
 10
30.1406
 20
30.6742
 11
30.2135
 21
30.5817
  0
LINE
  8
0
 10
30.2135
 20
30.5817
 11
30.2789
 21
30.4837
  0
LINE
  8
0
 10
30.2789
 20
30.4837
 11
30.3365
 21
30.381
  0
LINE
  8
0
 10
30.3365
 20
30.381
 11
30.3858
 21
30.274
  0
LINE
  8
0
 10
30.3858
 20
30.274
 11
30.4266
 21
30.1635
  0
LINE
  8
0
 10
30.4266
 20
30.1635
 11
30.4585
 21
30.0502
  0
LINE
  8
0
 10
30.4585
 20
30.0502
 11
30.4815
 21
29.9346
  0
LINE
  8
0
 10
30.4815
 20
29.9346
 11
30.4954
 21
29.8177
  0
LINE
  8
0
 10
30.4954
 20
29.8177
 11
30.5
 21
29.7
  0
LINE
  8
0
 10
30.5
 20
29.7
 11
30.5
 21
11.7
  0
LINE
  8
0
 10
30.5
 20
11.7
 11
30.4954
 21
11.5823
  0
LINE
  8
0
 10
30.4954
 20
11.5823
 11
30.4815
 21
11.4653
  0
LINE
  8
0
 10
30.4815
 20
11.4653
 11
30.4585
 21
11.3498
  0
LINE
  8
0
 10
30.4585
 20
11.3498
 11
30.4266
 21
11.2365
  0
LINE
  8
0
 10
30.4266
 20
11.2365
 11
30.3858
 21
11.126
  0
LINE
  8
0
 10
30.3858
 20
11.126
 11
30.3365
 21
11.019
  0
LINE
  8
0
 10
30.3365
 20
11.019
 11
30.2789
 21
10.9162
  0
LINE
  8
0
 10
30.2789
 20
10.9162
 11
30.2135
 21
10.8183
  0
LINE
  8
0
 10
30.2135
 20
10.8183
 11
30.1406
 21
10.7258
  0
LINE
  8
0
 10
30.1406
 20
10.7258
 11
30.0607
 21
10.6393
  0
LINE
  8
0
 10
30.0607
 20
10.6393
 11
29.9742
 21
10.5594
  0
LINE
  8
0
 10
29.9742
 20
10.5594
 11
29.8817
 21
10.4865
  0
LINE
  8
0
 10
29.8817
 20
10.4865
 11
29.7837
 21
10.421
  0
LINE
  8
0
 10
29.7837
 20
10.421
 11
29.681
 21
10.3635
  0
LINE
  8
0
 10
29.681
 20
10.3635
 11
29.574
 21
10.3142
  0
LINE
  8
0
 10
29.574
 20
10.3142
 11
29.4635
 21
10.2734
  0
LINE
  8
0
 10
29.4635
 20
10.2734
 11
29.3502
 21
10.2414
  0
LINE
  8
0
 10
29.3502
 20
10.2414
 11
29.2346
 21
10.2185
  0
LINE
  8
0
 10
29.2346
 20
10.2185
 11
29.1177
 21
10.2046
  0
LINE
  8
0
 10
29.1177
 20
10.2046
 11
29
 21
10.2
  0
LINE
  8
0
 10
29
 20
10.2
 11
28.8823
 21
10.2046
  0
LINE
  8
0
 10
-29.1177
 20
10.2046
 11
-29.2346
 21
10.2185
  0
LINE
  8
0
 10
-29.2346
 20
10.2185
 11
-29.3502
 21
10.2414
  0
LINE
  8
0
 10
-29.3502
 20
10.2414
 11
-29.4635
 21
10.2734
  0
LINE
  8
0
 10
-29.4635
 20
10.2734
 11
-29.574
 21
10.3142
  0
LINE
  8
0
 10
-29.574
 20
10.3142
 11
-29.681
 21
10.3635
  0
LINE
  8
0
 10
-29.681
 20
10.3635
 11
-29.7837
 21
10.421
  0
LINE
  8
0
 10
-29.7837
 20
10.421
 11
-29.8817
 21
10.4865
  0
LINE
  8
0
 10
-29.8817
 20
10.4865
 11
-29.9742
 21
10.5594
  0
LINE
  8
0
 10
-29.9742
 20
10.5594
 11
-30.0607
 21
10.6393
  0
LINE
  8
0
 10
-30.0607
 20
10.6393
 11
-30.1406
 21
10.7258
  0
LINE
  8
0
 10
-30.1406
 20
10.7258
 11
-30.2135
 21
10.8183
  0
LINE
  8
0
 10
-30.2135
 20
10.8183
 11
-30.2789
 21
10.9162
  0
LINE
  8
0
 10
-30.2789
 20
10.9162
 11
-30.3365
 21
11.019
  0
LINE
  8
0
 10
-30.3365
 20
11.019
 11
-30.3858
 21
11.126
  0
LINE
  8
0
 10
-30.3858
 20
11.126
 11
-30.4266
 21
11.2365
  0
LINE
  8
0
 10
-30.4266
 20
11.2365
 11
-30.4585
 21
11.3498
  0
LINE
  8
0
 10
-30.4585
 20
11.3498
 11
-30.4815
 21
11.4653
  0
LINE
  8
0
 10
-30.4815
 20
11.4653
 11
-30.4954
 21
11.5823
  0
LINE
  8
0
 10
-30.4954
 20
11.5823
 11
-30.5
 21
11.7
  0
LINE
  8
0
 10
-30.5
 20
11.7
 11
-30.5
 21
29.7
  0
LINE
  8
0
 10
-30.5
 20
29.7
 11
-30.4954
 21
29.8177
  0
LINE
  8
0
 10
-30.4954
 20
29.8177
 11
-30.4815
 21
29.9346
  0
LINE
  8
0
 10
-30.4815
 20
29.9346
 11
-30.4585
 21
30.0502
  0
LINE
  8
0
 10
-30.4585
 20
30.0502
 11
-30.4266
 21
30.1635
  0
LINE
  8
0
 10
-30.4266
 20
30.1635
 11
-30.3858
 21
30.274
  0
LINE
  8
0
 10
-30.3858
 20
30.274
 11
-30.3365
 21
30.381
  0
LINE
  8
0
 10
-30.3365
 20
30.381
 11
-30.2789
 21
30.4837
  0
LINE
  8
0
 10
-30.2789
 20
30.4837
 11
-30.2135
 21
30.5817
  0
LINE
  8
0
 10
-30.2135
 20
30.5817
 11
-30.1406
 21
30.6742
  0
LINE
  8
0
 10
-30.1406
 20
30.6742
 11
-30.0607
 21
30.7607
  0
LINE
  8
0
 10
-30.0607
 20
30.7607
 11
-29.9742
 21
30.8406
  0
LINE
  8
0
 10
-29.9742
 20
30.8406
 11
-29.8817
 21
30.9135
  0
LINE
  8
0
 10
-29.8817
 20
30.9135
 11
-29.7837
 21
30.979
  0
LINE
  8
0
 10
-29.7837
 20
30.979
 11
-29.681
 21
31.0365
  0
LINE
  8
0
 10
-29.681
 20
31.0365
 11
-29.574
 21
31.0858
  0
LINE
  8
0
 10
-29.574
 20
31.0858
 11
-29.4635
 21
31.1266
  0
LINE
  8
0
 10
-29.4635
 20
31.1266
 11
-29.3502
 21
31.1586
  0
LINE
  8
0
 10
-29.3502
 20
31.1586
 11
-29.2346
 21
31.1815
  0
LINE
  8
0
 10
-29.2346
 20
31.1815
 11
-29.1177
 21
31.1954
  0
LINE
  8
0
 10
-29.1177
 20
31.1954
 11
-29
 21
31.2
  0
LINE
  8
0
 10
-29
 20
31.2
 11
-28.8823
 21
31.1954
  0
LINE
  8
0
 10
-28.8823
 20
31.1954
 11
-28.7653
 21
31.1815
  0
LINE
  8
0
 10
-28.7653
 20
31.1815
 11
-28.6498
 21
31.1586
  0
LINE
  8
0
 10
-28.6498
 20
31.1586
 11
-28.5365
 21
31.1266
  0
LINE
  8
0
 10
-28.5365
 20
31.1266
 11
-28.426
 21
31.0858
  0
LINE
  8
0
 10
-28.426
 20
31.0858
 11
-28.319
 21
31.0365
  0
LINE
  8
0
 10
-28.319
 20
31.0365
 11
-28.2162
 21
30.979
  0
LINE
  8
0
 10
-28.2162
 20
30.979
 11
-28.1183
 21
30.9135
  0
LINE
  8
0
 10
-28.1183
 20
30.9135
 11
-28.0258
 21
30.8406
  0
LINE
  8
0
 10
-28.0258
 20
30.8406
 11
-27.9393
 21
30.7607
  0
LINE
  8
0
 10
-27.9393
 20
30.7607
 11
-27.8594
 21
30.6742
  0
LINE
  8
0
 10
-27.8594
 20
30.6742
 11
-27.7865
 21
30.5817
  0
LINE
  8
0
 10
-27.7865
 20
30.5817
 11
-27.721
 21
30.4837
  0
LINE
  8
0
 10
-27.721
 20
30.4837
 11
-27.6635
 21
30.381
  0
LINE
  8
0
 10
-27.6635
 20
30.381
 11
-27.6142
 21
30.274
  0
LINE
  8
0
 10
-27.6142
 20
30.274
 11
-27.5734
 21
30.1635
  0
LINE
  8
0
 10
-27.5734
 20
30.1635
 11
-27.5414
 21
30.0502
  0
LINE
  8
0
 10
-27.5414
 20
30.0502
 11
-27.5185
 21
29.9346
  0
LINE
  8
0
 10
-27.5185
 20
29.9346
 11
-27.5046
 21
29.8177
  0
LINE
  8
0
 10
-27.5046
 20
29.8177
 11
-27.5
 21
29.7
  0
LINE
  8
0
 10
-27.5
 20
29.7
 11
-27.5
 21
11.7
  0
LINE
  8
0
 10
-27.5
 20
11.7
 11
-27.5046
 21
11.5823
  0
LINE
  8
0
 10
-27.5046
 20
11.5823
 11
-27.5185
 21
11.4653
  0
LINE
  8
0
 10
-27.5185
 20
11.4653
 11
-27.5414
 21
11.3498
  0
LINE
  8
0
 10
-27.5414
 20
11.3498
 11
-27.5734
 21
11.2365
  0
LINE
  8
0
 10
-27.5734
 20
11.2365
 11
-27.6142
 21
11.126
  0
LINE
  8
0
 10
-27.6142
 20
11.126
 11
-27.6635
 21
11.019
  0
LINE
  8
0
 10
-27.6635
 20
11.019
 11
-27.721
 21
10.9162
  0
LINE
  8
0
 10
-27.721
 20
10.9162
 11
-27.7865
 21
10.8183
  0
LINE
  8
0
 10
-27.7865
 20
10.8183
 11
-27.8594
 21
10.7258
  0
LINE
  8
0
 10
-27.8594
 20
10.7258
 11
-27.9393
 21
10.6393
  0
LINE
  8
0
 10
-27.9393
 20
10.6393
 11
-28.0258
 21
10.5594
  0
LINE
  8
0
 10
-28.0258
 20
10.5594
 11
-28.1183
 21
10.4865
  0
LINE
  8
0
 10
-28.1183
 20
10.4865
 11
-28.2162
 21
10.421
  0
LINE
  8
0
 10
-28.2162
 20
10.421
 11
-28.319
 21
10.3635
  0
LINE
  8
0
 10
-28.319
 20
10.3635
 11
-28.426
 21
10.3142
  0
LINE
  8
0
 10
-28.426
 20
10.3142
 11
-28.5365
 21
10.2734
  0
LINE
  8
0
 10
-28.5365
 20
10.2734
 11
-28.6498
 21
10.2414
  0
LINE
  8
0
 10
-28.6498
 20
10.2414
 11
-28.7653
 21
10.2185
  0
LINE
  8
0
 10
-28.7653
 20
10.2185
 11
-28.8823
 21
10.2046
  0
LINE
  8
0
 10
-28.8823
 20
10.2046
 11
-29
 21
10.2
  0
LINE
  8
0
 10
-29
 20
10.2
 11
-29.1177
 21
10.2046
  0
LINE
  8
0
 10
47.686
 20
18.6667
 11
47.686
 21
22.6667
  0
LINE
  8
0
 10
47.686
 20
22.6667
 11
49.686
 21
22.6667
  0
LINE
  8
0
 10
49.686
 20
22.6667
 11
49.686
 21
18.6667
  0
LINE
  8
0
 10
49.686
 20
18.6667
 11
47.686
 21
18.6667
  0
LINE
  8
0
 10
-49.686
 20
18.6667
 11
-49.686
 21
22.6667
  0
LINE
  8
0
 10
-49.686
 20
22.6667
 11
-47.686
 21
22.6667
  0
LINE
  8
0
 10
-47.686
 20
22.6667
 11
-47.686
 21
18.6667
  0
LINE
  8
0
 10
-47.686
 20
18.6667
 11
-49.686
 21
18.6667
  0
LINE
  8
0
 10
56.686
 20
18.6667
 11
56.686
 21
22.6667
  0
LINE
  8
0
 10
56.686
 20
22.6667
 11
58.686
 21
22.6667
  0
LINE
  8
0
 10
58.686
 20
22.6667
 11
58.686
 21
18.6667
  0
LINE
  8
0
 10
58.686
 20
18.6667
 11
56.686
 21
18.6667
  0
LINE
  8
0
 10
-58.686
 20
18.6667
 11
-58.686
 21
22.6667
  0
LINE
  8
0
 10
-58.686
 20
22.6667
 11
-56.686
 21
22.6667
  0
LINE
  8
0
 10
-56.686
 20
22.6667
 11
-56.686
 21
18.6667
  0
LINE
  8
0
 10
-56.686
 20
18.6667
 11
-58.686
 21
18.6667
  0
LINE
  8
0
 10
50.8017
 20
-2.86661
 11
50.8016
 21
13.8333
  0
LINE
  8
0
 10
50.8016
 20
13.8333
 11
54.576
 21
13.8334
  0
LINE
  8
0
 10
54.576
 20
13.8334
 11
54.576
 21
-2.86661
  0
LINE
  8
0
 10
54.576
 20
-2.86661
 11
50.8017
 21
-2.86661
  0
LINE
  8
0
 10
-54.576
 20
-2.86661
 11
-54.5761
 21
13.8333
  0
LINE
  8
0
 10
-54.5761
 20
13.8333
 11
-50.8017
 21
13.8334
  0
LINE
  8
0
 10
-50.8017
 20
13.8334
 11
-50.8017
 21
-2.86661
  0
LINE
  8
0
 10
-50.8017
 20
-2.86661
 11
-54.576
 21
-2.86661
  0
LINE
  8
0
 10
-66.686
 20
0.843628
 11
-66.686
 21
4.84363
  0
LINE
  8
0
 10
-66.686
 20
4.84363
 11
-64.686
 21
4.84363
  0
LINE
  8
0
 10
-64.686
 20
4.84363
 11
-64.686
 21
0.843628
  0
LINE
  8
0
 10
-64.686
 20
0.843628
 11
-66.686
 21
0.843628
  0
LINE
  8
0
 10
64.686
 20
0.843628
 11
64.686
 21
4.84363
  0
LINE
  8
0
 10
64.686
 20
4.84363
 11
66.686
 21
4.84363
  0
LINE
  8
0
 10
66.686
 20
4.84363
 11
66.686
 21
0.843628
  0
LINE
  8
0
 10
66.686
 20
0.843628
 11
64.686
 21
0.843628
  0
LINE
  8
0
 10
-29.1177
 20
-21.7954
 11
-29.2346
 21
-21.7815
  0
LINE
  8
0
 10
-29.2346
 20
-21.7815
 11
-29.3502
 21
-21.7585
  0
LINE
  8
0
 10
-29.3502
 20
-21.7585
 11
-29.4635
 21
-21.7266
  0
LINE
  8
0
 10
-29.4635
 20
-21.7266
 11
-29.574
 21
-21.6858
  0
LINE
  8
0
 10
-29.574
 20
-21.6858
 11
-29.681
 21
-21.6365
  0
LINE
  8
0
 10
-29.681
 20
-21.6365
 11
-29.7837
 21
-21.5789
  0
LINE
  8
0
 10
-29.7837
 20
-21.5789
 11
-29.8817
 21
-21.5135
  0
LINE
  8
0
 10
-29.8817
 20
-21.5135
 11
-29.9742
 21
-21.4406
  0
LINE
  8
0
 10
-29.9742
 20
-21.4406
 11
-30.0607
 21
-21.3607
  0
LINE
  8
0
 10
-30.0607
 20
-21.3607
 11
-30.1406
 21
-21.2742
  0
LINE
  8
0
 10
-30.1406
 20
-21.2742
 11
-30.2135
 21
-21.1817
  0
LINE
  8
0
 10
-30.2135
 20
-21.1817
 11
-30.2789
 21
-21.0837
  0
LINE
  8
0
 10
-30.2789
 20
-21.0837
 11
-30.3365
 21
-20.981
  0
LINE
  8
0
 10
-30.3365
 20
-20.981
 11
-30.3858
 21
-20.874
  0
LINE
  8
0
 10
-30.3858
 20
-20.874
 11
-30.4266
 21
-20.7635
  0
LINE
  8
0
 10
-30.4266
 20
-20.7635
 11
-30.4585
 21
-20.6502
  0
LINE
  8
0
 10
-30.4585
 20
-20.6502
 11
-30.4815
 21
-20.5346
  0
LINE
  8
0
 10
-30.4815
 20
-20.5346
 11
-30.4954
 21
-20.4177
  0
LINE
  8
0
 10
-30.4954
 20
-20.4177
 11
-30.5
 21
-20.3
  0
LINE
  8
0
 10
-30.5
 20
-20.3
 11
-30.5
 21
-2.29999
  0
LINE
  8
0
 10
-30.5
 20
-2.29999
 11
-30.4954
 21
-2.1823
  0
LINE
  8
0
 10
-30.4954
 20
-2.1823
 11
-30.4815
 21
-2.06534
  0
LINE
  8
0
 10
-30.4815
 20
-2.06534
 11
-30.4585
 21
-1.94983
  0
LINE
  8
0
 10
-30.4585
 20
-1.94983
 11
-30.4266
 21
-1.83647
  0
LINE
  8
0
 10
-30.4266
 20
-1.83647
 11
-30.3858
 21
-1.72597
  0
LINE
  8
0
 10
-30.3858
 20
-1.72597
 11
-30.3365
 21
-1.619
  0
LINE
  8
0
 10
-30.3365
 20
-1.619
 11
-30.2789
 21
-1.51625
  0
LINE
  8
0
 10
-30.2789
 20
-1.51625
 11
-30.2135
 21
-1.41832
  0
LINE
  8
0
 10
-30.2135
 20
-1.41832
 11
-30.1406
 21
-1.32582
  0
LINE
  8
0
 10
-30.1406
 20
-1.32582
 11
-30.0607
 21
-1.23933
  0
LINE
  8
0
 10
-30.0607
 20
-1.23933
 11
-29.9742
 21
-1.15938
  0
LINE
  8
0
 10
-29.9742
 20
-1.15938
 11
-29.8817
 21
-1.08647
  0
LINE
  8
0
 10
-29.8817
 20
-1.08647
 11
-29.7837
 21
-1.02103
  0
LINE
  8
0
 10
-29.7837
 20
-1.02103
 11
-29.681
 21
-0.963486
  0
LINE
  8
0
 10
-29.681
 20
-0.963486
 11
-29.574
 21
-0.914169
  0
LINE
  8
0
 10
-29.574
 20
-0.914169
 11
-29.4635
 21
-0.873413
  0
LINE
  8
0
 10
-29.4635
 20
-0.873413
 11
-29.3502
 21
-0.841431
  0
LINE
  8
0
 10
-29.3502
 20
-0.841431
 11
-29.2346
 21
-0.818466
  0
LINE
  8
0
 10
-29.2346
 20
-0.818466
 11
-29.1177
 21
-0.804611
  0
LINE
  8
0
 10
-29.1177
 20
-0.804611
 11
-29
 21
-0.799988
  0
LINE
  8
0
 10
-29
 20
-0.799988
 11
-28.8823
 21
-0.804611
  0
LINE
  8
0
 10
-28.8823
 20
-0.804611
 11
-28.7653
 21
-0.818466
  0
LINE
  8
0
 10
-28.7653
 20
-0.818466
 11
-28.6498
 21
-0.841431
  0
LINE
  8
0
 10
-28.6498
 20
-0.841431
 11
-28.5365
 21
-0.873413
  0
LINE
  8
0
 10
-28.5365
 20
-0.873413
 11
-28.426
 21
-0.914169
  0
LINE
  8
0
 10
-28.426
 20
-0.914169
 11
-28.319
 21
-0.963486
  0
LINE
  8
0
 10
-28.319
 20
-0.963486
 11
-28.2162
 21
-1.02103
  0
LINE
  8
0
 10
-28.2162
 20
-1.02103
 11
-28.1183
 21
-1.08647
  0
LINE
  8
0
 10
-28.1183
 20
-1.08647
 11
-28.0258
 21
-1.15938
  0
LINE
  8
0
 10
-28.0258
 20
-1.15938
 11
-27.9393
 21
-1.23933
  0
LINE
  8
0
 10
-27.9393
 20
-1.23933
 11
-27.8594
 21
-1.32582
  0
LINE
  8
0
 10
-27.8594
 20
-1.32582
 11
-27.7865
 21
-1.41832
  0
LINE
  8
0
 10
-27.7865
 20
-1.41832
 11
-27.721
 21
-1.51625
  0
LINE
  8
0
 10
-27.721
 20
-1.51625
 11
-27.6635
 21
-1.619
  0
LINE
  8
0
 10
-27.6635
 20
-1.619
 11
-27.6142
 21
-1.72597
  0
LINE
  8
0
 10
-27.6142
 20
-1.72597
 11
-27.5734
 21
-1.83647
  0
LINE
  8
0
 10
-27.5734
 20
-1.83647
 11
-27.5414
 21
-1.94983
  0
LINE
  8
0
 10
-27.5414
 20
-1.94983
 11
-27.5185
 21
-2.06534
  0
LINE
  8
0
 10
-27.5185
 20
-2.06534
 11
-27.5046
 21
-2.1823
  0
LINE
  8
0
 10
-27.5046
 20
-2.1823
 11
-27.5
 21
-2.29999
  0
LINE
  8
0
 10
-27.5
 20
-2.29999
 11
-27.5
 21
-20.3
  0
LINE
  8
0
 10
-27.5
 20
-20.3
 11
-27.5046
 21
-20.4177
  0
LINE
  8
0
 10
-27.5046
 20
-20.4177
 11
-27.5185
 21
-20.5346
  0
LINE
  8
0
 10
-27.5185
 20
-20.5346
 11
-27.5414
 21
-20.6502
  0
LINE
  8
0
 10
-27.5414
 20
-20.6502
 11
-27.5734
 21
-20.7635
  0
LINE
  8
0
 10
-27.5734
 20
-20.7635
 11
-27.6142
 21
-20.874
  0
LINE
  8
0
 10
-27.6142
 20
-20.874
 11
-27.6635
 21
-20.981
  0
LINE
  8
0
 10
-27.6635
 20
-20.981
 11
-27.721
 21
-21.0837
  0
LINE
  8
0
 10
-27.721
 20
-21.0837
 11
-27.7865
 21
-21.1817
  0
LINE
  8
0
 10
-27.7865
 20
-21.1817
 11
-27.8594
 21
-21.2742
  0
LINE
  8
0
 10
-27.8594
 20
-21.2742
 11
-27.9393
 21
-21.3607
  0
LINE
  8
0
 10
-27.9393
 20
-21.3607
 11
-28.0258
 21
-21.4406
  0
LINE
  8
0
 10
-28.0258
 20
-21.4406
 11
-28.1183
 21
-21.5135
  0
LINE
  8
0
 10
-28.1183
 20
-21.5135
 11
-28.2162
 21
-21.5789
  0
LINE
  8
0
 10
-28.2162
 20
-21.5789
 11
-28.319
 21
-21.6365
  0
LINE
  8
0
 10
-28.319
 20
-21.6365
 11
-28.426
 21
-21.6858
  0
LINE
  8
0
 10
-28.426
 20
-21.6858
 11
-28.5365
 21
-21.7266
  0
LINE
  8
0
 10
-28.5365
 20
-21.7266
 11
-28.6498
 21
-21.7585
  0
LINE
  8
0
 10
-28.6498
 20
-21.7585
 11
-28.7653
 21
-21.7815
  0
LINE
  8
0
 10
-28.7653
 20
-21.7815
 11
-28.8823
 21
-21.7954
  0
LINE
  8
0
 10
-28.8823
 20
-21.7954
 11
-29
 21
-21.8
  0
LINE
  8
0
 10
-29
 20
-21.8
 11
-29.1177
 21
-21.7954
  0
LINE
  8
0
 10
28.8823
 20
-21.7954
 11
28.7653
 21
-21.7815
  0
LINE
  8
0
 10
28.7653
 20
-21.7815
 11
28.6498
 21
-21.7585
  0
LINE
  8
0
 10
28.6498
 20
-21.7585
 11
28.5365
 21
-21.7266
  0
LINE
  8
0
 10
28.5365
 20
-21.7266
 11
28.426
 21
-21.6858
  0
LINE
  8
0
 10
28.426
 20
-21.6858
 11
28.319
 21
-21.6365
  0
LINE
  8
0
 10
28.319
 20
-21.6365
 11
28.2162
 21
-21.5789
  0
LINE
  8
0
 10
28.2162
 20
-21.5789
 11
28.1183
 21
-21.5135
  0
LINE
  8
0
 10
28.1183
 20
-21.5135
 11
28.0258
 21
-21.4406
  0
LINE
  8
0
 10
28.0258
 20
-21.4406
 11
27.9393
 21
-21.3607
  0
LINE
  8
0
 10
27.9393
 20
-21.3607
 11
27.8594
 21
-21.2742
  0
LINE
  8
0
 10
27.8594
 20
-21.2742
 11
27.7865
 21
-21.1817
  0
LINE
  8
0
 10
27.7865
 20
-21.1817
 11
27.721
 21
-21.0837
  0
LINE
  8
0
 10
27.721
 20
-21.0837
 11
27.6635
 21
-20.981
  0
LINE
  8
0
 10
27.6635
 20
-20.981
 11
27.6142
 21
-20.874
  0
LINE
  8
0
 10
27.6142
 20
-20.874
 11
27.5734
 21
-20.7635
  0
LINE
  8
0
 10
27.5734
 20
-20.7635
 11
27.5414
 21
-20.6502
  0
LINE
  8
0
 10
27.5414
 20
-20.6502
 11
27.5185
 21
-20.5346
  0
LINE
  8
0
 10
27.5185
 20
-20.5346
 11
27.5046
 21
-20.4177
  0
LINE
  8
0
 10
27.5046
 20
-20.4177
 11
27.5
 21
-20.3
  0
LINE
  8
0
 10
27.5
 20
-20.3
 11
27.5
 21
-2.29999
  0
LINE
  8
0
 10
27.5
 20
-2.29999
 11
27.5046
 21
-2.1823
  0
LINE
  8
0
 10
27.5046
 20
-2.1823
 11
27.5185
 21
-2.06534
  0
LINE
  8
0
 10
27.5185
 20
-2.06534
 11
27.5414
 21
-1.94983
  0
LINE
  8
0
 10
27.5414
 20
-1.94983
 11
27.5734
 21
-1.83647
  0
LINE
  8
0
 10
27.5734
 20
-1.83647
 11
27.6142
 21
-1.72597
  0
LINE
  8
0
 10
27.6142
 20
-1.72597
 11
27.6635
 21
-1.619
  0
LINE
  8
0
 10
27.6635
 20
-1.619
 11
27.721
 21
-1.51625
  0
LINE
  8
0
 10
27.721
 20
-1.51625
 11
27.7865
 21
-1.41832
  0
LINE
  8
0
 10
27.7865
 20
-1.41832
 11
27.8594
 21
-1.32582
  0
LINE
  8
0
 10
27.8594
 20
-1.32582
 11
27.9393
 21
-1.23933
  0
LINE
  8
0
 10
27.9393
 20
-1.23933
 11
28.0258
 21
-1.15938
  0
LINE
  8
0
 10
28.0258
 20
-1.15938
 11
28.1183
 21
-1.08647
  0
LINE
  8
0
 10
28.1183
 20
-1.08647
 11
28.2162
 21
-1.02103
  0
LINE
  8
0
 10
28.2162
 20
-1.02103
 11
28.319
 21
-0.963486
  0
LINE
  8
0
 10
28.319
 20
-0.963486
 11
28.426
 21
-0.914169
  0
LINE
  8
0
 10
28.426
 20
-0.914169
 11
28.5365
 21
-0.873413
  0
LINE
  8
0
 10
28.5365
 20
-0.873413
 11
28.6498
 21
-0.841431
  0
LINE
  8
0
 10
28.6498
 20
-0.841431
 11
28.7653
 21
-0.818466
  0
LINE
  8
0
 10
28.7653
 20
-0.818466
 11
28.8823
 21
-0.804611
  0
LINE
  8
0
 10
28.8823
 20
-0.804611
 11
29
 21
-0.799988
  0
LINE
  8
0
 10
29
 20
-0.799988
 11
29.1177
 21
-0.804611
  0
LINE
  8
0
 10
29.1177
 20
-0.804611
 11
29.2346
 21
-0.818466
  0
LINE
  8
0
 10
29.2346
 20
-0.818466
 11
29.3502
 21
-0.841431
  0
LINE
  8
0
 10
29.3502
 20
-0.841431
 11
29.4635
 21
-0.873413
  0
LINE
  8
0
 10
29.4635
 20
-0.873413
 11
29.574
 21
-0.914169
  0
LINE
  8
0
 10
29.574
 20
-0.914169
 11
29.681
 21
-0.963486
  0
LINE
  8
0
 10
29.681
 20
-0.963486
 11
29.7837
 21
-1.02103
  0
LINE
  8
0
 10
29.7837
 20
-1.02103
 11
29.8817
 21
-1.08647
  0
LINE
  8
0
 10
29.8817
 20
-1.08647
 11
29.9742
 21
-1.15938
  0
LINE
  8
0
 10
29.9742
 20
-1.15938
 11
30.0607
 21
-1.23933
  0
LINE
  8
0
 10
30.0607
 20
-1.23933
 11
30.1406
 21
-1.32582
  0
LINE
  8
0
 10
30.1406
 20
-1.32582
 11
30.2135
 21
-1.41832
  0
LINE
  8
0
 10
30.2135
 20
-1.41832
 11
30.2789
 21
-1.51625
  0
LINE
  8
0
 10
30.2789
 20
-1.51625
 11
30.3365
 21
-1.619
  0
LINE
  8
0
 10
30.3365
 20
-1.619
 11
30.3858
 21
-1.72597
  0
LINE
  8
0
 10
30.3858
 20
-1.72597
 11
30.4266
 21
-1.83647
  0
LINE
  8
0
 10
30.4266
 20
-1.83647
 11
30.4585
 21
-1.94983
  0
LINE
  8
0
 10
30.4585
 20
-1.94983
 11
30.4815
 21
-2.06534
  0
LINE
  8
0
 10
30.4815
 20
-2.06534
 11
30.4954
 21
-2.1823
  0
LINE
  8
0
 10
30.4954
 20
-2.1823
 11
30.5
 21
-2.29999
  0
LINE
  8
0
 10
30.5
 20
-2.29999
 11
30.5
 21
-20.3
  0
LINE
  8
0
 10
30.5
 20
-20.3
 11
30.4954
 21
-20.4177
  0
LINE
  8
0
 10
30.4954
 20
-20.4177
 11
30.4815
 21
-20.5346
  0
LINE
  8
0
 10
30.4815
 20
-20.5346
 11
30.4585
 21
-20.6502
  0
LINE
  8
0
 10
30.4585
 20
-20.6502
 11
30.4266
 21
-20.7635
  0
LINE
  8
0
 10
30.4266
 20
-20.7635
 11
30.3858
 21
-20.874
  0
LINE
  8
0
 10
30.3858
 20
-20.874
 11
30.3365
 21
-20.981
  0
LINE
  8
0
 10
30.3365
 20
-20.981
 11
30.2789
 21
-21.0837
  0
LINE
  8
0
 10
30.2789
 20
-21.0837
 11
30.2135
 21
-21.1817
  0
LINE
  8
0
 10
30.2135
 20
-21.1817
 11
30.1406
 21
-21.2742
  0
LINE
  8
0
 10
30.1406
 20
-21.2742
 11
30.0607
 21
-21.3607
  0
LINE
  8
0
 10
30.0607
 20
-21.3607
 11
29.9742
 21
-21.4406
  0
LINE
  8
0
 10
29.9742
 20
-21.4406
 11
29.8817
 21
-21.5135
  0
LINE
  8
0
 10
29.8817
 20
-21.5135
 11
29.7837
 21
-21.5789
  0
LINE
  8
0
 10
29.7837
 20
-21.5789
 11
29.681
 21
-21.6365
  0
LINE
  8
0
 10
29.681
 20
-21.6365
 11
29.574
 21
-21.6858
  0
LINE
  8
0
 10
29.574
 20
-21.6858
 11
29.4635
 21
-21.7266
  0
LINE
  8
0
 10
29.4635
 20
-21.7266
 11
29.3502
 21
-21.7585
  0
LINE
  8
0
 10
29.3502
 20
-21.7585
 11
29.2346
 21
-21.7815
  0
LINE
  8
0
 10
29.2346
 20
-21.7815
 11
29.1177
 21
-21.7954
  0
LINE
  8
0
 10
29.1177
 20
-21.7954
 11
29
 21
-21.8
  0
LINE
  8
0
 10
29
 20
-21.8
 11
28.8823
 21
-21.7954
  0
LINE
  8
0
 10
-48.3469
 20
-52.8065
 11
-48.5783
 21
-52.7636
  0
LINE
  8
0
 10
-48.5783
 20
-52.7636
 11
-48.8002
 21
-52.6851
  0
LINE
  8
0
 10
-48.8002
 20
-52.6851
 11
-49.007
 21
-52.5728
  0
LINE
  8
0
 10
-49.007
 20
-52.5728
 11
-49.1938
 21
-52.4295
  0
LINE
  8
0
 10
-49.1938
 20
-52.4295
 11
-49.3558
 21
-52.2587
  0
LINE
  8
0
 10
-49.3558
 20
-52.2587
 11
-49.4891
 21
-52.0647
  0
LINE
  8
0
 10
-49.4891
 20
-52.0647
 11
-49.5904
 21
-51.8523
  0
LINE
  8
0
 10
-49.5904
 20
-51.8523
 11
-49.6573
 21
-51.6266
  0
LINE
  8
0
 10
-49.6573
 20
-51.6266
 11
-49.688
 21
-51.3932
  0
LINE
  8
0
 10
-49.688
 20
-51.3932
 11
-49.6819
 21
-51.158
  0
LINE
  8
0
 10
-49.6819
 20
-51.158
 11
-49.639
 21
-50.9265
  0
LINE
  8
0
 10
-49.639
 20
-50.9265
 11
-49.5604
 21
-50.7047
  0
LINE
  8
0
 10
-49.5604
 20
-50.7047
 11
-49.4481
 21
-50.4978
  0
LINE
  8
0
 10
-49.4481
 20
-50.4978
 11
-49.3048
 21
-50.3111
  0
LINE
  8
0
 10
-49.3048
 20
-50.3111
 11
-49.134
 21
-50.149
  0
LINE
  8
0
 10
-49.134
 20
-50.149
 11
-48.9401
 21
-50.0157
  0
LINE
  8
0
 10
-48.9401
 20
-50.0157
 11
-48.7276
 21
-49.9144
  0
LINE
  8
0
 10
-48.7276
 20
-49.9144
 11
-48.5019
 21
-49.8475
  0
LINE
  8
0
 10
-48.5019
 20
-49.8475
 11
-48.2686
 21
-49.8168
  0
LINE
  8
0
 10
-48.2686
 20
-49.8168
 11
-48.0333
 21
-49.823
  0
LINE
  8
0
 10
-48.0333
 20
-49.823
 11
-47.8018
 21
-49.8659
  0
LINE
  8
0
 10
-47.8018
 20
-49.8659
 11
-47.58
 21
-49.9444
  0
LINE
  8
0
 10
-47.58
 20
-49.9444
 11
-47.3731
 21
-50.0567
  0
LINE
  8
0
 10
-47.3731
 20
-50.0567
 11
-47.1864
 21
-50.2
  0
LINE
  8
0
 10
-47.1864
 20
-50.2
 11
-47.0244
 21
-50.3708
  0
LINE
  8
0
 10
-47.0244
 20
-50.3708
 11
-46.891
 21
-50.5647
  0
LINE
  8
0
 10
-46.891
 20
-50.5647
 11
-46.7897
 21
-50.7772
  0
LINE
  8
0
 10
-46.7897
 20
-50.7772
 11
-46.7229
 21
-51.0029
  0
LINE
  8
0
 10
-46.7229
 20
-51.0029
 11
-46.6921
 21
-51.2363
  0
LINE
  8
0
 10
-46.6921
 20
-51.2363
 11
-46.6983
 21
-51.4715
  0
LINE
  8
0
 10
-46.6983
 20
-51.4715
 11
-46.7412
 21
-51.703
  0
LINE
  8
0
 10
-46.7412
 20
-51.703
 11
-46.8197
 21
-51.9249
  0
LINE
  8
0
 10
-46.8197
 20
-51.9249
 11
-46.9321
 21
-52.1317
  0
LINE
  8
0
 10
-46.9321
 20
-52.1317
 11
-47.0754
 21
-52.3185
  0
LINE
  8
0
 10
-47.0754
 20
-52.3185
 11
-47.2461
 21
-52.4805
  0
LINE
  8
0
 10
-47.2461
 20
-52.4805
 11
-47.4401
 21
-52.6138
  0
LINE
  8
0
 10
-47.4401
 20
-52.6138
 11
-47.6525
 21
-52.7151
  0
LINE
  8
0
 10
-47.6525
 20
-52.7151
 11
-47.8782
 21
-52.782
  0
LINE
  8
0
 10
-47.8782
 20
-52.782
 11
-48.1116
 21
-52.8127
  0
LINE
  8
0
 10
-48.1116
 20
-52.8127
 11
-48.3469
 21
-52.8065
  0
LINE
  8
0
 10
-60.6263
 20
-52.782
 11
-60.852
 21
-52.7151
  0
LINE
  8
0
 10
-60.852
 20
-52.7151
 11
-61.0644
 21
-52.6138
  0
LINE
  8
0
 10
-61.0644
 20
-52.6138
 11
-61.2584
 21
-52.4805
  0
LINE
  8
0
 10
-61.2584
 20
-52.4805
 11
-61.4291
 21
-52.3185
  0
LINE
  8
0
 10
-61.4291
 20
-52.3185
 11
-61.5724
 21
-52.1317
  0
LINE
  8
0
 10
-61.5724
 20
-52.1317
 11
-61.6847
 21
-51.9249
  0
LINE
  8
0
 10
-61.6847
 20
-51.9249
 11
-61.7633
 21
-51.703
  0
LINE
  8
0
 10
-61.7633
 20
-51.703
 11
-61.8062
 21
-51.4715
  0
LINE
  8
0
 10
-61.8062
 20
-51.4715
 11
-61.8124
 21
-51.2363
  0
LINE
  8
0
 10
-61.8124
 20
-51.2363
 11
-61.7816
 21
-51.0029
  0
LINE
  8
0
 10
-61.7816
 20
-51.0029
 11
-61.7148
 21
-50.7772
  0
LINE
  8
0
 10
-61.7148
 20
-50.7772
 11
-61.6134
 21
-50.5647
  0
LINE
  8
0
 10
-61.6134
 20
-50.5647
 11
-61.4801
 21
-50.3708
  0
LINE
  8
0
 10
-61.4801
 20
-50.3708
 11
-61.3181
 21
-50.2
  0
LINE
  8
0
 10
-61.3181
 20
-50.2
 11
-61.1314
 21
-50.0567
  0
LINE
  8
0
 10
-61.1314
 20
-50.0567
 11
-60.9245
 21
-49.9444
  0
LINE
  8
0
 10
-60.9245
 20
-49.9444
 11
-60.7026
 21
-49.8659
  0
LINE
  8
0
 10
-60.7026
 20
-49.8659
 11
-60.4712
 21
-49.823
  0
LINE
  8
0
 10
-60.4712
 20
-49.823
 11
-60.2359
 21
-49.8168
  0
LINE
  8
0
 10
-60.2359
 20
-49.8168
 11
-60.0025
 21
-49.8475
  0
LINE
  8
0
 10
-60.0025
 20
-49.8475
 11
-59.7769
 21
-49.9144
  0
LINE
  8
0
 10
-59.7769
 20
-49.9144
 11
-59.5644
 21
-50.0157
  0
LINE
  8
0
 10
-59.5644
 20
-50.0157
 11
-59.3704
 21
-50.149
  0
LINE
  8
0
 10
-59.3704
 20
-50.149
 11
-59.1997
 21
-50.3111
  0
LINE
  8
0
 10
-59.1997
 20
-50.3111
 11
-59.0564
 21
-50.4978
  0
LINE
  8
0
 10
-59.0564
 20
-50.4978
 11
-58.9441
 21
-50.7047
  0
LINE
  8
0
 10
-58.9441
 20
-50.7047
 11
-58.8655
 21
-50.9265
  0
LINE
  8
0
 10
-58.8655
 20
-50.9265
 11
-58.8226
 21
-51.158
  0
LINE
  8
0
 10
-58.8226
 20
-51.158
 11
-58.8165
 21
-51.3932
  0
LINE
  8
0
 10
-58.8165
 20
-51.3932
 11
-58.8472
 21
-51.6266
  0
LINE
  8
0
 10
-58.8472
 20
-51.6266
 11
-58.914
 21
-51.8523
  0
LINE
  8
0
 10
-58.914
 20
-51.8523
 11
-59.0154
 21
-52.0647
  0
LINE
  8
0
 10
-59.0154
 20
-52.0647
 11
-59.1487
 21
-52.2587
  0
LINE
  8
0
 10
-59.1487
 20
-52.2587
 11
-59.3107
 21
-52.4295
  0
LINE
  8
0
 10
-59.3107
 20
-52.4295
 11
-59.4975
 21
-52.5728
  0
LINE
  8
0
 10
-59.4975
 20
-52.5728
 11
-59.7043
 21
-52.6851
  0
LINE
  8
0
 10
-59.7043
 20
-52.6851
 11
-59.9262
 21
-52.7636
  0
LINE
  8
0
 10
-59.9262
 20
-52.7636
 11
-60.1576
 21
-52.8065
  0
LINE
  8
0
 10
-60.1576
 20
-52.8065
 11
-60.3929
 21
-52.8127
  0
LINE
  8
0
 10
-60.3929
 20
-52.8127
 11
-60.6263
 21
-52.782
  0
LINE
  8
0
 10
60.1576
 20
-52.8065
 11
59.9262
 21
-52.7636
  0
LINE
  8
0
 10
59.9262
 20
-52.7636
 11
59.7043
 21
-52.6851
  0
LINE
  8
0
 10
59.7043
 20
-52.6851
 11
59.4975
 21
-52.5728
  0
LINE
  8
0
 10
59.4975
 20
-52.5728
 11
59.3107
 21
-52.4295
  0
LINE
  8
0
 10
59.3107
 20
-52.4295
 11
59.1487
 21
-52.2587
  0
LINE
  8
0
 10
59.1487
 20
-52.2587
 11
59.0154
 21
-52.0647
  0
LINE
  8
0
 10
59.0154
 20
-52.0647
 11
58.914
 21
-51.8523
  0
LINE
  8
0
 10
58.914
 20
-51.8523
 11
58.8472
 21
-51.6266
  0
LINE
  8
0
 10
58.8472
 20
-51.6266
 11
58.8165
 21
-51.3932
  0
LINE
  8
0
 10
58.8165
 20
-51.3932
 11
58.8226
 21
-51.158
  0
LINE
  8
0
 10
58.8226
 20
-51.158
 11
58.8655
 21
-50.9265
  0
LINE
  8
0
 10
58.8655
 20
-50.9265
 11
58.9441
 21
-50.7047
  0
LINE
  8
0
 10
58.9441
 20
-50.7047
 11
59.0564
 21
-50.4978
  0
LINE
  8
0
 10
59.0564
 20
-50.4978
 11
59.1997
 21
-50.3111
  0
LINE
  8
0
 10
59.1997
 20
-50.3111
 11
59.3704
 21
-50.149
  0
LINE
  8
0
 10
59.3704
 20
-50.149
 11
59.5644
 21
-50.0157
  0
LINE
  8
0
 10
59.5644
 20
-50.0157
 11
59.7769
 21
-49.9144
  0
LINE
  8
0
 10
59.7769
 20
-49.9144
 11
60.0025
 21
-49.8475
  0
LINE
  8
0
 10
60.0025
 20
-49.8475
 11
60.2359
 21
-49.8168
  0
LINE
  8
0
 10
60.2359
 20
-49.8168
 11
60.4712
 21
-49.823
  0
LINE
  8
0
 10
60.4712
 20
-49.823
 11
60.7026
 21
-49.8659
  0
LINE
  8
0
 10
60.7026
 20
-49.8659
 11
60.9245
 21
-49.9444
  0
LINE
  8
0
 10
60.9245
 20
-49.9444
 11
61.1314
 21
-50.0567
  0
LINE
  8
0
 10
61.1314
 20
-50.0567
 11
61.3181
 21
-50.2
  0
LINE
  8
0
 10
61.3181
 20
-50.2
 11
61.4801
 21
-50.3708
  0
LINE
  8
0
 10
61.4801
 20
-50.3708
 11
61.6134
 21
-50.5647
  0
LINE
  8
0
 10
61.6134
 20
-50.5647
 11
61.7148
 21
-50.7772
  0
LINE
  8
0
 10
61.7148
 20
-50.7772
 11
61.7816
 21
-51.0029
  0
LINE
  8
0
 10
61.7816
 20
-51.0029
 11
61.8124
 21
-51.2363
  0
LINE
  8
0
 10
61.8124
 20
-51.2363
 11
61.8062
 21
-51.4715
  0
LINE
  8
0
 10
61.8062
 20
-51.4715
 11
61.7633
 21
-51.703
  0
LINE
  8
0
 10
61.7633
 20
-51.703
 11
61.6847
 21
-51.9249
  0
LINE
  8
0
 10
61.6847
 20
-51.9249
 11
61.5724
 21
-52.1317
  0
LINE
  8
0
 10
61.5724
 20
-52.1317
 11
61.4291
 21
-52.3185
  0
LINE
  8
0
 10
61.4291
 20
-52.3185
 11
61.2584
 21
-52.4805
  0
LINE
  8
0
 10
61.2584
 20
-52.4805
 11
61.0644
 21
-52.6138
  0
LINE
  8
0
 10
61.0644
 20
-52.6138
 11
60.852
 21
-52.7151
  0
LINE
  8
0
 10
60.852
 20
-52.7151
 11
60.6263
 21
-52.782
  0
LINE
  8
0
 10
60.6263
 20
-52.782
 11
60.3929
 21
-52.8127
  0
LINE
  8
0
 10
60.3929
 20
-52.8127
 11
60.1576
 21
-52.8065
  0
LINE
  8
0
 10
47.8782
 20
-52.782
 11
47.6525
 21
-52.7151
  0
LINE
  8
0
 10
47.6525
 20
-52.7151
 11
47.4401
 21
-52.6138
  0
LINE
  8
0
 10
47.4401
 20
-52.6138
 11
47.2461
 21
-52.4805
  0
LINE
  8
0
 10
47.2461
 20
-52.4805
 11
47.0754
 21
-52.3185
  0
LINE
  8
0
 10
47.0754
 20
-52.3185
 11
46.9321
 21
-52.1317
  0
LINE
  8
0
 10
46.9321
 20
-52.1317
 11
46.8197
 21
-51.9249
  0
LINE
  8
0
 10
46.8197
 20
-51.9249
 11
46.7412
 21
-51.703
  0
LINE
  8
0
 10
46.7412
 20
-51.703
 11
46.6983
 21
-51.4715
  0
LINE
  8
0
 10
46.6983
 20
-51.4715
 11
46.6921
 21
-51.2363
  0
LINE
  8
0
 10
46.6921
 20
-51.2363
 11
46.7229
 21
-51.0029
  0
LINE
  8
0
 10
46.7229
 20
-51.0029
 11
46.7897
 21
-50.7772
  0
LINE
  8
0
 10
46.7897
 20
-50.7772
 11
46.891
 21
-50.5647
  0
LINE
  8
0
 10
46.891
 20
-50.5647
 11
47.0244
 21
-50.3708
  0
LINE
  8
0
 10
47.0244
 20
-50.3708
 11
47.1864
 21
-50.2
  0
LINE
  8
0
 10
47.1864
 20
-50.2
 11
47.3731
 21
-50.0567
  0
LINE
  8
0
 10
47.3731
 20
-50.0567
 11
47.58
 21
-49.9444
  0
LINE
  8
0
 10
47.58
 20
-49.9444
 11
47.8018
 21
-49.8659
  0
LINE
  8
0
 10
47.8018
 20
-49.8659
 11
48.0333
 21
-49.823
  0
LINE
  8
0
 10
48.0333
 20
-49.823
 11
48.2686
 21
-49.8168
  0
LINE
  8
0
 10
48.2686
 20
-49.8168
 11
48.5019
 21
-49.8475
  0
LINE
  8
0
 10
48.5019
 20
-49.8475
 11
48.7276
 21
-49.9144
  0
LINE
  8
0
 10
48.7276
 20
-49.9144
 11
48.9401
 21
-50.0157
  0
LINE
  8
0
 10
48.9401
 20
-50.0157
 11
49.134
 21
-50.149
  0
LINE
  8
0
 10
49.134
 20
-50.149
 11
49.3048
 21
-50.3111
  0
LINE
  8
0
 10
49.3048
 20
-50.3111
 11
49.4481
 21
-50.4978
  0
LINE
  8
0
 10
49.4481
 20
-50.4978
 11
49.5604
 21
-50.7047
  0
LINE
  8
0
 10
49.5604
 20
-50.7047
 11
49.639
 21
-50.9265
  0
LINE
  8
0
 10
49.639
 20
-50.9265
 11
49.6819
 21
-51.158
  0
LINE
  8
0
 10
49.6819
 20
-51.158
 11
49.688
 21
-51.3932
  0
LINE
  8
0
 10
49.688
 20
-51.3932
 11
49.6573
 21
-51.6266
  0
LINE
  8
0
 10
49.6573
 20
-51.6266
 11
49.5904
 21
-51.8523
  0
LINE
  8
0
 10
49.5904
 20
-51.8523
 11
49.4891
 21
-52.0647
  0
LINE
  8
0
 10
49.4891
 20
-52.0647
 11
49.3558
 21
-52.2587
  0
LINE
  8
0
 10
49.3558
 20
-52.2587
 11
49.1938
 21
-52.4295
  0
LINE
  8
0
 10
49.1938
 20
-52.4295
 11
49.007
 21
-52.5728
  0
LINE
  8
0
 10
49.007
 20
-52.5728
 11
48.8002
 21
-52.6851
  0
LINE
  8
0
 10
48.8002
 20
-52.6851
 11
48.5783
 21
-52.7636
  0
LINE
  8
0
 10
48.5783
 20
-52.7636
 11
48.3469
 21
-52.8065
  0
LINE
  8
0
 10
48.3469
 20
-52.8065
 11
48.1116
 21
-52.8127
  0
LINE
  8
0
 10
48.1116
 20
-52.8127
 11
47.8782
 21
-52.782
  0
LINE
  8
0
 10
54.0176
 20
-63.2963
 11
53.7887
 21
-63.2413
  0
LINE
  8
0
 10
53.7887
 20
-63.2413
 11
53.5713
 21
-63.1512
  0
LINE
  8
0
 10
53.5713
 20
-63.1512
 11
53.3706
 21
-63.0283
  0
LINE
  8
0
 10
53.3706
 20
-63.0283
 11
53.1916
 21
-62.8754
  0
LINE
  8
0
 10
53.1916
 20
-62.8754
 11
53.0387
 21
-62.6964
  0
LINE
  8
0
 10
53.0387
 20
-62.6964
 11
52.9157
 21
-62.4957
  0
LINE
  8
0
 10
52.9157
 20
-62.4957
 11
52.8257
 21
-62.2783
  0
LINE
  8
0
 10
52.8257
 20
-62.2783
 11
52.7707
 21
-62.0494
  0
LINE
  8
0
 10
52.7707
 20
-62.0494
 11
52.7522
 21
-61.8147
  0
LINE
  8
0
 10
52.7522
 20
-61.8147
 11
52.7707
 21
-61.5801
  0
LINE
  8
0
 10
52.7707
 20
-61.5801
 11
52.8257
 21
-61.3512
  0
LINE
  8
0
 10
52.8257
 20
-61.3512
 11
52.9157
 21
-61.1337
  0
LINE
  8
0
 10
52.9157
 20
-61.1337
 11
53.0387
 21
-60.9331
  0
LINE
  8
0
 10
53.0387
 20
-60.9331
 11
53.1916
 21
-60.7541
  0
LINE
  8
0
 10
53.1916
 20
-60.7541
 11
53.3706
 21
-60.6012
  0
LINE
  8
0
 10
53.3706
 20
-60.6012
 11
53.5713
 21
-60.4782
  0
LINE
  8
0
 10
53.5713
 20
-60.4782
 11
53.7887
 21
-60.3882
  0
LINE
  8
0
 10
53.7887
 20
-60.3882
 11
54.0176
 21
-60.3332
  0
LINE
  8
0
 10
54.0176
 20
-60.3332
 11
54.2522
 21
-60.3147
  0
LINE
  8
0
 10
54.2522
 20
-60.3147
 11
54.4869
 21
-60.3332
  0
LINE
  8
0
 10
54.4869
 20
-60.3332
 11
54.7158
 21
-60.3882
  0
LINE
  8
0
 10
54.7158
 20
-60.3882
 11
54.9332
 21
-60.4782
  0
LINE
  8
0
 10
54.9332
 20
-60.4782
 11
55.1339
 21
-60.6012
  0
LINE
  8
0
 10
55.1339
 20
-60.6012
 11
55.3129
 21
-60.7541
  0
LINE
  8
0
 10
55.3129
 20
-60.7541
 11
55.4658
 21
-60.9331
  0
LINE
  8
0
 10
55.4658
 20
-60.9331
 11
55.5887
 21
-61.1337
  0
LINE
  8
0
 10
55.5887
 20
-61.1337
 11
55.6788
 21
-61.3512
  0
LINE
  8
0
 10
55.6788
 20
-61.3512
 11
55.7338
 21
-61.5801
  0
LINE
  8
0
 10
55.7338
 20
-61.5801
 11
55.7522
 21
-61.8147
  0
LINE
  8
0
 10
55.7522
 20
-61.8147
 11
55.7338
 21
-62.0494
  0
LINE
  8
0
 10
55.7338
 20
-62.0494
 11
55.6788
 21
-62.2783
  0
LINE
  8
0
 10
55.6788
 20
-62.2783
 11
55.5887
 21
-62.4957
  0
LINE
  8
0
 10
55.5887
 20
-62.4957
 11
55.4658
 21
-62.6964
  0
LINE
  8
0
 10
55.4658
 20
-62.6964
 11
55.3129
 21
-62.8754
  0
LINE
  8
0
 10
55.3129
 20
-62.8754
 11
55.1339
 21
-63.0283
  0
LINE
  8
0
 10
55.1339
 20
-63.0283
 11
54.9332
 21
-63.1512
  0
LINE
  8
0
 10
54.9332
 20
-63.1512
 11
54.7158
 21
-63.2413
  0
LINE
  8
0
 10
54.7158
 20
-63.2413
 11
54.4869
 21
-63.2963
  0
LINE
  8
0
 10
54.4869
 20
-63.2963
 11
54.2522
 21
-63.3147
  0
LINE
  8
0
 10
54.2522
 20
-63.3147
 11
54.0176
 21
-63.2963
  0
LINE
  8
0
 10
-54.4869
 20
-63.2963
 11
-54.7158
 21
-63.2413
  0
LINE
  8
0
 10
-54.7158
 20
-63.2413
 11
-54.9332
 21
-63.1512
  0
LINE
  8
0
 10
-54.9332
 20
-63.1512
 11
-55.1339
 21
-63.0283
  0
LINE
  8
0
 10
-55.1339
 20
-63.0283
 11
-55.3129
 21
-62.8754
  0
LINE
  8
0
 10
-55.3129
 20
-62.8754
 11
-55.4658
 21
-62.6964
  0
LINE
  8
0
 10
-55.4658
 20
-62.6964
 11
-55.5887
 21
-62.4957
  0
LINE
  8
0
 10
-55.5887
 20
-62.4957
 11
-55.6788
 21
-62.2783
  0
LINE
  8
0
 10
-55.6788
 20
-62.2783
 11
-55.7338
 21
-62.0494
  0
LINE
  8
0
 10
-55.7338
 20
-62.0494
 11
-55.7522
 21
-61.8147
  0
LINE
  8
0
 10
-55.7522
 20
-61.8147
 11
-55.7338
 21
-61.5801
  0
LINE
  8
0
 10
-55.7338
 20
-61.5801
 11
-55.6788
 21
-61.3512
  0
LINE
  8
0
 10
-55.6788
 20
-61.3512
 11
-55.5887
 21
-61.1337
  0
LINE
  8
0
 10
-55.5887
 20
-61.1337
 11
-55.4658
 21
-60.9331
  0
LINE
  8
0
 10
-55.4658
 20
-60.9331
 11
-55.3129
 21
-60.7541
  0
LINE
  8
0
 10
-55.3129
 20
-60.7541
 11
-55.1339
 21
-60.6012
  0
LINE
  8
0
 10
-55.1339
 20
-60.6012
 11
-54.9332
 21
-60.4782
  0
LINE
  8
0
 10
-54.9332
 20
-60.4782
 11
-54.7158
 21
-60.3882
  0
LINE
  8
0
 10
-54.7158
 20
-60.3882
 11
-54.4869
 21
-60.3332
  0
LINE
  8
0
 10
-54.4869
 20
-60.3332
 11
-54.2522
 21
-60.3147
  0
LINE
  8
0
 10
-54.2522
 20
-60.3147
 11
-54.0176
 21
-60.3332
  0
LINE
  8
0
 10
-54.0176
 20
-60.3332
 11
-53.7887
 21
-60.3882
  0
LINE
  8
0
 10
-53.7887
 20
-60.3882
 11
-53.5713
 21
-60.4782
  0
LINE
  8
0
 10
-53.5713
 20
-60.4782
 11
-53.3706
 21
-60.6012
  0
LINE
  8
0
 10
-53.3706
 20
-60.6012
 11
-53.1916
 21
-60.7541
  0
LINE
  8
0
 10
-53.1916
 20
-60.7541
 11
-53.0387
 21
-60.9331
  0
LINE
  8
0
 10
-53.0387
 20
-60.9331
 11
-52.9157
 21
-61.1337
  0
LINE
  8
0
 10
-52.9157
 20
-61.1337
 11
-52.8257
 21
-61.3512
  0
LINE
  8
0
 10
-52.8257
 20
-61.3512
 11
-52.7707
 21
-61.5801
  0
LINE
  8
0
 10
-52.7707
 20
-61.5801
 11
-52.7523
 21
-61.8147
  0
LINE
  8
0
 10
-52.7523
 20
-61.8147
 11
-52.7707
 21
-62.0494
  0
LINE
  8
0
 10
-52.7707
 20
-62.0494
 11
-52.8257
 21
-62.2783
  0
LINE
  8
0
 10
-52.8257
 20
-62.2783
 11
-52.9157
 21
-62.4957
  0
LINE
  8
0
 10
-52.9157
 20
-62.4957
 11
-53.0387
 21
-62.6964
  0
LINE
  8
0
 10
-53.0387
 20
-62.6964
 11
-53.1916
 21
-62.8754
  0
LINE
  8
0
 10
-53.1916
 20
-62.8754
 11
-53.3706
 21
-63.0283
  0
LINE
  8
0
 10
-53.3706
 20
-63.0283
 11
-53.5713
 21
-63.1512
  0
LINE
  8
0
 10
-53.5713
 20
-63.1512
 11
-53.7887
 21
-63.2413
  0
LINE
  8
0
 10
-53.7887
 20
-63.2413
 11
-54.0176
 21
-63.2963
  0
LINE
  8
0
 10
-54.0176
 20
-63.2963
 11
-54.2522
 21
-63.3147
  0
LINE
  8
0
 10
-54.2522
 20
-63.3147
 11
-54.4869
 21
-63.2963
  0
LINE
  8
0
 10
-39.7346
 20
-81.7963
 11
-39.9635
 21
-81.7413
  0
LINE
  8
0
 10
-39.9635
 20
-81.7413
 11
-40.181
 21
-81.6512
  0
LINE
  8
0
 10
-40.181
 20
-81.6512
 11
-40.3817
 21
-81.5283
  0
LINE
  8
0
 10
-40.3817
 20
-81.5283
 11
-40.5607
 21
-81.3754
  0
LINE
  8
0
 10
-40.5607
 20
-81.3754
 11
-40.7135
 21
-81.1964
  0
LINE
  8
0
 10
-40.7135
 20
-81.1964
 11
-40.8365
 21
-80.9957
  0
LINE
  8
0
 10
-40.8365
 20
-80.9957
 11
-40.9266
 21
-80.7783
  0
LINE
  8
0
 10
-40.9266
 20
-80.7783
 11
-40.9815
 21
-80.5494
  0
LINE
  8
0
 10
-40.9815
 20
-80.5494
 11
-41
 21
-80.3147
  0
LINE
  8
0
 10
-41
 20
-80.3147
 11
-40.9815
 21
-80.0801
  0
LINE
  8
0
 10
-40.9815
 20
-80.0801
 11
-40.9266
 21
-79.8512
  0
LINE
  8
0
 10
-40.9266
 20
-79.8512
 11
-40.8365
 21
-79.6338
  0
LINE
  8
0
 10
-40.8365
 20
-79.6338
 11
-40.7135
 21
-79.4331
  0
LINE
  8
0
 10
-40.7135
 20
-79.4331
 11
-40.5607
 21
-79.2541
  0
LINE
  8
0
 10
-40.5607
 20
-79.2541
 11
-40.3817
 21
-79.1012
  0
LINE
  8
0
 10
-40.3817
 20
-79.1012
 11
-40.181
 21
-78.9782
  0
LINE
  8
0
 10
-40.181
 20
-78.9782
 11
-39.9635
 21
-78.8882
  0
LINE
  8
0
 10
-39.9635
 20
-78.8882
 11
-39.7346
 21
-78.8332
  0
LINE
  8
0
 10
-39.7346
 20
-78.8332
 11
-39.5
 21
-78.8147
  0
LINE
  8
0
 10
-39.5
 20
-78.8147
 11
-39.2653
 21
-78.8332
  0
LINE
  8
0
 10
-39.2653
 20
-78.8332
 11
-39.0365
 21
-78.8882
  0
LINE
  8
0
 10
-39.0365
 20
-78.8882
 11
-38.819
 21
-78.9782
  0
LINE
  8
0
 10
-38.819
 20
-78.9782
 11
-38.6183
 21
-79.1012
  0
LINE
  8
0
 10
-38.6183
 20
-79.1012
 11
-38.4393
 21
-79.2541
  0
LINE
  8
0
 10
-38.4393
 20
-79.2541
 11
-38.2865
 21
-79.4331
  0
LINE
  8
0
 10
-38.2865
 20
-79.4331
 11
-38.1635
 21
-79.6338
  0
LINE
  8
0
 10
-38.1635
 20
-79.6338
 11
-38.0734
 21
-79.8512
  0
LINE
  8
0
 10
-38.0734
 20
-79.8512
 11
-38.0185
 21
-80.0801
  0
LINE
  8
0
 10
-38.0185
 20
-80.0801
 11
-38
 21
-80.3147
  0
LINE
  8
0
 10
-38
 20
-80.3147
 11
-38.0185
 21
-80.5494
  0
LINE
  8
0
 10
-38.0185
 20
-80.5494
 11
-38.0734
 21
-80.7783
  0
LINE
  8
0
 10
-38.0734
 20
-80.7783
 11
-38.1635
 21
-80.9957
  0
LINE
  8
0
 10
-38.1635
 20
-80.9957
 11
-38.2865
 21
-81.1964
  0
LINE
  8
0
 10
-38.2865
 20
-81.1964
 11
-38.4393
 21
-81.3754
  0
LINE
  8
0
 10
-38.4393
 20
-81.3754
 11
-38.6183
 21
-81.5283
  0
LINE
  8
0
 10
-38.6183
 20
-81.5283
 11
-38.819
 21
-81.6512
  0
LINE
  8
0
 10
-38.819
 20
-81.6512
 11
-39.0365
 21
-81.7413
  0
LINE
  8
0
 10
-39.0365
 20
-81.7413
 11
-39.2653
 21
-81.7963
  0
LINE
  8
0
 10
-39.2653
 20
-81.7963
 11
-39.5
 21
-81.8147
  0
LINE
  8
0
 10
-39.5
 20
-81.8147
 11
-39.7346
 21
-81.7963
  0
LINE
  8
0
 10
39.2653
 20
-81.7963
 11
39.0365
 21
-81.7413
  0
LINE
  8
0
 10
39.0365
 20
-81.7413
 11
38.819
 21
-81.6512
  0
LINE
  8
0
 10
38.819
 20
-81.6512
 11
38.6183
 21
-81.5283
  0
LINE
  8
0
 10
38.6183
 20
-81.5283
 11
38.4393
 21
-81.3754
  0
LINE
  8
0
 10
38.4393
 20
-81.3754
 11
38.2865
 21
-81.1964
  0
LINE
  8
0
 10
38.2865
 20
-81.1964
 11
38.1635
 21
-80.9957
  0
LINE
  8
0
 10
38.1635
 20
-80.9957
 11
38.0734
 21
-80.7783
  0
LINE
  8
0
 10
38.0734
 20
-80.7783
 11
38.0185
 21
-80.5494
  0
LINE
  8
0
 10
38.0185
 20
-80.5494
 11
38
 21
-80.3147
  0
LINE
  8
0
 10
38
 20
-80.3147
 11
38.0185
 21
-80.0801
  0
LINE
  8
0
 10
38.0185
 20
-80.0801
 11
38.0734
 21
-79.8512
  0
LINE
  8
0
 10
38.0734
 20
-79.8512
 11
38.1635
 21
-79.6338
  0
LINE
  8
0
 10
38.1635
 20
-79.6338
 11
38.2865
 21
-79.4331
  0
LINE
  8
0
 10
38.2865
 20
-79.4331
 11
38.4393
 21
-79.2541
  0
LINE
  8
0
 10
38.4393
 20
-79.2541
 11
38.6183
 21
-79.1012
  0
LINE
  8
0
 10
38.6183
 20
-79.1012
 11
38.819
 21
-78.9782
  0
LINE
  8
0
 10
38.819
 20
-78.9782
 11
39.0365
 21
-78.8882
  0
LINE
  8
0
 10
39.0365
 20
-78.8882
 11
39.2653
 21
-78.8332
  0
LINE
  8
0
 10
39.2653
 20
-78.8332
 11
39.5
 21
-78.8147
  0
LINE
  8
0
 10
39.5
 20
-78.8147
 11
39.7346
 21
-78.8332
  0
LINE
  8
0
 10
39.7346
 20
-78.8332
 11
39.9635
 21
-78.8882
  0
LINE
  8
0
 10
39.9635
 20
-78.8882
 11
40.181
 21
-78.9782
  0
LINE
  8
0
 10
40.181
 20
-78.9782
 11
40.3817
 21
-79.1012
  0
LINE
  8
0
 10
40.3817
 20
-79.1012
 11
40.5607
 21
-79.2541
  0
LINE
  8
0
 10
40.5607
 20
-79.2541
 11
40.7135
 21
-79.4331
  0
LINE
  8
0
 10
40.7135
 20
-79.4331
 11
40.8365
 21
-79.6338
  0
LINE
  8
0
 10
40.8365
 20
-79.6338
 11
40.9266
 21
-79.8512
  0
LINE
  8
0
 10
40.9266
 20
-79.8512
 11
40.9815
 21
-80.0801
  0
LINE
  8
0
 10
40.9815
 20
-80.0801
 11
41
 21
-80.3147
  0
LINE
  8
0
 10
41
 20
-80.3147
 11
40.9815
 21
-80.5494
  0
LINE
  8
0
 10
40.9815
 20
-80.5494
 11
40.9266
 21
-80.7783
  0
LINE
  8
0
 10
40.9266
 20
-80.7783
 11
40.8365
 21
-80.9957
  0
LINE
  8
0
 10
40.8365
 20
-80.9957
 11
40.7135
 21
-81.1964
  0
LINE
  8
0
 10
40.7135
 20
-81.1964
 11
40.5607
 21
-81.3754
  0
LINE
  8
0
 10
40.5607
 20
-81.3754
 11
40.3817
 21
-81.5283
  0
LINE
  8
0
 10
40.3817
 20
-81.5283
 11
40.181
 21
-81.6512
  0
LINE
  8
0
 10
40.181
 20
-81.6512
 11
39.9635
 21
-81.7413
  0
LINE
  8
0
 10
39.9635
 20
-81.7413
 11
39.7346
 21
-81.7963
  0
LINE
  8
0
 10
39.7346
 20
-81.7963
 11
39.5
 21
-81.8147
  0
LINE
  8
0
 10
39.5
 20
-81.8147
 11
39.2653
 21
-81.7963
  0
ENDSEC
  0
SECTION
  2
OBJECTS
  0
DICTIONARY
  0
ENDSEC
  0
EOF
