<?xml version="1.0" encoding="UTF-8" standalone="no"?>
<svg
   xmlns:dc="http://purl.org/dc/elements/1.1/"
   xmlns:cc="http://creativecommons.org/ns#"
   xmlns:rdf="http://www.w3.org/1999/02/22-rdf-syntax-ns#"
   xmlns:svg="http://www.w3.org/2000/svg"
   xmlns="http://www.w3.org/2000/svg"
   xmlns:sodipodi="http://sodipodi.sourceforge.net/DTD/sodipodi-0.dtd"
   xmlns:inkscape="http://www.inkscape.org/namespaces/inkscape"
   width="509.01102"
   height="709.66144"
   id="svg4185"
   version="1.1"
   inkscape:version="0.91 r13725"
   sodipodi:docname="simple_base_accessory.svg">
  <metadata
     id="metadata5065">
    <rdf:RDF>
      <cc:Work
         rdf:about="">
        <dc:format>image/svg+xml</dc:format>
        <dc:type
           rdf:resource="http://purl.org/dc/dcmitype/StillImage" />
        <dc:title></dc:title>
      </cc:Work>
    </rdf:RDF>
  </metadata>
  <sodipodi:namedview
     pagecolor="#ffffff"
     bordercolor="#666666"
     borderopacity="1"
     objecttolerance="10"
     gridtolerance="10"
     guidetolerance="10"
     inkscape:pageopacity="0"
     inkscape:pageshadow="2"
     inkscape:window-width="3734"
     inkscape:window-height="2121"
     id="namedview5063"
     showgrid="false"
     inkscape:zoom="0.89702957"
     inkscape:cx="-382.22963"
     inkscape:cy="273.23964"
     inkscape:window-x="106"
     inkscape:window-y="39"
     inkscape:window-maximized="1"
     inkscape:current-layer="g4201"
     fit-margin-top="0"
     fit-margin-left="0"
     fit-margin-right="0"
     fit-margin-bottom="0" />
  <desc
     id="desc4187">C:\Share\Robotics\Whr_bot\Parts\64\base.dxf - scale = 1.000000, origin = (0.000000, 0.000000), auto = False</desc>
  <defs
     id="defs4189">
    <marker
       refY="0"
       refX="0"
       style="overflow:visible"
       id="DistanceX"
       orient="auto">
      <path
         style="stroke:#000000;stroke-width:0.5"
         d="M 3,-3 -3,3 M 0,-5 0,5"
         id="path4192"
         inkscape:connector-curvature="0" />
    </marker>
    <pattern
       height="8"
       width="8"
       patternUnits="userSpaceOnUse"
       y="0"
       x="0"
       id="Hatch">
      <path
         linecap="square"
         stroke="#000000"
         stroke-width="0.25"
         d="M8 4 l-4,4"
         id="path4195" />
      <path
         linecap="square"
         stroke="#000000"
         stroke-width="0.25"
         d="M6 2 l-4,4"
         id="path4197" />
      <path
         linecap="square"
         stroke="#000000"
         stroke-width="0.25"
         d="M4 0 l-4,4"
         id="path4199" />
    </pattern>
    <marker
       style="overflow:visible"
       refY="0"
       refX="0"
       orient="auto"
       id="DistanceX-7">
      <path
         id="path9284"
         style="stroke:#000000;stroke-width:0.5"
         d="M 3,-3 -3,3 M 0,-5 0,5"
         inkscape:connector-curvature="0" />
    </marker>
    <pattern
       y="0"
       x="0"
       width="8"
       patternUnits="userSpaceOnUse"
       id="Hatch-5"
       height="8">
      <path
         id="path9287"
         stroke-width="0.25"
         stroke="#000000"
         linecap="square"
         d="M8 4 l-4,4" />
      <path
         id="path9289"
         stroke-width="0.25"
         stroke="#000000"
         linecap="square"
         d="M6 2 l-4,4" />
      <path
         id="path9291"
         stroke-width="0.25"
         stroke="#000000"
         linecap="square"
         d="M4 0 l-4,4" />
    </pattern>
    <marker
       style="overflow:visible"
       refY="0"
       refX="0"
       orient="auto"
       id="DistanceX-2">
      <path
         id="path11674"
         style="stroke:#000000;stroke-width:0.5"
         d="M 3,-3 -3,3 M 0,-5 0,5"
         inkscape:connector-curvature="0" />
    </marker>
    <pattern
       y="0"
       x="0"
       width="8"
       patternUnits="userSpaceOnUse"
       id="Hatch-9"
       height="8">
      <path
         id="path11677"
         stroke-width="0.25"
         stroke="#000000"
         linecap="square"
         d="M8 4 l-4,4" />
      <path
         id="path11679"
         stroke-width="0.25"
         stroke="#000000"
         linecap="square"
         d="M6 2 l-4,4" />
      <path
         id="path11681"
         stroke-width="0.25"
         stroke="#000000"
         linecap="square"
         d="M4 0 l-4,4" />
    </pattern>
    <marker
       style="overflow:visible"
       refY="0"
       refX="0"
       orient="auto"
       id="DistanceX-1">
      <path
         id="path13884"
         style="stroke:#000000;stroke-width:0.5"
         d="M 3,-3 -3,3 M 0,-5 0,5"
         inkscape:connector-curvature="0" />
    </marker>
    <pattern
       y="0"
       x="0"
       width="8"
       patternUnits="userSpaceOnUse"
       id="Hatch-2"
       height="8">
      <path
         id="path13887"
         stroke-width="0.25"
         stroke="#000000"
         linecap="square"
         d="M8 4 l-4,4" />
      <path
         id="path13889"
         stroke-width="0.25"
         stroke="#000000"
         linecap="square"
         d="M6 2 l-4,4" />
      <path
         id="path13891"
         stroke-width="0.25"
         stroke="#000000"
         linecap="square"
         d="M4 0 l-4,4" />
    </pattern>
    <marker
       style="overflow:visible"
       refY="0"
       refX="0"
       orient="auto"
       id="DistanceX-3">
      <path
         id="path21885"
         style="stroke:#000000;stroke-width:0.5"
         d="M 3,-3 -3,3 M 0,-5 0,5"
         inkscape:connector-curvature="0" />
    </marker>
    <pattern
       y="0"
       x="0"
       width="8"
       patternUnits="userSpaceOnUse"
       id="Hatch-7"
       height="8">
      <path
         id="path21888"
         stroke-width="0.25"
         stroke="#000000"
         linecap="square"
         d="M8 4 l-4,4" />
      <path
         id="path21890"
         stroke-width="0.25"
         stroke="#000000"
         linecap="square"
         d="M6 2 l-4,4" />
      <path
         id="path21892"
         stroke-width="0.25"
         stroke="#000000"
         linecap="square"
         d="M4 0 l-4,4" />
    </pattern>
  </defs>
  <g
     inkscape:label="0"
     inkscape:groupmode="layer"
     id="g4201"
     transform="translate(-111.14576,-150.16933)">
    <path
       inkscape:connector-curvature="0"
       d="m 376.78105,859.15607 5.56143,-0.2186 5.55736,-0.3058 5.55186,-0.3933 5.54503,-0.4801 5.53667,-0.5673 5.5272,-0.6541 5.51622,-0.7409 5.50382,-0.8277 5.49035,-0.9138 5.47512,-0.9999 5.45882,-1.0857 5.4411,-1.1714 5.42197,-1.2568 5.40177,-1.3419 5.37981,-1.4265 5.35677,-1.5105 5.33232,-1.5949 5.30681,-1.6784 5.27953,-1.7614 5.25154,-1.844 5.22177,-1.9265 5.19094,-2.0083 5.15835,-2.0895 5.12539,-2.1699 5.09032,-2.2507 5.05452,-2.3301 5.01733,-2.4095 4.9787,-2.4877 4.93937,-2.5654 4.89827,-2.6429 4.8561,-2.7199 4.81252,-2.7953 4.76823,-2.8708 4.72287,-2.9452 4.67575,-3.0192 4.62756,-3.0919 4.57866,-3.1645 4.52835,-3.2361 4.47696,-3.3066 4.42453,-3.3768 4.37102,-3.4459 4.31611,-3.5139 4.26047,-3.5812 4.20378,-3.6478 4.14567,-3.7134 4.0872,-3.7779 4.02733,-3.842 3.96637,-3.9044 3.45579,-3.5107 0,-236.8817 -11.6922,0 -3.6e-4,-59.1729 11.69256,-4e-4 0,-49.0149 -11.6922,0 -3.6e-4,-49.37067 11.69256,-3.5e-4 0,-99.63709 -3.45579,-3.51071 -3.96637,-3.90437 -4.02733,-3.84201 -4.0872,-3.77787 -4.14567,-3.71339 -4.20378,-3.64783 -4.26047,-3.58122 -4.31611,-3.5139 -4.37102,-3.44587 -4.42453,-3.37677 -4.47696,-3.30661 -4.52835,-3.2361 -4.57866,-3.16453 -4.62756,-3.09189 -4.67575,-3.01925 -4.72287,-2.9452 -4.76823,-2.87079 -4.81252,-2.79531 -4.8561,-2.71985 -4.89827,-2.64295 -4.93937,-2.56535 -4.9787,-2.48776 -5.01733,-2.40945 -5.05452,-2.33008 -5.09032,-2.25071 -5.12539,-2.16992 -5.15835,-2.08948 -5.19094,-2.00835 -5.22177,-1.9265 -5.25154,-1.84393 -5.27953,-1.76138 -5.30681,-1.67847 -5.33232,-1.59484 -5.35677,-1.51051 -5.37981,-1.42654 -5.40177,-1.34185 -5.42197,-1.25681 -5.4411,-1.17142 -5.45882,-1.08566 -5.47512,-0.99993 -5.49035,-0.91381 -5.50382,-0.82772 -5.51622,-0.74091 -5.5272,-0.65409 -5.53667,-0.56728 -5.54503,-0.48012 -5.55186,-0.39331 -5.55736,-0.30579 -5.56143,-0.21862 -5.56424,-0.1311 -5.56554,-0.0436 -5.56554,0.0436 -5.56424,0.13109 -5.56143,0.21862 -5.55736,0.30579 -5.55186,0.39331 -5.54503,0.48012 -5.53667,0.56728 -5.5272,0.65409 -5.51622,0.74091 -5.50382,0.82772 -5.49035,0.91381 -5.47512,0.99993 -5.45882,1.08566 -5.4411,1.17142 -5.42197,1.25681 -5.40177,1.34185 -5.37981,1.42654 -5.35677,1.51051 -5.33232,1.59484 -5.30681,1.67847 -5.27953,1.76138 -5.25154,1.84393 -5.22177,1.9265 -5.19094,2.00835 -5.15835,2.08948 -5.12539,2.16992 -5.09032,2.25071 -5.05452,2.33008 -5.01733,2.40945 -4.9787,2.48776 -4.93937,2.56535 -4.89827,2.64295 -4.8561,2.71985 -4.81252,2.79531 -4.76823,2.87079 -4.72287,2.9452 -4.67575,3.01925 -4.62756,3.09189 -4.57866,3.16453 -4.52835,3.2361 -4.47696,3.30661 -4.42453,3.37677 -4.37102,3.44587 -4.31611,3.5139 -4.26047,3.58122 -4.20378,3.64783 -4.14567,3.71339 -4.0872,3.77787 -4.02733,3.84201 -3.96637,3.90437 -3.45579,3.51071 0,99.63744 11.6922,-3.5e-4 0,49.37102 -11.6922,0 0,49.0153 11.6922,-4e-4 0,59.1733 -11.6922,0 0,236.8817 3.45579,3.5107 3.96637,3.9044 4.02733,3.842 4.0872,3.7779 4.14567,3.7134 4.20378,3.6478 4.26047,3.5812 4.31611,3.5139 4.37102,3.4459 4.42453,3.3768 4.47696,3.3066 4.52835,3.2361 4.57866,3.1645 4.62756,3.0919 4.67575,3.0192 4.72287,2.9452 4.76823,2.8708 4.81252,2.7953 4.8561,2.7199 4.89827,2.6429 4.93937,2.5654 4.9787,2.4877 5.01733,2.4095 5.05452,2.3301 5.09032,2.2507 5.12539,2.1699 5.15835,2.0895 5.19094,2.0083 5.22177,1.9265 5.25154,1.844 5.27953,1.7614 5.30681,1.6784 5.33232,1.5949 5.35677,1.5105 5.37981,1.4265 5.40177,1.3419 5.42197,1.2568 5.4411,1.1714 5.45882,1.0857 5.47512,0.9999 5.49035,0.9138 5.50382,0.8277 5.51622,0.7409 5.5272,0.6541 5.53667,0.5673 5.54503,0.4801 5.55186,0.3933 5.55736,0.3058 5.56143,0.2186 5.56424,0.1311 5.56554,0.0436 5.56554,-0.0438 z"
       style="fill:none;stroke:#0000ff;stroke-opacity:1"
       id="path22228"
       sodipodi:nodetypes="ccccccccccccccccccccccccccccccccccccccccccccccccccccccccccccccccccccccccccccccccccccccccccccccccccccccccccccccccccccccccccccccccccccccccccccccccccccccccccccccccccccccccccccccccccccccccccccccccccccccccccccccccccccccccccccccc" />
    <path
       inkscape:connector-curvature="0"
       d="m 367.29365,209.39401 0.77056,0.31925 0.71108,0.43583 0.63419,0.54142 0.54166,0.63425 0.43576,0.71114 0.31915,0.77067 0.1947,0.81106 0.0655,0.83126 -0.0655,0.83162 -0.19469,0.81071 -0.31915,0.77067 -0.43576,0.71114 -0.54166,0.63425 -0.63419,0.54142 -0.71108,0.43582 -0.77056,0.31926 -0.81094,0.19452 -0.83144,0.0656 -0.83138,-0.0656 -0.81095,-0.19449 -0.77055,-0.31926 -0.71109,-0.43582 -0.6342,-0.54142 -0.54163,-0.63425 -0.43579,-0.71114 -0.31915,-0.77067 -0.1947,-0.81071 -0.0654,-0.83162 0.0654,-0.83126 0.1947,-0.81106 0.31915,-0.77067 0.43579,-0.71114 0.54163,-0.63425 0.6342,-0.54142 0.71109,-0.43583 0.77055,-0.31925 0.81095,-0.19453 0.83138,-0.0656 0.83144,0.0656 z"
       style="fill:none;stroke:#ff0000;stroke-opacity:1"
       id="path22380"
       sodipodi:nodetypes="ccccccccccccccccccccccccccccccccccccccccc" />
    <path
       inkscape:connector-curvature="0"
       d="m 345.54679,246.51972 0.78612,0.2785 0.73297,0.39792 0.66168,0.50775 0.57408,0.60485 0.47236,0.6874 0.35908,0.7526 0.23684,0.79972 0.10892,0.82701 -0.0219,0.83374 -0.15195,0.81992 -0.27839,0.78626 -0.39799,0.73311 -0.50768,0.66154 -0.60499,0.57401 -0.68729,0.47232 -0.75278,0.3593 -0.79972,0.23669 -0.82687,0.10878 -0.83371,-0.0216 -0.82002,-0.15201 -0.78619,-0.27851 -0.73301,-0.39791 -0.66164,-0.50776 -0.57408,-0.60484 -0.4724,-0.6874 -0.35904,-0.7526 -0.23687,-0.79972 -0.10889,-0.82701 0.0218,-0.83374 0.15202,-0.81992 0.27836,-0.78626 0.39798,-0.73311 0.50776,-0.66154 0.60495,-0.57402 0.68736,-0.47232 0.75274,-0.35929 0.79966,-0.23669 0.8269,-0.10914 0.8337,0.022 z"
       style="fill:none;stroke:#ff0000;stroke-opacity:1"
       id="path22460"
       sodipodi:nodetypes="ccccccccccccccccccccccccccccccccccccccccc" />
    <path
       inkscape:connector-curvature="0"
       d="m 392.33014,252.75878 -0.23687,0.79972 -0.35904,0.7526 -0.4724,0.6874 -0.57405,0.60484 -0.66167,0.50776 -0.73297,0.39791 -0.78619,0.27851 -0.82003,0.152 -0.8337,0.0216 -0.82691,-0.10877 -0.79969,-0.23669 -0.75277,-0.3593 -0.6873,-0.47232 -0.60502,-0.57401 -0.50768,-0.66154 -0.39799,-0.73311 -0.27836,-0.78626 -0.15201,-0.81992 -0.0218,-0.83374 0.10893,-0.82701 0.23684,-0.79972 0.35908,-0.7526 0.47236,-0.6874 0.57408,-0.60485 0.66168,-0.50775 0.73297,-0.39792 0.78612,-0.2785 0.8201,-0.15201 0.8337,-0.022 0.8269,0.10915 0.79966,0.23669 0.75274,0.35929 0.68736,0.47232 0.60495,0.57402 0.50776,0.66154 0.39798,0.73311 0.27836,0.78626 0.15201,0.81992 0.0218,0.83374 z"
       style="fill:none;stroke:#ff0000;stroke-opacity:1"
       id="path22558"
       sodipodi:nodetypes="ccccccccccccccccccccccccccccccccccccccccc" />
    <path
       inkscape:connector-curvature="0"
       d="m 147.81017,342.93737 0.54071,0.13003 0.51378,0.2126 0.47409,0.29055 0.42272,0.36106 0.36106,0.42272 0.29055,0.47409 0.21295,0.51378 0.12969,0.54071 0.0436,0.55417 56.99763,0 0.0436,-0.55417 0.12968,-0.54071 0.21295,-0.51378 0.29055,-0.47409 0.36106,-0.42272 0.42272,-0.36106 0.4741,-0.29055 0.51377,-0.2126 0.54071,-0.13004 0.55418,-0.0436 0.55417,0.0436 0.54071,0.13003 0.51378,0.2126 0.47409,0.29055 0.42272,0.36106 0.36106,0.42272 0.29055,0.47409 0.2126,0.51378 0.13004,0.54071 0.0436,0.55417 -1e-5,11.33858 -0.0436,0.55418 -0.13003,0.54071 -0.2126,0.51378 -0.29055,0.47409 -0.36106,0.42272 -0.42272,0.36106 -0.47409,0.29055 -0.51378,0.2126 -0.54071,0.13004 -0.55417,0.0436 -0.55418,-0.0436 -0.54071,-0.13003 -0.51377,-0.2126 -0.4741,-0.29055 -0.42272,-0.36106 -0.36106,-0.42272 -0.29055,-0.47409 -0.21295,-0.51378 -0.12969,-0.54071 -0.0436,-0.55418 -56.99763,0 -0.0436,0.55418 -0.12968,0.54071 -0.21295,0.51378 -0.29055,0.47409 -0.36106,0.42272 -0.42272,0.36106 -0.47409,0.29055 -0.51378,0.2126 -0.54071,0.13004 -0.55418,0.0436 -0.55417,-0.0436 -0.54071,-0.13003 -0.51378,-0.2126 -0.47409,-0.29055 -0.42272,-0.36106 -0.36106,-0.42272 -0.29055,-0.47409 -0.21295,-0.51378 -0.12969,-0.54071 -0.0436,-0.55418 1e-5,-11.33858 0.0436,-0.55417 0.12968,-0.54071 0.21295,-0.51378 0.29055,-0.47409 0.36106,-0.42272 0.42272,-0.36106 0.47409,-0.29055 0.51378,-0.2126 0.54071,-0.13004 0.55417,-0.0436 z"
       style="fill:none;stroke:#ff0000;stroke-opacity:1"
       id="path22662"
       sodipodi:nodetypes="ccccccccccccccccccccccccccccccccccccccccccccccccccccccccccccccccccccccccccccccccccccc" />
    <path
       inkscape:connector-curvature="0"
       d="m 520.51647,342.93737 0.54071,0.13003 0.51377,0.2126 0.4741,0.29055 0.42272,0.36106 0.36106,0.42272 0.29055,0.47409 0.21295,0.51378 0.12969,0.54071 0.0436,0.55417 56.99763,0 0.0436,-0.55417 0.12968,-0.54071 0.21295,-0.51378 0.29055,-0.47409 0.36106,-0.42272 0.42272,-0.36106 0.47409,-0.29055 0.51378,-0.2126 0.54071,-0.13004 0.55418,-0.0436 0.55417,0.0436 0.54071,0.13003 0.51378,0.2126 0.47409,0.29055 0.42272,0.36106 0.36106,0.42272 0.29055,0.47409 0.2126,0.51378 0.13004,0.54071 0.0436,0.55417 -10e-6,11.33858 -0.0436,0.55418 -0.13003,0.54071 -0.2126,0.51378 -0.29055,0.47409 -0.36106,0.42272 -0.42272,0.36106 -0.47409,0.29055 -0.51378,0.2126 -0.54071,0.13004 -0.55417,0.0436 -0.55418,-0.0436 -0.54071,-0.13003 -0.51378,-0.2126 -0.47409,-0.29055 -0.42272,-0.36106 -0.36106,-0.42272 -0.29055,-0.47409 -0.21295,-0.51378 -0.12969,-0.54071 -0.0436,-0.55418 -56.99763,0 -0.0436,0.55418 -0.12968,0.54071 -0.21295,0.51378 -0.29055,0.47409 -0.36106,0.42272 -0.42272,0.36106 -0.4741,0.29055 -0.51377,0.2126 -0.54071,0.13004 -0.55418,0.0436 -0.55417,-0.0436 -0.54071,-0.13003 -0.51378,-0.2126 -0.47409,-0.29055 -0.42272,-0.36106 -0.36106,-0.42272 -0.29055,-0.47409 -0.21296,-0.51378 -0.12968,-0.54071 -0.0436,-0.55418 1e-5,-11.33858 0.0436,-0.55417 0.12967,-0.54071 0.21296,-0.51378 0.29055,-0.47409 0.36106,-0.42272 0.42272,-0.36106 0.47409,-0.29055 0.51378,-0.2126 0.54071,-0.13004 0.55417,-0.0436 z"
       style="fill:none;stroke:#ff0000;stroke-opacity:1"
       id="path22830"
       sodipodi:nodetypes="ccccccccccccccccccccccccccccccccccccccccccccccccccccccccccccccccccccccccccccccccccccc" />
    <path
       inkscape:connector-curvature="0"
       d="m 185.64525,406.96917 -13.37351,0 -3.5e-4,-31.2998 13.37386,-3.6e-4 z"
       style="fill:none;stroke:#ff0000;stroke-opacity:1"
       id="path22920"
       sodipodi:nodetypes="ccccc" />
    <path
       inkscape:connector-curvature="0"
       d="m 545.65694,375.66937 13.37386,-3.6e-4 0,31.30016 -13.37351,0 z"
       style="fill:none;stroke:#ff0000;stroke-opacity:1"
       id="path22924"
       sodipodi:nodetypes="ccccc" />
    <path
       inkscape:connector-curvature="0"
       d="m 601.94025,382.75598 0,14.17323 -7.08662,0 0,-14.17323 z"
       style="fill:none;stroke:#ff0000;stroke-opacity:1"
       id="path22934"
       sodipodi:nodetypes="ccccc" />
    <path
       inkscape:connector-curvature="0"
       d="m 129.36229,382.75598 7.08662,0 0,14.17323 -7.08662,0 z"
       style="fill:none;stroke:#ff0000;stroke-opacity:1"
       id="path22940"
       sodipodi:nodetypes="ccccc" />
    <path
       inkscape:connector-curvature="0"
       d="m 262.0641,468.79292 -0.4096,-0.0812 -0.40146,-0.11345 -0.39153,-0.1446 -0.37914,-0.1747 -0.36389,-0.2037 -0.34725,-0.2321 -0.32776,-0.2583 -0.30649,-0.2831 -0.28311,-0.3065 -0.25831,-0.3278 -0.23173,-0.3468 -0.2041,-0.3643 -0.17468,-0.3791 -0.14457,-0.3916 -0.11303,-0.4014 -0.0815,-0.4093 -0.0493,-0.4145 -0.0163,-0.4171 0,-63.77952 0.0163,-0.41704 0.0493,-0.41422 0.0815,-0.4096 0.11303,-0.40146 0.14457,-0.39153 0.17468,-0.37914 0.2041,-0.3639 0.23173,-0.34724 0.25831,-0.32776 0.28311,-0.30649 0.30649,-0.28311 0.32776,-0.25831 0.34725,-0.23209 0.36389,-0.20374 0.37914,-0.17468 0.39153,-0.14457 0.40146,-0.11338 0.4096,-0.0811 0.41422,-0.0493 0.41704,-0.0163 0.41705,0.0163 0.41457,0.0493 0.40925,0.0811 0.40146,0.1134 0.39153,0.14457 0.37914,0.17468 0.36425,0.20374 0.34689,0.23209 0.32775,0.25831 0.3065,0.28311 0.28311,0.30649 0.25831,0.32776 0.23208,0.34724 0.20374,0.3639 0.17469,0.37914 0.14457,0.39153 0.11338,0.40146 0.0811,0.4096 0.0493,0.41422 0.0163,0.41704 0,63.77952 -0.0163,0.4171 -0.0492,0.4145 -0.0811,0.4093 -0.1134,0.4014 -0.14457,0.3916 -0.17469,0.3791 -0.20374,0.3643 -0.23208,0.3468 -0.25831,0.3278 -0.28311,0.3065 -0.3065,0.2831 -0.32775,0.2583 -0.34689,0.2321 -0.36425,0.2037 -0.37914,0.1747 -0.39153,0.1446 -0.40146,0.1134 -0.40925,0.081 -0.41457,0.0492 -0.41705,0.0163 -0.41704,-0.016 z"
       style="fill:none;stroke:#ff0000;stroke-opacity:1"
       id="path22948"
       sodipodi:nodetypes="ccccccccccccccccccccccccccccccccccccccccccccccccccccccccccccccccccccccccccccccccccc" />
    <path
       inkscape:connector-curvature="0"
       d="m 467.57556,468.79292 -0.40925,-0.0812 -0.40146,-0.11345 -0.39153,-0.1446 -0.37914,-0.1747 -0.36425,-0.2037 -0.34689,-0.2321 -0.32775,-0.2583 -0.3065,-0.2831 -0.28311,-0.3065 -0.25831,-0.3278 -0.23208,-0.3468 -0.20374,-0.3643 -0.17469,-0.3791 -0.14457,-0.3916 -0.11338,-0.4014 -0.0811,-0.4093 -0.0493,-0.4145 -0.0163,-0.4171 0,-63.77952 0.0163,-0.41704 0.0492,-0.41422 0.0812,-0.4096 0.1134,-0.40146 0.14457,-0.39153 0.17469,-0.37914 0.20374,-0.3639 0.23208,-0.34724 0.25831,-0.32776 0.28311,-0.30649 0.3065,-0.28311 0.32775,-0.25831 0.34689,-0.23209 0.36425,-0.20374 0.37914,-0.17468 0.39153,-0.14457 0.40146,-0.11338 0.40925,-0.0811 0.41457,-0.0493 0.41705,-0.0163 0.41704,0.0163 0.41422,0.0493 0.4096,0.0811 0.40146,0.1134 0.39153,0.14457 0.37914,0.17468 0.36389,0.20374 0.34725,0.23209 0.32776,0.25831 0.30649,0.28311 0.28311,0.30649 0.25831,0.32776 0.23173,0.34724 0.2041,0.3639 0.17468,0.37914 0.14457,0.39153 0.11303,0.40146 0.0815,0.4096 0.0493,0.41422 0.0163,0.41704 0,63.77952 -0.0163,0.4171 -0.0493,0.4145 -0.0815,0.4093 -0.11302,0.4014 -0.14457,0.3916 -0.17468,0.3791 -0.2041,0.3643 -0.23173,0.3468 -0.25831,0.3278 -0.28311,0.3065 -0.30649,0.2831 -0.32776,0.2583 -0.34725,0.2321 -0.36389,0.2037 -0.37914,0.1747 -0.39153,0.1446 -0.40146,0.1134 -0.4096,0.081 -0.41422,0.0492 -0.41704,0.0163 -0.41705,-0.016 z"
       style="fill:none;stroke:#ff0000;stroke-opacity:1"
       id="path23112"
       sodipodi:nodetypes="ccccccccccccccccccccccccccccccccccccccccccccccccccccccccccccccccccccccccccccccccccc" />
    <path
       inkscape:connector-curvature="0"
       d="m 534.61741,438.85822 0,-14.17322 7.08662,0 0,14.17322 z"
       style="fill:none;stroke:#ff0000;stroke-opacity:1"
       id="path23282"
       sodipodi:nodetypes="ccccc" />
    <path
       inkscape:connector-curvature="0"
       d="m 196.68513,438.85822 -7.08662,0 0,-14.17322 7.08662,0 z"
       style="fill:none;stroke:#ff0000;stroke-opacity:1"
       id="path23288"
       sodipodi:nodetypes="ccccc" />
    <path
       inkscape:connector-curvature="0"
       d="m 164.79536,438.85822 -7.08661,0 0,-14.17322 7.08661,0 z"
       style="fill:none;stroke:#ff0000;stroke-opacity:1"
       id="path23296"
       sodipodi:nodetypes="ccccc" />
    <path
       inkscape:connector-curvature="0"
       d="m 566.50718,424.685 7.08661,0 0,14.17322 -7.08661,0 z"
       style="fill:none;stroke:#ff0000;stroke-opacity:1"
       id="path23300"
       sodipodi:nodetypes="ccccc" />
    <path
       inkscape:connector-curvature="0"
       d="m 545.65729,515.15737 -3.5e-4,-59.1729 13.37386,-4e-4 0,59.1733 z"
       style="fill:none;stroke:#ff0000;stroke-opacity:1"
       id="path23314"
       sodipodi:nodetypes="ccccc" />
    <path
       inkscape:connector-curvature="0"
       d="m 172.27139,455.98447 13.37386,-4e-4 0,59.1733 -13.37351,0 z"
       style="fill:none;stroke:#ff0000;stroke-opacity:1"
       id="path23316"
       sodipodi:nodetypes="ccccc" />
    <path
       inkscape:connector-curvature="0"
       d="m 594.85363,487.83757 7.08662,0 0,14.1733 -7.08662,0 z"
       style="fill:none;stroke:#ff0000;stroke-opacity:1"
       id="path23324"
       sodipodi:nodetypes="ccccc" />
    <path
       inkscape:connector-curvature="0"
       d="m 136.44891,487.83757 0,14.1733 -7.08662,0 0,-14.1733 z"
       style="fill:none;stroke:#ff0000;stroke-opacity:1"
       id="path23334"
       sodipodi:nodetypes="ccccc" />
    <path
       inkscape:connector-curvature="0"
       d="m 261.25304,581.98407 -0.39153,-0.1445 -0.37914,-0.1747 -0.36389,-0.2041 -0.34725,-0.2318 -0.32776,-0.2583 -0.30649,-0.2831 -0.28311,-0.3065 -0.25831,-0.3277 -0.23173,-0.3473 -0.2041,-0.3639 -0.17468,-0.3791 -0.14457,-0.3915 -0.11303,-0.4015 -0.0815,-0.4096 -0.0493,-0.4142 -0.0163,-0.4171 0,-63.7795 0.0163,-0.417 0.0493,-0.4145 0.0815,-0.4092 0.11303,-0.4017 0.14457,-0.3916 0.17468,-0.379 0.2041,-0.3641 0.23173,-0.347 0.25831,-0.3277 0.28311,-0.3065 0.30649,-0.2833 0.32776,-0.2583 0.34725,-0.2319 0.36389,-0.2039 0.37914,-0.1747 0.39153,-0.1444 0.40146,-0.1133 0.4096,-0.0812 0.41422,-0.0493 0.41704,-0.0162 0.41705,0.016 0.41457,0.0493 0.40925,0.0813 0.40146,0.1135 0.39153,0.1444 0.37914,0.1747 0.36425,0.2039 0.34689,0.2319 0.32775,0.2583 0.3065,0.2833 0.28311,0.3065 0.25831,0.3277 0.23208,0.347 0.20374,0.3641 0.17469,0.379 0.14457,0.3916 0.11338,0.4017 0.0811,0.4092 0.0493,0.4145 0.0163,0.417 0,63.7795 -0.0163,0.4171 -0.0492,0.4142 -0.0811,0.4096 -0.1134,0.4015 -0.14457,0.3915 -0.17469,0.3791 -0.20374,0.3639 -0.23208,0.3473 -0.25831,0.3277 -0.28311,0.3065 -0.3065,0.2831 -0.32775,0.2583 -0.34689,0.2318 -0.36425,0.2041 -0.37914,0.1747 -0.39153,0.1445 -0.40146,0.1131 -0.40925,0.0812 -0.41457,0.0494 -0.41705,0.0163 -0.41704,-0.016 -0.41422,-0.0493 -0.4096,-0.0814 z"
       style="fill:none;stroke:#ff0000;stroke-opacity:1"
       id="path23344"
       sodipodi:nodetypes="ccccccccccccccccccccccccccccccccccccccccccccccccccccccccccccccccccccccccccccccccccc" />
    <path
       inkscape:connector-curvature="0"
       d="m 468.82422,507.85087 0.41422,0.0493 0.4096,0.0813 0.40146,0.1135 0.39153,0.1444 0.37914,0.1747 0.36389,0.2039 0.34725,0.2319 0.32776,0.2583 0.30649,0.2833 0.28311,0.3065 0.25831,0.3277 0.23173,0.347 0.2041,0.3641 0.17468,0.379 0.14457,0.3916 0.11303,0.4017 0.0815,0.4092 0.0493,0.4145 0.0163,0.417 0,63.7795 -0.0163,0.4171 -0.0493,0.4142 -0.0815,0.4096 -0.11302,0.4015 -0.14457,0.3915 -0.17468,0.3791 -0.2041,0.3639 -0.23173,0.3473 -0.25831,0.3277 -0.28311,0.3065 -0.30649,0.2831 -0.32776,0.2583 -0.34725,0.2318 -0.36389,0.2041 -0.37914,0.1747 -0.39153,0.1445 -0.40146,0.1131 -0.4096,0.0812 -0.41422,0.0494 -0.41704,0.0163 -0.41705,-0.016 -0.41457,-0.0493 -0.40925,-0.0814 -0.40146,-0.1133 -0.39153,-0.1445 -0.37914,-0.1747 -0.36425,-0.2041 -0.34689,-0.2318 -0.32775,-0.2583 -0.3065,-0.2831 -0.28311,-0.3065 -0.25831,-0.3277 -0.23208,-0.3473 -0.20374,-0.3639 -0.17469,-0.3791 -0.14457,-0.3915 -0.11338,-0.4015 -0.0811,-0.4096 -0.0493,-0.4142 -0.0163,-0.4171 0,-63.7795 0.0163,-0.417 0.0492,-0.4145 0.0812,-0.4092 0.1134,-0.4017 0.14457,-0.3916 0.17469,-0.379 0.20374,-0.3641 0.23208,-0.347 0.25831,-0.3277 0.28311,-0.3065 0.3065,-0.2833 0.32775,-0.2583 0.34689,-0.2319 0.36425,-0.2039 0.37914,-0.1747 0.39153,-0.1444 0.40146,-0.1133 0.40925,-0.0812 0.41457,-0.0493 0.41705,-0.0162 z"
       style="fill:none;stroke:#ff0000;stroke-opacity:1"
       id="path23584"
       sodipodi:nodetypes="ccccccccccccccccccccccccccccccccccccccccccccccccccccccccccccccccccccccccccccccccccc" />
    <path
       inkscape:connector-curvature="0"
       d="m 367.78647,604.72787 1.00174,0.4149 0.92447,0.5662 0.82453,0.7045 0.70416,0.8245 0.56657,0.9244 0.41489,1.0017 0.25317,1.0542 0.085,1.081 2e-5,42.5197 -0.085,1.0811 -0.25319,1.0541 -0.41489,1.0017 -0.56657,0.9244 -0.70416,0.8246 -0.82453,0.7044 -0.92447,0.5666 -1.00174,0.4149 -1.0543,0.253 -1.0809,0.085 -1.0809,-0.085 -1.0543,-0.253 -1.00174,-0.4149 -0.92447,-0.5666 -0.82453,-0.7044 -0.70416,-0.8246 -0.56657,-0.9244 -0.41489,-1.0017 -0.25317,-1.0541 -0.085,-1.0811 -2e-5,-42.5197 0.085,-1.081 0.25319,-1.0542 0.41489,-1.0017 0.56657,-0.9244 0.70416,-0.8245 0.82453,-0.7045 0.92447,-0.5662 1.00174,-0.4149 1.0543,-0.2533 1.0809,-0.0851 1.0809,0.0851 z"
       style="fill:none;stroke:#ff0000;stroke-opacity:1"
       id="path23710"
       sodipodi:nodetypes="ccccccccccccccccccccccccccccccccccccccccccc" />
    <path
       inkscape:connector-curvature="0"
       d="m 281.69296,604.47452 1.05414,0.25335 1.00169,0.4149 0.92445,0.5662 0.82453,0.7045 0.70441,0.8245 0.56657,0.9244 0.41492,1.0017 0.25299,1.0542 0.085,1.081 2e-5,42.5197 -0.085,1.0811 -0.25301,1.0541 -0.41492,1.0017 -0.56657,0.9244 -0.70441,0.8246 -0.82453,0.7044 -0.92445,0.5666 -1.00169,0.4149 -1.05414,0.253 -1.08106,0.085 -1.08106,-0.085 -1.05414,-0.253 -1.00169,-0.4149 -0.92445,-0.5666 -0.82453,-0.7044 -0.70441,-0.8246 -0.56622,-0.9244 -0.41492,-1.0017 -0.25334,-1.0541 -0.085,-1.0811 -2e-5,-42.5197 0.085,-1.081 0.25336,-1.0542 0.41492,-1.0017 0.56622,-0.9244 0.70441,-0.8245 0.82453,-0.7045 0.92445,-0.5662 1.00169,-0.4149 1.05414,-0.2533 1.08106,-0.0851 z"
       style="fill:none;stroke:#ff0000;stroke-opacity:1"
       id="path23792"
       sodipodi:nodetypes="ccccccccccccccccccccccccccccccccccccccccccc" />
    <path
       inkscape:connector-curvature="0"
       d="m 452.82584,604.72787 1.00169,0.4149 0.92445,0.5662 0.82453,0.7045 0.70441,0.8245 0.56622,0.9244 0.41492,1.0017 0.25334,1.0542 0.085,1.081 2e-5,42.5197 -0.085,1.0811 -0.25336,1.0541 -0.41492,1.0017 -0.56622,0.9244 -0.70441,0.8246 -0.82453,0.7044 -0.92445,0.5666 -1.00169,0.4149 -1.05414,0.253 -1.08106,0.085 -1.08106,-0.085 -1.05414,-0.253 -1.00169,-0.4149 -0.92445,-0.5666 -0.82453,-0.7044 -0.70441,-0.8246 -0.56657,-0.9244 -0.41492,-1.0017 -0.25299,-1.0541 -0.085,-1.0811 -2e-5,-42.5197 0.085,-1.081 0.25301,-1.0542 0.41492,-1.0017 0.56657,-0.9244 0.70441,-0.8245 0.82453,-0.7045 0.92445,-0.5662 1.00169,-0.4149 1.05414,-0.2533 1.08106,-0.0851 1.08106,0.085 z"
       style="fill:none;stroke:#ff0000;stroke-opacity:1"
       id="path23878"
       sodipodi:nodetypes="ccccccccccccccccccccccccccccccccccccccccccc" />
    <path
       inkscape:connector-curvature="0"
       d="m 324.21265,625.73472 1.05413,0.25295 1.0017,0.415 0.92444,0.5665 0.82453,0.7044 0.70406,0.8242 0.56657,0.9245 0.41492,1.0017 0.25299,1.0545 0.085,1.0807 -0.085,1.081 -0.25301,1.0542 -0.41492,1.0017 -0.56657,0.9244 -0.70406,0.8245 -0.82453,0.7041 -0.92444,0.5666 -1.0017,0.4149 -1.05413,0.253 -1.08106,0.085 -1.08071,-0.085 -1.05449,-0.253 -1.0017,-0.4149 -0.92444,-0.5666 -0.82418,-0.7041 -0.70441,-0.8245 -0.56657,-0.9244 -0.41492,-1.0017 -0.25299,-1.0542 -0.085,-1.081 0.085,-1.0807 0.25301,-1.0545 0.41492,-1.0017 0.56657,-0.9245 0.70441,-0.8242 0.82418,-0.7044 0.92445,-0.5665 1.00169,-0.415 1.05449,-0.2529 1.08071,-0.0851 z"
       style="fill:none;stroke:#ff0000;stroke-opacity:1"
       id="path23958"
       sodipodi:nodetypes="ccccccccccccccccccccccccccccccccccccccccc" />
    <path
       inkscape:connector-curvature="0"
       d="m 409.25166,625.73472 1.05449,0.25295 1.0017,0.415 0.92444,0.5665 0.82418,0.7044 0.70441,0.8242 0.56657,0.9245 0.41492,1.0017 0.25299,1.0545 0.085,1.0807 -0.085,1.081 -0.25301,1.0542 -0.41492,1.0017 -0.56657,0.9244 -0.70441,0.8245 -0.82418,0.7041 -0.92445,0.5666 -1.00169,0.4149 -1.05449,0.253 -1.08071,0.085 -1.08106,-0.085 -1.05413,-0.253 -1.0017,-0.4149 -0.92444,-0.5666 -0.82453,-0.7041 -0.70406,-0.8245 -0.56657,-0.9244 -0.41492,-1.0017 -0.25299,-1.0542 -0.085,-1.081 0.085,-1.0807 0.25301,-1.0545 0.41492,-1.0017 0.56657,-0.9245 0.70406,-0.8242 0.82453,-0.7044 0.92444,-0.5665 1.0017,-0.415 1.05413,-0.2529 1.08106,-0.0851 z"
       style="fill:none;stroke:#ff0000;stroke-opacity:1"
       id="path24038"
       sodipodi:nodetypes="ccccccccccccccccccccccccccccccccccccccccc" />
    <path
       inkscape:connector-curvature="0"
       d="m 372.22251,677.21397 -0.41489,1.0017 -0.5665,0.9245 -0.70416,0.8245 -0.82442,0.7041 -0.92449,0.5665 -1.00169,0.415 -1.05425,0.253 -1.08084,0.085 -1.08084,-0.085 -1.05425,-0.253 -1.00169,-0.415 -0.92449,-0.5665 -0.82442,-0.7041 -0.70416,-0.8245 -0.5665,-0.9245 -0.41489,-1.0017 -0.2531,-1.0541 -0.0851,-1.0811 0.0851,-1.0807 0.2531,-1.0545 0.41489,-1.0016 0.5665,-0.9245 0.70416,-0.8242 0.82442,-0.7044 0.92449,-0.5666 1.00169,-0.4149 1.05425,-0.253 1.08084,-0.085 1.08084,0.085 1.05425,0.253 1.00169,0.4149 0.92449,0.5666 0.82442,0.7044 0.70416,0.8242 0.5665,0.9245 0.41489,1.0016 0.2531,1.0545 0.0851,1.0807 -0.0851,1.0811 z"
       style="fill:none;stroke:#ff0000;stroke-opacity:1"
       id="path24140"
       sodipodi:nodetypes="ccccccccccccccccccccccccccccccccccccccccc" />
    <path
       inkscape:connector-curvature="0"
       d="m 457.51507,676.15987 -0.25301,1.0541 -0.41492,1.0017 -0.56658,0.9245 -0.70441,0.8245 -0.82417,0.7041 -0.92445,0.5665 -1.00169,0.415 -1.05449,0.253 -1.08071,0.085 -1.08106,-0.085 -1.05414,-0.253 -1.00169,-0.415 -0.92445,-0.5665 -0.82453,-0.7041 -0.70405,-0.8245 -0.56658,-0.9245 -0.41492,-1.0017 -0.25299,-1.0541 -0.085,-1.0811 0.085,-1.0807 0.25301,-1.0545 0.41492,-1.0016 0.56658,-0.9245 0.70405,-0.8242 0.82453,-0.7044 0.92445,-0.5666 1.00169,-0.4149 1.05414,-0.253 1.08106,-0.085 1.08071,0.085 1.05449,0.253 1.00169,0.4149 0.92445,0.5666 0.82417,0.7044 0.70441,0.8242 0.56658,0.9245 0.41492,1.0016 0.25299,1.0545 0.085,1.0807 z"
       style="fill:none;stroke:#ff0000;stroke-opacity:1"
       id="path24218"
       sodipodi:nodetypes="ccccccccccccccccccccccccccccccccccccccccc" />
    <path
       inkscape:connector-curvature="0"
       d="m 316.56017,672.94357 0.41492,-1.0016 0.56657,-0.9245 0.70441,-0.8242 0.82418,-0.7044 0.92445,-0.5666 1.00169,-0.4149 1.05449,-0.253 1.08071,-0.085 1.08106,0.085 1.05413,0.253 1.0017,0.4149 0.92444,0.5666 0.82453,0.7044 0.70406,0.8242 0.56657,0.9245 0.41492,1.0016 0.25299,1.0545 0.085,1.0807 -0.085,1.0811 -0.25301,1.0541 -0.41492,1.0017 -0.56657,0.9245 -0.70406,0.8245 -0.82453,0.7041 -0.92444,0.5665 -1.0017,0.415 -1.05413,0.253 -1.08106,0.085 -1.08071,-0.085 -1.05449,-0.253 -1.0017,-0.415 -0.92444,-0.5665 -0.82418,-0.7041 -0.70441,-0.8245 -0.56657,-0.9245 -0.41492,-1.0017 -0.25299,-1.0541 -0.085,-1.0811 0.085,-1.0807 z"
       style="fill:none;stroke:#ff0000;stroke-opacity:1"
       id="path24260"
       sodipodi:nodetypes="ccccccccccccccccccccccccccccccccccccccccc" />
    <path
       inkscape:connector-curvature="0"
       d="m 414.74237,677.21397 -0.41492,1.0017 -0.56657,0.9245 -0.70441,0.8245 -0.82418,0.7041 -0.92445,0.5665 -1.00169,0.415 -1.05449,0.253 -1.08071,0.085 -1.08106,-0.085 -1.05413,-0.253 -1.0017,-0.415 -0.92444,-0.5665 -0.82453,-0.7041 -0.70406,-0.8245 -0.56657,-0.9245 -0.41492,-1.0017 -0.25299,-1.0541 -0.085,-1.0811 0.085,-1.0807 0.25301,-1.0545 0.41492,-1.0016 0.56657,-0.9245 0.70406,-0.8242 0.82453,-0.7044 0.92444,-0.5666 1.0017,-0.4149 1.05413,-0.253 1.08106,-0.085 1.08071,0.085 1.05449,0.253 1.0017,0.4149 0.92444,0.5666 0.82418,0.7044 0.70441,0.8242 0.56657,0.9245 0.41492,1.0016 0.25299,1.0545 0.085,1.0807 -0.085,1.0811 z"
       style="fill:none;stroke:#ff0000;stroke-opacity:1"
       id="path24380"
       sodipodi:nodetypes="ccccccccccccccccccccccccccccccccccccccccc" />
    <path
       inkscape:connector-curvature="0"
       d="m 287.43633,676.15987 -0.25301,1.0541 -0.41492,1.0017 -0.56658,0.9245 -0.70405,0.8245 -0.82453,0.7041 -0.92445,0.5665 -1.00169,0.415 -1.05414,0.253 -1.08106,0.085 -1.08071,-0.085 -1.05449,-0.253 -1.00169,-0.415 -0.92445,-0.5665 -0.82417,-0.7041 -0.70441,-0.8245 -0.56658,-0.9245 -0.41492,-1.0017 -0.25299,-1.0541 -0.085,-1.0811 0.085,-1.0807 0.25301,-1.0545 0.41492,-1.0016 0.56658,-0.9245 0.70441,-0.8242 0.82417,-0.7044 0.92445,-0.5666 1.00169,-0.4149 1.05449,-0.253 1.08071,-0.085 1.08106,0.085 1.05414,0.253 1.00169,0.4149 0.92445,0.5666 0.82453,0.7044 0.70405,0.8242 0.56658,0.9245 0.41492,1.0016 0.25299,1.0545 0.085,1.0807 z"
       style="fill:none;stroke:#ff0000;stroke-opacity:1"
       id="path24458"
       sodipodi:nodetypes="ccccccccccccccccccccccccccccccccccccccccc" />
    <path
       inkscape:connector-curvature="0"
       d="m 193.52344,691.95767 -0.78626,-0.2781 -0.73276,-0.3979 -0.66189,-0.5078 -0.57402,-0.6052 -0.47232,-0.6874 -0.35894,-0.7526 -0.23704,-0.7997 -0.10878,-0.827 0.0216,-0.8334 0.15201,-0.8203 0.2785,-0.7859 0.39792,-0.7331 0.50775,-0.6615 0.6052,-0.5744 0.68705,-0.4723 0.75295,-0.3589 0.79972,-0.2371 0.82666,-0.1088 0.83374,0.022 0.82027,0.152 0.78591,0.2782 0.73311,0.3979 0.66153,0.5077 0.57402,0.6052 0.47268,0.6871 0.35893,0.7529 0.2367,0.7997 0.10913,0.8271 -0.022,0.8333 -0.15199,0.8203 -0.27816,0.7863 -0.39826,0.7327 -0.50776,0.6619 -0.60484,0.574 -0.6874,0.4724 -0.7526,0.3589 -0.79972,0.237 -0.82701,0.1088 -0.83374,-0.0219 z"
       style="fill:none;stroke:#ff0000;stroke-opacity:1"
       id="path24480"
       sodipodi:nodetypes="ccccccccccccccccccccccccccccccccccccccccc" />
    <path
       inkscape:connector-curvature="0"
       d="m 150.83367,692.02287 -0.79972,-0.237 -0.7526,-0.3589 -0.6874,-0.4724 -0.60484,-0.574 -0.50776,-0.6619 -0.39791,-0.7327 -0.27851,-0.7863 -0.15201,-0.8203 -0.022,-0.8333 0.10915,-0.8271 0.23669,-0.7997 0.35929,-0.7529 0.47233,-0.6871 0.57401,-0.6052 0.66154,-0.5077 0.73311,-0.3979 0.78626,-0.2782 0.81992,-0.152 0.83374,-0.022 0.82701,0.1088 0.79937,0.2371 0.75295,0.3589 0.6874,0.4723 0.60484,0.5744 0.50776,0.6615 0.39791,0.7331 0.27851,0.7859 0.15201,0.8203 0.0216,0.8334 -0.10878,0.827 -0.23669,0.7997 -0.3593,0.7526 -0.47232,0.6874 -0.57401,0.6052 -0.66189,0.5078 -0.73276,0.3979 -0.78626,0.2781 -0.81992,0.1521 -0.83374,0.0219 z"
       style="fill:none;stroke:#ff0000;stroke-opacity:1"
       id="path24638"
       sodipodi:nodetypes="ccccccccccccccccccccccccccccccccccccccccc" />
    <path
       inkscape:connector-curvature="0"
       d="m 577.9882,691.95767 -0.78626,-0.2781 -0.73276,-0.3979 -0.66189,-0.5078 -0.57401,-0.6052 -0.47232,-0.6874 -0.3593,-0.7526 -0.23669,-0.7997 -0.10878,-0.827 0.0216,-0.8334 0.15201,-0.8203 0.27851,-0.7859 0.39791,-0.7331 0.50776,-0.6615 0.60484,-0.5744 0.6874,-0.4723 0.75295,-0.3589 0.79937,-0.2371 0.82701,-0.1088 0.83374,0.022 0.81992,0.152 0.78626,0.2782 0.73311,0.3979 0.66154,0.5077 0.57401,0.6052 0.47233,0.6871 0.35929,0.7529 0.23669,0.7997 0.10913,0.8271 -0.022,0.8333 -0.15199,0.8203 -0.27851,0.7863 -0.39791,0.7327 -0.50776,0.6619 -0.60484,0.574 -0.6874,0.4724 -0.7526,0.3589 -0.79972,0.237 -0.82701,0.1088 -0.83374,-0.0219 z"
       style="fill:none;stroke:#ff0000;stroke-opacity:1"
       id="path24640"
       sodipodi:nodetypes="ccccccccccccccccccccccccccccccccccccccccc" />
    <path
       inkscape:connector-curvature="0"
       d="m 535.29843,692.02287 -0.79972,-0.237 -0.7526,-0.3589 -0.6874,-0.4724 -0.60484,-0.574 -0.50776,-0.6619 -0.39826,-0.7327 -0.27816,-0.7863 -0.152,-0.8203 -0.022,-0.8333 0.10915,-0.8271 0.2367,-0.7997 0.35893,-0.7529 0.47268,-0.6871 0.57402,-0.6052 0.66153,-0.5077 0.73311,-0.3979 0.78591,-0.2782 0.82027,-0.152 0.83374,-0.022 0.82666,0.1088 0.79972,0.2371 0.75295,0.3589 0.68705,0.4723 0.6052,0.5744 0.50775,0.6615 0.39792,0.7331 0.2785,0.7859 0.15201,0.8203 0.0216,0.8334 -0.10877,0.827 -0.23704,0.7997 -0.35894,0.7526 -0.47232,0.6874 -0.57402,0.6052 -0.66189,0.5078 -0.73276,0.3979 -0.78626,0.2781 -0.81992,0.1521 -0.83374,0.0219 z"
       style="fill:none;stroke:#ff0000;stroke-opacity:1"
       id="path24798"
       sodipodi:nodetypes="ccccccccccccccccccccccccccccccccccccccccc" />
    <path
       inkscape:connector-curvature="0"
       d="m 363.51607,745.42977 -1.00174,-0.4149 -0.92447,-0.5663 -0.82453,-0.7044 -0.70416,-0.8245 -0.56657,-0.9244 -0.41489,-1.0017 -0.25317,-1.0542 -0.085,-1.081 -2e-5,-42.5197 0.085,-1.0811 0.25319,-1.0541 0.41489,-1.0017 0.56657,-0.9245 0.70416,-0.8245 0.82453,-0.7044 0.92447,-0.5662 1.00174,-0.4149 1.0543,-0.2534 1.0809,-0.085 1.0809,0.085 1.0543,0.2534 1.00174,0.4149 0.92447,0.5662 0.82453,0.7044 0.70416,0.8245 0.56657,0.9245 0.41489,1.0017 0.25317,1.0541 0.085,1.0811 2e-5,42.5197 -0.085,1.081 -0.25319,1.0542 -0.41489,1.0017 -0.56657,0.9244 -0.70416,0.8245 -0.82453,0.7044 -0.92447,0.5663 -1.00174,0.4149 -1.0543,0.2533 -1.0809,0.0851 -1.0809,-0.0851 z"
       style="fill:none;stroke:#ff0000;stroke-opacity:1"
       id="path24800"
       sodipodi:nodetypes="ccccccccccccccccccccccccccccccccccccccccccc" />
    <path
       inkscape:connector-curvature="0"
       d="m 448.55544,745.42977 -1.00169,-0.4149 -0.92445,-0.5663 -0.82453,-0.7044 -0.70441,-0.8245 -0.56657,-0.9244 -0.41492,-1.0017 -0.25299,-1.0542 -0.085,-1.081 -2e-5,-42.5197 0.085,-1.0811 0.25301,-1.0541 0.41492,-1.0017 0.56657,-0.9245 0.70441,-0.8245 0.82453,-0.7044 0.92445,-0.5662 1.00169,-0.4149 1.05414,-0.2534 1.08106,-0.085 1.08106,0.085 1.05414,0.2534 1.00169,0.4149 0.92445,0.5662 0.82453,0.7044 0.70441,0.8245 0.56622,0.9245 0.41492,1.0017 0.25334,1.0541 0.085,1.0811 2e-5,42.5197 -0.085,1.081 -0.25336,1.0542 -0.41492,1.0017 -0.56622,0.9244 -0.70441,0.8245 -0.82453,0.7044 -0.92445,0.5663 -1.00169,0.4149 -1.05414,0.2533 -1.08106,0.085 -1.08106,-0.085 z"
       style="fill:none;stroke:#ff0000;stroke-opacity:1"
       id="path24884"
       sodipodi:nodetypes="ccccccccccccccccccccccccccccccccccccccccccc" />
    <path
       inkscape:connector-curvature="0"
       d="m 278.4767,745.42977 -1.00169,-0.4149 -0.92445,-0.5663 -0.82453,-0.7044 -0.70441,-0.8245 -0.56622,-0.9244 -0.41492,-1.0017 -0.25334,-1.0542 -0.085,-1.081 -2e-5,-42.5197 0.085,-1.0811 0.25336,-1.0541 0.41492,-1.0017 0.56622,-0.9245 0.70441,-0.8245 0.82453,-0.7044 0.92445,-0.5662 1.00169,-0.4149 1.05414,-0.2534 1.08106,-0.085 1.08106,0.085 1.05414,0.2534 1.00169,0.4149 0.92445,0.5662 0.82453,0.7044 0.70441,0.8245 0.56657,0.9245 0.41492,1.0017 0.25299,1.0541 0.085,1.0811 2e-5,42.5197 -0.085,1.081 -0.25301,1.0542 -0.41492,1.0017 -0.56657,0.9244 -0.70441,0.8245 -0.82453,0.7044 -0.92445,0.5663 -1.00169,0.4149 -1.05414,0.2533 -1.08106,0.085 -1.08106,-0.085 z"
       style="fill:none;stroke:#ff0000;stroke-opacity:1"
       id="path24968"
       sodipodi:nodetypes="ccccccccccccccccccccccccccccccccccccccccccc" />
    <path
       inkscape:connector-curvature="0"
       d="m 406.03576,724.16987 -1.0017,-0.4149 -0.92444,-0.5665 -0.82453,-0.7045 -0.70406,-0.8241 -0.56657,-0.9245 -0.41492,-1.0017 -0.25299,-1.0545 -0.085,-1.0807 0.085,-1.0807 0.25301,-1.0545 0.41492,-1.0017 0.56657,-0.9244 0.70406,-0.8242 0.82453,-0.7044 0.92444,-0.5666 1.0017,-0.4149 1.05413,-0.253 1.08106,-0.085 1.08071,0.085 1.05449,0.253 1.0017,0.4149 0.92444,0.5666 0.82418,0.7044 0.70441,0.8242 0.56657,0.9244 0.41492,1.0017 0.25299,1.0545 0.085,1.0807 -0.085,1.0807 -0.25301,1.0545 -0.41492,1.0017 -0.56657,0.9245 -0.70441,0.8241 -0.82418,0.7045 -0.92445,0.5665 -1.00169,0.4149 -1.05449,0.253 -1.08071,0.0851 -1.08106,-0.085 z"
       style="fill:none;stroke:#ff0000;stroke-opacity:1"
       id="path25052"
       sodipodi:nodetypes="ccccccccccccccccccccccccccccccccccccccccc" />
    <path
       inkscape:connector-curvature="0"
       d="m 322.05088,724.42292 -1.05449,-0.25305 -1.0017,-0.4149 -0.92444,-0.5665 -0.82418,-0.7045 -0.70441,-0.8241 -0.56657,-0.9245 -0.41492,-1.0017 -0.25299,-1.0545 -0.085,-1.0807 0.085,-1.0807 0.25301,-1.0545 0.41492,-1.0017 0.56657,-0.9244 0.70441,-0.8242 0.82418,-0.7044 0.92445,-0.5666 1.00169,-0.4149 1.05449,-0.253 1.08071,-0.085 1.08106,0.085 1.05413,0.253 1.0017,0.4149 0.92444,0.5666 0.82453,0.7044 0.70406,0.8242 0.56657,0.9244 0.41492,1.0017 0.25299,1.0545 0.085,1.0807 -0.085,1.0807 -0.25301,1.0545 -0.41492,1.0017 -0.56657,0.9245 -0.70406,0.8241 -0.82453,0.7045 -0.92444,0.5665 -1.0017,0.4149 -1.05413,0.253 -1.08106,0.0851 z"
       style="fill:none;stroke:#ff0000;stroke-opacity:1"
       id="path25210"
       sodipodi:nodetypes="ccccccccccccccccccccccccccccccccccccccccc" />
    <path
       inkscape:connector-curvature="0"
       d="m 175.06139,718.97397 0.77031,0.3189 0.71115,0.4359 0.63425,0.5417 0.54177,0.6343 0.43583,0.7108 0.31889,0.7706 0.19489,0.8111 0.0652,0.8313 -0.0652,0.8316 -0.19488,0.811 -0.31889,0.7704 -0.43583,0.7111 -0.54177,0.6343 -0.63425,0.5417 -0.71115,0.4355 -0.77031,0.3193 -0.81106,0.1948 -0.83126,0.0651 -0.83162,-0.065 -0.81106,-0.1949 -0.77032,-0.3193 -0.71114,-0.4355 -0.63425,-0.5417 -0.54177,-0.6343 -0.43547,-0.7111 -0.31926,-0.7704 -0.19488,-0.811 -0.0652,-0.8316 0.0652,-0.8313 0.19488,-0.8111 0.31926,-0.7706 0.43547,-0.7108 0.54177,-0.6343 0.63425,-0.5417 0.71114,-0.4359 0.77032,-0.3189 0.81106,-0.1948 0.83162,-0.0658 0.83126,0.066 z"
       style="fill:none;stroke:#ff0000;stroke-opacity:1"
       id="path25252"
       sodipodi:nodetypes="ccccccccccccccccccccccccccccccccccccccccc" />
    <path
       inkscape:connector-curvature="0"
       d="m 558.71509,718.77937 0.81106,0.1946 0.77032,0.3189 0.71114,0.4359 0.63425,0.5417 0.54177,0.6343 0.43547,0.7108 0.31926,0.7706 0.19488,0.8111 0.0652,0.8313 -0.0652,0.8316 -0.19488,0.811 -0.31926,0.7704 -0.43547,0.7111 -0.54177,0.6343 -0.63425,0.5417 -0.71114,0.4355 -0.77032,0.3193 -0.81106,0.1948 -0.83162,0.0651 -0.83126,-0.065 -0.81106,-0.1949 -0.77031,-0.3193 -0.71115,-0.4355 -0.63425,-0.5417 -0.54177,-0.6343 -0.43583,-0.7111 -0.31889,-0.7704 -0.19489,-0.811 -0.0656,-0.8316 0.0656,-0.8313 0.19487,-0.8111 0.31889,-0.7706 0.43583,-0.7108 0.54177,-0.6343 0.63425,-0.5417 0.71115,-0.4359 0.77031,-0.3189 0.81106,-0.1948 0.83126,-0.0658 z"
       style="fill:none;stroke:#ff0000;stroke-opacity:1"
       id="path25330"
       sodipodi:nodetypes="ccccccccccccccccccccccccccccccccccccccccc" />
    <path
       inkscape:connector-curvature="0"
       d="m 449.60958,766.94262 -1.05414,-0.25305 -1.00169,-0.4149 -0.92445,-0.5666 -0.82453,-0.7044 -0.70405,-0.8241 -0.56658,-0.9245 -0.41492,-1.0017 -0.25299,-1.0545 -0.085,-1.0807 0.085,-1.081 0.25301,-1.0542 0.41492,-1.0017 0.56658,-0.9244 0.70405,-0.8246 0.82453,-0.704 0.92445,-0.5666 1.00169,-0.4149 1.05414,-0.253 1.08106,-0.085 1.08071,0.085 1.05449,0.253 1.00169,0.4149 0.92445,0.5666 0.82417,0.704 0.70441,0.8246 0.56658,0.9244 0.41492,1.0017 0.25299,1.0542 0.085,1.081 -0.085,1.0807 -0.25301,1.0545 -0.41492,1.0017 -0.56658,0.9245 -0.70441,0.8241 -0.82417,0.7044 -0.92445,0.5666 -1.00169,0.4149 -1.05449,0.253 -1.08071,0.085 z"
       style="fill:none;stroke:#ff0000;stroke-opacity:1"
       id="path25450"
       sodipodi:nodetypes="ccccccccccccccccccccccccccccccccccccccccc" />
    <path
       inkscape:connector-curvature="0"
       d="m 320.99639,766.68957 -1.0017,-0.4149 -0.92444,-0.5666 -0.82418,-0.7044 -0.70441,-0.8241 -0.56657,-0.9245 -0.41492,-1.0017 -0.25299,-1.0545 -0.085,-1.0807 0.085,-1.081 0.25301,-1.0542 0.41492,-1.0017 0.56657,-0.9244 0.70441,-0.8246 0.82418,-0.704 0.92445,-0.5666 1.00169,-0.4149 1.05449,-0.253 1.08071,-0.085 1.08106,0.085 1.05413,0.253 1.0017,0.4149 0.92444,0.5666 0.82453,0.704 0.70406,0.8246 0.56657,0.9244 0.41492,1.0017 0.25299,1.0542 0.085,1.081 -0.085,1.0807 -0.25301,1.0545 -0.41492,1.0017 -0.56657,0.9245 -0.70406,0.8241 -0.82453,0.7044 -0.92444,0.5666 -1.0017,0.4149 -1.05413,0.253 -1.08106,0.085 -1.08071,-0.085 z"
       style="fill:none;stroke:#ff0000;stroke-opacity:1"
       id="path25452"
       sodipodi:nodetypes="ccccccccccccccccccccccccccccccccccccccccc" />
    <path
       inkscape:connector-curvature="0"
       d="m 407.08989,766.94262 -1.05413,-0.25305 -1.0017,-0.4149 -0.92444,-0.5666 -0.82453,-0.7044 -0.70406,-0.8241 -0.56657,-0.9245 -0.41492,-1.0017 -0.25299,-1.0545 -0.085,-1.0807 0.085,-1.081 0.25301,-1.0542 0.41492,-1.0017 0.56657,-0.9244 0.70406,-0.8246 0.82453,-0.704 0.92444,-0.5666 1.0017,-0.4149 1.05413,-0.253 1.08106,-0.085 1.08071,0.085 1.05449,0.253 1.0017,0.4149 0.92444,0.5666 0.82418,0.704 0.70441,0.8246 0.56657,0.9244 0.41492,1.0017 0.25299,1.0542 0.085,1.081 -0.085,1.0807 -0.25301,1.0545 -0.41492,1.0017 -0.56657,0.9245 -0.70441,0.8241 -0.82418,0.7044 -0.92445,0.5666 -1.00169,0.4149 -1.05449,0.253 -1.08071,0.085 z"
       style="fill:none;stroke:#ff0000;stroke-opacity:1"
       id="path25610"
       sodipodi:nodetypes="ccccccccccccccccccccccccccccccccccccccccc" />
    <path
       inkscape:connector-curvature="0"
       d="m 363.51618,766.68957 -1.00169,-0.4149 -0.92449,-0.5666 -0.82442,-0.7044 -0.70416,-0.8241 -0.5665,-0.9245 -0.41489,-1.0017 -0.2531,-1.0545 -0.0851,-1.0807 0.0851,-1.081 0.2531,-1.0542 0.41489,-1.0017 0.5665,-0.9244 0.70416,-0.8246 0.82442,-0.704 0.92449,-0.5666 1.00169,-0.4149 1.05425,-0.253 1.08084,-0.085 1.08084,0.085 1.05425,0.253 1.00169,0.4149 0.92449,0.5666 0.82442,0.704 0.70416,0.8246 0.5665,0.9244 0.41489,1.0017 0.2531,1.0542 0.0851,1.081 -0.0851,1.0807 -0.2531,1.0545 -0.41489,1.0017 -0.5665,0.9245 -0.70416,0.8241 -0.82442,0.7044 -0.92449,0.5666 -1.00169,0.4149 -1.05425,0.253 -1.08084,0.0851 -1.08084,-0.085 z"
       style="fill:none;stroke:#ff0000;stroke-opacity:1"
       id="path25612"
       sodipodi:nodetypes="ccccccccccccccccccccccccccccccccccccccccc" />
    <path
       inkscape:connector-curvature="0"
       d="m 279.53119,766.94262 -1.05449,-0.25305 -1.00169,-0.4149 -0.92445,-0.5666 -0.82417,-0.7044 -0.70441,-0.8241 -0.56658,-0.9245 -0.41492,-1.0017 -0.25299,-1.0545 -0.085,-1.0807 0.085,-1.081 0.25301,-1.0542 0.41492,-1.0017 0.56658,-0.9244 0.70441,-0.8246 0.82417,-0.704 0.92445,-0.5666 1.00169,-0.4149 1.05449,-0.253 1.08071,-0.085 1.08106,0.085 1.05414,0.253 1.00169,0.4149 0.92445,0.5666 0.82453,0.704 0.70405,0.8246 0.56658,0.9244 0.41492,1.0017 0.25299,1.0542 0.085,1.081 -0.085,1.0807 -0.25301,1.0545 -0.41492,1.0017 -0.56658,0.9245 -0.70405,0.8241 -0.82453,0.7044 -0.92445,0.5666 -1.00169,0.4149 -1.05414,0.253 -1.08106,0.085 z"
       style="fill:none;stroke:#ff0000;stroke-opacity:1"
       id="path25770"
       sodipodi:nodetypes="ccccccccccccccccccccccccccccccccccccccccc" />
    <path
       inkscape:connector-curvature="0"
       d="m 506.44316,784.33002 0.81106,0.19515 0.77067,0.3189 0.71114,0.4358 0.63426,0.5418 0.54141,0.6343 0.43583,0.7111 0.31925,0.7703 0.19453,0.8111 0.0656,0.8313 -0.0656,0.8316 -0.1945,0.811 -0.31925,0.7703 -0.43583,0.7112 -0.54141,0.6342 -0.63426,0.5418 -0.71114,0.4355 -0.77067,0.3192 -0.81106,0.1949 -0.83126,0.0651 -0.83161,-0.065 -0.81071,-0.195 -0.77067,-0.3192 -0.71114,-0.4355 -0.63426,-0.5418 -0.54141,-0.6342 -0.43583,-0.7112 -0.31925,-0.7703 -0.19453,-0.811 -0.0656,-0.8316 0.0656,-0.8313 0.1945,-0.8111 0.31925,-0.7703 0.43583,-0.7111 0.54141,-0.6343 0.63426,-0.5418 0.71114,-0.4358 0.77067,-0.3189 0.81071,-0.1949 0.83161,-0.0652 z"
       style="fill:none;stroke:#ff0000;stroke-opacity:1"
       id="path25810"
       sodipodi:nodetypes="ccccccccccccccccccccccccccccccccccccccccc" />
    <path
       inkscape:connector-curvature="0"
       d="m 227.33296,784.52517 0.77067,0.3189 0.71114,0.4358 0.63426,0.5418 0.54141,0.6343 0.43583,0.7111 0.31925,0.7703 0.19453,0.8111 0.0656,0.8313 -0.0656,0.8316 -0.1945,0.811 -0.31925,0.7703 -0.43583,0.7112 -0.54141,0.6342 -0.63426,0.5418 -0.71114,0.4355 -0.77067,0.3192 -0.81071,0.1949 -0.83161,0.0651 -0.83126,-0.065 -0.81106,-0.195 -0.77067,-0.3192 -0.71114,-0.4355 -0.63426,-0.5418 -0.54141,-0.6342 -0.43583,-0.7112 -0.31925,-0.7703 -0.19453,-0.811 -0.0656,-0.8316 0.0656,-0.8313 0.19451,-0.8111 0.31925,-0.7703 0.43583,-0.7111 0.54141,-0.6343 0.63426,-0.5418 0.71114,-0.4358 0.77067,-0.3189 0.81106,-0.1949 0.83126,-0.0652 0.83161,0.065 z"
       style="fill:none;stroke:#ff0000;stroke-opacity:1"
       id="path25892"
       sodipodi:nodetypes="ccccccccccccccccccccccccccccccccccccccccc" />
    <path
       inkscape:connector-curvature="0"
       d="m 457.26206,804.77307 -0.41492,1.0017 -0.56658,0.9244 -0.70441,0.8242 -0.82417,0.7044 -0.92445,0.5666 -1.00169,0.4149 -1.05449,0.253 -1.08071,0.085 -1.08106,-0.085 -1.05414,-0.253 -1.00169,-0.4149 -0.92445,-0.5666 -0.82453,-0.7044 -0.70405,-0.8242 -0.56658,-0.9244 -0.41492,-1.0017 -0.25299,-1.0545 -0.085,-1.0807 0.085,-1.0811 0.25301,-1.0541 0.41492,-1.0017 0.56658,-0.9244 0.70405,-0.8246 0.82453,-0.704 0.92445,-0.5666 1.00169,-0.4149 1.05414,-0.253 1.08106,-0.085 1.08071,0.085 1.05449,0.253 1.00169,0.4149 0.92445,0.5666 0.82417,0.704 0.70441,0.8246 0.56658,0.9244 0.41492,1.0017 0.25299,1.0541 0.085,1.0811 -0.085,1.0807 z"
       style="fill:none;stroke:#ff0000;stroke-opacity:1"
       id="path25992"
       sodipodi:nodetypes="ccccccccccccccccccccccccccccccccccccccccc" />
    <path
       inkscape:connector-curvature="0"
       d="m 287.43633,803.71857 -0.25301,1.0545 -0.41492,1.0017 -0.56658,0.9244 -0.70405,0.8242 -0.82453,0.7044 -0.92445,0.5666 -1.00169,0.4149 -1.05414,0.253 -1.08106,0.085 -1.08071,-0.085 -1.05449,-0.253 -1.00169,-0.4149 -0.92445,-0.5666 -0.82417,-0.7044 -0.70441,-0.8242 -0.56658,-0.9244 -0.41492,-1.0017 -0.25299,-1.0545 -0.085,-1.0807 0.085,-1.0811 0.25301,-1.0541 0.41492,-1.0017 0.56658,-0.9244 0.70441,-0.8246 0.82417,-0.704 0.92445,-0.5666 1.00169,-0.4149 1.05449,-0.253 1.08071,-0.085 1.08106,0.085 1.05414,0.253 1.00169,0.4149 0.92445,0.5666 0.82453,0.704 0.70405,0.8246 0.56658,0.9244 0.41492,1.0017 0.25299,1.0541 0.085,1.0811 z"
       style="fill:none;stroke:#ff0000;stroke-opacity:1"
       id="path26070"
       sodipodi:nodetypes="ccccccccccccccccccccccccccccccccccccccccc" />
    <path
       inkscape:connector-curvature="0"
       d="m 372.22251,804.77307 -0.41489,1.0017 -0.5665,0.9244 -0.70416,0.8242 -0.82442,0.7044 -0.92449,0.5666 -1.00169,0.4149 -1.05425,0.253 -1.08084,0.085 -1.08084,-0.085 -1.05425,-0.253 -1.00169,-0.4149 -0.92449,-0.5666 -0.82442,-0.7044 -0.70416,-0.8242 -0.5665,-0.9244 -0.41489,-1.0017 -0.2531,-1.0545 -0.0851,-1.0807 0.0851,-1.0811 0.2531,-1.0541 0.41489,-1.0017 0.5665,-0.9244 0.70416,-0.8246 0.82442,-0.704 0.92449,-0.5666 1.00169,-0.4149 1.05425,-0.253 1.08084,-0.085 1.08084,0.085 1.05425,0.253 1.00169,0.4149 0.92449,0.5666 0.82442,0.704 0.70416,0.8246 0.5665,0.9244 0.41489,1.0017 0.2531,1.0541 0.0851,1.0811 -0.0851,1.0807 z"
       style="fill:none;stroke:#ff0000;stroke-opacity:1"
       id="path26152"
       sodipodi:nodetypes="ccccccccccccccccccccccccccccccccccccccccc" />
    <path
       inkscape:connector-curvature="0"
       d="m 329.95601,803.71857 -0.25301,1.0545 -0.41492,1.0017 -0.56657,0.9244 -0.70406,0.8242 -0.82453,0.7044 -0.92444,0.5666 -1.0017,0.4149 -1.05413,0.253 -1.08106,0.085 -1.08071,-0.085 -1.05449,-0.253 -1.0017,-0.4149 -0.92444,-0.5666 -0.82418,-0.7044 -0.70441,-0.8242 -0.56657,-0.9244 -0.41492,-1.0017 -0.25299,-1.0545 -0.085,-1.0807 0.085,-1.0811 0.25301,-1.0541 0.41492,-1.0017 0.56657,-0.9244 0.70441,-0.8246 0.82418,-0.704 0.92445,-0.5666 1.00169,-0.4149 1.05449,-0.253 1.08071,-0.085 1.08106,0.085 1.05413,0.253 1.0017,0.4149 0.92444,0.5666 0.82453,0.704 0.70406,0.8246 0.56657,0.9244 0.41492,1.0017 0.25299,1.0541 0.085,1.0811 z"
       style="fill:none;stroke:#ff0000;stroke-opacity:1"
       id="path26230"
       sodipodi:nodetypes="ccccccccccccccccccccccccccccccccccccccccc" />
    <path
       inkscape:connector-curvature="0"
       d="m 401.34653,801.55677 0.25301,-1.0541 0.41492,-1.0017 0.56657,-0.9244 0.70406,-0.8246 0.82453,-0.704 0.92444,-0.5666 1.0017,-0.4149 1.05413,-0.253 1.08106,-0.085 1.08071,0.085 1.05449,0.253 1.0017,0.4149 0.92444,0.5666 0.82418,0.704 0.70441,0.8246 0.56657,0.9244 0.41492,1.0017 0.25299,1.0541 0.085,1.0811 -0.085,1.0807 -0.25301,1.0545 -0.41492,1.0017 -0.56657,0.9244 -0.70441,0.8242 -0.82418,0.7044 -0.92445,0.5666 -1.00169,0.4149 -1.05449,0.253 -1.08071,0.085 -1.08106,-0.085 -1.05413,-0.253 -1.0017,-0.4149 -0.92444,-0.5666 -0.82453,-0.7044 -0.70406,-0.8242 -0.56657,-0.9244 -0.41492,-1.0017 -0.25299,-1.0545 -0.085,-1.0807 z"
       style="fill:none;stroke:#ff0000;stroke-opacity:1"
       id="path26270"
       sodipodi:nodetypes="ccccccccccccccccccccccccccccccccccccccccc" />
  </g>
</svg>
