  0
SECTION
  2
BLOCKS
  0
ENDSEC
  0
SECTION
  2
ENTITIES
  0
LINE
  8
0
 10
59.1184
 20
-18.0001
 11
59.1183
 21
4.83333
  0
LINE
  8
0
 10
59.1183
 20
4.83333
 11
62.6816
 21
4.83344
  0
LINE
  8
0
 10
62.6816
 20
4.83344
 11
62.6816
 21
18.6665
  0
LINE
  8
0
 10
62.6816
 20
18.6665
 11
59.1184
 21
18.6665
  0
LINE
  8
0
 10
59.1184
 20
18.6665
 11
59.1183
 21
41.5
  0
LINE
  8
0
 10
59.1183
 20
41.5
 11
53.7262
 21
41.5
  0
LINE
  8
0
 10
53.7262
 20
41.5
 11
53.7262
 21
44.3
  0
LINE
  8
0
 10
53.7262
 20
44.3
 11
45.0881
 21
44.3
  0
LINE
  8
0
 10
45.0881
 20
44.3
 11
45.0881
 21
41.5
  0
LINE
  8
0
 10
45.0881
 20
41.5
 11
46.3131
 21
41.5
  0
LINE
  8
0
 10
46.3131
 20
41.5
 11
46.3131
 21
41.4959
  0
LINE
  8
0
 10
46.3131
 20
41.4959
 11
46.3915
 21
41.4959
  0
LINE
  8
0
 10
46.3915
 20
41.4959
 11
46.5449
 21
41.4633
  0
LINE
  8
0
 10
46.5449
 20
41.4633
 11
46.6881
 21
41.3995
  0
LINE
  8
0
 10
46.6881
 20
41.3995
 11
46.8149
 21
41.3074
  0
LINE
  8
0
 10
46.8149
 20
41.3074
 11
46.9199
 21
41.1908
  0
LINE
  8
0
 10
46.9199
 20
41.1908
 11
46.9982
 21
41.055
  0
LINE
  8
0
 10
46.9982
 20
41.055
 11
47.0467
 21
40.9059
  0
LINE
  8
0
 10
47.0467
 20
40.9059
 11
47.0631
 21
40.75
  0
LINE
  8
0
 10
47.0631
 20
40.75
 11
47.0467
 21
40.5941
  0
LINE
  8
0
 10
47.0467
 20
40.5941
 11
46.9982
 21
40.445
  0
LINE
  8
0
 10
46.9982
 20
40.445
 11
46.9199
 21
40.3092
  0
LINE
  8
0
 10
46.9199
 20
40.3092
 11
46.8149
 21
40.1926
  0
LINE
  8
0
 10
46.8149
 20
40.1926
 11
46.6881
 21
40.1005
  0
LINE
  8
0
 10
46.6881
 20
40.1005
 11
46.5449
 21
40.0367
  0
LINE
  8
0
 10
46.5449
 20
40.0367
 11
46.3915
 21
40.0041
  0
LINE
  8
0
 10
46.3915
 20
40.0041
 11
46.3131
 21
40.0041
  0
LINE
  8
0
 10
46.3131
 20
40.0041
 11
46.3131
 21
38.55
  0
LINE
  8
0
 10
46.3131
 20
38.55
 11
46.2541
 21
37.9886
  0
LINE
  8
0
 10
46.2541
 20
37.9886
 11
46.0797
 21
37.4518
  0
LINE
  8
0
 10
46.0797
 20
37.4518
 11
45.7974
 21
36.963
  0
LINE
  8
0
 10
45.7974
 20
36.963
 11
45.4197
 21
36.5435
  0
LINE
  8
0
 10
45.4197
 20
36.5435
 11
44.9631
 21
36.2117
  0
LINE
  8
0
 10
44.9631
 20
36.2117
 11
44.4474
 21
35.9822
  0
LINE
  8
0
 10
44.4474
 20
35.9822
 11
43.8953
 21
35.8648
  0
LINE
  8
0
 10
43.8953
 20
35.8648
 11
43.3309
 21
35.8648
  0
LINE
  8
0
 10
43.3309
 20
35.8648
 11
42.7788
 21
35.9822
  0
LINE
  8
0
 10
42.7788
 20
35.9822
 11
42.2631
 21
36.2117
  0
LINE
  8
0
 10
42.2631
 20
36.2117
 11
41.8065
 21
36.5435
  0
LINE
  8
0
 10
41.8065
 20
36.5435
 11
41.4288
 21
36.963
  0
LINE
  8
0
 10
41.4288
 20
36.963
 11
41.1465
 21
37.4518
  0
LINE
  8
0
 10
41.1465
 20
37.4518
 11
40.9721
 21
37.9886
  0
LINE
  8
0
 10
40.9721
 20
37.9886
 11
40.9131
 21
38.55
  0
LINE
  8
0
 10
40.9131
 20
38.55
 11
40.9131
 21
40.0041
  0
LINE
  8
0
 10
40.9131
 20
40.0041
 11
40.8347
 21
40.0041
  0
LINE
  8
0
 10
40.8347
 20
40.0041
 11
40.6813
 21
40.0367
  0
LINE
  8
0
 10
40.6813
 20
40.0367
 11
40.5381
 21
40.1005
  0
LINE
  8
0
 10
40.5381
 20
40.1005
 11
40.4113
 21
40.1926
  0
LINE
  8
0
 10
40.4113
 20
40.1926
 11
40.3063
 21
40.3092
  0
LINE
  8
0
 10
40.3063
 20
40.3092
 11
40.228
 21
40.445
  0
LINE
  8
0
 10
40.228
 20
40.445
 11
40.1795
 21
40.5941
  0
LINE
  8
0
 10
40.1795
 20
40.5941
 11
40.1631
 21
40.75
  0
LINE
  8
0
 10
40.1631
 20
40.75
 11
40.1795
 21
40.9059
  0
LINE
  8
0
 10
40.1795
 20
40.9059
 11
40.228
 21
41.0551
  0
LINE
  8
0
 10
40.228
 20
41.0551
 11
40.3063
 21
41.1908
  0
LINE
  8
0
 10
40.3063
 20
41.1908
 11
40.4113
 21
41.3074
  0
LINE
  8
0
 10
40.4113
 20
41.3074
 11
40.5381
 21
41.3995
  0
LINE
  8
0
 10
40.5381
 20
41.3995
 11
40.6813
 21
41.4633
  0
LINE
  8
0
 10
40.6813
 20
41.4633
 11
40.8347
 21
41.4959
  0
LINE
  8
0
 10
40.8347
 20
41.4959
 11
40.9131
 21
41.4959
  0
LINE
  8
0
 10
40.9131
 20
41.4959
 11
40.9131
 21
41.5
  0
LINE
  8
0
 10
40.9131
 20
41.5
 11
42.1381
 21
41.5
  0
LINE
  8
0
 10
42.1381
 20
41.5
 11
42.1381
 21
44.3
  0
LINE
  8
0
 10
42.1381
 20
44.3
 11
33.5
 21
44.3
  0
LINE
  8
0
 10
33.5
 20
44.3
 11
33.5
 21
41.5
  0
LINE
  8
0
 10
33.5
 20
41.5
 11
10.1131
 21
41.5
  0
LINE
  8
0
 10
10.1131
 20
41.5
 11
10.1131
 21
44.3
  0
LINE
  8
0
 10
10.1131
 20
44.3
 11
-10.1131
 21
44.3
  0
LINE
  8
0
 10
-10.1131
 20
44.3
 11
-10.1131
 21
41.5
  0
LINE
  8
0
 10
-10.1131
 20
41.5
 11
-33.5
 21
41.5
  0
LINE
  8
0
 10
-33.5
 20
41.5
 11
-33.5
 21
44.3
  0
LINE
  8
0
 10
-33.5
 20
44.3
 11
-42.1381
 21
44.3
  0
LINE
  8
0
 10
-42.1381
 20
44.3
 11
-42.1381
 21
41.5
  0
LINE
  8
0
 10
-42.1381
 20
41.5
 11
-40.9131
 21
41.5
  0
LINE
  8
0
 10
-40.9131
 20
41.5
 11
-40.9131
 21
41.4959
  0
LINE
  8
0
 10
-40.9131
 20
41.4959
 11
-40.8347
 21
41.4959
  0
LINE
  8
0
 10
-40.8347
 20
41.4959
 11
-40.6813
 21
41.4633
  0
LINE
  8
0
 10
-40.6813
 20
41.4633
 11
-40.5381
 21
41.3995
  0
LINE
  8
0
 10
-40.5381
 20
41.3995
 11
-40.4112
 21
41.3074
  0
LINE
  8
0
 10
-40.4112
 20
41.3074
 11
-40.3063
 21
41.1908
  0
LINE
  8
0
 10
-40.3063
 20
41.1908
 11
-40.2279
 21
41.055
  0
LINE
  8
0
 10
-40.2279
 20
41.055
 11
-40.1795
 21
40.9059
  0
LINE
  8
0
 10
-40.1795
 20
40.9059
 11
-40.1631
 21
40.75
  0
LINE
  8
0
 10
-40.1631
 20
40.75
 11
-40.1795
 21
40.5941
  0
LINE
  8
0
 10
-40.1795
 20
40.5941
 11
-40.2279
 21
40.445
  0
LINE
  8
0
 10
-40.2279
 20
40.445
 11
-40.3063
 21
40.3092
  0
LINE
  8
0
 10
-40.3063
 20
40.3092
 11
-40.4112
 21
40.1926
  0
LINE
  8
0
 10
-40.4112
 20
40.1926
 11
-40.5381
 21
40.1005
  0
LINE
  8
0
 10
-40.5381
 20
40.1005
 11
-40.6813
 21
40.0367
  0
LINE
  8
0
 10
-40.6813
 20
40.0367
 11
-40.8347
 21
40.0041
  0
LINE
  8
0
 10
-40.8347
 20
40.0041
 11
-40.9131
 21
40.0041
  0
LINE
  8
0
 10
-40.9131
 20
40.0041
 11
-40.9131
 21
38.55
  0
LINE
  8
0
 10
-40.9131
 20
38.55
 11
-40.9721
 21
37.9886
  0
LINE
  8
0
 10
-40.9721
 20
37.9886
 11
-41.1465
 21
37.4518
  0
LINE
  8
0
 10
-41.1465
 20
37.4518
 11
-41.4287
 21
36.963
  0
LINE
  8
0
 10
-41.4287
 20
36.963
 11
-41.8064
 21
36.5435
  0
LINE
  8
0
 10
-41.8064
 20
36.5435
 11
-42.2631
 21
36.2117
  0
LINE
  8
0
 10
-42.2631
 20
36.2117
 11
-42.7787
 21
35.9822
  0
LINE
  8
0
 10
-42.7787
 20
35.9822
 11
-43.3309
 21
35.8648
  0
LINE
  8
0
 10
-43.3309
 20
35.8648
 11
-43.8953
 21
35.8648
  0
LINE
  8
0
 10
-43.8953
 20
35.8648
 11
-44.4474
 21
35.9822
  0
LINE
  8
0
 10
-44.4474
 20
35.9822
 11
-44.9631
 21
36.2117
  0
LINE
  8
0
 10
-44.9631
 20
36.2117
 11
-45.4197
 21
36.5435
  0
LINE
  8
0
 10
-45.4197
 20
36.5435
 11
-45.7974
 21
36.963
  0
LINE
  8
0
 10
-45.7974
 20
36.963
 11
-46.0797
 21
37.4518
  0
LINE
  8
0
 10
-46.0797
 20
37.4518
 11
-46.2541
 21
37.9886
  0
LINE
  8
0
 10
-46.2541
 20
37.9886
 11
-46.3131
 21
38.55
  0
LINE
  8
0
 10
-46.3131
 20
38.55
 11
-46.3131
 21
40.0041
  0
LINE
  8
0
 10
-46.3131
 20
40.0041
 11
-46.3915
 21
40.0041
  0
LINE
  8
0
 10
-46.3915
 20
40.0041
 11
-46.5448
 21
40.0367
  0
LINE
  8
0
 10
-46.5448
 20
40.0367
 11
-46.6881
 21
40.1005
  0
LINE
  8
0
 10
-46.6881
 20
40.1005
 11
-46.8149
 21
40.1926
  0
LINE
  8
0
 10
-46.8149
 20
40.1926
 11
-46.9198
 21
40.3092
  0
LINE
  8
0
 10
-46.9198
 20
40.3092
 11
-46.9982
 21
40.445
  0
LINE
  8
0
 10
-46.9982
 20
40.445
 11
-47.0467
 21
40.5941
  0
LINE
  8
0
 10
-47.0467
 20
40.5941
 11
-47.0631
 21
40.75
  0
LINE
  8
0
 10
-47.0631
 20
40.75
 11
-47.0467
 21
40.9059
  0
LINE
  8
0
 10
-47.0467
 20
40.9059
 11
-46.9982
 21
41.0551
  0
LINE
  8
0
 10
-46.9982
 20
41.0551
 11
-46.9198
 21
41.1908
  0
LINE
  8
0
 10
-46.9198
 20
41.1908
 11
-46.8149
 21
41.3074
  0
LINE
  8
0
 10
-46.8149
 20
41.3074
 11
-46.6881
 21
41.3995
  0
LINE
  8
0
 10
-46.6881
 20
41.3995
 11
-46.5448
 21
41.4633
  0
LINE
  8
0
 10
-46.5448
 20
41.4633
 11
-46.3915
 21
41.4959
  0
LINE
  8
0
 10
-46.3915
 20
41.4959
 11
-46.3131
 21
41.4959
  0
LINE
  8
0
 10
-46.3131
 20
41.4959
 11
-46.3131
 21
41.5
  0
LINE
  8
0
 10
-46.3131
 20
41.5
 11
-45.0881
 21
41.5
  0
LINE
  8
0
 10
-45.0881
 20
41.5
 11
-45.0881
 21
44.3
  0
LINE
  8
0
 10
-45.0881
 20
44.3
 11
-53.7262
 21
44.3
  0
LINE
  8
0
 10
-53.7262
 20
44.3
 11
-53.7262
 21
41.5
  0
LINE
  8
0
 10
-53.7262
 20
41.5
 11
-59.1184
 21
41.5
  0
LINE
  8
0
 10
-59.1184
 20
41.5
 11
-59.1183
 21
18.6667
  0
LINE
  8
0
 10
-59.1183
 20
18.6667
 11
-62.6816
 21
18.6665
  0
LINE
  8
0
 10
-62.6816
 20
18.6665
 11
-62.6816
 21
4.83344
  0
LINE
  8
0
 10
-62.6816
 20
4.83344
 11
-59.1184
 21
4.83344
  0
LINE
  8
0
 10
-59.1184
 20
4.83344
 11
-59.1184
 21
-18.0001
  0
LINE
  8
0
 10
-59.1184
 20
-18.0001
 11
-62.7262
 21
-18.0001
  0
LINE
  8
0
 10
-62.7262
 20
-18.0001
 11
-62.7262
 21
-77.8396
  0
LINE
  8
0
 10
-62.7262
 20
-77.8396
 11
-58.7785
 21
-80.9017
  0
LINE
  8
0
 10
-58.7785
 20
-80.9017
 11
-53.5827
 21
-84.4328
  0
LINE
  8
0
 10
-53.5827
 20
-84.4328
 11
-48.1754
 21
-87.6307
  0
LINE
  8
0
 10
-48.1754
 20
-87.6307
 11
-42.5779
 21
-90.4827
  0
LINE
  8
0
 10
-42.5779
 20
-90.4827
 11
-36.8125
 21
-92.9776
  0
LINE
  8
0
 10
-36.8125
 20
-92.9776
 11
-30.9017
 21
-95.1056
  0
LINE
  8
0
 10
-30.9017
 20
-95.1056
 11
-24.869
 21
-96.8583
  0
LINE
  8
0
 10
-24.869
 20
-96.8583
 11
-18.7381
 21
-98.2287
  0
LINE
  8
0
 10
-18.7381
 20
-98.2287
 11
-12.5333
 21
-99.2115
  0
LINE
  8
0
 10
-12.5333
 20
-99.2115
 11
-6.27904
 21
-99.8027
  0
LINE
  8
0
 10
-6.27904
 20
-99.8027
 11
0
 21
-100
  0
LINE
  8
0
 10
0
 20
-100
 11
6.27904
 21
-99.8027
  0
LINE
  8
0
 10
6.27904
 20
-99.8027
 11
12.5333
 21
-99.2115
  0
LINE
  8
0
 10
12.5333
 20
-99.2115
 11
18.7381
 21
-98.2287
  0
LINE
  8
0
 10
18.7381
 20
-98.2287
 11
24.869
 21
-96.8583
  0
LINE
  8
0
 10
24.869
 20
-96.8583
 11
30.9017
 21
-95.1056
  0
LINE
  8
0
 10
30.9017
 20
-95.1056
 11
36.8125
 21
-92.9776
  0
LINE
  8
0
 10
36.8125
 20
-92.9776
 11
42.5779
 21
-90.4827
  0
LINE
  8
0
 10
42.5779
 20
-90.4827
 11
48.1754
 21
-87.6307
  0
LINE
  8
0
 10
48.1754
 20
-87.6307
 11
53.5827
 21
-84.4328
  0
LINE
  8
0
 10
53.5827
 20
-84.4328
 11
58.7785
 21
-80.9017
  0
LINE
  8
0
 10
58.7785
 20
-80.9017
 11
62.7262
 21
-77.8396
  0
LINE
  8
0
 10
62.7262
 20
-77.8396
 11
62.7262
 21
-18.0001
  0
LINE
  8
0
 10
62.7262
 20
-18.0001
 11
59.1184
 21
-18.0001
  0
LINE
  8
0
 10
-57.7262
 20
30.5
 11
-57.7262
 21
34.5
  0
LINE
  8
0
 10
-57.7262
 20
34.5
 11
-55.7262
 21
34.5
  0
LINE
  8
0
 10
-55.7262
 20
34.5
 11
-55.7262
 21
30.5
  0
LINE
  8
0
 10
-55.7262
 20
30.5
 11
-57.7262
 21
30.5
  0
LINE
  8
0
 10
55.7262
 20
30.5
 11
55.7262
 21
34.5
  0
LINE
  8
0
 10
55.7262
 20
34.5
 11
57.7262
 21
34.5
  0
LINE
  8
0
 10
57.7262
 20
34.5
 11
57.7262
 21
30.5
  0
LINE
  8
0
 10
57.7262
 20
30.5
 11
55.7262
 21
30.5
  0
LINE
  8
0
 10
-45.3363
 20
18.6665
 11
-45.3364
 21
31.5
  0
LINE
  8
0
 10
-45.3364
 20
31.5
 11
-41.586
 21
31.5001
  0
LINE
  8
0
 10
-41.586
 20
31.5001
 11
-41.586
 21
18.6665
  0
LINE
  8
0
 10
-41.586
 20
18.6665
 11
-45.3363
 21
18.6665
  0
LINE
  8
0
 10
41.586
 20
18.6665
 11
41.5859
 21
31.5
  0
LINE
  8
0
 10
41.5859
 20
31.5
 11
45.3363
 21
31.5001
  0
LINE
  8
0
 10
45.3363
 20
31.5001
 11
45.3363
 21
18.6665
  0
LINE
  8
0
 10
45.3363
 20
18.6665
 11
41.586
 21
18.6665
  0
LINE
  8
0
 10
-28.7822
 20
1.26155
 11
-29.5451
 21
1.44472
  0
LINE
  8
0
 10
-29.5451
 20
1.44472
 11
-30.2699
 21
1.74496
  0
LINE
  8
0
 10
-30.2699
 20
1.74496
 11
-30.9389
 21
2.15491
  0
LINE
  8
0
 10
-30.9389
 20
2.15491
 11
-31.5355
 21
2.66446
  0
LINE
  8
0
 10
-31.5355
 20
2.66446
 11
-32.0451
 21
3.26106
  0
LINE
  8
0
 10
-32.0451
 20
3.26106
 11
-32.455
 21
3.93004
  0
LINE
  8
0
 10
-32.455
 20
3.93004
 11
-32.7553
 21
4.65491
  0
LINE
  8
0
 10
-32.7553
 20
4.65491
 11
-32.9384
 21
5.41782
  0
LINE
  8
0
 10
-32.9384
 20
5.41782
 11
-33
 21
6.2
  0
LINE
  8
0
 10
-33
 20
6.2
 11
-33
 21
26.2
  0
LINE
  8
0
 10
-33
 20
26.2
 11
-32.9384
 21
26.9822
  0
LINE
  8
0
 10
-32.9384
 20
26.9822
 11
-32.7553
 21
27.7451
  0
LINE
  8
0
 10
-32.7553
 20
27.7451
 11
-32.455
 21
28.4699
  0
LINE
  8
0
 10
-32.455
 20
28.4699
 11
-32.0451
 21
29.1389
  0
LINE
  8
0
 10
-32.0451
 20
29.1389
 11
-31.5355
 21
29.7355
  0
LINE
  8
0
 10
-31.5355
 20
29.7355
 11
-30.9389
 21
30.2451
  0
LINE
  8
0
 10
-30.9389
 20
30.2451
 11
-30.2699
 21
30.655
  0
LINE
  8
0
 10
-30.2699
 20
30.655
 11
-29.5451
 21
30.9553
  0
LINE
  8
0
 10
-29.5451
 20
30.9553
 11
-28.7822
 21
31.1384
  0
LINE
  8
0
 10
-28.7822
 20
31.1384
 11
-28
 21
31.2
  0
LINE
  8
0
 10
-28
 20
31.2
 11
-27.2178
 21
31.1384
  0
LINE
  8
0
 10
-27.2178
 20
31.1384
 11
-26.4549
 21
30.9553
  0
LINE
  8
0
 10
-26.4549
 20
30.9553
 11
-25.73
 21
30.655
  0
LINE
  8
0
 10
-25.73
 20
30.655
 11
-25.0611
 21
30.2451
  0
LINE
  8
0
 10
-25.0611
 20
30.2451
 11
-24.4645
 21
29.7355
  0
LINE
  8
0
 10
-24.4645
 20
29.7355
 11
-23.9549
 21
29.1389
  0
LINE
  8
0
 10
-23.9549
 20
29.1389
 11
-23.545
 21
28.4699
  0
LINE
  8
0
 10
-23.545
 20
28.4699
 11
-23.2447
 21
27.7451
  0
LINE
  8
0
 10
-23.2447
 20
27.7451
 11
-23.0616
 21
26.9822
  0
LINE
  8
0
 10
-23.0616
 20
26.9822
 11
-23
 21
26.2
  0
LINE
  8
0
 10
-23
 20
26.2
 11
-23
 21
6.2
  0
LINE
  8
0
 10
-23
 20
6.2
 11
-23.0616
 21
5.41782
  0
LINE
  8
0
 10
-23.0616
 20
5.41782
 11
-23.2447
 21
4.65491
  0
LINE
  8
0
 10
-23.2447
 20
4.65491
 11
-23.545
 21
3.93004
  0
LINE
  8
0
 10
-23.545
 20
3.93004
 11
-23.9549
 21
3.26106
  0
LINE
  8
0
 10
-23.9549
 20
3.26106
 11
-24.4645
 21
2.66446
  0
LINE
  8
0
 10
-24.4645
 20
2.66446
 11
-25.0611
 21
2.15491
  0
LINE
  8
0
 10
-25.0611
 20
2.15491
 11
-25.73
 21
1.74496
  0
LINE
  8
0
 10
-25.73
 20
1.74496
 11
-26.4549
 21
1.44472
  0
LINE
  8
0
 10
-26.4549
 20
1.44472
 11
-27.2178
 21
1.26155
  0
LINE
  8
0
 10
-27.2178
 20
1.26155
 11
-28
 21
1.2
  0
LINE
  8
0
 10
-28
 20
1.2
 11
-28.7822
 21
1.26155
  0
LINE
  8
0
 10
27.2178
 20
1.26155
 11
26.4549
 21
1.44472
  0
LINE
  8
0
 10
26.4549
 20
1.44472
 11
25.73
 21
1.74496
  0
LINE
  8
0
 10
25.73
 20
1.74496
 11
25.0611
 21
2.15491
  0
LINE
  8
0
 10
25.0611
 20
2.15491
 11
24.4645
 21
2.66446
  0
LINE
  8
0
 10
24.4645
 20
2.66446
 11
23.9549
 21
3.26106
  0
LINE
  8
0
 10
23.9549
 20
3.26106
 11
23.545
 21
3.93004
  0
LINE
  8
0
 10
23.545
 20
3.93004
 11
23.2447
 21
4.65491
  0
LINE
  8
0
 10
23.2447
 20
4.65491
 11
23.0616
 21
5.41782
  0
LINE
  8
0
 10
23.0616
 20
5.41782
 11
23
 21
6.2
  0
LINE
  8
0
 10
23
 20
6.2
 11
23
 21
26.2
  0
LINE
  8
0
 10
23
 20
26.2
 11
23.0616
 21
26.9822
  0
LINE
  8
0
 10
23.0616
 20
26.9822
 11
23.2447
 21
27.7451
  0
LINE
  8
0
 10
23.2447
 20
27.7451
 11
23.545
 21
28.4699
  0
LINE
  8
0
 10
23.545
 20
28.4699
 11
23.9549
 21
29.1389
  0
LINE
  8
0
 10
23.9549
 20
29.1389
 11
24.4645
 21
29.7355
  0
LINE
  8
0
 10
24.4645
 20
29.7355
 11
25.0611
 21
30.2451
  0
LINE
  8
0
 10
25.0611
 20
30.2451
 11
25.73
 21
30.655
  0
LINE
  8
0
 10
25.73
 20
30.655
 11
26.4549
 21
30.9553
  0
LINE
  8
0
 10
26.4549
 20
30.9553
 11
27.2178
 21
31.1384
  0
LINE
  8
0
 10
27.2178
 20
31.1384
 11
28
 21
31.2
  0
LINE
  8
0
 10
28
 20
31.2
 11
28.7822
 21
31.1384
  0
LINE
  8
0
 10
28.7822
 20
31.1384
 11
29.5451
 21
30.9553
  0
LINE
  8
0
 10
29.5451
 20
30.9553
 11
30.2699
 21
30.655
  0
LINE
  8
0
 10
30.2699
 20
30.655
 11
30.9389
 21
30.2451
  0
LINE
  8
0
 10
30.9389
 20
30.2451
 11
31.5355
 21
29.7355
  0
LINE
  8
0
 10
31.5355
 20
29.7355
 11
32.0451
 21
29.1389
  0
LINE
  8
0
 10
32.0451
 20
29.1389
 11
32.455
 21
28.4699
  0
LINE
  8
0
 10
32.455
 20
28.4699
 11
32.7553
 21
27.7451
  0
LINE
  8
0
 10
32.7553
 20
27.7451
 11
32.9384
 21
26.9822
  0
LINE
  8
0
 10
32.9384
 20
26.9822
 11
33
 21
26.2
  0
LINE
  8
0
 10
33
 20
26.2
 11
33
 21
6.2
  0
LINE
  8
0
 10
33
 20
6.2
 11
32.9384
 21
5.41782
  0
LINE
  8
0
 10
32.9384
 20
5.41782
 11
32.7553
 21
4.65491
  0
LINE
  8
0
 10
32.7553
 20
4.65491
 11
32.455
 21
3.93004
  0
LINE
  8
0
 10
32.455
 20
3.93004
 11
32.0451
 21
3.26106
  0
LINE
  8
0
 10
32.0451
 20
3.26106
 11
31.5355
 21
2.66446
  0
LINE
  8
0
 10
31.5355
 20
2.66446
 11
30.9389
 21
2.15491
  0
LINE
  8
0
 10
30.9389
 20
2.15491
 11
30.2699
 21
1.74496
  0
LINE
  8
0
 10
30.2699
 20
1.74496
 11
29.5451
 21
1.44472
  0
LINE
  8
0
 10
29.5451
 20
1.44472
 11
28.7822
 21
1.26155
  0
LINE
  8
0
 10
28.7822
 20
1.26155
 11
28
 21
1.2
  0
LINE
  8
0
 10
28
 20
1.2
 11
27.2178
 21
1.26155
  0
LINE
  8
0
 10
-18.7346
 20
4.71846
 11
-18.9635
 21
4.77341
  0
LINE
  8
0
 10
-18.9635
 20
4.77341
 11
-19.181
 21
4.86348
  0
LINE
  8
0
 10
-19.181
 20
4.86348
 11
-19.3817
 21
4.98647
  0
LINE
  8
0
 10
-19.3817
 20
4.98647
 11
-19.5607
 21
5.13933
  0
LINE
  8
0
 10
-19.5607
 20
5.13933
 11
-19.7135
 21
5.31831
  0
LINE
  8
0
 10
-19.7135
 20
5.31831
 11
-19.8365
 21
5.51901
  0
LINE
  8
0
 10
-19.8365
 20
5.51901
 11
-19.9266
 21
5.73647
  0
LINE
  8
0
 10
-19.9266
 20
5.73647
 11
-19.9815
 21
5.96535
  0
LINE
  8
0
 10
-19.9815
 20
5.96535
 11
-20
 21
6.2
  0
LINE
  8
0
 10
-20
 20
6.2
 11
-20
 21
26.2
  0
LINE
  8
0
 10
-20
 20
26.2
 11
-19.9815
 21
26.4346
  0
LINE
  8
0
 10
-19.9815
 20
26.4346
 11
-19.9266
 21
26.6635
  0
LINE
  8
0
 10
-19.9266
 20
26.6635
 11
-19.8365
 21
26.881
  0
LINE
  8
0
 10
-19.8365
 20
26.881
 11
-19.7135
 21
27.0817
  0
LINE
  8
0
 10
-19.7135
 20
27.0817
 11
-19.5607
 21
27.2607
  0
LINE
  8
0
 10
-19.5607
 20
27.2607
 11
-19.3817
 21
27.4135
  0
LINE
  8
0
 10
-19.3817
 20
27.4135
 11
-19.181
 21
27.5365
  0
LINE
  8
0
 10
-19.181
 20
27.5365
 11
-18.9635
 21
27.6266
  0
LINE
  8
0
 10
-18.9635
 20
27.6266
 11
-18.7346
 21
27.6815
  0
LINE
  8
0
 10
-18.7346
 20
27.6815
 11
-18.5
 21
27.7
  0
LINE
  8
0
 10
-18.5
 20
27.7
 11
-18.2653
 21
27.6815
  0
LINE
  8
0
 10
-18.2653
 20
27.6815
 11
-18.0365
 21
27.6266
  0
LINE
  8
0
 10
-18.0365
 20
27.6266
 11
-17.819
 21
27.5365
  0
LINE
  8
0
 10
-17.819
 20
27.5365
 11
-17.6183
 21
27.4135
  0
LINE
  8
0
 10
-17.6183
 20
27.4135
 11
-17.4393
 21
27.2607
  0
LINE
  8
0
 10
-17.4393
 20
27.2607
 11
-17.2865
 21
27.0817
  0
LINE
  8
0
 10
-17.2865
 20
27.0817
 11
-17.1635
 21
26.881
  0
LINE
  8
0
 10
-17.1635
 20
26.881
 11
-17.0734
 21
26.6635
  0
LINE
  8
0
 10
-17.0734
 20
26.6635
 11
-17.0185
 21
26.4346
  0
LINE
  8
0
 10
-17.0185
 20
26.4346
 11
-17
 21
26.2
  0
LINE
  8
0
 10
-17
 20
26.2
 11
-17
 21
6.2
  0
LINE
  8
0
 10
-17
 20
6.2
 11
-17.0185
 21
5.96535
  0
LINE
  8
0
 10
-17.0185
 20
5.96535
 11
-17.0734
 21
5.73647
  0
LINE
  8
0
 10
-17.0734
 20
5.73647
 11
-17.1635
 21
5.51901
  0
LINE
  8
0
 10
-17.1635
 20
5.51901
 11
-17.2865
 21
5.31831
  0
LINE
  8
0
 10
-17.2865
 20
5.31831
 11
-17.4393
 21
5.13933
  0
LINE
  8
0
 10
-17.4393
 20
5.13933
 11
-17.6183
 21
4.98647
  0
LINE
  8
0
 10
-17.6183
 20
4.98647
 11
-17.819
 21
4.86348
  0
LINE
  8
0
 10
-17.819
 20
4.86348
 11
-18.0365
 21
4.77341
  0
LINE
  8
0
 10
-18.0365
 20
4.77341
 11
-18.2653
 21
4.71846
  0
LINE
  8
0
 10
-18.2653
 20
4.71846
 11
-18.5
 21
4.7
  0
LINE
  8
0
 10
-18.5
 20
4.7
 11
-18.7346
 21
4.71846
  0
LINE
  8
0
 10
18.2653
 20
4.71846
 11
18.0365
 21
4.77341
  0
LINE
  8
0
 10
18.0365
 20
4.77341
 11
17.819
 21
4.86348
  0
LINE
  8
0
 10
17.819
 20
4.86348
 11
17.6183
 21
4.98647
  0
LINE
  8
0
 10
17.6183
 20
4.98647
 11
17.4393
 21
5.13933
  0
LINE
  8
0
 10
17.4393
 20
5.13933
 11
17.2865
 21
5.31831
  0
LINE
  8
0
 10
17.2865
 20
5.31831
 11
17.1635
 21
5.51901
  0
LINE
  8
0
 10
17.1635
 20
5.51901
 11
17.0734
 21
5.73647
  0
LINE
  8
0
 10
17.0734
 20
5.73647
 11
17.0185
 21
5.96535
  0
LINE
  8
0
 10
17.0185
 20
5.96535
 11
17
 21
6.2
  0
LINE
  8
0
 10
17
 20
6.2
 11
17
 21
26.2
  0
LINE
  8
0
 10
17
 20
26.2
 11
17.0185
 21
26.4346
  0
LINE
  8
0
 10
17.0185
 20
26.4346
 11
17.0734
 21
26.6635
  0
LINE
  8
0
 10
17.0734
 20
26.6635
 11
17.1635
 21
26.881
  0
LINE
  8
0
 10
17.1635
 20
26.881
 11
17.2865
 21
27.0817
  0
LINE
  8
0
 10
17.2865
 20
27.0817
 11
17.4393
 21
27.2607
  0
LINE
  8
0
 10
17.4393
 20
27.2607
 11
17.6183
 21
27.4135
  0
LINE
  8
0
 10
17.6183
 20
27.4135
 11
17.819
 21
27.5365
  0
LINE
  8
0
 10
17.819
 20
27.5365
 11
18.0365
 21
27.6266
  0
LINE
  8
0
 10
18.0365
 20
27.6266
 11
18.2653
 21
27.6815
  0
LINE
  8
0
 10
18.2653
 20
27.6815
 11
18.5
 21
27.7
  0
LINE
  8
0
 10
18.5
 20
27.7
 11
18.7346
 21
27.6815
  0
LINE
  8
0
 10
18.7346
 20
27.6815
 11
18.9635
 21
27.6266
  0
LINE
  8
0
 10
18.9635
 20
27.6266
 11
19.181
 21
27.5365
  0
LINE
  8
0
 10
19.181
 20
27.5365
 11
19.3817
 21
27.4135
  0
LINE
  8
0
 10
19.3817
 20
27.4135
 11
19.5607
 21
27.2607
  0
LINE
  8
0
 10
19.5607
 20
27.2607
 11
19.7135
 21
27.0817
  0
LINE
  8
0
 10
19.7135
 20
27.0817
 11
19.8365
 21
26.881
  0
LINE
  8
0
 10
19.8365
 20
26.881
 11
19.9266
 21
26.6635
  0
LINE
  8
0
 10
19.9266
 20
26.6635
 11
19.9815
 21
26.4346
  0
LINE
  8
0
 10
19.9815
 20
26.4346
 11
20
 21
26.2
  0
LINE
  8
0
 10
20
 20
26.2
 11
20
 21
6.2
  0
LINE
  8
0
 10
20
 20
6.2
 11
19.9815
 21
5.96535
  0
LINE
  8
0
 10
19.9815
 20
5.96535
 11
19.9266
 21
5.73647
  0
LINE
  8
0
 10
19.9266
 20
5.73647
 11
19.8365
 21
5.51901
  0
LINE
  8
0
 10
19.8365
 20
5.51901
 11
19.7135
 21
5.31831
  0
LINE
  8
0
 10
19.7135
 20
5.31831
 11
19.5607
 21
5.13933
  0
LINE
  8
0
 10
19.5607
 20
5.13933
 11
19.3817
 21
4.98647
  0
LINE
  8
0
 10
19.3817
 20
4.98647
 11
19.181
 21
4.86348
  0
LINE
  8
0
 10
19.181
 20
4.86348
 11
18.9635
 21
4.77341
  0
LINE
  8
0
 10
18.9635
 20
4.77341
 11
18.7346
 21
4.71846
  0
LINE
  8
0
 10
18.7346
 20
4.71846
 11
18.5
 21
4.7
  0
LINE
  8
0
 10
18.5
 20
4.7
 11
18.2653
 21
4.71846
  0
LINE
  8
0
 10
-40.7262
 20
23.5
 11
-40.7262
 21
27.5
  0
LINE
  8
0
 10
-40.7262
 20
27.5
 11
-38.7262
 21
27.5
  0
LINE
  8
0
 10
-38.7262
 20
27.5
 11
-38.7262
 21
23.5
  0
LINE
  8
0
 10
-38.7262
 20
23.5
 11
-40.7262
 21
23.5
  0
LINE
  8
0
 10
38.7262
 20
23.5
 11
38.7262
 21
27.5
  0
LINE
  8
0
 10
38.7262
 20
27.5
 11
40.7262
 21
27.5
  0
LINE
  8
0
 10
40.7262
 20
27.5
 11
40.7262
 21
23.5
  0
LINE
  8
0
 10
40.7262
 20
23.5
 11
38.7262
 21
23.5
  0
LINE
  8
0
 10
-49.7262
 20
23.5
 11
-49.7262
 21
27.5
  0
LINE
  8
0
 10
-49.7262
 20
27.5
 11
-47.7262
 21
27.5
  0
LINE
  8
0
 10
-47.7262
 20
27.5
 11
-47.7262
 21
23.5
  0
LINE
  8
0
 10
-47.7262
 20
23.5
 11
-49.7262
 21
23.5
  0
LINE
  8
0
 10
47.7262
 20
23.5
 11
47.7262
 21
27.5
  0
LINE
  8
0
 10
47.7262
 20
27.5
 11
49.7262
 21
27.5
  0
LINE
  8
0
 10
49.7262
 20
27.5
 11
49.7262
 21
23.5
  0
LINE
  8
0
 10
49.7262
 20
23.5
 11
47.7262
 21
23.5
  0
LINE
  8
0
 10
8.38239
 20
3.50697
 11
7.54489
 21
4.11545
  0
LINE
  8
0
 10
7.54489
 20
4.11545
 11
7.22499
 21
5.09999
  0
LINE
  8
0
 10
7.22499
 20
5.09999
 11
7.54489
 21
6.08453
  0
LINE
  8
0
 10
7.54489
 20
6.08453
 11
8.38239
 21
6.69301
  0
LINE
  8
0
 10
8.38239
 20
6.69301
 11
9.4176
 21
6.69301
  0
LINE
  8
0
 10
9.4176
 20
6.69301
 11
10.2551
 21
6.08453
  0
LINE
  8
0
 10
10.2551
 20
6.08453
 11
10.575
 21
5.09999
  0
LINE
  8
0
 10
10.575
 20
5.09999
 11
10.2551
 21
4.11545
  0
LINE
  8
0
 10
10.2551
 20
4.11545
 11
9.4176
 21
3.50697
  0
LINE
  8
0
 10
9.4176
 20
3.50697
 11
8.38239
 21
3.50697
  0
LINE
  8
0
 10
-9.4176
 20
3.50697
 11
-10.2551
 21
4.11545
  0
LINE
  8
0
 10
-10.2551
 20
4.11545
 11
-10.575
 21
5.09999
  0
LINE
  8
0
 10
-10.575
 20
5.09999
 11
-10.2551
 21
6.08453
  0
LINE
  8
0
 10
-10.2551
 20
6.08453
 11
-9.4176
 21
6.69301
  0
LINE
  8
0
 10
-9.4176
 20
6.69301
 11
-8.38239
 21
6.69301
  0
LINE
  8
0
 10
-8.38239
 20
6.69301
 11
-7.54489
 21
6.08453
  0
LINE
  8
0
 10
-7.54489
 20
6.08453
 11
-7.22499
 21
5.09999
  0
LINE
  8
0
 10
-7.22499
 20
5.09999
 11
-7.54489
 21
4.11545
  0
LINE
  8
0
 10
-7.54489
 20
4.11545
 11
-8.38239
 21
3.50697
  0
LINE
  8
0
 10
-8.38239
 20
3.50697
 11
-9.4176
 21
3.50697
  0
LINE
  8
0
 10
41.586
 20
-18.0001
 11
41.5859
 21
4.83333
  0
LINE
  8
0
 10
41.5859
 20
4.83333
 11
45.3363
 21
4.83344
  0
LINE
  8
0
 10
45.3363
 20
4.83344
 11
45.3363
 21
-18.0001
  0
LINE
  8
0
 10
45.3363
 20
-18.0001
 11
41.586
 21
-18.0001
  0
LINE
  8
0
 10
-45.3363
 20
-18.0001
 11
-45.3364
 21
4.83333
  0
LINE
  8
0
 10
-45.3364
 20
4.83333
 11
-41.586
 21
4.83344
  0
LINE
  8
0
 10
-41.586
 20
4.83344
 11
-41.586
 21
-18.0001
  0
LINE
  8
0
 10
-41.586
 20
-18.0001
 11
-45.3363
 21
-18.0001
  0
LINE
  8
0
 10
-9.4176
 20
-6.69301
 11
-10.2551
 21
-6.08453
  0
LINE
  8
0
 10
-10.2551
 20
-6.08453
 11
-10.575
 21
-5.09999
  0
LINE
  8
0
 10
-10.575
 20
-5.09999
 11
-10.2551
 21
-4.11545
  0
LINE
  8
0
 10
-10.2551
 20
-4.11545
 11
-9.4176
 21
-3.50697
  0
LINE
  8
0
 10
-9.4176
 20
-3.50697
 11
-8.38239
 21
-3.50697
  0
LINE
  8
0
 10
-8.38239
 20
-3.50697
 11
-7.54489
 21
-4.11545
  0
LINE
  8
0
 10
-7.54489
 20
-4.11545
 11
-7.22499
 21
-5.09999
  0
LINE
  8
0
 10
-7.22499
 20
-5.09999
 11
-7.54489
 21
-6.08453
  0
LINE
  8
0
 10
-7.54489
 20
-6.08453
 11
-8.38239
 21
-6.69301
  0
LINE
  8
0
 10
-8.38239
 20
-6.69301
 11
-9.4176
 21
-6.69301
  0
LINE
  8
0
 10
8.38239
 20
-6.69301
 11
7.54489
 21
-6.08453
  0
LINE
  8
0
 10
7.54489
 20
-6.08453
 11
7.22499
 21
-5.09999
  0
LINE
  8
0
 10
7.22499
 20
-5.09999
 11
7.54489
 21
-4.11545
  0
LINE
  8
0
 10
7.54489
 20
-4.11545
 11
8.38239
 21
-3.50697
  0
LINE
  8
0
 10
8.38239
 20
-3.50697
 11
9.4176
 21
-3.50697
  0
LINE
  8
0
 10
9.4176
 20
-3.50697
 11
10.2551
 21
-4.11545
  0
LINE
  8
0
 10
10.2551
 20
-4.11545
 11
10.575
 21
-5.09999
  0
LINE
  8
0
 10
10.575
 20
-5.09999
 11
10.2551
 21
-6.08453
  0
LINE
  8
0
 10
10.2551
 20
-6.08453
 11
9.4176
 21
-6.69301
  0
LINE
  8
0
 10
9.4176
 20
-6.69301
 11
8.38239
 21
-6.69301
  0
LINE
  8
0
 10
47.7262
 20
-11
 11
47.7262
 21
-7
  0
LINE
  8
0
 10
47.7262
 20
-7
 11
49.7262
 21
-7
  0
LINE
  8
0
 10
49.7262
 20
-7
 11
49.7262
 21
-11
  0
LINE
  8
0
 10
49.7262
 20
-11
 11
47.7262
 21
-11
  0
LINE
  8
0
 10
-40.7262
 20
-11
 11
-40.7262
 21
-7
  0
LINE
  8
0
 10
-40.7262
 20
-7
 11
-38.7262
 21
-7
  0
LINE
  8
0
 10
-38.7262
 20
-7
 11
-38.7262
 21
-11
  0
LINE
  8
0
 10
-38.7262
 20
-11
 11
-40.7262
 21
-11
  0
LINE
  8
0
 10
38.7262
 20
-11
 11
38.7262
 21
-7
  0
LINE
  8
0
 10
38.7262
 20
-7
 11
40.7262
 21
-7
  0
LINE
  8
0
 10
40.7262
 20
-7
 11
40.7262
 21
-11
  0
LINE
  8
0
 10
40.7262
 20
-11
 11
38.7262
 21
-11
  0
LINE
  8
0
 10
-57.7262
 20
-11
 11
-57.7262
 21
-7
  0
LINE
  8
0
 10
-57.7262
 20
-7
 11
-55.7262
 21
-7
  0
LINE
  8
0
 10
-55.7262
 20
-7
 11
-55.7262
 21
-11
  0
LINE
  8
0
 10
-55.7262
 20
-11
 11
-57.7262
 21
-11
  0
LINE
  8
0
 10
55.7262
 20
-11
 11
55.7262
 21
-7
  0
LINE
  8
0
 10
55.7262
 20
-7
 11
57.7262
 21
-7
  0
LINE
  8
0
 10
57.7262
 20
-7
 11
57.7262
 21
-11
  0
LINE
  8
0
 10
57.7262
 20
-11
 11
55.7262
 21
-11
  0
LINE
  8
0
 10
-49.7262
 20
-11
 11
-49.7262
 21
-7
  0
LINE
  8
0
 10
-49.7262
 20
-7
 11
-47.7262
 21
-7
  0
LINE
  8
0
 10
-47.7262
 20
-7
 11
-47.7262
 21
-11
  0
LINE
  8
0
 10
-47.7262
 20
-11
 11
-49.7262
 21
-11
  0
LINE
  8
0
 10
-58.6762
 20
-73.45
 11
-58.6762
 21
-44.55
  0
LINE
  8
0
 10
-58.6762
 20
-44.55
 11
-47.7762
 21
-44.55
  0
LINE
  8
0
 10
-47.7762
 20
-44.55
 11
-47.7762
 21
-73.45
  0
LINE
  8
0
 10
-47.7762
 20
-73.45
 11
-58.6762
 21
-73.45
  0
LINE
  8
0
 10
47.7762
 20
-73.45
 11
47.7762
 21
-44.55
  0
LINE
  8
0
 10
47.7762
 20
-44.55
 11
58.6762
 21
-44.55
  0
LINE
  8
0
 10
58.6762
 20
-44.55
 11
58.6762
 21
-73.45
  0
LINE
  8
0
 10
58.6762
 20
-73.45
 11
47.7762
 21
-73.45
  0
LINE
  8
0
 10
-39.9635
 20
-81.7413
 11
-40.7135
 21
-81.1964
  0
LINE
  8
0
 10
-40.7135
 20
-81.1964
 11
-41
 21
-80.3147
  0
LINE
  8
0
 10
-41
 20
-80.3147
 11
-40.7135
 21
-79.4331
  0
LINE
  8
0
 10
-40.7135
 20
-79.4331
 11
-39.9635
 21
-78.8882
  0
LINE
  8
0
 10
-39.9635
 20
-78.8882
 11
-39.0365
 21
-78.8882
  0
LINE
  8
0
 10
-39.0365
 20
-78.8882
 11
-38.2865
 21
-79.4331
  0
LINE
  8
0
 10
-38.2865
 20
-79.4331
 11
-38
 21
-80.3147
  0
LINE
  8
0
 10
-38
 20
-80.3147
 11
-38.2865
 21
-81.1964
  0
LINE
  8
0
 10
-38.2865
 20
-81.1964
 11
-39.0365
 21
-81.7413
  0
LINE
  8
0
 10
-39.0365
 20
-81.7413
 11
-39.9635
 21
-81.7413
  0
LINE
  8
0
 10
39.0365
 20
-81.7413
 11
38.2865
 21
-81.1964
  0
LINE
  8
0
 10
38.2865
 20
-81.1964
 11
38
 21
-80.3147
  0
LINE
  8
0
 10
38
 20
-80.3147
 11
38.2865
 21
-79.4331
  0
LINE
  8
0
 10
38.2865
 20
-79.4331
 11
39.0365
 21
-78.8882
  0
LINE
  8
0
 10
39.0365
 20
-78.8882
 11
39.9635
 21
-78.8882
  0
LINE
  8
0
 10
39.9635
 20
-78.8882
 11
40.7135
 21
-79.4331
  0
LINE
  8
0
 10
40.7135
 20
-79.4331
 11
41
 21
-80.3147
  0
LINE
  8
0
 10
41
 20
-80.3147
 11
40.7135
 21
-81.1964
  0
LINE
  8
0
 10
40.7135
 20
-81.1964
 11
39.9635
 21
-81.7413
  0
LINE
  8
0
 10
39.9635
 20
-81.7413
 11
39.0365
 21
-81.7413
  0
ENDSEC
  0
SECTION
  2
OBJECTS
  0
DICTIONARY
  0
ENDSEC
  0
EOF
