  0
SECTION
  2
BLOCKS
  0
ENDSEC
  0
SECTION
  2
ENTITIES
  0
LINE
  8
0
 10
59.1184
 20
-18.0001
 11
59.1183
 21
4.83333
  0
LINE
  8
0
 10
59.1183
 20
4.83333
 11
62.6816
 21
4.83344
  0
LINE
  8
0
 10
62.6816
 20
4.83344
 11
62.6816
 21
18.6665
  0
LINE
  8
0
 10
62.6816
 20
18.6665
 11
59.1184
 21
18.6665
  0
LINE
  8
0
 10
59.1184
 20
18.6665
 11
59.1183
 21
41.5
  0
LINE
  8
0
 10
59.1183
 20
41.5
 11
53.7262
 21
41.5
  0
LINE
  8
0
 10
53.7262
 20
41.5
 11
53.7262
 21
44.3
  0
LINE
  8
0
 10
53.7262
 20
44.3
 11
45.0881
 21
44.3
  0
LINE
  8
0
 10
45.0881
 20
44.3
 11
45.0881
 21
41.5
  0
LINE
  8
0
 10
45.0881
 20
41.5
 11
46.3631
 21
41.5
  0
LINE
  8
0
 10
46.3631
 20
41.5
 11
46.4804
 21
41.4908
  0
LINE
  8
0
 10
46.4804
 20
41.4908
 11
46.5948
 21
41.4633
  0
LINE
  8
0
 10
46.5948
 20
41.4633
 11
46.7036
 21
41.4182
  0
LINE
  8
0
 10
46.7036
 20
41.4182
 11
46.8039
 21
41.3568
  0
LINE
  8
0
 10
46.8039
 20
41.3568
 11
46.8934
 21
41.2803
  0
LINE
  8
0
 10
46.8934
 20
41.2803
 11
46.9698
 21
41.1908
  0
LINE
  8
0
 10
46.9698
 20
41.1908
 11
47.0313
 21
41.0905
  0
LINE
  8
0
 10
47.0313
 20
41.0905
 11
47.0764
 21
40.9818
  0
LINE
  8
0
 10
47.0764
 20
40.9818
 11
47.1039
 21
40.8673
  0
LINE
  8
0
 10
47.1039
 20
40.8673
 11
47.1131
 21
40.75
  0
LINE
  8
0
 10
47.1131
 20
40.75
 11
47.1039
 21
40.6327
  0
LINE
  8
0
 10
47.1039
 20
40.6327
 11
47.0764
 21
40.5182
  0
LINE
  8
0
 10
47.0764
 20
40.5182
 11
47.0313
 21
40.4095
  0
LINE
  8
0
 10
47.0313
 20
40.4095
 11
46.9698
 21
40.3092
  0
LINE
  8
0
 10
46.9698
 20
40.3092
 11
46.8934
 21
40.2197
  0
LINE
  8
0
 10
46.8934
 20
40.2197
 11
46.8039
 21
40.1432
  0
LINE
  8
0
 10
46.8039
 20
40.1432
 11
46.7036
 21
40.0818
  0
LINE
  8
0
 10
46.7036
 20
40.0818
 11
46.5948
 21
40.0367
  0
LINE
  8
0
 10
46.5948
 20
40.0367
 11
46.4804
 21
40.0092
  0
LINE
  8
0
 10
46.4804
 20
40.0092
 11
46.3631
 21
40
  0
LINE
  8
0
 10
46.3631
 20
40
 11
46.3631
 21
38.55
  0
LINE
  8
0
 10
46.3631
 20
38.55
 11
46.3292
 21
38.1198
  0
LINE
  8
0
 10
46.3292
 20
38.1198
 11
46.2285
 21
37.7002
  0
LINE
  8
0
 10
46.2285
 20
37.7002
 11
46.0634
 21
37.3015
  0
LINE
  8
0
 10
46.0634
 20
37.3015
 11
45.8379
 21
36.9336
  0
LINE
  8
0
 10
45.8379
 20
36.9336
 11
45.5576
 21
36.6055
  0
LINE
  8
0
 10
45.5576
 20
36.6055
 11
45.2295
 21
36.3252
  0
LINE
  8
0
 10
45.2295
 20
36.3252
 11
44.8616
 21
36.0997
  0
LINE
  8
0
 10
44.8616
 20
36.0997
 11
44.4629
 21
35.9346
  0
LINE
  8
0
 10
44.4629
 20
35.9346
 11
44.0433
 21
35.8339
  0
LINE
  8
0
 10
44.0433
 20
35.8339
 11
43.6131
 21
35.8
  0
LINE
  8
0
 10
43.6131
 20
35.8
 11
43.1829
 21
35.8339
  0
LINE
  8
0
 10
43.1829
 20
35.8339
 11
42.7633
 21
35.9346
  0
LINE
  8
0
 10
42.7633
 20
35.9346
 11
42.3646
 21
36.0997
  0
LINE
  8
0
 10
42.3646
 20
36.0997
 11
41.9967
 21
36.3252
  0
LINE
  8
0
 10
41.9967
 20
36.3252
 11
41.6686
 21
36.6055
  0
LINE
  8
0
 10
41.6686
 20
36.6055
 11
41.3883
 21
36.9336
  0
LINE
  8
0
 10
41.3883
 20
36.9336
 11
41.1628
 21
37.3015
  0
LINE
  8
0
 10
41.1628
 20
37.3015
 11
40.9977
 21
37.7002
  0
LINE
  8
0
 10
40.9977
 20
37.7002
 11
40.897
 21
38.1198
  0
LINE
  8
0
 10
40.897
 20
38.1198
 11
40.8631
 21
38.55
  0
LINE
  8
0
 10
40.8631
 20
38.55
 11
40.8631
 21
40
  0
LINE
  8
0
 10
40.8631
 20
40
 11
40.7458
 21
40.0092
  0
LINE
  8
0
 10
40.7458
 20
40.0092
 11
40.6313
 21
40.0367
  0
LINE
  8
0
 10
40.6313
 20
40.0367
 11
40.5226
 21
40.0818
  0
LINE
  8
0
 10
40.5226
 20
40.0818
 11
40.4223
 21
40.1432
  0
LINE
  8
0
 10
40.4223
 20
40.1432
 11
40.3328
 21
40.2197
  0
LINE
  8
0
 10
40.3328
 20
40.2197
 11
40.2563
 21
40.3092
  0
LINE
  8
0
 10
40.2563
 20
40.3092
 11
40.1949
 21
40.4095
  0
LINE
  8
0
 10
40.1949
 20
40.4095
 11
40.1498
 21
40.5183
  0
LINE
  8
0
 10
40.1498
 20
40.5183
 11
40.1223
 21
40.6327
  0
LINE
  8
0
 10
40.1223
 20
40.6327
 11
40.1131
 21
40.75
  0
LINE
  8
0
 10
40.1131
 20
40.75
 11
40.1223
 21
40.8673
  0
LINE
  8
0
 10
40.1223
 20
40.8673
 11
40.1498
 21
40.9818
  0
LINE
  8
0
 10
40.1498
 20
40.9818
 11
40.1949
 21
41.0905
  0
LINE
  8
0
 10
40.1949
 20
41.0905
 11
40.2563
 21
41.1908
  0
LINE
  8
0
 10
40.2563
 20
41.1908
 11
40.3328
 21
41.2803
  0
LINE
  8
0
 10
40.3328
 20
41.2803
 11
40.4223
 21
41.3568
  0
LINE
  8
0
 10
40.4223
 20
41.3568
 11
40.5226
 21
41.4183
  0
LINE
  8
0
 10
40.5226
 20
41.4183
 11
40.6313
 21
41.4633
  0
LINE
  8
0
 10
40.6313
 20
41.4633
 11
40.7458
 21
41.4908
  0
LINE
  8
0
 10
40.7458
 20
41.4908
 11
40.8631
 21
41.5
  0
LINE
  8
0
 10
40.8631
 20
41.5
 11
42.1381
 21
41.5
  0
LINE
  8
0
 10
42.1381
 20
41.5
 11
42.1381
 21
44.3
  0
LINE
  8
0
 10
42.1381
 20
44.3
 11
33.5
 21
44.3
  0
LINE
  8
0
 10
33.5
 20
44.3
 11
33.5
 21
41.5
  0
LINE
  8
0
 10
33.5
 20
41.5
 11
10.1131
 21
41.5
  0
LINE
  8
0
 10
10.1131
 20
41.5
 11
10.1131
 21
44.3
  0
LINE
  8
0
 10
10.1131
 20
44.3
 11
-10.1131
 21
44.3
  0
LINE
  8
0
 10
-10.1131
 20
44.3
 11
-10.1131
 21
41.5
  0
LINE
  8
0
 10
-10.1131
 20
41.5
 11
-33.5
 21
41.5
  0
LINE
  8
0
 10
-33.5
 20
41.5
 11
-33.5
 21
44.3
  0
LINE
  8
0
 10
-33.5
 20
44.3
 11
-42.1381
 21
44.3
  0
LINE
  8
0
 10
-42.1381
 20
44.3
 11
-42.1381
 21
41.5
  0
LINE
  8
0
 10
-42.1381
 20
41.5
 11
-40.8631
 21
41.5
  0
LINE
  8
0
 10
-40.8631
 20
41.5
 11
-40.7458
 21
41.4908
  0
LINE
  8
0
 10
-40.7458
 20
41.4908
 11
-40.6313
 21
41.4633
  0
LINE
  8
0
 10
-40.6313
 20
41.4633
 11
-40.5226
 21
41.4182
  0
LINE
  8
0
 10
-40.5226
 20
41.4182
 11
-40.4223
 21
41.3568
  0
LINE
  8
0
 10
-40.4223
 20
41.3568
 11
-40.3328
 21
41.2803
  0
LINE
  8
0
 10
-40.3328
 20
41.2803
 11
-40.2563
 21
41.1908
  0
LINE
  8
0
 10
-40.2563
 20
41.1908
 11
-40.1948
 21
41.0905
  0
LINE
  8
0
 10
-40.1948
 20
41.0905
 11
-40.1498
 21
40.9818
  0
LINE
  8
0
 10
-40.1498
 20
40.9818
 11
-40.1223
 21
40.8673
  0
LINE
  8
0
 10
-40.1223
 20
40.8673
 11
-40.1131
 21
40.75
  0
LINE
  8
0
 10
-40.1131
 20
40.75
 11
-40.1223
 21
40.6327
  0
LINE
  8
0
 10
-40.1223
 20
40.6327
 11
-40.1498
 21
40.5182
  0
LINE
  8
0
 10
-40.1498
 20
40.5182
 11
-40.1948
 21
40.4095
  0
LINE
  8
0
 10
-40.1948
 20
40.4095
 11
-40.2563
 21
40.3092
  0
LINE
  8
0
 10
-40.2563
 20
40.3092
 11
-40.3328
 21
40.2197
  0
LINE
  8
0
 10
-40.3328
 20
40.2197
 11
-40.4223
 21
40.1432
  0
LINE
  8
0
 10
-40.4223
 20
40.1432
 11
-40.5226
 21
40.0818
  0
LINE
  8
0
 10
-40.5226
 20
40.0818
 11
-40.6313
 21
40.0367
  0
LINE
  8
0
 10
-40.6313
 20
40.0367
 11
-40.7458
 21
40.0092
  0
LINE
  8
0
 10
-40.7458
 20
40.0092
 11
-40.8631
 21
40
  0
LINE
  8
0
 10
-40.8631
 20
40
 11
-40.8631
 21
38.55
  0
LINE
  8
0
 10
-40.8631
 20
38.55
 11
-40.8969
 21
38.1198
  0
LINE
  8
0
 10
-40.8969
 20
38.1198
 11
-40.9977
 21
37.7002
  0
LINE
  8
0
 10
-40.9977
 20
37.7002
 11
-41.1628
 21
37.3015
  0
LINE
  8
0
 10
-41.1628
 20
37.3015
 11
-41.3883
 21
36.9336
  0
LINE
  8
0
 10
-41.3883
 20
36.9336
 11
-41.6685
 21
36.6055
  0
LINE
  8
0
 10
-41.6685
 20
36.6055
 11
-41.9967
 21
36.3252
  0
LINE
  8
0
 10
-41.9967
 20
36.3252
 11
-42.3646
 21
36.0997
  0
LINE
  8
0
 10
-42.3646
 20
36.0997
 11
-42.7633
 21
35.9346
  0
LINE
  8
0
 10
-42.7633
 20
35.9346
 11
-43.1829
 21
35.8339
  0
LINE
  8
0
 10
-43.1829
 20
35.8339
 11
-43.6131
 21
35.8
  0
LINE
  8
0
 10
-43.6131
 20
35.8
 11
-44.0433
 21
35.8339
  0
LINE
  8
0
 10
-44.0433
 20
35.8339
 11
-44.4629
 21
35.9346
  0
LINE
  8
0
 10
-44.4629
 20
35.9346
 11
-44.8615
 21
36.0997
  0
LINE
  8
0
 10
-44.8615
 20
36.0997
 11
-45.2295
 21
36.3252
  0
LINE
  8
0
 10
-45.2295
 20
36.3252
 11
-45.5576
 21
36.6055
  0
LINE
  8
0
 10
-45.5576
 20
36.6055
 11
-45.8379
 21
36.9336
  0
LINE
  8
0
 10
-45.8379
 20
36.9336
 11
-46.0633
 21
37.3015
  0
LINE
  8
0
 10
-46.0633
 20
37.3015
 11
-46.2285
 21
37.7002
  0
LINE
  8
0
 10
-46.2285
 20
37.7002
 11
-46.3292
 21
38.1198
  0
LINE
  8
0
 10
-46.3292
 20
38.1198
 11
-46.3631
 21
38.55
  0
LINE
  8
0
 10
-46.3631
 20
38.55
 11
-46.3631
 21
40
  0
LINE
  8
0
 10
-46.3631
 20
40
 11
-46.4804
 21
40.0092
  0
LINE
  8
0
 10
-46.4804
 20
40.0092
 11
-46.5948
 21
40.0367
  0
LINE
  8
0
 10
-46.5948
 20
40.0367
 11
-46.7036
 21
40.0818
  0
LINE
  8
0
 10
-46.7036
 20
40.0818
 11
-46.8039
 21
40.1432
  0
LINE
  8
0
 10
-46.8039
 20
40.1432
 11
-46.8934
 21
40.2197
  0
LINE
  8
0
 10
-46.8934
 20
40.2197
 11
-46.9698
 21
40.3092
  0
LINE
  8
0
 10
-46.9698
 20
40.3092
 11
-47.0313
 21
40.4095
  0
LINE
  8
0
 10
-47.0313
 20
40.4095
 11
-47.0764
 21
40.5183
  0
LINE
  8
0
 10
-47.0764
 20
40.5183
 11
-47.1038
 21
40.6327
  0
LINE
  8
0
 10
-47.1038
 20
40.6327
 11
-47.1131
 21
40.75
  0
LINE
  8
0
 10
-47.1131
 20
40.75
 11
-47.1038
 21
40.8673
  0
LINE
  8
0
 10
-47.1038
 20
40.8673
 11
-47.0764
 21
40.9818
  0
LINE
  8
0
 10
-47.0764
 20
40.9818
 11
-47.0313
 21
41.0905
  0
LINE
  8
0
 10
-47.0313
 20
41.0905
 11
-46.9698
 21
41.1908
  0
LINE
  8
0
 10
-46.9698
 20
41.1908
 11
-46.8934
 21
41.2803
  0
LINE
  8
0
 10
-46.8934
 20
41.2803
 11
-46.8039
 21
41.3568
  0
LINE
  8
0
 10
-46.8039
 20
41.3568
 11
-46.7036
 21
41.4183
  0
LINE
  8
0
 10
-46.7036
 20
41.4183
 11
-46.5948
 21
41.4633
  0
LINE
  8
0
 10
-46.5948
 20
41.4633
 11
-46.4804
 21
41.4908
  0
LINE
  8
0
 10
-46.4804
 20
41.4908
 11
-46.3631
 21
41.5
  0
LINE
  8
0
 10
-46.3631
 20
41.5
 11
-45.0881
 21
41.5
  0
LINE
  8
0
 10
-45.0881
 20
41.5
 11
-45.0881
 21
44.3
  0
LINE
  8
0
 10
-45.0881
 20
44.3
 11
-53.7262
 21
44.3
  0
LINE
  8
0
 10
-53.7262
 20
44.3
 11
-53.7262
 21
41.5
  0
LINE
  8
0
 10
-53.7262
 20
41.5
 11
-59.1184
 21
41.5
  0
LINE
  8
0
 10
-59.1184
 20
41.5
 11
-59.1183
 21
18.6667
  0
LINE
  8
0
 10
-59.1183
 20
18.6667
 11
-62.6816
 21
18.6665
  0
LINE
  8
0
 10
-62.6816
 20
18.6665
 11
-62.6816
 21
4.83344
  0
LINE
  8
0
 10
-62.6816
 20
4.83344
 11
-59.1184
 21
4.83344
  0
LINE
  8
0
 10
-59.1184
 20
4.83344
 11
-59.1184
 21
-18.0001
  0
LINE
  8
0
 10
-59.1184
 20
-18.0001
 11
-62.7262
 21
-18.0001
  0
LINE
  8
0
 10
-62.7262
 20
-18.0001
 11
-62.7262
 21
-77.8654
  0
LINE
  8
0
 10
-62.7262
 20
-77.8654
 11
-61.2907
 21
-79.0155
  0
LINE
  8
0
 10
-61.2907
 20
-79.0155
 11
-58.7785
 21
-80.9017
  0
LINE
  8
0
 10
-58.7785
 20
-80.9017
 11
-56.2083
 21
-82.7081
  0
LINE
  8
0
 10
-56.2083
 20
-82.7081
 11
-53.5827
 21
-84.4328
  0
LINE
  8
0
 10
-53.5827
 20
-84.4328
 11
-50.9041
 21
-86.0742
  0
LINE
  8
0
 10
-50.9041
 20
-86.0742
 11
-48.1754
 21
-87.6307
  0
LINE
  8
0
 10
-48.1754
 20
-87.6307
 11
-45.399
 21
-89.1006
  0
LINE
  8
0
 10
-45.399
 20
-89.1006
 11
-42.5779
 21
-90.4827
  0
LINE
  8
0
 10
-42.5779
 20
-90.4827
 11
-39.7148
 21
-91.7755
  0
LINE
  8
0
 10
-39.7148
 20
-91.7755
 11
-36.8125
 21
-92.9776
  0
LINE
  8
0
 10
-36.8125
 20
-92.9776
 11
-33.8738
 21
-94.0881
  0
LINE
  8
0
 10
-33.8738
 20
-94.0881
 11
-30.9017
 21
-95.1056
  0
LINE
  8
0
 10
-30.9017
 20
-95.1056
 11
-27.8991
 21
-96.0294
  0
LINE
  8
0
 10
-27.8991
 20
-96.0294
 11
-24.869
 21
-96.8583
  0
LINE
  8
0
 10
-24.869
 20
-96.8583
 11
-21.8143
 21
-97.5917
  0
LINE
  8
0
 10
-21.8143
 20
-97.5917
 11
-18.7381
 21
-98.2287
  0
LINE
  8
0
 10
-18.7381
 20
-98.2287
 11
-15.6434
 21
-98.7688
  0
LINE
  8
0
 10
-15.6434
 20
-98.7688
 11
-12.5333
 21
-99.2115
  0
LINE
  8
0
 10
-12.5333
 20
-99.2115
 11
-9.41083
 21
-99.5562
  0
LINE
  8
0
 10
-9.41083
 20
-99.5562
 11
-6.27904
 21
-99.8027
  0
LINE
  8
0
 10
-6.27904
 20
-99.8027
 11
-3.14107
 21
-99.9507
  0
LINE
  8
0
 10
-3.14107
 20
-99.9507
 11
0
 21
-100
  0
LINE
  8
0
 10
0
 20
-100
 11
3.14107
 21
-99.9507
  0
LINE
  8
0
 10
3.14107
 20
-99.9507
 11
6.27904
 21
-99.8027
  0
LINE
  8
0
 10
6.27904
 20
-99.8027
 11
9.41083
 21
-99.5562
  0
LINE
  8
0
 10
9.41083
 20
-99.5562
 11
12.5333
 21
-99.2115
  0
LINE
  8
0
 10
12.5333
 20
-99.2115
 11
15.6434
 21
-98.7688
  0
LINE
  8
0
 10
15.6434
 20
-98.7688
 11
18.7381
 21
-98.2287
  0
LINE
  8
0
 10
18.7381
 20
-98.2287
 11
21.8143
 21
-97.5917
  0
LINE
  8
0
 10
21.8143
 20
-97.5917
 11
24.869
 21
-96.8583
  0
LINE
  8
0
 10
24.869
 20
-96.8583
 11
27.8991
 21
-96.0294
  0
LINE
  8
0
 10
27.8991
 20
-96.0294
 11
30.9017
 21
-95.1056
  0
LINE
  8
0
 10
30.9017
 20
-95.1056
 11
33.8738
 21
-94.0881
  0
LINE
  8
0
 10
33.8738
 20
-94.0881
 11
36.8125
 21
-92.9776
  0
LINE
  8
0
 10
36.8125
 20
-92.9776
 11
39.7148
 21
-91.7755
  0
LINE
  8
0
 10
39.7148
 20
-91.7755
 11
42.5779
 21
-90.4827
  0
LINE
  8
0
 10
42.5779
 20
-90.4827
 11
45.399
 21
-89.1006
  0
LINE
  8
0
 10
45.399
 20
-89.1006
 11
48.1754
 21
-87.6307
  0
LINE
  8
0
 10
48.1754
 20
-87.6307
 11
50.9041
 21
-86.0742
  0
LINE
  8
0
 10
50.9041
 20
-86.0742
 11
53.5827
 21
-84.4328
  0
LINE
  8
0
 10
53.5827
 20
-84.4328
 11
56.2083
 21
-82.7081
  0
LINE
  8
0
 10
56.2083
 20
-82.7081
 11
58.7785
 21
-80.9017
  0
LINE
  8
0
 10
58.7785
 20
-80.9017
 11
61.2907
 21
-79.0155
  0
LINE
  8
0
 10
61.2907
 20
-79.0155
 11
62.7262
 21
-77.8654
  0
LINE
  8
0
 10
62.7262
 20
-77.8654
 11
62.7262
 21
-18.0001
  0
LINE
  8
0
 10
62.7262
 20
-18.0001
 11
59.1184
 21
-18.0001
  0
LINE
  8
0
 10
-57.7262
 20
30.5
 11
-57.7262
 21
34.5
  0
LINE
  8
0
 10
-57.7262
 20
34.5
 11
-55.7262
 21
34.5
  0
LINE
  8
0
 10
-55.7262
 20
34.5
 11
-55.7262
 21
30.5
  0
LINE
  8
0
 10
-55.7262
 20
30.5
 11
-57.7262
 21
30.5
  0
LINE
  8
0
 10
55.7262
 20
30.5
 11
55.7262
 21
34.5
  0
LINE
  8
0
 10
55.7262
 20
34.5
 11
57.7262
 21
34.5
  0
LINE
  8
0
 10
57.7262
 20
34.5
 11
57.7262
 21
30.5
  0
LINE
  8
0
 10
57.7262
 20
30.5
 11
55.7262
 21
30.5
  0
LINE
  8
0
 10
-45.3363
 20
18.6665
 11
-45.3364
 21
31.5
  0
LINE
  8
0
 10
-45.3364
 20
31.5
 11
-41.586
 21
31.5001
  0
LINE
  8
0
 10
-41.586
 20
31.5001
 11
-41.586
 21
18.6665
  0
LINE
  8
0
 10
-41.586
 20
18.6665
 11
-45.3363
 21
18.6665
  0
LINE
  8
0
 10
41.586
 20
18.6665
 11
41.5859
 21
31.5
  0
LINE
  8
0
 10
41.5859
 20
31.5
 11
45.3363
 21
31.5001
  0
LINE
  8
0
 10
45.3363
 20
31.5001
 11
45.3363
 21
18.6665
  0
LINE
  8
0
 10
45.3363
 20
18.6665
 11
41.586
 21
18.6665
  0
LINE
  8
0
 10
-28.7822
 20
1.26155
 11
-29.5451
 21
1.44472
  0
LINE
  8
0
 10
-29.5451
 20
1.44472
 11
-30.2699
 21
1.74496
  0
LINE
  8
0
 10
-30.2699
 20
1.74496
 11
-30.9389
 21
2.15491
  0
LINE
  8
0
 10
-30.9389
 20
2.15491
 11
-31.5355
 21
2.66446
  0
LINE
  8
0
 10
-31.5355
 20
2.66446
 11
-32.0451
 21
3.26106
  0
LINE
  8
0
 10
-32.0451
 20
3.26106
 11
-32.455
 21
3.93004
  0
LINE
  8
0
 10
-32.455
 20
3.93004
 11
-32.7553
 21
4.65491
  0
LINE
  8
0
 10
-32.7553
 20
4.65491
 11
-32.9384
 21
5.41782
  0
LINE
  8
0
 10
-32.9384
 20
5.41782
 11
-33
 21
6.2
  0
LINE
  8
0
 10
-33
 20
6.2
 11
-33
 21
26.2
  0
LINE
  8
0
 10
-33
 20
26.2
 11
-32.9384
 21
26.9822
  0
LINE
  8
0
 10
-32.9384
 20
26.9822
 11
-32.7553
 21
27.7451
  0
LINE
  8
0
 10
-32.7553
 20
27.7451
 11
-32.455
 21
28.4699
  0
LINE
  8
0
 10
-32.455
 20
28.4699
 11
-32.0451
 21
29.1389
  0
LINE
  8
0
 10
-32.0451
 20
29.1389
 11
-31.5355
 21
29.7355
  0
LINE
  8
0
 10
-31.5355
 20
29.7355
 11
-30.9389
 21
30.2451
  0
LINE
  8
0
 10
-30.9389
 20
30.2451
 11
-30.2699
 21
30.655
  0
LINE
  8
0
 10
-30.2699
 20
30.655
 11
-29.5451
 21
30.9553
  0
LINE
  8
0
 10
-29.5451
 20
30.9553
 11
-28.7822
 21
31.1384
  0
LINE
  8
0
 10
-28.7822
 20
31.1384
 11
-28
 21
31.2
  0
LINE
  8
0
 10
-28
 20
31.2
 11
-27.2178
 21
31.1384
  0
LINE
  8
0
 10
-27.2178
 20
31.1384
 11
-26.4549
 21
30.9553
  0
LINE
  8
0
 10
-26.4549
 20
30.9553
 11
-25.73
 21
30.655
  0
LINE
  8
0
 10
-25.73
 20
30.655
 11
-25.0611
 21
30.2451
  0
LINE
  8
0
 10
-25.0611
 20
30.2451
 11
-24.4645
 21
29.7355
  0
LINE
  8
0
 10
-24.4645
 20
29.7355
 11
-23.9549
 21
29.1389
  0
LINE
  8
0
 10
-23.9549
 20
29.1389
 11
-23.545
 21
28.4699
  0
LINE
  8
0
 10
-23.545
 20
28.4699
 11
-23.2447
 21
27.7451
  0
LINE
  8
0
 10
-23.2447
 20
27.7451
 11
-23.0616
 21
26.9822
  0
LINE
  8
0
 10
-23.0616
 20
26.9822
 11
-23
 21
26.2
  0
LINE
  8
0
 10
-23
 20
26.2
 11
-23
 21
6.2
  0
LINE
  8
0
 10
-23
 20
6.2
 11
-23.0616
 21
5.41782
  0
LINE
  8
0
 10
-23.0616
 20
5.41782
 11
-23.2447
 21
4.65491
  0
LINE
  8
0
 10
-23.2447
 20
4.65491
 11
-23.545
 21
3.93004
  0
LINE
  8
0
 10
-23.545
 20
3.93004
 11
-23.9549
 21
3.26106
  0
LINE
  8
0
 10
-23.9549
 20
3.26106
 11
-24.4645
 21
2.66446
  0
LINE
  8
0
 10
-24.4645
 20
2.66446
 11
-25.0611
 21
2.15491
  0
LINE
  8
0
 10
-25.0611
 20
2.15491
 11
-25.73
 21
1.74496
  0
LINE
  8
0
 10
-25.73
 20
1.74496
 11
-26.4549
 21
1.44472
  0
LINE
  8
0
 10
-26.4549
 20
1.44472
 11
-27.2178
 21
1.26155
  0
LINE
  8
0
 10
-27.2178
 20
1.26155
 11
-28
 21
1.2
  0
LINE
  8
0
 10
-28
 20
1.2
 11
-28.7822
 21
1.26155
  0
LINE
  8
0
 10
27.2178
 20
1.26155
 11
26.4549
 21
1.44472
  0
LINE
  8
0
 10
26.4549
 20
1.44472
 11
25.73
 21
1.74496
  0
LINE
  8
0
 10
25.73
 20
1.74496
 11
25.0611
 21
2.15491
  0
LINE
  8
0
 10
25.0611
 20
2.15491
 11
24.4645
 21
2.66446
  0
LINE
  8
0
 10
24.4645
 20
2.66446
 11
23.9549
 21
3.26106
  0
LINE
  8
0
 10
23.9549
 20
3.26106
 11
23.545
 21
3.93004
  0
LINE
  8
0
 10
23.545
 20
3.93004
 11
23.2447
 21
4.65491
  0
LINE
  8
0
 10
23.2447
 20
4.65491
 11
23.0616
 21
5.41782
  0
LINE
  8
0
 10
23.0616
 20
5.41782
 11
23
 21
6.2
  0
LINE
  8
0
 10
23
 20
6.2
 11
23
 21
26.2
  0
LINE
  8
0
 10
23
 20
26.2
 11
23.0616
 21
26.9822
  0
LINE
  8
0
 10
23.0616
 20
26.9822
 11
23.2447
 21
27.7451
  0
LINE
  8
0
 10
23.2447
 20
27.7451
 11
23.545
 21
28.4699
  0
LINE
  8
0
 10
23.545
 20
28.4699
 11
23.9549
 21
29.1389
  0
LINE
  8
0
 10
23.9549
 20
29.1389
 11
24.4645
 21
29.7355
  0
LINE
  8
0
 10
24.4645
 20
29.7355
 11
25.0611
 21
30.2451
  0
LINE
  8
0
 10
25.0611
 20
30.2451
 11
25.73
 21
30.655
  0
LINE
  8
0
 10
25.73
 20
30.655
 11
26.4549
 21
30.9553
  0
LINE
  8
0
 10
26.4549
 20
30.9553
 11
27.2178
 21
31.1384
  0
LINE
  8
0
 10
27.2178
 20
31.1384
 11
28
 21
31.2
  0
LINE
  8
0
 10
28
 20
31.2
 11
28.7822
 21
31.1384
  0
LINE
  8
0
 10
28.7822
 20
31.1384
 11
29.5451
 21
30.9553
  0
LINE
  8
0
 10
29.5451
 20
30.9553
 11
30.2699
 21
30.655
  0
LINE
  8
0
 10
30.2699
 20
30.655
 11
30.9389
 21
30.2451
  0
LINE
  8
0
 10
30.9389
 20
30.2451
 11
31.5355
 21
29.7355
  0
LINE
  8
0
 10
31.5355
 20
29.7355
 11
32.0451
 21
29.1389
  0
LINE
  8
0
 10
32.0451
 20
29.1389
 11
32.455
 21
28.4699
  0
LINE
  8
0
 10
32.455
 20
28.4699
 11
32.7553
 21
27.7451
  0
LINE
  8
0
 10
32.7553
 20
27.7451
 11
32.9384
 21
26.9822
  0
LINE
  8
0
 10
32.9384
 20
26.9822
 11
33
 21
26.2
  0
LINE
  8
0
 10
33
 20
26.2
 11
33
 21
6.2
  0
LINE
  8
0
 10
33
 20
6.2
 11
32.9384
 21
5.41782
  0
LINE
  8
0
 10
32.9384
 20
5.41782
 11
32.7553
 21
4.65491
  0
LINE
  8
0
 10
32.7553
 20
4.65491
 11
32.455
 21
3.93004
  0
LINE
  8
0
 10
32.455
 20
3.93004
 11
32.0451
 21
3.26106
  0
LINE
  8
0
 10
32.0451
 20
3.26106
 11
31.5355
 21
2.66446
  0
LINE
  8
0
 10
31.5355
 20
2.66446
 11
30.9389
 21
2.15491
  0
LINE
  8
0
 10
30.9389
 20
2.15491
 11
30.2699
 21
1.74496
  0
LINE
  8
0
 10
30.2699
 20
1.74496
 11
29.5451
 21
1.44472
  0
LINE
  8
0
 10
29.5451
 20
1.44472
 11
28.7822
 21
1.26155
  0
LINE
  8
0
 10
28.7822
 20
1.26155
 11
28
 21
1.2
  0
LINE
  8
0
 10
28
 20
1.2
 11
27.2178
 21
1.26155
  0
LINE
  8
0
 10
-18.7346
 20
4.71846
 11
-18.9635
 21
4.77341
  0
LINE
  8
0
 10
-18.9635
 20
4.77341
 11
-19.181
 21
4.86348
  0
LINE
  8
0
 10
-19.181
 20
4.86348
 11
-19.3817
 21
4.98647
  0
LINE
  8
0
 10
-19.3817
 20
4.98647
 11
-19.5607
 21
5.13933
  0
LINE
  8
0
 10
-19.5607
 20
5.13933
 11
-19.7135
 21
5.31831
  0
LINE
  8
0
 10
-19.7135
 20
5.31831
 11
-19.8365
 21
5.51901
  0
LINE
  8
0
 10
-19.8365
 20
5.51901
 11
-19.9266
 21
5.73647
  0
LINE
  8
0
 10
-19.9266
 20
5.73647
 11
-19.9815
 21
5.96535
  0
LINE
  8
0
 10
-19.9815
 20
5.96535
 11
-20
 21
6.2
  0
LINE
  8
0
 10
-20
 20
6.2
 11
-20
 21
26.2
  0
LINE
  8
0
 10
-20
 20
26.2
 11
-19.9815
 21
26.4346
  0
LINE
  8
0
 10
-19.9815
 20
26.4346
 11
-19.9266
 21
26.6635
  0
LINE
  8
0
 10
-19.9266
 20
26.6635
 11
-19.8365
 21
26.881
  0
LINE
  8
0
 10
-19.8365
 20
26.881
 11
-19.7135
 21
27.0817
  0
LINE
  8
0
 10
-19.7135
 20
27.0817
 11
-19.5607
 21
27.2607
  0
LINE
  8
0
 10
-19.5607
 20
27.2607
 11
-19.3817
 21
27.4135
  0
LINE
  8
0
 10
-19.3817
 20
27.4135
 11
-19.181
 21
27.5365
  0
LINE
  8
0
 10
-19.181
 20
27.5365
 11
-18.9635
 21
27.6266
  0
LINE
  8
0
 10
-18.9635
 20
27.6266
 11
-18.7346
 21
27.6815
  0
LINE
  8
0
 10
-18.7346
 20
27.6815
 11
-18.5
 21
27.7
  0
LINE
  8
0
 10
-18.5
 20
27.7
 11
-18.2653
 21
27.6815
  0
LINE
  8
0
 10
-18.2653
 20
27.6815
 11
-18.0365
 21
27.6266
  0
LINE
  8
0
 10
-18.0365
 20
27.6266
 11
-17.819
 21
27.5365
  0
LINE
  8
0
 10
-17.819
 20
27.5365
 11
-17.6183
 21
27.4135
  0
LINE
  8
0
 10
-17.6183
 20
27.4135
 11
-17.4393
 21
27.2607
  0
LINE
  8
0
 10
-17.4393
 20
27.2607
 11
-17.2865
 21
27.0817
  0
LINE
  8
0
 10
-17.2865
 20
27.0817
 11
-17.1635
 21
26.881
  0
LINE
  8
0
 10
-17.1635
 20
26.881
 11
-17.0734
 21
26.6635
  0
LINE
  8
0
 10
-17.0734
 20
26.6635
 11
-17.0185
 21
26.4346
  0
LINE
  8
0
 10
-17.0185
 20
26.4346
 11
-17
 21
26.2
  0
LINE
  8
0
 10
-17
 20
26.2
 11
-17
 21
6.2
  0
LINE
  8
0
 10
-17
 20
6.2
 11
-17.0185
 21
5.96535
  0
LINE
  8
0
 10
-17.0185
 20
5.96535
 11
-17.0734
 21
5.73647
  0
LINE
  8
0
 10
-17.0734
 20
5.73647
 11
-17.1635
 21
5.51901
  0
LINE
  8
0
 10
-17.1635
 20
5.51901
 11
-17.2865
 21
5.31831
  0
LINE
  8
0
 10
-17.2865
 20
5.31831
 11
-17.4393
 21
5.13933
  0
LINE
  8
0
 10
-17.4393
 20
5.13933
 11
-17.6183
 21
4.98647
  0
LINE
  8
0
 10
-17.6183
 20
4.98647
 11
-17.819
 21
4.86348
  0
LINE
  8
0
 10
-17.819
 20
4.86348
 11
-18.0365
 21
4.77341
  0
LINE
  8
0
 10
-18.0365
 20
4.77341
 11
-18.2653
 21
4.71846
  0
LINE
  8
0
 10
-18.2653
 20
4.71846
 11
-18.5
 21
4.7
  0
LINE
  8
0
 10
-18.5
 20
4.7
 11
-18.7346
 21
4.71846
  0
LINE
  8
0
 10
18.2653
 20
4.71846
 11
18.0365
 21
4.77341
  0
LINE
  8
0
 10
18.0365
 20
4.77341
 11
17.819
 21
4.86348
  0
LINE
  8
0
 10
17.819
 20
4.86348
 11
17.6183
 21
4.98647
  0
LINE
  8
0
 10
17.6183
 20
4.98647
 11
17.4393
 21
5.13933
  0
LINE
  8
0
 10
17.4393
 20
5.13933
 11
17.2865
 21
5.31831
  0
LINE
  8
0
 10
17.2865
 20
5.31831
 11
17.1635
 21
5.51901
  0
LINE
  8
0
 10
17.1635
 20
5.51901
 11
17.0734
 21
5.73647
  0
LINE
  8
0
 10
17.0734
 20
5.73647
 11
17.0185
 21
5.96535
  0
LINE
  8
0
 10
17.0185
 20
5.96535
 11
17
 21
6.2
  0
LINE
  8
0
 10
17
 20
6.2
 11
17
 21
26.2
  0
LINE
  8
0
 10
17
 20
26.2
 11
17.0185
 21
26.4346
  0
LINE
  8
0
 10
17.0185
 20
26.4346
 11
17.0734
 21
26.6635
  0
LINE
  8
0
 10
17.0734
 20
26.6635
 11
17.1635
 21
26.881
  0
LINE
  8
0
 10
17.1635
 20
26.881
 11
17.2865
 21
27.0817
  0
LINE
  8
0
 10
17.2865
 20
27.0817
 11
17.4393
 21
27.2607
  0
LINE
  8
0
 10
17.4393
 20
27.2607
 11
17.6183
 21
27.4135
  0
LINE
  8
0
 10
17.6183
 20
27.4135
 11
17.819
 21
27.5365
  0
LINE
  8
0
 10
17.819
 20
27.5365
 11
18.0365
 21
27.6266
  0
LINE
  8
0
 10
18.0365
 20
27.6266
 11
18.2653
 21
27.6815
  0
LINE
  8
0
 10
18.2653
 20
27.6815
 11
18.5
 21
27.7
  0
LINE
  8
0
 10
18.5
 20
27.7
 11
18.7346
 21
27.6815
  0
LINE
  8
0
 10
18.7346
 20
27.6815
 11
18.9635
 21
27.6266
  0
LINE
  8
0
 10
18.9635
 20
27.6266
 11
19.181
 21
27.5365
  0
LINE
  8
0
 10
19.181
 20
27.5365
 11
19.3817
 21
27.4135
  0
LINE
  8
0
 10
19.3817
 20
27.4135
 11
19.5607
 21
27.2607
  0
LINE
  8
0
 10
19.5607
 20
27.2607
 11
19.7135
 21
27.0817
  0
LINE
  8
0
 10
19.7135
 20
27.0817
 11
19.8365
 21
26.881
  0
LINE
  8
0
 10
19.8365
 20
26.881
 11
19.9266
 21
26.6635
  0
LINE
  8
0
 10
19.9266
 20
26.6635
 11
19.9815
 21
26.4346
  0
LINE
  8
0
 10
19.9815
 20
26.4346
 11
20
 21
26.2
  0
LINE
  8
0
 10
20
 20
26.2
 11
20
 21
6.2
  0
LINE
  8
0
 10
20
 20
6.2
 11
19.9815
 21
5.96535
  0
LINE
  8
0
 10
19.9815
 20
5.96535
 11
19.9266
 21
5.73647
  0
LINE
  8
0
 10
19.9266
 20
5.73647
 11
19.8365
 21
5.51901
  0
LINE
  8
0
 10
19.8365
 20
5.51901
 11
19.7135
 21
5.31831
  0
LINE
  8
0
 10
19.7135
 20
5.31831
 11
19.5607
 21
5.13933
  0
LINE
  8
0
 10
19.5607
 20
5.13933
 11
19.3817
 21
4.98647
  0
LINE
  8
0
 10
19.3817
 20
4.98647
 11
19.181
 21
4.86348
  0
LINE
  8
0
 10
19.181
 20
4.86348
 11
18.9635
 21
4.77341
  0
LINE
  8
0
 10
18.9635
 20
4.77341
 11
18.7346
 21
4.71846
  0
LINE
  8
0
 10
18.7346
 20
4.71846
 11
18.5
 21
4.7
  0
LINE
  8
0
 10
18.5
 20
4.7
 11
18.2653
 21
4.71846
  0
LINE
  8
0
 10
-40.7262
 20
23.5
 11
-40.7262
 21
27.5
  0
LINE
  8
0
 10
-40.7262
 20
27.5
 11
-38.7262
 21
27.5
  0
LINE
  8
0
 10
-38.7262
 20
27.5
 11
-38.7262
 21
23.5
  0
LINE
  8
0
 10
-38.7262
 20
23.5
 11
-40.7262
 21
23.5
  0
LINE
  8
0
 10
38.7262
 20
23.5
 11
38.7262
 21
27.5
  0
LINE
  8
0
 10
38.7262
 20
27.5
 11
40.7262
 21
27.5
  0
LINE
  8
0
 10
40.7262
 20
27.5
 11
40.7262
 21
23.5
  0
LINE
  8
0
 10
40.7262
 20
23.5
 11
38.7262
 21
23.5
  0
LINE
  8
0
 10
-49.7262
 20
23.5
 11
-49.7262
 21
27.5
  0
LINE
  8
0
 10
-49.7262
 20
27.5
 11
-47.7262
 21
27.5
  0
LINE
  8
0
 10
-47.7262
 20
27.5
 11
-47.7262
 21
23.5
  0
LINE
  8
0
 10
-47.7262
 20
23.5
 11
-49.7262
 21
23.5
  0
LINE
  8
0
 10
47.7262
 20
23.5
 11
47.7262
 21
27.5
  0
LINE
  8
0
 10
47.7262
 20
27.5
 11
49.7262
 21
27.5
  0
LINE
  8
0
 10
49.7262
 20
27.5
 11
49.7262
 21
23.5
  0
LINE
  8
0
 10
49.7262
 20
23.5
 11
47.7262
 21
23.5
  0
LINE
  8
0
 10
8.63797
 20
3.44562
 11
8.38239
 21
3.50697
  0
LINE
  8
0
 10
8.38239
 20
3.50697
 11
8.13956
 21
3.60756
  0
LINE
  8
0
 10
8.13956
 20
3.60756
 11
7.91545
 21
3.74489
  0
LINE
  8
0
 10
7.91545
 20
3.74489
 11
7.71559
 21
3.91559
  0
LINE
  8
0
 10
7.71559
 20
3.91559
 11
7.54489
 21
4.11545
  0
LINE
  8
0
 10
7.54489
 20
4.11545
 11
7.40756
 21
4.33955
  0
LINE
  8
0
 10
7.40756
 20
4.33955
 11
7.30698
 21
4.58238
  0
LINE
  8
0
 10
7.30698
 20
4.58238
 11
7.24562
 21
4.83797
  0
LINE
  8
0
 10
7.24562
 20
4.83797
 11
7.22499
 21
5.09999
  0
LINE
  8
0
 10
7.22499
 20
5.09999
 11
7.24562
 21
5.36201
  0
LINE
  8
0
 10
7.24562
 20
5.36201
 11
7.30698
 21
5.6176
  0
LINE
  8
0
 10
7.30698
 20
5.6176
 11
7.40756
 21
5.86043
  0
LINE
  8
0
 10
7.40756
 20
5.86043
 11
7.54489
 21
6.08453
  0
LINE
  8
0
 10
7.54489
 20
6.08453
 11
7.71559
 21
6.28439
  0
LINE
  8
0
 10
7.71559
 20
6.28439
 11
7.91545
 21
6.45509
  0
LINE
  8
0
 10
7.91545
 20
6.45509
 11
8.13956
 21
6.59242
  0
LINE
  8
0
 10
8.13956
 20
6.59242
 11
8.38239
 21
6.69301
  0
LINE
  8
0
 10
8.38239
 20
6.69301
 11
8.63797
 21
6.75436
  0
LINE
  8
0
 10
8.63797
 20
6.75436
 11
8.89999
 21
6.77499
  0
LINE
  8
0
 10
8.89999
 20
6.77499
 11
9.16202
 21
6.75436
  0
LINE
  8
0
 10
9.16202
 20
6.75436
 11
9.4176
 21
6.69301
  0
LINE
  8
0
 10
9.4176
 20
6.69301
 11
9.66043
 21
6.59242
  0
LINE
  8
0
 10
9.66043
 20
6.59242
 11
9.88454
 21
6.45509
  0
LINE
  8
0
 10
9.88454
 20
6.45509
 11
10.0844
 21
6.28439
  0
LINE
  8
0
 10
10.0844
 20
6.28439
 11
10.2551
 21
6.08453
  0
LINE
  8
0
 10
10.2551
 20
6.08453
 11
10.3924
 21
5.86043
  0
LINE
  8
0
 10
10.3924
 20
5.86043
 11
10.493
 21
5.6176
  0
LINE
  8
0
 10
10.493
 20
5.6176
 11
10.5544
 21
5.36201
  0
LINE
  8
0
 10
10.5544
 20
5.36201
 11
10.575
 21
5.09999
  0
LINE
  8
0
 10
10.575
 20
5.09999
 11
10.5544
 21
4.83797
  0
LINE
  8
0
 10
10.5544
 20
4.83797
 11
10.493
 21
4.58238
  0
LINE
  8
0
 10
10.493
 20
4.58238
 11
10.3924
 21
4.33955
  0
LINE
  8
0
 10
10.3924
 20
4.33955
 11
10.2551
 21
4.11545
  0
LINE
  8
0
 10
10.2551
 20
4.11545
 11
10.0844
 21
3.91559
  0
LINE
  8
0
 10
10.0844
 20
3.91559
 11
9.88454
 21
3.74489
  0
LINE
  8
0
 10
9.88454
 20
3.74489
 11
9.66043
 21
3.60756
  0
LINE
  8
0
 10
9.66043
 20
3.60756
 11
9.4176
 21
3.50697
  0
LINE
  8
0
 10
9.4176
 20
3.50697
 11
9.16202
 21
3.44562
  0
LINE
  8
0
 10
9.16202
 20
3.44562
 11
8.89999
 21
3.42499
  0
LINE
  8
0
 10
8.89999
 20
3.42499
 11
8.63797
 21
3.44562
  0
LINE
  8
0
 10
-9.16202
 20
3.44562
 11
-9.4176
 21
3.50697
  0
LINE
  8
0
 10
-9.4176
 20
3.50697
 11
-9.66043
 21
3.60756
  0
LINE
  8
0
 10
-9.66043
 20
3.60756
 11
-9.88454
 21
3.74489
  0
LINE
  8
0
 10
-9.88454
 20
3.74489
 11
-10.0844
 21
3.91559
  0
LINE
  8
0
 10
-10.0844
 20
3.91559
 11
-10.2551
 21
4.11545
  0
LINE
  8
0
 10
-10.2551
 20
4.11545
 11
-10.3924
 21
4.33955
  0
LINE
  8
0
 10
-10.3924
 20
4.33955
 11
-10.493
 21
4.58238
  0
LINE
  8
0
 10
-10.493
 20
4.58238
 11
-10.5544
 21
4.83797
  0
LINE
  8
0
 10
-10.5544
 20
4.83797
 11
-10.575
 21
5.09999
  0
LINE
  8
0
 10
-10.575
 20
5.09999
 11
-10.5544
 21
5.36201
  0
LINE
  8
0
 10
-10.5544
 20
5.36201
 11
-10.493
 21
5.6176
  0
LINE
  8
0
 10
-10.493
 20
5.6176
 11
-10.3924
 21
5.86043
  0
LINE
  8
0
 10
-10.3924
 20
5.86043
 11
-10.2551
 21
6.08453
  0
LINE
  8
0
 10
-10.2551
 20
6.08453
 11
-10.0844
 21
6.28439
  0
LINE
  8
0
 10
-10.0844
 20
6.28439
 11
-9.88454
 21
6.45509
  0
LINE
  8
0
 10
-9.88454
 20
6.45509
 11
-9.66043
 21
6.59242
  0
LINE
  8
0
 10
-9.66043
 20
6.59242
 11
-9.4176
 21
6.69301
  0
LINE
  8
0
 10
-9.4176
 20
6.69301
 11
-9.16202
 21
6.75436
  0
LINE
  8
0
 10
-9.16202
 20
6.75436
 11
-8.89999
 21
6.77499
  0
LINE
  8
0
 10
-8.89999
 20
6.77499
 11
-8.63797
 21
6.75436
  0
LINE
  8
0
 10
-8.63797
 20
6.75436
 11
-8.38239
 21
6.69301
  0
LINE
  8
0
 10
-8.38239
 20
6.69301
 11
-8.13956
 21
6.59242
  0
LINE
  8
0
 10
-8.13956
 20
6.59242
 11
-7.91545
 21
6.45509
  0
LINE
  8
0
 10
-7.91545
 20
6.45509
 11
-7.71559
 21
6.28439
  0
LINE
  8
0
 10
-7.71559
 20
6.28439
 11
-7.54489
 21
6.08453
  0
LINE
  8
0
 10
-7.54489
 20
6.08453
 11
-7.40756
 21
5.86043
  0
LINE
  8
0
 10
-7.40756
 20
5.86043
 11
-7.30698
 21
5.6176
  0
LINE
  8
0
 10
-7.30698
 20
5.6176
 11
-7.24562
 21
5.36201
  0
LINE
  8
0
 10
-7.24562
 20
5.36201
 11
-7.22499
 21
5.09999
  0
LINE
  8
0
 10
-7.22499
 20
5.09999
 11
-7.24562
 21
4.83797
  0
LINE
  8
0
 10
-7.24562
 20
4.83797
 11
-7.30698
 21
4.58238
  0
LINE
  8
0
 10
-7.30698
 20
4.58238
 11
-7.40756
 21
4.33955
  0
LINE
  8
0
 10
-7.40756
 20
4.33955
 11
-7.54489
 21
4.11545
  0
LINE
  8
0
 10
-7.54489
 20
4.11545
 11
-7.71559
 21
3.91559
  0
LINE
  8
0
 10
-7.71559
 20
3.91559
 11
-7.91545
 21
3.74489
  0
LINE
  8
0
 10
-7.91545
 20
3.74489
 11
-8.13956
 21
3.60756
  0
LINE
  8
0
 10
-8.13956
 20
3.60756
 11
-8.38239
 21
3.50697
  0
LINE
  8
0
 10
-8.38239
 20
3.50697
 11
-8.63797
 21
3.44562
  0
LINE
  8
0
 10
-8.63797
 20
3.44562
 11
-8.89999
 21
3.42499
  0
LINE
  8
0
 10
-8.89999
 20
3.42499
 11
-9.16202
 21
3.44562
  0
LINE
  8
0
 10
41.586
 20
-18.0001
 11
41.5859
 21
4.83333
  0
LINE
  8
0
 10
41.5859
 20
4.83333
 11
45.3363
 21
4.83344
  0
LINE
  8
0
 10
45.3363
 20
4.83344
 11
45.3363
 21
-18.0001
  0
LINE
  8
0
 10
45.3363
 20
-18.0001
 11
41.586
 21
-18.0001
  0
LINE
  8
0
 10
-45.3363
 20
-18.0001
 11
-45.3364
 21
4.83333
  0
LINE
  8
0
 10
-45.3364
 20
4.83333
 11
-41.586
 21
4.83344
  0
LINE
  8
0
 10
-41.586
 20
4.83344
 11
-41.586
 21
-18.0001
  0
LINE
  8
0
 10
-41.586
 20
-18.0001
 11
-45.3363
 21
-18.0001
  0
LINE
  8
0
 10
-9.16202
 20
-6.75436
 11
-9.4176
 21
-6.69301
  0
LINE
  8
0
 10
-9.4176
 20
-6.69301
 11
-9.66043
 21
-6.59242
  0
LINE
  8
0
 10
-9.66043
 20
-6.59242
 11
-9.88454
 21
-6.45509
  0
LINE
  8
0
 10
-9.88454
 20
-6.45509
 11
-10.0844
 21
-6.28439
  0
LINE
  8
0
 10
-10.0844
 20
-6.28439
 11
-10.2551
 21
-6.08453
  0
LINE
  8
0
 10
-10.2551
 20
-6.08453
 11
-10.3924
 21
-5.86043
  0
LINE
  8
0
 10
-10.3924
 20
-5.86043
 11
-10.493
 21
-5.6176
  0
LINE
  8
0
 10
-10.493
 20
-5.6176
 11
-10.5544
 21
-5.36201
  0
LINE
  8
0
 10
-10.5544
 20
-5.36201
 11
-10.575
 21
-5.09999
  0
LINE
  8
0
 10
-10.575
 20
-5.09999
 11
-10.5544
 21
-4.83797
  0
LINE
  8
0
 10
-10.5544
 20
-4.83797
 11
-10.493
 21
-4.58238
  0
LINE
  8
0
 10
-10.493
 20
-4.58238
 11
-10.3924
 21
-4.33955
  0
LINE
  8
0
 10
-10.3924
 20
-4.33955
 11
-10.2551
 21
-4.11545
  0
LINE
  8
0
 10
-10.2551
 20
-4.11545
 11
-10.0844
 21
-3.91559
  0
LINE
  8
0
 10
-10.0844
 20
-3.91559
 11
-9.88454
 21
-3.74489
  0
LINE
  8
0
 10
-9.88454
 20
-3.74489
 11
-9.66043
 21
-3.60756
  0
LINE
  8
0
 10
-9.66043
 20
-3.60756
 11
-9.4176
 21
-3.50697
  0
LINE
  8
0
 10
-9.4176
 20
-3.50697
 11
-9.16202
 21
-3.44562
  0
LINE
  8
0
 10
-9.16202
 20
-3.44562
 11
-8.89999
 21
-3.42499
  0
LINE
  8
0
 10
-8.89999
 20
-3.42499
 11
-8.63797
 21
-3.44562
  0
LINE
  8
0
 10
-8.63797
 20
-3.44562
 11
-8.38239
 21
-3.50697
  0
LINE
  8
0
 10
-8.38239
 20
-3.50697
 11
-8.13956
 21
-3.60756
  0
LINE
  8
0
 10
-8.13956
 20
-3.60756
 11
-7.91545
 21
-3.74489
  0
LINE
  8
0
 10
-7.91545
 20
-3.74489
 11
-7.71559
 21
-3.91559
  0
LINE
  8
0
 10
-7.71559
 20
-3.91559
 11
-7.54489
 21
-4.11545
  0
LINE
  8
0
 10
-7.54489
 20
-4.11545
 11
-7.40756
 21
-4.33955
  0
LINE
  8
0
 10
-7.40756
 20
-4.33955
 11
-7.30698
 21
-4.58238
  0
LINE
  8
0
 10
-7.30698
 20
-4.58238
 11
-7.24562
 21
-4.83797
  0
LINE
  8
0
 10
-7.24562
 20
-4.83797
 11
-7.22499
 21
-5.09999
  0
LINE
  8
0
 10
-7.22499
 20
-5.09999
 11
-7.24562
 21
-5.36201
  0
LINE
  8
0
 10
-7.24562
 20
-5.36201
 11
-7.30698
 21
-5.6176
  0
LINE
  8
0
 10
-7.30698
 20
-5.6176
 11
-7.40756
 21
-5.86043
  0
LINE
  8
0
 10
-7.40756
 20
-5.86043
 11
-7.54489
 21
-6.08453
  0
LINE
  8
0
 10
-7.54489
 20
-6.08453
 11
-7.71559
 21
-6.28439
  0
LINE
  8
0
 10
-7.71559
 20
-6.28439
 11
-7.91545
 21
-6.45509
  0
LINE
  8
0
 10
-7.91545
 20
-6.45509
 11
-8.13956
 21
-6.59242
  0
LINE
  8
0
 10
-8.13956
 20
-6.59242
 11
-8.38239
 21
-6.69301
  0
LINE
  8
0
 10
-8.38239
 20
-6.69301
 11
-8.63797
 21
-6.75436
  0
LINE
  8
0
 10
-8.63797
 20
-6.75436
 11
-8.89999
 21
-6.77499
  0
LINE
  8
0
 10
-8.89999
 20
-6.77499
 11
-9.16202
 21
-6.75436
  0
LINE
  8
0
 10
8.63797
 20
-6.75436
 11
8.38239
 21
-6.69301
  0
LINE
  8
0
 10
8.38239
 20
-6.69301
 11
8.13956
 21
-6.59242
  0
LINE
  8
0
 10
8.13956
 20
-6.59242
 11
7.91545
 21
-6.45509
  0
LINE
  8
0
 10
7.91545
 20
-6.45509
 11
7.71559
 21
-6.28439
  0
LINE
  8
0
 10
7.71559
 20
-6.28439
 11
7.54489
 21
-6.08453
  0
LINE
  8
0
 10
7.54489
 20
-6.08453
 11
7.40756
 21
-5.86043
  0
LINE
  8
0
 10
7.40756
 20
-5.86043
 11
7.30698
 21
-5.6176
  0
LINE
  8
0
 10
7.30698
 20
-5.6176
 11
7.24562
 21
-5.36201
  0
LINE
  8
0
 10
7.24562
 20
-5.36201
 11
7.22499
 21
-5.09999
  0
LINE
  8
0
 10
7.22499
 20
-5.09999
 11
7.24562
 21
-4.83797
  0
LINE
  8
0
 10
7.24562
 20
-4.83797
 11
7.30698
 21
-4.58238
  0
LINE
  8
0
 10
7.30698
 20
-4.58238
 11
7.40756
 21
-4.33955
  0
LINE
  8
0
 10
7.40756
 20
-4.33955
 11
7.54489
 21
-4.11545
  0
LINE
  8
0
 10
7.54489
 20
-4.11545
 11
7.71559
 21
-3.91559
  0
LINE
  8
0
 10
7.71559
 20
-3.91559
 11
7.91545
 21
-3.74489
  0
LINE
  8
0
 10
7.91545
 20
-3.74489
 11
8.13956
 21
-3.60756
  0
LINE
  8
0
 10
8.13956
 20
-3.60756
 11
8.38239
 21
-3.50697
  0
LINE
  8
0
 10
8.38239
 20
-3.50697
 11
8.63797
 21
-3.44562
  0
LINE
  8
0
 10
8.63797
 20
-3.44562
 11
8.89999
 21
-3.42499
  0
LINE
  8
0
 10
8.89999
 20
-3.42499
 11
9.16202
 21
-3.44562
  0
LINE
  8
0
 10
9.16202
 20
-3.44562
 11
9.4176
 21
-3.50697
  0
LINE
  8
0
 10
9.4176
 20
-3.50697
 11
9.66043
 21
-3.60756
  0
LINE
  8
0
 10
9.66043
 20
-3.60756
 11
9.88454
 21
-3.74489
  0
LINE
  8
0
 10
9.88454
 20
-3.74489
 11
10.0844
 21
-3.91559
  0
LINE
  8
0
 10
10.0844
 20
-3.91559
 11
10.2551
 21
-4.11545
  0
LINE
  8
0
 10
10.2551
 20
-4.11545
 11
10.3924
 21
-4.33955
  0
LINE
  8
0
 10
10.3924
 20
-4.33955
 11
10.493
 21
-4.58238
  0
LINE
  8
0
 10
10.493
 20
-4.58238
 11
10.5544
 21
-4.83797
  0
LINE
  8
0
 10
10.5544
 20
-4.83797
 11
10.575
 21
-5.09999
  0
LINE
  8
0
 10
10.575
 20
-5.09999
 11
10.5544
 21
-5.36201
  0
LINE
  8
0
 10
10.5544
 20
-5.36201
 11
10.493
 21
-5.6176
  0
LINE
  8
0
 10
10.493
 20
-5.6176
 11
10.3924
 21
-5.86043
  0
LINE
  8
0
 10
10.3924
 20
-5.86043
 11
10.2551
 21
-6.08453
  0
LINE
  8
0
 10
10.2551
 20
-6.08453
 11
10.0844
 21
-6.28439
  0
LINE
  8
0
 10
10.0844
 20
-6.28439
 11
9.88454
 21
-6.45509
  0
LINE
  8
0
 10
9.88454
 20
-6.45509
 11
9.66043
 21
-6.59242
  0
LINE
  8
0
 10
9.66043
 20
-6.59242
 11
9.4176
 21
-6.69301
  0
LINE
  8
0
 10
9.4176
 20
-6.69301
 11
9.16202
 21
-6.75436
  0
LINE
  8
0
 10
9.16202
 20
-6.75436
 11
8.89999
 21
-6.77499
  0
LINE
  8
0
 10
8.89999
 20
-6.77499
 11
8.63797
 21
-6.75436
  0
LINE
  8
0
 10
47.7262
 20
-11
 11
47.7262
 21
-7
  0
LINE
  8
0
 10
47.7262
 20
-7
 11
49.7262
 21
-7
  0
LINE
  8
0
 10
49.7262
 20
-7
 11
49.7262
 21
-11
  0
LINE
  8
0
 10
49.7262
 20
-11
 11
47.7262
 21
-11
  0
LINE
  8
0
 10
-40.7262
 20
-11
 11
-40.7262
 21
-7
  0
LINE
  8
0
 10
-40.7262
 20
-7
 11
-38.7262
 21
-7
  0
LINE
  8
0
 10
-38.7262
 20
-7
 11
-38.7262
 21
-11
  0
LINE
  8
0
 10
-38.7262
 20
-11
 11
-40.7262
 21
-11
  0
LINE
  8
0
 10
38.7262
 20
-11
 11
38.7262
 21
-7
  0
LINE
  8
0
 10
38.7262
 20
-7
 11
40.7262
 21
-7
  0
LINE
  8
0
 10
40.7262
 20
-7
 11
40.7262
 21
-11
  0
LINE
  8
0
 10
40.7262
 20
-11
 11
38.7262
 21
-11
  0
LINE
  8
0
 10
-57.7262
 20
-11
 11
-57.7262
 21
-7
  0
LINE
  8
0
 10
-57.7262
 20
-7
 11
-55.7262
 21
-7
  0
LINE
  8
0
 10
-55.7262
 20
-7
 11
-55.7262
 21
-11
  0
LINE
  8
0
 10
-55.7262
 20
-11
 11
-57.7262
 21
-11
  0
LINE
  8
0
 10
55.7262
 20
-11
 11
55.7262
 21
-7
  0
LINE
  8
0
 10
55.7262
 20
-7
 11
57.7262
 21
-7
  0
LINE
  8
0
 10
57.7262
 20
-7
 11
57.7262
 21
-11
  0
LINE
  8
0
 10
57.7262
 20
-11
 11
55.7262
 21
-11
  0
LINE
  8
0
 10
-49.7262
 20
-11
 11
-49.7262
 21
-7
  0
LINE
  8
0
 10
-49.7262
 20
-7
 11
-47.7262
 21
-7
  0
LINE
  8
0
 10
-47.7262
 20
-7
 11
-47.7262
 21
-11
  0
LINE
  8
0
 10
-47.7262
 20
-11
 11
-49.7262
 21
-11
  0
LINE
  8
0
 10
-58.6762
 20
-73.45
 11
-58.6762
 21
-44.55
  0
LINE
  8
0
 10
-58.6762
 20
-44.55
 11
-47.7762
 21
-44.55
  0
LINE
  8
0
 10
-47.7762
 20
-44.55
 11
-47.7762
 21
-73.45
  0
LINE
  8
0
 10
-47.7762
 20
-73.45
 11
-58.6762
 21
-73.45
  0
LINE
  8
0
 10
47.7762
 20
-73.45
 11
47.7762
 21
-44.55
  0
LINE
  8
0
 10
47.7762
 20
-44.55
 11
58.6762
 21
-44.55
  0
LINE
  8
0
 10
58.6762
 20
-44.55
 11
58.6762
 21
-73.45
  0
LINE
  8
0
 10
58.6762
 20
-73.45
 11
47.7762
 21
-73.45
  0
LINE
  8
0
 10
-39.7346
 20
-81.7963
 11
-39.9635
 21
-81.7413
  0
LINE
  8
0
 10
-39.9635
 20
-81.7413
 11
-40.181
 21
-81.6512
  0
LINE
  8
0
 10
-40.181
 20
-81.6512
 11
-40.3817
 21
-81.5283
  0
LINE
  8
0
 10
-40.3817
 20
-81.5283
 11
-40.5607
 21
-81.3754
  0
LINE
  8
0
 10
-40.5607
 20
-81.3754
 11
-40.7135
 21
-81.1964
  0
LINE
  8
0
 10
-40.7135
 20
-81.1964
 11
-40.8365
 21
-80.9957
  0
LINE
  8
0
 10
-40.8365
 20
-80.9957
 11
-40.9266
 21
-80.7783
  0
LINE
  8
0
 10
-40.9266
 20
-80.7783
 11
-40.9815
 21
-80.5494
  0
LINE
  8
0
 10
-40.9815
 20
-80.5494
 11
-41
 21
-80.3147
  0
LINE
  8
0
 10
-41
 20
-80.3147
 11
-40.9815
 21
-80.0801
  0
LINE
  8
0
 10
-40.9815
 20
-80.0801
 11
-40.9266
 21
-79.8512
  0
LINE
  8
0
 10
-40.9266
 20
-79.8512
 11
-40.8365
 21
-79.6338
  0
LINE
  8
0
 10
-40.8365
 20
-79.6338
 11
-40.7135
 21
-79.4331
  0
LINE
  8
0
 10
-40.7135
 20
-79.4331
 11
-40.5607
 21
-79.2541
  0
LINE
  8
0
 10
-40.5607
 20
-79.2541
 11
-40.3817
 21
-79.1012
  0
LINE
  8
0
 10
-40.3817
 20
-79.1012
 11
-40.181
 21
-78.9782
  0
LINE
  8
0
 10
-40.181
 20
-78.9782
 11
-39.9635
 21
-78.8882
  0
LINE
  8
0
 10
-39.9635
 20
-78.8882
 11
-39.7346
 21
-78.8332
  0
LINE
  8
0
 10
-39.7346
 20
-78.8332
 11
-39.5
 21
-78.8147
  0
LINE
  8
0
 10
-39.5
 20
-78.8147
 11
-39.2653
 21
-78.8332
  0
LINE
  8
0
 10
-39.2653
 20
-78.8332
 11
-39.0365
 21
-78.8882
  0
LINE
  8
0
 10
-39.0365
 20
-78.8882
 11
-38.819
 21
-78.9782
  0
LINE
  8
0
 10
-38.819
 20
-78.9782
 11
-38.6183
 21
-79.1012
  0
LINE
  8
0
 10
-38.6183
 20
-79.1012
 11
-38.4393
 21
-79.2541
  0
LINE
  8
0
 10
-38.4393
 20
-79.2541
 11
-38.2865
 21
-79.4331
  0
LINE
  8
0
 10
-38.2865
 20
-79.4331
 11
-38.1635
 21
-79.6338
  0
LINE
  8
0
 10
-38.1635
 20
-79.6338
 11
-38.0734
 21
-79.8512
  0
LINE
  8
0
 10
-38.0734
 20
-79.8512
 11
-38.0185
 21
-80.0801
  0
LINE
  8
0
 10
-38.0185
 20
-80.0801
 11
-38
 21
-80.3147
  0
LINE
  8
0
 10
-38
 20
-80.3147
 11
-38.0185
 21
-80.5494
  0
LINE
  8
0
 10
-38.0185
 20
-80.5494
 11
-38.0734
 21
-80.7783
  0
LINE
  8
0
 10
-38.0734
 20
-80.7783
 11
-38.1635
 21
-80.9957
  0
LINE
  8
0
 10
-38.1635
 20
-80.9957
 11
-38.2865
 21
-81.1964
  0
LINE
  8
0
 10
-38.2865
 20
-81.1964
 11
-38.4393
 21
-81.3754
  0
LINE
  8
0
 10
-38.4393
 20
-81.3754
 11
-38.6183
 21
-81.5283
  0
LINE
  8
0
 10
-38.6183
 20
-81.5283
 11
-38.819
 21
-81.6512
  0
LINE
  8
0
 10
-38.819
 20
-81.6512
 11
-39.0365
 21
-81.7413
  0
LINE
  8
0
 10
-39.0365
 20
-81.7413
 11
-39.2653
 21
-81.7963
  0
LINE
  8
0
 10
-39.2653
 20
-81.7963
 11
-39.5
 21
-81.8147
  0
LINE
  8
0
 10
-39.5
 20
-81.8147
 11
-39.7346
 21
-81.7963
  0
LINE
  8
0
 10
39.2653
 20
-81.7963
 11
39.0365
 21
-81.7413
  0
LINE
  8
0
 10
39.0365
 20
-81.7413
 11
38.819
 21
-81.6512
  0
LINE
  8
0
 10
38.819
 20
-81.6512
 11
38.6183
 21
-81.5283
  0
LINE
  8
0
 10
38.6183
 20
-81.5283
 11
38.4393
 21
-81.3754
  0
LINE
  8
0
 10
38.4393
 20
-81.3754
 11
38.2865
 21
-81.1964
  0
LINE
  8
0
 10
38.2865
 20
-81.1964
 11
38.1635
 21
-80.9957
  0
LINE
  8
0
 10
38.1635
 20
-80.9957
 11
38.0734
 21
-80.7783
  0
LINE
  8
0
 10
38.0734
 20
-80.7783
 11
38.0185
 21
-80.5494
  0
LINE
  8
0
 10
38.0185
 20
-80.5494
 11
38
 21
-80.3147
  0
LINE
  8
0
 10
38
 20
-80.3147
 11
38.0185
 21
-80.0801
  0
LINE
  8
0
 10
38.0185
 20
-80.0801
 11
38.0734
 21
-79.8512
  0
LINE
  8
0
 10
38.0734
 20
-79.8512
 11
38.1635
 21
-79.6338
  0
LINE
  8
0
 10
38.1635
 20
-79.6338
 11
38.2865
 21
-79.4331
  0
LINE
  8
0
 10
38.2865
 20
-79.4331
 11
38.4393
 21
-79.2541
  0
LINE
  8
0
 10
38.4393
 20
-79.2541
 11
38.6183
 21
-79.1012
  0
LINE
  8
0
 10
38.6183
 20
-79.1012
 11
38.819
 21
-78.9782
  0
LINE
  8
0
 10
38.819
 20
-78.9782
 11
39.0365
 21
-78.8882
  0
LINE
  8
0
 10
39.0365
 20
-78.8882
 11
39.2653
 21
-78.8332
  0
LINE
  8
0
 10
39.2653
 20
-78.8332
 11
39.5
 21
-78.8147
  0
LINE
  8
0
 10
39.5
 20
-78.8147
 11
39.7346
 21
-78.8332
  0
LINE
  8
0
 10
39.7346
 20
-78.8332
 11
39.9635
 21
-78.8882
  0
LINE
  8
0
 10
39.9635
 20
-78.8882
 11
40.181
 21
-78.9782
  0
LINE
  8
0
 10
40.181
 20
-78.9782
 11
40.3817
 21
-79.1012
  0
LINE
  8
0
 10
40.3817
 20
-79.1012
 11
40.5607
 21
-79.2541
  0
LINE
  8
0
 10
40.5607
 20
-79.2541
 11
40.7135
 21
-79.4331
  0
LINE
  8
0
 10
40.7135
 20
-79.4331
 11
40.8365
 21
-79.6338
  0
LINE
  8
0
 10
40.8365
 20
-79.6338
 11
40.9266
 21
-79.8512
  0
LINE
  8
0
 10
40.9266
 20
-79.8512
 11
40.9815
 21
-80.0801
  0
LINE
  8
0
 10
40.9815
 20
-80.0801
 11
41
 21
-80.3147
  0
LINE
  8
0
 10
41
 20
-80.3147
 11
40.9815
 21
-80.5494
  0
LINE
  8
0
 10
40.9815
 20
-80.5494
 11
40.9266
 21
-80.7783
  0
LINE
  8
0
 10
40.9266
 20
-80.7783
 11
40.8365
 21
-80.9957
  0
LINE
  8
0
 10
40.8365
 20
-80.9957
 11
40.7135
 21
-81.1964
  0
LINE
  8
0
 10
40.7135
 20
-81.1964
 11
40.5607
 21
-81.3754
  0
LINE
  8
0
 10
40.5607
 20
-81.3754
 11
40.3817
 21
-81.5283
  0
LINE
  8
0
 10
40.3817
 20
-81.5283
 11
40.181
 21
-81.6512
  0
LINE
  8
0
 10
40.181
 20
-81.6512
 11
39.9635
 21
-81.7413
  0
LINE
  8
0
 10
39.9635
 20
-81.7413
 11
39.7346
 21
-81.7963
  0
LINE
  8
0
 10
39.7346
 20
-81.7963
 11
39.5
 21
-81.8147
  0
LINE
  8
0
 10
39.5
 20
-81.8147
 11
39.2653
 21
-81.7963
  0
ENDSEC
  0
SECTION
  2
OBJECTS
  0
DICTIONARY
  0
ENDSEC
  0
EOF
