<?xml version="1.0" encoding="UTF-8" standalone="no"?>
<svg
   xmlns:dc="http://purl.org/dc/elements/1.1/"
   xmlns:cc="http://creativecommons.org/ns#"
   xmlns:rdf="http://www.w3.org/1999/02/22-rdf-syntax-ns#"
   xmlns:svg="http://www.w3.org/2000/svg"
   xmlns="http://www.w3.org/2000/svg"
   xmlns:sodipodi="http://sodipodi.sourceforge.net/DTD/sodipodi-0.dtd"
   xmlns:inkscape="http://www.inkscape.org/namespaces/inkscape"
   width="744.094488189"
   height="1052.36220472"
   id="svg4136"
   version="1.1"
   inkscape:version="0.91 r13725"
   sodipodi:docname="top.svg">
  <metadata
     id="metadata5260">
    <rdf:RDF>
      <cc:Work
         rdf:about="">
        <dc:format>image/svg+xml</dc:format>
        <dc:type
           rdf:resource="http://purl.org/dc/dcmitype/StillImage" />
        <dc:title />
      </cc:Work>
    </rdf:RDF>
  </metadata>
  <sodipodi:namedview
     pagecolor="#ffffff"
     bordercolor="#666666"
     borderopacity="1"
     objecttolerance="10"
     gridtolerance="10"
     guidetolerance="10"
     inkscape:pageopacity="0"
     inkscape:pageshadow="2"
     inkscape:window-width="3734"
     inkscape:window-height="2121"
     id="namedview5258"
     showgrid="false"
     inkscape:zoom="0.7071068"
     inkscape:cx="-346.93823"
     inkscape:cy="308.39334"
     inkscape:window-x="106"
     inkscape:window-y="39"
     inkscape:window-maximized="1"
     inkscape:current-layer="g4152" />
  <desc
     id="desc4138">C:\Share\Robotics\Whr_bot\Parts\61r\top.dxf - scale = 1.000000, origin = (0.000000, 0.000000), auto = False</desc>
  <defs
     id="defs4140">
    <marker
       refY="0.0"
       refX="0.0"
       style="overflow:visible"
       id="DistanceX"
       orient="auto">
      <path
         style="stroke:#000000; stroke-width:0.5"
         d="M 3,-3 L -3,3 M 0,-5 L  0,5"
         id="path4143" />
    </marker>
    <pattern
       height="8"
       width="8"
       patternUnits="userSpaceOnUse"
       y="0"
       x="0"
       id="Hatch">
      <path
         linecap="square"
         stroke="#000000"
         stroke-width="0.25"
         d="M8 4 l-4,4"
         id="path4146" />
      <path
         linecap="square"
         stroke="#000000"
         stroke-width="0.25"
         d="M6 2 l-4,4"
         id="path4148" />
      <path
         linecap="square"
         stroke="#000000"
         stroke-width="0.25"
         d="M4 0 l-4,4"
         id="path4150" />
    </pattern>
    <marker
       style="overflow:visible"
       refY="0.0"
       refX="0.0"
       orient="auto"
       id="DistanceX-2">
      <path
         id="path15549"
         style="stroke:#000000; stroke-width:0.5"
         d="M 3,-3 L -3,3 M 0,-5 L  0,5" />
    </marker>
    <pattern
       y="0"
       x="0"
       width="8"
       patternUnits="userSpaceOnUse"
       id="Hatch-9"
       height="8">
      <path
         id="path15552"
         stroke-width="0.25"
         stroke="#000000"
         linecap="square"
         d="M8 4 l-4,4" />
      <path
         id="path15554"
         stroke-width="0.25"
         stroke="#000000"
         linecap="square"
         d="M6 2 l-4,4" />
      <path
         id="path15556"
         stroke-width="0.25"
         stroke="#000000"
         linecap="square"
         d="M4 0 l-4,4" />
    </pattern>
    <marker
       style="overflow:visible"
       refY="0.0"
       refX="0.0"
       orient="auto"
       id="DistanceX-7">
      <path
         id="path17650"
         style="stroke:#000000; stroke-width:0.5"
         d="M 3,-3 L -3,3 M 0,-5 L  0,5" />
    </marker>
    <pattern
       y="0"
       x="0"
       width="8"
       patternUnits="userSpaceOnUse"
       id="Hatch-0"
       height="8">
      <path
         id="path17653"
         stroke-width="0.25"
         stroke="#000000"
         linecap="square"
         d="M8 4 l-4,4" />
      <path
         id="path17655"
         stroke-width="0.25"
         stroke="#000000"
         linecap="square"
         d="M6 2 l-4,4" />
      <path
         id="path17657"
         stroke-width="0.25"
         stroke="#000000"
         linecap="square"
         d="M4 0 l-4,4" />
    </pattern>
  </defs>
  <g
     inkscape:label="0"
     inkscape:groupmode="layer"
     id="g4152">
    <path
       inkscape:connector-curvature="0"
       d="m 237.14777,282.3247 0.54354,0.11551 0.5074,0.22606 0.44965,0.32634 0.37169,0.41315 0.2778,0.48118 0.17149,0.52831 0.0581,0.5524 -0.0581,0.5524 -0.17149,0.52831 -0.2778,0.48118 -0.37169,0.41315 -0.44965,0.32634 -0.5074,0.22606 -0.54354,0.11551 -0.2778,0 0,5.15233 -0.20905,1.98921 -0.61795,1.90205 -0.99993,1.73196 -1.3383,1.48642 -1.61823,1.17567 -1.82693,0.81319 -1.95661,0.41598 -1.99985,0 -1.95626,-0.41598 -1.82728,-0.81319 -1.61787,-1.17567 -1.33831,-1.48642 -1.00028,-1.73196 -0.61795,-1.90205 -0.20905,-1.98921 0,-5.15233 -0.2778,0 -0.54319,-0.11551 -0.50776,-0.22606 -0.44929,-0.32634 -0.37169,-0.41315 -0.27779,-0.48118 -0.17186,-0.52831 -0.0581,-0.5524 0.0581,-0.5524 0.17187,-0.52866 0.27779,-0.48083 0.37169,-0.41315 0.44929,-0.32634 0.50776,-0.22606 0.54319,-0.11551 0.2778,0 0,-0.0145 4.34055,-2e-5 0,-9.92126 -30.60744,0 0,9.92126 -19.10623,0 3.6e-4,80.90539 -12.62587,7.1e-4 0,49.01474 12.62551,0 0,80.9063 -12.78354,0 0,211.8525 32.39823,23.5389 38.99339,21.4367 41.37236,16.3804 43.09937,11.0661 44.14627,5.5771 44.49714,0 44.14627,-5.5771 43.09937,-11.0661 41.37236,-16.3804 38.99339,-21.4367 32.39823,-23.5389 0,-211.8525 -12.78354,0 -3.6e-4,-80.9059 12.62587,-4e-4 0,-49.01474 -12.62551,0 -3.6e-4,-80.9061 -19.10587,0 0,-9.92126 -30.60744,0 0,9.92126 4.34055,0 0,0.0145 0.2778,1e-5 0.54354,0.11551 0.50741,0.22606 0.44929,0.32634 0.37204,0.41315 0.27744,0.48118 0.17186,0.52831 0.0581,0.5524 -0.0581,0.5524 -0.17187,0.52831 -0.27744,0.48118 -0.37204,0.41315 -0.44929,0.32634 -0.50741,0.22606 -0.54354,0.11551 -0.2778,0 0,5.15233 -0.20905,1.98921 -0.61795,1.90205 -1.00028,1.73196 -1.33831,1.48642 -1.61787,1.17567 -1.82728,0.81319 -1.95626,0.41598 -1.99985,0 -1.95626,-0.41598 -1.82728,-0.81319 -1.61787,-1.17567 -1.33831,-1.48642 -1.00028,-1.73196 -0.61795,-1.90205 -0.20905,-1.98921 0,-5.15233 -0.2778,0 -0.54354,-0.11551 -0.5074,-0.22606 -0.44929,-0.32634 -0.37205,-0.41315 -0.27744,-0.48118 -0.17185,-0.52831 -0.0581,-0.5524 0.0581,-0.5524 0.17186,-0.52866 0.27744,-0.48083 0.37205,-0.41315 0.44929,-0.32634 0.5074,-0.22606 0.54354,-0.11551 0.2778,0 0,-0.0145 4.34055,-2e-5 0,-9.92126 -30.60744,0 0,9.92126 -82.86697,0 0,-9.92126 -71.66764,0 0,9.92126 -82.86697,0 0,-9.92126 -30.60744,0 0,9.92126 4.34055,0 0,0.0145 z"
       style="fill:none;stroke:#0000ff;stroke-opacity:1"
       id="path17811"
       sodipodi:nodetypes="ccccccccccccccccccccccccccccccccccccccccccccccccccccccccccccccccccccccccccccccccccccccccccccccccccccccccccccccccccccccccccccccccccccccccccccccccccccccc" />
    <path
       inkscape:connector-curvature="0"
       d="m 177.296,321.28655 0,-14.17323 7.08661,0 0,14.17323 z"
       style="fill:none;stroke:#ff0000;stroke-opacity:1"
       id="path17967"
       sodipodi:nodetypes="ccccc" />
    <path
       inkscape:connector-curvature="0"
       d="m 586.3793,307.11332 0,14.17323 -7.08661,0 0,-14.17323 z"
       style="fill:none;stroke:#ff0000;stroke-opacity:1"
       id="path17971"
       sodipodi:nodetypes="ccccc" />
    <path
       inkscape:connector-curvature="0"
       d="m 234.48568,363.21627 -13.28846,0 -3.6e-4,-45.47303 13.28882,-3.5e-4 z"
       style="fill:none;stroke:#ff0000;stroke-opacity:1"
       id="path17981"
       sodipodi:nodetypes="ccccc" />
    <path
       inkscape:connector-curvature="0"
       d="m 529.18926,317.74324 13.28882,-3.5e-4 0,45.47338 -13.28846,0 z"
       style="fill:none;stroke:#ff0000;stroke-opacity:1"
       id="path17985"
       sodipodi:nodetypes="ccccc" />
    <path
       inkscape:connector-curvature="0"
       d="m 265.12678,410.16041 -0.21826,-2.7715 0,-70.86614 0.21826,-2.77158 0.64878,-2.70319 1.06406,-2.56818 1.4524,-2.37048 1.80567,-2.11393 2.11394,-1.80567 2.37047,-1.4524 2.56819,-1.06406 2.70319,-0.64878 2.77157,-0.21827 2.77158,0.21827 2.70318,0.64878 2.56855,1.06406 2.37012,1.4524 2.11393,1.80567 1.80567,2.11393 1.4524,2.37048 1.06406,2.56818 0.64878,2.70319 0.21827,2.77158 0,70.86614 -0.21827,2.7715 -0.64878,2.7032 -1.06406,2.5685 -1.4524,2.3704 -1.80567,2.1139 -2.11393,1.8055 -2.37012,1.4526 -2.56855,1.0638 -2.70318,0.649 -2.77158,0.2181 -2.77157,-0.2181 -2.70319,-0.649 -2.56819,-1.0638 -2.37047,-1.4526 -2.11394,-1.8055 -1.80567,-2.1139 -1.4524,-2.3704 -1.06406,-2.5685 z"
       style="fill:none;stroke:#ff0000;stroke-opacity:1"
       id="path18007"
       sodipodi:nodetypes="ccccccccccccccccccccccccccccccccccccccccccc" />
    <path
       inkscape:connector-curvature="0"
       d="m 475.57549,319.67328 2.70318,-0.64878 2.77158,-0.21827 2.77157,0.21827 2.70319,0.64878 2.56819,1.06406 2.37047,1.4524 2.11394,1.80567 1.80567,2.11393 1.4524,2.37048 1.06406,2.56818 0.64878,2.70319 0.21826,2.77158 0,70.86614 -0.21826,2.7715 -0.64878,2.7032 -1.06406,2.5685 -1.4524,2.3704 -1.80567,2.1139 -2.11394,1.8055 -2.37047,1.4526 -2.56819,1.0638 -2.70319,0.649 -2.77157,0.2181 -2.77158,-0.2181 -2.70318,-0.649 -2.56855,-1.0638 -2.37012,-1.4526 -2.11393,-1.8055 -1.80567,-2.1139 -1.45241,-2.3704 -1.06405,-2.5685 -0.64878,-2.7032 -0.21827,-2.7715 0,-70.86614 0.21827,-2.77158 0.64878,-2.70319 1.06405,-2.56818 1.45241,-2.37048 1.80567,-2.11393 2.11393,-1.80567 2.37012,-1.4524 z"
       style="fill:none;stroke:#ff0000;stroke-opacity:1"
       id="path18111"
       sodipodi:nodetypes="ccccccccccccccccccccccccccccccccccccccccccc" />
    <path
       inkscape:connector-curvature="0"
       d="m 314.64415,412.44371 -0.77067,-0.3191 -0.71115,-0.4358 -0.63425,-0.5416 -0.54141,-0.6342 -0.43583,-0.7111 -0.31925,-0.7706 -0.19453,-0.811 -0.0655,-0.8314 -3e-5,-70.86614 0.0655,-0.83126 0.19456,-0.81106 0.31925,-0.77067 0.43583,-0.71115 0.54141,-0.63425 0.63425,-0.54141 0.71115,-0.43583 0.77067,-0.31925 0.81106,-0.19453 0.83126,-0.0656 0.83161,0.0656 0.81071,0.19451 0.77067,0.31925 0.71114,0.43583 0.63425,0.54141 0.54142,0.63425 0.43583,0.71115 0.31925,0.77067 0.19453,0.81106 0.0655,0.83126 3e-5,70.86614 -0.0655,0.8314 -0.19456,0.811 -0.31925,0.7706 -0.43583,0.7111 -0.54142,0.6342 -0.63425,0.5416 -0.71114,0.4358 -0.77067,0.3191 -0.81071,0.1948 -0.83161,0.0652 -0.83126,-0.065 z"
       style="fill:none;stroke:#ff0000;stroke-opacity:1"
       id="path18161"
       sodipodi:nodetypes="ccccccccccccccccccccccccccccccccccccccccccc" />
    <path
       inkscape:connector-curvature="0"
       d="m 445.74651,412.44371 -0.77067,-0.3191 -0.71114,-0.4358 -0.63426,-0.5416 -0.54141,-0.6342 -0.43583,-0.7111 -0.31925,-0.7706 -0.19453,-0.811 -0.0655,-0.8314 -2e-5,-70.86614 0.0655,-0.83126 0.19456,-0.81106 0.31925,-0.77067 0.43583,-0.71115 0.54141,-0.63425 0.63426,-0.54141 0.71114,-0.43583 0.77067,-0.31925 0.81071,-0.19453 0.83161,-0.0656 0.83126,0.0656 0.81106,0.19451 0.77067,0.31925 0.71114,0.43583 0.63426,0.54141 0.54141,0.63425 0.43583,0.71115 0.31925,0.77067 0.19453,0.81106 0.0656,0.83126 -3e-5,70.86614 -0.0656,0.8314 -0.1945,0.811 -0.31925,0.7706 -0.43583,0.7111 -0.54141,0.6342 -0.63426,0.5416 -0.71114,0.4358 -0.77067,0.3191 -0.81106,0.1948 -0.83126,0.0652 -0.83161,-0.065 z"
       style="fill:none;stroke:#ff0000;stroke-opacity:1"
       id="path18245"
       sodipodi:nodetypes="ccccccccccccccccccccccccccccccccccccccccccc" />
    <path
       inkscape:connector-curvature="0"
       d="m 237.53222,331.91647 7.08661,0 0,14.17323 -7.08661,0 z"
       style="fill:none;stroke:#ff0000;stroke-opacity:1"
       id="path18329"
       sodipodi:nodetypes="ccccc" />
    <path
       inkscape:connector-curvature="0"
       d="m 519.05647,331.91647 7.08661,0 0,14.17323 -7.08661,0 z"
       style="fill:none;stroke:#ff0000;stroke-opacity:1"
       id="path18337"
       sodipodi:nodetypes="ccccc" />
    <path
       inkscape:connector-curvature="0"
       d="m 205.64245,346.0897 0,-14.17323 7.08662,0 0,14.17323 z"
       style="fill:none;stroke:#ff0000;stroke-opacity:1"
       id="path18351"
       sodipodi:nodetypes="ccccc" />
    <path
       inkscape:connector-curvature="0"
       d="m 558.03285,346.0897 -7.08662,0 0,-14.17323 7.08662,0 z"
       style="fill:none;stroke:#ff0000;stroke-opacity:1"
       id="path18357"
       sodipodi:nodetypes="ccccc" />
    <path
       inkscape:connector-curvature="0"
       d="m 408.57151,407.79801 2.96752,-2.156 3.66807,0 2.96752,2.156 1.1335,3.4886 -1.1335,3.4885 -2.96752,2.156 -3.66807,0 -2.96752,-2.156 -1.1335,-3.4885 z"
       style="fill:none;stroke:#ff0000;stroke-opacity:1"
       id="path18365"
       sodipodi:nodetypes="ccccccccccc" />
    <path
       inkscape:connector-curvature="0"
       d="m 348.4682,405.64201 3.66807,0 2.96752,2.156 1.1335,3.4886 -1.1335,3.4885 -2.96752,2.156 -3.66807,0 -2.96752,-2.156 -1.1335,-3.4885 1.1335,-3.4886 z"
       style="fill:none;stroke:#ff0000;stroke-opacity:1"
       id="path18387"
       sodipodi:nodetypes="ccccccccccc" />
    <path
       inkscape:connector-curvature="0"
       d="m 542.47808,493.13731 -13.28846,0 -3.6e-4,-80.9059 13.28882,-4e-4 z"
       style="fill:none;stroke:#ff0000;stroke-opacity:1"
       id="path18405"
       sodipodi:nodetypes="ccccc" />
    <path
       inkscape:connector-curvature="0"
       d="m 221.19686,412.23141 13.28882,-4e-4 0,80.9063 -13.28846,0 z"
       style="fill:none;stroke:#ff0000;stroke-opacity:1"
       id="path18409"
       sodipodi:nodetypes="ccccc" />
    <path
       inkscape:connector-curvature="0"
       d="m 348.4682,441.78371 3.66807,0 2.96752,2.156 1.1335,3.4885 -1.1335,3.4886 -2.96752,2.156 -3.66807,0 -2.96752,-2.156 -1.1335,-3.4886 1.1335,-3.4885 z"
       style="fill:none;stroke:#ff0000;stroke-opacity:1"
       id="path18423"
       sodipodi:nodetypes="ccccccccccc" />
    <path
       inkscape:connector-curvature="0"
       d="m 415.2071,441.78371 2.96752,2.156 1.1335,3.4885 -1.1335,3.4886 -2.96752,2.156 -3.66807,0 -2.96752,-2.156 -1.1335,-3.4886 1.1335,-3.4885 2.96752,-2.156 z"
       style="fill:none;stroke:#ff0000;stroke-opacity:1"
       id="path18445"
       sodipodi:nodetypes="ccccccccccc" />
    <path
       inkscape:connector-curvature="0"
       d="m 558.03285,468.33381 -7.08662,0 0,-14.1732 7.08662,0 z"
       style="fill:none;stroke:#ff0000;stroke-opacity:1"
       id="path18461"
       sodipodi:nodetypes="ccccc" />
    <path
       inkscape:connector-curvature="0"
       d="m 244.61883,468.33381 -7.08661,0 0,-14.1732 7.08661,0 z"
       style="fill:none;stroke:#ff0000;stroke-opacity:1"
       id="path18469"
       sodipodi:nodetypes="ccccc" />
    <path
       inkscape:connector-curvature="0"
       d="m 519.05647,454.16061 7.08661,0 0,14.1732 -7.08661,0 z"
       style="fill:none;stroke:#ff0000;stroke-opacity:1"
       id="path18473"
       sodipodi:nodetypes="ccccc" />
    <path
       inkscape:connector-curvature="0"
       d="m 184.38261,454.16061 0,14.1732 -7.08661,0 0,-14.1732 z"
       style="fill:none;stroke:#ff0000;stroke-opacity:1"
       id="path18483"
       sodipodi:nodetypes="ccccc" />
    <path
       inkscape:connector-curvature="0"
       d="m 579.29269,468.33381 0,-14.1732 7.08661,0 0,14.1732 z"
       style="fill:none;stroke:#ff0000;stroke-opacity:1"
       id="path18495"
       sodipodi:nodetypes="ccccc" />
    <path
       inkscape:connector-curvature="0"
       d="m 212.72907,468.33381 -7.08662,0 0,-14.1732 7.08662,0 z"
       style="fill:none;stroke:#ff0000;stroke-opacity:1"
       id="path18501"
       sodipodi:nodetypes="ccccc" />
    <path
       inkscape:connector-curvature="0"
       d="m 173.92986,689.61331 0,-102.4016 38.62204,0 0,102.4016 z"
       style="fill:none;stroke:#ff0000;stroke-opacity:1"
       id="path18511"
       sodipodi:nodetypes="ccccc" />
    <path
       inkscape:connector-curvature="0"
       d="m 589.74544,689.61331 -38.62204,0 0,-102.4016 38.62204,0 z"
       style="fill:none;stroke:#ff0000;stroke-opacity:1"
       id="path18517"
       sodipodi:nodetypes="ccccc" />
    <path
       inkscape:connector-curvature="0"
       d="m 246.17682,717.06121 -2.65748,1.9307 -3.28464,0 -2.65748,-1.9307 -1.01516,-3.1241 1.01516,-3.1238 2.65748,-1.9308 3.28464,0 2.65748,1.9308 1.01516,3.1238 z"
       style="fill:none;stroke:#ff0000;stroke-opacity:1"
       id="path18535"
       sodipodi:nodetypes="ccccccccccc" />
    <path
       inkscape:connector-curvature="0"
       d="m 520.15596,708.88251 3.28464,0 2.65748,1.9308 1.01516,3.1238 -1.01516,3.1241 -2.65748,1.9307 -3.28464,0 -2.65748,-1.9307 -1.01516,-3.1241 1.01516,-3.1238 z"
       style="fill:none;stroke:#ff0000;stroke-opacity:1"
       id="path18547"
       sodipodi:nodetypes="ccccccccccc" />
  </g>
</svg>
