<?xml version="1.0" encoding="UTF-8" standalone="no"?>
<svg
   xmlns:dc="http://purl.org/dc/elements/1.1/"
   xmlns:cc="http://creativecommons.org/ns#"
   xmlns:rdf="http://www.w3.org/1999/02/22-rdf-syntax-ns#"
   xmlns:svg="http://www.w3.org/2000/svg"
   xmlns="http://www.w3.org/2000/svg"
   xmlns:sodipodi="http://sodipodi.sourceforge.net/DTD/sodipodi-0.dtd"
   xmlns:inkscape="http://www.inkscape.org/namespaces/inkscape"
   width="125.73461mm"
   height="144.58224mm"
   id="svg4136"
   version="1.1"
   inkscape:version="0.91 r13725"
   sodipodi:docname="top.svg">
  <metadata
     id="metadata5260">
    <rdf:RDF>
      <cc:Work
         rdf:about="">
        <dc:format>image/svg+xml</dc:format>
        <dc:type
           rdf:resource="http://purl.org/dc/dcmitype/StillImage" />
        <dc:title></dc:title>
      </cc:Work>
    </rdf:RDF>
  </metadata>
  <sodipodi:namedview
     pagecolor="#ffffff"
     bordercolor="#666666"
     borderopacity="1"
     objecttolerance="10"
     gridtolerance="10"
     guidetolerance="10"
     inkscape:pageopacity="0"
     inkscape:pageshadow="2"
     inkscape:window-width="3734"
     inkscape:window-height="2121"
     id="namedview5258"
     showgrid="false"
     inkscape:zoom="1"
     inkscape:cx="192.71861"
     inkscape:cy="410.7213"
     inkscape:window-x="106"
     inkscape:window-y="39"
     inkscape:window-maximized="1"
     inkscape:current-layer="g4152"
     inkscape:document-units="mm"
     units="mm"
     fit-margin-top="0"
     fit-margin-left="0"
     fit-margin-right="0"
     fit-margin-bottom="0" />
  <desc
     id="desc4138">C:\Share\Robotics\Whr_bot\Parts\61r\top.dxf - scale = 1.000000, origin = (0.000000, 0.000000), auto = False</desc>
  <defs
     id="defs4140">
    <marker
       refY="0"
       refX="0"
       style="overflow:visible"
       id="DistanceX"
       orient="auto">
      <path
         style="stroke:#000000;stroke-width:0.5"
         d="M 3,-3 -3,3 M 0,-5 0,5"
         id="path4143"
         inkscape:connector-curvature="0" />
    </marker>
    <pattern
       height="8"
       width="8"
       patternUnits="userSpaceOnUse"
       y="0"
       x="0"
       id="Hatch">
      <path
         linecap="square"
         stroke="#000000"
         stroke-width="0.25"
         d="M8 4 l-4,4"
         id="path4146" />
      <path
         linecap="square"
         stroke="#000000"
         stroke-width="0.25"
         d="M6 2 l-4,4"
         id="path4148" />
      <path
         linecap="square"
         stroke="#000000"
         stroke-width="0.25"
         d="M4 0 l-4,4"
         id="path4150" />
    </pattern>
    <marker
       style="overflow:visible"
       refY="0"
       refX="0"
       orient="auto"
       id="DistanceX-2">
      <path
         id="path15549"
         style="stroke:#000000;stroke-width:0.5"
         d="M 3,-3 -3,3 M 0,-5 0,5"
         inkscape:connector-curvature="0" />
    </marker>
    <pattern
       y="0"
       x="0"
       width="8"
       patternUnits="userSpaceOnUse"
       id="Hatch-9"
       height="8">
      <path
         id="path15552"
         stroke-width="0.25"
         stroke="#000000"
         linecap="square"
         d="M8 4 l-4,4" />
      <path
         id="path15554"
         stroke-width="0.25"
         stroke="#000000"
         linecap="square"
         d="M6 2 l-4,4" />
      <path
         id="path15556"
         stroke-width="0.25"
         stroke="#000000"
         linecap="square"
         d="M4 0 l-4,4" />
    </pattern>
    <marker
       style="overflow:visible"
       refY="0"
       refX="0"
       orient="auto"
       id="DistanceX-7">
      <path
         id="path17650"
         style="stroke:#000000;stroke-width:0.5"
         d="M 3,-3 -3,3 M 0,-5 0,5"
         inkscape:connector-curvature="0" />
    </marker>
    <pattern
       y="0"
       x="0"
       width="8"
       patternUnits="userSpaceOnUse"
       id="Hatch-0"
       height="8">
      <path
         id="path17653"
         stroke-width="0.25"
         stroke="#000000"
         linecap="square"
         d="M8 4 l-4,4" />
      <path
         id="path17655"
         stroke-width="0.25"
         stroke="#000000"
         linecap="square"
         d="M6 2 l-4,4" />
      <path
         id="path17657"
         stroke-width="0.25"
         stroke="#000000"
         linecap="square"
         d="M4 0 l-4,4" />
    </pattern>
    <marker
       style="overflow:visible"
       refY="0"
       refX="0"
       orient="auto"
       id="DistanceX-78">
      <path
         id="path6626"
         style="stroke:#000000;stroke-width:0.5"
         d="M 3,-3 -3,3 M 0,-5 0,5"
         inkscape:connector-curvature="0" />
    </marker>
    <pattern
       y="0"
       x="0"
       width="8"
       patternUnits="userSpaceOnUse"
       id="Hatch-4"
       height="8">
      <path
         id="path6629"
         stroke-width="0.25"
         stroke="#000000"
         linecap="square"
         d="M8 4 l-4,4" />
      <path
         id="path6631"
         stroke-width="0.25"
         stroke="#000000"
         linecap="square"
         d="M6 2 l-4,4" />
      <path
         id="path6633"
         stroke-width="0.25"
         stroke="#000000"
         linecap="square"
         d="M4 0 l-4,4" />
    </pattern>
  </defs>
  <g
     inkscape:label="0"
     inkscape:groupmode="layer"
     id="g4152"
     transform="translate(-115.59244,-271.18582)">
    <path
       inkscape:connector-curvature="0"
       d="m 349.48037,782.81032 5.56143,-0.2186 5.55736,-0.3058 5.55186,-0.3933 5.54503,-0.4801 5.53667,-0.5673 5.5272,-0.6541 5.51622,-0.7409 5.50382,-0.8277 5.49035,-0.9138 5.47512,-0.9999 5.45882,-1.0857 5.4411,-1.1714 5.42197,-1.2568 5.40177,-1.3419 5.37981,-1.4265 5.35677,-1.5105 5.33232,-1.5949 5.30681,-1.6784 5.27953,-1.7614 5.25154,-1.844 5.22177,-1.9265 5.19094,-2.0083 5.15835,-2.0895 5.12539,-2.1699 5.09032,-2.2507 5.05452,-2.3301 5.01733,-2.4095 4.9787,-2.4877 4.93937,-2.5654 4.89827,-2.6429 4.8561,-2.7199 4.81252,-2.7953 4.76823,-2.8708 4.72287,-2.9452 4.67575,-3.0192 4.62756,-3.0919 4.57866,-3.1645 4.52835,-3.2361 4.47696,-3.3066 4.42453,-3.3768 4.37102,-3.4459 0.7154,-0.5825 0,-212.1679 -12.78354,0 -3.6e-4,-80.9059 12.62587,-4e-4 0,-49.01474 -12.62551,0 -3.6e-4,-80.9061 -19.10587,0 0,-9.92126 -30.60744,0 0,9.92126 4.34055,0 0.20835,0.008 0.20728,0.0246 0.20481,0.0407 0.2009,0.0567 0.19559,0.0723 0.18957,0.0875 0.18213,0.10171 0.17326,0.11586 0.16406,0.12933 0.15307,0.14174 0.14173,0.15307 0.12933,0.16405 0.11587,0.17327 0.10169,0.18212 0.0875,0.18957 0.0723,0.19559 0.0567,0.20091 0.0408,0.2048 0.0244,0.20728 0.008,0.20835 -0.008,0.20835 -0.0246,0.20728 -0.0407,0.2048 -0.0567,0.20091 -0.0723,0.19559 -0.0875,0.18957 -0.1017,0.18212 -0.11587,0.17327 -0.12933,0.16406 -0.14173,0.15307 -0.15307,0.14173 -0.16406,0.12933 -0.17326,0.11587 -0.18213,0.10169 -0.18957,0.0875 -0.19559,0.0723 -0.2009,0.0567 -0.20481,0.0408 -0.20728,0.0245 -0.20835,0.008 0,5.13788 -0.0294,0.75047 -0.0886,0.74622 -0.14634,0.73665 -0.20409,0.72284 -0.25972,0.70476 -0.31465,0.68244 -0.36709,0.65516 -0.4174,0.62468 -0.46488,0.58997 -0.50988,0.55169 -0.5517,0.50988 -0.58996,0.46488 -0.62468,0.4174 -0.65516,0.36709 -0.68244,0.31465 -0.70476,0.25972 -0.72284,0.2041 -0.73665,0.14633 -0.74622,0.0886 -0.75047,0.0294 -0.75048,-0.0294 -0.74622,-0.0886 -0.73665,-0.14633 -0.72284,-0.2041 -0.70476,-0.25972 -0.68244,-0.31465 -0.65516,-0.36709 -0.62468,-0.4174 -0.58996,-0.46488 -0.5517,-0.50988 -0.50988,-0.55169 -0.46488,-0.58997 -0.4174,-0.62468 -0.36709,-0.65516 -0.31464,-0.68244 -0.25973,-0.70476 -0.20409,-0.72284 -0.14634,-0.73665 -0.0886,-0.74622 -0.0294,-0.75047 0,-5.1378 -0.20835,-0.008 -0.20728,-0.0245 -0.20481,-0.0408 -0.2009,-0.0567 -0.19559,-0.0723 -0.18957,-0.0875 -0.18213,-0.1017 -0.17326,-0.11587 -0.16406,-0.12933 -0.15307,-0.14173 -0.14173,-0.15307 -0.12933,-0.16406 -0.11587,-0.17327 -0.10169,-0.18212 -0.0875,-0.18957 -0.0723,-0.19595 -0.0567,-0.20055 -0.0408,-0.2048 -0.0244,-0.20728 -0.008,-0.20835 0.008,-0.2087 0.0245,-0.20693 0.0408,-0.2048 0.0567,-0.20091 0.0723,-0.19559 0.0875,-0.18957 0.1017,-0.18212 0.11587,-0.17327 0.12933,-0.16405 0.14173,-0.15307 0.15307,-0.14174 0.16406,-0.12933 0.17326,-0.11586 0.18213,-0.10205 0.18957,-0.0872 0.19559,-0.0723 0.2009,-0.0567 0.20481,-0.0408 0.20728,-0.0244 0.20835,-0.008 4.34055,-8e-5 0,-9.92126 -30.60744,0 0,9.92126 -82.86697,0 0,-9.92126 -71.66764,0 0,9.92126 -82.86697,0 0,-9.92126 -30.60744,0 0,9.92126 4.34055,0 0.2087,0.008 0.20693,0.0246 0.20481,0.0407 0.2009,0.0567 0.19559,0.0723 0.18957,0.0875 0.18213,0.10171 0.17362,0.11586 0.1637,0.12933 0.15307,0.14174 0.14173,0.15307 0.12933,0.16405 0.11587,0.17327 0.10205,0.18212 0.0872,0.18957 0.0723,0.19559 0.0567,0.20091 0.0408,0.2048 0.0244,0.20728 0.008,0.20835 -0.008,0.20835 -0.0245,0.20728 -0.0408,0.2048 -0.0567,0.20091 -0.0723,0.19559 -0.0872,0.18957 -0.10203,0.18212 -0.11587,0.17327 -0.12933,0.16406 -0.14173,0.15307 -0.15307,0.14173 -0.1637,0.12933 -0.17362,0.11587 -0.18213,0.10169 -0.18957,0.0875 -0.19559,0.0723 -0.2009,0.0567 -0.20481,0.0408 -0.20693,0.0245 -0.2087,0.008 0,5.13788 -0.0294,0.75047 -0.0882,0.74622 -0.14671,0.73665 -0.20374,0.72284 -0.26008,0.70476 -0.31464,0.68244 -0.36709,0.65516 -0.41705,0.62468 -0.46523,0.58997 -0.50988,0.55169 -0.5517,0.50988 -0.58996,0.46488 -0.62433,0.4174 -0.65551,0.36709 -0.68209,0.31465 -0.70476,0.25972 -0.72319,0.2041 -0.73665,0.14633 -0.74587,0.0886 -0.75083,0.0294 -0.75047,-0.0294 -0.74586,-0.0886 -0.73701,-0.14633 -0.72284,-0.2041 -0.70476,-0.25972 -0.68244,-0.31465 -0.65516,-0.36709 -0.62468,-0.4174 -0.58996,-0.46488 -0.5517,-0.50988 -0.50988,-0.55169 -0.46488,-0.58997 -0.4174,-0.62468 -0.36709,-0.65516 -0.31429,-0.68244 -0.26008,-0.70476 -0.20409,-0.72284 -0.14634,-0.73665 -0.0882,-0.74622 -0.0298,-0.75047 2e-5,-5.1378 -0.20835,-0.008 -0.20728,-0.0245 -0.20481,-0.0408 -0.20055,-0.0567 -0.19594,-0.0723 -0.18957,-0.0875 -0.18213,-0.1017 -0.17326,-0.11587 -0.16406,-0.12933 -0.15307,-0.14173 -0.14173,-0.15307 -0.12898,-0.16406 -0.11622,-0.17327 -0.10169,-0.18212 -0.0875,-0.18957 -0.0723,-0.19595 -0.0567,-0.20055 -0.0404,-0.2048 -0.0248,-0.20728 -0.008,-0.20835 0.008,-0.2087 0.0249,-0.20693 0.0404,-0.2048 0.0567,-0.20091 0.0723,-0.19559 0.0875,-0.18957 0.1017,-0.18212 0.11622,-0.17327 0.12898,-0.16405 0.14173,-0.15307 0.15307,-0.14174 0.16406,-0.12933 0.17326,-0.11586 0.18213,-0.10205 0.18957,-0.0872 0.19594,-0.0723 0.20055,-0.0567 0.20481,-0.0408 0.20728,-0.0244 0.20835,-0.008 4.34055,-8e-5 0,-9.92126 -30.60744,0 0,9.92126 -19.10623,0 3.6e-4,80.90539 -12.62587,7.1e-4 0,49.01474 12.62551,0 0,80.9063 -12.78354,0 0,212.1679 0.7154,0.5825 4.37102,3.4459 4.42453,3.3768 4.47696,3.3066 4.52835,3.2361 4.57866,3.1645 4.62756,3.0919 4.67575,3.0192 4.72287,2.9452 4.76823,2.8708 4.81252,2.7953 4.8561,2.7199 4.89827,2.6429 4.93937,2.5654 4.9787,2.4877 5.01733,2.4095 5.05452,2.3301 5.09032,2.2507 5.12539,2.1699 5.15835,2.0895 5.19094,2.0083 5.22177,1.9265 5.25154,1.844 5.27953,1.7614 5.30681,1.6784 5.33232,1.5949 5.35677,1.5105 5.37981,1.4265 5.40177,1.3419 5.42197,1.2568 5.4411,1.1714 5.45882,1.0857 5.47512,0.9999 5.49035,0.9138 5.50382,0.8277 5.51622,0.7409 5.5272,0.6541 5.53667,0.5673 5.54503,0.4801 5.55186,0.3933 5.55736,0.3058 5.56143,0.2186 5.56424,0.1311 5.56554,0.0436 5.56554,-0.0438 z"
       style="fill:none;stroke:#0000ff;stroke-opacity:1"
       id="path7285"
       sodipodi:nodetypes="cccccccccccccccccccccccccccccccccccccccccccccccccccccccccccccccccccccccccccccccccccccccccccccccccccccccccccccccccccccccccccccccccccccccccccccccccccccccccccccccccccccccccccccccccccccccccccccccccccccccccccccccccccccccccccccccccccccccccccccccccccccccccccccccccccccccccccccccccccccccccccccccccccccccccccccccccccccccccccccccccccccccccccccccccccccccccccccccccccccccccccccccccc" />
    <path
       inkscape:connector-curvature="0"
       d="m 133.80894,306.41023 7.08661,0 0,14.17323 -7.08661,0 z"
       style="fill:none;stroke:#ff0000;stroke-opacity:1"
       id="path7375"
       sodipodi:nodetypes="ccccc" />
    <path
       inkscape:connector-curvature="0"
       d="m 535.80563,306.41023 7.08661,0 0,14.17323 -7.08661,0 z"
       style="fill:none;stroke:#ff0000;stroke-opacity:1"
       id="path7383"
       sodipodi:nodetypes="ccccc" />
    <path
       inkscape:connector-curvature="0"
       d="m 177.71016,362.51318 -3.6e-4,-45.47303 13.28882,-3.5e-4 0,45.47338 z"
       style="fill:none;stroke:#ff0000;stroke-opacity:1"
       id="path7397"
       sodipodi:nodetypes="ccccc" />
    <path
       inkscape:connector-curvature="0"
       d="m 485.70256,362.51318 -3.6e-4,-45.47303 13.28882,-3.5e-4 0,45.47338 z"
       style="fill:none;stroke:#ff0000;stroke-opacity:1"
       id="path7405"
       sodipodi:nodetypes="ccccc" />
    <path
       inkscape:connector-curvature="0"
       d="m 238.44244,424.38852 -0.69449,-0.0408 -0.69236,-0.068 -0.68917,-0.0953 -0.68457,-0.1225 -0.67961,-0.1491 -0.67323,-0.1756 -0.66578,-0.202 -0.65729,-0.2279 -0.64771,-0.2535 -0.63744,-0.2788 -0.62575,-0.3036 -0.6137,-0.328 -0.60024,-0.3518 -0.58571,-0.375 -0.57082,-0.3978 -0.55489,-0.4199 -0.53751,-0.4413 -0.52016,-0.4621 -0.50138,-0.4822 -0.48225,-0.5014 -0.46204,-0.5201 -0.4415,-0.5378 -0.41988,-0.5546 -0.39756,-0.5708 -0.37524,-0.5859 -0.35185,-0.6002 -0.32775,-0.6135 -0.30366,-0.626 -0.27886,-0.6374 -0.25335,-0.6478 -0.22819,-0.6573 -0.20197,-0.6657 -0.17539,-0.6731 -0.14917,-0.6796 -0.12225,-0.6848 -0.0953,-0.6891 -0.0684,-0.6923 -0.0407,-0.6945 -0.0138,-0.6956 0,-70.86614 0.0138,-0.69555 0.0407,-0.69449 0.0684,-0.69236 0.0953,-0.68918 0.12225,-0.68456 0.14917,-0.67961 0.17539,-0.67323 0.20197,-0.66579 0.22819,-0.65728 0.25335,-0.64772 0.27886,-0.63744 0.30366,-0.62574 0.32775,-0.6137 0.35185,-0.60024 0.37524,-0.58571 0.39756,-0.57083 0.41988,-0.55488 0.4415,-0.53752 0.46204,-0.52016 0.48225,-0.50137 0.50138,-0.48225 0.52016,-0.46204 0.53751,-0.4415 0.55489,-0.41988 0.57082,-0.39756 0.58571,-0.37524 0.60024,-0.35185 0.6137,-0.32775 0.62575,-0.30367 0.63744,-0.27885 0.64771,-0.25335 0.65729,-0.22819 0.66578,-0.20197 0.67323,-0.17539 0.67961,-0.14918 0.68457,-0.12224 0.68917,-0.0953 0.69236,-0.0684 0.69449,-0.0408 0.69555,-0.0138 0.69555,0.0138 0.69449,0.0408 0.69236,0.0684 0.68918,0.0953 0.68492,0.12224 0.67925,0.14918 0.67323,0.17539 0.66578,0.20197 0.65729,0.22819 0.64771,0.25335 0.63745,0.27885 0.6261,0.30367 0.61334,0.32775 0.60024,0.35185 0.58606,0.37524 0.57048,0.39756 0.55488,0.41988 0.53787,0.4415 0.51981,0.46204 0.50137,0.48225 0.48225,0.50137 0.46204,0.52016 0.4415,0.53752 0.41988,0.55488 0.39756,0.57083 0.37524,0.58571 0.35185,0.60024 0.32775,0.6137 0.30367,0.62574 0.27885,0.63744 0.2537,0.64772 0.22784,0.65728 0.20197,0.66579 0.17575,0.67323 0.14882,0.67961 0.12224,0.68456 0.0953,0.68918 0.0684,0.69236 0.0411,0.69449 0.0135,0.69555 -2e-5,70.86614 -0.0135,0.6956 -0.0411,0.6945 -0.0684,0.6923 -0.0953,0.6891 -0.12224,0.6848 -0.14882,0.6796 -0.17575,0.6731 -0.20197,0.6657 -0.22784,0.6573 -0.2537,0.6478 -0.27885,0.6374 -0.30367,0.626 -0.32775,0.6135 -0.35185,0.6002 -0.37524,0.5859 -0.39756,0.5708 -0.41988,0.5546 -0.4415,0.5378 -0.46204,0.5201 -0.48225,0.5014 -0.50137,0.4822 -0.51981,0.4621 -0.53787,0.4413 -0.55488,0.4199 -0.57048,0.3978 -0.58606,0.375 -0.60024,0.3518 -0.61334,0.328 -0.6261,0.3036 -0.63745,0.2788 -0.64771,0.2535 -0.65729,0.2279 -0.66578,0.202 -0.67323,0.1756 -0.67925,0.1491 -0.68492,0.1223 -0.68918,0.0952 -0.69236,0.0682 -0.69449,0.041 -0.69555,0.0138 z"
       style="fill:none;stroke:#ff0000;stroke-opacity:1"
       id="path7729"
       sodipodi:nodetypes="ccccccccccccccccccccccccccccccccccccccccccccccccccccccccccccccccccccccccccccccccccccccccccccccccccccccccccccccccccccccccccccccccccccccccccccccccccccccccccccccccccc" />
    <path
       inkscape:connector-curvature="0"
       d="m 436.86764,424.38852 -0.69449,-0.0408 -0.69236,-0.068 -0.68918,-0.0953 -0.68492,-0.1225 -0.67925,-0.1491 -0.67323,-0.1756 -0.66578,-0.202 -0.65729,-0.2279 -0.64771,-0.2535 -0.63745,-0.2788 -0.6261,-0.3036 -0.61334,-0.328 -0.60024,-0.3518 -0.58606,-0.375 -0.57048,-0.3978 -0.55488,-0.4199 -0.53787,-0.4413 -0.51981,-0.4621 -0.50137,-0.4822 -0.48225,-0.5014 -0.46204,-0.5201 -0.4415,-0.5378 -0.41988,-0.5546 -0.39756,-0.5708 -0.37524,-0.5859 -0.35185,-0.6002 -0.32775,-0.6135 -0.30367,-0.626 -0.27885,-0.6374 -0.25371,-0.6478 -0.22783,-0.6573 -0.20197,-0.6657 -0.17575,-0.6731 -0.14882,-0.6796 -0.12224,-0.6848 -0.0953,-0.6891 -0.0684,-0.6923 -0.0411,-0.6945 -0.0135,-0.6956 2e-5,-70.86614 0.0135,-0.69555 0.0411,-0.69449 0.0684,-0.69236 0.0953,-0.68918 0.12225,-0.68456 0.14882,-0.67961 0.17575,-0.67323 0.20197,-0.66579 0.22784,-0.65728 0.2537,-0.64772 0.27885,-0.63744 0.30367,-0.62574 0.32775,-0.6137 0.35185,-0.60024 0.37524,-0.58571 0.39756,-0.57083 0.41988,-0.55488 0.4415,-0.53752 0.46204,-0.52016 0.48225,-0.50137 0.50137,-0.48225 0.51981,-0.46204 0.53787,-0.4415 0.55488,-0.41988 0.57048,-0.39756 0.58606,-0.37524 0.60024,-0.35185 0.61334,-0.32775 0.6261,-0.30367 0.63745,-0.27885 0.64771,-0.25335 0.65729,-0.22819 0.66578,-0.20197 0.67323,-0.17539 0.67925,-0.14918 0.68492,-0.12224 0.68918,-0.0953 0.69236,-0.0684 0.69449,-0.0408 0.69555,-0.0138 0.69555,0.0138 0.69449,0.0408 0.69236,0.0684 0.68917,0.0953 0.68457,0.12224 0.67961,0.14918 0.67323,0.17539 0.66578,0.20197 0.65729,0.22819 0.64771,0.25335 0.63744,0.27885 0.62575,0.30367 0.6137,0.32775 0.60024,0.35185 0.58571,0.37524 0.57082,0.39756 0.55489,0.41988 0.53751,0.4415 0.52016,0.46204 0.50138,0.48225 0.48225,0.50137 0.46204,0.52016 0.4415,0.53752 0.41988,0.55488 0.39756,0.57083 0.37524,0.58571 0.35185,0.60024 0.32775,0.6137 0.30366,0.62574 0.27886,0.63744 0.25335,0.64772 0.22819,0.65728 0.20197,0.66579 0.17539,0.67323 0.14917,0.67961 0.12225,0.68456 0.0953,0.68918 0.0684,0.69236 0.0407,0.69449 0.0138,0.69555 10e-6,70.86614 -0.0138,0.6956 -0.0407,0.6945 -0.0684,0.6923 -0.0953,0.6891 -0.12225,0.6848 -0.14917,0.6796 -0.17539,0.6731 -0.20197,0.6657 -0.22819,0.6573 -0.25335,0.6478 -0.27886,0.6374 -0.30366,0.626 -0.32775,0.6135 -0.35185,0.6002 -0.37524,0.5859 -0.39756,0.5708 -0.41988,0.5546 -0.4415,0.5378 -0.46204,0.5201 -0.48225,0.5014 -0.50138,0.4822 -0.52016,0.4621 -0.53751,0.4413 -0.55489,0.4199 -0.57082,0.3978 -0.58571,0.375 -0.60024,0.3518 -0.6137,0.328 -0.62575,0.3036 -0.63744,0.2788 -0.64771,0.2535 -0.65729,0.2279 -0.66578,0.202 -0.67323,0.1756 -0.67961,0.1491 -0.68457,0.1223 -0.68917,0.0952 -0.69236,0.0682 -0.69449,0.041 -0.69555,0.0138 z"
       style="fill:none;stroke:#ff0000;stroke-opacity:1"
       id="path8053"
       sodipodi:nodetypes="ccccccccccccccccccccccccccccccccccccccccccccccccccccccccccccccccccccccccccccccccccccccccccccccccccccccccccccccccccccccccccccccccccccccccccccccccccccccccccccccccccc" />
    <path
       inkscape:connector-curvature="0"
       d="m 272.38236,411.98457 -0.20764,-0.0204 -0.20657,-0.029 -0.20551,-0.0367 -0.2041,-0.0448 -0.20197,-0.0527 -0.19948,-0.0607 -0.19737,-0.0679 -0.19417,-0.0762 -0.19134,-0.0838 -0.18779,-0.0909 -0.1839,-0.0982 -0.18,-0.1058 -0.17575,-0.1125 -0.1715,-0.1193 -0.16618,-0.126 -0.16157,-0.1324 -0.15591,-0.1386 -0.15059,-0.1446 -0.14456,-0.1505 -0.13855,-0.1559 -0.13252,-0.1614 -0.12578,-0.1664 -0.11941,-0.1712 -0.11233,-0.1758 -0.10559,-0.1801 -0.0985,-0.184 -0.0911,-0.1878 -0.0836,-0.1912 -0.0762,-0.1944 -0.0684,-0.1972 -0.0606,-0.1997 -0.0524,-0.2019 -0.045,-0.2039 -0.0365,-0.2055 -0.0287,-0.2066 -0.0206,-0.2078 -0.012,-0.2083 -0.004,-0.2087 -1.2e-4,-70.86614 0.004,-0.2087 0.0122,-0.20835 0.0206,-0.20764 0.0287,-0.20657 0.0365,-0.20551 0.045,-0.2041 0.0524,-0.20161 0.0606,-0.19984 0.0684,-0.19737 0.0762,-0.19417 0.0836,-0.19134 0.0911,-0.18779 0.0985,-0.1839 0.10559,-0.18 0.11233,-0.17575 0.11941,-0.1715 0.12578,-0.16618 0.13252,-0.16157 0.13855,-0.15591 0.14456,-0.15059 0.15059,-0.14456 0.15591,-0.13855 0.16157,-0.13252 0.16618,-0.12578 0.1715,-0.11941 0.17575,-0.11268 0.18,-0.10524 0.1839,-0.0985 0.18779,-0.0911 0.19134,-0.0836 0.19417,-0.0762 0.19737,-0.0684 0.19948,-0.0606 0.20197,-0.0528 0.2041,-0.0446 0.20551,-0.0365 0.20657,-0.0287 0.20764,-0.0206 0.20835,-0.012 0.2087,-0.004 0.2087,0.004 0.20835,0.0122 0.20763,0.0206 0.20693,0.0287 0.20516,0.0365 0.20409,0.0446 0.20197,0.0528 0.19949,0.0606 0.19736,0.0684 0.19418,0.0762 0.19134,0.0836 0.18779,0.0911 0.1839,0.0985 0.18035,0.10524 0.17575,0.11268 0.17114,0.11941 0.16618,0.12578 0.16158,0.13252 0.1559,0.13855 0.15059,0.14456 0.14457,0.15059 0.13855,0.15591 0.13252,0.16157 0.12578,0.16618 0.11941,0.1715 0.11268,0.17575 0.10523,0.18 0.0985,0.1839 0.0911,0.18779 0.0836,0.19134 0.0762,0.19417 0.0684,0.19737 0.0606,0.19984 0.0528,0.20161 0.0447,0.2041 0.0365,0.20551 0.0287,0.20657 0.0206,0.20764 0.0124,0.20835 0.004,0.2087 -5e-5,70.86614 -0.004,0.2087 -0.0123,0.2083 -0.0206,0.2078 -0.0287,0.2066 -0.0365,0.2055 -0.0446,0.2039 -0.0528,0.2019 -0.0606,0.1997 -0.0684,0.1972 -0.0762,0.1944 -0.0836,0.1912 -0.0911,0.1878 -0.0985,0.184 -0.10523,0.1801 -0.11268,0.1758 -0.11941,0.1712 -0.12578,0.1664 -0.13252,0.1614 -0.13855,0.1559 -0.14457,0.1505 -0.15059,0.1446 -0.1559,0.1386 -0.16158,0.1324 -0.16618,0.126 -0.17114,0.1193 -0.17575,0.1125 -0.18035,0.1056 -0.1839,0.0982 -0.18779,0.0913 -0.19134,0.0839 -0.19418,0.0759 -0.19736,0.0682 -0.19949,0.0609 -0.20197,0.0526 -0.20409,0.0447 -0.20516,0.0367 -0.20693,0.0287 -0.20763,0.02 -0.20835,0.0124 -0.2087,0.002 -0.2087,0 z"
       style="fill:none;stroke:#ff0000;stroke-opacity:1"
       id="path8055"
       sodipodi:nodetypes="ccccccccccccccccccccccccccccccccccccccccccccccccccccccccccccccccccccccccccccccccccccccccccccccccccccccccccccccccccccccccccccccccccccccccccccccccccccccccccccccccccc" />
    <path
       inkscape:connector-curvature="0"
       d="m 403.69307,411.99877 -0.20835,-0.0142 -0.20763,-0.0204 -0.20693,-0.029 -0.20516,-0.0367 -0.20409,-0.0448 -0.20197,-0.0527 -0.19949,-0.0607 -0.19736,-0.0679 -0.19418,-0.0762 -0.19134,-0.0838 -0.18779,-0.0909 -0.1839,-0.0982 -0.18035,-0.1058 -0.17575,-0.1125 -0.17114,-0.1193 -0.16618,-0.126 -0.16158,-0.1324 -0.1559,-0.1386 -0.15059,-0.1446 -0.14457,-0.1505 -0.13855,-0.1559 -0.13252,-0.1614 -0.12578,-0.1664 -0.11941,-0.1712 -0.11268,-0.1758 -0.10523,-0.1801 -0.0985,-0.184 -0.0911,-0.1878 -0.0836,-0.1912 -0.0762,-0.1944 -0.0684,-0.1972 -0.0606,-0.1997 -0.0528,-0.2019 -0.0446,-0.2039 -0.0365,-0.2055 -0.0287,-0.2066 -0.0205,-0.2078 -0.0124,-0.2083 -0.004,-0.2087 5e-5,-70.86614 0.004,-0.2087 0.0124,-0.20835 0.0205,-0.20764 0.0287,-0.20657 0.0365,-0.20551 0.0447,-0.2041 0.0528,-0.20161 0.0606,-0.19984 0.0684,-0.19737 0.0762,-0.19417 0.0836,-0.19134 0.0911,-0.18779 0.0985,-0.1839 0.10524,-0.18 0.11268,-0.17575 0.11941,-0.1715 0.12578,-0.16618 0.13252,-0.16157 0.13855,-0.15591 0.14457,-0.15059 0.15059,-0.14456 0.1559,-0.13855 0.16158,-0.13252 0.16618,-0.12578 0.17114,-0.11941 0.17575,-0.11268 0.18035,-0.10524 0.1839,-0.0985 0.18779,-0.0911 0.19134,-0.0836 0.19418,-0.0762 0.19736,-0.0684 0.19949,-0.0606 0.20197,-0.0528 0.20409,-0.0446 0.20516,-0.0365 0.20693,-0.0287 0.20763,-0.0206 0.20835,-0.012 0.2087,-0.004 0.2087,0.004 0.20835,0.0122 0.20764,0.0206 0.20657,0.0287 0.20551,0.0365 0.2041,0.0446 0.20197,0.0528 0.19948,0.0606 0.19737,0.0684 0.19417,0.0762 0.19134,0.0836 0.18779,0.0911 0.1839,0.0985 0.18,0.10524 0.17575,0.11268 0.1715,0.11941 0.16618,0.12578 0.16157,0.13252 0.15591,0.13855 0.15059,0.14456 0.14456,0.15059 0.13855,0.15591 0.13252,0.16157 0.12578,0.16618 0.11941,0.1715 0.11233,0.17575 0.10559,0.18 0.0985,0.1839 0.0911,0.18779 0.0836,0.19134 0.0762,0.19417 0.0684,0.19737 0.0606,0.19984 0.0524,0.20161 0.045,0.2041 0.0365,0.20551 0.0287,0.20657 0.0205,0.20764 0.0121,0.20835 0.004,0.2087 1.2e-4,70.86614 -0.004,0.2087 -0.0122,0.2083 -0.0205,0.2078 -0.0287,0.2066 -0.0365,0.2055 -0.045,0.2039 -0.0524,0.2019 -0.0606,0.1997 -0.0684,0.1972 -0.0762,0.1944 -0.0836,0.1912 -0.0911,0.1878 -0.0985,0.184 -0.10559,0.1801 -0.11233,0.1758 -0.11941,0.1712 -0.12578,0.1664 -0.13252,0.1614 -0.13855,0.1559 -0.14456,0.1505 -0.15059,0.1446 -0.15591,0.1386 -0.16157,0.1324 -0.16618,0.126 -0.1715,0.1193 -0.17575,0.1125 -0.18,0.1056 -0.1839,0.0982 -0.18779,0.0913 -0.19134,0.0839 -0.19417,0.0759 -0.19737,0.0682 -0.19948,0.0609 -0.20197,0.0526 -0.2041,0.0447 -0.20551,0.0367 -0.20657,0.0287 -0.20764,0.02 -0.20835,0.0124 -0.2087,0.002 z"
       style="fill:none;stroke:#ff0000;stroke-opacity:1"
       id="path8701"
       sodipodi:nodetypes="ccccccccccccccccccccccccccccccccccccccccccccccccccccccccccccccccccccccccccccccccccccccccccccccccccccccccccccccccccccccccccccccccccccccccccccccccccccccccccccccccccc" />
    <path
       inkscape:connector-curvature="0"
       d="m 201.13177,331.21338 0,14.17323 -7.08661,0 0,-14.17323 z"
       style="fill:none;stroke:#ff0000;stroke-opacity:1"
       id="path8705"
       sodipodi:nodetypes="ccccc" />
    <path
       inkscape:connector-curvature="0"
       d="m 482.65602,331.21338 0,14.17323 -7.08661,0 0,-14.17323 z"
       style="fill:none;stroke:#ff0000;stroke-opacity:1"
       id="path8713"
       sodipodi:nodetypes="ccccc" />
    <path
       inkscape:connector-curvature="0"
       d="m 169.24201,331.21338 0,14.17323 -7.08662,0 0,-14.17323 z"
       style="fill:none;stroke:#ff0000;stroke-opacity:1"
       id="path8721"
       sodipodi:nodetypes="ccccc" />
    <path
       inkscape:connector-curvature="0"
       d="m 514.54579,331.21338 0,14.17323 -7.08662,0 0,-14.17323 z"
       style="fill:none;stroke:#ff0000;stroke-opacity:1"
       id="path8729"
       sodipodi:nodetypes="ccccc" />
    <path
       inkscape:connector-curvature="0"
       d="m 368.95757,416.44547 -0.9056,-0.21745 -0.86042,-0.3564 -0.79409,-0.4866 -0.70816,-0.6048 -0.60485,-0.7082 -0.4866,-0.7941 -0.35639,-0.8604 -0.21741,-0.9056 -0.0731,-0.9284 0.0731,-0.9284 0.21741,-0.9057 0.35639,-0.8604 0.4866,-0.7941 0.60485,-0.7081 0.70816,-0.6049 0.79409,-0.4866 0.86042,-0.3564 0.9056,-0.2174 0.92842,-0.0731 0.92845,0.073 0.9056,0.21745 0.86042,0.3564 0.79409,0.4866 0.70817,0.6049 0.60484,0.7081 0.48649,0.7941 0.35646,0.8604 0.21756,0.9057 0.073,0.9284 -0.073,0.9284 -0.21755,0.9056 -0.35646,0.8604 -0.48649,0.7941 -0.60484,0.7082 -0.70817,0.6048 -0.79409,0.4866 -0.86042,0.3564 -0.9056,0.2174 -0.92845,0.073 z"
       style="fill:none;stroke:#ff0000;stroke-opacity:1"
       id="path8813"
       sodipodi:nodetypes="ccccccccccccccccccccccccccccccccccccccccc" />
    <path
       inkscape:connector-curvature="0"
       d="m 308.64921,404.93892 0.86042,0.3564 0.79409,0.4866 0.70816,0.6049 0.60485,0.7081 0.4866,0.7941 0.35639,0.8604 0.21741,0.9057 0.0731,0.9284 -0.0731,0.9284 -0.21741,0.9056 -0.35639,0.8604 -0.4866,0.7941 -0.60485,0.7082 -0.70816,0.6048 -0.79409,0.4866 -0.86042,0.3564 -0.9056,0.2174 -0.92842,0.073 -0.92845,-0.073 -0.9056,-0.21745 -0.86042,-0.3564 -0.79409,-0.4866 -0.70817,-0.6048 -0.60484,-0.7082 -0.4865,-0.7941 -0.35645,-0.8604 -0.21756,-0.9056 -0.073,-0.9284 0.073,-0.9284 0.21756,-0.9057 0.35645,-0.8604 0.4865,-0.7941 0.60484,-0.7081 0.70817,-0.6049 0.79409,-0.4866 0.86042,-0.3564 0.9056,-0.2174 0.92845,-0.0731 0.92842,0.073 z"
       style="fill:none;stroke:#ff0000;stroke-opacity:1"
       id="path8855"
       sodipodi:nodetypes="ccccccccccccccccccccccccccccccccccccccccc" />
    <path
       inkscape:connector-curvature="0"
       d="m 498.99102,492.43422 -13.28846,0 -3.6e-4,-80.9059 13.28882,-4e-4 z"
       style="fill:none;stroke:#ff0000;stroke-opacity:1"
       id="path8899"
       sodipodi:nodetypes="ccccc" />
    <path
       inkscape:connector-curvature="0"
       d="m 177.7098,411.52832 13.28882,-4e-4 0,80.9063 -13.28846,0 z"
       style="fill:none;stroke:#ff0000;stroke-opacity:1"
       id="path8903"
       sodipodi:nodetypes="ccccc" />
    <path
       inkscape:connector-curvature="0"
       d="m 307.74361,440.86317 0.9056,0.21745 0.86042,0.3564 0.79409,0.4866 0.70816,0.6048 0.60485,0.7082 0.4866,0.7941 0.35639,0.8604 0.21741,0.9056 0.0731,0.9284 -0.0731,0.9285 -0.21741,0.9056 -0.35639,0.8604 -0.4866,0.7941 -0.60485,0.7081 -0.70816,0.6049 -0.79409,0.4866 -0.86042,0.3564 -0.9056,0.2174 -0.92842,0.073 -0.92845,-0.073 -0.9056,-0.21745 -0.86042,-0.3564 -0.79409,-0.4866 -0.70817,-0.6049 -0.60484,-0.7081 -0.4865,-0.7941 -0.35645,-0.8604 -0.21756,-0.9056 -0.073,-0.9285 0.073,-0.9284 0.21756,-0.9056 0.35645,-0.8604 0.4865,-0.7941 0.60484,-0.7082 0.70817,-0.6048 0.79409,-0.4866 0.86042,-0.3564 0.9056,-0.2174 0.92845,-0.0731 z"
       style="fill:none;stroke:#ff0000;stroke-opacity:1"
       id="path8949"
       sodipodi:nodetypes="ccccccccccccccccccccccccccccccccccccccccc" />
    <path
       inkscape:connector-curvature="0"
       d="m 370.81444,440.86317 0.9056,0.21745 0.86042,0.3564 0.79409,0.4866 0.70817,0.6048 0.60484,0.7082 0.48649,0.7941 0.35646,0.8604 0.21756,0.9056 0.073,0.9284 -0.073,0.9285 -0.21755,0.9056 -0.35646,0.8604 -0.48649,0.7941 -0.60484,0.7081 -0.70817,0.6049 -0.79409,0.4866 -0.86042,0.3564 -0.9056,0.2174 -0.92845,0.073 -0.92842,-0.073 -0.9056,-0.21745 -0.86042,-0.3564 -0.79409,-0.4866 -0.70816,-0.6049 -0.60485,-0.7081 -0.4866,-0.7941 -0.35639,-0.8604 -0.21741,-0.9056 -0.0731,-0.9285 0.0731,-0.9284 0.21741,-0.9056 0.35639,-0.8604 0.4866,-0.7941 0.60485,-0.7082 0.70816,-0.6048 0.79409,-0.4866 0.86042,-0.3564 0.9056,-0.2174 0.92842,-0.0731 z"
       style="fill:none;stroke:#ff0000;stroke-opacity:1"
       id="path9029"
       sodipodi:nodetypes="ccccccccccccccccccccccccccccccccccccccccc" />
    <path
       inkscape:connector-curvature="0"
       d="m 507.45917,453.45752 7.08662,0 0,14.1732 -7.08662,0 z"
       style="fill:none;stroke:#ff0000;stroke-opacity:1"
       id="path9071"
       sodipodi:nodetypes="ccccc" />
    <path
       inkscape:connector-curvature="0"
       d="m 194.04516,453.45752 7.08661,0 0,14.1732 -7.08661,0 z"
       style="fill:none;stroke:#ff0000;stroke-opacity:1"
       id="path9079"
       sodipodi:nodetypes="ccccc" />
    <path
       inkscape:connector-curvature="0"
       d="m 482.65602,467.63072 -7.08661,0 0,-14.1732 7.08661,0 z"
       style="fill:none;stroke:#ff0000;stroke-opacity:1"
       id="path9091"
       sodipodi:nodetypes="ccccc" />
    <path
       inkscape:connector-curvature="0"
       d="m 140.89555,467.63072 -7.08661,0 0,-14.1732 7.08661,0 z"
       style="fill:none;stroke:#ff0000;stroke-opacity:1"
       id="path9099"
       sodipodi:nodetypes="ccccc" />
    <path
       inkscape:connector-curvature="0"
       d="m 542.89224,467.63072 -7.08661,0 0,-14.1732 7.08661,0 z"
       style="fill:none;stroke:#ff0000;stroke-opacity:1"
       id="path9107"
       sodipodi:nodetypes="ccccc" />
    <path
       inkscape:connector-curvature="0"
       d="m 162.15539,453.45752 7.08662,0 0,14.1732 -7.08662,0 z"
       style="fill:none;stroke:#ff0000;stroke-opacity:1"
       id="path9111"
       sodipodi:nodetypes="ccccc" />
    <path
       inkscape:connector-curvature="0"
       d="m 169.06484,688.91022 -38.62204,0 0,-102.4016 38.62204,0 z"
       style="fill:none;stroke:#ff0000;stroke-opacity:1"
       id="path9123"
       sodipodi:nodetypes="ccccc" />
    <path
       inkscape:connector-curvature="0"
       d="m 546.25838,586.50862 0,102.4016 -38.62204,0 0,-102.4016 z"
       style="fill:none;stroke:#ff0000;stroke-opacity:1"
       id="path9129"
       sodipodi:nodetypes="ccccc" />
    <path
       inkscape:connector-curvature="0"
       d="m 200.03228,708.17942 0.77067,0.3189 0.71114,0.4358 0.63426,0.5418 0.54141,0.6343 0.43583,0.7111 0.31925,0.7703 0.19453,0.8111 0.0656,0.8313 -0.0656,0.8316 -0.1945,0.811 -0.31925,0.7703 -0.43583,0.7112 -0.54141,0.6342 -0.63426,0.5418 -0.71114,0.4355 -0.77067,0.3192 -0.81071,0.1949 -0.83161,0.0651 -0.83126,-0.065 -0.81106,-0.195 -0.77067,-0.3192 -0.71114,-0.4355 -0.63426,-0.5418 -0.54141,-0.6342 -0.43583,-0.7112 -0.31925,-0.7703 -0.19453,-0.811 -0.0656,-0.8316 0.0656,-0.8313 0.19451,-0.8111 0.31925,-0.7703 0.43583,-0.7111 0.54141,-0.6343 0.63426,-0.5418 0.71114,-0.4358 0.77067,-0.3189 0.81106,-0.1949 0.83126,-0.0652 0.83161,0.065 z"
       style="fill:none;stroke:#ff0000;stroke-opacity:1"
       id="path9175"
       sodipodi:nodetypes="ccccccccccccccccccccccccccccccccccccccccc" />
    <path
       inkscape:connector-curvature="0"
       d="m 479.14248,707.98427 0.81106,0.19515 0.77067,0.3189 0.71114,0.4358 0.63426,0.5418 0.54141,0.6343 0.43583,0.7111 0.31925,0.7703 0.19453,0.8111 0.0656,0.8313 -0.0656,0.8316 -0.1945,0.811 -0.31925,0.7703 -0.43583,0.7112 -0.54141,0.6342 -0.63426,0.5418 -0.71114,0.4355 -0.77067,0.3192 -0.81106,0.1949 -0.83126,0.0651 -0.83161,-0.065 -0.81071,-0.195 -0.77067,-0.3192 -0.71114,-0.4355 -0.63426,-0.5418 -0.54141,-0.6342 -0.43583,-0.7112 -0.31925,-0.7703 -0.19453,-0.811 -0.0656,-0.8316 0.0656,-0.8313 0.19451,-0.8111 0.31925,-0.7703 0.43583,-0.7111 0.54141,-0.6343 0.63426,-0.5418 0.71114,-0.4358 0.77067,-0.3189 0.81071,-0.1949 0.83161,-0.0652 z"
       style="fill:none;stroke:#ff0000;stroke-opacity:1"
       id="path9253"
       sodipodi:nodetypes="ccccccccccccccccccccccccccccccccccccccccc" />
  </g>
</svg>
