<?xml version="1.0" encoding="UTF-8" standalone="no"?>
<svg
   xmlns:dc="http://purl.org/dc/elements/1.1/"
   xmlns:cc="http://creativecommons.org/ns#"
   xmlns:rdf="http://www.w3.org/1999/02/22-rdf-syntax-ns#"
   xmlns:svg="http://www.w3.org/2000/svg"
   xmlns="http://www.w3.org/2000/svg"
   xmlns:sodipodi="http://sodipodi.sourceforge.net/DTD/sodipodi-0.dtd"
   xmlns:inkscape="http://www.inkscape.org/namespaces/inkscape"
   width="744.094488189"
   height="1052.36220472"
   id="svg4136"
   version="1.1"
   inkscape:version="0.91 r13725"
   sodipodi:docname="top_accessory.svg">
  <metadata
     id="metadata5260">
    <rdf:RDF>
      <cc:Work
         rdf:about="">
        <dc:format>image/svg+xml</dc:format>
        <dc:type
           rdf:resource="http://purl.org/dc/dcmitype/StillImage" />
        <dc:title></dc:title>
      </cc:Work>
    </rdf:RDF>
  </metadata>
  <sodipodi:namedview
     pagecolor="#ffffff"
     bordercolor="#666666"
     borderopacity="1"
     objecttolerance="10"
     gridtolerance="10"
     guidetolerance="10"
     inkscape:pageopacity="0"
     inkscape:pageshadow="2"
     inkscape:window-width="3734"
     inkscape:window-height="2121"
     id="namedview5258"
     showgrid="false"
     inkscape:zoom="1.4142136"
     inkscape:cx="407.02272"
     inkscape:cy="540.67087"
     inkscape:window-x="106"
     inkscape:window-y="39"
     inkscape:window-maximized="1"
     inkscape:current-layer="g4152" />
  <desc
     id="desc4138">C:\Share\Robotics\Whr_bot\Parts\61r\top.dxf - scale = 1.000000, origin = (0.000000, 0.000000), auto = False</desc>
  <defs
     id="defs4140">
    <marker
       refY="0.0"
       refX="0.0"
       style="overflow:visible"
       id="DistanceX"
       orient="auto">
      <path
         style="stroke:#000000; stroke-width:0.5"
         d="M 3,-3 L -3,3 M 0,-5 L  0,5"
         id="path4143" />
    </marker>
    <pattern
       height="8"
       width="8"
       patternUnits="userSpaceOnUse"
       y="0"
       x="0"
       id="Hatch">
      <path
         linecap="square"
         stroke="#000000"
         stroke-width="0.25"
         d="M8 4 l-4,4"
         id="path4146" />
      <path
         linecap="square"
         stroke="#000000"
         stroke-width="0.25"
         d="M6 2 l-4,4"
         id="path4148" />
      <path
         linecap="square"
         stroke="#000000"
         stroke-width="0.25"
         d="M4 0 l-4,4"
         id="path4150" />
    </pattern>
    <marker
       style="overflow:visible"
       refY="0.0"
       refX="0.0"
       orient="auto"
       id="DistanceX-2">
      <path
         id="path15549"
         style="stroke:#000000; stroke-width:0.5"
         d="M 3,-3 L -3,3 M 0,-5 L  0,5" />
    </marker>
    <pattern
       y="0"
       x="0"
       width="8"
       patternUnits="userSpaceOnUse"
       id="Hatch-9"
       height="8">
      <path
         id="path15552"
         stroke-width="0.25"
         stroke="#000000"
         linecap="square"
         d="M8 4 l-4,4" />
      <path
         id="path15554"
         stroke-width="0.25"
         stroke="#000000"
         linecap="square"
         d="M6 2 l-4,4" />
      <path
         id="path15556"
         stroke-width="0.25"
         stroke="#000000"
         linecap="square"
         d="M4 0 l-4,4" />
    </pattern>
    <marker
       style="overflow:visible"
       refY="0.0"
       refX="0.0"
       orient="auto"
       id="DistanceX-7">
      <path
         id="path17650"
         style="stroke:#000000; stroke-width:0.5"
         d="M 3,-3 L -3,3 M 0,-5 L  0,5" />
    </marker>
    <pattern
       y="0"
       x="0"
       width="8"
       patternUnits="userSpaceOnUse"
       id="Hatch-0"
       height="8">
      <path
         id="path17653"
         stroke-width="0.25"
         stroke="#000000"
         linecap="square"
         d="M8 4 l-4,4" />
      <path
         id="path17655"
         stroke-width="0.25"
         stroke="#000000"
         linecap="square"
         d="M6 2 l-4,4" />
      <path
         id="path17657"
         stroke-width="0.25"
         stroke="#000000"
         linecap="square"
         d="M4 0 l-4,4" />
    </pattern>
    <marker
       style="overflow:visible"
       refY="0.0"
       refX="0.0"
       orient="auto"
       id="DistanceX-9">
      <path
         id="path20128"
         style="stroke:#000000; stroke-width:0.5"
         d="M 3,-3 L -3,3 M 0,-5 L  0,5" />
    </marker>
    <pattern
       y="0"
       x="0"
       width="8"
       patternUnits="userSpaceOnUse"
       id="Hatch-3"
       height="8">
      <path
         id="path20131"
         stroke-width="0.25"
         stroke="#000000"
         linecap="square"
         d="M8 4 l-4,4" />
      <path
         id="path20133"
         stroke-width="0.25"
         stroke="#000000"
         linecap="square"
         d="M6 2 l-4,4" />
      <path
         id="path20135"
         stroke-width="0.25"
         stroke="#000000"
         linecap="square"
         d="M4 0 l-4,4" />
    </pattern>
  </defs>
  <g
     inkscape:label="0"
     inkscape:groupmode="layer"
     id="g4152">
    <path
       inkscape:connector-curvature="0"
       d="m 212.17718,280.89596 0,-9.92126 -30.60744,0 0,9.92126 -19.10623,0 3.6e-4,80.90539 -12.62587,7.1e-4 0,49.01474 12.62551,0 0,80.9063 -12.78354,0 0,211.8525 32.39823,23.5389 38.99339,21.4367 41.37236,16.3804 43.09937,11.0661 44.14627,5.5771 44.49714,0 44.14627,-5.5771 43.09937,-11.0661 41.37236,-16.3804 38.99339,-21.4367 32.39823,-23.5389 0,-211.8525 -12.78354,0 -3.6e-4,-80.9059 12.62587,-4e-4 0,-49.01474 -12.62551,0 -3.6e-4,-80.9061 -19.10587,0 0,-9.92126 -30.60744,0 0,9.92126 4.34055,0 0,0.0145 0.2778,10e-6 0.54354,0.11551 0.50741,0.22606 0.44929,0.32634 0.37204,0.41315 0.27744,0.48118 0.17186,0.52831 0.0581,0.5524 -0.0581,0.5524 -0.17187,0.52831 -0.27744,0.48118 -0.37204,0.41315 -0.44929,0.32634 -0.50741,0.22606 -0.54354,0.11551 -0.2778,0 0,5.15233 -0.20905,1.98921 -0.61795,1.90205 -1.00028,1.73196 -1.33831,1.48642 -1.61787,1.17567 -1.82728,0.81319 -1.95626,0.41598 -1.99985,0 -1.95626,-0.41598 -1.82728,-0.81319 -1.61787,-1.17567 -1.33831,-1.48642 -1.00028,-1.73196 -0.61795,-1.90205 -0.20905,-1.98921 0,-5.15233 -0.2778,0 -0.54354,-0.11551 -0.5074,-0.22606 -0.44929,-0.32634 -0.37205,-0.41315 -0.27744,-0.48118 -0.17185,-0.52831 -0.0581,-0.5524 0.0581,-0.5524 0.17186,-0.52866 0.27744,-0.48083 0.37205,-0.41315 0.44929,-0.32634 0.5074,-0.22606 0.54354,-0.11551 0.2778,0 0,-0.0145 4.34055,-2e-5 0,-9.92126 -30.60744,0 0,9.92126 -82.86697,0 0,-9.92126 -71.66764,0 0,9.92126 -82.86697,0 0,-9.92126 -30.60744,0 0,9.92126 4.34055,0 0,0.0145 0.2778,10e-6 0.54354,0.11551 0.5074,0.22606 0.44965,0.32634 0.37169,0.41315 0.2778,0.48118 0.17149,0.52831 0.0581,0.5524 -0.0581,0.5524 -0.1715,0.52831 -0.2778,0.48118 -0.37169,0.41315 -0.44965,0.32634 -0.5074,0.22606 -0.54354,0.11551 -0.2778,0 0,5.15233 -0.20905,1.98921 -0.61795,1.90205 -0.99993,1.73196 -1.3383,1.48642 -1.61823,1.17567 -1.82693,0.81319 -1.95661,0.41598 -1.99985,0 -1.95626,-0.41598 -1.82728,-0.81319 -1.61787,-1.17567 -1.33831,-1.48642 -1.00028,-1.73196 -0.61795,-1.90205 -0.20905,-1.98921 0,-5.15233 -0.2778,0 -0.54319,-0.11551 -0.50776,-0.22606 -0.44929,-0.32634 -0.37169,-0.41315 -0.27779,-0.48118 -0.17186,-0.52831 -0.0581,-0.5524 0.0581,-0.5524 0.17187,-0.52866 0.27779,-0.48083 0.37169,-0.41315 0.44929,-0.32634 0.50776,-0.22606 0.54319,-0.11551 0.2778,0 0,-0.0145 z"
       style="fill:none;stroke:#0000ff;stroke-opacity:1"
       id="path20389"
       sodipodi:nodetypes="ccccccccccccccccccccccccccccccccccccccccccccccccccccccccccccccccccccccccccccccccccccccccccccccccccccccccccccccccccccccccccccccccccccccccccccccccccccccc" />
    <path
       inkscape:connector-curvature="0"
       d="m 167.39651,319.87234 0,-14.17323 7.08661,0 0,14.17323 z"
       style="fill:none;stroke:#ff0000;stroke-opacity:1"
       id="path20445"
       sodipodi:nodetypes="ccccc" />
    <path
       inkscape:connector-curvature="0"
       d="m 576.47981,319.87234 -7.08661,0 0,-14.17323 7.08661,0 z"
       style="fill:none;stroke:#ff0000;stroke-opacity:1"
       id="path20451"
       sodipodi:nodetypes="ccccc" />
    <path
       inkscape:connector-curvature="0"
       d="m 532.57859,361.80206 -13.28846,0 -3.6e-4,-45.47303 13.28882,-3.5e-4 z"
       style="fill:none;stroke:#ff0000;stroke-opacity:1"
       id="path20459"
       sodipodi:nodetypes="ccccc" />
    <path
       inkscape:connector-curvature="0"
       d="m 224.58619,361.80206 -13.28846,0 -3.6e-4,-45.47303 13.28882,-3.5e-4 z"
       style="fill:none;stroke:#ff0000;stroke-opacity:1"
       id="path20467"
       sodipodi:nodetypes="ccccc" />
    <path
       inkscape:connector-curvature="0"
       d="m 476.62552,422.8241 -2.70319,0.649 -2.77157,0.2181 -2.77158,-0.2181 -2.70319,-0.649 -2.56854,-1.0638 -2.37012,-1.4526 -2.11393,-1.8055 -1.80567,-2.1139 -1.45241,-2.3704 -1.06405,-2.5685 -0.64878,-2.7032 -0.21827,-2.7715 0,-70.86614 0.21827,-2.77158 0.64878,-2.70319 1.06405,-2.56818 1.45241,-2.37048 1.80567,-2.11393 2.11393,-1.80567 2.37012,-1.4524 2.56854,-1.06406 2.70319,-0.64878 2.77158,-0.21827 2.77157,0.21827 2.70319,0.64878 2.56819,1.06406 2.37047,1.4524 2.11394,1.80567 1.80567,2.11393 1.4524,2.37048 1.06406,2.56818 0.64878,2.70319 0.21826,2.77158 0,70.86614 -0.21826,2.7715 -0.64878,2.7032 -1.06406,2.5685 -1.4524,2.3704 -1.80567,2.1139 -2.11394,1.8055 -2.37047,1.4526 z"
       style="fill:none;stroke:#ff0000;stroke-opacity:1"
       id="path20547"
       sodipodi:nodetypes="ccccccccccccccccccccccccccccccccccccccccccc" />
    <path
       inkscape:connector-curvature="0"
       d="m 278.20032,422.8241 -2.70318,0.649 -2.77158,0.2181 -2.77157,-0.2181 -2.70319,-0.649 -2.56819,-1.0638 -2.37047,-1.4526 -2.11394,-1.8055 -1.80567,-2.1139 -1.4524,-2.3704 -1.06406,-2.5685 -0.64878,-2.7032 -0.21826,-2.7715 0,-70.86614 0.21826,-2.77158 0.64878,-2.70319 1.06406,-2.56818 1.4524,-2.37048 1.80567,-2.11393 2.11394,-1.80567 2.37047,-1.4524 2.56819,-1.06406 2.70319,-0.64878 2.77157,-0.21827 2.77158,0.21827 2.70318,0.64878 2.56855,1.06406 2.37012,1.4524 2.11393,1.80567 1.80567,2.11393 1.4524,2.37048 1.06406,2.56818 0.64878,2.70319 0.21827,2.77158 0,70.86614 -0.21827,2.7715 -0.64878,2.7032 -1.06406,2.5685 -1.4524,2.3704 -1.80567,2.1139 -2.11393,1.8055 -2.37012,1.4526 z"
       style="fill:none;stroke:#ff0000;stroke-opacity:1"
       id="path20631"
       sodipodi:nodetypes="ccccccccccccccccccccccccccccccccccccccccccc" />
    <path
       inkscape:connector-curvature="0"
       d="m 436.65773,411.2245 -0.81071,-0.195 -0.77067,-0.3191 -0.71114,-0.4358 -0.63426,-0.5416 -0.54141,-0.6342 -0.43583,-0.7111 -0.31925,-0.7706 -0.19453,-0.811 -0.0656,-0.8314 3e-5,-70.86614 0.0656,-0.83126 0.19451,-0.81106 0.31925,-0.77067 0.43583,-0.71115 0.54141,-0.63425 0.63426,-0.54141 0.71114,-0.43583 0.77067,-0.31925 0.81071,-0.19453 0.83161,-0.0656 0.83126,0.0656 0.81106,0.1945 0.77067,0.31925 0.71114,0.43583 0.63426,0.54141 0.54141,0.63425 0.43583,0.71115 0.31925,0.77067 0.19453,0.81106 0.0656,0.83126 -2e-5,70.86614 -0.0656,0.8314 -0.1945,0.811 -0.31925,0.7706 -0.43583,0.7111 -0.54141,0.6342 -0.63426,0.5416 -0.71114,0.4358 -0.77067,0.3191 -0.81106,0.1948 -0.83126,0.0652 z"
       style="fill:none;stroke:#ff0000;stroke-opacity:1"
       id="path20721"
       sodipodi:nodetypes="ccccccccccccccccccccccccccccccccccccccccccc" />
    <path
       inkscape:connector-curvature="0"
       d="m 305.55572,411.2245 -0.81106,-0.195 -0.77067,-0.3191 -0.71115,-0.4358 -0.63425,-0.5416 -0.54141,-0.6342 -0.43583,-0.7111 -0.31925,-0.7706 -0.19453,-0.811 -0.0655,-0.8314 -2e-5,-70.86614 0.0655,-0.83126 0.19456,-0.81106 0.31925,-0.77067 0.43583,-0.71115 0.54141,-0.63425 0.63425,-0.54141 0.71115,-0.43583 0.77067,-0.31925 0.81106,-0.19453 0.83126,-0.0656 0.83161,0.0656 0.81071,0.1945 0.77067,0.31925 0.71114,0.43583 0.63425,0.54141 0.54142,0.63425 0.43583,0.71115 0.31925,0.77067 0.19453,0.81106 0.0655,0.83126 3e-5,70.86614 -0.0655,0.8314 -0.19455,0.811 -0.31925,0.7706 -0.43583,0.7111 -0.54142,0.6342 -0.63425,0.5416 -0.71114,0.4358 -0.77067,0.3191 -0.81071,0.1948 -0.83161,0.0652 z"
       style="fill:none;stroke:#ff0000;stroke-opacity:1"
       id="path20805"
       sodipodi:nodetypes="ccccccccccccccccccccccccccccccccccccccccccc" />
    <path
       inkscape:connector-curvature="0"
       d="m 541.04674,344.67549 0,-14.17323 7.08662,0 0,14.17323 z"
       style="fill:none;stroke:#ff0000;stroke-opacity:1"
       id="path20813"
       sodipodi:nodetypes="ccccc" />
    <path
       inkscape:connector-curvature="0"
       d="m 195.74296,344.67549 0,-14.17323 7.08662,0 0,14.17323 z"
       style="fill:none;stroke:#ff0000;stroke-opacity:1"
       id="path20821"
       sodipodi:nodetypes="ccccc" />
    <path
       inkscape:connector-curvature="0"
       d="m 509.15698,344.67549 0,-14.17323 7.08661,0 0,14.17323 z"
       style="fill:none;stroke:#ff0000;stroke-opacity:1"
       id="path20829"
       sodipodi:nodetypes="ccccc" />
    <path
       inkscape:connector-curvature="0"
       d="m 227.63273,344.67549 0,-14.17323 7.08661,0 0,14.17323 z"
       style="fill:none;stroke:#ff0000;stroke-opacity:1"
       id="path20837"
       sodipodi:nodetypes="ccccc" />
    <path
       inkscape:connector-curvature="0"
       d="m 334.46769,409.8724 1.1335,-3.4886 2.96752,-2.156 3.66807,0 2.96752,2.156 1.1335,3.4886 -1.1335,3.4885 -2.96752,2.156 -3.66807,0 -2.96752,-2.156 z"
       style="fill:none;stroke:#ff0000;stroke-opacity:1"
       id="path20841"
       sodipodi:nodetypes="ccccccccccc" />
    <path
       inkscape:connector-curvature="0"
       d="m 401.63954,404.2278 3.66807,0 2.96752,2.156 1.1335,3.4886 -1.1335,3.4885 -2.96752,2.156 -3.66807,0 -2.96752,-2.156 -1.1335,-3.4885 1.1335,-3.4886 z"
       style="fill:none;stroke:#ff0000;stroke-opacity:1"
       id="path20865"
       sodipodi:nodetypes="ccccccccccc" />
    <path
       inkscape:connector-curvature="0"
       d="m 519.28977,410.8172 13.28882,-4e-4 0,80.9063 -13.28846,0 z"
       style="fill:none;stroke:#ff0000;stroke-opacity:1"
       id="path20879"
       sodipodi:nodetypes="ccccc" />
    <path
       inkscape:connector-curvature="0"
       d="m 224.58619,491.7231 -13.28846,0 -3.6e-4,-80.9059 13.28882,-4e-4 z"
       style="fill:none;stroke:#ff0000;stroke-opacity:1"
       id="path20891"
       sodipodi:nodetypes="ccccc" />
    <path
       inkscape:connector-curvature="0"
       d="m 335.60119,442.5255 2.96752,-2.156 3.66807,0 2.96752,2.156 1.1335,3.4885 -1.1335,3.4886 -2.96752,2.156 -3.66807,0 -2.96752,-2.156 -1.1335,-3.4886 z"
       style="fill:none;stroke:#ff0000;stroke-opacity:1"
       id="path20899"
       sodipodi:nodetypes="ccccccccccc" />
    <path
       inkscape:connector-curvature="0"
       d="m 398.67202,442.5255 2.96752,-2.156 3.66807,0 2.96752,2.156 1.1335,3.4885 -1.1335,3.4886 -2.96752,2.156 -3.66807,0 -2.96752,-2.156 -1.1335,-3.4886 z"
       style="fill:none;stroke:#ff0000;stroke-opacity:1"
       id="path20919"
       sodipodi:nodetypes="ccccccccccc" />
    <path
       inkscape:connector-curvature="0"
       d="m 365.3666,493.8579 -0.33821,-2.1352 0,-42.5197 0.33821,-2.1351 0.98146,-1.9263 1.52869,-1.5287 1.92621,-0.9814 2.1352,-0.3382 2.1352,0.3382 1.92621,0.9814 1.52869,1.5287 0.98146,1.9263 0.33821,2.1351 0,42.5197 -0.33821,2.1352 -0.98146,1.9262 -1.52869,1.5289 -1.92621,0.9815 -2.1352,0.338 -2.1352,-0.338 -1.92621,-0.9815 -1.52869,-1.5289 z"
       style="fill:none;stroke:#ff0000;stroke-opacity:1"
       id="path20939"
       sodipodi:nodetypes="ccccccccccccccccccccccc" />
    <path
       inkscape:connector-curvature="0"
       d="m 290.96013,497.313 -1.92614,0.9815 -2.1352,0.338 -2.1352,-0.338 -1.92614,-0.9815 -1.52894,-1.5289 -0.98114,-1.9262 -0.33838,-2.1352 0,-42.5197 0.33838,-2.1351 0.98114,-1.9263 1.52894,-1.5287 1.92614,-0.9814 2.1352,-0.3382 2.1352,0.3382 1.92614,0.9814 1.52894,1.5287 0.98149,1.9263 0.33803,2.1351 0,42.5197 -0.33803,2.1352 -0.98149,1.9262 z"
       style="fill:none;stroke:#ff0000;stroke-opacity:1"
       id="path21015"
       sodipodi:nodetypes="ccccccccccccccccccccccc" />
    <path
       inkscape:connector-curvature="0"
       d="m 451.38725,495.7841 -0.98149,-1.9262 -0.33803,-2.1352 0,-42.5197 0.33803,-2.1351 0.98149,-1.9263 1.52894,-1.5287 1.92614,-0.9814 2.1352,-0.3382 2.1352,0.3382 1.92614,0.9814 1.52894,1.5287 0.98114,1.9263 0.33838,2.1351 0,42.5197 -0.33838,2.1352 -0.98114,1.9262 -1.52894,1.5289 -1.92614,0.9815 -2.1352,0.338 -2.1352,-0.338 -1.92614,-0.9815 z"
       style="fill:none;stroke:#ff0000;stroke-opacity:1"
       id="path21025"
       sodipodi:nodetypes="ccccccccccccccccccccccc" />
    <path
       inkscape:connector-curvature="0"
       d="m 516.24359,466.9196 -7.08661,0 0,-14.1732 7.08661,0 z"
       style="fill:none;stroke:#ff0000;stroke-opacity:1"
       id="path21071"
       sodipodi:nodetypes="ccccc" />
    <path
       inkscape:connector-curvature="0"
       d="m 576.47981,466.9196 -7.08661,0 0,-14.1732 7.08661,0 z"
       style="fill:none;stroke:#ff0000;stroke-opacity:1"
       id="path21079"
       sodipodi:nodetypes="ccccc" />
    <path
       inkscape:connector-curvature="0"
       d="m 174.48312,452.7464 0,14.1732 -7.08661,0 0,-14.1732 z"
       style="fill:none;stroke:#ff0000;stroke-opacity:1"
       id="path21085"
       sodipodi:nodetypes="ccccc" />
    <path
       inkscape:connector-curvature="0"
       d="m 227.63273,452.7464 7.08661,0 0,14.1732 -7.08661,0 z"
       style="fill:none;stroke:#ff0000;stroke-opacity:1"
       id="path21091"
       sodipodi:nodetypes="ccccc" />
    <path
       inkscape:connector-curvature="0"
       d="m 548.13336,452.7464 0,14.1732 -7.08662,0 0,-14.1732 z"
       style="fill:none;stroke:#ff0000;stroke-opacity:1"
       id="path21101"
       sodipodi:nodetypes="ccccc" />
    <path
       inkscape:connector-curvature="0"
       d="m 202.82958,466.9196 -7.08662,0 0,-14.1732 7.08662,0 z"
       style="fill:none;stroke:#ff0000;stroke-opacity:1"
       id="path21111"
       sodipodi:nodetypes="ccccc" />
    <path
       inkscape:connector-curvature="0"
       d="m 410.39651,518.5725 -1.52859,-1.5286 -0.98149,-1.9261 -0.33803,-2.1352 0.33803,-2.1352 0.98149,-1.9262 1.52859,-1.5285 1.92614,-0.9815 2.13519,-0.3381 2.1352,0.3381 1.92614,0.9815 1.52859,1.5285 0.98149,1.9262 0.33803,2.1352 -0.33803,2.1352 -0.98149,1.9261 -1.52859,1.5286 -1.92614,0.9815 -2.1352,0.338 -2.13519,-0.338 z"
       style="fill:none;stroke:#ff0000;stroke-opacity:1"
       id="path21115"
       sodipodi:nodetypes="ccccccccccccccccccccc" />
    <path
       inkscape:connector-curvature="0"
       d="m 280.32737,510.8474 0.9815,-1.9262 1.52858,-1.5285 1.92614,-0.9815 2.1352,-0.3381 2.1352,0.3381 1.92614,0.9815 1.52858,1.5285 0.9815,1.9262 0.33803,2.1352 -0.33803,2.1352 -0.9815,1.9261 -1.52858,1.5286 -1.92614,0.9815 -2.1352,0.338 -2.1352,-0.338 -1.92614,-0.9815 -1.52858,-1.5286 -0.9815,-1.9261 -0.33803,-2.1352 z"
       style="fill:none;stroke:#ff0000;stroke-opacity:1"
       id="path21163"
       sodipodi:nodetypes="ccccccccccccccccccccc" />
    <path
       inkscape:connector-curvature="0"
       d="m 335.0084,517.0439 -1.52859,1.5286 -1.92614,0.9815 -2.1352,0.338 -2.13519,-0.338 -1.92614,-0.9815 -1.52859,-1.5286 -0.98149,-1.9261 -0.33803,-2.1352 0.33803,-2.1352 0.98149,-1.9262 1.52859,-1.5285 1.92614,-0.9815 2.13519,-0.3381 2.1352,0.3381 1.92614,0.9815 1.52859,1.5285 0.98149,1.9262 0.33803,2.1352 -0.33803,2.1352 z"
       style="fill:none;stroke:#ff0000;stroke-opacity:1"
       id="path21225"
       sodipodi:nodetypes="ccccccccccccccccccccc" />
    <path
       inkscape:connector-curvature="0"
       d="m 497.36202,519.554 -1.92614,-0.9815 -1.52859,-1.5286 -0.98149,-1.9261 -0.33803,-2.1352 0.33803,-2.1352 0.98149,-1.9262 1.52859,-1.5285 1.92614,-0.9815 2.1352,-0.3381 2.13519,0.3381 1.92614,0.9815 1.52859,1.5285 0.98149,1.9262 0.33803,2.1352 -0.33803,2.1352 -0.98149,1.9261 -1.52859,1.5286 -1.92614,0.9815 -2.13519,0.338 z"
       style="fill:none;stroke:#ff0000;stroke-opacity:1"
       id="path21273"
       sodipodi:nodetypes="ccccccccccccccccccccc" />
    <path
       inkscape:connector-curvature="0"
       d="m 377.52801,517.0439 -1.52858,1.5286 -1.92618,0.9815 -2.13509,0.338 -2.13509,-0.338 -1.92618,-0.9815 -1.52858,-1.5286 -0.98139,-1.9261 -0.33821,-2.1352 0.33821,-2.1352 0.98139,-1.9262 1.52858,-1.5285 1.92618,-0.9815 2.13509,-0.3381 2.13509,0.3381 1.92618,0.9815 1.52858,1.5285 0.98139,1.9262 0.33821,2.1352 -0.33821,2.1352 z"
       style="fill:none;stroke:#ff0000;stroke-opacity:1"
       id="path21305"
       sodipodi:nodetypes="ccccccccccccccccccccc" />
    <path
       inkscape:connector-curvature="0"
       d="m 249.96903,517.0439 -1.52859,1.5286 -1.92614,0.9815 -2.1352,0.338 -2.13519,-0.338 -1.92614,-0.9815 -1.52859,-1.5286 -0.98149,-1.9261 -0.33803,-2.1352 0.33803,-2.1352 0.98149,-1.9262 1.52859,-1.5285 1.92614,-0.9815 2.13519,-0.3381 2.1352,0.3381 1.92614,0.9815 1.52859,1.5285 0.98149,1.9262 0.33803,2.1352 -0.33803,2.1352 z"
       style="fill:none;stroke:#ff0000;stroke-opacity:1"
       id="path21345"
       sodipodi:nodetypes="ccccccccccccccccccccc" />
    <path
       inkscape:connector-curvature="0"
       d="m 450.40611,510.8474 0.9815,-1.9262 1.52858,-1.5285 1.92614,-0.9815 2.1352,-0.3381 2.1352,0.3381 1.92614,0.9815 1.52858,1.5285 0.9815,1.9262 0.33803,2.1352 -0.33803,2.1352 -0.9815,1.9261 -1.52858,1.5286 -1.92614,0.9815 -2.1352,0.338 -2.1352,-0.338 -1.92614,-0.9815 -1.52858,-1.5286 -0.9815,-1.9261 -0.33803,-2.1352 z"
       style="fill:none;stroke:#ff0000;stroke-opacity:1"
       id="path21363"
       sodipodi:nodetypes="ccccccccccccccccccccc" />
    <path
       inkscape:connector-curvature="0"
       d="m 365.3666,532.1072 0.98146,-1.9261 1.52869,-1.529 1.92621,-0.9811 2.1352,-0.3384 2.1352,0.3384 1.92621,0.9811 1.52869,1.529 0.98146,1.9261 0.33821,2.1352 0,42.5197 -0.33821,2.1352 -0.98146,1.9261 -1.52869,1.529 -1.92621,0.9815 -2.1352,0.338 -2.1352,-0.338 -1.92621,-0.9815 -1.52869,-1.529 -0.98146,-1.9261 -0.33821,-2.1352 0,-42.5197 z"
       style="fill:none;stroke:#ff0000;stroke-opacity:1"
       id="path21405"
       sodipodi:nodetypes="ccccccccccccccccccccccc" />
    <path
       inkscape:connector-curvature="0"
       d="m 281.30851,530.1811 1.52894,-1.529 1.92614,-0.9811 2.1352,-0.3384 2.1352,0.3384 1.92614,0.9811 1.52894,1.529 0.98149,1.9261 0.33803,2.1352 0,42.5197 -0.33803,2.1352 -0.98149,1.9261 -1.52894,1.529 -1.92614,0.9815 -2.1352,0.338 -2.1352,-0.338 -1.92614,-0.9815 -1.52894,-1.529 -0.98114,-1.9261 -0.33838,-2.1352 0,-42.5197 0.33838,-2.1352 z"
       style="fill:none;stroke:#ff0000;stroke-opacity:1"
       id="path21451"
       sodipodi:nodetypes="ccccccccccccccccccccccc" />
    <path
       inkscape:connector-curvature="0"
       d="m 463.88733,576.7621 -0.33838,2.1352 -0.98114,1.9261 -1.52894,1.529 -1.92614,0.9815 -2.1352,0.338 -2.1352,-0.338 -1.92614,-0.9815 -1.52894,-1.529 -0.98149,-1.9261 -0.33803,-2.1352 0,-42.5197 0.33803,-2.1352 0.98149,-1.9261 1.52894,-1.529 1.92614,-0.9811 2.1352,-0.3384 2.1352,0.3384 1.92614,0.9811 1.52894,1.529 0.98114,1.9261 0.33838,2.1352 z"
       style="fill:none;stroke:#ff0000;stroke-opacity:1"
       id="path21513"
       sodipodi:nodetypes="ccccccccccccccccccccccc" />
    <path
       inkscape:connector-curvature="0"
       d="m 407.88643,557.6375 -0.33803,-2.1352 0.33803,-2.1352 0.98149,-1.9262 1.52859,-1.5286 1.92614,-0.9815 2.13519,-0.338 2.1352,0.338 1.92614,0.9815 1.52859,1.5286 0.98149,1.9262 0.33803,2.1352 -0.33803,2.1352 -0.98149,1.9261 -1.52859,1.5286 -1.92614,0.9815 -2.1352,0.338 -2.13519,-0.338 -1.92614,-0.9815 -1.52859,-1.5286 z"
       style="fill:none;stroke:#ff0000;stroke-opacity:1"
       id="path21531"
       sodipodi:nodetypes="ccccccccccccccccccccc" />
    <path
       inkscape:connector-curvature="0"
       d="m 506.06863,553.3671 0.33803,2.1352 -0.33803,2.1352 -0.98149,1.9261 -1.52859,1.5286 -1.92614,0.9815 -2.13519,0.338 -2.1352,-0.338 -1.92614,-0.9815 -1.52859,-1.5286 -0.98149,-1.9261 -0.33803,-2.1352 0.33803,-2.1352 0.98149,-1.9262 1.52859,-1.5286 1.92614,-0.9815 2.1352,-0.338 2.13519,0.338 1.92614,0.9815 1.52859,1.5286 z"
       style="fill:none;stroke:#ff0000;stroke-opacity:1"
       id="path21591"
       sodipodi:nodetypes="ccccccccccccccccccccc" />
    <path
       inkscape:connector-curvature="0"
       d="m 250.95052,557.6375 -0.98149,1.9261 -1.52859,1.5286 -1.92614,0.9815 -2.1352,0.338 -2.13519,-0.338 -1.92614,-0.9815 -1.52859,-1.5286 -0.98149,-1.9261 -0.33803,-2.1352 0.33803,-2.1352 0.98149,-1.9262 1.52859,-1.5286 1.92614,-0.9815 2.13519,-0.338 2.1352,0.338 1.92614,0.9815 1.52859,1.5286 0.98149,1.9262 0.33803,2.1352 z"
       style="fill:none;stroke:#ff0000;stroke-opacity:1"
       id="path21635"
       sodipodi:nodetypes="ccccccccccccccccccccc" />
    <path
       inkscape:connector-curvature="0"
       d="m 335.98989,557.6375 -0.98149,1.9261 -1.52859,1.5286 -1.92614,0.9815 -2.1352,0.338 -2.13519,-0.338 -1.92614,-0.9815 -1.52859,-1.5286 -0.98149,-1.9261 -0.33803,-2.1352 0.33803,-2.1352 0.98149,-1.9262 1.52859,-1.5286 1.92614,-0.9815 2.13519,-0.338 2.1352,0.338 1.92614,0.9815 1.52859,1.5286 0.98149,1.9262 0.33803,2.1352 z"
       style="fill:none;stroke:#ff0000;stroke-opacity:1"
       id="path21675"
       sodipodi:nodetypes="ccccccccccccccccccccc" />
    <path
       inkscape:connector-curvature="0"
       d="m 164.03037,585.7975 38.62204,0 0,102.4016 -38.62204,0 z"
       style="fill:none;stroke:#ff0000;stroke-opacity:1"
       id="path21687"
       sodipodi:nodetypes="ccccc" />
    <path
       inkscape:connector-curvature="0"
       d="m 541.22391,688.1991 0,-102.4016 38.62204,0 0,102.4016 z"
       style="fill:none;stroke:#ff0000;stroke-opacity:1"
       id="path21701"
       sodipodi:nodetypes="ccccc" />
    <path
       inkscape:connector-curvature="0"
       d="m 325.35714,603.6119 -1.52859,-1.5286 -0.98149,-1.9262 -0.33803,-2.1352 0.33803,-2.1352 0.98149,-1.9261 1.52859,-1.5286 1.92614,-0.9815 2.13519,-0.338 2.1352,0.338 1.92614,0.9815 1.52859,1.5286 0.98149,1.9261 0.33803,2.1352 -0.33803,2.1352 -0.98149,1.9262 -1.52859,1.5286 -1.92614,0.9815 -2.1352,0.338 -2.13519,-0.338 z"
       style="fill:none;stroke:#ff0000;stroke-opacity:1"
       id="path21703"
       sodipodi:nodetypes="ccccccccccccccccccccc" />
    <path
       inkscape:connector-curvature="0"
       d="m 410.39651,603.6119 -1.52859,-1.5286 -0.98149,-1.9262 -0.33803,-2.1352 0.33803,-2.1352 0.98149,-1.9261 1.52859,-1.5286 1.92614,-0.9815 2.13519,-0.338 2.1352,0.338 1.92614,0.9815 1.52859,1.5286 0.98149,1.9261 0.33803,2.1352 -0.33803,2.1352 -0.98149,1.9262 -1.52859,1.5286 -1.92614,0.9815 -2.1352,0.338 -2.13519,-0.338 z"
       style="fill:none;stroke:#ff0000;stroke-opacity:1"
       id="path21743"
       sodipodi:nodetypes="ccccccccccccccccccccc" />
    <path
       inkscape:connector-curvature="0"
       d="m 463.54895,600.1571 -0.9815,1.9262 -1.52858,1.5286 -1.92614,0.9815 -2.1352,0.338 -2.1352,-0.338 -1.92614,-0.9815 -1.52858,-1.5286 -0.9815,-1.9262 -0.33803,-2.1352 0.33803,-2.1352 0.9815,-1.9261 1.52858,-1.5286 1.92614,-0.9815 2.1352,-0.338 2.1352,0.338 1.92614,0.9815 1.52858,1.5286 0.9815,1.9261 0.33803,2.1352 z"
       style="fill:none;stroke:#ff0000;stroke-opacity:1"
       id="path21811"
       sodipodi:nodetypes="ccccccccccccccccccccc" />
    <path
       inkscape:connector-curvature="0"
       d="m 378.5094,600.1571 -0.98139,1.9262 -1.52858,1.5286 -1.92618,0.9815 -2.13509,0.338 -2.13509,-0.338 -1.92618,-0.9815 -1.52858,-1.5286 -0.98139,-1.9262 -0.33821,-2.1352 0.33821,-2.1352 0.98139,-1.9261 1.52858,-1.5286 1.92618,-0.9815 2.13509,-0.338 2.13509,0.338 1.92618,0.9815 1.52858,1.5286 0.98139,1.9261 0.33821,2.1352 z"
       style="fill:none;stroke:#ff0000;stroke-opacity:1"
       id="path21851"
       sodipodi:nodetypes="ccccccccccccccccccccc" />
    <path
       inkscape:connector-curvature="0"
       d="m 281.30887,593.9606 1.52858,-1.5286 1.92614,-0.9815 2.1352,-0.338 2.1352,0.338 1.92614,0.9815 1.52858,1.5286 0.9815,1.9261 0.33803,2.1352 -0.33803,2.1352 -0.9815,1.9262 -1.52858,1.5286 -1.92614,0.9815 -2.1352,0.338 -2.1352,-0.338 -1.92614,-0.9815 -1.52858,-1.5286 -0.9815,-1.9262 -0.33803,-2.1352 0.33803,-2.1352 z"
       style="fill:none;stroke:#ff0000;stroke-opacity:1"
       id="path21873"
       sodipodi:nodetypes="ccccccccccccccccccccc" />
    <path
       inkscape:connector-curvature="0"
       d="m 497.36202,604.5934 -1.92614,-0.9815 -1.52859,-1.5286 -0.98149,-1.9262 -0.33803,-2.1352 0.33803,-2.1352 0.98149,-1.9261 1.52859,-1.5286 1.92614,-0.9815 2.1352,-0.338 2.13519,0.338 1.92614,0.9815 1.52859,1.5286 0.98149,1.9261 0.33803,2.1352 -0.33803,2.1352 -0.98149,1.9262 -1.52859,1.5286 -1.92614,0.9815 -2.13519,0.338 z"
       style="fill:none;stroke:#ff0000;stroke-opacity:1"
       id="path21941"
       sodipodi:nodetypes="ccccccccccccccccccccc" />
    <path
       inkscape:connector-curvature="0"
       d="m 250.95052,600.1571 -0.98149,1.9262 -1.52859,1.5286 -1.92614,0.9815 -2.1352,0.338 -2.13519,-0.338 -1.92614,-0.9815 -1.52859,-1.5286 -0.98149,-1.9262 -0.33803,-2.1352 0.33803,-2.1352 0.98149,-1.9261 1.52859,-1.5286 1.92614,-0.9815 2.13519,-0.338 2.1352,0.338 1.92614,0.9815 1.52859,1.5286 0.98149,1.9261 0.33803,2.1352 z"
       style="fill:none;stroke:#ff0000;stroke-opacity:1"
       id="path21971"
       sodipodi:nodetypes="ccccccccccccccccccccc" />
    <path
       inkscape:connector-curvature="0"
       d="m 369.80296,668.3729 -1.92621,-0.9812 -1.52869,-1.5289 -0.98146,-1.9261 -0.33821,-2.1352 0,-42.5197 0.33821,-2.1352 0.98146,-1.9262 1.52869,-1.5289 1.92621,-0.9811 2.1352,-0.3384 2.1352,0.3384 1.92621,0.9811 1.52869,1.5289 0.98146,1.9262 0.33821,2.1352 0,42.5197 -0.33821,2.1352 -0.98146,1.9261 -1.52869,1.5289 -1.92621,0.9812 -2.1352,0.3384 z"
       style="fill:none;stroke:#ff0000;stroke-opacity:1"
       id="path22025"
       sodipodi:nodetypes="ccccccccccccccccccccccc" />
    <path
       inkscape:connector-curvature="0"
       d="m 462.56781,665.8628 -1.52894,1.5289 -1.92614,0.9812 -2.1352,0.3384 -2.1352,-0.3384 -1.92614,-0.9812 -1.52894,-1.5289 -0.98149,-1.9261 -0.33803,-2.1352 0,-42.5197 0.33803,-2.1352 0.98149,-1.9262 1.52894,-1.5289 1.92614,-0.9811 2.1352,-0.3384 2.1352,0.3384 1.92614,0.9811 1.52894,1.5289 0.98114,1.9262 0.33838,2.1352 0,42.5197 -0.33838,2.1352 z"
       style="fill:none;stroke:#ff0000;stroke-opacity:1"
       id="path22061"
       sodipodi:nodetypes="ccccccccccccccccccccccc" />
    <path
       inkscape:connector-curvature="0"
       d="m 282.83745,667.3917 -1.52894,-1.5289 -0.98114,-1.9261 -0.33838,-2.1352 0,-42.5197 0.33838,-2.1352 0.98114,-1.9262 1.52894,-1.5289 1.92614,-0.9811 2.1352,-0.3384 2.1352,0.3384 1.92614,0.9811 1.52894,1.5289 0.98149,1.9262 0.33803,2.1352 0,42.5197 -0.33803,2.1352 -0.98149,1.9261 -1.52894,1.5289 -1.92614,0.9812 -2.1352,0.3384 -2.1352,-0.3384 z"
       style="fill:none;stroke:#ff0000;stroke-opacity:1"
       id="path22071"
       sodipodi:nodetypes="ccccccccccccccccccccccc" />
    <path
       inkscape:connector-curvature="0"
       d="m 249.96903,644.603 -1.52859,1.5286 -1.92614,0.9814 -2.1352,0.3381 -2.13519,-0.3381 -1.92614,-0.9814 -1.52859,-1.5286 -0.98149,-1.9262 -0.33803,-2.1352 0.33803,-2.1352 0.98149,-1.9261 1.52859,-1.5286 1.92614,-0.9815 2.13519,-0.338 2.1352,0.338 1.92614,0.9815 1.52859,1.5286 0.98149,1.9261 0.33803,2.1352 -0.33803,2.1352 z"
       style="fill:none;stroke:#ff0000;stroke-opacity:1"
       id="path22145"
       sodipodi:nodetypes="ccccccccccccccccccccc" />
    <path
       inkscape:connector-curvature="0"
       d="m 327.28328,647.113 -1.92614,-0.9814 -1.52859,-1.5286 -0.98149,-1.9262 -0.33803,-2.1352 0.33803,-2.1352 0.98149,-1.9261 1.52859,-1.5286 1.92614,-0.9815 2.13519,-0.338 2.1352,0.338 1.92614,0.9815 1.52859,1.5286 0.98149,1.9261 0.33803,2.1352 -0.33803,2.1352 -0.98149,1.9262 -1.52859,1.5286 -1.92614,0.9814 -2.1352,0.3381 z"
       style="fill:none;stroke:#ff0000;stroke-opacity:1"
       id="path22193"
       sodipodi:nodetypes="ccccccccccccccccccccc" />
    <path
       inkscape:connector-curvature="0"
       d="m 410.39651,646.1316 -1.52859,-1.5286 -0.98149,-1.9262 -0.33803,-2.1352 0.33803,-2.1352 0.98149,-1.9261 1.52859,-1.5286 1.92614,-0.9815 2.13519,-0.338 2.1352,0.338 1.92614,0.9815 1.52859,1.5286 0.98149,1.9261 0.33803,2.1352 -0.33803,2.1352 -0.98149,1.9262 -1.52859,1.5286 -1.92614,0.9814 -2.1352,0.3381 -2.13519,-0.3381 z"
       style="fill:none;stroke:#ff0000;stroke-opacity:1"
       id="path22195"
       sodipodi:nodetypes="ccccccccccccccccccccc" />
    <path
       inkscape:connector-curvature="0"
       d="m 501.63241,647.113 -2.13519,0.3381 -2.1352,-0.3381 -1.92614,-0.9814 -1.52859,-1.5286 -0.98149,-1.9262 -0.33803,-2.1352 0.33803,-2.1352 0.98149,-1.9261 1.52859,-1.5286 1.92614,-0.9815 2.1352,-0.338 2.13519,0.338 1.92614,0.9815 1.52859,1.5286 0.98149,1.9261 0.33803,2.1352 -0.33803,2.1352 -0.98149,1.9262 -1.52859,1.5286 z"
       style="fill:none;stroke:#ff0000;stroke-opacity:1"
       id="path22269"
       sodipodi:nodetypes="ccccccccccccccccccccc" />
    <path
       inkscape:connector-curvature="0"
       d="m 451.38761,679 1.52858,-1.5286 1.92614,-0.9815 2.1352,-0.338 2.1352,0.338 1.92614,0.9815 1.52858,1.5286 0.9815,1.9261 0.33803,2.1352 -0.33803,2.1352 -0.9815,1.9262 -1.52858,1.5285 -1.92614,0.9815 -2.1352,0.3381 -2.1352,-0.3381 -1.92614,-0.9815 -1.52858,-1.5285 -0.9815,-1.9262 -0.33803,-2.1352 0.33803,-2.1352 z"
       style="fill:none;stroke:#ff0000;stroke-opacity:1"
       id="path22285"
       sodipodi:nodetypes="ccccccccccccccccccccc" />
    <path
       inkscape:connector-curvature="0"
       d="m 250.95052,685.1965 -0.98149,1.9262 -1.52859,1.5285 -1.92614,0.9815 -2.1352,0.3381 -2.13519,-0.3381 -1.92614,-0.9815 -1.52859,-1.5285 -0.98149,-1.9262 -0.33803,-2.1352 0.33803,-2.1352 0.98149,-1.9261 1.52859,-1.5286 1.92614,-0.9815 2.13519,-0.338 2.1352,0.338 1.92614,0.9815 1.52859,1.5286 0.98149,1.9261 0.33803,2.1352 z"
       style="fill:none;stroke:#ff0000;stroke-opacity:1"
       id="path22343"
       sodipodi:nodetypes="ccccccccccccccccccccc" />
    <path
       inkscape:connector-curvature="0"
       d="m 378.5094,685.1965 -0.98139,1.9262 -1.52858,1.5285 -1.92618,0.9815 -2.13509,0.3381 -2.13509,-0.3381 -1.92618,-0.9815 -1.52858,-1.5285 -0.98139,-1.9262 -0.33821,-2.1352 0.33821,-2.1352 0.98139,-1.9261 1.52858,-1.5286 1.92618,-0.9815 2.13509,-0.338 2.13509,0.338 1.92618,0.9815 1.52858,1.5286 0.98139,1.9261 0.33821,2.1352 z"
       style="fill:none;stroke:#ff0000;stroke-opacity:1"
       id="path22383"
       sodipodi:nodetypes="ccccccccccccccccccccc" />
    <path
       inkscape:connector-curvature="0"
       d="m 323.82855,679 1.52859,-1.5286 1.92614,-0.9815 2.13519,-0.338 2.1352,0.338 1.92614,0.9815 1.52859,1.5286 0.98149,1.9261 0.33803,2.1352 -0.33803,2.1352 -0.98149,1.9262 -1.52859,1.5285 -1.92614,0.9815 -2.1352,0.3381 -2.13519,-0.3381 -1.92614,-0.9815 -1.52859,-1.5285 -0.98149,-1.9262 -0.33803,-2.1352 0.33803,-2.1352 z"
       style="fill:none;stroke:#ff0000;stroke-opacity:1"
       id="path22405"
       sodipodi:nodetypes="ccccccccccccccccccccc" />
    <path
       inkscape:connector-curvature="0"
       d="m 416.59304,676.4899 1.92614,0.9815 1.52859,1.5286 0.98149,1.9261 0.33803,2.1352 -0.33803,2.1352 -0.98149,1.9262 -1.52859,1.5285 -1.92614,0.9815 -2.1352,0.3381 -2.13519,-0.3381 -1.92614,-0.9815 -1.52859,-1.5285 -0.98149,-1.9262 -0.33803,-2.1352 0.33803,-2.1352 0.98149,-1.9261 1.52859,-1.5286 1.92614,-0.9815 2.13519,-0.338 z"
       style="fill:none;stroke:#ff0000;stroke-opacity:1"
       id="path22453"
       sodipodi:nodetypes="ccccccccccccccccccccc" />
    <path
       inkscape:connector-curvature="0"
       d="m 281.30887,679 1.52858,-1.5286 1.92614,-0.9815 2.1352,-0.338 2.1352,0.338 1.92614,0.9815 1.52858,1.5286 0.9815,1.9261 0.33803,2.1352 -0.33803,2.1352 -0.9815,1.9262 -1.52858,1.5285 -1.92614,0.9815 -2.1352,0.3381 -2.1352,-0.3381 -1.92614,-0.9815 -1.52858,-1.5285 -0.9815,-1.9262 -0.33803,-2.1352 0.33803,-2.1352 z"
       style="fill:none;stroke:#ff0000;stroke-opacity:1"
       id="path22485"
       sodipodi:nodetypes="ccccccccccccccccccccc" />
    <path
       inkscape:connector-curvature="0"
       d="m 501.63241,676.4899 1.92614,0.9815 1.52859,1.5286 0.98149,1.9261 0.33803,2.1352 -0.33803,2.1352 -0.98149,1.9262 -1.52859,1.5285 -1.92614,0.9815 -2.13519,0.3381 -2.1352,-0.3381 -1.92614,-0.9815 -1.52859,-1.5285 -0.98149,-1.9262 -0.33803,-2.1352 0.33803,-2.1352 0.98149,-1.9261 1.52859,-1.5286 1.92614,-0.9815 2.1352,-0.338 z"
       style="fill:none;stroke:#ff0000;stroke-opacity:1"
       id="path22533"
       sodipodi:nodetypes="ccccccccccccccccccccc" />
    <path
       inkscape:connector-curvature="0"
       d="m 510.25647,707.4683 3.28464,0 2.65748,1.9308 1.01516,3.1238 -1.01516,3.1241 -2.65748,1.9307 -3.28464,0 -2.65748,-1.9307 -1.01516,-3.1241 1.01516,-3.1238 z"
       style="fill:none;stroke:#ff0000;stroke-opacity:1"
       id="path22561"
       sodipodi:nodetypes="ccccccccccc" />
    <path
       inkscape:connector-curvature="0"
       d="m 236.27733,715.647 -2.65748,1.9307 -3.28464,0 -2.65748,-1.9307 -1.01516,-3.1241 1.01516,-3.1238 2.65748,-1.9308 3.28464,0 2.65748,1.9308 1.01516,3.1238 z"
       style="fill:none;stroke:#ff0000;stroke-opacity:1"
       id="path22589"
       sodipodi:nodetypes="ccccccccccc" />
    <path
       inkscape:connector-curvature="0"
       d="m 322.84706,723.4458 0.98149,-1.9261 1.52859,-1.5286 1.92614,-0.9815 2.13519,-0.338 2.1352,0.338 1.92614,0.9815 1.52859,1.5286 0.98149,1.9261 0.33803,2.1352 -0.33803,2.1352 -0.98149,1.9261 -1.52859,1.5286 -1.92614,0.9815 -2.1352,0.338 -2.13519,-0.338 -1.92614,-0.9815 -1.52859,-1.5286 -0.98149,-1.9261 -0.33803,-2.1352 z"
       style="fill:none;stroke:#ff0000;stroke-opacity:1"
       id="path22603"
       sodipodi:nodetypes="ccccccccccccccccccccc" />
    <path
       inkscape:connector-curvature="0"
       d="m 450.40611,723.4458 0.9815,-1.9261 1.52858,-1.5286 1.92614,-0.9815 2.1352,-0.338 2.1352,0.338 1.92614,0.9815 1.52858,1.5286 0.9815,1.9261 0.33803,2.1352 -0.33803,2.1352 -0.9815,1.9261 -1.52858,1.5286 -1.92614,0.9815 -2.1352,0.338 -2.1352,-0.338 -1.92614,-0.9815 -1.52858,-1.5286 -0.9815,-1.9261 -0.33803,-2.1352 z"
       style="fill:none;stroke:#ff0000;stroke-opacity:1"
       id="path22643"
       sodipodi:nodetypes="ccccccccccccccccccccc" />
    <path
       inkscape:connector-curvature="0"
       d="m 280.32737,723.4458 0.9815,-1.9261 1.52858,-1.5286 1.92614,-0.9815 2.1352,-0.338 2.1352,0.338 1.92614,0.9815 1.52858,1.5286 0.9815,1.9261 0.33803,2.1352 -0.33803,2.1352 -0.9815,1.9261 -1.52858,1.5286 -1.92614,0.9815 -2.1352,0.338 -2.1352,-0.338 -1.92614,-0.9815 -1.52858,-1.5286 -0.9815,-1.9261 -0.33803,-2.1352 z"
       style="fill:none;stroke:#ff0000;stroke-opacity:1"
       id="path22683"
       sodipodi:nodetypes="ccccccccccccccccccccc" />
    <path
       inkscape:connector-curvature="0"
       d="m 410.39651,731.1709 -1.52859,-1.5286 -0.98149,-1.9261 -0.33803,-2.1352 0.33803,-2.1352 0.98149,-1.9261 1.52859,-1.5286 1.92614,-0.9815 2.13519,-0.338 2.1352,0.338 1.92614,0.9815 1.52859,1.5286 0.98149,1.9261 0.33803,2.1352 -0.33803,2.1352 -0.98149,1.9261 -1.52859,1.5286 -1.92614,0.9815 -2.1352,0.338 -2.13519,-0.338 z"
       style="fill:none;stroke:#ff0000;stroke-opacity:1"
       id="path22715"
       sodipodi:nodetypes="ccccccccccccccccccccc" />
    <path
       inkscape:connector-curvature="0"
       d="m 377.52801,729.6423 -1.52858,1.5286 -1.92618,0.9815 -2.13509,0.338 -2.13509,-0.338 -1.92618,-0.9815 -1.52858,-1.5286 -0.98139,-1.9261 -0.33821,-2.1352 0.33821,-2.1352 0.98139,-1.9261 1.52858,-1.5286 1.92618,-0.9815 2.13509,-0.338 2.13509,0.338 1.92618,0.9815 1.52858,1.5286 0.98139,1.9261 0.33821,2.1352 -0.33821,2.1352 z"
       style="fill:none;stroke:#ff0000;stroke-opacity:1"
       id="path22785"
       sodipodi:nodetypes="ccccccccccccccccccccc" />
  </g>
</svg>
