<?xml version="1.0" encoding="UTF-8" standalone="no"?>
<svg
   xmlns:dc="http://purl.org/dc/elements/1.1/"
   xmlns:cc="http://creativecommons.org/ns#"
   xmlns:rdf="http://www.w3.org/1999/02/22-rdf-syntax-ns#"
   xmlns:svg="http://www.w3.org/2000/svg"
   xmlns="http://www.w3.org/2000/svg"
   xmlns:sodipodi="http://sodipodi.sourceforge.net/DTD/sodipodi-0.dtd"
   xmlns:inkscape="http://www.inkscape.org/namespaces/inkscape"
   width="125.73461mm"
   height="144.58223mm"
   id="svg4136"
   version="1.1"
   inkscape:version="0.91 r13725"
   sodipodi:docname="top_accessory.svg">
  <metadata
     id="metadata5260">
    <rdf:RDF>
      <cc:Work
         rdf:about="">
        <dc:format>image/svg+xml</dc:format>
        <dc:type
           rdf:resource="http://purl.org/dc/dcmitype/StillImage" />
        <dc:title></dc:title>
      </cc:Work>
    </rdf:RDF>
  </metadata>
  <sodipodi:namedview
     pagecolor="#ffffff"
     bordercolor="#666666"
     borderopacity="1"
     objecttolerance="10"
     gridtolerance="10"
     guidetolerance="10"
     inkscape:pageopacity="0"
     inkscape:pageshadow="2"
     inkscape:window-width="3734"
     inkscape:window-height="2121"
     id="namedview5258"
     showgrid="false"
     inkscape:zoom="1.4142136"
     inkscape:cx="114.30003"
     inkscape:cy="255.17643"
     inkscape:window-x="106"
     inkscape:window-y="39"
     inkscape:window-maximized="1"
     inkscape:current-layer="g4152"
     inkscape:document-units="mm"
     units="mm"
     fit-margin-top="0"
     fit-margin-left="0"
     fit-margin-right="0"
     fit-margin-bottom="0" />
  <desc
     id="desc4138">C:\Share\Robotics\Whr_bot\Parts\61r\top.dxf - scale = 1.000000, origin = (0.000000, 0.000000), auto = False</desc>
  <defs
     id="defs4140">
    <marker
       refY="0"
       refX="0"
       style="overflow:visible"
       id="DistanceX"
       orient="auto">
      <path
         style="stroke:#000000;stroke-width:0.5"
         d="M 3,-3 -3,3 M 0,-5 0,5"
         id="path4143"
         inkscape:connector-curvature="0" />
    </marker>
    <pattern
       height="8"
       width="8"
       patternUnits="userSpaceOnUse"
       y="0"
       x="0"
       id="Hatch">
      <path
         linecap="square"
         stroke="#000000"
         stroke-width="0.25"
         d="M8 4 l-4,4"
         id="path4146" />
      <path
         linecap="square"
         stroke="#000000"
         stroke-width="0.25"
         d="M6 2 l-4,4"
         id="path4148" />
      <path
         linecap="square"
         stroke="#000000"
         stroke-width="0.25"
         d="M4 0 l-4,4"
         id="path4150" />
    </pattern>
    <marker
       style="overflow:visible"
       refY="0"
       refX="0"
       orient="auto"
       id="DistanceX-2">
      <path
         id="path15549"
         style="stroke:#000000;stroke-width:0.5"
         d="M 3,-3 -3,3 M 0,-5 0,5"
         inkscape:connector-curvature="0" />
    </marker>
    <pattern
       y="0"
       x="0"
       width="8"
       patternUnits="userSpaceOnUse"
       id="Hatch-9"
       height="8">
      <path
         id="path15552"
         stroke-width="0.25"
         stroke="#000000"
         linecap="square"
         d="M8 4 l-4,4" />
      <path
         id="path15554"
         stroke-width="0.25"
         stroke="#000000"
         linecap="square"
         d="M6 2 l-4,4" />
      <path
         id="path15556"
         stroke-width="0.25"
         stroke="#000000"
         linecap="square"
         d="M4 0 l-4,4" />
    </pattern>
    <marker
       style="overflow:visible"
       refY="0"
       refX="0"
       orient="auto"
       id="DistanceX-7">
      <path
         id="path17650"
         style="stroke:#000000;stroke-width:0.5"
         d="M 3,-3 -3,3 M 0,-5 0,5"
         inkscape:connector-curvature="0" />
    </marker>
    <pattern
       y="0"
       x="0"
       width="8"
       patternUnits="userSpaceOnUse"
       id="Hatch-0"
       height="8">
      <path
         id="path17653"
         stroke-width="0.25"
         stroke="#000000"
         linecap="square"
         d="M8 4 l-4,4" />
      <path
         id="path17655"
         stroke-width="0.25"
         stroke="#000000"
         linecap="square"
         d="M6 2 l-4,4" />
      <path
         id="path17657"
         stroke-width="0.25"
         stroke="#000000"
         linecap="square"
         d="M4 0 l-4,4" />
    </pattern>
    <marker
       style="overflow:visible"
       refY="0"
       refX="0"
       orient="auto"
       id="DistanceX-9">
      <path
         id="path20128"
         style="stroke:#000000;stroke-width:0.5"
         d="M 3,-3 -3,3 M 0,-5 0,5"
         inkscape:connector-curvature="0" />
    </marker>
    <pattern
       y="0"
       x="0"
       width="8"
       patternUnits="userSpaceOnUse"
       id="Hatch-3"
       height="8">
      <path
         id="path20131"
         stroke-width="0.25"
         stroke="#000000"
         linecap="square"
         d="M8 4 l-4,4" />
      <path
         id="path20133"
         stroke-width="0.25"
         stroke="#000000"
         linecap="square"
         d="M6 2 l-4,4" />
      <path
         id="path20135"
         stroke-width="0.25"
         stroke="#000000"
         linecap="square"
         d="M4 0 l-4,4" />
    </pattern>
    <marker
       style="overflow:visible"
       refY="0"
       refX="0"
       orient="auto"
       id="DistanceX-5">
      <path
         id="path12820"
         style="stroke:#000000;stroke-width:0.5"
         d="M 3,-3 -3,3 M 0,-5 0,5"
         inkscape:connector-curvature="0" />
    </marker>
    <pattern
       y="0"
       x="0"
       width="8"
       patternUnits="userSpaceOnUse"
       id="Hatch-03"
       height="8">
      <path
         id="path12823"
         stroke-width="0.25"
         stroke="#000000"
         linecap="square"
         d="M8 4 l-4,4" />
      <path
         id="path12825"
         stroke-width="0.25"
         stroke="#000000"
         linecap="square"
         d="M6 2 l-4,4" />
      <path
         id="path12827"
         stroke-width="0.25"
         stroke="#000000"
         linecap="square"
         d="M4 0 l-4,4" />
    </pattern>
  </defs>
  <g
     inkscape:label="0"
     inkscape:groupmode="layer"
     id="g4152"
     transform="translate(-152.71555,-254.56855)">
    <path
       inkscape:connector-curvature="0"
       d="m 386.60347,766.19331 5.56143,-0.2186 5.55736,-0.3058 5.55186,-0.3933 5.54503,-0.4801 5.53667,-0.5673 5.5272,-0.6541 5.51622,-0.7409 5.50382,-0.8277 5.49035,-0.9138 5.47512,-0.9999 5.45882,-1.0857 5.4411,-1.1714 5.42197,-1.2568 5.40177,-1.3419 5.37981,-1.4265 5.35677,-1.5105 5.33232,-1.5949 5.30681,-1.6784 5.27953,-1.7614 5.25154,-1.844 5.22177,-1.9265 5.19094,-2.0083 5.15835,-2.0895 5.12539,-2.1699 5.09032,-2.2507 5.05452,-2.3301 5.01733,-2.4095 4.9787,-2.4877 4.93937,-2.5654 4.89827,-2.6429 4.8561,-2.7199 4.81252,-2.7953 4.76823,-2.8708 4.72287,-2.9452 4.67575,-3.0192 4.62756,-3.0919 4.57866,-3.1645 4.52835,-3.2361 4.47696,-3.3066 4.42453,-3.3768 4.37102,-3.4459 0.7154,-0.5825 0,-212.1679 -12.78354,0 -3.6e-4,-80.9059 12.62587,-4e-4 0,-49.01474 -12.62551,0 -3.6e-4,-80.9061 -19.10587,0 0,-9.92126 -30.60744,0 0,9.92126 4.34055,0 0.20835,0.008 0.20728,0.0245 0.20481,0.0408 0.2009,0.0567 0.19559,0.0723 0.18957,0.0875 0.18213,0.10171 0.17326,0.11586 0.16406,0.12933 0.15307,0.14174 0.14173,0.15307 0.12933,0.16405 0.11587,0.17327 0.10169,0.18212 0.0875,0.18957 0.0723,0.19559 0.0567,0.20091 0.0408,0.2048 0.0244,0.20728 0.008,0.20835 -0.008,0.20835 -0.0246,0.20728 -0.0407,0.2048 -0.0567,0.20091 -0.0723,0.19559 -0.0875,0.18957 -0.1017,0.18212 -0.11587,0.17327 -0.12933,0.16406 -0.14173,0.15307 -0.15307,0.14173 -0.16406,0.12933 -0.17326,0.11587 -0.18213,0.10169 -0.18957,0.0875 -0.19559,0.0723 -0.2009,0.0567 -0.20481,0.0408 -0.20728,0.0244 -0.20835,0.008 0,5.13788 -0.0294,0.75047 -0.0886,0.74622 -0.14633,0.73665 -0.20409,0.72284 -0.25972,0.70476 -0.31465,0.68244 -0.36709,0.65516 -0.4174,0.62468 -0.46488,0.58997 -0.50988,0.55169 -0.5517,0.50988 -0.58996,0.46488 -0.62468,0.4174 -0.65516,0.36709 -0.68244,0.31465 -0.70476,0.25972 -0.72284,0.2041 -0.73665,0.14633 -0.74622,0.0886 -0.75047,0.0294 -0.75048,-0.0294 -0.74622,-0.0886 -0.73665,-0.14632 -0.72284,-0.2041 -0.70476,-0.25972 -0.68244,-0.31465 -0.65516,-0.36709 -0.62468,-0.4174 -0.58996,-0.46488 -0.5517,-0.50988 -0.50988,-0.55169 -0.46488,-0.58997 -0.4174,-0.62468 -0.36709,-0.65516 -0.31464,-0.68244 -0.25973,-0.70476 -0.20409,-0.72284 -0.14634,-0.73665 -0.0886,-0.74622 -0.0294,-0.75047 0,-5.1378 -0.20835,-0.008 -0.20728,-0.0246 -0.20481,-0.0407 -0.2009,-0.0567 -0.19559,-0.0723 -0.18957,-0.0875 -0.18213,-0.1017 -0.17326,-0.11587 -0.16406,-0.12933 -0.15307,-0.14173 -0.14173,-0.15307 -0.12933,-0.16406 -0.11587,-0.17327 -0.10169,-0.18212 -0.0875,-0.18957 -0.0723,-0.19595 -0.0567,-0.20055 -0.0408,-0.2048 -0.0244,-0.20728 -0.008,-0.20835 0.008,-0.2087 0.0245,-0.20693 0.0408,-0.2048 0.0567,-0.20091 0.0723,-0.19559 0.0875,-0.18957 0.1017,-0.18212 0.11587,-0.17327 0.12933,-0.16405 0.14173,-0.15307 0.15307,-0.14174 0.16406,-0.12933 0.17326,-0.11586 0.18213,-0.10205 0.18957,-0.0872 0.19559,-0.0723 0.2009,-0.0567 0.20481,-0.0408 0.20728,-0.0245 0.20835,-0.008 4.34055,-7e-5 0,-9.92126 -30.60744,0 0,9.92126 -82.86697,0 0,-9.92126 -71.66764,0 0,9.92126 -82.86697,0 0,-9.92126 -30.60744,0 0,9.92126 4.34055,0 0.2087,0.008 0.20693,0.0245 0.20481,0.0408 0.2009,0.0567 0.19559,0.0723 0.18957,0.0875 0.18213,0.10171 0.17362,0.11586 0.1637,0.12933 0.15307,0.14174 0.14173,0.15307 0.12933,0.16405 0.11587,0.17327 0.10205,0.18212 0.0872,0.18957 0.0723,0.19559 0.0567,0.20091 0.0408,0.2048 0.0244,0.20728 0.008,0.20835 -0.008,0.20835 -0.0245,0.20728 -0.0408,0.2048 -0.0567,0.20091 -0.0723,0.19559 -0.0872,0.18957 -0.10203,0.18212 -0.11587,0.17327 -0.12933,0.16406 -0.14173,0.15307 -0.15307,0.14173 -0.1637,0.12933 -0.17362,0.11587 -0.18213,0.10169 -0.18957,0.0875 -0.19559,0.0723 -0.2009,0.0567 -0.20481,0.0408 -0.20693,0.0244 -0.2087,0.008 0,5.13788 -0.0294,0.75047 -0.0882,0.74622 -0.14671,0.73665 -0.20374,0.72284 -0.26008,0.70476 -0.31464,0.68244 -0.36709,0.65516 -0.41705,0.62468 -0.46523,0.58997 -0.50988,0.55169 -0.5517,0.50988 -0.58996,0.46488 -0.62433,0.4174 -0.65551,0.36709 -0.68209,0.31465 -0.70476,0.25972 -0.72319,0.2041 -0.73665,0.14633 -0.74587,0.0886 -0.75083,0.0294 -0.75047,-0.0294 -0.74586,-0.0886 -0.73701,-0.14632 -0.72284,-0.2041 -0.70476,-0.25972 -0.68244,-0.31465 -0.65516,-0.36709 -0.62468,-0.4174 -0.58996,-0.46488 -0.5517,-0.50988 -0.50988,-0.55169 -0.46488,-0.58997 -0.4174,-0.62468 -0.36709,-0.65516 -0.31429,-0.68244 -0.26008,-0.70476 -0.20409,-0.72284 -0.14634,-0.73665 -0.0882,-0.74622 -0.0298,-0.75047 2e-5,-5.1378 -0.20835,-0.008 -0.20728,-0.0246 -0.20481,-0.0407 -0.20055,-0.0567 -0.19594,-0.0723 -0.18957,-0.0875 -0.18213,-0.1017 -0.17326,-0.11587 -0.16406,-0.12933 -0.15307,-0.14173 -0.14173,-0.15307 -0.12898,-0.16406 -0.11622,-0.17327 -0.10169,-0.18212 -0.0875,-0.18957 -0.0723,-0.19595 -0.0567,-0.20055 -0.0404,-0.2048 -0.0248,-0.20728 -0.008,-0.20835 0.008,-0.2087 0.0249,-0.20693 0.0404,-0.2048 0.0567,-0.20091 0.0723,-0.19559 0.0875,-0.18957 0.1017,-0.18212 0.11622,-0.17327 0.12898,-0.16405 0.14173,-0.15307 0.15307,-0.14174 0.16406,-0.12933 0.17326,-0.11586 0.18213,-0.10205 0.18957,-0.0872 0.19594,-0.0723 0.20055,-0.0567 0.20481,-0.0408 0.20728,-0.0245 0.20835,-0.008 4.34055,-7e-5 0,-9.92126 -30.60744,0 0,9.92126 -19.10623,0 3.6e-4,80.90539 -12.62587,7.1e-4 0,49.01474 12.62551,0 0,80.9063 -12.78354,0 0,212.1679 0.7154,0.5825 4.37102,3.4459 4.42453,3.3768 4.47696,3.3066 4.52835,3.2361 4.57866,3.1645 4.62756,3.0919 4.67575,3.0192 4.72287,2.9452 4.76823,2.8708 4.81252,2.7953 4.8561,2.7199 4.89827,2.6429 4.93937,2.5654 4.9787,2.4877 5.01733,2.4095 5.05452,2.3301 5.09032,2.2507 5.12539,2.1699 5.15835,2.0895 5.19094,2.0083 5.22177,1.9265 5.25154,1.844 5.27953,1.7614 5.30681,1.6784 5.33232,1.5949 5.35677,1.5105 5.37981,1.4265 5.40177,1.3419 5.42197,1.2568 5.4411,1.1714 5.45882,1.0857 5.47512,0.9999 5.49035,0.9138 5.50382,0.8277 5.51622,0.7409 5.5272,0.6541 5.53667,0.5673 5.54503,0.4801 5.55186,0.3933 5.55736,0.3058 5.56143,0.2186 5.56424,0.1311 5.56554,0.0436 5.56554,-0.0438 z"
       style="fill:none;stroke:#0000ff;stroke-opacity:1"
       id="path13479"
       sodipodi:nodetypes="cccccccccccccccccccccccccccccccccccccccccccccccccccccccccccccccccccccccccccccccccccccccccccccccccccccccccccccccccccccccccccccccccccccccccccccccccccccccccccccccccccccccccccccccccccccccccccccccccccccccccccccccccccccccccccccccccccccccccccccccccccccccccccccccccccccccccccccccccccccccccccccccccccccccccccccccccccccccccccccccccccccccccccccccccccccccccccccccccccccccccccccccccc" />
    <path
       inkscape:connector-curvature="0"
       d="m 170.93204,303.96645 0,-14.17323 7.08661,0 0,14.17323 z"
       style="fill:none;stroke:#ff0000;stroke-opacity:1"
       id="path13575"
       sodipodi:nodetypes="ccccc" />
    <path
       inkscape:connector-curvature="0"
       d="m 572.92873,289.79322 7.08661,0 0,14.17323 -7.08661,0 z"
       style="fill:none;stroke:#ff0000;stroke-opacity:1"
       id="path13577"
       sodipodi:nodetypes="ccccc" />
    <path
       inkscape:connector-curvature="0"
       d="m 536.11412,345.89617 -13.28846,0 -3.6e-4,-45.47303 13.28882,-3.5e-4 z"
       style="fill:none;stroke:#ff0000;stroke-opacity:1"
       id="path13589"
       sodipodi:nodetypes="ccccc" />
    <path
       inkscape:connector-curvature="0"
       d="m 228.12172,345.89617 -13.28846,0 -3.6e-4,-45.47303 13.28882,-3.5e-4 z"
       style="fill:none;stroke:#ff0000;stroke-opacity:1"
       id="path13597"
       sodipodi:nodetypes="ccccc" />
    <path
       inkscape:connector-curvature="0"
       d="m 476.07633,407.73066 -0.69449,0.041 -0.69555,0.0138 -0.69555,-0.014 -0.69449,-0.0408 -0.69236,-0.068 -0.68918,-0.0953 -0.68492,-0.1225 -0.67925,-0.1491 -0.67323,-0.1756 -0.66579,-0.202 -0.65728,-0.2279 -0.64772,-0.2535 -0.63744,-0.2788 -0.6261,-0.3036 -0.61335,-0.328 -0.60023,-0.3518 -0.58606,-0.375 -0.57048,-0.3978 -0.55488,-0.4199 -0.53787,-0.4413 -0.51981,-0.4621 -0.50137,-0.4822 -0.48225,-0.5014 -0.46205,-0.5201 -0.44149,-0.5378 -0.41988,-0.5546 -0.39756,-0.5708 -0.37524,-0.5859 -0.35185,-0.6002 -0.32776,-0.6135 -0.30366,-0.626 -0.27885,-0.6374 -0.25371,-0.6478 -0.22783,-0.6573 -0.20197,-0.6657 -0.17575,-0.6731 -0.14882,-0.6796 -0.12224,-0.6848 -0.0953,-0.6891 -0.0684,-0.6923 -0.0411,-0.6945 -0.0135,-0.6956 1e-5,-70.86614 0.0135,-0.69555 0.0411,-0.69449 0.0684,-0.69236 0.0953,-0.68918 0.12225,-0.68456 0.14882,-0.67961 0.17575,-0.67323 0.20197,-0.66579 0.22783,-0.65728 0.25371,-0.64772 0.27885,-0.63744 0.30366,-0.62574 0.32776,-0.6137 0.35185,-0.60024 0.37524,-0.58571 0.39756,-0.57083 0.41988,-0.55488 0.44149,-0.53752 0.46205,-0.52016 0.48225,-0.50137 0.50137,-0.48225 0.51981,-0.46204 0.53787,-0.4415 0.55488,-0.41988 0.57048,-0.39756 0.58606,-0.37524 0.60023,-0.35185 0.61335,-0.32775 0.6261,-0.30367 0.63744,-0.27885 0.64772,-0.25335 0.65728,-0.22819 0.66579,-0.20197 0.67323,-0.17539 0.67925,-0.14918 0.68492,-0.12224 0.68918,-0.0953 0.69236,-0.0684 0.69449,-0.0408 0.69555,-0.0138 0.69555,0.0138 0.69449,0.0408 0.69236,0.0684 0.68917,0.0953 0.68457,0.12225 0.67961,0.14918 0.67323,0.17539 0.66578,0.20197 0.65729,0.22819 0.64771,0.25335 0.63744,0.27885 0.62575,0.30367 0.6137,0.32775 0.60024,0.35185 0.58571,0.37524 0.57082,0.39756 0.55489,0.41988 0.53751,0.4415 0.52016,0.46204 0.50138,0.48225 0.48225,0.50137 0.46204,0.52016 0.4415,0.53752 0.41988,0.55488 0.39756,0.57083 0.37524,0.58571 0.35185,0.60024 0.32775,0.6137 0.30366,0.62574 0.27886,0.63744 0.25335,0.64772 0.22819,0.65728 0.20197,0.66579 0.17539,0.67323 0.14917,0.67961 0.12225,0.68456 0.0953,0.68918 0.0684,0.69236 0.0407,0.69449 0.0138,0.69555 0,70.86614 -0.0138,0.6956 -0.0407,0.6945 -0.0684,0.6923 -0.0953,0.6891 -0.12226,0.6848 -0.14917,0.6796 -0.17539,0.6731 -0.20197,0.6657 -0.22819,0.6573 -0.25335,0.6478 -0.27886,0.6374 -0.30366,0.626 -0.32775,0.6135 -0.35185,0.6002 -0.37524,0.5859 -0.39756,0.5708 -0.41988,0.5546 -0.4415,0.5378 -0.46204,0.5201 -0.48225,0.5014 -0.50138,0.4822 -0.52016,0.4621 -0.53751,0.4413 -0.55489,0.4199 -0.57082,0.3978 -0.58571,0.375 -0.60024,0.3518 -0.6137,0.328 -0.62575,0.3036 -0.63744,0.2788 -0.64771,0.2535 -0.65729,0.2279 -0.66578,0.202 -0.67323,0.1756 -0.67961,0.1491 -0.68457,0.1223 -0.68917,0.0952 z"
       style="fill:none;stroke:#ff0000;stroke-opacity:1"
       id="path13917"
       sodipodi:nodetypes="ccccccccccccccccccccccccccccccccccccccccccccccccccccccccccccccccccccccccccccccccccccccccccccccccccccccccccccccccccccccccccccccccccccccccccccccccccccccccccccccccccc" />
    <path
       inkscape:connector-curvature="0"
       d="m 272.80495,407.44491 -0.67961,-0.1491 -0.67323,-0.1756 -0.66578,-0.202 -0.65729,-0.2279 -0.64771,-0.2535 -0.63744,-0.2788 -0.62575,-0.3036 -0.6137,-0.328 -0.60024,-0.3518 -0.58571,-0.375 -0.57082,-0.3978 -0.55489,-0.4199 -0.53751,-0.4413 -0.52016,-0.4621 -0.50138,-0.4822 -0.48225,-0.5014 -0.46204,-0.5201 -0.4415,-0.5378 -0.41988,-0.5546 -0.39756,-0.5708 -0.37524,-0.5859 -0.35185,-0.6002 -0.32775,-0.6135 -0.30366,-0.626 -0.27886,-0.6374 -0.25335,-0.6478 -0.22819,-0.6573 -0.20197,-0.6657 -0.17539,-0.6731 -0.14917,-0.6796 -0.12225,-0.6848 -0.0953,-0.6891 -0.0684,-0.6923 -0.0407,-0.6945 -0.0138,-0.6956 -1e-5,-70.86614 0.0138,-0.69555 0.0407,-0.69449 0.0684,-0.69236 0.0953,-0.68918 0.12226,-0.68456 0.14917,-0.67961 0.17539,-0.67323 0.20197,-0.66579 0.22819,-0.65728 0.25335,-0.64772 0.27886,-0.63744 0.30366,-0.62574 0.32775,-0.6137 0.35185,-0.60024 0.37524,-0.58571 0.39756,-0.57083 0.41988,-0.55488 0.4415,-0.53752 0.46204,-0.52016 0.48225,-0.50137 0.50138,-0.48225 0.52016,-0.46204 0.53751,-0.4415 0.55489,-0.41988 0.57082,-0.39756 0.58571,-0.37524 0.60024,-0.35185 0.6137,-0.32775 0.62575,-0.30367 0.63744,-0.27885 0.64771,-0.25335 0.65729,-0.22819 0.66578,-0.20197 0.67323,-0.17539 0.67961,-0.14918 0.68457,-0.12224 0.68917,-0.0953 0.69236,-0.0684 0.69449,-0.0408 0.69555,-0.0138 0.69555,0.0138 0.69449,0.0408 0.69236,0.0684 0.68918,0.0953 0.68492,0.12225 0.67925,0.14918 0.67323,0.17539 0.66578,0.20197 0.65729,0.22819 0.64771,0.25335 0.63745,0.27885 0.6261,0.30367 0.61334,0.32775 0.60024,0.35185 0.58606,0.37524 0.57048,0.39756 0.55488,0.41988 0.53787,0.4415 0.51981,0.46204 0.50137,0.48225 0.48225,0.50137 0.46204,0.52016 0.4415,0.53752 0.41988,0.55488 0.39756,0.57083 0.37524,0.58571 0.35185,0.60024 0.32775,0.6137 0.30367,0.62574 0.27885,0.63744 0.2537,0.64772 0.22784,0.65728 0.20197,0.66579 0.17575,0.67323 0.14881,0.67961 0.12225,0.68456 0.0953,0.68918 0.0684,0.69236 0.0411,0.69449 0.0135,0.69555 -1e-5,70.86614 -0.0135,0.6956 -0.0411,0.6945 -0.0684,0.6923 -0.0953,0.6891 -0.12225,0.6848 -0.14881,0.6796 -0.17575,0.6731 -0.20197,0.6657 -0.22784,0.6573 -0.2537,0.6478 -0.27885,0.6374 -0.30367,0.626 -0.32775,0.6135 -0.35185,0.6002 -0.37524,0.5859 -0.39756,0.5708 -0.41988,0.5546 -0.4415,0.5378 -0.46204,0.5201 -0.48225,0.5014 -0.50137,0.4822 -0.51981,0.4621 -0.53787,0.4413 -0.55488,0.4199 -0.57048,0.3978 -0.58606,0.375 -0.60024,0.3518 -0.61334,0.328 -0.6261,0.3036 -0.63745,0.2788 -0.64771,0.2535 -0.65729,0.2279 -0.66578,0.202 -0.67323,0.1756 -0.67925,0.1491 -0.68492,0.1223 -0.68918,0.0952 -0.69236,0.0682 -0.69449,0.041 -0.69555,0.0138 -0.69555,-0.014 -0.69449,-0.0408 -0.69236,-0.068 -0.68917,-0.0953 z"
       style="fill:none;stroke:#ff0000;stroke-opacity:1"
       id="path13931"
       sodipodi:nodetypes="ccccccccccccccccccccccccccccccccccccccccccccccccccccccccccccccccccccccccccccccccccccccccccccccccccccccccccccccccccccccccccccccccccccccccccccccccccccccccccccccccccc" />
    <path
       inkscape:connector-curvature="0"
       d="m 440.81617,395.38176 -0.20835,-0.0142 -0.20763,-0.0204 -0.20693,-0.029 -0.20516,-0.0366 -0.2041,-0.0448 -0.20196,-0.0527 -0.19949,-0.0607 -0.19736,-0.0679 -0.19418,-0.0762 -0.19134,-0.0838 -0.18779,-0.0909 -0.1839,-0.0983 -0.18035,-0.1058 -0.17575,-0.1125 -0.17114,-0.1193 -0.16618,-0.126 -0.16158,-0.1324 -0.1559,-0.1386 -0.1506,-0.1446 -0.14456,-0.1505 -0.13855,-0.1559 -0.13252,-0.1614 -0.12578,-0.1664 -0.11941,-0.1712 -0.11268,-0.1758 -0.10524,-0.1801 -0.0985,-0.184 -0.0911,-0.1878 -0.0836,-0.1912 -0.0762,-0.1944 -0.0684,-0.1972 -0.0606,-0.1997 -0.0528,-0.2019 -0.0446,-0.2039 -0.0365,-0.2055 -0.0287,-0.2066 -0.0206,-0.2078 -0.0124,-0.2083 -0.004,-0.2087 5e-5,-70.86614 0.004,-0.2087 0.0123,-0.20835 0.0206,-0.20764 0.0287,-0.20657 0.0365,-0.20551 0.0446,-0.2041 0.0528,-0.20161 0.0606,-0.19984 0.0684,-0.19737 0.0762,-0.19417 0.0836,-0.19134 0.0911,-0.18779 0.0985,-0.1839 0.10524,-0.18 0.11268,-0.17575 0.11941,-0.1715 0.12578,-0.16618 0.13252,-0.16157 0.13855,-0.15591 0.14456,-0.15059 0.1506,-0.14456 0.1559,-0.13855 0.16158,-0.13252 0.16618,-0.12578 0.17114,-0.11941 0.17575,-0.11268 0.18035,-0.10524 0.1839,-0.0985 0.18779,-0.0911 0.19134,-0.0836 0.19418,-0.0762 0.19736,-0.0684 0.19949,-0.0606 0.20196,-0.0528 0.2041,-0.0446 0.20516,-0.0365 0.20693,-0.0287 0.20763,-0.0206 0.20835,-0.012 0.2087,-0.004 0.2087,0.004 0.20835,0.0121 0.20764,0.0206 0.20657,0.0287 0.20551,0.0365 0.2041,0.0446 0.20197,0.0528 0.19948,0.0606 0.19737,0.0684 0.19417,0.0762 0.19134,0.0836 0.18779,0.0911 0.1839,0.0985 0.18,0.10524 0.17575,0.11268 0.17149,0.11941 0.16619,0.12578 0.16157,0.13252 0.15591,0.13855 0.15059,0.14456 0.14456,0.15059 0.13855,0.15591 0.13252,0.16157 0.12578,0.16618 0.11941,0.1715 0.11233,0.17575 0.10559,0.18 0.0985,0.1839 0.0911,0.18779 0.0836,0.19134 0.0762,0.19417 0.0684,0.19737 0.0606,0.19984 0.0524,0.20161 0.045,0.2041 0.0365,0.20551 0.0287,0.20657 0.0206,0.20764 0.012,0.20835 0.004,0.2087 1.3e-4,70.86614 -0.004,0.2087 -0.0121,0.2083 -0.0206,0.2078 -0.0287,0.2066 -0.0365,0.2055 -0.045,0.2039 -0.0524,0.2019 -0.0606,0.1997 -0.0684,0.1972 -0.0762,0.1944 -0.0836,0.1912 -0.0911,0.1878 -0.0985,0.184 -0.10559,0.1801 -0.11233,0.1758 -0.11941,0.1712 -0.12578,0.1664 -0.13252,0.1614 -0.13855,0.1559 -0.14456,0.1505 -0.15059,0.1446 -0.15591,0.1386 -0.16157,0.1324 -0.16619,0.126 -0.17149,0.1193 -0.17575,0.1125 -0.18,0.1056 -0.1839,0.0982 -0.18779,0.0913 -0.19134,0.0838 -0.19417,0.0759 -0.19737,0.0682 -0.19948,0.0609 -0.20197,0.0526 -0.2041,0.0447 -0.20551,0.0367 -0.20657,0.0286 -0.20764,0.02 -0.20835,0.0124 -0.2087,0.002 z"
       style="fill:none;stroke:#ff0000;stroke-opacity:1"
       id="path14571"
       sodipodi:nodetypes="ccccccccccccccccccccccccccccccccccccccccccccccccccccccccccccccccccccccccccccccccccccccccccccccccccccccccccccccccccccccccccccccccccccccccccccccccccccccccccccccccccc" />
    <path
       inkscape:connector-curvature="0"
       d="m 309.71381,395.38176 -0.20835,-0.0142 -0.20764,-0.0204 -0.20657,-0.029 -0.20551,-0.0366 -0.2041,-0.0448 -0.20197,-0.0527 -0.19948,-0.0607 -0.19737,-0.0679 -0.19417,-0.0762 -0.19134,-0.0838 -0.18779,-0.0909 -0.1839,-0.0983 -0.18,-0.1058 -0.17575,-0.1125 -0.1715,-0.1193 -0.16618,-0.126 -0.16157,-0.1324 -0.15591,-0.1386 -0.15059,-0.1446 -0.14456,-0.1505 -0.13855,-0.1559 -0.13252,-0.1614 -0.12578,-0.1664 -0.11941,-0.1712 -0.11233,-0.1758 -0.10559,-0.1801 -0.0985,-0.184 -0.0911,-0.1878 -0.0836,-0.1912 -0.0762,-0.1944 -0.0684,-0.1972 -0.0606,-0.1997 -0.0524,-0.2019 -0.045,-0.2039 -0.0365,-0.2055 -0.0287,-0.2066 -0.0206,-0.2078 -0.012,-0.2083 -0.004,-0.2087 -1.2e-4,-70.86614 0.004,-0.2087 0.0122,-0.20835 0.0206,-0.20764 0.0287,-0.20657 0.0365,-0.20551 0.045,-0.2041 0.0524,-0.20161 0.0606,-0.19984 0.0684,-0.19737 0.0762,-0.19417 0.0836,-0.19134 0.0911,-0.18779 0.0985,-0.1839 0.10559,-0.18 0.11233,-0.17575 0.11941,-0.1715 0.12578,-0.16618 0.13252,-0.16157 0.13855,-0.15591 0.14456,-0.15059 0.15059,-0.14456 0.15591,-0.13855 0.16157,-0.13252 0.16618,-0.12578 0.1715,-0.11941 0.17575,-0.11268 0.18,-0.10524 0.1839,-0.0985 0.18779,-0.0911 0.19134,-0.0836 0.19417,-0.0762 0.19737,-0.0684 0.19948,-0.0606 0.20197,-0.0528 0.2041,-0.0446 0.20551,-0.0365 0.20657,-0.0287 0.20764,-0.0206 0.20835,-0.012 0.2087,-0.004 0.2087,0.004 0.20835,0.0121 0.20763,0.0206 0.20693,0.0287 0.20516,0.0365 0.20409,0.0446 0.20197,0.0528 0.19949,0.0606 0.19736,0.0684 0.19418,0.0762 0.19134,0.0836 0.18779,0.0911 0.1839,0.0985 0.18035,0.10524 0.17575,0.11268 0.17114,0.11941 0.16618,0.12578 0.16158,0.13252 0.1559,0.13855 0.15059,0.14456 0.14457,0.15059 0.13854,0.15591 0.13252,0.16157 0.12579,0.16618 0.11941,0.1715 0.11268,0.17575 0.10523,0.18 0.0985,0.1839 0.0911,0.18779 0.0836,0.19134 0.0762,0.19417 0.0684,0.19737 0.0606,0.19984 0.0528,0.20161 0.0446,0.2041 0.0365,0.20551 0.0287,0.20657 0.0205,0.20764 0.0124,0.20835 0.004,0.2087 -5e-5,70.86614 -0.004,0.2087 -0.0124,0.2083 -0.0205,0.2078 -0.0287,0.2066 -0.0365,0.2055 -0.0446,0.2039 -0.0528,0.2019 -0.0606,0.1997 -0.0684,0.1972 -0.0762,0.1944 -0.0836,0.1912 -0.0911,0.1878 -0.0985,0.184 -0.10524,0.1801 -0.11268,0.1758 -0.11941,0.1712 -0.12579,0.1664 -0.13252,0.1614 -0.13854,0.1559 -0.14457,0.1505 -0.15059,0.1446 -0.1559,0.1386 -0.16158,0.1324 -0.16618,0.126 -0.17114,0.1193 -0.17575,0.1125 -0.18035,0.1056 -0.1839,0.0982 -0.18779,0.0913 -0.19134,0.0838 -0.19418,0.0759 -0.19736,0.0682 -0.19949,0.0609 -0.20197,0.0526 -0.20409,0.0447 -0.20516,0.0367 -0.20693,0.0286 -0.20763,0.02 -0.20835,0.0124 -0.2087,0.002 z"
       style="fill:none;stroke:#ff0000;stroke-opacity:1"
       id="path14895"
       sodipodi:nodetypes="ccccccccccccccccccccccccccccccccccccccccccccccccccccccccccccccccccccccccccccccccccccccccccccccccccccccccccccccccccccccccccccccccccccccccccccccccccccccccccccccccccc" />
    <path
       inkscape:connector-curvature="0"
       d="m 544.58227,328.7696 0,-14.17323 7.08662,0 0,14.17323 z"
       style="fill:none;stroke:#ff0000;stroke-opacity:1"
       id="path14903"
       sodipodi:nodetypes="ccccc" />
    <path
       inkscape:connector-curvature="0"
       d="m 199.27849,328.7696 0,-14.17323 7.08662,0 0,14.17323 z"
       style="fill:none;stroke:#ff0000;stroke-opacity:1"
       id="path14911"
       sodipodi:nodetypes="ccccc" />
    <path
       inkscape:connector-curvature="0"
       d="m 519.77912,328.7696 -7.08661,0 0,-14.17323 7.08661,0 z"
       style="fill:none;stroke:#ff0000;stroke-opacity:1"
       id="path14917"
       sodipodi:nodetypes="ccccc" />
    <path
       inkscape:connector-curvature="0"
       d="m 231.16826,328.7696 0,-14.17323 7.08661,0 0,14.17323 z"
       style="fill:none;stroke:#ff0000;stroke-opacity:1"
       id="path14927"
       sodipodi:nodetypes="ccccc" />
    <path
       inkscape:connector-curvature="0"
       d="m 345.77231,388.32191 0.86042,0.3564 0.79409,0.4866 0.70816,0.6049 0.60485,0.7081 0.4866,0.7941 0.35639,0.8604 0.21741,0.9057 0.0731,0.9284 -0.0731,0.9284 -0.21741,0.9056 -0.35639,0.8604 -0.4866,0.7941 -0.60485,0.7082 -0.70816,0.6048 -0.79409,0.4866 -0.86042,0.3564 -0.9056,0.2174 -0.92842,0.073 -0.92845,-0.073 -0.9056,-0.21745 -0.86042,-0.3564 -0.79409,-0.4866 -0.70817,-0.6048 -0.60484,-0.7082 -0.4865,-0.7941 -0.35645,-0.8604 -0.21756,-0.9056 -0.073,-0.9284 0.073,-0.9284 0.21756,-0.9057 0.35645,-0.8604 0.4865,-0.7941 0.60484,-0.7081 0.70817,-0.6049 0.79409,-0.4866 0.86042,-0.3564 0.9056,-0.2174 0.92845,-0.0731 0.92842,0.073 z"
       style="fill:none;stroke:#ff0000;stroke-opacity:1"
       id="path14969"
       sodipodi:nodetypes="ccccccccccccccccccccccccccccccccccccccccc" />
    <path
       inkscape:connector-curvature="0"
       d="m 408.84314,388.32191 0.86042,0.3564 0.79409,0.4866 0.70817,0.6049 0.60484,0.7081 0.48649,0.7941 0.35646,0.8604 0.21756,0.9057 0.073,0.9284 -0.073,0.9284 -0.21756,0.9056 -0.35646,0.8604 -0.48649,0.7941 -0.60484,0.7082 -0.70817,0.6048 -0.79409,0.4866 -0.86042,0.3564 -0.9056,0.2174 -0.92845,0.073 -0.92842,-0.073 -0.9056,-0.21745 -0.86042,-0.3564 -0.79409,-0.4866 -0.70817,-0.6048 -0.60484,-0.7082 -0.4866,-0.7941 -0.35639,-0.8604 -0.21741,-0.9056 -0.0731,-0.9284 0.0731,-0.9284 0.21741,-0.9057 0.35639,-0.8604 0.4866,-0.7941 0.60484,-0.7081 0.70817,-0.6049 0.79409,-0.4866 0.86042,-0.3564 0.9056,-0.2174 0.92842,-0.0731 0.92845,0.073 z"
       style="fill:none;stroke:#ff0000;stroke-opacity:1"
       id="path15049"
       sodipodi:nodetypes="ccccccccccccccccccccccccccccccccccccccccc" />
    <path
       inkscape:connector-curvature="0"
       d="m 522.82566,475.81721 -3.6e-4,-80.9059 13.28882,-4e-4 0,80.9063 z"
       style="fill:none;stroke:#ff0000;stroke-opacity:1"
       id="path15095"
       sodipodi:nodetypes="ccccc" />
    <path
       inkscape:connector-curvature="0"
       d="m 228.12172,475.81721 -13.28846,0 -3.6e-4,-80.9059 13.28882,-4e-4 z"
       style="fill:none;stroke:#ff0000;stroke-opacity:1"
       id="path15101"
       sodipodi:nodetypes="ccccc" />
    <path
       inkscape:connector-curvature="0"
       d="m 343.00984,435.97016 -0.9056,-0.21745 -0.86042,-0.3564 -0.79409,-0.4866 -0.70817,-0.6049 -0.60484,-0.7081 -0.4865,-0.7941 -0.35645,-0.8604 -0.21756,-0.9056 -0.073,-0.9285 0.073,-0.9284 0.21756,-0.9056 0.35645,-0.8604 0.4865,-0.7941 0.60484,-0.7082 0.70817,-0.6048 0.79409,-0.4866 0.86042,-0.3564 0.9056,-0.2174 0.92845,-0.0731 0.92842,0.073 0.9056,0.21745 0.86042,0.3564 0.79409,0.4866 0.70816,0.6048 0.60485,0.7082 0.4866,0.7941 0.35639,0.8604 0.21741,0.9056 0.0731,0.9284 -0.0731,0.9285 -0.21741,0.9056 -0.35639,0.8604 -0.4866,0.7941 -0.60485,0.7081 -0.70816,0.6049 -0.79409,0.4866 -0.86042,0.3564 -0.9056,0.2174 -0.92842,0.0731 z"
       style="fill:none;stroke:#ff0000;stroke-opacity:1"
       id="path15183"
       sodipodi:nodetypes="ccccccccccccccccccccccccccccccccccccccccc" />
    <path
       inkscape:connector-curvature="0"
       d="m 407.93754,424.24616 0.9056,0.21745 0.86042,0.3564 0.79409,0.4866 0.70817,0.6048 0.60484,0.7082 0.48649,0.7941 0.35646,0.8604 0.21756,0.9056 0.073,0.9284 -0.073,0.9285 -0.21756,0.9056 -0.35646,0.8604 -0.48649,0.7941 -0.60484,0.7081 -0.70817,0.6049 -0.79409,0.4866 -0.86042,0.3564 -0.9056,0.2174 -0.92845,0.0731 -0.92842,-0.073 -0.9056,-0.21745 -0.86042,-0.3564 -0.79409,-0.4866 -0.70817,-0.6049 -0.60484,-0.7081 -0.4866,-0.7941 -0.35639,-0.8604 -0.21741,-0.9056 -0.0731,-0.9285 0.0731,-0.9284 0.21741,-0.9056 0.35639,-0.8604 0.4866,-0.7941 0.60484,-0.7082 0.70817,-0.6048 0.79409,-0.4866 0.86042,-0.3564 0.9056,-0.2174 0.92842,-0.0731 z"
       style="fill:none;stroke:#ff0000;stroke-opacity:1"
       id="path15223"
       sodipodi:nodetypes="ccccccccccccccccccccccccccccccccccccccccc" />
    <path
       inkscape:connector-curvature="0"
       d="m 382.04525,477.95201 -0.41489,1.0017 -0.56657,0.9245 -0.70416,0.8245 -0.82453,0.7044 -0.92447,0.5666 -1.00174,0.4149 -1.0543,0.253 -1.0809,0.085 -1.0809,-0.085 -1.0543,-0.253 -1.00174,-0.4149 -0.92447,-0.5666 -0.82453,-0.7044 -0.70416,-0.8245 -0.56657,-0.9245 -0.41489,-1.0017 -0.25317,-1.0541 -0.085,-1.0811 -2e-5,-42.5197 0.085,-1.0808 0.25319,-1.0543 0.41489,-1.0018 0.56657,-0.9245 0.70416,-0.8245 0.82453,-0.7042 0.92447,-0.5665 1.00174,-0.4149 1.0543,-0.2532 1.0809,-0.085 1.0809,0.085 1.0543,0.2532 1.00174,0.4149 0.92447,0.5665 0.82453,0.7042 0.70416,0.8245 0.56657,0.9245 0.41489,1.0018 0.25317,1.0543 0.085,1.0808 2e-5,42.5197 -0.085,1.0811 z"
       style="fill:none;stroke:#ff0000;stroke-opacity:1"
       id="path15329"
       sodipodi:nodetypes="ccccccccccccccccccccccccccccccccccccccccccc" />
    <path
       inkscape:connector-curvature="0"
       d="m 283.8629,431.16201 0.41492,-1.0018 0.56622,-0.9245 0.70441,-0.8245 0.82453,-0.7042 0.92445,-0.5665 1.00169,-0.4149 1.05414,-0.2532 1.08106,-0.085 1.08106,0.085 1.05414,0.2532 1.00169,0.4149 0.92445,0.5665 0.82453,0.7042 0.70441,0.8245 0.56657,0.9245 0.41492,1.0018 0.25299,1.0543 0.085,1.0808 2e-5,42.5197 -0.085,1.0811 -0.25301,1.0541 -0.41492,1.0017 -0.56657,0.9245 -0.70441,0.8245 -0.82453,0.7044 -0.92445,0.5666 -1.00169,0.4149 -1.05414,0.253 -1.08106,0.085 -1.08106,-0.085 -1.05414,-0.253 -1.00169,-0.4149 -0.92445,-0.5666 -0.82453,-0.7044 -0.70441,-0.8245 -0.56622,-0.9245 -0.41492,-1.0017 -0.25334,-1.0541 -0.085,-1.0811 -2e-5,-42.5197 0.085,-1.0808 z"
       style="fill:none;stroke:#ff0000;stroke-opacity:1"
       id="path15371"
       sodipodi:nodetypes="ccccccccccccccccccccccccccccccccccccccccccc" />
    <path
       inkscape:connector-curvature="0"
       d="m 453.60326,433.29711 0.085,-1.0808 0.25301,-1.0543 0.41492,-1.0018 0.56657,-0.9245 0.70441,-0.8245 0.82453,-0.7042 0.92445,-0.5665 1.00169,-0.4149 1.05414,-0.2532 1.08106,-0.085 1.08106,0.085 1.05414,0.2532 1.00169,0.4149 0.92445,0.5665 0.82453,0.7042 0.70441,0.8245 0.56622,0.9245 0.41492,1.0018 0.25334,1.0543 0.085,1.0808 2e-5,42.5197 -0.085,1.0811 -0.25336,1.0541 -0.41492,1.0017 -0.56622,0.9245 -0.70441,0.8245 -0.82453,0.7044 -0.92445,0.5666 -1.00169,0.4149 -1.05414,0.253 -1.08106,0.085 -1.08106,-0.085 -1.05414,-0.253 -1.00169,-0.4149 -0.92445,-0.5666 -0.82453,-0.7044 -0.70441,-0.8245 -0.56657,-0.9245 -0.41492,-1.0017 -0.25299,-1.0541 -0.085,-1.0811 z"
       style="fill:none;stroke:#ff0000;stroke-opacity:1"
       id="path15451"
       sodipodi:nodetypes="ccccccccccccccccccccccccccccccccccccccccccc" />
    <path
       inkscape:connector-curvature="0"
       d="m 519.77912,451.01371 -7.08661,0 0,-14.1732 7.08661,0 z"
       style="fill:none;stroke:#ff0000;stroke-opacity:1"
       id="path15521"
       sodipodi:nodetypes="ccccc" />
    <path
       inkscape:connector-curvature="0"
       d="m 580.01534,451.01371 -7.08661,0 0,-14.1732 7.08661,0 z"
       style="fill:none;stroke:#ff0000;stroke-opacity:1"
       id="path15529"
       sodipodi:nodetypes="ccccc" />
    <path
       inkscape:connector-curvature="0"
       d="m 170.93204,436.84051 7.08661,0 0,14.1732 -7.08661,0 z"
       style="fill:none;stroke:#ff0000;stroke-opacity:1"
       id="path15533"
       sodipodi:nodetypes="ccccc" />
    <path
       inkscape:connector-curvature="0"
       d="m 231.16826,436.84051 7.08661,0 0,14.1732 -7.08661,0 z"
       style="fill:none;stroke:#ff0000;stroke-opacity:1"
       id="path15541"
       sodipodi:nodetypes="ccccc" />
    <path
       inkscape:connector-curvature="0"
       d="m 551.66889,436.84051 0,14.1732 -7.08662,0 0,-14.1732 z"
       style="fill:none;stroke:#ff0000;stroke-opacity:1"
       id="path15551"
       sodipodi:nodetypes="ccccc" />
    <path
       inkscape:connector-curvature="0"
       d="m 199.27849,436.84051 7.08662,0 0,14.1732 -7.08662,0 z"
       style="fill:none;stroke:#ff0000;stroke-opacity:1"
       id="path15557"
       sodipodi:nodetypes="ccccc" />
    <path
       inkscape:connector-curvature="0"
       d="m 420.12857,490.50531 1.00169,0.4149 0.92445,0.5666 0.82418,0.7044 0.70441,0.8241 0.56657,0.9245 0.41492,1.0017 0.25299,1.0545 0.085,1.0807 -0.085,1.081 -0.25301,1.0542 -0.41492,1.0017 -0.56657,0.9244 -0.70441,0.8245 -0.82418,0.7041 -0.92445,0.5666 -1.00169,0.4149 -1.05449,0.253 -1.08071,0.085 -1.08106,-0.085 -1.05413,-0.253 -1.0017,-0.4149 -0.92444,-0.5666 -0.82453,-0.7041 -0.70406,-0.8245 -0.56657,-0.9244 -0.41492,-1.0017 -0.25299,-1.0542 -0.085,-1.081 0.085,-1.0807 0.25301,-1.0545 0.41492,-1.0017 0.56657,-0.9245 0.70406,-0.8241 0.82453,-0.7044 0.92444,-0.5666 1.0017,-0.4149 1.05413,-0.253 1.08106,-0.0851 1.08071,0.085 z"
       style="fill:none;stroke:#ff0000;stroke-opacity:1"
       id="path15605"
       sodipodi:nodetypes="ccccccccccccccccccccccccccccccccccccccccc" />
    <path
       inkscape:connector-curvature="0"
       d="m 292.56952,490.50531 1.00169,0.4149 0.92445,0.5666 0.82453,0.7044 0.70405,0.8241 0.56658,0.9245 0.41492,1.0017 0.25299,1.0545 0.085,1.0807 -0.085,1.081 -0.25301,1.0542 -0.41492,1.0017 -0.56658,0.9244 -0.70405,0.8245 -0.82453,0.7041 -0.92445,0.5666 -1.00169,0.4149 -1.05414,0.253 -1.08106,0.085 -1.08071,-0.085 -1.05449,-0.253 -1.00169,-0.4149 -0.92445,-0.5666 -0.82417,-0.7041 -0.70441,-0.8245 -0.56658,-0.9244 -0.41492,-1.0017 -0.25299,-1.0542 -0.085,-1.081 0.085,-1.0807 0.25301,-1.0545 0.41492,-1.0017 0.56658,-0.9245 0.70441,-0.8241 0.82417,-0.7044 0.92445,-0.5666 1.00169,-0.4149 1.05449,-0.253 1.08071,-0.0851 1.08106,0.085 z"
       style="fill:none;stroke:#ff0000;stroke-opacity:1"
       id="path15685"
       sodipodi:nodetypes="ccccccccccccccccccccccccccccccccccccccccc" />
    <path
       inkscape:connector-curvature="0"
       d="m 335.0892,490.50531 1.00169,0.4149 0.92445,0.5666 0.82453,0.7044 0.70406,0.8241 0.56657,0.9245 0.41492,1.0017 0.25299,1.0545 0.085,1.0807 -0.085,1.081 -0.25301,1.0542 -0.41492,1.0017 -0.56657,0.9244 -0.70406,0.8245 -0.82453,0.7041 -0.92445,0.5666 -1.00169,0.4149 -1.05413,0.253 -1.08107,0.085 -1.0807,-0.085 -1.05449,-0.253 -1.0017,-0.4149 -0.92444,-0.5666 -0.82418,-0.7041 -0.70441,-0.8245 -0.56657,-0.9244 -0.41492,-1.0017 -0.25299,-1.0542 -0.085,-1.081 0.085,-1.0807 0.25301,-1.0545 0.41492,-1.0017 0.56657,-0.9245 0.70441,-0.8241 0.82418,-0.7044 0.92444,-0.5666 1.0017,-0.4149 1.05449,-0.253 1.0807,-0.0851 1.08107,0.085 z"
       style="fill:none;stroke:#ff0000;stroke-opacity:1"
       id="path15765"
       sodipodi:nodetypes="ccccccccccccccccccccccccccccccccccccccccc" />
    <path
       inkscape:connector-curvature="0"
       d="m 505.16794,490.50531 1.00169,0.4149 0.92445,0.5666 0.82418,0.7044 0.70441,0.8241 0.56657,0.9245 0.41492,1.0017 0.25299,1.0545 0.085,1.0807 -0.085,1.081 -0.25301,1.0542 -0.41492,1.0017 -0.56657,0.9244 -0.70441,0.8245 -0.82418,0.7041 -0.92445,0.5666 -1.00169,0.4149 -1.05449,0.253 -1.0807,0.085 -1.08107,-0.085 -1.05413,-0.253 -1.00169,-0.4149 -0.92445,-0.5666 -0.82453,-0.7041 -0.70406,-0.8245 -0.56657,-0.9244 -0.41492,-1.0017 -0.25299,-1.0542 -0.085,-1.081 0.085,-1.0807 0.25301,-1.0545 0.41492,-1.0017 0.56657,-0.9245 0.70406,-0.8241 0.82453,-0.7044 0.92445,-0.5666 1.00169,-0.4149 1.05413,-0.253 1.08107,-0.0851 1.0807,0.085 z"
       style="fill:none;stroke:#ff0000;stroke-opacity:1"
       id="path15845"
       sodipodi:nodetypes="ccccccccccccccccccccccccccccccccccccccccc" />
    <path
       inkscape:connector-curvature="0"
       d="m 377.60878,490.50531 1.00169,0.4149 0.92449,0.5666 0.82442,0.7044 0.70416,0.8241 0.5665,0.9245 0.41489,1.0017 0.2531,1.0545 0.0851,1.0807 -0.0851,1.081 -0.25311,1.0542 -0.41489,1.0017 -0.5665,0.9244 -0.70416,0.8245 -0.82442,0.7041 -0.92449,0.5666 -1.00169,0.4149 -1.05425,0.253 -1.08084,0.085 -1.08084,-0.085 -1.05425,-0.253 -1.00169,-0.4149 -0.92449,-0.5666 -0.82442,-0.7041 -0.70416,-0.8245 -0.5665,-0.9244 -0.41489,-1.0017 -0.2531,-1.0542 -0.0851,-1.081 0.0851,-1.0807 0.2531,-1.0545 0.41489,-1.0017 0.5665,-0.9245 0.70416,-0.8241 0.82442,-0.7044 0.92449,-0.5666 1.00169,-0.4149 1.05425,-0.253 1.08084,-0.0851 1.08084,0.085 z"
       style="fill:none;stroke:#ff0000;stroke-opacity:1"
       id="path15925"
       sodipodi:nodetypes="ccccccccccccccccccccccccccccccccccccccccc" />
    <path
       inkscape:connector-curvature="0"
       d="m 250.04983,490.50531 1.00169,0.4149 0.92445,0.5666 0.82453,0.7044 0.70406,0.8241 0.56657,0.9245 0.41492,1.0017 0.25299,1.0545 0.085,1.0807 -0.085,1.081 -0.25301,1.0542 -0.41492,1.0017 -0.56657,0.9244 -0.70406,0.8245 -0.82453,0.7041 -0.92445,0.5666 -1.00169,0.4149 -1.05413,0.253 -1.08107,0.085 -1.0807,-0.085 -1.05449,-0.253 -1.00169,-0.4149 -0.92445,-0.5666 -0.82418,-0.7041 -0.70441,-0.8245 -0.56657,-0.9244 -0.41492,-1.0017 -0.25299,-1.0542 -0.085,-1.081 0.085,-1.0807 0.25301,-1.0545 0.41492,-1.0017 0.56657,-0.9245 0.70441,-0.8241 0.82418,-0.7044 0.92445,-0.5666 1.00169,-0.4149 1.05449,-0.253 1.0807,-0.0851 1.08107,0.085 z"
       style="fill:none;stroke:#ff0000;stroke-opacity:1"
       id="path16005"
       sodipodi:nodetypes="ccccccccccccccccccccccccccccccccccccccccc" />
    <path
       inkscape:connector-curvature="0"
       d="m 462.64826,490.50531 1.00169,0.4149 0.92445,0.5666 0.82417,0.7044 0.70441,0.8241 0.56658,0.9245 0.41492,1.0017 0.25299,1.0545 0.085,1.0807 -0.085,1.081 -0.25301,1.0542 -0.41492,1.0017 -0.56658,0.9244 -0.70441,0.8245 -0.82417,0.7041 -0.92445,0.5666 -1.00169,0.4149 -1.05449,0.253 -1.08071,0.085 -1.08106,-0.085 -1.05414,-0.253 -1.00169,-0.4149 -0.92445,-0.5666 -0.82453,-0.7041 -0.70405,-0.8245 -0.56658,-0.9244 -0.41492,-1.0017 -0.25299,-1.0542 -0.085,-1.081 0.085,-1.0807 0.25301,-1.0545 0.41492,-1.0017 0.56658,-0.9245 0.70405,-0.8241 0.82453,-0.7044 0.92445,-0.5666 1.00169,-0.4149 1.05414,-0.253 1.08106,-0.0851 1.08071,0.085 z"
       style="fill:none;stroke:#ff0000;stroke-opacity:1"
       id="path16085"
       sodipodi:nodetypes="ccccccccccccccccccccccccccccccccccccccccc" />
    <path
       inkscape:connector-curvature="0"
       d="m 377.60889,511.76511 1.00174,0.4149 0.92447,0.5662 0.82453,0.7045 0.70416,0.8245 0.56657,0.9244 0.41489,1.0017 0.25317,1.0542 0.085,1.081 2e-5,42.5197 -0.085,1.0811 -0.25319,1.0541 -0.41489,1.0017 -0.56657,0.9244 -0.70416,0.8246 -0.82453,0.7044 -0.92447,0.5666 -1.00174,0.4149 -1.0543,0.253 -1.0809,0.085 -1.0809,-0.085 -1.0543,-0.253 -1.00174,-0.4149 -0.92447,-0.5666 -0.82453,-0.7044 -0.70416,-0.8246 -0.56657,-0.9244 -0.41489,-1.0017 -0.25317,-1.0541 -0.085,-1.0811 -2e-5,-42.5197 0.085,-1.081 0.25319,-1.0542 0.41489,-1.0017 0.56657,-0.9244 0.70416,-0.8245 0.82453,-0.7045 0.92447,-0.5662 1.00174,-0.4149 1.0543,-0.2533 1.0809,-0.0851 1.0809,0.085 z"
       style="fill:none;stroke:#ff0000;stroke-opacity:1"
       id="path16167"
       sodipodi:nodetypes="ccccccccccccccccccccccccccccccccccccccccccc" />
    <path
       inkscape:connector-curvature="0"
       d="m 291.51538,511.51176 1.05414,0.25335 1.00169,0.4149 0.92445,0.5662 0.82453,0.7045 0.70441,0.8245 0.56657,0.9244 0.41492,1.0017 0.25299,1.0542 0.085,1.081 2e-5,42.5197 -0.085,1.0811 -0.25301,1.0541 -0.41492,1.0017 -0.56657,0.9244 -0.70441,0.8246 -0.82453,0.7044 -0.92445,0.5666 -1.00169,0.4149 -1.05414,0.253 -1.08106,0.085 -1.08106,-0.085 -1.05414,-0.253 -1.00169,-0.4149 -0.92445,-0.5666 -0.82453,-0.7044 -0.70441,-0.8246 -0.56622,-0.9244 -0.41492,-1.0017 -0.25334,-1.0541 -0.085,-1.0811 -2e-5,-42.5197 0.085,-1.081 0.25336,-1.0542 0.41492,-1.0017 0.56622,-0.9244 0.70441,-0.8245 0.82453,-0.7045 0.92445,-0.5662 1.00169,-0.4149 1.05414,-0.2533 1.08106,-0.0851 z"
       style="fill:none;stroke:#ff0000;stroke-opacity:1"
       id="path16249"
       sodipodi:nodetypes="ccccccccccccccccccccccccccccccccccccccccccc" />
    <path
       inkscape:connector-curvature="0"
       d="m 461.59412,511.51176 1.05414,0.25335 1.00169,0.4149 0.92445,0.5662 0.82453,0.7045 0.70441,0.8245 0.56622,0.9244 0.41492,1.0017 0.25334,1.0542 0.085,1.081 2e-5,42.5197 -0.085,1.0811 -0.25336,1.0541 -0.41492,1.0017 -0.56622,0.9244 -0.70441,0.8246 -0.82453,0.7044 -0.92445,0.5666 -1.00169,0.4149 -1.05414,0.253 -1.08106,0.085 -1.08106,-0.085 -1.05414,-0.253 -1.00169,-0.4149 -0.92445,-0.5666 -0.82453,-0.7044 -0.70441,-0.8246 -0.56657,-0.9244 -0.41492,-1.0017 -0.25299,-1.0541 -0.085,-1.0811 -2e-5,-42.5197 0.085,-1.081 0.25301,-1.0542 0.41492,-1.0017 0.56657,-0.9244 0.70441,-0.8245 0.82453,-0.7045 0.92445,-0.5662 1.00169,-0.4149 1.05414,-0.2533 1.08106,-0.0851 z"
       style="fill:none;stroke:#ff0000;stroke-opacity:1"
       id="path16333"
       sodipodi:nodetypes="ccccccccccccccccccccccccccccccccccccccccccc" />
    <path
       inkscape:connector-curvature="0"
       d="m 419.07408,532.77196 1.05449,0.25295 1.00169,0.415 0.92445,0.5665 0.82418,0.7044 0.70441,0.8242 0.56657,0.9245 0.41492,1.0017 0.25299,1.0545 0.085,1.0807 -0.085,1.081 -0.25301,1.0542 -0.41492,1.0017 -0.56657,0.9244 -0.70441,0.8245 -0.82418,0.7041 -0.92445,0.5666 -1.00169,0.4149 -1.05449,0.253 -1.08071,0.085 -1.08106,-0.085 -1.05413,-0.253 -1.0017,-0.4149 -0.92444,-0.5666 -0.82453,-0.7041 -0.70406,-0.8245 -0.56657,-0.9244 -0.41492,-1.0017 -0.25299,-1.0542 -0.085,-1.081 0.085,-1.0807 0.25301,-1.0545 0.41492,-1.0017 0.56657,-0.9245 0.70406,-0.8242 0.82453,-0.7044 0.92444,-0.5665 1.0017,-0.415 1.05413,-0.2529 1.08106,-0.0851 z"
       style="fill:none;stroke:#ff0000;stroke-opacity:1"
       id="path16415"
       sodipodi:nodetypes="ccccccccccccccccccccccccccccccccccccccccc" />
    <path
       inkscape:connector-curvature="0"
       d="m 505.16794,533.02491 1.00169,0.415 0.92445,0.5665 0.82418,0.7044 0.70441,0.8242 0.56657,0.9245 0.41492,1.0017 0.25299,1.0545 0.085,1.0807 -0.085,1.081 -0.25301,1.0542 -0.41492,1.0017 -0.56657,0.9244 -0.70441,0.8245 -0.82418,0.7041 -0.92445,0.5666 -1.00169,0.4149 -1.05449,0.253 -1.0807,0.085 -1.08107,-0.085 -1.05413,-0.253 -1.00169,-0.4149 -0.92445,-0.5666 -0.82453,-0.7041 -0.70406,-0.8245 -0.56657,-0.9244 -0.41492,-1.0017 -0.25299,-1.0542 -0.085,-1.081 0.085,-1.0807 0.25301,-1.0545 0.41492,-1.0017 0.56657,-0.9245 0.70406,-0.8242 0.82453,-0.7044 0.92445,-0.5665 1.00169,-0.415 1.05413,-0.2529 1.08107,-0.0851 1.0807,0.085 z"
       style="fill:none;stroke:#ff0000;stroke-opacity:1"
       id="path16497"
       sodipodi:nodetypes="ccccccccccccccccccccccccccccccccccccccccc" />
    <path
       inkscape:connector-curvature="0"
       d="m 248.9957,532.77196 1.05413,0.25295 1.00169,0.415 0.92445,0.5665 0.82453,0.7044 0.70406,0.8242 0.56657,0.9245 0.41492,1.0017 0.25299,1.0545 0.085,1.0807 -0.085,1.081 -0.25301,1.0542 -0.41492,1.0017 -0.56657,0.9244 -0.70406,0.8245 -0.82453,0.7041 -0.92445,0.5666 -1.00169,0.4149 -1.05413,0.253 -1.08107,0.085 -1.0807,-0.085 -1.05449,-0.253 -1.00169,-0.4149 -0.92445,-0.5666 -0.82418,-0.7041 -0.70441,-0.8245 -0.56657,-0.9244 -0.41492,-1.0017 -0.25299,-1.0542 -0.085,-1.081 0.085,-1.0807 0.25301,-1.0545 0.41492,-1.0017 0.56657,-0.9245 0.70441,-0.8242 0.82418,-0.7044 0.92445,-0.5665 1.00169,-0.415 1.05449,-0.2529 1.0807,-0.0851 z"
       style="fill:none;stroke:#ff0000;stroke-opacity:1"
       id="path16575"
       sodipodi:nodetypes="ccccccccccccccccccccccccccccccccccccccccc" />
    <path
       inkscape:connector-curvature="0"
       d="m 335.0892,533.02491 1.00169,0.415 0.92445,0.5665 0.82453,0.7044 0.70406,0.8242 0.56657,0.9245 0.41492,1.0017 0.25299,1.0545 0.085,1.0807 -0.085,1.081 -0.25301,1.0542 -0.41492,1.0017 -0.56657,0.9244 -0.70406,0.8245 -0.82453,0.7041 -0.92445,0.5666 -1.00169,0.4149 -1.05413,0.253 -1.08107,0.085 -1.0807,-0.085 -1.05449,-0.253 -1.0017,-0.4149 -0.92444,-0.5666 -0.82418,-0.7041 -0.70441,-0.8245 -0.56657,-0.9244 -0.41492,-1.0017 -0.25299,-1.0542 -0.085,-1.081 0.085,-1.0807 0.25301,-1.0545 0.41492,-1.0017 0.56657,-0.9245 0.70441,-0.8242 0.82418,-0.7044 0.92444,-0.5665 1.0017,-0.415 1.05449,-0.2529 1.0807,-0.0851 1.08107,0.085 z"
       style="fill:none;stroke:#ff0000;stroke-opacity:1"
       id="path16657"
       sodipodi:nodetypes="ccccccccccccccccccccccccccccccccccccccccc" />
    <path
       inkscape:connector-curvature="0"
       d="m 167.5659,569.89161 38.62204,0 0,102.4016 -38.62204,0 z"
       style="fill:none;stroke:#ff0000;stroke-opacity:1"
       id="path16697"
       sodipodi:nodetypes="ccccc" />
    <path
       inkscape:connector-curvature="0"
       d="m 544.75944,569.89161 38.62204,0 0,102.4016 -38.62204,0 z"
       style="fill:none;stroke:#ff0000;stroke-opacity:1"
       id="path16705"
       sodipodi:nodetypes="ccccc" />
    <path
       inkscape:connector-curvature="0"
       d="m 339.52542,584.25121 -0.41492,1.0017 -0.56657,0.9245 -0.70406,0.8245 -0.82453,0.7041 -0.92445,0.5665 -1.00169,0.415 -1.05413,0.253 -1.08107,0.085 -1.0807,-0.085 -1.05449,-0.253 -1.0017,-0.415 -0.92444,-0.5665 -0.82418,-0.7041 -0.70441,-0.8245 -0.56657,-0.9245 -0.41492,-1.0017 -0.25299,-1.0541 -0.085,-1.0811 0.085,-1.0807 0.25301,-1.0545 0.41492,-1.0016 0.56657,-0.9245 0.70441,-0.8242 0.82418,-0.7044 0.92444,-0.5666 1.0017,-0.4149 1.05449,-0.253 1.0807,-0.085 1.08107,0.085 1.05413,0.253 1.00169,0.4149 0.92445,0.5666 0.82453,0.7044 0.70406,0.8242 0.56657,0.9245 0.41492,1.0016 0.25299,1.0545 0.085,1.0807 -0.085,1.0811 z"
       style="fill:none;stroke:#ff0000;stroke-opacity:1"
       id="path16773"
       sodipodi:nodetypes="ccccccccccccccccccccccccccccccccccccccccc" />
    <path
       inkscape:connector-curvature="0"
       d="m 411.42196,579.98081 0.41492,-1.0016 0.56657,-0.9245 0.70406,-0.8242 0.82453,-0.7044 0.92444,-0.5666 1.0017,-0.4149 1.05413,-0.253 1.08106,-0.085 1.08071,0.085 1.05449,0.253 1.00169,0.4149 0.92445,0.5666 0.82418,0.7044 0.70441,0.8242 0.56657,0.9245 0.41492,1.0016 0.25299,1.0545 0.085,1.0807 -0.085,1.0811 -0.25301,1.0541 -0.41492,1.0017 -0.56657,0.9245 -0.70441,0.8245 -0.82418,0.7041 -0.92445,0.5665 -1.00169,0.415 -1.05449,0.253 -1.08071,0.085 -1.08106,-0.085 -1.05413,-0.253 -1.0017,-0.415 -0.92444,-0.5665 -0.82453,-0.7041 -0.70406,-0.8245 -0.56657,-0.9245 -0.41492,-1.0017 -0.25299,-1.0541 -0.085,-1.0811 0.085,-1.0807 z"
       style="fill:none;stroke:#ff0000;stroke-opacity:1"
       id="path16813"
       sodipodi:nodetypes="ccccccccccccccccccccccccccccccccccccccccc" />
    <path
       inkscape:connector-curvature="0"
       d="m 467.08448,584.25121 -0.41492,1.0017 -0.56658,0.9245 -0.70441,0.8245 -0.82417,0.7041 -0.92445,0.5665 -1.00169,0.415 -1.05449,0.253 -1.08071,0.085 -1.08106,-0.085 -1.05414,-0.253 -1.00169,-0.415 -0.92445,-0.5665 -0.82453,-0.7041 -0.70405,-0.8245 -0.56658,-0.9245 -0.41492,-1.0017 -0.25299,-1.0541 -0.085,-1.0811 0.085,-1.0807 0.25301,-1.0545 0.41492,-1.0016 0.56658,-0.9245 0.70405,-0.8242 0.82453,-0.7044 0.92445,-0.5666 1.00169,-0.4149 1.05414,-0.253 1.08106,-0.085 1.08071,0.085 1.05449,0.253 1.00169,0.4149 0.92445,0.5666 0.82417,0.7044 0.70441,0.8242 0.56658,0.9245 0.41492,1.0016 0.25299,1.0545 0.085,1.0807 -0.085,1.0811 z"
       style="fill:none;stroke:#ff0000;stroke-opacity:1"
       id="path16933"
       sodipodi:nodetypes="ccccccccccccccccccccccccccccccccccccccccc" />
    <path
       inkscape:connector-curvature="0"
       d="m 368.90245,579.98081 0.41489,-1.0016 0.5665,-0.9245 0.70416,-0.8242 0.82442,-0.7044 0.92449,-0.5666 1.00169,-0.4149 1.05425,-0.253 1.08084,-0.085 1.08084,0.085 1.05425,0.253 1.00169,0.4149 0.92449,0.5666 0.82442,0.7044 0.70416,0.8242 0.5665,0.9245 0.41489,1.0016 0.2531,1.0545 0.0851,1.0807 -0.0851,1.0811 -0.25311,1.0541 -0.41489,1.0017 -0.5665,0.9245 -0.70416,0.8245 -0.82442,0.7041 -0.92449,0.5665 -1.00169,0.415 -1.05425,0.253 -1.08084,0.085 -1.08084,-0.085 -1.05425,-0.253 -1.00169,-0.415 -0.92449,-0.5665 -0.82442,-0.7041 -0.70416,-0.8245 -0.5665,-0.9245 -0.41489,-1.0017 -0.2531,-1.0541 -0.0851,-1.0811 0.0851,-1.0807 z"
       style="fill:none;stroke:#ff0000;stroke-opacity:1"
       id="path16973"
       sodipodi:nodetypes="ccccccccccccccccccccccccccccccccccccccccc" />
    <path
       inkscape:connector-curvature="0"
       d="m 297.25875,583.19711 -0.25301,1.0541 -0.41492,1.0017 -0.56658,0.9245 -0.70405,0.8245 -0.82453,0.7041 -0.92445,0.5665 -1.00169,0.415 -1.05414,0.253 -1.08106,0.085 -1.08071,-0.085 -1.05449,-0.253 -1.00169,-0.415 -0.92445,-0.5665 -0.82417,-0.7041 -0.70441,-0.8245 -0.56658,-0.9245 -0.41492,-1.0017 -0.25299,-1.0541 -0.085,-1.0811 0.085,-1.0807 0.25301,-1.0545 0.41492,-1.0016 0.56658,-0.9245 0.70441,-0.8242 0.82417,-0.7044 0.92445,-0.5666 1.00169,-0.4149 1.05449,-0.253 1.08071,-0.085 1.08106,0.085 1.05414,0.253 1.00169,0.4149 0.92445,0.5666 0.82453,0.7044 0.70405,0.8242 0.56658,0.9245 0.41492,1.0016 0.25299,1.0545 0.085,1.0807 z"
       style="fill:none;stroke:#ff0000;stroke-opacity:1"
       id="path17091"
       sodipodi:nodetypes="ccccccccccccccccccccccccccccccccccccccccc" />
    <path
       inkscape:connector-curvature="0"
       d="m 496.20832,581.03531 0.25301,-1.0545 0.41492,-1.0016 0.56657,-0.9245 0.70406,-0.8242 0.82453,-0.7044 0.92445,-0.5666 1.00169,-0.4149 1.05413,-0.253 1.08107,-0.085 1.0807,0.085 1.05449,0.253 1.00169,0.4149 0.92445,0.5666 0.82418,0.7044 0.70441,0.8242 0.56657,0.9245 0.41492,1.0016 0.25299,1.0545 0.085,1.0807 -0.085,1.0811 -0.25301,1.0541 -0.41492,1.0017 -0.56657,0.9245 -0.70441,0.8245 -0.82418,0.7041 -0.92445,0.5665 -1.00169,0.415 -1.05449,0.253 -1.0807,0.085 -1.08107,-0.085 -1.05413,-0.253 -1.00169,-0.415 -0.92445,-0.5665 -0.82453,-0.7041 -0.70406,-0.8245 -0.56657,-0.9245 -0.41492,-1.0017 -0.25299,-1.0541 -0.085,-1.0811 z"
       style="fill:none;stroke:#ff0000;stroke-opacity:1"
       id="path17131"
       sodipodi:nodetypes="ccccccccccccccccccccccccccccccccccccccccc" />
    <path
       inkscape:connector-curvature="0"
       d="m 254.73906,583.19711 -0.25301,1.0541 -0.41492,1.0017 -0.56657,0.9245 -0.70406,0.8245 -0.82453,0.7041 -0.92445,0.5665 -1.00169,0.415 -1.05413,0.253 -1.08107,0.085 -1.0807,-0.085 -1.05449,-0.253 -1.00169,-0.415 -0.92445,-0.5665 -0.82418,-0.7041 -0.70441,-0.8245 -0.56657,-0.9245 -0.41492,-1.0017 -0.25299,-1.0541 -0.085,-1.0811 0.085,-1.0807 0.25301,-1.0545 0.41492,-1.0016 0.56657,-0.9245 0.70441,-0.8242 0.82418,-0.7044 0.92445,-0.5666 1.00169,-0.4149 1.05449,-0.253 1.0807,-0.085 1.08107,0.085 1.05413,0.253 1.00169,0.4149 0.92445,0.5666 0.82453,0.7044 0.70406,0.8242 0.56657,0.9245 0.41492,1.0016 0.25299,1.0545 0.085,1.0807 z"
       style="fill:none;stroke:#ff0000;stroke-opacity:1"
       id="path17251"
       sodipodi:nodetypes="ccccccccccccccccccccccccccccccccccccccccc" />
    <path
       inkscape:connector-curvature="0"
       d="m 373.33849,652.46701 -1.00174,-0.4149 -0.92447,-0.5663 -0.82453,-0.7044 -0.70416,-0.8245 -0.56657,-0.9244 -0.41489,-1.0017 -0.25317,-1.0542 -0.085,-1.081 -2e-5,-42.5197 0.085,-1.0811 0.25319,-1.0541 0.41489,-1.0017 0.56657,-0.9245 0.70416,-0.8245 0.82453,-0.7044 0.92447,-0.5662 1.00174,-0.4149 1.0543,-0.2534 1.0809,-0.085 1.0809,0.085 1.0543,0.2534 1.00174,0.4149 0.92447,0.5662 0.82453,0.7044 0.70416,0.8245 0.56657,0.9245 0.41489,1.0017 0.25317,1.0541 0.085,1.0811 2e-5,42.5197 -0.085,1.081 -0.25319,1.0542 -0.41489,1.0017 -0.56657,0.9244 -0.70416,0.8245 -0.82453,0.7044 -0.92447,0.5663 -1.00174,0.4149 -1.0543,0.2533 -1.0809,0.0851 -1.0809,-0.0851 z"
       style="fill:none;stroke:#ff0000;stroke-opacity:1"
       id="path17273"
       sodipodi:nodetypes="ccccccccccccccccccccccccccccccccccccccccccc" />
    <path
       inkscape:connector-curvature="0"
       d="m 459.432,652.72036 -1.05414,-0.25335 -1.00169,-0.4149 -0.92445,-0.5663 -0.82453,-0.7044 -0.70441,-0.8245 -0.56657,-0.9244 -0.41492,-1.0017 -0.25299,-1.0542 -0.085,-1.081 -2e-5,-42.5197 0.085,-1.0811 0.25301,-1.0541 0.41492,-1.0017 0.56657,-0.9245 0.70441,-0.8245 0.82453,-0.7044 0.92445,-0.5662 1.00169,-0.4149 1.05414,-0.2534 1.08106,-0.085 1.08106,0.085 1.05414,0.2534 1.00169,0.4149 0.92445,0.5662 0.82453,0.7044 0.70441,0.8245 0.56622,0.9245 0.41492,1.0017 0.25334,1.0541 0.085,1.0811 2e-5,42.5197 -0.085,1.081 -0.25336,1.0542 -0.41492,1.0017 -0.56622,0.9244 -0.70441,0.8245 -0.82453,0.7044 -0.92445,0.5663 -1.00169,0.4149 -1.05414,0.2533 -1.08106,0.085 z"
       style="fill:none;stroke:#ff0000;stroke-opacity:1"
       id="path17439"
       sodipodi:nodetypes="ccccccccccccccccccccccccccccccccccccccccccc" />
    <path
       inkscape:connector-curvature="0"
       d="m 289.35326,652.72036 -1.05414,-0.25335 -1.00169,-0.4149 -0.92445,-0.5663 -0.82453,-0.7044 -0.70441,-0.8245 -0.56622,-0.9244 -0.41492,-1.0017 -0.25334,-1.0542 -0.085,-1.081 -2e-5,-42.5197 0.085,-1.0811 0.25336,-1.0541 0.41492,-1.0017 0.56622,-0.9245 0.70441,-0.8245 0.82453,-0.7044 0.92445,-0.5662 1.00169,-0.4149 1.05414,-0.2534 1.08106,-0.085 1.08106,0.085 1.05414,0.2534 1.00169,0.4149 0.92445,0.5662 0.82453,0.7044 0.70441,0.8245 0.56657,0.9245 0.41492,1.0017 0.25299,1.0541 0.085,1.0811 2e-5,42.5197 -0.085,1.081 -0.25301,1.0542 -0.41492,1.0017 -0.56657,0.9244 -0.70441,0.8245 -0.82453,0.7044 -0.92445,0.5663 -1.00169,0.4149 -1.05414,0.2533 -1.08106,0.085 z"
       style="fill:none;stroke:#ff0000;stroke-opacity:1"
       id="path17523"
       sodipodi:nodetypes="ccccccccccccccccccccccccccccccccccccccccccc" />
    <path
       inkscape:connector-curvature="0"
       d="m 245.77944,631.20711 -1.00169,-0.4149 -0.92445,-0.5665 -0.82418,-0.7045 -0.70441,-0.8241 -0.56657,-0.9245 -0.41492,-1.0017 -0.25299,-1.0545 -0.085,-1.0807 0.085,-1.0807 0.25301,-1.0545 0.41492,-1.0017 0.56657,-0.9244 0.70441,-0.8242 0.82418,-0.7044 0.92445,-0.5666 1.00169,-0.4149 1.05449,-0.253 1.0807,-0.085 1.08107,0.085 1.05413,0.253 1.00169,0.4149 0.92445,0.5666 0.82453,0.7044 0.70406,0.8242 0.56657,0.9244 0.41492,1.0017 0.25299,1.0545 0.085,1.0807 -0.085,1.0807 -0.25301,1.0545 -0.41492,1.0017 -0.56657,0.9245 -0.70406,0.8241 -0.82453,0.7045 -0.92445,0.5665 -1.00169,0.4149 -1.05413,0.253 -1.08107,0.0851 -1.0807,-0.085 z"
       style="fill:none;stroke:#ff0000;stroke-opacity:1"
       id="path17525"
       sodipodi:nodetypes="ccccccccccccccccccccccccccccccccccccccccc" />
    <path
       inkscape:connector-curvature="0"
       d="m 330.81881,631.20711 -1.0017,-0.4149 -0.92444,-0.5665 -0.82418,-0.7045 -0.70441,-0.8241 -0.56657,-0.9245 -0.41492,-1.0017 -0.25299,-1.0545 -0.085,-1.0807 0.085,-1.0807 0.25301,-1.0545 0.41492,-1.0017 0.56657,-0.9244 0.70441,-0.8242 0.82418,-0.7044 0.92444,-0.5666 1.0017,-0.4149 1.05449,-0.253 1.0807,-0.085 1.08107,0.085 1.05413,0.253 1.00169,0.4149 0.92445,0.5666 0.82453,0.7044 0.70406,0.8242 0.56657,0.9244 0.41492,1.0017 0.25299,1.0545 0.085,1.0807 -0.085,1.0807 -0.25301,1.0545 -0.41492,1.0017 -0.56657,0.9245 -0.70406,0.8241 -0.82453,0.7045 -0.92445,0.5665 -1.00169,0.4149 -1.05413,0.253 -1.08107,0.0851 -1.0807,-0.085 z"
       style="fill:none;stroke:#ff0000;stroke-opacity:1"
       id="path17605"
       sodipodi:nodetypes="ccccccccccccccccccccccccccccccccccccccccc" />
    <path
       inkscape:connector-curvature="0"
       d="m 415.85818,631.20711 -1.0017,-0.4149 -0.92444,-0.5665 -0.82453,-0.7045 -0.70406,-0.8241 -0.56657,-0.9245 -0.41492,-1.0017 -0.25299,-1.0545 -0.085,-1.0807 0.085,-1.0807 0.25301,-1.0545 0.41492,-1.0017 0.56657,-0.9244 0.70406,-0.8242 0.82453,-0.7044 0.92444,-0.5666 1.0017,-0.4149 1.05413,-0.253 1.08106,-0.085 1.08071,0.085 1.05449,0.253 1.00169,0.4149 0.92445,0.5666 0.82418,0.7044 0.70441,0.8242 0.56657,0.9244 0.41492,1.0017 0.25299,1.0545 0.085,1.0807 -0.085,1.0807 -0.25301,1.0545 -0.41492,1.0017 -0.56657,0.9245 -0.70441,0.8241 -0.82418,0.7045 -0.92445,0.5665 -1.00169,0.4149 -1.05449,0.253 -1.08071,0.0851 -1.08106,-0.085 z"
       style="fill:none;stroke:#ff0000;stroke-opacity:1"
       id="path17685"
       sodipodi:nodetypes="ccccccccccccccccccccccccccccccccccccccccc" />
    <path
       inkscape:connector-curvature="0"
       d="m 500.89755,631.20711 -1.00169,-0.4149 -0.92445,-0.5665 -0.82453,-0.7045 -0.70406,-0.8241 -0.56657,-0.9245 -0.41492,-1.0017 -0.25299,-1.0545 -0.085,-1.0807 0.085,-1.0807 0.25301,-1.0545 0.41492,-1.0017 0.56657,-0.9244 0.70406,-0.8242 0.82453,-0.7044 0.92445,-0.5666 1.00169,-0.4149 1.05413,-0.253 1.08107,-0.085 1.0807,0.085 1.05449,0.253 1.00169,0.4149 0.92445,0.5666 0.82418,0.7044 0.70441,0.8242 0.56657,0.9244 0.41492,1.0017 0.25299,1.0545 0.085,1.0807 -0.085,1.0807 -0.25301,1.0545 -0.41492,1.0017 -0.56657,0.9245 -0.70441,0.8241 -0.82418,0.7045 -0.92445,0.5665 -1.00169,0.4149 -1.05449,0.253 -1.0807,0.0851 -1.08107,-0.085 z"
       style="fill:none;stroke:#ff0000;stroke-opacity:1"
       id="path17765"
       sodipodi:nodetypes="ccccccccccccccccccccccccccccccccccccccccc" />
    <path
       inkscape:connector-curvature="0"
       d="m 459.432,673.97986 -1.05414,-0.25305 -1.00169,-0.4149 -0.92445,-0.5666 -0.82453,-0.7044 -0.70405,-0.8241 -0.56658,-0.9245 -0.41492,-1.0017 -0.25299,-1.0545 -0.085,-1.0807 0.085,-1.081 0.25301,-1.0542 0.41492,-1.0017 0.56658,-0.9244 0.70405,-0.8246 0.82453,-0.704 0.92445,-0.5666 1.00169,-0.4149 1.05414,-0.253 1.08106,-0.085 1.08071,0.085 1.05449,0.253 1.00169,0.4149 0.92445,0.5666 0.82417,0.704 0.70441,0.8246 0.56658,0.9244 0.41492,1.0017 0.25299,1.0542 0.085,1.081 -0.085,1.0807 -0.25301,1.0545 -0.41492,1.0017 -0.56658,0.9245 -0.70441,0.8241 -0.82417,0.7044 -0.92445,0.5666 -1.00169,0.4149 -1.05449,0.253 -1.08071,0.085 z"
       style="fill:none;stroke:#ff0000;stroke-opacity:1"
       id="path17923"
       sodipodi:nodetypes="ccccccccccccccccccccccccccccccccccccccccc" />
    <path
       inkscape:connector-curvature="0"
       d="m 245.77944,673.72681 -1.00169,-0.4149 -0.92445,-0.5666 -0.82418,-0.7044 -0.70441,-0.8241 -0.56657,-0.9245 -0.41492,-1.0017 -0.25299,-1.0545 -0.085,-1.0807 0.085,-1.081 0.25301,-1.0542 0.41492,-1.0017 0.56657,-0.9244 0.70441,-0.8246 0.82418,-0.704 0.92445,-0.5666 1.00169,-0.4149 1.05449,-0.253 1.0807,-0.085 1.08107,0.085 1.05413,0.253 1.00169,0.4149 0.92445,0.5666 0.82453,0.704 0.70406,0.8246 0.56657,0.9244 0.41492,1.0017 0.25299,1.0542 0.085,1.081 -0.085,1.0807 -0.25301,1.0545 -0.41492,1.0017 -0.56657,0.9245 -0.70406,0.8241 -0.82453,0.7044 -0.92445,0.5666 -1.00169,0.4149 -1.05413,0.253 -1.08107,0.085 -1.0807,-0.085 z"
       style="fill:none;stroke:#ff0000;stroke-opacity:1"
       id="path17925"
       sodipodi:nodetypes="ccccccccccccccccccccccccccccccccccccccccc" />
    <path
       inkscape:connector-curvature="0"
       d="m 373.3386,673.72681 -1.00169,-0.4149 -0.92449,-0.5666 -0.82442,-0.7044 -0.70416,-0.8241 -0.5665,-0.9245 -0.41489,-1.0017 -0.2531,-1.0545 -0.0851,-1.0807 0.0851,-1.081 0.2531,-1.0542 0.41489,-1.0017 0.5665,-0.9244 0.70416,-0.8246 0.82442,-0.704 0.92449,-0.5666 1.00169,-0.4149 1.05425,-0.253 1.08084,-0.085 1.08084,0.085 1.05425,0.253 1.00169,0.4149 0.92449,0.5666 0.82442,0.704 0.70416,0.8246 0.5665,0.9244 0.41489,1.0017 0.2531,1.0542 0.0851,1.081 -0.0851,1.0807 -0.25311,1.0545 -0.41489,1.0017 -0.5665,0.9245 -0.70416,0.8241 -0.82442,0.7044 -0.92449,0.5666 -1.00169,0.4149 -1.05425,0.253 -1.08084,0.0851 -1.08084,-0.0851 z"
       style="fill:none;stroke:#ff0000;stroke-opacity:1"
       id="path18005"
       sodipodi:nodetypes="ccccccccccccccccccccccccccccccccccccccccc" />
    <path
       inkscape:connector-curvature="0"
       d="m 330.81881,673.72681 -1.0017,-0.4149 -0.92444,-0.5666 -0.82418,-0.7044 -0.70441,-0.8241 -0.56657,-0.9245 -0.41492,-1.0017 -0.25299,-1.0545 -0.085,-1.0807 0.085,-1.081 0.25301,-1.0542 0.41492,-1.0017 0.56657,-0.9244 0.70441,-0.8246 0.82418,-0.704 0.92444,-0.5666 1.0017,-0.4149 1.05449,-0.253 1.0807,-0.085 1.08107,0.085 1.05413,0.253 1.00169,0.4149 0.92445,0.5666 0.82453,0.704 0.70406,0.8246 0.56657,0.9244 0.41492,1.0017 0.25299,1.0542 0.085,1.081 -0.085,1.0807 -0.25301,1.0545 -0.41492,1.0017 -0.56657,0.9245 -0.70406,0.8241 -0.82453,0.7044 -0.92445,0.5666 -1.00169,0.4149 -1.05413,0.253 -1.08107,0.085 -1.0807,-0.085 z"
       style="fill:none;stroke:#ff0000;stroke-opacity:1"
       id="path18085"
       sodipodi:nodetypes="ccccccccccccccccccccccccccccccccccccccccc" />
    <path
       inkscape:connector-curvature="0"
       d="m 415.85818,673.72681 -1.0017,-0.4149 -0.92444,-0.5666 -0.82453,-0.7044 -0.70406,-0.8241 -0.56657,-0.9245 -0.41492,-1.0017 -0.25299,-1.0545 -0.085,-1.0807 0.085,-1.081 0.25301,-1.0542 0.41492,-1.0017 0.56657,-0.9244 0.70406,-0.8246 0.82453,-0.704 0.92444,-0.5666 1.0017,-0.4149 1.05413,-0.253 1.08106,-0.085 1.08071,0.085 1.05449,0.253 1.00169,0.4149 0.92445,0.5666 0.82418,0.704 0.70441,0.8246 0.56657,0.9244 0.41492,1.0017 0.25299,1.0542 0.085,1.081 -0.085,1.0807 -0.25301,1.0545 -0.41492,1.0017 -0.56657,0.9245 -0.70441,0.8241 -0.82418,0.7044 -0.92445,0.5666 -1.00169,0.4149 -1.05449,0.253 -1.08071,0.085 -1.08106,-0.085 z"
       style="fill:none;stroke:#ff0000;stroke-opacity:1"
       id="path18165"
       sodipodi:nodetypes="ccccccccccccccccccccccccccccccccccccccccc" />
    <path
       inkscape:connector-curvature="0"
       d="m 289.35361,673.97986 -1.05449,-0.25305 -1.00169,-0.4149 -0.92445,-0.5666 -0.82417,-0.7044 -0.70441,-0.8241 -0.56658,-0.9245 -0.41492,-1.0017 -0.25299,-1.0545 -0.085,-1.0807 0.085,-1.081 0.25301,-1.0542 0.41492,-1.0017 0.56658,-0.9244 0.70441,-0.8246 0.82417,-0.704 0.92445,-0.5666 1.00169,-0.4149 1.05449,-0.253 1.08071,-0.085 1.08106,0.085 1.05414,0.253 1.00169,0.4149 0.92445,0.5666 0.82453,0.704 0.70405,0.8246 0.56658,0.9244 0.41492,1.0017 0.25299,1.0542 0.085,1.081 -0.085,1.0807 -0.25301,1.0545 -0.41492,1.0017 -0.56658,0.9245 -0.70405,0.8241 -0.82453,0.7044 -0.92445,0.5666 -1.00169,0.4149 -1.05414,0.253 -1.08106,0.085 z"
       style="fill:none;stroke:#ff0000;stroke-opacity:1"
       id="path18323"
       sodipodi:nodetypes="ccccccccccccccccccccccccccccccccccccccccc" />
    <path
       inkscape:connector-curvature="0"
       d="m 501.95168,673.97986 -1.05413,-0.25305 -1.00169,-0.4149 -0.92445,-0.5666 -0.82453,-0.7044 -0.70406,-0.8241 -0.56657,-0.9245 -0.41492,-1.0017 -0.25299,-1.0545 -0.085,-1.0807 0.085,-1.081 0.25301,-1.0542 0.41492,-1.0017 0.56657,-0.9244 0.70406,-0.8246 0.82453,-0.704 0.92445,-0.5666 1.00169,-0.4149 1.05413,-0.253 1.08107,-0.085 1.0807,0.085 1.05449,0.253 1.00169,0.4149 0.92445,0.5666 0.82418,0.704 0.70441,0.8246 0.56657,0.9244 0.41492,1.0017 0.25299,1.0542 0.085,1.081 -0.085,1.0807 -0.25301,1.0545 -0.41492,1.0017 -0.56657,0.9245 -0.70441,0.8241 -0.82418,0.7044 -0.92445,0.5666 -1.00169,0.4149 -1.05449,0.253 -1.0807,0.085 z"
       style="fill:none;stroke:#ff0000;stroke-opacity:1"
       id="path18403"
       sodipodi:nodetypes="ccccccccccccccccccccccccccccccccccccccccc" />
    <path
       inkscape:connector-curvature="0"
       d="m 516.26558,691.36726 0.81106,0.19515 0.77067,0.3189 0.71114,0.4358 0.63426,0.5418 0.54141,0.6343 0.43583,0.7111 0.31925,0.7703 0.19453,0.8111 0.0656,0.8313 -0.0656,0.8316 -0.1945,0.811 -0.31925,0.7703 -0.43583,0.7112 -0.54141,0.6342 -0.63426,0.5418 -0.71114,0.4355 -0.77067,0.3192 -0.81106,0.1949 -0.83126,0.0651 -0.83161,-0.065 -0.81071,-0.195 -0.77067,-0.3192 -0.71114,-0.4355 -0.63426,-0.5418 -0.54141,-0.6342 -0.43583,-0.7112 -0.31925,-0.7703 -0.19453,-0.811 -0.0656,-0.8316 0.0656,-0.8313 0.19451,-0.8111 0.31925,-0.7703 0.43583,-0.7111 0.54141,-0.6343 0.63426,-0.5418 0.71114,-0.4358 0.77067,-0.3189 0.81071,-0.1949 0.83161,-0.0652 z"
       style="fill:none;stroke:#ff0000;stroke-opacity:1"
       id="path18443"
       sodipodi:nodetypes="ccccccccccccccccccccccccccccccccccccccccc" />
    <path
       inkscape:connector-curvature="0"
       d="m 237.15538,691.56241 0.77067,0.3189 0.71114,0.4358 0.63426,0.5418 0.54141,0.6343 0.43583,0.7111 0.31925,0.7703 0.19453,0.8111 0.0656,0.8313 -0.0656,0.8316 -0.19451,0.811 -0.31925,0.7703 -0.43583,0.7112 -0.54141,0.6342 -0.63426,0.5418 -0.71114,0.4355 -0.77067,0.3192 -0.81071,0.1949 -0.83161,0.0651 -0.83126,-0.065 -0.81106,-0.195 -0.77067,-0.3192 -0.71114,-0.4355 -0.63426,-0.5418 -0.54141,-0.6342 -0.43583,-0.7112 -0.31925,-0.7703 -0.19453,-0.811 -0.0656,-0.8316 0.0656,-0.8313 0.19451,-0.8111 0.31925,-0.7703 0.43583,-0.7111 0.54141,-0.6343 0.63426,-0.5418 0.71114,-0.4358 0.77067,-0.3189 0.81106,-0.1949 0.83126,-0.0652 0.83161,0.065 z"
       style="fill:none;stroke:#ff0000;stroke-opacity:1"
       id="path18525"
       sodipodi:nodetypes="ccccccccccccccccccccccccccccccccccccccccc" />
    <path
       inkscape:connector-curvature="0"
       d="m 326.38259,707.53991 0.41492,-1.0017 0.56657,-0.9244 0.70441,-0.8246 0.82418,-0.704 0.92444,-0.5666 1.0017,-0.4149 1.05449,-0.253 1.0807,-0.085 1.08107,0.085 1.05413,0.253 1.00169,0.4149 0.92445,0.5666 0.82453,0.704 0.70406,0.8246 0.56657,0.9244 0.41492,1.0017 0.25299,1.0541 0.085,1.0811 -0.085,1.0807 -0.25301,1.0545 -0.41492,1.0017 -0.56657,0.9244 -0.70406,0.8242 -0.82453,0.7044 -0.92445,0.5666 -1.00169,0.4149 -1.05413,0.253 -1.08107,0.085 -1.0807,-0.085 -1.05449,-0.253 -1.0017,-0.4149 -0.92444,-0.5666 -0.82418,-0.7044 -0.70441,-0.8242 -0.56657,-0.9244 -0.41492,-1.0017 -0.25299,-1.0545 -0.085,-1.0807 0.085,-1.0811 z"
       style="fill:none;stroke:#ff0000;stroke-opacity:1"
       id="path18585"
       sodipodi:nodetypes="ccccccccccccccccccccccccccccccccccccccccc" />
    <path
       inkscape:connector-curvature="0"
       d="m 467.08448,711.81031 -0.41492,1.0017 -0.56658,0.9244 -0.70441,0.8242 -0.82417,0.7044 -0.92445,0.5666 -1.00169,0.4149 -1.05449,0.253 -1.08071,0.085 -1.08106,-0.085 -1.05414,-0.253 -1.00169,-0.4149 -0.92445,-0.5666 -0.82453,-0.7044 -0.70405,-0.8242 -0.56658,-0.9244 -0.41492,-1.0017 -0.25299,-1.0545 -0.085,-1.0807 0.085,-1.0811 0.25301,-1.0541 0.41492,-1.0017 0.56658,-0.9244 0.70405,-0.8246 0.82453,-0.704 0.92445,-0.5666 1.00169,-0.4149 1.05414,-0.253 1.08106,-0.085 1.08071,0.085 1.05449,0.253 1.00169,0.4149 0.92445,0.5666 0.82417,0.704 0.70441,0.8246 0.56658,0.9244 0.41492,1.0017 0.25299,1.0541 0.085,1.0811 -0.085,1.0807 z"
       style="fill:none;stroke:#ff0000;stroke-opacity:1"
       id="path18705"
       sodipodi:nodetypes="ccccccccccccccccccccccccccccccccccccccccc" />
    <path
       inkscape:connector-curvature="0"
       d="m 297.25875,710.75581 -0.25301,1.0545 -0.41492,1.0017 -0.56658,0.9244 -0.70405,0.8242 -0.82453,0.7044 -0.92445,0.5666 -1.00169,0.4149 -1.05414,0.253 -1.08106,0.085 -1.08071,-0.085 -1.05449,-0.253 -1.00169,-0.4149 -0.92445,-0.5666 -0.82417,-0.7044 -0.70441,-0.8242 -0.56658,-0.9244 -0.41492,-1.0017 -0.25299,-1.0545 -0.085,-1.0807 0.085,-1.0811 0.25301,-1.0541 0.41492,-1.0017 0.56658,-0.9244 0.70441,-0.8246 0.82417,-0.704 0.92445,-0.5666 1.00169,-0.4149 1.05449,-0.253 1.08071,-0.085 1.08106,0.085 1.05414,0.253 1.00169,0.4149 0.92445,0.5666 0.82453,0.704 0.70405,0.8246 0.56658,0.9244 0.41492,1.0017 0.25299,1.0541 0.085,1.0811 z"
       style="fill:none;stroke:#ff0000;stroke-opacity:1"
       id="path18783"
       sodipodi:nodetypes="ccccccccccccccccccccccccccccccccccccccccc" />
    <path
       inkscape:connector-curvature="0"
       d="m 411.42196,707.53991 0.41492,-1.0017 0.56657,-0.9244 0.70406,-0.8246 0.82453,-0.704 0.92444,-0.5666 1.0017,-0.4149 1.05413,-0.253 1.08106,-0.085 1.08071,0.085 1.05449,0.253 1.00169,0.4149 0.92445,0.5666 0.82418,0.704 0.70441,0.8246 0.56657,0.9244 0.41492,1.0017 0.25299,1.0541 0.085,1.0811 -0.085,1.0807 -0.25301,1.0545 -0.41492,1.0017 -0.56657,0.9244 -0.70441,0.8242 -0.82418,0.7044 -0.92445,0.5666 -1.00169,0.4149 -1.05449,0.253 -1.08071,0.085 -1.08106,-0.085 -1.05413,-0.253 -1.0017,-0.4149 -0.92444,-0.5666 -0.82453,-0.7044 -0.70406,-0.8242 -0.56657,-0.9244 -0.41492,-1.0017 -0.25299,-1.0545 -0.085,-1.0807 0.085,-1.0811 z"
       style="fill:none;stroke:#ff0000;stroke-opacity:1"
       id="path18825"
       sodipodi:nodetypes="ccccccccccccccccccccccccccccccccccccccccc" />
    <path
       inkscape:connector-curvature="0"
       d="m 382.29804,710.75581 -0.25311,1.0545 -0.41489,1.0017 -0.5665,0.9244 -0.70416,0.8242 -0.82442,0.7044 -0.92449,0.5666 -1.00169,0.4149 -1.05425,0.253 -1.08084,0.085 -1.08084,-0.085 -1.05425,-0.253 -1.00169,-0.4149 -0.92449,-0.5666 -0.82442,-0.7044 -0.70416,-0.8242 -0.5665,-0.9244 -0.41489,-1.0017 -0.2531,-1.0545 -0.0851,-1.0807 0.0851,-1.0811 0.2531,-1.0541 0.41489,-1.0017 0.5665,-0.9244 0.70416,-0.8246 0.82442,-0.704 0.92449,-0.5666 1.00169,-0.4149 1.05425,-0.253 1.08084,-0.085 1.08084,0.085 1.05425,0.253 1.00169,0.4149 0.92449,0.5666 0.82442,0.704 0.70416,0.8246 0.5665,0.9244 0.41489,1.0017 0.2531,1.0541 0.0851,1.0811 z"
       style="fill:none;stroke:#ff0000;stroke-opacity:1"
       id="path18943"
       sodipodi:nodetypes="ccccccccccccccccccccccccccccccccccccccccc" />
  </g>
</svg>
