<?xml version="1.0" encoding="UTF-8" standalone="no"?>
<svg
   xmlns:dc="http://purl.org/dc/elements/1.1/"
   xmlns:cc="http://creativecommons.org/ns#"
   xmlns:rdf="http://www.w3.org/1999/02/22-rdf-syntax-ns#"
   xmlns:svg="http://www.w3.org/2000/svg"
   xmlns="http://www.w3.org/2000/svg"
   xmlns:sodipodi="http://sodipodi.sourceforge.net/DTD/sodipodi-0.dtd"
   xmlns:inkscape="http://www.inkscape.org/namespaces/inkscape"
   width="744.094488189"
   height="1052.36220472"
   id="svg5525"
   version="1.1"
   inkscape:version="0.91 r"
   sodipodi:docname="tower.svg">
  <metadata
     id="metadata7829">
    <rdf:RDF>
      <cc:Work
         rdf:about="">
        <dc:format>image/svg+xml</dc:format>
        <dc:type
           rdf:resource="http://purl.org/dc/dcmitype/StillImage" />
        <dc:title />
      </cc:Work>
    </rdf:RDF>
  </metadata>
  <sodipodi:namedview
     pagecolor="#ffffff"
     bordercolor="#666666"
     borderopacity="1"
     objecttolerance="10"
     gridtolerance="10"
     guidetolerance="10"
     inkscape:pageopacity="0"
     inkscape:pageshadow="2"
     inkscape:window-width="1855"
     inkscape:window-height="1176"
     id="namedview7827"
     showgrid="false"
     inkscape:zoom="0.89702957"
     inkscape:cx="-56.180777"
     inkscape:cy="596.43679"
     inkscape:window-x="65"
     inkscape:window-y="24"
     inkscape:window-maximized="1"
     inkscape:current-layer="g5541" />
  <desc
     id="desc5527">C:\Share\Robotics\Whr_bot\Parts\61r\tower.dxf - scale = 1.000000, origin = (0.000000, 0.000000), auto = False</desc>
  <defs
     id="defs5529">
    <marker
       refY="0.0"
       refX="0.0"
       style="overflow:visible"
       id="DistanceX"
       orient="auto">
      <path
         style="stroke:#000000; stroke-width:0.5"
         d="M 3,-3 L -3,3 M 0,-5 L  0,5"
         id="path5532" />
    </marker>
    <pattern
       height="8"
       width="8"
       patternUnits="userSpaceOnUse"
       y="0"
       x="0"
       id="Hatch">
      <path
         linecap="square"
         stroke="#000000"
         stroke-width="0.25"
         d="M8 4 l-4,4"
         id="path5535" />
      <path
         linecap="square"
         stroke="#000000"
         stroke-width="0.25"
         d="M6 2 l-4,4"
         id="path5537" />
      <path
         linecap="square"
         stroke="#000000"
         stroke-width="0.25"
         d="M4 0 l-4,4"
         id="path5539" />
    </pattern>
    <marker
       style="overflow:visible"
       refY="0.0"
       refX="0.0"
       orient="auto"
       id="DistanceX-9">
      <path
         id="path26282"
         style="stroke:#000000; stroke-width:0.5"
         d="M 3,-3 L -3,3 M 0,-5 L  0,5" />
    </marker>
    <pattern
       y="0"
       x="0"
       width="8"
       patternUnits="userSpaceOnUse"
       id="Hatch-3"
       height="8">
      <path
         id="path26285"
         stroke-width="0.25"
         stroke="#000000"
         linecap="square"
         d="M8 4 l-4,4" />
      <path
         id="path26287"
         stroke-width="0.25"
         stroke="#000000"
         linecap="square"
         d="M6 2 l-4,4" />
      <path
         id="path26289"
         stroke-width="0.25"
         stroke="#000000"
         linecap="square"
         d="M4 0 l-4,4" />
    </pattern>
  </defs>
  <g
     inkscape:label="0"
     inkscape:groupmode="layer"
     id="g5541">
    <path
       inkscape:connector-curvature="0"
       d="m 240.07963,625.04529 -0.38551,-0.16 -0.35539,-0.2176 -0.31713,-0.2711 -0.27071,-0.3171 -0.21791,-0.3554 -0.1598,-0.3851 -0.0971,-0.4057 -0.0329,-0.4157 0.0329,-0.4156 0.0971,-0.4054 0.1598,-0.3855 0.21791,-0.3554 0.27071,-0.3171 0.31713,-0.2707 0.35539,-0.2179 0.38551,-0.1598 0.40536,-0.097 0.41563,-0.033 0,-5.13775 0.12011,-1.5244 0.35682,-1.4867 0.58535,-1.4128 0.79866,-1.3035 0.99319,-1.1626 1.16256,-0.9932 1.30394,-0.7987 1.41236,-0.5853 1.48677,-0.3568 1.52433,-0.1201 1.52433,0.1201 1.48677,0.3568 1.41272,0.5853 1.30358,0.7987 1.16256,0.9932 0.99319,1.1626 0.79902,1.3035 0.585,1.4128 0.35716,1.4867 0.11977,1.5244 0,5.1378 0.41563,0.033 0.4057,0.097 0.38516,0.15985 0.3554,0.2179 0.31712,0.2707 0.27106,0.3171 0.21792,0.3554 0.15945,0.3855 0.0974,0.4054 0.0326,0.4156 -0.0326,0.4157 -0.0974,0.4057 -0.15947,0.3851 -0.21792,0.3554 -0.27106,0.3171 -0.31712,0.2711 -0.3554,0.2176 -0.38516,0.1598 -0.4057,0.0972 -0.41563,0.033 -4.51772,-2e-4 0,10.6296 30.53622,0 0,-9.5669 42.51968,0 0,-62.0079 0.32528,-6.204 0.97157,-6.1356 1.60796,-6.0007 2.22626,-5.7997 2.82047,-5.5352 3.3835,-5.2101 3.90933,-4.8279 4.393,-4.3928 1.62248,-1.3139 0,-27.2179 0.039,-0.7407 0.11586,-0.7327 0.19205,-0.7165 0.26574,-0.6925 0.33697,-0.6609 0.40394,-0.6221 0.46665,-0.5765 0.52441,-0.5245 0.5765,-0.4668 0.6222,-0.404 0.66083,-0.3368 0.69272,-0.2657 0.71645,-0.192 0.73276,-0.1161 0.74055,-0.0389 159.44882,1e-4 0.74055,0.0389 0.73276,0.116 0.71645,0.192 0.69272,0.2657 0.66083,0.3368 0.6222,0.404 0.5765,0.4668 0.52441,0.5245 0.46665,0.5765 0.40394,0.6221 0.33697,0.6609 0.26574,0.6925 0.19205,0.7165 0.11587,0.7327 0.039,0.7407 -10e-6,27.2179 1.62248,1.3139 4.393,4.3928 3.90933,4.8279 3.3835,5.2101 2.82047,5.5352 2.22626,5.7997 1.60796,6.0007 0.97157,6.1356 0.32528,6.204 0,62.0079 42.51968,0 0,9.5669 30.53622,0 0,-10.6296 -4.51772,0 -0.41563,-0.0328 -0.4057,-0.097 -0.38516,-0.16 -0.3554,-0.2176 -0.31712,-0.2711 -0.27106,-0.3171 -0.21792,-0.3554 -0.15945,-0.3851 -0.0974,-0.4057 -0.0326,-0.4157 0.0326,-0.4156 0.0974,-0.4054 0.15947,-0.3855 0.21792,-0.3554 0.27106,-0.3171 0.31712,-0.2707 0.3554,-0.2179 0.38516,-0.1598 0.4057,-0.097 0.41563,-0.033 0,-5.13775 0.11977,-1.5244 0.35716,-1.4867 0.585,-1.4128 0.79902,-1.3035 0.99319,-1.1626 1.16256,-0.9932 1.30358,-0.7987 1.41272,-0.5853 1.48677,-0.3568 1.52433,-0.1201 1.52433,0.1201 1.48677,0.3568 1.41236,0.5853 1.30394,0.7987 1.16256,0.9932 0.99319,1.1626 0.79866,1.3035 0.58535,1.4128 0.35682,1.4867 0.12011,1.5244 0,5.1378 0.41563,0.033 0.40536,0.097 0.38551,0.15985 0.35539,0.2179 0.31713,0.2707 0.27071,0.3171 0.21791,0.3554 0.1598,0.3855 0.0971,0.4054 0.0329,0.4156 -0.0329,0.4157 -0.0971,0.4057 -0.15979,0.3851 -0.21791,0.3554 -0.27071,0.3171 -0.31713,0.2711 -0.35539,0.2176 -0.38551,0.1598 -0.40536,0.0972 -0.41563,0.033 -4.51771,-2e-4 0,10.6296 30.53622,0 0,-9.5669 30.81968,0 -5.6863,-32.2505 -10.36275,1.8273 -3.07666,-17.4473 10.36276,-1.8276 -15.99732,-90.7261 -10.36276,1.8272 -3.07665,-17.4475 10.36275,-1.8272 -24.84389,-140.89681 -0.56481,-4.6017 -0.0811,-4.63535 0.40392,-4.61835 0.88476,-4.55067 1.35532,-4.43374 1.81169,-4.26756 2.24752,-4.0546 2.65925,-3.79772 3.04158,-3.49901 3.39023,-3.1617 3.70276,-2.79 3.97382,-2.38783 4.20165,-1.9591 4.38343,-1.50945 4.51736,-1.04279 2.84563,-0.34937 -10.48429,-108.96591 -17.71654,0 0,3.54685 -14.17323,0 0,-3.54685 -379.13385,0 0,3.54685 -14.17323,0 0,-3.54685 -31.88977,0 -10.48429,108.96591 2.84563,0.34937 4.51736,1.04279 4.38343,1.50945 4.20165,1.9591 3.97382,2.38783 3.70276,2.79 3.39023,3.1617 3.04158,3.49901 2.65925,3.79772 2.24752,4.0546 1.81169,4.26756 1.35532,4.43374 0.88476,4.55067 0.40394,4.61835 -0.0811,4.63535 -0.56483,4.6017 -24.84389,140.89711 10.3624,1.8266 -3.07666,17.4481 -10.3624,-1.8272 -15.99732,90.7261 10.3624,1.827 -3.07665,17.4479 -10.3624,-1.8273 -5.6863,32.2502 30.81968,0 0,9.5669 30.53622,0 0,-10.6296 -4.51771,0 -0.41563,-0.0328 z"
       style="fill:none;stroke:#0000ff;stroke-opacity:1"
       id="path26297"
       sodipodi:nodetypes="ccccccccccccccccccccccccccccccccccccccccccccccccccccccccccccccccccccccccccccccccccccccccccccccccccccccccccccccccccccccccccccccccccccccccccccccccccccccccccccccccccccccccccccccccccccccccccccccccccccccccccccccccccccccccccccccccccccccccccccccccccccccccccccccccccc" />
    <path
       inkscape:connector-curvature="0"
       d="m 322.00656,217.68381 0.45496,0.12826 0.44398,0.1637 0.42945,0.19807 0.41279,0.23103 0.39296,0.26291 0.37169,0.29268 0.34724,0.32102 0.32102,0.34724 0.29268,0.3717 0.26292,0.3933 0.23102,0.41245 0.19807,0.42945 0.1637,0.44397 0.12827,0.45532 0.0925,0.46382 0.0556,0.46948 0.0184,0.47268 -0.0184,0.47268 -0.0556,0.46984 -0.0925,0.46382 -0.12826,0.45496 -0.1637,0.44398 -0.19807,0.42944 -0.23102,0.4128 -0.26292,0.39295 -0.29268,0.3717 -0.32102,0.34724 -0.34724,0.32102 -0.37169,0.29268 -0.39296,0.26291 -0.41279,0.23103 -0.42945,0.19807 -0.44398,0.1637 -0.45496,0.12827 -0.46417,0.0925 -0.46949,0.0556 -0.47268,0.0184 -0.47268,-0.0184 -0.46948,-0.0556 -0.46418,-0.0925 -0.45496,-0.12826 -0.44362,-0.1637 -0.4298,-0.19807 -0.41244,-0.23103 -0.39331,-0.26291 -0.37169,-0.29268 -0.34725,-0.32102 -0.32102,-0.34724 -0.29268,-0.3717 -0.26291,-0.39295 -0.23103,-0.4128 -0.19807,-0.42944 -0.1637,-0.44398 -0.12826,-0.45496 -0.0925,-0.46382 -0.0556,-0.46984 -0.0184,-0.47268 0.0184,-0.47268 0.0556,-0.46948 0.0925,-0.46382 0.12826,-0.45532 0.1637,-0.44397 0.19807,-0.42945 0.23103,-0.41245 0.26291,-0.3933 0.29268,-0.3717 0.32102,-0.34724 0.34725,-0.32102 0.37169,-0.29268 0.39331,-0.26291 0.41244,-0.23103 0.4298,-0.19807 0.44362,-0.1637 0.45496,-0.12827 0.46418,-0.0925 0.46948,-0.0556 0.47268,-0.0184 0.47268,0.0184 0.46949,0.0556 z"
       style="fill:none;stroke:#ff0000;stroke-opacity:1"
       id="path26891"
       sodipodi:nodetypes="ccccccccccccccccccccccccccccccccccccccccccccccccccccccccccccccccccccccccccccccccc" />
    <path
       inkscape:connector-curvature="0"
       d="m 220.84514,217.68381 0.45496,0.12826 0.44398,0.1637 0.42945,0.19807 0.4128,0.23103 0.39295,0.26291 0.37169,0.29268 0.34724,0.32102 0.32103,0.34724 0.29268,0.3717 0.26291,0.3933 0.23102,0.41245 0.19807,0.42945 0.1637,0.44397 0.12827,0.45532 0.0925,0.46382 0.0556,0.46948 0.0184,0.47268 -0.0184,0.47268 -0.0556,0.46984 -0.0925,0.46382 -0.12826,0.45496 -0.1637,0.44398 -0.19807,0.42944 -0.23102,0.4128 -0.26291,0.39295 -0.29268,0.3717 -0.32103,0.34724 -0.34724,0.32102 -0.37169,0.29268 -0.39295,0.26291 -0.4128,0.23103 -0.42945,0.19807 -0.44398,0.1637 -0.45496,0.12827 -0.46381,0.0925 -0.46985,0.0556 -0.47267,0.0184 -0.47268,-0.0184 -0.46949,-0.0556 -0.46382,-0.0925 -0.45531,-0.12826 -0.44398,-0.1637 -0.42945,-0.19807 -0.41244,-0.23103 -0.39331,-0.26291 -0.37169,-0.29268 -0.34724,-0.32102 -0.32103,-0.34724 -0.29267,-0.3717 -0.26292,-0.39295 -0.23102,-0.4128 -0.19807,-0.42944 -0.1637,-0.44398 -0.12827,-0.45496 -0.0925,-0.46382 -0.0556,-0.46984 -0.0184,-0.47268 0.0184,-0.47268 0.0556,-0.46948 0.0925,-0.46382 0.12826,-0.45532 0.1637,-0.44397 0.19807,-0.42945 0.23102,-0.41245 0.26292,-0.3933 0.29267,-0.3717 0.32103,-0.34724 0.34724,-0.32102 0.37169,-0.29268 0.39331,-0.26291 0.41244,-0.23103 0.42945,-0.19807 0.44398,-0.1637 0.45531,-0.12827 0.46382,-0.0925 0.46949,-0.0556 0.47268,-0.0184 0.47267,0.0184 0.46985,0.0556 z"
       style="fill:none;stroke:#ff0000;stroke-opacity:1"
       id="path27051"
       sodipodi:nodetypes="ccccccccccccccccccccccccccccccccccccccccccccccccccccccccccccccccccccccccccccccccc" />
    <path
       inkscape:connector-curvature="0"
       d="m 647.82463,242.67475 -14.17323,0 0,-10.62992 14.17323,0 z"
       style="fill:none;stroke:#ff0000;stroke-opacity:1"
       id="path27133"
       sodipodi:nodetypes="ccccc" />
    <path
       inkscape:connector-curvature="0"
       d="m 240.34432,242.67475 0,-10.62992 14.17323,0 0,10.62992 z"
       style="fill:none;stroke:#ff0000;stroke-opacity:1"
       id="path27143"
       sodipodi:nodetypes="ccccc" />
    <path
       inkscape:connector-curvature="0"
       d="m 383.47125,242.71834 0.27602,-0.0326 0.27815,-0.011 0.27779,0.011 0.27638,0.0326 0.27284,0.0542 0.26787,0.0758 0.26114,0.096 0.25264,0.11659 0.24272,0.13606 0.23138,0.15449 0.21826,0.1722 0.20445,0.18886 0.18886,0.20445 0.1722,0.21827 0.15449,0.23138 0.13607,0.24272 0.11657,0.25263 0.0964,0.26114 0.0755,0.26788 0.0542,0.27283 0.0326,0.27638 0.011,0.2778 98.85825,0 0.011,-0.2778 0.0326,-0.27638 0.0542,-0.27283 0.0755,-0.26788 0.0964,-0.26114 0.11656,-0.25263 0.13607,-0.24272 0.15449,-0.23138 0.1722,-0.21827 0.18886,-0.20445 0.20409,-0.18886 0.21862,-0.1722 0.23138,-0.15449 0.24272,-0.13606 0.25264,-0.11658 0.26114,-0.096 0.26787,-0.0758 0.27284,-0.0542 0.27602,-0.0326 0.27815,-0.011 0.27815,0.011 0.27602,0.0326 0.27284,0.0542 0.26787,0.0758 0.26114,0.096 0.25264,0.11659 0.24272,0.13606 0.23138,0.15449 0.21826,0.1722 0.20445,0.18886 0.18886,0.20445 0.17221,0.21827 0.15449,0.23138 0.13606,0.24272 0.11657,0.25263 0.096,0.26114 0.0758,0.26788 0.0542,0.27283 0.0326,0.27638 0.011,0.2778 -10e-6,11.33858 -0.011,0.27815 -0.0326,0.27602 -0.0542,0.27284 -0.0758,0.26787 -0.096,0.26114 -0.11658,0.25264 -0.13606,0.24272 -0.15449,0.23138 -0.17221,0.21826 -0.18886,0.20445 -0.20445,0.18886 -0.21826,0.1722 -0.23138,0.15449 -0.24272,0.13607 -0.25264,0.11657 -0.26114,0.096 -0.26787,0.0758 -0.27284,0.0542 -0.27602,0.0326 -0.27815,0.011 -0.27815,-0.011 -0.27602,-0.0326 -0.27284,-0.0542 -0.26787,-0.0758 -0.26114,-0.096 -0.25264,-0.11658 -0.24272,-0.13607 -0.23138,-0.15449 -0.21862,-0.1722 -0.20409,-0.18886 -0.18886,-0.20445 -0.1722,-0.21826 -0.15449,-0.23138 -0.13607,-0.24272 -0.11657,-0.25264 -0.0964,-0.26114 -0.0755,-0.26787 -0.0542,-0.27284 -0.0326,-0.27602 -0.011,-0.27815 -98.85825,0 -0.011,0.27815 -0.0326,0.27602 -0.0542,0.27284 -0.0755,0.26787 -0.0964,0.26114 -0.11656,0.25264 -0.13607,0.24272 -0.15449,0.23138 -0.1722,0.21826 -0.18886,0.20445 -0.20445,0.18886 -0.21826,0.1722 -0.23138,0.15449 -0.24272,0.13607 -0.25264,0.11657 -0.26114,0.096 -0.26787,0.0758 -0.27284,0.0542 -0.27638,0.0326 -0.27779,0.011 -0.27815,-0.011 -0.27602,-0.0326 -0.27319,-0.0542 -0.26752,-0.0758 -0.26115,-0.096 -0.25263,-0.11658 -0.24272,-0.13607 -0.23138,-0.15449 -0.21862,-0.1722 -0.20409,-0.18886 -0.18886,-0.20445 -0.17221,-0.21826 -0.15449,-0.23138 -0.13606,-0.24272 -0.11657,-0.25264 -0.0964,-0.26114 -0.0755,-0.26787 -0.0542,-0.27284 -0.0326,-0.27602 -0.011,-0.27815 10e-6,-11.33858 0.011,-0.2778 0.0326,-0.27638 0.0542,-0.27283 0.0755,-0.26788 0.0964,-0.26114 0.11656,-0.25263 0.13606,-0.24272 0.15449,-0.23138 0.17221,-0.21827 0.18886,-0.20445 0.20409,-0.18886 0.21862,-0.1722 0.23138,-0.15449 0.24272,-0.13606 0.25263,-0.11658 0.26115,-0.096 0.26752,-0.0758 z"
       style="fill:none;stroke:#ff0000;stroke-opacity:1"
       id="path27301"
       sodipodi:nodetypes="ccccccccccccccccccccccccccccccccccccccccccccccccccccccccccccccccccccccccccccccccccccccccccccccccccccccccccccccccccccccccccccccccccccccccccccccccccccccccccccccccccccc" />
    <path
       inkscape:connector-curvature="0"
       d="m 528.55266,252.72463 -0.2661,0.64205 -0.36283,0.59244 -0.45142,0.52866 -0.52866,0.45142 -0.59244,0.36319 -0.64205,0.26574 -0.67606,0.16229 -0.69272,0.0546 -0.69272,-0.0546 -0.67606,-0.16227 -0.64205,-0.26574 -0.59244,-0.36319 -0.52866,-0.45142 -0.45142,-0.52866 -0.36319,-0.59244 -0.26574,-0.64205 -0.16229,-0.67571 -0.0546,-0.69307 0.0546,-0.69272 0.16227,-0.67606 0.26574,-0.64204 0.36319,-0.59245 0.45142,-0.52866 0.52866,-0.45142 0.59244,-0.36318 0.64205,-0.26575 0.67606,-0.16229 0.69272,-0.0546 0.69272,0.0546 0.67606,0.16227 0.64205,0.26575 0.59244,0.36318 0.52866,0.45142 0.45142,0.52866 0.36283,0.59245 0.2661,0.64204 0.16229,0.67606 0.0546,0.69272 -0.0546,0.69307 z"
       style="fill:none;stroke:#ff0000;stroke-opacity:1"
       id="path27533"
       sodipodi:nodetypes="ccccccccccccccccccccccccccccccccccccccccc" />
    <path
       inkscape:connector-curvature="0"
       d="m 348.28656,255.56813 -0.64205,-0.26574 -0.59244,-0.36319 -0.52866,-0.45142 -0.45142,-0.52866 -0.36283,-0.59244 -0.2661,-0.64205 -0.16229,-0.67571 -0.0546,-0.69307 0.0546,-0.69272 0.16227,-0.67606 0.2661,-0.64204 0.36283,-0.59245 0.45142,-0.52866 0.52866,-0.45142 0.59244,-0.36318 0.64205,-0.26575 0.67606,-0.16229 0.69272,-0.0546 0.69272,0.0546 0.67606,0.16227 0.64205,0.26575 0.59244,0.36318 0.52866,0.45142 0.45142,0.52866 0.36319,0.59245 0.26574,0.64204 0.16229,0.67606 0.0546,0.69272 -0.0546,0.69307 -0.16227,0.67571 -0.26574,0.64205 -0.36319,0.59244 -0.45142,0.52866 -0.52866,0.45142 -0.59244,0.36319 -0.64205,0.26574 -0.67606,0.16229 -0.69272,0.0546 -0.69272,-0.0546 z"
       style="fill:none;stroke:#ff0000;stroke-opacity:1"
       id="path27553"
       sodipodi:nodetypes="ccccccccccccccccccccccccccccccccccccccccc" />
    <path
       inkscape:connector-curvature="0"
       d="m 575.02562,269.90363 -0.67607,-0.16227 -0.64204,-0.26574 -0.59244,-0.36319 -0.52867,-0.45142 -0.45141,-0.52866 -0.36319,-0.59244 -0.26575,-0.64205 -0.16228,-0.67571 -0.0546,-0.69307 0.0393,-0.5028 -0.41881,-0.35787 -0.36106,-0.42272 -0.29055,-0.47409 -0.21296,-0.51378 -0.12968,-0.54071 -0.0436,-0.55417 0.0436,-0.55417 0.12967,-0.54071 0.21296,-0.51378 0.29055,-0.4741 0.36106,-0.42271 0.42272,-0.36107 0.47409,-0.29055 0.51378,-0.2126 0.54071,-0.13004 0.55417,-0.0436 0.55418,0.0436 0.5407,0.13003 0.51378,0.2126 0.4741,0.29055 0.42271,0.36107 0.36107,0.42271 0.29055,0.4741 0.2126,0.51378 0.045,0.18708 0.25724,0.0617 0.64205,0.26572 0.59244,0.36319 0.52866,0.45142 0.45142,0.52866 0.36283,0.59244 0.26611,0.64205 0.16228,0.67606 0.0546,0.69272 -0.0546,0.69307 -0.16227,0.67571 -0.26611,0.64205 -0.36283,0.59244 -0.45142,0.52866 -0.52866,0.45142 -0.59244,0.36319 -0.64205,0.26574 -0.67606,0.16229 -0.69272,0.0546 z"
       style="fill:none;stroke:#ff0000;stroke-opacity:1"
       id="path27741"
       sodipodi:nodetypes="cccccccccccccccccccccccccccccccccccccccccccccccccccccccc" />
    <path
       inkscape:connector-curvature="0"
       d="m 400.34058,269.90363 -0.67607,-0.16227 -0.64204,-0.26574 -0.59245,-0.36319 -0.52866,-0.45142 -0.45141,-0.52866 -0.36284,-0.59244 -0.2661,-0.64205 -0.16228,-0.67571 -0.0546,-0.69307 0.0546,-0.69272 0.16227,-0.67606 0.2661,-0.64205 0.36284,-0.59244 0.45141,-0.52866 0.52866,-0.45142 0.59245,-0.36319 0.64204,-0.26574 0.67607,-0.16229 0.69271,-0.0546 0.6929,0.0546 0.67581,0.16227 0.64212,0.26574 0.59255,0.36319 0.52852,0.45142 0.45138,0.52866 0.36312,0.59244 0.26599,0.64205 0.16229,0.67606 0.0545,0.69272 -0.0545,0.69307 -0.16228,0.67571 -0.26599,0.64205 -0.36312,0.59244 -0.45138,0.52866 -0.52852,0.45142 -0.59255,0.36319 -0.64212,0.26574 -0.67581,0.16229 -0.6929,0.0546 z"
       style="fill:none;stroke:#ff0000;stroke-opacity:1"
       id="path27821"
       sodipodi:nodetypes="ccccccccccccccccccccccccccccccccccccccccc" />
    <path
       inkscape:connector-curvature="0"
       d="m 298.9701,261.15453 0.67607,0.16227 0.64204,0.26574 0.59244,0.36319 0.52867,0.45142 0.45141,0.52866 0.36319,0.59244 0.26575,0.64205 0.16228,0.67606 0.0546,0.69272 -0.0546,0.69307 -0.16226,0.67571 -0.26575,0.64205 -0.36319,0.59244 -0.45141,0.52866 -0.52867,0.45142 -0.59244,0.36319 -0.64204,0.26574 -0.67607,0.16229 -0.69271,0.0546 -0.69272,-0.0546 -0.67606,-0.16227 -0.64205,-0.26574 -0.59244,-0.36319 -0.52866,-0.45142 -0.45142,-0.52866 -0.36283,-0.59244 -0.26611,-0.64205 -0.16228,-0.67571 -0.0546,-0.69307 0.0546,-0.69272 0.16227,-0.67606 0.26611,-0.64205 0.36283,-0.59244 0.45142,-0.52866 0.52866,-0.45142 0.59244,-0.36319 0.64205,-0.26574 0.67606,-0.16229 0.69272,-0.0546 z"
       style="fill:none;stroke:#ff0000;stroke-opacity:1"
       id="path27861"
       sodipodi:nodetypes="ccccccccccccccccccccccccccccccccccccccccc" />
    <path
       inkscape:connector-curvature="0"
       d="m 472.26953,269.90363 -0.67581,-0.16227 -0.64212,-0.26574 -0.59255,-0.36319 -0.52852,-0.45142 -0.45138,-0.52866 -0.36312,-0.59244 -0.26599,-0.64205 -0.16229,-0.67571 -0.0545,-0.69307 0.0545,-0.69272 0.16228,-0.67606 0.26599,-0.64205 0.36312,-0.59244 0.45138,-0.52866 0.52852,-0.45142 0.59255,-0.36319 0.64212,-0.26574 0.67581,-0.16229 0.6929,-0.0546 0.69271,0.0546 0.67607,0.16227 0.64204,0.26574 0.59244,0.36319 0.52867,0.45142 0.45141,0.52866 0.36284,0.59244 0.2661,0.64205 0.16228,0.67606 0.0546,0.69272 -0.0546,0.69307 -0.16227,0.67571 -0.2661,0.64205 -0.36284,0.59244 -0.45141,0.52866 -0.52867,0.45142 -0.59244,0.36319 -0.64204,0.26574 -0.67607,0.16229 -0.69271,0.0546 z"
       style="fill:none;stroke:#ff0000;stroke-opacity:1"
       id="path27981"
       sodipodi:nodetypes="ccccccccccccccccccccccccccccccccccccccccc" />
    <path
       inkscape:connector-curvature="0"
       d="m 360.69593,278.27048 0.91914,0.22073 0.87342,0.36177 0.80575,0.49393 0.71893,0.61371 0.61371,0.71893 0.49393,0.80575 0.36177,0.87343 0.22075,0.91913 0.0741,0.94217 -0.0741,0.94251 -0.22073,0.91878 -0.36177,0.87343 -0.49393,0.80575 -0.61371,0.71893 -0.71893,0.61371 -0.80575,0.49393 -0.87342,0.36177 -0.91914,0.22075 -0.94216,0.0741 -0.94217,-0.0741 -0.91913,-0.22073 -0.87343,-0.36177 -0.80575,-0.49393 -0.71893,-0.61371 -0.61371,-0.71893 -0.49393,-0.80575 -0.36177,-0.87343 -0.22075,-0.91878 -0.0741,-0.94251 0.0741,-0.94217 0.22073,-0.91913 0.36177,-0.87343 0.49393,-0.80575 0.61371,-0.71893 0.71893,-0.61371 0.80575,-0.49393 0.87343,-0.36177 0.91913,-0.22075 0.94217,-0.0741 z"
       style="fill:none;stroke:#ff0000;stroke-opacity:1"
       id="path28021"
       sodipodi:nodetypes="ccccccccccccccccccccccccccccccccccccccccc" />
    <path
       inkscape:connector-curvature="0"
       d="m 519.97077,286.08132 -0.36177,0.87343 -0.49394,0.80575 -0.6137,0.71893 -0.71893,0.61371 -0.80575,0.49393 -0.87343,0.36177 -0.91913,0.22075 -0.94217,0.0741 -0.94216,-0.0741 -0.91913,-0.22073 -0.87343,-0.36177 -0.80575,-0.49393 -0.71893,-0.61371 -0.61371,-0.71893 -0.49393,-0.80575 -0.36177,-0.87343 -0.22075,-0.91878 -0.0741,-0.94251 0.0741,-0.94217 0.22073,-0.91913 0.36177,-0.87343 0.49393,-0.80575 0.61371,-0.71893 0.71893,-0.61371 0.80575,-0.49393 0.87343,-0.36177 0.91913,-0.22075 0.94216,-0.0741 0.94217,0.0741 0.91913,0.22073 0.87343,0.36177 0.80575,0.49393 0.71893,0.61371 0.6137,0.71893 0.49394,0.80575 0.36177,0.87343 0.22075,0.91913 0.0741,0.94217 -0.0741,0.94251 z"
       style="fill:none;stroke:#ff0000;stroke-opacity:1"
       id="path28123"
       sodipodi:nodetypes="ccccccccccccccccccccccccccccccccccccccccc" />
    <path
       inkscape:connector-curvature="0"
       d="m 303.95058,291.60428 -0.21296,0.51378 -0.29055,0.47409 -0.36106,0.42272 -0.42272,0.36106 -0.47409,0.29055 -0.51378,0.21295 -0.54071,0.12969 -0.55417,0.0436 -0.55418,-0.0436 -0.5407,-0.12968 -0.51378,-0.21295 -0.4741,-0.29055 -0.42271,-0.36106 -0.36107,-0.42272 -0.29055,-0.47409 -0.2126,-0.51378 -0.13004,-0.54071 -0.0436,-0.55417 0.0436,-0.55418 0.13003,-0.54071 0.2126,-0.51378 0.29055,-0.47409 0.36107,-0.42272 0.42271,-0.36106 0.4741,-0.29055 0.51378,-0.2126 0.5407,-0.13004 0.55418,-0.0436 0.55417,0.0436 0.54071,0.13003 0.51378,0.2126 0.47409,0.29055 0.42272,0.36106 0.36106,0.42272 0.29055,0.47409 0.21296,0.51378 0.12968,0.54071 0.0436,0.55418 -0.0436,0.55417 z"
       style="fill:none;stroke:#ff0000;stroke-opacity:1"
       id="path28203"
       sodipodi:nodetypes="ccccccccccccccccccccccccccccccccccccccccc" />
    <path
       inkscape:connector-curvature="0"
       d="m 553.92699,295.64719 2.77158,0.21827 2.70319,0.64878 2.56819,1.06405 2.37047,1.4524 2.11394,1.80567 1.80566,2.11394 1.45241,2.37047 1.06405,2.56819 0.64878,2.70319 0.21827,2.77158 0,70.86614 -0.21827,2.77157 -0.64878,2.70319 -1.06405,2.56854 -1.45241,2.37012 -1.80566,2.11394 -2.11394,1.80567 -2.37047,1.4524 -2.56819,1.06406 -2.70319,0.64878 -2.77158,0.21826 -2.77157,-0.21826 -2.70319,-0.64878 -2.56854,-1.06406 -2.37012,-1.4524 -2.11394,-1.80567 -1.80567,-2.11394 -1.4524,-2.37012 -1.06405,-2.56854 -0.64878,-2.70319 -0.21827,-2.77157 0,-70.86614 0.21827,-2.77158 0.64878,-2.70319 1.06405,-2.56819 1.4524,-2.37047 1.80567,-2.11394 2.11394,-1.80567 2.37012,-1.4524 2.56854,-1.06405 2.70319,-0.64878 z"
       style="fill:none;stroke:#ff0000;stroke-opacity:1"
       id="path28261"
       sodipodi:nodetypes="ccccccccccccccccccccccccccccccccccccccccccc" />
    <path
       inkscape:connector-curvature="0"
       d="m 322.8403,295.86546 2.70319,0.64878 2.56854,1.06405 2.37012,1.4524 2.11394,1.80567 1.80567,2.11394 1.4524,2.37047 1.06405,2.56819 0.64878,2.70319 0.21827,2.77158 0,70.86614 -0.21827,2.77157 -0.64878,2.70319 -1.06405,2.56854 -1.4524,2.37012 -1.80567,2.11394 -2.11394,1.80567 -2.37012,1.4524 -2.56854,1.06406 -2.70319,0.64878 -2.77157,0.21826 -2.77158,-0.21826 -2.70319,-0.64878 -2.56819,-1.06406 -2.37047,-1.4524 -2.11394,-1.80567 -1.80566,-2.11394 -1.45241,-2.37012 -1.06405,-2.56854 -0.64878,-2.70319 -0.21827,-2.77157 0,-70.86614 0.21827,-2.77158 0.64878,-2.70319 1.06405,-2.56819 1.45241,-2.37047 1.80566,-2.11394 2.11394,-1.80567 2.37047,-1.4524 2.56819,-1.06405 2.70319,-0.64878 2.77158,-0.21827 z"
       style="fill:none;stroke:#ff0000;stroke-opacity:1"
       id="path28347"
       sodipodi:nodetypes="ccccccccccccccccccccccccccccccccccccccccccc" />
    <path
       inkscape:connector-curvature="0"
       d="m 284.76499,389.28475 -0.77067,-0.31925 -0.71114,-0.43583 -0.63426,-0.54142 -0.54141,-0.63425 -0.43583,-0.71114 -0.31925,-0.77067 -0.19453,-0.81071 -0.0656,-0.83161 3e-5,-70.86614 0.0656,-0.83126 0.19451,-0.81107 0.31925,-0.77067 0.43583,-0.71114 0.54141,-0.63425 0.63426,-0.54142 0.71114,-0.43582 0.77067,-0.31926 0.81106,-0.19452 0.83126,-0.0656 0.83161,0.0656 0.81071,0.1945 0.77067,0.31926 0.71114,0.43582 0.63426,0.54142 0.54141,0.63425 0.43583,0.71114 0.31925,0.77067 0.19453,0.81107 0.0656,0.83126 -3e-5,70.86614 -0.0656,0.83161 -0.19451,0.81071 -0.31925,0.77067 -0.43583,0.71114 -0.54141,0.63425 -0.63426,0.54142 -0.71114,0.43583 -0.77067,0.31925 -0.81071,0.19453 -0.83161,0.0656 -0.83126,-0.0656 z"
       style="fill:none;stroke:#ff0000;stroke-opacity:1"
       id="path28391"
       sodipodi:nodetypes="ccccccccccccccccccccccccccccccccccccccccccc" />
    <path
       inkscape:connector-curvature="0"
       d="m 585.94609,389.28475 -0.77067,-0.31925 -0.71114,-0.43583 -0.63426,-0.54142 -0.54141,-0.63425 -0.43583,-0.71114 -0.31925,-0.77067 -0.19453,-0.81071 -0.0656,-0.83161 2e-5,-70.86614 0.0656,-0.83126 0.19451,-0.81107 0.31925,-0.77067 0.43583,-0.71114 0.54141,-0.63425 0.63426,-0.54142 0.71114,-0.43582 0.77067,-0.31926 0.81071,-0.19452 0.83161,-0.0656 0.83126,0.0656 0.81106,0.1945 0.77067,0.31926 0.71114,0.43582 0.63426,0.54142 0.54141,0.63425 0.43583,0.71114 0.31925,0.77067 0.19453,0.81107 0.0656,0.83126 -3e-5,70.86614 -0.0656,0.83161 -0.1945,0.81071 -0.31925,0.77067 -0.43583,0.71114 -0.54141,0.63425 -0.63426,0.54142 -0.71114,0.43583 -0.77067,0.31925 -0.81106,0.19453 -0.83126,0.0656 -0.83161,-0.0656 z"
       style="fill:none;stroke:#ff0000;stroke-opacity:1"
       id="path28475"
       sodipodi:nodetypes="ccccccccccccccccccccccccccccccccccccccccccc" />
    <path
       inkscape:connector-curvature="0"
       d="m 361.61507,418.629 0.87342,0.36177 0.80575,0.49394 0.71893,0.6137 0.61371,0.71894 0.49393,0.80575 0.36177,0.87342 0.22075,0.91878 0.0741,0.94252 -0.0741,0.94216 -0.22073,0.91914 -0.36177,0.87342 -0.49393,0.80575 -0.61371,0.71894 -0.71893,0.6137 -0.80575,0.49394 -0.87342,0.36177 -0.91914,0.22075 -0.94216,0.074 -0.94217,-0.074 -0.91913,-0.22077 -0.87343,-0.36177 -0.80575,-0.49394 -0.71893,-0.6137 -0.61371,-0.71894 -0.49393,-0.80575 -0.36177,-0.87342 -0.22075,-0.91914 -0.0741,-0.94216 0.0741,-0.94252 0.22073,-0.91878 0.36177,-0.87342 0.49393,-0.80575 0.61371,-0.71894 0.71893,-0.6137 0.80575,-0.49394 0.87343,-0.36177 0.91913,-0.22075 0.94217,-0.0741 0.94216,0.0741 z"
       style="fill:none;stroke:#ff0000;stroke-opacity:1"
       id="path28599"
       sodipodi:nodetypes="ccccccccccccccccccccccccccccccccccccccccc" />
    <path
       inkscape:connector-curvature="0"
       d="m 516.10325,418.629 0.87343,0.36177 0.80575,0.49394 0.71893,0.6137 0.6137,0.71894 0.49394,0.80575 0.36177,0.87342 0.22075,0.91878 0.0741,0.94252 -0.0741,0.94216 -0.22073,0.91914 -0.36177,0.87342 -0.49394,0.80575 -0.6137,0.71894 -0.71893,0.6137 -0.80575,0.49394 -0.87343,0.36177 -0.91913,0.22075 -0.94217,0.074 -0.94216,-0.074 -0.91913,-0.22077 -0.87343,-0.36177 -0.80575,-0.49394 -0.71893,-0.6137 -0.61371,-0.71894 -0.49393,-0.80575 -0.36177,-0.87342 -0.22075,-0.91914 -0.0741,-0.94216 0.0741,-0.94252 0.22073,-0.91878 0.36177,-0.87342 0.49393,-0.80575 0.61371,-0.71894 0.71893,-0.6137 0.80575,-0.49394 0.87343,-0.36177 0.91913,-0.22075 0.94216,-0.0741 0.94217,0.0741 z"
       style="fill:none;stroke:#ff0000;stroke-opacity:1"
       id="path28679"
       sodipodi:nodetypes="ccccccccccccccccccccccccccccccccccccccccc" />
    <path
       inkscape:connector-curvature="0"
       d="m 408.41687,437.27884 0.0109,0.2778 57.14005,0 0.0109,-0.2778 0.0327,-0.27637 0.0543,-0.27284 0.0755,-0.26787 0.0963,-0.26115 0.11651,-0.25263 0.13593,-0.24272 0.15459,-0.23138 0.17224,-0.21827 0.18886,-0.20444 0.20434,-0.18886 0.21848,-0.17221 0.23127,-0.15449 0.24279,-0.13606 0.25264,-0.11657 0.26103,-0.096 0.26781,-0.0758 0.27287,-0.0542 0.27627,-0.0326 0.27801,-0.011 0.278,0.011 0.27627,0.0326 0.27287,0.0542 0.26781,0.0758 0.261,0.096 0.25267,0.11659 0.24272,0.13606 0.23134,0.15449 0.21848,0.17221 0.20434,0.18886 0.18886,0.20444 0.17224,0.21827 0.15453,0.23138 0.13599,0.24272 0.11643,0.25263 0.0962,0.26115 0.0755,0.26787 0.0546,0.27284 0.0326,0.27637 0.011,0.2778 -10e-6,11.33858 -0.011,0.27815 -0.0326,0.27602 -0.0546,0.27284 -0.0755,0.26787 -0.0962,0.26115 -0.11643,0.25263 -0.13599,0.24272 -0.15453,0.23138 -0.17224,0.21826 -0.18886,0.20445 -0.20434,0.18886 -0.21848,0.17221 -0.23134,0.15448 -0.24272,0.13607 -0.25267,0.11657 -0.261,0.096 -0.26781,0.0758 -0.27287,0.0542 -0.27627,0.0326 -0.278,0.011 -0.27801,-0.011 -0.27627,-0.0326 -0.27287,-0.0542 -0.26781,-0.0758 -0.26103,-0.096 -0.25264,-0.11659 -0.24279,-0.13607 -0.23127,-0.15448 -0.21848,-0.17221 -0.20434,-0.18886 -0.18886,-0.20445 -0.17224,-0.21826 -0.15459,-0.23138 -0.13593,-0.24272 -0.1165,-0.25263 -0.0963,-0.26115 -0.0755,-0.26787 -0.0543,-0.27284 -0.0327,-0.27602 -0.0109,-0.27815 -57.14005,0 -0.0109,0.27815 -0.0327,0.27602 -0.0542,0.27284 -0.0755,0.26787 -0.0963,0.26115 -0.11649,0.25263 -0.13592,0.24272 -0.1546,0.23138 -0.17224,0.21826 -0.18885,0.20445 -0.20428,0.18886 -0.21855,0.17221 -0.23127,0.15448 -0.24279,0.13607 -0.25263,0.11657 -0.26104,0.096 -0.2678,0.0758 -0.27287,0.0542 -0.27627,0.0326 -0.27801,0.011 -0.27801,-0.011 -0.27627,-0.0326 -0.27287,-0.0542 -0.26777,-0.0758 -0.26104,-0.096 -0.25263,-0.11659 -0.24275,-0.13607 -0.23135,-0.15448 -0.21848,-0.17221 -0.20434,-0.18886 -0.18886,-0.20445 -0.1722,-0.21826 -0.15456,-0.23138 -0.13599,-0.24272 -0.11644,-0.25263 -0.0965,-0.26115 -0.0755,-0.26787 -0.0542,-0.27284 -0.0326,-0.27602 -0.011,-0.27815 10e-6,-11.33858 0.011,-0.2778 0.0326,-0.27637 0.0542,-0.27284 0.0755,-0.26787 0.0965,-0.26115 0.11641,-0.25263 0.13599,-0.24272 0.15456,-0.23138 0.1722,-0.21827 0.18886,-0.20444 0.20434,-0.18886 0.21848,-0.17221 0.23135,-0.15449 0.24275,-0.13606 0.25263,-0.11657 0.26104,-0.096 0.26777,-0.0758 0.27287,-0.0542 0.27627,-0.0326 0.27801,-0.011 0.27801,0.011 0.27627,0.0326 0.27287,0.0542 0.2678,0.0758 0.26104,0.096 0.25263,0.11659 0.24279,0.13606 0.23127,0.15449 0.21855,0.17221 0.20428,0.18886 0.18885,0.20444 0.17224,0.21827 0.1546,0.23138 0.13592,0.24272 0.1165,0.25263 0.0963,0.26115 0.0755,0.26787 0.0542,0.27284 z"
       style="fill:none;stroke:#ff0000;stroke-opacity:1"
       id="path28917"
       sodipodi:nodetypes="ccccccccccccccccccccccccccccccccccccccccccccccccccccccccccccccccccccccccccccccccccccccccccccccccccccccccccccccccccccccccccccccccccccccccccccccccccccccccccccccccccccc" />
    <path
       inkscape:connector-curvature="0"
       d="m 315.40361,452.34072 -0.27284,0.0542 -0.27602,0.0326 -0.27815,0.011 -0.27815,-0.011 -0.27602,-0.0326 -0.27284,-0.0542 -0.26787,-0.0758 -0.26114,-0.096 -0.25264,-0.11659 -0.24272,-0.13607 -0.23138,-0.15448 -0.21826,-0.17221 -0.20445,-0.18886 -0.18886,-0.20445 -0.17221,-0.21826 -0.15448,-0.23138 -0.13607,-0.24272 -0.11657,-0.25263 -0.0964,-0.26115 -0.0755,-0.26787 -0.0542,-0.27284 -0.0326,-0.27602 -0.011,-0.27815 -57.14007,0 -0.011,0.27815 -0.0326,0.27602 -0.0542,0.27284 -0.0755,0.26787 -0.0964,0.26115 -0.11657,0.25263 -0.13606,0.24272 -0.15449,0.23138 -0.1722,0.21826 -0.18886,0.20445 -0.20409,0.18886 -0.21863,0.17221 -0.23137,0.15448 -0.24272,0.13607 -0.25264,0.11657 -0.26114,0.096 -0.26787,0.0758 -0.27284,0.0542 -0.27602,0.0326 -0.27815,0.011 -0.27815,-0.011 -0.27603,-0.0326 -0.27318,-0.0542 -0.26753,-0.0758 -0.26114,-0.096 -0.25263,-0.11659 -0.24272,-0.13607 -0.23138,-0.15448 -0.21862,-0.17221 -0.20409,-0.18886 -0.18886,-0.20445 -0.17221,-0.21826 -0.15449,-0.23138 -0.13606,-0.24272 -0.11657,-0.25263 -0.0964,-0.26115 -0.0755,-0.26787 -0.0542,-0.27284 -0.0326,-0.27602 -0.011,-0.27815 1e-5,-11.33858 0.011,-0.2778 0.0326,-0.27637 0.0542,-0.27284 0.0755,-0.26787 0.0964,-0.26115 0.11656,-0.25263 0.13606,-0.24272 0.15449,-0.23138 0.17221,-0.21827 0.18886,-0.20444 0.20409,-0.18886 0.21862,-0.17221 0.23138,-0.15449 0.24272,-0.13606 0.25263,-0.11657 0.26114,-0.096 0.26753,-0.0758 0.27318,-0.0542 0.27603,-0.0326 0.27815,-0.011 0.27815,0.011 0.27602,0.0326 0.27284,0.0542 0.26787,0.0758 0.26114,0.096 0.25264,0.11659 0.24272,0.13606 0.23137,0.15449 0.21863,0.17221 0.20409,0.18886 0.18886,0.20444 0.1722,0.21827 0.15449,0.23138 0.13606,0.24272 0.11658,0.25263 0.0964,0.26115 0.0755,0.26787 0.0542,0.27284 0.0326,0.27637 0.011,0.2778 57.14007,0 0.011,-0.2778 0.0326,-0.27637 0.0542,-0.27284 0.0755,-0.26787 0.0964,-0.26115 0.11656,-0.25263 0.13607,-0.24272 0.15448,-0.23138 0.17221,-0.21827 0.18886,-0.20444 0.20445,-0.18886 0.21826,-0.17221 0.23138,-0.15449 0.24272,-0.13606 0.25264,-0.11657 0.26114,-0.096 0.26787,-0.0758 0.27284,-0.0542 0.27602,-0.0326 0.27815,-0.011 0.27815,0.011 0.27602,0.0326 0.27284,0.0542 0.26787,0.0758 0.26114,0.096 0.25264,0.11659 0.24272,0.13606 0.23138,0.15449 0.21826,0.17221 0.20445,0.18886 0.18886,0.20444 0.17221,0.21827 0.15448,0.23138 0.13607,0.24272 0.11657,0.25263 0.096,0.26115 0.0758,0.26787 0.0542,0.27284 0.0326,0.27637 0.011,0.2778 0,11.33858 -0.011,0.27815 -0.0326,0.27602 -0.0542,0.27284 -0.0758,0.26787 -0.096,0.26115 -0.11658,0.25263 -0.13607,0.24272 -0.15448,0.23138 -0.17221,0.21826 -0.18886,0.20445 -0.20445,0.18886 -0.21826,0.17221 -0.23138,0.15448 -0.24272,0.13607 -0.25264,0.11657 -0.26114,0.096 z"
       style="fill:none;stroke:#ff0000;stroke-opacity:1"
       id="path29365"
       sodipodi:nodetypes="ccccccccccccccccccccccccccccccccccccccccccccccccccccccccccccccccccccccccccccccccccccccccccccccccccccccccccccccccccccccccccccccccccccccccccccccccccccccccccccccccccccc" />
    <path
       inkscape:connector-curvature="0"
       d="m 562.69277,450.25125 -0.11656,0.25263 -0.13607,0.24272 -0.15448,0.23138 -0.17221,0.21826 -0.18886,0.20445 -0.20445,0.18886 -0.21826,0.17221 -0.23138,0.15448 -0.24272,0.13607 -0.25264,0.11657 -0.26114,0.096 -0.26787,0.0758 -0.27284,0.0542 -0.27637,0.0326 -0.2778,0.011 -0.27815,-0.011 -0.27602,-0.0326 -0.27319,-0.0542 -0.26752,-0.0758 -0.26114,-0.096 -0.25264,-0.11659 -0.24272,-0.13607 -0.23138,-0.15448 -0.21862,-0.17221 -0.20409,-0.18886 -0.18886,-0.20445 -0.17221,-0.21826 -0.15448,-0.23138 -0.13607,-0.24272 -0.11657,-0.25263 -0.0964,-0.26115 -0.0755,-0.26787 -0.0542,-0.27284 -0.0326,-0.27602 -0.011,-0.27815 0,-11.33858 0.011,-0.2778 0.0326,-0.27637 0.0542,-0.27284 0.0755,-0.26787 0.0964,-0.26115 0.11656,-0.25263 0.13607,-0.24272 0.15448,-0.23138 0.17221,-0.21827 0.18886,-0.20444 0.20409,-0.18886 0.21862,-0.17221 0.23138,-0.15449 0.24272,-0.13606 0.25264,-0.11657 0.26114,-0.096 0.26752,-0.0758 0.27319,-0.0542 0.27602,-0.0326 0.27815,-0.011 0.2778,0.011 0.27637,0.0326 0.27284,0.0542 0.26787,0.0758 0.26114,0.096 0.25264,0.11659 0.24272,0.13606 0.23138,0.15449 0.21826,0.17221 0.20445,0.18886 0.18886,0.20444 0.17221,0.21827 0.15448,0.23138 0.13607,0.24272 0.11657,0.25263 0.0964,0.26115 0.0755,0.26787 0.0542,0.27284 0.0326,0.27637 0.011,0.2778 57.14007,0 0.011,-0.2778 0.0326,-0.27637 0.0542,-0.27284 0.0755,-0.26787 0.0964,-0.26115 0.11657,-0.25263 0.1357,-0.24272 0.15485,-0.23138 0.1722,-0.21827 0.18886,-0.20444 0.20409,-0.18886 0.21863,-0.17221 0.23137,-0.15449 0.24272,-0.13606 0.25264,-0.11657 0.26114,-0.096 0.26752,-0.0758 0.27319,-0.0542 0.27602,-0.0326 0.27815,-0.011 0.27815,0.011 0.27603,0.0326 0.27283,0.0542 0.26788,0.0758 0.26114,0.096 0.25263,0.11659 0.24272,0.13606 0.23138,0.15449 0.21827,0.17221 0.20444,0.18886 0.18886,0.20444 0.17221,0.21827 0.15449,0.23138 0.13606,0.24272 0.11657,0.25263 0.096,0.26115 0.0758,0.26787 0.0542,0.27284 0.0326,0.27637 0.011,0.2778 -10e-6,11.33858 -0.011,0.27815 -0.0326,0.27602 -0.0542,0.27284 -0.0758,0.26787 -0.096,0.26115 -0.11658,0.25263 -0.13606,0.24272 -0.15449,0.23138 -0.17221,0.21826 -0.18886,0.20445 -0.20444,0.18886 -0.21827,0.17221 -0.23138,0.15448 -0.24272,0.13607 -0.25263,0.11657 -0.26114,0.096 -0.26788,0.0758 -0.27283,0.0542 -0.27603,0.0326 -0.27815,0.011 -0.27815,-0.011 -0.27602,-0.0326 -0.27319,-0.0542 -0.26752,-0.0758 -0.26114,-0.096 -0.25264,-0.11659 -0.24272,-0.13607 -0.23137,-0.15448 -0.21863,-0.17221 -0.20409,-0.18886 -0.18886,-0.20445 -0.1722,-0.21826 -0.15485,-0.23138 -0.1357,-0.24272 -0.11658,-0.25263 -0.0964,-0.26115 -0.0755,-0.26787 -0.0542,-0.27284 -0.0326,-0.27602 -0.011,-0.27815 -57.14007,0 -0.011,0.27815 -0.0326,0.27602 -0.0542,0.27284 -0.0755,0.26787 z"
       style="fill:none;stroke:#ff0000;stroke-opacity:1"
       id="path29423"
       sodipodi:nodetypes="ccccccccccccccccccccccccccccccccccccccccccccccccccccccccccccccccccccccccccccccccccccccccccccccccccccccccccccccccccccccccccccccccccccccccccccccccccccccccccccccccccccc" />
    <path
       inkscape:connector-curvature="0"
       d="m 528.55266,458.9451 -0.2661,0.64205 -0.36283,0.59244 -0.45142,0.52866 -0.52866,0.45142 -0.59244,0.36283 -0.64205,0.26611 -0.67606,0.16228 -0.69272,0.0546 -0.69307,-0.0546 -0.67571,-0.16226 -0.64205,-0.26611 -0.59244,-0.36283 -0.52866,-0.45142 -0.45142,-0.52866 -0.36319,-0.59244 -0.26574,-0.64205 -0.16229,-0.67606 -0.0546,-0.69272 0.0546,-0.69271 0.16227,-0.67607 0.26574,-0.64204 0.36319,-0.59244 0.45142,-0.52867 0.52866,-0.45141 0.59244,-0.36319 0.64205,-0.26575 0.67571,-0.16228 0.69307,-0.0546 0.69272,0.0546 0.67606,0.16227 0.64205,0.26575 0.59244,0.36319 0.52866,0.45141 0.45142,0.52867 0.36283,0.59244 0.2661,0.64204 0.16229,0.67607 0.0546,0.69271 -0.0546,0.69272 z"
       style="fill:none;stroke:#ff0000;stroke-opacity:1"
       id="path29763"
       sodipodi:nodetypes="ccccccccccccccccccccccccccccccccccccccccc" />
    <path
       inkscape:connector-curvature="0"
       d="m 354.02989,458.26904 -0.16227,0.67606 -0.26574,0.64205 -0.36319,0.59244 -0.45142,0.52866 -0.52866,0.45142 -0.59244,0.36283 -0.64205,0.26611 -0.67606,0.16228 -0.69272,0.0546 -0.69272,-0.0546 -0.67606,-0.16226 -0.64205,-0.26611 -0.59244,-0.36283 -0.52866,-0.45142 -0.45142,-0.52866 -0.36283,-0.59244 -0.2661,-0.64205 -0.16229,-0.67606 -0.0546,-0.69272 0.0546,-0.69271 0.16227,-0.67607 0.2661,-0.64204 0.36283,-0.59244 0.45142,-0.52867 0.52866,-0.45141 0.59244,-0.36319 0.64205,-0.26575 0.67606,-0.16228 0.69272,-0.0546 0.69272,0.0546 0.67606,0.16227 0.64205,0.26575 0.59244,0.36319 0.52866,0.45141 0.45142,0.52867 0.36319,0.59244 0.26574,0.64204 0.16229,0.67607 0.0546,0.69271 z"
       style="fill:none;stroke:#ff0000;stroke-opacity:1"
       id="path29841"
       sodipodi:nodetypes="ccccccccccccccccccccccccccccccccccccccccc" />
    <path
       inkscape:connector-curvature="0"
       d="m 297.08082,458.26231 0.13003,-0.54071 0.2126,-0.51378 0.29055,-0.47409 0.36107,-0.42272 0.42271,-0.36106 0.4741,-0.29056 0.51378,-0.21295 0.5407,-0.12968 0.55418,-0.0436 0.55417,0.0436 0.54071,0.12967 0.51378,0.21295 0.47409,0.29056 0.42272,0.36106 0.36106,0.42272 0.29055,0.47409 0.21296,0.51378 0.12968,0.54071 0.0436,0.55417 -0.0436,0.55418 -0.12967,0.5407 -0.21296,0.51378 -0.29055,0.4741 -0.36106,0.42271 -0.42272,0.36107 -0.47409,0.29055 -0.51378,0.2126 -0.54071,0.13004 -0.55417,0.0436 -0.55418,-0.0436 -0.5407,-0.13003 -0.51378,-0.2126 -0.4741,-0.29055 -0.42271,-0.36107 -0.36107,-0.42271 -0.29055,-0.4741 -0.2126,-0.51378 -0.13004,-0.5407 -0.0436,-0.55418 z"
       style="fill:none;stroke:#ff0000;stroke-opacity:1"
       id="path29881"
       sodipodi:nodetypes="ccccccccccccccccccccccccccccccccccccccccc" />
    <path
       inkscape:connector-curvature="0"
       d="m 572.86065,462.3162 -0.54035,-0.12968 -0.51378,-0.21295 -0.47409,-0.29055 -0.42272,-0.36107 -0.36106,-0.42271 -0.29055,-0.4741 -0.21296,-0.51378 -0.12968,-0.5407 -0.0436,-0.55418 0.0436,-0.55417 0.12967,-0.54071 0.21296,-0.51378 0.29055,-0.47409 0.36106,-0.42272 0.42272,-0.36106 0.47409,-0.29056 0.51378,-0.21259 0.54035,-0.13004 0.55453,-0.0436 0.55418,0.0436 0.5407,0.13003 0.51378,0.21259 0.4741,0.29056 0.42271,0.36106 0.36107,0.42272 0.29055,0.47409 0.2126,0.51378 0.13004,0.54071 0.0436,0.55417 -0.0436,0.55418 -0.13003,0.5407 -0.2126,0.51378 -0.29055,0.4741 -0.36107,0.42271 -0.42271,0.36107 -0.4741,0.29055 -0.51378,0.21295 -0.5407,0.12969 -0.55418,0.0436 z"
       style="fill:none;stroke:#ff0000;stroke-opacity:1"
       id="path30021"
       sodipodi:nodetypes="ccccccccccccccccccccccccccccccccccccccccc" />
    <path
       inkscape:connector-curvature="0"
       d="m 297.58467,476.12389 -0.67606,-0.1621 -0.64205,-0.2661 -0.59244,-0.3628 -0.52866,-0.4514 -0.45142,-0.5287 -0.36283,-0.5924 -0.26611,-0.6421 -0.16228,-0.676 -0.0546,-0.6927 0.0546,-0.6928 0.16227,-0.676 0.26611,-0.6421 0.36283,-0.5924 0.45142,-0.5287 0.52866,-0.4514 0.59244,-0.3632 0.64205,-0.2657 0.67606,-0.1623 0.69272,-0.0548 0.69271,0.055 0.67607,0.1621 0.64204,0.2657 0.59244,0.3632 0.52867,0.4514 0.45141,0.5287 0.36319,0.5924 0.26575,0.6421 0.16228,0.676 0.0546,0.6928 -0.0546,0.6927 -0.16226,0.676 -0.26575,0.6421 -0.36319,0.5924 -0.45141,0.5287 -0.52867,0.4514 -0.59244,0.3628 -0.64204,0.2661 -0.67607,0.1623 -0.69271,0.0548 z"
       style="fill:none;stroke:#ff0000;stroke-opacity:1"
       id="path30101"
       sodipodi:nodetypes="ccccccccccccccccccccccccccccccccccccccccc" />
    <path
       inkscape:connector-curvature="0"
       d="m 400.34058,476.12389 -0.67607,-0.1621 -0.64204,-0.2661 -0.59245,-0.3628 -0.52866,-0.4514 -0.45141,-0.5287 -0.36284,-0.5924 -0.2661,-0.6421 -0.16228,-0.676 -0.0546,-0.6927 0.0546,-0.6928 0.16227,-0.676 0.2661,-0.6421 0.36284,-0.5924 0.45141,-0.5287 0.52866,-0.4514 0.59245,-0.3632 0.64204,-0.2657 0.67607,-0.1623 0.69271,-0.0548 0.6929,0.055 0.67581,0.1621 0.64212,0.2657 0.59255,0.3632 0.52852,0.4514 0.45138,0.5287 0.36312,0.5924 0.26599,0.6421 0.16229,0.676 0.0545,0.6928 -0.0545,0.6927 -0.16228,0.676 -0.26599,0.6421 -0.36312,0.5924 -0.45138,0.5287 -0.52852,0.4514 -0.59255,0.3628 -0.64212,0.2661 -0.67581,0.1623 -0.6929,0.0548 z"
       style="fill:none;stroke:#ff0000;stroke-opacity:1"
       id="path30181"
       sodipodi:nodetypes="ccccccccccccccccccccccccccccccccccccccccc" />
    <path
       inkscape:connector-curvature="0"
       d="m 472.2695,476.12389 -0.67585,-0.1621 -0.64208,-0.2661 -0.59259,-0.3628 -0.52848,-0.4514 -0.45142,-0.5287 -0.36312,-0.5924 -0.26599,-0.6421 -0.16225,-0.676 -0.0545,-0.6927 0.0545,-0.6928 0.16225,-0.676 0.26599,-0.6421 0.36312,-0.5924 0.45142,-0.5287 0.52848,-0.4514 0.59259,-0.3632 0.64208,-0.2657 0.67585,-0.1623 0.69293,-0.0548 0.69271,0.055 0.67607,0.1621 0.64204,0.2657 0.59244,0.3632 0.52867,0.4514 0.45141,0.5287 0.36284,0.5924 0.2661,0.6421 0.16228,0.676 0.0546,0.6928 -0.0546,0.6927 -0.16227,0.676 -0.2661,0.6421 -0.36284,0.5924 -0.45141,0.5287 -0.52867,0.4514 -0.59244,0.3628 -0.64204,0.2661 -0.67607,0.1623 -0.69271,0.0548 z"
       style="fill:none;stroke:#ff0000;stroke-opacity:1"
       id="path30261"
       sodipodi:nodetypes="ccccccccccccccccccccccccccccccccccccccccc" />
    <path
       inkscape:connector-curvature="0"
       d="m 575.02562,476.12389 -0.67607,-0.1621 -0.64204,-0.2661 -0.59244,-0.3628 -0.52867,-0.4514 -0.45141,-0.5287 -0.36319,-0.5924 -0.26575,-0.6421 -0.16228,-0.676 -0.0546,-0.6927 0.0546,-0.6928 0.16226,-0.676 0.26575,-0.6421 0.36319,-0.5924 0.45141,-0.5287 0.52867,-0.4514 0.59244,-0.3632 0.64204,-0.2657 0.67607,-0.1623 0.69271,-0.0548 0.69272,0.055 0.67606,0.1621 0.64205,0.2657 0.59244,0.3632 0.52866,0.4514 0.45142,0.5287 0.36283,0.5924 0.26611,0.6421 0.16228,0.676 0.0546,0.6928 -0.0546,0.6927 -0.16227,0.676 -0.26611,0.6421 -0.36283,0.5924 -0.45142,0.5287 -0.52866,0.4514 -0.59244,0.3628 -0.64205,0.2661 -0.67606,0.1623 -0.69272,0.0548 z"
       style="fill:none;stroke:#ff0000;stroke-opacity:1"
       id="path30341"
       sodipodi:nodetypes="ccccccccccccccccccccccccccccccccccccccccc" />
    <path
       inkscape:connector-curvature="0"
       d="m 630.4642,506.50169 0.54283,0.1203 0.51733,0.2038 0.47905,0.2822 0.4291,0.3536 0.3685,0.4165 0.2987,0.4689 0.22181,0.5099 0.13925,0.5383 0.0532,0.5535 -0.034,0.555 -0.12048,0.5428 -0.20374,0.5173 -0.28204,0.4791 -0.35363,0.429 -0.41669,0.3685 -0.46878,0.2987 -0.50988,0.2217 -0.53823,0.1392 -0.55346,0.0531 -0.55488,-0.0338 -0.54284,-0.12035 -0.51768,-0.2038 -0.4787,-0.2822 -0.42909,-0.3536 -0.36851,-0.4165 -0.2987,-0.4689 -0.22181,-0.5099 -0.13925,-0.5383 -0.0531,-0.5534 0.034,-0.555 0.12013,-0.5428 0.20374,-0.5174 0.2824,-0.479 0.35362,-0.429 0.41634,-0.3686 0.46913,-0.2987 0.50988,-0.2216 0.53823,-0.1393 0.55347,-0.0531 z"
       style="fill:none;stroke:#ff0000;stroke-opacity:1"
       id="path30381"
       sodipodi:nodetypes="ccccccccccccccccccccccccccccccccccccccccc" />
    <path
       inkscape:connector-curvature="0"
       d="m 245.1781,506.66019 0.50988,0.2217 0.46913,0.2987 0.41634,0.3685 0.35362,0.4291 0.28205,0.479 0.20409,0.5174 0.12012,0.5428 0.034,0.555 -0.0531,0.5534 -0.13927,0.5383 -0.22181,0.5099 -0.2987,0.4689 -0.36851,0.4165 -0.42909,0.3536 -0.47906,0.2822 -0.51732,0.2038 -0.54284,0.1203 -0.55488,0.034 -0.55346,-0.0531 -0.53823,-0.13935 -0.50988,-0.2217 -0.46878,-0.2987 -0.41669,-0.3685 -0.35363,-0.429 -0.28204,-0.4791 -0.20374,-0.5173 -0.12048,-0.5428 -0.034,-0.555 0.0532,-0.5535 0.13923,-0.5383 0.22181,-0.5099 0.2987,-0.4689 0.3685,-0.4165 0.4291,-0.3536 0.47905,-0.2822 0.51733,-0.2038 0.54283,-0.1203 0.55488,-0.034 0.55347,0.0532 z"
       style="fill:none;stroke:#ff0000;stroke-opacity:1"
       id="path30463"
       sodipodi:nodetypes="ccccccccccccccccccccccccccccccccccccccccc" />
    <path
       inkscape:connector-curvature="0"
       d="m 573.64621,523.36389 -0.54248,-0.1203 -0.51733,-0.2038 -0.47905,-0.2822 -0.4291,-0.3537 -0.3685,-0.4164 -0.2987,-0.4689 -0.22181,-0.5099 -0.13925,-0.5383 -0.0531,-0.5535 0.034,-0.5549 0.12012,-0.5429 0.20374,-0.5173 0.2824,-0.479 0.35362,-0.4291 0.41634,-0.3684 0.46914,-0.2987 0.50952,-0.2218 0.53859,-0.1392 0.55346,-0.0531 0.55488,0.0338 0.54284,0.12035 0.51732,0.2038 0.47906,0.2822 0.42909,0.3537 0.3685,0.4164 0.2987,0.4689 0.22146,0.5099 0.13925,0.5383 0.0535,0.5535 -0.034,0.5549 -0.12048,0.5428 -0.20374,0.5174 -0.28205,0.479 -0.35362,0.4291 -0.41669,0.3685 -0.46878,0.2987 -0.50988,0.2217 -0.53823,0.1391 -0.55347,0.0532 z"
       style="fill:none;stroke:#ff0000;stroke-opacity:1"
       id="path30581"
       sodipodi:nodetypes="ccccccccccccccccccccccccccccccccccccccccc" />
    <path
       inkscape:connector-curvature="0"
       d="m 298.70258,523.20539 -0.50988,-0.2218 -0.46878,-0.2987 -0.41669,-0.3684 -0.35362,-0.4291 -0.28205,-0.479 -0.20374,-0.5174 -0.12047,-0.5428 -0.034,-0.5549 0.0535,-0.5535 0.13925,-0.5383 0.22146,-0.5099 0.2987,-0.4689 0.3685,-0.4165 0.42909,-0.3536 0.47906,-0.2822 0.51732,-0.2038 0.54284,-0.1204 0.55488,-0.034 0.55346,0.0532 0.53859,0.13935 0.50952,0.2218 0.46914,0.2987 0.41634,0.3684 0.35362,0.4291 0.2824,0.479 0.20374,0.5173 0.12012,0.5429 0.034,0.5549 -0.0531,0.5535 -0.13928,0.5383 -0.22181,0.5099 -0.2987,0.4689 -0.3685,0.4164 -0.4291,0.3537 -0.47905,0.2822 -0.51733,0.2038 -0.54248,0.1203 -0.55523,0.034 -0.55347,-0.0532 z"
       style="fill:none;stroke:#ff0000;stroke-opacity:1"
       id="path30583"
       sodipodi:nodetypes="ccccccccccccccccccccccccccccccccccccccccc" />
    <path
       inkscape:connector-curvature="0"
       d="m 611.02668,525.00159 5.98323,33.9303 -11.51611,2.0307 -5.98252,-33.9301 z"
       style="fill:none;stroke:#ff0000;stroke-opacity:1"
       id="path30663"
       sodipodi:nodetypes="ccccc" />
    <path
       inkscape:connector-curvature="0"
       d="m 256.98617,558.93229 5.98252,-33.9304 11.51575,2.0302 -5.98288,33.9305 z"
       style="fill:none;stroke:#ff0000;stroke-opacity:1"
       id="path30677"
       sodipodi:nodetypes="ccccc" />
    <path
       inkscape:connector-curvature="0"
       d="m 237.94869,541.27649 -0.50988,-0.2217 -0.46878,-0.2987 -0.4167,-0.3685 -0.35362,-0.429 -0.28205,-0.479 -0.20374,-0.5174 -0.12047,-0.5428 -0.034,-0.5549 0.0535,-0.5536 0.13925,-0.5383 0.22146,-0.5098 0.2987,-0.4689 0.3685,-0.4165 0.4291,-0.3536 0.47905,-0.2822 0.51733,-0.2039 0.54283,-0.1203 0.55488,-0.034 0.55347,0.0532 0.53822,0.13935 0.50989,0.2217 0.46913,0.2987 0.41634,0.3685 0.35362,0.4291 0.2824,0.479 0.20374,0.5173 0.12012,0.5428 0.034,0.555 -0.0532,0.5534 -0.13923,0.5384 -0.22181,0.5099 -0.2987,0.4688 -0.3685,0.4165 -0.4291,0.3536 -0.47905,0.2823 -0.51732,0.2038 -0.54284,0.1203 -0.55488,0.034 -0.55346,-0.0532 z"
       style="fill:none;stroke:#ff0000;stroke-opacity:1"
       id="path30679"
       sodipodi:nodetypes="ccccccccccccccccccccccccccccccccccccccccc" />
    <path
       inkscape:connector-curvature="0"
       d="m 634.4001,541.43509 -0.54248,-0.1203 -0.51767,-0.2038 -0.47906,-0.2822 -0.42874,-0.3537 -0.3685,-0.4164 -0.2987,-0.4689 -0.22181,-0.5099 -0.13926,-0.5384 -0.0532,-0.5534 0.0337,-0.5549 0.12046,-0.5428 0.20374,-0.5174 0.2824,-0.479 0.35362,-0.4291 0.41634,-0.3685 0.46878,-0.2987 0.50988,-0.2217 0.53858,-0.1392 0.55347,-0.0531 0.55488,0.0338 0.54283,0.12025 0.51733,0.2039 0.47905,0.2822 0.4291,0.3536 0.3685,0.4165 0.2987,0.4689 0.22146,0.5098 0.13925,0.5383 0.0535,0.5536 -0.034,0.5549 -0.12048,0.5428 -0.20374,0.5174 -0.28205,0.479 -0.35362,0.429 -0.4167,0.3685 -0.46878,0.2987 -0.50988,0.2217 -0.53823,0.1392 -0.55346,0.0532 z"
       style="fill:none;stroke:#ff0000;stroke-opacity:1"
       id="path30837"
       sodipodi:nodetypes="ccccccccccccccccccccccccccccccccccccccccc" />
    <path
       inkscape:connector-curvature="0"
       d="m 578.56857,551.27979 -0.54284,-0.1205 -0.51732,-0.2037 -0.47905,-0.2822 -0.42874,-0.3537 -0.36851,-0.4164 -0.2987,-0.469 -0.22181,-0.5098 -0.13925,-0.5383 -0.0531,-0.5535 0.0337,-0.5549 0.12045,-0.5428 0.20374,-0.5174 0.2824,-0.479 0.35363,-0.4291 0.41633,-0.3685 0.46878,-0.2987 0.50989,-0.2217 0.53858,-0.1392 0.55311,-0.0531 0.55523,0.0338 0.54284,0.1203 0.51732,0.2038 0.47906,0.2822 0.42909,0.3537 0.36815,0.4164 0.2987,0.4689 0.22181,0.5099 0.13926,0.5383 0.0531,0.5535 -0.0337,0.5549 -0.12045,0.5429 -0.20374,0.5173 -0.2824,0.479 -0.35362,0.4291 -0.41634,0.3684 -0.46878,0.2987 -0.50988,0.2217 -0.53859,0.1392 -0.55311,0.0532 z"
       style="fill:none;stroke:#ff0000;stroke-opacity:1"
       id="path30917"
       sodipodi:nodetypes="ccccccccccccccccccccccccccccccccccccccccc" />
    <path
       inkscape:connector-curvature="0"
       d="m 293.78022,551.12109 -0.50988,-0.2217 -0.46878,-0.2987 -0.41669,-0.3684 -0.35362,-0.4291 -0.28205,-0.479 -0.20374,-0.5173 -0.12047,-0.5429 -0.034,-0.5549 0.0535,-0.5535 0.13926,-0.5383 0.22145,-0.5099 0.2987,-0.4689 0.36851,-0.4165 0.42909,-0.3536 0.47906,-0.2822 0.51732,-0.2038 0.54284,-0.1203 0.55488,-0.034 0.55346,0.0532 0.53858,0.13935 0.50989,0.2217 0.46878,0.2987 0.41633,0.3685 0.35363,0.4291 0.2824,0.479 0.20374,0.5174 0.12047,0.5428 0.0337,0.5549 -0.0531,0.5535 -0.13928,0.5383 -0.22181,0.5098 -0.2987,0.469 -0.36851,0.4164 -0.42874,0.3537 -0.47905,0.2822 -0.51732,0.2037 -0.54284,0.1205 -0.55523,0.034 -0.55311,-0.0533 z"
       style="fill:none;stroke:#ff0000;stroke-opacity:1"
       id="path30919"
       sodipodi:nodetypes="ccccccccccccccccccccccccccccccccccccccccc" />
    <path
       inkscape:connector-curvature="0"
       d="m 640.85176,562.45359 0.51732,0.2038 0.47906,0.2824 0.42909,0.3536 0.36815,0.4163 0.29905,0.4688 0.22146,0.5099 0.13925,0.5382 0.0532,0.5535 -0.0337,0.5552 -0.12045,0.5428 -0.20374,0.5174 -0.2824,0.479 -0.35363,0.4288 -0.41633,0.3685 -0.46878,0.2987 -0.50989,0.2218 -0.53822,0.1392 -0.55382,0.0531 -0.55488,-0.0338 -0.54284,-0.12035 -0.51732,-0.2037 -0.47906,-0.2824 -0.42909,-0.3536 -0.36815,-0.4164 -0.2987,-0.4687 -0.22181,-0.5099 -0.13925,-0.5386 -0.0532,-0.5531 0.0337,-0.5552 0.12045,-0.5429 0.20374,-0.5173 0.2824,-0.4791 0.35362,-0.4291 0.41634,-0.3681 0.46878,-0.2987 0.50988,-0.2218 0.53859,-0.1393 0.55346,-0.053 0.55488,0.0338 z"
       style="fill:none;stroke:#ff0000;stroke-opacity:1"
       id="path31039"
       sodipodi:nodetypes="ccccccccccccccccccccccccccccccccccccccccc" />
    <path
       inkscape:connector-curvature="0"
       d="m 234.79514,562.35254 0.53859,0.13935 0.50988,0.2218 0.46878,0.2987 0.41634,0.3681 0.35362,0.4291 0.2824,0.4791 0.20374,0.5173 0.12012,0.5429 0.034,0.5548 -0.0532,0.5535 -0.13922,0.5386 -0.22181,0.5099 -0.2987,0.4687 -0.3685,0.4164 -0.42874,0.3536 -0.47906,0.2824 -0.51732,0.2037 -0.54284,0.1205 -0.55523,0.0339 -0.55347,-0.0533 -0.53822,-0.1393 -0.50989,-0.2218 -0.46878,-0.2987 -0.41633,-0.3685 -0.35363,-0.4288 -0.2824,-0.479 -0.20374,-0.5174 -0.12047,-0.5428 -0.0337,-0.5552 0.0532,-0.5535 0.13923,-0.5382 0.22146,-0.5099 0.29905,-0.4688 0.36815,-0.4163 0.42909,-0.3536 0.47906,-0.2824 0.51732,-0.2038 0.54284,-0.1205 0.55488,-0.0338 z"
       style="fill:none;stroke:#ff0000;stroke-opacity:1"
       id="path31117"
       sodipodi:nodetypes="ccccccccccccccccccccccccccccccccccccccccc" />
    <path
       inkscape:connector-curvature="0"
       d="m 584.47703,572.17789 0.54284,0.1204 0.51767,0.2038 0.47906,0.282 0.42874,0.3537 0.3685,0.4166 0.2987,0.4688 0.22182,0.5099 0.13925,0.5382 0.0531,0.5535 -0.034,0.5549 -0.12013,0.5428 -0.20374,0.5173 -0.2824,0.4791 -0.35362,0.4291 -0.41634,0.3685 -0.46913,0.2987 -0.50988,0.2218 -0.53823,0.1393 -0.55347,0.053 -0.55488,-0.034 -0.54283,-0.1201 -0.51733,-0.2041 -0.47905,-0.2821 -0.4291,-0.3536 -0.3685,-0.4163 -0.2987,-0.4692 -0.22146,-0.5098 -0.13925,-0.5383 -0.0535,-0.5534 0.034,-0.5549 0.12048,-0.5429 0.20375,-0.5173 0.2824,-0.479 0.35326,-0.4291 0.4167,-0.3685 0.46878,-0.2987 0.50988,-0.2218 0.53823,-0.1389 0.55346,-0.0533 z"
       style="fill:none;stroke:#ff0000;stroke-opacity:1"
       id="path31197"
       sodipodi:nodetypes="ccccccccccccccccccccccccccccccccccccccccc" />
    <path
       inkscape:connector-curvature="0"
       d="m 291.16526,572.33629 0.50988,0.2218 0.46878,0.2987 0.4167,0.3685 0.35326,0.4291 0.2824,0.479 0.20375,0.5173 0.12047,0.5429 0.034,0.5549 -0.0535,0.5534 -0.13925,0.5383 -0.22146,0.5098 -0.2987,0.4692 -0.3685,0.4163 -0.4291,0.3536 -0.47905,0.2821 -0.51733,0.2041 -0.54283,0.1201 -0.55488,0.034 -0.55347,-0.053 -0.53858,-0.13935 -0.50988,-0.2218 -0.46878,-0.2987 -0.41634,-0.3685 -0.35362,-0.4291 -0.2824,-0.4791 -0.20374,-0.5173 -0.12048,-0.5428 -0.034,-0.5549 0.0535,-0.5535 0.13925,-0.5382 0.22182,-0.5099 0.2987,-0.4688 0.3685,-0.4166 0.42874,-0.3537 0.47906,-0.282 0.51732,-0.2038 0.54283,-0.1204 0.55524,-0.034 0.55346,0.0532 z"
       style="fill:none;stroke:#ff0000;stroke-opacity:1"
       id="path31279"
       sodipodi:nodetypes="ccccccccccccccccccccccccccccccccccccccccc" />
  </g>
</svg>
