  0
SECTION
  2
BLOCKS
  0
ENDSEC
  0
SECTION
  2
ENTITIES
  0
LINE
  8
0
 10
-54.068
 20
-30.9501
 11
-55.343
 21
-30.9501
  0
LINE
  8
0
 10
-55.343
 20
-30.9501
 11
-55.4603
 21
-30.9409
  0
LINE
  8
0
 10
-55.4603
 20
-30.9409
 11
-55.5747
 21
-30.9134
  0
LINE
  8
0
 10
-55.5747
 20
-30.9134
 11
-55.6835
 21
-30.8683
  0
LINE
  8
0
 10
-55.6835
 20
-30.8683
 11
-55.7838
 21
-30.8069
  0
LINE
  8
0
 10
-55.7838
 20
-30.8069
 11
-55.8733
 21
-30.7304
  0
LINE
  8
0
 10
-55.8733
 20
-30.7304
 11
-55.9497
 21
-30.6409
  0
LINE
  8
0
 10
-55.9497
 20
-30.6409
 11
-56.0112
 21
-30.5406
  0
LINE
  8
0
 10
-56.0112
 20
-30.5406
 11
-56.0563
 21
-30.4319
  0
LINE
  8
0
 10
-56.0563
 20
-30.4319
 11
-56.0837
 21
-30.3174
  0
LINE
  8
0
 10
-56.0837
 20
-30.3174
 11
-56.093
 21
-30.2001
  0
LINE
  8
0
 10
-56.093
 20
-30.2001
 11
-56.0837
 21
-30.0828
  0
LINE
  8
0
 10
-56.0837
 20
-30.0828
 11
-56.0563
 21
-29.9684
  0
LINE
  8
0
 10
-56.0563
 20
-29.9684
 11
-56.0112
 21
-29.8596
  0
LINE
  8
0
 10
-56.0112
 20
-29.8596
 11
-55.9497
 21
-29.7593
  0
LINE
  8
0
 10
-55.9497
 20
-29.7593
 11
-55.8733
 21
-29.6698
  0
LINE
  8
0
 10
-55.8733
 20
-29.6698
 11
-55.7838
 21
-29.5934
  0
LINE
  8
0
 10
-55.7838
 20
-29.5934
 11
-55.6835
 21
-29.5319
  0
LINE
  8
0
 10
-55.6835
 20
-29.5319
 11
-55.5747
 21
-29.4868
  0
LINE
  8
0
 10
-55.5747
 20
-29.4868
 11
-55.4603
 21
-29.4594
  0
LINE
  8
0
 10
-55.4603
 20
-29.4594
 11
-55.343
 21
-29.4501
  0
LINE
  8
0
 10
-55.343
 20
-29.4501
 11
-55.343
 21
-28.0001
  0
LINE
  8
0
 10
-55.343
 20
-28.0001
 11
-55.3091
 21
-27.5699
  0
LINE
  8
0
 10
-55.3091
 20
-27.5699
 11
-55.2084
 21
-27.1503
  0
LINE
  8
0
 10
-55.2084
 20
-27.1503
 11
-55.0432
 21
-26.7516
  0
LINE
  8
0
 10
-55.0432
 20
-26.7516
 11
-54.8178
 21
-26.3837
  0
LINE
  8
0
 10
-54.8178
 20
-26.3837
 11
-54.5375
 21
-26.0556
  0
LINE
  8
0
 10
-54.5375
 20
-26.0556
 11
-54.2094
 21
-25.7753
  0
LINE
  8
0
 10
-54.2094
 20
-25.7753
 11
-53.8414
 21
-25.5499
  0
LINE
  8
0
 10
-53.8414
 20
-25.5499
 11
-53.4428
 21
-25.3847
  0
LINE
  8
0
 10
-53.4428
 20
-25.3847
 11
-53.0232
 21
-25.284
  0
LINE
  8
0
 10
-53.0232
 20
-25.284
 11
-52.593
 21
-25.2501
  0
LINE
  8
0
 10
-52.593
 20
-25.2501
 11
-52.1628
 21
-25.284
  0
LINE
  8
0
 10
-52.1628
 20
-25.284
 11
-51.7432
 21
-25.3847
  0
LINE
  8
0
 10
-51.7432
 20
-25.3847
 11
-51.3445
 21
-25.5499
  0
LINE
  8
0
 10
-51.3445
 20
-25.5499
 11
-50.9766
 21
-25.7753
  0
LINE
  8
0
 10
-50.9766
 20
-25.7753
 11
-50.6485
 21
-26.0556
  0
LINE
  8
0
 10
-50.6485
 20
-26.0556
 11
-50.3682
 21
-26.3837
  0
LINE
  8
0
 10
-50.3682
 20
-26.3837
 11
-50.1427
 21
-26.7516
  0
LINE
  8
0
 10
-50.1427
 20
-26.7516
 11
-49.9776
 21
-27.1503
  0
LINE
  8
0
 10
-49.9776
 20
-27.1503
 11
-49.8768
 21
-27.5699
  0
LINE
  8
0
 10
-49.8768
 20
-27.5699
 11
-49.843
 21
-28.0001
  0
LINE
  8
0
 10
-49.843
 20
-28.0001
 11
-49.843
 21
-29.4501
  0
LINE
  8
0
 10
-49.843
 20
-29.4501
 11
-49.7257
 21
-29.4594
  0
LINE
  8
0
 10
-49.7257
 20
-29.4594
 11
-49.6112
 21
-29.4868
  0
LINE
  8
0
 10
-49.6112
 20
-29.4868
 11
-49.5025
 21
-29.5319
  0
LINE
  8
0
 10
-49.5025
 20
-29.5319
 11
-49.4022
 21
-29.5934
  0
LINE
  8
0
 10
-49.4022
 20
-29.5934
 11
-49.3127
 21
-29.6698
  0
LINE
  8
0
 10
-49.3127
 20
-29.6698
 11
-49.2362
 21
-29.7593
  0
LINE
  8
0
 10
-49.2362
 20
-29.7593
 11
-49.1747
 21
-29.8596
  0
LINE
  8
0
 10
-49.1747
 20
-29.8596
 11
-49.1297
 21
-29.9684
  0
LINE
  8
0
 10
-49.1297
 20
-29.9684
 11
-49.1022
 21
-30.0828
  0
LINE
  8
0
 10
-49.1022
 20
-30.0828
 11
-49.093
 21
-30.2001
  0
LINE
  8
0
 10
-49.093
 20
-30.2001
 11
-49.1022
 21
-30.3174
  0
LINE
  8
0
 10
-49.1022
 20
-30.3174
 11
-49.1297
 21
-30.4319
  0
LINE
  8
0
 10
-49.1297
 20
-30.4319
 11
-49.1747
 21
-30.5406
  0
LINE
  8
0
 10
-49.1747
 20
-30.5406
 11
-49.2362
 21
-30.6409
  0
LINE
  8
0
 10
-49.2362
 20
-30.6409
 11
-49.3127
 21
-30.7304
  0
LINE
  8
0
 10
-49.3127
 20
-30.7304
 11
-49.4022
 21
-30.8069
  0
LINE
  8
0
 10
-49.4022
 20
-30.8069
 11
-49.5025
 21
-30.8683
  0
LINE
  8
0
 10
-49.5025
 20
-30.8683
 11
-49.6112
 21
-30.9134
  0
LINE
  8
0
 10
-49.6112
 20
-30.9134
 11
-49.7257
 21
-30.9409
  0
LINE
  8
0
 10
-49.7257
 20
-30.9409
 11
-49.843
 21
-30.9501
  0
LINE
  8
0
 10
-49.843
 20
-30.9501
 11
-51.118
 21
-30.9501
  0
LINE
  8
0
 10
-51.118
 20
-30.9501
 11
-51.118
 21
-33.95
  0
LINE
  8
0
 10
-51.118
 20
-33.95
 11
-42.5
 21
-33.95
  0
LINE
  8
0
 10
-42.5
 20
-33.95
 11
-42.5
 21
-31.25
  0
LINE
  8
0
 10
-42.5
 20
-31.25
 11
-30.5
 21
-31.25
  0
LINE
  8
0
 10
-30.5
 20
-31.25
 11
-30.5
 21
-13.75
  0
LINE
  8
0
 10
-30.5
 20
-13.75
 11
-30.4082
 21
-11.9991
  0
LINE
  8
0
 10
-30.4082
 20
-11.9991
 11
-30.134
 21
-10.2675
  0
LINE
  8
0
 10
-30.134
 20
-10.2675
 11
-29.6802
 21
-8.57396
  0
LINE
  8
0
 10
-29.6802
 20
-8.57396
 11
-29.0519
 21
-6.93715
  0
LINE
  8
0
 10
-29.0519
 20
-6.93715
 11
-28.2559
 21
-5.375
  0
LINE
  8
0
 10
-28.2559
 20
-5.375
 11
-27.301
 21
-3.90459
  0
LINE
  8
0
 10
-27.301
 20
-3.90459
 11
-26.1977
 21
-2.54205
  0
LINE
  8
0
 10
-26.1977
 20
-2.54205
 11
-24.9579
 21
-1.30232
  0
LINE
  8
0
 10
-24.9579
 20
-1.30232
 11
-24.5
 21
-0.931488
  0
LINE
  8
0
 10
-24.5
 20
-0.931488
 11
-24.5
 21
6.75
  0
LINE
  8
0
 10
-24.5
 20
6.75
 11
-24.489
 21
6.95905
  0
LINE
  8
0
 10
-24.489
 20
6.95905
 11
-24.4563
 21
7.16582
  0
LINE
  8
0
 10
-24.4563
 20
7.16582
 11
-24.4021
 21
7.36803
  0
LINE
  8
0
 10
-24.4021
 20
7.36803
 11
-24.3271
 21
7.56346
  0
LINE
  8
0
 10
-24.3271
 20
7.56346
 11
-24.232
 21
7.75
  0
LINE
  8
0
 10
-24.232
 20
7.75
 11
-24.118
 21
7.92557
  0
LINE
  8
0
 10
-24.118
 20
7.92557
 11
-23.9863
 21
8.08826
  0
LINE
  8
0
 10
-23.9863
 20
8.08826
 11
-23.8383
 21
8.23628
  0
LINE
  8
0
 10
-23.8383
 20
8.23628
 11
-23.6756
 21
8.36803
  0
LINE
  8
0
 10
-23.6756
 20
8.36803
 11
-23.5
 21
8.48204
  0
LINE
  8
0
 10
-23.5
 20
8.48204
 11
-23.3135
 21
8.57709
  0
LINE
  8
0
 10
-23.3135
 20
8.57709
 11
-23.118
 21
8.6521
  0
LINE
  8
0
 10
-23.118
 20
8.6521
 11
-22.9158
 21
8.70628
  0
LINE
  8
0
 10
-22.9158
 20
8.70628
 11
-22.709
 21
8.73903
  0
LINE
  8
0
 10
-22.709
 20
8.73903
 11
-22.5
 21
8.75
  0
LINE
  8
0
 10
-22.5
 20
8.75
 11
22.5
 21
8.75
  0
LINE
  8
0
 10
22.5
 20
8.75
 11
22.709
 21
8.73903
  0
LINE
  8
0
 10
22.709
 20
8.73903
 11
22.9158
 21
8.70628
  0
LINE
  8
0
 10
22.9158
 20
8.70628
 11
23.118
 21
8.6521
  0
LINE
  8
0
 10
23.118
 20
8.6521
 11
23.3135
 21
8.57709
  0
LINE
  8
0
 10
23.3135
 20
8.57709
 11
23.5
 21
8.48204
  0
LINE
  8
0
 10
23.5
 20
8.48204
 11
23.6756
 21
8.36803
  0
LINE
  8
0
 10
23.6756
 20
8.36803
 11
23.8383
 21
8.23628
  0
LINE
  8
0
 10
23.8383
 20
8.23628
 11
23.9863
 21
8.08826
  0
LINE
  8
0
 10
23.9863
 20
8.08826
 11
24.118
 21
7.92557
  0
LINE
  8
0
 10
24.118
 20
7.92557
 11
24.232
 21
7.75
  0
LINE
  8
0
 10
24.232
 20
7.75
 11
24.3271
 21
7.56346
  0
LINE
  8
0
 10
24.3271
 20
7.56346
 11
24.4021
 21
7.36803
  0
LINE
  8
0
 10
24.4021
 20
7.36803
 11
24.4563
 21
7.16582
  0
LINE
  8
0
 10
24.4563
 20
7.16582
 11
24.489
 21
6.95905
  0
LINE
  8
0
 10
24.489
 20
6.95905
 11
24.5
 21
6.75
  0
LINE
  8
0
 10
24.5
 20
6.75
 11
24.5
 21
-0.931488
  0
LINE
  8
0
 10
24.5
 20
-0.931488
 11
24.9579
 21
-1.30232
  0
LINE
  8
0
 10
24.9579
 20
-1.30232
 11
26.1977
 21
-2.54205
  0
LINE
  8
0
 10
26.1977
 20
-2.54205
 11
27.301
 21
-3.90459
  0
LINE
  8
0
 10
27.301
 20
-3.90459
 11
28.2559
 21
-5.375
  0
LINE
  8
0
 10
28.2559
 20
-5.375
 11
29.0519
 21
-6.93715
  0
LINE
  8
0
 10
29.0519
 20
-6.93715
 11
29.6802
 21
-8.57396
  0
LINE
  8
0
 10
29.6802
 20
-8.57396
 11
30.134
 21
-10.2675
  0
LINE
  8
0
 10
30.134
 20
-10.2675
 11
30.4082
 21
-11.9991
  0
LINE
  8
0
 10
30.4082
 20
-11.9991
 11
30.5
 21
-13.75
  0
LINE
  8
0
 10
30.5
 20
-13.75
 11
30.5
 21
-31.25
  0
LINE
  8
0
 10
30.5
 20
-31.25
 11
42.5
 21
-31.25
  0
LINE
  8
0
 10
42.5
 20
-31.25
 11
42.5
 21
-33.95
  0
LINE
  8
0
 10
42.5
 20
-33.95
 11
51.118
 21
-33.95
  0
LINE
  8
0
 10
51.118
 20
-33.95
 11
51.118
 21
-30.9501
  0
LINE
  8
0
 10
51.118
 20
-30.9501
 11
49.843
 21
-30.9501
  0
LINE
  8
0
 10
49.843
 20
-30.9501
 11
49.7257
 21
-30.9409
  0
LINE
  8
0
 10
49.7257
 20
-30.9409
 11
49.6112
 21
-30.9134
  0
LINE
  8
0
 10
49.6112
 20
-30.9134
 11
49.5025
 21
-30.8683
  0
LINE
  8
0
 10
49.5025
 20
-30.8683
 11
49.4022
 21
-30.8069
  0
LINE
  8
0
 10
49.4022
 20
-30.8069
 11
49.3127
 21
-30.7304
  0
LINE
  8
0
 10
49.3127
 20
-30.7304
 11
49.2362
 21
-30.6409
  0
LINE
  8
0
 10
49.2362
 20
-30.6409
 11
49.1747
 21
-30.5406
  0
LINE
  8
0
 10
49.1747
 20
-30.5406
 11
49.1297
 21
-30.4319
  0
LINE
  8
0
 10
49.1297
 20
-30.4319
 11
49.1022
 21
-30.3174
  0
LINE
  8
0
 10
49.1022
 20
-30.3174
 11
49.093
 21
-30.2001
  0
LINE
  8
0
 10
49.093
 20
-30.2001
 11
49.1022
 21
-30.0828
  0
LINE
  8
0
 10
49.1022
 20
-30.0828
 11
49.1297
 21
-29.9684
  0
LINE
  8
0
 10
49.1297
 20
-29.9684
 11
49.1747
 21
-29.8596
  0
LINE
  8
0
 10
49.1747
 20
-29.8596
 11
49.2362
 21
-29.7593
  0
LINE
  8
0
 10
49.2362
 20
-29.7593
 11
49.3127
 21
-29.6698
  0
LINE
  8
0
 10
49.3127
 20
-29.6698
 11
49.4022
 21
-29.5934
  0
LINE
  8
0
 10
49.4022
 20
-29.5934
 11
49.5025
 21
-29.5319
  0
LINE
  8
0
 10
49.5025
 20
-29.5319
 11
49.6112
 21
-29.4868
  0
LINE
  8
0
 10
49.6112
 20
-29.4868
 11
49.7257
 21
-29.4594
  0
LINE
  8
0
 10
49.7257
 20
-29.4594
 11
49.843
 21
-29.4501
  0
LINE
  8
0
 10
49.843
 20
-29.4501
 11
49.843
 21
-28.0001
  0
LINE
  8
0
 10
49.843
 20
-28.0001
 11
49.8768
 21
-27.5699
  0
LINE
  8
0
 10
49.8768
 20
-27.5699
 11
49.9776
 21
-27.1503
  0
LINE
  8
0
 10
49.9776
 20
-27.1503
 11
50.1427
 21
-26.7516
  0
LINE
  8
0
 10
50.1427
 20
-26.7516
 11
50.3682
 21
-26.3837
  0
LINE
  8
0
 10
50.3682
 20
-26.3837
 11
50.6485
 21
-26.0556
  0
LINE
  8
0
 10
50.6485
 20
-26.0556
 11
50.9766
 21
-25.7753
  0
LINE
  8
0
 10
50.9766
 20
-25.7753
 11
51.3445
 21
-25.5499
  0
LINE
  8
0
 10
51.3445
 20
-25.5499
 11
51.7432
 21
-25.3847
  0
LINE
  8
0
 10
51.7432
 20
-25.3847
 11
52.1628
 21
-25.284
  0
LINE
  8
0
 10
52.1628
 20
-25.284
 11
52.593
 21
-25.2501
  0
LINE
  8
0
 10
52.593
 20
-25.2501
 11
53.0232
 21
-25.284
  0
LINE
  8
0
 10
53.0232
 20
-25.284
 11
53.4428
 21
-25.3847
  0
LINE
  8
0
 10
53.4428
 20
-25.3847
 11
53.8414
 21
-25.5499
  0
LINE
  8
0
 10
53.8414
 20
-25.5499
 11
54.2094
 21
-25.7753
  0
LINE
  8
0
 10
54.2094
 20
-25.7753
 11
54.5375
 21
-26.0556
  0
LINE
  8
0
 10
54.5375
 20
-26.0556
 11
54.8178
 21
-26.3837
  0
LINE
  8
0
 10
54.8178
 20
-26.3837
 11
55.0432
 21
-26.7516
  0
LINE
  8
0
 10
55.0432
 20
-26.7516
 11
55.2084
 21
-27.1503
  0
LINE
  8
0
 10
55.2084
 20
-27.1503
 11
55.3091
 21
-27.5699
  0
LINE
  8
0
 10
55.3091
 20
-27.5699
 11
55.343
 21
-28.0001
  0
LINE
  8
0
 10
55.343
 20
-28.0001
 11
55.343
 21
-29.4501
  0
LINE
  8
0
 10
55.343
 20
-29.4501
 11
55.4603
 21
-29.4594
  0
LINE
  8
0
 10
55.4603
 20
-29.4594
 11
55.5747
 21
-29.4868
  0
LINE
  8
0
 10
55.5747
 20
-29.4868
 11
55.6835
 21
-29.5319
  0
LINE
  8
0
 10
55.6835
 20
-29.5319
 11
55.7838
 21
-29.5934
  0
LINE
  8
0
 10
55.7838
 20
-29.5934
 11
55.8733
 21
-29.6698
  0
LINE
  8
0
 10
55.8733
 20
-29.6698
 11
55.9497
 21
-29.7593
  0
LINE
  8
0
 10
55.9497
 20
-29.7593
 11
56.0112
 21
-29.8596
  0
LINE
  8
0
 10
56.0112
 20
-29.8596
 11
56.0563
 21
-29.9684
  0
LINE
  8
0
 10
56.0563
 20
-29.9684
 11
56.0837
 21
-30.0828
  0
LINE
  8
0
 10
56.0837
 20
-30.0828
 11
56.093
 21
-30.2001
  0
LINE
  8
0
 10
56.093
 20
-30.2001
 11
56.0837
 21
-30.3174
  0
LINE
  8
0
 10
56.0837
 20
-30.3174
 11
56.0563
 21
-30.4319
  0
LINE
  8
0
 10
56.0563
 20
-30.4319
 11
56.0112
 21
-30.5406
  0
LINE
  8
0
 10
56.0112
 20
-30.5406
 11
55.9497
 21
-30.6409
  0
LINE
  8
0
 10
55.9497
 20
-30.6409
 11
55.8733
 21
-30.7304
  0
LINE
  8
0
 10
55.8733
 20
-30.7304
 11
55.7838
 21
-30.8069
  0
LINE
  8
0
 10
55.7838
 20
-30.8069
 11
55.6835
 21
-30.8683
  0
LINE
  8
0
 10
55.6835
 20
-30.8683
 11
55.5747
 21
-30.9134
  0
LINE
  8
0
 10
55.5747
 20
-30.9134
 11
55.4603
 21
-30.9409
  0
LINE
  8
0
 10
55.4603
 20
-30.9409
 11
55.343
 21
-30.9501
  0
LINE
  8
0
 10
55.343
 20
-30.9501
 11
54.068
 21
-30.9501
  0
LINE
  8
0
 10
54.068
 20
-30.9501
 11
54.068
 21
-33.95
  0
LINE
  8
0
 10
54.068
 20
-33.95
 11
62.686
 21
-33.95
  0
LINE
  8
0
 10
62.686
 20
-33.95
 11
62.686
 21
-31.25
  0
LINE
  8
0
 10
62.686
 20
-31.25
 11
71.384
 21
-31.25
  0
LINE
  8
0
 10
71.384
 20
-31.25
 11
69.7792
 21
-22.1482
  0
LINE
  8
0
 10
69.7792
 20
-22.1482
 11
66.8546
 21
-22.6639
  0
LINE
  8
0
 10
66.8546
 20
-22.6639
 11
65.9863
 21
-17.7399
  0
LINE
  8
0
 10
65.9863
 20
-17.7399
 11
68.9109
 21
-17.2241
  0
LINE
  8
0
 10
68.9109
 20
-17.2241
 11
64.3961
 21
8.38081
  0
LINE
  8
0
 10
64.3961
 20
8.38081
 11
61.4715
 21
7.86513
  0
LINE
  8
0
 10
61.4715
 20
7.86513
 11
60.6032
 21
12.7892
  0
LINE
  8
0
 10
60.6032
 20
12.7892
 11
63.5278
 21
13.3049
  0
LINE
  8
0
 10
63.5278
 20
13.3049
 11
56.5163
 21
53.0691
  0
LINE
  8
0
 10
56.5163
 20
53.0691
 11
56.3569
 21
54.3678
  0
LINE
  8
0
 10
56.3569
 20
54.3678
 11
56.334
 21
55.676
  0
LINE
  8
0
 10
56.334
 20
55.676
 11
56.448
 21
56.9794
  0
LINE
  8
0
 10
56.448
 20
56.9794
 11
56.6977
 21
58.2637
  0
LINE
  8
0
 10
56.6977
 20
58.2637
 11
57.0802
 21
59.515
  0
LINE
  8
0
 10
57.0802
 20
59.515
 11
57.5915
 21
60.7194
  0
LINE
  8
0
 10
57.5915
 20
60.7194
 11
58.2258
 21
61.8637
  0
LINE
  8
0
 10
58.2258
 20
61.8637
 11
58.9763
 21
62.9355
  0
LINE
  8
0
 10
58.9763
 20
62.9355
 11
59.8347
 21
63.923
  0
LINE
  8
0
 10
59.8347
 20
63.923
 11
60.7915
 21
64.8153
  0
LINE
  8
0
 10
60.7915
 20
64.8153
 11
61.8365
 21
65.6027
  0
LINE
  8
0
 10
61.8365
 20
65.6027
 11
62.958
 21
66.2766
  0
LINE
  8
0
 10
62.958
 20
66.2766
 11
64.1438
 21
66.8295
  0
LINE
  8
0
 10
64.1438
 20
66.8295
 11
65.3809
 21
67.2555
  0
LINE
  8
0
 10
65.3809
 20
67.2555
 11
66.6558
 21
67.5498
  0
LINE
  8
0
 10
66.6558
 20
67.5498
 11
67.4589
 21
67.6484
  0
LINE
  8
0
 10
67.4589
 20
67.6484
 11
64.5
 21
98.401
  0
LINE
  8
0
 10
64.5
 20
98.401
 11
59.5
 21
98.401
  0
LINE
  8
0
 10
59.5
 20
98.401
 11
59.5
 21
97.4
  0
LINE
  8
0
 10
59.5
 20
97.4
 11
55.5
 21
97.4
  0
LINE
  8
0
 10
55.5
 20
97.4
 11
55.5
 21
98.401
  0
LINE
  8
0
 10
55.5
 20
98.401
 11
-51.5
 21
98.401
  0
LINE
  8
0
 10
-51.5
 20
98.401
 11
-51.5
 21
97.4
  0
LINE
  8
0
 10
-51.5
 20
97.4
 11
-55.5
 21
97.4
  0
LINE
  8
0
 10
-55.5
 20
97.4
 11
-55.5
 21
98.401
  0
LINE
  8
0
 10
-55.5
 20
98.401
 11
-64.5
 21
98.401
  0
LINE
  8
0
 10
-64.5
 20
98.401
 11
-67.4589
 21
67.6484
  0
LINE
  8
0
 10
-67.4589
 20
67.6484
 11
-66.6558
 21
67.5498
  0
LINE
  8
0
 10
-66.6558
 20
67.5498
 11
-65.3809
 21
67.2555
  0
LINE
  8
0
 10
-65.3809
 20
67.2555
 11
-64.1438
 21
66.8295
  0
LINE
  8
0
 10
-64.1438
 20
66.8295
 11
-62.958
 21
66.2766
  0
LINE
  8
0
 10
-62.958
 20
66.2766
 11
-61.8365
 21
65.6027
  0
LINE
  8
0
 10
-61.8365
 20
65.6027
 11
-60.7915
 21
64.8153
  0
LINE
  8
0
 10
-60.7915
 20
64.8153
 11
-59.8347
 21
63.923
  0
LINE
  8
0
 10
-59.8347
 20
63.923
 11
-58.9763
 21
62.9355
  0
LINE
  8
0
 10
-58.9763
 20
62.9355
 11
-58.2258
 21
61.8637
  0
LINE
  8
0
 10
-58.2258
 20
61.8637
 11
-57.5915
 21
60.7194
  0
LINE
  8
0
 10
-57.5915
 20
60.7194
 11
-57.0802
 21
59.515
  0
LINE
  8
0
 10
-57.0802
 20
59.515
 11
-56.6977
 21
58.2637
  0
LINE
  8
0
 10
-56.6977
 20
58.2637
 11
-56.448
 21
56.9794
  0
LINE
  8
0
 10
-56.448
 20
56.9794
 11
-56.334
 21
55.676
  0
LINE
  8
0
 10
-56.334
 20
55.676
 11
-56.3569
 21
54.3678
  0
LINE
  8
0
 10
-56.3569
 20
54.3678
 11
-56.5163
 21
53.0691
  0
LINE
  8
0
 10
-56.5163
 20
53.0691
 11
-63.5278
 21
13.3048
  0
LINE
  8
0
 10
-63.5278
 20
13.3048
 11
-60.6033
 21
12.7893
  0
LINE
  8
0
 10
-60.6033
 20
12.7893
 11
-61.4716
 21
7.86505
  0
LINE
  8
0
 10
-61.4716
 20
7.86505
 11
-64.3961
 21
8.38072
  0
LINE
  8
0
 10
-64.3961
 20
8.38072
 11
-68.9109
 21
-17.2242
  0
LINE
  8
0
 10
-68.9109
 20
-17.2242
 11
-65.9864
 21
-17.7398
  0
LINE
  8
0
 10
-65.9864
 20
-17.7398
 11
-66.8547
 21
-22.664
  0
LINE
  8
0
 10
-66.8547
 20
-22.664
 11
-69.7792
 21
-22.1483
  0
LINE
  8
0
 10
-69.7792
 20
-22.1483
 11
-71.384
 21
-31.25
  0
LINE
  8
0
 10
-71.384
 20
-31.25
 11
-62.686
 21
-31.25
  0
LINE
  8
0
 10
-62.686
 20
-31.25
 11
-62.686
 21
-33.95
  0
LINE
  8
0
 10
-62.686
 20
-33.95
 11
-54.068
 21
-33.95
  0
LINE
  8
0
 10
-54.068
 20
-33.95
 11
-54.068
 21
-30.9501
  0
LINE
  8
0
 10
-32.9834
 20
80.7052
 11
-33.1159
 21
80.7209
  0
LINE
  8
0
 10
-33.1159
 20
80.7209
 11
-33.2469
 21
80.747
  0
LINE
  8
0
 10
-33.2469
 20
80.747
 11
-33.3753
 21
80.7832
  0
LINE
  8
0
 10
-33.3753
 20
80.7832
 11
-33.5005
 21
80.8294
  0
LINE
  8
0
 10
-33.5005
 20
80.8294
 11
-33.6218
 21
80.8853
  0
LINE
  8
0
 10
-33.6218
 20
80.8853
 11
-33.7382
 21
80.9505
  0
LINE
  8
0
 10
-33.7382
 20
80.9505
 11
-33.8492
 21
81.0247
  0
LINE
  8
0
 10
-33.8492
 20
81.0247
 11
-33.9541
 21
81.1073
  0
LINE
  8
0
 10
-33.9541
 20
81.1073
 11
-34.0521
 21
81.1979
  0
LINE
  8
0
 10
-34.0521
 20
81.1979
 11
-34.1427
 21
81.2959
  0
LINE
  8
0
 10
-34.1427
 20
81.2959
 11
-34.2253
 21
81.4008
  0
LINE
  8
0
 10
-34.2253
 20
81.4008
 11
-34.2995
 21
81.5117
  0
LINE
  8
0
 10
-34.2995
 20
81.5117
 11
-34.3647
 21
81.6282
  0
LINE
  8
0
 10
-34.3647
 20
81.6282
 11
-34.4206
 21
81.7494
  0
LINE
  8
0
 10
-34.4206
 20
81.7494
 11
-34.4668
 21
81.8747
  0
LINE
  8
0
 10
-34.4668
 20
81.8747
 11
-34.503
 21
82.0031
  0
LINE
  8
0
 10
-34.503
 20
82.0031
 11
-34.5291
 21
82.134
  0
LINE
  8
0
 10
-34.5291
 20
82.134
 11
-34.5448
 21
82.2666
  0
LINE
  8
0
 10
-34.5448
 20
82.2666
 11
-34.55
 21
82.4
  0
LINE
  8
0
 10
-34.55
 20
82.4
 11
-34.5448
 21
82.5334
  0
LINE
  8
0
 10
-34.5448
 20
82.5334
 11
-34.5291
 21
82.6659
  0
LINE
  8
0
 10
-34.5291
 20
82.6659
 11
-34.503
 21
82.7968
  0
LINE
  8
0
 10
-34.503
 20
82.7968
 11
-34.4668
 21
82.9253
  0
LINE
  8
0
 10
-34.4668
 20
82.9253
 11
-34.4206
 21
83.0506
  0
LINE
  8
0
 10
-34.4206
 20
83.0506
 11
-34.3647
 21
83.1718
  0
LINE
  8
0
 10
-34.3647
 20
83.1718
 11
-34.2995
 21
83.2882
  0
LINE
  8
0
 10
-34.2995
 20
83.2882
 11
-34.2253
 21
83.3992
  0
LINE
  8
0
 10
-34.2253
 20
83.3992
 11
-34.1427
 21
83.5041
  0
LINE
  8
0
 10
-34.1427
 20
83.5041
 11
-34.0521
 21
83.6021
  0
LINE
  8
0
 10
-34.0521
 20
83.6021
 11
-33.9541
 21
83.6927
  0
LINE
  8
0
 10
-33.9541
 20
83.6927
 11
-33.8492
 21
83.7753
  0
LINE
  8
0
 10
-33.8492
 20
83.7753
 11
-33.7382
 21
83.8495
  0
LINE
  8
0
 10
-33.7382
 20
83.8495
 11
-33.6218
 21
83.9147
  0
LINE
  8
0
 10
-33.6218
 20
83.9147
 11
-33.5005
 21
83.9706
  0
LINE
  8
0
 10
-33.5005
 20
83.9706
 11
-33.3753
 21
84.0168
  0
LINE
  8
0
 10
-33.3753
 20
84.0168
 11
-33.2469
 21
84.053
  0
LINE
  8
0
 10
-33.2469
 20
84.053
 11
-33.1159
 21
84.0791
  0
LINE
  8
0
 10
-33.1159
 20
84.0791
 11
-32.9834
 21
84.0948
  0
LINE
  8
0
 10
-32.9834
 20
84.0948
 11
-32.85
 21
84.1
  0
LINE
  8
0
 10
-32.85
 20
84.1
 11
-32.7166
 21
84.0948
  0
LINE
  8
0
 10
-32.7166
 20
84.0948
 11
-32.5841
 21
84.0791
  0
LINE
  8
0
 10
-32.5841
 20
84.0791
 11
-32.4531
 21
84.053
  0
LINE
  8
0
 10
-32.4531
 20
84.053
 11
-32.3247
 21
84.0168
  0
LINE
  8
0
 10
-32.3247
 20
84.0168
 11
-32.1994
 21
83.9706
  0
LINE
  8
0
 10
-32.1994
 20
83.9706
 11
-32.0782
 21
83.9147
  0
LINE
  8
0
 10
-32.0782
 20
83.9147
 11
-31.9617
 21
83.8495
  0
LINE
  8
0
 10
-31.9617
 20
83.8495
 11
-31.8508
 21
83.7753
  0
LINE
  8
0
 10
-31.8508
 20
83.7753
 11
-31.7459
 21
83.6927
  0
LINE
  8
0
 10
-31.7459
 20
83.6927
 11
-31.6479
 21
83.6021
  0
LINE
  8
0
 10
-31.6479
 20
83.6021
 11
-31.5573
 21
83.5041
  0
LINE
  8
0
 10
-31.5573
 20
83.5041
 11
-31.4747
 21
83.3992
  0
LINE
  8
0
 10
-31.4747
 20
83.3992
 11
-31.4005
 21
83.2882
  0
LINE
  8
0
 10
-31.4005
 20
83.2882
 11
-31.3353
 21
83.1718
  0
LINE
  8
0
 10
-31.3353
 20
83.1718
 11
-31.2794
 21
83.0506
  0
LINE
  8
0
 10
-31.2794
 20
83.0506
 11
-31.2332
 21
82.9253
  0
LINE
  8
0
 10
-31.2332
 20
82.9253
 11
-31.197
 21
82.7968
  0
LINE
  8
0
 10
-31.197
 20
82.7968
 11
-31.1709
 21
82.6659
  0
LINE
  8
0
 10
-31.1709
 20
82.6659
 11
-31.1552
 21
82.5334
  0
LINE
  8
0
 10
-31.1552
 20
82.5334
 11
-31.15
 21
82.4
  0
LINE
  8
0
 10
-31.15
 20
82.4
 11
-31.1552
 21
82.2666
  0
LINE
  8
0
 10
-31.1552
 20
82.2666
 11
-31.1709
 21
82.134
  0
LINE
  8
0
 10
-31.1709
 20
82.134
 11
-31.197
 21
82.0031
  0
LINE
  8
0
 10
-31.197
 20
82.0031
 11
-31.2332
 21
81.8747
  0
LINE
  8
0
 10
-31.2332
 20
81.8747
 11
-31.2794
 21
81.7494
  0
LINE
  8
0
 10
-31.2794
 20
81.7494
 11
-31.3353
 21
81.6282
  0
LINE
  8
0
 10
-31.3353
 20
81.6282
 11
-31.4005
 21
81.5117
  0
LINE
  8
0
 10
-31.4005
 20
81.5117
 11
-31.4747
 21
81.4008
  0
LINE
  8
0
 10
-31.4747
 20
81.4008
 11
-31.5573
 21
81.2959
  0
LINE
  8
0
 10
-31.5573
 20
81.2959
 11
-31.6479
 21
81.1979
  0
LINE
  8
0
 10
-31.6479
 20
81.1979
 11
-31.7459
 21
81.1073
  0
LINE
  8
0
 10
-31.7459
 20
81.1073
 11
-31.8508
 21
81.0247
  0
LINE
  8
0
 10
-31.8508
 20
81.0247
 11
-31.9617
 21
80.9505
  0
LINE
  8
0
 10
-31.9617
 20
80.9505
 11
-32.0782
 21
80.8853
  0
LINE
  8
0
 10
-32.0782
 20
80.8853
 11
-32.1994
 21
80.8294
  0
LINE
  8
0
 10
-32.1994
 20
80.8294
 11
-32.3247
 21
80.7832
  0
LINE
  8
0
 10
-32.3247
 20
80.7832
 11
-32.4531
 21
80.747
  0
LINE
  8
0
 10
-32.4531
 20
80.747
 11
-32.5841
 21
80.7209
  0
LINE
  8
0
 10
-32.5841
 20
80.7209
 11
-32.7166
 21
80.7052
  0
LINE
  8
0
 10
-32.7166
 20
80.7052
 11
-32.85
 21
80.7
  0
LINE
  8
0
 10
-32.85
 20
80.7
 11
-32.9834
 21
80.7052
  0
LINE
  8
0
 10
-61.5334
 20
80.7052
 11
-61.6659
 21
80.7209
  0
LINE
  8
0
 10
-61.6659
 20
80.7209
 11
-61.7968
 21
80.747
  0
LINE
  8
0
 10
-61.7968
 20
80.747
 11
-61.9253
 21
80.7832
  0
LINE
  8
0
 10
-61.9253
 20
80.7832
 11
-62.0506
 21
80.8294
  0
LINE
  8
0
 10
-62.0506
 20
80.8294
 11
-62.1718
 21
80.8853
  0
LINE
  8
0
 10
-62.1718
 20
80.8853
 11
-62.2882
 21
80.9505
  0
LINE
  8
0
 10
-62.2882
 20
80.9505
 11
-62.3992
 21
81.0247
  0
LINE
  8
0
 10
-62.3992
 20
81.0247
 11
-62.5041
 21
81.1073
  0
LINE
  8
0
 10
-62.5041
 20
81.1073
 11
-62.6021
 21
81.1979
  0
LINE
  8
0
 10
-62.6021
 20
81.1979
 11
-62.6927
 21
81.2959
  0
LINE
  8
0
 10
-62.6927
 20
81.2959
 11
-62.7753
 21
81.4008
  0
LINE
  8
0
 10
-62.7753
 20
81.4008
 11
-62.8495
 21
81.5117
  0
LINE
  8
0
 10
-62.8495
 20
81.5117
 11
-62.9147
 21
81.6282
  0
LINE
  8
0
 10
-62.9147
 20
81.6282
 11
-62.9706
 21
81.7494
  0
LINE
  8
0
 10
-62.9706
 20
81.7494
 11
-63.0168
 21
81.8747
  0
LINE
  8
0
 10
-63.0168
 20
81.8747
 11
-63.053
 21
82.0031
  0
LINE
  8
0
 10
-63.053
 20
82.0031
 11
-63.0791
 21
82.134
  0
LINE
  8
0
 10
-63.0791
 20
82.134
 11
-63.0948
 21
82.2666
  0
LINE
  8
0
 10
-63.0948
 20
82.2666
 11
-63.1
 21
82.4
  0
LINE
  8
0
 10
-63.1
 20
82.4
 11
-63.0948
 21
82.5334
  0
LINE
  8
0
 10
-63.0948
 20
82.5334
 11
-63.0791
 21
82.6659
  0
LINE
  8
0
 10
-63.0791
 20
82.6659
 11
-63.053
 21
82.7968
  0
LINE
  8
0
 10
-63.053
 20
82.7968
 11
-63.0168
 21
82.9253
  0
LINE
  8
0
 10
-63.0168
 20
82.9253
 11
-62.9706
 21
83.0506
  0
LINE
  8
0
 10
-62.9706
 20
83.0506
 11
-62.9147
 21
83.1718
  0
LINE
  8
0
 10
-62.9147
 20
83.1718
 11
-62.8495
 21
83.2882
  0
LINE
  8
0
 10
-62.8495
 20
83.2882
 11
-62.7753
 21
83.3992
  0
LINE
  8
0
 10
-62.7753
 20
83.3992
 11
-62.6927
 21
83.5041
  0
LINE
  8
0
 10
-62.6927
 20
83.5041
 11
-62.6021
 21
83.6021
  0
LINE
  8
0
 10
-62.6021
 20
83.6021
 11
-62.5041
 21
83.6927
  0
LINE
  8
0
 10
-62.5041
 20
83.6927
 11
-62.3992
 21
83.7753
  0
LINE
  8
0
 10
-62.3992
 20
83.7753
 11
-62.2882
 21
83.8495
  0
LINE
  8
0
 10
-62.2882
 20
83.8495
 11
-62.1718
 21
83.9147
  0
LINE
  8
0
 10
-62.1718
 20
83.9147
 11
-62.0506
 21
83.9706
  0
LINE
  8
0
 10
-62.0506
 20
83.9706
 11
-61.9253
 21
84.0168
  0
LINE
  8
0
 10
-61.9253
 20
84.0168
 11
-61.7968
 21
84.053
  0
LINE
  8
0
 10
-61.7968
 20
84.053
 11
-61.6659
 21
84.0791
  0
LINE
  8
0
 10
-61.6659
 20
84.0791
 11
-61.5334
 21
84.0948
  0
LINE
  8
0
 10
-61.5334
 20
84.0948
 11
-61.4
 21
84.1
  0
LINE
  8
0
 10
-61.4
 20
84.1
 11
-61.2666
 21
84.0948
  0
LINE
  8
0
 10
-61.2666
 20
84.0948
 11
-61.134
 21
84.0791
  0
LINE
  8
0
 10
-61.134
 20
84.0791
 11
-61.0031
 21
84.053
  0
LINE
  8
0
 10
-61.0031
 20
84.053
 11
-60.8747
 21
84.0168
  0
LINE
  8
0
 10
-60.8747
 20
84.0168
 11
-60.7494
 21
83.9706
  0
LINE
  8
0
 10
-60.7494
 20
83.9706
 11
-60.6282
 21
83.9147
  0
LINE
  8
0
 10
-60.6282
 20
83.9147
 11
-60.5117
 21
83.8495
  0
LINE
  8
0
 10
-60.5117
 20
83.8495
 11
-60.4008
 21
83.7753
  0
LINE
  8
0
 10
-60.4008
 20
83.7753
 11
-60.2959
 21
83.6927
  0
LINE
  8
0
 10
-60.2959
 20
83.6927
 11
-60.1979
 21
83.6021
  0
LINE
  8
0
 10
-60.1979
 20
83.6021
 11
-60.1073
 21
83.5041
  0
LINE
  8
0
 10
-60.1073
 20
83.5041
 11
-60.0247
 21
83.3992
  0
LINE
  8
0
 10
-60.0247
 20
83.3992
 11
-59.9505
 21
83.2882
  0
LINE
  8
0
 10
-59.9505
 20
83.2882
 11
-59.8853
 21
83.1718
  0
LINE
  8
0
 10
-59.8853
 20
83.1718
 11
-59.8294
 21
83.0506
  0
LINE
  8
0
 10
-59.8294
 20
83.0506
 11
-59.7832
 21
82.9253
  0
LINE
  8
0
 10
-59.7832
 20
82.9253
 11
-59.747
 21
82.7968
  0
LINE
  8
0
 10
-59.747
 20
82.7968
 11
-59.7209
 21
82.6659
  0
LINE
  8
0
 10
-59.7209
 20
82.6659
 11
-59.7052
 21
82.5334
  0
LINE
  8
0
 10
-59.7052
 20
82.5334
 11
-59.7
 21
82.4
  0
LINE
  8
0
 10
-59.7
 20
82.4
 11
-59.7052
 21
82.2666
  0
LINE
  8
0
 10
-59.7052
 20
82.2666
 11
-59.7209
 21
82.134
  0
LINE
  8
0
 10
-59.7209
 20
82.134
 11
-59.747
 21
82.0031
  0
LINE
  8
0
 10
-59.747
 20
82.0031
 11
-59.7832
 21
81.8747
  0
LINE
  8
0
 10
-59.7832
 20
81.8747
 11
-59.8294
 21
81.7494
  0
LINE
  8
0
 10
-59.8294
 20
81.7494
 11
-59.8853
 21
81.6282
  0
LINE
  8
0
 10
-59.8853
 20
81.6282
 11
-59.9505
 21
81.5117
  0
LINE
  8
0
 10
-59.9505
 20
81.5117
 11
-60.0247
 21
81.4008
  0
LINE
  8
0
 10
-60.0247
 20
81.4008
 11
-60.1073
 21
81.2959
  0
LINE
  8
0
 10
-60.1073
 20
81.2959
 11
-60.1979
 21
81.1979
  0
LINE
  8
0
 10
-60.1979
 20
81.1979
 11
-60.2959
 21
81.1073
  0
LINE
  8
0
 10
-60.2959
 20
81.1073
 11
-60.4008
 21
81.0247
  0
LINE
  8
0
 10
-60.4008
 20
81.0247
 11
-60.5117
 21
80.9505
  0
LINE
  8
0
 10
-60.5117
 20
80.9505
 11
-60.6282
 21
80.8853
  0
LINE
  8
0
 10
-60.6282
 20
80.8853
 11
-60.7494
 21
80.8294
  0
LINE
  8
0
 10
-60.7494
 20
80.8294
 11
-60.8747
 21
80.7832
  0
LINE
  8
0
 10
-60.8747
 20
80.7832
 11
-61.0031
 21
80.747
  0
LINE
  8
0
 10
-61.0031
 20
80.747
 11
-61.134
 21
80.7209
  0
LINE
  8
0
 10
-61.134
 20
80.7209
 11
-61.2666
 21
80.7052
  0
LINE
  8
0
 10
-61.2666
 20
80.7052
 11
-61.4
 21
80.7
  0
LINE
  8
0
 10
-61.4
 20
80.7
 11
-61.5334
 21
80.7052
  0
LINE
  8
0
 10
55.5
 20
77
 11
55.5
 21
80
  0
LINE
  8
0
 10
55.5
 20
80
 11
59.5
 21
80
  0
LINE
  8
0
 10
59.5
 20
80
 11
59.5
 21
77
  0
LINE
  8
0
 10
59.5
 20
77
 11
55.5
 21
77
  0
LINE
  8
0
 10
-55.5
 20
77
 11
-55.5
 21
80
  0
LINE
  8
0
 10
-55.5
 20
80
 11
-51.5
 21
80
  0
LINE
  8
0
 10
-51.5
 20
80
 11
-51.5
 21
77
  0
LINE
  8
0
 10
-51.5
 20
77
 11
-55.5
 21
77
  0
LINE
  8
0
 10
14.8715
 20
71.8031
 11
14.7936
 21
71.8123
  0
LINE
  8
0
 10
14.7936
 20
71.8123
 11
14.7166
 21
71.8276
  0
LINE
  8
0
 10
14.7166
 20
71.8276
 11
14.641
 21
71.849
  0
LINE
  8
0
 10
14.641
 20
71.849
 11
14.5673
 21
71.8761
  0
LINE
  8
0
 10
14.5673
 20
71.8761
 11
14.496
 21
71.909
  0
LINE
  8
0
 10
14.496
 20
71.909
 11
14.4275
 21
71.9474
  0
LINE
  8
0
 10
14.4275
 20
71.9474
 11
14.3622
 21
71.991
  0
LINE
  8
0
 10
14.3622
 20
71.991
 11
14.3005
 21
72.0396
  0
LINE
  8
0
 10
14.3005
 20
72.0396
 11
14.2429
 21
72.0929
  0
LINE
  8
0
 10
14.2429
 20
72.0929
 11
14.1896
 21
72.1506
  0
LINE
  8
0
 10
14.1896
 20
72.1506
 11
14.141
 21
72.2122
  0
LINE
  8
0
 10
14.141
 20
72.2122
 11
14.0974
 21
72.2775
  0
LINE
  8
0
 10
14.0974
 20
72.2775
 11
14.059
 21
72.346
  0
LINE
  8
0
 10
14.059
 20
72.346
 11
14.0261
 21
72.4173
  0
LINE
  8
0
 10
14.0261
 20
72.4173
 11
13.9989
 21
72.491
  0
LINE
  8
0
 10
13.9989
 20
72.491
 11
13.9776
 21
72.5666
  0
LINE
  8
0
 10
13.9776
 20
72.5666
 11
13.9623
 21
72.6436
  0
LINE
  8
0
 10
13.9623
 20
72.6436
 11
13.9531
 21
72.7215
  0
LINE
  8
0
 10
13.9531
 20
72.7215
 11
13.95
 21
72.8
  0
LINE
  8
0
 10
13.95
 20
72.8
 11
-13.95
 21
72.8
  0
LINE
  8
0
 10
-13.95
 20
72.8
 11
-13.9531
 21
72.7215
  0
LINE
  8
0
 10
-13.9531
 20
72.7215
 11
-13.9623
 21
72.6436
  0
LINE
  8
0
 10
-13.9623
 20
72.6436
 11
-13.9776
 21
72.5666
  0
LINE
  8
0
 10
-13.9776
 20
72.5666
 11
-13.9989
 21
72.491
  0
LINE
  8
0
 10
-13.9989
 20
72.491
 11
-14.0261
 21
72.4173
  0
LINE
  8
0
 10
-14.0261
 20
72.4173
 11
-14.059
 21
72.346
  0
LINE
  8
0
 10
-14.059
 20
72.346
 11
-14.0974
 21
72.2775
  0
LINE
  8
0
 10
-14.0974
 20
72.2775
 11
-14.141
 21
72.2122
  0
LINE
  8
0
 10
-14.141
 20
72.2122
 11
-14.1896
 21
72.1506
  0
LINE
  8
0
 10
-14.1896
 20
72.1506
 11
-14.2429
 21
72.0929
  0
LINE
  8
0
 10
-14.2429
 20
72.0929
 11
-14.3006
 21
72.0396
  0
LINE
  8
0
 10
-14.3006
 20
72.0396
 11
-14.3622
 21
71.991
  0
LINE
  8
0
 10
-14.3622
 20
71.991
 11
-14.4275
 21
71.9474
  0
LINE
  8
0
 10
-14.4275
 20
71.9474
 11
-14.496
 21
71.909
  0
LINE
  8
0
 10
-14.496
 20
71.909
 11
-14.5673
 21
71.8761
  0
LINE
  8
0
 10
-14.5673
 20
71.8761
 11
-14.641
 21
71.849
  0
LINE
  8
0
 10
-14.641
 20
71.849
 11
-14.7166
 21
71.8276
  0
LINE
  8
0
 10
-14.7166
 20
71.8276
 11
-14.7936
 21
71.8123
  0
LINE
  8
0
 10
-14.7936
 20
71.8123
 11
-14.8716
 21
71.8031
  0
LINE
  8
0
 10
-14.8716
 20
71.8031
 11
-14.95
 21
71.8
  0
LINE
  8
0
 10
-14.95
 20
71.8
 11
-15.0285
 21
71.8031
  0
LINE
  8
0
 10
-15.0285
 20
71.8031
 11
-15.1064
 21
71.8123
  0
LINE
  8
0
 10
-15.1064
 20
71.8123
 11
-15.1835
 21
71.8276
  0
LINE
  8
0
 10
-15.1835
 20
71.8276
 11
-15.259
 21
71.849
  0
LINE
  8
0
 10
-15.259
 20
71.849
 11
-15.3327
 21
71.8761
  0
LINE
  8
0
 10
-15.3327
 20
71.8761
 11
-15.404
 21
71.909
  0
LINE
  8
0
 10
-15.404
 20
71.909
 11
-15.4725
 21
71.9474
  0
LINE
  8
0
 10
-15.4725
 20
71.9474
 11
-15.5378
 21
71.991
  0
LINE
  8
0
 10
-15.5378
 20
71.991
 11
-15.5995
 21
72.0396
  0
LINE
  8
0
 10
-15.5995
 20
72.0396
 11
-15.6571
 21
72.0929
  0
LINE
  8
0
 10
-15.6571
 20
72.0929
 11
-15.7104
 21
72.1506
  0
LINE
  8
0
 10
-15.7104
 20
72.1506
 11
-15.759
 21
72.2122
  0
LINE
  8
0
 10
-15.759
 20
72.2122
 11
-15.8026
 21
72.2775
  0
LINE
  8
0
 10
-15.8026
 20
72.2775
 11
-15.841
 21
72.346
  0
LINE
  8
0
 10
-15.841
 20
72.346
 11
-15.8739
 21
72.4173
  0
LINE
  8
0
 10
-15.8739
 20
72.4173
 11
-15.9011
 21
72.491
  0
LINE
  8
0
 10
-15.9011
 20
72.491
 11
-15.9224
 21
72.5666
  0
LINE
  8
0
 10
-15.9224
 20
72.5666
 11
-15.9377
 21
72.6436
  0
LINE
  8
0
 10
-15.9377
 20
72.6436
 11
-15.9469
 21
72.7215
  0
LINE
  8
0
 10
-15.9469
 20
72.7215
 11
-15.95
 21
72.8
  0
LINE
  8
0
 10
-15.95
 20
72.8
 11
-15.95
 21
76
  0
LINE
  8
0
 10
-15.95
 20
76
 11
-15.9469
 21
76.0784
  0
LINE
  8
0
 10
-15.9469
 20
76.0784
 11
-15.9377
 21
76.1564
  0
LINE
  8
0
 10
-15.9377
 20
76.1564
 11
-15.9224
 21
76.2334
  0
LINE
  8
0
 10
-15.9224
 20
76.2334
 11
-15.9011
 21
76.309
  0
LINE
  8
0
 10
-15.9011
 20
76.309
 11
-15.8739
 21
76.3827
  0
LINE
  8
0
 10
-15.8739
 20
76.3827
 11
-15.841
 21
76.454
  0
LINE
  8
0
 10
-15.841
 20
76.454
 11
-15.8026
 21
76.5225
  0
LINE
  8
0
 10
-15.8026
 20
76.5225
 11
-15.759
 21
76.5878
  0
LINE
  8
0
 10
-15.759
 20
76.5878
 11
-15.7104
 21
76.6494
  0
LINE
  8
0
 10
-15.7104
 20
76.6494
 11
-15.6571
 21
76.7071
  0
LINE
  8
0
 10
-15.6571
 20
76.7071
 11
-15.5995
 21
76.7604
  0
LINE
  8
0
 10
-15.5995
 20
76.7604
 11
-15.5378
 21
76.809
  0
LINE
  8
0
 10
-15.5378
 20
76.809
 11
-15.4725
 21
76.8526
  0
LINE
  8
0
 10
-15.4725
 20
76.8526
 11
-15.404
 21
76.891
  0
LINE
  8
0
 10
-15.404
 20
76.891
 11
-15.3327
 21
76.9239
  0
LINE
  8
0
 10
-15.3327
 20
76.9239
 11
-15.259
 21
76.951
  0
LINE
  8
0
 10
-15.259
 20
76.951
 11
-15.1835
 21
76.9724
  0
LINE
  8
0
 10
-15.1835
 20
76.9724
 11
-15.1064
 21
76.9877
  0
LINE
  8
0
 10
-15.1064
 20
76.9877
 11
-15.0285
 21
76.9969
  0
LINE
  8
0
 10
-15.0285
 20
76.9969
 11
-14.95
 21
77
  0
LINE
  8
0
 10
-14.95
 20
77
 11
-14.8716
 21
76.9969
  0
LINE
  8
0
 10
-14.8716
 20
76.9969
 11
-14.7936
 21
76.9877
  0
LINE
  8
0
 10
-14.7936
 20
76.9877
 11
-14.7166
 21
76.9724
  0
LINE
  8
0
 10
-14.7166
 20
76.9724
 11
-14.641
 21
76.951
  0
LINE
  8
0
 10
-14.641
 20
76.951
 11
-14.5673
 21
76.9239
  0
LINE
  8
0
 10
-14.5673
 20
76.9239
 11
-14.496
 21
76.891
  0
LINE
  8
0
 10
-14.496
 20
76.891
 11
-14.4275
 21
76.8526
  0
LINE
  8
0
 10
-14.4275
 20
76.8526
 11
-14.3622
 21
76.809
  0
LINE
  8
0
 10
-14.3622
 20
76.809
 11
-14.3006
 21
76.7604
  0
LINE
  8
0
 10
-14.3006
 20
76.7604
 11
-14.2429
 21
76.7071
  0
LINE
  8
0
 10
-14.2429
 20
76.7071
 11
-14.1896
 21
76.6494
  0
LINE
  8
0
 10
-14.1896
 20
76.6494
 11
-14.141
 21
76.5878
  0
LINE
  8
0
 10
-14.141
 20
76.5878
 11
-14.0974
 21
76.5225
  0
LINE
  8
0
 10
-14.0974
 20
76.5225
 11
-14.059
 21
76.454
  0
LINE
  8
0
 10
-14.059
 20
76.454
 11
-14.0261
 21
76.3827
  0
LINE
  8
0
 10
-14.0261
 20
76.3827
 11
-13.9989
 21
76.309
  0
LINE
  8
0
 10
-13.9989
 20
76.309
 11
-13.9776
 21
76.2334
  0
LINE
  8
0
 10
-13.9776
 20
76.2334
 11
-13.9623
 21
76.1564
  0
LINE
  8
0
 10
-13.9623
 20
76.1564
 11
-13.9531
 21
76.0784
  0
LINE
  8
0
 10
-13.9531
 20
76.0784
 11
-13.95
 21
76
  0
LINE
  8
0
 10
-13.95
 20
76
 11
13.95
 21
76
  0
LINE
  8
0
 10
13.95
 20
76
 11
13.9531
 21
76.0784
  0
LINE
  8
0
 10
13.9531
 20
76.0784
 11
13.9623
 21
76.1564
  0
LINE
  8
0
 10
13.9623
 20
76.1564
 11
13.9776
 21
76.2334
  0
LINE
  8
0
 10
13.9776
 20
76.2334
 11
13.9989
 21
76.309
  0
LINE
  8
0
 10
13.9989
 20
76.309
 11
14.0261
 21
76.3827
  0
LINE
  8
0
 10
14.0261
 20
76.3827
 11
14.059
 21
76.454
  0
LINE
  8
0
 10
14.059
 20
76.454
 11
14.0974
 21
76.5225
  0
LINE
  8
0
 10
14.0974
 20
76.5225
 11
14.141
 21
76.5878
  0
LINE
  8
0
 10
14.141
 20
76.5878
 11
14.1896
 21
76.6494
  0
LINE
  8
0
 10
14.1896
 20
76.6494
 11
14.2429
 21
76.7071
  0
LINE
  8
0
 10
14.2429
 20
76.7071
 11
14.3005
 21
76.7604
  0
LINE
  8
0
 10
14.3005
 20
76.7604
 11
14.3622
 21
76.809
  0
LINE
  8
0
 10
14.3622
 20
76.809
 11
14.4275
 21
76.8526
  0
LINE
  8
0
 10
14.4275
 20
76.8526
 11
14.496
 21
76.891
  0
LINE
  8
0
 10
14.496
 20
76.891
 11
14.5673
 21
76.9239
  0
LINE
  8
0
 10
14.5673
 20
76.9239
 11
14.641
 21
76.951
  0
LINE
  8
0
 10
14.641
 20
76.951
 11
14.7166
 21
76.9724
  0
LINE
  8
0
 10
14.7166
 20
76.9724
 11
14.7936
 21
76.9877
  0
LINE
  8
0
 10
14.7936
 20
76.9877
 11
14.8715
 21
76.9969
  0
LINE
  8
0
 10
14.8715
 20
76.9969
 11
14.95
 21
77
  0
LINE
  8
0
 10
14.95
 20
77
 11
15.0285
 21
76.9969
  0
LINE
  8
0
 10
15.0285
 20
76.9969
 11
15.1064
 21
76.9877
  0
LINE
  8
0
 10
15.1064
 20
76.9877
 11
15.1834
 21
76.9724
  0
LINE
  8
0
 10
15.1834
 20
76.9724
 11
15.259
 21
76.951
  0
LINE
  8
0
 10
15.259
 20
76.951
 11
15.3327
 21
76.9239
  0
LINE
  8
0
 10
15.3327
 20
76.9239
 11
15.404
 21
76.891
  0
LINE
  8
0
 10
15.404
 20
76.891
 11
15.4725
 21
76.8526
  0
LINE
  8
0
 10
15.4725
 20
76.8526
 11
15.5378
 21
76.809
  0
LINE
  8
0
 10
15.5378
 20
76.809
 11
15.5994
 21
76.7604
  0
LINE
  8
0
 10
15.5994
 20
76.7604
 11
15.6571
 21
76.7071
  0
LINE
  8
0
 10
15.6571
 20
76.7071
 11
15.7104
 21
76.6494
  0
LINE
  8
0
 10
15.7104
 20
76.6494
 11
15.759
 21
76.5878
  0
LINE
  8
0
 10
15.759
 20
76.5878
 11
15.8026
 21
76.5225
  0
LINE
  8
0
 10
15.8026
 20
76.5225
 11
15.841
 21
76.454
  0
LINE
  8
0
 10
15.841
 20
76.454
 11
15.8739
 21
76.3827
  0
LINE
  8
0
 10
15.8739
 20
76.3827
 11
15.901
 21
76.309
  0
LINE
  8
0
 10
15.901
 20
76.309
 11
15.9224
 21
76.2334
  0
LINE
  8
0
 10
15.9224
 20
76.2334
 11
15.9377
 21
76.1564
  0
LINE
  8
0
 10
15.9377
 20
76.1564
 11
15.9469
 21
76.0784
  0
LINE
  8
0
 10
15.9469
 20
76.0784
 11
15.95
 21
76
  0
LINE
  8
0
 10
15.95
 20
76
 11
15.95
 21
72.8
  0
LINE
  8
0
 10
15.95
 20
72.8
 11
15.9469
 21
72.7215
  0
LINE
  8
0
 10
15.9469
 20
72.7215
 11
15.9377
 21
72.6436
  0
LINE
  8
0
 10
15.9377
 20
72.6436
 11
15.9224
 21
72.5666
  0
LINE
  8
0
 10
15.9224
 20
72.5666
 11
15.901
 21
72.491
  0
LINE
  8
0
 10
15.901
 20
72.491
 11
15.8739
 21
72.4173
  0
LINE
  8
0
 10
15.8739
 20
72.4173
 11
15.841
 21
72.346
  0
LINE
  8
0
 10
15.841
 20
72.346
 11
15.8026
 21
72.2775
  0
LINE
  8
0
 10
15.8026
 20
72.2775
 11
15.759
 21
72.2122
  0
LINE
  8
0
 10
15.759
 20
72.2122
 11
15.7104
 21
72.1506
  0
LINE
  8
0
 10
15.7104
 20
72.1506
 11
15.6571
 21
72.0929
  0
LINE
  8
0
 10
15.6571
 20
72.0929
 11
15.5994
 21
72.0396
  0
LINE
  8
0
 10
15.5994
 20
72.0396
 11
15.5378
 21
71.991
  0
LINE
  8
0
 10
15.5378
 20
71.991
 11
15.4725
 21
71.9474
  0
LINE
  8
0
 10
15.4725
 20
71.9474
 11
15.404
 21
71.909
  0
LINE
  8
0
 10
15.404
 20
71.909
 11
15.3327
 21
71.8761
  0
LINE
  8
0
 10
15.3327
 20
71.8761
 11
15.259
 21
71.849
  0
LINE
  8
0
 10
15.259
 20
71.849
 11
15.1834
 21
71.8276
  0
LINE
  8
0
 10
15.1834
 20
71.8276
 11
15.1064
 21
71.8123
  0
LINE
  8
0
 10
15.1064
 20
71.8123
 11
15.0285
 21
71.8031
  0
LINE
  8
0
 10
15.0285
 20
71.8031
 11
14.95
 21
71.8
  0
LINE
  8
0
 10
14.95
 20
71.8
 11
14.8715
 21
71.8031
  0
LINE
  8
0
 10
24.4545
 20
73.3154
 11
24.2637
 21
73.3612
  0
LINE
  8
0
 10
24.2637
 20
73.3612
 11
24.0825
 21
73.4362
  0
LINE
  8
0
 10
24.0825
 20
73.4362
 11
23.9153
 21
73.5387
  0
LINE
  8
0
 10
23.9153
 20
73.5387
 11
23.7661
 21
73.6661
  0
LINE
  8
0
 10
23.7661
 20
73.6661
 11
23.6387
 21
73.8153
  0
LINE
  8
0
 10
23.6387
 20
73.8153
 11
23.5362
 21
73.9825
  0
LINE
  8
0
 10
23.5362
 20
73.9825
 11
23.4612
 21
74.1637
  0
LINE
  8
0
 10
23.4612
 20
74.1637
 11
23.4154
 21
74.3544
  0
LINE
  8
0
 10
23.4154
 20
74.3544
 11
23.4
 21
74.55
  0
LINE
  8
0
 10
23.4
 20
74.55
 11
23.4154
 21
74.7455
  0
LINE
  8
0
 10
23.4154
 20
74.7455
 11
23.4612
 21
74.9363
  0
LINE
  8
0
 10
23.4612
 20
74.9363
 11
23.5362
 21
75.1175
  0
LINE
  8
0
 10
23.5362
 20
75.1175
 11
23.6387
 21
75.2847
  0
LINE
  8
0
 10
23.6387
 20
75.2847
 11
23.7661
 21
75.4339
  0
LINE
  8
0
 10
23.7661
 20
75.4339
 11
23.9153
 21
75.5613
  0
LINE
  8
0
 10
23.9153
 20
75.5613
 11
24.0825
 21
75.6638
  0
LINE
  8
0
 10
24.0825
 20
75.6638
 11
24.2637
 21
75.7388
  0
LINE
  8
0
 10
24.2637
 20
75.7388
 11
24.4545
 21
75.7846
  0
LINE
  8
0
 10
24.4545
 20
75.7846
 11
24.65
 21
75.8
  0
LINE
  8
0
 10
24.65
 20
75.8
 11
24.8455
 21
75.7846
  0
LINE
  8
0
 10
24.8455
 20
75.7846
 11
25.0363
 21
75.7388
  0
LINE
  8
0
 10
25.0363
 20
75.7388
 11
25.2175
 21
75.6638
  0
LINE
  8
0
 10
25.2175
 20
75.6638
 11
25.3847
 21
75.5613
  0
LINE
  8
0
 10
25.3847
 20
75.5613
 11
25.5339
 21
75.4339
  0
LINE
  8
0
 10
25.5339
 20
75.4339
 11
25.6613
 21
75.2847
  0
LINE
  8
0
 10
25.6613
 20
75.2847
 11
25.7637
 21
75.1175
  0
LINE
  8
0
 10
25.7637
 20
75.1175
 11
25.8388
 21
74.9363
  0
LINE
  8
0
 10
25.8388
 20
74.9363
 11
25.8846
 21
74.7455
  0
LINE
  8
0
 10
25.8846
 20
74.7455
 11
25.9
 21
74.55
  0
LINE
  8
0
 10
25.9
 20
74.55
 11
25.8846
 21
74.3544
  0
LINE
  8
0
 10
25.8846
 20
74.3544
 11
25.8388
 21
74.1637
  0
LINE
  8
0
 10
25.8388
 20
74.1637
 11
25.7637
 21
73.9825
  0
LINE
  8
0
 10
25.7637
 20
73.9825
 11
25.6613
 21
73.8153
  0
LINE
  8
0
 10
25.6613
 20
73.8153
 11
25.5339
 21
73.6661
  0
LINE
  8
0
 10
25.5339
 20
73.6661
 11
25.3847
 21
73.5387
  0
LINE
  8
0
 10
25.3847
 20
73.5387
 11
25.2175
 21
73.4362
  0
LINE
  8
0
 10
25.2175
 20
73.4362
 11
25.0363
 21
73.3612
  0
LINE
  8
0
 10
25.0363
 20
73.3612
 11
24.8455
 21
73.3154
  0
LINE
  8
0
 10
24.8455
 20
73.3154
 11
24.65
 21
73.3
  0
LINE
  8
0
 10
24.65
 20
73.3
 11
24.4545
 21
73.3154
  0
LINE
  8
0
 10
-24.8455
 20
73.3154
 11
-25.0363
 21
73.3612
  0
LINE
  8
0
 10
-25.0363
 20
73.3612
 11
-25.2175
 21
73.4362
  0
LINE
  8
0
 10
-25.2175
 20
73.4362
 11
-25.3847
 21
73.5387
  0
LINE
  8
0
 10
-25.3847
 20
73.5387
 11
-25.5339
 21
73.6661
  0
LINE
  8
0
 10
-25.5339
 20
73.6661
 11
-25.6613
 21
73.8153
  0
LINE
  8
0
 10
-25.6613
 20
73.8153
 11
-25.7637
 21
73.9825
  0
LINE
  8
0
 10
-25.7637
 20
73.9825
 11
-25.8388
 21
74.1637
  0
LINE
  8
0
 10
-25.8388
 20
74.1637
 11
-25.8846
 21
74.3544
  0
LINE
  8
0
 10
-25.8846
 20
74.3544
 11
-25.9
 21
74.55
  0
LINE
  8
0
 10
-25.9
 20
74.55
 11
-25.8846
 21
74.7455
  0
LINE
  8
0
 10
-25.8846
 20
74.7455
 11
-25.8388
 21
74.9363
  0
LINE
  8
0
 10
-25.8388
 20
74.9363
 11
-25.7637
 21
75.1175
  0
LINE
  8
0
 10
-25.7637
 20
75.1175
 11
-25.6613
 21
75.2847
  0
LINE
  8
0
 10
-25.6613
 20
75.2847
 11
-25.5339
 21
75.4339
  0
LINE
  8
0
 10
-25.5339
 20
75.4339
 11
-25.3847
 21
75.5613
  0
LINE
  8
0
 10
-25.3847
 20
75.5613
 11
-25.2175
 21
75.6638
  0
LINE
  8
0
 10
-25.2175
 20
75.6638
 11
-25.0363
 21
75.7388
  0
LINE
  8
0
 10
-25.0363
 20
75.7388
 11
-24.8455
 21
75.7846
  0
LINE
  8
0
 10
-24.8455
 20
75.7846
 11
-24.65
 21
75.8
  0
LINE
  8
0
 10
-24.65
 20
75.8
 11
-24.4545
 21
75.7846
  0
LINE
  8
0
 10
-24.4545
 20
75.7846
 11
-24.2637
 21
75.7388
  0
LINE
  8
0
 10
-24.2637
 20
75.7388
 11
-24.0825
 21
75.6638
  0
LINE
  8
0
 10
-24.0825
 20
75.6638
 11
-23.9153
 21
75.5613
  0
LINE
  8
0
 10
-23.9153
 20
75.5613
 11
-23.7661
 21
75.4339
  0
LINE
  8
0
 10
-23.7661
 20
75.4339
 11
-23.6387
 21
75.2847
  0
LINE
  8
0
 10
-23.6387
 20
75.2847
 11
-23.5362
 21
75.1175
  0
LINE
  8
0
 10
-23.5362
 20
75.1175
 11
-23.4612
 21
74.9363
  0
LINE
  8
0
 10
-23.4612
 20
74.9363
 11
-23.4154
 21
74.7455
  0
LINE
  8
0
 10
-23.4154
 20
74.7455
 11
-23.4
 21
74.55
  0
LINE
  8
0
 10
-23.4
 20
74.55
 11
-23.4154
 21
74.3544
  0
LINE
  8
0
 10
-23.4154
 20
74.3544
 11
-23.4612
 21
74.1637
  0
LINE
  8
0
 10
-23.4612
 20
74.1637
 11
-23.5362
 21
73.9825
  0
LINE
  8
0
 10
-23.5362
 20
73.9825
 11
-23.6387
 21
73.8153
  0
LINE
  8
0
 10
-23.6387
 20
73.8153
 11
-23.7661
 21
73.6661
  0
LINE
  8
0
 10
-23.7661
 20
73.6661
 11
-23.9153
 21
73.5387
  0
LINE
  8
0
 10
-23.9153
 20
73.5387
 11
-24.0825
 21
73.4362
  0
LINE
  8
0
 10
-24.0825
 20
73.4362
 11
-24.2637
 21
73.3612
  0
LINE
  8
0
 10
-24.2637
 20
73.3612
 11
-24.4545
 21
73.3154
  0
LINE
  8
0
 10
-24.4545
 20
73.3154
 11
-24.65
 21
73.3
  0
LINE
  8
0
 10
-24.65
 20
73.3
 11
-24.8455
 21
73.3154
  0
LINE
  8
0
 10
38.9545
 20
69.3154
 11
38.7637
 21
69.3612
  0
LINE
  8
0
 10
38.7637
 20
69.3612
 11
38.5825
 21
69.4362
  0
LINE
  8
0
 10
38.5825
 20
69.4362
 11
38.4153
 21
69.5387
  0
LINE
  8
0
 10
38.4153
 20
69.5387
 11
38.2661
 21
69.6661
  0
LINE
  8
0
 10
38.2661
 20
69.6661
 11
38.1387
 21
69.8153
  0
LINE
  8
0
 10
38.1387
 20
69.8153
 11
38.0362
 21
69.9825
  0
LINE
  8
0
 10
38.0362
 20
69.9825
 11
37.9612
 21
70.1637
  0
LINE
  8
0
 10
37.9612
 20
70.1637
 11
37.9154
 21
70.3544
  0
LINE
  8
0
 10
37.9154
 20
70.3544
 11
37.9
 21
70.55
  0
LINE
  8
0
 10
37.9
 20
70.55
 11
37.9111
 21
70.6919
  0
LINE
  8
0
 10
37.9111
 20
70.6919
 11
37.7929
 21
70.7929
  0
LINE
  8
0
 10
37.7929
 20
70.7929
 11
37.691
 21
70.9122
  0
LINE
  8
0
 10
37.691
 20
70.9122
 11
37.609
 21
71.046
  0
LINE
  8
0
 10
37.609
 20
71.046
 11
37.5489
 21
71.191
  0
LINE
  8
0
 10
37.5489
 20
71.191
 11
37.5123
 21
71.3436
  0
LINE
  8
0
 10
37.5123
 20
71.3436
 11
37.5
 21
71.5
  0
LINE
  8
0
 10
37.5
 20
71.5
 11
37.5123
 21
71.6564
  0
LINE
  8
0
 10
37.5123
 20
71.6564
 11
37.5489
 21
71.809
  0
LINE
  8
0
 10
37.5489
 20
71.809
 11
37.609
 21
71.954
  0
LINE
  8
0
 10
37.609
 20
71.954
 11
37.691
 21
72.0878
  0
LINE
  8
0
 10
37.691
 20
72.0878
 11
37.7929
 21
72.2071
  0
LINE
  8
0
 10
37.7929
 20
72.2071
 11
37.9122
 21
72.309
  0
LINE
  8
0
 10
37.9122
 20
72.309
 11
38.046
 21
72.391
  0
LINE
  8
0
 10
38.046
 20
72.391
 11
38.191
 21
72.451
  0
LINE
  8
0
 10
38.191
 20
72.451
 11
38.3436
 21
72.4877
  0
LINE
  8
0
 10
38.3436
 20
72.4877
 11
38.5
 21
72.5
  0
LINE
  8
0
 10
38.5
 20
72.5
 11
38.6564
 21
72.4877
  0
LINE
  8
0
 10
38.6564
 20
72.4877
 11
38.809
 21
72.451
  0
LINE
  8
0
 10
38.809
 20
72.451
 11
38.954
 21
72.391
  0
LINE
  8
0
 10
38.954
 20
72.391
 11
39.0878
 21
72.309
  0
LINE
  8
0
 10
39.0878
 20
72.309
 11
39.2071
 21
72.2071
  0
LINE
  8
0
 10
39.2071
 20
72.2071
 11
39.309
 21
72.0878
  0
LINE
  8
0
 10
39.309
 20
72.0878
 11
39.391
 21
71.954
  0
LINE
  8
0
 10
39.391
 20
71.954
 11
39.451
 21
71.809
  0
LINE
  8
0
 10
39.451
 20
71.809
 11
39.4637
 21
71.7562
  0
LINE
  8
0
 10
39.4637
 20
71.7562
 11
39.5363
 21
71.7388
  0
LINE
  8
0
 10
39.5363
 20
71.7388
 11
39.7175
 21
71.6638
  0
LINE
  8
0
 10
39.7175
 20
71.6638
 11
39.8847
 21
71.5613
  0
LINE
  8
0
 10
39.8847
 20
71.5613
 11
40.0339
 21
71.4339
  0
LINE
  8
0
 10
40.0339
 20
71.4339
 11
40.1613
 21
71.2847
  0
LINE
  8
0
 10
40.1613
 20
71.2847
 11
40.2637
 21
71.1175
  0
LINE
  8
0
 10
40.2637
 20
71.1175
 11
40.3388
 21
70.9363
  0
LINE
  8
0
 10
40.3388
 20
70.9363
 11
40.3846
 21
70.7455
  0
LINE
  8
0
 10
40.3846
 20
70.7455
 11
40.4
 21
70.55
  0
LINE
  8
0
 10
40.4
 20
70.55
 11
40.3846
 21
70.3544
  0
LINE
  8
0
 10
40.3846
 20
70.3544
 11
40.3388
 21
70.1637
  0
LINE
  8
0
 10
40.3388
 20
70.1637
 11
40.2637
 21
69.9825
  0
LINE
  8
0
 10
40.2637
 20
69.9825
 11
40.1613
 21
69.8153
  0
LINE
  8
0
 10
40.1613
 20
69.8153
 11
40.0339
 21
69.6661
  0
LINE
  8
0
 10
40.0339
 20
69.6661
 11
39.8847
 21
69.5387
  0
LINE
  8
0
 10
39.8847
 20
69.5387
 11
39.7175
 21
69.4362
  0
LINE
  8
0
 10
39.7175
 20
69.4362
 11
39.5363
 21
69.3612
  0
LINE
  8
0
 10
39.5363
 20
69.3612
 11
39.3455
 21
69.3154
  0
LINE
  8
0
 10
39.3455
 20
69.3154
 11
39.15
 21
69.3
  0
LINE
  8
0
 10
39.15
 20
69.3
 11
38.9545
 21
69.3154
  0
LINE
  8
0
 10
-10.3455
 20
69.3154
 11
-10.5363
 21
69.3612
  0
LINE
  8
0
 10
-10.5363
 20
69.3612
 11
-10.7175
 21
69.4362
  0
LINE
  8
0
 10
-10.7175
 20
69.4362
 11
-10.8847
 21
69.5387
  0
LINE
  8
0
 10
-10.8847
 20
69.5387
 11
-11.0339
 21
69.6661
  0
LINE
  8
0
 10
-11.0339
 20
69.6661
 11
-11.1613
 21
69.8153
  0
LINE
  8
0
 10
-11.1613
 20
69.8153
 11
-11.2637
 21
69.9825
  0
LINE
  8
0
 10
-11.2637
 20
69.9825
 11
-11.3388
 21
70.1637
  0
LINE
  8
0
 10
-11.3388
 20
70.1637
 11
-11.3846
 21
70.3544
  0
LINE
  8
0
 10
-11.3846
 20
70.3544
 11
-11.4
 21
70.55
  0
LINE
  8
0
 10
-11.4
 20
70.55
 11
-11.3846
 21
70.7455
  0
LINE
  8
0
 10
-11.3846
 20
70.7455
 11
-11.3388
 21
70.9363
  0
LINE
  8
0
 10
-11.3388
 20
70.9363
 11
-11.2637
 21
71.1175
  0
LINE
  8
0
 10
-11.2637
 20
71.1175
 11
-11.1613
 21
71.2847
  0
LINE
  8
0
 10
-11.1613
 20
71.2847
 11
-11.0339
 21
71.4339
  0
LINE
  8
0
 10
-11.0339
 20
71.4339
 11
-10.8847
 21
71.5613
  0
LINE
  8
0
 10
-10.8847
 20
71.5613
 11
-10.7175
 21
71.6638
  0
LINE
  8
0
 10
-10.7175
 20
71.6638
 11
-10.5363
 21
71.7388
  0
LINE
  8
0
 10
-10.5363
 20
71.7388
 11
-10.3455
 21
71.7846
  0
LINE
  8
0
 10
-10.3455
 20
71.7846
 11
-10.15
 21
71.8
  0
LINE
  8
0
 10
-10.15
 20
71.8
 11
-9.95445
 21
71.7846
  0
LINE
  8
0
 10
-9.95445
 20
71.7846
 11
-9.76372
 21
71.7388
  0
LINE
  8
0
 10
-9.76372
 20
71.7388
 11
-9.5825
 21
71.6638
  0
LINE
  8
0
 10
-9.5825
 20
71.6638
 11
-9.41527
 21
71.5613
  0
LINE
  8
0
 10
-9.41527
 20
71.5613
 11
-9.26611
 21
71.4339
  0
LINE
  8
0
 10
-9.26611
 20
71.4339
 11
-9.13872
 21
71.2847
  0
LINE
  8
0
 10
-9.13872
 20
71.2847
 11
-9.03624
 21
71.1175
  0
LINE
  8
0
 10
-9.03624
 20
71.1175
 11
-8.96117
 21
70.9363
  0
LINE
  8
0
 10
-8.96117
 20
70.9363
 11
-8.91537
 21
70.7455
  0
LINE
  8
0
 10
-8.91537
 20
70.7455
 11
-8.89999
 21
70.55
  0
LINE
  8
0
 10
-8.89999
 20
70.55
 11
-8.91537
 21
70.3544
  0
LINE
  8
0
 10
-8.91537
 20
70.3544
 11
-8.96117
 21
70.1637
  0
LINE
  8
0
 10
-8.96117
 20
70.1637
 11
-9.03624
 21
69.9825
  0
LINE
  8
0
 10
-9.03624
 20
69.9825
 11
-9.13872
 21
69.8153
  0
LINE
  8
0
 10
-9.13872
 20
69.8153
 11
-9.26611
 21
69.6661
  0
LINE
  8
0
 10
-9.26611
 20
69.6661
 11
-9.41527
 21
69.5387
  0
LINE
  8
0
 10
-9.41527
 20
69.5387
 11
-9.5825
 21
69.4362
  0
LINE
  8
0
 10
-9.5825
 20
69.4362
 11
-9.76372
 21
69.3612
  0
LINE
  8
0
 10
-9.76372
 20
69.3612
 11
-9.95445
 21
69.3154
  0
LINE
  8
0
 10
-9.95445
 20
69.3154
 11
-10.15
 21
69.3
  0
LINE
  8
0
 10
-10.15
 20
69.3
 11
-10.3455
 21
69.3154
  0
LINE
  8
0
 10
-39.3455
 20
69.3154
 11
-39.5363
 21
69.3612
  0
LINE
  8
0
 10
-39.5363
 20
69.3612
 11
-39.7175
 21
69.4362
  0
LINE
  8
0
 10
-39.7175
 20
69.4362
 11
-39.8847
 21
69.5387
  0
LINE
  8
0
 10
-39.8847
 20
69.5387
 11
-40.0339
 21
69.6661
  0
LINE
  8
0
 10
-40.0339
 20
69.6661
 11
-40.1613
 21
69.8153
  0
LINE
  8
0
 10
-40.1613
 20
69.8153
 11
-40.2637
 21
69.9825
  0
LINE
  8
0
 10
-40.2637
 20
69.9825
 11
-40.3388
 21
70.1637
  0
LINE
  8
0
 10
-40.3388
 20
70.1637
 11
-40.3846
 21
70.3544
  0
LINE
  8
0
 10
-40.3846
 20
70.3544
 11
-40.4
 21
70.55
  0
LINE
  8
0
 10
-40.4
 20
70.55
 11
-40.3846
 21
70.7455
  0
LINE
  8
0
 10
-40.3846
 20
70.7455
 11
-40.3388
 21
70.9363
  0
LINE
  8
0
 10
-40.3388
 20
70.9363
 11
-40.2637
 21
71.1175
  0
LINE
  8
0
 10
-40.2637
 20
71.1175
 11
-40.1613
 21
71.2847
  0
LINE
  8
0
 10
-40.1613
 20
71.2847
 11
-40.0339
 21
71.4339
  0
LINE
  8
0
 10
-40.0339
 20
71.4339
 11
-39.8847
 21
71.5613
  0
LINE
  8
0
 10
-39.8847
 20
71.5613
 11
-39.7175
 21
71.6638
  0
LINE
  8
0
 10
-39.7175
 20
71.6638
 11
-39.5363
 21
71.7388
  0
LINE
  8
0
 10
-39.5363
 20
71.7388
 11
-39.3455
 21
71.7846
  0
LINE
  8
0
 10
-39.3455
 20
71.7846
 11
-39.15
 21
71.8
  0
LINE
  8
0
 10
-39.15
 20
71.8
 11
-38.9545
 21
71.7846
  0
LINE
  8
0
 10
-38.9545
 20
71.7846
 11
-38.7637
 21
71.7388
  0
LINE
  8
0
 10
-38.7637
 20
71.7388
 11
-38.5825
 21
71.6638
  0
LINE
  8
0
 10
-38.5825
 20
71.6638
 11
-38.4153
 21
71.5613
  0
LINE
  8
0
 10
-38.4153
 20
71.5613
 11
-38.2661
 21
71.4339
  0
LINE
  8
0
 10
-38.2661
 20
71.4339
 11
-38.1387
 21
71.2847
  0
LINE
  8
0
 10
-38.1387
 20
71.2847
 11
-38.0362
 21
71.1175
  0
LINE
  8
0
 10
-38.0362
 20
71.1175
 11
-37.9612
 21
70.9363
  0
LINE
  8
0
 10
-37.9612
 20
70.9363
 11
-37.9154
 21
70.7455
  0
LINE
  8
0
 10
-37.9154
 20
70.7455
 11
-37.9
 21
70.55
  0
LINE
  8
0
 10
-37.9
 20
70.55
 11
-37.9154
 21
70.3544
  0
LINE
  8
0
 10
-37.9154
 20
70.3544
 11
-37.9612
 21
70.1637
  0
LINE
  8
0
 10
-37.9612
 20
70.1637
 11
-38.0362
 21
69.9825
  0
LINE
  8
0
 10
-38.0362
 20
69.9825
 11
-38.1387
 21
69.8153
  0
LINE
  8
0
 10
-38.1387
 20
69.8153
 11
-38.2661
 21
69.6661
  0
LINE
  8
0
 10
-38.2661
 20
69.6661
 11
-38.4153
 21
69.5387
  0
LINE
  8
0
 10
-38.4153
 20
69.5387
 11
-38.5825
 21
69.4362
  0
LINE
  8
0
 10
-38.5825
 20
69.4362
 11
-38.7637
 21
69.3612
  0
LINE
  8
0
 10
-38.7637
 20
69.3612
 11
-38.9545
 21
69.3154
  0
LINE
  8
0
 10
-38.9545
 20
69.3154
 11
-39.15
 21
69.3
  0
LINE
  8
0
 10
-39.15
 20
69.3
 11
-39.3455
 21
69.3154
  0
LINE
  8
0
 10
9.95445
 20
69.3154
 11
9.76372
 21
69.3612
  0
LINE
  8
0
 10
9.76372
 20
69.3612
 11
9.5825
 21
69.4362
  0
LINE
  8
0
 10
9.5825
 20
69.4362
 11
9.41527
 21
69.5387
  0
LINE
  8
0
 10
9.41527
 20
69.5387
 11
9.26611
 21
69.6661
  0
LINE
  8
0
 10
9.26611
 20
69.6661
 11
9.13872
 21
69.8153
  0
LINE
  8
0
 10
9.13872
 20
69.8153
 11
9.03624
 21
69.9825
  0
LINE
  8
0
 10
9.03624
 20
69.9825
 11
8.96117
 21
70.1637
  0
LINE
  8
0
 10
8.96117
 20
70.1637
 11
8.91537
 21
70.3544
  0
LINE
  8
0
 10
8.91537
 20
70.3544
 11
8.89999
 21
70.55
  0
LINE
  8
0
 10
8.89999
 20
70.55
 11
8.91537
 21
70.7455
  0
LINE
  8
0
 10
8.91537
 20
70.7455
 11
8.96117
 21
70.9363
  0
LINE
  8
0
 10
8.96117
 20
70.9363
 11
9.03624
 21
71.1175
  0
LINE
  8
0
 10
9.03624
 20
71.1175
 11
9.13872
 21
71.2847
  0
LINE
  8
0
 10
9.13872
 20
71.2847
 11
9.26611
 21
71.4339
  0
LINE
  8
0
 10
9.26611
 20
71.4339
 11
9.41527
 21
71.5613
  0
LINE
  8
0
 10
9.41527
 20
71.5613
 11
9.5825
 21
71.6638
  0
LINE
  8
0
 10
9.5825
 20
71.6638
 11
9.76372
 21
71.7388
  0
LINE
  8
0
 10
9.76372
 20
71.7388
 11
9.95445
 21
71.7846
  0
LINE
  8
0
 10
9.95445
 20
71.7846
 11
10.15
 21
71.8
  0
LINE
  8
0
 10
10.15
 20
71.8
 11
10.3455
 21
71.7846
  0
LINE
  8
0
 10
10.3455
 20
71.7846
 11
10.5363
 21
71.7388
  0
LINE
  8
0
 10
10.5363
 20
71.7388
 11
10.7175
 21
71.6638
  0
LINE
  8
0
 10
10.7175
 20
71.6638
 11
10.8847
 21
71.5613
  0
LINE
  8
0
 10
10.8847
 20
71.5613
 11
11.0339
 21
71.4339
  0
LINE
  8
0
 10
11.0339
 20
71.4339
 11
11.1613
 21
71.2847
  0
LINE
  8
0
 10
11.1613
 20
71.2847
 11
11.2637
 21
71.1175
  0
LINE
  8
0
 10
11.2637
 20
71.1175
 11
11.3388
 21
70.9363
  0
LINE
  8
0
 10
11.3388
 20
70.9363
 11
11.3846
 21
70.7455
  0
LINE
  8
0
 10
11.3846
 20
70.7455
 11
11.4
 21
70.55
  0
LINE
  8
0
 10
11.4
 20
70.55
 11
11.3846
 21
70.3544
  0
LINE
  8
0
 10
11.3846
 20
70.3544
 11
11.3388
 21
70.1637
  0
LINE
  8
0
 10
11.3388
 20
70.1637
 11
11.2637
 21
69.9825
  0
LINE
  8
0
 10
11.2637
 20
69.9825
 11
11.1613
 21
69.8153
  0
LINE
  8
0
 10
11.1613
 20
69.8153
 11
11.0339
 21
69.6661
  0
LINE
  8
0
 10
11.0339
 20
69.6661
 11
10.8847
 21
69.5387
  0
LINE
  8
0
 10
10.8847
 20
69.5387
 11
10.7175
 21
69.4362
  0
LINE
  8
0
 10
10.7175
 20
69.4362
 11
10.5363
 21
69.3612
  0
LINE
  8
0
 10
10.5363
 20
69.3612
 11
10.3455
 21
69.3154
  0
LINE
  8
0
 10
10.3455
 20
69.3154
 11
10.15
 21
69.3
  0
LINE
  8
0
 10
10.15
 20
69.3
 11
9.95445
 21
69.3154
  0
LINE
  8
0
 10
-22.0659
 20
63.5959
 11
-22.3253
 21
63.6582
  0
LINE
  8
0
 10
-22.3253
 20
63.6582
 11
-22.5718
 21
63.7603
  0
LINE
  8
0
 10
-22.5718
 20
63.7603
 11
-22.7992
 21
63.8997
  0
LINE
  8
0
 10
-22.7992
 20
63.8997
 11
-23.0021
 21
64.0729
  0
LINE
  8
0
 10
-23.0021
 20
64.0729
 11
-23.1753
 21
64.2758
  0
LINE
  8
0
 10
-23.1753
 20
64.2758
 11
-23.3147
 21
64.5032
  0
LINE
  8
0
 10
-23.3147
 20
64.5032
 11
-23.4168
 21
64.7497
  0
LINE
  8
0
 10
-23.4168
 20
64.7497
 11
-23.4791
 21
65.009
  0
LINE
  8
0
 10
-23.4791
 20
65.009
 11
-23.5
 21
65.275
  0
LINE
  8
0
 10
-23.5
 20
65.275
 11
-23.4791
 21
65.5409
  0
LINE
  8
0
 10
-23.4791
 20
65.5409
 11
-23.4168
 21
65.8003
  0
LINE
  8
0
 10
-23.4168
 20
65.8003
 11
-23.3147
 21
66.0468
  0
LINE
  8
0
 10
-23.3147
 20
66.0468
 11
-23.1753
 21
66.2742
  0
LINE
  8
0
 10
-23.1753
 20
66.2742
 11
-23.0021
 21
66.4771
  0
LINE
  8
0
 10
-23.0021
 20
66.4771
 11
-22.7992
 21
66.6503
  0
LINE
  8
0
 10
-22.7992
 20
66.6503
 11
-22.5718
 21
66.7897
  0
LINE
  8
0
 10
-22.5718
 20
66.7897
 11
-22.3253
 21
66.8918
  0
LINE
  8
0
 10
-22.3253
 20
66.8918
 11
-22.0659
 21
66.9541
  0
LINE
  8
0
 10
-22.0659
 20
66.9541
 11
-21.8
 21
66.975
  0
LINE
  8
0
 10
-21.8
 20
66.975
 11
-21.5341
 21
66.9541
  0
LINE
  8
0
 10
-21.5341
 20
66.9541
 11
-21.2747
 21
66.8918
  0
LINE
  8
0
 10
-21.2747
 20
66.8918
 11
-21.0282
 21
66.7897
  0
LINE
  8
0
 10
-21.0282
 20
66.7897
 11
-20.8008
 21
66.6503
  0
LINE
  8
0
 10
-20.8008
 20
66.6503
 11
-20.5979
 21
66.4771
  0
LINE
  8
0
 10
-20.5979
 20
66.4771
 11
-20.4247
 21
66.2742
  0
LINE
  8
0
 10
-20.4247
 20
66.2742
 11
-20.2853
 21
66.0468
  0
LINE
  8
0
 10
-20.2853
 20
66.0468
 11
-20.1832
 21
65.8003
  0
LINE
  8
0
 10
-20.1832
 20
65.8003
 11
-20.1209
 21
65.5409
  0
LINE
  8
0
 10
-20.1209
 20
65.5409
 11
-20.1
 21
65.275
  0
LINE
  8
0
 10
-20.1
 20
65.275
 11
-20.1209
 21
65.009
  0
LINE
  8
0
 10
-20.1209
 20
65.009
 11
-20.1832
 21
64.7497
  0
LINE
  8
0
 10
-20.1832
 20
64.7497
 11
-20.2853
 21
64.5032
  0
LINE
  8
0
 10
-20.2853
 20
64.5032
 11
-20.4247
 21
64.2758
  0
LINE
  8
0
 10
-20.4247
 20
64.2758
 11
-20.5979
 21
64.0729
  0
LINE
  8
0
 10
-20.5979
 20
64.0729
 11
-20.8008
 21
63.8997
  0
LINE
  8
0
 10
-20.8008
 20
63.8997
 11
-21.0282
 21
63.7603
  0
LINE
  8
0
 10
-21.0282
 20
63.7603
 11
-21.2747
 21
63.6582
  0
LINE
  8
0
 10
-21.2747
 20
63.6582
 11
-21.5341
 21
63.5959
  0
LINE
  8
0
 10
-21.5341
 20
63.5959
 11
-21.8
 21
63.575
  0
LINE
  8
0
 10
-21.8
 20
63.575
 11
-22.0659
 21
63.5959
  0
LINE
  8
0
 10
21.5341
 20
63.5959
 11
21.2747
 21
63.6582
  0
LINE
  8
0
 10
21.2747
 20
63.6582
 11
21.0282
 21
63.7603
  0
LINE
  8
0
 10
21.0282
 20
63.7603
 11
20.8008
 21
63.8997
  0
LINE
  8
0
 10
20.8008
 20
63.8997
 11
20.5979
 21
64.0729
  0
LINE
  8
0
 10
20.5979
 20
64.0729
 11
20.4247
 21
64.2758
  0
LINE
  8
0
 10
20.4247
 20
64.2758
 11
20.2853
 21
64.5032
  0
LINE
  8
0
 10
20.2853
 20
64.5032
 11
20.1832
 21
64.7497
  0
LINE
  8
0
 10
20.1832
 20
64.7497
 11
20.1209
 21
65.009
  0
LINE
  8
0
 10
20.1209
 20
65.009
 11
20.1
 21
65.275
  0
LINE
  8
0
 10
20.1
 20
65.275
 11
20.1209
 21
65.5409
  0
LINE
  8
0
 10
20.1209
 20
65.5409
 11
20.1832
 21
65.8003
  0
LINE
  8
0
 10
20.1832
 20
65.8003
 11
20.2853
 21
66.0468
  0
LINE
  8
0
 10
20.2853
 20
66.0468
 11
20.4247
 21
66.2742
  0
LINE
  8
0
 10
20.4247
 20
66.2742
 11
20.5979
 21
66.4771
  0
LINE
  8
0
 10
20.5979
 20
66.4771
 11
20.8008
 21
66.6503
  0
LINE
  8
0
 10
20.8008
 20
66.6503
 11
21.0282
 21
66.7897
  0
LINE
  8
0
 10
21.0282
 20
66.7897
 11
21.2747
 21
66.8918
  0
LINE
  8
0
 10
21.2747
 20
66.8918
 11
21.5341
 21
66.9541
  0
LINE
  8
0
 10
21.5341
 20
66.9541
 11
21.8
 21
66.975
  0
LINE
  8
0
 10
21.8
 20
66.975
 11
22.0659
 21
66.9541
  0
LINE
  8
0
 10
22.0659
 20
66.9541
 11
22.3253
 21
66.8918
  0
LINE
  8
0
 10
22.3253
 20
66.8918
 11
22.5718
 21
66.7897
  0
LINE
  8
0
 10
22.5718
 20
66.7897
 11
22.7992
 21
66.6503
  0
LINE
  8
0
 10
22.7992
 20
66.6503
 11
23.0021
 21
66.4771
  0
LINE
  8
0
 10
23.0021
 20
66.4771
 11
23.1753
 21
66.2742
  0
LINE
  8
0
 10
23.1753
 20
66.2742
 11
23.3147
 21
66.0468
  0
LINE
  8
0
 10
23.3147
 20
66.0468
 11
23.4168
 21
65.8003
  0
LINE
  8
0
 10
23.4168
 20
65.8003
 11
23.4791
 21
65.5409
  0
LINE
  8
0
 10
23.4791
 20
65.5409
 11
23.5
 21
65.275
  0
LINE
  8
0
 10
23.5
 20
65.275
 11
23.4791
 21
65.009
  0
LINE
  8
0
 10
23.4791
 20
65.009
 11
23.4168
 21
64.7497
  0
LINE
  8
0
 10
23.4168
 20
64.7497
 11
23.3147
 21
64.5032
  0
LINE
  8
0
 10
23.3147
 20
64.5032
 11
23.1753
 21
64.2758
  0
LINE
  8
0
 10
23.1753
 20
64.2758
 11
23.0021
 21
64.0729
  0
LINE
  8
0
 10
23.0021
 20
64.0729
 11
22.7992
 21
63.8997
  0
LINE
  8
0
 10
22.7992
 20
63.8997
 11
22.5718
 21
63.7603
  0
LINE
  8
0
 10
22.5718
 20
63.7603
 11
22.3253
 21
63.6582
  0
LINE
  8
0
 10
22.3253
 20
63.6582
 11
22.0659
 21
63.5959
  0
LINE
  8
0
 10
22.0659
 20
63.5959
 11
21.8
 21
63.575
  0
LINE
  8
0
 10
21.8
 20
63.575
 11
21.5341
 21
63.5959
  0
LINE
  8
0
 10
-38.6564
 20
62.5123
 11
-38.809
 21
62.5489
  0
LINE
  8
0
 10
-38.809
 20
62.5489
 11
-38.954
 21
62.609
  0
LINE
  8
0
 10
-38.954
 20
62.609
 11
-39.0878
 21
62.691
  0
LINE
  8
0
 10
-39.0878
 20
62.691
 11
-39.2071
 21
62.7929
  0
LINE
  8
0
 10
-39.2071
 20
62.7929
 11
-39.309
 21
62.9122
  0
LINE
  8
0
 10
-39.309
 20
62.9122
 11
-39.391
 21
63.046
  0
LINE
  8
0
 10
-39.391
 20
63.046
 11
-39.451
 21
63.191
  0
LINE
  8
0
 10
-39.451
 20
63.191
 11
-39.4877
 21
63.3436
  0
LINE
  8
0
 10
-39.4877
 20
63.3436
 11
-39.5
 21
63.5
  0
LINE
  8
0
 10
-39.5
 20
63.5
 11
-39.4877
 21
63.6564
  0
LINE
  8
0
 10
-39.4877
 20
63.6564
 11
-39.451
 21
63.809
  0
LINE
  8
0
 10
-39.451
 20
63.809
 11
-39.391
 21
63.954
  0
LINE
  8
0
 10
-39.391
 20
63.954
 11
-39.309
 21
64.0878
  0
LINE
  8
0
 10
-39.309
 20
64.0878
 11
-39.2071
 21
64.2071
  0
LINE
  8
0
 10
-39.2071
 20
64.2071
 11
-39.0878
 21
64.309
  0
LINE
  8
0
 10
-39.0878
 20
64.309
 11
-38.954
 21
64.391
  0
LINE
  8
0
 10
-38.954
 20
64.391
 11
-38.809
 21
64.451
  0
LINE
  8
0
 10
-38.809
 20
64.451
 11
-38.6564
 21
64.4877
  0
LINE
  8
0
 10
-38.6564
 20
64.4877
 11
-38.5
 21
64.5
  0
LINE
  8
0
 10
-38.5
 20
64.5
 11
-38.3436
 21
64.4877
  0
LINE
  8
0
 10
-38.3436
 20
64.4877
 11
-38.191
 21
64.451
  0
LINE
  8
0
 10
-38.191
 20
64.451
 11
-38.046
 21
64.391
  0
LINE
  8
0
 10
-38.046
 20
64.391
 11
-37.9122
 21
64.309
  0
LINE
  8
0
 10
-37.9122
 20
64.309
 11
-37.7929
 21
64.2071
  0
LINE
  8
0
 10
-37.7929
 20
64.2071
 11
-37.691
 21
64.0878
  0
LINE
  8
0
 10
-37.691
 20
64.0878
 11
-37.609
 21
63.954
  0
LINE
  8
0
 10
-37.609
 20
63.954
 11
-37.5489
 21
63.809
  0
LINE
  8
0
 10
-37.5489
 20
63.809
 11
-37.5123
 21
63.6564
  0
LINE
  8
0
 10
-37.5123
 20
63.6564
 11
-37.5
 21
63.5
  0
LINE
  8
0
 10
-37.5
 20
63.5
 11
-37.5123
 21
63.3436
  0
LINE
  8
0
 10
-37.5123
 20
63.3436
 11
-37.5489
 21
63.191
  0
LINE
  8
0
 10
-37.5489
 20
63.191
 11
-37.609
 21
63.046
  0
LINE
  8
0
 10
-37.609
 20
63.046
 11
-37.691
 21
62.9122
  0
LINE
  8
0
 10
-37.691
 20
62.9122
 11
-37.7929
 21
62.7929
  0
LINE
  8
0
 10
-37.7929
 20
62.7929
 11
-37.9122
 21
62.691
  0
LINE
  8
0
 10
-37.9122
 20
62.691
 11
-38.046
 21
62.609
  0
LINE
  8
0
 10
-38.046
 20
62.609
 11
-38.191
 21
62.5489
  0
LINE
  8
0
 10
-38.191
 20
62.5489
 11
-38.3436
 21
62.5123
  0
LINE
  8
0
 10
-38.3436
 20
62.5123
 11
-38.5
 21
62.5
  0
LINE
  8
0
 10
-38.5
 20
62.5
 11
-38.6564
 21
62.5123
  0
LINE
  8
0
 10
32.2178
 20
32.1116
 11
31.4549
 21
32.2947
  0
LINE
  8
0
 10
31.4549
 20
32.2947
 11
30.73
 21
32.595
  0
LINE
  8
0
 10
30.73
 20
32.595
 11
30.0611
 21
33.0049
  0
LINE
  8
0
 10
30.0611
 20
33.0049
 11
29.4645
 21
33.5145
  0
LINE
  8
0
 10
29.4645
 20
33.5145
 11
28.9549
 21
34.1111
  0
LINE
  8
0
 10
28.9549
 20
34.1111
 11
28.545
 21
34.78
  0
LINE
  8
0
 10
28.545
 20
34.78
 11
28.2447
 21
35.5049
  0
LINE
  8
0
 10
28.2447
 20
35.5049
 11
28.0616
 21
36.2678
  0
LINE
  8
0
 10
28.0616
 20
36.2678
 11
28
 21
37.05
  0
LINE
  8
0
 10
28
 20
37.05
 11
28
 21
57.05
  0
LINE
  8
0
 10
28
 20
57.05
 11
28.0616
 21
57.8322
  0
LINE
  8
0
 10
28.0616
 20
57.8322
 11
28.2447
 21
58.5951
  0
LINE
  8
0
 10
28.2447
 20
58.5951
 11
28.545
 21
59.3199
  0
LINE
  8
0
 10
28.545
 20
59.3199
 11
28.9549
 21
59.9889
  0
LINE
  8
0
 10
28.9549
 20
59.9889
 11
29.4645
 21
60.5855
  0
LINE
  8
0
 10
29.4645
 20
60.5855
 11
30.0611
 21
61.0951
  0
LINE
  8
0
 10
30.0611
 20
61.0951
 11
30.73
 21
61.505
  0
LINE
  8
0
 10
30.73
 20
61.505
 11
31.4549
 21
61.8053
  0
LINE
  8
0
 10
31.4549
 20
61.8053
 11
32.2178
 21
61.9884
  0
LINE
  8
0
 10
32.2178
 20
61.9884
 11
33
 21
62.05
  0
LINE
  8
0
 10
33
 20
62.05
 11
33.7822
 21
61.9884
  0
LINE
  8
0
 10
33.7822
 20
61.9884
 11
34.5451
 21
61.8053
  0
LINE
  8
0
 10
34.5451
 20
61.8053
 11
35.2699
 21
61.505
  0
LINE
  8
0
 10
35.2699
 20
61.505
 11
35.9389
 21
61.0951
  0
LINE
  8
0
 10
35.9389
 20
61.0951
 11
36.5355
 21
60.5855
  0
LINE
  8
0
 10
36.5355
 20
60.5855
 11
37.0451
 21
59.9889
  0
LINE
  8
0
 10
37.0451
 20
59.9889
 11
37.455
 21
59.3199
  0
LINE
  8
0
 10
37.455
 20
59.3199
 11
37.7553
 21
58.5951
  0
LINE
  8
0
 10
37.7553
 20
58.5951
 11
37.9384
 21
57.8322
  0
LINE
  8
0
 10
37.9384
 20
57.8322
 11
38
 21
57.05
  0
LINE
  8
0
 10
38
 20
57.05
 11
38
 21
37.05
  0
LINE
  8
0
 10
38
 20
37.05
 11
37.9384
 21
36.2678
  0
LINE
  8
0
 10
37.9384
 20
36.2678
 11
37.7553
 21
35.5049
  0
LINE
  8
0
 10
37.7553
 20
35.5049
 11
37.455
 21
34.78
  0
LINE
  8
0
 10
37.455
 20
34.78
 11
37.0451
 21
34.1111
  0
LINE
  8
0
 10
37.0451
 20
34.1111
 11
36.5355
 21
33.5145
  0
LINE
  8
0
 10
36.5355
 20
33.5145
 11
35.9389
 21
33.0049
  0
LINE
  8
0
 10
35.9389
 20
33.0049
 11
35.2699
 21
32.595
  0
LINE
  8
0
 10
35.2699
 20
32.595
 11
34.5451
 21
32.2947
  0
LINE
  8
0
 10
34.5451
 20
32.2947
 11
33.7822
 21
32.1116
  0
LINE
  8
0
 10
33.7822
 20
32.1116
 11
33
 21
32.05
  0
LINE
  8
0
 10
33
 20
32.05
 11
32.2178
 21
32.1116
  0
LINE
  8
0
 10
-33.7822
 20
32.1116
 11
-34.5451
 21
32.2947
  0
LINE
  8
0
 10
-34.5451
 20
32.2947
 11
-35.2699
 21
32.595
  0
LINE
  8
0
 10
-35.2699
 20
32.595
 11
-35.9389
 21
33.0049
  0
LINE
  8
0
 10
-35.9389
 20
33.0049
 11
-36.5355
 21
33.5145
  0
LINE
  8
0
 10
-36.5355
 20
33.5145
 11
-37.0451
 21
34.1111
  0
LINE
  8
0
 10
-37.0451
 20
34.1111
 11
-37.455
 21
34.78
  0
LINE
  8
0
 10
-37.455
 20
34.78
 11
-37.7553
 21
35.5049
  0
LINE
  8
0
 10
-37.7553
 20
35.5049
 11
-37.9384
 21
36.2678
  0
LINE
  8
0
 10
-37.9384
 20
36.2678
 11
-38
 21
37.05
  0
LINE
  8
0
 10
-38
 20
37.05
 11
-38
 21
57.05
  0
LINE
  8
0
 10
-38
 20
57.05
 11
-37.9384
 21
57.8322
  0
LINE
  8
0
 10
-37.9384
 20
57.8322
 11
-37.7553
 21
58.5951
  0
LINE
  8
0
 10
-37.7553
 20
58.5951
 11
-37.455
 21
59.3199
  0
LINE
  8
0
 10
-37.455
 20
59.3199
 11
-37.0451
 21
59.9889
  0
LINE
  8
0
 10
-37.0451
 20
59.9889
 11
-36.5355
 21
60.5855
  0
LINE
  8
0
 10
-36.5355
 20
60.5855
 11
-35.9389
 21
61.0951
  0
LINE
  8
0
 10
-35.9389
 20
61.0951
 11
-35.2699
 21
61.505
  0
LINE
  8
0
 10
-35.2699
 20
61.505
 11
-34.5451
 21
61.8053
  0
LINE
  8
0
 10
-34.5451
 20
61.8053
 11
-33.7822
 21
61.9884
  0
LINE
  8
0
 10
-33.7822
 20
61.9884
 11
-33
 21
62.05
  0
LINE
  8
0
 10
-33
 20
62.05
 11
-32.2178
 21
61.9884
  0
LINE
  8
0
 10
-32.2178
 20
61.9884
 11
-31.4549
 21
61.8053
  0
LINE
  8
0
 10
-31.4549
 20
61.8053
 11
-30.73
 21
61.505
  0
LINE
  8
0
 10
-30.73
 20
61.505
 11
-30.0611
 21
61.0951
  0
LINE
  8
0
 10
-30.0611
 20
61.0951
 11
-29.4645
 21
60.5855
  0
LINE
  8
0
 10
-29.4645
 20
60.5855
 11
-28.9549
 21
59.9889
  0
LINE
  8
0
 10
-28.9549
 20
59.9889
 11
-28.545
 21
59.3199
  0
LINE
  8
0
 10
-28.545
 20
59.3199
 11
-28.2447
 21
58.5951
  0
LINE
  8
0
 10
-28.2447
 20
58.5951
 11
-28.0616
 21
57.8322
  0
LINE
  8
0
 10
-28.0616
 20
57.8322
 11
-28
 21
57.05
  0
LINE
  8
0
 10
-28
 20
57.05
 11
-28
 21
37.05
  0
LINE
  8
0
 10
-28
 20
37.05
 11
-28.0616
 21
36.2678
  0
LINE
  8
0
 10
-28.0616
 20
36.2678
 11
-28.2447
 21
35.5049
  0
LINE
  8
0
 10
-28.2447
 20
35.5049
 11
-28.545
 21
34.78
  0
LINE
  8
0
 10
-28.545
 20
34.78
 11
-28.9549
 21
34.1111
  0
LINE
  8
0
 10
-28.9549
 20
34.1111
 11
-29.4645
 21
33.5145
  0
LINE
  8
0
 10
-29.4645
 20
33.5145
 11
-30.0611
 21
33.0049
  0
LINE
  8
0
 10
-30.0611
 20
33.0049
 11
-30.73
 21
32.595
  0
LINE
  8
0
 10
-30.73
 20
32.595
 11
-31.4549
 21
32.2947
  0
LINE
  8
0
 10
-31.4549
 20
32.2947
 11
-32.2178
 21
32.1116
  0
LINE
  8
0
 10
-32.2178
 20
32.1116
 11
-33
 21
32.05
  0
LINE
  8
0
 10
-33
 20
32.05
 11
-33.7822
 21
32.1116
  0
LINE
  8
0
 10
-42.7346
 20
35.5685
 11
-42.9635
 21
35.6234
  0
LINE
  8
0
 10
-42.9635
 20
35.6234
 11
-43.181
 21
35.7135
  0
LINE
  8
0
 10
-43.181
 20
35.7135
 11
-43.3817
 21
35.8365
  0
LINE
  8
0
 10
-43.3817
 20
35.8365
 11
-43.5607
 21
35.9893
  0
LINE
  8
0
 10
-43.5607
 20
35.9893
 11
-43.7135
 21
36.1683
  0
LINE
  8
0
 10
-43.7135
 20
36.1683
 11
-43.8365
 21
36.369
  0
LINE
  8
0
 10
-43.8365
 20
36.369
 11
-43.9266
 21
36.5865
  0
LINE
  8
0
 10
-43.9266
 20
36.5865
 11
-43.9815
 21
36.8153
  0
LINE
  8
0
 10
-43.9815
 20
36.8153
 11
-44
 21
37.05
  0
LINE
  8
0
 10
-44
 20
37.05
 11
-44
 21
57.05
  0
LINE
  8
0
 10
-44
 20
57.05
 11
-43.9815
 21
57.2846
  0
LINE
  8
0
 10
-43.9815
 20
57.2846
 11
-43.9266
 21
57.5135
  0
LINE
  8
0
 10
-43.9266
 20
57.5135
 11
-43.8365
 21
57.731
  0
LINE
  8
0
 10
-43.8365
 20
57.731
 11
-43.7135
 21
57.9317
  0
LINE
  8
0
 10
-43.7135
 20
57.9317
 11
-43.5607
 21
58.1107
  0
LINE
  8
0
 10
-43.5607
 20
58.1107
 11
-43.3817
 21
58.2635
  0
LINE
  8
0
 10
-43.3817
 20
58.2635
 11
-43.181
 21
58.3865
  0
LINE
  8
0
 10
-43.181
 20
58.3865
 11
-42.9635
 21
58.4766
  0
LINE
  8
0
 10
-42.9635
 20
58.4766
 11
-42.7346
 21
58.5315
  0
LINE
  8
0
 10
-42.7346
 20
58.5315
 11
-42.5
 21
58.55
  0
LINE
  8
0
 10
-42.5
 20
58.55
 11
-42.2653
 21
58.5315
  0
LINE
  8
0
 10
-42.2653
 20
58.5315
 11
-42.0365
 21
58.4766
  0
LINE
  8
0
 10
-42.0365
 20
58.4766
 11
-41.819
 21
58.3865
  0
LINE
  8
0
 10
-41.819
 20
58.3865
 11
-41.6183
 21
58.2635
  0
LINE
  8
0
 10
-41.6183
 20
58.2635
 11
-41.4393
 21
58.1107
  0
LINE
  8
0
 10
-41.4393
 20
58.1107
 11
-41.2865
 21
57.9317
  0
LINE
  8
0
 10
-41.2865
 20
57.9317
 11
-41.1635
 21
57.731
  0
LINE
  8
0
 10
-41.1635
 20
57.731
 11
-41.0734
 21
57.5135
  0
LINE
  8
0
 10
-41.0734
 20
57.5135
 11
-41.0185
 21
57.2846
  0
LINE
  8
0
 10
-41.0185
 20
57.2846
 11
-41
 21
57.05
  0
LINE
  8
0
 10
-41
 20
57.05
 11
-41
 21
37.05
  0
LINE
  8
0
 10
-41
 20
37.05
 11
-41.0185
 21
36.8153
  0
LINE
  8
0
 10
-41.0185
 20
36.8153
 11
-41.0734
 21
36.5865
  0
LINE
  8
0
 10
-41.0734
 20
36.5865
 11
-41.1635
 21
36.369
  0
LINE
  8
0
 10
-41.1635
 20
36.369
 11
-41.2865
 21
36.1683
  0
LINE
  8
0
 10
-41.2865
 20
36.1683
 11
-41.4393
 21
35.9893
  0
LINE
  8
0
 10
-41.4393
 20
35.9893
 11
-41.6183
 21
35.8365
  0
LINE
  8
0
 10
-41.6183
 20
35.8365
 11
-41.819
 21
35.7135
  0
LINE
  8
0
 10
-41.819
 20
35.7135
 11
-42.0365
 21
35.6234
  0
LINE
  8
0
 10
-42.0365
 20
35.6234
 11
-42.2653
 21
35.5685
  0
LINE
  8
0
 10
-42.2653
 20
35.5685
 11
-42.5
 21
35.55
  0
LINE
  8
0
 10
-42.5
 20
35.55
 11
-42.7346
 21
35.5685
  0
LINE
  8
0
 10
42.2653
 20
35.5685
 11
42.0365
 21
35.6234
  0
LINE
  8
0
 10
42.0365
 20
35.6234
 11
41.819
 21
35.7135
  0
LINE
  8
0
 10
41.819
 20
35.7135
 11
41.6183
 21
35.8365
  0
LINE
  8
0
 10
41.6183
 20
35.8365
 11
41.4393
 21
35.9893
  0
LINE
  8
0
 10
41.4393
 20
35.9893
 11
41.2865
 21
36.1683
  0
LINE
  8
0
 10
41.2865
 20
36.1683
 11
41.1635
 21
36.369
  0
LINE
  8
0
 10
41.1635
 20
36.369
 11
41.0734
 21
36.5865
  0
LINE
  8
0
 10
41.0734
 20
36.5865
 11
41.0185
 21
36.8153
  0
LINE
  8
0
 10
41.0185
 20
36.8153
 11
41
 21
37.05
  0
LINE
  8
0
 10
41
 20
37.05
 11
41
 21
57.05
  0
LINE
  8
0
 10
41
 20
57.05
 11
41.0185
 21
57.2846
  0
LINE
  8
0
 10
41.0185
 20
57.2846
 11
41.0734
 21
57.5135
  0
LINE
  8
0
 10
41.0734
 20
57.5135
 11
41.1635
 21
57.731
  0
LINE
  8
0
 10
41.1635
 20
57.731
 11
41.2865
 21
57.9317
  0
LINE
  8
0
 10
41.2865
 20
57.9317
 11
41.4393
 21
58.1107
  0
LINE
  8
0
 10
41.4393
 20
58.1107
 11
41.6183
 21
58.2635
  0
LINE
  8
0
 10
41.6183
 20
58.2635
 11
41.819
 21
58.3865
  0
LINE
  8
0
 10
41.819
 20
58.3865
 11
42.0365
 21
58.4766
  0
LINE
  8
0
 10
42.0365
 20
58.4766
 11
42.2653
 21
58.5315
  0
LINE
  8
0
 10
42.2653
 20
58.5315
 11
42.5
 21
58.55
  0
LINE
  8
0
 10
42.5
 20
58.55
 11
42.7346
 21
58.5315
  0
LINE
  8
0
 10
42.7346
 20
58.5315
 11
42.9635
 21
58.4766
  0
LINE
  8
0
 10
42.9635
 20
58.4766
 11
43.181
 21
58.3865
  0
LINE
  8
0
 10
43.181
 20
58.3865
 11
43.3817
 21
58.2635
  0
LINE
  8
0
 10
43.3817
 20
58.2635
 11
43.5607
 21
58.1107
  0
LINE
  8
0
 10
43.5607
 20
58.1107
 11
43.7135
 21
57.9317
  0
LINE
  8
0
 10
43.7135
 20
57.9317
 11
43.8365
 21
57.731
  0
LINE
  8
0
 10
43.8365
 20
57.731
 11
43.9266
 21
57.5135
  0
LINE
  8
0
 10
43.9266
 20
57.5135
 11
43.9815
 21
57.2846
  0
LINE
  8
0
 10
43.9815
 20
57.2846
 11
44
 21
57.05
  0
LINE
  8
0
 10
44
 20
57.05
 11
44
 21
37.05
  0
LINE
  8
0
 10
44
 20
37.05
 11
43.9815
 21
36.8153
  0
LINE
  8
0
 10
43.9815
 20
36.8153
 11
43.9266
 21
36.5865
  0
LINE
  8
0
 10
43.9266
 20
36.5865
 11
43.8365
 21
36.369
  0
LINE
  8
0
 10
43.8365
 20
36.369
 11
43.7135
 21
36.1683
  0
LINE
  8
0
 10
43.7135
 20
36.1683
 11
43.5607
 21
35.9893
  0
LINE
  8
0
 10
43.5607
 20
35.9893
 11
43.3817
 21
35.8365
  0
LINE
  8
0
 10
43.3817
 20
35.8365
 11
43.181
 21
35.7135
  0
LINE
  8
0
 10
43.181
 20
35.7135
 11
42.9635
 21
35.6234
  0
LINE
  8
0
 10
42.9635
 20
35.6234
 11
42.7346
 21
35.5685
  0
LINE
  8
0
 10
42.7346
 20
35.5685
 11
42.5
 21
35.55
  0
LINE
  8
0
 10
42.5
 20
35.55
 11
42.2653
 21
35.5685
  0
LINE
  8
0
 10
-22.0659
 20
24.0459
 11
-22.3253
 21
24.1082
  0
LINE
  8
0
 10
-22.3253
 20
24.1082
 11
-22.5718
 21
24.2103
  0
LINE
  8
0
 10
-22.5718
 20
24.2103
 11
-22.7992
 21
24.3497
  0
LINE
  8
0
 10
-22.7992
 20
24.3497
 11
-23.0021
 21
24.5229
  0
LINE
  8
0
 10
-23.0021
 20
24.5229
 11
-23.1753
 21
24.7258
  0
LINE
  8
0
 10
-23.1753
 20
24.7258
 11
-23.3147
 21
24.9532
  0
LINE
  8
0
 10
-23.3147
 20
24.9532
 11
-23.4168
 21
25.1997
  0
LINE
  8
0
 10
-23.4168
 20
25.1997
 11
-23.4791
 21
25.4591
  0
LINE
  8
0
 10
-23.4791
 20
25.4591
 11
-23.5
 21
25.725
  0
LINE
  8
0
 10
-23.5
 20
25.725
 11
-23.4791
 21
25.991
  0
LINE
  8
0
 10
-23.4791
 20
25.991
 11
-23.4168
 21
26.2503
  0
LINE
  8
0
 10
-23.4168
 20
26.2503
 11
-23.3147
 21
26.4968
  0
LINE
  8
0
 10
-23.3147
 20
26.4968
 11
-23.1753
 21
26.7242
  0
LINE
  8
0
 10
-23.1753
 20
26.7242
 11
-23.0021
 21
26.9271
  0
LINE
  8
0
 10
-23.0021
 20
26.9271
 11
-22.7992
 21
27.1003
  0
LINE
  8
0
 10
-22.7992
 20
27.1003
 11
-22.5718
 21
27.2397
  0
LINE
  8
0
 10
-22.5718
 20
27.2397
 11
-22.3253
 21
27.3418
  0
LINE
  8
0
 10
-22.3253
 20
27.3418
 11
-22.0659
 21
27.4041
  0
LINE
  8
0
 10
-22.0659
 20
27.4041
 11
-21.8
 21
27.425
  0
LINE
  8
0
 10
-21.8
 20
27.425
 11
-21.5341
 21
27.4041
  0
LINE
  8
0
 10
-21.5341
 20
27.4041
 11
-21.2747
 21
27.3418
  0
LINE
  8
0
 10
-21.2747
 20
27.3418
 11
-21.0282
 21
27.2397
  0
LINE
  8
0
 10
-21.0282
 20
27.2397
 11
-20.8008
 21
27.1003
  0
LINE
  8
0
 10
-20.8008
 20
27.1003
 11
-20.5979
 21
26.9271
  0
LINE
  8
0
 10
-20.5979
 20
26.9271
 11
-20.4247
 21
26.7242
  0
LINE
  8
0
 10
-20.4247
 20
26.7242
 11
-20.2853
 21
26.4968
  0
LINE
  8
0
 10
-20.2853
 20
26.4968
 11
-20.1832
 21
26.2503
  0
LINE
  8
0
 10
-20.1832
 20
26.2503
 11
-20.1209
 21
25.991
  0
LINE
  8
0
 10
-20.1209
 20
25.991
 11
-20.1
 21
25.725
  0
LINE
  8
0
 10
-20.1
 20
25.725
 11
-20.1209
 21
25.4591
  0
LINE
  8
0
 10
-20.1209
 20
25.4591
 11
-20.1832
 21
25.1997
  0
LINE
  8
0
 10
-20.1832
 20
25.1997
 11
-20.2853
 21
24.9532
  0
LINE
  8
0
 10
-20.2853
 20
24.9532
 11
-20.4247
 21
24.7258
  0
LINE
  8
0
 10
-20.4247
 20
24.7258
 11
-20.5979
 21
24.5229
  0
LINE
  8
0
 10
-20.5979
 20
24.5229
 11
-20.8008
 21
24.3497
  0
LINE
  8
0
 10
-20.8008
 20
24.3497
 11
-21.0282
 21
24.2103
  0
LINE
  8
0
 10
-21.0282
 20
24.2103
 11
-21.2747
 21
24.1082
  0
LINE
  8
0
 10
-21.2747
 20
24.1082
 11
-21.5341
 21
24.0459
  0
LINE
  8
0
 10
-21.5341
 20
24.0459
 11
-21.8
 21
24.025
  0
LINE
  8
0
 10
-21.8
 20
24.025
 11
-22.0659
 21
24.0459
  0
LINE
  8
0
 10
21.5341
 20
24.0459
 11
21.2747
 21
24.1082
  0
LINE
  8
0
 10
21.2747
 20
24.1082
 11
21.0282
 21
24.2103
  0
LINE
  8
0
 10
21.0282
 20
24.2103
 11
20.8008
 21
24.3497
  0
LINE
  8
0
 10
20.8008
 20
24.3497
 11
20.5979
 21
24.5229
  0
LINE
  8
0
 10
20.5979
 20
24.5229
 11
20.4247
 21
24.7258
  0
LINE
  8
0
 10
20.4247
 20
24.7258
 11
20.2853
 21
24.9532
  0
LINE
  8
0
 10
20.2853
 20
24.9532
 11
20.1832
 21
25.1997
  0
LINE
  8
0
 10
20.1832
 20
25.1997
 11
20.1209
 21
25.4591
  0
LINE
  8
0
 10
20.1209
 20
25.4591
 11
20.1
 21
25.725
  0
LINE
  8
0
 10
20.1
 20
25.725
 11
20.1209
 21
25.991
  0
LINE
  8
0
 10
20.1209
 20
25.991
 11
20.1832
 21
26.2503
  0
LINE
  8
0
 10
20.1832
 20
26.2503
 11
20.2853
 21
26.4968
  0
LINE
  8
0
 10
20.2853
 20
26.4968
 11
20.4247
 21
26.7242
  0
LINE
  8
0
 10
20.4247
 20
26.7242
 11
20.5979
 21
26.9271
  0
LINE
  8
0
 10
20.5979
 20
26.9271
 11
20.8008
 21
27.1003
  0
LINE
  8
0
 10
20.8008
 20
27.1003
 11
21.0282
 21
27.2397
  0
LINE
  8
0
 10
21.0282
 20
27.2397
 11
21.2747
 21
27.3418
  0
LINE
  8
0
 10
21.2747
 20
27.3418
 11
21.5341
 21
27.4041
  0
LINE
  8
0
 10
21.5341
 20
27.4041
 11
21.8
 21
27.425
  0
LINE
  8
0
 10
21.8
 20
27.425
 11
22.0659
 21
27.4041
  0
LINE
  8
0
 10
22.0659
 20
27.4041
 11
22.3253
 21
27.3418
  0
LINE
  8
0
 10
22.3253
 20
27.3418
 11
22.5718
 21
27.2397
  0
LINE
  8
0
 10
22.5718
 20
27.2397
 11
22.7992
 21
27.1003
  0
LINE
  8
0
 10
22.7992
 20
27.1003
 11
23.0021
 21
26.9271
  0
LINE
  8
0
 10
23.0021
 20
26.9271
 11
23.1753
 21
26.7242
  0
LINE
  8
0
 10
23.1753
 20
26.7242
 11
23.3147
 21
26.4968
  0
LINE
  8
0
 10
23.3147
 20
26.4968
 11
23.4168
 21
26.2503
  0
LINE
  8
0
 10
23.4168
 20
26.2503
 11
23.4791
 21
25.991
  0
LINE
  8
0
 10
23.4791
 20
25.991
 11
23.5
 21
25.725
  0
LINE
  8
0
 10
23.5
 20
25.725
 11
23.4791
 21
25.4591
  0
LINE
  8
0
 10
23.4791
 20
25.4591
 11
23.4168
 21
25.1997
  0
LINE
  8
0
 10
23.4168
 20
25.1997
 11
23.3147
 21
24.9532
  0
LINE
  8
0
 10
23.3147
 20
24.9532
 11
23.1753
 21
24.7258
  0
LINE
  8
0
 10
23.1753
 20
24.7258
 11
23.0021
 21
24.5229
  0
LINE
  8
0
 10
23.0021
 20
24.5229
 11
22.7992
 21
24.3497
  0
LINE
  8
0
 10
22.7992
 20
24.3497
 11
22.5718
 21
24.2103
  0
LINE
  8
0
 10
22.5718
 20
24.2103
 11
22.3253
 21
24.1082
  0
LINE
  8
0
 10
22.3253
 20
24.1082
 11
22.0659
 21
24.0459
  0
LINE
  8
0
 10
22.0659
 20
24.0459
 11
21.8
 21
24.025
  0
LINE
  8
0
 10
21.8
 20
24.025
 11
21.5341
 21
24.0459
  0
LINE
  8
0
 10
8.98462
 20
17.8031
 11
8.90665
 21
17.8123
  0
LINE
  8
0
 10
8.90665
 20
17.8123
 11
8.82964
 21
17.8276
  0
LINE
  8
0
 10
8.82964
 20
17.8276
 11
8.75406
 21
17.849
  0
LINE
  8
0
 10
8.75406
 20
17.849
 11
8.68039
 21
17.8761
  0
LINE
  8
0
 10
8.68039
 20
17.8761
 11
8.60909
 21
17.909
  0
LINE
  8
0
 10
8.60909
 20
17.909
 11
8.54057
 21
17.9474
  0
LINE
  8
0
 10
8.54057
 20
17.9474
 11
8.4753
 21
17.991
  0
LINE
  8
0
 10
8.4753
 20
17.991
 11
8.41364
 21
18.0396
  0
LINE
  8
0
 10
8.41364
 20
18.0396
 11
8.35597
 21
18.0929
  0
LINE
  8
0
 10
8.35597
 20
18.0929
 11
8.30267
 21
18.1506
  0
LINE
  8
0
 10
8.30267
 20
18.1506
 11
8.25406
 21
18.2122
  0
LINE
  8
0
 10
8.25406
 20
18.2122
 11
8.21043
 21
18.2775
  0
LINE
  8
0
 10
8.21043
 20
18.2775
 11
8.17207
 21
18.346
  0
LINE
  8
0
 10
8.17207
 20
18.346
 11
8.13919
 21
18.4173
  0
LINE
  8
0
 10
8.13919
 20
18.4173
 11
8.11201
 21
18.491
  0
LINE
  8
0
 10
8.11201
 20
18.491
 11
8.09071
 21
18.5666
  0
LINE
  8
0
 10
8.09071
 20
18.5666
 11
8.07539
 21
18.6436
  0
LINE
  8
0
 10
8.07539
 20
18.6436
 11
8.06616
 21
18.7215
  0
LINE
  8
0
 10
8.06616
 20
18.7215
 11
8.06308
 21
18.8
  0
LINE
  8
0
 10
8.06308
 20
18.8
 11
-8.06311
 21
18.8
  0
LINE
  8
0
 10
-8.06311
 20
18.8
 11
-8.06619
 21
18.7215
  0
LINE
  8
0
 10
-8.06619
 20
18.7215
 11
-8.07542
 21
18.6436
  0
LINE
  8
0
 10
-8.07542
 20
18.6436
 11
-8.09073
 21
18.5666
  0
LINE
  8
0
 10
-8.09073
 20
18.5666
 11
-8.11205
 21
18.491
  0
LINE
  8
0
 10
-8.11205
 20
18.491
 11
-8.13922
 21
18.4173
  0
LINE
  8
0
 10
-8.13922
 20
18.4173
 11
-8.1721
 21
18.346
  0
LINE
  8
0
 10
-8.1721
 20
18.346
 11
-8.21046
 21
18.2775
  0
LINE
  8
0
 10
-8.21046
 20
18.2775
 11
-8.25409
 21
18.2122
  0
LINE
  8
0
 10
-8.25409
 20
18.2122
 11
-8.3027
 21
18.1506
  0
LINE
  8
0
 10
-8.3027
 20
18.1506
 11
-8.356
 21
18.0929
  0
LINE
  8
0
 10
-8.356
 20
18.0929
 11
-8.41365
 21
18.0396
  0
LINE
  8
0
 10
-8.41365
 20
18.0396
 11
-8.47533
 21
17.991
  0
LINE
  8
0
 10
-8.47533
 20
17.991
 11
-8.5406
 21
17.9474
  0
LINE
  8
0
 10
-8.5406
 20
17.9474
 11
-8.60912
 21
17.909
  0
LINE
  8
0
 10
-8.60912
 20
17.909
 11
-8.68042
 21
17.8761
  0
LINE
  8
0
 10
-8.68042
 20
17.8761
 11
-8.75409
 21
17.849
  0
LINE
  8
0
 10
-8.75409
 20
17.849
 11
-8.82967
 21
17.8276
  0
LINE
  8
0
 10
-8.82967
 20
17.8276
 11
-8.90668
 21
17.8123
  0
LINE
  8
0
 10
-8.90668
 20
17.8123
 11
-8.98465
 21
17.8031
  0
LINE
  8
0
 10
-8.98465
 20
17.8031
 11
-9.06311
 21
17.8
  0
LINE
  8
0
 10
-9.06311
 20
17.8
 11
-9.14157
 21
17.8031
  0
LINE
  8
0
 10
-9.14157
 20
17.8031
 11
-9.21954
 21
17.8123
  0
LINE
  8
0
 10
-9.21954
 20
17.8123
 11
-9.29655
 21
17.8276
  0
LINE
  8
0
 10
-9.29655
 20
17.8276
 11
-9.37212
 21
17.849
  0
LINE
  8
0
 10
-9.37212
 20
17.849
 11
-9.44579
 21
17.8761
  0
LINE
  8
0
 10
-9.44579
 20
17.8761
 11
-9.51709
 21
17.909
  0
LINE
  8
0
 10
-9.51709
 20
17.909
 11
-9.5856
 21
17.9474
  0
LINE
  8
0
 10
-9.5856
 20
17.9474
 11
-9.65089
 21
17.991
  0
LINE
  8
0
 10
-9.65089
 20
17.991
 11
-9.71255
 21
18.0396
  0
LINE
  8
0
 10
-9.71255
 20
18.0396
 11
-9.77022
 21
18.0929
  0
LINE
  8
0
 10
-9.77022
 20
18.0929
 11
-9.82352
 21
18.1506
  0
LINE
  8
0
 10
-9.82352
 20
18.1506
 11
-9.87212
 21
18.2122
  0
LINE
  8
0
 10
-9.87212
 20
18.2122
 11
-9.91574
 21
18.2775
  0
LINE
  8
0
 10
-9.91574
 20
18.2775
 11
-9.95412
 21
18.346
  0
LINE
  8
0
 10
-9.95412
 20
18.346
 11
-9.98698
 21
18.4173
  0
LINE
  8
0
 10
-9.98698
 20
18.4173
 11
-10.0142
 21
18.491
  0
LINE
  8
0
 10
-10.0142
 20
18.491
 11
-10.0355
 21
18.5666
  0
LINE
  8
0
 10
-10.0355
 20
18.5666
 11
-10.0508
 21
18.6436
  0
LINE
  8
0
 10
-10.0508
 20
18.6436
 11
-10.06
 21
18.7215
  0
LINE
  8
0
 10
-10.06
 20
18.7215
 11
-10.0631
 21
18.8
  0
LINE
  8
0
 10
-10.0631
 20
18.8
 11
-10.0631
 21
22
  0
LINE
  8
0
 10
-10.0631
 20
22
 11
-10.06
 21
22.0784
  0
LINE
  8
0
 10
-10.06
 20
22.0784
 11
-10.0508
 21
22.1564
  0
LINE
  8
0
 10
-10.0508
 20
22.1564
 11
-10.0355
 21
22.2334
  0
LINE
  8
0
 10
-10.0355
 20
22.2334
 11
-10.0142
 21
22.309
  0
LINE
  8
0
 10
-10.0142
 20
22.309
 11
-9.98698
 21
22.3827
  0
LINE
  8
0
 10
-9.98698
 20
22.3827
 11
-9.95412
 21
22.454
  0
LINE
  8
0
 10
-9.95412
 20
22.454
 11
-9.91574
 21
22.5225
  0
LINE
  8
0
 10
-9.91574
 20
22.5225
 11
-9.87212
 21
22.5878
  0
LINE
  8
0
 10
-9.87212
 20
22.5878
 11
-9.82352
 21
22.6494
  0
LINE
  8
0
 10
-9.82352
 20
22.6494
 11
-9.77022
 21
22.7071
  0
LINE
  8
0
 10
-9.77022
 20
22.7071
 11
-9.71255
 21
22.7604
  0
LINE
  8
0
 10
-9.71255
 20
22.7604
 11
-9.65089
 21
22.809
  0
LINE
  8
0
 10
-9.65089
 20
22.809
 11
-9.5856
 21
22.8526
  0
LINE
  8
0
 10
-9.5856
 20
22.8526
 11
-9.51709
 21
22.891
  0
LINE
  8
0
 10
-9.51709
 20
22.891
 11
-9.44579
 21
22.9239
  0
LINE
  8
0
 10
-9.44579
 20
22.9239
 11
-9.37212
 21
22.951
  0
LINE
  8
0
 10
-9.37212
 20
22.951
 11
-9.29655
 21
22.9724
  0
LINE
  8
0
 10
-9.29655
 20
22.9724
 11
-9.21954
 21
22.9877
  0
LINE
  8
0
 10
-9.21954
 20
22.9877
 11
-9.14157
 21
22.9969
  0
LINE
  8
0
 10
-9.14157
 20
22.9969
 11
-9.06311
 21
23
  0
LINE
  8
0
 10
-9.06311
 20
23
 11
-8.98465
 21
22.9969
  0
LINE
  8
0
 10
-8.98465
 20
22.9969
 11
-8.90668
 21
22.9877
  0
LINE
  8
0
 10
-8.90668
 20
22.9877
 11
-8.82967
 21
22.9724
  0
LINE
  8
0
 10
-8.82967
 20
22.9724
 11
-8.75409
 21
22.951
  0
LINE
  8
0
 10
-8.75409
 20
22.951
 11
-8.68042
 21
22.9239
  0
LINE
  8
0
 10
-8.68042
 20
22.9239
 11
-8.60912
 21
22.891
  0
LINE
  8
0
 10
-8.60912
 20
22.891
 11
-8.5406
 21
22.8526
  0
LINE
  8
0
 10
-8.5406
 20
22.8526
 11
-8.47533
 21
22.809
  0
LINE
  8
0
 10
-8.47533
 20
22.809
 11
-8.41365
 21
22.7604
  0
LINE
  8
0
 10
-8.41365
 20
22.7604
 11
-8.356
 21
22.7071
  0
LINE
  8
0
 10
-8.356
 20
22.7071
 11
-8.3027
 21
22.6494
  0
LINE
  8
0
 10
-8.3027
 20
22.6494
 11
-8.25409
 21
22.5878
  0
LINE
  8
0
 10
-8.25409
 20
22.5878
 11
-8.21046
 21
22.5225
  0
LINE
  8
0
 10
-8.21046
 20
22.5225
 11
-8.1721
 21
22.454
  0
LINE
  8
0
 10
-8.1721
 20
22.454
 11
-8.13922
 21
22.3827
  0
LINE
  8
0
 10
-8.13922
 20
22.3827
 11
-8.11205
 21
22.309
  0
LINE
  8
0
 10
-8.11205
 20
22.309
 11
-8.09073
 21
22.2334
  0
LINE
  8
0
 10
-8.09073
 20
22.2334
 11
-8.07542
 21
22.1564
  0
LINE
  8
0
 10
-8.07542
 20
22.1564
 11
-8.06619
 21
22.0784
  0
LINE
  8
0
 10
-8.06619
 20
22.0784
 11
-8.06311
 21
22
  0
LINE
  8
0
 10
-8.06311
 20
22
 11
8.06308
 21
22
  0
LINE
  8
0
 10
8.06308
 20
22
 11
8.06616
 21
22.0784
  0
LINE
  8
0
 10
8.06616
 20
22.0784
 11
8.07539
 21
22.1564
  0
LINE
  8
0
 10
8.07539
 20
22.1564
 11
8.09071
 21
22.2334
  0
LINE
  8
0
 10
8.09071
 20
22.2334
 11
8.11201
 21
22.309
  0
LINE
  8
0
 10
8.11201
 20
22.309
 11
8.13919
 21
22.3827
  0
LINE
  8
0
 10
8.13919
 20
22.3827
 11
8.17207
 21
22.454
  0
LINE
  8
0
 10
8.17207
 20
22.454
 11
8.21043
 21
22.5225
  0
LINE
  8
0
 10
8.21043
 20
22.5225
 11
8.25406
 21
22.5878
  0
LINE
  8
0
 10
8.25406
 20
22.5878
 11
8.30267
 21
22.6494
  0
LINE
  8
0
 10
8.30267
 20
22.6494
 11
8.35597
 21
22.7071
  0
LINE
  8
0
 10
8.35597
 20
22.7071
 11
8.41364
 21
22.7604
  0
LINE
  8
0
 10
8.41364
 20
22.7604
 11
8.4753
 21
22.809
  0
LINE
  8
0
 10
8.4753
 20
22.809
 11
8.54057
 21
22.8526
  0
LINE
  8
0
 10
8.54057
 20
22.8526
 11
8.60909
 21
22.891
  0
LINE
  8
0
 10
8.60909
 20
22.891
 11
8.68039
 21
22.9239
  0
LINE
  8
0
 10
8.68039
 20
22.9239
 11
8.75406
 21
22.951
  0
LINE
  8
0
 10
8.75406
 20
22.951
 11
8.82964
 21
22.9724
  0
LINE
  8
0
 10
8.82964
 20
22.9724
 11
8.90665
 21
22.9877
  0
LINE
  8
0
 10
8.90665
 20
22.9877
 11
8.98462
 21
22.9969
  0
LINE
  8
0
 10
8.98462
 20
22.9969
 11
9.06308
 21
23
  0
LINE
  8
0
 10
9.06308
 20
23
 11
9.14154
 21
22.9969
  0
LINE
  8
0
 10
9.14154
 20
22.9969
 11
9.21951
 21
22.9877
  0
LINE
  8
0
 10
9.21951
 20
22.9877
 11
9.29652
 21
22.9724
  0
LINE
  8
0
 10
9.29652
 20
22.9724
 11
9.3721
 21
22.951
  0
LINE
  8
0
 10
9.3721
 20
22.951
 11
9.44576
 21
22.9239
  0
LINE
  8
0
 10
9.44576
 20
22.9239
 11
9.51707
 21
22.891
  0
LINE
  8
0
 10
9.51707
 20
22.891
 11
9.58557
 21
22.8526
  0
LINE
  8
0
 10
9.58557
 20
22.8526
 11
9.65086
 21
22.809
  0
LINE
  8
0
 10
9.65086
 20
22.809
 11
9.71252
 21
22.7604
  0
LINE
  8
0
 10
9.71252
 20
22.7604
 11
9.77019
 21
22.7071
  0
LINE
  8
0
 10
9.77019
 20
22.7071
 11
9.82349
 21
22.6494
  0
LINE
  8
0
 10
9.82349
 20
22.6494
 11
9.8721
 21
22.5878
  0
LINE
  8
0
 10
9.8721
 20
22.5878
 11
9.91571
 21
22.5225
  0
LINE
  8
0
 10
9.91571
 20
22.5225
 11
9.95409
 21
22.454
  0
LINE
  8
0
 10
9.95409
 20
22.454
 11
9.98695
 21
22.3827
  0
LINE
  8
0
 10
9.98695
 20
22.3827
 11
10.0141
 21
22.309
  0
LINE
  8
0
 10
10.0141
 20
22.309
 11
10.0354
 21
22.2334
  0
LINE
  8
0
 10
10.0354
 20
22.2334
 11
10.0508
 21
22.1564
  0
LINE
  8
0
 10
10.0508
 20
22.1564
 11
10.06
 21
22.0784
  0
LINE
  8
0
 10
10.06
 20
22.0784
 11
10.0631
 21
22
  0
LINE
  8
0
 10
10.0631
 20
22
 11
10.0631
 21
18.8
  0
LINE
  8
0
 10
10.0631
 20
18.8
 11
10.06
 21
18.7215
  0
LINE
  8
0
 10
10.06
 20
18.7215
 11
10.0508
 21
18.6436
  0
LINE
  8
0
 10
10.0508
 20
18.6436
 11
10.0354
 21
18.5666
  0
LINE
  8
0
 10
10.0354
 20
18.5666
 11
10.0141
 21
18.491
  0
LINE
  8
0
 10
10.0141
 20
18.491
 11
9.98695
 21
18.4173
  0
LINE
  8
0
 10
9.98695
 20
18.4173
 11
9.95409
 21
18.346
  0
LINE
  8
0
 10
9.95409
 20
18.346
 11
9.91571
 21
18.2775
  0
LINE
  8
0
 10
9.91571
 20
18.2775
 11
9.8721
 21
18.2122
  0
LINE
  8
0
 10
9.8721
 20
18.2122
 11
9.82349
 21
18.1506
  0
LINE
  8
0
 10
9.82349
 20
18.1506
 11
9.77019
 21
18.0929
  0
LINE
  8
0
 10
9.77019
 20
18.0929
 11
9.71252
 21
18.0396
  0
LINE
  8
0
 10
9.71252
 20
18.0396
 11
9.65086
 21
17.991
  0
LINE
  8
0
 10
9.65086
 20
17.991
 11
9.58557
 21
17.9474
  0
LINE
  8
0
 10
9.58557
 20
17.9474
 11
9.51707
 21
17.909
  0
LINE
  8
0
 10
9.51707
 20
17.909
 11
9.44576
 21
17.8761
  0
LINE
  8
0
 10
9.44576
 20
17.8761
 11
9.3721
 21
17.849
  0
LINE
  8
0
 10
9.3721
 20
17.849
 11
9.29652
 21
17.8276
  0
LINE
  8
0
 10
9.29652
 20
17.8276
 11
9.21951
 21
17.8123
  0
LINE
  8
0
 10
9.21951
 20
17.8123
 11
9.14154
 21
17.8031
  0
LINE
  8
0
 10
9.14154
 20
17.8031
 11
9.06308
 21
17.8
  0
LINE
  8
0
 10
9.06308
 20
17.8
 11
8.98462
 21
17.8031
  0
LINE
  8
0
 10
-34.6285
 20
17.8031
 11
-34.7064
 21
17.8123
  0
LINE
  8
0
 10
-34.7064
 20
17.8123
 11
-34.7834
 21
17.8276
  0
LINE
  8
0
 10
-34.7834
 20
17.8276
 11
-34.859
 21
17.849
  0
LINE
  8
0
 10
-34.859
 20
17.849
 11
-34.9327
 21
17.8761
  0
LINE
  8
0
 10
-34.9327
 20
17.8761
 11
-35.004
 21
17.909
  0
LINE
  8
0
 10
-35.004
 20
17.909
 11
-35.0725
 21
17.9474
  0
LINE
  8
0
 10
-35.0725
 20
17.9474
 11
-35.1378
 21
17.991
  0
LINE
  8
0
 10
-35.1378
 20
17.991
 11
-35.1994
 21
18.0396
  0
LINE
  8
0
 10
-35.1994
 20
18.0396
 11
-35.2571
 21
18.0929
  0
LINE
  8
0
 10
-35.2571
 20
18.0929
 11
-35.3104
 21
18.1506
  0
LINE
  8
0
 10
-35.3104
 20
18.1506
 11
-35.359
 21
18.2122
  0
LINE
  8
0
 10
-35.359
 20
18.2122
 11
-35.4026
 21
18.2775
  0
LINE
  8
0
 10
-35.4026
 20
18.2775
 11
-35.441
 21
18.346
  0
LINE
  8
0
 10
-35.441
 20
18.346
 11
-35.4739
 21
18.4173
  0
LINE
  8
0
 10
-35.4739
 20
18.4173
 11
-35.5011
 21
18.491
  0
LINE
  8
0
 10
-35.5011
 20
18.491
 11
-35.5224
 21
18.5666
  0
LINE
  8
0
 10
-35.5224
 20
18.5666
 11
-35.5377
 21
18.6436
  0
LINE
  8
0
 10
-35.5377
 20
18.6436
 11
-35.5469
 21
18.7215
  0
LINE
  8
0
 10
-35.5469
 20
18.7215
 11
-35.55
 21
18.8
  0
LINE
  8
0
 10
-35.55
 20
18.8
 11
-51.6762
 21
18.8
  0
LINE
  8
0
 10
-51.6762
 20
18.8
 11
-51.6793
 21
18.7215
  0
LINE
  8
0
 10
-51.6793
 20
18.7215
 11
-51.6885
 21
18.6436
  0
LINE
  8
0
 10
-51.6885
 20
18.6436
 11
-51.7038
 21
18.5666
  0
LINE
  8
0
 10
-51.7038
 20
18.5666
 11
-51.7251
 21
18.491
  0
LINE
  8
0
 10
-51.7251
 20
18.491
 11
-51.7523
 21
18.4173
  0
LINE
  8
0
 10
-51.7523
 20
18.4173
 11
-51.7852
 21
18.346
  0
LINE
  8
0
 10
-51.7852
 20
18.346
 11
-51.8236
 21
18.2775
  0
LINE
  8
0
 10
-51.8236
 20
18.2775
 11
-51.8672
 21
18.2122
  0
LINE
  8
0
 10
-51.8672
 20
18.2122
 11
-51.9158
 21
18.1506
  0
LINE
  8
0
 10
-51.9158
 20
18.1506
 11
-51.9691
 21
18.0929
  0
LINE
  8
0
 10
-51.9691
 20
18.0929
 11
-52.0267
 21
18.0396
  0
LINE
  8
0
 10
-52.0267
 20
18.0396
 11
-52.0884
 21
17.991
  0
LINE
  8
0
 10
-52.0884
 20
17.991
 11
-52.1537
 21
17.9474
  0
LINE
  8
0
 10
-52.1537
 20
17.9474
 11
-52.2222
 21
17.909
  0
LINE
  8
0
 10
-52.2222
 20
17.909
 11
-52.2935
 21
17.8761
  0
LINE
  8
0
 10
-52.2935
 20
17.8761
 11
-52.3672
 21
17.849
  0
LINE
  8
0
 10
-52.3672
 20
17.849
 11
-52.4428
 21
17.8276
  0
LINE
  8
0
 10
-52.4428
 20
17.8276
 11
-52.5198
 21
17.8123
  0
LINE
  8
0
 10
-52.5198
 20
17.8123
 11
-52.5977
 21
17.8031
  0
LINE
  8
0
 10
-52.5977
 20
17.8031
 11
-52.6762
 21
17.8
  0
LINE
  8
0
 10
-52.6762
 20
17.8
 11
-52.7547
 21
17.8031
  0
LINE
  8
0
 10
-52.7547
 20
17.8031
 11
-52.8326
 21
17.8123
  0
LINE
  8
0
 10
-52.8326
 20
17.8123
 11
-52.9097
 21
17.8276
  0
LINE
  8
0
 10
-52.9097
 20
17.8276
 11
-52.9852
 21
17.849
  0
LINE
  8
0
 10
-52.9852
 20
17.849
 11
-53.0589
 21
17.8761
  0
LINE
  8
0
 10
-53.0589
 20
17.8761
 11
-53.1302
 21
17.909
  0
LINE
  8
0
 10
-53.1302
 20
17.909
 11
-53.1987
 21
17.9474
  0
LINE
  8
0
 10
-53.1987
 20
17.9474
 11
-53.264
 21
17.991
  0
LINE
  8
0
 10
-53.264
 20
17.991
 11
-53.3257
 21
18.0396
  0
LINE
  8
0
 10
-53.3257
 20
18.0396
 11
-53.3833
 21
18.0929
  0
LINE
  8
0
 10
-53.3833
 20
18.0929
 11
-53.4366
 21
18.1506
  0
LINE
  8
0
 10
-53.4366
 20
18.1506
 11
-53.4852
 21
18.2122
  0
LINE
  8
0
 10
-53.4852
 20
18.2122
 11
-53.5288
 21
18.2775
  0
LINE
  8
0
 10
-53.5288
 20
18.2775
 11
-53.5672
 21
18.346
  0
LINE
  8
0
 10
-53.5672
 20
18.346
 11
-53.6001
 21
18.4173
  0
LINE
  8
0
 10
-53.6001
 20
18.4173
 11
-53.6273
 21
18.491
  0
LINE
  8
0
 10
-53.6273
 20
18.491
 11
-53.6486
 21
18.5666
  0
LINE
  8
0
 10
-53.6486
 20
18.5666
 11
-53.6639
 21
18.6436
  0
LINE
  8
0
 10
-53.6639
 20
18.6436
 11
-53.6731
 21
18.7215
  0
LINE
  8
0
 10
-53.6731
 20
18.7215
 11
-53.6762
 21
18.8
  0
LINE
  8
0
 10
-53.6762
 20
18.8
 11
-53.6762
 21
22
  0
LINE
  8
0
 10
-53.6762
 20
22
 11
-53.6731
 21
22.0784
  0
LINE
  8
0
 10
-53.6731
 20
22.0784
 11
-53.6639
 21
22.1564
  0
LINE
  8
0
 10
-53.6639
 20
22.1564
 11
-53.6486
 21
22.2334
  0
LINE
  8
0
 10
-53.6486
 20
22.2334
 11
-53.6273
 21
22.309
  0
LINE
  8
0
 10
-53.6273
 20
22.309
 11
-53.6001
 21
22.3827
  0
LINE
  8
0
 10
-53.6001
 20
22.3827
 11
-53.5672
 21
22.454
  0
LINE
  8
0
 10
-53.5672
 20
22.454
 11
-53.5288
 21
22.5225
  0
LINE
  8
0
 10
-53.5288
 20
22.5225
 11
-53.4852
 21
22.5878
  0
LINE
  8
0
 10
-53.4852
 20
22.5878
 11
-53.4366
 21
22.6494
  0
LINE
  8
0
 10
-53.4366
 20
22.6494
 11
-53.3833
 21
22.7071
  0
LINE
  8
0
 10
-53.3833
 20
22.7071
 11
-53.3257
 21
22.7604
  0
LINE
  8
0
 10
-53.3257
 20
22.7604
 11
-53.264
 21
22.809
  0
LINE
  8
0
 10
-53.264
 20
22.809
 11
-53.1987
 21
22.8526
  0
LINE
  8
0
 10
-53.1987
 20
22.8526
 11
-53.1302
 21
22.891
  0
LINE
  8
0
 10
-53.1302
 20
22.891
 11
-53.0589
 21
22.9239
  0
LINE
  8
0
 10
-53.0589
 20
22.9239
 11
-52.9852
 21
22.951
  0
LINE
  8
0
 10
-52.9852
 20
22.951
 11
-52.9097
 21
22.9724
  0
LINE
  8
0
 10
-52.9097
 20
22.9724
 11
-52.8326
 21
22.9877
  0
LINE
  8
0
 10
-52.8326
 20
22.9877
 11
-52.7547
 21
22.9969
  0
LINE
  8
0
 10
-52.7547
 20
22.9969
 11
-52.6762
 21
23
  0
LINE
  8
0
 10
-52.6762
 20
23
 11
-52.5977
 21
22.9969
  0
LINE
  8
0
 10
-52.5977
 20
22.9969
 11
-52.5198
 21
22.9877
  0
LINE
  8
0
 10
-52.5198
 20
22.9877
 11
-52.4428
 21
22.9724
  0
LINE
  8
0
 10
-52.4428
 20
22.9724
 11
-52.3672
 21
22.951
  0
LINE
  8
0
 10
-52.3672
 20
22.951
 11
-52.2935
 21
22.9239
  0
LINE
  8
0
 10
-52.2935
 20
22.9239
 11
-52.2222
 21
22.891
  0
LINE
  8
0
 10
-52.2222
 20
22.891
 11
-52.1537
 21
22.8526
  0
LINE
  8
0
 10
-52.1537
 20
22.8526
 11
-52.0884
 21
22.809
  0
LINE
  8
0
 10
-52.0884
 20
22.809
 11
-52.0267
 21
22.7604
  0
LINE
  8
0
 10
-52.0267
 20
22.7604
 11
-51.9691
 21
22.7071
  0
LINE
  8
0
 10
-51.9691
 20
22.7071
 11
-51.9158
 21
22.6494
  0
LINE
  8
0
 10
-51.9158
 20
22.6494
 11
-51.8672
 21
22.5878
  0
LINE
  8
0
 10
-51.8672
 20
22.5878
 11
-51.8236
 21
22.5225
  0
LINE
  8
0
 10
-51.8236
 20
22.5225
 11
-51.7852
 21
22.454
  0
LINE
  8
0
 10
-51.7852
 20
22.454
 11
-51.7523
 21
22.3827
  0
LINE
  8
0
 10
-51.7523
 20
22.3827
 11
-51.7251
 21
22.309
  0
LINE
  8
0
 10
-51.7251
 20
22.309
 11
-51.7038
 21
22.2334
  0
LINE
  8
0
 10
-51.7038
 20
22.2334
 11
-51.6885
 21
22.1564
  0
LINE
  8
0
 10
-51.6885
 20
22.1564
 11
-51.6793
 21
22.0784
  0
LINE
  8
0
 10
-51.6793
 20
22.0784
 11
-51.6762
 21
22
  0
LINE
  8
0
 10
-51.6762
 20
22
 11
-35.55
 21
22
  0
LINE
  8
0
 10
-35.55
 20
22
 11
-35.5469
 21
22.0784
  0
LINE
  8
0
 10
-35.5469
 20
22.0784
 11
-35.5377
 21
22.1564
  0
LINE
  8
0
 10
-35.5377
 20
22.1564
 11
-35.5224
 21
22.2334
  0
LINE
  8
0
 10
-35.5224
 20
22.2334
 11
-35.5011
 21
22.309
  0
LINE
  8
0
 10
-35.5011
 20
22.309
 11
-35.4739
 21
22.3827
  0
LINE
  8
0
 10
-35.4739
 20
22.3827
 11
-35.441
 21
22.454
  0
LINE
  8
0
 10
-35.441
 20
22.454
 11
-35.4026
 21
22.5225
  0
LINE
  8
0
 10
-35.4026
 20
22.5225
 11
-35.359
 21
22.5878
  0
LINE
  8
0
 10
-35.359
 20
22.5878
 11
-35.3104
 21
22.6494
  0
LINE
  8
0
 10
-35.3104
 20
22.6494
 11
-35.2571
 21
22.7071
  0
LINE
  8
0
 10
-35.2571
 20
22.7071
 11
-35.1994
 21
22.7604
  0
LINE
  8
0
 10
-35.1994
 20
22.7604
 11
-35.1378
 21
22.809
  0
LINE
  8
0
 10
-35.1378
 20
22.809
 11
-35.0725
 21
22.8526
  0
LINE
  8
0
 10
-35.0725
 20
22.8526
 11
-35.004
 21
22.891
  0
LINE
  8
0
 10
-35.004
 20
22.891
 11
-34.9327
 21
22.9239
  0
LINE
  8
0
 10
-34.9327
 20
22.9239
 11
-34.859
 21
22.951
  0
LINE
  8
0
 10
-34.859
 20
22.951
 11
-34.7834
 21
22.9724
  0
LINE
  8
0
 10
-34.7834
 20
22.9724
 11
-34.7064
 21
22.9877
  0
LINE
  8
0
 10
-34.7064
 20
22.9877
 11
-34.6285
 21
22.9969
  0
LINE
  8
0
 10
-34.6285
 20
22.9969
 11
-34.55
 21
23
  0
LINE
  8
0
 10
-34.55
 20
23
 11
-34.4715
 21
22.9969
  0
LINE
  8
0
 10
-34.4715
 20
22.9969
 11
-34.3936
 21
22.9877
  0
LINE
  8
0
 10
-34.3936
 20
22.9877
 11
-34.3166
 21
22.9724
  0
LINE
  8
0
 10
-34.3166
 20
22.9724
 11
-34.241
 21
22.951
  0
LINE
  8
0
 10
-34.241
 20
22.951
 11
-34.1673
 21
22.9239
  0
LINE
  8
0
 10
-34.1673
 20
22.9239
 11
-34.096
 21
22.891
  0
LINE
  8
0
 10
-34.096
 20
22.891
 11
-34.0275
 21
22.8526
  0
LINE
  8
0
 10
-34.0275
 20
22.8526
 11
-33.9622
 21
22.809
  0
LINE
  8
0
 10
-33.9622
 20
22.809
 11
-33.9006
 21
22.7604
  0
LINE
  8
0
 10
-33.9006
 20
22.7604
 11
-33.8429
 21
22.7071
  0
LINE
  8
0
 10
-33.8429
 20
22.7071
 11
-33.7896
 21
22.6494
  0
LINE
  8
0
 10
-33.7896
 20
22.6494
 11
-33.741
 21
22.5878
  0
LINE
  8
0
 10
-33.741
 20
22.5878
 11
-33.6974
 21
22.5225
  0
LINE
  8
0
 10
-33.6974
 20
22.5225
 11
-33.659
 21
22.454
  0
LINE
  8
0
 10
-33.659
 20
22.454
 11
-33.6261
 21
22.3827
  0
LINE
  8
0
 10
-33.6261
 20
22.3827
 11
-33.599
 21
22.309
  0
LINE
  8
0
 10
-33.599
 20
22.309
 11
-33.5776
 21
22.2334
  0
LINE
  8
0
 10
-33.5776
 20
22.2334
 11
-33.5623
 21
22.1564
  0
LINE
  8
0
 10
-33.5623
 20
22.1564
 11
-33.5531
 21
22.0784
  0
LINE
  8
0
 10
-33.5531
 20
22.0784
 11
-33.55
 21
22
  0
LINE
  8
0
 10
-33.55
 20
22
 11
-33.55
 21
18.8
  0
LINE
  8
0
 10
-33.55
 20
18.8
 11
-33.5531
 21
18.7215
  0
LINE
  8
0
 10
-33.5531
 20
18.7215
 11
-33.5623
 21
18.6436
  0
LINE
  8
0
 10
-33.5623
 20
18.6436
 11
-33.5776
 21
18.5666
  0
LINE
  8
0
 10
-33.5776
 20
18.5666
 11
-33.599
 21
18.491
  0
LINE
  8
0
 10
-33.599
 20
18.491
 11
-33.6261
 21
18.4173
  0
LINE
  8
0
 10
-33.6261
 20
18.4173
 11
-33.659
 21
18.346
  0
LINE
  8
0
 10
-33.659
 20
18.346
 11
-33.6974
 21
18.2775
  0
LINE
  8
0
 10
-33.6974
 20
18.2775
 11
-33.741
 21
18.2122
  0
LINE
  8
0
 10
-33.741
 20
18.2122
 11
-33.7896
 21
18.1506
  0
LINE
  8
0
 10
-33.7896
 20
18.1506
 11
-33.8429
 21
18.0929
  0
LINE
  8
0
 10
-33.8429
 20
18.0929
 11
-33.9006
 21
18.0396
  0
LINE
  8
0
 10
-33.9006
 20
18.0396
 11
-33.9622
 21
17.991
  0
LINE
  8
0
 10
-33.9622
 20
17.991
 11
-34.0275
 21
17.9474
  0
LINE
  8
0
 10
-34.0275
 20
17.9474
 11
-34.096
 21
17.909
  0
LINE
  8
0
 10
-34.096
 20
17.909
 11
-34.1673
 21
17.8761
  0
LINE
  8
0
 10
-34.1673
 20
17.8761
 11
-34.241
 21
17.849
  0
LINE
  8
0
 10
-34.241
 20
17.849
 11
-34.3166
 21
17.8276
  0
LINE
  8
0
 10
-34.3166
 20
17.8276
 11
-34.3936
 21
17.8123
  0
LINE
  8
0
 10
-34.3936
 20
17.8123
 11
-34.4715
 21
17.8031
  0
LINE
  8
0
 10
-34.4715
 20
17.8031
 11
-34.55
 21
17.8
  0
LINE
  8
0
 10
-34.55
 20
17.8
 11
-34.6285
 21
17.8031
  0
LINE
  8
0
 10
52.5977
 20
17.8031
 11
52.5198
 21
17.8123
  0
LINE
  8
0
 10
52.5198
 20
17.8123
 11
52.4427
 21
17.8276
  0
LINE
  8
0
 10
52.4427
 20
17.8276
 11
52.3672
 21
17.849
  0
LINE
  8
0
 10
52.3672
 20
17.849
 11
52.2935
 21
17.8761
  0
LINE
  8
0
 10
52.2935
 20
17.8761
 11
52.2222
 21
17.909
  0
LINE
  8
0
 10
52.2222
 20
17.909
 11
52.1537
 21
17.9474
  0
LINE
  8
0
 10
52.1537
 20
17.9474
 11
52.0884
 21
17.991
  0
LINE
  8
0
 10
52.0884
 20
17.991
 11
52.0267
 21
18.0396
  0
LINE
  8
0
 10
52.0267
 20
18.0396
 11
51.9691
 21
18.0929
  0
LINE
  8
0
 10
51.9691
 20
18.0929
 11
51.9158
 21
18.1506
  0
LINE
  8
0
 10
51.9158
 20
18.1506
 11
51.8672
 21
18.2122
  0
LINE
  8
0
 10
51.8672
 20
18.2122
 11
51.8235
 21
18.2775
  0
LINE
  8
0
 10
51.8235
 20
18.2775
 11
51.7852
 21
18.346
  0
LINE
  8
0
 10
51.7852
 20
18.346
 11
51.7523
 21
18.4173
  0
LINE
  8
0
 10
51.7523
 20
18.4173
 11
51.7251
 21
18.491
  0
LINE
  8
0
 10
51.7251
 20
18.491
 11
51.7038
 21
18.5666
  0
LINE
  8
0
 10
51.7038
 20
18.5666
 11
51.6885
 21
18.6436
  0
LINE
  8
0
 10
51.6885
 20
18.6436
 11
51.6793
 21
18.7215
  0
LINE
  8
0
 10
51.6793
 20
18.7215
 11
51.6762
 21
18.8
  0
LINE
  8
0
 10
51.6762
 20
18.8
 11
35.55
 21
18.8
  0
LINE
  8
0
 10
35.55
 20
18.8
 11
35.5469
 21
18.7215
  0
LINE
  8
0
 10
35.5469
 20
18.7215
 11
35.5377
 21
18.6436
  0
LINE
  8
0
 10
35.5377
 20
18.6436
 11
35.5224
 21
18.5666
  0
LINE
  8
0
 10
35.5224
 20
18.5666
 11
35.5011
 21
18.491
  0
LINE
  8
0
 10
35.5011
 20
18.491
 11
35.4739
 21
18.4173
  0
LINE
  8
0
 10
35.4739
 20
18.4173
 11
35.441
 21
18.346
  0
LINE
  8
0
 10
35.441
 20
18.346
 11
35.4026
 21
18.2775
  0
LINE
  8
0
 10
35.4026
 20
18.2775
 11
35.359
 21
18.2122
  0
LINE
  8
0
 10
35.359
 20
18.2122
 11
35.3104
 21
18.1506
  0
LINE
  8
0
 10
35.3104
 20
18.1506
 11
35.2571
 21
18.0929
  0
LINE
  8
0
 10
35.2571
 20
18.0929
 11
35.1994
 21
18.0396
  0
LINE
  8
0
 10
35.1994
 20
18.0396
 11
35.1378
 21
17.991
  0
LINE
  8
0
 10
35.1378
 20
17.991
 11
35.0725
 21
17.9474
  0
LINE
  8
0
 10
35.0725
 20
17.9474
 11
35.004
 21
17.909
  0
LINE
  8
0
 10
35.004
 20
17.909
 11
34.9327
 21
17.8761
  0
LINE
  8
0
 10
34.9327
 20
17.8761
 11
34.859
 21
17.849
  0
LINE
  8
0
 10
34.859
 20
17.849
 11
34.7834
 21
17.8276
  0
LINE
  8
0
 10
34.7834
 20
17.8276
 11
34.7064
 21
17.8123
  0
LINE
  8
0
 10
34.7064
 20
17.8123
 11
34.6284
 21
17.8031
  0
LINE
  8
0
 10
34.6284
 20
17.8031
 11
34.55
 21
17.8
  0
LINE
  8
0
 10
34.55
 20
17.8
 11
34.4715
 21
17.8031
  0
LINE
  8
0
 10
34.4715
 20
17.8031
 11
34.3936
 21
17.8123
  0
LINE
  8
0
 10
34.3936
 20
17.8123
 11
34.3165
 21
17.8276
  0
LINE
  8
0
 10
34.3165
 20
17.8276
 11
34.241
 21
17.849
  0
LINE
  8
0
 10
34.241
 20
17.849
 11
34.1673
 21
17.8761
  0
LINE
  8
0
 10
34.1673
 20
17.8761
 11
34.096
 21
17.909
  0
LINE
  8
0
 10
34.096
 20
17.909
 11
34.0275
 21
17.9474
  0
LINE
  8
0
 10
34.0275
 20
17.9474
 11
33.9622
 21
17.991
  0
LINE
  8
0
 10
33.9622
 20
17.991
 11
33.9005
 21
18.0396
  0
LINE
  8
0
 10
33.9005
 20
18.0396
 11
33.8429
 21
18.0929
  0
LINE
  8
0
 10
33.8429
 20
18.0929
 11
33.7896
 21
18.1506
  0
LINE
  8
0
 10
33.7896
 20
18.1506
 11
33.741
 21
18.2122
  0
LINE
  8
0
 10
33.741
 20
18.2122
 11
33.6974
 21
18.2775
  0
LINE
  8
0
 10
33.6974
 20
18.2775
 11
33.659
 21
18.346
  0
LINE
  8
0
 10
33.659
 20
18.346
 11
33.6261
 21
18.4173
  0
LINE
  8
0
 10
33.6261
 20
18.4173
 11
33.5989
 21
18.491
  0
LINE
  8
0
 10
33.5989
 20
18.491
 11
33.5776
 21
18.5666
  0
LINE
  8
0
 10
33.5776
 20
18.5666
 11
33.5623
 21
18.6436
  0
LINE
  8
0
 10
33.5623
 20
18.6436
 11
33.5531
 21
18.7215
  0
LINE
  8
0
 10
33.5531
 20
18.7215
 11
33.55
 21
18.8
  0
LINE
  8
0
 10
33.55
 20
18.8
 11
33.55
 21
22
  0
LINE
  8
0
 10
33.55
 20
22
 11
33.5531
 21
22.0784
  0
LINE
  8
0
 10
33.5531
 20
22.0784
 11
33.5623
 21
22.1564
  0
LINE
  8
0
 10
33.5623
 20
22.1564
 11
33.5776
 21
22.2334
  0
LINE
  8
0
 10
33.5776
 20
22.2334
 11
33.5989
 21
22.309
  0
LINE
  8
0
 10
33.5989
 20
22.309
 11
33.6261
 21
22.3827
  0
LINE
  8
0
 10
33.6261
 20
22.3827
 11
33.659
 21
22.454
  0
LINE
  8
0
 10
33.659
 20
22.454
 11
33.6974
 21
22.5225
  0
LINE
  8
0
 10
33.6974
 20
22.5225
 11
33.741
 21
22.5878
  0
LINE
  8
0
 10
33.741
 20
22.5878
 11
33.7896
 21
22.6494
  0
LINE
  8
0
 10
33.7896
 20
22.6494
 11
33.8429
 21
22.7071
  0
LINE
  8
0
 10
33.8429
 20
22.7071
 11
33.9005
 21
22.7604
  0
LINE
  8
0
 10
33.9005
 20
22.7604
 11
33.9622
 21
22.809
  0
LINE
  8
0
 10
33.9622
 20
22.809
 11
34.0275
 21
22.8526
  0
LINE
  8
0
 10
34.0275
 20
22.8526
 11
34.096
 21
22.891
  0
LINE
  8
0
 10
34.096
 20
22.891
 11
34.1673
 21
22.9239
  0
LINE
  8
0
 10
34.1673
 20
22.9239
 11
34.241
 21
22.951
  0
LINE
  8
0
 10
34.241
 20
22.951
 11
34.3165
 21
22.9724
  0
LINE
  8
0
 10
34.3165
 20
22.9724
 11
34.3936
 21
22.9877
  0
LINE
  8
0
 10
34.3936
 20
22.9877
 11
34.4715
 21
22.9969
  0
LINE
  8
0
 10
34.4715
 20
22.9969
 11
34.55
 21
23
  0
LINE
  8
0
 10
34.55
 20
23
 11
34.6284
 21
22.9969
  0
LINE
  8
0
 10
34.6284
 20
22.9969
 11
34.7064
 21
22.9877
  0
LINE
  8
0
 10
34.7064
 20
22.9877
 11
34.7834
 21
22.9724
  0
LINE
  8
0
 10
34.7834
 20
22.9724
 11
34.859
 21
22.951
  0
LINE
  8
0
 10
34.859
 20
22.951
 11
34.9327
 21
22.9239
  0
LINE
  8
0
 10
34.9327
 20
22.9239
 11
35.004
 21
22.891
  0
LINE
  8
0
 10
35.004
 20
22.891
 11
35.0725
 21
22.8526
  0
LINE
  8
0
 10
35.0725
 20
22.8526
 11
35.1378
 21
22.809
  0
LINE
  8
0
 10
35.1378
 20
22.809
 11
35.1994
 21
22.7604
  0
LINE
  8
0
 10
35.1994
 20
22.7604
 11
35.2571
 21
22.7071
  0
LINE
  8
0
 10
35.2571
 20
22.7071
 11
35.3104
 21
22.6494
  0
LINE
  8
0
 10
35.3104
 20
22.6494
 11
35.359
 21
22.5878
  0
LINE
  8
0
 10
35.359
 20
22.5878
 11
35.4026
 21
22.5225
  0
LINE
  8
0
 10
35.4026
 20
22.5225
 11
35.441
 21
22.454
  0
LINE
  8
0
 10
35.441
 20
22.454
 11
35.4739
 21
22.3827
  0
LINE
  8
0
 10
35.4739
 20
22.3827
 11
35.5011
 21
22.309
  0
LINE
  8
0
 10
35.5011
 20
22.309
 11
35.5224
 21
22.2334
  0
LINE
  8
0
 10
35.5224
 20
22.2334
 11
35.5377
 21
22.1564
  0
LINE
  8
0
 10
35.5377
 20
22.1564
 11
35.5469
 21
22.0784
  0
LINE
  8
0
 10
35.5469
 20
22.0784
 11
35.55
 21
22
  0
LINE
  8
0
 10
35.55
 20
22
 11
51.6762
 21
22
  0
LINE
  8
0
 10
51.6762
 20
22
 11
51.6793
 21
22.0784
  0
LINE
  8
0
 10
51.6793
 20
22.0784
 11
51.6885
 21
22.1564
  0
LINE
  8
0
 10
51.6885
 20
22.1564
 11
51.7038
 21
22.2334
  0
LINE
  8
0
 10
51.7038
 20
22.2334
 11
51.7251
 21
22.309
  0
LINE
  8
0
 10
51.7251
 20
22.309
 11
51.7523
 21
22.3827
  0
LINE
  8
0
 10
51.7523
 20
22.3827
 11
51.7852
 21
22.454
  0
LINE
  8
0
 10
51.7852
 20
22.454
 11
51.8235
 21
22.5225
  0
LINE
  8
0
 10
51.8235
 20
22.5225
 11
51.8672
 21
22.5878
  0
LINE
  8
0
 10
51.8672
 20
22.5878
 11
51.9158
 21
22.6494
  0
LINE
  8
0
 10
51.9158
 20
22.6494
 11
51.9691
 21
22.7071
  0
LINE
  8
0
 10
51.9691
 20
22.7071
 11
52.0267
 21
22.7604
  0
LINE
  8
0
 10
52.0267
 20
22.7604
 11
52.0884
 21
22.809
  0
LINE
  8
0
 10
52.0884
 20
22.809
 11
52.1537
 21
22.8526
  0
LINE
  8
0
 10
52.1537
 20
22.8526
 11
52.2222
 21
22.891
  0
LINE
  8
0
 10
52.2222
 20
22.891
 11
52.2935
 21
22.9239
  0
LINE
  8
0
 10
52.2935
 20
22.9239
 11
52.3672
 21
22.951
  0
LINE
  8
0
 10
52.3672
 20
22.951
 11
52.4427
 21
22.9724
  0
LINE
  8
0
 10
52.4427
 20
22.9724
 11
52.5198
 21
22.9877
  0
LINE
  8
0
 10
52.5198
 20
22.9877
 11
52.5977
 21
22.9969
  0
LINE
  8
0
 10
52.5977
 20
22.9969
 11
52.6762
 21
23
  0
LINE
  8
0
 10
52.6762
 20
23
 11
52.7547
 21
22.9969
  0
LINE
  8
0
 10
52.7547
 20
22.9969
 11
52.8326
 21
22.9877
  0
LINE
  8
0
 10
52.8326
 20
22.9877
 11
52.9096
 21
22.9724
  0
LINE
  8
0
 10
52.9096
 20
22.9724
 11
52.9852
 21
22.951
  0
LINE
  8
0
 10
52.9852
 20
22.951
 11
53.0589
 21
22.9239
  0
LINE
  8
0
 10
53.0589
 20
22.9239
 11
53.1302
 21
22.891
  0
LINE
  8
0
 10
53.1302
 20
22.891
 11
53.1987
 21
22.8526
  0
LINE
  8
0
 10
53.1987
 20
22.8526
 11
53.264
 21
22.809
  0
LINE
  8
0
 10
53.264
 20
22.809
 11
53.3256
 21
22.7604
  0
LINE
  8
0
 10
53.3256
 20
22.7604
 11
53.3833
 21
22.7071
  0
LINE
  8
0
 10
53.3833
 20
22.7071
 11
53.4366
 21
22.6494
  0
LINE
  8
0
 10
53.4366
 20
22.6494
 11
53.4852
 21
22.5878
  0
LINE
  8
0
 10
53.4852
 20
22.5878
 11
53.5288
 21
22.5225
  0
LINE
  8
0
 10
53.5288
 20
22.5225
 11
53.5672
 21
22.454
  0
LINE
  8
0
 10
53.5672
 20
22.454
 11
53.6001
 21
22.3827
  0
LINE
  8
0
 10
53.6001
 20
22.3827
 11
53.6272
 21
22.309
  0
LINE
  8
0
 10
53.6272
 20
22.309
 11
53.6486
 21
22.2334
  0
LINE
  8
0
 10
53.6486
 20
22.2334
 11
53.6639
 21
22.1564
  0
LINE
  8
0
 10
53.6639
 20
22.1564
 11
53.6731
 21
22.0784
  0
LINE
  8
0
 10
53.6731
 20
22.0784
 11
53.6762
 21
22
  0
LINE
  8
0
 10
53.6762
 20
22
 11
53.6762
 21
18.8
  0
LINE
  8
0
 10
53.6762
 20
18.8
 11
53.6731
 21
18.7215
  0
LINE
  8
0
 10
53.6731
 20
18.7215
 11
53.6639
 21
18.6436
  0
LINE
  8
0
 10
53.6639
 20
18.6436
 11
53.6486
 21
18.5666
  0
LINE
  8
0
 10
53.6486
 20
18.5666
 11
53.6272
 21
18.491
  0
LINE
  8
0
 10
53.6272
 20
18.491
 11
53.6001
 21
18.4173
  0
LINE
  8
0
 10
53.6001
 20
18.4173
 11
53.5672
 21
18.346
  0
LINE
  8
0
 10
53.5672
 20
18.346
 11
53.5288
 21
18.2775
  0
LINE
  8
0
 10
53.5288
 20
18.2775
 11
53.4852
 21
18.2122
  0
LINE
  8
0
 10
53.4852
 20
18.2122
 11
53.4366
 21
18.1506
  0
LINE
  8
0
 10
53.4366
 20
18.1506
 11
53.3833
 21
18.0929
  0
LINE
  8
0
 10
53.3833
 20
18.0929
 11
53.3256
 21
18.0396
  0
LINE
  8
0
 10
53.3256
 20
18.0396
 11
53.264
 21
17.991
  0
LINE
  8
0
 10
53.264
 20
17.991
 11
53.1987
 21
17.9474
  0
LINE
  8
0
 10
53.1987
 20
17.9474
 11
53.1302
 21
17.909
  0
LINE
  8
0
 10
53.1302
 20
17.909
 11
53.0589
 21
17.8761
  0
LINE
  8
0
 10
53.0589
 20
17.8761
 11
52.9852
 21
17.849
  0
LINE
  8
0
 10
52.9852
 20
17.849
 11
52.9096
 21
17.8276
  0
LINE
  8
0
 10
52.9096
 20
17.8276
 11
52.8326
 21
17.8123
  0
LINE
  8
0
 10
52.8326
 20
17.8123
 11
52.7547
 21
17.8031
  0
LINE
  8
0
 10
52.7547
 20
17.8031
 11
52.6762
 21
17.8
  0
LINE
  8
0
 10
52.6762
 20
17.8
 11
52.5977
 21
17.8031
  0
LINE
  8
0
 10
24.4544
 20
15.1154
 11
24.2637
 21
15.1612
  0
LINE
  8
0
 10
24.2637
 20
15.1612
 11
24.0825
 21
15.2363
  0
LINE
  8
0
 10
24.0825
 20
15.2363
 11
23.9153
 21
15.3387
  0
LINE
  8
0
 10
23.9153
 20
15.3387
 11
23.7661
 21
15.4661
  0
LINE
  8
0
 10
23.7661
 20
15.4661
 11
23.6387
 21
15.6153
  0
LINE
  8
0
 10
23.6387
 20
15.6153
 11
23.5362
 21
15.7825
  0
LINE
  8
0
 10
23.5362
 20
15.7825
 11
23.4612
 21
15.9637
  0
LINE
  8
0
 10
23.4612
 20
15.9637
 11
23.4154
 21
16.1545
  0
LINE
  8
0
 10
23.4154
 20
16.1545
 11
23.4
 21
16.35
  0
LINE
  8
0
 10
23.4
 20
16.35
 11
23.4154
 21
16.5455
  0
LINE
  8
0
 10
23.4154
 20
16.5455
 11
23.4612
 21
16.7363
  0
LINE
  8
0
 10
23.4612
 20
16.7363
 11
23.5362
 21
16.9175
  0
LINE
  8
0
 10
23.5362
 20
16.9175
 11
23.6387
 21
17.0847
  0
LINE
  8
0
 10
23.6387
 20
17.0847
 11
23.7661
 21
17.2339
  0
LINE
  8
0
 10
23.7661
 20
17.2339
 11
23.9153
 21
17.3613
  0
LINE
  8
0
 10
23.9153
 20
17.3613
 11
24.0825
 21
17.4638
  0
LINE
  8
0
 10
24.0825
 20
17.4638
 11
24.2637
 21
17.5388
  0
LINE
  8
0
 10
24.2637
 20
17.5388
 11
24.4544
 21
17.5846
  0
LINE
  8
0
 10
24.4544
 20
17.5846
 11
24.65
 21
17.6
  0
LINE
  8
0
 10
24.65
 20
17.6
 11
24.8455
 21
17.5846
  0
LINE
  8
0
 10
24.8455
 20
17.5846
 11
25.0363
 21
17.5388
  0
LINE
  8
0
 10
25.0363
 20
17.5388
 11
25.2175
 21
17.4638
  0
LINE
  8
0
 10
25.2175
 20
17.4638
 11
25.3847
 21
17.3613
  0
LINE
  8
0
 10
25.3847
 20
17.3613
 11
25.5339
 21
17.2339
  0
LINE
  8
0
 10
25.5339
 20
17.2339
 11
25.6613
 21
17.0847
  0
LINE
  8
0
 10
25.6613
 20
17.0847
 11
25.7637
 21
16.9175
  0
LINE
  8
0
 10
25.7637
 20
16.9175
 11
25.8388
 21
16.7363
  0
LINE
  8
0
 10
25.8388
 20
16.7363
 11
25.8846
 21
16.5455
  0
LINE
  8
0
 10
25.8846
 20
16.5455
 11
25.9
 21
16.35
  0
LINE
  8
0
 10
25.9
 20
16.35
 11
25.8846
 21
16.1545
  0
LINE
  8
0
 10
25.8846
 20
16.1545
 11
25.8388
 21
15.9637
  0
LINE
  8
0
 10
25.8388
 20
15.9637
 11
25.7637
 21
15.7825
  0
LINE
  8
0
 10
25.7637
 20
15.7825
 11
25.6613
 21
15.6153
  0
LINE
  8
0
 10
25.6613
 20
15.6153
 11
25.5339
 21
15.4661
  0
LINE
  8
0
 10
25.5339
 20
15.4661
 11
25.3847
 21
15.3387
  0
LINE
  8
0
 10
25.3847
 20
15.3387
 11
25.2175
 21
15.2363
  0
LINE
  8
0
 10
25.2175
 20
15.2363
 11
25.0363
 21
15.1612
  0
LINE
  8
0
 10
25.0363
 20
15.1612
 11
24.8455
 21
15.1154
  0
LINE
  8
0
 10
24.8455
 20
15.1154
 11
24.65
 21
15.1
  0
LINE
  8
0
 10
24.65
 20
15.1
 11
24.4544
 21
15.1154
  0
LINE
  8
0
 10
-24.8455
 20
15.1154
 11
-25.0363
 21
15.1612
  0
LINE
  8
0
 10
-25.0363
 20
15.1612
 11
-25.2175
 21
15.2363
  0
LINE
  8
0
 10
-25.2175
 20
15.2363
 11
-25.3847
 21
15.3387
  0
LINE
  8
0
 10
-25.3847
 20
15.3387
 11
-25.5339
 21
15.4661
  0
LINE
  8
0
 10
-25.5339
 20
15.4661
 11
-25.6613
 21
15.6153
  0
LINE
  8
0
 10
-25.6613
 20
15.6153
 11
-25.7637
 21
15.7825
  0
LINE
  8
0
 10
-25.7637
 20
15.7825
 11
-25.8388
 21
15.9637
  0
LINE
  8
0
 10
-25.8388
 20
15.9637
 11
-25.8846
 21
16.1545
  0
LINE
  8
0
 10
-25.8846
 20
16.1545
 11
-25.9
 21
16.35
  0
LINE
  8
0
 10
-25.9
 20
16.35
 11
-25.8846
 21
16.5455
  0
LINE
  8
0
 10
-25.8846
 20
16.5455
 11
-25.8388
 21
16.7363
  0
LINE
  8
0
 10
-25.8388
 20
16.7363
 11
-25.7637
 21
16.9175
  0
LINE
  8
0
 10
-25.7637
 20
16.9175
 11
-25.6613
 21
17.0847
  0
LINE
  8
0
 10
-25.6613
 20
17.0847
 11
-25.5339
 21
17.2339
  0
LINE
  8
0
 10
-25.5339
 20
17.2339
 11
-25.3847
 21
17.3613
  0
LINE
  8
0
 10
-25.3847
 20
17.3613
 11
-25.2175
 21
17.4638
  0
LINE
  8
0
 10
-25.2175
 20
17.4638
 11
-25.0363
 21
17.5388
  0
LINE
  8
0
 10
-25.0363
 20
17.5388
 11
-24.8455
 21
17.5846
  0
LINE
  8
0
 10
-24.8455
 20
17.5846
 11
-24.65
 21
17.6
  0
LINE
  8
0
 10
-24.65
 20
17.6
 11
-24.4545
 21
17.5846
  0
LINE
  8
0
 10
-24.4545
 20
17.5846
 11
-24.2637
 21
17.5388
  0
LINE
  8
0
 10
-24.2637
 20
17.5388
 11
-24.0825
 21
17.4638
  0
LINE
  8
0
 10
-24.0825
 20
17.4638
 11
-23.9153
 21
17.3613
  0
LINE
  8
0
 10
-23.9153
 20
17.3613
 11
-23.7661
 21
17.2339
  0
LINE
  8
0
 10
-23.7661
 20
17.2339
 11
-23.6387
 21
17.0847
  0
LINE
  8
0
 10
-23.6387
 20
17.0847
 11
-23.5362
 21
16.9175
  0
LINE
  8
0
 10
-23.5362
 20
16.9175
 11
-23.4612
 21
16.7363
  0
LINE
  8
0
 10
-23.4612
 20
16.7363
 11
-23.4154
 21
16.5455
  0
LINE
  8
0
 10
-23.4154
 20
16.5455
 11
-23.4
 21
16.35
  0
LINE
  8
0
 10
-23.4
 20
16.35
 11
-23.4154
 21
16.1545
  0
LINE
  8
0
 10
-23.4154
 20
16.1545
 11
-23.4612
 21
15.9637
  0
LINE
  8
0
 10
-23.4612
 20
15.9637
 11
-23.5362
 21
15.7825
  0
LINE
  8
0
 10
-23.5362
 20
15.7825
 11
-23.6387
 21
15.6153
  0
LINE
  8
0
 10
-23.6387
 20
15.6153
 11
-23.7661
 21
15.4661
  0
LINE
  8
0
 10
-23.7661
 20
15.4661
 11
-23.9153
 21
15.3387
  0
LINE
  8
0
 10
-23.9153
 20
15.3387
 11
-24.0825
 21
15.2363
  0
LINE
  8
0
 10
-24.0825
 20
15.2363
 11
-24.2637
 21
15.1612
  0
LINE
  8
0
 10
-24.2637
 20
15.1612
 11
-24.4545
 21
15.1154
  0
LINE
  8
0
 10
-24.4545
 20
15.1154
 11
-24.65
 21
15.1
  0
LINE
  8
0
 10
-24.65
 20
15.1
 11
-24.8455
 21
15.1154
  0
LINE
  8
0
 10
-38.6564
 20
15.0123
 11
-38.809
 21
15.049
  0
LINE
  8
0
 10
-38.809
 20
15.049
 11
-38.954
 21
15.109
  0
LINE
  8
0
 10
-38.954
 20
15.109
 11
-39.0878
 21
15.191
  0
LINE
  8
0
 10
-39.0878
 20
15.191
 11
-39.2071
 21
15.2929
  0
LINE
  8
0
 10
-39.2071
 20
15.2929
 11
-39.309
 21
15.4122
  0
LINE
  8
0
 10
-39.309
 20
15.4122
 11
-39.391
 21
15.546
  0
LINE
  8
0
 10
-39.391
 20
15.546
 11
-39.451
 21
15.691
  0
LINE
  8
0
 10
-39.451
 20
15.691
 11
-39.4877
 21
15.8436
  0
LINE
  8
0
 10
-39.4877
 20
15.8436
 11
-39.5
 21
16
  0
LINE
  8
0
 10
-39.5
 20
16
 11
-39.4877
 21
16.1564
  0
LINE
  8
0
 10
-39.4877
 20
16.1564
 11
-39.451
 21
16.309
  0
LINE
  8
0
 10
-39.451
 20
16.309
 11
-39.391
 21
16.454
  0
LINE
  8
0
 10
-39.391
 20
16.454
 11
-39.309
 21
16.5878
  0
LINE
  8
0
 10
-39.309
 20
16.5878
 11
-39.2071
 21
16.7071
  0
LINE
  8
0
 10
-39.2071
 20
16.7071
 11
-39.0878
 21
16.809
  0
LINE
  8
0
 10
-39.0878
 20
16.809
 11
-38.954
 21
16.891
  0
LINE
  8
0
 10
-38.954
 20
16.891
 11
-38.809
 21
16.9511
  0
LINE
  8
0
 10
-38.809
 20
16.9511
 11
-38.6564
 21
16.9877
  0
LINE
  8
0
 10
-38.6564
 20
16.9877
 11
-38.5
 21
17
  0
LINE
  8
0
 10
-38.5
 20
17
 11
-38.3436
 21
16.9877
  0
LINE
  8
0
 10
-38.3436
 20
16.9877
 11
-38.191
 21
16.9511
  0
LINE
  8
0
 10
-38.191
 20
16.9511
 11
-38.046
 21
16.891
  0
LINE
  8
0
 10
-38.046
 20
16.891
 11
-37.9122
 21
16.809
  0
LINE
  8
0
 10
-37.9122
 20
16.809
 11
-37.7929
 21
16.7071
  0
LINE
  8
0
 10
-37.7929
 20
16.7071
 11
-37.691
 21
16.5878
  0
LINE
  8
0
 10
-37.691
 20
16.5878
 11
-37.609
 21
16.454
  0
LINE
  8
0
 10
-37.609
 20
16.454
 11
-37.5489
 21
16.309
  0
LINE
  8
0
 10
-37.5489
 20
16.309
 11
-37.5123
 21
16.1564
  0
LINE
  8
0
 10
-37.5123
 20
16.1564
 11
-37.5
 21
16
  0
LINE
  8
0
 10
-37.5
 20
16
 11
-37.5123
 21
15.8436
  0
LINE
  8
0
 10
-37.5123
 20
15.8436
 11
-37.5489
 21
15.691
  0
LINE
  8
0
 10
-37.5489
 20
15.691
 11
-37.609
 21
15.546
  0
LINE
  8
0
 10
-37.609
 20
15.546
 11
-37.691
 21
15.4122
  0
LINE
  8
0
 10
-37.691
 20
15.4122
 11
-37.7929
 21
15.2929
  0
LINE
  8
0
 10
-37.7929
 20
15.2929
 11
-37.9122
 21
15.191
  0
LINE
  8
0
 10
-37.9122
 20
15.191
 11
-38.046
 21
15.109
  0
LINE
  8
0
 10
-38.046
 20
15.109
 11
-38.191
 21
15.049
  0
LINE
  8
0
 10
-38.191
 20
15.049
 11
-38.3436
 21
15.0123
  0
LINE
  8
0
 10
-38.3436
 20
15.0123
 11
-38.5
 21
15
  0
LINE
  8
0
 10
-38.5
 20
15
 11
-38.6564
 21
15.0123
  0
LINE
  8
0
 10
38.3435
 20
15.0123
 11
38.191
 21
15.0489
  0
LINE
  8
0
 10
38.191
 20
15.0489
 11
38.046
 21
15.109
  0
LINE
  8
0
 10
38.046
 20
15.109
 11
37.9122
 21
15.191
  0
LINE
  8
0
 10
37.9122
 20
15.191
 11
37.7929
 21
15.2929
  0
LINE
  8
0
 10
37.7929
 20
15.2929
 11
37.691
 21
15.4122
  0
LINE
  8
0
 10
37.691
 20
15.4122
 11
37.609
 21
15.546
  0
LINE
  8
0
 10
37.609
 20
15.546
 11
37.5489
 21
15.691
  0
LINE
  8
0
 10
37.5489
 20
15.691
 11
37.5123
 21
15.8436
  0
LINE
  8
0
 10
37.5123
 20
15.8436
 11
37.5
 21
16
  0
LINE
  8
0
 10
37.5
 20
16
 11
37.5123
 21
16.1564
  0
LINE
  8
0
 10
37.5123
 20
16.1564
 11
37.5489
 21
16.309
  0
LINE
  8
0
 10
37.5489
 20
16.309
 11
37.609
 21
16.454
  0
LINE
  8
0
 10
37.609
 20
16.454
 11
37.691
 21
16.5878
  0
LINE
  8
0
 10
37.691
 20
16.5878
 11
37.7929
 21
16.7071
  0
LINE
  8
0
 10
37.7929
 20
16.7071
 11
37.9122
 21
16.809
  0
LINE
  8
0
 10
37.9122
 20
16.809
 11
38.046
 21
16.891
  0
LINE
  8
0
 10
38.046
 20
16.891
 11
38.191
 21
16.951
  0
LINE
  8
0
 10
38.191
 20
16.951
 11
38.3435
 21
16.9877
  0
LINE
  8
0
 10
38.3435
 20
16.9877
 11
38.5
 21
17
  0
LINE
  8
0
 10
38.5
 20
17
 11
38.6564
 21
16.9877
  0
LINE
  8
0
 10
38.6564
 20
16.9877
 11
38.809
 21
16.951
  0
LINE
  8
0
 10
38.809
 20
16.951
 11
38.954
 21
16.891
  0
LINE
  8
0
 10
38.954
 20
16.891
 11
39.0878
 21
16.809
  0
LINE
  8
0
 10
39.0878
 20
16.809
 11
39.2071
 21
16.7071
  0
LINE
  8
0
 10
39.2071
 20
16.7071
 11
39.309
 21
16.5878
  0
LINE
  8
0
 10
39.309
 20
16.5878
 11
39.391
 21
16.454
  0
LINE
  8
0
 10
39.391
 20
16.454
 11
39.451
 21
16.309
  0
LINE
  8
0
 10
39.451
 20
16.309
 11
39.4877
 21
16.1564
  0
LINE
  8
0
 10
39.4877
 20
16.1564
 11
39.5
 21
16
  0
LINE
  8
0
 10
39.5
 20
16
 11
39.4877
 21
15.8436
  0
LINE
  8
0
 10
39.4877
 20
15.8436
 11
39.451
 21
15.691
  0
LINE
  8
0
 10
39.451
 20
15.691
 11
39.391
 21
15.546
  0
LINE
  8
0
 10
39.391
 20
15.546
 11
39.309
 21
15.4122
  0
LINE
  8
0
 10
39.309
 20
15.4122
 11
39.2071
 21
15.2929
  0
LINE
  8
0
 10
39.2071
 20
15.2929
 11
39.0878
 21
15.191
  0
LINE
  8
0
 10
39.0878
 20
15.191
 11
38.954
 21
15.109
  0
LINE
  8
0
 10
38.954
 20
15.109
 11
38.809
 21
15.0489
  0
LINE
  8
0
 10
38.809
 20
15.0489
 11
38.6564
 21
15.0123
  0
LINE
  8
0
 10
38.6564
 20
15.0123
 11
38.5
 21
15
  0
LINE
  8
0
 10
38.5
 20
15
 11
38.3435
 21
15.0123
  0
LINE
  8
0
 10
-39.3455
 20
11.1154
 11
-39.5363
 21
11.1612
  0
LINE
  8
0
 10
-39.5363
 20
11.1612
 11
-39.7175
 21
11.2363
  0
LINE
  8
0
 10
-39.7175
 20
11.2363
 11
-39.8847
 21
11.3387
  0
LINE
  8
0
 10
-39.8847
 20
11.3387
 11
-40.0339
 21
11.4661
  0
LINE
  8
0
 10
-40.0339
 20
11.4661
 11
-40.1613
 21
11.6153
  0
LINE
  8
0
 10
-40.1613
 20
11.6153
 11
-40.2637
 21
11.7825
  0
LINE
  8
0
 10
-40.2637
 20
11.7825
 11
-40.3388
 21
11.9637
  0
LINE
  8
0
 10
-40.3388
 20
11.9637
 11
-40.3846
 21
12.1545
  0
LINE
  8
0
 10
-40.3846
 20
12.1545
 11
-40.4
 21
12.35
  0
LINE
  8
0
 10
-40.4
 20
12.35
 11
-40.3846
 21
12.5455
  0
LINE
  8
0
 10
-40.3846
 20
12.5455
 11
-40.3388
 21
12.7363
  0
LINE
  8
0
 10
-40.3388
 20
12.7363
 11
-40.2637
 21
12.9175
  0
LINE
  8
0
 10
-40.2637
 20
12.9175
 11
-40.1613
 21
13.0847
  0
LINE
  8
0
 10
-40.1613
 20
13.0847
 11
-40.0339
 21
13.2339
  0
LINE
  8
0
 10
-40.0339
 20
13.2339
 11
-39.8847
 21
13.3613
  0
LINE
  8
0
 10
-39.8847
 20
13.3613
 11
-39.7175
 21
13.4638
  0
LINE
  8
0
 10
-39.7175
 20
13.4638
 11
-39.5363
 21
13.5388
  0
LINE
  8
0
 10
-39.5363
 20
13.5388
 11
-39.3455
 21
13.5846
  0
LINE
  8
0
 10
-39.3455
 20
13.5846
 11
-39.15
 21
13.6
  0
LINE
  8
0
 10
-39.15
 20
13.6
 11
-38.9545
 21
13.5846
  0
LINE
  8
0
 10
-38.9545
 20
13.5846
 11
-38.7637
 21
13.5388
  0
LINE
  8
0
 10
-38.7637
 20
13.5388
 11
-38.5825
 21
13.4638
  0
LINE
  8
0
 10
-38.5825
 20
13.4638
 11
-38.4153
 21
13.3613
  0
LINE
  8
0
 10
-38.4153
 20
13.3613
 11
-38.2661
 21
13.2339
  0
LINE
  8
0
 10
-38.2661
 20
13.2339
 11
-38.1387
 21
13.0847
  0
LINE
  8
0
 10
-38.1387
 20
13.0847
 11
-38.0362
 21
12.9175
  0
LINE
  8
0
 10
-38.0362
 20
12.9175
 11
-37.9612
 21
12.7363
  0
LINE
  8
0
 10
-37.9612
 20
12.7363
 11
-37.9154
 21
12.5455
  0
LINE
  8
0
 10
-37.9154
 20
12.5455
 11
-37.9
 21
12.35
  0
LINE
  8
0
 10
-37.9
 20
12.35
 11
-37.9154
 21
12.1545
  0
LINE
  8
0
 10
-37.9154
 20
12.1545
 11
-37.9612
 21
11.9637
  0
LINE
  8
0
 10
-37.9612
 20
11.9637
 11
-38.0362
 21
11.7825
  0
LINE
  8
0
 10
-38.0362
 20
11.7825
 11
-38.1387
 21
11.6153
  0
LINE
  8
0
 10
-38.1387
 20
11.6153
 11
-38.2661
 21
11.4661
  0
LINE
  8
0
 10
-38.2661
 20
11.4661
 11
-38.4153
 21
11.3387
  0
LINE
  8
0
 10
-38.4153
 20
11.3387
 11
-38.5825
 21
11.2363
  0
LINE
  8
0
 10
-38.5825
 20
11.2363
 11
-38.7637
 21
11.1612
  0
LINE
  8
0
 10
-38.7637
 20
11.1612
 11
-38.9545
 21
11.1154
  0
LINE
  8
0
 10
-38.9545
 20
11.1154
 11
-39.15
 21
11.1
  0
LINE
  8
0
 10
-39.15
 20
11.1
 11
-39.3455
 21
11.1154
  0
LINE
  8
0
 10
-10.3455
 20
11.1154
 11
-10.5363
 21
11.1612
  0
LINE
  8
0
 10
-10.5363
 20
11.1612
 11
-10.7175
 21
11.2363
  0
LINE
  8
0
 10
-10.7175
 20
11.2363
 11
-10.8847
 21
11.3387
  0
LINE
  8
0
 10
-10.8847
 20
11.3387
 11
-11.0339
 21
11.4661
  0
LINE
  8
0
 10
-11.0339
 20
11.4661
 11
-11.1613
 21
11.6153
  0
LINE
  8
0
 10
-11.1613
 20
11.6153
 11
-11.2637
 21
11.7825
  0
LINE
  8
0
 10
-11.2637
 20
11.7825
 11
-11.3388
 21
11.9637
  0
LINE
  8
0
 10
-11.3388
 20
11.9637
 11
-11.3846
 21
12.1545
  0
LINE
  8
0
 10
-11.3846
 20
12.1545
 11
-11.4
 21
12.35
  0
LINE
  8
0
 10
-11.4
 20
12.35
 11
-11.3846
 21
12.5455
  0
LINE
  8
0
 10
-11.3846
 20
12.5455
 11
-11.3388
 21
12.7363
  0
LINE
  8
0
 10
-11.3388
 20
12.7363
 11
-11.2637
 21
12.9175
  0
LINE
  8
0
 10
-11.2637
 20
12.9175
 11
-11.1613
 21
13.0847
  0
LINE
  8
0
 10
-11.1613
 20
13.0847
 11
-11.0339
 21
13.2339
  0
LINE
  8
0
 10
-11.0339
 20
13.2339
 11
-10.8847
 21
13.3613
  0
LINE
  8
0
 10
-10.8847
 20
13.3613
 11
-10.7175
 21
13.4638
  0
LINE
  8
0
 10
-10.7175
 20
13.4638
 11
-10.5363
 21
13.5388
  0
LINE
  8
0
 10
-10.5363
 20
13.5388
 11
-10.3455
 21
13.5846
  0
LINE
  8
0
 10
-10.3455
 20
13.5846
 11
-10.15
 21
13.6
  0
LINE
  8
0
 10
-10.15
 20
13.6
 11
-9.95445
 21
13.5846
  0
LINE
  8
0
 10
-9.95445
 20
13.5846
 11
-9.76372
 21
13.5388
  0
LINE
  8
0
 10
-9.76372
 20
13.5388
 11
-9.5825
 21
13.4638
  0
LINE
  8
0
 10
-9.5825
 20
13.4638
 11
-9.41527
 21
13.3613
  0
LINE
  8
0
 10
-9.41527
 20
13.3613
 11
-9.26611
 21
13.2339
  0
LINE
  8
0
 10
-9.26611
 20
13.2339
 11
-9.13872
 21
13.0847
  0
LINE
  8
0
 10
-9.13872
 20
13.0847
 11
-9.03624
 21
12.9175
  0
LINE
  8
0
 10
-9.03624
 20
12.9175
 11
-8.96117
 21
12.7363
  0
LINE
  8
0
 10
-8.96117
 20
12.7363
 11
-8.91537
 21
12.5455
  0
LINE
  8
0
 10
-8.91537
 20
12.5455
 11
-8.89999
 21
12.35
  0
LINE
  8
0
 10
-8.89999
 20
12.35
 11
-8.91537
 21
12.1545
  0
LINE
  8
0
 10
-8.91537
 20
12.1545
 11
-8.96117
 21
11.9637
  0
LINE
  8
0
 10
-8.96117
 20
11.9637
 11
-9.03624
 21
11.7825
  0
LINE
  8
0
 10
-9.03624
 20
11.7825
 11
-9.13872
 21
11.6153
  0
LINE
  8
0
 10
-9.13872
 20
11.6153
 11
-9.26611
 21
11.4661
  0
LINE
  8
0
 10
-9.26611
 20
11.4661
 11
-9.41527
 21
11.3387
  0
LINE
  8
0
 10
-9.41527
 20
11.3387
 11
-9.5825
 21
11.2363
  0
LINE
  8
0
 10
-9.5825
 20
11.2363
 11
-9.76372
 21
11.1612
  0
LINE
  8
0
 10
-9.76372
 20
11.1612
 11
-9.95445
 21
11.1154
  0
LINE
  8
0
 10
-9.95445
 20
11.1154
 11
-10.15
 21
11.1
  0
LINE
  8
0
 10
-10.15
 20
11.1
 11
-10.3455
 21
11.1154
  0
LINE
  8
0
 10
9.95444
 20
11.1154
 11
9.7637
 21
11.1612
  0
LINE
  8
0
 10
9.7637
 20
11.1612
 11
9.58249
 21
11.2363
  0
LINE
  8
0
 10
9.58249
 20
11.2363
 11
9.41525
 21
11.3387
  0
LINE
  8
0
 10
9.41525
 20
11.3387
 11
9.2661
 21
11.4661
  0
LINE
  8
0
 10
9.2661
 20
11.4661
 11
9.1387
 21
11.6153
  0
LINE
  8
0
 10
9.1387
 20
11.6153
 11
9.03622
 21
11.7825
  0
LINE
  8
0
 10
9.03622
 20
11.7825
 11
8.96115
 21
11.9637
  0
LINE
  8
0
 10
8.96115
 20
11.9637
 11
8.91536
 21
12.1545
  0
LINE
  8
0
 10
8.91536
 20
12.1545
 11
8.89998
 21
12.35
  0
LINE
  8
0
 10
8.89998
 20
12.35
 11
8.91536
 21
12.5455
  0
LINE
  8
0
 10
8.91536
 20
12.5455
 11
8.96115
 21
12.7363
  0
LINE
  8
0
 10
8.96115
 20
12.7363
 11
9.03622
 21
12.9175
  0
LINE
  8
0
 10
9.03622
 20
12.9175
 11
9.1387
 21
13.0847
  0
LINE
  8
0
 10
9.1387
 20
13.0847
 11
9.2661
 21
13.2339
  0
LINE
  8
0
 10
9.2661
 20
13.2339
 11
9.41525
 21
13.3613
  0
LINE
  8
0
 10
9.41525
 20
13.3613
 11
9.58249
 21
13.4638
  0
LINE
  8
0
 10
9.58249
 20
13.4638
 11
9.7637
 21
13.5388
  0
LINE
  8
0
 10
9.7637
 20
13.5388
 11
9.95444
 21
13.5846
  0
LINE
  8
0
 10
9.95444
 20
13.5846
 11
10.15
 21
13.6
  0
LINE
  8
0
 10
10.15
 20
13.6
 11
10.3455
 21
13.5846
  0
LINE
  8
0
 10
10.3455
 20
13.5846
 11
10.5363
 21
13.5388
  0
LINE
  8
0
 10
10.5363
 20
13.5388
 11
10.7175
 21
13.4638
  0
LINE
  8
0
 10
10.7175
 20
13.4638
 11
10.8847
 21
13.3613
  0
LINE
  8
0
 10
10.8847
 20
13.3613
 11
11.0339
 21
13.2339
  0
LINE
  8
0
 10
11.0339
 20
13.2339
 11
11.1613
 21
13.0847
  0
LINE
  8
0
 10
11.1613
 20
13.0847
 11
11.2637
 21
12.9175
  0
LINE
  8
0
 10
11.2637
 20
12.9175
 11
11.3388
 21
12.7363
  0
LINE
  8
0
 10
11.3388
 20
12.7363
 11
11.3846
 21
12.5455
  0
LINE
  8
0
 10
11.3846
 20
12.5455
 11
11.4
 21
12.35
  0
LINE
  8
0
 10
11.4
 20
12.35
 11
11.3846
 21
12.1545
  0
LINE
  8
0
 10
11.3846
 20
12.1545
 11
11.3388
 21
11.9637
  0
LINE
  8
0
 10
11.3388
 20
11.9637
 11
11.2637
 21
11.7825
  0
LINE
  8
0
 10
11.2637
 20
11.7825
 11
11.1613
 21
11.6153
  0
LINE
  8
0
 10
11.1613
 20
11.6153
 11
11.0339
 21
11.4661
  0
LINE
  8
0
 10
11.0339
 20
11.4661
 11
10.8847
 21
11.3387
  0
LINE
  8
0
 10
10.8847
 20
11.3387
 11
10.7175
 21
11.2363
  0
LINE
  8
0
 10
10.7175
 20
11.2363
 11
10.5363
 21
11.1612
  0
LINE
  8
0
 10
10.5363
 20
11.1612
 11
10.3455
 21
11.1154
  0
LINE
  8
0
 10
10.3455
 20
11.1154
 11
10.15
 21
11.1
  0
LINE
  8
0
 10
10.15
 20
11.1
 11
9.95444
 21
11.1154
  0
LINE
  8
0
 10
38.9545
 20
11.1154
 11
38.7637
 21
11.1612
  0
LINE
  8
0
 10
38.7637
 20
11.1612
 11
38.5825
 21
11.2363
  0
LINE
  8
0
 10
38.5825
 20
11.2363
 11
38.4153
 21
11.3387
  0
LINE
  8
0
 10
38.4153
 20
11.3387
 11
38.2661
 21
11.4661
  0
LINE
  8
0
 10
38.2661
 20
11.4661
 11
38.1387
 21
11.6153
  0
LINE
  8
0
 10
38.1387
 20
11.6153
 11
38.0362
 21
11.7825
  0
LINE
  8
0
 10
38.0362
 20
11.7825
 11
37.9612
 21
11.9637
  0
LINE
  8
0
 10
37.9612
 20
11.9637
 11
37.9154
 21
12.1545
  0
LINE
  8
0
 10
37.9154
 20
12.1545
 11
37.9
 21
12.35
  0
LINE
  8
0
 10
37.9
 20
12.35
 11
37.9154
 21
12.5455
  0
LINE
  8
0
 10
37.9154
 20
12.5455
 11
37.9612
 21
12.7363
  0
LINE
  8
0
 10
37.9612
 20
12.7363
 11
38.0362
 21
12.9175
  0
LINE
  8
0
 10
38.0362
 20
12.9175
 11
38.1387
 21
13.0847
  0
LINE
  8
0
 10
38.1387
 20
13.0847
 11
38.2661
 21
13.2339
  0
LINE
  8
0
 10
38.2661
 20
13.2339
 11
38.4153
 21
13.3613
  0
LINE
  8
0
 10
38.4153
 20
13.3613
 11
38.5825
 21
13.4638
  0
LINE
  8
0
 10
38.5825
 20
13.4638
 11
38.7637
 21
13.5388
  0
LINE
  8
0
 10
38.7637
 20
13.5388
 11
38.9545
 21
13.5846
  0
LINE
  8
0
 10
38.9545
 20
13.5846
 11
39.15
 21
13.6
  0
LINE
  8
0
 10
39.15
 20
13.6
 11
39.3455
 21
13.5846
  0
LINE
  8
0
 10
39.3455
 20
13.5846
 11
39.5363
 21
13.5388
  0
LINE
  8
0
 10
39.5363
 20
13.5388
 11
39.7175
 21
13.4638
  0
LINE
  8
0
 10
39.7175
 20
13.4638
 11
39.8847
 21
13.3613
  0
LINE
  8
0
 10
39.8847
 20
13.3613
 11
40.0339
 21
13.2339
  0
LINE
  8
0
 10
40.0339
 20
13.2339
 11
40.1613
 21
13.0847
  0
LINE
  8
0
 10
40.1613
 20
13.0847
 11
40.2637
 21
12.9175
  0
LINE
  8
0
 10
40.2637
 20
12.9175
 11
40.3388
 21
12.7363
  0
LINE
  8
0
 10
40.3388
 20
12.7363
 11
40.3846
 21
12.5455
  0
LINE
  8
0
 10
40.3846
 20
12.5455
 11
40.4
 21
12.35
  0
LINE
  8
0
 10
40.4
 20
12.35
 11
40.3846
 21
12.1545
  0
LINE
  8
0
 10
40.3846
 20
12.1545
 11
40.3388
 21
11.9637
  0
LINE
  8
0
 10
40.3388
 20
11.9637
 11
40.2637
 21
11.7825
  0
LINE
  8
0
 10
40.2637
 20
11.7825
 11
40.1613
 21
11.6153
  0
LINE
  8
0
 10
40.1613
 20
11.6153
 11
40.0339
 21
11.4661
  0
LINE
  8
0
 10
40.0339
 20
11.4661
 11
39.8847
 21
11.3387
  0
LINE
  8
0
 10
39.8847
 20
11.3387
 11
39.7175
 21
11.2363
  0
LINE
  8
0
 10
39.7175
 20
11.2363
 11
39.5363
 21
11.1612
  0
LINE
  8
0
 10
39.5363
 20
11.1612
 11
39.3455
 21
11.1154
  0
LINE
  8
0
 10
39.3455
 20
11.1154
 11
39.15
 21
11.1
  0
LINE
  8
0
 10
39.15
 20
11.1
 11
38.9545
 21
11.1154
  0
LINE
  8
0
 10
54.3222
 20
0.56163
 11
54.169
 21
0.595596
  0
LINE
  8
0
 10
54.169
 20
0.595596
 11
54.0229
 21
0.653107
  0
LINE
  8
0
 10
54.0229
 20
0.653107
 11
53.8878
 21
0.732758
  0
LINE
  8
0
 10
53.8878
 20
0.732758
 11
53.7667
 21
0.832565
  0
LINE
  8
0
 10
53.7667
 20
0.832565
 11
53.6627
 21
0.950089
  0
LINE
  8
0
 10
53.6627
 20
0.950089
 11
53.5784
 21
1.08244
  0
LINE
  8
0
 10
53.5784
 20
1.08244
 11
53.5158
 21
1.22633
  0
LINE
  8
0
 10
53.5158
 20
1.22633
 11
53.4765
 21
1.37827
  0
LINE
  8
0
 10
53.4765
 20
1.37827
 11
53.4615
 21
1.53445
  0
LINE
  8
0
 10
53.4615
 20
1.53445
 11
53.4711
 21
1.69107
  0
LINE
  8
0
 10
53.4711
 20
1.69107
 11
53.505
 21
1.84427
  0
LINE
  8
0
 10
53.505
 20
1.84427
 11
53.5625
 21
1.99028
  0
LINE
  8
0
 10
53.5625
 20
1.99028
 11
53.6422
 21
2.12547
  0
LINE
  8
0
 10
53.6422
 20
2.12547
 11
53.742
 21
2.24655
  0
LINE
  8
0
 10
53.742
 20
2.24655
 11
53.8595
 21
2.35056
  0
LINE
  8
0
 10
53.8595
 20
2.35056
 11
53.9919
 21
2.43486
  0
LINE
  8
0
 10
53.9919
 20
2.43486
 11
54.1358
 21
2.49742
  0
LINE
  8
0
 10
54.1358
 20
2.49742
 11
54.2877
 21
2.53673
  0
LINE
  8
0
 10
54.2877
 20
2.53673
 11
54.4439
 21
2.55176
  0
LINE
  8
0
 10
54.4439
 20
2.55176
 11
54.6005
 21
2.54218
  0
LINE
  8
0
 10
54.6005
 20
2.54218
 11
54.7537
 21
2.50821
  0
LINE
  8
0
 10
54.7537
 20
2.50821
 11
54.8997
 21
2.4507
  0
LINE
  8
0
 10
54.8997
 20
2.4507
 11
55.0349
 21
2.37105
  0
LINE
  8
0
 10
55.0349
 20
2.37105
 11
55.156
 21
2.27126
  0
LINE
  8
0
 10
55.156
 20
2.27126
 11
55.26
 21
2.15372
  0
LINE
  8
0
 10
55.26
 20
2.15372
 11
55.3443
 21
2.02138
  0
LINE
  8
0
 10
55.3443
 20
2.02138
 11
55.4069
 21
1.87749
  0
LINE
  8
0
 10
55.4069
 20
1.87749
 11
55.4462
 21
1.72556
  0
LINE
  8
0
 10
55.4462
 20
1.72556
 11
55.4612
 21
1.56935
  0
LINE
  8
0
 10
55.4612
 20
1.56935
 11
55.4516
 21
1.41273
  0
LINE
  8
0
 10
55.4516
 20
1.41273
 11
55.4176
 21
1.25954
  0
LINE
  8
0
 10
55.4176
 20
1.25954
 11
55.3601
 21
1.11353
  0
LINE
  8
0
 10
55.3601
 20
1.11353
 11
55.2805
 21
0.978333
  0
LINE
  8
0
 10
55.2805
 20
0.978333
 11
55.1807
 21
0.857254
  0
LINE
  8
0
 10
55.1807
 20
0.857254
 11
55.0631
 21
0.753265
  0
LINE
  8
0
 10
55.0631
 20
0.753265
 11
54.9308
 21
0.668961
  0
LINE
  8
0
 10
54.9308
 20
0.668961
 11
54.7869
 21
0.606384
  0
LINE
  8
0
 10
54.7869
 20
0.606384
 11
54.635
 21
0.567108
  0
LINE
  8
0
 10
54.635
 20
0.567108
 11
54.4788
 21
0.552048
  0
LINE
  8
0
 10
54.4788
 20
0.552048
 11
54.3222
 21
0.56163
  0
LINE
  8
0
 10
-54.635
 20
0.567108
 11
-54.7869
 21
0.606384
  0
LINE
  8
0
 10
-54.7869
 20
0.606384
 11
-54.9308
 21
0.668961
  0
LINE
  8
0
 10
-54.9308
 20
0.668961
 11
-55.0631
 21
0.753265
  0
LINE
  8
0
 10
-55.0631
 20
0.753265
 11
-55.1807
 21
0.857254
  0
LINE
  8
0
 10
-55.1807
 20
0.857254
 11
-55.2805
 21
0.978333
  0
LINE
  8
0
 10
-55.2805
 20
0.978333
 11
-55.3601
 21
1.11353
  0
LINE
  8
0
 10
-55.3601
 20
1.11353
 11
-55.4176
 21
1.25954
  0
LINE
  8
0
 10
-55.4176
 20
1.25954
 11
-55.4516
 21
1.41273
  0
LINE
  8
0
 10
-55.4516
 20
1.41273
 11
-55.4612
 21
1.56935
  0
LINE
  8
0
 10
-55.4612
 20
1.56935
 11
-55.4462
 21
1.72556
  0
LINE
  8
0
 10
-55.4462
 20
1.72556
 11
-55.4069
 21
1.87749
  0
LINE
  8
0
 10
-55.4069
 20
1.87749
 11
-55.3443
 21
2.02138
  0
LINE
  8
0
 10
-55.3443
 20
2.02138
 11
-55.26
 21
2.15372
  0
LINE
  8
0
 10
-55.26
 20
2.15372
 11
-55.156
 21
2.27126
  0
LINE
  8
0
 10
-55.156
 20
2.27126
 11
-55.0349
 21
2.37105
  0
LINE
  8
0
 10
-55.0349
 20
2.37105
 11
-54.8997
 21
2.4507
  0
LINE
  8
0
 10
-54.8997
 20
2.4507
 11
-54.7537
 21
2.50821
  0
LINE
  8
0
 10
-54.7537
 20
2.50821
 11
-54.6005
 21
2.54218
  0
LINE
  8
0
 10
-54.6005
 20
2.54218
 11
-54.4439
 21
2.55176
  0
LINE
  8
0
 10
-54.4439
 20
2.55176
 11
-54.2877
 21
2.53673
  0
LINE
  8
0
 10
-54.2877
 20
2.53673
 11
-54.1358
 21
2.49744
  0
LINE
  8
0
 10
-54.1358
 20
2.49744
 11
-53.9919
 21
2.43486
  0
LINE
  8
0
 10
-53.9919
 20
2.43486
 11
-53.8595
 21
2.35056
  0
LINE
  8
0
 10
-53.8595
 20
2.35056
 11
-53.742
 21
2.24657
  0
LINE
  8
0
 10
-53.742
 20
2.24657
 11
-53.6422
 21
2.12547
  0
LINE
  8
0
 10
-53.6422
 20
2.12547
 11
-53.5626
 21
1.99028
  0
LINE
  8
0
 10
-53.5626
 20
1.99028
 11
-53.505
 21
1.84427
  0
LINE
  8
0
 10
-53.505
 20
1.84427
 11
-53.4711
 21
1.69107
  0
LINE
  8
0
 10
-53.4711
 20
1.69107
 11
-53.4615
 21
1.53445
  0
LINE
  8
0
 10
-53.4615
 20
1.53445
 11
-53.4765
 21
1.37827
  0
LINE
  8
0
 10
-53.4765
 20
1.37827
 11
-53.5158
 21
1.22633
  0
LINE
  8
0
 10
-53.5158
 20
1.22633
 11
-53.5784
 21
1.08244
  0
LINE
  8
0
 10
-53.5784
 20
1.08244
 11
-53.6627
 21
0.950089
  0
LINE
  8
0
 10
-53.6627
 20
0.950089
 11
-53.7667
 21
0.832565
  0
LINE
  8
0
 10
-53.7667
 20
0.832565
 11
-53.8878
 21
0.732758
  0
LINE
  8
0
 10
-53.8878
 20
0.732758
 11
-54.023
 21
0.653122
  0
LINE
  8
0
 10
-54.023
 20
0.653122
 11
-54.169
 21
0.595596
  0
LINE
  8
0
 10
-54.169
 20
0.595596
 11
-54.3222
 21
0.561646
  0
LINE
  8
0
 10
-54.3222
 20
0.561646
 11
-54.4788
 21
0.552048
  0
LINE
  8
0
 10
-54.4788
 20
0.552048
 11
-54.635
 21
0.567108
  0
LINE
  8
0
 10
38.5652
 20
-2.21672
 11
38.4121
 21
-2.18275
  0
LINE
  8
0
 10
38.4121
 20
-2.18275
 11
38.2661
 21
-2.12524
  0
LINE
  8
0
 10
38.2661
 20
-2.12524
 11
38.1309
 21
-2.04559
  0
LINE
  8
0
 10
38.1309
 20
-2.04559
 11
38.0098
 21
-1.94579
  0
LINE
  8
0
 10
38.0098
 20
-1.94579
 11
37.9058
 21
-1.82826
  0
LINE
  8
0
 10
37.9058
 20
-1.82826
 11
37.8215
 21
-1.69592
  0
LINE
  8
0
 10
37.8215
 20
-1.69592
 11
37.7589
 21
-1.55202
  0
LINE
  8
0
 10
37.7589
 20
-1.55202
 11
37.7196
 21
-1.40009
  0
LINE
  8
0
 10
37.7196
 20
-1.40009
 11
37.7046
 21
-1.2439
  0
LINE
  8
0
 10
37.7046
 20
-1.2439
 11
37.7142
 21
-1.08728
  0
LINE
  8
0
 10
37.7142
 20
-1.08728
 11
37.7481
 21
-0.934082
  0
LINE
  8
0
 10
37.7481
 20
-0.934082
 11
37.8056
 21
-0.788071
  0
LINE
  8
0
 10
37.8056
 20
-0.788071
 11
37.8853
 21
-0.652878
  0
LINE
  8
0
 10
37.8853
 20
-0.652878
 11
37.9851
 21
-0.531799
  0
LINE
  8
0
 10
37.9851
 20
-0.531799
 11
38.1026
 21
-0.427811
  0
LINE
  8
0
 10
38.1026
 20
-0.427811
 11
38.235
 21
-0.343506
  0
LINE
  8
0
 10
38.235
 20
-0.343506
 11
38.3788
 21
-0.28093
  0
LINE
  8
0
 10
38.3788
 20
-0.28093
 11
38.5308
 21
-0.241638
  0
LINE
  8
0
 10
38.5308
 20
-0.241638
 11
38.687
 21
-0.226593
  0
LINE
  8
0
 10
38.687
 20
-0.226593
 11
38.8436
 21
-0.236176
  0
LINE
  8
0
 10
38.8436
 20
-0.236176
 11
38.9968
 21
-0.270142
  0
LINE
  8
0
 10
38.9968
 20
-0.270142
 11
39.1428
 21
-0.327652
  0
LINE
  8
0
 10
39.1428
 20
-0.327652
 11
39.278
 21
-0.407303
  0
LINE
  8
0
 10
39.278
 20
-0.407303
 11
39.3991
 21
-0.507111
  0
LINE
  8
0
 10
39.3991
 20
-0.507111
 11
39.5031
 21
-0.624634
  0
LINE
  8
0
 10
39.5031
 20
-0.624634
 11
39.5874
 21
-0.756989
  0
LINE
  8
0
 10
39.5874
 20
-0.756989
 11
39.6499
 21
-0.900879
  0
LINE
  8
0
 10
39.6499
 20
-0.900879
 11
39.6892
 21
-1.0528
  0
LINE
  8
0
 10
39.6892
 20
-1.0528
 11
39.7043
 21
-1.209
  0
LINE
  8
0
 10
39.7043
 20
-1.209
 11
39.6947
 21
-1.36562
  0
LINE
  8
0
 10
39.6947
 20
-1.36562
 11
39.6607
 21
-1.51881
  0
LINE
  8
0
 10
39.6607
 20
-1.51881
 11
39.6032
 21
-1.66483
  0
LINE
  8
0
 10
39.6032
 20
-1.66483
 11
39.5236
 21
-1.80002
  0
LINE
  8
0
 10
39.5236
 20
-1.80002
 11
39.4238
 21
-1.9211
  0
LINE
  8
0
 10
39.4238
 20
-1.9211
 11
39.3062
 21
-2.0251
  0
LINE
  8
0
 10
39.3062
 20
-2.0251
 11
39.1739
 21
-2.10941
  0
LINE
  8
0
 10
39.1739
 20
-2.10941
 11
39.03
 21
-2.17197
  0
LINE
  8
0
 10
39.03
 20
-2.17197
 11
38.8781
 21
-2.21124
  0
LINE
  8
0
 10
38.8781
 20
-2.21124
 11
38.7219
 21
-2.2263
  0
LINE
  8
0
 10
38.7219
 20
-2.2263
 11
38.5652
 21
-2.21672
  0
LINE
  8
0
 10
-38.8781
 20
-2.21124
 11
-39.03
 21
-2.17197
  0
LINE
  8
0
 10
-39.03
 20
-2.17197
 11
-39.1739
 21
-2.10939
  0
LINE
  8
0
 10
-39.1739
 20
-2.10939
 11
-39.3062
 21
-2.02509
  0
LINE
  8
0
 10
-39.3062
 20
-2.02509
 11
-39.4238
 21
-1.9211
  0
LINE
  8
0
 10
-39.4238
 20
-1.9211
 11
-39.5236
 21
-1.80002
  0
LINE
  8
0
 10
-39.5236
 20
-1.80002
 11
-39.6032
 21
-1.66483
  0
LINE
  8
0
 10
-39.6032
 20
-1.66483
 11
-39.6607
 21
-1.51881
  0
LINE
  8
0
 10
-39.6607
 20
-1.51881
 11
-39.6947
 21
-1.36562
  0
LINE
  8
0
 10
-39.6947
 20
-1.36562
 11
-39.7043
 21
-1.209
  0
LINE
  8
0
 10
-39.7043
 20
-1.209
 11
-39.6892
 21
-1.0528
  0
LINE
  8
0
 10
-39.6892
 20
-1.0528
 11
-39.6499
 21
-0.900879
  0
LINE
  8
0
 10
-39.6499
 20
-0.900879
 11
-39.5874
 21
-0.756973
  0
LINE
  8
0
 10
-39.5874
 20
-0.756973
 11
-39.5031
 21
-0.624634
  0
LINE
  8
0
 10
-39.5031
 20
-0.624634
 11
-39.3991
 21
-0.507095
  0
LINE
  8
0
 10
-39.3991
 20
-0.507095
 11
-39.278
 21
-0.407303
  0
LINE
  8
0
 10
-39.278
 20
-0.407303
 11
-39.1428
 21
-0.327652
  0
LINE
  8
0
 10
-39.1428
 20
-0.327652
 11
-38.9968
 21
-0.270142
  0
LINE
  8
0
 10
-38.9968
 20
-0.270142
 11
-38.8436
 21
-0.236176
  0
LINE
  8
0
 10
-38.8436
 20
-0.236176
 11
-38.687
 21
-0.226593
  0
LINE
  8
0
 10
-38.687
 20
-0.226593
 11
-38.5308
 21
-0.241638
  0
LINE
  8
0
 10
-38.5308
 20
-0.241638
 11
-38.3788
 21
-0.28093
  0
LINE
  8
0
 10
-38.3788
 20
-0.28093
 11
-38.235
 21
-0.343506
  0
LINE
  8
0
 10
-38.235
 20
-0.343506
 11
-38.1026
 21
-0.427811
  0
LINE
  8
0
 10
-38.1026
 20
-0.427811
 11
-37.9851
 21
-0.531799
  0
LINE
  8
0
 10
-37.9851
 20
-0.531799
 11
-37.8853
 21
-0.652878
  0
LINE
  8
0
 10
-37.8853
 20
-0.652878
 11
-37.8056
 21
-0.788071
  0
LINE
  8
0
 10
-37.8056
 20
-0.788071
 11
-37.7481
 21
-0.934082
  0
LINE
  8
0
 10
-37.7481
 20
-0.934082
 11
-37.7142
 21
-1.08728
  0
LINE
  8
0
 10
-37.7142
 20
-1.08728
 11
-37.7046
 21
-1.2439
  0
LINE
  8
0
 10
-37.7046
 20
-1.2439
 11
-37.7196
 21
-1.40009
  0
LINE
  8
0
 10
-37.7196
 20
-1.40009
 11
-37.7589
 21
-1.55202
  0
LINE
  8
0
 10
-37.7589
 20
-1.55202
 11
-37.8215
 21
-1.69592
  0
LINE
  8
0
 10
-37.8215
 20
-1.69592
 11
-37.9058
 21
-1.82826
  0
LINE
  8
0
 10
-37.9058
 20
-1.82826
 11
-38.0098
 21
-1.94579
  0
LINE
  8
0
 10
-38.0098
 20
-1.94579
 11
-38.1309
 21
-2.04559
  0
LINE
  8
0
 10
-38.1309
 20
-2.04559
 11
-38.2661
 21
-2.12524
  0
LINE
  8
0
 10
-38.2661
 20
-2.12524
 11
-38.4121
 21
-2.18275
  0
LINE
  8
0
 10
-38.4121
 20
-2.18275
 11
-38.5652
 21
-2.21672
  0
LINE
  8
0
 10
-38.5652
 20
-2.21672
 11
-38.7219
 21
-2.2263
  0
LINE
  8
0
 10
-38.7219
 20
-2.2263
 11
-38.8781
 21
-2.21124
  0
LINE
  8
0
 10
45.8649
 20
-3.25208
 11
49.1148
 21
-2.67892
  0
LINE
  8
0
 10
49.1148
 20
-2.67892
 11
50.8034
 21
-12.2548
  0
LINE
  8
0
 10
50.8034
 20
-12.2548
 11
47.5533
 21
-12.8279
  0
LINE
  8
0
 10
47.5533
 20
-12.8279
 11
45.8649
 21
-3.25208
  0
LINE
  8
0
 10
-50.8033
 20
-12.2549
 11
-49.1149
 21
-2.679
  0
LINE
  8
0
 10
-49.1149
 20
-2.679
 11
-45.8649
 21
-3.25197
  0
LINE
  8
0
 10
-45.8649
 20
-3.25197
 11
-47.5534
 21
-12.8279
  0
LINE
  8
0
 10
-47.5534
 20
-12.8279
 11
-50.8033
 21
-12.2549
  0
LINE
  8
0
 10
-56.0242
 20
-7.31134
 11
-56.1761
 21
-7.27206
  0
LINE
  8
0
 10
-56.1761
 20
-7.27206
 11
-56.32
 21
-7.20949
  0
LINE
  8
0
 10
-56.32
 20
-7.20949
 11
-56.4523
 21
-7.12518
  0
LINE
  8
0
 10
-56.4523
 20
-7.12518
 11
-56.5699
 21
-7.02119
  0
LINE
  8
0
 10
-56.5699
 20
-7.02119
 11
-56.6697
 21
-6.90012
  0
LINE
  8
0
 10
-56.6697
 20
-6.90012
 11
-56.7493
 21
-6.76492
  0
LINE
  8
0
 10
-56.7493
 20
-6.76492
 11
-56.8068
 21
-6.61891
  0
LINE
  8
0
 10
-56.8068
 20
-6.61891
 11
-56.8408
 21
-6.46571
  0
LINE
  8
0
 10
-56.8408
 20
-6.46571
 11
-56.8504
 21
-6.3091
  0
LINE
  8
0
 10
-56.8504
 20
-6.3091
 11
-56.8353
 21
-6.15288
  0
LINE
  8
0
 10
-56.8353
 20
-6.15288
 11
-56.796
 21
-6.00096
  0
LINE
  8
0
 10
-56.796
 20
-6.00096
 11
-56.7335
 21
-5.85707
  0
LINE
  8
0
 10
-56.7335
 20
-5.85707
 11
-56.6492
 21
-5.72473
  0
LINE
  8
0
 10
-56.6492
 20
-5.72473
 11
-56.5452
 21
-5.60719
  0
LINE
  8
0
 10
-56.5452
 20
-5.60719
 11
-56.4241
 21
-5.5074
  0
LINE
  8
0
 10
-56.4241
 20
-5.5074
 11
-56.2889
 21
-5.42775
  0
LINE
  8
0
 10
-56.2889
 20
-5.42775
 11
-56.1429
 21
-5.37022
  0
LINE
  8
0
 10
-56.1429
 20
-5.37022
 11
-55.9897
 21
-5.33627
  0
LINE
  8
0
 10
-55.9897
 20
-5.33627
 11
-55.8331
 21
-5.32669
  0
LINE
  8
0
 10
-55.8331
 20
-5.32669
 11
-55.6769
 21
-5.34172
  0
LINE
  8
0
 10
-55.6769
 20
-5.34172
 11
-55.525
 21
-5.38101
  0
LINE
  8
0
 10
-55.525
 20
-5.38101
 11
-55.3811
 21
-5.44359
  0
LINE
  8
0
 10
-55.3811
 20
-5.44359
 11
-55.2487
 21
-5.52789
  0
LINE
  8
0
 10
-55.2487
 20
-5.52789
 11
-55.1312
 21
-5.63188
  0
LINE
  8
0
 10
-55.1312
 20
-5.63188
 11
-55.0314
 21
-5.75298
  0
LINE
  8
0
 10
-55.0314
 20
-5.75298
 11
-54.9517
 21
-5.88817
  0
LINE
  8
0
 10
-54.9517
 20
-5.88817
 11
-54.8942
 21
-6.03416
  0
LINE
  8
0
 10
-54.8942
 20
-6.03416
 11
-54.8603
 21
-6.18736
  0
LINE
  8
0
 10
-54.8603
 20
-6.18736
 11
-54.8507
 21
-6.34398
  0
LINE
  8
0
 10
-54.8507
 20
-6.34398
 11
-54.8657
 21
-6.50018
  0
LINE
  8
0
 10
-54.8657
 20
-6.50018
 11
-54.905
 21
-6.65211
  0
LINE
  8
0
 10
-54.905
 20
-6.65211
 11
-54.9676
 21
-6.79601
  0
LINE
  8
0
 10
-54.9676
 20
-6.79601
 11
-55.0519
 21
-6.92834
  0
LINE
  8
0
 10
-55.0519
 20
-6.92834
 11
-55.1559
 21
-7.04588
  0
LINE
  8
0
 10
-55.1559
 20
-7.04588
 11
-55.277
 21
-7.14568
  0
LINE
  8
0
 10
-55.277
 20
-7.14568
 11
-55.4122
 21
-7.22533
  0
LINE
  8
0
 10
-55.4122
 20
-7.22533
 11
-55.5582
 21
-7.28285
  0
LINE
  8
0
 10
-55.5582
 20
-7.28285
 11
-55.7114
 21
-7.3168
  0
LINE
  8
0
 10
-55.7114
 20
-7.3168
 11
-55.868
 21
-7.32639
  0
LINE
  8
0
 10
-55.868
 20
-7.32639
 11
-56.0242
 21
-7.31134
  0
LINE
  8
0
 10
55.7113
 20
-7.3168
 11
55.5582
 21
-7.28285
  0
LINE
  8
0
 10
55.5582
 20
-7.28285
 11
55.4121
 21
-7.22533
  0
LINE
  8
0
 10
55.4121
 20
-7.22533
 11
55.2769
 21
-7.14569
  0
LINE
  8
0
 10
55.2769
 20
-7.14569
 11
55.1559
 21
-7.04588
  0
LINE
  8
0
 10
55.1559
 20
-7.04588
 11
55.0519
 21
-6.92836
  0
LINE
  8
0
 10
55.0519
 20
-6.92836
 11
54.9676
 21
-6.79601
  0
LINE
  8
0
 10
54.9676
 20
-6.79601
 11
54.905
 21
-6.65211
  0
LINE
  8
0
 10
54.905
 20
-6.65211
 11
54.8657
 21
-6.50018
  0
LINE
  8
0
 10
54.8657
 20
-6.50018
 11
54.8507
 21
-6.34399
  0
LINE
  8
0
 10
54.8507
 20
-6.34399
 11
54.8602
 21
-6.18738
  0
LINE
  8
0
 10
54.8602
 20
-6.18738
 11
54.8942
 21
-6.03418
  0
LINE
  8
0
 10
54.8942
 20
-6.03418
 11
54.9517
 21
-5.88817
  0
LINE
  8
0
 10
54.9517
 20
-5.88817
 11
55.0314
 21
-5.75298
  0
LINE
  8
0
 10
55.0314
 20
-5.75298
 11
55.1312
 21
-5.63188
  0
LINE
  8
0
 10
55.1312
 20
-5.63188
 11
55.2487
 21
-5.52789
  0
LINE
  8
0
 10
55.2487
 20
-5.52789
 11
55.381
 21
-5.44359
  0
LINE
  8
0
 10
55.381
 20
-5.44359
 11
55.5249
 21
-5.38101
  0
LINE
  8
0
 10
55.5249
 20
-5.38101
 11
55.6769
 21
-5.34172
  0
LINE
  8
0
 10
55.6769
 20
-5.34172
 11
55.8331
 21
-5.32669
  0
LINE
  8
0
 10
55.8331
 20
-5.32669
 11
55.9897
 21
-5.33627
  0
LINE
  8
0
 10
55.9897
 20
-5.33627
 11
56.1429
 21
-5.37022
  0
LINE
  8
0
 10
56.1429
 20
-5.37022
 11
56.2889
 21
-5.42775
  0
LINE
  8
0
 10
56.2889
 20
-5.42775
 11
56.4241
 21
-5.5074
  0
LINE
  8
0
 10
56.4241
 20
-5.5074
 11
56.5452
 21
-5.60719
  0
LINE
  8
0
 10
56.5452
 20
-5.60719
 11
56.6492
 21
-5.72473
  0
LINE
  8
0
 10
56.6492
 20
-5.72473
 11
56.7335
 21
-5.85707
  0
LINE
  8
0
 10
56.7335
 20
-5.85707
 11
56.796
 21
-6.00096
  0
LINE
  8
0
 10
56.796
 20
-6.00096
 11
56.8353
 21
-6.15288
  0
LINE
  8
0
 10
56.8353
 20
-6.15288
 11
56.8504
 21
-6.3091
  0
LINE
  8
0
 10
56.8504
 20
-6.3091
 11
56.8408
 21
-6.46571
  0
LINE
  8
0
 10
56.8408
 20
-6.46571
 11
56.8068
 21
-6.61891
  0
LINE
  8
0
 10
56.8068
 20
-6.61891
 11
56.7493
 21
-6.76492
  0
LINE
  8
0
 10
56.7493
 20
-6.76492
 11
56.6697
 21
-6.90012
  0
LINE
  8
0
 10
56.6697
 20
-6.90012
 11
56.5699
 21
-7.02119
  0
LINE
  8
0
 10
56.5699
 20
-7.02119
 11
56.4523
 21
-7.12518
  0
LINE
  8
0
 10
56.4523
 20
-7.12518
 11
56.32
 21
-7.20949
  0
LINE
  8
0
 10
56.32
 20
-7.20949
 11
56.1761
 21
-7.27206
  0
LINE
  8
0
 10
56.1761
 20
-7.27206
 11
56.0242
 21
-7.31134
  0
LINE
  8
0
 10
56.0242
 20
-7.31134
 11
55.868
 21
-7.3264
  0
LINE
  8
0
 10
55.868
 20
-7.3264
 11
55.7113
 21
-7.3168
  0
LINE
  8
0
 10
39.9544
 20
-10.0952
 11
39.8012
 21
-10.0612
  0
LINE
  8
0
 10
39.8012
 20
-10.0612
 11
39.6552
 21
-10.0037
  0
LINE
  8
0
 10
39.6552
 20
-10.0037
 11
39.52
 21
-9.92406
  0
LINE
  8
0
 10
39.52
 20
-9.92406
 11
39.399
 21
-9.82425
  0
LINE
  8
0
 10
39.399
 20
-9.82425
 11
39.295
 21
-9.70673
  0
LINE
  8
0
 10
39.295
 20
-9.70673
 11
39.2107
 21
-9.57437
  0
LINE
  8
0
 10
39.2107
 20
-9.57437
 11
39.1481
 21
-9.43048
  0
LINE
  8
0
 10
39.1481
 20
-9.43048
 11
39.1088
 21
-9.27855
  0
LINE
  8
0
 10
39.1088
 20
-9.27855
 11
39.0938
 21
-9.12236
  0
LINE
  8
0
 10
39.0938
 20
-9.12236
 11
39.1033
 21
-8.96574
  0
LINE
  8
0
 10
39.1033
 20
-8.96574
 11
39.1373
 21
-8.81255
  0
LINE
  8
0
 10
39.1373
 20
-8.81255
 11
39.1948
 21
-8.66653
  0
LINE
  8
0
 10
39.1948
 20
-8.66653
 11
39.2745
 21
-8.53134
  0
LINE
  8
0
 10
39.2745
 20
-8.53134
 11
39.3743
 21
-8.41026
  0
LINE
  8
0
 10
39.3743
 20
-8.41026
 11
39.4918
 21
-8.30626
  0
LINE
  8
0
 10
39.4918
 20
-8.30626
 11
39.6241
 21
-8.22195
  0
LINE
  8
0
 10
39.6241
 20
-8.22195
 11
39.768
 21
-8.15939
  0
LINE
  8
0
 10
39.768
 20
-8.15939
 11
39.92
 21
-8.1201
  0
LINE
  8
0
 10
39.92
 20
-8.1201
 11
40.0761
 21
-8.10506
  0
LINE
  8
0
 10
40.0761
 20
-8.10506
 11
40.2328
 21
-8.11464
  0
LINE
  8
0
 10
40.2328
 20
-8.11464
 11
40.386
 21
-8.14861
  0
LINE
  8
0
 10
40.386
 20
-8.14861
 11
40.532
 21
-8.20612
  0
LINE
  8
0
 10
40.532
 20
-8.20612
 11
40.6672
 21
-8.28577
  0
LINE
  8
0
 10
40.6672
 20
-8.28577
 11
40.7883
 21
-8.38557
  0
LINE
  8
0
 10
40.7883
 20
-8.38557
 11
40.8922
 21
-8.5031
  0
LINE
  8
0
 10
40.8922
 20
-8.5031
 11
40.9765
 21
-8.63544
  0
LINE
  8
0
 10
40.9765
 20
-8.63544
 11
41.0391
 21
-8.77934
  0
LINE
  8
0
 10
41.0391
 20
-8.77934
 11
41.0784
 21
-8.93126
  0
LINE
  8
0
 10
41.0784
 20
-8.93126
 11
41.0934
 21
-9.08746
  0
LINE
  8
0
 10
41.0934
 20
-9.08746
 11
41.0839
 21
-9.24408
  0
LINE
  8
0
 10
41.0839
 20
-9.24408
 11
41.0499
 21
-9.39728
  0
LINE
  8
0
 10
41.0499
 20
-9.39728
 11
40.9924
 21
-9.54329
  0
LINE
  8
0
 10
40.9924
 20
-9.54329
 11
40.9127
 21
-9.67848
  0
LINE
  8
0
 10
40.9127
 20
-9.67848
 11
40.8129
 21
-9.79956
  0
LINE
  8
0
 10
40.8129
 20
-9.79956
 11
40.6954
 21
-9.90355
  0
LINE
  8
0
 10
40.6954
 20
-9.90355
 11
40.5631
 21
-9.98785
  0
LINE
  8
0
 10
40.5631
 20
-9.98785
 11
40.4192
 21
-10.0504
  0
LINE
  8
0
 10
40.4192
 20
-10.0504
 11
40.2672
 21
-10.0897
  0
LINE
  8
0
 10
40.2672
 20
-10.0897
 11
40.1111
 21
-10.1048
  0
LINE
  8
0
 10
40.1111
 20
-10.1048
 11
39.9544
 21
-10.0952
  0
LINE
  8
0
 10
-40.2672
 20
-10.0897
 11
-40.4192
 21
-10.0504
  0
LINE
  8
0
 10
-40.4192
 20
-10.0504
 11
-40.5631
 21
-9.98785
  0
LINE
  8
0
 10
-40.5631
 20
-9.98785
 11
-40.6954
 21
-9.90355
  0
LINE
  8
0
 10
-40.6954
 20
-9.90355
 11
-40.813
 21
-9.79956
  0
LINE
  8
0
 10
-40.813
 20
-9.79956
 11
-40.9128
 21
-9.67848
  0
LINE
  8
0
 10
-40.9128
 20
-9.67848
 11
-40.9924
 21
-9.54329
  0
LINE
  8
0
 10
-40.9924
 20
-9.54329
 11
-41.0499
 21
-9.39728
  0
LINE
  8
0
 10
-41.0499
 20
-9.39728
 11
-41.0839
 21
-9.24408
  0
LINE
  8
0
 10
-41.0839
 20
-9.24408
 11
-41.0935
 21
-9.08746
  0
LINE
  8
0
 10
-41.0935
 20
-9.08746
 11
-41.0784
 21
-8.93126
  0
LINE
  8
0
 10
-41.0784
 20
-8.93126
 11
-41.0391
 21
-8.77933
  0
LINE
  8
0
 10
-41.0391
 20
-8.77933
 11
-40.9766
 21
-8.63544
  0
LINE
  8
0
 10
-40.9766
 20
-8.63544
 11
-40.8923
 21
-8.5031
  0
LINE
  8
0
 10
-40.8923
 20
-8.5031
 11
-40.7883
 21
-8.38556
  0
LINE
  8
0
 10
-40.7883
 20
-8.38556
 11
-40.6672
 21
-8.28577
  0
LINE
  8
0
 10
-40.6672
 20
-8.28577
 11
-40.532
 21
-8.20612
  0
LINE
  8
0
 10
-40.532
 20
-8.20612
 11
-40.386
 21
-8.14861
  0
LINE
  8
0
 10
-40.386
 20
-8.14861
 11
-40.2328
 21
-8.11464
  0
LINE
  8
0
 10
-40.2328
 20
-8.11464
 11
-40.0762
 21
-8.10506
  0
LINE
  8
0
 10
-40.0762
 20
-8.10506
 11
-39.92
 21
-8.1201
  0
LINE
  8
0
 10
-39.92
 20
-8.1201
 11
-39.768
 21
-8.15939
  0
LINE
  8
0
 10
-39.768
 20
-8.15939
 11
-39.6241
 21
-8.22195
  0
LINE
  8
0
 10
-39.6241
 20
-8.22195
 11
-39.4918
 21
-8.30626
  0
LINE
  8
0
 10
-39.4918
 20
-8.30626
 11
-39.3743
 21
-8.41026
  0
LINE
  8
0
 10
-39.3743
 20
-8.41026
 11
-39.2745
 21
-8.53134
  0
LINE
  8
0
 10
-39.2745
 20
-8.53134
 11
-39.1948
 21
-8.66653
  0
LINE
  8
0
 10
-39.1948
 20
-8.66653
 11
-39.1373
 21
-8.81255
  0
LINE
  8
0
 10
-39.1373
 20
-8.81255
 11
-39.1033
 21
-8.96574
  0
LINE
  8
0
 10
-39.1033
 20
-8.96574
 11
-39.0938
 21
-9.12236
  0
LINE
  8
0
 10
-39.0938
 20
-9.12236
 11
-39.1088
 21
-9.27855
  0
LINE
  8
0
 10
-39.1088
 20
-9.27855
 11
-39.1481
 21
-9.43048
  0
LINE
  8
0
 10
-39.1481
 20
-9.43048
 11
-39.2107
 21
-9.57437
  0
LINE
  8
0
 10
-39.2107
 20
-9.57437
 11
-39.295
 21
-9.70673
  0
LINE
  8
0
 10
-39.295
 20
-9.70673
 11
-39.399
 21
-9.82425
  0
LINE
  8
0
 10
-39.399
 20
-9.82425
 11
-39.52
 21
-9.92406
  0
LINE
  8
0
 10
-39.52
 20
-9.92406
 11
-39.6552
 21
-10.0037
  0
LINE
  8
0
 10
-39.6552
 20
-10.0037
 11
-39.8012
 21
-10.0612
  0
LINE
  8
0
 10
-39.8012
 20
-10.0612
 11
-39.9544
 21
-10.0952
  0
LINE
  8
0
 10
-39.9544
 20
-10.0952
 11
-40.1111
 21
-10.1048
  0
LINE
  8
0
 10
-40.1111
 20
-10.1048
 11
-40.2672
 21
-10.0897
  0
LINE
  8
0
 10
57.1005
 20
-15.1953
 11
56.9473
 21
-15.1613
  0
LINE
  8
0
 10
56.9473
 20
-15.1613
 11
56.8013
 21
-15.1038
  0
LINE
  8
0
 10
56.8013
 20
-15.1038
 11
56.6661
 21
-15.0241
  0
LINE
  8
0
 10
56.6661
 20
-15.0241
 11
56.545
 21
-14.9243
  0
LINE
  8
0
 10
56.545
 20
-14.9243
 11
56.4411
 21
-14.8068
  0
LINE
  8
0
 10
56.4411
 20
-14.8068
 11
56.3568
 21
-14.6745
  0
LINE
  8
0
 10
56.3568
 20
-14.6745
 11
56.2942
 21
-14.5306
  0
LINE
  8
0
 10
56.2942
 20
-14.5306
 11
56.2549
 21
-14.3786
  0
LINE
  8
0
 10
56.2549
 20
-14.3786
 11
56.2399
 21
-14.2225
  0
LINE
  8
0
 10
56.2399
 20
-14.2225
 11
56.2494
 21
-14.0658
  0
LINE
  8
0
 10
56.2494
 20
-14.0658
 11
56.2834
 21
-13.9126
  0
LINE
  8
0
 10
56.2834
 20
-13.9126
 11
56.3409
 21
-13.7666
  0
LINE
  8
0
 10
56.3409
 20
-13.7666
 11
56.4206
 21
-13.6314
  0
LINE
  8
0
 10
56.4206
 20
-13.6314
 11
56.5204
 21
-13.5103
  0
LINE
  8
0
 10
56.5204
 20
-13.5103
 11
56.6379
 21
-13.4064
  0
LINE
  8
0
 10
56.6379
 20
-13.4064
 11
56.7702
 21
-13.3221
  0
LINE
  8
0
 10
56.7702
 20
-13.3221
 11
56.9141
 21
-13.2595
  0
LINE
  8
0
 10
56.9141
 20
-13.2595
 11
57.0661
 21
-13.2202
  0
LINE
  8
0
 10
57.0661
 20
-13.2202
 11
57.2223
 21
-13.2052
  0
LINE
  8
0
 10
57.2223
 20
-13.2052
 11
57.3789
 21
-13.2147
  0
LINE
  8
0
 10
57.3789
 20
-13.2147
 11
57.5321
 21
-13.2487
  0
LINE
  8
0
 10
57.5321
 20
-13.2487
 11
57.6781
 21
-13.3062
  0
LINE
  8
0
 10
57.6781
 20
-13.3062
 11
57.8133
 21
-13.3859
  0
LINE
  8
0
 10
57.8133
 20
-13.3859
 11
57.9344
 21
-13.4857
  0
LINE
  8
0
 10
57.9344
 20
-13.4857
 11
58.0383
 21
-13.6032
  0
LINE
  8
0
 10
58.0383
 20
-13.6032
 11
58.1227
 21
-13.7355
  0
LINE
  8
0
 10
58.1227
 20
-13.7355
 11
58.1852
 21
-13.8794
  0
LINE
  8
0
 10
58.1852
 20
-13.8794
 11
58.2245
 21
-14.0313
  0
LINE
  8
0
 10
58.2245
 20
-14.0313
 11
58.2395
 21
-14.1875
  0
LINE
  8
0
 10
58.2395
 20
-14.1875
 11
58.23
 21
-14.3442
  0
LINE
  8
0
 10
58.23
 20
-14.3442
 11
58.196
 21
-14.4974
  0
LINE
  8
0
 10
58.196
 20
-14.4974
 11
58.1385
 21
-14.6434
  0
LINE
  8
0
 10
58.1385
 20
-14.6434
 11
58.0588
 21
-14.7786
  0
LINE
  8
0
 10
58.0588
 20
-14.7786
 11
57.959
 21
-14.8996
  0
LINE
  8
0
 10
57.959
 20
-14.8996
 11
57.8415
 21
-15.0036
  0
LINE
  8
0
 10
57.8415
 20
-15.0036
 11
57.7092
 21
-15.0879
  0
LINE
  8
0
 10
57.7092
 20
-15.0879
 11
57.5653
 21
-15.1505
  0
LINE
  8
0
 10
57.5653
 20
-15.1505
 11
57.4134
 21
-15.1898
  0
LINE
  8
0
 10
57.4134
 20
-15.1898
 11
57.2571
 21
-15.2048
  0
LINE
  8
0
 10
57.2571
 20
-15.2048
 11
57.1005
 21
-15.1953
  0
LINE
  8
0
 10
-57.4134
 20
-15.1898
 11
-57.5653
 21
-15.1505
  0
LINE
  8
0
 10
-57.5653
 20
-15.1505
 11
-57.7092
 21
-15.0879
  0
LINE
  8
0
 10
-57.7092
 20
-15.0879
 11
-57.8415
 21
-15.0036
  0
LINE
  8
0
 10
-57.8415
 20
-15.0036
 11
-57.959
 21
-14.8996
  0
LINE
  8
0
 10
-57.959
 20
-14.8996
 11
-58.0588
 21
-14.7786
  0
LINE
  8
0
 10
-58.0588
 20
-14.7786
 11
-58.1385
 21
-14.6434
  0
LINE
  8
0
 10
-58.1385
 20
-14.6434
 11
-58.196
 21
-14.4974
  0
LINE
  8
0
 10
-58.196
 20
-14.4974
 11
-58.23
 21
-14.3442
  0
LINE
  8
0
 10
-58.23
 20
-14.3442
 11
-58.2395
 21
-14.1875
  0
LINE
  8
0
 10
-58.2395
 20
-14.1875
 11
-58.2245
 21
-14.0313
  0
LINE
  8
0
 10
-58.2245
 20
-14.0313
 11
-58.1852
 21
-13.8794
  0
LINE
  8
0
 10
-58.1852
 20
-13.8794
 11
-58.1227
 21
-13.7355
  0
LINE
  8
0
 10
-58.1227
 20
-13.7355
 11
-58.0383
 21
-13.6032
  0
LINE
  8
0
 10
-58.0383
 20
-13.6032
 11
-57.9344
 21
-13.4857
  0
LINE
  8
0
 10
-57.9344
 20
-13.4857
 11
-57.8133
 21
-13.3859
  0
LINE
  8
0
 10
-57.8133
 20
-13.3859
 11
-57.6781
 21
-13.3062
  0
LINE
  8
0
 10
-57.6781
 20
-13.3062
 11
-57.5321
 21
-13.2487
  0
LINE
  8
0
 10
-57.5321
 20
-13.2487
 11
-57.3789
 21
-13.2147
  0
LINE
  8
0
 10
-57.3789
 20
-13.2147
 11
-57.2223
 21
-13.2052
  0
LINE
  8
0
 10
-57.2223
 20
-13.2052
 11
-57.0661
 21
-13.2202
  0
LINE
  8
0
 10
-57.0661
 20
-13.2202
 11
-56.9141
 21
-13.2595
  0
LINE
  8
0
 10
-56.9141
 20
-13.2595
 11
-56.7702
 21
-13.3221
  0
LINE
  8
0
 10
-56.7702
 20
-13.3221
 11
-56.6379
 21
-13.4064
  0
LINE
  8
0
 10
-56.6379
 20
-13.4064
 11
-56.5204
 21
-13.5103
  0
LINE
  8
0
 10
-56.5204
 20
-13.5103
 11
-56.4206
 21
-13.6314
  0
LINE
  8
0
 10
-56.4206
 20
-13.6314
 11
-56.3409
 21
-13.7666
  0
LINE
  8
0
 10
-56.3409
 20
-13.7666
 11
-56.2834
 21
-13.9126
  0
LINE
  8
0
 10
-56.2834
 20
-13.9126
 11
-56.2495
 21
-14.0658
  0
LINE
  8
0
 10
-56.2495
 20
-14.0658
 11
-56.2399
 21
-14.2224
  0
LINE
  8
0
 10
-56.2399
 20
-14.2224
 11
-56.2549
 21
-14.3786
  0
LINE
  8
0
 10
-56.2549
 20
-14.3786
 11
-56.2942
 21
-14.5306
  0
LINE
  8
0
 10
-56.2942
 20
-14.5306
 11
-56.3568
 21
-14.6745
  0
LINE
  8
0
 10
-56.3568
 20
-14.6745
 11
-56.4411
 21
-14.8068
  0
LINE
  8
0
 10
-56.4411
 20
-14.8068
 11
-56.5451
 21
-14.9243
  0
LINE
  8
0
 10
-56.5451
 20
-14.9243
 11
-56.6661
 21
-15.0241
  0
LINE
  8
0
 10
-56.6661
 20
-15.0241
 11
-56.8013
 21
-15.1038
  0
LINE
  8
0
 10
-56.8013
 20
-15.1038
 11
-56.9473
 21
-15.1613
  0
LINE
  8
0
 10
-56.9473
 20
-15.1613
 11
-57.1005
 21
-15.1953
  0
LINE
  8
0
 10
-57.1005
 20
-15.1953
 11
-57.2572
 21
-15.2048
  0
LINE
  8
0
 10
-57.2572
 20
-15.2048
 11
-57.4134
 21
-15.1898
  0
LINE
  8
0
 10
41.3436
 20
-17.9736
 11
41.1904
 21
-17.9397
  0
LINE
  8
0
 10
41.1904
 20
-17.9397
 11
41.0444
 21
-17.8821
  0
LINE
  8
0
 10
41.0444
 20
-17.8821
 11
40.9092
 21
-17.8025
  0
LINE
  8
0
 10
40.9092
 20
-17.8025
 11
40.7881
 21
-17.7027
  0
LINE
  8
0
 10
40.7881
 20
-17.7027
 11
40.6841
 21
-17.5852
  0
LINE
  8
0
 10
40.6841
 20
-17.5852
 11
40.5998
 21
-17.4528
  0
LINE
  8
0
 10
40.5998
 20
-17.4528
 11
40.5373
 21
-17.3089
  0
LINE
  8
0
 10
40.5373
 20
-17.3089
 11
40.498
 21
-17.157
  0
LINE
  8
0
 10
40.498
 20
-17.157
 11
40.4829
 21
-17.0008
  0
LINE
  8
0
 10
40.4829
 20
-17.0008
 11
40.4925
 21
-16.8442
  0
LINE
  8
0
 10
40.4925
 20
-16.8442
 11
40.5265
 21
-16.691
  0
LINE
  8
0
 10
40.5265
 20
-16.691
 11
40.584
 21
-16.545
  0
LINE
  8
0
 10
40.584
 20
-16.545
 11
40.6637
 21
-16.4098
  0
LINE
  8
0
 10
40.6637
 20
-16.4098
 11
40.7634
 21
-16.2887
  0
LINE
  8
0
 10
40.7634
 20
-16.2887
 11
40.881
 21
-16.1847
  0
LINE
  8
0
 10
40.881
 20
-16.1847
 11
41.0133
 21
-16.1004
  0
LINE
  8
0
 10
41.0133
 20
-16.1004
 11
41.1572
 21
-16.0378
  0
LINE
  8
0
 10
41.1572
 20
-16.0378
 11
41.3091
 21
-15.9986
  0
LINE
  8
0
 10
41.3091
 20
-15.9986
 11
41.4653
 21
-15.9835
  0
LINE
  8
0
 10
41.4653
 20
-15.9835
 11
41.6219
 21
-15.9931
  0
LINE
  8
0
 10
41.6219
 20
-15.9931
 11
41.7751
 21
-16.0271
  0
LINE
  8
0
 10
41.7751
 20
-16.0271
 11
41.9212
 21
-16.0846
  0
LINE
  8
0
 10
41.9212
 20
-16.0846
 11
42.0564
 21
-16.1642
  0
LINE
  8
0
 10
42.0564
 20
-16.1642
 11
42.1774
 21
-16.264
  0
LINE
  8
0
 10
42.1774
 20
-16.264
 11
42.2814
 21
-16.3816
  0
LINE
  8
0
 10
42.2814
 20
-16.3816
 11
42.3657
 21
-16.5139
  0
LINE
  8
0
 10
42.3657
 20
-16.5139
 11
42.4283
 21
-16.6578
  0
LINE
  8
0
 10
42.4283
 20
-16.6578
 11
42.4676
 21
-16.8097
  0
LINE
  8
0
 10
42.4676
 20
-16.8097
 11
42.4826
 21
-16.9659
  0
LINE
  8
0
 10
42.4826
 20
-16.9659
 11
42.473
 21
-17.1225
  0
LINE
  8
0
 10
42.473
 20
-17.1225
 11
42.4391
 21
-17.2757
  0
LINE
  8
0
 10
42.4391
 20
-17.2757
 11
42.3816
 21
-17.4217
  0
LINE
  8
0
 10
42.3816
 20
-17.4217
 11
42.3019
 21
-17.5569
  0
LINE
  8
0
 10
42.3019
 20
-17.5569
 11
42.2021
 21
-17.678
  0
LINE
  8
0
 10
42.2021
 20
-17.678
 11
42.0846
 21
-17.782
  0
LINE
  8
0
 10
42.0846
 20
-17.782
 11
41.9522
 21
-17.8663
  0
LINE
  8
0
 10
41.9522
 20
-17.8663
 11
41.8083
 21
-17.9289
  0
LINE
  8
0
 10
41.8083
 20
-17.9289
 11
41.6564
 21
-17.9682
  0
LINE
  8
0
 10
41.6564
 20
-17.9682
 11
41.5002
 21
-17.9832
  0
LINE
  8
0
 10
41.5002
 20
-17.9832
 11
41.3436
 21
-17.9736
  0
LINE
  8
0
 10
-41.6564
 20
-17.9682
 11
-41.8084
 21
-17.9289
  0
LINE
  8
0
 10
-41.8084
 20
-17.9289
 11
-41.9523
 21
-17.8663
  0
LINE
  8
0
 10
-41.9523
 20
-17.8663
 11
-42.0846
 21
-17.782
  0
LINE
  8
0
 10
-42.0846
 20
-17.782
 11
-42.2021
 21
-17.678
  0
LINE
  8
0
 10
-42.2021
 20
-17.678
 11
-42.3019
 21
-17.5569
  0
LINE
  8
0
 10
-42.3019
 20
-17.5569
 11
-42.3816
 21
-17.4217
  0
LINE
  8
0
 10
-42.3816
 20
-17.4217
 11
-42.4391
 21
-17.2757
  0
LINE
  8
0
 10
-42.4391
 20
-17.2757
 11
-42.4731
 21
-17.1225
  0
LINE
  8
0
 10
-42.4731
 20
-17.1225
 11
-42.4827
 21
-16.9659
  0
LINE
  8
0
 10
-42.4827
 20
-16.9659
 11
-42.4676
 21
-16.8097
  0
LINE
  8
0
 10
-42.4676
 20
-16.8097
 11
-42.4283
 21
-16.6578
  0
LINE
  8
0
 10
-42.4283
 20
-16.6578
 11
-42.3657
 21
-16.5139
  0
LINE
  8
0
 10
-42.3657
 20
-16.5139
 11
-42.2814
 21
-16.3816
  0
LINE
  8
0
 10
-42.2814
 20
-16.3816
 11
-42.1774
 21
-16.264
  0
LINE
  8
0
 10
-42.1774
 20
-16.264
 11
-42.0564
 21
-16.1642
  0
LINE
  8
0
 10
-42.0564
 20
-16.1642
 11
-41.9212
 21
-16.0846
  0
LINE
  8
0
 10
-41.9212
 20
-16.0846
 11
-41.7752
 21
-16.0271
  0
LINE
  8
0
 10
-41.7752
 20
-16.0271
 11
-41.622
 21
-15.9931
  0
LINE
  8
0
 10
-41.622
 20
-15.9931
 11
-41.4653
 21
-15.9835
  0
LINE
  8
0
 10
-41.4653
 20
-15.9835
 11
-41.3091
 21
-15.9986
  0
LINE
  8
0
 10
-41.3091
 20
-15.9986
 11
-41.1572
 21
-16.0378
  0
LINE
  8
0
 10
-41.1572
 20
-16.0378
 11
-41.0133
 21
-16.1004
  0
LINE
  8
0
 10
-41.0133
 20
-16.1004
 11
-40.881
 21
-16.1847
  0
LINE
  8
0
 10
-40.881
 20
-16.1847
 11
-40.7634
 21
-16.2887
  0
LINE
  8
0
 10
-40.7634
 20
-16.2887
 11
-40.6637
 21
-16.4098
  0
LINE
  8
0
 10
-40.6637
 20
-16.4098
 11
-40.584
 21
-16.545
  0
LINE
  8
0
 10
-40.584
 20
-16.545
 11
-40.5265
 21
-16.691
  0
LINE
  8
0
 10
-40.5265
 20
-16.691
 11
-40.4925
 21
-16.8442
  0
LINE
  8
0
 10
-40.4925
 20
-16.8442
 11
-40.4829
 21
-17.0008
  0
LINE
  8
0
 10
-40.4829
 20
-17.0008
 11
-40.498
 21
-17.157
  0
LINE
  8
0
 10
-40.498
 20
-17.157
 11
-40.5373
 21
-17.3089
  0
LINE
  8
0
 10
-40.5373
 20
-17.3089
 11
-40.5998
 21
-17.4528
  0
LINE
  8
0
 10
-40.5998
 20
-17.4528
 11
-40.6841
 21
-17.5852
  0
LINE
  8
0
 10
-40.6841
 20
-17.5852
 11
-40.7881
 21
-17.7027
  0
LINE
  8
0
 10
-40.7881
 20
-17.7027
 11
-40.9092
 21
-17.8025
  0
LINE
  8
0
 10
-40.9092
 20
-17.8025
 11
-41.0444
 21
-17.8821
  0
LINE
  8
0
 10
-41.0444
 20
-17.8821
 11
-41.1904
 21
-17.9397
  0
LINE
  8
0
 10
-41.1904
 20
-17.9397
 11
-41.3436
 21
-17.9736
  0
LINE
  8
0
 10
-41.3436
 20
-17.9736
 11
-41.5002
 21
-17.9832
  0
LINE
  8
0
 10
-41.5002
 20
-17.9832
 11
-41.6564
 21
-17.9682
  0
ENDSEC
  0
SECTION
  2
OBJECTS
  0
DICTIONARY
  0
ENDSEC
  0
EOF
