<?xml version="1.0" encoding="UTF-8" standalone="no"?>
<svg
   xmlns:dc="http://purl.org/dc/elements/1.1/"
   xmlns:cc="http://creativecommons.org/ns#"
   xmlns:rdf="http://www.w3.org/1999/02/22-rdf-syntax-ns#"
   xmlns:svg="http://www.w3.org/2000/svg"
   xmlns="http://www.w3.org/2000/svg"
   xmlns:sodipodi="http://sodipodi.sourceforge.net/DTD/sodipodi-0.dtd"
   xmlns:inkscape="http://www.inkscape.org/namespaces/inkscape"
   width="744.094488189"
   height="1052.36220472"
   id="svg5525"
   version="1.1"
   inkscape:version="0.91 r13725"
   sodipodi:docname="tower.svg">
  <metadata
     id="metadata7829">
    <rdf:RDF>
      <cc:Work
         rdf:about="">
        <dc:format>image/svg+xml</dc:format>
        <dc:type
           rdf:resource="http://purl.org/dc/dcmitype/StillImage" />
        <dc:title />
      </cc:Work>
    </rdf:RDF>
  </metadata>
  <sodipodi:namedview
     pagecolor="#ffffff"
     bordercolor="#666666"
     borderopacity="1"
     objecttolerance="10"
     gridtolerance="10"
     guidetolerance="10"
     inkscape:pageopacity="0"
     inkscape:pageshadow="2"
     inkscape:window-width="3734"
     inkscape:window-height="2121"
     id="namedview7827"
     showgrid="false"
     inkscape:zoom="0.89702957"
     inkscape:cx="-276.90929"
     inkscape:cy="596.43679"
     inkscape:window-x="106"
     inkscape:window-y="39"
     inkscape:window-maximized="1"
     inkscape:current-layer="g5541" />
  <desc
     id="desc5527">C:\Share\Robotics\Whr_bot\Parts\61r\tower.dxf - scale = 1.000000, origin = (0.000000, 0.000000), auto = False</desc>
  <defs
     id="defs5529">
    <marker
       refY="0.0"
       refX="0.0"
       style="overflow:visible"
       id="DistanceX"
       orient="auto">
      <path
         style="stroke:#000000; stroke-width:0.5"
         d="M 3,-3 L -3,3 M 0,-5 L  0,5"
         id="path5532" />
    </marker>
    <pattern
       height="8"
       width="8"
       patternUnits="userSpaceOnUse"
       y="0"
       x="0"
       id="Hatch">
      <path
         linecap="square"
         stroke="#000000"
         stroke-width="0.25"
         d="M8 4 l-4,4"
         id="path5535" />
      <path
         linecap="square"
         stroke="#000000"
         stroke-width="0.25"
         d="M6 2 l-4,4"
         id="path5537" />
      <path
         linecap="square"
         stroke="#000000"
         stroke-width="0.25"
         d="M4 0 l-4,4"
         id="path5539" />
    </pattern>
    <marker
       style="overflow:visible"
       refY="0.0"
       refX="0.0"
       orient="auto"
       id="DistanceX-9">
      <path
         id="path26282"
         style="stroke:#000000; stroke-width:0.5"
         d="M 3,-3 L -3,3 M 0,-5 L  0,5" />
    </marker>
    <pattern
       y="0"
       x="0"
       width="8"
       patternUnits="userSpaceOnUse"
       id="Hatch-3"
       height="8">
      <path
         id="path26285"
         stroke-width="0.25"
         stroke="#000000"
         linecap="square"
         d="M8 4 l-4,4" />
      <path
         id="path26287"
         stroke-width="0.25"
         stroke="#000000"
         linecap="square"
         d="M6 2 l-4,4" />
      <path
         id="path26289"
         stroke-width="0.25"
         stroke="#000000"
         linecap="square"
         d="M4 0 l-4,4" />
    </pattern>
    <marker
       style="overflow:visible"
       refY="0.0"
       refX="0.0"
       orient="auto"
       id="DistanceX-6">
      <path
         id="path25678"
         style="stroke:#000000; stroke-width:0.5"
         d="M 3,-3 L -3,3 M 0,-5 L  0,5" />
    </marker>
    <pattern
       y="0"
       x="0"
       width="8"
       patternUnits="userSpaceOnUse"
       id="Hatch-0"
       height="8">
      <path
         id="path25681"
         stroke-width="0.25"
         stroke="#000000"
         linecap="square"
         d="M8 4 l-4,4" />
      <path
         id="path25683"
         stroke-width="0.25"
         stroke="#000000"
         linecap="square"
         d="M6 2 l-4,4" />
      <path
         id="path25685"
         stroke-width="0.25"
         stroke="#000000"
         linecap="square"
         d="M4 0 l-4,4" />
    </pattern>
  </defs>
  <g
     inkscape:label="0"
     inkscape:groupmode="layer"
     id="g5541">
    <path
       inkscape:connector-curvature="0"
       d="m 574.57599,725.50623 0,10.6296 30.53622,0 0,-9.5669 31.8026,0 -5.71607,-32.4185 -11.3159,1.9953 -3.07666,-17.4473 11.31591,-1.9956 -15.99732,-90.7261 -11.31591,1.9952 -3.07665,-17.4475 11.3159,-1.9955 -26.44299,-149.96556 4.45571,-17.87032 11.33858,-14.51303 16.26166,-8.64638 7.44696,-0.52086 -10.56826,-109.83721 -17.71654,0 0,3.54685 -14.17323,0 0,-3.54685 -379.13385,0 0,3.54685 -14.17323,0 0,-3.54685 -31.88977,0 -10.51122,109.24583 15.975,4.58079 14.10839,11.83854 8.07378,16.55362 0.64275,18.40607 -24.84389,140.89711 10.3624,1.8266 -3.07666,17.4481 -10.3624,-1.8272 -15.99732,90.7261 10.3624,1.827 -3.07665,17.4479 -10.3624,-1.8273 -5.6863,32.2502 30.81968,0 0,9.5669 30.53622,0 0,-10.6296 -4.34055,0 0,-0.0142 -0.27779,-2.5e-4 -0.54319,-0.1155 -0.50776,-0.2261 -0.44929,-0.3263 -0.37169,-0.4132 -0.2778,-0.4812 -0.17185,-0.5283 -0.0581,-0.5524 0.0581,-0.5524 0.17185,-0.5283 0.2778,-0.4812 0.37169,-0.4131 0.44929,-0.3263 0.50776,-0.2261 0.54319,-0.1155 0.27779,0 0,-5.1523 0.20906,-1.9889 0.61795,-1.9024 1.00028,-1.732 1.3383,-1.4864 1.61788,-1.1757 1.82728,-0.8131 1.95626,-0.416 1.99984,0 1.95626,0.416 1.82729,0.8131 1.61822,1.1757 1.33831,1.4864 0.99992,1.732 0.61795,1.9024 0.20906,1.9889 0,5.1523 0.2778,0 0.54354,0.1155 0.5074,0.2261 0.44965,0.3263 0.37169,0.4131 0.27779,0.4812 0.1715,0.5283 0.0581,0.5524 -0.0581,0.5524 -0.1715,0.5283 -0.27779,0.4812 -0.37169,0.4132 -0.44965,0.3263 -0.5074,0.2261 -0.54354,0.1155 -0.2778,0 0,0.0143 -4.34055,2.5e-4 0,10.6296 30.53622,0 0,-9.5669 43.81653,0 0,-74.3475 10.03819,-22.5457 10.07965,-9.0759 0,-30.15 1.1987,-2.692 2.18976,-1.9718 2.80276,-0.9106 159.44846,0 2.93067,0.3081 2.55225,1.4733 1.73197,2.384 0.61263,2.8824 0,27.595 1.62248,0.9368 14.5063,19.966 5.13107,24.14 0,62.0079 42.51968,0 0,9.5669 30.53622,0 0,-10.6296 -4.34055,0 0,-0.0142 -0.2778,-2.5e-4 -0.54354,-0.1155 -0.5074,-0.2261 -0.44965,-0.3263 -0.37169,-0.4132 -0.27779,-0.4812 -0.1715,-0.5283 -0.0581,-0.5524 0.0581,-0.5524 0.1715,-0.5283 0.27779,-0.4812 0.37169,-0.4131 0.44965,-0.3263 0.5074,-0.2261 0.54354,-0.1155 0.2778,0 0,-5.1523 0.20906,-1.9889 0.61795,-1.9024 0.99992,-1.732 1.33831,-1.4864 1.61822,-1.1757 1.82729,-0.8131 1.95626,-0.416 1.99984,0 1.95626,0.416 1.82728,0.8131 1.61788,1.1757 1.3383,1.4864 1.00028,1.732 0.61795,1.9024 0.20906,1.9889 0,5.1523 0.27779,0 0.54319,0.1155 0.50776,0.2261 0.44929,0.3263 0.37169,0.4131 0.2778,0.4812 0.17185,0.5283 0.0581,0.5524 -0.0581,0.5524 -0.17185,0.5283 -0.2778,0.4812 -0.37169,0.4132 -0.44929,0.3263 -0.50776,0.2261 -0.54319,0.1155 -0.27779,0 0,0.0143 z"
       style="fill:none;stroke:#0000ff;stroke-opacity:1"
       id="path25949"
       sodipodi:nodetypes="ccccccccccccccccccccccccccccccccccccccccccccccccccccccccccccccccccccccccccccccccccccccccccccccccccccccccccccccccccccccccccccccccccccccccccccccccccccccccccccccccccccccccccccccccc" />
    <path
       inkscape:connector-curvature="0"
       d="m 170.31052,327.4125 -1.33264,1.33264 -1.67918,0.85571 -1.86129,0.2948 -1.8613,-0.2948 -1.67918,-0.85571 -1.33263,-1.33264 -0.85571,-1.67917 -0.29481,-1.8613 0.29481,-1.8613 0.85571,-1.67917 1.33263,-1.33264 1.67918,-0.85571 1.8613,-0.2948 1.86129,0.2948 1.67918,0.85571 1.33264,1.33264 0.8557,1.67917 0.29481,1.8613 -0.29481,1.8613 z"
       style="fill:none;stroke:#ff0000;stroke-opacity:1"
       id="path26071"
       sodipodi:nodetypes="ccccccccccccccccccccc" />
    <path
       inkscape:connector-curvature="0"
       d="m 260.87,325.73333 -0.2948,-1.8613 0.2948,-1.8613 0.85571,-1.67917 1.33264,-1.33264 1.67917,-0.85571 1.8613,-0.2948 1.8613,0.2948 1.67918,0.85571 1.33263,1.33264 0.85571,1.67917 0.2948,1.8613 -0.2948,1.8613 -0.85571,1.67917 -1.33263,1.33264 -1.67918,0.85571 -1.8613,0.2948 -1.8613,-0.2948 -1.67917,-0.85571 -1.33264,-1.33264 z"
       style="fill:none;stroke:#ff0000;stroke-opacity:1"
       id="path26085"
       sodipodi:nodetypes="ccccccccccccccccccccc" />
    <path
       inkscape:connector-curvature="0"
       d="m 579.65,332.37597 14.17323,0 0,10.62992 -14.17323,0 z"
       style="fill:none;stroke:#ff0000;stroke-opacity:1"
       id="path26121"
       sodipodi:nodetypes="ccccc" />
    <path
       inkscape:connector-curvature="0"
       d="m 186.34292,332.37597 14.17323,0 0,10.62992 -14.17323,0 z"
       style="fill:none;stroke:#ff0000;stroke-opacity:1"
       id="path26129"
       sodipodi:nodetypes="ccccc" />
    <path
       inkscape:connector-curvature="0"
       d="m 437.06378,343.17951 0.98788,0.50315 0.78378,0.78378 0.50315,0.98787 0.17362,1.09489 0,11.33858 -0.17362,1.09488 -0.50315,0.98788 -0.78378,0.78377 -0.98788,0.50315 -1.09488,0.17363 -1.09488,-0.17363 -0.98788,-0.50315 -0.78377,-0.78377 -0.50351,-0.98788 -0.17327,-1.09488 -98.85826,0 -0.17327,1.09488 -0.50351,0.98788 -0.78377,0.78377 -0.98788,0.50315 -1.09488,0.17363 -1.09488,-0.17363 -0.98788,-0.50315 -0.78378,-0.78377 -0.5035,-0.98788 -0.17327,-1.09488 0,-11.33858 0.17327,-1.09489 0.5035,-0.98787 0.78378,-0.78378 0.98788,-0.50315 1.09488,-0.17362 1.09488,0.17362 0.98788,0.50315 0.78377,0.78378 0.50351,0.98787 0.17327,1.09489 98.85826,0 0.17327,-1.09489 0.50351,-0.98787 0.78377,-0.78378 0.98788,-0.50315 1.09488,-0.17362 z"
       style="fill:none;stroke:#ff0000;stroke-opacity:1"
       id="path26201"
       sodipodi:nodetypes="ccccccccccccccccccccccccccccccccccccccccccccc" />
    <path
       inkscape:connector-curvature="0"
       d="m 467.73571,355.27034 -1.60901,-2.21457 0,-2.73756 1.60901,-2.21457 2.60327,-0.84578 2.60327,0.84578 1.60901,2.21457 0,2.73756 -1.60901,2.21457 -2.60327,0.84578 z"
       style="fill:none;stroke:#ff0000;stroke-opacity:1"
       id="path26243"
       sodipodi:nodetypes="ccccccccccc" />
    <path
       inkscape:connector-curvature="0"
       d="m 299.86622,353.05577 -1.60901,2.21457 -2.60327,0.84578 -2.60327,-0.84578 -1.60901,-2.21457 0,-2.73756 1.60901,-2.21457 2.60327,-0.84578 2.60327,0.84578 1.60901,2.21457 z"
       style="fill:none;stroke:#ff0000;stroke-opacity:1"
       id="path26257"
       sodipodi:nodetypes="ccccccccccc" />
    <path
       inkscape:connector-curvature="0"
       d="m 518.3189,359.12439 2.18976,0 1.77166,1.28693 0.67677,2.08276 -0.67677,2.08275 -1.77166,1.28729 -2.18976,0 -1.77165,-1.28729 -0.67677,-2.08275 0.67677,-2.08276 z"
       style="fill:none;stroke:#ff0000;stroke-opacity:1"
       id="path26271"
       sodipodi:nodetypes="ccccccccccc" />
    <path
       inkscape:connector-curvature="0"
       d="m 407.49939,361.21388 2.60333,-0.84579 2.60338,0.84579 1.60898,2.21457 0,2.73756 -1.60898,2.21456 -2.60338,0.84579 -2.60333,-0.84579 -1.60902,-2.21456 0,-2.73756 z"
       style="fill:none;stroke:#ff0000;stroke-opacity:1"
       id="path26289-6"
       sodipodi:nodetypes="ccccccccccc" />
    <path
       inkscape:connector-curvature="0"
       d="m 231.20544,363.42845 1.60901,-2.21457 2.60327,-0.84579 2.60327,0.84579 1.60901,2.21457 0,2.73756 -1.60901,2.21456 -2.60327,0.84579 -2.60327,-0.84579 -1.60901,-2.21456 z"
       style="fill:none;stroke:#ff0000;stroke-opacity:1"
       id="path26307"
       sodipodi:nodetypes="ccccccccccc" />
    <path
       inkscape:connector-curvature="0"
       d="m 353.28682,361.21388 2.60338,-0.84579 2.60333,0.84579 1.60902,2.21457 0,2.73756 -1.60902,2.21456 -2.60333,0.84579 -2.60338,-0.84579 -1.60898,-2.21456 0,-2.73756 z"
       style="fill:none;stroke:#ff0000;stroke-opacity:1"
       id="path26329"
       sodipodi:nodetypes="ccccccccccc" />
    <path
       inkscape:connector-curvature="0"
       d="m 533.17847,368.38057 -2.60327,0.84579 -2.60327,-0.84579 -1.60901,-2.21456 0,-2.73756 1.60901,-2.21457 2.60327,-0.84579 2.60327,0.84579 1.60901,2.21457 0,2.73756 z"
       style="fill:none;stroke:#ff0000;stroke-opacity:1"
       id="path26359"
       sodipodi:nodetypes="ccccccccccc" />
    <path
       inkscape:connector-curvature="0"
       d="m 466.26418,384.55117 -1.15051,3.54047 -3.01182,2.18834 -3.7226,0 -3.01181,-2.18834 -1.15051,-3.54047 1.15051,-3.54048 3.01181,-2.18834 3.7226,0 3.01182,2.18834 z"
       style="fill:none;stroke:#ff0000;stroke-opacity:1"
       id="path26377"
       sodipodi:nodetypes="ccccccccccc" />
    <path
       inkscape:connector-curvature="0"
       d="m 311.77599,384.55117 -1.15051,3.54047 -3.01181,2.18834 -3.7226,0 -3.01182,-2.18834 -1.15051,-3.54047 1.15051,-3.54048 3.01182,-2.18834 3.7226,0 3.01181,2.18834 z"
       style="fill:none;stroke:#ff0000;stroke-opacity:1"
       id="path26397"
       sodipodi:nodetypes="ccccccccccc" />
    <path
       inkscape:connector-curvature="0"
       d="m 247.67402,387.47085 1.77165,1.28693 0.67677,2.08276 -0.67677,2.08275 -1.77165,1.28728 -2.18976,0 -1.77166,-1.28728 -0.67677,-2.08275 0.67677,-2.08276 1.77166,-1.28693 z"
       style="fill:none;stroke:#ff0000;stroke-opacity:1"
       id="path26413"
       sodipodi:nodetypes="ccccccccccc" />
    <path
       inkscape:connector-curvature="0"
       d="m 487.39823,497.08837 -1.80567,-2.11394 -1.4524,-2.37012 -1.06405,-2.56854 -0.64878,-2.70319 -0.21827,-2.77157 0,-70.86614 0.21827,-2.77158 0.64878,-2.70319 1.06405,-2.56819 1.4524,-2.37047 1.80567,-2.11394 2.11394,-1.80567 2.37012,-1.4524 2.56854,-1.06405 2.70319,-0.64878 2.77157,-0.21827 2.77158,0.21827 2.70319,0.64878 2.56819,1.06405 2.37047,1.4524 2.11394,1.80567 1.80566,2.11394 1.45241,2.37047 1.06405,2.56819 0.64878,2.70319 0.21827,2.77158 0,70.86614 -0.21827,2.77157 -0.64878,2.70319 -1.06405,2.56854 -1.45241,2.37012 -1.80566,2.11394 -2.11394,1.80567 -2.37047,1.4524 -2.56819,1.06406 -2.70319,0.64878 -2.77158,0.21826 -2.77157,-0.21826 -2.70319,-0.64878 -2.56854,-1.06406 -2.37012,-1.4524 z"
       style="fill:none;stroke:#ff0000;stroke-opacity:1"
       id="path26431"
       sodipodi:nodetypes="ccccccccccccccccccccccccccccccccccccccccccc" />
    <path
       inkscape:connector-curvature="0"
       d="m 268.8389,396.1966 2.70319,0.64878 2.56854,1.06405 2.37012,1.4524 2.11394,1.80567 1.80567,2.11394 1.4524,2.37047 1.06405,2.56819 0.64878,2.70319 0.21827,2.77158 0,70.86614 -0.21827,2.77157 -0.64878,2.70319 -1.06405,2.56854 -1.4524,2.37012 -1.80567,2.11394 -2.11394,1.80567 -2.37012,1.4524 -2.56854,1.06406 -2.70319,0.64878 -2.77157,0.21826 -2.77158,-0.21826 -2.70319,-0.64878 -2.56819,-1.06406 -2.37047,-1.4524 -2.11394,-1.80567 -1.80566,-2.11394 -1.45241,-2.37012 -1.06405,-2.56854 -0.64878,-2.70319 -0.21827,-2.77157 0,-70.86614 0.21827,-2.77158 0.64878,-2.70319 1.06405,-2.56819 1.45241,-2.37047 1.80566,-2.11394 2.11394,-1.80567 2.37047,-1.4524 2.56819,-1.06405 2.70319,-0.64878 2.77158,-0.21827 z"
       style="fill:none;stroke:#ff0000;stroke-opacity:1"
       id="path26549"
       sodipodi:nodetypes="ccccccccccccccccccccccccccccccccccccccccccc" />
    <path
       inkscape:connector-curvature="0"
       d="m 230.76359,489.61589 -0.77067,-0.31925 -0.71114,-0.43583 -0.63426,-0.54142 -0.54141,-0.63425 -0.43583,-0.71114 -0.31925,-0.77067 -0.19453,-0.81071 -0.0656,-0.83161 3e-5,-70.86614 0.0656,-0.83126 0.19451,-0.81107 0.31925,-0.77067 0.43583,-0.71114 0.54141,-0.63425 0.63426,-0.54142 0.71114,-0.43582 0.77067,-0.31926 0.81106,-0.19452 0.83126,-0.0656 0.83161,0.0656 0.81071,0.1945 0.77067,0.31926 0.71114,0.43582 0.63426,0.54142 0.54141,0.63425 0.43583,0.71114 0.31925,0.77067 0.19453,0.81107 0.0656,0.83126 -2e-5,70.86614 -0.0656,0.83161 -0.1945,0.81071 -0.31925,0.77067 -0.43583,0.71114 -0.54141,0.63425 -0.63426,0.54142 -0.71114,0.43583 -0.77067,0.31925 -0.81071,0.19453 -0.83161,0.0656 -0.83126,-0.0656 z"
       style="fill:none;stroke:#ff0000;stroke-opacity:1"
       id="path26593"
       sodipodi:nodetypes="ccccccccccccccccccccccccccccccccccccccccccc" />
    <path
       inkscape:connector-curvature="0"
       d="m 528.53213,412.05254 0.31925,-0.77067 0.43583,-0.71114 0.54141,-0.63425 0.63426,-0.54142 0.71114,-0.43582 0.77067,-0.31926 0.81071,-0.19452 0.83161,-0.0656 0.83126,0.0656 0.81106,0.1945 0.77067,0.31926 0.71114,0.43582 0.63426,0.54142 0.54141,0.63425 0.43583,0.71114 0.31925,0.77067 0.19453,0.81107 0.0656,0.83126 -2e-5,70.86614 -0.0656,0.83161 -0.19451,0.81071 -0.31925,0.77067 -0.43583,0.71114 -0.54141,0.63425 -0.63426,0.54142 -0.71114,0.43583 -0.77067,0.31925 -0.81106,0.19453 -0.83126,0.0656 -0.83161,-0.0656 -0.81071,-0.1945 -0.77067,-0.31925 -0.71114,-0.43583 -0.63426,-0.54142 -0.54141,-0.63425 -0.43583,-0.71114 -0.31925,-0.77067 -0.19453,-0.81071 -0.0656,-0.83161 3e-5,-70.86614 0.0656,-0.83126 z"
       style="fill:none;stroke:#ff0000;stroke-opacity:1"
       id="path26699"
       sodipodi:nodetypes="ccccccccccccccccccccccccccccccccccccccccccc" />
    <path
       inkscape:connector-curvature="0"
       d="m 310.62548,528.22943 -3.01181,2.18835 -3.7226,0 -3.01182,-2.18835 -1.15051,-3.54047 1.15051,-3.54047 3.01182,-2.18835 3.7226,0 3.01181,2.18835 1.15051,3.54047 z"
       style="fill:none;stroke:#ff0000;stroke-opacity:1"
       id="path26775"
       sodipodi:nodetypes="ccccccccccc" />
    <path
       inkscape:connector-curvature="0"
       d="m 458.37925,518.96014 3.7226,0 3.01182,2.18835 1.15051,3.54047 -1.15051,3.54047 -3.01182,2.18835 -3.7226,0 -3.01181,-2.18835 -1.15051,-3.54047 1.15051,-3.54047 z"
       style="fill:none;stroke:#ff0000;stroke-opacity:1"
       id="path26787"
       sodipodi:nodetypes="ccccccccccc" />
    <path
       inkscape:connector-curvature="0"
       d="m 504.32284,534.51809 1.09488,-0.17362 1.09488,0.17362 0.98788,0.50315 0.78378,0.78378 0.5035,0.98788 0.17327,1.09488 57.14008,0 0.17326,-1.09488 0.50351,-0.98788 0.78378,-0.78378 0.98787,-0.50315 1.09488,-0.17362 1.09489,0.17362 0.98787,0.50315 0.78378,0.78378 0.50315,0.98788 0.17362,1.09488 0,11.33858 -0.17362,1.09488 -0.50315,0.98788 -0.78378,0.78378 -0.98787,0.50315 -1.09489,0.17362 -1.09488,-0.17362 -0.98787,-0.50315 -0.78378,-0.78378 -0.50351,-0.98788 -0.17326,-1.09488 -57.14008,0 -0.17327,1.09488 -0.5035,0.98788 -0.78378,0.78378 -0.98788,0.50315 -1.09488,0.17362 -1.09488,-0.17362 -0.98788,-0.50315 -0.78378,-0.78378 -0.5035,-0.98788 -0.17327,-1.09488 0,-11.33858 0.17327,-1.09488 0.5035,-0.98788 0.78378,-0.78378 z"
       style="fill:none;stroke:#ff0000;stroke-opacity:1"
       id="path26839"
       sodipodi:nodetypes="ccccccccccccccccccccccccccccccccccccccccccccc" />
    <path
       inkscape:connector-curvature="0"
       d="m 354.25298,550.32124 -0.5033,0.98788 -0.78392,0.78378 -0.98773,0.50315 -1.09495,0.17362 -1.09492,-0.17362 -0.98777,-0.50315 -0.78388,-0.78378 -0.50344,-0.98788 -0.17326,-1.09488 0,-11.33858 0.17326,-1.09488 0.50344,-0.98788 0.78388,-0.78378 0.98777,-0.50315 1.09492,-0.17362 1.09495,0.17362 0.98773,0.50315 0.78392,0.78378 0.5033,0.98788 0.17341,1.09488 57.14004,0 0.17337,-1.09488 0.50333,-0.98788 0.78392,-0.78378 0.98773,-0.50315 1.09496,-0.17362 1.09495,0.17362 0.98773,0.50315 0.78392,0.78378 0.50315,0.98788 0.17362,1.09488 0,11.33858 -0.17362,1.09488 -0.50315,0.98788 -0.78392,0.78378 -0.98773,0.50315 -1.09495,0.17362 -1.09496,-0.17362 -0.98773,-0.50315 -0.78392,-0.78378 -0.50333,-0.98788 -0.17337,-1.09488 -57.14005,0 z"
       style="fill:none;stroke:#ff0000;stroke-opacity:1"
       id="path26899"
       sodipodi:nodetypes="ccccccccccccccccccccccccccccccccccccccccccccc" />
    <path
       inkscape:connector-curvature="0"
       d="m 257.03189,549.22636 -57.14008,0 -0.17326,1.09488 -0.50351,0.98788 -0.78378,0.78378 -0.98787,0.50315 -1.09488,0.17362 -1.09489,-0.17362 -0.98787,-0.50315 -0.78378,-0.78378 -0.5035,-0.98788 -0.17327,-1.09488 0,-11.33858 0.17327,-1.09488 0.5035,-0.98788 0.78378,-0.78378 0.98787,-0.50315 1.09489,-0.17362 1.09488,0.17362 0.98787,0.50315 0.78378,0.78378 0.50351,0.98788 0.17326,1.09488 57.14008,0 0.17327,-1.09488 0.5035,-0.98788 0.78378,-0.78378 0.98788,-0.50315 1.09488,-0.17362 1.09488,0.17362 0.98788,0.50315 0.78378,0.78378 0.50314,0.98788 0.17363,1.09488 0,11.33858 -0.17363,1.09488 -0.50314,0.98788 -0.78378,0.78378 -0.98788,0.50315 -1.09488,0.17362 -1.09488,-0.17362 -0.98788,-0.50315 -0.78378,-0.78378 -0.5035,-0.98788 z"
       style="fill:none;stroke:#ff0000;stroke-opacity:1"
       id="path26983"
       sodipodi:nodetypes="ccccccccccccccccccccccccccccccccccccccccccccc" />
    <path
       inkscape:connector-curvature="0"
       d="m 467.73571,563.61683 -1.60901,-2.2146 0,-2.73756 1.60901,-2.21457 2.60327,-0.84579 2.60327,0.84579 1.60901,2.21457 0,2.73756 -1.60901,2.2146 -2.60327,0.8458 z"
       style="fill:none;stroke:#ff0000;stroke-opacity:1"
       id="path27083"
       sodipodi:nodetypes="ccccccccccc" />
    <path
       inkscape:connector-curvature="0"
       d="m 291.44166,561.40223 0,-2.73756 1.60901,-2.21457 2.60327,-0.84579 2.60327,0.84579 1.60901,2.21457 0,2.73756 -1.60901,2.2146 -2.60327,0.8458 -2.60327,-0.8458 z"
       style="fill:none;stroke:#ff0000;stroke-opacity:1"
       id="path27085"
       sodipodi:nodetypes="ccccccccccc" />
    <path
       inkscape:connector-curvature="0"
       d="m 249.44567,561.23038 -1.77165,1.28693 -2.18976,0 -1.77166,-1.28693 -0.67677,-2.08276 0.67677,-2.08275 1.77166,-1.28729 2.18976,0 1.77165,1.28729 0.67677,2.08275 z"
       style="fill:none;stroke:#ff0000;stroke-opacity:1"
       id="path27119"
       sodipodi:nodetypes="ccccccccccc" />
    <path
       inkscape:connector-curvature="0"
       d="m 518.3189,555.77794 2.18976,0 1.77166,1.28693 0.67677,2.08275 -0.67677,2.08276 -1.77166,1.28728 -2.18976,0 -1.77165,-1.28728 -0.67677,-2.08276 0.67677,-2.08275 z"
       style="fill:none;stroke:#ff0000;stroke-opacity:1"
       id="path27131"
       sodipodi:nodetypes="ccccccccccc" />
    <path
       inkscape:connector-curvature="0"
       d="m 526.36292,574.51243 0,-2.7375 1.60901,-2.2146 2.60327,-0.8458 2.60327,0.8458 1.60901,2.2146 0,2.7375 -1.60901,2.2146 -2.60327,0.8458 -2.60327,-0.8458 z"
       style="fill:none;stroke:#ff0000;stroke-opacity:1"
       id="path27145"
       sodipodi:nodetypes="ccccccccccc" />
    <path
       inkscape:connector-curvature="0"
       d="m 232.81445,576.72703 -1.60901,-2.2146 0,-2.7375 1.60901,-2.2146 2.60327,-0.8458 2.60327,0.8458 1.60901,2.2146 0,2.7375 -1.60901,2.2146 -2.60327,0.8458 z"
       style="fill:none;stroke:#ff0000;stroke-opacity:1"
       id="path27183"
       sodipodi:nodetypes="ccccccccccc" />
    <path
       inkscape:connector-curvature="0"
       d="m 351.67784,574.51243 0,-2.7375 1.60898,-2.2146 2.60338,-0.8458 2.60333,0.8458 1.60902,2.2146 0,2.7375 -1.60902,2.2146 -2.60333,0.8458 -2.60338,-0.8458 z"
       style="fill:none;stroke:#ff0000;stroke-opacity:1"
       id="path27185"
       sodipodi:nodetypes="ccccccccccc" />
    <path
       inkscape:connector-curvature="0"
       d="m 405.8903,574.51243 0,-2.7375 1.60901,-2.2146 2.60338,-0.8458 2.60334,0.8458 1.60898,2.2146 0,2.7375 -1.60898,2.2146 -2.60334,0.8458 -2.60338,-0.8458 z"
       style="fill:none;stroke:#ff0000;stroke-opacity:1"
       id="path27205"
       sodipodi:nodetypes="ccccccccccc" />
    <path
       inkscape:connector-curvature="0"
       d="m 577.63315,613.47023 -2.15645,0.3803 -1.96831,-0.96 -1.02827,-1.9336 0.30473,-2.1686 1.52149,-1.5753 2.15646,-0.3802 1.96831,0.9599 1.02826,1.9336 -0.30508,2.1686 z"
       style="fill:none;stroke:#ff0000;stroke-opacity:1"
       id="path27239"
       sodipodi:nodetypes="ccccccccccc" />
    <path
       inkscape:connector-curvature="0"
       d="m 193.20772,608.78833 0.30508,2.1686 -1.02827,1.9336 -1.96831,0.9599 -2.15645,-0.3802 -1.52114,-1.5753 -0.30508,-2.1686 1.02826,-1.9336 1.96831,-0.9599 2.15646,0.3802 z"
       style="fill:none;stroke:#ff0000;stroke-opacity:1"
       id="path27255"
       sodipodi:nodetypes="ccccccccccc" />
    <path
       inkscape:connector-curvature="0"
       d="m 516.95331,618.63293 1.5215,-1.5752 2.15645,-0.3804 1.96831,0.9601 1.02791,1.9335 -0.30472,2.1686 -1.52114,1.5753 -2.15681,0.3802 -1.96796,-0.96 -1.02826,-1.9335 z"
       style="fill:none;stroke:#ff0000;stroke-opacity:1"
       id="path27267"
       sodipodi:nodetypes="ccccccccccc" />
    <path
       inkscape:connector-curvature="0"
       d="m 246.34811,623.69503 -2.15681,-0.3803 -1.52114,-1.5752 -0.30472,-2.1686 1.02791,-1.9336 1.96831,-0.96 2.15645,0.3804 1.5215,1.5752 0.30472,2.1686 -1.02826,1.9335 z"
       style="fill:none;stroke:#ff0000;stroke-opacity:1"
       id="path27301-0"
       sodipodi:nodetypes="ccccccccccc" />
    <path
       inkscape:connector-curvature="0"
       d="m 551.4924,661.29373 -5.98252,-33.9301 11.5154,-2.0309 5.98323,33.9303 z"
       style="fill:none;stroke:#ff0000;stroke-opacity:1"
       id="path27309"
       sodipodi:nodetypes="ccccc" />
    <path
       inkscape:connector-curvature="0"
       d="m 202.98477,659.26343 5.98252,-33.9304 11.51575,2.0302 -5.98288,33.9305 z"
       style="fill:none;stroke:#ff0000;stroke-opacity:1"
       id="path27319"
       sodipodi:nodetypes="ccccc" />
    <path
       inkscape:connector-curvature="0"
       d="m 183.43741,641.38593 -1.52115,-1.5752 -0.30472,-2.1687 1.02791,-1.9335 1.96831,-0.96 2.15646,0.3803 1.52149,1.5753 0.30473,2.1685 -1.02827,1.9336 -1.96831,0.96 z"
       style="fill:none;stroke:#ff0000;stroke-opacity:1"
       id="path27339"
       sodipodi:nodetypes="ccccccccccc" />
    <path
       inkscape:connector-curvature="0"
       d="m 582.55551,641.38593 -2.15681,0.3803 -1.96795,-0.96 -1.02827,-1.9336 0.30473,-2.1685 1.52114,-1.5753 2.15681,-0.3803 1.96831,0.96 1.02791,1.9335 -0.30472,2.1687 z"
       style="fill:none;stroke:#ff0000;stroke-opacity:1"
       id="path27355"
       sodipodi:nodetypes="ccccccccccc" />
    <path
       inkscape:connector-curvature="0"
       d="m 521.87567,646.54873 1.52114,-1.5753 2.15681,-0.3802 1.96831,0.96 1.02792,1.9335 -0.30473,2.1686 -1.52114,1.5752 -2.15681,0.3804 -1.96795,-0.9601 -1.02827,-1.9335 z"
       style="fill:none;stroke:#ff0000;stroke-opacity:1"
       id="path27363"
       sodipodi:nodetypes="ccccccccccc" />
    <path
       inkscape:connector-curvature="0"
       d="m 238.47099,645.55313 1.96831,-0.9599 2.15681,0.3802 1.52114,1.5753 0.30472,2.1686 -1.02827,1.9335 -1.96795,0.9601 -2.15681,-0.3804 -1.52114,-1.5752 -0.30473,-2.1686 z"
       style="fill:none;stroke:#ff0000;stroke-opacity:1"
       id="path27385"
       sodipodi:nodetypes="ccccccccccc" />
    <path
       inkscape:connector-curvature="0"
       d="m 586.30752,662.66423 1.96831,0.9603 1.02791,1.9332 -0.30472,2.1689 -1.52114,1.575 -2.15681,0.3805 -1.96831,-0.9602 -1.02791,-1.9336 0.30472,-2.1685 1.52114,-1.575 z"
       style="fill:none;stroke:#ff0000;stroke-opacity:1"
       id="path27407"
       sodipodi:nodetypes="ccccccccccc" />
    <path
       inkscape:connector-curvature="0"
       d="m 181.84221,663.04483 1.52114,1.575 0.30472,2.1685 -1.02826,1.9336 -1.96796,0.9602 -2.15681,-0.3805 -1.52114,-1.575 -0.30472,-2.1689 1.02791,-1.9332 1.96831,-0.9603 z"
       style="fill:none;stroke:#ff0000;stroke-opacity:1"
       id="path27429"
       sodipodi:nodetypes="ccccccccccc" />
    <path
       inkscape:connector-curvature="0"
       d="m 528.31918,672.88923 2.15645,-0.3802 1.96831,0.9599 1.02827,1.9335 -0.30473,2.1685 -1.52149,1.5754 -2.15646,0.3802 -1.96831,-0.9599 -1.02791,-1.9336 0.30473,-2.1685 z"
       style="fill:none;stroke:#ff0000;stroke-opacity:1"
       id="path27445"
       sodipodi:nodetypes="ccccccccccc" />
    <path
       inkscape:connector-curvature="0"
       d="m 236.50339,679.52653 -2.15681,-0.3802 -1.52114,-1.5754 -0.30473,-2.1685 1.02827,-1.9335 1.96795,-0.9599 2.15681,0.3802 1.52114,1.5753 0.30473,2.1685 -1.02791,1.9336 z"
       style="fill:none;stroke:#ff0000;stroke-opacity:1"
       id="path27477"
       sodipodi:nodetypes="ccccccccccc" />
  </g>
</svg>
