  0
SECTION
  2
BLOCKS
  0
ENDSEC
  0
SECTION
  2
ENTITIES
  0
LINE
  8
0
 10
0.995087
 20
-7.93774
 11
1.25146
 21
-7.9015
  0
LINE
  8
0
 10
1.25146
 20
-7.9015
 11
1.49904
 21
-7.85829
  0
LINE
  8
0
 10
1.49904
 20
-7.85829
 11
1.74513
 21
-7.80733
  0
LINE
  8
0
 10
1.74513
 20
-7.80733
 11
1.98952
 21
-7.74866
  0
LINE
  8
0
 10
1.98952
 20
-7.74866
 11
2.23192
 21
-7.68234
  0
LINE
  8
0
 10
2.23192
 20
-7.68234
 11
2.47212
 21
-7.60844
  0
LINE
  8
0
 10
2.47212
 20
-7.60844
 11
2.7099
 21
-7.52704
  0
LINE
  8
0
 10
2.7099
 20
-7.52704
 11
2.94499
 21
-7.4382
  0
LINE
  8
0
 10
2.94499
 20
-7.4382
 11
3.17717
 21
-7.34203
  0
LINE
  8
0
 10
3.17717
 20
-7.34203
 11
3.40622
 21
-7.2386
  0
LINE
  8
0
 10
3.40622
 20
-7.2386
 11
3.63191
 21
-7.12805
  0
LINE
  8
0
 10
3.63191
 20
-7.12805
 11
3.85402
 21
-7.01045
  0
LINE
  8
0
 10
3.85402
 20
-7.01045
 11
4.07233
 21
-6.88593
  0
LINE
  8
0
 10
4.07233
 20
-6.88593
 11
4.28661
 21
-6.75461
  0
LINE
  8
0
 10
4.28661
 20
-6.75461
 11
4.49666
 21
-6.61664
  0
LINE
  8
0
 10
4.49666
 20
-6.61664
 11
4.70227
 21
-6.47212
  0
LINE
  8
0
 10
4.70227
 20
-6.47212
 11
4.90324
 21
-6.32123
  0
LINE
  8
0
 10
4.90324
 20
-6.32123
 11
5.09938
 21
-6.16409
  0
LINE
  8
0
 10
5.09938
 20
-6.16409
 11
5.29048
 21
-6.00089
  0
LINE
  8
0
 10
5.29048
 20
-6.00089
 11
5.47636
 21
-5.83174
  0
LINE
  8
0
 10
5.47636
 20
-5.83174
 11
5.65685
 21
-5.65685
  0
LINE
  8
0
 10
5.65685
 20
-5.65685
 11
5.83174
 21
-5.47636
  0
LINE
  8
0
 10
5.83174
 20
-5.47636
 11
6.00089
 21
-5.29048
  0
LINE
  8
0
 10
6.00089
 20
-5.29048
 11
6.16409
 21
-5.09938
  0
LINE
  8
0
 10
6.16409
 20
-5.09938
 11
6.32123
 21
-4.90324
  0
LINE
  8
0
 10
6.32123
 20
-4.90324
 11
6.47212
 21
-4.70227
  0
LINE
  8
0
 10
6.47212
 20
-4.70227
 11
6.61664
 21
-4.49666
  0
LINE
  8
0
 10
6.61664
 20
-4.49666
 11
6.75461
 21
-4.28661
  0
LINE
  8
0
 10
6.75461
 20
-4.28661
 11
6.88593
 21
-4.07233
  0
LINE
  8
0
 10
6.88593
 20
-4.07233
 11
7.01045
 21
-3.85402
  0
LINE
  8
0
 10
7.01045
 20
-3.85402
 11
7.12805
 21
-3.63191
  0
LINE
  8
0
 10
7.12805
 20
-3.63191
 11
7.2386
 21
-3.40622
  0
LINE
  8
0
 10
7.2386
 20
-3.40622
 11
7.34203
 21
-3.17717
  0
LINE
  8
0
 10
7.34203
 20
-3.17717
 11
7.4382
 21
-2.94499
  0
LINE
  8
0
 10
7.4382
 20
-2.94499
 11
7.52704
 21
-2.7099
  0
LINE
  8
0
 10
7.52704
 20
-2.7099
 11
7.60844
 21
-2.47212
  0
LINE
  8
0
 10
7.60844
 20
-2.47212
 11
7.68234
 21
-2.23192
  0
LINE
  8
0
 10
7.68234
 20
-2.23192
 11
7.74866
 21
-1.98952
  0
LINE
  8
0
 10
7.74866
 20
-1.98952
 11
7.80733
 21
-1.74513
  0
LINE
  8
0
 10
7.80733
 20
-1.74513
 11
7.85829
 21
-1.49904
  0
LINE
  8
0
 10
7.85829
 20
-1.49904
 11
7.9015
 21
-1.25146
  0
LINE
  8
0
 10
7.9015
 20
-1.25146
 11
7.93774
 21
-0.995102
  0
LINE
  8
0
 10
7.93774
 20
-0.995102
 11
7.84355
 21
-0.987686
  0
LINE
  8
0
 10
7.84355
 20
-0.987686
 11
7.69098
 21
-0.95105
  0
LINE
  8
0
 10
7.69098
 20
-0.95105
 11
7.54601
 21
-0.891006
  0
LINE
  8
0
 10
7.54601
 20
-0.891006
 11
7.4122
 21
-0.809006
  0
LINE
  8
0
 10
7.4122
 20
-0.809006
 11
7.29289
 21
-0.707092
  0
LINE
  8
0
 10
7.29289
 20
-0.707092
 11
7.19098
 21
-0.587784
  0
LINE
  8
0
 10
7.19098
 20
-0.587784
 11
7.10898
 21
-0.453979
  0
LINE
  8
0
 10
7.10898
 20
-0.453979
 11
7.04893
 21
-0.309006
  0
LINE
  8
0
 10
7.04893
 20
-0.309006
 11
7.0123
 21
-0.156433
  0
LINE
  8
0
 10
7.0123
 20
-0.156433
 11
7
 21
0
  0
LINE
  8
0
 10
7
 20
0
 11
7.0123
 21
0.156433
  0
LINE
  8
0
 10
7.0123
 20
0.156433
 11
7.04893
 21
0.309006
  0
LINE
  8
0
 10
7.04893
 20
0.309006
 11
7.10898
 21
0.453979
  0
LINE
  8
0
 10
7.10898
 20
0.453979
 11
7.19098
 21
0.587784
  0
LINE
  8
0
 10
7.19098
 20
0.587784
 11
7.29289
 21
0.707092
  0
LINE
  8
0
 10
7.29289
 20
0.707092
 11
7.4122
 21
0.809006
  0
LINE
  8
0
 10
7.4122
 20
0.809006
 11
7.54601
 21
0.891006
  0
LINE
  8
0
 10
7.54601
 20
0.891006
 11
7.69098
 21
0.95105
  0
LINE
  8
0
 10
7.69098
 20
0.95105
 11
7.84355
 21
0.987686
  0
LINE
  8
0
 10
7.84355
 20
0.987686
 11
7.93774
 21
0.995102
  0
LINE
  8
0
 10
7.93774
 20
0.995102
 11
7.9015
 21
1.25146
  0
LINE
  8
0
 10
7.9015
 20
1.25146
 11
7.85829
 21
1.49904
  0
LINE
  8
0
 10
7.85829
 20
1.49904
 11
7.80733
 21
1.74513
  0
LINE
  8
0
 10
7.80733
 20
1.74513
 11
7.74866
 21
1.98952
  0
LINE
  8
0
 10
7.74866
 20
1.98952
 11
7.68234
 21
2.23192
  0
LINE
  8
0
 10
7.68234
 20
2.23192
 11
7.60844
 21
2.47212
  0
LINE
  8
0
 10
7.60844
 20
2.47212
 11
7.52704
 21
2.7099
  0
LINE
  8
0
 10
7.52704
 20
2.7099
 11
7.4382
 21
2.94499
  0
LINE
  8
0
 10
7.4382
 20
2.94499
 11
7.34203
 21
3.17717
  0
LINE
  8
0
 10
7.34203
 20
3.17717
 11
7.2386
 21
3.40622
  0
LINE
  8
0
 10
7.2386
 20
3.40622
 11
7.12805
 21
3.63191
  0
LINE
  8
0
 10
7.12805
 20
3.63191
 11
7.01045
 21
3.85402
  0
LINE
  8
0
 10
7.01045
 20
3.85402
 11
6.88593
 21
4.07233
  0
LINE
  8
0
 10
6.88593
 20
4.07233
 11
6.75461
 21
4.28661
  0
LINE
  8
0
 10
6.75461
 20
4.28661
 11
6.61664
 21
4.49666
  0
LINE
  8
0
 10
6.61664
 20
4.49666
 11
6.47212
 21
4.70227
  0
LINE
  8
0
 10
6.47212
 20
4.70227
 11
6.32123
 21
4.90324
  0
LINE
  8
0
 10
6.32123
 20
4.90324
 11
6.16409
 21
5.09938
  0
LINE
  8
0
 10
6.16409
 20
5.09938
 11
6.00089
 21
5.29048
  0
LINE
  8
0
 10
6.00089
 20
5.29048
 11
5.83174
 21
5.47636
  0
LINE
  8
0
 10
5.83174
 20
5.47636
 11
5.65685
 21
5.65685
  0
LINE
  8
0
 10
5.65685
 20
5.65685
 11
5.47636
 21
5.83174
  0
LINE
  8
0
 10
5.47636
 20
5.83174
 11
5.29048
 21
6.00089
  0
LINE
  8
0
 10
5.29048
 20
6.00089
 11
5.09938
 21
6.16409
  0
LINE
  8
0
 10
5.09938
 20
6.16409
 11
4.90324
 21
6.32123
  0
LINE
  8
0
 10
4.90324
 20
6.32123
 11
4.70227
 21
6.47212
  0
LINE
  8
0
 10
4.70227
 20
6.47212
 11
4.49666
 21
6.61664
  0
LINE
  8
0
 10
4.49666
 20
6.61664
 11
4.28661
 21
6.75461
  0
LINE
  8
0
 10
4.28661
 20
6.75461
 11
4.07233
 21
6.88593
  0
LINE
  8
0
 10
4.07233
 20
6.88593
 11
3.85402
 21
7.01045
  0
LINE
  8
0
 10
3.85402
 20
7.01045
 11
3.63191
 21
7.12805
  0
LINE
  8
0
 10
3.63191
 20
7.12805
 11
3.40622
 21
7.2386
  0
LINE
  8
0
 10
3.40622
 20
7.2386
 11
3.17717
 21
7.34203
  0
LINE
  8
0
 10
3.17717
 20
7.34203
 11
2.94499
 21
7.4382
  0
LINE
  8
0
 10
2.94499
 20
7.4382
 11
2.7099
 21
7.52704
  0
LINE
  8
0
 10
2.7099
 20
7.52704
 11
2.47212
 21
7.60844
  0
LINE
  8
0
 10
2.47212
 20
7.60844
 11
2.23192
 21
7.68234
  0
LINE
  8
0
 10
2.23192
 20
7.68234
 11
1.98952
 21
7.74866
  0
LINE
  8
0
 10
1.98952
 20
7.74866
 11
1.74513
 21
7.80733
  0
LINE
  8
0
 10
1.74513
 20
7.80733
 11
1.49904
 21
7.85829
  0
LINE
  8
0
 10
1.49904
 20
7.85829
 11
1.25146
 21
7.9015
  0
LINE
  8
0
 10
1.25146
 20
7.9015
 11
0.995102
 21
7.93774
  0
LINE
  8
0
 10
0.995102
 20
7.93774
 11
0.987686
 21
7.84355
  0
LINE
  8
0
 10
0.987686
 20
7.84355
 11
0.95105
 21
7.69098
  0
LINE
  8
0
 10
0.95105
 20
7.69098
 11
0.891006
 21
7.54601
  0
LINE
  8
0
 10
0.891006
 20
7.54601
 11
0.809006
 21
7.4122
  0
LINE
  8
0
 10
0.809006
 20
7.4122
 11
0.707092
 21
7.29289
  0
LINE
  8
0
 10
0.707092
 20
7.29289
 11
0.587784
 21
7.19098
  0
LINE
  8
0
 10
0.587784
 20
7.19098
 11
0.453979
 21
7.10898
  0
LINE
  8
0
 10
0.453979
 20
7.10898
 11
0.309006
 21
7.04893
  0
LINE
  8
0
 10
0.309006
 20
7.04893
 11
0.156433
 21
7.0123
  0
LINE
  8
0
 10
0.156433
 20
7.0123
 11
0
 21
7
  0
LINE
  8
0
 10
0
 20
7
 11
-0.156433
 21
7.0123
  0
LINE
  8
0
 10
-0.156433
 20
7.0123
 11
-0.309006
 21
7.04893
  0
LINE
  8
0
 10
-0.309006
 20
7.04893
 11
-0.453979
 21
7.10898
  0
LINE
  8
0
 10
-0.453979
 20
7.10898
 11
-0.587784
 21
7.19098
  0
LINE
  8
0
 10
-0.587784
 20
7.19098
 11
-0.707092
 21
7.29289
  0
LINE
  8
0
 10
-0.707092
 20
7.29289
 11
-0.809006
 21
7.4122
  0
LINE
  8
0
 10
-0.809006
 20
7.4122
 11
-0.891006
 21
7.54601
  0
LINE
  8
0
 10
-0.891006
 20
7.54601
 11
-0.95105
 21
7.69098
  0
LINE
  8
0
 10
-0.95105
 20
7.69098
 11
-0.987686
 21
7.84355
  0
LINE
  8
0
 10
-0.987686
 20
7.84355
 11
-0.995087
 21
7.93774
  0
LINE
  8
0
 10
-0.995087
 20
7.93774
 11
-1.25146
 21
7.9015
  0
LINE
  8
0
 10
-1.25146
 20
7.9015
 11
-1.49904
 21
7.85829
  0
LINE
  8
0
 10
-1.49904
 20
7.85829
 11
-1.74513
 21
7.80733
  0
LINE
  8
0
 10
-1.74513
 20
7.80733
 11
-1.98952
 21
7.74866
  0
LINE
  8
0
 10
-1.98952
 20
7.74866
 11
-2.23192
 21
7.68234
  0
LINE
  8
0
 10
-2.23192
 20
7.68234
 11
-2.47212
 21
7.60844
  0
LINE
  8
0
 10
-2.47212
 20
7.60844
 11
-2.7099
 21
7.52704
  0
LINE
  8
0
 10
-2.7099
 20
7.52704
 11
-2.94499
 21
7.4382
  0
LINE
  8
0
 10
-2.94499
 20
7.4382
 11
-3.17717
 21
7.34203
  0
LINE
  8
0
 10
-3.17717
 20
7.34203
 11
-3.40622
 21
7.2386
  0
LINE
  8
0
 10
-3.40622
 20
7.2386
 11
-3.63191
 21
7.12805
  0
LINE
  8
0
 10
-3.63191
 20
7.12805
 11
-3.85402
 21
7.01045
  0
LINE
  8
0
 10
-3.85402
 20
7.01045
 11
-4.07233
 21
6.88593
  0
LINE
  8
0
 10
-4.07233
 20
6.88593
 11
-4.28661
 21
6.75461
  0
LINE
  8
0
 10
-4.28661
 20
6.75461
 11
-4.49666
 21
6.61664
  0
LINE
  8
0
 10
-4.49666
 20
6.61664
 11
-4.70227
 21
6.47212
  0
LINE
  8
0
 10
-4.70227
 20
6.47212
 11
-4.90324
 21
6.32123
  0
LINE
  8
0
 10
-4.90324
 20
6.32123
 11
-5.09938
 21
6.16409
  0
LINE
  8
0
 10
-5.09938
 20
6.16409
 11
-5.29048
 21
6.00089
  0
LINE
  8
0
 10
-5.29048
 20
6.00089
 11
-5.47636
 21
5.83174
  0
LINE
  8
0
 10
-5.47636
 20
5.83174
 11
-5.65685
 21
5.65685
  0
LINE
  8
0
 10
-5.65685
 20
5.65685
 11
-5.83174
 21
5.47636
  0
LINE
  8
0
 10
-5.83174
 20
5.47636
 11
-6.00089
 21
5.29048
  0
LINE
  8
0
 10
-6.00089
 20
5.29048
 11
-6.16409
 21
5.09938
  0
LINE
  8
0
 10
-6.16409
 20
5.09938
 11
-6.32123
 21
4.90324
  0
LINE
  8
0
 10
-6.32123
 20
4.90324
 11
-6.47212
 21
4.70227
  0
LINE
  8
0
 10
-6.47212
 20
4.70227
 11
-6.61664
 21
4.49666
  0
LINE
  8
0
 10
-6.61664
 20
4.49666
 11
-6.75461
 21
4.28661
  0
LINE
  8
0
 10
-6.75461
 20
4.28661
 11
-6.88593
 21
4.07233
  0
LINE
  8
0
 10
-6.88593
 20
4.07233
 11
-7.01045
 21
3.85402
  0
LINE
  8
0
 10
-7.01045
 20
3.85402
 11
-7.12805
 21
3.63191
  0
LINE
  8
0
 10
-7.12805
 20
3.63191
 11
-7.2386
 21
3.40622
  0
LINE
  8
0
 10
-7.2386
 20
3.40622
 11
-7.34203
 21
3.17717
  0
LINE
  8
0
 10
-7.34203
 20
3.17717
 11
-7.4382
 21
2.94499
  0
LINE
  8
0
 10
-7.4382
 20
2.94499
 11
-7.52704
 21
2.7099
  0
LINE
  8
0
 10
-7.52704
 20
2.7099
 11
-7.60844
 21
2.47212
  0
LINE
  8
0
 10
-7.60844
 20
2.47212
 11
-7.68234
 21
2.23192
  0
LINE
  8
0
 10
-7.68234
 20
2.23192
 11
-7.74866
 21
1.98952
  0
LINE
  8
0
 10
-7.74866
 20
1.98952
 11
-7.80733
 21
1.74513
  0
LINE
  8
0
 10
-7.80733
 20
1.74513
 11
-7.85829
 21
1.49904
  0
LINE
  8
0
 10
-7.85829
 20
1.49904
 11
-7.9015
 21
1.25146
  0
LINE
  8
0
 10
-7.9015
 20
1.25146
 11
-7.93774
 21
0.995102
  0
LINE
  8
0
 10
-7.93774
 20
0.995102
 11
-7.84355
 21
0.987686
  0
LINE
  8
0
 10
-7.84355
 20
0.987686
 11
-7.69098
 21
0.95105
  0
LINE
  8
0
 10
-7.69098
 20
0.95105
 11
-7.54601
 21
0.891006
  0
LINE
  8
0
 10
-7.54601
 20
0.891006
 11
-7.4122
 21
0.809006
  0
LINE
  8
0
 10
-7.4122
 20
0.809006
 11
-7.29289
 21
0.707092
  0
LINE
  8
0
 10
-7.29289
 20
0.707092
 11
-7.19098
 21
0.587784
  0
LINE
  8
0
 10
-7.19098
 20
0.587784
 11
-7.10898
 21
0.453979
  0
LINE
  8
0
 10
-7.10898
 20
0.453979
 11
-7.04893
 21
0.309006
  0
LINE
  8
0
 10
-7.04893
 20
0.309006
 11
-7.0123
 21
0.156433
  0
LINE
  8
0
 10
-7.0123
 20
0.156433
 11
-7
 21
0
  0
LINE
  8
0
 10
-7
 20
0
 11
-7.0123
 21
-0.156433
  0
LINE
  8
0
 10
-7.0123
 20
-0.156433
 11
-7.04893
 21
-0.309006
  0
LINE
  8
0
 10
-7.04893
 20
-0.309006
 11
-7.10898
 21
-0.453979
  0
LINE
  8
0
 10
-7.10898
 20
-0.453979
 11
-7.19098
 21
-0.587784
  0
LINE
  8
0
 10
-7.19098
 20
-0.587784
 11
-7.29289
 21
-0.707092
  0
LINE
  8
0
 10
-7.29289
 20
-0.707092
 11
-7.4122
 21
-0.809006
  0
LINE
  8
0
 10
-7.4122
 20
-0.809006
 11
-7.54601
 21
-0.891006
  0
LINE
  8
0
 10
-7.54601
 20
-0.891006
 11
-7.69098
 21
-0.95105
  0
LINE
  8
0
 10
-7.69098
 20
-0.95105
 11
-7.84355
 21
-0.987686
  0
LINE
  8
0
 10
-7.84355
 20
-0.987686
 11
-7.93774
 21
-0.995087
  0
LINE
  8
0
 10
-7.93774
 20
-0.995087
 11
-7.9015
 21
-1.25146
  0
LINE
  8
0
 10
-7.9015
 20
-1.25146
 11
-7.85829
 21
-1.49904
  0
LINE
  8
0
 10
-7.85829
 20
-1.49904
 11
-7.80733
 21
-1.74513
  0
LINE
  8
0
 10
-7.80733
 20
-1.74513
 11
-7.74866
 21
-1.98952
  0
LINE
  8
0
 10
-7.74866
 20
-1.98952
 11
-7.68234
 21
-2.23192
  0
LINE
  8
0
 10
-7.68234
 20
-2.23192
 11
-7.60844
 21
-2.47212
  0
LINE
  8
0
 10
-7.60844
 20
-2.47212
 11
-7.52704
 21
-2.7099
  0
LINE
  8
0
 10
-7.52704
 20
-2.7099
 11
-7.4382
 21
-2.94499
  0
LINE
  8
0
 10
-7.4382
 20
-2.94499
 11
-7.34203
 21
-3.17717
  0
LINE
  8
0
 10
-7.34203
 20
-3.17717
 11
-7.2386
 21
-3.40622
  0
LINE
  8
0
 10
-7.2386
 20
-3.40622
 11
-7.12805
 21
-3.63191
  0
LINE
  8
0
 10
-7.12805
 20
-3.63191
 11
-7.01045
 21
-3.85402
  0
LINE
  8
0
 10
-7.01045
 20
-3.85402
 11
-6.88593
 21
-4.07233
  0
LINE
  8
0
 10
-6.88593
 20
-4.07233
 11
-6.75461
 21
-4.28661
  0
LINE
  8
0
 10
-6.75461
 20
-4.28661
 11
-6.61664
 21
-4.49666
  0
LINE
  8
0
 10
-6.61664
 20
-4.49666
 11
-6.47212
 21
-4.70227
  0
LINE
  8
0
 10
-6.47212
 20
-4.70227
 11
-6.32123
 21
-4.90324
  0
LINE
  8
0
 10
-6.32123
 20
-4.90324
 11
-6.16409
 21
-5.09938
  0
LINE
  8
0
 10
-6.16409
 20
-5.09938
 11
-6.00089
 21
-5.29048
  0
LINE
  8
0
 10
-6.00089
 20
-5.29048
 11
-5.83174
 21
-5.47636
  0
LINE
  8
0
 10
-5.83174
 20
-5.47636
 11
-5.65685
 21
-5.65685
  0
LINE
  8
0
 10
-5.65685
 20
-5.65685
 11
-5.47636
 21
-5.83174
  0
LINE
  8
0
 10
-5.47636
 20
-5.83174
 11
-5.29048
 21
-6.00089
  0
LINE
  8
0
 10
-5.29048
 20
-6.00089
 11
-5.09938
 21
-6.16409
  0
LINE
  8
0
 10
-5.09938
 20
-6.16409
 11
-4.90324
 21
-6.32123
  0
LINE
  8
0
 10
-4.90324
 20
-6.32123
 11
-4.70227
 21
-6.47212
  0
LINE
  8
0
 10
-4.70227
 20
-6.47212
 11
-4.49666
 21
-6.61664
  0
LINE
  8
0
 10
-4.49666
 20
-6.61664
 11
-4.28661
 21
-6.75461
  0
LINE
  8
0
 10
-4.28661
 20
-6.75461
 11
-4.07233
 21
-6.88593
  0
LINE
  8
0
 10
-4.07233
 20
-6.88593
 11
-3.85402
 21
-7.01045
  0
LINE
  8
0
 10
-3.85402
 20
-7.01045
 11
-3.63191
 21
-7.12805
  0
LINE
  8
0
 10
-3.63191
 20
-7.12805
 11
-3.40622
 21
-7.2386
  0
LINE
  8
0
 10
-3.40622
 20
-7.2386
 11
-3.17717
 21
-7.34203
  0
LINE
  8
0
 10
-3.17717
 20
-7.34203
 11
-2.94499
 21
-7.4382
  0
LINE
  8
0
 10
-2.94499
 20
-7.4382
 11
-2.7099
 21
-7.52704
  0
LINE
  8
0
 10
-2.7099
 20
-7.52704
 11
-2.47212
 21
-7.60844
  0
LINE
  8
0
 10
-2.47212
 20
-7.60844
 11
-2.23192
 21
-7.68234
  0
LINE
  8
0
 10
-2.23192
 20
-7.68234
 11
-1.98952
 21
-7.74866
  0
LINE
  8
0
 10
-1.98952
 20
-7.74866
 11
-1.74513
 21
-7.80733
  0
LINE
  8
0
 10
-1.74513
 20
-7.80733
 11
-1.49904
 21
-7.85829
  0
LINE
  8
0
 10
-1.49904
 20
-7.85829
 11
-1.25146
 21
-7.9015
  0
LINE
  8
0
 10
-1.25146
 20
-7.9015
 11
-0.995102
 21
-7.93774
  0
LINE
  8
0
 10
-0.995102
 20
-7.93774
 11
-0.987686
 21
-7.84355
  0
LINE
  8
0
 10
-0.987686
 20
-7.84355
 11
-0.95105
 21
-7.69098
  0
LINE
  8
0
 10
-0.95105
 20
-7.69098
 11
-0.891006
 21
-7.54601
  0
LINE
  8
0
 10
-0.891006
 20
-7.54601
 11
-0.809006
 21
-7.4122
  0
LINE
  8
0
 10
-0.809006
 20
-7.4122
 11
-0.707092
 21
-7.29289
  0
LINE
  8
0
 10
-0.707092
 20
-7.29289
 11
-0.587784
 21
-7.19098
  0
LINE
  8
0
 10
-0.587784
 20
-7.19098
 11
-0.453979
 21
-7.10898
  0
LINE
  8
0
 10
-0.453979
 20
-7.10898
 11
-0.309006
 21
-7.04893
  0
LINE
  8
0
 10
-0.309006
 20
-7.04893
 11
-0.156433
 21
-7.0123
  0
LINE
  8
0
 10
-0.156433
 20
-7.0123
 11
0
 21
-7
  0
LINE
  8
0
 10
0
 20
-7
 11
0.156433
 21
-7.0123
  0
LINE
  8
0
 10
0.156433
 20
-7.0123
 11
0.309006
 21
-7.04893
  0
LINE
  8
0
 10
0.309006
 20
-7.04893
 11
0.453979
 21
-7.10898
  0
LINE
  8
0
 10
0.453979
 20
-7.10898
 11
0.587784
 21
-7.19098
  0
LINE
  8
0
 10
0.587784
 20
-7.19098
 11
0.707092
 21
-7.29289
  0
LINE
  8
0
 10
0.707092
 20
-7.29289
 11
0.809006
 21
-7.4122
  0
LINE
  8
0
 10
0.809006
 20
-7.4122
 11
0.891006
 21
-7.54601
  0
LINE
  8
0
 10
0.891006
 20
-7.54601
 11
0.95105
 21
-7.69098
  0
LINE
  8
0
 10
0.95105
 20
-7.69098
 11
0.987686
 21
-7.84355
  0
LINE
  8
0
 10
0.987686
 20
-7.84355
 11
0.995087
 21
-7.93774
  0
LINE
  8
0
 10
-0.469299
 20
-2.96306
 11
-0.927048
 21
-2.85316
  0
LINE
  8
0
 10
-0.927048
 20
-2.85316
 11
-1.36197
 21
-2.67302
  0
LINE
  8
0
 10
-1.36197
 20
-2.67302
 11
-1.76335
 21
-2.42705
  0
LINE
  8
0
 10
-1.76335
 20
-2.42705
 11
-2.12131
 21
-2.12131
  0
LINE
  8
0
 10
-2.12131
 20
-2.12131
 11
-2.42705
 21
-1.76335
  0
LINE
  8
0
 10
-2.42705
 20
-1.76335
 11
-2.67302
 21
-1.36197
  0
LINE
  8
0
 10
-2.67302
 20
-1.36197
 11
-2.85316
 21
-0.927048
  0
LINE
  8
0
 10
-2.85316
 20
-0.927048
 11
-2.96306
 21
-0.469299
  0
LINE
  8
0
 10
-2.96306
 20
-0.469299
 11
-3
 21
0
  0
LINE
  8
0
 10
-3
 20
0
 11
-2.96306
 21
0.469299
  0
LINE
  8
0
 10
-2.96306
 20
0.469299
 11
-2.85316
 21
0.927048
  0
LINE
  8
0
 10
-2.85316
 20
0.927048
 11
-2.67302
 21
1.36197
  0
LINE
  8
0
 10
-2.67302
 20
1.36197
 11
-2.42705
 21
1.76335
  0
LINE
  8
0
 10
-2.42705
 20
1.76335
 11
-2.12131
 21
2.12131
  0
LINE
  8
0
 10
-2.12131
 20
2.12131
 11
-1.76335
 21
2.42705
  0
LINE
  8
0
 10
-1.76335
 20
2.42705
 11
-1.36197
 21
2.67302
  0
LINE
  8
0
 10
-1.36197
 20
2.67302
 11
-0.927048
 21
2.85316
  0
LINE
  8
0
 10
-0.927048
 20
2.85316
 11
-0.469299
 21
2.96306
  0
LINE
  8
0
 10
-0.469299
 20
2.96306
 11
0
 21
3
  0
LINE
  8
0
 10
0
 20
3
 11
0.469299
 21
2.96306
  0
LINE
  8
0
 10
0.469299
 20
2.96306
 11
0.927048
 21
2.85316
  0
LINE
  8
0
 10
0.927048
 20
2.85316
 11
1.36197
 21
2.67302
  0
LINE
  8
0
 10
1.36197
 20
2.67302
 11
1.76335
 21
2.42705
  0
LINE
  8
0
 10
1.76335
 20
2.42705
 11
2.12131
 21
2.12131
  0
LINE
  8
0
 10
2.12131
 20
2.12131
 11
2.42705
 21
1.76335
  0
LINE
  8
0
 10
2.42705
 20
1.76335
 11
2.67302
 21
1.36197
  0
LINE
  8
0
 10
2.67302
 20
1.36197
 11
2.85316
 21
0.927048
  0
LINE
  8
0
 10
2.85316
 20
0.927048
 11
2.96306
 21
0.469299
  0
LINE
  8
0
 10
2.96306
 20
0.469299
 11
3
 21
0
  0
LINE
  8
0
 10
3
 20
0
 11
2.96306
 21
-0.469299
  0
LINE
  8
0
 10
2.96306
 20
-0.469299
 11
2.85316
 21
-0.927048
  0
LINE
  8
0
 10
2.85316
 20
-0.927048
 11
2.67302
 21
-1.36197
  0
LINE
  8
0
 10
2.67302
 20
-1.36197
 11
2.42705
 21
-1.76335
  0
LINE
  8
0
 10
2.42705
 20
-1.76335
 11
2.12131
 21
-2.12131
  0
LINE
  8
0
 10
2.12131
 20
-2.12131
 11
1.76335
 21
-2.42705
  0
LINE
  8
0
 10
1.76335
 20
-2.42705
 11
1.36197
 21
-2.67302
  0
LINE
  8
0
 10
1.36197
 20
-2.67302
 11
0.927048
 21
-2.85316
  0
LINE
  8
0
 10
0.927048
 20
-2.85316
 11
0.469299
 21
-2.96306
  0
LINE
  8
0
 10
0.469299
 20
-2.96306
 11
0
 21
-3
  0
LINE
  8
0
 10
0
 20
-3
 11
-0.469299
 21
-2.96306
  0
ENDSEC
  0
SECTION
  2
OBJECTS
  0
DICTIONARY
  0
ENDSEC
  0
EOF
