  0
SECTION
  2
BLOCKS
  0
ENDSEC
  0
SECTION
  2
ENTITIES
  0
LINE
  8
0
 10
0.345505
 20
-10.9946
 11
0.690689
 21
-10.9783
  0
LINE
  8
0
 10
0.690689
 20
-10.9783
 11
1.03519
 21
-10.9512
  0
LINE
  8
0
 10
1.03519
 20
-10.9512
 11
1.37866
 21
-10.9133
  0
LINE
  8
0
 10
1.37866
 20
-10.9133
 11
1.72076
 21
-10.8646
  0
LINE
  8
0
 10
1.72076
 20
-10.8646
 11
2.06119
 21
-10.8051
  0
LINE
  8
0
 10
2.06119
 20
-10.8051
 11
2.39957
 21
-10.7351
  0
LINE
  8
0
 10
2.39957
 20
-10.7351
 11
2.73558
 21
-10.6544
  0
LINE
  8
0
 10
2.73558
 20
-10.6544
 11
3.06889
 21
-10.5632
  0
LINE
  8
0
 10
3.06889
 20
-10.5632
 11
3.39919
 21
-10.4616
  0
LINE
  8
0
 10
3.39919
 20
-10.4616
 11
3.7261
 21
-10.3497
  0
LINE
  8
0
 10
3.7261
 20
-10.3497
 11
4.04936
 21
-10.2275
  0
LINE
  8
0
 10
4.04936
 20
-10.2275
 11
4.36862
 21
-10.0953
  0
LINE
  8
0
 10
4.36862
 20
-10.0953
 11
4.68356
 21
-9.95309
  0
LINE
  8
0
 10
4.68356
 20
-9.95309
 11
4.99388
 21
-9.80107
  0
LINE
  8
0
 10
4.99388
 20
-9.80107
 11
5.29929
 21
-9.63936
  0
LINE
  8
0
 10
5.29929
 20
-9.63936
 11
5.59944
 21
-9.46815
  0
LINE
  8
0
 10
5.59944
 20
-9.46815
 11
5.89409
 21
-9.2876
  0
LINE
  8
0
 10
5.89409
 20
-9.2876
 11
6.18291
 21
-9.09789
  0
LINE
  8
0
 10
6.18291
 20
-9.09789
 11
6.46564
 21
-8.89919
  0
LINE
  8
0
 10
6.46564
 20
-8.89919
 11
6.74197
 21
-8.6917
  0
LINE
  8
0
 10
6.74197
 20
-8.6917
 11
7.01166
 21
-8.47563
  0
LINE
  8
0
 10
7.01166
 20
-8.47563
 11
7.27443
 21
-8.25122
  0
LINE
  8
0
 10
7.27443
 20
-8.25122
 11
7.53001
 21
-8.01865
  0
LINE
  8
0
 10
7.53001
 20
-8.01865
 11
7.77817
 21
-7.77817
  0
LINE
  8
0
 10
7.77817
 20
-7.77817
 11
8.01865
 21
-7.53001
  0
LINE
  8
0
 10
8.01865
 20
-7.53001
 11
8.25122
 21
-7.27443
  0
LINE
  8
0
 10
8.25122
 20
-7.27443
 11
8.47563
 21
-7.01166
  0
LINE
  8
0
 10
8.47563
 20
-7.01166
 11
8.6917
 21
-6.74197
  0
LINE
  8
0
 10
8.6917
 20
-6.74197
 11
8.89919
 21
-6.46564
  0
LINE
  8
0
 10
8.89919
 20
-6.46564
 11
9.09789
 21
-6.18291
  0
LINE
  8
0
 10
9.09789
 20
-6.18291
 11
9.2876
 21
-5.89409
  0
LINE
  8
0
 10
9.2876
 20
-5.89409
 11
9.46815
 21
-5.59944
  0
LINE
  8
0
 10
9.46815
 20
-5.59944
 11
9.63936
 21
-5.29929
  0
LINE
  8
0
 10
9.63936
 20
-5.29929
 11
9.80107
 21
-4.99388
  0
LINE
  8
0
 10
9.80107
 20
-4.99388
 11
9.95309
 21
-4.68356
  0
LINE
  8
0
 10
9.95309
 20
-4.68356
 11
10.0953
 21
-4.36862
  0
LINE
  8
0
 10
10.0953
 20
-4.36862
 11
10.2275
 21
-4.04936
  0
LINE
  8
0
 10
10.2275
 20
-4.04936
 11
10.3497
 21
-3.7261
  0
LINE
  8
0
 10
10.3497
 20
-3.7261
 11
10.4616
 21
-3.39919
  0
LINE
  8
0
 10
10.4616
 20
-3.39919
 11
10.5632
 21
-3.06889
  0
LINE
  8
0
 10
10.5632
 20
-3.06889
 11
10.6544
 21
-2.73558
  0
LINE
  8
0
 10
10.6544
 20
-2.73558
 11
10.7351
 21
-2.39957
  0
LINE
  8
0
 10
10.7351
 20
-2.39957
 11
10.8051
 21
-2.06119
  0
LINE
  8
0
 10
10.8051
 20
-2.06119
 11
10.8646
 21
-1.72076
  0
LINE
  8
0
 10
10.8646
 20
-1.72076
 11
10.9133
 21
-1.37866
  0
LINE
  8
0
 10
10.9133
 20
-1.37866
 11
10.9512
 21
-1.03519
  0
LINE
  8
0
 10
10.9512
 20
-1.03519
 11
10.9783
 21
-0.690689
  0
LINE
  8
0
 10
10.9783
 20
-0.690689
 11
10.9946
 21
-0.345505
  0
LINE
  8
0
 10
10.9946
 20
-0.345505
 11
11
 21
0
  0
LINE
  8
0
 10
11
 20
0
 11
10.9946
 21
0.345505
  0
LINE
  8
0
 10
10.9946
 20
0.345505
 11
10.9783
 21
0.690689
  0
LINE
  8
0
 10
10.9783
 20
0.690689
 11
10.9512
 21
1.03519
  0
LINE
  8
0
 10
10.9512
 20
1.03519
 11
10.9133
 21
1.37866
  0
LINE
  8
0
 10
10.9133
 20
1.37866
 11
10.8646
 21
1.72076
  0
LINE
  8
0
 10
10.8646
 20
1.72076
 11
10.8051
 21
2.06119
  0
LINE
  8
0
 10
10.8051
 20
2.06119
 11
10.7351
 21
2.39957
  0
LINE
  8
0
 10
10.7351
 20
2.39957
 11
10.6544
 21
2.73558
  0
LINE
  8
0
 10
10.6544
 20
2.73558
 11
10.5632
 21
3.06889
  0
LINE
  8
0
 10
10.5632
 20
3.06889
 11
10.4616
 21
3.39919
  0
LINE
  8
0
 10
10.4616
 20
3.39919
 11
10.3497
 21
3.7261
  0
LINE
  8
0
 10
10.3497
 20
3.7261
 11
10.2275
 21
4.04936
  0
LINE
  8
0
 10
10.2275
 20
4.04936
 11
10.0953
 21
4.36862
  0
LINE
  8
0
 10
10.0953
 20
4.36862
 11
9.95309
 21
4.68356
  0
LINE
  8
0
 10
9.95309
 20
4.68356
 11
9.80107
 21
4.99388
  0
LINE
  8
0
 10
9.80107
 20
4.99388
 11
9.63936
 21
5.29929
  0
LINE
  8
0
 10
9.63936
 20
5.29929
 11
9.46815
 21
5.59944
  0
LINE
  8
0
 10
9.46815
 20
5.59944
 11
9.2876
 21
5.89409
  0
LINE
  8
0
 10
9.2876
 20
5.89409
 11
9.09789
 21
6.18291
  0
LINE
  8
0
 10
9.09789
 20
6.18291
 11
8.89919
 21
6.46564
  0
LINE
  8
0
 10
8.89919
 20
6.46564
 11
8.6917
 21
6.74197
  0
LINE
  8
0
 10
8.6917
 20
6.74197
 11
8.47563
 21
7.01166
  0
LINE
  8
0
 10
8.47563
 20
7.01166
 11
8.25122
 21
7.27443
  0
LINE
  8
0
 10
8.25122
 20
7.27443
 11
8.01865
 21
7.53001
  0
LINE
  8
0
 10
8.01865
 20
7.53001
 11
7.77817
 21
7.77817
  0
LINE
  8
0
 10
7.77817
 20
7.77817
 11
7.53001
 21
8.01865
  0
LINE
  8
0
 10
7.53001
 20
8.01865
 11
7.27443
 21
8.25122
  0
LINE
  8
0
 10
7.27443
 20
8.25122
 11
7.01166
 21
8.47563
  0
LINE
  8
0
 10
7.01166
 20
8.47563
 11
6.74197
 21
8.6917
  0
LINE
  8
0
 10
6.74197
 20
8.6917
 11
6.46564
 21
8.89919
  0
LINE
  8
0
 10
6.46564
 20
8.89919
 11
6.18291
 21
9.09789
  0
LINE
  8
0
 10
6.18291
 20
9.09789
 11
5.89409
 21
9.2876
  0
LINE
  8
0
 10
5.89409
 20
9.2876
 11
5.59944
 21
9.46815
  0
LINE
  8
0
 10
5.59944
 20
9.46815
 11
5.29929
 21
9.63936
  0
LINE
  8
0
 10
5.29929
 20
9.63936
 11
4.99388
 21
9.80107
  0
LINE
  8
0
 10
4.99388
 20
9.80107
 11
4.68356
 21
9.95309
  0
LINE
  8
0
 10
4.68356
 20
9.95309
 11
4.36862
 21
10.0953
  0
LINE
  8
0
 10
4.36862
 20
10.0953
 11
4.04936
 21
10.2275
  0
LINE
  8
0
 10
4.04936
 20
10.2275
 11
3.7261
 21
10.3497
  0
LINE
  8
0
 10
3.7261
 20
10.3497
 11
3.39919
 21
10.4616
  0
LINE
  8
0
 10
3.39919
 20
10.4616
 11
3.06889
 21
10.5632
  0
LINE
  8
0
 10
3.06889
 20
10.5632
 11
2.73558
 21
10.6544
  0
LINE
  8
0
 10
2.73558
 20
10.6544
 11
2.39957
 21
10.7351
  0
LINE
  8
0
 10
2.39957
 20
10.7351
 11
2.06119
 21
10.8051
  0
LINE
  8
0
 10
2.06119
 20
10.8051
 11
1.72076
 21
10.8646
  0
LINE
  8
0
 10
1.72076
 20
10.8646
 11
1.37866
 21
10.9133
  0
LINE
  8
0
 10
1.37866
 20
10.9133
 11
1.03519
 21
10.9512
  0
LINE
  8
0
 10
1.03519
 20
10.9512
 11
0.690689
 21
10.9783
  0
LINE
  8
0
 10
0.690689
 20
10.9783
 11
0.345505
 21
10.9946
  0
LINE
  8
0
 10
0.345505
 20
10.9946
 11
0
 21
11
  0
LINE
  8
0
 10
0
 20
11
 11
-0.345505
 21
10.9946
  0
LINE
  8
0
 10
-0.345505
 20
10.9946
 11
-0.690689
 21
10.9783
  0
LINE
  8
0
 10
-0.690689
 20
10.9783
 11
-1.03519
 21
10.9512
  0
LINE
  8
0
 10
-1.03519
 20
10.9512
 11
-1.37866
 21
10.9133
  0
LINE
  8
0
 10
-1.37866
 20
10.9133
 11
-1.72076
 21
10.8646
  0
LINE
  8
0
 10
-1.72076
 20
10.8646
 11
-2.06119
 21
10.8051
  0
LINE
  8
0
 10
-2.06119
 20
10.8051
 11
-2.39957
 21
10.7351
  0
LINE
  8
0
 10
-2.39957
 20
10.7351
 11
-2.73558
 21
10.6544
  0
LINE
  8
0
 10
-2.73558
 20
10.6544
 11
-3.06889
 21
10.5632
  0
LINE
  8
0
 10
-3.06889
 20
10.5632
 11
-3.39919
 21
10.4616
  0
LINE
  8
0
 10
-3.39919
 20
10.4616
 11
-3.7261
 21
10.3497
  0
LINE
  8
0
 10
-3.7261
 20
10.3497
 11
-4.04936
 21
10.2275
  0
LINE
  8
0
 10
-4.04936
 20
10.2275
 11
-4.36862
 21
10.0953
  0
LINE
  8
0
 10
-4.36862
 20
10.0953
 11
-4.68356
 21
9.95309
  0
LINE
  8
0
 10
-4.68356
 20
9.95309
 11
-4.99388
 21
9.80107
  0
LINE
  8
0
 10
-4.99388
 20
9.80107
 11
-5.29929
 21
9.63936
  0
LINE
  8
0
 10
-5.29929
 20
9.63936
 11
-5.59944
 21
9.46815
  0
LINE
  8
0
 10
-5.59944
 20
9.46815
 11
-5.89409
 21
9.2876
  0
LINE
  8
0
 10
-5.89409
 20
9.2876
 11
-6.18291
 21
9.09789
  0
LINE
  8
0
 10
-6.18291
 20
9.09789
 11
-6.46564
 21
8.89919
  0
LINE
  8
0
 10
-6.46564
 20
8.89919
 11
-6.74197
 21
8.6917
  0
LINE
  8
0
 10
-6.74197
 20
8.6917
 11
-7.01166
 21
8.47563
  0
LINE
  8
0
 10
-7.01166
 20
8.47563
 11
-7.27443
 21
8.25122
  0
LINE
  8
0
 10
-7.27443
 20
8.25122
 11
-7.53001
 21
8.01865
  0
LINE
  8
0
 10
-7.53001
 20
8.01865
 11
-7.77817
 21
7.77817
  0
LINE
  8
0
 10
-7.77817
 20
7.77817
 11
-8.01865
 21
7.53001
  0
LINE
  8
0
 10
-8.01865
 20
7.53001
 11
-8.25122
 21
7.27443
  0
LINE
  8
0
 10
-8.25122
 20
7.27443
 11
-8.47563
 21
7.01166
  0
LINE
  8
0
 10
-8.47563
 20
7.01166
 11
-8.6917
 21
6.74197
  0
LINE
  8
0
 10
-8.6917
 20
6.74197
 11
-8.89919
 21
6.46564
  0
LINE
  8
0
 10
-8.89919
 20
6.46564
 11
-9.09789
 21
6.18291
  0
LINE
  8
0
 10
-9.09789
 20
6.18291
 11
-9.2876
 21
5.89409
  0
LINE
  8
0
 10
-9.2876
 20
5.89409
 11
-9.46815
 21
5.59944
  0
LINE
  8
0
 10
-9.46815
 20
5.59944
 11
-9.63936
 21
5.29929
  0
LINE
  8
0
 10
-9.63936
 20
5.29929
 11
-9.80107
 21
4.99388
  0
LINE
  8
0
 10
-9.80107
 20
4.99388
 11
-9.95309
 21
4.68356
  0
LINE
  8
0
 10
-9.95309
 20
4.68356
 11
-10.0953
 21
4.36862
  0
LINE
  8
0
 10
-10.0953
 20
4.36862
 11
-10.2275
 21
4.04936
  0
LINE
  8
0
 10
-10.2275
 20
4.04936
 11
-10.3497
 21
3.7261
  0
LINE
  8
0
 10
-10.3497
 20
3.7261
 11
-10.4616
 21
3.39919
  0
LINE
  8
0
 10
-10.4616
 20
3.39919
 11
-10.5632
 21
3.06889
  0
LINE
  8
0
 10
-10.5632
 20
3.06889
 11
-10.6544
 21
2.73558
  0
LINE
  8
0
 10
-10.6544
 20
2.73558
 11
-10.7351
 21
2.39957
  0
LINE
  8
0
 10
-10.7351
 20
2.39957
 11
-10.8051
 21
2.06119
  0
LINE
  8
0
 10
-10.8051
 20
2.06119
 11
-10.8646
 21
1.72076
  0
LINE
  8
0
 10
-10.8646
 20
1.72076
 11
-10.9133
 21
1.37866
  0
LINE
  8
0
 10
-10.9133
 20
1.37866
 11
-10.9512
 21
1.03519
  0
LINE
  8
0
 10
-10.9512
 20
1.03519
 11
-10.9783
 21
0.690689
  0
LINE
  8
0
 10
-10.9783
 20
0.690689
 11
-10.9946
 21
0.345505
  0
LINE
  8
0
 10
-10.9946
 20
0.345505
 11
-11
 21
0
  0
LINE
  8
0
 10
-11
 20
0
 11
-10.9946
 21
-0.345505
  0
LINE
  8
0
 10
-10.9946
 20
-0.345505
 11
-10.9783
 21
-0.690689
  0
LINE
  8
0
 10
-10.9783
 20
-0.690689
 11
-10.9512
 21
-1.03519
  0
LINE
  8
0
 10
-10.9512
 20
-1.03519
 11
-10.9133
 21
-1.37866
  0
LINE
  8
0
 10
-10.9133
 20
-1.37866
 11
-10.8646
 21
-1.72076
  0
LINE
  8
0
 10
-10.8646
 20
-1.72076
 11
-10.8051
 21
-2.06119
  0
LINE
  8
0
 10
-10.8051
 20
-2.06119
 11
-10.7351
 21
-2.39957
  0
LINE
  8
0
 10
-10.7351
 20
-2.39957
 11
-10.6544
 21
-2.73558
  0
LINE
  8
0
 10
-10.6544
 20
-2.73558
 11
-10.5632
 21
-3.06889
  0
LINE
  8
0
 10
-10.5632
 20
-3.06889
 11
-10.4616
 21
-3.39919
  0
LINE
  8
0
 10
-10.4616
 20
-3.39919
 11
-10.3497
 21
-3.7261
  0
LINE
  8
0
 10
-10.3497
 20
-3.7261
 11
-10.2275
 21
-4.04936
  0
LINE
  8
0
 10
-10.2275
 20
-4.04936
 11
-10.0953
 21
-4.36862
  0
LINE
  8
0
 10
-10.0953
 20
-4.36862
 11
-9.95309
 21
-4.68356
  0
LINE
  8
0
 10
-9.95309
 20
-4.68356
 11
-9.80107
 21
-4.99388
  0
LINE
  8
0
 10
-9.80107
 20
-4.99388
 11
-9.63936
 21
-5.29929
  0
LINE
  8
0
 10
-9.63936
 20
-5.29929
 11
-9.46815
 21
-5.59944
  0
LINE
  8
0
 10
-9.46815
 20
-5.59944
 11
-9.2876
 21
-5.89409
  0
LINE
  8
0
 10
-9.2876
 20
-5.89409
 11
-9.09789
 21
-6.18291
  0
LINE
  8
0
 10
-9.09789
 20
-6.18291
 11
-8.89919
 21
-6.46564
  0
LINE
  8
0
 10
-8.89919
 20
-6.46564
 11
-8.6917
 21
-6.74197
  0
LINE
  8
0
 10
-8.6917
 20
-6.74197
 11
-8.47563
 21
-7.01166
  0
LINE
  8
0
 10
-8.47563
 20
-7.01166
 11
-8.25122
 21
-7.27443
  0
LINE
  8
0
 10
-8.25122
 20
-7.27443
 11
-8.01865
 21
-7.53001
  0
LINE
  8
0
 10
-8.01865
 20
-7.53001
 11
-7.77817
 21
-7.77817
  0
LINE
  8
0
 10
-7.77817
 20
-7.77817
 11
-7.53001
 21
-8.01865
  0
LINE
  8
0
 10
-7.53001
 20
-8.01865
 11
-7.27443
 21
-8.25122
  0
LINE
  8
0
 10
-7.27443
 20
-8.25122
 11
-7.01166
 21
-8.47563
  0
LINE
  8
0
 10
-7.01166
 20
-8.47563
 11
-6.74197
 21
-8.6917
  0
LINE
  8
0
 10
-6.74197
 20
-8.6917
 11
-6.46564
 21
-8.89919
  0
LINE
  8
0
 10
-6.46564
 20
-8.89919
 11
-6.18291
 21
-9.09789
  0
LINE
  8
0
 10
-6.18291
 20
-9.09789
 11
-5.89409
 21
-9.2876
  0
LINE
  8
0
 10
-5.89409
 20
-9.2876
 11
-5.59944
 21
-9.46815
  0
LINE
  8
0
 10
-5.59944
 20
-9.46815
 11
-5.29929
 21
-9.63936
  0
LINE
  8
0
 10
-5.29929
 20
-9.63936
 11
-4.99388
 21
-9.80107
  0
LINE
  8
0
 10
-4.99388
 20
-9.80107
 11
-4.68356
 21
-9.95309
  0
LINE
  8
0
 10
-4.68356
 20
-9.95309
 11
-4.36862
 21
-10.0953
  0
LINE
  8
0
 10
-4.36862
 20
-10.0953
 11
-4.04936
 21
-10.2275
  0
LINE
  8
0
 10
-4.04936
 20
-10.2275
 11
-3.7261
 21
-10.3497
  0
LINE
  8
0
 10
-3.7261
 20
-10.3497
 11
-3.39919
 21
-10.4616
  0
LINE
  8
0
 10
-3.39919
 20
-10.4616
 11
-3.06889
 21
-10.5632
  0
LINE
  8
0
 10
-3.06889
 20
-10.5632
 11
-2.73558
 21
-10.6544
  0
LINE
  8
0
 10
-2.73558
 20
-10.6544
 11
-2.39957
 21
-10.7351
  0
LINE
  8
0
 10
-2.39957
 20
-10.7351
 11
-2.06119
 21
-10.8051
  0
LINE
  8
0
 10
-2.06119
 20
-10.8051
 11
-1.72076
 21
-10.8646
  0
LINE
  8
0
 10
-1.72076
 20
-10.8646
 11
-1.37866
 21
-10.9133
  0
LINE
  8
0
 10
-1.37866
 20
-10.9133
 11
-1.03519
 21
-10.9512
  0
LINE
  8
0
 10
-1.03519
 20
-10.9512
 11
-0.690689
 21
-10.9783
  0
LINE
  8
0
 10
-0.690689
 20
-10.9783
 11
-0.345505
 21
-10.9946
  0
LINE
  8
0
 10
-0.345505
 20
-10.9946
 11
0
 21
-11
  0
LINE
  8
0
 10
0
 20
-11
 11
0.345505
 21
-10.9946
  0
LINE
  8
0
 10
-0.156433
 20
7.0123
 11
-0.309006
 21
7.04893
  0
LINE
  8
0
 10
-0.309006
 20
7.04893
 11
-0.453979
 21
7.10898
  0
LINE
  8
0
 10
-0.453979
 20
7.10898
 11
-0.587784
 21
7.19098
  0
LINE
  8
0
 10
-0.587784
 20
7.19098
 11
-0.707092
 21
7.29289
  0
LINE
  8
0
 10
-0.707092
 20
7.29289
 11
-0.809006
 21
7.4122
  0
LINE
  8
0
 10
-0.809006
 20
7.4122
 11
-0.891006
 21
7.54601
  0
LINE
  8
0
 10
-0.891006
 20
7.54601
 11
-0.95105
 21
7.69098
  0
LINE
  8
0
 10
-0.95105
 20
7.69098
 11
-0.987686
 21
7.84355
  0
LINE
  8
0
 10
-0.987686
 20
7.84355
 11
-0.999985
 21
8
  0
LINE
  8
0
 10
-0.999985
 20
8
 11
-0.987686
 21
8.15643
  0
LINE
  8
0
 10
-0.987686
 20
8.15643
 11
-0.95105
 21
8.30901
  0
LINE
  8
0
 10
-0.95105
 20
8.30901
 11
-0.891006
 21
8.45398
  0
LINE
  8
0
 10
-0.891006
 20
8.45398
 11
-0.809006
 21
8.58778
  0
LINE
  8
0
 10
-0.809006
 20
8.58778
 11
-0.707092
 21
8.70709
  0
LINE
  8
0
 10
-0.707092
 20
8.70709
 11
-0.587784
 21
8.80901
  0
LINE
  8
0
 10
-0.587784
 20
8.80901
 11
-0.453979
 21
8.89101
  0
LINE
  8
0
 10
-0.453979
 20
8.89101
 11
-0.309006
 21
8.95105
  0
LINE
  8
0
 10
-0.309006
 20
8.95105
 11
-0.156433
 21
8.98769
  0
LINE
  8
0
 10
-0.156433
 20
8.98769
 11
0
 21
9
  0
LINE
  8
0
 10
0
 20
9
 11
0.156433
 21
8.98769
  0
LINE
  8
0
 10
0.156433
 20
8.98769
 11
0.309006
 21
8.95105
  0
LINE
  8
0
 10
0.309006
 20
8.95105
 11
0.453979
 21
8.89101
  0
LINE
  8
0
 10
0.453979
 20
8.89101
 11
0.587784
 21
8.80901
  0
LINE
  8
0
 10
0.587784
 20
8.80901
 11
0.707092
 21
8.70709
  0
LINE
  8
0
 10
0.707092
 20
8.70709
 11
0.809006
 21
8.58778
  0
LINE
  8
0
 10
0.809006
 20
8.58778
 11
0.891006
 21
8.45398
  0
LINE
  8
0
 10
0.891006
 20
8.45398
 11
0.95105
 21
8.30901
  0
LINE
  8
0
 10
0.95105
 20
8.30901
 11
0.987686
 21
8.15643
  0
LINE
  8
0
 10
0.987686
 20
8.15643
 11
1
 21
8
  0
LINE
  8
0
 10
1
 20
8
 11
0.987686
 21
7.84355
  0
LINE
  8
0
 10
0.987686
 20
7.84355
 11
0.95105
 21
7.69098
  0
LINE
  8
0
 10
0.95105
 20
7.69098
 11
0.891006
 21
7.54601
  0
LINE
  8
0
 10
0.891006
 20
7.54601
 11
0.809006
 21
7.4122
  0
LINE
  8
0
 10
0.809006
 20
7.4122
 11
0.707092
 21
7.29289
  0
LINE
  8
0
 10
0.707092
 20
7.29289
 11
0.587784
 21
7.19098
  0
LINE
  8
0
 10
0.587784
 20
7.19098
 11
0.453979
 21
7.10898
  0
LINE
  8
0
 10
0.453979
 20
7.10898
 11
0.309006
 21
7.04893
  0
LINE
  8
0
 10
0.309006
 20
7.04893
 11
0.156433
 21
7.0123
  0
LINE
  8
0
 10
0.156433
 20
7.0123
 11
0
 21
7
  0
LINE
  8
0
 10
0
 20
7
 11
-0.156433
 21
7.0123
  0
LINE
  8
0
 10
-0.469299
 20
-2.96306
 11
-0.927048
 21
-2.85316
  0
LINE
  8
0
 10
-0.927048
 20
-2.85316
 11
-1.36197
 21
-2.67302
  0
LINE
  8
0
 10
-1.36197
 20
-2.67302
 11
-1.76335
 21
-2.42705
  0
LINE
  8
0
 10
-1.76335
 20
-2.42705
 11
-2.12131
 21
-2.12131
  0
LINE
  8
0
 10
-2.12131
 20
-2.12131
 11
-2.42705
 21
-1.76335
  0
LINE
  8
0
 10
-2.42705
 20
-1.76335
 11
-2.67302
 21
-1.36197
  0
LINE
  8
0
 10
-2.67302
 20
-1.36197
 11
-2.85316
 21
-0.927048
  0
LINE
  8
0
 10
-2.85316
 20
-0.927048
 11
-2.96306
 21
-0.469299
  0
LINE
  8
0
 10
-2.96306
 20
-0.469299
 11
-3
 21
0
  0
LINE
  8
0
 10
-3
 20
0
 11
-2.96306
 21
0.469299
  0
LINE
  8
0
 10
-2.96306
 20
0.469299
 11
-2.85316
 21
0.927048
  0
LINE
  8
0
 10
-2.85316
 20
0.927048
 11
-2.67302
 21
1.36197
  0
LINE
  8
0
 10
-2.67302
 20
1.36197
 11
-2.42705
 21
1.76335
  0
LINE
  8
0
 10
-2.42705
 20
1.76335
 11
-2.12131
 21
2.12131
  0
LINE
  8
0
 10
-2.12131
 20
2.12131
 11
-1.76335
 21
2.42705
  0
LINE
  8
0
 10
-1.76335
 20
2.42705
 11
-1.36197
 21
2.67302
  0
LINE
  8
0
 10
-1.36197
 20
2.67302
 11
-0.927048
 21
2.85316
  0
LINE
  8
0
 10
-0.927048
 20
2.85316
 11
-0.469299
 21
2.96306
  0
LINE
  8
0
 10
-0.469299
 20
2.96306
 11
0
 21
3
  0
LINE
  8
0
 10
0
 20
3
 11
0.469299
 21
2.96306
  0
LINE
  8
0
 10
0.469299
 20
2.96306
 11
0.927048
 21
2.85316
  0
LINE
  8
0
 10
0.927048
 20
2.85316
 11
1.36197
 21
2.67302
  0
LINE
  8
0
 10
1.36197
 20
2.67302
 11
1.76335
 21
2.42705
  0
LINE
  8
0
 10
1.76335
 20
2.42705
 11
2.12131
 21
2.12131
  0
LINE
  8
0
 10
2.12131
 20
2.12131
 11
2.42705
 21
1.76335
  0
LINE
  8
0
 10
2.42705
 20
1.76335
 11
2.67302
 21
1.36197
  0
LINE
  8
0
 10
2.67302
 20
1.36197
 11
2.85316
 21
0.927048
  0
LINE
  8
0
 10
2.85316
 20
0.927048
 11
2.96306
 21
0.469299
  0
LINE
  8
0
 10
2.96306
 20
0.469299
 11
3
 21
0
  0
LINE
  8
0
 10
3
 20
0
 11
2.96306
 21
-0.469299
  0
LINE
  8
0
 10
2.96306
 20
-0.469299
 11
2.85316
 21
-0.927048
  0
LINE
  8
0
 10
2.85316
 20
-0.927048
 11
2.67302
 21
-1.36197
  0
LINE
  8
0
 10
2.67302
 20
-1.36197
 11
2.42705
 21
-1.76335
  0
LINE
  8
0
 10
2.42705
 20
-1.76335
 11
2.12131
 21
-2.12131
  0
LINE
  8
0
 10
2.12131
 20
-2.12131
 11
1.76335
 21
-2.42705
  0
LINE
  8
0
 10
1.76335
 20
-2.42705
 11
1.36197
 21
-2.67302
  0
LINE
  8
0
 10
1.36197
 20
-2.67302
 11
0.927048
 21
-2.85316
  0
LINE
  8
0
 10
0.927048
 20
-2.85316
 11
0.469299
 21
-2.96306
  0
LINE
  8
0
 10
0.469299
 20
-2.96306
 11
0
 21
-3
  0
LINE
  8
0
 10
0
 20
-3
 11
-0.469299
 21
-2.96306
  0
LINE
  8
0
 10
7.84355
 20
-0.987686
 11
7.69098
 21
-0.95105
  0
LINE
  8
0
 10
7.69098
 20
-0.95105
 11
7.54601
 21
-0.891006
  0
LINE
  8
0
 10
7.54601
 20
-0.891006
 11
7.4122
 21
-0.809006
  0
LINE
  8
0
 10
7.4122
 20
-0.809006
 11
7.29289
 21
-0.707092
  0
LINE
  8
0
 10
7.29289
 20
-0.707092
 11
7.19098
 21
-0.587784
  0
LINE
  8
0
 10
7.19098
 20
-0.587784
 11
7.10898
 21
-0.453979
  0
LINE
  8
0
 10
7.10898
 20
-0.453979
 11
7.04893
 21
-0.309006
  0
LINE
  8
0
 10
7.04893
 20
-0.309006
 11
7.0123
 21
-0.156433
  0
LINE
  8
0
 10
7.0123
 20
-0.156433
 11
7
 21
0
  0
LINE
  8
0
 10
7
 20
0
 11
7.0123
 21
0.156433
  0
LINE
  8
0
 10
7.0123
 20
0.156433
 11
7.04893
 21
0.309006
  0
LINE
  8
0
 10
7.04893
 20
0.309006
 11
7.10898
 21
0.453979
  0
LINE
  8
0
 10
7.10898
 20
0.453979
 11
7.19098
 21
0.587784
  0
LINE
  8
0
 10
7.19098
 20
0.587784
 11
7.29289
 21
0.707092
  0
LINE
  8
0
 10
7.29289
 20
0.707092
 11
7.4122
 21
0.809006
  0
LINE
  8
0
 10
7.4122
 20
0.809006
 11
7.54601
 21
0.891006
  0
LINE
  8
0
 10
7.54601
 20
0.891006
 11
7.69098
 21
0.95105
  0
LINE
  8
0
 10
7.69098
 20
0.95105
 11
7.84355
 21
0.987686
  0
LINE
  8
0
 10
7.84355
 20
0.987686
 11
8
 21
1
  0
LINE
  8
0
 10
8
 20
1
 11
8.15643
 21
0.987686
  0
LINE
  8
0
 10
8.15643
 20
0.987686
 11
8.30901
 21
0.95105
  0
LINE
  8
0
 10
8.30901
 20
0.95105
 11
8.45398
 21
0.891006
  0
LINE
  8
0
 10
8.45398
 20
0.891006
 11
8.58778
 21
0.809006
  0
LINE
  8
0
 10
8.58778
 20
0.809006
 11
8.70709
 21
0.707092
  0
LINE
  8
0
 10
8.70709
 20
0.707092
 11
8.80901
 21
0.587784
  0
LINE
  8
0
 10
8.80901
 20
0.587784
 11
8.89101
 21
0.453979
  0
LINE
  8
0
 10
8.89101
 20
0.453979
 11
8.95105
 21
0.309006
  0
LINE
  8
0
 10
8.95105
 20
0.309006
 11
8.98769
 21
0.156433
  0
LINE
  8
0
 10
8.98769
 20
0.156433
 11
9
 21
0
  0
LINE
  8
0
 10
9
 20
0
 11
8.98769
 21
-0.156433
  0
LINE
  8
0
 10
8.98769
 20
-0.156433
 11
8.95105
 21
-0.309006
  0
LINE
  8
0
 10
8.95105
 20
-0.309006
 11
8.89101
 21
-0.453979
  0
LINE
  8
0
 10
8.89101
 20
-0.453979
 11
8.80901
 21
-0.587784
  0
LINE
  8
0
 10
8.80901
 20
-0.587784
 11
8.70709
 21
-0.707092
  0
LINE
  8
0
 10
8.70709
 20
-0.707092
 11
8.58778
 21
-0.809006
  0
LINE
  8
0
 10
8.58778
 20
-0.809006
 11
8.45398
 21
-0.891006
  0
LINE
  8
0
 10
8.45398
 20
-0.891006
 11
8.30901
 21
-0.95105
  0
LINE
  8
0
 10
8.30901
 20
-0.95105
 11
8.15643
 21
-0.987686
  0
LINE
  8
0
 10
8.15643
 20
-0.987686
 11
8
 21
-1
  0
LINE
  8
0
 10
8
 20
-1
 11
7.84355
 21
-0.987686
  0
LINE
  8
0
 10
-8.15643
 20
-0.987686
 11
-8.30901
 21
-0.95105
  0
LINE
  8
0
 10
-8.30901
 20
-0.95105
 11
-8.45398
 21
-0.891006
  0
LINE
  8
0
 10
-8.45398
 20
-0.891006
 11
-8.58778
 21
-0.809006
  0
LINE
  8
0
 10
-8.58778
 20
-0.809006
 11
-8.70709
 21
-0.707092
  0
LINE
  8
0
 10
-8.70709
 20
-0.707092
 11
-8.80901
 21
-0.587784
  0
LINE
  8
0
 10
-8.80901
 20
-0.587784
 11
-8.89101
 21
-0.453979
  0
LINE
  8
0
 10
-8.89101
 20
-0.453979
 11
-8.95105
 21
-0.309006
  0
LINE
  8
0
 10
-8.95105
 20
-0.309006
 11
-8.98769
 21
-0.156433
  0
LINE
  8
0
 10
-8.98769
 20
-0.156433
 11
-9
 21
0
  0
LINE
  8
0
 10
-9
 20
0
 11
-8.98769
 21
0.156433
  0
LINE
  8
0
 10
-8.98769
 20
0.156433
 11
-8.95105
 21
0.309006
  0
LINE
  8
0
 10
-8.95105
 20
0.309006
 11
-8.89101
 21
0.453979
  0
LINE
  8
0
 10
-8.89101
 20
0.453979
 11
-8.80901
 21
0.587784
  0
LINE
  8
0
 10
-8.80901
 20
0.587784
 11
-8.70709
 21
0.707092
  0
LINE
  8
0
 10
-8.70709
 20
0.707092
 11
-8.58778
 21
0.809006
  0
LINE
  8
0
 10
-8.58778
 20
0.809006
 11
-8.45398
 21
0.891006
  0
LINE
  8
0
 10
-8.45398
 20
0.891006
 11
-8.30901
 21
0.95105
  0
LINE
  8
0
 10
-8.30901
 20
0.95105
 11
-8.15643
 21
0.987686
  0
LINE
  8
0
 10
-8.15643
 20
0.987686
 11
-8
 21
1
  0
LINE
  8
0
 10
-8
 20
1
 11
-7.84355
 21
0.987686
  0
LINE
  8
0
 10
-7.84355
 20
0.987686
 11
-7.69098
 21
0.95105
  0
LINE
  8
0
 10
-7.69098
 20
0.95105
 11
-7.54601
 21
0.891006
  0
LINE
  8
0
 10
-7.54601
 20
0.891006
 11
-7.4122
 21
0.809006
  0
LINE
  8
0
 10
-7.4122
 20
0.809006
 11
-7.29289
 21
0.707092
  0
LINE
  8
0
 10
-7.29289
 20
0.707092
 11
-7.19098
 21
0.587784
  0
LINE
  8
0
 10
-7.19098
 20
0.587784
 11
-7.10898
 21
0.453979
  0
LINE
  8
0
 10
-7.10898
 20
0.453979
 11
-7.04893
 21
0.309006
  0
LINE
  8
0
 10
-7.04893
 20
0.309006
 11
-7.0123
 21
0.156433
  0
LINE
  8
0
 10
-7.0123
 20
0.156433
 11
-7
 21
0
  0
LINE
  8
0
 10
-7
 20
0
 11
-7.0123
 21
-0.156433
  0
LINE
  8
0
 10
-7.0123
 20
-0.156433
 11
-7.04893
 21
-0.309006
  0
LINE
  8
0
 10
-7.04893
 20
-0.309006
 11
-7.10898
 21
-0.453979
  0
LINE
  8
0
 10
-7.10898
 20
-0.453979
 11
-7.19098
 21
-0.587784
  0
LINE
  8
0
 10
-7.19098
 20
-0.587784
 11
-7.29289
 21
-0.707092
  0
LINE
  8
0
 10
-7.29289
 20
-0.707092
 11
-7.4122
 21
-0.809006
  0
LINE
  8
0
 10
-7.4122
 20
-0.809006
 11
-7.54601
 21
-0.891006
  0
LINE
  8
0
 10
-7.54601
 20
-0.891006
 11
-7.69098
 21
-0.95105
  0
LINE
  8
0
 10
-7.69098
 20
-0.95105
 11
-7.84355
 21
-0.987686
  0
LINE
  8
0
 10
-7.84355
 20
-0.987686
 11
-8
 21
-0.999985
  0
LINE
  8
0
 10
-8
 20
-0.999985
 11
-8.15643
 21
-0.987686
  0
LINE
  8
0
 10
-0.156433
 20
-8.98769
 11
-0.309006
 21
-8.95105
  0
LINE
  8
0
 10
-0.309006
 20
-8.95105
 11
-0.453979
 21
-8.89101
  0
LINE
  8
0
 10
-0.453979
 20
-8.89101
 11
-0.587784
 21
-8.80901
  0
LINE
  8
0
 10
-0.587784
 20
-8.80901
 11
-0.707092
 21
-8.70709
  0
LINE
  8
0
 10
-0.707092
 20
-8.70709
 11
-0.809006
 21
-8.58778
  0
LINE
  8
0
 10
-0.809006
 20
-8.58778
 11
-0.891006
 21
-8.45398
  0
LINE
  8
0
 10
-0.891006
 20
-8.45398
 11
-0.95105
 21
-8.30901
  0
LINE
  8
0
 10
-0.95105
 20
-8.30901
 11
-0.987686
 21
-8.15643
  0
LINE
  8
0
 10
-0.987686
 20
-8.15643
 11
-1
 21
-8
  0
LINE
  8
0
 10
-1
 20
-8
 11
-0.987686
 21
-7.84355
  0
LINE
  8
0
 10
-0.987686
 20
-7.84355
 11
-0.95105
 21
-7.69098
  0
LINE
  8
0
 10
-0.95105
 20
-7.69098
 11
-0.891006
 21
-7.54601
  0
LINE
  8
0
 10
-0.891006
 20
-7.54601
 11
-0.809006
 21
-7.4122
  0
LINE
  8
0
 10
-0.809006
 20
-7.4122
 11
-0.707092
 21
-7.29289
  0
LINE
  8
0
 10
-0.707092
 20
-7.29289
 11
-0.587784
 21
-7.19098
  0
LINE
  8
0
 10
-0.587784
 20
-7.19098
 11
-0.453979
 21
-7.10898
  0
LINE
  8
0
 10
-0.453979
 20
-7.10898
 11
-0.309006
 21
-7.04893
  0
LINE
  8
0
 10
-0.309006
 20
-7.04893
 11
-0.156433
 21
-7.0123
  0
LINE
  8
0
 10
-0.156433
 20
-7.0123
 11
0
 21
-7
  0
LINE
  8
0
 10
0
 20
-7
 11
0.156433
 21
-7.0123
  0
LINE
  8
0
 10
0.156433
 20
-7.0123
 11
0.309006
 21
-7.04893
  0
LINE
  8
0
 10
0.309006
 20
-7.04893
 11
0.453979
 21
-7.10898
  0
LINE
  8
0
 10
0.453979
 20
-7.10898
 11
0.587784
 21
-7.19098
  0
LINE
  8
0
 10
0.587784
 20
-7.19098
 11
0.707092
 21
-7.29289
  0
LINE
  8
0
 10
0.707092
 20
-7.29289
 11
0.809006
 21
-7.4122
  0
LINE
  8
0
 10
0.809006
 20
-7.4122
 11
0.891006
 21
-7.54601
  0
LINE
  8
0
 10
0.891006
 20
-7.54601
 11
0.95105
 21
-7.69098
  0
LINE
  8
0
 10
0.95105
 20
-7.69098
 11
0.987686
 21
-7.84355
  0
LINE
  8
0
 10
0.987686
 20
-7.84355
 11
0.999985
 21
-8
  0
LINE
  8
0
 10
0.999985
 20
-8
 11
0.987686
 21
-8.15643
  0
LINE
  8
0
 10
0.987686
 20
-8.15643
 11
0.95105
 21
-8.30901
  0
LINE
  8
0
 10
0.95105
 20
-8.30901
 11
0.891006
 21
-8.45398
  0
LINE
  8
0
 10
0.891006
 20
-8.45398
 11
0.809006
 21
-8.58778
  0
LINE
  8
0
 10
0.809006
 20
-8.58778
 11
0.707092
 21
-8.70709
  0
LINE
  8
0
 10
0.707092
 20
-8.70709
 11
0.587784
 21
-8.80901
  0
LINE
  8
0
 10
0.587784
 20
-8.80901
 11
0.453979
 21
-8.89101
  0
LINE
  8
0
 10
0.453979
 20
-8.89101
 11
0.309006
 21
-8.95105
  0
LINE
  8
0
 10
0.309006
 20
-8.95105
 11
0.156433
 21
-8.98769
  0
LINE
  8
0
 10
0.156433
 20
-8.98769
 11
0
 21
-9
  0
LINE
  8
0
 10
0
 20
-9
 11
-0.156433
 21
-8.98769
  0
ENDSEC
  0
SECTION
  2
OBJECTS
  0
DICTIONARY
  0
ENDSEC
  0
EOF
