  0
SECTION
  2
BLOCKS
  0
ENDSEC
  0
SECTION
  2
ENTITIES
  0
LINE
  8
0
 10
1.19066
 20
-9.42508
 11
1.48611
 21
-9.38303
  0
LINE
  8
0
 10
1.48611
 20
-9.38303
 11
1.78012
 21
-9.33173
  0
LINE
  8
0
 10
1.78012
 20
-9.33173
 11
2.07236
 21
-9.27119
  0
LINE
  8
0
 10
2.07236
 20
-9.27119
 11
2.36255
 21
-9.20154
  0
LINE
  8
0
 10
2.36255
 20
-9.20154
 11
2.65041
 21
-9.12279
  0
LINE
  8
0
 10
2.65041
 20
-9.12279
 11
2.69919
 21
-9.10779
  0
LINE
  8
0
 10
2.69919
 20
-9.10779
 11
2.63857
 21
-8.8553
  0
LINE
  8
0
 10
2.63857
 20
-8.8553
 11
2.66312
 21
-8.5434
  0
LINE
  8
0
 10
2.66312
 20
-8.5434
 11
2.78285
 21
-8.25435
  0
LINE
  8
0
 10
2.78285
 20
-8.25435
 11
2.98604
 21
-8.01645
  0
LINE
  8
0
 10
2.98604
 20
-8.01645
 11
3.25281
 21
-7.85297
  0
LINE
  8
0
 10
3.25281
 20
-7.85297
 11
3.55702
 21
-7.77994
  0
LINE
  8
0
 10
3.55702
 20
-7.77994
 11
3.86893
 21
-7.80447
  0
LINE
  8
0
 10
3.86893
 20
-7.80447
 11
4.15799
 21
-7.92421
  0
LINE
  8
0
 10
4.15799
 20
-7.92421
 11
4.39589
 21
-8.1274
  0
LINE
  8
0
 10
4.39589
 20
-8.1274
 11
4.53156
 21
-8.34879
  0
LINE
  8
0
 10
4.53156
 20
-8.34879
 11
4.57664
 21
-8.32491
  0
LINE
  8
0
 10
4.57664
 20
-8.32491
 11
4.83589
 21
-8.17705
  0
LINE
  8
0
 10
4.83589
 20
-8.17705
 11
5.09035
 21
-8.0211
  0
LINE
  8
0
 10
5.09035
 20
-8.0211
 11
5.33978
 21
-7.85725
  0
LINE
  8
0
 10
5.33978
 20
-7.85725
 11
5.58395
 21
-7.68565
  0
LINE
  8
0
 10
5.58395
 20
-7.68565
 11
5.82262
 21
-7.50647
  0
LINE
  8
0
 10
5.82262
 20
-7.50647
 11
5.97891
 21
-7.38126
  0
LINE
  8
0
 10
5.97891
 20
-7.38126
 11
5.82651
 21
-7.17149
  0
LINE
  8
0
 10
5.82651
 20
-7.17149
 11
5.72981
 21
-6.87395
  0
LINE
  8
0
 10
5.72981
 20
-6.87395
 11
5.72981
 21
-6.56107
  0
LINE
  8
0
 10
5.72981
 20
-6.56107
 11
5.82651
 21
-6.26352
  0
LINE
  8
0
 10
5.82651
 20
-6.26352
 11
6.01041
 21
-6.01041
  0
LINE
  8
0
 10
6.01041
 20
-6.01041
 11
6.26352
 21
-5.82651
  0
LINE
  8
0
 10
6.26352
 20
-5.82651
 11
6.56107
 21
-5.72981
  0
LINE
  8
0
 10
6.56107
 20
-5.72981
 11
6.87395
 21
-5.72981
  0
LINE
  8
0
 10
6.87395
 20
-5.72981
 11
7.17149
 21
-5.82651
  0
LINE
  8
0
 10
7.17149
 20
-5.82651
 11
7.38126
 21
-5.97891
  0
LINE
  8
0
 10
7.38126
 20
-5.97891
 11
7.50647
 21
-5.82262
  0
LINE
  8
0
 10
7.50647
 20
-5.82262
 11
7.68565
 21
-5.58395
  0
LINE
  8
0
 10
7.68565
 20
-5.58395
 11
7.85725
 21
-5.33978
  0
LINE
  8
0
 10
7.85725
 20
-5.33978
 11
8.0211
 21
-5.09035
  0
LINE
  8
0
 10
8.0211
 20
-5.09035
 11
8.17705
 21
-4.83589
  0
LINE
  8
0
 10
8.17705
 20
-4.83589
 11
8.32491
 21
-4.57664
  0
LINE
  8
0
 10
8.32491
 20
-4.57664
 11
8.34879
 21
-4.53156
  0
LINE
  8
0
 10
8.34879
 20
-4.53156
 11
8.1274
 21
-4.39589
  0
LINE
  8
0
 10
8.1274
 20
-4.39589
 11
7.92421
 21
-4.15799
  0
LINE
  8
0
 10
7.92421
 20
-4.15799
 11
7.80447
 21
-3.86893
  0
LINE
  8
0
 10
7.80447
 20
-3.86893
 11
7.77994
 21
-3.55702
  0
LINE
  8
0
 10
7.77994
 20
-3.55702
 11
7.85297
 21
-3.25281
  0
LINE
  8
0
 10
7.85297
 20
-3.25281
 11
8.01645
 21
-2.98604
  0
LINE
  8
0
 10
8.01645
 20
-2.98604
 11
8.25435
 21
-2.78285
  0
LINE
  8
0
 10
8.25435
 20
-2.78285
 11
8.5434
 21
-2.66312
  0
LINE
  8
0
 10
8.5434
 20
-2.66312
 11
8.8553
 21
-2.63857
  0
LINE
  8
0
 10
8.8553
 20
-2.63857
 11
9.10779
 21
-2.69919
  0
LINE
  8
0
 10
9.10779
 20
-2.69919
 11
9.12279
 21
-2.65041
  0
LINE
  8
0
 10
9.12279
 20
-2.65041
 11
9.20154
 21
-2.36255
  0
LINE
  8
0
 10
9.20154
 20
-2.36255
 11
9.27119
 21
-2.07236
  0
LINE
  8
0
 10
9.27119
 20
-2.07236
 11
9.33173
 21
-1.78012
  0
LINE
  8
0
 10
9.33173
 20
-1.78012
 11
9.38303
 21
-1.48611
  0
LINE
  8
0
 10
9.38303
 20
-1.48611
 11
9.42508
 21
-1.19066
  0
LINE
  8
0
 10
9.42508
 20
-1.19066
 11
9.44705
 21
-0.991608
  0
LINE
  8
0
 10
9.44705
 20
-0.991608
 11
9.19098
 21
-0.95105
  0
LINE
  8
0
 10
9.19098
 20
-0.95105
 11
8.9122
 21
-0.809006
  0
LINE
  8
0
 10
8.9122
 20
-0.809006
 11
8.75464
 21
-0.651443
  0
LINE
  8
0
 10
8.75464
 20
-0.651443
 11
8.70709
 21
-0.707092
  0
LINE
  8
0
 10
8.70709
 20
-0.707092
 11
8.58778
 21
-0.809006
  0
LINE
  8
0
 10
8.58778
 20
-0.809006
 11
8.45398
 21
-0.891006
  0
LINE
  8
0
 10
8.45398
 20
-0.891006
 11
8.30901
 21
-0.95105
  0
LINE
  8
0
 10
8.30901
 20
-0.95105
 11
8.15643
 21
-0.987686
  0
LINE
  8
0
 10
8.15643
 20
-0.987686
 11
8
 21
-1
  0
LINE
  8
0
 10
8
 20
-1
 11
7.84355
 21
-0.987686
  0
LINE
  8
0
 10
7.84355
 20
-0.987686
 11
7.69098
 21
-0.95105
  0
LINE
  8
0
 10
7.69098
 20
-0.95105
 11
7.54601
 21
-0.891006
  0
LINE
  8
0
 10
7.54601
 20
-0.891006
 11
7.4122
 21
-0.809006
  0
LINE
  8
0
 10
7.4122
 20
-0.809006
 11
7.29289
 21
-0.707092
  0
LINE
  8
0
 10
7.29289
 20
-0.707092
 11
7.19098
 21
-0.587784
  0
LINE
  8
0
 10
7.19098
 20
-0.587784
 11
7.10898
 21
-0.453979
  0
LINE
  8
0
 10
7.10898
 20
-0.453979
 11
7.04893
 21
-0.309006
  0
LINE
  8
0
 10
7.04893
 20
-0.309006
 11
7.0123
 21
-0.156433
  0
LINE
  8
0
 10
7.0123
 20
-0.156433
 11
7
 21
0
  0
LINE
  8
0
 10
7
 20
0
 11
7.0123
 21
0.156433
  0
LINE
  8
0
 10
7.0123
 20
0.156433
 11
7.04893
 21
0.309006
  0
LINE
  8
0
 10
7.04893
 20
0.309006
 11
7.10898
 21
0.453979
  0
LINE
  8
0
 10
7.10898
 20
0.453979
 11
7.19098
 21
0.587784
  0
LINE
  8
0
 10
7.19098
 20
0.587784
 11
7.29289
 21
0.707092
  0
LINE
  8
0
 10
7.29289
 20
0.707092
 11
7.4122
 21
0.809006
  0
LINE
  8
0
 10
7.4122
 20
0.809006
 11
7.54601
 21
0.891006
  0
LINE
  8
0
 10
7.54601
 20
0.891006
 11
7.69098
 21
0.95105
  0
LINE
  8
0
 10
7.69098
 20
0.95105
 11
7.84355
 21
0.987686
  0
LINE
  8
0
 10
7.84355
 20
0.987686
 11
8
 21
1
  0
LINE
  8
0
 10
8
 20
1
 11
8.15643
 21
0.987686
  0
LINE
  8
0
 10
8.15643
 20
0.987686
 11
8.30901
 21
0.95105
  0
LINE
  8
0
 10
8.30901
 20
0.95105
 11
8.45398
 21
0.891006
  0
LINE
  8
0
 10
8.45398
 20
0.891006
 11
8.58778
 21
0.809006
  0
LINE
  8
0
 10
8.58778
 20
0.809006
 11
8.70709
 21
0.707092
  0
LINE
  8
0
 10
8.70709
 20
0.707092
 11
8.75464
 21
0.651443
  0
LINE
  8
0
 10
8.75464
 20
0.651443
 11
8.9122
 21
0.809006
  0
LINE
  8
0
 10
8.9122
 20
0.809006
 11
9.19098
 21
0.95105
  0
LINE
  8
0
 10
9.19098
 20
0.95105
 11
9.44705
 21
0.991608
  0
LINE
  8
0
 10
9.44705
 20
0.991608
 11
9.42508
 21
1.19066
  0
LINE
  8
0
 10
9.42508
 20
1.19066
 11
9.38303
 21
1.48611
  0
LINE
  8
0
 10
9.38303
 20
1.48611
 11
9.33173
 21
1.78012
  0
LINE
  8
0
 10
9.33173
 20
1.78012
 11
9.27119
 21
2.07236
  0
LINE
  8
0
 10
9.27119
 20
2.07236
 11
9.20154
 21
2.36255
  0
LINE
  8
0
 10
9.20154
 20
2.36255
 11
9.12279
 21
2.65041
  0
LINE
  8
0
 10
9.12279
 20
2.65041
 11
9.10779
 21
2.69919
  0
LINE
  8
0
 10
9.10779
 20
2.69919
 11
8.8553
 21
2.63857
  0
LINE
  8
0
 10
8.8553
 20
2.63857
 11
8.5434
 21
2.66312
  0
LINE
  8
0
 10
8.5434
 20
2.66312
 11
8.25435
 21
2.78285
  0
LINE
  8
0
 10
8.25435
 20
2.78285
 11
8.01645
 21
2.98604
  0
LINE
  8
0
 10
8.01645
 20
2.98604
 11
7.85297
 21
3.25281
  0
LINE
  8
0
 10
7.85297
 20
3.25281
 11
7.77994
 21
3.55702
  0
LINE
  8
0
 10
7.77994
 20
3.55702
 11
7.80447
 21
3.86893
  0
LINE
  8
0
 10
7.80447
 20
3.86893
 11
7.92421
 21
4.15799
  0
LINE
  8
0
 10
7.92421
 20
4.15799
 11
8.1274
 21
4.39589
  0
LINE
  8
0
 10
8.1274
 20
4.39589
 11
8.34879
 21
4.53156
  0
LINE
  8
0
 10
8.34879
 20
4.53156
 11
8.32491
 21
4.57664
  0
LINE
  8
0
 10
8.32491
 20
4.57664
 11
8.17705
 21
4.83589
  0
LINE
  8
0
 10
8.17705
 20
4.83589
 11
8.0211
 21
5.09035
  0
LINE
  8
0
 10
8.0211
 20
5.09035
 11
7.85725
 21
5.33978
  0
LINE
  8
0
 10
7.85725
 20
5.33978
 11
7.68565
 21
5.58395
  0
LINE
  8
0
 10
7.68565
 20
5.58395
 11
7.50647
 21
5.82262
  0
LINE
  8
0
 10
7.50647
 20
5.82262
 11
7.38126
 21
5.97891
  0
LINE
  8
0
 10
7.38126
 20
5.97891
 11
7.17149
 21
5.82651
  0
LINE
  8
0
 10
7.17149
 20
5.82651
 11
6.87395
 21
5.72981
  0
LINE
  8
0
 10
6.87395
 20
5.72981
 11
6.56107
 21
5.72981
  0
LINE
  8
0
 10
6.56107
 20
5.72981
 11
6.26352
 21
5.82651
  0
LINE
  8
0
 10
6.26352
 20
5.82651
 11
6.01041
 21
6.01041
  0
LINE
  8
0
 10
6.01041
 20
6.01041
 11
5.82651
 21
6.26352
  0
LINE
  8
0
 10
5.82651
 20
6.26352
 11
5.72981
 21
6.56107
  0
LINE
  8
0
 10
5.72981
 20
6.56107
 11
5.72981
 21
6.87395
  0
LINE
  8
0
 10
5.72981
 20
6.87395
 11
5.82651
 21
7.17149
  0
LINE
  8
0
 10
5.82651
 20
7.17149
 11
5.97891
 21
7.38126
  0
LINE
  8
0
 10
5.97891
 20
7.38126
 11
5.82262
 21
7.50647
  0
LINE
  8
0
 10
5.82262
 20
7.50647
 11
5.58395
 21
7.68565
  0
LINE
  8
0
 10
5.58395
 20
7.68565
 11
5.33978
 21
7.85725
  0
LINE
  8
0
 10
5.33978
 20
7.85725
 11
5.09035
 21
8.0211
  0
LINE
  8
0
 10
5.09035
 20
8.0211
 11
4.83589
 21
8.17705
  0
LINE
  8
0
 10
4.83589
 20
8.17705
 11
4.57664
 21
8.32491
  0
LINE
  8
0
 10
4.57664
 20
8.32491
 11
4.53156
 21
8.34879
  0
LINE
  8
0
 10
4.53156
 20
8.34879
 11
4.39589
 21
8.1274
  0
LINE
  8
0
 10
4.39589
 20
8.1274
 11
4.15799
 21
7.92421
  0
LINE
  8
0
 10
4.15799
 20
7.92421
 11
3.86893
 21
7.80447
  0
LINE
  8
0
 10
3.86893
 20
7.80447
 11
3.55702
 21
7.77994
  0
LINE
  8
0
 10
3.55702
 20
7.77994
 11
3.25281
 21
7.85297
  0
LINE
  8
0
 10
3.25281
 20
7.85297
 11
2.98604
 21
8.01645
  0
LINE
  8
0
 10
2.98604
 20
8.01645
 11
2.78285
 21
8.25435
  0
LINE
  8
0
 10
2.78285
 20
8.25435
 11
2.66312
 21
8.5434
  0
LINE
  8
0
 10
2.66312
 20
8.5434
 11
2.63857
 21
8.8553
  0
LINE
  8
0
 10
2.63857
 20
8.8553
 11
2.69919
 21
9.10779
  0
LINE
  8
0
 10
2.69919
 20
9.10779
 11
2.65041
 21
9.12279
  0
LINE
  8
0
 10
2.65041
 20
9.12279
 11
2.36255
 21
9.20154
  0
LINE
  8
0
 10
2.36255
 20
9.20154
 11
2.07236
 21
9.27119
  0
LINE
  8
0
 10
2.07236
 20
9.27119
 11
1.78012
 21
9.33173
  0
LINE
  8
0
 10
1.78012
 20
9.33173
 11
1.48611
 21
9.38303
  0
LINE
  8
0
 10
1.48611
 20
9.38303
 11
1.19066
 21
9.42508
  0
LINE
  8
0
 10
1.19066
 20
9.42508
 11
0.991608
 21
9.44705
  0
LINE
  8
0
 10
0.991608
 20
9.44705
 11
0.95105
 21
9.19098
  0
LINE
  8
0
 10
0.95105
 20
9.19098
 11
0.809006
 21
8.9122
  0
LINE
  8
0
 10
0.809006
 20
8.9122
 11
0.651443
 21
8.75464
  0
LINE
  8
0
 10
0.651443
 20
8.75464
 11
0.707092
 21
8.70709
  0
LINE
  8
0
 10
0.707092
 20
8.70709
 11
0.809006
 21
8.58778
  0
LINE
  8
0
 10
0.809006
 20
8.58778
 11
0.891006
 21
8.45398
  0
LINE
  8
0
 10
0.891006
 20
8.45398
 11
0.95105
 21
8.30901
  0
LINE
  8
0
 10
0.95105
 20
8.30901
 11
0.987686
 21
8.15643
  0
LINE
  8
0
 10
0.987686
 20
8.15643
 11
1
 21
8
  0
LINE
  8
0
 10
1
 20
8
 11
0.987686
 21
7.84355
  0
LINE
  8
0
 10
0.987686
 20
7.84355
 11
0.95105
 21
7.69098
  0
LINE
  8
0
 10
0.95105
 20
7.69098
 11
0.891006
 21
7.54601
  0
LINE
  8
0
 10
0.891006
 20
7.54601
 11
0.809006
 21
7.4122
  0
LINE
  8
0
 10
0.809006
 20
7.4122
 11
0.707092
 21
7.29289
  0
LINE
  8
0
 10
0.707092
 20
7.29289
 11
0.587784
 21
7.19098
  0
LINE
  8
0
 10
0.587784
 20
7.19098
 11
0.453979
 21
7.10898
  0
LINE
  8
0
 10
0.453979
 20
7.10898
 11
0.309006
 21
7.04893
  0
LINE
  8
0
 10
0.309006
 20
7.04893
 11
0.156433
 21
7.0123
  0
LINE
  8
0
 10
0.156433
 20
7.0123
 11
0
 21
7
  0
LINE
  8
0
 10
0
 20
7
 11
-0.156433
 21
7.0123
  0
LINE
  8
0
 10
-0.156433
 20
7.0123
 11
-0.309006
 21
7.04893
  0
LINE
  8
0
 10
-0.309006
 20
7.04893
 11
-0.453979
 21
7.10898
  0
LINE
  8
0
 10
-0.453979
 20
7.10898
 11
-0.587784
 21
7.19098
  0
LINE
  8
0
 10
-0.587784
 20
7.19098
 11
-0.707092
 21
7.29289
  0
LINE
  8
0
 10
-0.707092
 20
7.29289
 11
-0.809006
 21
7.4122
  0
LINE
  8
0
 10
-0.809006
 20
7.4122
 11
-0.891006
 21
7.54601
  0
LINE
  8
0
 10
-0.891006
 20
7.54601
 11
-0.95105
 21
7.69098
  0
LINE
  8
0
 10
-0.95105
 20
7.69098
 11
-0.987686
 21
7.84355
  0
LINE
  8
0
 10
-0.987686
 20
7.84355
 11
-0.999985
 21
8
  0
LINE
  8
0
 10
-0.999985
 20
8
 11
-0.987686
 21
8.15643
  0
LINE
  8
0
 10
-0.987686
 20
8.15643
 11
-0.95105
 21
8.30901
  0
LINE
  8
0
 10
-0.95105
 20
8.30901
 11
-0.891006
 21
8.45398
  0
LINE
  8
0
 10
-0.891006
 20
8.45398
 11
-0.809006
 21
8.58778
  0
LINE
  8
0
 10
-0.809006
 20
8.58778
 11
-0.707092
 21
8.70709
  0
LINE
  8
0
 10
-0.707092
 20
8.70709
 11
-0.651443
 21
8.75464
  0
LINE
  8
0
 10
-0.651443
 20
8.75464
 11
-0.809006
 21
8.9122
  0
LINE
  8
0
 10
-0.809006
 20
8.9122
 11
-0.95105
 21
9.19098
  0
LINE
  8
0
 10
-0.95105
 20
9.19098
 11
-0.991608
 21
9.44705
  0
LINE
  8
0
 10
-0.991608
 20
9.44705
 11
-1.19066
 21
9.42508
  0
LINE
  8
0
 10
-1.19066
 20
9.42508
 11
-1.48611
 21
9.38303
  0
LINE
  8
0
 10
-1.48611
 20
9.38303
 11
-1.78012
 21
9.33173
  0
LINE
  8
0
 10
-1.78012
 20
9.33173
 11
-2.07236
 21
9.27119
  0
LINE
  8
0
 10
-2.07236
 20
9.27119
 11
-2.36255
 21
9.20154
  0
LINE
  8
0
 10
-2.36255
 20
9.20154
 11
-2.65041
 21
9.12279
  0
LINE
  8
0
 10
-2.65041
 20
9.12279
 11
-2.69919
 21
9.10779
  0
LINE
  8
0
 10
-2.69919
 20
9.10779
 11
-2.63857
 21
8.8553
  0
LINE
  8
0
 10
-2.63857
 20
8.8553
 11
-2.66312
 21
8.5434
  0
LINE
  8
0
 10
-2.66312
 20
8.5434
 11
-2.78285
 21
8.25435
  0
LINE
  8
0
 10
-2.78285
 20
8.25435
 11
-2.98604
 21
8.01645
  0
LINE
  8
0
 10
-2.98604
 20
8.01645
 11
-3.25281
 21
7.85297
  0
LINE
  8
0
 10
-3.25281
 20
7.85297
 11
-3.55702
 21
7.77994
  0
LINE
  8
0
 10
-3.55702
 20
7.77994
 11
-3.86893
 21
7.80447
  0
LINE
  8
0
 10
-3.86893
 20
7.80447
 11
-4.15799
 21
7.92421
  0
LINE
  8
0
 10
-4.15799
 20
7.92421
 11
-4.39589
 21
8.1274
  0
LINE
  8
0
 10
-4.39589
 20
8.1274
 11
-4.53156
 21
8.34879
  0
LINE
  8
0
 10
-4.53156
 20
8.34879
 11
-4.57664
 21
8.32491
  0
LINE
  8
0
 10
-4.57664
 20
8.32491
 11
-4.83589
 21
8.17705
  0
LINE
  8
0
 10
-4.83589
 20
8.17705
 11
-5.09035
 21
8.0211
  0
LINE
  8
0
 10
-5.09035
 20
8.0211
 11
-5.33978
 21
7.85725
  0
LINE
  8
0
 10
-5.33978
 20
7.85725
 11
-5.58395
 21
7.68565
  0
LINE
  8
0
 10
-5.58395
 20
7.68565
 11
-5.82262
 21
7.50647
  0
LINE
  8
0
 10
-5.82262
 20
7.50647
 11
-5.97891
 21
7.38126
  0
LINE
  8
0
 10
-5.97891
 20
7.38126
 11
-5.82651
 21
7.17149
  0
LINE
  8
0
 10
-5.82651
 20
7.17149
 11
-5.72981
 21
6.87395
  0
LINE
  8
0
 10
-5.72981
 20
6.87395
 11
-5.72981
 21
6.56107
  0
LINE
  8
0
 10
-5.72981
 20
6.56107
 11
-5.82651
 21
6.26352
  0
LINE
  8
0
 10
-5.82651
 20
6.26352
 11
-6.01041
 21
6.01041
  0
LINE
  8
0
 10
-6.01041
 20
6.01041
 11
-6.26352
 21
5.82651
  0
LINE
  8
0
 10
-6.26352
 20
5.82651
 11
-6.56107
 21
5.72981
  0
LINE
  8
0
 10
-6.56107
 20
5.72981
 11
-6.87395
 21
5.72981
  0
LINE
  8
0
 10
-6.87395
 20
5.72981
 11
-7.17149
 21
5.82651
  0
LINE
  8
0
 10
-7.17149
 20
5.82651
 11
-7.38126
 21
5.97891
  0
LINE
  8
0
 10
-7.38126
 20
5.97891
 11
-7.50647
 21
5.82262
  0
LINE
  8
0
 10
-7.50647
 20
5.82262
 11
-7.68565
 21
5.58395
  0
LINE
  8
0
 10
-7.68565
 20
5.58395
 11
-7.85725
 21
5.33978
  0
LINE
  8
0
 10
-7.85725
 20
5.33978
 11
-8.0211
 21
5.09035
  0
LINE
  8
0
 10
-8.0211
 20
5.09035
 11
-8.17705
 21
4.83589
  0
LINE
  8
0
 10
-8.17705
 20
4.83589
 11
-8.32491
 21
4.57664
  0
LINE
  8
0
 10
-8.32491
 20
4.57664
 11
-8.34879
 21
4.53156
  0
LINE
  8
0
 10
-8.34879
 20
4.53156
 11
-8.1274
 21
4.39589
  0
LINE
  8
0
 10
-8.1274
 20
4.39589
 11
-7.92421
 21
4.15799
  0
LINE
  8
0
 10
-7.92421
 20
4.15799
 11
-7.80447
 21
3.86893
  0
LINE
  8
0
 10
-7.80447
 20
3.86893
 11
-7.77994
 21
3.55702
  0
LINE
  8
0
 10
-7.77994
 20
3.55702
 11
-7.85297
 21
3.25281
  0
LINE
  8
0
 10
-7.85297
 20
3.25281
 11
-8.01645
 21
2.98604
  0
LINE
  8
0
 10
-8.01645
 20
2.98604
 11
-8.25435
 21
2.78285
  0
LINE
  8
0
 10
-8.25435
 20
2.78285
 11
-8.5434
 21
2.66312
  0
LINE
  8
0
 10
-8.5434
 20
2.66312
 11
-8.8553
 21
2.63857
  0
LINE
  8
0
 10
-8.8553
 20
2.63857
 11
-9.10779
 21
2.69919
  0
LINE
  8
0
 10
-9.10779
 20
2.69919
 11
-9.12279
 21
2.65041
  0
LINE
  8
0
 10
-9.12279
 20
2.65041
 11
-9.20154
 21
2.36255
  0
LINE
  8
0
 10
-9.20154
 20
2.36255
 11
-9.27119
 21
2.07236
  0
LINE
  8
0
 10
-9.27119
 20
2.07236
 11
-9.33173
 21
1.78012
  0
LINE
  8
0
 10
-9.33173
 20
1.78012
 11
-9.38303
 21
1.48611
  0
LINE
  8
0
 10
-9.38303
 20
1.48611
 11
-9.42508
 21
1.19066
  0
LINE
  8
0
 10
-9.42508
 20
1.19066
 11
-9.44705
 21
0.991608
  0
LINE
  8
0
 10
-9.44705
 20
0.991608
 11
-9.19098
 21
0.95105
  0
LINE
  8
0
 10
-9.19098
 20
0.95105
 11
-8.9122
 21
0.809006
  0
LINE
  8
0
 10
-8.9122
 20
0.809006
 11
-8.75464
 21
0.651443
  0
LINE
  8
0
 10
-8.75464
 20
0.651443
 11
-8.70709
 21
0.707092
  0
LINE
  8
0
 10
-8.70709
 20
0.707092
 11
-8.58778
 21
0.809006
  0
LINE
  8
0
 10
-8.58778
 20
0.809006
 11
-8.45398
 21
0.891006
  0
LINE
  8
0
 10
-8.45398
 20
0.891006
 11
-8.30901
 21
0.95105
  0
LINE
  8
0
 10
-8.30901
 20
0.95105
 11
-8.15643
 21
0.987686
  0
LINE
  8
0
 10
-8.15643
 20
0.987686
 11
-8
 21
1
  0
LINE
  8
0
 10
-8
 20
1
 11
-7.84355
 21
0.987686
  0
LINE
  8
0
 10
-7.84355
 20
0.987686
 11
-7.69098
 21
0.95105
  0
LINE
  8
0
 10
-7.69098
 20
0.95105
 11
-7.54601
 21
0.891006
  0
LINE
  8
0
 10
-7.54601
 20
0.891006
 11
-7.4122
 21
0.809006
  0
LINE
  8
0
 10
-7.4122
 20
0.809006
 11
-7.29289
 21
0.707092
  0
LINE
  8
0
 10
-7.29289
 20
0.707092
 11
-7.19098
 21
0.587784
  0
LINE
  8
0
 10
-7.19098
 20
0.587784
 11
-7.10898
 21
0.453979
  0
LINE
  8
0
 10
-7.10898
 20
0.453979
 11
-7.04893
 21
0.309006
  0
LINE
  8
0
 10
-7.04893
 20
0.309006
 11
-7.0123
 21
0.156433
  0
LINE
  8
0
 10
-7.0123
 20
0.156433
 11
-7
 21
0
  0
LINE
  8
0
 10
-7
 20
0
 11
-7.0123
 21
-0.156433
  0
LINE
  8
0
 10
-7.0123
 20
-0.156433
 11
-7.04893
 21
-0.309006
  0
LINE
  8
0
 10
-7.04893
 20
-0.309006
 11
-7.10898
 21
-0.453979
  0
LINE
  8
0
 10
-7.10898
 20
-0.453979
 11
-7.19098
 21
-0.587784
  0
LINE
  8
0
 10
-7.19098
 20
-0.587784
 11
-7.29289
 21
-0.707092
  0
LINE
  8
0
 10
-7.29289
 20
-0.707092
 11
-7.4122
 21
-0.809006
  0
LINE
  8
0
 10
-7.4122
 20
-0.809006
 11
-7.54601
 21
-0.891006
  0
LINE
  8
0
 10
-7.54601
 20
-0.891006
 11
-7.69098
 21
-0.95105
  0
LINE
  8
0
 10
-7.69098
 20
-0.95105
 11
-7.84355
 21
-0.987686
  0
LINE
  8
0
 10
-7.84355
 20
-0.987686
 11
-8
 21
-0.999985
  0
LINE
  8
0
 10
-8
 20
-0.999985
 11
-8.15643
 21
-0.987686
  0
LINE
  8
0
 10
-8.15643
 20
-0.987686
 11
-8.30901
 21
-0.95105
  0
LINE
  8
0
 10
-8.30901
 20
-0.95105
 11
-8.45398
 21
-0.891006
  0
LINE
  8
0
 10
-8.45398
 20
-0.891006
 11
-8.58778
 21
-0.809006
  0
LINE
  8
0
 10
-8.58778
 20
-0.809006
 11
-8.70709
 21
-0.707092
  0
LINE
  8
0
 10
-8.70709
 20
-0.707092
 11
-8.75464
 21
-0.651443
  0
LINE
  8
0
 10
-8.75464
 20
-0.651443
 11
-8.9122
 21
-0.809006
  0
LINE
  8
0
 10
-8.9122
 20
-0.809006
 11
-9.19098
 21
-0.95105
  0
LINE
  8
0
 10
-9.19098
 20
-0.95105
 11
-9.44705
 21
-0.991608
  0
LINE
  8
0
 10
-9.44705
 20
-0.991608
 11
-9.42508
 21
-1.19066
  0
LINE
  8
0
 10
-9.42508
 20
-1.19066
 11
-9.38303
 21
-1.48611
  0
LINE
  8
0
 10
-9.38303
 20
-1.48611
 11
-9.33173
 21
-1.78012
  0
LINE
  8
0
 10
-9.33173
 20
-1.78012
 11
-9.27119
 21
-2.07236
  0
LINE
  8
0
 10
-9.27119
 20
-2.07236
 11
-9.20154
 21
-2.36255
  0
LINE
  8
0
 10
-9.20154
 20
-2.36255
 11
-9.12279
 21
-2.65041
  0
LINE
  8
0
 10
-9.12279
 20
-2.65041
 11
-9.10779
 21
-2.69919
  0
LINE
  8
0
 10
-9.10779
 20
-2.69919
 11
-8.8553
 21
-2.63857
  0
LINE
  8
0
 10
-8.8553
 20
-2.63857
 11
-8.5434
 21
-2.66312
  0
LINE
  8
0
 10
-8.5434
 20
-2.66312
 11
-8.25435
 21
-2.78285
  0
LINE
  8
0
 10
-8.25435
 20
-2.78285
 11
-8.01645
 21
-2.98604
  0
LINE
  8
0
 10
-8.01645
 20
-2.98604
 11
-7.85297
 21
-3.25281
  0
LINE
  8
0
 10
-7.85297
 20
-3.25281
 11
-7.77994
 21
-3.55702
  0
LINE
  8
0
 10
-7.77994
 20
-3.55702
 11
-7.80447
 21
-3.86893
  0
LINE
  8
0
 10
-7.80447
 20
-3.86893
 11
-7.92421
 21
-4.15799
  0
LINE
  8
0
 10
-7.92421
 20
-4.15799
 11
-8.1274
 21
-4.39589
  0
LINE
  8
0
 10
-8.1274
 20
-4.39589
 11
-8.34879
 21
-4.53156
  0
LINE
  8
0
 10
-8.34879
 20
-4.53156
 11
-8.32491
 21
-4.57664
  0
LINE
  8
0
 10
-8.32491
 20
-4.57664
 11
-8.17705
 21
-4.83589
  0
LINE
  8
0
 10
-8.17705
 20
-4.83589
 11
-8.0211
 21
-5.09035
  0
LINE
  8
0
 10
-8.0211
 20
-5.09035
 11
-7.85725
 21
-5.33978
  0
LINE
  8
0
 10
-7.85725
 20
-5.33978
 11
-7.68565
 21
-5.58395
  0
LINE
  8
0
 10
-7.68565
 20
-5.58395
 11
-7.50647
 21
-5.82262
  0
LINE
  8
0
 10
-7.50647
 20
-5.82262
 11
-7.38126
 21
-5.97891
  0
LINE
  8
0
 10
-7.38126
 20
-5.97891
 11
-7.17149
 21
-5.82651
  0
LINE
  8
0
 10
-7.17149
 20
-5.82651
 11
-6.87395
 21
-5.72981
  0
LINE
  8
0
 10
-6.87395
 20
-5.72981
 11
-6.56107
 21
-5.72981
  0
LINE
  8
0
 10
-6.56107
 20
-5.72981
 11
-6.26352
 21
-5.82651
  0
LINE
  8
0
 10
-6.26352
 20
-5.82651
 11
-6.01041
 21
-6.01041
  0
LINE
  8
0
 10
-6.01041
 20
-6.01041
 11
-5.82651
 21
-6.26352
  0
LINE
  8
0
 10
-5.82651
 20
-6.26352
 11
-5.72981
 21
-6.56107
  0
LINE
  8
0
 10
-5.72981
 20
-6.56107
 11
-5.72981
 21
-6.87395
  0
LINE
  8
0
 10
-5.72981
 20
-6.87395
 11
-5.82651
 21
-7.17149
  0
LINE
  8
0
 10
-5.82651
 20
-7.17149
 11
-5.97891
 21
-7.38126
  0
LINE
  8
0
 10
-5.97891
 20
-7.38126
 11
-5.82262
 21
-7.50647
  0
LINE
  8
0
 10
-5.82262
 20
-7.50647
 11
-5.58395
 21
-7.68565
  0
LINE
  8
0
 10
-5.58395
 20
-7.68565
 11
-5.33978
 21
-7.85725
  0
LINE
  8
0
 10
-5.33978
 20
-7.85725
 11
-5.09035
 21
-8.0211
  0
LINE
  8
0
 10
-5.09035
 20
-8.0211
 11
-4.83589
 21
-8.17705
  0
LINE
  8
0
 10
-4.83589
 20
-8.17705
 11
-4.57664
 21
-8.32491
  0
LINE
  8
0
 10
-4.57664
 20
-8.32491
 11
-4.53156
 21
-8.34879
  0
LINE
  8
0
 10
-4.53156
 20
-8.34879
 11
-4.39589
 21
-8.1274
  0
LINE
  8
0
 10
-4.39589
 20
-8.1274
 11
-4.15799
 21
-7.92421
  0
LINE
  8
0
 10
-4.15799
 20
-7.92421
 11
-3.86893
 21
-7.80447
  0
LINE
  8
0
 10
-3.86893
 20
-7.80447
 11
-3.55702
 21
-7.77994
  0
LINE
  8
0
 10
-3.55702
 20
-7.77994
 11
-3.25281
 21
-7.85297
  0
LINE
  8
0
 10
-3.25281
 20
-7.85297
 11
-2.98604
 21
-8.01645
  0
LINE
  8
0
 10
-2.98604
 20
-8.01645
 11
-2.78285
 21
-8.25435
  0
LINE
  8
0
 10
-2.78285
 20
-8.25435
 11
-2.66312
 21
-8.5434
  0
LINE
  8
0
 10
-2.66312
 20
-8.5434
 11
-2.63857
 21
-8.8553
  0
LINE
  8
0
 10
-2.63857
 20
-8.8553
 11
-2.69919
 21
-9.10779
  0
LINE
  8
0
 10
-2.69919
 20
-9.10779
 11
-2.65041
 21
-9.12279
  0
LINE
  8
0
 10
-2.65041
 20
-9.12279
 11
-2.36255
 21
-9.20154
  0
LINE
  8
0
 10
-2.36255
 20
-9.20154
 11
-2.07236
 21
-9.27119
  0
LINE
  8
0
 10
-2.07236
 20
-9.27119
 11
-1.78012
 21
-9.33173
  0
LINE
  8
0
 10
-1.78012
 20
-9.33173
 11
-1.48611
 21
-9.38303
  0
LINE
  8
0
 10
-1.48611
 20
-9.38303
 11
-1.19066
 21
-9.42508
  0
LINE
  8
0
 10
-1.19066
 20
-9.42508
 11
-0.991608
 21
-9.44705
  0
LINE
  8
0
 10
-0.991608
 20
-9.44705
 11
-0.95105
 21
-9.19098
  0
LINE
  8
0
 10
-0.95105
 20
-9.19098
 11
-0.809006
 21
-8.9122
  0
LINE
  8
0
 10
-0.809006
 20
-8.9122
 11
-0.651443
 21
-8.75464
  0
LINE
  8
0
 10
-0.651443
 20
-8.75464
 11
-0.707092
 21
-8.70709
  0
LINE
  8
0
 10
-0.707092
 20
-8.70709
 11
-0.809006
 21
-8.58778
  0
LINE
  8
0
 10
-0.809006
 20
-8.58778
 11
-0.891006
 21
-8.45398
  0
LINE
  8
0
 10
-0.891006
 20
-8.45398
 11
-0.95105
 21
-8.30901
  0
LINE
  8
0
 10
-0.95105
 20
-8.30901
 11
-0.987686
 21
-8.15643
  0
LINE
  8
0
 10
-0.987686
 20
-8.15643
 11
-1
 21
-8
  0
LINE
  8
0
 10
-1
 20
-8
 11
-0.987686
 21
-7.84355
  0
LINE
  8
0
 10
-0.987686
 20
-7.84355
 11
-0.95105
 21
-7.69098
  0
LINE
  8
0
 10
-0.95105
 20
-7.69098
 11
-0.891006
 21
-7.54601
  0
LINE
  8
0
 10
-0.891006
 20
-7.54601
 11
-0.809006
 21
-7.4122
  0
LINE
  8
0
 10
-0.809006
 20
-7.4122
 11
-0.707092
 21
-7.29289
  0
LINE
  8
0
 10
-0.707092
 20
-7.29289
 11
-0.587784
 21
-7.19098
  0
LINE
  8
0
 10
-0.587784
 20
-7.19098
 11
-0.453979
 21
-7.10898
  0
LINE
  8
0
 10
-0.453979
 20
-7.10898
 11
-0.309006
 21
-7.04893
  0
LINE
  8
0
 10
-0.309006
 20
-7.04893
 11
-0.156433
 21
-7.0123
  0
LINE
  8
0
 10
-0.156433
 20
-7.0123
 11
0
 21
-7
  0
LINE
  8
0
 10
0
 20
-7
 11
0.156433
 21
-7.0123
  0
LINE
  8
0
 10
0.156433
 20
-7.0123
 11
0.309006
 21
-7.04893
  0
LINE
  8
0
 10
0.309006
 20
-7.04893
 11
0.453979
 21
-7.10898
  0
LINE
  8
0
 10
0.453979
 20
-7.10898
 11
0.587784
 21
-7.19098
  0
LINE
  8
0
 10
0.587784
 20
-7.19098
 11
0.707092
 21
-7.29289
  0
LINE
  8
0
 10
0.707092
 20
-7.29289
 11
0.809006
 21
-7.4122
  0
LINE
  8
0
 10
0.809006
 20
-7.4122
 11
0.891006
 21
-7.54601
  0
LINE
  8
0
 10
0.891006
 20
-7.54601
 11
0.95105
 21
-7.69098
  0
LINE
  8
0
 10
0.95105
 20
-7.69098
 11
0.987686
 21
-7.84355
  0
LINE
  8
0
 10
0.987686
 20
-7.84355
 11
0.999985
 21
-8
  0
LINE
  8
0
 10
0.999985
 20
-8
 11
0.987686
 21
-8.15643
  0
LINE
  8
0
 10
0.987686
 20
-8.15643
 11
0.95105
 21
-8.30901
  0
LINE
  8
0
 10
0.95105
 20
-8.30901
 11
0.891006
 21
-8.45398
  0
LINE
  8
0
 10
0.891006
 20
-8.45398
 11
0.809006
 21
-8.58778
  0
LINE
  8
0
 10
0.809006
 20
-8.58778
 11
0.707092
 21
-8.70709
  0
LINE
  8
0
 10
0.707092
 20
-8.70709
 11
0.651443
 21
-8.75464
  0
LINE
  8
0
 10
0.651443
 20
-8.75464
 11
0.809006
 21
-8.9122
  0
LINE
  8
0
 10
0.809006
 20
-8.9122
 11
0.95105
 21
-9.19098
  0
LINE
  8
0
 10
0.95105
 20
-9.19098
 11
0.991608
 21
-9.44705
  0
LINE
  8
0
 10
0.991608
 20
-9.44705
 11
1.19066
 21
-9.42508
  0
LINE
  8
0
 10
-0.469299
 20
-2.96306
 11
-0.927048
 21
-2.85316
  0
LINE
  8
0
 10
-0.927048
 20
-2.85316
 11
-1.36197
 21
-2.67302
  0
LINE
  8
0
 10
-1.36197
 20
-2.67302
 11
-1.76335
 21
-2.42705
  0
LINE
  8
0
 10
-1.76335
 20
-2.42705
 11
-2.12131
 21
-2.12131
  0
LINE
  8
0
 10
-2.12131
 20
-2.12131
 11
-2.42705
 21
-1.76335
  0
LINE
  8
0
 10
-2.42705
 20
-1.76335
 11
-2.67302
 21
-1.36197
  0
LINE
  8
0
 10
-2.67302
 20
-1.36197
 11
-2.85316
 21
-0.927048
  0
LINE
  8
0
 10
-2.85316
 20
-0.927048
 11
-2.96306
 21
-0.469299
  0
LINE
  8
0
 10
-2.96306
 20
-0.469299
 11
-3
 21
0
  0
LINE
  8
0
 10
-3
 20
0
 11
-2.96306
 21
0.469299
  0
LINE
  8
0
 10
-2.96306
 20
0.469299
 11
-2.85316
 21
0.927048
  0
LINE
  8
0
 10
-2.85316
 20
0.927048
 11
-2.67302
 21
1.36197
  0
LINE
  8
0
 10
-2.67302
 20
1.36197
 11
-2.42705
 21
1.76335
  0
LINE
  8
0
 10
-2.42705
 20
1.76335
 11
-2.12131
 21
2.12131
  0
LINE
  8
0
 10
-2.12131
 20
2.12131
 11
-1.76335
 21
2.42705
  0
LINE
  8
0
 10
-1.76335
 20
2.42705
 11
-1.36197
 21
2.67302
  0
LINE
  8
0
 10
-1.36197
 20
2.67302
 11
-0.927048
 21
2.85316
  0
LINE
  8
0
 10
-0.927048
 20
2.85316
 11
-0.469299
 21
2.96306
  0
LINE
  8
0
 10
-0.469299
 20
2.96306
 11
0
 21
3
  0
LINE
  8
0
 10
0
 20
3
 11
0.469299
 21
2.96306
  0
LINE
  8
0
 10
0.469299
 20
2.96306
 11
0.927048
 21
2.85316
  0
LINE
  8
0
 10
0.927048
 20
2.85316
 11
1.36197
 21
2.67302
  0
LINE
  8
0
 10
1.36197
 20
2.67302
 11
1.76335
 21
2.42705
  0
LINE
  8
0
 10
1.76335
 20
2.42705
 11
2.12131
 21
2.12131
  0
LINE
  8
0
 10
2.12131
 20
2.12131
 11
2.42705
 21
1.76335
  0
LINE
  8
0
 10
2.42705
 20
1.76335
 11
2.67302
 21
1.36197
  0
LINE
  8
0
 10
2.67302
 20
1.36197
 11
2.85316
 21
0.927048
  0
LINE
  8
0
 10
2.85316
 20
0.927048
 11
2.96306
 21
0.469299
  0
LINE
  8
0
 10
2.96306
 20
0.469299
 11
3
 21
0
  0
LINE
  8
0
 10
3
 20
0
 11
2.96306
 21
-0.469299
  0
LINE
  8
0
 10
2.96306
 20
-0.469299
 11
2.85316
 21
-0.927048
  0
LINE
  8
0
 10
2.85316
 20
-0.927048
 11
2.67302
 21
-1.36197
  0
LINE
  8
0
 10
2.67302
 20
-1.36197
 11
2.42705
 21
-1.76335
  0
LINE
  8
0
 10
2.42705
 20
-1.76335
 11
2.12131
 21
-2.12131
  0
LINE
  8
0
 10
2.12131
 20
-2.12131
 11
1.76335
 21
-2.42705
  0
LINE
  8
0
 10
1.76335
 20
-2.42705
 11
1.36197
 21
-2.67302
  0
LINE
  8
0
 10
1.36197
 20
-2.67302
 11
0.927048
 21
-2.85316
  0
LINE
  8
0
 10
0.927048
 20
-2.85316
 11
0.469299
 21
-2.96306
  0
LINE
  8
0
 10
0.469299
 20
-2.96306
 11
0
 21
-3
  0
LINE
  8
0
 10
0
 20
-3
 11
-0.469299
 21
-2.96306
  0
ENDSEC
  0
SECTION
  2
OBJECTS
  0
DICTIONARY
  0
ENDSEC
  0
EOF
