  0
SECTION
  2
BLOCKS
  0
ENDSEC
  0
SECTION
  2
ENTITIES
  0
LINE
  8
0
 10
1.86029
 20
-59.1958
 11
3.65056
 21
-59.1113
  0
LINE
  8
0
 10
3.65056
 20
-59.1113
 11
3.67436
 21
-58.809
  0
LINE
  8
0
 10
3.67436
 20
-58.809
 11
3.7941
 21
-58.5199
  0
LINE
  8
0
 10
3.7941
 20
-58.5199
 11
3.99728
 21
-58.282
  0
LINE
  8
0
 10
3.99728
 20
-58.282
 11
4.26405
 21
-58.1185
  0
LINE
  8
0
 10
4.26405
 20
-58.1185
 11
4.56827
 21
-58.0455
  0
LINE
  8
0
 10
4.56827
 20
-58.0455
 11
4.88017
 21
-58.0701
  0
LINE
  8
0
 10
4.88017
 20
-58.0701
 11
5.16924
 21
-58.1898
  0
LINE
  8
0
 10
5.16924
 20
-58.1898
 11
5.40714
 21
-58.393
  0
LINE
  8
0
 10
5.40714
 20
-58.393
 11
5.57062
 21
-58.6597
  0
LINE
  8
0
 10
5.57062
 20
-58.6597
 11
5.64142
 21
-58.9547
  0
LINE
  8
0
 10
5.64142
 20
-58.9547
 11
7.42285
 21
-58.758
  0
LINE
  8
0
 10
7.42285
 20
-58.758
 11
8.27713
 21
-58.6364
  0
LINE
  8
0
 10
8.27713
 20
-58.6364
 11
8.27713
 21
-58.3394
  0
LINE
  8
0
 10
8.27713
 20
-58.3394
 11
8.37381
 21
-58.0418
  0
LINE
  8
0
 10
8.37381
 20
-58.0418
 11
8.55772
 21
-57.7887
  0
LINE
  8
0
 10
8.55772
 20
-57.7887
 11
8.81084
 21
-57.6048
  0
LINE
  8
0
 10
8.81084
 20
-57.6048
 11
9.10838
 21
-57.5081
  0
LINE
  8
0
 10
9.10838
 20
-57.5081
 11
9.42126
 21
-57.5081
  0
LINE
  8
0
 10
9.42126
 20
-57.5081
 11
9.71881
 21
-57.6048
  0
LINE
  8
0
 10
9.71881
 20
-57.6048
 11
9.97192
 21
-57.7887
  0
LINE
  8
0
 10
9.97192
 20
-57.7887
 11
10.1558
 21
-58.0418
  0
LINE
  8
0
 10
10.1558
 20
-58.0418
 11
10.2476
 21
-58.3243
  0
LINE
  8
0
 10
10.2476
 20
-58.3243
 11
11.0977
 21
-58.1759
  0
LINE
  8
0
 10
11.0977
 20
-58.1759
 11
12.8527
 21
-57.8125
  0
LINE
  8
0
 10
12.8527
 20
-57.8125
 11
12.8289
 21
-57.5101
  0
LINE
  8
0
 10
12.8289
 20
-57.5101
 11
12.9019
 21
-57.2059
  0
LINE
  8
0
 10
12.9019
 20
-57.2059
 11
13.0654
 21
-56.9391
  0
LINE
  8
0
 10
13.0654
 20
-56.9391
 11
13.3033
 21
-56.736
  0
LINE
  8
0
 10
13.3033
 20
-56.736
 11
13.5923
 21
-56.6162
  0
LINE
  8
0
 10
13.5923
 20
-56.6162
 11
13.9043
 21
-56.5917
  0
LINE
  8
0
 10
13.9043
 20
-56.5917
 11
14.2085
 21
-56.6647
  0
LINE
  8
0
 10
14.2085
 20
-56.6647
 11
14.4752
 21
-56.8282
  0
LINE
  8
0
 10
14.4752
 20
-56.8282
 11
14.6784
 21
-57.0661
  0
LINE
  8
0
 10
14.6784
 20
-57.0661
 11
14.7945
 21
-57.3463
  0
LINE
  8
0
 10
14.7945
 20
-57.3463
 11
16.5232
 21
-56.8734
  0
LINE
  8
0
 10
16.5232
 20
-56.8734
 11
17.348
 21
-56.6197
  0
LINE
  8
0
 10
17.348
 20
-56.6197
 11
17.3015
 21
-56.3263
  0
LINE
  8
0
 10
17.3015
 20
-56.3263
 11
17.3505
 21
-56.0173
  0
LINE
  8
0
 10
17.3505
 20
-56.0173
 11
17.4925
 21
-55.7385
  0
LINE
  8
0
 10
17.4925
 20
-55.7385
 11
17.7137
 21
-55.5173
  0
LINE
  8
0
 10
17.7137
 20
-55.5173
 11
17.9925
 21
-55.3753
  0
LINE
  8
0
 10
17.9925
 20
-55.3753
 11
18.3015
 21
-55.3263
  0
LINE
  8
0
 10
18.3015
 20
-55.3263
 11
18.6105
 21
-55.3753
  0
LINE
  8
0
 10
18.6105
 20
-55.3753
 11
18.8893
 21
-55.5173
  0
LINE
  8
0
 10
18.8893
 20
-55.5173
 11
19.1105
 21
-55.7385
  0
LINE
  8
0
 10
19.1105
 20
-55.7385
 11
19.2454
 21
-56.0032
  0
LINE
  8
0
 10
19.2454
 20
-56.0032
 11
20.0618
 21
-55.7237
  0
LINE
  8
0
 10
20.0618
 20
-55.7237
 11
21.7383
 21
-55.0901
  0
LINE
  8
0
 10
21.7383
 20
-55.0901
 11
21.6675
 21
-54.7952
  0
LINE
  8
0
 10
21.6675
 20
-54.7952
 11
21.692
 21
-54.4833
  0
LINE
  8
0
 10
21.692
 20
-54.4833
 11
21.8118
 21
-54.1943
  0
LINE
  8
0
 10
21.8118
 20
-54.1943
 11
22.015
 21
-53.9563
  0
LINE
  8
0
 10
22.015
 20
-53.9563
 11
22.2817
 21
-53.7929
  0
LINE
  8
0
 10
22.2817
 20
-53.7929
 11
22.586
 21
-53.7198
  0
LINE
  8
0
 10
22.586
 20
-53.7198
 11
22.8979
 21
-53.7444
  0
LINE
  8
0
 10
22.8979
 20
-53.7444
 11
23.1869
 21
-53.8641
  0
LINE
  8
0
 10
23.1869
 20
-53.8641
 11
23.4248
 21
-54.0673
  0
LINE
  8
0
 10
23.4248
 20
-54.0673
 11
23.5833
 21
-54.3259
  0
LINE
  8
0
 10
23.5833
 20
-54.3259
 11
25.2168
 21
-53.5884
  0
LINE
  8
0
 10
25.2168
 20
-53.5884
 11
25.9917
 21
-53.2088
  0
LINE
  8
0
 10
25.9917
 20
-53.2088
 11
25.8999
 21
-52.9263
  0
LINE
  8
0
 10
25.8999
 20
-52.9263
 11
25.8999
 21
-52.6134
  0
LINE
  8
0
 10
25.8999
 20
-52.6134
 11
25.9966
 21
-52.3159
  0
LINE
  8
0
 10
25.9966
 20
-52.3159
 11
26.1805
 21
-52.0627
  0
LINE
  8
0
 10
26.1805
 20
-52.0627
 11
26.4336
 21
-51.8788
  0
LINE
  8
0
 10
26.4336
 20
-51.8788
 11
26.7311
 21
-51.7822
  0
LINE
  8
0
 10
26.7311
 20
-51.7822
 11
27.044
 21
-51.7822
  0
LINE
  8
0
 10
27.044
 20
-51.7822
 11
27.3416
 21
-51.8788
  0
LINE
  8
0
 10
27.3416
 20
-51.8788
 11
27.5947
 21
-52.0627
  0
LINE
  8
0
 10
27.5947
 20
-52.0627
 11
27.7693
 21
-52.303
  0
LINE
  8
0
 10
27.7693
 20
-52.303
 11
28.5319
 21
-51.8993
  0
LINE
  8
0
 10
28.5319
 20
-51.8993
 11
30.0887
 21
-51.0113
  0
LINE
  8
0
 10
30.0887
 20
-51.0113
 11
29.9726
 21
-50.731
  0
LINE
  8
0
 10
29.9726
 20
-50.731
 11
29.9481
 21
-50.4191
  0
LINE
  8
0
 10
29.9481
 20
-50.4191
 11
30.0211
 21
-50.1149
  0
LINE
  8
0
 10
30.0211
 20
-50.1149
 11
30.1846
 21
-49.8482
  0
LINE
  8
0
 10
30.1846
 20
-49.8482
 11
30.4225
 21
-49.645
  0
LINE
  8
0
 10
30.4225
 20
-49.645
 11
30.7115
 21
-49.5252
  0
LINE
  8
0
 10
30.7115
 20
-49.5252
 11
31.0234
 21
-49.5007
  0
LINE
  8
0
 10
31.0234
 20
-49.5007
 11
31.3277
 21
-49.5737
  0
LINE
  8
0
 10
31.3277
 20
-49.5737
 11
31.5944
 21
-49.7372
  0
LINE
  8
0
 10
31.5944
 20
-49.7372
 11
31.7914
 21
-49.9678
  0
LINE
  8
0
 10
31.7914
 20
-49.9678
 11
33.2894
 21
-48.9838
  0
LINE
  8
0
 10
33.2894
 20
-48.9838
 11
33.9954
 21
-48.4877
  0
LINE
  8
0
 10
33.9954
 20
-48.4877
 11
33.8605
 21
-48.223
  0
LINE
  8
0
 10
33.8605
 20
-48.223
 11
33.8116
 21
-47.914
  0
LINE
  8
0
 10
33.8116
 20
-47.914
 11
33.8605
 21
-47.605
  0
LINE
  8
0
 10
33.8605
 20
-47.605
 11
34.0026
 21
-47.3262
  0
LINE
  8
0
 10
34.0026
 20
-47.3262
 11
34.2238
 21
-47.105
  0
LINE
  8
0
 10
34.2238
 20
-47.105
 11
34.5026
 21
-46.963
  0
LINE
  8
0
 10
34.5026
 20
-46.963
 11
34.8116
 21
-46.914
  0
LINE
  8
0
 10
34.8116
 20
-46.914
 11
35.1206
 21
-46.963
  0
LINE
  8
0
 10
35.1206
 20
-46.963
 11
35.3994
 21
-47.105
  0
LINE
  8
0
 10
35.3994
 20
-47.105
 11
35.6094
 21
-47.315
  0
LINE
  8
0
 10
35.6094
 20
-47.315
 11
36.2994
 21
-46.7969
  0
LINE
  8
0
 10
36.2994
 20
-46.7969
 11
37.6982
 21
-45.6763
  0
LINE
  8
0
 10
37.6982
 20
-45.6763
 11
37.5397
 21
-45.4177
  0
LINE
  8
0
 10
37.5397
 20
-45.4177
 11
37.4666
 21
-45.1135
  0
LINE
  8
0
 10
37.4666
 20
-45.1135
 11
37.4912
 21
-44.8016
  0
LINE
  8
0
 10
37.4912
 20
-44.8016
 11
37.6109
 21
-44.5125
  0
LINE
  8
0
 10
37.6109
 20
-44.5125
 11
37.8141
 21
-44.2746
  0
LINE
  8
0
 10
37.8141
 20
-44.2746
 11
38.0809
 21
-44.1112
  0
LINE
  8
0
 10
38.0809
 20
-44.1112
 11
38.3851
 21
-44.0381
  0
LINE
  8
0
 10
38.3851
 20
-44.0381
 11
38.697
 21
-44.0627
  0
LINE
  8
0
 10
38.697
 20
-44.0627
 11
38.9861
 21
-44.1824
  0
LINE
  8
0
 10
38.9861
 20
-44.1824
 11
39.2167
 21
-44.3794
  0
LINE
  8
0
 10
39.2167
 20
-44.3794
 11
40.5423
 21
-43.1732
  0
LINE
  8
0
 10
40.5423
 20
-43.1732
 11
41.162
 21
-42.5727
  0
LINE
  8
0
 10
41.162
 20
-42.5727
 11
40.9874
 21
-42.3324
  0
LINE
  8
0
 10
40.9874
 20
-42.3324
 11
40.8907
 21
-42.0348
  0
LINE
  8
0
 10
40.8907
 20
-42.0348
 11
40.8907
 21
-41.722
  0
LINE
  8
0
 10
40.8907
 20
-41.722
 11
40.9874
 21
-41.4244
  0
LINE
  8
0
 10
40.9874
 20
-41.4244
 11
41.1713
 21
-41.1713
  0
LINE
  8
0
 10
41.1713
 20
-41.1713
 11
41.4244
 21
-40.9874
  0
LINE
  8
0
 10
41.4244
 20
-40.9874
 11
41.722
 21
-40.8907
  0
LINE
  8
0
 10
41.722
 20
-40.8907
 11
42.0348
 21
-40.8907
  0
LINE
  8
0
 10
42.0348
 20
-40.8907
 11
42.3324
 21
-40.9874
  0
LINE
  8
0
 10
42.3324
 20
-40.9874
 11
42.5727
 21
-41.162
  0
LINE
  8
0
 10
42.5727
 20
-41.162
 11
43.1732
 21
-40.5423
  0
LINE
  8
0
 10
43.1732
 20
-40.5423
 11
44.3794
 21
-39.2167
  0
LINE
  8
0
 10
44.3794
 20
-39.2167
 11
44.1824
 21
-38.9861
  0
LINE
  8
0
 10
44.1824
 20
-38.9861
 11
44.0627
 21
-38.697
  0
LINE
  8
0
 10
44.0627
 20
-38.697
 11
44.0381
 21
-38.3851
  0
LINE
  8
0
 10
44.0381
 20
-38.3851
 11
44.1112
 21
-38.0809
  0
LINE
  8
0
 10
44.1112
 20
-38.0809
 11
44.2746
 21
-37.8141
  0
LINE
  8
0
 10
44.2746
 20
-37.8141
 11
44.5125
 21
-37.6109
  0
LINE
  8
0
 10
44.5125
 20
-37.6109
 11
44.8016
 21
-37.4912
  0
LINE
  8
0
 10
44.8016
 20
-37.4912
 11
45.1135
 21
-37.4666
  0
LINE
  8
0
 10
45.1135
 20
-37.4666
 11
45.4177
 21
-37.5397
  0
LINE
  8
0
 10
45.4177
 20
-37.5397
 11
45.6763
 21
-37.6982
  0
LINE
  8
0
 10
45.6763
 20
-37.6982
 11
46.7969
 21
-36.2994
  0
LINE
  8
0
 10
46.7969
 20
-36.2994
 11
47.315
 21
-35.6094
  0
LINE
  8
0
 10
47.315
 20
-35.6094
 11
47.105
 21
-35.3994
  0
LINE
  8
0
 10
47.105
 20
-35.3994
 11
46.963
 21
-35.1206
  0
LINE
  8
0
 10
46.963
 20
-35.1206
 11
46.914
 21
-34.8116
  0
LINE
  8
0
 10
46.914
 20
-34.8116
 11
46.963
 21
-34.5026
  0
LINE
  8
0
 10
46.963
 20
-34.5026
 11
47.105
 21
-34.2238
  0
LINE
  8
0
 10
47.105
 20
-34.2238
 11
47.3262
 21
-34.0026
  0
LINE
  8
0
 10
47.3262
 20
-34.0026
 11
47.605
 21
-33.8605
  0
LINE
  8
0
 10
47.605
 20
-33.8605
 11
47.914
 21
-33.8116
  0
LINE
  8
0
 10
47.914
 20
-33.8116
 11
48.223
 21
-33.8605
  0
LINE
  8
0
 10
48.223
 20
-33.8605
 11
48.4877
 21
-33.9954
  0
LINE
  8
0
 10
48.4877
 20
-33.9954
 11
48.9838
 21
-33.2894
  0
LINE
  8
0
 10
48.9838
 20
-33.2894
 11
49.9678
 21
-31.7914
  0
LINE
  8
0
 10
49.9678
 20
-31.7914
 11
49.7372
 21
-31.5944
  0
LINE
  8
0
 10
49.7372
 20
-31.5944
 11
49.5737
 21
-31.3277
  0
LINE
  8
0
 10
49.5737
 20
-31.3277
 11
49.5007
 21
-31.0234
  0
LINE
  8
0
 10
49.5007
 20
-31.0234
 11
49.5252
 21
-30.7115
  0
LINE
  8
0
 10
49.5252
 20
-30.7115
 11
49.645
 21
-30.4225
  0
LINE
  8
0
 10
49.645
 20
-30.4225
 11
49.8482
 21
-30.1846
  0
LINE
  8
0
 10
49.8482
 20
-30.1846
 11
50.1149
 21
-30.0211
  0
LINE
  8
0
 10
50.1149
 20
-30.0211
 11
50.4191
 21
-29.9481
  0
LINE
  8
0
 10
50.4191
 20
-29.9481
 11
50.731
 21
-29.9726
  0
LINE
  8
0
 10
50.731
 20
-29.9726
 11
51.0113
 21
-30.0887
  0
LINE
  8
0
 10
51.0113
 20
-30.0887
 11
51.8993
 21
-28.5319
  0
LINE
  8
0
 10
51.8993
 20
-28.5319
 11
52.303
 21
-27.7693
  0
LINE
  8
0
 10
52.303
 20
-27.7693
 11
52.0627
 21
-27.5947
  0
LINE
  8
0
 10
52.0627
 20
-27.5947
 11
51.8788
 21
-27.3416
  0
LINE
  8
0
 10
51.8788
 20
-27.3416
 11
51.7822
 21
-27.044
  0
LINE
  8
0
 10
51.7822
 20
-27.044
 11
51.7822
 21
-26.7311
  0
LINE
  8
0
 10
51.7822
 20
-26.7311
 11
51.8788
 21
-26.4336
  0
LINE
  8
0
 10
51.8788
 20
-26.4336
 11
52.0627
 21
-26.1805
  0
LINE
  8
0
 10
52.0627
 20
-26.1805
 11
52.3159
 21
-25.9966
  0
LINE
  8
0
 10
52.3159
 20
-25.9966
 11
52.6134
 21
-25.8999
  0
LINE
  8
0
 10
52.6134
 20
-25.8999
 11
52.9263
 21
-25.8999
  0
LINE
  8
0
 10
52.9263
 20
-25.8999
 11
53.2088
 21
-25.9917
  0
LINE
  8
0
 10
53.2088
 20
-25.9917
 11
53.5884
 21
-25.2168
  0
LINE
  8
0
 10
53.5884
 20
-25.2168
 11
54.3259
 21
-23.5833
  0
LINE
  8
0
 10
54.3259
 20
-23.5833
 11
54.0673
 21
-23.4248
  0
LINE
  8
0
 10
54.0673
 20
-23.4248
 11
53.8641
 21
-23.1869
  0
LINE
  8
0
 10
53.8641
 20
-23.1869
 11
53.7444
 21
-22.8979
  0
LINE
  8
0
 10
53.7444
 20
-22.8979
 11
53.7198
 21
-22.586
  0
LINE
  8
0
 10
53.7198
 20
-22.586
 11
53.7929
 21
-22.2817
  0
LINE
  8
0
 10
53.7929
 20
-22.2817
 11
53.9563
 21
-22.015
  0
LINE
  8
0
 10
53.9563
 20
-22.015
 11
54.1943
 21
-21.8118
  0
LINE
  8
0
 10
54.1943
 20
-21.8118
 11
54.4833
 21
-21.692
  0
LINE
  8
0
 10
54.4833
 20
-21.692
 11
54.7952
 21
-21.6675
  0
LINE
  8
0
 10
54.7952
 20
-21.6675
 11
55.0901
 21
-21.7383
  0
LINE
  8
0
 10
55.0901
 20
-21.7383
 11
55.7237
 21
-20.0618
  0
LINE
  8
0
 10
55.7237
 20
-20.0618
 11
56.0032
 21
-19.2454
  0
LINE
  8
0
 10
56.0032
 20
-19.2454
 11
55.7385
 21
-19.1105
  0
LINE
  8
0
 10
55.7385
 20
-19.1105
 11
55.5173
 21
-18.8893
  0
LINE
  8
0
 10
55.5173
 20
-18.8893
 11
55.3753
 21
-18.6105
  0
LINE
  8
0
 10
55.3753
 20
-18.6105
 11
55.3263
 21
-18.3015
  0
LINE
  8
0
 10
55.3263
 20
-18.3015
 11
55.3753
 21
-17.9925
  0
LINE
  8
0
 10
55.3753
 20
-17.9925
 11
55.5173
 21
-17.7137
  0
LINE
  8
0
 10
55.5173
 20
-17.7137
 11
55.7385
 21
-17.4925
  0
LINE
  8
0
 10
55.7385
 20
-17.4925
 11
56.0173
 21
-17.3505
  0
LINE
  8
0
 10
56.0173
 20
-17.3505
 11
56.3263
 21
-17.3015
  0
LINE
  8
0
 10
56.3263
 20
-17.3015
 11
56.6197
 21
-17.348
  0
LINE
  8
0
 10
56.6197
 20
-17.348
 11
56.8734
 21
-16.5232
  0
LINE
  8
0
 10
56.8734
 20
-16.5232
 11
57.3463
 21
-14.7945
  0
LINE
  8
0
 10
57.3463
 20
-14.7945
 11
57.0661
 21
-14.6784
  0
LINE
  8
0
 10
57.0661
 20
-14.6784
 11
56.8282
 21
-14.4752
  0
LINE
  8
0
 10
56.8282
 20
-14.4752
 11
56.6647
 21
-14.2085
  0
LINE
  8
0
 10
56.6647
 20
-14.2085
 11
56.5917
 21
-13.9043
  0
LINE
  8
0
 10
56.5917
 20
-13.9043
 11
56.6162
 21
-13.5923
  0
LINE
  8
0
 10
56.6162
 20
-13.5923
 11
56.736
 21
-13.3033
  0
LINE
  8
0
 10
56.736
 20
-13.3033
 11
56.9391
 21
-13.0654
  0
LINE
  8
0
 10
56.9391
 20
-13.0654
 11
57.2059
 21
-12.9019
  0
LINE
  8
0
 10
57.2059
 20
-12.9019
 11
57.5101
 21
-12.8289
  0
LINE
  8
0
 10
57.5101
 20
-12.8289
 11
57.8125
 21
-12.8527
  0
LINE
  8
0
 10
57.8125
 20
-12.8527
 11
58.1759
 21
-11.0977
  0
LINE
  8
0
 10
58.1759
 20
-11.0977
 11
58.3243
 21
-10.2476
  0
LINE
  8
0
 10
58.3243
 20
-10.2476
 11
58.0418
 21
-10.1558
  0
LINE
  8
0
 10
58.0418
 20
-10.1558
 11
57.7887
 21
-9.97192
  0
LINE
  8
0
 10
57.7887
 20
-9.97192
 11
57.6048
 21
-9.71881
  0
LINE
  8
0
 10
57.6048
 20
-9.71881
 11
57.5081
 21
-9.42126
  0
LINE
  8
0
 10
57.5081
 20
-9.42126
 11
57.5081
 21
-9.10838
  0
LINE
  8
0
 10
57.5081
 20
-9.10838
 11
57.6048
 21
-8.81084
  0
LINE
  8
0
 10
57.6048
 20
-8.81084
 11
57.7887
 21
-8.55772
  0
LINE
  8
0
 10
57.7887
 20
-8.55772
 11
58.0418
 21
-8.37381
  0
LINE
  8
0
 10
58.0418
 20
-8.37381
 11
58.3394
 21
-8.27713
  0
LINE
  8
0
 10
58.3394
 20
-8.27713
 11
58.6364
 21
-8.27713
  0
LINE
  8
0
 10
58.6364
 20
-8.27713
 11
58.758
 21
-7.42285
  0
LINE
  8
0
 10
58.758
 20
-7.42285
 11
58.9547
 21
-5.64142
  0
LINE
  8
0
 10
58.9547
 20
-5.64142
 11
58.6597
 21
-5.57062
  0
LINE
  8
0
 10
58.6597
 20
-5.57062
 11
58.393
 21
-5.40714
  0
LINE
  8
0
 10
58.393
 20
-5.40714
 11
58.1898
 21
-5.16924
  0
LINE
  8
0
 10
58.1898
 20
-5.16924
 11
58.0701
 21
-4.88017
  0
LINE
  8
0
 10
58.0701
 20
-4.88017
 11
58.0455
 21
-4.56827
  0
LINE
  8
0
 10
58.0455
 20
-4.56827
 11
58.1185
 21
-4.26405
  0
LINE
  8
0
 10
58.1185
 20
-4.26405
 11
58.282
 21
-3.99728
  0
LINE
  8
0
 10
58.282
 20
-3.99728
 11
58.5199
 21
-3.7941
  0
LINE
  8
0
 10
58.5199
 20
-3.7941
 11
58.809
 21
-3.67436
  0
LINE
  8
0
 10
58.809
 20
-3.67436
 11
59.1113
 21
-3.65056
  0
LINE
  8
0
 10
59.1113
 20
-3.65056
 11
59.1958
 21
-1.86029
  0
LINE
  8
0
 10
59.1958
 20
-1.86029
 11
59.2093
 21
-0.997513
  0
LINE
  8
0
 10
59.2093
 20
-0.997513
 11
58.916
 21
-0.95105
  0
LINE
  8
0
 10
58.916
 20
-0.95105
 11
58.6372
 21
-0.809006
  0
LINE
  8
0
 10
58.6372
 20
-0.809006
 11
58.416
 21
-0.587784
  0
LINE
  8
0
 10
58.416
 20
-0.587784
 11
58.2739
 21
-0.309006
  0
LINE
  8
0
 10
58.2739
 20
-0.309006
 11
58.225
 21
0
  0
LINE
  8
0
 10
58.225
 20
0
 11
58.2739
 21
0.309006
  0
LINE
  8
0
 10
58.2739
 20
0.309006
 11
58.416
 21
0.587784
  0
LINE
  8
0
 10
58.416
 20
0.587784
 11
58.6372
 21
0.809006
  0
LINE
  8
0
 10
58.6372
 20
0.809006
 11
58.916
 21
0.95105
  0
LINE
  8
0
 10
58.916
 20
0.95105
 11
59.2093
 21
0.997513
  0
LINE
  8
0
 10
59.2093
 20
0.997513
 11
59.1958
 21
1.86029
  0
LINE
  8
0
 10
59.1958
 20
1.86029
 11
59.1113
 21
3.65056
  0
LINE
  8
0
 10
59.1113
 20
3.65056
 11
58.809
 21
3.67436
  0
LINE
  8
0
 10
58.809
 20
3.67436
 11
58.5199
 21
3.7941
  0
LINE
  8
0
 10
58.5199
 20
3.7941
 11
58.282
 21
3.99728
  0
LINE
  8
0
 10
58.282
 20
3.99728
 11
58.1185
 21
4.26405
  0
LINE
  8
0
 10
58.1185
 20
4.26405
 11
58.0455
 21
4.56827
  0
LINE
  8
0
 10
58.0455
 20
4.56827
 11
58.0701
 21
4.88017
  0
LINE
  8
0
 10
58.0701
 20
4.88017
 11
58.1898
 21
5.16924
  0
LINE
  8
0
 10
58.1898
 20
5.16924
 11
58.393
 21
5.40714
  0
LINE
  8
0
 10
58.393
 20
5.40714
 11
58.6597
 21
5.57062
  0
LINE
  8
0
 10
58.6597
 20
5.57062
 11
58.9547
 21
5.64142
  0
LINE
  8
0
 10
58.9547
 20
5.64142
 11
58.758
 21
7.42285
  0
LINE
  8
0
 10
58.758
 20
7.42285
 11
58.6364
 21
8.27713
  0
LINE
  8
0
 10
58.6364
 20
8.27713
 11
58.3394
 21
8.27713
  0
LINE
  8
0
 10
58.3394
 20
8.27713
 11
58.0418
 21
8.37381
  0
LINE
  8
0
 10
58.0418
 20
8.37381
 11
57.7887
 21
8.55772
  0
LINE
  8
0
 10
57.7887
 20
8.55772
 11
57.6048
 21
8.81084
  0
LINE
  8
0
 10
57.6048
 20
8.81084
 11
57.5081
 21
9.10838
  0
LINE
  8
0
 10
57.5081
 20
9.10838
 11
57.5081
 21
9.42126
  0
LINE
  8
0
 10
57.5081
 20
9.42126
 11
57.6048
 21
9.71881
  0
LINE
  8
0
 10
57.6048
 20
9.71881
 11
57.7887
 21
9.97192
  0
LINE
  8
0
 10
57.7887
 20
9.97192
 11
58.0418
 21
10.1558
  0
LINE
  8
0
 10
58.0418
 20
10.1558
 11
58.3243
 21
10.2476
  0
LINE
  8
0
 10
58.3243
 20
10.2476
 11
58.1759
 21
11.0977
  0
LINE
  8
0
 10
58.1759
 20
11.0977
 11
57.8125
 21
12.8527
  0
LINE
  8
0
 10
57.8125
 20
12.8527
 11
57.5101
 21
12.8289
  0
LINE
  8
0
 10
57.5101
 20
12.8289
 11
57.2059
 21
12.9019
  0
LINE
  8
0
 10
57.2059
 20
12.9019
 11
56.9391
 21
13.0654
  0
LINE
  8
0
 10
56.9391
 20
13.0654
 11
56.736
 21
13.3033
  0
LINE
  8
0
 10
56.736
 20
13.3033
 11
56.6162
 21
13.5923
  0
LINE
  8
0
 10
56.6162
 20
13.5923
 11
56.5917
 21
13.9043
  0
LINE
  8
0
 10
56.5917
 20
13.9043
 11
56.6647
 21
14.2085
  0
LINE
  8
0
 10
56.6647
 20
14.2085
 11
56.8282
 21
14.4752
  0
LINE
  8
0
 10
56.8282
 20
14.4752
 11
57.0661
 21
14.6784
  0
LINE
  8
0
 10
57.0661
 20
14.6784
 11
57.3463
 21
14.7945
  0
LINE
  8
0
 10
57.3463
 20
14.7945
 11
56.8734
 21
16.5232
  0
LINE
  8
0
 10
56.8734
 20
16.5232
 11
56.6197
 21
17.348
  0
LINE
  8
0
 10
56.6197
 20
17.348
 11
56.3263
 21
17.3015
  0
LINE
  8
0
 10
56.3263
 20
17.3015
 11
56.0173
 21
17.3505
  0
LINE
  8
0
 10
56.0173
 20
17.3505
 11
55.7385
 21
17.4925
  0
LINE
  8
0
 10
55.7385
 20
17.4925
 11
55.5173
 21
17.7137
  0
LINE
  8
0
 10
55.5173
 20
17.7137
 11
55.3753
 21
17.9925
  0
LINE
  8
0
 10
55.3753
 20
17.9925
 11
55.3263
 21
18.3015
  0
LINE
  8
0
 10
55.3263
 20
18.3015
 11
55.3753
 21
18.6105
  0
LINE
  8
0
 10
55.3753
 20
18.6105
 11
55.5173
 21
18.8893
  0
LINE
  8
0
 10
55.5173
 20
18.8893
 11
55.7385
 21
19.1105
  0
LINE
  8
0
 10
55.7385
 20
19.1105
 11
56.0032
 21
19.2454
  0
LINE
  8
0
 10
56.0032
 20
19.2454
 11
55.7237
 21
20.0618
  0
LINE
  8
0
 10
55.7237
 20
20.0618
 11
55.0901
 21
21.7383
  0
LINE
  8
0
 10
55.0901
 20
21.7383
 11
54.7952
 21
21.6675
  0
LINE
  8
0
 10
54.7952
 20
21.6675
 11
54.4833
 21
21.692
  0
LINE
  8
0
 10
54.4833
 20
21.692
 11
54.1943
 21
21.8118
  0
LINE
  8
0
 10
54.1943
 20
21.8118
 11
53.9563
 21
22.015
  0
LINE
  8
0
 10
53.9563
 20
22.015
 11
53.7929
 21
22.2817
  0
LINE
  8
0
 10
53.7929
 20
22.2817
 11
53.7198
 21
22.586
  0
LINE
  8
0
 10
53.7198
 20
22.586
 11
53.7444
 21
22.8979
  0
LINE
  8
0
 10
53.7444
 20
22.8979
 11
53.8641
 21
23.1869
  0
LINE
  8
0
 10
53.8641
 20
23.1869
 11
54.0673
 21
23.4248
  0
LINE
  8
0
 10
54.0673
 20
23.4248
 11
54.3259
 21
23.5833
  0
LINE
  8
0
 10
54.3259
 20
23.5833
 11
53.5884
 21
25.2168
  0
LINE
  8
0
 10
53.5884
 20
25.2168
 11
53.2088
 21
25.9917
  0
LINE
  8
0
 10
53.2088
 20
25.9917
 11
52.9263
 21
25.8999
  0
LINE
  8
0
 10
52.9263
 20
25.8999
 11
52.6134
 21
25.8999
  0
LINE
  8
0
 10
52.6134
 20
25.8999
 11
52.3159
 21
25.9966
  0
LINE
  8
0
 10
52.3159
 20
25.9966
 11
52.0627
 21
26.1805
  0
LINE
  8
0
 10
52.0627
 20
26.1805
 11
51.8788
 21
26.4336
  0
LINE
  8
0
 10
51.8788
 20
26.4336
 11
51.7822
 21
26.7311
  0
LINE
  8
0
 10
51.7822
 20
26.7311
 11
51.7822
 21
27.044
  0
LINE
  8
0
 10
51.7822
 20
27.044
 11
51.8788
 21
27.3416
  0
LINE
  8
0
 10
51.8788
 20
27.3416
 11
52.0627
 21
27.5947
  0
LINE
  8
0
 10
52.0627
 20
27.5947
 11
52.303
 21
27.7693
  0
LINE
  8
0
 10
52.303
 20
27.7693
 11
51.8993
 21
28.5319
  0
LINE
  8
0
 10
51.8993
 20
28.5319
 11
51.0113
 21
30.0887
  0
LINE
  8
0
 10
51.0113
 20
30.0887
 11
50.731
 21
29.9726
  0
LINE
  8
0
 10
50.731
 20
29.9726
 11
50.4191
 21
29.9481
  0
LINE
  8
0
 10
50.4191
 20
29.9481
 11
50.1149
 21
30.0211
  0
LINE
  8
0
 10
50.1149
 20
30.0211
 11
49.8482
 21
30.1846
  0
LINE
  8
0
 10
49.8482
 20
30.1846
 11
49.645
 21
30.4225
  0
LINE
  8
0
 10
49.645
 20
30.4225
 11
49.5252
 21
30.7115
  0
LINE
  8
0
 10
49.5252
 20
30.7115
 11
49.5007
 21
31.0234
  0
LINE
  8
0
 10
49.5007
 20
31.0234
 11
49.5737
 21
31.3277
  0
LINE
  8
0
 10
49.5737
 20
31.3277
 11
49.7372
 21
31.5944
  0
LINE
  8
0
 10
49.7372
 20
31.5944
 11
49.9678
 21
31.7914
  0
LINE
  8
0
 10
49.9678
 20
31.7914
 11
48.9838
 21
33.2894
  0
LINE
  8
0
 10
48.9838
 20
33.2894
 11
48.4877
 21
33.9954
  0
LINE
  8
0
 10
48.4877
 20
33.9954
 11
48.223
 21
33.8605
  0
LINE
  8
0
 10
48.223
 20
33.8605
 11
47.914
 21
33.8116
  0
LINE
  8
0
 10
47.914
 20
33.8116
 11
47.605
 21
33.8605
  0
LINE
  8
0
 10
47.605
 20
33.8605
 11
47.3262
 21
34.0026
  0
LINE
  8
0
 10
47.3262
 20
34.0026
 11
47.105
 21
34.2238
  0
LINE
  8
0
 10
47.105
 20
34.2238
 11
46.963
 21
34.5026
  0
LINE
  8
0
 10
46.963
 20
34.5026
 11
46.914
 21
34.8116
  0
LINE
  8
0
 10
46.914
 20
34.8116
 11
46.963
 21
35.1206
  0
LINE
  8
0
 10
46.963
 20
35.1206
 11
47.105
 21
35.3994
  0
LINE
  8
0
 10
47.105
 20
35.3994
 11
47.315
 21
35.6094
  0
LINE
  8
0
 10
47.315
 20
35.6094
 11
46.7969
 21
36.2994
  0
LINE
  8
0
 10
46.7969
 20
36.2994
 11
45.6763
 21
37.6982
  0
LINE
  8
0
 10
45.6763
 20
37.6982
 11
45.4177
 21
37.5397
  0
LINE
  8
0
 10
45.4177
 20
37.5397
 11
45.1135
 21
37.4666
  0
LINE
  8
0
 10
45.1135
 20
37.4666
 11
44.8016
 21
37.4912
  0
LINE
  8
0
 10
44.8016
 20
37.4912
 11
44.5125
 21
37.6109
  0
LINE
  8
0
 10
44.5125
 20
37.6109
 11
44.2746
 21
37.8141
  0
LINE
  8
0
 10
44.2746
 20
37.8141
 11
44.1112
 21
38.0809
  0
LINE
  8
0
 10
44.1112
 20
38.0809
 11
44.0381
 21
38.3851
  0
LINE
  8
0
 10
44.0381
 20
38.3851
 11
44.0627
 21
38.697
  0
LINE
  8
0
 10
44.0627
 20
38.697
 11
44.1824
 21
38.9861
  0
LINE
  8
0
 10
44.1824
 20
38.9861
 11
44.3794
 21
39.2167
  0
LINE
  8
0
 10
44.3794
 20
39.2167
 11
43.1732
 21
40.5423
  0
LINE
  8
0
 10
43.1732
 20
40.5423
 11
42.5727
 21
41.162
  0
LINE
  8
0
 10
42.5727
 20
41.162
 11
42.3324
 21
40.9874
  0
LINE
  8
0
 10
42.3324
 20
40.9874
 11
42.0348
 21
40.8907
  0
LINE
  8
0
 10
42.0348
 20
40.8907
 11
41.722
 21
40.8907
  0
LINE
  8
0
 10
41.722
 20
40.8907
 11
41.4244
 21
40.9874
  0
LINE
  8
0
 10
41.4244
 20
40.9874
 11
41.1713
 21
41.1713
  0
LINE
  8
0
 10
41.1713
 20
41.1713
 11
40.9874
 21
41.4244
  0
LINE
  8
0
 10
40.9874
 20
41.4244
 11
40.8907
 21
41.722
  0
LINE
  8
0
 10
40.8907
 20
41.722
 11
40.8907
 21
42.0348
  0
LINE
  8
0
 10
40.8907
 20
42.0348
 11
40.9874
 21
42.3324
  0
LINE
  8
0
 10
40.9874
 20
42.3324
 11
41.162
 21
42.5727
  0
LINE
  8
0
 10
41.162
 20
42.5727
 11
40.5423
 21
43.1732
  0
LINE
  8
0
 10
40.5423
 20
43.1732
 11
39.2167
 21
44.3794
  0
LINE
  8
0
 10
39.2167
 20
44.3794
 11
38.9861
 21
44.1824
  0
LINE
  8
0
 10
38.9861
 20
44.1824
 11
38.697
 21
44.0627
  0
LINE
  8
0
 10
38.697
 20
44.0627
 11
38.3851
 21
44.0381
  0
LINE
  8
0
 10
38.3851
 20
44.0381
 11
38.0809
 21
44.1112
  0
LINE
  8
0
 10
38.0809
 20
44.1112
 11
37.8141
 21
44.2746
  0
LINE
  8
0
 10
37.8141
 20
44.2746
 11
37.6109
 21
44.5125
  0
LINE
  8
0
 10
37.6109
 20
44.5125
 11
37.4912
 21
44.8016
  0
LINE
  8
0
 10
37.4912
 20
44.8016
 11
37.4666
 21
45.1135
  0
LINE
  8
0
 10
37.4666
 20
45.1135
 11
37.5397
 21
45.4177
  0
LINE
  8
0
 10
37.5397
 20
45.4177
 11
37.6982
 21
45.6763
  0
LINE
  8
0
 10
37.6982
 20
45.6763
 11
36.2994
 21
46.7969
  0
LINE
  8
0
 10
36.2994
 20
46.7969
 11
35.6094
 21
47.315
  0
LINE
  8
0
 10
35.6094
 20
47.315
 11
35.3994
 21
47.105
  0
LINE
  8
0
 10
35.3994
 20
47.105
 11
35.1206
 21
46.963
  0
LINE
  8
0
 10
35.1206
 20
46.963
 11
34.8116
 21
46.914
  0
LINE
  8
0
 10
34.8116
 20
46.914
 11
34.5026
 21
46.963
  0
LINE
  8
0
 10
34.5026
 20
46.963
 11
34.2238
 21
47.105
  0
LINE
  8
0
 10
34.2238
 20
47.105
 11
34.0026
 21
47.3262
  0
LINE
  8
0
 10
34.0026
 20
47.3262
 11
33.8605
 21
47.605
  0
LINE
  8
0
 10
33.8605
 20
47.605
 11
33.8116
 21
47.914
  0
LINE
  8
0
 10
33.8116
 20
47.914
 11
33.8605
 21
48.223
  0
LINE
  8
0
 10
33.8605
 20
48.223
 11
33.9954
 21
48.4877
  0
LINE
  8
0
 10
33.9954
 20
48.4877
 11
33.2894
 21
48.9838
  0
LINE
  8
0
 10
33.2894
 20
48.9838
 11
31.7914
 21
49.9678
  0
LINE
  8
0
 10
31.7914
 20
49.9678
 11
31.5944
 21
49.7372
  0
LINE
  8
0
 10
31.5944
 20
49.7372
 11
31.3277
 21
49.5737
  0
LINE
  8
0
 10
31.3277
 20
49.5737
 11
31.0234
 21
49.5007
  0
LINE
  8
0
 10
31.0234
 20
49.5007
 11
30.7115
 21
49.5252
  0
LINE
  8
0
 10
30.7115
 20
49.5252
 11
30.4225
 21
49.645
  0
LINE
  8
0
 10
30.4225
 20
49.645
 11
30.1846
 21
49.8482
  0
LINE
  8
0
 10
30.1846
 20
49.8482
 11
30.0211
 21
50.1149
  0
LINE
  8
0
 10
30.0211
 20
50.1149
 11
29.9481
 21
50.4191
  0
LINE
  8
0
 10
29.9481
 20
50.4191
 11
29.9726
 21
50.731
  0
LINE
  8
0
 10
29.9726
 20
50.731
 11
30.0887
 21
51.0113
  0
LINE
  8
0
 10
30.0887
 20
51.0113
 11
28.5319
 21
51.8993
  0
LINE
  8
0
 10
28.5319
 20
51.8993
 11
27.7693
 21
52.303
  0
LINE
  8
0
 10
27.7693
 20
52.303
 11
27.5947
 21
52.0627
  0
LINE
  8
0
 10
27.5947
 20
52.0627
 11
27.3416
 21
51.8788
  0
LINE
  8
0
 10
27.3416
 20
51.8788
 11
27.044
 21
51.7822
  0
LINE
  8
0
 10
27.044
 20
51.7822
 11
26.7311
 21
51.7822
  0
LINE
  8
0
 10
26.7311
 20
51.7822
 11
26.4336
 21
51.8788
  0
LINE
  8
0
 10
26.4336
 20
51.8788
 11
26.1805
 21
52.0627
  0
LINE
  8
0
 10
26.1805
 20
52.0627
 11
25.9966
 21
52.3159
  0
LINE
  8
0
 10
25.9966
 20
52.3159
 11
25.8999
 21
52.6134
  0
LINE
  8
0
 10
25.8999
 20
52.6134
 11
25.8999
 21
52.9263
  0
LINE
  8
0
 10
25.8999
 20
52.9263
 11
25.9917
 21
53.2088
  0
LINE
  8
0
 10
25.9917
 20
53.2088
 11
25.2168
 21
53.5884
  0
LINE
  8
0
 10
25.2168
 20
53.5884
 11
23.5833
 21
54.3259
  0
LINE
  8
0
 10
23.5833
 20
54.3259
 11
23.4248
 21
54.0673
  0
LINE
  8
0
 10
23.4248
 20
54.0673
 11
23.1869
 21
53.8641
  0
LINE
  8
0
 10
23.1869
 20
53.8641
 11
22.8979
 21
53.7444
  0
LINE
  8
0
 10
22.8979
 20
53.7444
 11
22.586
 21
53.7198
  0
LINE
  8
0
 10
22.586
 20
53.7198
 11
22.2817
 21
53.7929
  0
LINE
  8
0
 10
22.2817
 20
53.7929
 11
22.015
 21
53.9563
  0
LINE
  8
0
 10
22.015
 20
53.9563
 11
21.8118
 21
54.1943
  0
LINE
  8
0
 10
21.8118
 20
54.1943
 11
21.692
 21
54.4833
  0
LINE
  8
0
 10
21.692
 20
54.4833
 11
21.6675
 21
54.7952
  0
LINE
  8
0
 10
21.6675
 20
54.7952
 11
21.7383
 21
55.0901
  0
LINE
  8
0
 10
21.7383
 20
55.0901
 11
20.0618
 21
55.7237
  0
LINE
  8
0
 10
20.0618
 20
55.7237
 11
19.2454
 21
56.0032
  0
LINE
  8
0
 10
19.2454
 20
56.0032
 11
19.1105
 21
55.7385
  0
LINE
  8
0
 10
19.1105
 20
55.7385
 11
18.8893
 21
55.5173
  0
LINE
  8
0
 10
18.8893
 20
55.5173
 11
18.6105
 21
55.3753
  0
LINE
  8
0
 10
18.6105
 20
55.3753
 11
18.3015
 21
55.3263
  0
LINE
  8
0
 10
18.3015
 20
55.3263
 11
17.9925
 21
55.3753
  0
LINE
  8
0
 10
17.9925
 20
55.3753
 11
17.7137
 21
55.5173
  0
LINE
  8
0
 10
17.7137
 20
55.5173
 11
17.4925
 21
55.7385
  0
LINE
  8
0
 10
17.4925
 20
55.7385
 11
17.3505
 21
56.0173
  0
LINE
  8
0
 10
17.3505
 20
56.0173
 11
17.3015
 21
56.3263
  0
LINE
  8
0
 10
17.3015
 20
56.3263
 11
17.348
 21
56.6197
  0
LINE
  8
0
 10
17.348
 20
56.6197
 11
16.5232
 21
56.8734
  0
LINE
  8
0
 10
16.5232
 20
56.8734
 11
14.7945
 21
57.3463
  0
LINE
  8
0
 10
14.7945
 20
57.3463
 11
14.6784
 21
57.0661
  0
LINE
  8
0
 10
14.6784
 20
57.0661
 11
14.4752
 21
56.8282
  0
LINE
  8
0
 10
14.4752
 20
56.8282
 11
14.2085
 21
56.6647
  0
LINE
  8
0
 10
14.2085
 20
56.6647
 11
13.9043
 21
56.5917
  0
LINE
  8
0
 10
13.9043
 20
56.5917
 11
13.5923
 21
56.6162
  0
LINE
  8
0
 10
13.5923
 20
56.6162
 11
13.3033
 21
56.736
  0
LINE
  8
0
 10
13.3033
 20
56.736
 11
13.0654
 21
56.9391
  0
LINE
  8
0
 10
13.0654
 20
56.9391
 11
12.9019
 21
57.2059
  0
LINE
  8
0
 10
12.9019
 20
57.2059
 11
12.8289
 21
57.5101
  0
LINE
  8
0
 10
12.8289
 20
57.5101
 11
12.8527
 21
57.8125
  0
LINE
  8
0
 10
12.8527
 20
57.8125
 11
11.0977
 21
58.1759
  0
LINE
  8
0
 10
11.0977
 20
58.1759
 11
10.2476
 21
58.3243
  0
LINE
  8
0
 10
10.2476
 20
58.3243
 11
10.1558
 21
58.0418
  0
LINE
  8
0
 10
10.1558
 20
58.0418
 11
9.97192
 21
57.7887
  0
LINE
  8
0
 10
9.97192
 20
57.7887
 11
9.71881
 21
57.6048
  0
LINE
  8
0
 10
9.71881
 20
57.6048
 11
9.42126
 21
57.5081
  0
LINE
  8
0
 10
9.42126
 20
57.5081
 11
9.10838
 21
57.5081
  0
LINE
  8
0
 10
9.10838
 20
57.5081
 11
8.81084
 21
57.6048
  0
LINE
  8
0
 10
8.81084
 20
57.6048
 11
8.55772
 21
57.7887
  0
LINE
  8
0
 10
8.55772
 20
57.7887
 11
8.37381
 21
58.0418
  0
LINE
  8
0
 10
8.37381
 20
58.0418
 11
8.27713
 21
58.3394
  0
LINE
  8
0
 10
8.27713
 20
58.3394
 11
8.27713
 21
58.6364
  0
LINE
  8
0
 10
8.27713
 20
58.6364
 11
7.42285
 21
58.758
  0
LINE
  8
0
 10
7.42285
 20
58.758
 11
5.64142
 21
58.9547
  0
LINE
  8
0
 10
5.64142
 20
58.9547
 11
5.57062
 21
58.6597
  0
LINE
  8
0
 10
5.57062
 20
58.6597
 11
5.40714
 21
58.393
  0
LINE
  8
0
 10
5.40714
 20
58.393
 11
5.16924
 21
58.1898
  0
LINE
  8
0
 10
5.16924
 20
58.1898
 11
4.88017
 21
58.0701
  0
LINE
  8
0
 10
4.88017
 20
58.0701
 11
4.56827
 21
58.0455
  0
LINE
  8
0
 10
4.56827
 20
58.0455
 11
4.26405
 21
58.1185
  0
LINE
  8
0
 10
4.26405
 20
58.1185
 11
3.99728
 21
58.282
  0
LINE
  8
0
 10
3.99728
 20
58.282
 11
3.7941
 21
58.5199
  0
LINE
  8
0
 10
3.7941
 20
58.5199
 11
3.67436
 21
58.809
  0
LINE
  8
0
 10
3.67436
 20
58.809
 11
3.65056
 21
59.1113
  0
LINE
  8
0
 10
3.65056
 20
59.1113
 11
1.86029
 21
59.1958
  0
LINE
  8
0
 10
1.86029
 20
59.1958
 11
0.997513
 21
59.2093
  0
LINE
  8
0
 10
0.997513
 20
59.2093
 11
0.95105
 21
58.916
  0
LINE
  8
0
 10
0.95105
 20
58.916
 11
0.809006
 21
58.6372
  0
LINE
  8
0
 10
0.809006
 20
58.6372
 11
0.587784
 21
58.416
  0
LINE
  8
0
 10
0.587784
 20
58.416
 11
0.309006
 21
58.2739
  0
LINE
  8
0
 10
0.309006
 20
58.2739
 11
0
 21
58.225
  0
LINE
  8
0
 10
0
 20
58.225
 11
-0.309006
 21
58.2739
  0
LINE
  8
0
 10
-0.309006
 20
58.2739
 11
-0.587784
 21
58.416
  0
LINE
  8
0
 10
-0.587784
 20
58.416
 11
-0.809006
 21
58.6372
  0
LINE
  8
0
 10
-0.809006
 20
58.6372
 11
-0.95105
 21
58.916
  0
LINE
  8
0
 10
-0.95105
 20
58.916
 11
-0.997498
 21
59.2093
  0
LINE
  8
0
 10
-0.997498
 20
59.2093
 11
-1.86029
 21
59.1958
  0
LINE
  8
0
 10
-1.86029
 20
59.1958
 11
-3.65056
 21
59.1113
  0
LINE
  8
0
 10
-3.65056
 20
59.1113
 11
-3.67436
 21
58.809
  0
LINE
  8
0
 10
-3.67436
 20
58.809
 11
-3.7941
 21
58.5199
  0
LINE
  8
0
 10
-3.7941
 20
58.5199
 11
-3.99728
 21
58.282
  0
LINE
  8
0
 10
-3.99728
 20
58.282
 11
-4.26405
 21
58.1185
  0
LINE
  8
0
 10
-4.26405
 20
58.1185
 11
-4.56827
 21
58.0455
  0
LINE
  8
0
 10
-4.56827
 20
58.0455
 11
-4.88017
 21
58.0701
  0
LINE
  8
0
 10
-4.88017
 20
58.0701
 11
-5.16924
 21
58.1898
  0
LINE
  8
0
 10
-5.16924
 20
58.1898
 11
-5.40714
 21
58.393
  0
LINE
  8
0
 10
-5.40714
 20
58.393
 11
-5.57062
 21
58.6597
  0
LINE
  8
0
 10
-5.57062
 20
58.6597
 11
-5.64142
 21
58.9547
  0
LINE
  8
0
 10
-5.64142
 20
58.9547
 11
-7.42285
 21
58.758
  0
LINE
  8
0
 10
-7.42285
 20
58.758
 11
-8.27713
 21
58.6364
  0
LINE
  8
0
 10
-8.27713
 20
58.6364
 11
-8.27713
 21
58.3394
  0
LINE
  8
0
 10
-8.27713
 20
58.3394
 11
-8.37381
 21
58.0418
  0
LINE
  8
0
 10
-8.37381
 20
58.0418
 11
-8.55772
 21
57.7887
  0
LINE
  8
0
 10
-8.55772
 20
57.7887
 11
-8.81084
 21
57.6048
  0
LINE
  8
0
 10
-8.81084
 20
57.6048
 11
-9.10838
 21
57.5081
  0
LINE
  8
0
 10
-9.10838
 20
57.5081
 11
-9.42126
 21
57.5081
  0
LINE
  8
0
 10
-9.42126
 20
57.5081
 11
-9.71881
 21
57.6048
  0
LINE
  8
0
 10
-9.71881
 20
57.6048
 11
-9.97192
 21
57.7887
  0
LINE
  8
0
 10
-9.97192
 20
57.7887
 11
-10.1558
 21
58.0418
  0
LINE
  8
0
 10
-10.1558
 20
58.0418
 11
-10.2476
 21
58.3243
  0
LINE
  8
0
 10
-10.2476
 20
58.3243
 11
-11.0977
 21
58.1759
  0
LINE
  8
0
 10
-11.0977
 20
58.1759
 11
-12.8527
 21
57.8125
  0
LINE
  8
0
 10
-12.8527
 20
57.8125
 11
-12.8289
 21
57.5101
  0
LINE
  8
0
 10
-12.8289
 20
57.5101
 11
-12.9019
 21
57.2059
  0
LINE
  8
0
 10
-12.9019
 20
57.2059
 11
-13.0654
 21
56.9391
  0
LINE
  8
0
 10
-13.0654
 20
56.9391
 11
-13.3033
 21
56.736
  0
LINE
  8
0
 10
-13.3033
 20
56.736
 11
-13.5923
 21
56.6162
  0
LINE
  8
0
 10
-13.5923
 20
56.6162
 11
-13.9043
 21
56.5917
  0
LINE
  8
0
 10
-13.9043
 20
56.5917
 11
-14.2085
 21
56.6647
  0
LINE
  8
0
 10
-14.2085
 20
56.6647
 11
-14.4752
 21
56.8282
  0
LINE
  8
0
 10
-14.4752
 20
56.8282
 11
-14.6784
 21
57.0661
  0
LINE
  8
0
 10
-14.6784
 20
57.0661
 11
-14.7945
 21
57.3463
  0
LINE
  8
0
 10
-14.7945
 20
57.3463
 11
-16.5232
 21
56.8734
  0
LINE
  8
0
 10
-16.5232
 20
56.8734
 11
-17.348
 21
56.6197
  0
LINE
  8
0
 10
-17.348
 20
56.6197
 11
-17.3015
 21
56.3263
  0
LINE
  8
0
 10
-17.3015
 20
56.3263
 11
-17.3505
 21
56.0173
  0
LINE
  8
0
 10
-17.3505
 20
56.0173
 11
-17.4925
 21
55.7385
  0
LINE
  8
0
 10
-17.4925
 20
55.7385
 11
-17.7137
 21
55.5173
  0
LINE
  8
0
 10
-17.7137
 20
55.5173
 11
-17.9925
 21
55.3753
  0
LINE
  8
0
 10
-17.9925
 20
55.3753
 11
-18.3015
 21
55.3263
  0
LINE
  8
0
 10
-18.3015
 20
55.3263
 11
-18.6105
 21
55.3753
  0
LINE
  8
0
 10
-18.6105
 20
55.3753
 11
-18.8893
 21
55.5173
  0
LINE
  8
0
 10
-18.8893
 20
55.5173
 11
-19.1105
 21
55.7385
  0
LINE
  8
0
 10
-19.1105
 20
55.7385
 11
-19.2454
 21
56.0032
  0
LINE
  8
0
 10
-19.2454
 20
56.0032
 11
-20.0618
 21
55.7237
  0
LINE
  8
0
 10
-20.0618
 20
55.7237
 11
-21.7383
 21
55.0901
  0
LINE
  8
0
 10
-21.7383
 20
55.0901
 11
-21.6675
 21
54.7952
  0
LINE
  8
0
 10
-21.6675
 20
54.7952
 11
-21.692
 21
54.4833
  0
LINE
  8
0
 10
-21.692
 20
54.4833
 11
-21.8118
 21
54.1943
  0
LINE
  8
0
 10
-21.8118
 20
54.1943
 11
-22.015
 21
53.9563
  0
LINE
  8
0
 10
-22.015
 20
53.9563
 11
-22.2817
 21
53.7929
  0
LINE
  8
0
 10
-22.2817
 20
53.7929
 11
-22.586
 21
53.7198
  0
LINE
  8
0
 10
-22.586
 20
53.7198
 11
-22.8979
 21
53.7444
  0
LINE
  8
0
 10
-22.8979
 20
53.7444
 11
-23.1869
 21
53.8641
  0
LINE
  8
0
 10
-23.1869
 20
53.8641
 11
-23.4248
 21
54.0673
  0
LINE
  8
0
 10
-23.4248
 20
54.0673
 11
-23.5833
 21
54.3259
  0
LINE
  8
0
 10
-23.5833
 20
54.3259
 11
-25.2168
 21
53.5884
  0
LINE
  8
0
 10
-25.2168
 20
53.5884
 11
-25.9917
 21
53.2088
  0
LINE
  8
0
 10
-25.9917
 20
53.2088
 11
-25.8999
 21
52.9263
  0
LINE
  8
0
 10
-25.8999
 20
52.9263
 11
-25.8999
 21
52.6134
  0
LINE
  8
0
 10
-25.8999
 20
52.6134
 11
-25.9966
 21
52.3159
  0
LINE
  8
0
 10
-25.9966
 20
52.3159
 11
-26.1805
 21
52.0627
  0
LINE
  8
0
 10
-26.1805
 20
52.0627
 11
-26.4336
 21
51.8788
  0
LINE
  8
0
 10
-26.4336
 20
51.8788
 11
-26.7311
 21
51.7822
  0
LINE
  8
0
 10
-26.7311
 20
51.7822
 11
-27.044
 21
51.7822
  0
LINE
  8
0
 10
-27.044
 20
51.7822
 11
-27.3416
 21
51.8788
  0
LINE
  8
0
 10
-27.3416
 20
51.8788
 11
-27.5947
 21
52.0627
  0
LINE
  8
0
 10
-27.5947
 20
52.0627
 11
-27.7693
 21
52.303
  0
LINE
  8
0
 10
-27.7693
 20
52.303
 11
-28.5319
 21
51.8993
  0
LINE
  8
0
 10
-28.5319
 20
51.8993
 11
-30.0887
 21
51.0113
  0
LINE
  8
0
 10
-30.0887
 20
51.0113
 11
-29.9726
 21
50.731
  0
LINE
  8
0
 10
-29.9726
 20
50.731
 11
-29.9481
 21
50.4191
  0
LINE
  8
0
 10
-29.9481
 20
50.4191
 11
-30.0211
 21
50.1149
  0
LINE
  8
0
 10
-30.0211
 20
50.1149
 11
-30.1846
 21
49.8482
  0
LINE
  8
0
 10
-30.1846
 20
49.8482
 11
-30.4225
 21
49.645
  0
LINE
  8
0
 10
-30.4225
 20
49.645
 11
-30.7115
 21
49.5252
  0
LINE
  8
0
 10
-30.7115
 20
49.5252
 11
-31.0234
 21
49.5007
  0
LINE
  8
0
 10
-31.0234
 20
49.5007
 11
-31.3277
 21
49.5737
  0
LINE
  8
0
 10
-31.3277
 20
49.5737
 11
-31.5944
 21
49.7372
  0
LINE
  8
0
 10
-31.5944
 20
49.7372
 11
-31.7914
 21
49.9678
  0
LINE
  8
0
 10
-31.7914
 20
49.9678
 11
-33.2894
 21
48.9838
  0
LINE
  8
0
 10
-33.2894
 20
48.9838
 11
-33.9954
 21
48.4877
  0
LINE
  8
0
 10
-33.9954
 20
48.4877
 11
-33.8605
 21
48.223
  0
LINE
  8
0
 10
-33.8605
 20
48.223
 11
-33.8116
 21
47.914
  0
LINE
  8
0
 10
-33.8116
 20
47.914
 11
-33.8605
 21
47.605
  0
LINE
  8
0
 10
-33.8605
 20
47.605
 11
-34.0026
 21
47.3262
  0
LINE
  8
0
 10
-34.0026
 20
47.3262
 11
-34.2238
 21
47.105
  0
LINE
  8
0
 10
-34.2238
 20
47.105
 11
-34.5026
 21
46.963
  0
LINE
  8
0
 10
-34.5026
 20
46.963
 11
-34.8116
 21
46.914
  0
LINE
  8
0
 10
-34.8116
 20
46.914
 11
-35.1206
 21
46.963
  0
LINE
  8
0
 10
-35.1206
 20
46.963
 11
-35.3994
 21
47.105
  0
LINE
  8
0
 10
-35.3994
 20
47.105
 11
-35.6094
 21
47.315
  0
LINE
  8
0
 10
-35.6094
 20
47.315
 11
-36.2994
 21
46.7969
  0
LINE
  8
0
 10
-36.2994
 20
46.7969
 11
-37.6982
 21
45.6763
  0
LINE
  8
0
 10
-37.6982
 20
45.6763
 11
-37.5397
 21
45.4177
  0
LINE
  8
0
 10
-37.5397
 20
45.4177
 11
-37.4666
 21
45.1135
  0
LINE
  8
0
 10
-37.4666
 20
45.1135
 11
-37.4912
 21
44.8016
  0
LINE
  8
0
 10
-37.4912
 20
44.8016
 11
-37.6109
 21
44.5125
  0
LINE
  8
0
 10
-37.6109
 20
44.5125
 11
-37.8141
 21
44.2746
  0
LINE
  8
0
 10
-37.8141
 20
44.2746
 11
-38.0809
 21
44.1112
  0
LINE
  8
0
 10
-38.0809
 20
44.1112
 11
-38.3851
 21
44.0381
  0
LINE
  8
0
 10
-38.3851
 20
44.0381
 11
-38.697
 21
44.0627
  0
LINE
  8
0
 10
-38.697
 20
44.0627
 11
-38.9861
 21
44.1824
  0
LINE
  8
0
 10
-38.9861
 20
44.1824
 11
-39.2167
 21
44.3794
  0
LINE
  8
0
 10
-39.2167
 20
44.3794
 11
-40.5423
 21
43.1732
  0
LINE
  8
0
 10
-40.5423
 20
43.1732
 11
-41.162
 21
42.5727
  0
LINE
  8
0
 10
-41.162
 20
42.5727
 11
-40.9874
 21
42.3324
  0
LINE
  8
0
 10
-40.9874
 20
42.3324
 11
-40.8907
 21
42.0348
  0
LINE
  8
0
 10
-40.8907
 20
42.0348
 11
-40.8907
 21
41.722
  0
LINE
  8
0
 10
-40.8907
 20
41.722
 11
-40.9874
 21
41.4244
  0
LINE
  8
0
 10
-40.9874
 20
41.4244
 11
-41.1713
 21
41.1713
  0
LINE
  8
0
 10
-41.1713
 20
41.1713
 11
-41.4244
 21
40.9874
  0
LINE
  8
0
 10
-41.4244
 20
40.9874
 11
-41.722
 21
40.8907
  0
LINE
  8
0
 10
-41.722
 20
40.8907
 11
-42.0348
 21
40.8907
  0
LINE
  8
0
 10
-42.0348
 20
40.8907
 11
-42.3324
 21
40.9874
  0
LINE
  8
0
 10
-42.3324
 20
40.9874
 11
-42.5727
 21
41.162
  0
LINE
  8
0
 10
-42.5727
 20
41.162
 11
-43.1732
 21
40.5423
  0
LINE
  8
0
 10
-43.1732
 20
40.5423
 11
-44.3794
 21
39.2167
  0
LINE
  8
0
 10
-44.3794
 20
39.2167
 11
-44.1824
 21
38.9861
  0
LINE
  8
0
 10
-44.1824
 20
38.9861
 11
-44.0627
 21
38.697
  0
LINE
  8
0
 10
-44.0627
 20
38.697
 11
-44.0381
 21
38.3851
  0
LINE
  8
0
 10
-44.0381
 20
38.3851
 11
-44.1112
 21
38.0809
  0
LINE
  8
0
 10
-44.1112
 20
38.0809
 11
-44.2746
 21
37.8141
  0
LINE
  8
0
 10
-44.2746
 20
37.8141
 11
-44.5125
 21
37.6109
  0
LINE
  8
0
 10
-44.5125
 20
37.6109
 11
-44.8016
 21
37.4912
  0
LINE
  8
0
 10
-44.8016
 20
37.4912
 11
-45.1135
 21
37.4666
  0
LINE
  8
0
 10
-45.1135
 20
37.4666
 11
-45.4177
 21
37.5397
  0
LINE
  8
0
 10
-45.4177
 20
37.5397
 11
-45.6763
 21
37.6982
  0
LINE
  8
0
 10
-45.6763
 20
37.6982
 11
-46.7969
 21
36.2994
  0
LINE
  8
0
 10
-46.7969
 20
36.2994
 11
-47.315
 21
35.6094
  0
LINE
  8
0
 10
-47.315
 20
35.6094
 11
-47.105
 21
35.3994
  0
LINE
  8
0
 10
-47.105
 20
35.3994
 11
-46.963
 21
35.1206
  0
LINE
  8
0
 10
-46.963
 20
35.1206
 11
-46.914
 21
34.8116
  0
LINE
  8
0
 10
-46.914
 20
34.8116
 11
-46.963
 21
34.5026
  0
LINE
  8
0
 10
-46.963
 20
34.5026
 11
-47.105
 21
34.2238
  0
LINE
  8
0
 10
-47.105
 20
34.2238
 11
-47.3262
 21
34.0026
  0
LINE
  8
0
 10
-47.3262
 20
34.0026
 11
-47.605
 21
33.8605
  0
LINE
  8
0
 10
-47.605
 20
33.8605
 11
-47.914
 21
33.8116
  0
LINE
  8
0
 10
-47.914
 20
33.8116
 11
-48.223
 21
33.8605
  0
LINE
  8
0
 10
-48.223
 20
33.8605
 11
-48.4877
 21
33.9954
  0
LINE
  8
0
 10
-48.4877
 20
33.9954
 11
-48.9838
 21
33.2894
  0
LINE
  8
0
 10
-48.9838
 20
33.2894
 11
-49.9678
 21
31.7914
  0
LINE
  8
0
 10
-49.9678
 20
31.7914
 11
-49.7372
 21
31.5944
  0
LINE
  8
0
 10
-49.7372
 20
31.5944
 11
-49.5737
 21
31.3277
  0
LINE
  8
0
 10
-49.5737
 20
31.3277
 11
-49.5007
 21
31.0234
  0
LINE
  8
0
 10
-49.5007
 20
31.0234
 11
-49.5252
 21
30.7115
  0
LINE
  8
0
 10
-49.5252
 20
30.7115
 11
-49.645
 21
30.4225
  0
LINE
  8
0
 10
-49.645
 20
30.4225
 11
-49.8482
 21
30.1846
  0
LINE
  8
0
 10
-49.8482
 20
30.1846
 11
-50.1149
 21
30.0211
  0
LINE
  8
0
 10
-50.1149
 20
30.0211
 11
-50.4191
 21
29.9481
  0
LINE
  8
0
 10
-50.4191
 20
29.9481
 11
-50.731
 21
29.9726
  0
LINE
  8
0
 10
-50.731
 20
29.9726
 11
-51.0113
 21
30.0887
  0
LINE
  8
0
 10
-51.0113
 20
30.0887
 11
-51.8993
 21
28.5319
  0
LINE
  8
0
 10
-51.8993
 20
28.5319
 11
-52.303
 21
27.7693
  0
LINE
  8
0
 10
-52.303
 20
27.7693
 11
-52.0627
 21
27.5947
  0
LINE
  8
0
 10
-52.0627
 20
27.5947
 11
-51.8788
 21
27.3416
  0
LINE
  8
0
 10
-51.8788
 20
27.3416
 11
-51.7822
 21
27.044
  0
LINE
  8
0
 10
-51.7822
 20
27.044
 11
-51.7822
 21
26.7311
  0
LINE
  8
0
 10
-51.7822
 20
26.7311
 11
-51.8788
 21
26.4336
  0
LINE
  8
0
 10
-51.8788
 20
26.4336
 11
-52.0627
 21
26.1805
  0
LINE
  8
0
 10
-52.0627
 20
26.1805
 11
-52.3159
 21
25.9966
  0
LINE
  8
0
 10
-52.3159
 20
25.9966
 11
-52.6134
 21
25.8999
  0
LINE
  8
0
 10
-52.6134
 20
25.8999
 11
-52.9263
 21
25.8999
  0
LINE
  8
0
 10
-52.9263
 20
25.8999
 11
-53.2088
 21
25.9917
  0
LINE
  8
0
 10
-53.2088
 20
25.9917
 11
-53.5884
 21
25.2168
  0
LINE
  8
0
 10
-53.5884
 20
25.2168
 11
-54.3259
 21
23.5833
  0
LINE
  8
0
 10
-54.3259
 20
23.5833
 11
-54.0673
 21
23.4248
  0
LINE
  8
0
 10
-54.0673
 20
23.4248
 11
-53.8641
 21
23.1869
  0
LINE
  8
0
 10
-53.8641
 20
23.1869
 11
-53.7444
 21
22.8979
  0
LINE
  8
0
 10
-53.7444
 20
22.8979
 11
-53.7198
 21
22.586
  0
LINE
  8
0
 10
-53.7198
 20
22.586
 11
-53.7929
 21
22.2817
  0
LINE
  8
0
 10
-53.7929
 20
22.2817
 11
-53.9563
 21
22.015
  0
LINE
  8
0
 10
-53.9563
 20
22.015
 11
-54.1943
 21
21.8118
  0
LINE
  8
0
 10
-54.1943
 20
21.8118
 11
-54.4833
 21
21.692
  0
LINE
  8
0
 10
-54.4833
 20
21.692
 11
-54.7952
 21
21.6675
  0
LINE
  8
0
 10
-54.7952
 20
21.6675
 11
-55.0901
 21
21.7383
  0
LINE
  8
0
 10
-55.0901
 20
21.7383
 11
-55.7237
 21
20.0618
  0
LINE
  8
0
 10
-55.7237
 20
20.0618
 11
-56.0032
 21
19.2454
  0
LINE
  8
0
 10
-56.0032
 20
19.2454
 11
-55.7385
 21
19.1105
  0
LINE
  8
0
 10
-55.7385
 20
19.1105
 11
-55.5173
 21
18.8893
  0
LINE
  8
0
 10
-55.5173
 20
18.8893
 11
-55.3753
 21
18.6105
  0
LINE
  8
0
 10
-55.3753
 20
18.6105
 11
-55.3263
 21
18.3015
  0
LINE
  8
0
 10
-55.3263
 20
18.3015
 11
-55.3753
 21
17.9925
  0
LINE
  8
0
 10
-55.3753
 20
17.9925
 11
-55.5173
 21
17.7137
  0
LINE
  8
0
 10
-55.5173
 20
17.7137
 11
-55.7385
 21
17.4925
  0
LINE
  8
0
 10
-55.7385
 20
17.4925
 11
-56.0173
 21
17.3505
  0
LINE
  8
0
 10
-56.0173
 20
17.3505
 11
-56.3263
 21
17.3015
  0
LINE
  8
0
 10
-56.3263
 20
17.3015
 11
-56.6197
 21
17.348
  0
LINE
  8
0
 10
-56.6197
 20
17.348
 11
-56.8734
 21
16.5232
  0
LINE
  8
0
 10
-56.8734
 20
16.5232
 11
-57.3463
 21
14.7945
  0
LINE
  8
0
 10
-57.3463
 20
14.7945
 11
-57.0661
 21
14.6784
  0
LINE
  8
0
 10
-57.0661
 20
14.6784
 11
-56.8282
 21
14.4752
  0
LINE
  8
0
 10
-56.8282
 20
14.4752
 11
-56.6647
 21
14.2085
  0
LINE
  8
0
 10
-56.6647
 20
14.2085
 11
-56.5917
 21
13.9043
  0
LINE
  8
0
 10
-56.5917
 20
13.9043
 11
-56.6162
 21
13.5923
  0
LINE
  8
0
 10
-56.6162
 20
13.5923
 11
-56.736
 21
13.3033
  0
LINE
  8
0
 10
-56.736
 20
13.3033
 11
-56.9391
 21
13.0654
  0
LINE
  8
0
 10
-56.9391
 20
13.0654
 11
-57.2059
 21
12.9019
  0
LINE
  8
0
 10
-57.2059
 20
12.9019
 11
-57.5101
 21
12.8289
  0
LINE
  8
0
 10
-57.5101
 20
12.8289
 11
-57.8125
 21
12.8527
  0
LINE
  8
0
 10
-57.8125
 20
12.8527
 11
-58.1759
 21
11.0977
  0
LINE
  8
0
 10
-58.1759
 20
11.0977
 11
-58.3243
 21
10.2476
  0
LINE
  8
0
 10
-58.3243
 20
10.2476
 11
-58.0418
 21
10.1558
  0
LINE
  8
0
 10
-58.0418
 20
10.1558
 11
-57.7887
 21
9.97192
  0
LINE
  8
0
 10
-57.7887
 20
9.97192
 11
-57.6048
 21
9.71881
  0
LINE
  8
0
 10
-57.6048
 20
9.71881
 11
-57.5081
 21
9.42126
  0
LINE
  8
0
 10
-57.5081
 20
9.42126
 11
-57.5081
 21
9.10838
  0
LINE
  8
0
 10
-57.5081
 20
9.10838
 11
-57.6048
 21
8.81084
  0
LINE
  8
0
 10
-57.6048
 20
8.81084
 11
-57.7887
 21
8.55772
  0
LINE
  8
0
 10
-57.7887
 20
8.55772
 11
-58.0418
 21
8.37381
  0
LINE
  8
0
 10
-58.0418
 20
8.37381
 11
-58.3394
 21
8.27713
  0
LINE
  8
0
 10
-58.3394
 20
8.27713
 11
-58.6364
 21
8.27713
  0
LINE
  8
0
 10
-58.6364
 20
8.27713
 11
-58.758
 21
7.42285
  0
LINE
  8
0
 10
-58.758
 20
7.42285
 11
-58.9547
 21
5.64142
  0
LINE
  8
0
 10
-58.9547
 20
5.64142
 11
-58.6597
 21
5.57062
  0
LINE
  8
0
 10
-58.6597
 20
5.57062
 11
-58.393
 21
5.40714
  0
LINE
  8
0
 10
-58.393
 20
5.40714
 11
-58.1898
 21
5.16924
  0
LINE
  8
0
 10
-58.1898
 20
5.16924
 11
-58.0701
 21
4.88017
  0
LINE
  8
0
 10
-58.0701
 20
4.88017
 11
-58.0455
 21
4.56827
  0
LINE
  8
0
 10
-58.0455
 20
4.56827
 11
-58.1185
 21
4.26405
  0
LINE
  8
0
 10
-58.1185
 20
4.26405
 11
-58.282
 21
3.99728
  0
LINE
  8
0
 10
-58.282
 20
3.99728
 11
-58.5199
 21
3.7941
  0
LINE
  8
0
 10
-58.5199
 20
3.7941
 11
-58.809
 21
3.67436
  0
LINE
  8
0
 10
-58.809
 20
3.67436
 11
-59.1113
 21
3.65056
  0
LINE
  8
0
 10
-59.1113
 20
3.65056
 11
-59.1958
 21
1.86029
  0
LINE
  8
0
 10
-59.1958
 20
1.86029
 11
-59.2093
 21
0.997513
  0
LINE
  8
0
 10
-59.2093
 20
0.997513
 11
-58.916
 21
0.95105
  0
LINE
  8
0
 10
-58.916
 20
0.95105
 11
-58.6372
 21
0.809006
  0
LINE
  8
0
 10
-58.6372
 20
0.809006
 11
-58.416
 21
0.587784
  0
LINE
  8
0
 10
-58.416
 20
0.587784
 11
-58.2739
 21
0.309006
  0
LINE
  8
0
 10
-58.2739
 20
0.309006
 11
-58.225
 21
0
  0
LINE
  8
0
 10
-58.225
 20
0
 11
-58.2739
 21
-0.309006
  0
LINE
  8
0
 10
-58.2739
 20
-0.309006
 11
-58.416
 21
-0.587784
  0
LINE
  8
0
 10
-58.416
 20
-0.587784
 11
-58.6372
 21
-0.809006
  0
LINE
  8
0
 10
-58.6372
 20
-0.809006
 11
-58.916
 21
-0.95105
  0
LINE
  8
0
 10
-58.916
 20
-0.95105
 11
-59.2093
 21
-0.997498
  0
LINE
  8
0
 10
-59.2093
 20
-0.997498
 11
-59.1958
 21
-1.86029
  0
LINE
  8
0
 10
-59.1958
 20
-1.86029
 11
-59.1113
 21
-3.65056
  0
LINE
  8
0
 10
-59.1113
 20
-3.65056
 11
-58.809
 21
-3.67436
  0
LINE
  8
0
 10
-58.809
 20
-3.67436
 11
-58.5199
 21
-3.7941
  0
LINE
  8
0
 10
-58.5199
 20
-3.7941
 11
-58.282
 21
-3.99728
  0
LINE
  8
0
 10
-58.282
 20
-3.99728
 11
-58.1185
 21
-4.26405
  0
LINE
  8
0
 10
-58.1185
 20
-4.26405
 11
-58.0455
 21
-4.56827
  0
LINE
  8
0
 10
-58.0455
 20
-4.56827
 11
-58.0701
 21
-4.88017
  0
LINE
  8
0
 10
-58.0701
 20
-4.88017
 11
-58.1898
 21
-5.16924
  0
LINE
  8
0
 10
-58.1898
 20
-5.16924
 11
-58.393
 21
-5.40714
  0
LINE
  8
0
 10
-58.393
 20
-5.40714
 11
-58.6597
 21
-5.57062
  0
LINE
  8
0
 10
-58.6597
 20
-5.57062
 11
-58.9547
 21
-5.64142
  0
LINE
  8
0
 10
-58.9547
 20
-5.64142
 11
-58.758
 21
-7.42285
  0
LINE
  8
0
 10
-58.758
 20
-7.42285
 11
-58.6364
 21
-8.27713
  0
LINE
  8
0
 10
-58.6364
 20
-8.27713
 11
-58.3394
 21
-8.27713
  0
LINE
  8
0
 10
-58.3394
 20
-8.27713
 11
-58.0418
 21
-8.37381
  0
LINE
  8
0
 10
-58.0418
 20
-8.37381
 11
-57.7887
 21
-8.55772
  0
LINE
  8
0
 10
-57.7887
 20
-8.55772
 11
-57.6048
 21
-8.81084
  0
LINE
  8
0
 10
-57.6048
 20
-8.81084
 11
-57.5081
 21
-9.10838
  0
LINE
  8
0
 10
-57.5081
 20
-9.10838
 11
-57.5081
 21
-9.42126
  0
LINE
  8
0
 10
-57.5081
 20
-9.42126
 11
-57.6048
 21
-9.71881
  0
LINE
  8
0
 10
-57.6048
 20
-9.71881
 11
-57.7887
 21
-9.97192
  0
LINE
  8
0
 10
-57.7887
 20
-9.97192
 11
-58.0418
 21
-10.1558
  0
LINE
  8
0
 10
-58.0418
 20
-10.1558
 11
-58.3243
 21
-10.2476
  0
LINE
  8
0
 10
-58.3243
 20
-10.2476
 11
-58.1759
 21
-11.0977
  0
LINE
  8
0
 10
-58.1759
 20
-11.0977
 11
-57.8125
 21
-12.8527
  0
LINE
  8
0
 10
-57.8125
 20
-12.8527
 11
-57.5101
 21
-12.8289
  0
LINE
  8
0
 10
-57.5101
 20
-12.8289
 11
-57.2059
 21
-12.9019
  0
LINE
  8
0
 10
-57.2059
 20
-12.9019
 11
-56.9391
 21
-13.0654
  0
LINE
  8
0
 10
-56.9391
 20
-13.0654
 11
-56.736
 21
-13.3033
  0
LINE
  8
0
 10
-56.736
 20
-13.3033
 11
-56.6162
 21
-13.5923
  0
LINE
  8
0
 10
-56.6162
 20
-13.5923
 11
-56.5917
 21
-13.9043
  0
LINE
  8
0
 10
-56.5917
 20
-13.9043
 11
-56.6647
 21
-14.2085
  0
LINE
  8
0
 10
-56.6647
 20
-14.2085
 11
-56.8282
 21
-14.4752
  0
LINE
  8
0
 10
-56.8282
 20
-14.4752
 11
-57.0661
 21
-14.6784
  0
LINE
  8
0
 10
-57.0661
 20
-14.6784
 11
-57.3463
 21
-14.7945
  0
LINE
  8
0
 10
-57.3463
 20
-14.7945
 11
-56.8734
 21
-16.5232
  0
LINE
  8
0
 10
-56.8734
 20
-16.5232
 11
-56.6197
 21
-17.348
  0
LINE
  8
0
 10
-56.6197
 20
-17.348
 11
-56.3263
 21
-17.3015
  0
LINE
  8
0
 10
-56.3263
 20
-17.3015
 11
-56.0173
 21
-17.3505
  0
LINE
  8
0
 10
-56.0173
 20
-17.3505
 11
-55.7385
 21
-17.4925
  0
LINE
  8
0
 10
-55.7385
 20
-17.4925
 11
-55.5173
 21
-17.7137
  0
LINE
  8
0
 10
-55.5173
 20
-17.7137
 11
-55.3753
 21
-17.9925
  0
LINE
  8
0
 10
-55.3753
 20
-17.9925
 11
-55.3263
 21
-18.3015
  0
LINE
  8
0
 10
-55.3263
 20
-18.3015
 11
-55.3753
 21
-18.6105
  0
LINE
  8
0
 10
-55.3753
 20
-18.6105
 11
-55.5173
 21
-18.8893
  0
LINE
  8
0
 10
-55.5173
 20
-18.8893
 11
-55.7385
 21
-19.1105
  0
LINE
  8
0
 10
-55.7385
 20
-19.1105
 11
-56.0032
 21
-19.2454
  0
LINE
  8
0
 10
-56.0032
 20
-19.2454
 11
-55.7237
 21
-20.0618
  0
LINE
  8
0
 10
-55.7237
 20
-20.0618
 11
-55.0901
 21
-21.7383
  0
LINE
  8
0
 10
-55.0901
 20
-21.7383
 11
-54.7952
 21
-21.6675
  0
LINE
  8
0
 10
-54.7952
 20
-21.6675
 11
-54.4833
 21
-21.692
  0
LINE
  8
0
 10
-54.4833
 20
-21.692
 11
-54.1943
 21
-21.8118
  0
LINE
  8
0
 10
-54.1943
 20
-21.8118
 11
-53.9563
 21
-22.015
  0
LINE
  8
0
 10
-53.9563
 20
-22.015
 11
-53.7929
 21
-22.2817
  0
LINE
  8
0
 10
-53.7929
 20
-22.2817
 11
-53.7198
 21
-22.586
  0
LINE
  8
0
 10
-53.7198
 20
-22.586
 11
-53.7444
 21
-22.8979
  0
LINE
  8
0
 10
-53.7444
 20
-22.8979
 11
-53.8641
 21
-23.1869
  0
LINE
  8
0
 10
-53.8641
 20
-23.1869
 11
-54.0673
 21
-23.4248
  0
LINE
  8
0
 10
-54.0673
 20
-23.4248
 11
-54.3259
 21
-23.5833
  0
LINE
  8
0
 10
-54.3259
 20
-23.5833
 11
-53.5884
 21
-25.2168
  0
LINE
  8
0
 10
-53.5884
 20
-25.2168
 11
-53.2088
 21
-25.9917
  0
LINE
  8
0
 10
-53.2088
 20
-25.9917
 11
-52.9263
 21
-25.8999
  0
LINE
  8
0
 10
-52.9263
 20
-25.8999
 11
-52.6134
 21
-25.8999
  0
LINE
  8
0
 10
-52.6134
 20
-25.8999
 11
-52.3159
 21
-25.9966
  0
LINE
  8
0
 10
-52.3159
 20
-25.9966
 11
-52.0627
 21
-26.1805
  0
LINE
  8
0
 10
-52.0627
 20
-26.1805
 11
-51.8788
 21
-26.4336
  0
LINE
  8
0
 10
-51.8788
 20
-26.4336
 11
-51.7822
 21
-26.7311
  0
LINE
  8
0
 10
-51.7822
 20
-26.7311
 11
-51.7822
 21
-27.044
  0
LINE
  8
0
 10
-51.7822
 20
-27.044
 11
-51.8788
 21
-27.3416
  0
LINE
  8
0
 10
-51.8788
 20
-27.3416
 11
-52.0627
 21
-27.5947
  0
LINE
  8
0
 10
-52.0627
 20
-27.5947
 11
-52.303
 21
-27.7693
  0
LINE
  8
0
 10
-52.303
 20
-27.7693
 11
-51.8993
 21
-28.5319
  0
LINE
  8
0
 10
-51.8993
 20
-28.5319
 11
-51.0113
 21
-30.0887
  0
LINE
  8
0
 10
-51.0113
 20
-30.0887
 11
-50.731
 21
-29.9726
  0
LINE
  8
0
 10
-50.731
 20
-29.9726
 11
-50.4191
 21
-29.9481
  0
LINE
  8
0
 10
-50.4191
 20
-29.9481
 11
-50.1149
 21
-30.0211
  0
LINE
  8
0
 10
-50.1149
 20
-30.0211
 11
-49.8482
 21
-30.1846
  0
LINE
  8
0
 10
-49.8482
 20
-30.1846
 11
-49.645
 21
-30.4225
  0
LINE
  8
0
 10
-49.645
 20
-30.4225
 11
-49.5252
 21
-30.7115
  0
LINE
  8
0
 10
-49.5252
 20
-30.7115
 11
-49.5007
 21
-31.0234
  0
LINE
  8
0
 10
-49.5007
 20
-31.0234
 11
-49.5737
 21
-31.3277
  0
LINE
  8
0
 10
-49.5737
 20
-31.3277
 11
-49.7372
 21
-31.5944
  0
LINE
  8
0
 10
-49.7372
 20
-31.5944
 11
-49.9678
 21
-31.7914
  0
LINE
  8
0
 10
-49.9678
 20
-31.7914
 11
-48.9838
 21
-33.2894
  0
LINE
  8
0
 10
-48.9838
 20
-33.2894
 11
-48.4877
 21
-33.9954
  0
LINE
  8
0
 10
-48.4877
 20
-33.9954
 11
-48.223
 21
-33.8605
  0
LINE
  8
0
 10
-48.223
 20
-33.8605
 11
-47.914
 21
-33.8116
  0
LINE
  8
0
 10
-47.914
 20
-33.8116
 11
-47.605
 21
-33.8605
  0
LINE
  8
0
 10
-47.605
 20
-33.8605
 11
-47.3262
 21
-34.0026
  0
LINE
  8
0
 10
-47.3262
 20
-34.0026
 11
-47.105
 21
-34.2238
  0
LINE
  8
0
 10
-47.105
 20
-34.2238
 11
-46.963
 21
-34.5026
  0
LINE
  8
0
 10
-46.963
 20
-34.5026
 11
-46.914
 21
-34.8116
  0
LINE
  8
0
 10
-46.914
 20
-34.8116
 11
-46.963
 21
-35.1206
  0
LINE
  8
0
 10
-46.963
 20
-35.1206
 11
-47.105
 21
-35.3994
  0
LINE
  8
0
 10
-47.105
 20
-35.3994
 11
-47.315
 21
-35.6094
  0
LINE
  8
0
 10
-47.315
 20
-35.6094
 11
-46.7969
 21
-36.2994
  0
LINE
  8
0
 10
-46.7969
 20
-36.2994
 11
-45.6763
 21
-37.6982
  0
LINE
  8
0
 10
-45.6763
 20
-37.6982
 11
-45.4177
 21
-37.5397
  0
LINE
  8
0
 10
-45.4177
 20
-37.5397
 11
-45.1135
 21
-37.4666
  0
LINE
  8
0
 10
-45.1135
 20
-37.4666
 11
-44.8016
 21
-37.4912
  0
LINE
  8
0
 10
-44.8016
 20
-37.4912
 11
-44.5125
 21
-37.6109
  0
LINE
  8
0
 10
-44.5125
 20
-37.6109
 11
-44.2746
 21
-37.8141
  0
LINE
  8
0
 10
-44.2746
 20
-37.8141
 11
-44.1112
 21
-38.0809
  0
LINE
  8
0
 10
-44.1112
 20
-38.0809
 11
-44.0381
 21
-38.3851
  0
LINE
  8
0
 10
-44.0381
 20
-38.3851
 11
-44.0627
 21
-38.697
  0
LINE
  8
0
 10
-44.0627
 20
-38.697
 11
-44.1824
 21
-38.9861
  0
LINE
  8
0
 10
-44.1824
 20
-38.9861
 11
-44.3794
 21
-39.2167
  0
LINE
  8
0
 10
-44.3794
 20
-39.2167
 11
-43.1732
 21
-40.5423
  0
LINE
  8
0
 10
-43.1732
 20
-40.5423
 11
-42.5727
 21
-41.162
  0
LINE
  8
0
 10
-42.5727
 20
-41.162
 11
-42.3324
 21
-40.9874
  0
LINE
  8
0
 10
-42.3324
 20
-40.9874
 11
-42.0348
 21
-40.8907
  0
LINE
  8
0
 10
-42.0348
 20
-40.8907
 11
-41.722
 21
-40.8907
  0
LINE
  8
0
 10
-41.722
 20
-40.8907
 11
-41.4244
 21
-40.9874
  0
LINE
  8
0
 10
-41.4244
 20
-40.9874
 11
-41.1713
 21
-41.1713
  0
LINE
  8
0
 10
-41.1713
 20
-41.1713
 11
-40.9874
 21
-41.4244
  0
LINE
  8
0
 10
-40.9874
 20
-41.4244
 11
-40.8907
 21
-41.722
  0
LINE
  8
0
 10
-40.8907
 20
-41.722
 11
-40.8907
 21
-42.0348
  0
LINE
  8
0
 10
-40.8907
 20
-42.0348
 11
-40.9874
 21
-42.3324
  0
LINE
  8
0
 10
-40.9874
 20
-42.3324
 11
-41.162
 21
-42.5727
  0
LINE
  8
0
 10
-41.162
 20
-42.5727
 11
-40.5423
 21
-43.1732
  0
LINE
  8
0
 10
-40.5423
 20
-43.1732
 11
-39.2167
 21
-44.3794
  0
LINE
  8
0
 10
-39.2167
 20
-44.3794
 11
-38.9861
 21
-44.1824
  0
LINE
  8
0
 10
-38.9861
 20
-44.1824
 11
-38.697
 21
-44.0627
  0
LINE
  8
0
 10
-38.697
 20
-44.0627
 11
-38.3851
 21
-44.0381
  0
LINE
  8
0
 10
-38.3851
 20
-44.0381
 11
-38.0809
 21
-44.1112
  0
LINE
  8
0
 10
-38.0809
 20
-44.1112
 11
-37.8141
 21
-44.2746
  0
LINE
  8
0
 10
-37.8141
 20
-44.2746
 11
-37.6109
 21
-44.5125
  0
LINE
  8
0
 10
-37.6109
 20
-44.5125
 11
-37.4912
 21
-44.8016
  0
LINE
  8
0
 10
-37.4912
 20
-44.8016
 11
-37.4666
 21
-45.1135
  0
LINE
  8
0
 10
-37.4666
 20
-45.1135
 11
-37.5397
 21
-45.4177
  0
LINE
  8
0
 10
-37.5397
 20
-45.4177
 11
-37.6982
 21
-45.6763
  0
LINE
  8
0
 10
-37.6982
 20
-45.6763
 11
-36.2994
 21
-46.7969
  0
LINE
  8
0
 10
-36.2994
 20
-46.7969
 11
-35.6094
 21
-47.315
  0
LINE
  8
0
 10
-35.6094
 20
-47.315
 11
-35.3994
 21
-47.105
  0
LINE
  8
0
 10
-35.3994
 20
-47.105
 11
-35.1206
 21
-46.963
  0
LINE
  8
0
 10
-35.1206
 20
-46.963
 11
-34.8116
 21
-46.914
  0
LINE
  8
0
 10
-34.8116
 20
-46.914
 11
-34.5026
 21
-46.963
  0
LINE
  8
0
 10
-34.5026
 20
-46.963
 11
-34.2238
 21
-47.105
  0
LINE
  8
0
 10
-34.2238
 20
-47.105
 11
-34.0026
 21
-47.3262
  0
LINE
  8
0
 10
-34.0026
 20
-47.3262
 11
-33.8605
 21
-47.605
  0
LINE
  8
0
 10
-33.8605
 20
-47.605
 11
-33.8116
 21
-47.914
  0
LINE
  8
0
 10
-33.8116
 20
-47.914
 11
-33.8605
 21
-48.223
  0
LINE
  8
0
 10
-33.8605
 20
-48.223
 11
-33.9954
 21
-48.4877
  0
LINE
  8
0
 10
-33.9954
 20
-48.4877
 11
-33.2894
 21
-48.9838
  0
LINE
  8
0
 10
-33.2894
 20
-48.9838
 11
-31.7914
 21
-49.9678
  0
LINE
  8
0
 10
-31.7914
 20
-49.9678
 11
-31.5944
 21
-49.7372
  0
LINE
  8
0
 10
-31.5944
 20
-49.7372
 11
-31.3277
 21
-49.5737
  0
LINE
  8
0
 10
-31.3277
 20
-49.5737
 11
-31.0234
 21
-49.5007
  0
LINE
  8
0
 10
-31.0234
 20
-49.5007
 11
-30.7115
 21
-49.5252
  0
LINE
  8
0
 10
-30.7115
 20
-49.5252
 11
-30.4225
 21
-49.645
  0
LINE
  8
0
 10
-30.4225
 20
-49.645
 11
-30.1846
 21
-49.8482
  0
LINE
  8
0
 10
-30.1846
 20
-49.8482
 11
-30.0211
 21
-50.1149
  0
LINE
  8
0
 10
-30.0211
 20
-50.1149
 11
-29.9481
 21
-50.4191
  0
LINE
  8
0
 10
-29.9481
 20
-50.4191
 11
-29.9726
 21
-50.731
  0
LINE
  8
0
 10
-29.9726
 20
-50.731
 11
-30.0887
 21
-51.0113
  0
LINE
  8
0
 10
-30.0887
 20
-51.0113
 11
-28.5319
 21
-51.8993
  0
LINE
  8
0
 10
-28.5319
 20
-51.8993
 11
-27.7693
 21
-52.303
  0
LINE
  8
0
 10
-27.7693
 20
-52.303
 11
-27.5947
 21
-52.0627
  0
LINE
  8
0
 10
-27.5947
 20
-52.0627
 11
-27.3416
 21
-51.8788
  0
LINE
  8
0
 10
-27.3416
 20
-51.8788
 11
-27.044
 21
-51.7822
  0
LINE
  8
0
 10
-27.044
 20
-51.7822
 11
-26.7311
 21
-51.7822
  0
LINE
  8
0
 10
-26.7311
 20
-51.7822
 11
-26.4336
 21
-51.8788
  0
LINE
  8
0
 10
-26.4336
 20
-51.8788
 11
-26.1805
 21
-52.0627
  0
LINE
  8
0
 10
-26.1805
 20
-52.0627
 11
-25.9966
 21
-52.3159
  0
LINE
  8
0
 10
-25.9966
 20
-52.3159
 11
-25.8999
 21
-52.6134
  0
LINE
  8
0
 10
-25.8999
 20
-52.6134
 11
-25.8999
 21
-52.9263
  0
LINE
  8
0
 10
-25.8999
 20
-52.9263
 11
-25.9917
 21
-53.2088
  0
LINE
  8
0
 10
-25.9917
 20
-53.2088
 11
-25.2168
 21
-53.5884
  0
LINE
  8
0
 10
-25.2168
 20
-53.5884
 11
-23.5833
 21
-54.3259
  0
LINE
  8
0
 10
-23.5833
 20
-54.3259
 11
-23.4248
 21
-54.0673
  0
LINE
  8
0
 10
-23.4248
 20
-54.0673
 11
-23.1869
 21
-53.8641
  0
LINE
  8
0
 10
-23.1869
 20
-53.8641
 11
-22.8979
 21
-53.7444
  0
LINE
  8
0
 10
-22.8979
 20
-53.7444
 11
-22.586
 21
-53.7198
  0
LINE
  8
0
 10
-22.586
 20
-53.7198
 11
-22.2817
 21
-53.7929
  0
LINE
  8
0
 10
-22.2817
 20
-53.7929
 11
-22.015
 21
-53.9563
  0
LINE
  8
0
 10
-22.015
 20
-53.9563
 11
-21.8118
 21
-54.1943
  0
LINE
  8
0
 10
-21.8118
 20
-54.1943
 11
-21.692
 21
-54.4833
  0
LINE
  8
0
 10
-21.692
 20
-54.4833
 11
-21.6675
 21
-54.7952
  0
LINE
  8
0
 10
-21.6675
 20
-54.7952
 11
-21.7383
 21
-55.0901
  0
LINE
  8
0
 10
-21.7383
 20
-55.0901
 11
-20.0618
 21
-55.7237
  0
LINE
  8
0
 10
-20.0618
 20
-55.7237
 11
-19.2454
 21
-56.0032
  0
LINE
  8
0
 10
-19.2454
 20
-56.0032
 11
-19.1105
 21
-55.7385
  0
LINE
  8
0
 10
-19.1105
 20
-55.7385
 11
-18.8893
 21
-55.5173
  0
LINE
  8
0
 10
-18.8893
 20
-55.5173
 11
-18.6105
 21
-55.3753
  0
LINE
  8
0
 10
-18.6105
 20
-55.3753
 11
-18.3015
 21
-55.3263
  0
LINE
  8
0
 10
-18.3015
 20
-55.3263
 11
-17.9925
 21
-55.3753
  0
LINE
  8
0
 10
-17.9925
 20
-55.3753
 11
-17.7137
 21
-55.5173
  0
LINE
  8
0
 10
-17.7137
 20
-55.5173
 11
-17.4925
 21
-55.7385
  0
LINE
  8
0
 10
-17.4925
 20
-55.7385
 11
-17.3505
 21
-56.0173
  0
LINE
  8
0
 10
-17.3505
 20
-56.0173
 11
-17.3015
 21
-56.3263
  0
LINE
  8
0
 10
-17.3015
 20
-56.3263
 11
-17.348
 21
-56.6197
  0
LINE
  8
0
 10
-17.348
 20
-56.6197
 11
-16.5232
 21
-56.8734
  0
LINE
  8
0
 10
-16.5232
 20
-56.8734
 11
-14.7945
 21
-57.3463
  0
LINE
  8
0
 10
-14.7945
 20
-57.3463
 11
-14.6784
 21
-57.0661
  0
LINE
  8
0
 10
-14.6784
 20
-57.0661
 11
-14.4752
 21
-56.8282
  0
LINE
  8
0
 10
-14.4752
 20
-56.8282
 11
-14.2085
 21
-56.6647
  0
LINE
  8
0
 10
-14.2085
 20
-56.6647
 11
-13.9043
 21
-56.5917
  0
LINE
  8
0
 10
-13.9043
 20
-56.5917
 11
-13.5923
 21
-56.6162
  0
LINE
  8
0
 10
-13.5923
 20
-56.6162
 11
-13.3033
 21
-56.736
  0
LINE
  8
0
 10
-13.3033
 20
-56.736
 11
-13.0654
 21
-56.9391
  0
LINE
  8
0
 10
-13.0654
 20
-56.9391
 11
-12.9019
 21
-57.2059
  0
LINE
  8
0
 10
-12.9019
 20
-57.2059
 11
-12.8289
 21
-57.5101
  0
LINE
  8
0
 10
-12.8289
 20
-57.5101
 11
-12.8527
 21
-57.8125
  0
LINE
  8
0
 10
-12.8527
 20
-57.8125
 11
-11.0977
 21
-58.1759
  0
LINE
  8
0
 10
-11.0977
 20
-58.1759
 11
-10.2476
 21
-58.3243
  0
LINE
  8
0
 10
-10.2476
 20
-58.3243
 11
-10.1558
 21
-58.0418
  0
LINE
  8
0
 10
-10.1558
 20
-58.0418
 11
-9.97192
 21
-57.7887
  0
LINE
  8
0
 10
-9.97192
 20
-57.7887
 11
-9.71881
 21
-57.6048
  0
LINE
  8
0
 10
-9.71881
 20
-57.6048
 11
-9.42126
 21
-57.5081
  0
LINE
  8
0
 10
-9.42126
 20
-57.5081
 11
-9.10838
 21
-57.5081
  0
LINE
  8
0
 10
-9.10838
 20
-57.5081
 11
-8.81084
 21
-57.6048
  0
LINE
  8
0
 10
-8.81084
 20
-57.6048
 11
-8.55772
 21
-57.7887
  0
LINE
  8
0
 10
-8.55772
 20
-57.7887
 11
-8.37381
 21
-58.0418
  0
LINE
  8
0
 10
-8.37381
 20
-58.0418
 11
-8.27713
 21
-58.3394
  0
LINE
  8
0
 10
-8.27713
 20
-58.3394
 11
-8.27713
 21
-58.6364
  0
LINE
  8
0
 10
-8.27713
 20
-58.6364
 11
-7.42285
 21
-58.758
  0
LINE
  8
0
 10
-7.42285
 20
-58.758
 11
-5.64142
 21
-58.9547
  0
LINE
  8
0
 10
-5.64142
 20
-58.9547
 11
-5.57062
 21
-58.6597
  0
LINE
  8
0
 10
-5.57062
 20
-58.6597
 11
-5.40714
 21
-58.393
  0
LINE
  8
0
 10
-5.40714
 20
-58.393
 11
-5.16924
 21
-58.1898
  0
LINE
  8
0
 10
-5.16924
 20
-58.1898
 11
-4.88017
 21
-58.0701
  0
LINE
  8
0
 10
-4.88017
 20
-58.0701
 11
-4.56827
 21
-58.0455
  0
LINE
  8
0
 10
-4.56827
 20
-58.0455
 11
-4.26405
 21
-58.1185
  0
LINE
  8
0
 10
-4.26405
 20
-58.1185
 11
-3.99728
 21
-58.282
  0
LINE
  8
0
 10
-3.99728
 20
-58.282
 11
-3.7941
 21
-58.5199
  0
LINE
  8
0
 10
-3.7941
 20
-58.5199
 11
-3.67436
 21
-58.809
  0
LINE
  8
0
 10
-3.67436
 20
-58.809
 11
-3.65056
 21
-59.1113
  0
LINE
  8
0
 10
-3.65056
 20
-59.1113
 11
-1.86029
 21
-59.1958
  0
LINE
  8
0
 10
-1.86029
 20
-59.1958
 11
-0.997513
 21
-59.2093
  0
LINE
  8
0
 10
-0.997513
 20
-59.2093
 11
-0.95105
 21
-58.916
  0
LINE
  8
0
 10
-0.95105
 20
-58.916
 11
-0.809006
 21
-58.6372
  0
LINE
  8
0
 10
-0.809006
 20
-58.6372
 11
-0.587784
 21
-58.416
  0
LINE
  8
0
 10
-0.587784
 20
-58.416
 11
-0.309006
 21
-58.2739
  0
LINE
  8
0
 10
-0.309006
 20
-58.2739
 11
0
 21
-58.225
  0
LINE
  8
0
 10
0
 20
-58.225
 11
0.309006
 21
-58.2739
  0
LINE
  8
0
 10
0.309006
 20
-58.2739
 11
0.587784
 21
-58.416
  0
LINE
  8
0
 10
0.587784
 20
-58.416
 11
0.809006
 21
-58.6372
  0
LINE
  8
0
 10
0.809006
 20
-58.6372
 11
0.95105
 21
-58.916
  0
LINE
  8
0
 10
0.95105
 20
-58.916
 11
0.997498
 21
-59.2093
  0
LINE
  8
0
 10
0.997498
 20
-59.2093
 11
1.86029
 21
-59.1958
  0
LINE
  8
0
 10
-0.23465
 20
51.371
 11
-0.463516
 21
51.4259
  0
LINE
  8
0
 10
-0.463516
 20
51.4259
 11
-0.680984
 21
51.516
  0
LINE
  8
0
 10
-0.680984
 20
51.516
 11
-0.881668
 21
51.639
  0
LINE
  8
0
 10
-0.881668
 20
51.639
 11
-1.06065
 21
51.7918
  0
LINE
  8
0
 10
-1.06065
 20
51.7918
 11
-1.21352
 21
51.9708
  0
LINE
  8
0
 10
-1.21352
 20
51.9708
 11
-1.3365
 21
52.1715
  0
LINE
  8
0
 10
-1.3365
 20
52.1715
 11
-1.42657
 21
52.389
  0
LINE
  8
0
 10
-1.42657
 20
52.389
 11
-1.48152
 21
52.6178
  0
LINE
  8
0
 10
-1.48152
 20
52.6178
 11
-1.49998
 21
52.8525
  0
LINE
  8
0
 10
-1.49998
 20
52.8525
 11
-1.48152
 21
53.0871
  0
LINE
  8
0
 10
-1.48152
 20
53.0871
 11
-1.42657
 21
53.316
  0
LINE
  8
0
 10
-1.42657
 20
53.316
 11
-1.3365
 21
53.5335
  0
LINE
  8
0
 10
-1.3365
 20
53.5335
 11
-1.21352
 21
53.7342
  0
LINE
  8
0
 10
-1.21352
 20
53.7342
 11
-1.06065
 21
53.9131
  0
LINE
  8
0
 10
-1.06065
 20
53.9131
 11
-0.881668
 21
54.066
  0
LINE
  8
0
 10
-0.881668
 20
54.066
 11
-0.680984
 21
54.189
  0
LINE
  8
0
 10
-0.680984
 20
54.189
 11
-0.463516
 21
54.2791
  0
LINE
  8
0
 10
-0.463516
 20
54.2791
 11
-0.23465
 21
54.334
  0
LINE
  8
0
 10
-0.23465
 20
54.334
 11
0
 21
54.3525
  0
LINE
  8
0
 10
0
 20
54.3525
 11
0.23465
 21
54.334
  0
LINE
  8
0
 10
0.23465
 20
54.334
 11
0.463516
 21
54.2791
  0
LINE
  8
0
 10
0.463516
 20
54.2791
 11
0.680984
 21
54.189
  0
LINE
  8
0
 10
0.680984
 20
54.189
 11
0.881668
 21
54.066
  0
LINE
  8
0
 10
0.881668
 20
54.066
 11
1.06065
 21
53.9131
  0
LINE
  8
0
 10
1.06065
 20
53.9131
 11
1.21352
 21
53.7342
  0
LINE
  8
0
 10
1.21352
 20
53.7342
 11
1.3365
 21
53.5335
  0
LINE
  8
0
 10
1.3365
 20
53.5335
 11
1.42657
 21
53.316
  0
LINE
  8
0
 10
1.42657
 20
53.316
 11
1.48152
 21
53.0871
  0
LINE
  8
0
 10
1.48152
 20
53.0871
 11
1.5
 21
52.8525
  0
LINE
  8
0
 10
1.5
 20
52.8525
 11
1.48152
 21
52.6178
  0
LINE
  8
0
 10
1.48152
 20
52.6178
 11
1.42657
 21
52.389
  0
LINE
  8
0
 10
1.42657
 20
52.389
 11
1.3365
 21
52.1715
  0
LINE
  8
0
 10
1.3365
 20
52.1715
 11
1.21352
 21
51.9708
  0
LINE
  8
0
 10
1.21352
 20
51.9708
 11
1.06065
 21
51.7918
  0
LINE
  8
0
 10
1.06065
 20
51.7918
 11
0.881668
 21
51.639
  0
LINE
  8
0
 10
0.881668
 20
51.639
 11
0.680984
 21
51.516
  0
LINE
  8
0
 10
0.680984
 20
51.516
 11
0.463516
 21
51.4259
  0
LINE
  8
0
 10
0.463516
 20
51.4259
 11
0.23465
 21
51.371
  0
LINE
  8
0
 10
0.23465
 20
51.371
 11
0
 21
51.3525
  0
LINE
  8
0
 10
0
 20
51.3525
 11
-0.23465
 21
51.371
  0
LINE
  8
0
 10
6.6037
 20
14.5201
 11
6.42087
 21
14.5442
  0
LINE
  8
0
 10
6.42087
 20
14.5442
 11
6.24155
 21
14.5872
  0
LINE
  8
0
 10
6.24155
 20
14.5872
 11
6.06772
 21
14.6488
  0
LINE
  8
0
 10
6.06772
 20
14.6488
 11
5.90129
 21
14.7282
  0
LINE
  8
0
 10
5.90129
 20
14.7282
 11
5.74405
 21
14.8245
  0
LINE
  8
0
 10
5.74405
 20
14.8245
 11
5.59775
 21
14.9368
  0
LINE
  8
0
 10
5.59775
 20
14.9368
 11
5.46399
 21
15.0637
  0
LINE
  8
0
 10
5.46399
 20
15.0637
 11
5.34422
 21
15.2039
  0
LINE
  8
0
 10
5.34422
 20
15.2039
 11
5.23978
 21
15.3559
  0
LINE
  8
0
 10
5.23978
 20
15.3559
 11
5.15179
 21
15.518
  0
LINE
  8
0
 10
5.15179
 20
15.518
 11
5.08122
 21
15.6884
  0
LINE
  8
0
 10
5.08122
 20
15.6884
 11
5.02884
 21
15.8652
  0
LINE
  8
0
 10
5.02884
 20
15.8652
 11
4.99524
 21
16.0465
  0
LINE
  8
0
 10
4.99524
 20
16.0465
 11
4.98077
 21
16.2303
  0
LINE
  8
0
 10
4.98077
 20
16.2303
 11
5.45779
 21
37.7094
  0
LINE
  8
0
 10
5.45779
 20
37.7094
 11
5.48596
 21
38.7847
  0
LINE
  8
0
 10
5.48596
 20
38.7847
 11
5.62636
 21
39.8512
  0
LINE
  8
0
 10
5.62636
 20
39.8512
 11
5.87749
 21
40.8972
  0
LINE
  8
0
 10
5.87749
 20
40.8972
 11
6.23656
 21
41.9112
  0
LINE
  8
0
 10
6.23656
 20
41.9112
 11
6.69966
 21
42.8821
  0
LINE
  8
0
 10
6.69966
 20
42.8821
 11
7.2617
 21
43.7993
  0
LINE
  8
0
 10
7.2617
 20
43.7993
 11
7.91655
 21
44.6527
  0
LINE
  8
0
 10
7.91655
 20
44.6527
 11
8.65701
 21
45.433
  0
LINE
  8
0
 10
8.65701
 20
45.433
 11
9.47499
 21
46.1316
  0
LINE
  8
0
 10
9.47499
 20
46.1316
 11
10.3615
 21
46.7408
  0
LINE
  8
0
 10
10.3615
 20
46.7408
 11
11.3068
 21
47.2541
  0
LINE
  8
0
 10
11.3068
 20
47.2541
 11
12.3007
 21
47.6658
  0
LINE
  8
0
 10
12.3007
 20
47.6658
 11
13.3321
 21
47.9713
  0
LINE
  8
0
 10
13.3321
 20
47.9713
 11
14.3898
 21
48.1673
  0
LINE
  8
0
 10
14.3898
 20
48.1673
 11
15.4621
 21
48.2517
  0
LINE
  8
0
 10
15.4621
 20
48.2517
 11
16.5375
 21
48.2236
  0
LINE
  8
0
 10
16.5375
 20
48.2236
 11
17.604
 21
48.0832
  0
LINE
  8
0
 10
17.604
 20
48.0832
 11
18.6499
 21
47.832
  0
LINE
  8
0
 10
18.6499
 20
47.832
 11
19.6639
 21
47.473
  0
LINE
  8
0
 10
19.6639
 20
47.473
 11
20.6349
 21
47.0099
  0
LINE
  8
0
 10
20.6349
 20
47.0099
 11
21.552
 21
46.4478
  0
LINE
  8
0
 10
21.552
 20
46.4478
 11
22.4054
 21
45.793
  0
LINE
  8
0
 10
22.4054
 20
45.793
 11
23.1857
 21
45.0525
  0
LINE
  8
0
 10
23.1857
 20
45.0525
 11
23.8843
 21
44.2345
  0
LINE
  8
0
 10
23.8843
 20
44.2345
 11
24.4936
 21
43.348
  0
LINE
  8
0
 10
24.4936
 20
43.348
 11
25.0069
 21
42.4027
  0
LINE
  8
0
 10
25.0069
 20
42.4027
 11
25.4186
 21
41.4089
  0
LINE
  8
0
 10
25.4186
 20
41.4089
 11
25.7241
 21
40.3775
  0
LINE
  8
0
 10
25.7241
 20
40.3775
 11
25.9201
 21
39.3198
  0
LINE
  8
0
 10
25.9201
 20
39.3198
 11
26.0045
 21
38.2474
  0
LINE
  8
0
 10
26.0045
 20
38.2474
 11
25.9763
 21
37.1721
  0
LINE
  8
0
 10
25.9763
 20
37.1721
 11
25.8359
 21
36.1056
  0
LINE
  8
0
 10
25.8359
 20
36.1056
 11
25.5848
 21
35.0596
  0
LINE
  8
0
 10
25.5848
 20
35.0596
 11
25.2257
 21
34.0456
  0
LINE
  8
0
 10
25.2257
 20
34.0456
 11
24.7626
 21
33.0747
  0
LINE
  8
0
 10
24.7626
 20
33.0747
 11
24.2006
 21
32.1575
  0
LINE
  8
0
 10
24.2006
 20
32.1575
 11
23.5457
 21
31.3041
  0
LINE
  8
0
 10
23.5457
 20
31.3041
 11
22.8053
 21
30.5238
  0
LINE
  8
0
 10
22.8053
 20
30.5238
 11
7.95462
 21
14.9985
  0
LINE
  8
0
 10
7.95462
 20
14.9985
 11
7.81441
 21
14.8788
  0
LINE
  8
0
 10
7.81441
 20
14.8788
 11
7.66243
 21
14.7743
  0
LINE
  8
0
 10
7.66243
 20
14.7743
 11
7.50037
 21
14.6863
  0
LINE
  8
0
 10
7.50037
 20
14.6863
 11
7.33
 21
14.6157
  0
LINE
  8
0
 10
7.33
 20
14.6157
 11
7.15318
 21
14.5634
  0
LINE
  8
0
 10
7.15318
 20
14.5634
 11
6.97188
 21
14.5298
  0
LINE
  8
0
 10
6.97188
 20
14.5298
 11
6.78804
 21
14.5153
  0
LINE
  8
0
 10
6.78804
 20
14.5153
 11
6.6037
 21
14.5201
  0
LINE
  8
0
 10
-6.97188
 20
14.5298
 11
-7.15318
 21
14.5634
  0
LINE
  8
0
 10
-7.15318
 20
14.5634
 11
-7.33
 21
14.6157
  0
LINE
  8
0
 10
-7.33
 20
14.6157
 11
-7.50037
 21
14.6863
  0
LINE
  8
0
 10
-7.50037
 20
14.6863
 11
-7.66243
 21
14.7743
  0
LINE
  8
0
 10
-7.66243
 20
14.7743
 11
-7.81441
 21
14.8788
  0
LINE
  8
0
 10
-7.81441
 20
14.8788
 11
-7.95462
 21
14.9985
  0
LINE
  8
0
 10
-7.95462
 20
14.9985
 11
-22.8053
 21
30.5238
  0
LINE
  8
0
 10
-22.8053
 20
30.5238
 11
-23.5457
 21
31.3041
  0
LINE
  8
0
 10
-23.5457
 20
31.3041
 11
-24.2006
 21
32.1575
  0
LINE
  8
0
 10
-24.2006
 20
32.1575
 11
-24.7626
 21
33.0747
  0
LINE
  8
0
 10
-24.7626
 20
33.0747
 11
-25.2257
 21
34.0456
  0
LINE
  8
0
 10
-25.2257
 20
34.0456
 11
-25.5848
 21
35.0596
  0
LINE
  8
0
 10
-25.5848
 20
35.0596
 11
-25.8359
 21
36.1056
  0
LINE
  8
0
 10
-25.8359
 20
36.1056
 11
-25.9763
 21
37.1721
  0
LINE
  8
0
 10
-25.9763
 20
37.1721
 11
-26.0045
 21
38.2474
  0
LINE
  8
0
 10
-26.0045
 20
38.2474
 11
-25.9201
 21
39.3198
  0
LINE
  8
0
 10
-25.9201
 20
39.3198
 11
-25.7241
 21
40.3775
  0
LINE
  8
0
 10
-25.7241
 20
40.3775
 11
-25.4186
 21
41.4089
  0
LINE
  8
0
 10
-25.4186
 20
41.4089
 11
-25.0069
 21
42.4027
  0
LINE
  8
0
 10
-25.0069
 20
42.4027
 11
-24.4936
 21
43.348
  0
LINE
  8
0
 10
-24.4936
 20
43.348
 11
-23.8843
 21
44.2345
  0
LINE
  8
0
 10
-23.8843
 20
44.2345
 11
-23.1857
 21
45.0525
  0
LINE
  8
0
 10
-23.1857
 20
45.0525
 11
-22.4054
 21
45.793
  0
LINE
  8
0
 10
-22.4054
 20
45.793
 11
-21.552
 21
46.4478
  0
LINE
  8
0
 10
-21.552
 20
46.4478
 11
-20.6349
 21
47.0099
  0
LINE
  8
0
 10
-20.6349
 20
47.0099
 11
-19.6639
 21
47.473
  0
LINE
  8
0
 10
-19.6639
 20
47.473
 11
-18.6499
 21
47.832
  0
LINE
  8
0
 10
-18.6499
 20
47.832
 11
-17.604
 21
48.0832
  0
LINE
  8
0
 10
-17.604
 20
48.0832
 11
-16.5375
 21
48.2236
  0
LINE
  8
0
 10
-16.5375
 20
48.2236
 11
-15.4621
 21
48.2517
  0
LINE
  8
0
 10
-15.4621
 20
48.2517
 11
-14.3898
 21
48.1673
  0
LINE
  8
0
 10
-14.3898
 20
48.1673
 11
-13.3321
 21
47.9713
  0
LINE
  8
0
 10
-13.3321
 20
47.9713
 11
-12.3007
 21
47.6658
  0
LINE
  8
0
 10
-12.3007
 20
47.6658
 11
-11.3068
 21
47.2541
  0
LINE
  8
0
 10
-11.3068
 20
47.2541
 11
-10.3615
 21
46.7408
  0
LINE
  8
0
 10
-10.3615
 20
46.7408
 11
-9.47499
 21
46.1316
  0
LINE
  8
0
 10
-9.47499
 20
46.1316
 11
-8.65701
 21
45.433
  0
LINE
  8
0
 10
-8.65701
 20
45.433
 11
-7.91655
 21
44.6527
  0
LINE
  8
0
 10
-7.91655
 20
44.6527
 11
-7.2617
 21
43.7993
  0
LINE
  8
0
 10
-7.2617
 20
43.7993
 11
-6.69966
 21
42.8821
  0
LINE
  8
0
 10
-6.69966
 20
42.8821
 11
-6.23656
 21
41.9112
  0
LINE
  8
0
 10
-6.23656
 20
41.9112
 11
-5.87749
 21
40.8972
  0
LINE
  8
0
 10
-5.87749
 20
40.8972
 11
-5.62636
 21
39.8512
  0
LINE
  8
0
 10
-5.62636
 20
39.8512
 11
-5.48596
 21
38.7847
  0
LINE
  8
0
 10
-5.48596
 20
38.7847
 11
-5.45779
 21
37.7094
  0
LINE
  8
0
 10
-5.45779
 20
37.7094
 11
-4.98077
 21
16.2303
  0
LINE
  8
0
 10
-4.98077
 20
16.2303
 11
-4.99524
 21
16.0465
  0
LINE
  8
0
 10
-4.99524
 20
16.0465
 11
-5.02884
 21
15.8652
  0
LINE
  8
0
 10
-5.02884
 20
15.8652
 11
-5.08122
 21
15.6884
  0
LINE
  8
0
 10
-5.08122
 20
15.6884
 11
-5.15179
 21
15.518
  0
LINE
  8
0
 10
-5.15179
 20
15.518
 11
-5.23978
 21
15.3559
  0
LINE
  8
0
 10
-5.23978
 20
15.3559
 11
-5.34422
 21
15.2039
  0
LINE
  8
0
 10
-5.34422
 20
15.2039
 11
-5.46399
 21
15.0637
  0
LINE
  8
0
 10
-5.46399
 20
15.0637
 11
-5.59775
 21
14.9368
  0
LINE
  8
0
 10
-5.59775
 20
14.9368
 11
-5.74405
 21
14.8245
  0
LINE
  8
0
 10
-5.74405
 20
14.8245
 11
-5.90129
 21
14.7282
  0
LINE
  8
0
 10
-5.90129
 20
14.7282
 11
-6.06772
 21
14.6488
  0
LINE
  8
0
 10
-6.06772
 20
14.6488
 11
-6.24155
 21
14.5872
  0
LINE
  8
0
 10
-6.24155
 20
14.5872
 11
-6.42087
 21
14.5442
  0
LINE
  8
0
 10
-6.42087
 20
14.5442
 11
-6.6037
 21
14.5201
  0
LINE
  8
0
 10
-6.6037
 20
14.5201
 11
-6.78804
 21
14.5153
  0
LINE
  8
0
 10
-6.78804
 20
14.5153
 11
-6.97188
 21
14.5298
  0
LINE
  8
0
 10
-37.607
 20
35.8908
 11
-37.8359
 21
35.9458
  0
LINE
  8
0
 10
-37.8359
 20
35.9458
 11
-38.0533
 21
36.0358
  0
LINE
  8
0
 10
-38.0533
 20
36.0358
 11
-38.254
 21
36.1588
  0
LINE
  8
0
 10
-38.254
 20
36.1588
 11
-38.433
 21
36.3117
  0
LINE
  8
0
 10
-38.433
 20
36.3117
 11
-38.5859
 21
36.4907
  0
LINE
  8
0
 10
-38.5859
 20
36.4907
 11
-38.7089
 21
36.6914
  0
LINE
  8
0
 10
-38.7089
 20
36.6914
 11
-38.7989
 21
36.9088
  0
LINE
  8
0
 10
-38.7989
 20
36.9088
 11
-38.8539
 21
37.1377
  0
LINE
  8
0
 10
-38.8539
 20
37.1377
 11
-38.8724
 21
37.3724
  0
LINE
  8
0
 10
-38.8724
 20
37.3724
 11
-38.8539
 21
37.607
  0
LINE
  8
0
 10
-38.8539
 20
37.607
 11
-38.7989
 21
37.8359
  0
LINE
  8
0
 10
-38.7989
 20
37.8359
 11
-38.7089
 21
38.0533
  0
LINE
  8
0
 10
-38.7089
 20
38.0533
 11
-38.5859
 21
38.254
  0
LINE
  8
0
 10
-38.5859
 20
38.254
 11
-38.433
 21
38.433
  0
LINE
  8
0
 10
-38.433
 20
38.433
 11
-38.254
 21
38.5859
  0
LINE
  8
0
 10
-38.254
 20
38.5859
 11
-38.0533
 21
38.7089
  0
LINE
  8
0
 10
-38.0533
 20
38.7089
 11
-37.8359
 21
38.7989
  0
LINE
  8
0
 10
-37.8359
 20
38.7989
 11
-37.607
 21
38.8539
  0
LINE
  8
0
 10
-37.607
 20
38.8539
 11
-37.3724
 21
38.8724
  0
LINE
  8
0
 10
-37.3724
 20
38.8724
 11
-37.1377
 21
38.8539
  0
LINE
  8
0
 10
-37.1377
 20
38.8539
 11
-36.9088
 21
38.7989
  0
LINE
  8
0
 10
-36.9088
 20
38.7989
 11
-36.6914
 21
38.7089
  0
LINE
  8
0
 10
-36.6914
 20
38.7089
 11
-36.4907
 21
38.5859
  0
LINE
  8
0
 10
-36.4907
 20
38.5859
 11
-36.3117
 21
38.433
  0
LINE
  8
0
 10
-36.3117
 20
38.433
 11
-36.1588
 21
38.254
  0
LINE
  8
0
 10
-36.1588
 20
38.254
 11
-36.0358
 21
38.0533
  0
LINE
  8
0
 10
-36.0358
 20
38.0533
 11
-35.9458
 21
37.8359
  0
LINE
  8
0
 10
-35.9458
 20
37.8359
 11
-35.8908
 21
37.607
  0
LINE
  8
0
 10
-35.8908
 20
37.607
 11
-35.8724
 21
37.3724
  0
LINE
  8
0
 10
-35.8724
 20
37.3724
 11
-35.8908
 21
37.1377
  0
LINE
  8
0
 10
-35.8908
 20
37.1377
 11
-35.9458
 21
36.9088
  0
LINE
  8
0
 10
-35.9458
 20
36.9088
 11
-36.0358
 21
36.6914
  0
LINE
  8
0
 10
-36.0358
 20
36.6914
 11
-36.1588
 21
36.4907
  0
LINE
  8
0
 10
-36.1588
 20
36.4907
 11
-36.3117
 21
36.3117
  0
LINE
  8
0
 10
-36.3117
 20
36.3117
 11
-36.4907
 21
36.1588
  0
LINE
  8
0
 10
-36.4907
 20
36.1588
 11
-36.6914
 21
36.0358
  0
LINE
  8
0
 10
-36.6914
 20
36.0358
 11
-36.9088
 21
35.9458
  0
LINE
  8
0
 10
-36.9088
 20
35.9458
 11
-37.1377
 21
35.8908
  0
LINE
  8
0
 10
-37.1377
 20
35.8908
 11
-37.3724
 21
35.8724
  0
LINE
  8
0
 10
-37.3724
 20
35.8724
 11
-37.607
 21
35.8908
  0
LINE
  8
0
 10
37.1377
 20
35.8908
 11
36.9088
 21
35.9458
  0
LINE
  8
0
 10
36.9088
 20
35.9458
 11
36.6914
 21
36.0358
  0
LINE
  8
0
 10
36.6914
 20
36.0358
 11
36.4907
 21
36.1588
  0
LINE
  8
0
 10
36.4907
 20
36.1588
 11
36.3117
 21
36.3117
  0
LINE
  8
0
 10
36.3117
 20
36.3117
 11
36.1588
 21
36.4907
  0
LINE
  8
0
 10
36.1588
 20
36.4907
 11
36.0358
 21
36.6914
  0
LINE
  8
0
 10
36.0358
 20
36.6914
 11
35.9458
 21
36.9088
  0
LINE
  8
0
 10
35.9458
 20
36.9088
 11
35.8908
 21
37.1377
  0
LINE
  8
0
 10
35.8908
 20
37.1377
 11
35.8724
 21
37.3724
  0
LINE
  8
0
 10
35.8724
 20
37.3724
 11
35.8908
 21
37.607
  0
LINE
  8
0
 10
35.8908
 20
37.607
 11
35.9458
 21
37.8359
  0
LINE
  8
0
 10
35.9458
 20
37.8359
 11
36.0358
 21
38.0533
  0
LINE
  8
0
 10
36.0358
 20
38.0533
 11
36.1588
 21
38.254
  0
LINE
  8
0
 10
36.1588
 20
38.254
 11
36.3117
 21
38.433
  0
LINE
  8
0
 10
36.3117
 20
38.433
 11
36.4907
 21
38.5859
  0
LINE
  8
0
 10
36.4907
 20
38.5859
 11
36.6914
 21
38.7089
  0
LINE
  8
0
 10
36.6914
 20
38.7089
 11
36.9088
 21
38.7989
  0
LINE
  8
0
 10
36.9088
 20
38.7989
 11
37.1377
 21
38.8539
  0
LINE
  8
0
 10
37.1377
 20
38.8539
 11
37.3724
 21
38.8724
  0
LINE
  8
0
 10
37.3724
 20
38.8724
 11
37.607
 21
38.8539
  0
LINE
  8
0
 10
37.607
 20
38.8539
 11
37.8359
 21
38.7989
  0
LINE
  8
0
 10
37.8359
 20
38.7989
 11
38.0533
 21
38.7089
  0
LINE
  8
0
 10
38.0533
 20
38.7089
 11
38.254
 21
38.5859
  0
LINE
  8
0
 10
38.254
 20
38.5859
 11
38.433
 21
38.433
  0
LINE
  8
0
 10
38.433
 20
38.433
 11
38.5859
 21
38.254
  0
LINE
  8
0
 10
38.5859
 20
38.254
 11
38.7089
 21
38.0533
  0
LINE
  8
0
 10
38.7089
 20
38.0533
 11
38.7989
 21
37.8359
  0
LINE
  8
0
 10
38.7989
 20
37.8359
 11
38.8539
 21
37.607
  0
LINE
  8
0
 10
38.8539
 20
37.607
 11
38.8724
 21
37.3724
  0
LINE
  8
0
 10
38.8724
 20
37.3724
 11
38.8539
 21
37.1377
  0
LINE
  8
0
 10
38.8539
 20
37.1377
 11
38.7989
 21
36.9088
  0
LINE
  8
0
 10
38.7989
 20
36.9088
 11
38.7089
 21
36.6914
  0
LINE
  8
0
 10
38.7089
 20
36.6914
 11
38.5859
 21
36.4907
  0
LINE
  8
0
 10
38.5859
 20
36.4907
 11
38.433
 21
36.3117
  0
LINE
  8
0
 10
38.433
 20
36.3117
 11
38.254
 21
36.1588
  0
LINE
  8
0
 10
38.254
 20
36.1588
 11
38.0533
 21
36.0358
  0
LINE
  8
0
 10
38.0533
 20
36.0358
 11
37.8359
 21
35.9458
  0
LINE
  8
0
 10
37.8359
 20
35.9458
 11
37.607
 21
35.8908
  0
LINE
  8
0
 10
37.607
 20
35.8908
 11
37.3724
 21
35.8724
  0
LINE
  8
0
 10
37.3724
 20
35.8724
 11
37.1377
 21
35.8908
  0
LINE
  8
0
 10
16.0465
 20
4.99524
 11
15.8652
 21
5.02884
  0
LINE
  8
0
 10
15.8652
 20
5.02884
 11
15.6884
 21
5.08122
  0
LINE
  8
0
 10
15.6884
 20
5.08122
 11
15.518
 21
5.15179
  0
LINE
  8
0
 10
15.518
 20
5.15179
 11
15.3559
 21
5.23978
  0
LINE
  8
0
 10
15.3559
 20
5.23978
 11
15.2039
 21
5.34422
  0
LINE
  8
0
 10
15.2039
 20
5.34422
 11
15.0637
 21
5.46399
  0
LINE
  8
0
 10
15.0637
 20
5.46399
 11
14.9368
 21
5.59775
  0
LINE
  8
0
 10
14.9368
 20
5.59775
 11
14.8245
 21
5.74405
  0
LINE
  8
0
 10
14.8245
 20
5.74405
 11
14.7282
 21
5.90129
  0
LINE
  8
0
 10
14.7282
 20
5.90129
 11
14.6488
 21
6.06772
  0
LINE
  8
0
 10
14.6488
 20
6.06772
 11
14.5872
 21
6.24155
  0
LINE
  8
0
 10
14.5872
 20
6.24155
 11
14.5442
 21
6.42087
  0
LINE
  8
0
 10
14.5442
 20
6.42087
 11
14.5201
 21
6.6037
  0
LINE
  8
0
 10
14.5201
 20
6.6037
 11
14.5153
 21
6.78804
  0
LINE
  8
0
 10
14.5153
 20
6.78804
 11
14.5298
 21
6.97188
  0
LINE
  8
0
 10
14.5298
 20
6.97188
 11
14.5634
 21
7.15318
  0
LINE
  8
0
 10
14.5634
 20
7.15318
 11
14.6157
 21
7.33
  0
LINE
  8
0
 10
14.6157
 20
7.33
 11
14.6863
 21
7.50037
  0
LINE
  8
0
 10
14.6863
 20
7.50037
 11
14.7743
 21
7.66243
  0
LINE
  8
0
 10
14.7743
 20
7.66243
 11
14.8788
 21
7.81441
  0
LINE
  8
0
 10
14.8788
 20
7.81441
 11
14.9985
 21
7.95462
  0
LINE
  8
0
 10
14.9985
 20
7.95462
 11
30.5238
 21
22.8053
  0
LINE
  8
0
 10
30.5238
 20
22.8053
 11
31.3041
 21
23.5457
  0
LINE
  8
0
 10
31.3041
 20
23.5457
 11
32.1575
 21
24.2006
  0
LINE
  8
0
 10
32.1575
 20
24.2006
 11
33.0747
 21
24.7626
  0
LINE
  8
0
 10
33.0747
 20
24.7626
 11
34.0456
 21
25.2257
  0
LINE
  8
0
 10
34.0456
 20
25.2257
 11
35.0596
 21
25.5848
  0
LINE
  8
0
 10
35.0596
 20
25.5848
 11
36.1056
 21
25.8359
  0
LINE
  8
0
 10
36.1056
 20
25.8359
 11
37.1721
 21
25.9763
  0
LINE
  8
0
 10
37.1721
 20
25.9763
 11
38.2474
 21
26.0045
  0
LINE
  8
0
 10
38.2474
 20
26.0045
 11
39.3198
 21
25.9201
  0
LINE
  8
0
 10
39.3198
 20
25.9201
 11
40.3775
 21
25.7241
  0
LINE
  8
0
 10
40.3775
 20
25.7241
 11
41.4089
 21
25.4186
  0
LINE
  8
0
 10
41.4089
 20
25.4186
 11
42.4027
 21
25.0069
  0
LINE
  8
0
 10
42.4027
 20
25.0069
 11
43.348
 21
24.4936
  0
LINE
  8
0
 10
43.348
 20
24.4936
 11
44.2345
 21
23.8843
  0
LINE
  8
0
 10
44.2345
 20
23.8843
 11
45.0525
 21
23.1857
  0
LINE
  8
0
 10
45.0525
 20
23.1857
 11
45.793
 21
22.4054
  0
LINE
  8
0
 10
45.793
 20
22.4054
 11
46.4478
 21
21.552
  0
LINE
  8
0
 10
46.4478
 20
21.552
 11
47.0099
 21
20.6349
  0
LINE
  8
0
 10
47.0099
 20
20.6349
 11
47.473
 21
19.6639
  0
LINE
  8
0
 10
47.473
 20
19.6639
 11
47.832
 21
18.6499
  0
LINE
  8
0
 10
47.832
 20
18.6499
 11
48.0832
 21
17.604
  0
LINE
  8
0
 10
48.0832
 20
17.604
 11
48.2236
 21
16.5375
  0
LINE
  8
0
 10
48.2236
 20
16.5375
 11
48.2517
 21
15.4621
  0
LINE
  8
0
 10
48.2517
 20
15.4621
 11
48.1673
 21
14.3898
  0
LINE
  8
0
 10
48.1673
 20
14.3898
 11
47.9713
 21
13.3321
  0
LINE
  8
0
 10
47.9713
 20
13.3321
 11
47.6658
 21
12.3007
  0
LINE
  8
0
 10
47.6658
 20
12.3007
 11
47.2541
 21
11.3068
  0
LINE
  8
0
 10
47.2541
 20
11.3068
 11
46.7408
 21
10.3615
  0
LINE
  8
0
 10
46.7408
 20
10.3615
 11
46.1316
 21
9.47499
  0
LINE
  8
0
 10
46.1316
 20
9.47499
 11
45.433
 21
8.65701
  0
LINE
  8
0
 10
45.433
 20
8.65701
 11
44.6527
 21
7.91655
  0
LINE
  8
0
 10
44.6527
 20
7.91655
 11
43.7993
 21
7.2617
  0
LINE
  8
0
 10
43.7993
 20
7.2617
 11
42.8821
 21
6.69966
  0
LINE
  8
0
 10
42.8821
 20
6.69966
 11
41.9112
 21
6.23656
  0
LINE
  8
0
 10
41.9112
 20
6.23656
 11
40.8972
 21
5.87749
  0
LINE
  8
0
 10
40.8972
 20
5.87749
 11
39.8512
 21
5.62636
  0
LINE
  8
0
 10
39.8512
 20
5.62636
 11
38.7847
 21
5.48596
  0
LINE
  8
0
 10
38.7847
 20
5.48596
 11
37.7094
 21
5.45779
  0
LINE
  8
0
 10
37.7094
 20
5.45779
 11
16.2303
 21
4.98077
  0
LINE
  8
0
 10
16.2303
 20
4.98077
 11
16.0465
 21
4.99524
  0
LINE
  8
0
 10
-37.7094
 20
5.45779
 11
-38.7847
 21
5.48596
  0
LINE
  8
0
 10
-38.7847
 20
5.48596
 11
-39.8512
 21
5.62636
  0
LINE
  8
0
 10
-39.8512
 20
5.62636
 11
-40.8972
 21
5.87749
  0
LINE
  8
0
 10
-40.8972
 20
5.87749
 11
-41.9112
 21
6.23656
  0
LINE
  8
0
 10
-41.9112
 20
6.23656
 11
-42.8821
 21
6.69966
  0
LINE
  8
0
 10
-42.8821
 20
6.69966
 11
-43.7993
 21
7.2617
  0
LINE
  8
0
 10
-43.7993
 20
7.2617
 11
-44.6527
 21
7.91655
  0
LINE
  8
0
 10
-44.6527
 20
7.91655
 11
-45.433
 21
8.65701
  0
LINE
  8
0
 10
-45.433
 20
8.65701
 11
-46.1316
 21
9.47499
  0
LINE
  8
0
 10
-46.1316
 20
9.47499
 11
-46.7408
 21
10.3615
  0
LINE
  8
0
 10
-46.7408
 20
10.3615
 11
-47.2541
 21
11.3068
  0
LINE
  8
0
 10
-47.2541
 20
11.3068
 11
-47.6658
 21
12.3007
  0
LINE
  8
0
 10
-47.6658
 20
12.3007
 11
-47.9713
 21
13.3321
  0
LINE
  8
0
 10
-47.9713
 20
13.3321
 11
-48.1673
 21
14.3898
  0
LINE
  8
0
 10
-48.1673
 20
14.3898
 11
-48.2517
 21
15.4621
  0
LINE
  8
0
 10
-48.2517
 20
15.4621
 11
-48.2236
 21
16.5375
  0
LINE
  8
0
 10
-48.2236
 20
16.5375
 11
-48.0832
 21
17.604
  0
LINE
  8
0
 10
-48.0832
 20
17.604
 11
-47.832
 21
18.6499
  0
LINE
  8
0
 10
-47.832
 20
18.6499
 11
-47.473
 21
19.6639
  0
LINE
  8
0
 10
-47.473
 20
19.6639
 11
-47.0099
 21
20.6349
  0
LINE
  8
0
 10
-47.0099
 20
20.6349
 11
-46.4478
 21
21.552
  0
LINE
  8
0
 10
-46.4478
 20
21.552
 11
-45.793
 21
22.4054
  0
LINE
  8
0
 10
-45.793
 20
22.4054
 11
-45.0525
 21
23.1857
  0
LINE
  8
0
 10
-45.0525
 20
23.1857
 11
-44.2345
 21
23.8843
  0
LINE
  8
0
 10
-44.2345
 20
23.8843
 11
-43.348
 21
24.4936
  0
LINE
  8
0
 10
-43.348
 20
24.4936
 11
-42.4027
 21
25.0069
  0
LINE
  8
0
 10
-42.4027
 20
25.0069
 11
-41.4089
 21
25.4186
  0
LINE
  8
0
 10
-41.4089
 20
25.4186
 11
-40.3775
 21
25.7241
  0
LINE
  8
0
 10
-40.3775
 20
25.7241
 11
-39.3198
 21
25.9201
  0
LINE
  8
0
 10
-39.3198
 20
25.9201
 11
-38.2474
 21
26.0045
  0
LINE
  8
0
 10
-38.2474
 20
26.0045
 11
-37.1721
 21
25.9763
  0
LINE
  8
0
 10
-37.1721
 20
25.9763
 11
-36.1056
 21
25.8359
  0
LINE
  8
0
 10
-36.1056
 20
25.8359
 11
-35.0596
 21
25.5848
  0
LINE
  8
0
 10
-35.0596
 20
25.5848
 11
-34.0456
 21
25.2257
  0
LINE
  8
0
 10
-34.0456
 20
25.2257
 11
-33.0747
 21
24.7626
  0
LINE
  8
0
 10
-33.0747
 20
24.7626
 11
-32.1575
 21
24.2006
  0
LINE
  8
0
 10
-32.1575
 20
24.2006
 11
-31.3041
 21
23.5457
  0
LINE
  8
0
 10
-31.3041
 20
23.5457
 11
-30.5238
 21
22.8053
  0
LINE
  8
0
 10
-30.5238
 20
22.8053
 11
-14.9985
 21
7.95462
  0
LINE
  8
0
 10
-14.9985
 20
7.95462
 11
-14.8788
 21
7.81441
  0
LINE
  8
0
 10
-14.8788
 20
7.81441
 11
-14.7743
 21
7.66243
  0
LINE
  8
0
 10
-14.7743
 20
7.66243
 11
-14.6863
 21
7.50037
  0
LINE
  8
0
 10
-14.6863
 20
7.50037
 11
-14.6157
 21
7.33
  0
LINE
  8
0
 10
-14.6157
 20
7.33
 11
-14.5634
 21
7.15318
  0
LINE
  8
0
 10
-14.5634
 20
7.15318
 11
-14.5298
 21
6.97188
  0
LINE
  8
0
 10
-14.5298
 20
6.97188
 11
-14.5153
 21
6.78804
  0
LINE
  8
0
 10
-14.5153
 20
6.78804
 11
-14.5201
 21
6.6037
  0
LINE
  8
0
 10
-14.5201
 20
6.6037
 11
-14.5442
 21
6.42087
  0
LINE
  8
0
 10
-14.5442
 20
6.42087
 11
-14.5872
 21
6.24155
  0
LINE
  8
0
 10
-14.5872
 20
6.24155
 11
-14.6488
 21
6.06772
  0
LINE
  8
0
 10
-14.6488
 20
6.06772
 11
-14.7282
 21
5.90129
  0
LINE
  8
0
 10
-14.7282
 20
5.90129
 11
-14.8245
 21
5.74405
  0
LINE
  8
0
 10
-14.8245
 20
5.74405
 11
-14.9368
 21
5.59775
  0
LINE
  8
0
 10
-14.9368
 20
5.59775
 11
-15.0637
 21
5.46399
  0
LINE
  8
0
 10
-15.0637
 20
5.46399
 11
-15.2039
 21
5.34422
  0
LINE
  8
0
 10
-15.2039
 20
5.34422
 11
-15.3559
 21
5.23978
  0
LINE
  8
0
 10
-15.3559
 20
5.23978
 11
-15.518
 21
5.15179
  0
LINE
  8
0
 10
-15.518
 20
5.15179
 11
-15.6884
 21
5.08122
  0
LINE
  8
0
 10
-15.6884
 20
5.08122
 11
-15.8652
 21
5.02884
  0
LINE
  8
0
 10
-15.8652
 20
5.02884
 11
-16.0465
 21
4.99524
  0
LINE
  8
0
 10
-16.0465
 20
4.99524
 11
-16.2303
 21
4.98077
  0
LINE
  8
0
 10
-16.2303
 20
4.98077
 11
-37.7094
 21
5.45779
  0
LINE
  8
0
 10
-0.23465
 20
10.3272
 11
-0.463516
 21
10.3822
  0
LINE
  8
0
 10
-0.463516
 20
10.3822
 11
-0.680984
 21
10.4722
  0
LINE
  8
0
 10
-0.680984
 20
10.4722
 11
-0.881668
 21
10.5952
  0
LINE
  8
0
 10
-0.881668
 20
10.5952
 11
-1.06065
 21
10.7481
  0
LINE
  8
0
 10
-1.06065
 20
10.7481
 11
-1.21352
 21
10.9271
  0
LINE
  8
0
 10
-1.21352
 20
10.9271
 11
-1.3365
 21
11.1278
  0
LINE
  8
0
 10
-1.3365
 20
11.1278
 11
-1.42657
 21
11.3452
  0
LINE
  8
0
 10
-1.42657
 20
11.3452
 11
-1.48152
 21
11.5741
  0
LINE
  8
0
 10
-1.48152
 20
11.5741
 11
-1.49998
 21
11.8087
  0
LINE
  8
0
 10
-1.49998
 20
11.8087
 11
-1.48152
 21
12.0434
  0
LINE
  8
0
 10
-1.48152
 20
12.0434
 11
-1.42657
 21
12.2723
  0
LINE
  8
0
 10
-1.42657
 20
12.2723
 11
-1.3365
 21
12.4897
  0
LINE
  8
0
 10
-1.3365
 20
12.4897
 11
-1.21352
 21
12.6904
  0
LINE
  8
0
 10
-1.21352
 20
12.6904
 11
-1.06065
 21
12.8694
  0
LINE
  8
0
 10
-1.06065
 20
12.8694
 11
-0.881668
 21
13.0223
  0
LINE
  8
0
 10
-0.881668
 20
13.0223
 11
-0.680984
 21
13.1452
  0
LINE
  8
0
 10
-0.680984
 20
13.1452
 11
-0.463516
 21
13.2353
  0
LINE
  8
0
 10
-0.463516
 20
13.2353
 11
-0.23465
 21
13.2903
  0
LINE
  8
0
 10
-0.23465
 20
13.2903
 11
0
 21
13.3087
  0
LINE
  8
0
 10
0
 20
13.3087
 11
0.23465
 21
13.2903
  0
LINE
  8
0
 10
0.23465
 20
13.2903
 11
0.463516
 21
13.2353
  0
LINE
  8
0
 10
0.463516
 20
13.2353
 11
0.680984
 21
13.1452
  0
LINE
  8
0
 10
0.680984
 20
13.1452
 11
0.881668
 21
13.0223
  0
LINE
  8
0
 10
0.881668
 20
13.0223
 11
1.06065
 21
12.8694
  0
LINE
  8
0
 10
1.06065
 20
12.8694
 11
1.21352
 21
12.6904
  0
LINE
  8
0
 10
1.21352
 20
12.6904
 11
1.3365
 21
12.4897
  0
LINE
  8
0
 10
1.3365
 20
12.4897
 11
1.42657
 21
12.2723
  0
LINE
  8
0
 10
1.42657
 20
12.2723
 11
1.48152
 21
12.0434
  0
LINE
  8
0
 10
1.48152
 20
12.0434
 11
1.5
 21
11.8087
  0
LINE
  8
0
 10
1.5
 20
11.8087
 11
1.48152
 21
11.5741
  0
LINE
  8
0
 10
1.48152
 20
11.5741
 11
1.42657
 21
11.3452
  0
LINE
  8
0
 10
1.42657
 20
11.3452
 11
1.3365
 21
11.1278
  0
LINE
  8
0
 10
1.3365
 20
11.1278
 11
1.21352
 21
10.9271
  0
LINE
  8
0
 10
1.21352
 20
10.9271
 11
1.06065
 21
10.7481
  0
LINE
  8
0
 10
1.06065
 20
10.7481
 11
0.881668
 21
10.5952
  0
LINE
  8
0
 10
0.881668
 20
10.5952
 11
0.680984
 21
10.4722
  0
LINE
  8
0
 10
0.680984
 20
10.4722
 11
0.463516
 21
10.3822
  0
LINE
  8
0
 10
0.463516
 20
10.3822
 11
0.23465
 21
10.3272
  0
LINE
  8
0
 10
0.23465
 20
10.3272
 11
0
 21
10.3087
  0
LINE
  8
0
 10
0
 20
10.3087
 11
-0.23465
 21
10.3272
  0
LINE
  8
0
 10
-0.466827
 20
-5.93166
 11
-0.930771
 21
-5.87674
  0
LINE
  8
0
 10
-0.930771
 20
-5.87674
 11
-1.38899
 21
-5.7856
  0
LINE
  8
0
 10
-1.38899
 20
-5.7856
 11
-1.83864
 21
-5.65878
  0
LINE
  8
0
 10
-1.83864
 20
-5.65878
 11
-2.27696
 21
-5.49707
  0
LINE
  8
0
 10
-2.27696
 20
-5.49707
 11
-2.70123
 21
-5.30148
  0
LINE
  8
0
 10
-2.70123
 20
-5.30148
 11
-3.10886
 21
-5.0732
  0
LINE
  8
0
 10
-3.10886
 20
-5.0732
 11
-3.49731
 21
-4.81364
  0
LINE
  8
0
 10
-3.49731
 20
-4.81364
 11
-3.86421
 21
-4.52441
  0
LINE
  8
0
 10
-3.86421
 20
-4.52441
 11
-4.20728
 21
-4.20728
  0
LINE
  8
0
 10
-4.20728
 20
-4.20728
 11
-4.52441
 21
-3.86421
  0
LINE
  8
0
 10
-4.52441
 20
-3.86421
 11
-4.81364
 21
-3.49731
  0
LINE
  8
0
 10
-4.81364
 20
-3.49731
 11
-5.0732
 21
-3.10886
  0
LINE
  8
0
 10
-5.0732
 20
-3.10886
 11
-5.30148
 21
-2.70123
  0
LINE
  8
0
 10
-5.30148
 20
-2.70123
 11
-5.49707
 21
-2.27696
  0
LINE
  8
0
 10
-5.49707
 20
-2.27696
 11
-5.65878
 21
-1.83864
  0
LINE
  8
0
 10
-5.65878
 20
-1.83864
 11
-5.7856
 21
-1.38899
  0
LINE
  8
0
 10
-5.7856
 20
-1.38899
 11
-5.87674
 21
-0.930771
  0
LINE
  8
0
 10
-5.87674
 20
-0.930771
 11
-5.93166
 21
-0.466827
  0
LINE
  8
0
 10
-5.93166
 20
-0.466827
 11
-5.95
 21
0
  0
LINE
  8
0
 10
-5.95
 20
0
 11
-5.93166
 21
0.466827
  0
LINE
  8
0
 10
-5.93166
 20
0.466827
 11
-5.87674
 21
0.930771
  0
LINE
  8
0
 10
-5.87674
 20
0.930771
 11
-5.7856
 21
1.38899
  0
LINE
  8
0
 10
-5.7856
 20
1.38899
 11
-5.65878
 21
1.83864
  0
LINE
  8
0
 10
-5.65878
 20
1.83864
 11
-5.49707
 21
2.27696
  0
LINE
  8
0
 10
-5.49707
 20
2.27696
 11
-5.30148
 21
2.70123
  0
LINE
  8
0
 10
-5.30148
 20
2.70123
 11
-5.0732
 21
3.10886
  0
LINE
  8
0
 10
-5.0732
 20
3.10886
 11
-4.81364
 21
3.49731
  0
LINE
  8
0
 10
-4.81364
 20
3.49731
 11
-4.52441
 21
3.86421
  0
LINE
  8
0
 10
-4.52441
 20
3.86421
 11
-4.20728
 21
4.20728
  0
LINE
  8
0
 10
-4.20728
 20
4.20728
 11
-3.86421
 21
4.52441
  0
LINE
  8
0
 10
-3.86421
 20
4.52441
 11
-3.49731
 21
4.81364
  0
LINE
  8
0
 10
-3.49731
 20
4.81364
 11
-3.10886
 21
5.0732
  0
LINE
  8
0
 10
-3.10886
 20
5.0732
 11
-2.70123
 21
5.30148
  0
LINE
  8
0
 10
-2.70123
 20
5.30148
 11
-2.27696
 21
5.49707
  0
LINE
  8
0
 10
-2.27696
 20
5.49707
 11
-1.83864
 21
5.65878
  0
LINE
  8
0
 10
-1.83864
 20
5.65878
 11
-1.38899
 21
5.7856
  0
LINE
  8
0
 10
-1.38899
 20
5.7856
 11
-0.930771
 21
5.87674
  0
LINE
  8
0
 10
-0.930771
 20
5.87674
 11
-0.466827
 21
5.93166
  0
LINE
  8
0
 10
-0.466827
 20
5.93166
 11
0
 21
5.95
  0
LINE
  8
0
 10
0
 20
5.95
 11
0.466827
 21
5.93166
  0
LINE
  8
0
 10
0.466827
 20
5.93166
 11
0.930771
 21
5.87674
  0
LINE
  8
0
 10
0.930771
 20
5.87674
 11
1.38899
 21
5.7856
  0
LINE
  8
0
 10
1.38899
 20
5.7856
 11
1.83864
 21
5.65878
  0
LINE
  8
0
 10
1.83864
 20
5.65878
 11
2.27696
 21
5.49707
  0
LINE
  8
0
 10
2.27696
 20
5.49707
 11
2.70123
 21
5.30148
  0
LINE
  8
0
 10
2.70123
 20
5.30148
 11
3.10886
 21
5.0732
  0
LINE
  8
0
 10
3.10886
 20
5.0732
 11
3.49731
 21
4.81364
  0
LINE
  8
0
 10
3.49731
 20
4.81364
 11
3.86421
 21
4.52441
  0
LINE
  8
0
 10
3.86421
 20
4.52441
 11
4.20728
 21
4.20728
  0
LINE
  8
0
 10
4.20728
 20
4.20728
 11
4.52441
 21
3.86421
  0
LINE
  8
0
 10
4.52441
 20
3.86421
 11
4.81364
 21
3.49731
  0
LINE
  8
0
 10
4.81364
 20
3.49731
 11
5.0732
 21
3.10886
  0
LINE
  8
0
 10
5.0732
 20
3.10886
 11
5.30148
 21
2.70123
  0
LINE
  8
0
 10
5.30148
 20
2.70123
 11
5.49707
 21
2.27696
  0
LINE
  8
0
 10
5.49707
 20
2.27696
 11
5.65878
 21
1.83864
  0
LINE
  8
0
 10
5.65878
 20
1.83864
 11
5.7856
 21
1.38899
  0
LINE
  8
0
 10
5.7856
 20
1.38899
 11
5.87674
 21
0.930771
  0
LINE
  8
0
 10
5.87674
 20
0.930771
 11
5.93166
 21
0.466827
  0
LINE
  8
0
 10
5.93166
 20
0.466827
 11
5.95
 21
0
  0
LINE
  8
0
 10
5.95
 20
0
 11
5.93166
 21
-0.466827
  0
LINE
  8
0
 10
5.93166
 20
-0.466827
 11
5.87674
 21
-0.930771
  0
LINE
  8
0
 10
5.87674
 20
-0.930771
 11
5.7856
 21
-1.38899
  0
LINE
  8
0
 10
5.7856
 20
-1.38899
 11
5.65878
 21
-1.83864
  0
LINE
  8
0
 10
5.65878
 20
-1.83864
 11
5.49707
 21
-2.27696
  0
LINE
  8
0
 10
5.49707
 20
-2.27696
 11
5.30148
 21
-2.70123
  0
LINE
  8
0
 10
5.30148
 20
-2.70123
 11
5.0732
 21
-3.10886
  0
LINE
  8
0
 10
5.0732
 20
-3.10886
 11
4.81364
 21
-3.49731
  0
LINE
  8
0
 10
4.81364
 20
-3.49731
 11
4.52441
 21
-3.86421
  0
LINE
  8
0
 10
4.52441
 20
-3.86421
 11
4.20728
 21
-4.20728
  0
LINE
  8
0
 10
4.20728
 20
-4.20728
 11
3.86421
 21
-4.52441
  0
LINE
  8
0
 10
3.86421
 20
-4.52441
 11
3.49731
 21
-4.81364
  0
LINE
  8
0
 10
3.49731
 20
-4.81364
 11
3.10886
 21
-5.0732
  0
LINE
  8
0
 10
3.10886
 20
-5.0732
 11
2.70123
 21
-5.30148
  0
LINE
  8
0
 10
2.70123
 20
-5.30148
 11
2.27696
 21
-5.49707
  0
LINE
  8
0
 10
2.27696
 20
-5.49707
 11
1.83864
 21
-5.65878
  0
LINE
  8
0
 10
1.83864
 20
-5.65878
 11
1.38899
 21
-5.7856
  0
LINE
  8
0
 10
1.38899
 20
-5.7856
 11
0.930771
 21
-5.87674
  0
LINE
  8
0
 10
0.930771
 20
-5.87674
 11
0.466827
 21
-5.93166
  0
LINE
  8
0
 10
0.466827
 20
-5.93166
 11
0
 21
-5.95
  0
LINE
  8
0
 10
0
 20
-5.95
 11
-0.466827
 21
-5.93166
  0
LINE
  8
0
 10
52.6178
 20
-1.48152
 11
52.389
 21
-1.42657
  0
LINE
  8
0
 10
52.389
 20
-1.42657
 11
52.1715
 21
-1.3365
  0
LINE
  8
0
 10
52.1715
 20
-1.3365
 11
51.9708
 21
-1.21352
  0
LINE
  8
0
 10
51.9708
 20
-1.21352
 11
51.7918
 21
-1.06065
  0
LINE
  8
0
 10
51.7918
 20
-1.06065
 11
51.639
 21
-0.881668
  0
LINE
  8
0
 10
51.639
 20
-0.881668
 11
51.516
 21
-0.680984
  0
LINE
  8
0
 10
51.516
 20
-0.680984
 11
51.4259
 21
-0.463516
  0
LINE
  8
0
 10
51.4259
 20
-0.463516
 11
51.371
 21
-0.23465
  0
LINE
  8
0
 10
51.371
 20
-0.23465
 11
51.3525
 21
0
  0
LINE
  8
0
 10
51.3525
 20
0
 11
51.371
 21
0.23465
  0
LINE
  8
0
 10
51.371
 20
0.23465
 11
51.4259
 21
0.463516
  0
LINE
  8
0
 10
51.4259
 20
0.463516
 11
51.516
 21
0.680984
  0
LINE
  8
0
 10
51.516
 20
0.680984
 11
51.639
 21
0.881668
  0
LINE
  8
0
 10
51.639
 20
0.881668
 11
51.7918
 21
1.06065
  0
LINE
  8
0
 10
51.7918
 20
1.06065
 11
51.9708
 21
1.21352
  0
LINE
  8
0
 10
51.9708
 20
1.21352
 11
52.1715
 21
1.3365
  0
LINE
  8
0
 10
52.1715
 20
1.3365
 11
52.389
 21
1.42657
  0
LINE
  8
0
 10
52.389
 20
1.42657
 11
52.6178
 21
1.48152
  0
LINE
  8
0
 10
52.6178
 20
1.48152
 11
52.8525
 21
1.5
  0
LINE
  8
0
 10
52.8525
 20
1.5
 11
53.0871
 21
1.48152
  0
LINE
  8
0
 10
53.0871
 20
1.48152
 11
53.316
 21
1.42657
  0
LINE
  8
0
 10
53.316
 20
1.42657
 11
53.5335
 21
1.3365
  0
LINE
  8
0
 10
53.5335
 20
1.3365
 11
53.7342
 21
1.21352
  0
LINE
  8
0
 10
53.7342
 20
1.21352
 11
53.9131
 21
1.06065
  0
LINE
  8
0
 10
53.9131
 20
1.06065
 11
54.066
 21
0.881668
  0
LINE
  8
0
 10
54.066
 20
0.881668
 11
54.189
 21
0.680984
  0
LINE
  8
0
 10
54.189
 20
0.680984
 11
54.2791
 21
0.463516
  0
LINE
  8
0
 10
54.2791
 20
0.463516
 11
54.334
 21
0.23465
  0
LINE
  8
0
 10
54.334
 20
0.23465
 11
54.3525
 21
0
  0
LINE
  8
0
 10
54.3525
 20
0
 11
54.334
 21
-0.23465
  0
LINE
  8
0
 10
54.334
 20
-0.23465
 11
54.2791
 21
-0.463516
  0
LINE
  8
0
 10
54.2791
 20
-0.463516
 11
54.189
 21
-0.680984
  0
LINE
  8
0
 10
54.189
 20
-0.680984
 11
54.066
 21
-0.881668
  0
LINE
  8
0
 10
54.066
 20
-0.881668
 11
53.9131
 21
-1.06065
  0
LINE
  8
0
 10
53.9131
 20
-1.06065
 11
53.7342
 21
-1.21352
  0
LINE
  8
0
 10
53.7342
 20
-1.21352
 11
53.5335
 21
-1.3365
  0
LINE
  8
0
 10
53.5335
 20
-1.3365
 11
53.316
 21
-1.42657
  0
LINE
  8
0
 10
53.316
 20
-1.42657
 11
53.0871
 21
-1.48152
  0
LINE
  8
0
 10
53.0871
 20
-1.48152
 11
52.8525
 21
-1.5
  0
LINE
  8
0
 10
52.8525
 20
-1.5
 11
52.6178
 21
-1.48152
  0
LINE
  8
0
 10
-53.0871
 20
-1.48152
 11
-53.316
 21
-1.42657
  0
LINE
  8
0
 10
-53.316
 20
-1.42657
 11
-53.5335
 21
-1.3365
  0
LINE
  8
0
 10
-53.5335
 20
-1.3365
 11
-53.7342
 21
-1.21352
  0
LINE
  8
0
 10
-53.7342
 20
-1.21352
 11
-53.9131
 21
-1.06065
  0
LINE
  8
0
 10
-53.9131
 20
-1.06065
 11
-54.066
 21
-0.881668
  0
LINE
  8
0
 10
-54.066
 20
-0.881668
 11
-54.189
 21
-0.680984
  0
LINE
  8
0
 10
-54.189
 20
-0.680984
 11
-54.2791
 21
-0.463516
  0
LINE
  8
0
 10
-54.2791
 20
-0.463516
 11
-54.334
 21
-0.23465
  0
LINE
  8
0
 10
-54.334
 20
-0.23465
 11
-54.3525
 21
0
  0
LINE
  8
0
 10
-54.3525
 20
0
 11
-54.334
 21
0.23465
  0
LINE
  8
0
 10
-54.334
 20
0.23465
 11
-54.2791
 21
0.463516
  0
LINE
  8
0
 10
-54.2791
 20
0.463516
 11
-54.189
 21
0.680984
  0
LINE
  8
0
 10
-54.189
 20
0.680984
 11
-54.066
 21
0.881668
  0
LINE
  8
0
 10
-54.066
 20
0.881668
 11
-53.9131
 21
1.06065
  0
LINE
  8
0
 10
-53.9131
 20
1.06065
 11
-53.7342
 21
1.21352
  0
LINE
  8
0
 10
-53.7342
 20
1.21352
 11
-53.5335
 21
1.3365
  0
LINE
  8
0
 10
-53.5335
 20
1.3365
 11
-53.316
 21
1.42657
  0
LINE
  8
0
 10
-53.316
 20
1.42657
 11
-53.0871
 21
1.48152
  0
LINE
  8
0
 10
-53.0871
 20
1.48152
 11
-52.8525
 21
1.5
  0
LINE
  8
0
 10
-52.8525
 20
1.5
 11
-52.6178
 21
1.48152
  0
LINE
  8
0
 10
-52.6178
 20
1.48152
 11
-52.389
 21
1.42657
  0
LINE
  8
0
 10
-52.389
 20
1.42657
 11
-52.1715
 21
1.3365
  0
LINE
  8
0
 10
-52.1715
 20
1.3365
 11
-51.9708
 21
1.21352
  0
LINE
  8
0
 10
-51.9708
 20
1.21352
 11
-51.7918
 21
1.06065
  0
LINE
  8
0
 10
-51.7918
 20
1.06065
 11
-51.639
 21
0.881668
  0
LINE
  8
0
 10
-51.639
 20
0.881668
 11
-51.516
 21
0.680984
  0
LINE
  8
0
 10
-51.516
 20
0.680984
 11
-51.4259
 21
0.463516
  0
LINE
  8
0
 10
-51.4259
 20
0.463516
 11
-51.371
 21
0.23465
  0
LINE
  8
0
 10
-51.371
 20
0.23465
 11
-51.3525
 21
0
  0
LINE
  8
0
 10
-51.3525
 20
0
 11
-51.371
 21
-0.23465
  0
LINE
  8
0
 10
-51.371
 20
-0.23465
 11
-51.4259
 21
-0.463516
  0
LINE
  8
0
 10
-51.4259
 20
-0.463516
 11
-51.516
 21
-0.680984
  0
LINE
  8
0
 10
-51.516
 20
-0.680984
 11
-51.639
 21
-0.881668
  0
LINE
  8
0
 10
-51.639
 20
-0.881668
 11
-51.7918
 21
-1.06065
  0
LINE
  8
0
 10
-51.7918
 20
-1.06065
 11
-51.9708
 21
-1.21352
  0
LINE
  8
0
 10
-51.9708
 20
-1.21352
 11
-52.1715
 21
-1.3365
  0
LINE
  8
0
 10
-52.1715
 20
-1.3365
 11
-52.389
 21
-1.42657
  0
LINE
  8
0
 10
-52.389
 20
-1.42657
 11
-52.6178
 21
-1.48152
  0
LINE
  8
0
 10
-52.6178
 20
-1.48152
 11
-52.8525
 21
-1.49998
  0
LINE
  8
0
 10
-52.8525
 20
-1.49998
 11
-53.0871
 21
-1.48152
  0
LINE
  8
0
 10
-12.0434
 20
-1.48152
 11
-12.2723
 21
-1.42657
  0
LINE
  8
0
 10
-12.2723
 20
-1.42657
 11
-12.4897
 21
-1.3365
  0
LINE
  8
0
 10
-12.4897
 20
-1.3365
 11
-12.6904
 21
-1.21352
  0
LINE
  8
0
 10
-12.6904
 20
-1.21352
 11
-12.8694
 21
-1.06065
  0
LINE
  8
0
 10
-12.8694
 20
-1.06065
 11
-13.0223
 21
-0.881668
  0
LINE
  8
0
 10
-13.0223
 20
-0.881668
 11
-13.1452
 21
-0.680984
  0
LINE
  8
0
 10
-13.1452
 20
-0.680984
 11
-13.2353
 21
-0.463516
  0
LINE
  8
0
 10
-13.2353
 20
-0.463516
 11
-13.2903
 21
-0.23465
  0
LINE
  8
0
 10
-13.2903
 20
-0.23465
 11
-13.3087
 21
0
  0
LINE
  8
0
 10
-13.3087
 20
0
 11
-13.2903
 21
0.23465
  0
LINE
  8
0
 10
-13.2903
 20
0.23465
 11
-13.2353
 21
0.463516
  0
LINE
  8
0
 10
-13.2353
 20
0.463516
 11
-13.1452
 21
0.680984
  0
LINE
  8
0
 10
-13.1452
 20
0.680984
 11
-13.0223
 21
0.881668
  0
LINE
  8
0
 10
-13.0223
 20
0.881668
 11
-12.8694
 21
1.06065
  0
LINE
  8
0
 10
-12.8694
 20
1.06065
 11
-12.6904
 21
1.21352
  0
LINE
  8
0
 10
-12.6904
 20
1.21352
 11
-12.4897
 21
1.3365
  0
LINE
  8
0
 10
-12.4897
 20
1.3365
 11
-12.2723
 21
1.42657
  0
LINE
  8
0
 10
-12.2723
 20
1.42657
 11
-12.0434
 21
1.48152
  0
LINE
  8
0
 10
-12.0434
 20
1.48152
 11
-11.8087
 21
1.5
  0
LINE
  8
0
 10
-11.8087
 20
1.5
 11
-11.5741
 21
1.48152
  0
LINE
  8
0
 10
-11.5741
 20
1.48152
 11
-11.3452
 21
1.42657
  0
LINE
  8
0
 10
-11.3452
 20
1.42657
 11
-11.1278
 21
1.3365
  0
LINE
  8
0
 10
-11.1278
 20
1.3365
 11
-10.9271
 21
1.21352
  0
LINE
  8
0
 10
-10.9271
 20
1.21352
 11
-10.7481
 21
1.06065
  0
LINE
  8
0
 10
-10.7481
 20
1.06065
 11
-10.5952
 21
0.881668
  0
LINE
  8
0
 10
-10.5952
 20
0.881668
 11
-10.4722
 21
0.680984
  0
LINE
  8
0
 10
-10.4722
 20
0.680984
 11
-10.3822
 21
0.463516
  0
LINE
  8
0
 10
-10.3822
 20
0.463516
 11
-10.3272
 21
0.23465
  0
LINE
  8
0
 10
-10.3272
 20
0.23465
 11
-10.3087
 21
0
  0
LINE
  8
0
 10
-10.3087
 20
0
 11
-10.3272
 21
-0.23465
  0
LINE
  8
0
 10
-10.3272
 20
-0.23465
 11
-10.3822
 21
-0.463516
  0
LINE
  8
0
 10
-10.3822
 20
-0.463516
 11
-10.4722
 21
-0.680984
  0
LINE
  8
0
 10
-10.4722
 20
-0.680984
 11
-10.5952
 21
-0.881668
  0
LINE
  8
0
 10
-10.5952
 20
-0.881668
 11
-10.7481
 21
-1.06065
  0
LINE
  8
0
 10
-10.7481
 20
-1.06065
 11
-10.9271
 21
-1.21352
  0
LINE
  8
0
 10
-10.9271
 20
-1.21352
 11
-11.1278
 21
-1.3365
  0
LINE
  8
0
 10
-11.1278
 20
-1.3365
 11
-11.3452
 21
-1.42657
  0
LINE
  8
0
 10
-11.3452
 20
-1.42657
 11
-11.5741
 21
-1.48152
  0
LINE
  8
0
 10
-11.5741
 20
-1.48152
 11
-11.8087
 21
-1.49998
  0
LINE
  8
0
 10
-11.8087
 20
-1.49998
 11
-12.0434
 21
-1.48152
  0
LINE
  8
0
 10
11.5741
 20
-1.48152
 11
11.3452
 21
-1.42657
  0
LINE
  8
0
 10
11.3452
 20
-1.42657
 11
11.1278
 21
-1.3365
  0
LINE
  8
0
 10
11.1278
 20
-1.3365
 11
10.9271
 21
-1.21352
  0
LINE
  8
0
 10
10.9271
 20
-1.21352
 11
10.7481
 21
-1.06065
  0
LINE
  8
0
 10
10.7481
 20
-1.06065
 11
10.5952
 21
-0.881668
  0
LINE
  8
0
 10
10.5952
 20
-0.881668
 11
10.4722
 21
-0.680984
  0
LINE
  8
0
 10
10.4722
 20
-0.680984
 11
10.3822
 21
-0.463516
  0
LINE
  8
0
 10
10.3822
 20
-0.463516
 11
10.3272
 21
-0.23465
  0
LINE
  8
0
 10
10.3272
 20
-0.23465
 11
10.3087
 21
0
  0
LINE
  8
0
 10
10.3087
 20
0
 11
10.3272
 21
0.23465
  0
LINE
  8
0
 10
10.3272
 20
0.23465
 11
10.3822
 21
0.463516
  0
LINE
  8
0
 10
10.3822
 20
0.463516
 11
10.4722
 21
0.680984
  0
LINE
  8
0
 10
10.4722
 20
0.680984
 11
10.5952
 21
0.881668
  0
LINE
  8
0
 10
10.5952
 20
0.881668
 11
10.7481
 21
1.06065
  0
LINE
  8
0
 10
10.7481
 20
1.06065
 11
10.9271
 21
1.21352
  0
LINE
  8
0
 10
10.9271
 20
1.21352
 11
11.1278
 21
1.3365
  0
LINE
  8
0
 10
11.1278
 20
1.3365
 11
11.3452
 21
1.42657
  0
LINE
  8
0
 10
11.3452
 20
1.42657
 11
11.5741
 21
1.48152
  0
LINE
  8
0
 10
11.5741
 20
1.48152
 11
11.8087
 21
1.5
  0
LINE
  8
0
 10
11.8087
 20
1.5
 11
12.0434
 21
1.48152
  0
LINE
  8
0
 10
12.0434
 20
1.48152
 11
12.2723
 21
1.42657
  0
LINE
  8
0
 10
12.2723
 20
1.42657
 11
12.4897
 21
1.3365
  0
LINE
  8
0
 10
12.4897
 20
1.3365
 11
12.6904
 21
1.21352
  0
LINE
  8
0
 10
12.6904
 20
1.21352
 11
12.8694
 21
1.06065
  0
LINE
  8
0
 10
12.8694
 20
1.06065
 11
13.0223
 21
0.881668
  0
LINE
  8
0
 10
13.0223
 20
0.881668
 11
13.1452
 21
0.680984
  0
LINE
  8
0
 10
13.1452
 20
0.680984
 11
13.2353
 21
0.463516
  0
LINE
  8
0
 10
13.2353
 20
0.463516
 11
13.2903
 21
0.23465
  0
LINE
  8
0
 10
13.2903
 20
0.23465
 11
13.3087
 21
0
  0
LINE
  8
0
 10
13.3087
 20
0
 11
13.2903
 21
-0.23465
  0
LINE
  8
0
 10
13.2903
 20
-0.23465
 11
13.2353
 21
-0.463516
  0
LINE
  8
0
 10
13.2353
 20
-0.463516
 11
13.1452
 21
-0.680984
  0
LINE
  8
0
 10
13.1452
 20
-0.680984
 11
13.0223
 21
-0.881668
  0
LINE
  8
0
 10
13.0223
 20
-0.881668
 11
12.8694
 21
-1.06065
  0
LINE
  8
0
 10
12.8694
 20
-1.06065
 11
12.6904
 21
-1.21352
  0
LINE
  8
0
 10
12.6904
 20
-1.21352
 11
12.4897
 21
-1.3365
  0
LINE
  8
0
 10
12.4897
 20
-1.3365
 11
12.2723
 21
-1.42657
  0
LINE
  8
0
 10
12.2723
 20
-1.42657
 11
12.0434
 21
-1.48152
  0
LINE
  8
0
 10
12.0434
 20
-1.48152
 11
11.8087
 21
-1.5
  0
LINE
  8
0
 10
11.8087
 20
-1.5
 11
11.5741
 21
-1.48152
  0
LINE
  8
0
 10
-39.3198
 20
-25.9201
 11
-40.3775
 21
-25.7241
  0
LINE
  8
0
 10
-40.3775
 20
-25.7241
 11
-41.4089
 21
-25.4186
  0
LINE
  8
0
 10
-41.4089
 20
-25.4186
 11
-42.4027
 21
-25.0069
  0
LINE
  8
0
 10
-42.4027
 20
-25.0069
 11
-43.348
 21
-24.4936
  0
LINE
  8
0
 10
-43.348
 20
-24.4936
 11
-44.2345
 21
-23.8843
  0
LINE
  8
0
 10
-44.2345
 20
-23.8843
 11
-45.0525
 21
-23.1857
  0
LINE
  8
0
 10
-45.0525
 20
-23.1857
 11
-45.793
 21
-22.4054
  0
LINE
  8
0
 10
-45.793
 20
-22.4054
 11
-46.4478
 21
-21.552
  0
LINE
  8
0
 10
-46.4478
 20
-21.552
 11
-47.0099
 21
-20.6349
  0
LINE
  8
0
 10
-47.0099
 20
-20.6349
 11
-47.473
 21
-19.6639
  0
LINE
  8
0
 10
-47.473
 20
-19.6639
 11
-47.832
 21
-18.6499
  0
LINE
  8
0
 10
-47.832
 20
-18.6499
 11
-48.0832
 21
-17.604
  0
LINE
  8
0
 10
-48.0832
 20
-17.604
 11
-48.2236
 21
-16.5375
  0
LINE
  8
0
 10
-48.2236
 20
-16.5375
 11
-48.2517
 21
-15.4621
  0
LINE
  8
0
 10
-48.2517
 20
-15.4621
 11
-48.1673
 21
-14.3898
  0
LINE
  8
0
 10
-48.1673
 20
-14.3898
 11
-47.9713
 21
-13.3321
  0
LINE
  8
0
 10
-47.9713
 20
-13.3321
 11
-47.6658
 21
-12.3007
  0
LINE
  8
0
 10
-47.6658
 20
-12.3007
 11
-47.2541
 21
-11.3068
  0
LINE
  8
0
 10
-47.2541
 20
-11.3068
 11
-46.7408
 21
-10.3615
  0
LINE
  8
0
 10
-46.7408
 20
-10.3615
 11
-46.1316
 21
-9.47499
  0
LINE
  8
0
 10
-46.1316
 20
-9.47499
 11
-45.433
 21
-8.65701
  0
LINE
  8
0
 10
-45.433
 20
-8.65701
 11
-44.6527
 21
-7.91655
  0
LINE
  8
0
 10
-44.6527
 20
-7.91655
 11
-43.7993
 21
-7.2617
  0
LINE
  8
0
 10
-43.7993
 20
-7.2617
 11
-42.8821
 21
-6.69966
  0
LINE
  8
0
 10
-42.8821
 20
-6.69966
 11
-41.9112
 21
-6.23656
  0
LINE
  8
0
 10
-41.9112
 20
-6.23656
 11
-40.8972
 21
-5.87749
  0
LINE
  8
0
 10
-40.8972
 20
-5.87749
 11
-39.8512
 21
-5.62636
  0
LINE
  8
0
 10
-39.8512
 20
-5.62636
 11
-38.7847
 21
-5.48596
  0
LINE
  8
0
 10
-38.7847
 20
-5.48596
 11
-37.7094
 21
-5.45779
  0
LINE
  8
0
 10
-37.7094
 20
-5.45779
 11
-16.2303
 21
-4.98077
  0
LINE
  8
0
 10
-16.2303
 20
-4.98077
 11
-16.0465
 21
-4.99524
  0
LINE
  8
0
 10
-16.0465
 20
-4.99524
 11
-15.8652
 21
-5.02884
  0
LINE
  8
0
 10
-15.8652
 20
-5.02884
 11
-15.6884
 21
-5.08122
  0
LINE
  8
0
 10
-15.6884
 20
-5.08122
 11
-15.518
 21
-5.15179
  0
LINE
  8
0
 10
-15.518
 20
-5.15179
 11
-15.3559
 21
-5.23978
  0
LINE
  8
0
 10
-15.3559
 20
-5.23978
 11
-15.2039
 21
-5.34422
  0
LINE
  8
0
 10
-15.2039
 20
-5.34422
 11
-15.0637
 21
-5.46399
  0
LINE
  8
0
 10
-15.0637
 20
-5.46399
 11
-14.9368
 21
-5.59775
  0
LINE
  8
0
 10
-14.9368
 20
-5.59775
 11
-14.8245
 21
-5.74405
  0
LINE
  8
0
 10
-14.8245
 20
-5.74405
 11
-14.7282
 21
-5.90129
  0
LINE
  8
0
 10
-14.7282
 20
-5.90129
 11
-14.6488
 21
-6.06772
  0
LINE
  8
0
 10
-14.6488
 20
-6.06772
 11
-14.5872
 21
-6.24155
  0
LINE
  8
0
 10
-14.5872
 20
-6.24155
 11
-14.5442
 21
-6.42087
  0
LINE
  8
0
 10
-14.5442
 20
-6.42087
 11
-14.5201
 21
-6.6037
  0
LINE
  8
0
 10
-14.5201
 20
-6.6037
 11
-14.5153
 21
-6.78804
  0
LINE
  8
0
 10
-14.5153
 20
-6.78804
 11
-14.5298
 21
-6.97188
  0
LINE
  8
0
 10
-14.5298
 20
-6.97188
 11
-14.5634
 21
-7.15318
  0
LINE
  8
0
 10
-14.5634
 20
-7.15318
 11
-14.6157
 21
-7.33
  0
LINE
  8
0
 10
-14.6157
 20
-7.33
 11
-14.6863
 21
-7.50037
  0
LINE
  8
0
 10
-14.6863
 20
-7.50037
 11
-14.7743
 21
-7.66243
  0
LINE
  8
0
 10
-14.7743
 20
-7.66243
 11
-14.8788
 21
-7.81441
  0
LINE
  8
0
 10
-14.8788
 20
-7.81441
 11
-14.9985
 21
-7.95462
  0
LINE
  8
0
 10
-14.9985
 20
-7.95462
 11
-30.5238
 21
-22.8053
  0
LINE
  8
0
 10
-30.5238
 20
-22.8053
 11
-31.3041
 21
-23.5457
  0
LINE
  8
0
 10
-31.3041
 20
-23.5457
 11
-32.1575
 21
-24.2006
  0
LINE
  8
0
 10
-32.1575
 20
-24.2006
 11
-33.0747
 21
-24.7626
  0
LINE
  8
0
 10
-33.0747
 20
-24.7626
 11
-34.0456
 21
-25.2257
  0
LINE
  8
0
 10
-34.0456
 20
-25.2257
 11
-35.0596
 21
-25.5848
  0
LINE
  8
0
 10
-35.0596
 20
-25.5848
 11
-36.1056
 21
-25.8359
  0
LINE
  8
0
 10
-36.1056
 20
-25.8359
 11
-37.1721
 21
-25.9763
  0
LINE
  8
0
 10
-37.1721
 20
-25.9763
 11
-38.2474
 21
-26.0045
  0
LINE
  8
0
 10
-38.2474
 20
-26.0045
 11
-39.3198
 21
-25.9201
  0
LINE
  8
0
 10
37.1721
 20
-25.9763
 11
36.1056
 21
-25.8359
  0
LINE
  8
0
 10
36.1056
 20
-25.8359
 11
35.0596
 21
-25.5848
  0
LINE
  8
0
 10
35.0596
 20
-25.5848
 11
34.0456
 21
-25.2257
  0
LINE
  8
0
 10
34.0456
 20
-25.2257
 11
33.0747
 21
-24.7626
  0
LINE
  8
0
 10
33.0747
 20
-24.7626
 11
32.1575
 21
-24.2006
  0
LINE
  8
0
 10
32.1575
 20
-24.2006
 11
31.3041
 21
-23.5457
  0
LINE
  8
0
 10
31.3041
 20
-23.5457
 11
30.5238
 21
-22.8053
  0
LINE
  8
0
 10
30.5238
 20
-22.8053
 11
14.9985
 21
-7.95462
  0
LINE
  8
0
 10
14.9985
 20
-7.95462
 11
14.8788
 21
-7.81441
  0
LINE
  8
0
 10
14.8788
 20
-7.81441
 11
14.7743
 21
-7.66243
  0
LINE
  8
0
 10
14.7743
 20
-7.66243
 11
14.6863
 21
-7.50037
  0
LINE
  8
0
 10
14.6863
 20
-7.50037
 11
14.6157
 21
-7.33
  0
LINE
  8
0
 10
14.6157
 20
-7.33
 11
14.5634
 21
-7.15318
  0
LINE
  8
0
 10
14.5634
 20
-7.15318
 11
14.5298
 21
-6.97188
  0
LINE
  8
0
 10
14.5298
 20
-6.97188
 11
14.5153
 21
-6.78804
  0
LINE
  8
0
 10
14.5153
 20
-6.78804
 11
14.5201
 21
-6.6037
  0
LINE
  8
0
 10
14.5201
 20
-6.6037
 11
14.5442
 21
-6.42087
  0
LINE
  8
0
 10
14.5442
 20
-6.42087
 11
14.5872
 21
-6.24155
  0
LINE
  8
0
 10
14.5872
 20
-6.24155
 11
14.6488
 21
-6.06772
  0
LINE
  8
0
 10
14.6488
 20
-6.06772
 11
14.7282
 21
-5.90129
  0
LINE
  8
0
 10
14.7282
 20
-5.90129
 11
14.8245
 21
-5.74405
  0
LINE
  8
0
 10
14.8245
 20
-5.74405
 11
14.9368
 21
-5.59775
  0
LINE
  8
0
 10
14.9368
 20
-5.59775
 11
15.0637
 21
-5.46399
  0
LINE
  8
0
 10
15.0637
 20
-5.46399
 11
15.2039
 21
-5.34422
  0
LINE
  8
0
 10
15.2039
 20
-5.34422
 11
15.3559
 21
-5.23978
  0
LINE
  8
0
 10
15.3559
 20
-5.23978
 11
15.518
 21
-5.15179
  0
LINE
  8
0
 10
15.518
 20
-5.15179
 11
15.6884
 21
-5.08122
  0
LINE
  8
0
 10
15.6884
 20
-5.08122
 11
15.8652
 21
-5.02884
  0
LINE
  8
0
 10
15.8652
 20
-5.02884
 11
16.0465
 21
-4.99524
  0
LINE
  8
0
 10
16.0465
 20
-4.99524
 11
16.2303
 21
-4.98077
  0
LINE
  8
0
 10
16.2303
 20
-4.98077
 11
37.7094
 21
-5.45779
  0
LINE
  8
0
 10
37.7094
 20
-5.45779
 11
38.7847
 21
-5.48596
  0
LINE
  8
0
 10
38.7847
 20
-5.48596
 11
39.8512
 21
-5.62636
  0
LINE
  8
0
 10
39.8512
 20
-5.62636
 11
40.8972
 21
-5.87749
  0
LINE
  8
0
 10
40.8972
 20
-5.87749
 11
41.9112
 21
-6.23656
  0
LINE
  8
0
 10
41.9112
 20
-6.23656
 11
42.8821
 21
-6.69966
  0
LINE
  8
0
 10
42.8821
 20
-6.69966
 11
43.7993
 21
-7.2617
  0
LINE
  8
0
 10
43.7993
 20
-7.2617
 11
44.6527
 21
-7.91655
  0
LINE
  8
0
 10
44.6527
 20
-7.91655
 11
45.433
 21
-8.65701
  0
LINE
  8
0
 10
45.433
 20
-8.65701
 11
46.1316
 21
-9.47499
  0
LINE
  8
0
 10
46.1316
 20
-9.47499
 11
46.7408
 21
-10.3615
  0
LINE
  8
0
 10
46.7408
 20
-10.3615
 11
47.2541
 21
-11.3068
  0
LINE
  8
0
 10
47.2541
 20
-11.3068
 11
47.6658
 21
-12.3007
  0
LINE
  8
0
 10
47.6658
 20
-12.3007
 11
47.9713
 21
-13.3321
  0
LINE
  8
0
 10
47.9713
 20
-13.3321
 11
48.1673
 21
-14.3898
  0
LINE
  8
0
 10
48.1673
 20
-14.3898
 11
48.2517
 21
-15.4621
  0
LINE
  8
0
 10
48.2517
 20
-15.4621
 11
48.2236
 21
-16.5375
  0
LINE
  8
0
 10
48.2236
 20
-16.5375
 11
48.0832
 21
-17.604
  0
LINE
  8
0
 10
48.0832
 20
-17.604
 11
47.832
 21
-18.6499
  0
LINE
  8
0
 10
47.832
 20
-18.6499
 11
47.473
 21
-19.6639
  0
LINE
  8
0
 10
47.473
 20
-19.6639
 11
47.0099
 21
-20.6349
  0
LINE
  8
0
 10
47.0099
 20
-20.6349
 11
46.4478
 21
-21.552
  0
LINE
  8
0
 10
46.4478
 20
-21.552
 11
45.793
 21
-22.4054
  0
LINE
  8
0
 10
45.793
 20
-22.4054
 11
45.0525
 21
-23.1857
  0
LINE
  8
0
 10
45.0525
 20
-23.1857
 11
44.2345
 21
-23.8843
  0
LINE
  8
0
 10
44.2345
 20
-23.8843
 11
43.348
 21
-24.4936
  0
LINE
  8
0
 10
43.348
 20
-24.4936
 11
42.4027
 21
-25.0069
  0
LINE
  8
0
 10
42.4027
 20
-25.0069
 11
41.4089
 21
-25.4186
  0
LINE
  8
0
 10
41.4089
 20
-25.4186
 11
40.3775
 21
-25.7241
  0
LINE
  8
0
 10
40.3775
 20
-25.7241
 11
39.3198
 21
-25.9201
  0
LINE
  8
0
 10
39.3198
 20
-25.9201
 11
38.2474
 21
-26.0045
  0
LINE
  8
0
 10
38.2474
 20
-26.0045
 11
37.1721
 21
-25.9763
  0
LINE
  8
0
 10
-0.23465
 20
-13.2903
 11
-0.463516
 21
-13.2353
  0
LINE
  8
0
 10
-0.463516
 20
-13.2353
 11
-0.680984
 21
-13.1452
  0
LINE
  8
0
 10
-0.680984
 20
-13.1452
 11
-0.881668
 21
-13.0223
  0
LINE
  8
0
 10
-0.881668
 20
-13.0223
 11
-1.06065
 21
-12.8694
  0
LINE
  8
0
 10
-1.06065
 20
-12.8694
 11
-1.21352
 21
-12.6904
  0
LINE
  8
0
 10
-1.21352
 20
-12.6904
 11
-1.3365
 21
-12.4897
  0
LINE
  8
0
 10
-1.3365
 20
-12.4897
 11
-1.42657
 21
-12.2723
  0
LINE
  8
0
 10
-1.42657
 20
-12.2723
 11
-1.48152
 21
-12.0434
  0
LINE
  8
0
 10
-1.48152
 20
-12.0434
 11
-1.5
 21
-11.8087
  0
LINE
  8
0
 10
-1.5
 20
-11.8087
 11
-1.48152
 21
-11.5741
  0
LINE
  8
0
 10
-1.48152
 20
-11.5741
 11
-1.42657
 21
-11.3452
  0
LINE
  8
0
 10
-1.42657
 20
-11.3452
 11
-1.3365
 21
-11.1278
  0
LINE
  8
0
 10
-1.3365
 20
-11.1278
 11
-1.21352
 21
-10.9271
  0
LINE
  8
0
 10
-1.21352
 20
-10.9271
 11
-1.06065
 21
-10.7481
  0
LINE
  8
0
 10
-1.06065
 20
-10.7481
 11
-0.881668
 21
-10.5952
  0
LINE
  8
0
 10
-0.881668
 20
-10.5952
 11
-0.680984
 21
-10.4722
  0
LINE
  8
0
 10
-0.680984
 20
-10.4722
 11
-0.463516
 21
-10.3822
  0
LINE
  8
0
 10
-0.463516
 20
-10.3822
 11
-0.23465
 21
-10.3272
  0
LINE
  8
0
 10
-0.23465
 20
-10.3272
 11
0
 21
-10.3087
  0
LINE
  8
0
 10
0
 20
-10.3087
 11
0.23465
 21
-10.3272
  0
LINE
  8
0
 10
0.23465
 20
-10.3272
 11
0.463516
 21
-10.3822
  0
LINE
  8
0
 10
0.463516
 20
-10.3822
 11
0.680984
 21
-10.4722
  0
LINE
  8
0
 10
0.680984
 20
-10.4722
 11
0.881668
 21
-10.5952
  0
LINE
  8
0
 10
0.881668
 20
-10.5952
 11
1.06065
 21
-10.7481
  0
LINE
  8
0
 10
1.06065
 20
-10.7481
 11
1.21352
 21
-10.9271
  0
LINE
  8
0
 10
1.21352
 20
-10.9271
 11
1.3365
 21
-11.1278
  0
LINE
  8
0
 10
1.3365
 20
-11.1278
 11
1.42657
 21
-11.3452
  0
LINE
  8
0
 10
1.42657
 20
-11.3452
 11
1.48152
 21
-11.5741
  0
LINE
  8
0
 10
1.48152
 20
-11.5741
 11
1.49998
 21
-11.8087
  0
LINE
  8
0
 10
1.49998
 20
-11.8087
 11
1.48152
 21
-12.0434
  0
LINE
  8
0
 10
1.48152
 20
-12.0434
 11
1.42657
 21
-12.2723
  0
LINE
  8
0
 10
1.42657
 20
-12.2723
 11
1.3365
 21
-12.4897
  0
LINE
  8
0
 10
1.3365
 20
-12.4897
 11
1.21352
 21
-12.6904
  0
LINE
  8
0
 10
1.21352
 20
-12.6904
 11
1.06065
 21
-12.8694
  0
LINE
  8
0
 10
1.06065
 20
-12.8694
 11
0.881668
 21
-13.0223
  0
LINE
  8
0
 10
0.881668
 20
-13.0223
 11
0.680984
 21
-13.1452
  0
LINE
  8
0
 10
0.680984
 20
-13.1452
 11
0.463516
 21
-13.2353
  0
LINE
  8
0
 10
0.463516
 20
-13.2353
 11
0.23465
 21
-13.2903
  0
LINE
  8
0
 10
0.23465
 20
-13.2903
 11
0
 21
-13.3087
  0
LINE
  8
0
 10
0
 20
-13.3087
 11
-0.23465
 21
-13.2903
  0
LINE
  8
0
 10
14.3898
 20
-48.1673
 11
13.3321
 21
-47.9713
  0
LINE
  8
0
 10
13.3321
 20
-47.9713
 11
12.3007
 21
-47.6658
  0
LINE
  8
0
 10
12.3007
 20
-47.6658
 11
11.3068
 21
-47.2541
  0
LINE
  8
0
 10
11.3068
 20
-47.2541
 11
10.3615
 21
-46.7408
  0
LINE
  8
0
 10
10.3615
 20
-46.7408
 11
9.47499
 21
-46.1316
  0
LINE
  8
0
 10
9.47499
 20
-46.1316
 11
8.65701
 21
-45.433
  0
LINE
  8
0
 10
8.65701
 20
-45.433
 11
7.91655
 21
-44.6527
  0
LINE
  8
0
 10
7.91655
 20
-44.6527
 11
7.2617
 21
-43.7993
  0
LINE
  8
0
 10
7.2617
 20
-43.7993
 11
6.69966
 21
-42.8821
  0
LINE
  8
0
 10
6.69966
 20
-42.8821
 11
6.23656
 21
-41.9112
  0
LINE
  8
0
 10
6.23656
 20
-41.9112
 11
5.87749
 21
-40.8972
  0
LINE
  8
0
 10
5.87749
 20
-40.8972
 11
5.62636
 21
-39.8512
  0
LINE
  8
0
 10
5.62636
 20
-39.8512
 11
5.48596
 21
-38.7847
  0
LINE
  8
0
 10
5.48596
 20
-38.7847
 11
5.45779
 21
-37.7094
  0
LINE
  8
0
 10
5.45779
 20
-37.7094
 11
4.98077
 21
-16.2303
  0
LINE
  8
0
 10
4.98077
 20
-16.2303
 11
4.99524
 21
-16.0465
  0
LINE
  8
0
 10
4.99524
 20
-16.0465
 11
5.02884
 21
-15.8652
  0
LINE
  8
0
 10
5.02884
 20
-15.8652
 11
5.08122
 21
-15.6884
  0
LINE
  8
0
 10
5.08122
 20
-15.6884
 11
5.15179
 21
-15.518
  0
LINE
  8
0
 10
5.15179
 20
-15.518
 11
5.23978
 21
-15.3559
  0
LINE
  8
0
 10
5.23978
 20
-15.3559
 11
5.34422
 21
-15.2039
  0
LINE
  8
0
 10
5.34422
 20
-15.2039
 11
5.46399
 21
-15.0637
  0
LINE
  8
0
 10
5.46399
 20
-15.0637
 11
5.59775
 21
-14.9368
  0
LINE
  8
0
 10
5.59775
 20
-14.9368
 11
5.74405
 21
-14.8245
  0
LINE
  8
0
 10
5.74405
 20
-14.8245
 11
5.90129
 21
-14.7282
  0
LINE
  8
0
 10
5.90129
 20
-14.7282
 11
6.06772
 21
-14.6488
  0
LINE
  8
0
 10
6.06772
 20
-14.6488
 11
6.24155
 21
-14.5872
  0
LINE
  8
0
 10
6.24155
 20
-14.5872
 11
6.42087
 21
-14.5442
  0
LINE
  8
0
 10
6.42087
 20
-14.5442
 11
6.6037
 21
-14.5201
  0
LINE
  8
0
 10
6.6037
 20
-14.5201
 11
6.78804
 21
-14.5153
  0
LINE
  8
0
 10
6.78804
 20
-14.5153
 11
6.97188
 21
-14.5298
  0
LINE
  8
0
 10
6.97188
 20
-14.5298
 11
7.15318
 21
-14.5634
  0
LINE
  8
0
 10
7.15318
 20
-14.5634
 11
7.33
 21
-14.6157
  0
LINE
  8
0
 10
7.33
 20
-14.6157
 11
7.50037
 21
-14.6863
  0
LINE
  8
0
 10
7.50037
 20
-14.6863
 11
7.66243
 21
-14.7743
  0
LINE
  8
0
 10
7.66243
 20
-14.7743
 11
7.81441
 21
-14.8788
  0
LINE
  8
0
 10
7.81441
 20
-14.8788
 11
7.95462
 21
-14.9985
  0
LINE
  8
0
 10
7.95462
 20
-14.9985
 11
22.8053
 21
-30.5238
  0
LINE
  8
0
 10
22.8053
 20
-30.5238
 11
23.5457
 21
-31.3041
  0
LINE
  8
0
 10
23.5457
 20
-31.3041
 11
24.2006
 21
-32.1575
  0
LINE
  8
0
 10
24.2006
 20
-32.1575
 11
24.7626
 21
-33.0747
  0
LINE
  8
0
 10
24.7626
 20
-33.0747
 11
25.2257
 21
-34.0456
  0
LINE
  8
0
 10
25.2257
 20
-34.0456
 11
25.5848
 21
-35.0596
  0
LINE
  8
0
 10
25.5848
 20
-35.0596
 11
25.8359
 21
-36.1056
  0
LINE
  8
0
 10
25.8359
 20
-36.1056
 11
25.9763
 21
-37.1721
  0
LINE
  8
0
 10
25.9763
 20
-37.1721
 11
26.0045
 21
-38.2474
  0
LINE
  8
0
 10
26.0045
 20
-38.2474
 11
25.9201
 21
-39.3198
  0
LINE
  8
0
 10
25.9201
 20
-39.3198
 11
25.7241
 21
-40.3775
  0
LINE
  8
0
 10
25.7241
 20
-40.3775
 11
25.4186
 21
-41.4089
  0
LINE
  8
0
 10
25.4186
 20
-41.4089
 11
25.0069
 21
-42.4027
  0
LINE
  8
0
 10
25.0069
 20
-42.4027
 11
24.4936
 21
-43.348
  0
LINE
  8
0
 10
24.4936
 20
-43.348
 11
23.8843
 21
-44.2345
  0
LINE
  8
0
 10
23.8843
 20
-44.2345
 11
23.1857
 21
-45.0525
  0
LINE
  8
0
 10
23.1857
 20
-45.0525
 11
22.4054
 21
-45.793
  0
LINE
  8
0
 10
22.4054
 20
-45.793
 11
21.552
 21
-46.4478
  0
LINE
  8
0
 10
21.552
 20
-46.4478
 11
20.6349
 21
-47.0099
  0
LINE
  8
0
 10
20.6349
 20
-47.0099
 11
19.6639
 21
-47.473
  0
LINE
  8
0
 10
19.6639
 20
-47.473
 11
18.6499
 21
-47.832
  0
LINE
  8
0
 10
18.6499
 20
-47.832
 11
17.604
 21
-48.0832
  0
LINE
  8
0
 10
17.604
 20
-48.0832
 11
16.5375
 21
-48.2236
  0
LINE
  8
0
 10
16.5375
 20
-48.2236
 11
15.4621
 21
-48.2517
  0
LINE
  8
0
 10
15.4621
 20
-48.2517
 11
14.3898
 21
-48.1673
  0
LINE
  8
0
 10
-16.5375
 20
-48.2236
 11
-17.604
 21
-48.0832
  0
LINE
  8
0
 10
-17.604
 20
-48.0832
 11
-18.6499
 21
-47.832
  0
LINE
  8
0
 10
-18.6499
 20
-47.832
 11
-19.6639
 21
-47.473
  0
LINE
  8
0
 10
-19.6639
 20
-47.473
 11
-20.6349
 21
-47.0099
  0
LINE
  8
0
 10
-20.6349
 20
-47.0099
 11
-21.552
 21
-46.4478
  0
LINE
  8
0
 10
-21.552
 20
-46.4478
 11
-22.4054
 21
-45.793
  0
LINE
  8
0
 10
-22.4054
 20
-45.793
 11
-23.1857
 21
-45.0525
  0
LINE
  8
0
 10
-23.1857
 20
-45.0525
 11
-23.8843
 21
-44.2345
  0
LINE
  8
0
 10
-23.8843
 20
-44.2345
 11
-24.4936
 21
-43.348
  0
LINE
  8
0
 10
-24.4936
 20
-43.348
 11
-25.0069
 21
-42.4027
  0
LINE
  8
0
 10
-25.0069
 20
-42.4027
 11
-25.4186
 21
-41.4089
  0
LINE
  8
0
 10
-25.4186
 20
-41.4089
 11
-25.7241
 21
-40.3775
  0
LINE
  8
0
 10
-25.7241
 20
-40.3775
 11
-25.9201
 21
-39.3198
  0
LINE
  8
0
 10
-25.9201
 20
-39.3198
 11
-26.0045
 21
-38.2474
  0
LINE
  8
0
 10
-26.0045
 20
-38.2474
 11
-25.9763
 21
-37.1721
  0
LINE
  8
0
 10
-25.9763
 20
-37.1721
 11
-25.8359
 21
-36.1056
  0
LINE
  8
0
 10
-25.8359
 20
-36.1056
 11
-25.5848
 21
-35.0596
  0
LINE
  8
0
 10
-25.5848
 20
-35.0596
 11
-25.2257
 21
-34.0456
  0
LINE
  8
0
 10
-25.2257
 20
-34.0456
 11
-24.7626
 21
-33.0747
  0
LINE
  8
0
 10
-24.7626
 20
-33.0747
 11
-24.2006
 21
-32.1575
  0
LINE
  8
0
 10
-24.2006
 20
-32.1575
 11
-23.5457
 21
-31.3041
  0
LINE
  8
0
 10
-23.5457
 20
-31.3041
 11
-22.8053
 21
-30.5238
  0
LINE
  8
0
 10
-22.8053
 20
-30.5238
 11
-7.95462
 21
-14.9985
  0
LINE
  8
0
 10
-7.95462
 20
-14.9985
 11
-7.81441
 21
-14.8788
  0
LINE
  8
0
 10
-7.81441
 20
-14.8788
 11
-7.66243
 21
-14.7743
  0
LINE
  8
0
 10
-7.66243
 20
-14.7743
 11
-7.50037
 21
-14.6863
  0
LINE
  8
0
 10
-7.50037
 20
-14.6863
 11
-7.33
 21
-14.6157
  0
LINE
  8
0
 10
-7.33
 20
-14.6157
 11
-7.15318
 21
-14.5634
  0
LINE
  8
0
 10
-7.15318
 20
-14.5634
 11
-6.97188
 21
-14.5298
  0
LINE
  8
0
 10
-6.97188
 20
-14.5298
 11
-6.78804
 21
-14.5153
  0
LINE
  8
0
 10
-6.78804
 20
-14.5153
 11
-6.6037
 21
-14.5201
  0
LINE
  8
0
 10
-6.6037
 20
-14.5201
 11
-6.42087
 21
-14.5442
  0
LINE
  8
0
 10
-6.42087
 20
-14.5442
 11
-6.24155
 21
-14.5872
  0
LINE
  8
0
 10
-6.24155
 20
-14.5872
 11
-6.06772
 21
-14.6488
  0
LINE
  8
0
 10
-6.06772
 20
-14.6488
 11
-5.90129
 21
-14.7282
  0
LINE
  8
0
 10
-5.90129
 20
-14.7282
 11
-5.74405
 21
-14.8245
  0
LINE
  8
0
 10
-5.74405
 20
-14.8245
 11
-5.59775
 21
-14.9368
  0
LINE
  8
0
 10
-5.59775
 20
-14.9368
 11
-5.46399
 21
-15.0637
  0
LINE
  8
0
 10
-5.46399
 20
-15.0637
 11
-5.34422
 21
-15.2039
  0
LINE
  8
0
 10
-5.34422
 20
-15.2039
 11
-5.23978
 21
-15.3559
  0
LINE
  8
0
 10
-5.23978
 20
-15.3559
 11
-5.15179
 21
-15.518
  0
LINE
  8
0
 10
-5.15179
 20
-15.518
 11
-5.08122
 21
-15.6884
  0
LINE
  8
0
 10
-5.08122
 20
-15.6884
 11
-5.02884
 21
-15.8652
  0
LINE
  8
0
 10
-5.02884
 20
-15.8652
 11
-4.99524
 21
-16.0465
  0
LINE
  8
0
 10
-4.99524
 20
-16.0465
 11
-4.98077
 21
-16.2303
  0
LINE
  8
0
 10
-4.98077
 20
-16.2303
 11
-5.45779
 21
-37.7094
  0
LINE
  8
0
 10
-5.45779
 20
-37.7094
 11
-5.48596
 21
-38.7847
  0
LINE
  8
0
 10
-5.48596
 20
-38.7847
 11
-5.62636
 21
-39.8512
  0
LINE
  8
0
 10
-5.62636
 20
-39.8512
 11
-5.87749
 21
-40.8972
  0
LINE
  8
0
 10
-5.87749
 20
-40.8972
 11
-6.23656
 21
-41.9112
  0
LINE
  8
0
 10
-6.23656
 20
-41.9112
 11
-6.69966
 21
-42.8821
  0
LINE
  8
0
 10
-6.69966
 20
-42.8821
 11
-7.2617
 21
-43.7993
  0
LINE
  8
0
 10
-7.2617
 20
-43.7993
 11
-7.91655
 21
-44.6527
  0
LINE
  8
0
 10
-7.91655
 20
-44.6527
 11
-8.65701
 21
-45.433
  0
LINE
  8
0
 10
-8.65701
 20
-45.433
 11
-9.47499
 21
-46.1316
  0
LINE
  8
0
 10
-9.47499
 20
-46.1316
 11
-10.3615
 21
-46.7408
  0
LINE
  8
0
 10
-10.3615
 20
-46.7408
 11
-11.3068
 21
-47.2541
  0
LINE
  8
0
 10
-11.3068
 20
-47.2541
 11
-12.3007
 21
-47.6658
  0
LINE
  8
0
 10
-12.3007
 20
-47.6658
 11
-13.3321
 21
-47.9713
  0
LINE
  8
0
 10
-13.3321
 20
-47.9713
 11
-14.3898
 21
-48.1673
  0
LINE
  8
0
 10
-14.3898
 20
-48.1673
 11
-15.4621
 21
-48.2517
  0
LINE
  8
0
 10
-15.4621
 20
-48.2517
 11
-16.5375
 21
-48.2236
  0
LINE
  8
0
 10
37.1377
 20
-38.8539
 11
36.9088
 21
-38.7989
  0
LINE
  8
0
 10
36.9088
 20
-38.7989
 11
36.6914
 21
-38.7089
  0
LINE
  8
0
 10
36.6914
 20
-38.7089
 11
36.4907
 21
-38.5859
  0
LINE
  8
0
 10
36.4907
 20
-38.5859
 11
36.3117
 21
-38.433
  0
LINE
  8
0
 10
36.3117
 20
-38.433
 11
36.1588
 21
-38.254
  0
LINE
  8
0
 10
36.1588
 20
-38.254
 11
36.0358
 21
-38.0533
  0
LINE
  8
0
 10
36.0358
 20
-38.0533
 11
35.9458
 21
-37.8359
  0
LINE
  8
0
 10
35.9458
 20
-37.8359
 11
35.8908
 21
-37.607
  0
LINE
  8
0
 10
35.8908
 20
-37.607
 11
35.8724
 21
-37.3724
  0
LINE
  8
0
 10
35.8724
 20
-37.3724
 11
35.8908
 21
-37.1377
  0
LINE
  8
0
 10
35.8908
 20
-37.1377
 11
35.9458
 21
-36.9088
  0
LINE
  8
0
 10
35.9458
 20
-36.9088
 11
36.0358
 21
-36.6914
  0
LINE
  8
0
 10
36.0358
 20
-36.6914
 11
36.1588
 21
-36.4907
  0
LINE
  8
0
 10
36.1588
 20
-36.4907
 11
36.3117
 21
-36.3117
  0
LINE
  8
0
 10
36.3117
 20
-36.3117
 11
36.4907
 21
-36.1588
  0
LINE
  8
0
 10
36.4907
 20
-36.1588
 11
36.6914
 21
-36.0358
  0
LINE
  8
0
 10
36.6914
 20
-36.0358
 11
36.9088
 21
-35.9458
  0
LINE
  8
0
 10
36.9088
 20
-35.9458
 11
37.1377
 21
-35.8908
  0
LINE
  8
0
 10
37.1377
 20
-35.8908
 11
37.3724
 21
-35.8724
  0
LINE
  8
0
 10
37.3724
 20
-35.8724
 11
37.607
 21
-35.8908
  0
LINE
  8
0
 10
37.607
 20
-35.8908
 11
37.8359
 21
-35.9458
  0
LINE
  8
0
 10
37.8359
 20
-35.9458
 11
38.0533
 21
-36.0358
  0
LINE
  8
0
 10
38.0533
 20
-36.0358
 11
38.254
 21
-36.1588
  0
LINE
  8
0
 10
38.254
 20
-36.1588
 11
38.433
 21
-36.3117
  0
LINE
  8
0
 10
38.433
 20
-36.3117
 11
38.5859
 21
-36.4907
  0
LINE
  8
0
 10
38.5859
 20
-36.4907
 11
38.7089
 21
-36.6914
  0
LINE
  8
0
 10
38.7089
 20
-36.6914
 11
38.7989
 21
-36.9088
  0
LINE
  8
0
 10
38.7989
 20
-36.9088
 11
38.8539
 21
-37.1377
  0
LINE
  8
0
 10
38.8539
 20
-37.1377
 11
38.8724
 21
-37.3724
  0
LINE
  8
0
 10
38.8724
 20
-37.3724
 11
38.8539
 21
-37.607
  0
LINE
  8
0
 10
38.8539
 20
-37.607
 11
38.7989
 21
-37.8359
  0
LINE
  8
0
 10
38.7989
 20
-37.8359
 11
38.7089
 21
-38.0533
  0
LINE
  8
0
 10
38.7089
 20
-38.0533
 11
38.5859
 21
-38.254
  0
LINE
  8
0
 10
38.5859
 20
-38.254
 11
38.433
 21
-38.433
  0
LINE
  8
0
 10
38.433
 20
-38.433
 11
38.254
 21
-38.5859
  0
LINE
  8
0
 10
38.254
 20
-38.5859
 11
38.0533
 21
-38.7089
  0
LINE
  8
0
 10
38.0533
 20
-38.7089
 11
37.8359
 21
-38.7989
  0
LINE
  8
0
 10
37.8359
 20
-38.7989
 11
37.607
 21
-38.8539
  0
LINE
  8
0
 10
37.607
 20
-38.8539
 11
37.3724
 21
-38.8724
  0
LINE
  8
0
 10
37.3724
 20
-38.8724
 11
37.1377
 21
-38.8539
  0
LINE
  8
0
 10
-37.607
 20
-38.8539
 11
-37.8359
 21
-38.7989
  0
LINE
  8
0
 10
-37.8359
 20
-38.7989
 11
-38.0533
 21
-38.7089
  0
LINE
  8
0
 10
-38.0533
 20
-38.7089
 11
-38.254
 21
-38.5859
  0
LINE
  8
0
 10
-38.254
 20
-38.5859
 11
-38.433
 21
-38.433
  0
LINE
  8
0
 10
-38.433
 20
-38.433
 11
-38.5859
 21
-38.254
  0
LINE
  8
0
 10
-38.5859
 20
-38.254
 11
-38.7089
 21
-38.0533
  0
LINE
  8
0
 10
-38.7089
 20
-38.0533
 11
-38.7989
 21
-37.8359
  0
LINE
  8
0
 10
-38.7989
 20
-37.8359
 11
-38.8539
 21
-37.607
  0
LINE
  8
0
 10
-38.8539
 20
-37.607
 11
-38.8724
 21
-37.3724
  0
LINE
  8
0
 10
-38.8724
 20
-37.3724
 11
-38.8539
 21
-37.1377
  0
LINE
  8
0
 10
-38.8539
 20
-37.1377
 11
-38.7989
 21
-36.9088
  0
LINE
  8
0
 10
-38.7989
 20
-36.9088
 11
-38.7089
 21
-36.6914
  0
LINE
  8
0
 10
-38.7089
 20
-36.6914
 11
-38.5859
 21
-36.4907
  0
LINE
  8
0
 10
-38.5859
 20
-36.4907
 11
-38.433
 21
-36.3117
  0
LINE
  8
0
 10
-38.433
 20
-36.3117
 11
-38.254
 21
-36.1588
  0
LINE
  8
0
 10
-38.254
 20
-36.1588
 11
-38.0533
 21
-36.0358
  0
LINE
  8
0
 10
-38.0533
 20
-36.0358
 11
-37.8359
 21
-35.9458
  0
LINE
  8
0
 10
-37.8359
 20
-35.9458
 11
-37.607
 21
-35.8908
  0
LINE
  8
0
 10
-37.607
 20
-35.8908
 11
-37.3724
 21
-35.8724
  0
LINE
  8
0
 10
-37.3724
 20
-35.8724
 11
-37.1377
 21
-35.8908
  0
LINE
  8
0
 10
-37.1377
 20
-35.8908
 11
-36.9088
 21
-35.9458
  0
LINE
  8
0
 10
-36.9088
 20
-35.9458
 11
-36.6914
 21
-36.0358
  0
LINE
  8
0
 10
-36.6914
 20
-36.0358
 11
-36.4907
 21
-36.1588
  0
LINE
  8
0
 10
-36.4907
 20
-36.1588
 11
-36.3117
 21
-36.3117
  0
LINE
  8
0
 10
-36.3117
 20
-36.3117
 11
-36.1588
 21
-36.4907
  0
LINE
  8
0
 10
-36.1588
 20
-36.4907
 11
-36.0358
 21
-36.6914
  0
LINE
  8
0
 10
-36.0358
 20
-36.6914
 11
-35.9458
 21
-36.9088
  0
LINE
  8
0
 10
-35.9458
 20
-36.9088
 11
-35.8908
 21
-37.1377
  0
LINE
  8
0
 10
-35.8908
 20
-37.1377
 11
-35.8724
 21
-37.3724
  0
LINE
  8
0
 10
-35.8724
 20
-37.3724
 11
-35.8908
 21
-37.607
  0
LINE
  8
0
 10
-35.8908
 20
-37.607
 11
-35.9458
 21
-37.8359
  0
LINE
  8
0
 10
-35.9458
 20
-37.8359
 11
-36.0358
 21
-38.0533
  0
LINE
  8
0
 10
-36.0358
 20
-38.0533
 11
-36.1588
 21
-38.254
  0
LINE
  8
0
 10
-36.1588
 20
-38.254
 11
-36.3117
 21
-38.433
  0
LINE
  8
0
 10
-36.3117
 20
-38.433
 11
-36.4907
 21
-38.5859
  0
LINE
  8
0
 10
-36.4907
 20
-38.5859
 11
-36.6914
 21
-38.7089
  0
LINE
  8
0
 10
-36.6914
 20
-38.7089
 11
-36.9088
 21
-38.7989
  0
LINE
  8
0
 10
-36.9088
 20
-38.7989
 11
-37.1377
 21
-38.8539
  0
LINE
  8
0
 10
-37.1377
 20
-38.8539
 11
-37.3724
 21
-38.8724
  0
LINE
  8
0
 10
-37.3724
 20
-38.8724
 11
-37.607
 21
-38.8539
  0
LINE
  8
0
 10
-0.23465
 20
-54.334
 11
-0.463516
 21
-54.2791
  0
LINE
  8
0
 10
-0.463516
 20
-54.2791
 11
-0.680984
 21
-54.189
  0
LINE
  8
0
 10
-0.680984
 20
-54.189
 11
-0.881668
 21
-54.066
  0
LINE
  8
0
 10
-0.881668
 20
-54.066
 11
-1.06065
 21
-53.9131
  0
LINE
  8
0
 10
-1.06065
 20
-53.9131
 11
-1.21352
 21
-53.7342
  0
LINE
  8
0
 10
-1.21352
 20
-53.7342
 11
-1.3365
 21
-53.5335
  0
LINE
  8
0
 10
-1.3365
 20
-53.5335
 11
-1.42657
 21
-53.316
  0
LINE
  8
0
 10
-1.42657
 20
-53.316
 11
-1.48152
 21
-53.0871
  0
LINE
  8
0
 10
-1.48152
 20
-53.0871
 11
-1.5
 21
-52.8525
  0
LINE
  8
0
 10
-1.5
 20
-52.8525
 11
-1.48152
 21
-52.6178
  0
LINE
  8
0
 10
-1.48152
 20
-52.6178
 11
-1.42657
 21
-52.389
  0
LINE
  8
0
 10
-1.42657
 20
-52.389
 11
-1.3365
 21
-52.1715
  0
LINE
  8
0
 10
-1.3365
 20
-52.1715
 11
-1.21352
 21
-51.9708
  0
LINE
  8
0
 10
-1.21352
 20
-51.9708
 11
-1.06065
 21
-51.7918
  0
LINE
  8
0
 10
-1.06065
 20
-51.7918
 11
-0.881668
 21
-51.639
  0
LINE
  8
0
 10
-0.881668
 20
-51.639
 11
-0.680984
 21
-51.516
  0
LINE
  8
0
 10
-0.680984
 20
-51.516
 11
-0.463516
 21
-51.4259
  0
LINE
  8
0
 10
-0.463516
 20
-51.4259
 11
-0.23465
 21
-51.371
  0
LINE
  8
0
 10
-0.23465
 20
-51.371
 11
0
 21
-51.3525
  0
LINE
  8
0
 10
0
 20
-51.3525
 11
0.23465
 21
-51.371
  0
LINE
  8
0
 10
0.23465
 20
-51.371
 11
0.463516
 21
-51.4259
  0
LINE
  8
0
 10
0.463516
 20
-51.4259
 11
0.680984
 21
-51.516
  0
LINE
  8
0
 10
0.680984
 20
-51.516
 11
0.881668
 21
-51.639
  0
LINE
  8
0
 10
0.881668
 20
-51.639
 11
1.06065
 21
-51.7918
  0
LINE
  8
0
 10
1.06065
 20
-51.7918
 11
1.21352
 21
-51.9708
  0
LINE
  8
0
 10
1.21352
 20
-51.9708
 11
1.3365
 21
-52.1715
  0
LINE
  8
0
 10
1.3365
 20
-52.1715
 11
1.42657
 21
-52.389
  0
LINE
  8
0
 10
1.42657
 20
-52.389
 11
1.48152
 21
-52.6178
  0
LINE
  8
0
 10
1.48152
 20
-52.6178
 11
1.49998
 21
-52.8525
  0
LINE
  8
0
 10
1.49998
 20
-52.8525
 11
1.48152
 21
-53.0871
  0
LINE
  8
0
 10
1.48152
 20
-53.0871
 11
1.42657
 21
-53.316
  0
LINE
  8
0
 10
1.42657
 20
-53.316
 11
1.3365
 21
-53.5335
  0
LINE
  8
0
 10
1.3365
 20
-53.5335
 11
1.21352
 21
-53.7342
  0
LINE
  8
0
 10
1.21352
 20
-53.7342
 11
1.06065
 21
-53.9131
  0
LINE
  8
0
 10
1.06065
 20
-53.9131
 11
0.881668
 21
-54.066
  0
LINE
  8
0
 10
0.881668
 20
-54.066
 11
0.680984
 21
-54.189
  0
LINE
  8
0
 10
0.680984
 20
-54.189
 11
0.463516
 21
-54.2791
  0
LINE
  8
0
 10
0.463516
 20
-54.2791
 11
0.23465
 21
-54.334
  0
LINE
  8
0
 10
0.23465
 20
-54.334
 11
0
 21
-54.3525
  0
LINE
  8
0
 10
0
 20
-54.3525
 11
-0.23465
 21
-54.334
  0
ENDSEC
  0
SECTION
  2
OBJECTS
  0
DICTIONARY
  0
ENDSEC
  0
EOF
