  0
SECTION
  2
BLOCKS
  0
ENDSEC
  0
SECTION
  2
ENTITIES
  0
LINE
  8
0
 10
1.78177
 20
-56.697
 11
3.56178
 21
-56.6131
  0
LINE
  8
0
 10
3.56178
 20
-56.6131
 11
5.33829
 21
-56.4733
  0
LINE
  8
0
 10
5.33829
 20
-56.4733
 11
7.10953
 21
-56.2777
  0
LINE
  8
0
 10
7.10953
 20
-56.2777
 11
8.87373
 21
-56.0266
  0
LINE
  8
0
 10
8.87373
 20
-56.0266
 11
10.6292
 21
-55.7202
  0
LINE
  8
0
 10
10.6292
 20
-55.7202
 11
12.3742
 21
-55.3589
  0
LINE
  8
0
 10
12.3742
 20
-55.3589
 11
14.1069
 21
-54.9429
  0
LINE
  8
0
 10
14.1069
 20
-54.9429
 11
15.8258
 21
-54.4727
  0
LINE
  8
0
 10
15.8258
 20
-54.4727
 11
17.529
 21
-53.9487
  0
LINE
  8
0
 10
17.529
 20
-53.9487
 11
19.2149
 21
-53.3715
  0
LINE
  8
0
 10
19.2149
 20
-53.3715
 11
20.8819
 21
-52.7416
  0
LINE
  8
0
 10
20.8819
 20
-52.7416
 11
22.5282
 21
-52.0596
  0
LINE
  8
0
 10
22.5282
 20
-52.0596
 11
24.1523
 21
-51.3263
  0
LINE
  8
0
 10
24.1523
 20
-51.3263
 11
25.7526
 21
-50.5423
  0
LINE
  8
0
 10
25.7526
 20
-50.5423
 11
27.3275
 21
-49.7085
  0
LINE
  8
0
 10
27.3275
 20
-49.7085
 11
28.8754
 21
-48.8256
  0
LINE
  8
0
 10
28.8754
 20
-48.8256
 11
30.3948
 21
-47.8945
  0
LINE
  8
0
 10
30.3948
 20
-47.8945
 11
31.8842
 21
-46.9161
  0
LINE
  8
0
 10
31.8842
 20
-46.9161
 11
33.3421
 21
-45.8915
  0
LINE
  8
0
 10
33.3421
 20
-45.8915
 11
34.7672
 21
-44.8215
  0
LINE
  8
0
 10
34.7672
 20
-44.8215
 11
36.1579
 21
-43.7074
  0
LINE
  8
0
 10
36.1579
 20
-43.7074
 11
37.5129
 21
-42.55
  0
LINE
  8
0
 10
37.5129
 20
-42.55
 11
38.8309
 21
-41.3507
  0
LINE
  8
0
 10
38.8309
 20
-41.3507
 11
40.1106
 21
-40.1106
  0
LINE
  8
0
 10
40.1106
 20
-40.1106
 11
41.3507
 21
-38.8309
  0
LINE
  8
0
 10
41.3507
 20
-38.8309
 11
42.55
 21
-37.5129
  0
LINE
  8
0
 10
42.55
 20
-37.5129
 11
43.7074
 21
-36.1579
  0
LINE
  8
0
 10
43.7074
 20
-36.1579
 11
44.8215
 21
-34.7672
  0
LINE
  8
0
 10
44.8215
 20
-34.7672
 11
45.8915
 21
-33.3421
  0
LINE
  8
0
 10
45.8915
 20
-33.3421
 11
46.9161
 21
-31.8842
  0
LINE
  8
0
 10
46.9161
 20
-31.8842
 11
47.8945
 21
-30.3948
  0
LINE
  8
0
 10
47.8945
 20
-30.3948
 11
48.8256
 21
-28.8754
  0
LINE
  8
0
 10
48.8256
 20
-28.8754
 11
49.7085
 21
-27.3275
  0
LINE
  8
0
 10
49.7085
 20
-27.3275
 11
50.5423
 21
-25.7526
  0
LINE
  8
0
 10
50.5423
 20
-25.7526
 11
51.3263
 21
-24.1523
  0
LINE
  8
0
 10
51.3263
 20
-24.1523
 11
52.0596
 21
-22.5282
  0
LINE
  8
0
 10
52.0596
 20
-22.5282
 11
52.7416
 21
-20.8819
  0
LINE
  8
0
 10
52.7416
 20
-20.8819
 11
53.3715
 21
-19.2149
  0
LINE
  8
0
 10
53.3715
 20
-19.2149
 11
53.9487
 21
-17.529
  0
LINE
  8
0
 10
53.9487
 20
-17.529
 11
54.4727
 21
-15.8258
  0
LINE
  8
0
 10
54.4727
 20
-15.8258
 11
54.9429
 21
-14.1069
  0
LINE
  8
0
 10
54.9429
 20
-14.1069
 11
55.3589
 21
-12.3742
  0
LINE
  8
0
 10
55.3589
 20
-12.3742
 11
55.7202
 21
-10.6292
  0
LINE
  8
0
 10
55.7202
 20
-10.6292
 11
56.0266
 21
-8.87373
  0
LINE
  8
0
 10
56.0266
 20
-8.87373
 11
56.2777
 21
-7.10953
  0
LINE
  8
0
 10
56.2777
 20
-7.10953
 11
56.4733
 21
-5.33829
  0
LINE
  8
0
 10
56.4733
 20
-5.33829
 11
56.6131
 21
-3.56178
  0
LINE
  8
0
 10
56.6131
 20
-3.56178
 11
56.697
 21
-1.78177
  0
LINE
  8
0
 10
56.697
 20
-1.78177
 11
56.725
 21
0
  0
LINE
  8
0
 10
56.725
 20
0
 11
56.697
 21
1.78177
  0
LINE
  8
0
 10
56.697
 20
1.78177
 11
56.6131
 21
3.56178
  0
LINE
  8
0
 10
56.6131
 20
3.56178
 11
56.4733
 21
5.33829
  0
LINE
  8
0
 10
56.4733
 20
5.33829
 11
56.2777
 21
7.10953
  0
LINE
  8
0
 10
56.2777
 20
7.10953
 11
56.0266
 21
8.87373
  0
LINE
  8
0
 10
56.0266
 20
8.87373
 11
55.7202
 21
10.6292
  0
LINE
  8
0
 10
55.7202
 20
10.6292
 11
55.3589
 21
12.3742
  0
LINE
  8
0
 10
55.3589
 20
12.3742
 11
54.9429
 21
14.1069
  0
LINE
  8
0
 10
54.9429
 20
14.1069
 11
54.4727
 21
15.8258
  0
LINE
  8
0
 10
54.4727
 20
15.8258
 11
53.9487
 21
17.529
  0
LINE
  8
0
 10
53.9487
 20
17.529
 11
53.3715
 21
19.2149
  0
LINE
  8
0
 10
53.3715
 20
19.2149
 11
52.7416
 21
20.8819
  0
LINE
  8
0
 10
52.7416
 20
20.8819
 11
52.0596
 21
22.5282
  0
LINE
  8
0
 10
52.0596
 20
22.5282
 11
51.3263
 21
24.1523
  0
LINE
  8
0
 10
51.3263
 20
24.1523
 11
50.5423
 21
25.7526
  0
LINE
  8
0
 10
50.5423
 20
25.7526
 11
49.7085
 21
27.3275
  0
LINE
  8
0
 10
49.7085
 20
27.3275
 11
48.8256
 21
28.8754
  0
LINE
  8
0
 10
48.8256
 20
28.8754
 11
47.8945
 21
30.3948
  0
LINE
  8
0
 10
47.8945
 20
30.3948
 11
46.9161
 21
31.8842
  0
LINE
  8
0
 10
46.9161
 20
31.8842
 11
45.8915
 21
33.3421
  0
LINE
  8
0
 10
45.8915
 20
33.3421
 11
44.8215
 21
34.7672
  0
LINE
  8
0
 10
44.8215
 20
34.7672
 11
43.7074
 21
36.1579
  0
LINE
  8
0
 10
43.7074
 20
36.1579
 11
42.55
 21
37.5129
  0
LINE
  8
0
 10
42.55
 20
37.5129
 11
41.3507
 21
38.8309
  0
LINE
  8
0
 10
41.3507
 20
38.8309
 11
40.1106
 21
40.1106
  0
LINE
  8
0
 10
40.1106
 20
40.1106
 11
38.8309
 21
41.3507
  0
LINE
  8
0
 10
38.8309
 20
41.3507
 11
37.5129
 21
42.55
  0
LINE
  8
0
 10
37.5129
 20
42.55
 11
36.1579
 21
43.7074
  0
LINE
  8
0
 10
36.1579
 20
43.7074
 11
34.7672
 21
44.8215
  0
LINE
  8
0
 10
34.7672
 20
44.8215
 11
33.3421
 21
45.8915
  0
LINE
  8
0
 10
33.3421
 20
45.8915
 11
31.8842
 21
46.9161
  0
LINE
  8
0
 10
31.8842
 20
46.9161
 11
30.3948
 21
47.8945
  0
LINE
  8
0
 10
30.3948
 20
47.8945
 11
28.8754
 21
48.8256
  0
LINE
  8
0
 10
28.8754
 20
48.8256
 11
27.3275
 21
49.7085
  0
LINE
  8
0
 10
27.3275
 20
49.7085
 11
25.7526
 21
50.5423
  0
LINE
  8
0
 10
25.7526
 20
50.5423
 11
24.1523
 21
51.3263
  0
LINE
  8
0
 10
24.1523
 20
51.3263
 11
22.5282
 21
52.0596
  0
LINE
  8
0
 10
22.5282
 20
52.0596
 11
20.8819
 21
52.7416
  0
LINE
  8
0
 10
20.8819
 20
52.7416
 11
19.2149
 21
53.3715
  0
LINE
  8
0
 10
19.2149
 20
53.3715
 11
17.529
 21
53.9487
  0
LINE
  8
0
 10
17.529
 20
53.9487
 11
15.8258
 21
54.4727
  0
LINE
  8
0
 10
15.8258
 20
54.4727
 11
14.1069
 21
54.9429
  0
LINE
  8
0
 10
14.1069
 20
54.9429
 11
12.3742
 21
55.3589
  0
LINE
  8
0
 10
12.3742
 20
55.3589
 11
10.6292
 21
55.7202
  0
LINE
  8
0
 10
10.6292
 20
55.7202
 11
8.87373
 21
56.0266
  0
LINE
  8
0
 10
8.87373
 20
56.0266
 11
7.10953
 21
56.2777
  0
LINE
  8
0
 10
7.10953
 20
56.2777
 11
5.33829
 21
56.4733
  0
LINE
  8
0
 10
5.33829
 20
56.4733
 11
3.56178
 21
56.6131
  0
LINE
  8
0
 10
3.56178
 20
56.6131
 11
1.78177
 21
56.697
  0
LINE
  8
0
 10
1.78177
 20
56.697
 11
0
 21
56.725
  0
LINE
  8
0
 10
0
 20
56.725
 11
-1.78177
 21
56.697
  0
LINE
  8
0
 10
-1.78177
 20
56.697
 11
-3.56178
 21
56.6131
  0
LINE
  8
0
 10
-3.56178
 20
56.6131
 11
-5.33829
 21
56.4733
  0
LINE
  8
0
 10
-5.33829
 20
56.4733
 11
-7.10953
 21
56.2777
  0
LINE
  8
0
 10
-7.10953
 20
56.2777
 11
-8.87373
 21
56.0266
  0
LINE
  8
0
 10
-8.87373
 20
56.0266
 11
-10.6292
 21
55.7202
  0
LINE
  8
0
 10
-10.6292
 20
55.7202
 11
-12.3742
 21
55.3589
  0
LINE
  8
0
 10
-12.3742
 20
55.3589
 11
-14.1069
 21
54.9429
  0
LINE
  8
0
 10
-14.1069
 20
54.9429
 11
-15.8258
 21
54.4727
  0
LINE
  8
0
 10
-15.8258
 20
54.4727
 11
-17.529
 21
53.9487
  0
LINE
  8
0
 10
-17.529
 20
53.9487
 11
-19.2149
 21
53.3715
  0
LINE
  8
0
 10
-19.2149
 20
53.3715
 11
-20.8819
 21
52.7416
  0
LINE
  8
0
 10
-20.8819
 20
52.7416
 11
-22.5282
 21
52.0596
  0
LINE
  8
0
 10
-22.5282
 20
52.0596
 11
-24.1523
 21
51.3263
  0
LINE
  8
0
 10
-24.1523
 20
51.3263
 11
-25.7526
 21
50.5423
  0
LINE
  8
0
 10
-25.7526
 20
50.5423
 11
-27.3275
 21
49.7085
  0
LINE
  8
0
 10
-27.3275
 20
49.7085
 11
-28.8754
 21
48.8256
  0
LINE
  8
0
 10
-28.8754
 20
48.8256
 11
-30.3948
 21
47.8945
  0
LINE
  8
0
 10
-30.3948
 20
47.8945
 11
-31.8842
 21
46.9161
  0
LINE
  8
0
 10
-31.8842
 20
46.9161
 11
-33.3421
 21
45.8915
  0
LINE
  8
0
 10
-33.3421
 20
45.8915
 11
-34.7672
 21
44.8215
  0
LINE
  8
0
 10
-34.7672
 20
44.8215
 11
-36.1579
 21
43.7074
  0
LINE
  8
0
 10
-36.1579
 20
43.7074
 11
-37.5129
 21
42.55
  0
LINE
  8
0
 10
-37.5129
 20
42.55
 11
-38.8309
 21
41.3507
  0
LINE
  8
0
 10
-38.8309
 20
41.3507
 11
-40.1106
 21
40.1106
  0
LINE
  8
0
 10
-40.1106
 20
40.1106
 11
-41.3507
 21
38.8309
  0
LINE
  8
0
 10
-41.3507
 20
38.8309
 11
-42.55
 21
37.5129
  0
LINE
  8
0
 10
-42.55
 20
37.5129
 11
-43.7074
 21
36.1579
  0
LINE
  8
0
 10
-43.7074
 20
36.1579
 11
-44.8215
 21
34.7672
  0
LINE
  8
0
 10
-44.8215
 20
34.7672
 11
-45.8915
 21
33.3421
  0
LINE
  8
0
 10
-45.8915
 20
33.3421
 11
-46.9161
 21
31.8842
  0
LINE
  8
0
 10
-46.9161
 20
31.8842
 11
-47.8945
 21
30.3948
  0
LINE
  8
0
 10
-47.8945
 20
30.3948
 11
-48.8256
 21
28.8754
  0
LINE
  8
0
 10
-48.8256
 20
28.8754
 11
-49.7085
 21
27.3275
  0
LINE
  8
0
 10
-49.7085
 20
27.3275
 11
-50.5423
 21
25.7526
  0
LINE
  8
0
 10
-50.5423
 20
25.7526
 11
-51.3263
 21
24.1523
  0
LINE
  8
0
 10
-51.3263
 20
24.1523
 11
-52.0596
 21
22.5282
  0
LINE
  8
0
 10
-52.0596
 20
22.5282
 11
-52.7416
 21
20.8819
  0
LINE
  8
0
 10
-52.7416
 20
20.8819
 11
-53.3715
 21
19.2149
  0
LINE
  8
0
 10
-53.3715
 20
19.2149
 11
-53.9487
 21
17.529
  0
LINE
  8
0
 10
-53.9487
 20
17.529
 11
-54.4727
 21
15.8258
  0
LINE
  8
0
 10
-54.4727
 20
15.8258
 11
-54.9429
 21
14.1069
  0
LINE
  8
0
 10
-54.9429
 20
14.1069
 11
-55.3589
 21
12.3742
  0
LINE
  8
0
 10
-55.3589
 20
12.3742
 11
-55.7202
 21
10.6292
  0
LINE
  8
0
 10
-55.7202
 20
10.6292
 11
-56.0266
 21
8.87373
  0
LINE
  8
0
 10
-56.0266
 20
8.87373
 11
-56.2777
 21
7.10953
  0
LINE
  8
0
 10
-56.2777
 20
7.10953
 11
-56.4733
 21
5.33829
  0
LINE
  8
0
 10
-56.4733
 20
5.33829
 11
-56.6131
 21
3.56178
  0
LINE
  8
0
 10
-56.6131
 20
3.56178
 11
-56.697
 21
1.78177
  0
LINE
  8
0
 10
-56.697
 20
1.78177
 11
-56.725
 21
0
  0
LINE
  8
0
 10
-56.725
 20
0
 11
-56.697
 21
-1.78177
  0
LINE
  8
0
 10
-56.697
 20
-1.78177
 11
-56.6131
 21
-3.56178
  0
LINE
  8
0
 10
-56.6131
 20
-3.56178
 11
-56.4733
 21
-5.33829
  0
LINE
  8
0
 10
-56.4733
 20
-5.33829
 11
-56.2777
 21
-7.10953
  0
LINE
  8
0
 10
-56.2777
 20
-7.10953
 11
-56.0266
 21
-8.87373
  0
LINE
  8
0
 10
-56.0266
 20
-8.87373
 11
-55.7202
 21
-10.6292
  0
LINE
  8
0
 10
-55.7202
 20
-10.6292
 11
-55.3589
 21
-12.3742
  0
LINE
  8
0
 10
-55.3589
 20
-12.3742
 11
-54.9429
 21
-14.1069
  0
LINE
  8
0
 10
-54.9429
 20
-14.1069
 11
-54.4727
 21
-15.8258
  0
LINE
  8
0
 10
-54.4727
 20
-15.8258
 11
-53.9487
 21
-17.529
  0
LINE
  8
0
 10
-53.9487
 20
-17.529
 11
-53.3715
 21
-19.2149
  0
LINE
  8
0
 10
-53.3715
 20
-19.2149
 11
-52.7416
 21
-20.8819
  0
LINE
  8
0
 10
-52.7416
 20
-20.8819
 11
-52.0596
 21
-22.5282
  0
LINE
  8
0
 10
-52.0596
 20
-22.5282
 11
-51.3263
 21
-24.1523
  0
LINE
  8
0
 10
-51.3263
 20
-24.1523
 11
-50.5423
 21
-25.7526
  0
LINE
  8
0
 10
-50.5423
 20
-25.7526
 11
-49.7085
 21
-27.3275
  0
LINE
  8
0
 10
-49.7085
 20
-27.3275
 11
-48.8256
 21
-28.8754
  0
LINE
  8
0
 10
-48.8256
 20
-28.8754
 11
-47.8945
 21
-30.3948
  0
LINE
  8
0
 10
-47.8945
 20
-30.3948
 11
-46.9161
 21
-31.8842
  0
LINE
  8
0
 10
-46.9161
 20
-31.8842
 11
-45.8915
 21
-33.3421
  0
LINE
  8
0
 10
-45.8915
 20
-33.3421
 11
-44.8215
 21
-34.7672
  0
LINE
  8
0
 10
-44.8215
 20
-34.7672
 11
-43.7074
 21
-36.1579
  0
LINE
  8
0
 10
-43.7074
 20
-36.1579
 11
-42.55
 21
-37.5129
  0
LINE
  8
0
 10
-42.55
 20
-37.5129
 11
-41.3507
 21
-38.8309
  0
LINE
  8
0
 10
-41.3507
 20
-38.8309
 11
-40.1106
 21
-40.1106
  0
LINE
  8
0
 10
-40.1106
 20
-40.1106
 11
-38.8309
 21
-41.3507
  0
LINE
  8
0
 10
-38.8309
 20
-41.3507
 11
-37.5129
 21
-42.55
  0
LINE
  8
0
 10
-37.5129
 20
-42.55
 11
-36.1579
 21
-43.7074
  0
LINE
  8
0
 10
-36.1579
 20
-43.7074
 11
-34.7672
 21
-44.8215
  0
LINE
  8
0
 10
-34.7672
 20
-44.8215
 11
-33.3421
 21
-45.8915
  0
LINE
  8
0
 10
-33.3421
 20
-45.8915
 11
-31.8842
 21
-46.9161
  0
LINE
  8
0
 10
-31.8842
 20
-46.9161
 11
-30.3948
 21
-47.8945
  0
LINE
  8
0
 10
-30.3948
 20
-47.8945
 11
-28.8754
 21
-48.8256
  0
LINE
  8
0
 10
-28.8754
 20
-48.8256
 11
-27.3275
 21
-49.7085
  0
LINE
  8
0
 10
-27.3275
 20
-49.7085
 11
-25.7526
 21
-50.5423
  0
LINE
  8
0
 10
-25.7526
 20
-50.5423
 11
-24.1523
 21
-51.3263
  0
LINE
  8
0
 10
-24.1523
 20
-51.3263
 11
-22.5282
 21
-52.0596
  0
LINE
  8
0
 10
-22.5282
 20
-52.0596
 11
-20.8819
 21
-52.7416
  0
LINE
  8
0
 10
-20.8819
 20
-52.7416
 11
-19.2149
 21
-53.3715
  0
LINE
  8
0
 10
-19.2149
 20
-53.3715
 11
-17.529
 21
-53.9487
  0
LINE
  8
0
 10
-17.529
 20
-53.9487
 11
-15.8258
 21
-54.4727
  0
LINE
  8
0
 10
-15.8258
 20
-54.4727
 11
-14.1069
 21
-54.9429
  0
LINE
  8
0
 10
-14.1069
 20
-54.9429
 11
-12.3742
 21
-55.3589
  0
LINE
  8
0
 10
-12.3742
 20
-55.3589
 11
-10.6292
 21
-55.7202
  0
LINE
  8
0
 10
-10.6292
 20
-55.7202
 11
-8.87373
 21
-56.0266
  0
LINE
  8
0
 10
-8.87373
 20
-56.0266
 11
-7.10953
 21
-56.2777
  0
LINE
  8
0
 10
-7.10953
 20
-56.2777
 11
-5.33829
 21
-56.4733
  0
LINE
  8
0
 10
-5.33829
 20
-56.4733
 11
-3.56178
 21
-56.6131
  0
LINE
  8
0
 10
-3.56178
 20
-56.6131
 11
-1.78177
 21
-56.697
  0
LINE
  8
0
 10
-1.78177
 20
-56.697
 11
0
 21
-56.725
  0
LINE
  8
0
 10
0
 20
-56.725
 11
1.78177
 21
-56.697
  0
LINE
  8
0
 10
-0.23465
 20
51.371
 11
-0.463516
 21
51.4259
  0
LINE
  8
0
 10
-0.463516
 20
51.4259
 11
-0.680984
 21
51.516
  0
LINE
  8
0
 10
-0.680984
 20
51.516
 11
-0.881668
 21
51.639
  0
LINE
  8
0
 10
-0.881668
 20
51.639
 11
-1.06065
 21
51.7918
  0
LINE
  8
0
 10
-1.06065
 20
51.7918
 11
-1.21352
 21
51.9708
  0
LINE
  8
0
 10
-1.21352
 20
51.9708
 11
-1.3365
 21
52.1715
  0
LINE
  8
0
 10
-1.3365
 20
52.1715
 11
-1.42657
 21
52.389
  0
LINE
  8
0
 10
-1.42657
 20
52.389
 11
-1.48152
 21
52.6178
  0
LINE
  8
0
 10
-1.48152
 20
52.6178
 11
-1.49998
 21
52.8525
  0
LINE
  8
0
 10
-1.49998
 20
52.8525
 11
-1.48152
 21
53.0871
  0
LINE
  8
0
 10
-1.48152
 20
53.0871
 11
-1.42657
 21
53.316
  0
LINE
  8
0
 10
-1.42657
 20
53.316
 11
-1.3365
 21
53.5335
  0
LINE
  8
0
 10
-1.3365
 20
53.5335
 11
-1.21352
 21
53.7342
  0
LINE
  8
0
 10
-1.21352
 20
53.7342
 11
-1.06065
 21
53.9131
  0
LINE
  8
0
 10
-1.06065
 20
53.9131
 11
-0.881668
 21
54.066
  0
LINE
  8
0
 10
-0.881668
 20
54.066
 11
-0.680984
 21
54.189
  0
LINE
  8
0
 10
-0.680984
 20
54.189
 11
-0.463516
 21
54.2791
  0
LINE
  8
0
 10
-0.463516
 20
54.2791
 11
-0.23465
 21
54.334
  0
LINE
  8
0
 10
-0.23465
 20
54.334
 11
0
 21
54.3525
  0
LINE
  8
0
 10
0
 20
54.3525
 11
0.23465
 21
54.334
  0
LINE
  8
0
 10
0.23465
 20
54.334
 11
0.463516
 21
54.2791
  0
LINE
  8
0
 10
0.463516
 20
54.2791
 11
0.680984
 21
54.189
  0
LINE
  8
0
 10
0.680984
 20
54.189
 11
0.881668
 21
54.066
  0
LINE
  8
0
 10
0.881668
 20
54.066
 11
1.06065
 21
53.9131
  0
LINE
  8
0
 10
1.06065
 20
53.9131
 11
1.21352
 21
53.7342
  0
LINE
  8
0
 10
1.21352
 20
53.7342
 11
1.3365
 21
53.5335
  0
LINE
  8
0
 10
1.3365
 20
53.5335
 11
1.42657
 21
53.316
  0
LINE
  8
0
 10
1.42657
 20
53.316
 11
1.48152
 21
53.0871
  0
LINE
  8
0
 10
1.48152
 20
53.0871
 11
1.5
 21
52.8525
  0
LINE
  8
0
 10
1.5
 20
52.8525
 11
1.48152
 21
52.6178
  0
LINE
  8
0
 10
1.48152
 20
52.6178
 11
1.42657
 21
52.389
  0
LINE
  8
0
 10
1.42657
 20
52.389
 11
1.3365
 21
52.1715
  0
LINE
  8
0
 10
1.3365
 20
52.1715
 11
1.21352
 21
51.9708
  0
LINE
  8
0
 10
1.21352
 20
51.9708
 11
1.06065
 21
51.7918
  0
LINE
  8
0
 10
1.06065
 20
51.7918
 11
0.881668
 21
51.639
  0
LINE
  8
0
 10
0.881668
 20
51.639
 11
0.680984
 21
51.516
  0
LINE
  8
0
 10
0.680984
 20
51.516
 11
0.463516
 21
51.4259
  0
LINE
  8
0
 10
0.463516
 20
51.4259
 11
0.23465
 21
51.371
  0
LINE
  8
0
 10
0.23465
 20
51.371
 11
0
 21
51.3525
  0
LINE
  8
0
 10
0
 20
51.3525
 11
-0.23465
 21
51.371
  0
LINE
  8
0
 10
-6.97188
 20
14.5298
 11
-7.15318
 21
14.5634
  0
LINE
  8
0
 10
-7.15318
 20
14.5634
 11
-7.33
 21
14.6157
  0
LINE
  8
0
 10
-7.33
 20
14.6157
 11
-7.50037
 21
14.6863
  0
LINE
  8
0
 10
-7.50037
 20
14.6863
 11
-7.66243
 21
14.7743
  0
LINE
  8
0
 10
-7.66243
 20
14.7743
 11
-7.81441
 21
14.8788
  0
LINE
  8
0
 10
-7.81441
 20
14.8788
 11
-7.95462
 21
14.9985
  0
LINE
  8
0
 10
-7.95462
 20
14.9985
 11
-22.8053
 21
30.5238
  0
LINE
  8
0
 10
-22.8053
 20
30.5238
 11
-23.5457
 21
31.3041
  0
LINE
  8
0
 10
-23.5457
 20
31.3041
 11
-24.2006
 21
32.1575
  0
LINE
  8
0
 10
-24.2006
 20
32.1575
 11
-24.7626
 21
33.0747
  0
LINE
  8
0
 10
-24.7626
 20
33.0747
 11
-25.2257
 21
34.0456
  0
LINE
  8
0
 10
-25.2257
 20
34.0456
 11
-25.5848
 21
35.0596
  0
LINE
  8
0
 10
-25.5848
 20
35.0596
 11
-25.8359
 21
36.1056
  0
LINE
  8
0
 10
-25.8359
 20
36.1056
 11
-25.9763
 21
37.1721
  0
LINE
  8
0
 10
-25.9763
 20
37.1721
 11
-26.0045
 21
38.2474
  0
LINE
  8
0
 10
-26.0045
 20
38.2474
 11
-25.9201
 21
39.3198
  0
LINE
  8
0
 10
-25.9201
 20
39.3198
 11
-25.7241
 21
40.3775
  0
LINE
  8
0
 10
-25.7241
 20
40.3775
 11
-25.4186
 21
41.4089
  0
LINE
  8
0
 10
-25.4186
 20
41.4089
 11
-25.0069
 21
42.4027
  0
LINE
  8
0
 10
-25.0069
 20
42.4027
 11
-24.4936
 21
43.348
  0
LINE
  8
0
 10
-24.4936
 20
43.348
 11
-23.8843
 21
44.2345
  0
LINE
  8
0
 10
-23.8843
 20
44.2345
 11
-23.1857
 21
45.0525
  0
LINE
  8
0
 10
-23.1857
 20
45.0525
 11
-22.4054
 21
45.793
  0
LINE
  8
0
 10
-22.4054
 20
45.793
 11
-21.552
 21
46.4478
  0
LINE
  8
0
 10
-21.552
 20
46.4478
 11
-20.6349
 21
47.0099
  0
LINE
  8
0
 10
-20.6349
 20
47.0099
 11
-19.6639
 21
47.473
  0
LINE
  8
0
 10
-19.6639
 20
47.473
 11
-18.6499
 21
47.832
  0
LINE
  8
0
 10
-18.6499
 20
47.832
 11
-17.604
 21
48.0832
  0
LINE
  8
0
 10
-17.604
 20
48.0832
 11
-16.5375
 21
48.2236
  0
LINE
  8
0
 10
-16.5375
 20
48.2236
 11
-15.4621
 21
48.2517
  0
LINE
  8
0
 10
-15.4621
 20
48.2517
 11
-14.3898
 21
48.1673
  0
LINE
  8
0
 10
-14.3898
 20
48.1673
 11
-13.3321
 21
47.9713
  0
LINE
  8
0
 10
-13.3321
 20
47.9713
 11
-12.3007
 21
47.6658
  0
LINE
  8
0
 10
-12.3007
 20
47.6658
 11
-11.3068
 21
47.2541
  0
LINE
  8
0
 10
-11.3068
 20
47.2541
 11
-10.3615
 21
46.7408
  0
LINE
  8
0
 10
-10.3615
 20
46.7408
 11
-9.47499
 21
46.1316
  0
LINE
  8
0
 10
-9.47499
 20
46.1316
 11
-8.65701
 21
45.433
  0
LINE
  8
0
 10
-8.65701
 20
45.433
 11
-7.91655
 21
44.6527
  0
LINE
  8
0
 10
-7.91655
 20
44.6527
 11
-7.2617
 21
43.7993
  0
LINE
  8
0
 10
-7.2617
 20
43.7993
 11
-6.69966
 21
42.8821
  0
LINE
  8
0
 10
-6.69966
 20
42.8821
 11
-6.23656
 21
41.9112
  0
LINE
  8
0
 10
-6.23656
 20
41.9112
 11
-5.87749
 21
40.8972
  0
LINE
  8
0
 10
-5.87749
 20
40.8972
 11
-5.62636
 21
39.8512
  0
LINE
  8
0
 10
-5.62636
 20
39.8512
 11
-5.48596
 21
38.7847
  0
LINE
  8
0
 10
-5.48596
 20
38.7847
 11
-5.45779
 21
37.7094
  0
LINE
  8
0
 10
-5.45779
 20
37.7094
 11
-4.98077
 21
16.2303
  0
LINE
  8
0
 10
-4.98077
 20
16.2303
 11
-4.99524
 21
16.0465
  0
LINE
  8
0
 10
-4.99524
 20
16.0465
 11
-5.02884
 21
15.8652
  0
LINE
  8
0
 10
-5.02884
 20
15.8652
 11
-5.08122
 21
15.6884
  0
LINE
  8
0
 10
-5.08122
 20
15.6884
 11
-5.15179
 21
15.518
  0
LINE
  8
0
 10
-5.15179
 20
15.518
 11
-5.23978
 21
15.3559
  0
LINE
  8
0
 10
-5.23978
 20
15.3559
 11
-5.34422
 21
15.2039
  0
LINE
  8
0
 10
-5.34422
 20
15.2039
 11
-5.46399
 21
15.0637
  0
LINE
  8
0
 10
-5.46399
 20
15.0637
 11
-5.59775
 21
14.9368
  0
LINE
  8
0
 10
-5.59775
 20
14.9368
 11
-5.74405
 21
14.8245
  0
LINE
  8
0
 10
-5.74405
 20
14.8245
 11
-5.90129
 21
14.7282
  0
LINE
  8
0
 10
-5.90129
 20
14.7282
 11
-6.06772
 21
14.6488
  0
LINE
  8
0
 10
-6.06772
 20
14.6488
 11
-6.24155
 21
14.5872
  0
LINE
  8
0
 10
-6.24155
 20
14.5872
 11
-6.42087
 21
14.5442
  0
LINE
  8
0
 10
-6.42087
 20
14.5442
 11
-6.6037
 21
14.5201
  0
LINE
  8
0
 10
-6.6037
 20
14.5201
 11
-6.78804
 21
14.5153
  0
LINE
  8
0
 10
-6.78804
 20
14.5153
 11
-6.97188
 21
14.5298
  0
LINE
  8
0
 10
6.6037
 20
14.5201
 11
6.42087
 21
14.5442
  0
LINE
  8
0
 10
6.42087
 20
14.5442
 11
6.24155
 21
14.5872
  0
LINE
  8
0
 10
6.24155
 20
14.5872
 11
6.06772
 21
14.6488
  0
LINE
  8
0
 10
6.06772
 20
14.6488
 11
5.90129
 21
14.7282
  0
LINE
  8
0
 10
5.90129
 20
14.7282
 11
5.74405
 21
14.8245
  0
LINE
  8
0
 10
5.74405
 20
14.8245
 11
5.59775
 21
14.9368
  0
LINE
  8
0
 10
5.59775
 20
14.9368
 11
5.46399
 21
15.0637
  0
LINE
  8
0
 10
5.46399
 20
15.0637
 11
5.34422
 21
15.2039
  0
LINE
  8
0
 10
5.34422
 20
15.2039
 11
5.23978
 21
15.3559
  0
LINE
  8
0
 10
5.23978
 20
15.3559
 11
5.15179
 21
15.518
  0
LINE
  8
0
 10
5.15179
 20
15.518
 11
5.08122
 21
15.6884
  0
LINE
  8
0
 10
5.08122
 20
15.6884
 11
5.02884
 21
15.8652
  0
LINE
  8
0
 10
5.02884
 20
15.8652
 11
4.99524
 21
16.0465
  0
LINE
  8
0
 10
4.99524
 20
16.0465
 11
4.98077
 21
16.2303
  0
LINE
  8
0
 10
4.98077
 20
16.2303
 11
5.45779
 21
37.7094
  0
LINE
  8
0
 10
5.45779
 20
37.7094
 11
5.48596
 21
38.7847
  0
LINE
  8
0
 10
5.48596
 20
38.7847
 11
5.62636
 21
39.8512
  0
LINE
  8
0
 10
5.62636
 20
39.8512
 11
5.87749
 21
40.8972
  0
LINE
  8
0
 10
5.87749
 20
40.8972
 11
6.23656
 21
41.9112
  0
LINE
  8
0
 10
6.23656
 20
41.9112
 11
6.69966
 21
42.8821
  0
LINE
  8
0
 10
6.69966
 20
42.8821
 11
7.2617
 21
43.7993
  0
LINE
  8
0
 10
7.2617
 20
43.7993
 11
7.91655
 21
44.6527
  0
LINE
  8
0
 10
7.91655
 20
44.6527
 11
8.65701
 21
45.433
  0
LINE
  8
0
 10
8.65701
 20
45.433
 11
9.47499
 21
46.1316
  0
LINE
  8
0
 10
9.47499
 20
46.1316
 11
10.3615
 21
46.7408
  0
LINE
  8
0
 10
10.3615
 20
46.7408
 11
11.3068
 21
47.2541
  0
LINE
  8
0
 10
11.3068
 20
47.2541
 11
12.3007
 21
47.6658
  0
LINE
  8
0
 10
12.3007
 20
47.6658
 11
13.3321
 21
47.9713
  0
LINE
  8
0
 10
13.3321
 20
47.9713
 11
14.3898
 21
48.1673
  0
LINE
  8
0
 10
14.3898
 20
48.1673
 11
15.4621
 21
48.2517
  0
LINE
  8
0
 10
15.4621
 20
48.2517
 11
16.5375
 21
48.2236
  0
LINE
  8
0
 10
16.5375
 20
48.2236
 11
17.604
 21
48.0832
  0
LINE
  8
0
 10
17.604
 20
48.0832
 11
18.6499
 21
47.832
  0
LINE
  8
0
 10
18.6499
 20
47.832
 11
19.6639
 21
47.473
  0
LINE
  8
0
 10
19.6639
 20
47.473
 11
20.6349
 21
47.0099
  0
LINE
  8
0
 10
20.6349
 20
47.0099
 11
21.552
 21
46.4478
  0
LINE
  8
0
 10
21.552
 20
46.4478
 11
22.4054
 21
45.793
  0
LINE
  8
0
 10
22.4054
 20
45.793
 11
23.1857
 21
45.0525
  0
LINE
  8
0
 10
23.1857
 20
45.0525
 11
23.8843
 21
44.2345
  0
LINE
  8
0
 10
23.8843
 20
44.2345
 11
24.4936
 21
43.348
  0
LINE
  8
0
 10
24.4936
 20
43.348
 11
25.0069
 21
42.4027
  0
LINE
  8
0
 10
25.0069
 20
42.4027
 11
25.4186
 21
41.4089
  0
LINE
  8
0
 10
25.4186
 20
41.4089
 11
25.7241
 21
40.3775
  0
LINE
  8
0
 10
25.7241
 20
40.3775
 11
25.9201
 21
39.3198
  0
LINE
  8
0
 10
25.9201
 20
39.3198
 11
26.0045
 21
38.2474
  0
LINE
  8
0
 10
26.0045
 20
38.2474
 11
25.9763
 21
37.1721
  0
LINE
  8
0
 10
25.9763
 20
37.1721
 11
25.8359
 21
36.1056
  0
LINE
  8
0
 10
25.8359
 20
36.1056
 11
25.5848
 21
35.0596
  0
LINE
  8
0
 10
25.5848
 20
35.0596
 11
25.2257
 21
34.0456
  0
LINE
  8
0
 10
25.2257
 20
34.0456
 11
24.7626
 21
33.0747
  0
LINE
  8
0
 10
24.7626
 20
33.0747
 11
24.2006
 21
32.1575
  0
LINE
  8
0
 10
24.2006
 20
32.1575
 11
23.5457
 21
31.3041
  0
LINE
  8
0
 10
23.5457
 20
31.3041
 11
22.8053
 21
30.5238
  0
LINE
  8
0
 10
22.8053
 20
30.5238
 11
7.95462
 21
14.9985
  0
LINE
  8
0
 10
7.95462
 20
14.9985
 11
7.81441
 21
14.8788
  0
LINE
  8
0
 10
7.81441
 20
14.8788
 11
7.66243
 21
14.7743
  0
LINE
  8
0
 10
7.66243
 20
14.7743
 11
7.50037
 21
14.6863
  0
LINE
  8
0
 10
7.50037
 20
14.6863
 11
7.33
 21
14.6157
  0
LINE
  8
0
 10
7.33
 20
14.6157
 11
7.15318
 21
14.5634
  0
LINE
  8
0
 10
7.15318
 20
14.5634
 11
6.97188
 21
14.5298
  0
LINE
  8
0
 10
6.97188
 20
14.5298
 11
6.78804
 21
14.5153
  0
LINE
  8
0
 10
6.78804
 20
14.5153
 11
6.6037
 21
14.5201
  0
LINE
  8
0
 10
37.1377
 20
35.8908
 11
36.9088
 21
35.9458
  0
LINE
  8
0
 10
36.9088
 20
35.9458
 11
36.6914
 21
36.0358
  0
LINE
  8
0
 10
36.6914
 20
36.0358
 11
36.4907
 21
36.1588
  0
LINE
  8
0
 10
36.4907
 20
36.1588
 11
36.3117
 21
36.3117
  0
LINE
  8
0
 10
36.3117
 20
36.3117
 11
36.1588
 21
36.4907
  0
LINE
  8
0
 10
36.1588
 20
36.4907
 11
36.0358
 21
36.6914
  0
LINE
  8
0
 10
36.0358
 20
36.6914
 11
35.9458
 21
36.9088
  0
LINE
  8
0
 10
35.9458
 20
36.9088
 11
35.8908
 21
37.1377
  0
LINE
  8
0
 10
35.8908
 20
37.1377
 11
35.8724
 21
37.3724
  0
LINE
  8
0
 10
35.8724
 20
37.3724
 11
35.8908
 21
37.607
  0
LINE
  8
0
 10
35.8908
 20
37.607
 11
35.9458
 21
37.8359
  0
LINE
  8
0
 10
35.9458
 20
37.8359
 11
36.0358
 21
38.0533
  0
LINE
  8
0
 10
36.0358
 20
38.0533
 11
36.1588
 21
38.254
  0
LINE
  8
0
 10
36.1588
 20
38.254
 11
36.3117
 21
38.433
  0
LINE
  8
0
 10
36.3117
 20
38.433
 11
36.4907
 21
38.5859
  0
LINE
  8
0
 10
36.4907
 20
38.5859
 11
36.6914
 21
38.7089
  0
LINE
  8
0
 10
36.6914
 20
38.7089
 11
36.9088
 21
38.7989
  0
LINE
  8
0
 10
36.9088
 20
38.7989
 11
37.1377
 21
38.8539
  0
LINE
  8
0
 10
37.1377
 20
38.8539
 11
37.3724
 21
38.8724
  0
LINE
  8
0
 10
37.3724
 20
38.8724
 11
37.607
 21
38.8539
  0
LINE
  8
0
 10
37.607
 20
38.8539
 11
37.8359
 21
38.7989
  0
LINE
  8
0
 10
37.8359
 20
38.7989
 11
38.0533
 21
38.7089
  0
LINE
  8
0
 10
38.0533
 20
38.7089
 11
38.254
 21
38.5859
  0
LINE
  8
0
 10
38.254
 20
38.5859
 11
38.433
 21
38.433
  0
LINE
  8
0
 10
38.433
 20
38.433
 11
38.5859
 21
38.254
  0
LINE
  8
0
 10
38.5859
 20
38.254
 11
38.7089
 21
38.0533
  0
LINE
  8
0
 10
38.7089
 20
38.0533
 11
38.7989
 21
37.8359
  0
LINE
  8
0
 10
38.7989
 20
37.8359
 11
38.8539
 21
37.607
  0
LINE
  8
0
 10
38.8539
 20
37.607
 11
38.8724
 21
37.3724
  0
LINE
  8
0
 10
38.8724
 20
37.3724
 11
38.8539
 21
37.1377
  0
LINE
  8
0
 10
38.8539
 20
37.1377
 11
38.7989
 21
36.9088
  0
LINE
  8
0
 10
38.7989
 20
36.9088
 11
38.7089
 21
36.6914
  0
LINE
  8
0
 10
38.7089
 20
36.6914
 11
38.5859
 21
36.4907
  0
LINE
  8
0
 10
38.5859
 20
36.4907
 11
38.433
 21
36.3117
  0
LINE
  8
0
 10
38.433
 20
36.3117
 11
38.254
 21
36.1588
  0
LINE
  8
0
 10
38.254
 20
36.1588
 11
38.0533
 21
36.0358
  0
LINE
  8
0
 10
38.0533
 20
36.0358
 11
37.8359
 21
35.9458
  0
LINE
  8
0
 10
37.8359
 20
35.9458
 11
37.607
 21
35.8908
  0
LINE
  8
0
 10
37.607
 20
35.8908
 11
37.3724
 21
35.8724
  0
LINE
  8
0
 10
37.3724
 20
35.8724
 11
37.1377
 21
35.8908
  0
LINE
  8
0
 10
-37.607
 20
35.8908
 11
-37.8359
 21
35.9458
  0
LINE
  8
0
 10
-37.8359
 20
35.9458
 11
-38.0533
 21
36.0358
  0
LINE
  8
0
 10
-38.0533
 20
36.0358
 11
-38.254
 21
36.1588
  0
LINE
  8
0
 10
-38.254
 20
36.1588
 11
-38.433
 21
36.3117
  0
LINE
  8
0
 10
-38.433
 20
36.3117
 11
-38.5859
 21
36.4907
  0
LINE
  8
0
 10
-38.5859
 20
36.4907
 11
-38.7089
 21
36.6914
  0
LINE
  8
0
 10
-38.7089
 20
36.6914
 11
-38.7989
 21
36.9088
  0
LINE
  8
0
 10
-38.7989
 20
36.9088
 11
-38.8539
 21
37.1377
  0
LINE
  8
0
 10
-38.8539
 20
37.1377
 11
-38.8724
 21
37.3724
  0
LINE
  8
0
 10
-38.8724
 20
37.3724
 11
-38.8539
 21
37.607
  0
LINE
  8
0
 10
-38.8539
 20
37.607
 11
-38.7989
 21
37.8359
  0
LINE
  8
0
 10
-38.7989
 20
37.8359
 11
-38.7089
 21
38.0533
  0
LINE
  8
0
 10
-38.7089
 20
38.0533
 11
-38.5859
 21
38.254
  0
LINE
  8
0
 10
-38.5859
 20
38.254
 11
-38.433
 21
38.433
  0
LINE
  8
0
 10
-38.433
 20
38.433
 11
-38.254
 21
38.5859
  0
LINE
  8
0
 10
-38.254
 20
38.5859
 11
-38.0533
 21
38.7089
  0
LINE
  8
0
 10
-38.0533
 20
38.7089
 11
-37.8359
 21
38.7989
  0
LINE
  8
0
 10
-37.8359
 20
38.7989
 11
-37.607
 21
38.8539
  0
LINE
  8
0
 10
-37.607
 20
38.8539
 11
-37.3724
 21
38.8724
  0
LINE
  8
0
 10
-37.3724
 20
38.8724
 11
-37.1377
 21
38.8539
  0
LINE
  8
0
 10
-37.1377
 20
38.8539
 11
-36.9088
 21
38.7989
  0
LINE
  8
0
 10
-36.9088
 20
38.7989
 11
-36.6914
 21
38.7089
  0
LINE
  8
0
 10
-36.6914
 20
38.7089
 11
-36.4907
 21
38.5859
  0
LINE
  8
0
 10
-36.4907
 20
38.5859
 11
-36.3117
 21
38.433
  0
LINE
  8
0
 10
-36.3117
 20
38.433
 11
-36.1588
 21
38.254
  0
LINE
  8
0
 10
-36.1588
 20
38.254
 11
-36.0358
 21
38.0533
  0
LINE
  8
0
 10
-36.0358
 20
38.0533
 11
-35.9458
 21
37.8359
  0
LINE
  8
0
 10
-35.9458
 20
37.8359
 11
-35.8908
 21
37.607
  0
LINE
  8
0
 10
-35.8908
 20
37.607
 11
-35.8724
 21
37.3724
  0
LINE
  8
0
 10
-35.8724
 20
37.3724
 11
-35.8908
 21
37.1377
  0
LINE
  8
0
 10
-35.8908
 20
37.1377
 11
-35.9458
 21
36.9088
  0
LINE
  8
0
 10
-35.9458
 20
36.9088
 11
-36.0358
 21
36.6914
  0
LINE
  8
0
 10
-36.0358
 20
36.6914
 11
-36.1588
 21
36.4907
  0
LINE
  8
0
 10
-36.1588
 20
36.4907
 11
-36.3117
 21
36.3117
  0
LINE
  8
0
 10
-36.3117
 20
36.3117
 11
-36.4907
 21
36.1588
  0
LINE
  8
0
 10
-36.4907
 20
36.1588
 11
-36.6914
 21
36.0358
  0
LINE
  8
0
 10
-36.6914
 20
36.0358
 11
-36.9088
 21
35.9458
  0
LINE
  8
0
 10
-36.9088
 20
35.9458
 11
-37.1377
 21
35.8908
  0
LINE
  8
0
 10
-37.1377
 20
35.8908
 11
-37.3724
 21
35.8724
  0
LINE
  8
0
 10
-37.3724
 20
35.8724
 11
-37.607
 21
35.8908
  0
LINE
  8
0
 10
-37.7094
 20
5.45779
 11
-38.7847
 21
5.48596
  0
LINE
  8
0
 10
-38.7847
 20
5.48596
 11
-39.8512
 21
5.62636
  0
LINE
  8
0
 10
-39.8512
 20
5.62636
 11
-40.8972
 21
5.87749
  0
LINE
  8
0
 10
-40.8972
 20
5.87749
 11
-41.9112
 21
6.23656
  0
LINE
  8
0
 10
-41.9112
 20
6.23656
 11
-42.8821
 21
6.69966
  0
LINE
  8
0
 10
-42.8821
 20
6.69966
 11
-43.7993
 21
7.2617
  0
LINE
  8
0
 10
-43.7993
 20
7.2617
 11
-44.6527
 21
7.91655
  0
LINE
  8
0
 10
-44.6527
 20
7.91655
 11
-45.433
 21
8.65701
  0
LINE
  8
0
 10
-45.433
 20
8.65701
 11
-46.1316
 21
9.47499
  0
LINE
  8
0
 10
-46.1316
 20
9.47499
 11
-46.7408
 21
10.3615
  0
LINE
  8
0
 10
-46.7408
 20
10.3615
 11
-47.2541
 21
11.3068
  0
LINE
  8
0
 10
-47.2541
 20
11.3068
 11
-47.6658
 21
12.3007
  0
LINE
  8
0
 10
-47.6658
 20
12.3007
 11
-47.9713
 21
13.3321
  0
LINE
  8
0
 10
-47.9713
 20
13.3321
 11
-48.1673
 21
14.3898
  0
LINE
  8
0
 10
-48.1673
 20
14.3898
 11
-48.2517
 21
15.4621
  0
LINE
  8
0
 10
-48.2517
 20
15.4621
 11
-48.2236
 21
16.5375
  0
LINE
  8
0
 10
-48.2236
 20
16.5375
 11
-48.0832
 21
17.604
  0
LINE
  8
0
 10
-48.0832
 20
17.604
 11
-47.832
 21
18.6499
  0
LINE
  8
0
 10
-47.832
 20
18.6499
 11
-47.473
 21
19.6639
  0
LINE
  8
0
 10
-47.473
 20
19.6639
 11
-47.0099
 21
20.6349
  0
LINE
  8
0
 10
-47.0099
 20
20.6349
 11
-46.4478
 21
21.552
  0
LINE
  8
0
 10
-46.4478
 20
21.552
 11
-45.793
 21
22.4054
  0
LINE
  8
0
 10
-45.793
 20
22.4054
 11
-45.0525
 21
23.1857
  0
LINE
  8
0
 10
-45.0525
 20
23.1857
 11
-44.2345
 21
23.8843
  0
LINE
  8
0
 10
-44.2345
 20
23.8843
 11
-43.348
 21
24.4936
  0
LINE
  8
0
 10
-43.348
 20
24.4936
 11
-42.4027
 21
25.0069
  0
LINE
  8
0
 10
-42.4027
 20
25.0069
 11
-41.4089
 21
25.4186
  0
LINE
  8
0
 10
-41.4089
 20
25.4186
 11
-40.3775
 21
25.7241
  0
LINE
  8
0
 10
-40.3775
 20
25.7241
 11
-39.3198
 21
25.9201
  0
LINE
  8
0
 10
-39.3198
 20
25.9201
 11
-38.2474
 21
26.0045
  0
LINE
  8
0
 10
-38.2474
 20
26.0045
 11
-37.1721
 21
25.9763
  0
LINE
  8
0
 10
-37.1721
 20
25.9763
 11
-36.1056
 21
25.8359
  0
LINE
  8
0
 10
-36.1056
 20
25.8359
 11
-35.0596
 21
25.5848
  0
LINE
  8
0
 10
-35.0596
 20
25.5848
 11
-34.0456
 21
25.2257
  0
LINE
  8
0
 10
-34.0456
 20
25.2257
 11
-33.0747
 21
24.7626
  0
LINE
  8
0
 10
-33.0747
 20
24.7626
 11
-32.1575
 21
24.2006
  0
LINE
  8
0
 10
-32.1575
 20
24.2006
 11
-31.3041
 21
23.5457
  0
LINE
  8
0
 10
-31.3041
 20
23.5457
 11
-30.5238
 21
22.8053
  0
LINE
  8
0
 10
-30.5238
 20
22.8053
 11
-14.9985
 21
7.95462
  0
LINE
  8
0
 10
-14.9985
 20
7.95462
 11
-14.8788
 21
7.81441
  0
LINE
  8
0
 10
-14.8788
 20
7.81441
 11
-14.7743
 21
7.66243
  0
LINE
  8
0
 10
-14.7743
 20
7.66243
 11
-14.6863
 21
7.50037
  0
LINE
  8
0
 10
-14.6863
 20
7.50037
 11
-14.6157
 21
7.33
  0
LINE
  8
0
 10
-14.6157
 20
7.33
 11
-14.5634
 21
7.15318
  0
LINE
  8
0
 10
-14.5634
 20
7.15318
 11
-14.5298
 21
6.97188
  0
LINE
  8
0
 10
-14.5298
 20
6.97188
 11
-14.5153
 21
6.78804
  0
LINE
  8
0
 10
-14.5153
 20
6.78804
 11
-14.5201
 21
6.6037
  0
LINE
  8
0
 10
-14.5201
 20
6.6037
 11
-14.5442
 21
6.42087
  0
LINE
  8
0
 10
-14.5442
 20
6.42087
 11
-14.5872
 21
6.24155
  0
LINE
  8
0
 10
-14.5872
 20
6.24155
 11
-14.6488
 21
6.06772
  0
LINE
  8
0
 10
-14.6488
 20
6.06772
 11
-14.7282
 21
5.90129
  0
LINE
  8
0
 10
-14.7282
 20
5.90129
 11
-14.8245
 21
5.74405
  0
LINE
  8
0
 10
-14.8245
 20
5.74405
 11
-14.9368
 21
5.59775
  0
LINE
  8
0
 10
-14.9368
 20
5.59775
 11
-15.0637
 21
5.46399
  0
LINE
  8
0
 10
-15.0637
 20
5.46399
 11
-15.2039
 21
5.34422
  0
LINE
  8
0
 10
-15.2039
 20
5.34422
 11
-15.3559
 21
5.23978
  0
LINE
  8
0
 10
-15.3559
 20
5.23978
 11
-15.518
 21
5.15179
  0
LINE
  8
0
 10
-15.518
 20
5.15179
 11
-15.6884
 21
5.08122
  0
LINE
  8
0
 10
-15.6884
 20
5.08122
 11
-15.8652
 21
5.02884
  0
LINE
  8
0
 10
-15.8652
 20
5.02884
 11
-16.0465
 21
4.99524
  0
LINE
  8
0
 10
-16.0465
 20
4.99524
 11
-16.2303
 21
4.98077
  0
LINE
  8
0
 10
-16.2303
 20
4.98077
 11
-37.7094
 21
5.45779
  0
LINE
  8
0
 10
16.0465
 20
4.99524
 11
15.8652
 21
5.02884
  0
LINE
  8
0
 10
15.8652
 20
5.02884
 11
15.6884
 21
5.08122
  0
LINE
  8
0
 10
15.6884
 20
5.08122
 11
15.518
 21
5.15179
  0
LINE
  8
0
 10
15.518
 20
5.15179
 11
15.3559
 21
5.23978
  0
LINE
  8
0
 10
15.3559
 20
5.23978
 11
15.2039
 21
5.34422
  0
LINE
  8
0
 10
15.2039
 20
5.34422
 11
15.0637
 21
5.46399
  0
LINE
  8
0
 10
15.0637
 20
5.46399
 11
14.9368
 21
5.59775
  0
LINE
  8
0
 10
14.9368
 20
5.59775
 11
14.8245
 21
5.74405
  0
LINE
  8
0
 10
14.8245
 20
5.74405
 11
14.7282
 21
5.90129
  0
LINE
  8
0
 10
14.7282
 20
5.90129
 11
14.6488
 21
6.06772
  0
LINE
  8
0
 10
14.6488
 20
6.06772
 11
14.5872
 21
6.24155
  0
LINE
  8
0
 10
14.5872
 20
6.24155
 11
14.5442
 21
6.42087
  0
LINE
  8
0
 10
14.5442
 20
6.42087
 11
14.5201
 21
6.6037
  0
LINE
  8
0
 10
14.5201
 20
6.6037
 11
14.5153
 21
6.78804
  0
LINE
  8
0
 10
14.5153
 20
6.78804
 11
14.5298
 21
6.97188
  0
LINE
  8
0
 10
14.5298
 20
6.97188
 11
14.5634
 21
7.15318
  0
LINE
  8
0
 10
14.5634
 20
7.15318
 11
14.6157
 21
7.33
  0
LINE
  8
0
 10
14.6157
 20
7.33
 11
14.6863
 21
7.50037
  0
LINE
  8
0
 10
14.6863
 20
7.50037
 11
14.7743
 21
7.66243
  0
LINE
  8
0
 10
14.7743
 20
7.66243
 11
14.8788
 21
7.81441
  0
LINE
  8
0
 10
14.8788
 20
7.81441
 11
14.9985
 21
7.95462
  0
LINE
  8
0
 10
14.9985
 20
7.95462
 11
30.5238
 21
22.8053
  0
LINE
  8
0
 10
30.5238
 20
22.8053
 11
31.3041
 21
23.5457
  0
LINE
  8
0
 10
31.3041
 20
23.5457
 11
32.1575
 21
24.2006
  0
LINE
  8
0
 10
32.1575
 20
24.2006
 11
33.0747
 21
24.7626
  0
LINE
  8
0
 10
33.0747
 20
24.7626
 11
34.0456
 21
25.2257
  0
LINE
  8
0
 10
34.0456
 20
25.2257
 11
35.0596
 21
25.5848
  0
LINE
  8
0
 10
35.0596
 20
25.5848
 11
36.1056
 21
25.8359
  0
LINE
  8
0
 10
36.1056
 20
25.8359
 11
37.1721
 21
25.9763
  0
LINE
  8
0
 10
37.1721
 20
25.9763
 11
38.2474
 21
26.0045
  0
LINE
  8
0
 10
38.2474
 20
26.0045
 11
39.3198
 21
25.9201
  0
LINE
  8
0
 10
39.3198
 20
25.9201
 11
40.3775
 21
25.7241
  0
LINE
  8
0
 10
40.3775
 20
25.7241
 11
41.4089
 21
25.4186
  0
LINE
  8
0
 10
41.4089
 20
25.4186
 11
42.4027
 21
25.0069
  0
LINE
  8
0
 10
42.4027
 20
25.0069
 11
43.348
 21
24.4936
  0
LINE
  8
0
 10
43.348
 20
24.4936
 11
44.2345
 21
23.8843
  0
LINE
  8
0
 10
44.2345
 20
23.8843
 11
45.0525
 21
23.1857
  0
LINE
  8
0
 10
45.0525
 20
23.1857
 11
45.793
 21
22.4054
  0
LINE
  8
0
 10
45.793
 20
22.4054
 11
46.4478
 21
21.552
  0
LINE
  8
0
 10
46.4478
 20
21.552
 11
47.0099
 21
20.6349
  0
LINE
  8
0
 10
47.0099
 20
20.6349
 11
47.473
 21
19.6639
  0
LINE
  8
0
 10
47.473
 20
19.6639
 11
47.832
 21
18.6499
  0
LINE
  8
0
 10
47.832
 20
18.6499
 11
48.0832
 21
17.604
  0
LINE
  8
0
 10
48.0832
 20
17.604
 11
48.2236
 21
16.5375
  0
LINE
  8
0
 10
48.2236
 20
16.5375
 11
48.2517
 21
15.4621
  0
LINE
  8
0
 10
48.2517
 20
15.4621
 11
48.1673
 21
14.3898
  0
LINE
  8
0
 10
48.1673
 20
14.3898
 11
47.9713
 21
13.3321
  0
LINE
  8
0
 10
47.9713
 20
13.3321
 11
47.6658
 21
12.3007
  0
LINE
  8
0
 10
47.6658
 20
12.3007
 11
47.2541
 21
11.3068
  0
LINE
  8
0
 10
47.2541
 20
11.3068
 11
46.7408
 21
10.3615
  0
LINE
  8
0
 10
46.7408
 20
10.3615
 11
46.1316
 21
9.47499
  0
LINE
  8
0
 10
46.1316
 20
9.47499
 11
45.433
 21
8.65701
  0
LINE
  8
0
 10
45.433
 20
8.65701
 11
44.6527
 21
7.91655
  0
LINE
  8
0
 10
44.6527
 20
7.91655
 11
43.7993
 21
7.2617
  0
LINE
  8
0
 10
43.7993
 20
7.2617
 11
42.8821
 21
6.69966
  0
LINE
  8
0
 10
42.8821
 20
6.69966
 11
41.9112
 21
6.23656
  0
LINE
  8
0
 10
41.9112
 20
6.23656
 11
40.8972
 21
5.87749
  0
LINE
  8
0
 10
40.8972
 20
5.87749
 11
39.8512
 21
5.62636
  0
LINE
  8
0
 10
39.8512
 20
5.62636
 11
38.7847
 21
5.48596
  0
LINE
  8
0
 10
38.7847
 20
5.48596
 11
37.7094
 21
5.45779
  0
LINE
  8
0
 10
37.7094
 20
5.45779
 11
16.2303
 21
4.98077
  0
LINE
  8
0
 10
16.2303
 20
4.98077
 11
16.0465
 21
4.99524
  0
LINE
  8
0
 10
-0.23465
 20
10.3272
 11
-0.463516
 21
10.3822
  0
LINE
  8
0
 10
-0.463516
 20
10.3822
 11
-0.680984
 21
10.4722
  0
LINE
  8
0
 10
-0.680984
 20
10.4722
 11
-0.881668
 21
10.5952
  0
LINE
  8
0
 10
-0.881668
 20
10.5952
 11
-1.06065
 21
10.7481
  0
LINE
  8
0
 10
-1.06065
 20
10.7481
 11
-1.21352
 21
10.9271
  0
LINE
  8
0
 10
-1.21352
 20
10.9271
 11
-1.3365
 21
11.1278
  0
LINE
  8
0
 10
-1.3365
 20
11.1278
 11
-1.42657
 21
11.3452
  0
LINE
  8
0
 10
-1.42657
 20
11.3452
 11
-1.48152
 21
11.5741
  0
LINE
  8
0
 10
-1.48152
 20
11.5741
 11
-1.49998
 21
11.8087
  0
LINE
  8
0
 10
-1.49998
 20
11.8087
 11
-1.48152
 21
12.0434
  0
LINE
  8
0
 10
-1.48152
 20
12.0434
 11
-1.42657
 21
12.2723
  0
LINE
  8
0
 10
-1.42657
 20
12.2723
 11
-1.3365
 21
12.4897
  0
LINE
  8
0
 10
-1.3365
 20
12.4897
 11
-1.21352
 21
12.6904
  0
LINE
  8
0
 10
-1.21352
 20
12.6904
 11
-1.06065
 21
12.8694
  0
LINE
  8
0
 10
-1.06065
 20
12.8694
 11
-0.881668
 21
13.0223
  0
LINE
  8
0
 10
-0.881668
 20
13.0223
 11
-0.680984
 21
13.1452
  0
LINE
  8
0
 10
-0.680984
 20
13.1452
 11
-0.463516
 21
13.2353
  0
LINE
  8
0
 10
-0.463516
 20
13.2353
 11
-0.23465
 21
13.2903
  0
LINE
  8
0
 10
-0.23465
 20
13.2903
 11
0
 21
13.3087
  0
LINE
  8
0
 10
0
 20
13.3087
 11
0.23465
 21
13.2903
  0
LINE
  8
0
 10
0.23465
 20
13.2903
 11
0.463516
 21
13.2353
  0
LINE
  8
0
 10
0.463516
 20
13.2353
 11
0.680984
 21
13.1452
  0
LINE
  8
0
 10
0.680984
 20
13.1452
 11
0.881668
 21
13.0223
  0
LINE
  8
0
 10
0.881668
 20
13.0223
 11
1.06065
 21
12.8694
  0
LINE
  8
0
 10
1.06065
 20
12.8694
 11
1.21352
 21
12.6904
  0
LINE
  8
0
 10
1.21352
 20
12.6904
 11
1.3365
 21
12.4897
  0
LINE
  8
0
 10
1.3365
 20
12.4897
 11
1.42657
 21
12.2723
  0
LINE
  8
0
 10
1.42657
 20
12.2723
 11
1.48152
 21
12.0434
  0
LINE
  8
0
 10
1.48152
 20
12.0434
 11
1.5
 21
11.8087
  0
LINE
  8
0
 10
1.5
 20
11.8087
 11
1.48152
 21
11.5741
  0
LINE
  8
0
 10
1.48152
 20
11.5741
 11
1.42657
 21
11.3452
  0
LINE
  8
0
 10
1.42657
 20
11.3452
 11
1.3365
 21
11.1278
  0
LINE
  8
0
 10
1.3365
 20
11.1278
 11
1.21352
 21
10.9271
  0
LINE
  8
0
 10
1.21352
 20
10.9271
 11
1.06065
 21
10.7481
  0
LINE
  8
0
 10
1.06065
 20
10.7481
 11
0.881668
 21
10.5952
  0
LINE
  8
0
 10
0.881668
 20
10.5952
 11
0.680984
 21
10.4722
  0
LINE
  8
0
 10
0.680984
 20
10.4722
 11
0.463516
 21
10.3822
  0
LINE
  8
0
 10
0.463516
 20
10.3822
 11
0.23465
 21
10.3272
  0
LINE
  8
0
 10
0.23465
 20
10.3272
 11
0
 21
10.3087
  0
LINE
  8
0
 10
0
 20
10.3087
 11
-0.23465
 21
10.3272
  0
LINE
  8
0
 10
-0.392288
 20
-4.98457
 11
-0.782166
 21
-4.93843
  0
LINE
  8
0
 10
-0.782166
 20
-4.93843
 11
-1.16722
 21
-4.86185
  0
LINE
  8
0
 10
-1.16722
 20
-4.86185
 11
-1.54507
 21
-4.75528
  0
LINE
  8
0
 10
-1.54507
 20
-4.75528
 11
-1.91341
 21
-4.61938
  0
LINE
  8
0
 10
-1.91341
 20
-4.61938
 11
-2.26994
 21
-4.45503
  0
LINE
  8
0
 10
-2.26994
 20
-4.45503
 11
-2.61249
 21
-4.2632
  0
LINE
  8
0
 10
-2.61249
 20
-4.2632
 11
-2.93892
 21
-4.04507
  0
LINE
  8
0
 10
-2.93892
 20
-4.04507
 11
-3.24724
 21
-3.80202
  0
LINE
  8
0
 10
-3.24724
 20
-3.80202
 11
-3.53552
 21
-3.53552
  0
LINE
  8
0
 10
-3.53552
 20
-3.53552
 11
-3.80202
 21
-3.24724
  0
LINE
  8
0
 10
-3.80202
 20
-3.24724
 11
-4.04507
 21
-2.93892
  0
LINE
  8
0
 10
-4.04507
 20
-2.93892
 11
-4.2632
 21
-2.61249
  0
LINE
  8
0
 10
-4.2632
 20
-2.61249
 11
-4.45503
 21
-2.26994
  0
LINE
  8
0
 10
-4.45503
 20
-2.26994
 11
-4.61938
 21
-1.91341
  0
LINE
  8
0
 10
-4.61938
 20
-1.91341
 11
-4.75528
 21
-1.54507
  0
LINE
  8
0
 10
-4.75528
 20
-1.54507
 11
-4.86185
 21
-1.16722
  0
LINE
  8
0
 10
-4.86185
 20
-1.16722
 11
-4.93843
 21
-0.782166
  0
LINE
  8
0
 10
-4.93843
 20
-0.782166
 11
-4.98457
 21
-0.392288
  0
LINE
  8
0
 10
-4.98457
 20
-0.392288
 11
-5
 21
0
  0
LINE
  8
0
 10
-5
 20
0
 11
-4.98457
 21
0.392288
  0
LINE
  8
0
 10
-4.98457
 20
0.392288
 11
-4.93843
 21
0.782166
  0
LINE
  8
0
 10
-4.93843
 20
0.782166
 11
-4.86185
 21
1.16722
  0
LINE
  8
0
 10
-4.86185
 20
1.16722
 11
-4.75528
 21
1.54507
  0
LINE
  8
0
 10
-4.75528
 20
1.54507
 11
-4.61938
 21
1.91341
  0
LINE
  8
0
 10
-4.61938
 20
1.91341
 11
-4.45503
 21
2.26994
  0
LINE
  8
0
 10
-4.45503
 20
2.26994
 11
-4.2632
 21
2.61249
  0
LINE
  8
0
 10
-4.2632
 20
2.61249
 11
-4.04507
 21
2.93892
  0
LINE
  8
0
 10
-4.04507
 20
2.93892
 11
-3.80202
 21
3.24724
  0
LINE
  8
0
 10
-3.80202
 20
3.24724
 11
-3.53552
 21
3.53552
  0
LINE
  8
0
 10
-3.53552
 20
3.53552
 11
-3.24724
 21
3.80202
  0
LINE
  8
0
 10
-3.24724
 20
3.80202
 11
-2.93892
 21
4.04507
  0
LINE
  8
0
 10
-2.93892
 20
4.04507
 11
-2.61249
 21
4.2632
  0
LINE
  8
0
 10
-2.61249
 20
4.2632
 11
-2.26994
 21
4.45503
  0
LINE
  8
0
 10
-2.26994
 20
4.45503
 11
-1.91341
 21
4.61938
  0
LINE
  8
0
 10
-1.91341
 20
4.61938
 11
-1.54507
 21
4.75528
  0
LINE
  8
0
 10
-1.54507
 20
4.75528
 11
-1.16722
 21
4.86185
  0
LINE
  8
0
 10
-1.16722
 20
4.86185
 11
-0.782166
 21
4.93843
  0
LINE
  8
0
 10
-0.782166
 20
4.93843
 11
-0.392288
 21
4.98457
  0
LINE
  8
0
 10
-0.392288
 20
4.98457
 11
0
 21
5
  0
LINE
  8
0
 10
0
 20
5
 11
0.392288
 21
4.98457
  0
LINE
  8
0
 10
0.392288
 20
4.98457
 11
0.782166
 21
4.93843
  0
LINE
  8
0
 10
0.782166
 20
4.93843
 11
1.16722
 21
4.86185
  0
LINE
  8
0
 10
1.16722
 20
4.86185
 11
1.54507
 21
4.75528
  0
LINE
  8
0
 10
1.54507
 20
4.75528
 11
1.91341
 21
4.61938
  0
LINE
  8
0
 10
1.91341
 20
4.61938
 11
2.26994
 21
4.45503
  0
LINE
  8
0
 10
2.26994
 20
4.45503
 11
2.61249
 21
4.2632
  0
LINE
  8
0
 10
2.61249
 20
4.2632
 11
2.93892
 21
4.04507
  0
LINE
  8
0
 10
2.93892
 20
4.04507
 11
3.24724
 21
3.80202
  0
LINE
  8
0
 10
3.24724
 20
3.80202
 11
3.53552
 21
3.53552
  0
LINE
  8
0
 10
3.53552
 20
3.53552
 11
3.80202
 21
3.24724
  0
LINE
  8
0
 10
3.80202
 20
3.24724
 11
4.04507
 21
2.93892
  0
LINE
  8
0
 10
4.04507
 20
2.93892
 11
4.2632
 21
2.61249
  0
LINE
  8
0
 10
4.2632
 20
2.61249
 11
4.45503
 21
2.26994
  0
LINE
  8
0
 10
4.45503
 20
2.26994
 11
4.61938
 21
1.91341
  0
LINE
  8
0
 10
4.61938
 20
1.91341
 11
4.75528
 21
1.54507
  0
LINE
  8
0
 10
4.75528
 20
1.54507
 11
4.86185
 21
1.16722
  0
LINE
  8
0
 10
4.86185
 20
1.16722
 11
4.93843
 21
0.782166
  0
LINE
  8
0
 10
4.93843
 20
0.782166
 11
4.98457
 21
0.392288
  0
LINE
  8
0
 10
4.98457
 20
0.392288
 11
5
 21
0
  0
LINE
  8
0
 10
5
 20
0
 11
4.98457
 21
-0.392288
  0
LINE
  8
0
 10
4.98457
 20
-0.392288
 11
4.93843
 21
-0.782166
  0
LINE
  8
0
 10
4.93843
 20
-0.782166
 11
4.86185
 21
-1.16722
  0
LINE
  8
0
 10
4.86185
 20
-1.16722
 11
4.75528
 21
-1.54507
  0
LINE
  8
0
 10
4.75528
 20
-1.54507
 11
4.61938
 21
-1.91341
  0
LINE
  8
0
 10
4.61938
 20
-1.91341
 11
4.45503
 21
-2.26994
  0
LINE
  8
0
 10
4.45503
 20
-2.26994
 11
4.2632
 21
-2.61249
  0
LINE
  8
0
 10
4.2632
 20
-2.61249
 11
4.04507
 21
-2.93892
  0
LINE
  8
0
 10
4.04507
 20
-2.93892
 11
3.80202
 21
-3.24724
  0
LINE
  8
0
 10
3.80202
 20
-3.24724
 11
3.53552
 21
-3.53552
  0
LINE
  8
0
 10
3.53552
 20
-3.53552
 11
3.24724
 21
-3.80202
  0
LINE
  8
0
 10
3.24724
 20
-3.80202
 11
2.93892
 21
-4.04507
  0
LINE
  8
0
 10
2.93892
 20
-4.04507
 11
2.61249
 21
-4.2632
  0
LINE
  8
0
 10
2.61249
 20
-4.2632
 11
2.26994
 21
-4.45503
  0
LINE
  8
0
 10
2.26994
 20
-4.45503
 11
1.91341
 21
-4.61938
  0
LINE
  8
0
 10
1.91341
 20
-4.61938
 11
1.54507
 21
-4.75528
  0
LINE
  8
0
 10
1.54507
 20
-4.75528
 11
1.16722
 21
-4.86185
  0
LINE
  8
0
 10
1.16722
 20
-4.86185
 11
0.782166
 21
-4.93843
  0
LINE
  8
0
 10
0.782166
 20
-4.93843
 11
0.392288
 21
-4.98457
  0
LINE
  8
0
 10
0.392288
 20
-4.98457
 11
0
 21
-5
  0
LINE
  8
0
 10
0
 20
-5
 11
-0.392288
 21
-4.98457
  0
LINE
  8
0
 10
52.6178
 20
-1.48152
 11
52.389
 21
-1.42657
  0
LINE
  8
0
 10
52.389
 20
-1.42657
 11
52.1715
 21
-1.3365
  0
LINE
  8
0
 10
52.1715
 20
-1.3365
 11
51.9708
 21
-1.21352
  0
LINE
  8
0
 10
51.9708
 20
-1.21352
 11
51.7918
 21
-1.06065
  0
LINE
  8
0
 10
51.7918
 20
-1.06065
 11
51.639
 21
-0.881668
  0
LINE
  8
0
 10
51.639
 20
-0.881668
 11
51.516
 21
-0.680984
  0
LINE
  8
0
 10
51.516
 20
-0.680984
 11
51.4259
 21
-0.463516
  0
LINE
  8
0
 10
51.4259
 20
-0.463516
 11
51.371
 21
-0.23465
  0
LINE
  8
0
 10
51.371
 20
-0.23465
 11
51.3525
 21
0
  0
LINE
  8
0
 10
51.3525
 20
0
 11
51.371
 21
0.23465
  0
LINE
  8
0
 10
51.371
 20
0.23465
 11
51.4259
 21
0.463516
  0
LINE
  8
0
 10
51.4259
 20
0.463516
 11
51.516
 21
0.680984
  0
LINE
  8
0
 10
51.516
 20
0.680984
 11
51.639
 21
0.881668
  0
LINE
  8
0
 10
51.639
 20
0.881668
 11
51.7918
 21
1.06065
  0
LINE
  8
0
 10
51.7918
 20
1.06065
 11
51.9708
 21
1.21352
  0
LINE
  8
0
 10
51.9708
 20
1.21352
 11
52.1715
 21
1.3365
  0
LINE
  8
0
 10
52.1715
 20
1.3365
 11
52.389
 21
1.42657
  0
LINE
  8
0
 10
52.389
 20
1.42657
 11
52.6178
 21
1.48152
  0
LINE
  8
0
 10
52.6178
 20
1.48152
 11
52.8525
 21
1.5
  0
LINE
  8
0
 10
52.8525
 20
1.5
 11
53.0871
 21
1.48152
  0
LINE
  8
0
 10
53.0871
 20
1.48152
 11
53.316
 21
1.42657
  0
LINE
  8
0
 10
53.316
 20
1.42657
 11
53.5335
 21
1.3365
  0
LINE
  8
0
 10
53.5335
 20
1.3365
 11
53.7342
 21
1.21352
  0
LINE
  8
0
 10
53.7342
 20
1.21352
 11
53.9131
 21
1.06065
  0
LINE
  8
0
 10
53.9131
 20
1.06065
 11
54.066
 21
0.881668
  0
LINE
  8
0
 10
54.066
 20
0.881668
 11
54.189
 21
0.680984
  0
LINE
  8
0
 10
54.189
 20
0.680984
 11
54.2791
 21
0.463516
  0
LINE
  8
0
 10
54.2791
 20
0.463516
 11
54.334
 21
0.23465
  0
LINE
  8
0
 10
54.334
 20
0.23465
 11
54.3525
 21
0
  0
LINE
  8
0
 10
54.3525
 20
0
 11
54.334
 21
-0.23465
  0
LINE
  8
0
 10
54.334
 20
-0.23465
 11
54.2791
 21
-0.463516
  0
LINE
  8
0
 10
54.2791
 20
-0.463516
 11
54.189
 21
-0.680984
  0
LINE
  8
0
 10
54.189
 20
-0.680984
 11
54.066
 21
-0.881668
  0
LINE
  8
0
 10
54.066
 20
-0.881668
 11
53.9131
 21
-1.06065
  0
LINE
  8
0
 10
53.9131
 20
-1.06065
 11
53.7342
 21
-1.21352
  0
LINE
  8
0
 10
53.7342
 20
-1.21352
 11
53.5335
 21
-1.3365
  0
LINE
  8
0
 10
53.5335
 20
-1.3365
 11
53.316
 21
-1.42657
  0
LINE
  8
0
 10
53.316
 20
-1.42657
 11
53.0871
 21
-1.48152
  0
LINE
  8
0
 10
53.0871
 20
-1.48152
 11
52.8525
 21
-1.5
  0
LINE
  8
0
 10
52.8525
 20
-1.5
 11
52.6178
 21
-1.48152
  0
LINE
  8
0
 10
-53.0871
 20
-1.48152
 11
-53.316
 21
-1.42657
  0
LINE
  8
0
 10
-53.316
 20
-1.42657
 11
-53.5335
 21
-1.3365
  0
LINE
  8
0
 10
-53.5335
 20
-1.3365
 11
-53.7342
 21
-1.21352
  0
LINE
  8
0
 10
-53.7342
 20
-1.21352
 11
-53.9131
 21
-1.06065
  0
LINE
  8
0
 10
-53.9131
 20
-1.06065
 11
-54.066
 21
-0.881668
  0
LINE
  8
0
 10
-54.066
 20
-0.881668
 11
-54.189
 21
-0.680984
  0
LINE
  8
0
 10
-54.189
 20
-0.680984
 11
-54.2791
 21
-0.463516
  0
LINE
  8
0
 10
-54.2791
 20
-0.463516
 11
-54.334
 21
-0.23465
  0
LINE
  8
0
 10
-54.334
 20
-0.23465
 11
-54.3525
 21
0
  0
LINE
  8
0
 10
-54.3525
 20
0
 11
-54.334
 21
0.23465
  0
LINE
  8
0
 10
-54.334
 20
0.23465
 11
-54.2791
 21
0.463516
  0
LINE
  8
0
 10
-54.2791
 20
0.463516
 11
-54.189
 21
0.680984
  0
LINE
  8
0
 10
-54.189
 20
0.680984
 11
-54.066
 21
0.881668
  0
LINE
  8
0
 10
-54.066
 20
0.881668
 11
-53.9131
 21
1.06065
  0
LINE
  8
0
 10
-53.9131
 20
1.06065
 11
-53.7342
 21
1.21352
  0
LINE
  8
0
 10
-53.7342
 20
1.21352
 11
-53.5335
 21
1.3365
  0
LINE
  8
0
 10
-53.5335
 20
1.3365
 11
-53.316
 21
1.42657
  0
LINE
  8
0
 10
-53.316
 20
1.42657
 11
-53.0871
 21
1.48152
  0
LINE
  8
0
 10
-53.0871
 20
1.48152
 11
-52.8525
 21
1.5
  0
LINE
  8
0
 10
-52.8525
 20
1.5
 11
-52.6178
 21
1.48152
  0
LINE
  8
0
 10
-52.6178
 20
1.48152
 11
-52.389
 21
1.42657
  0
LINE
  8
0
 10
-52.389
 20
1.42657
 11
-52.1715
 21
1.3365
  0
LINE
  8
0
 10
-52.1715
 20
1.3365
 11
-51.9708
 21
1.21352
  0
LINE
  8
0
 10
-51.9708
 20
1.21352
 11
-51.7918
 21
1.06065
  0
LINE
  8
0
 10
-51.7918
 20
1.06065
 11
-51.639
 21
0.881668
  0
LINE
  8
0
 10
-51.639
 20
0.881668
 11
-51.516
 21
0.680984
  0
LINE
  8
0
 10
-51.516
 20
0.680984
 11
-51.4259
 21
0.463516
  0
LINE
  8
0
 10
-51.4259
 20
0.463516
 11
-51.371
 21
0.23465
  0
LINE
  8
0
 10
-51.371
 20
0.23465
 11
-51.3525
 21
0
  0
LINE
  8
0
 10
-51.3525
 20
0
 11
-51.371
 21
-0.23465
  0
LINE
  8
0
 10
-51.371
 20
-0.23465
 11
-51.4259
 21
-0.463516
  0
LINE
  8
0
 10
-51.4259
 20
-0.463516
 11
-51.516
 21
-0.680984
  0
LINE
  8
0
 10
-51.516
 20
-0.680984
 11
-51.639
 21
-0.881668
  0
LINE
  8
0
 10
-51.639
 20
-0.881668
 11
-51.7918
 21
-1.06065
  0
LINE
  8
0
 10
-51.7918
 20
-1.06065
 11
-51.9708
 21
-1.21352
  0
LINE
  8
0
 10
-51.9708
 20
-1.21352
 11
-52.1715
 21
-1.3365
  0
LINE
  8
0
 10
-52.1715
 20
-1.3365
 11
-52.389
 21
-1.42657
  0
LINE
  8
0
 10
-52.389
 20
-1.42657
 11
-52.6178
 21
-1.48152
  0
LINE
  8
0
 10
-52.6178
 20
-1.48152
 11
-52.8525
 21
-1.49998
  0
LINE
  8
0
 10
-52.8525
 20
-1.49998
 11
-53.0871
 21
-1.48152
  0
LINE
  8
0
 10
-12.0434
 20
-1.48152
 11
-12.2723
 21
-1.42657
  0
LINE
  8
0
 10
-12.2723
 20
-1.42657
 11
-12.4897
 21
-1.3365
  0
LINE
  8
0
 10
-12.4897
 20
-1.3365
 11
-12.6904
 21
-1.21352
  0
LINE
  8
0
 10
-12.6904
 20
-1.21352
 11
-12.8694
 21
-1.06065
  0
LINE
  8
0
 10
-12.8694
 20
-1.06065
 11
-13.0223
 21
-0.881668
  0
LINE
  8
0
 10
-13.0223
 20
-0.881668
 11
-13.1452
 21
-0.680984
  0
LINE
  8
0
 10
-13.1452
 20
-0.680984
 11
-13.2353
 21
-0.463516
  0
LINE
  8
0
 10
-13.2353
 20
-0.463516
 11
-13.2903
 21
-0.23465
  0
LINE
  8
0
 10
-13.2903
 20
-0.23465
 11
-13.3087
 21
0
  0
LINE
  8
0
 10
-13.3087
 20
0
 11
-13.2903
 21
0.23465
  0
LINE
  8
0
 10
-13.2903
 20
0.23465
 11
-13.2353
 21
0.463516
  0
LINE
  8
0
 10
-13.2353
 20
0.463516
 11
-13.1452
 21
0.680984
  0
LINE
  8
0
 10
-13.1452
 20
0.680984
 11
-13.0223
 21
0.881668
  0
LINE
  8
0
 10
-13.0223
 20
0.881668
 11
-12.8694
 21
1.06065
  0
LINE
  8
0
 10
-12.8694
 20
1.06065
 11
-12.6904
 21
1.21352
  0
LINE
  8
0
 10
-12.6904
 20
1.21352
 11
-12.4897
 21
1.3365
  0
LINE
  8
0
 10
-12.4897
 20
1.3365
 11
-12.2723
 21
1.42657
  0
LINE
  8
0
 10
-12.2723
 20
1.42657
 11
-12.0434
 21
1.48152
  0
LINE
  8
0
 10
-12.0434
 20
1.48152
 11
-11.8087
 21
1.5
  0
LINE
  8
0
 10
-11.8087
 20
1.5
 11
-11.5741
 21
1.48152
  0
LINE
  8
0
 10
-11.5741
 20
1.48152
 11
-11.3452
 21
1.42657
  0
LINE
  8
0
 10
-11.3452
 20
1.42657
 11
-11.1278
 21
1.3365
  0
LINE
  8
0
 10
-11.1278
 20
1.3365
 11
-10.9271
 21
1.21352
  0
LINE
  8
0
 10
-10.9271
 20
1.21352
 11
-10.7481
 21
1.06065
  0
LINE
  8
0
 10
-10.7481
 20
1.06065
 11
-10.5952
 21
0.881668
  0
LINE
  8
0
 10
-10.5952
 20
0.881668
 11
-10.4722
 21
0.680984
  0
LINE
  8
0
 10
-10.4722
 20
0.680984
 11
-10.3822
 21
0.463516
  0
LINE
  8
0
 10
-10.3822
 20
0.463516
 11
-10.3272
 21
0.23465
  0
LINE
  8
0
 10
-10.3272
 20
0.23465
 11
-10.3087
 21
0
  0
LINE
  8
0
 10
-10.3087
 20
0
 11
-10.3272
 21
-0.23465
  0
LINE
  8
0
 10
-10.3272
 20
-0.23465
 11
-10.3822
 21
-0.463516
  0
LINE
  8
0
 10
-10.3822
 20
-0.463516
 11
-10.4722
 21
-0.680984
  0
LINE
  8
0
 10
-10.4722
 20
-0.680984
 11
-10.5952
 21
-0.881668
  0
LINE
  8
0
 10
-10.5952
 20
-0.881668
 11
-10.7481
 21
-1.06065
  0
LINE
  8
0
 10
-10.7481
 20
-1.06065
 11
-10.9271
 21
-1.21352
  0
LINE
  8
0
 10
-10.9271
 20
-1.21352
 11
-11.1278
 21
-1.3365
  0
LINE
  8
0
 10
-11.1278
 20
-1.3365
 11
-11.3452
 21
-1.42657
  0
LINE
  8
0
 10
-11.3452
 20
-1.42657
 11
-11.5741
 21
-1.48152
  0
LINE
  8
0
 10
-11.5741
 20
-1.48152
 11
-11.8087
 21
-1.49998
  0
LINE
  8
0
 10
-11.8087
 20
-1.49998
 11
-12.0434
 21
-1.48152
  0
LINE
  8
0
 10
11.5741
 20
-1.48152
 11
11.3452
 21
-1.42657
  0
LINE
  8
0
 10
11.3452
 20
-1.42657
 11
11.1278
 21
-1.3365
  0
LINE
  8
0
 10
11.1278
 20
-1.3365
 11
10.9271
 21
-1.21352
  0
LINE
  8
0
 10
10.9271
 20
-1.21352
 11
10.7481
 21
-1.06065
  0
LINE
  8
0
 10
10.7481
 20
-1.06065
 11
10.5952
 21
-0.881668
  0
LINE
  8
0
 10
10.5952
 20
-0.881668
 11
10.4722
 21
-0.680984
  0
LINE
  8
0
 10
10.4722
 20
-0.680984
 11
10.3822
 21
-0.463516
  0
LINE
  8
0
 10
10.3822
 20
-0.463516
 11
10.3272
 21
-0.23465
  0
LINE
  8
0
 10
10.3272
 20
-0.23465
 11
10.3087
 21
0
  0
LINE
  8
0
 10
10.3087
 20
0
 11
10.3272
 21
0.23465
  0
LINE
  8
0
 10
10.3272
 20
0.23465
 11
10.3822
 21
0.463516
  0
LINE
  8
0
 10
10.3822
 20
0.463516
 11
10.4722
 21
0.680984
  0
LINE
  8
0
 10
10.4722
 20
0.680984
 11
10.5952
 21
0.881668
  0
LINE
  8
0
 10
10.5952
 20
0.881668
 11
10.7481
 21
1.06065
  0
LINE
  8
0
 10
10.7481
 20
1.06065
 11
10.9271
 21
1.21352
  0
LINE
  8
0
 10
10.9271
 20
1.21352
 11
11.1278
 21
1.3365
  0
LINE
  8
0
 10
11.1278
 20
1.3365
 11
11.3452
 21
1.42657
  0
LINE
  8
0
 10
11.3452
 20
1.42657
 11
11.5741
 21
1.48152
  0
LINE
  8
0
 10
11.5741
 20
1.48152
 11
11.8087
 21
1.5
  0
LINE
  8
0
 10
11.8087
 20
1.5
 11
12.0434
 21
1.48152
  0
LINE
  8
0
 10
12.0434
 20
1.48152
 11
12.2723
 21
1.42657
  0
LINE
  8
0
 10
12.2723
 20
1.42657
 11
12.4897
 21
1.3365
  0
LINE
  8
0
 10
12.4897
 20
1.3365
 11
12.6904
 21
1.21352
  0
LINE
  8
0
 10
12.6904
 20
1.21352
 11
12.8694
 21
1.06065
  0
LINE
  8
0
 10
12.8694
 20
1.06065
 11
13.0223
 21
0.881668
  0
LINE
  8
0
 10
13.0223
 20
0.881668
 11
13.1452
 21
0.680984
  0
LINE
  8
0
 10
13.1452
 20
0.680984
 11
13.2353
 21
0.463516
  0
LINE
  8
0
 10
13.2353
 20
0.463516
 11
13.2903
 21
0.23465
  0
LINE
  8
0
 10
13.2903
 20
0.23465
 11
13.3087
 21
0
  0
LINE
  8
0
 10
13.3087
 20
0
 11
13.2903
 21
-0.23465
  0
LINE
  8
0
 10
13.2903
 20
-0.23465
 11
13.2353
 21
-0.463516
  0
LINE
  8
0
 10
13.2353
 20
-0.463516
 11
13.1452
 21
-0.680984
  0
LINE
  8
0
 10
13.1452
 20
-0.680984
 11
13.0223
 21
-0.881668
  0
LINE
  8
0
 10
13.0223
 20
-0.881668
 11
12.8694
 21
-1.06065
  0
LINE
  8
0
 10
12.8694
 20
-1.06065
 11
12.6904
 21
-1.21352
  0
LINE
  8
0
 10
12.6904
 20
-1.21352
 11
12.4897
 21
-1.3365
  0
LINE
  8
0
 10
12.4897
 20
-1.3365
 11
12.2723
 21
-1.42657
  0
LINE
  8
0
 10
12.2723
 20
-1.42657
 11
12.0434
 21
-1.48152
  0
LINE
  8
0
 10
12.0434
 20
-1.48152
 11
11.8087
 21
-1.5
  0
LINE
  8
0
 10
11.8087
 20
-1.5
 11
11.5741
 21
-1.48152
  0
LINE
  8
0
 10
37.1721
 20
-25.9763
 11
36.1056
 21
-25.8359
  0
LINE
  8
0
 10
36.1056
 20
-25.8359
 11
35.0596
 21
-25.5848
  0
LINE
  8
0
 10
35.0596
 20
-25.5848
 11
34.0456
 21
-25.2257
  0
LINE
  8
0
 10
34.0456
 20
-25.2257
 11
33.0747
 21
-24.7626
  0
LINE
  8
0
 10
33.0747
 20
-24.7626
 11
32.1575
 21
-24.2006
  0
LINE
  8
0
 10
32.1575
 20
-24.2006
 11
31.3041
 21
-23.5457
  0
LINE
  8
0
 10
31.3041
 20
-23.5457
 11
30.5238
 21
-22.8053
  0
LINE
  8
0
 10
30.5238
 20
-22.8053
 11
14.9985
 21
-7.95462
  0
LINE
  8
0
 10
14.9985
 20
-7.95462
 11
14.8788
 21
-7.81441
  0
LINE
  8
0
 10
14.8788
 20
-7.81441
 11
14.7743
 21
-7.66243
  0
LINE
  8
0
 10
14.7743
 20
-7.66243
 11
14.6863
 21
-7.50037
  0
LINE
  8
0
 10
14.6863
 20
-7.50037
 11
14.6157
 21
-7.33
  0
LINE
  8
0
 10
14.6157
 20
-7.33
 11
14.5634
 21
-7.15318
  0
LINE
  8
0
 10
14.5634
 20
-7.15318
 11
14.5298
 21
-6.97188
  0
LINE
  8
0
 10
14.5298
 20
-6.97188
 11
14.5153
 21
-6.78804
  0
LINE
  8
0
 10
14.5153
 20
-6.78804
 11
14.5201
 21
-6.6037
  0
LINE
  8
0
 10
14.5201
 20
-6.6037
 11
14.5442
 21
-6.42087
  0
LINE
  8
0
 10
14.5442
 20
-6.42087
 11
14.5872
 21
-6.24155
  0
LINE
  8
0
 10
14.5872
 20
-6.24155
 11
14.6488
 21
-6.06772
  0
LINE
  8
0
 10
14.6488
 20
-6.06772
 11
14.7282
 21
-5.90129
  0
LINE
  8
0
 10
14.7282
 20
-5.90129
 11
14.8245
 21
-5.74405
  0
LINE
  8
0
 10
14.8245
 20
-5.74405
 11
14.9368
 21
-5.59775
  0
LINE
  8
0
 10
14.9368
 20
-5.59775
 11
15.0637
 21
-5.46399
  0
LINE
  8
0
 10
15.0637
 20
-5.46399
 11
15.2039
 21
-5.34422
  0
LINE
  8
0
 10
15.2039
 20
-5.34422
 11
15.3559
 21
-5.23978
  0
LINE
  8
0
 10
15.3559
 20
-5.23978
 11
15.518
 21
-5.15179
  0
LINE
  8
0
 10
15.518
 20
-5.15179
 11
15.6884
 21
-5.08122
  0
LINE
  8
0
 10
15.6884
 20
-5.08122
 11
15.8652
 21
-5.02884
  0
LINE
  8
0
 10
15.8652
 20
-5.02884
 11
16.0465
 21
-4.99524
  0
LINE
  8
0
 10
16.0465
 20
-4.99524
 11
16.2303
 21
-4.98077
  0
LINE
  8
0
 10
16.2303
 20
-4.98077
 11
37.7094
 21
-5.45779
  0
LINE
  8
0
 10
37.7094
 20
-5.45779
 11
38.7847
 21
-5.48596
  0
LINE
  8
0
 10
38.7847
 20
-5.48596
 11
39.8512
 21
-5.62636
  0
LINE
  8
0
 10
39.8512
 20
-5.62636
 11
40.8972
 21
-5.87749
  0
LINE
  8
0
 10
40.8972
 20
-5.87749
 11
41.9112
 21
-6.23656
  0
LINE
  8
0
 10
41.9112
 20
-6.23656
 11
42.8821
 21
-6.69966
  0
LINE
  8
0
 10
42.8821
 20
-6.69966
 11
43.7993
 21
-7.2617
  0
LINE
  8
0
 10
43.7993
 20
-7.2617
 11
44.6527
 21
-7.91655
  0
LINE
  8
0
 10
44.6527
 20
-7.91655
 11
45.433
 21
-8.65701
  0
LINE
  8
0
 10
45.433
 20
-8.65701
 11
46.1316
 21
-9.47499
  0
LINE
  8
0
 10
46.1316
 20
-9.47499
 11
46.7408
 21
-10.3615
  0
LINE
  8
0
 10
46.7408
 20
-10.3615
 11
47.2541
 21
-11.3068
  0
LINE
  8
0
 10
47.2541
 20
-11.3068
 11
47.6658
 21
-12.3007
  0
LINE
  8
0
 10
47.6658
 20
-12.3007
 11
47.9713
 21
-13.3321
  0
LINE
  8
0
 10
47.9713
 20
-13.3321
 11
48.1673
 21
-14.3898
  0
LINE
  8
0
 10
48.1673
 20
-14.3898
 11
48.2517
 21
-15.4621
  0
LINE
  8
0
 10
48.2517
 20
-15.4621
 11
48.2236
 21
-16.5375
  0
LINE
  8
0
 10
48.2236
 20
-16.5375
 11
48.0832
 21
-17.604
  0
LINE
  8
0
 10
48.0832
 20
-17.604
 11
47.832
 21
-18.6499
  0
LINE
  8
0
 10
47.832
 20
-18.6499
 11
47.473
 21
-19.6639
  0
LINE
  8
0
 10
47.473
 20
-19.6639
 11
47.0099
 21
-20.6349
  0
LINE
  8
0
 10
47.0099
 20
-20.6349
 11
46.4478
 21
-21.552
  0
LINE
  8
0
 10
46.4478
 20
-21.552
 11
45.793
 21
-22.4054
  0
LINE
  8
0
 10
45.793
 20
-22.4054
 11
45.0525
 21
-23.1857
  0
LINE
  8
0
 10
45.0525
 20
-23.1857
 11
44.2345
 21
-23.8843
  0
LINE
  8
0
 10
44.2345
 20
-23.8843
 11
43.348
 21
-24.4936
  0
LINE
  8
0
 10
43.348
 20
-24.4936
 11
42.4027
 21
-25.0069
  0
LINE
  8
0
 10
42.4027
 20
-25.0069
 11
41.4089
 21
-25.4186
  0
LINE
  8
0
 10
41.4089
 20
-25.4186
 11
40.3775
 21
-25.7241
  0
LINE
  8
0
 10
40.3775
 20
-25.7241
 11
39.3198
 21
-25.9201
  0
LINE
  8
0
 10
39.3198
 20
-25.9201
 11
38.2474
 21
-26.0045
  0
LINE
  8
0
 10
38.2474
 20
-26.0045
 11
37.1721
 21
-25.9763
  0
LINE
  8
0
 10
-39.3198
 20
-25.9201
 11
-40.3775
 21
-25.7241
  0
LINE
  8
0
 10
-40.3775
 20
-25.7241
 11
-41.4089
 21
-25.4186
  0
LINE
  8
0
 10
-41.4089
 20
-25.4186
 11
-42.4027
 21
-25.0069
  0
LINE
  8
0
 10
-42.4027
 20
-25.0069
 11
-43.348
 21
-24.4936
  0
LINE
  8
0
 10
-43.348
 20
-24.4936
 11
-44.2345
 21
-23.8843
  0
LINE
  8
0
 10
-44.2345
 20
-23.8843
 11
-45.0525
 21
-23.1857
  0
LINE
  8
0
 10
-45.0525
 20
-23.1857
 11
-45.793
 21
-22.4054
  0
LINE
  8
0
 10
-45.793
 20
-22.4054
 11
-46.4478
 21
-21.552
  0
LINE
  8
0
 10
-46.4478
 20
-21.552
 11
-47.0099
 21
-20.6349
  0
LINE
  8
0
 10
-47.0099
 20
-20.6349
 11
-47.473
 21
-19.6639
  0
LINE
  8
0
 10
-47.473
 20
-19.6639
 11
-47.832
 21
-18.6499
  0
LINE
  8
0
 10
-47.832
 20
-18.6499
 11
-48.0832
 21
-17.604
  0
LINE
  8
0
 10
-48.0832
 20
-17.604
 11
-48.2236
 21
-16.5375
  0
LINE
  8
0
 10
-48.2236
 20
-16.5375
 11
-48.2517
 21
-15.4621
  0
LINE
  8
0
 10
-48.2517
 20
-15.4621
 11
-48.1673
 21
-14.3898
  0
LINE
  8
0
 10
-48.1673
 20
-14.3898
 11
-47.9713
 21
-13.3321
  0
LINE
  8
0
 10
-47.9713
 20
-13.3321
 11
-47.6658
 21
-12.3007
  0
LINE
  8
0
 10
-47.6658
 20
-12.3007
 11
-47.2541
 21
-11.3068
  0
LINE
  8
0
 10
-47.2541
 20
-11.3068
 11
-46.7408
 21
-10.3615
  0
LINE
  8
0
 10
-46.7408
 20
-10.3615
 11
-46.1316
 21
-9.47499
  0
LINE
  8
0
 10
-46.1316
 20
-9.47499
 11
-45.433
 21
-8.65701
  0
LINE
  8
0
 10
-45.433
 20
-8.65701
 11
-44.6527
 21
-7.91655
  0
LINE
  8
0
 10
-44.6527
 20
-7.91655
 11
-43.7993
 21
-7.2617
  0
LINE
  8
0
 10
-43.7993
 20
-7.2617
 11
-42.8821
 21
-6.69966
  0
LINE
  8
0
 10
-42.8821
 20
-6.69966
 11
-41.9112
 21
-6.23656
  0
LINE
  8
0
 10
-41.9112
 20
-6.23656
 11
-40.8972
 21
-5.87749
  0
LINE
  8
0
 10
-40.8972
 20
-5.87749
 11
-39.8512
 21
-5.62636
  0
LINE
  8
0
 10
-39.8512
 20
-5.62636
 11
-38.7847
 21
-5.48596
  0
LINE
  8
0
 10
-38.7847
 20
-5.48596
 11
-37.7094
 21
-5.45779
  0
LINE
  8
0
 10
-37.7094
 20
-5.45779
 11
-16.2303
 21
-4.98077
  0
LINE
  8
0
 10
-16.2303
 20
-4.98077
 11
-16.0465
 21
-4.99524
  0
LINE
  8
0
 10
-16.0465
 20
-4.99524
 11
-15.8652
 21
-5.02884
  0
LINE
  8
0
 10
-15.8652
 20
-5.02884
 11
-15.6884
 21
-5.08122
  0
LINE
  8
0
 10
-15.6884
 20
-5.08122
 11
-15.518
 21
-5.15179
  0
LINE
  8
0
 10
-15.518
 20
-5.15179
 11
-15.3559
 21
-5.23978
  0
LINE
  8
0
 10
-15.3559
 20
-5.23978
 11
-15.2039
 21
-5.34422
  0
LINE
  8
0
 10
-15.2039
 20
-5.34422
 11
-15.0637
 21
-5.46399
  0
LINE
  8
0
 10
-15.0637
 20
-5.46399
 11
-14.9368
 21
-5.59775
  0
LINE
  8
0
 10
-14.9368
 20
-5.59775
 11
-14.8245
 21
-5.74405
  0
LINE
  8
0
 10
-14.8245
 20
-5.74405
 11
-14.7282
 21
-5.90129
  0
LINE
  8
0
 10
-14.7282
 20
-5.90129
 11
-14.6488
 21
-6.06772
  0
LINE
  8
0
 10
-14.6488
 20
-6.06772
 11
-14.5872
 21
-6.24155
  0
LINE
  8
0
 10
-14.5872
 20
-6.24155
 11
-14.5442
 21
-6.42087
  0
LINE
  8
0
 10
-14.5442
 20
-6.42087
 11
-14.5201
 21
-6.6037
  0
LINE
  8
0
 10
-14.5201
 20
-6.6037
 11
-14.5153
 21
-6.78804
  0
LINE
  8
0
 10
-14.5153
 20
-6.78804
 11
-14.5298
 21
-6.97188
  0
LINE
  8
0
 10
-14.5298
 20
-6.97188
 11
-14.5634
 21
-7.15318
  0
LINE
  8
0
 10
-14.5634
 20
-7.15318
 11
-14.6157
 21
-7.33
  0
LINE
  8
0
 10
-14.6157
 20
-7.33
 11
-14.6863
 21
-7.50037
  0
LINE
  8
0
 10
-14.6863
 20
-7.50037
 11
-14.7743
 21
-7.66243
  0
LINE
  8
0
 10
-14.7743
 20
-7.66243
 11
-14.8788
 21
-7.81441
  0
LINE
  8
0
 10
-14.8788
 20
-7.81441
 11
-14.9985
 21
-7.95462
  0
LINE
  8
0
 10
-14.9985
 20
-7.95462
 11
-30.5238
 21
-22.8053
  0
LINE
  8
0
 10
-30.5238
 20
-22.8053
 11
-31.3041
 21
-23.5457
  0
LINE
  8
0
 10
-31.3041
 20
-23.5457
 11
-32.1575
 21
-24.2006
  0
LINE
  8
0
 10
-32.1575
 20
-24.2006
 11
-33.0747
 21
-24.7626
  0
LINE
  8
0
 10
-33.0747
 20
-24.7626
 11
-34.0456
 21
-25.2257
  0
LINE
  8
0
 10
-34.0456
 20
-25.2257
 11
-35.0596
 21
-25.5848
  0
LINE
  8
0
 10
-35.0596
 20
-25.5848
 11
-36.1056
 21
-25.8359
  0
LINE
  8
0
 10
-36.1056
 20
-25.8359
 11
-37.1721
 21
-25.9763
  0
LINE
  8
0
 10
-37.1721
 20
-25.9763
 11
-38.2474
 21
-26.0045
  0
LINE
  8
0
 10
-38.2474
 20
-26.0045
 11
-39.3198
 21
-25.9201
  0
LINE
  8
0
 10
-0.23465
 20
-13.2903
 11
-0.463516
 21
-13.2353
  0
LINE
  8
0
 10
-0.463516
 20
-13.2353
 11
-0.680984
 21
-13.1452
  0
LINE
  8
0
 10
-0.680984
 20
-13.1452
 11
-0.881668
 21
-13.0223
  0
LINE
  8
0
 10
-0.881668
 20
-13.0223
 11
-1.06065
 21
-12.8694
  0
LINE
  8
0
 10
-1.06065
 20
-12.8694
 11
-1.21352
 21
-12.6904
  0
LINE
  8
0
 10
-1.21352
 20
-12.6904
 11
-1.3365
 21
-12.4897
  0
LINE
  8
0
 10
-1.3365
 20
-12.4897
 11
-1.42657
 21
-12.2723
  0
LINE
  8
0
 10
-1.42657
 20
-12.2723
 11
-1.48152
 21
-12.0434
  0
LINE
  8
0
 10
-1.48152
 20
-12.0434
 11
-1.5
 21
-11.8087
  0
LINE
  8
0
 10
-1.5
 20
-11.8087
 11
-1.48152
 21
-11.5741
  0
LINE
  8
0
 10
-1.48152
 20
-11.5741
 11
-1.42657
 21
-11.3452
  0
LINE
  8
0
 10
-1.42657
 20
-11.3452
 11
-1.3365
 21
-11.1278
  0
LINE
  8
0
 10
-1.3365
 20
-11.1278
 11
-1.21352
 21
-10.9271
  0
LINE
  8
0
 10
-1.21352
 20
-10.9271
 11
-1.06065
 21
-10.7481
  0
LINE
  8
0
 10
-1.06065
 20
-10.7481
 11
-0.881668
 21
-10.5952
  0
LINE
  8
0
 10
-0.881668
 20
-10.5952
 11
-0.680984
 21
-10.4722
  0
LINE
  8
0
 10
-0.680984
 20
-10.4722
 11
-0.463516
 21
-10.3822
  0
LINE
  8
0
 10
-0.463516
 20
-10.3822
 11
-0.23465
 21
-10.3272
  0
LINE
  8
0
 10
-0.23465
 20
-10.3272
 11
0
 21
-10.3087
  0
LINE
  8
0
 10
0
 20
-10.3087
 11
0.23465
 21
-10.3272
  0
LINE
  8
0
 10
0.23465
 20
-10.3272
 11
0.463516
 21
-10.3822
  0
LINE
  8
0
 10
0.463516
 20
-10.3822
 11
0.680984
 21
-10.4722
  0
LINE
  8
0
 10
0.680984
 20
-10.4722
 11
0.881668
 21
-10.5952
  0
LINE
  8
0
 10
0.881668
 20
-10.5952
 11
1.06065
 21
-10.7481
  0
LINE
  8
0
 10
1.06065
 20
-10.7481
 11
1.21352
 21
-10.9271
  0
LINE
  8
0
 10
1.21352
 20
-10.9271
 11
1.3365
 21
-11.1278
  0
LINE
  8
0
 10
1.3365
 20
-11.1278
 11
1.42657
 21
-11.3452
  0
LINE
  8
0
 10
1.42657
 20
-11.3452
 11
1.48152
 21
-11.5741
  0
LINE
  8
0
 10
1.48152
 20
-11.5741
 11
1.49998
 21
-11.8087
  0
LINE
  8
0
 10
1.49998
 20
-11.8087
 11
1.48152
 21
-12.0434
  0
LINE
  8
0
 10
1.48152
 20
-12.0434
 11
1.42657
 21
-12.2723
  0
LINE
  8
0
 10
1.42657
 20
-12.2723
 11
1.3365
 21
-12.4897
  0
LINE
  8
0
 10
1.3365
 20
-12.4897
 11
1.21352
 21
-12.6904
  0
LINE
  8
0
 10
1.21352
 20
-12.6904
 11
1.06065
 21
-12.8694
  0
LINE
  8
0
 10
1.06065
 20
-12.8694
 11
0.881668
 21
-13.0223
  0
LINE
  8
0
 10
0.881668
 20
-13.0223
 11
0.680984
 21
-13.1452
  0
LINE
  8
0
 10
0.680984
 20
-13.1452
 11
0.463516
 21
-13.2353
  0
LINE
  8
0
 10
0.463516
 20
-13.2353
 11
0.23465
 21
-13.2903
  0
LINE
  8
0
 10
0.23465
 20
-13.2903
 11
0
 21
-13.3087
  0
LINE
  8
0
 10
0
 20
-13.3087
 11
-0.23465
 21
-13.2903
  0
LINE
  8
0
 10
-16.5375
 20
-48.2236
 11
-17.604
 21
-48.0832
  0
LINE
  8
0
 10
-17.604
 20
-48.0832
 11
-18.6499
 21
-47.832
  0
LINE
  8
0
 10
-18.6499
 20
-47.832
 11
-19.6639
 21
-47.473
  0
LINE
  8
0
 10
-19.6639
 20
-47.473
 11
-20.6349
 21
-47.0099
  0
LINE
  8
0
 10
-20.6349
 20
-47.0099
 11
-21.552
 21
-46.4478
  0
LINE
  8
0
 10
-21.552
 20
-46.4478
 11
-22.4054
 21
-45.793
  0
LINE
  8
0
 10
-22.4054
 20
-45.793
 11
-23.1857
 21
-45.0525
  0
LINE
  8
0
 10
-23.1857
 20
-45.0525
 11
-23.8843
 21
-44.2345
  0
LINE
  8
0
 10
-23.8843
 20
-44.2345
 11
-24.4936
 21
-43.348
  0
LINE
  8
0
 10
-24.4936
 20
-43.348
 11
-25.0069
 21
-42.4027
  0
LINE
  8
0
 10
-25.0069
 20
-42.4027
 11
-25.4186
 21
-41.4089
  0
LINE
  8
0
 10
-25.4186
 20
-41.4089
 11
-25.7241
 21
-40.3775
  0
LINE
  8
0
 10
-25.7241
 20
-40.3775
 11
-25.9201
 21
-39.3198
  0
LINE
  8
0
 10
-25.9201
 20
-39.3198
 11
-26.0045
 21
-38.2474
  0
LINE
  8
0
 10
-26.0045
 20
-38.2474
 11
-25.9763
 21
-37.1721
  0
LINE
  8
0
 10
-25.9763
 20
-37.1721
 11
-25.8359
 21
-36.1056
  0
LINE
  8
0
 10
-25.8359
 20
-36.1056
 11
-25.5848
 21
-35.0596
  0
LINE
  8
0
 10
-25.5848
 20
-35.0596
 11
-25.2257
 21
-34.0456
  0
LINE
  8
0
 10
-25.2257
 20
-34.0456
 11
-24.7626
 21
-33.0747
  0
LINE
  8
0
 10
-24.7626
 20
-33.0747
 11
-24.2006
 21
-32.1575
  0
LINE
  8
0
 10
-24.2006
 20
-32.1575
 11
-23.5457
 21
-31.3041
  0
LINE
  8
0
 10
-23.5457
 20
-31.3041
 11
-22.8053
 21
-30.5238
  0
LINE
  8
0
 10
-22.8053
 20
-30.5238
 11
-7.95462
 21
-14.9985
  0
LINE
  8
0
 10
-7.95462
 20
-14.9985
 11
-7.81441
 21
-14.8788
  0
LINE
  8
0
 10
-7.81441
 20
-14.8788
 11
-7.66243
 21
-14.7743
  0
LINE
  8
0
 10
-7.66243
 20
-14.7743
 11
-7.50037
 21
-14.6863
  0
LINE
  8
0
 10
-7.50037
 20
-14.6863
 11
-7.33
 21
-14.6157
  0
LINE
  8
0
 10
-7.33
 20
-14.6157
 11
-7.15318
 21
-14.5634
  0
LINE
  8
0
 10
-7.15318
 20
-14.5634
 11
-6.97188
 21
-14.5298
  0
LINE
  8
0
 10
-6.97188
 20
-14.5298
 11
-6.78804
 21
-14.5153
  0
LINE
  8
0
 10
-6.78804
 20
-14.5153
 11
-6.6037
 21
-14.5201
  0
LINE
  8
0
 10
-6.6037
 20
-14.5201
 11
-6.42087
 21
-14.5442
  0
LINE
  8
0
 10
-6.42087
 20
-14.5442
 11
-6.24155
 21
-14.5872
  0
LINE
  8
0
 10
-6.24155
 20
-14.5872
 11
-6.06772
 21
-14.6488
  0
LINE
  8
0
 10
-6.06772
 20
-14.6488
 11
-5.90129
 21
-14.7282
  0
LINE
  8
0
 10
-5.90129
 20
-14.7282
 11
-5.74405
 21
-14.8245
  0
LINE
  8
0
 10
-5.74405
 20
-14.8245
 11
-5.59775
 21
-14.9368
  0
LINE
  8
0
 10
-5.59775
 20
-14.9368
 11
-5.46399
 21
-15.0637
  0
LINE
  8
0
 10
-5.46399
 20
-15.0637
 11
-5.34422
 21
-15.2039
  0
LINE
  8
0
 10
-5.34422
 20
-15.2039
 11
-5.23978
 21
-15.3559
  0
LINE
  8
0
 10
-5.23978
 20
-15.3559
 11
-5.15179
 21
-15.518
  0
LINE
  8
0
 10
-5.15179
 20
-15.518
 11
-5.08122
 21
-15.6884
  0
LINE
  8
0
 10
-5.08122
 20
-15.6884
 11
-5.02884
 21
-15.8652
  0
LINE
  8
0
 10
-5.02884
 20
-15.8652
 11
-4.99524
 21
-16.0465
  0
LINE
  8
0
 10
-4.99524
 20
-16.0465
 11
-4.98077
 21
-16.2303
  0
LINE
  8
0
 10
-4.98077
 20
-16.2303
 11
-5.45779
 21
-37.7094
  0
LINE
  8
0
 10
-5.45779
 20
-37.7094
 11
-5.48596
 21
-38.7847
  0
LINE
  8
0
 10
-5.48596
 20
-38.7847
 11
-5.62636
 21
-39.8512
  0
LINE
  8
0
 10
-5.62636
 20
-39.8512
 11
-5.87749
 21
-40.8972
  0
LINE
  8
0
 10
-5.87749
 20
-40.8972
 11
-6.23656
 21
-41.9112
  0
LINE
  8
0
 10
-6.23656
 20
-41.9112
 11
-6.69966
 21
-42.8821
  0
LINE
  8
0
 10
-6.69966
 20
-42.8821
 11
-7.2617
 21
-43.7993
  0
LINE
  8
0
 10
-7.2617
 20
-43.7993
 11
-7.91655
 21
-44.6527
  0
LINE
  8
0
 10
-7.91655
 20
-44.6527
 11
-8.65701
 21
-45.433
  0
LINE
  8
0
 10
-8.65701
 20
-45.433
 11
-9.47499
 21
-46.1316
  0
LINE
  8
0
 10
-9.47499
 20
-46.1316
 11
-10.3615
 21
-46.7408
  0
LINE
  8
0
 10
-10.3615
 20
-46.7408
 11
-11.3068
 21
-47.2541
  0
LINE
  8
0
 10
-11.3068
 20
-47.2541
 11
-12.3007
 21
-47.6658
  0
LINE
  8
0
 10
-12.3007
 20
-47.6658
 11
-13.3321
 21
-47.9713
  0
LINE
  8
0
 10
-13.3321
 20
-47.9713
 11
-14.3898
 21
-48.1673
  0
LINE
  8
0
 10
-14.3898
 20
-48.1673
 11
-15.4621
 21
-48.2517
  0
LINE
  8
0
 10
-15.4621
 20
-48.2517
 11
-16.5375
 21
-48.2236
  0
LINE
  8
0
 10
14.3898
 20
-48.1673
 11
13.3321
 21
-47.9713
  0
LINE
  8
0
 10
13.3321
 20
-47.9713
 11
12.3007
 21
-47.6658
  0
LINE
  8
0
 10
12.3007
 20
-47.6658
 11
11.3068
 21
-47.2541
  0
LINE
  8
0
 10
11.3068
 20
-47.2541
 11
10.3615
 21
-46.7408
  0
LINE
  8
0
 10
10.3615
 20
-46.7408
 11
9.47499
 21
-46.1316
  0
LINE
  8
0
 10
9.47499
 20
-46.1316
 11
8.65701
 21
-45.433
  0
LINE
  8
0
 10
8.65701
 20
-45.433
 11
7.91655
 21
-44.6527
  0
LINE
  8
0
 10
7.91655
 20
-44.6527
 11
7.2617
 21
-43.7993
  0
LINE
  8
0
 10
7.2617
 20
-43.7993
 11
6.69966
 21
-42.8821
  0
LINE
  8
0
 10
6.69966
 20
-42.8821
 11
6.23656
 21
-41.9112
  0
LINE
  8
0
 10
6.23656
 20
-41.9112
 11
5.87749
 21
-40.8972
  0
LINE
  8
0
 10
5.87749
 20
-40.8972
 11
5.62636
 21
-39.8512
  0
LINE
  8
0
 10
5.62636
 20
-39.8512
 11
5.48596
 21
-38.7847
  0
LINE
  8
0
 10
5.48596
 20
-38.7847
 11
5.45779
 21
-37.7094
  0
LINE
  8
0
 10
5.45779
 20
-37.7094
 11
4.98077
 21
-16.2303
  0
LINE
  8
0
 10
4.98077
 20
-16.2303
 11
4.99524
 21
-16.0465
  0
LINE
  8
0
 10
4.99524
 20
-16.0465
 11
5.02884
 21
-15.8652
  0
LINE
  8
0
 10
5.02884
 20
-15.8652
 11
5.08122
 21
-15.6884
  0
LINE
  8
0
 10
5.08122
 20
-15.6884
 11
5.15179
 21
-15.518
  0
LINE
  8
0
 10
5.15179
 20
-15.518
 11
5.23978
 21
-15.3559
  0
LINE
  8
0
 10
5.23978
 20
-15.3559
 11
5.34422
 21
-15.2039
  0
LINE
  8
0
 10
5.34422
 20
-15.2039
 11
5.46399
 21
-15.0637
  0
LINE
  8
0
 10
5.46399
 20
-15.0637
 11
5.59775
 21
-14.9368
  0
LINE
  8
0
 10
5.59775
 20
-14.9368
 11
5.74405
 21
-14.8245
  0
LINE
  8
0
 10
5.74405
 20
-14.8245
 11
5.90129
 21
-14.7282
  0
LINE
  8
0
 10
5.90129
 20
-14.7282
 11
6.06772
 21
-14.6488
  0
LINE
  8
0
 10
6.06772
 20
-14.6488
 11
6.24155
 21
-14.5872
  0
LINE
  8
0
 10
6.24155
 20
-14.5872
 11
6.42087
 21
-14.5442
  0
LINE
  8
0
 10
6.42087
 20
-14.5442
 11
6.6037
 21
-14.5201
  0
LINE
  8
0
 10
6.6037
 20
-14.5201
 11
6.78804
 21
-14.5153
  0
LINE
  8
0
 10
6.78804
 20
-14.5153
 11
6.97188
 21
-14.5298
  0
LINE
  8
0
 10
6.97188
 20
-14.5298
 11
7.15318
 21
-14.5634
  0
LINE
  8
0
 10
7.15318
 20
-14.5634
 11
7.33
 21
-14.6157
  0
LINE
  8
0
 10
7.33
 20
-14.6157
 11
7.50037
 21
-14.6863
  0
LINE
  8
0
 10
7.50037
 20
-14.6863
 11
7.66243
 21
-14.7743
  0
LINE
  8
0
 10
7.66243
 20
-14.7743
 11
7.81441
 21
-14.8788
  0
LINE
  8
0
 10
7.81441
 20
-14.8788
 11
7.95462
 21
-14.9985
  0
LINE
  8
0
 10
7.95462
 20
-14.9985
 11
22.8053
 21
-30.5238
  0
LINE
  8
0
 10
22.8053
 20
-30.5238
 11
23.5457
 21
-31.3041
  0
LINE
  8
0
 10
23.5457
 20
-31.3041
 11
24.2006
 21
-32.1575
  0
LINE
  8
0
 10
24.2006
 20
-32.1575
 11
24.7626
 21
-33.0747
  0
LINE
  8
0
 10
24.7626
 20
-33.0747
 11
25.2257
 21
-34.0456
  0
LINE
  8
0
 10
25.2257
 20
-34.0456
 11
25.5848
 21
-35.0596
  0
LINE
  8
0
 10
25.5848
 20
-35.0596
 11
25.8359
 21
-36.1056
  0
LINE
  8
0
 10
25.8359
 20
-36.1056
 11
25.9763
 21
-37.1721
  0
LINE
  8
0
 10
25.9763
 20
-37.1721
 11
26.0045
 21
-38.2474
  0
LINE
  8
0
 10
26.0045
 20
-38.2474
 11
25.9201
 21
-39.3198
  0
LINE
  8
0
 10
25.9201
 20
-39.3198
 11
25.7241
 21
-40.3775
  0
LINE
  8
0
 10
25.7241
 20
-40.3775
 11
25.4186
 21
-41.4089
  0
LINE
  8
0
 10
25.4186
 20
-41.4089
 11
25.0069
 21
-42.4027
  0
LINE
  8
0
 10
25.0069
 20
-42.4027
 11
24.4936
 21
-43.348
  0
LINE
  8
0
 10
24.4936
 20
-43.348
 11
23.8843
 21
-44.2345
  0
LINE
  8
0
 10
23.8843
 20
-44.2345
 11
23.1857
 21
-45.0525
  0
LINE
  8
0
 10
23.1857
 20
-45.0525
 11
22.4054
 21
-45.793
  0
LINE
  8
0
 10
22.4054
 20
-45.793
 11
21.552
 21
-46.4478
  0
LINE
  8
0
 10
21.552
 20
-46.4478
 11
20.6349
 21
-47.0099
  0
LINE
  8
0
 10
20.6349
 20
-47.0099
 11
19.6639
 21
-47.473
  0
LINE
  8
0
 10
19.6639
 20
-47.473
 11
18.6499
 21
-47.832
  0
LINE
  8
0
 10
18.6499
 20
-47.832
 11
17.604
 21
-48.0832
  0
LINE
  8
0
 10
17.604
 20
-48.0832
 11
16.5375
 21
-48.2236
  0
LINE
  8
0
 10
16.5375
 20
-48.2236
 11
15.4621
 21
-48.2517
  0
LINE
  8
0
 10
15.4621
 20
-48.2517
 11
14.3898
 21
-48.1673
  0
LINE
  8
0
 10
37.1377
 20
-38.8539
 11
36.9088
 21
-38.7989
  0
LINE
  8
0
 10
36.9088
 20
-38.7989
 11
36.6914
 21
-38.7089
  0
LINE
  8
0
 10
36.6914
 20
-38.7089
 11
36.4907
 21
-38.5859
  0
LINE
  8
0
 10
36.4907
 20
-38.5859
 11
36.3117
 21
-38.433
  0
LINE
  8
0
 10
36.3117
 20
-38.433
 11
36.1588
 21
-38.254
  0
LINE
  8
0
 10
36.1588
 20
-38.254
 11
36.0358
 21
-38.0533
  0
LINE
  8
0
 10
36.0358
 20
-38.0533
 11
35.9458
 21
-37.8359
  0
LINE
  8
0
 10
35.9458
 20
-37.8359
 11
35.8908
 21
-37.607
  0
LINE
  8
0
 10
35.8908
 20
-37.607
 11
35.8724
 21
-37.3724
  0
LINE
  8
0
 10
35.8724
 20
-37.3724
 11
35.8908
 21
-37.1377
  0
LINE
  8
0
 10
35.8908
 20
-37.1377
 11
35.9458
 21
-36.9088
  0
LINE
  8
0
 10
35.9458
 20
-36.9088
 11
36.0358
 21
-36.6914
  0
LINE
  8
0
 10
36.0358
 20
-36.6914
 11
36.1588
 21
-36.4907
  0
LINE
  8
0
 10
36.1588
 20
-36.4907
 11
36.3117
 21
-36.3117
  0
LINE
  8
0
 10
36.3117
 20
-36.3117
 11
36.4907
 21
-36.1588
  0
LINE
  8
0
 10
36.4907
 20
-36.1588
 11
36.6914
 21
-36.0358
  0
LINE
  8
0
 10
36.6914
 20
-36.0358
 11
36.9088
 21
-35.9458
  0
LINE
  8
0
 10
36.9088
 20
-35.9458
 11
37.1377
 21
-35.8908
  0
LINE
  8
0
 10
37.1377
 20
-35.8908
 11
37.3724
 21
-35.8724
  0
LINE
  8
0
 10
37.3724
 20
-35.8724
 11
37.607
 21
-35.8908
  0
LINE
  8
0
 10
37.607
 20
-35.8908
 11
37.8359
 21
-35.9458
  0
LINE
  8
0
 10
37.8359
 20
-35.9458
 11
38.0533
 21
-36.0358
  0
LINE
  8
0
 10
38.0533
 20
-36.0358
 11
38.254
 21
-36.1588
  0
LINE
  8
0
 10
38.254
 20
-36.1588
 11
38.433
 21
-36.3117
  0
LINE
  8
0
 10
38.433
 20
-36.3117
 11
38.5859
 21
-36.4907
  0
LINE
  8
0
 10
38.5859
 20
-36.4907
 11
38.7089
 21
-36.6914
  0
LINE
  8
0
 10
38.7089
 20
-36.6914
 11
38.7989
 21
-36.9088
  0
LINE
  8
0
 10
38.7989
 20
-36.9088
 11
38.8539
 21
-37.1377
  0
LINE
  8
0
 10
38.8539
 20
-37.1377
 11
38.8724
 21
-37.3724
  0
LINE
  8
0
 10
38.8724
 20
-37.3724
 11
38.8539
 21
-37.607
  0
LINE
  8
0
 10
38.8539
 20
-37.607
 11
38.7989
 21
-37.8359
  0
LINE
  8
0
 10
38.7989
 20
-37.8359
 11
38.7089
 21
-38.0533
  0
LINE
  8
0
 10
38.7089
 20
-38.0533
 11
38.5859
 21
-38.254
  0
LINE
  8
0
 10
38.5859
 20
-38.254
 11
38.433
 21
-38.433
  0
LINE
  8
0
 10
38.433
 20
-38.433
 11
38.254
 21
-38.5859
  0
LINE
  8
0
 10
38.254
 20
-38.5859
 11
38.0533
 21
-38.7089
  0
LINE
  8
0
 10
38.0533
 20
-38.7089
 11
37.8359
 21
-38.7989
  0
LINE
  8
0
 10
37.8359
 20
-38.7989
 11
37.607
 21
-38.8539
  0
LINE
  8
0
 10
37.607
 20
-38.8539
 11
37.3724
 21
-38.8724
  0
LINE
  8
0
 10
37.3724
 20
-38.8724
 11
37.1377
 21
-38.8539
  0
LINE
  8
0
 10
-37.607
 20
-38.8539
 11
-37.8359
 21
-38.7989
  0
LINE
  8
0
 10
-37.8359
 20
-38.7989
 11
-38.0533
 21
-38.7089
  0
LINE
  8
0
 10
-38.0533
 20
-38.7089
 11
-38.254
 21
-38.5859
  0
LINE
  8
0
 10
-38.254
 20
-38.5859
 11
-38.433
 21
-38.433
  0
LINE
  8
0
 10
-38.433
 20
-38.433
 11
-38.5859
 21
-38.254
  0
LINE
  8
0
 10
-38.5859
 20
-38.254
 11
-38.7089
 21
-38.0533
  0
LINE
  8
0
 10
-38.7089
 20
-38.0533
 11
-38.7989
 21
-37.8359
  0
LINE
  8
0
 10
-38.7989
 20
-37.8359
 11
-38.8539
 21
-37.607
  0
LINE
  8
0
 10
-38.8539
 20
-37.607
 11
-38.8724
 21
-37.3724
  0
LINE
  8
0
 10
-38.8724
 20
-37.3724
 11
-38.8539
 21
-37.1377
  0
LINE
  8
0
 10
-38.8539
 20
-37.1377
 11
-38.7989
 21
-36.9088
  0
LINE
  8
0
 10
-38.7989
 20
-36.9088
 11
-38.7089
 21
-36.6914
  0
LINE
  8
0
 10
-38.7089
 20
-36.6914
 11
-38.5859
 21
-36.4907
  0
LINE
  8
0
 10
-38.5859
 20
-36.4907
 11
-38.433
 21
-36.3117
  0
LINE
  8
0
 10
-38.433
 20
-36.3117
 11
-38.254
 21
-36.1588
  0
LINE
  8
0
 10
-38.254
 20
-36.1588
 11
-38.0533
 21
-36.0358
  0
LINE
  8
0
 10
-38.0533
 20
-36.0358
 11
-37.8359
 21
-35.9458
  0
LINE
  8
0
 10
-37.8359
 20
-35.9458
 11
-37.607
 21
-35.8908
  0
LINE
  8
0
 10
-37.607
 20
-35.8908
 11
-37.3724
 21
-35.8724
  0
LINE
  8
0
 10
-37.3724
 20
-35.8724
 11
-37.1377
 21
-35.8908
  0
LINE
  8
0
 10
-37.1377
 20
-35.8908
 11
-36.9088
 21
-35.9458
  0
LINE
  8
0
 10
-36.9088
 20
-35.9458
 11
-36.6914
 21
-36.0358
  0
LINE
  8
0
 10
-36.6914
 20
-36.0358
 11
-36.4907
 21
-36.1588
  0
LINE
  8
0
 10
-36.4907
 20
-36.1588
 11
-36.3117
 21
-36.3117
  0
LINE
  8
0
 10
-36.3117
 20
-36.3117
 11
-36.1588
 21
-36.4907
  0
LINE
  8
0
 10
-36.1588
 20
-36.4907
 11
-36.0358
 21
-36.6914
  0
LINE
  8
0
 10
-36.0358
 20
-36.6914
 11
-35.9458
 21
-36.9088
  0
LINE
  8
0
 10
-35.9458
 20
-36.9088
 11
-35.8908
 21
-37.1377
  0
LINE
  8
0
 10
-35.8908
 20
-37.1377
 11
-35.8724
 21
-37.3724
  0
LINE
  8
0
 10
-35.8724
 20
-37.3724
 11
-35.8908
 21
-37.607
  0
LINE
  8
0
 10
-35.8908
 20
-37.607
 11
-35.9458
 21
-37.8359
  0
LINE
  8
0
 10
-35.9458
 20
-37.8359
 11
-36.0358
 21
-38.0533
  0
LINE
  8
0
 10
-36.0358
 20
-38.0533
 11
-36.1588
 21
-38.254
  0
LINE
  8
0
 10
-36.1588
 20
-38.254
 11
-36.3117
 21
-38.433
  0
LINE
  8
0
 10
-36.3117
 20
-38.433
 11
-36.4907
 21
-38.5859
  0
LINE
  8
0
 10
-36.4907
 20
-38.5859
 11
-36.6914
 21
-38.7089
  0
LINE
  8
0
 10
-36.6914
 20
-38.7089
 11
-36.9088
 21
-38.7989
  0
LINE
  8
0
 10
-36.9088
 20
-38.7989
 11
-37.1377
 21
-38.8539
  0
LINE
  8
0
 10
-37.1377
 20
-38.8539
 11
-37.3724
 21
-38.8724
  0
LINE
  8
0
 10
-37.3724
 20
-38.8724
 11
-37.607
 21
-38.8539
  0
LINE
  8
0
 10
-0.23465
 20
-54.334
 11
-0.463516
 21
-54.2791
  0
LINE
  8
0
 10
-0.463516
 20
-54.2791
 11
-0.680984
 21
-54.189
  0
LINE
  8
0
 10
-0.680984
 20
-54.189
 11
-0.881668
 21
-54.066
  0
LINE
  8
0
 10
-0.881668
 20
-54.066
 11
-1.06065
 21
-53.9131
  0
LINE
  8
0
 10
-1.06065
 20
-53.9131
 11
-1.21352
 21
-53.7342
  0
LINE
  8
0
 10
-1.21352
 20
-53.7342
 11
-1.3365
 21
-53.5335
  0
LINE
  8
0
 10
-1.3365
 20
-53.5335
 11
-1.42657
 21
-53.316
  0
LINE
  8
0
 10
-1.42657
 20
-53.316
 11
-1.48152
 21
-53.0871
  0
LINE
  8
0
 10
-1.48152
 20
-53.0871
 11
-1.5
 21
-52.8525
  0
LINE
  8
0
 10
-1.5
 20
-52.8525
 11
-1.48152
 21
-52.6178
  0
LINE
  8
0
 10
-1.48152
 20
-52.6178
 11
-1.42657
 21
-52.389
  0
LINE
  8
0
 10
-1.42657
 20
-52.389
 11
-1.3365
 21
-52.1715
  0
LINE
  8
0
 10
-1.3365
 20
-52.1715
 11
-1.21352
 21
-51.9708
  0
LINE
  8
0
 10
-1.21352
 20
-51.9708
 11
-1.06065
 21
-51.7918
  0
LINE
  8
0
 10
-1.06065
 20
-51.7918
 11
-0.881668
 21
-51.639
  0
LINE
  8
0
 10
-0.881668
 20
-51.639
 11
-0.680984
 21
-51.516
  0
LINE
  8
0
 10
-0.680984
 20
-51.516
 11
-0.463516
 21
-51.4259
  0
LINE
  8
0
 10
-0.463516
 20
-51.4259
 11
-0.23465
 21
-51.371
  0
LINE
  8
0
 10
-0.23465
 20
-51.371
 11
0
 21
-51.3525
  0
LINE
  8
0
 10
0
 20
-51.3525
 11
0.23465
 21
-51.371
  0
LINE
  8
0
 10
0.23465
 20
-51.371
 11
0.463516
 21
-51.4259
  0
LINE
  8
0
 10
0.463516
 20
-51.4259
 11
0.680984
 21
-51.516
  0
LINE
  8
0
 10
0.680984
 20
-51.516
 11
0.881668
 21
-51.639
  0
LINE
  8
0
 10
0.881668
 20
-51.639
 11
1.06065
 21
-51.7918
  0
LINE
  8
0
 10
1.06065
 20
-51.7918
 11
1.21352
 21
-51.9708
  0
LINE
  8
0
 10
1.21352
 20
-51.9708
 11
1.3365
 21
-52.1715
  0
LINE
  8
0
 10
1.3365
 20
-52.1715
 11
1.42657
 21
-52.389
  0
LINE
  8
0
 10
1.42657
 20
-52.389
 11
1.48152
 21
-52.6178
  0
LINE
  8
0
 10
1.48152
 20
-52.6178
 11
1.49998
 21
-52.8525
  0
LINE
  8
0
 10
1.49998
 20
-52.8525
 11
1.48152
 21
-53.0871
  0
LINE
  8
0
 10
1.48152
 20
-53.0871
 11
1.42657
 21
-53.316
  0
LINE
  8
0
 10
1.42657
 20
-53.316
 11
1.3365
 21
-53.5335
  0
LINE
  8
0
 10
1.3365
 20
-53.5335
 11
1.21352
 21
-53.7342
  0
LINE
  8
0
 10
1.21352
 20
-53.7342
 11
1.06065
 21
-53.9131
  0
LINE
  8
0
 10
1.06065
 20
-53.9131
 11
0.881668
 21
-54.066
  0
LINE
  8
0
 10
0.881668
 20
-54.066
 11
0.680984
 21
-54.189
  0
LINE
  8
0
 10
0.680984
 20
-54.189
 11
0.463516
 21
-54.2791
  0
LINE
  8
0
 10
0.463516
 20
-54.2791
 11
0.23465
 21
-54.334
  0
LINE
  8
0
 10
0.23465
 20
-54.334
 11
0
 21
-54.3525
  0
LINE
  8
0
 10
0
 20
-54.3525
 11
-0.23465
 21
-54.334
  0
ENDSEC
  0
SECTION
  2
OBJECTS
  0
DICTIONARY
  0
ENDSEC
  0
EOF
