  0
SECTION
  2
BLOCKS
  0
ENDSEC
  0
SECTION
  2
ENTITIES
  0
LINE
  8
0
 10
-1
 20
-17.9706
 11
-0.565384
 21
-17.9911
  0
LINE
  8
0
 10
-0.565384
 20
-17.9911
 11
0
 21
-18
  0
LINE
  8
0
 10
0
 20
-18
 11
0.565384
 21
-17.9911
  0
LINE
  8
0
 10
0.565384
 20
-17.9911
 11
1.13022
 21
-17.9645
  0
LINE
  8
0
 10
1.13022
 20
-17.9645
 11
1.69394
 21
-17.9201
  0
LINE
  8
0
 10
1.69394
 20
-17.9201
 11
2.256
 21
-17.8581
  0
LINE
  8
0
 10
2.256
 20
-17.8581
 11
2.81581
 21
-17.7784
  0
LINE
  8
0
 10
2.81581
 20
-17.7784
 11
3.37285
 21
-17.6812
  0
LINE
  8
0
 10
3.37285
 20
-17.6812
 11
3.92657
 21
-17.5665
  0
LINE
  8
0
 10
3.92657
 20
-17.5665
 11
4.47641
 21
-17.4345
  0
LINE
  8
0
 10
4.47641
 20
-17.4345
 11
5.02184
 21
-17.2853
  0
LINE
  8
0
 10
5.02184
 20
-17.2853
 11
5.5623
 21
-17.119
  0
LINE
  8
0
 10
5.5623
 20
-17.119
 11
6.09727
 21
-16.9359
  0
LINE
  8
0
 10
6.09727
 20
-16.9359
 11
6.62624
 21
-16.736
  0
LINE
  8
0
 10
6.62624
 20
-16.736
 11
7.14865
 21
-16.5196
  0
LINE
  8
0
 10
7.14865
 20
-16.5196
 11
7.66402
 21
-16.2869
  0
LINE
  8
0
 10
7.66402
 20
-16.2869
 11
8.17181
 21
-16.0381
  0
LINE
  8
0
 10
8.17181
 20
-16.0381
 11
8.67155
 21
-15.7735
  0
LINE
  8
0
 10
8.67155
 20
-15.7735
 11
9.16273
 21
-15.4933
  0
LINE
  8
0
 10
9.16273
 20
-15.4933
 11
9.64488
 21
-15.1979
  0
LINE
  8
0
 10
9.64488
 20
-15.1979
 11
10.1175
 21
-14.8874
  0
LINE
  8
0
 10
10.1175
 20
-14.8874
 11
10.5801
 21
-14.5623
  0
LINE
  8
0
 10
10.5801
 20
-14.5623
 11
11.0323
 21
-14.2228
  0
LINE
  8
0
 10
11.0323
 20
-14.2228
 11
11.4736
 21
-13.8692
  0
LINE
  8
0
 10
11.4736
 20
-13.8692
 11
11.9036
 21
-13.502
  0
LINE
  8
0
 10
11.9036
 20
-13.502
 11
12.3218
 21
-13.1214
  0
LINE
  8
0
 10
12.3218
 20
-13.1214
 11
12.7279
 21
-12.7279
  0
LINE
  8
0
 10
12.7279
 20
-12.7279
 11
13.1214
 21
-12.3218
  0
LINE
  8
0
 10
13.1214
 20
-12.3218
 11
13.502
 21
-11.9036
  0
LINE
  8
0
 10
13.502
 20
-11.9036
 11
13.8692
 21
-11.4736
  0
LINE
  8
0
 10
13.8692
 20
-11.4736
 11
14.2228
 21
-11.0323
  0
LINE
  8
0
 10
14.2228
 20
-11.0323
 11
14.5623
 21
-10.5801
  0
LINE
  8
0
 10
14.5623
 20
-10.5801
 11
14.8874
 21
-10.1175
  0
LINE
  8
0
 10
14.8874
 20
-10.1175
 11
15.1979
 21
-9.64488
  0
LINE
  8
0
 10
15.1979
 20
-9.64488
 11
15.4933
 21
-9.16273
  0
LINE
  8
0
 10
15.4933
 20
-9.16273
 11
15.7735
 21
-8.67155
  0
LINE
  8
0
 10
15.7735
 20
-8.67155
 11
16.0381
 21
-8.17181
  0
LINE
  8
0
 10
16.0381
 20
-8.17181
 11
16.2869
 21
-7.66402
  0
LINE
  8
0
 10
16.2869
 20
-7.66402
 11
16.5196
 21
-7.14865
  0
LINE
  8
0
 10
16.5196
 20
-7.14865
 11
16.736
 21
-6.62624
  0
LINE
  8
0
 10
16.736
 20
-6.62624
 11
16.9705
 21
-6.00963
  0
LINE
  8
0
 10
16.9705
 20
-6.00963
 11
17.0311
 21
-5.86472
  0
LINE
  8
0
 10
17.0311
 20
-5.86472
 11
17.0963
 21
-5.72179
  0
LINE
  8
0
 10
17.0963
 20
-5.72179
 11
17.1658
 21
-5.58096
  0
LINE
  8
0
 10
17.1658
 20
-5.58096
 11
17.2398
 21
-5.44241
  0
LINE
  8
0
 10
17.2398
 20
-5.44241
 11
17.3181
 21
-5.30624
  0
LINE
  8
0
 10
17.3181
 20
-5.30624
 11
17.4007
 21
-5.17261
  0
LINE
  8
0
 10
17.4007
 20
-5.17261
 11
17.4874
 21
-5.04163
  0
LINE
  8
0
 10
17.4874
 20
-5.04163
 11
17.5781
 21
-4.91344
  0
LINE
  8
0
 10
17.5781
 20
-4.91344
 11
17.6729
 21
-4.78816
  0
LINE
  8
0
 10
17.6729
 20
-4.78816
 11
17.7715
 21
-4.66592
  0
LINE
  8
0
 10
17.7715
 20
-4.66592
 11
17.8739
 21
-4.54683
  0
LINE
  8
0
 10
17.8739
 20
-4.54683
 11
17.9801
 21
-4.43103
  0
LINE
  8
0
 10
17.9801
 20
-4.43103
 11
18.0898
 21
-4.3186
  0
LINE
  8
0
 10
18.0898
 20
-4.3186
 11
18.2029
 21
-4.2097
  0
LINE
  8
0
 10
18.2029
 20
-4.2097
 11
18.3195
 21
-4.10439
  0
LINE
  8
0
 10
18.3195
 20
-4.10439
 11
18.4393
 21
-4.00281
  0
LINE
  8
0
 10
18.4393
 20
-4.00281
 11
18.5622
 21
-3.90501
  0
LINE
  8
0
 10
18.5622
 20
-3.90501
 11
18.6881
 21
-3.81114
  0
LINE
  8
0
 10
18.6881
 20
-3.81114
 11
18.817
 21
-3.72128
  0
LINE
  8
0
 10
18.817
 20
-3.72128
 11
18.9485
 21
-3.6355
  0
LINE
  8
0
 10
18.9485
 20
-3.6355
 11
19.0828
 21
-3.55389
  0
LINE
  8
0
 10
19.0828
 20
-3.55389
 11
19.2195
 21
-3.47655
  0
LINE
  8
0
 10
19.2195
 20
-3.47655
 11
19.3585
 21
-3.40353
  0
LINE
  8
0
 10
19.3585
 20
-3.40353
 11
19.4998
 21
-3.33493
  0
LINE
  8
0
 10
19.4998
 20
-3.33493
 11
19.6432
 21
-3.27078
  0
LINE
  8
0
 10
19.6432
 20
-3.27078
 11
19.7885
 21
-3.21118
  0
LINE
  8
0
 10
19.7885
 20
-3.21118
 11
19.9357
 21
-3.15617
  0
LINE
  8
0
 10
19.9357
 20
-3.15617
 11
20.0844
 21
-3.10582
  0
LINE
  8
0
 10
20.0844
 20
-3.10582
 11
20.2347
 21
-3.06017
  0
LINE
  8
0
 10
20.2347
 20
-3.06017
 11
20.3864
 21
-3.01924
  0
LINE
  8
0
 10
20.3864
 20
-3.01924
 11
20.5393
 21
-2.98311
  0
LINE
  8
0
 10
20.5393
 20
-2.98311
 11
20.6932
 21
-2.9518
  0
LINE
  8
0
 10
20.6932
 20
-2.9518
 11
20.848
 21
-2.92532
  0
LINE
  8
0
 10
20.848
 20
-2.92532
 11
21.0036
 21
-2.90373
  0
LINE
  8
0
 10
21.0036
 20
-2.90373
 11
21.1598
 21
-2.88704
  0
LINE
  8
0
 10
21.1598
 20
-2.88704
 11
21.3164
 21
-2.87527
  0
LINE
  8
0
 10
21.3164
 20
-2.87527
 11
21.4733
 21
-2.86841
  0
LINE
  8
0
 10
21.4733
 20
-2.86841
 11
21.6304
 21
-2.8665
  0
LINE
  8
0
 10
21.6304
 20
-2.8665
 11
29.7898
 21
-2.8665
  0
LINE
  8
0
 10
29.7898
 20
-2.8665
 11
29.7898
 21
13.8333
  0
LINE
  8
0
 10
29.7898
 20
13.8333
 11
26.748
 21
13.8333
  0
LINE
  8
0
 10
26.748
 20
13.8333
 11
26.748
 21
27.6667
  0
LINE
  8
0
 10
26.748
 20
27.6667
 11
29.7898
 21
27.6667
  0
LINE
  8
0
 10
29.7898
 20
27.6667
 11
29.7898
 21
41.2
  0
LINE
  8
0
 10
29.7898
 20
41.2
 11
18
 21
41.2
  0
LINE
  8
0
 10
18
 20
41.2
 11
18
 21
86
  0
LINE
  8
0
 10
18
 20
86
 11
17.9911
 21
86.5654
  0
LINE
  8
0
 10
17.9911
 20
86.5654
 11
17.9645
 21
87.1302
  0
LINE
  8
0
 10
17.9645
 20
87.1302
 11
17.9201
 21
87.6939
  0
LINE
  8
0
 10
17.9201
 20
87.6939
 11
17.8581
 21
88.256
  0
LINE
  8
0
 10
17.8581
 20
88.256
 11
17.7784
 21
88.8158
  0
LINE
  8
0
 10
17.7784
 20
88.8158
 11
17.6812
 21
89.3728
  0
LINE
  8
0
 10
17.6812
 20
89.3728
 11
17.5665
 21
89.9266
  0
LINE
  8
0
 10
17.5665
 20
89.9266
 11
17.4345
 21
90.4764
  0
LINE
  8
0
 10
17.4345
 20
90.4764
 11
17.2853
 21
91.0218
  0
LINE
  8
0
 10
17.2853
 20
91.0218
 11
17.119
 21
91.5623
  0
LINE
  8
0
 10
17.119
 20
91.5623
 11
16.9359
 21
92.0973
  0
LINE
  8
0
 10
16.9359
 20
92.0973
 11
16.736
 21
92.6262
  0
LINE
  8
0
 10
16.736
 20
92.6262
 11
16.5196
 21
93.1487
  0
LINE
  8
0
 10
16.5196
 20
93.1487
 11
16.2869
 21
93.664
  0
LINE
  8
0
 10
16.2869
 20
93.664
 11
16.0381
 21
94.1718
  0
LINE
  8
0
 10
16.0381
 20
94.1718
 11
15.7735
 21
94.6716
  0
LINE
  8
0
 10
15.7735
 20
94.6716
 11
15.4933
 21
95.1627
  0
LINE
  8
0
 10
15.4933
 20
95.1627
 11
15.1979
 21
95.6449
  0
LINE
  8
0
 10
15.1979
 20
95.6449
 11
14.8874
 21
96.1175
  0
LINE
  8
0
 10
14.8874
 20
96.1175
 11
14.5623
 21
96.5801
  0
LINE
  8
0
 10
14.5623
 20
96.5801
 11
14.2228
 21
97.0323
  0
LINE
  8
0
 10
14.2228
 20
97.0323
 11
13.8692
 21
97.4736
  0
LINE
  8
0
 10
13.8692
 20
97.4736
 11
13.502
 21
97.9036
  0
LINE
  8
0
 10
13.502
 20
97.9036
 11
13.1214
 21
98.3218
  0
LINE
  8
0
 10
13.1214
 20
98.3218
 11
12.7279
 21
98.7279
  0
LINE
  8
0
 10
12.7279
 20
98.7279
 11
12.3218
 21
99.1214
  0
LINE
  8
0
 10
12.3218
 20
99.1214
 11
11.9036
 21
99.502
  0
LINE
  8
0
 10
11.9036
 20
99.502
 11
11.4736
 21
99.8692
  0
LINE
  8
0
 10
11.4736
 20
99.8692
 11
11.0323
 21
100.223
  0
LINE
  8
0
 10
11.0323
 20
100.223
 11
10.5801
 21
100.562
  0
LINE
  8
0
 10
10.5801
 20
100.562
 11
10.1175
 21
100.887
  0
LINE
  8
0
 10
10.1175
 20
100.887
 11
9.64488
 21
101.198
  0
LINE
  8
0
 10
9.64488
 20
101.198
 11
9.16273
 21
101.493
  0
LINE
  8
0
 10
9.16273
 20
101.493
 11
8.67155
 21
101.774
  0
LINE
  8
0
 10
8.67155
 20
101.774
 11
8.17181
 21
102.038
  0
LINE
  8
0
 10
8.17181
 20
102.038
 11
7.66402
 21
102.287
  0
LINE
  8
0
 10
7.66402
 20
102.287
 11
7.14865
 21
102.52
  0
LINE
  8
0
 10
7.14865
 20
102.52
 11
6.62624
 21
102.736
  0
LINE
  8
0
 10
6.62624
 20
102.736
 11
6.09727
 21
102.936
  0
LINE
  8
0
 10
6.09727
 20
102.936
 11
5.5623
 21
103.119
  0
LINE
  8
0
 10
5.5623
 20
103.119
 11
5.02184
 21
103.285
  0
LINE
  8
0
 10
5.02184
 20
103.285
 11
4.47641
 21
103.434
  0
LINE
  8
0
 10
4.47641
 20
103.434
 11
3.92657
 21
103.566
  0
LINE
  8
0
 10
3.92657
 20
103.566
 11
3.37285
 21
103.681
  0
LINE
  8
0
 10
3.37285
 20
103.681
 11
2.81581
 21
103.778
  0
LINE
  8
0
 10
2.81581
 20
103.778
 11
2.256
 21
103.858
  0
LINE
  8
0
 10
2.256
 20
103.858
 11
1.69394
 21
103.92
  0
LINE
  8
0
 10
1.69394
 20
103.92
 11
1.13022
 21
103.964
  0
LINE
  8
0
 10
1.13022
 20
103.964
 11
0.565384
 21
103.991
  0
LINE
  8
0
 10
0.565384
 20
103.991
 11
0
 21
104
  0
LINE
  8
0
 10
0
 20
104
 11
-0.565384
 21
103.991
  0
LINE
  8
0
 10
-0.565384
 20
103.991
 11
-1.13022
 21
103.964
  0
LINE
  8
0
 10
-1.13022
 20
103.964
 11
-1.69394
 21
103.92
  0
LINE
  8
0
 10
-1.69394
 20
103.92
 11
-2.256
 21
103.858
  0
LINE
  8
0
 10
-2.256
 20
103.858
 11
-2.81581
 21
103.778
  0
LINE
  8
0
 10
-2.81581
 20
103.778
 11
-3.37285
 21
103.681
  0
LINE
  8
0
 10
-3.37285
 20
103.681
 11
-3.92657
 21
103.566
  0
LINE
  8
0
 10
-3.92657
 20
103.566
 11
-4.47641
 21
103.434
  0
LINE
  8
0
 10
-4.47641
 20
103.434
 11
-5.02184
 21
103.285
  0
LINE
  8
0
 10
-5.02184
 20
103.285
 11
-5.5623
 21
103.119
  0
LINE
  8
0
 10
-5.5623
 20
103.119
 11
-6.09727
 21
102.936
  0
LINE
  8
0
 10
-6.09727
 20
102.936
 11
-6.62624
 21
102.736
  0
LINE
  8
0
 10
-6.62624
 20
102.736
 11
-7.14865
 21
102.52
  0
LINE
  8
0
 10
-7.14865
 20
102.52
 11
-7.66402
 21
102.287
  0
LINE
  8
0
 10
-7.66402
 20
102.287
 11
-8.17181
 21
102.038
  0
LINE
  8
0
 10
-8.17181
 20
102.038
 11
-8.67155
 21
101.774
  0
LINE
  8
0
 10
-8.67155
 20
101.774
 11
-9.16273
 21
101.493
  0
LINE
  8
0
 10
-9.16273
 20
101.493
 11
-9.64488
 21
101.198
  0
LINE
  8
0
 10
-9.64488
 20
101.198
 11
-10.1175
 21
100.887
  0
LINE
  8
0
 10
-10.1175
 20
100.887
 11
-10.5801
 21
100.562
  0
LINE
  8
0
 10
-10.5801
 20
100.562
 11
-11.0323
 21
100.223
  0
LINE
  8
0
 10
-11.0323
 20
100.223
 11
-11.4736
 21
99.8692
  0
LINE
  8
0
 10
-11.4736
 20
99.8692
 11
-11.9036
 21
99.502
  0
LINE
  8
0
 10
-11.9036
 20
99.502
 11
-12.3218
 21
99.1214
  0
LINE
  8
0
 10
-12.3218
 20
99.1214
 11
-12.7279
 21
98.7279
  0
LINE
  8
0
 10
-12.7279
 20
98.7279
 11
-13.1214
 21
98.3218
  0
LINE
  8
0
 10
-13.1214
 20
98.3218
 11
-13.502
 21
97.9036
  0
LINE
  8
0
 10
-13.502
 20
97.9036
 11
-13.8692
 21
97.4736
  0
LINE
  8
0
 10
-13.8692
 20
97.4736
 11
-14.2228
 21
97.0323
  0
LINE
  8
0
 10
-14.2228
 20
97.0323
 11
-14.5623
 21
96.5801
  0
LINE
  8
0
 10
-14.5623
 20
96.5801
 11
-14.8874
 21
96.1175
  0
LINE
  8
0
 10
-14.8874
 20
96.1175
 11
-15.1979
 21
95.6449
  0
LINE
  8
0
 10
-15.1979
 20
95.6449
 11
-15.4933
 21
95.1627
  0
LINE
  8
0
 10
-15.4933
 20
95.1627
 11
-15.7735
 21
94.6716
  0
LINE
  8
0
 10
-15.7735
 20
94.6716
 11
-16.0381
 21
94.1718
  0
LINE
  8
0
 10
-16.0381
 20
94.1718
 11
-16.2869
 21
93.664
  0
LINE
  8
0
 10
-16.2869
 20
93.664
 11
-16.5196
 21
93.1487
  0
LINE
  8
0
 10
-16.5196
 20
93.1487
 11
-16.736
 21
92.6262
  0
LINE
  8
0
 10
-16.736
 20
92.6262
 11
-16.9359
 21
92.0973
  0
LINE
  8
0
 10
-16.9359
 20
92.0973
 11
-17.119
 21
91.5623
  0
LINE
  8
0
 10
-17.119
 20
91.5623
 11
-17.2853
 21
91.0218
  0
LINE
  8
0
 10
-17.2853
 20
91.0218
 11
-17.4345
 21
90.4764
  0
LINE
  8
0
 10
-17.4345
 20
90.4764
 11
-17.5665
 21
89.9266
  0
LINE
  8
0
 10
-17.5665
 20
89.9266
 11
-17.6812
 21
89.3728
  0
LINE
  8
0
 10
-17.6812
 20
89.3728
 11
-17.7784
 21
88.8158
  0
LINE
  8
0
 10
-17.7784
 20
88.8158
 11
-17.8581
 21
88.256
  0
LINE
  8
0
 10
-17.8581
 20
88.256
 11
-17.9201
 21
87.6939
  0
LINE
  8
0
 10
-17.9201
 20
87.6939
 11
-17.9645
 21
87.1302
  0
LINE
  8
0
 10
-17.9645
 20
87.1302
 11
-17.9911
 21
86.5654
  0
LINE
  8
0
 10
-17.9911
 20
86.5654
 11
-18
 21
86
  0
LINE
  8
0
 10
-18
 20
86
 11
-18
 21
41.2
  0
LINE
  8
0
 10
-18
 20
41.2
 11
-26.5512
 21
41.2
  0
LINE
  8
0
 10
-26.5512
 20
41.2
 11
-26.5512
 21
18.6667
  0
LINE
  8
0
 10
-26.5512
 20
18.6667
 11
-23.5094
 21
18.6667
  0
LINE
  8
0
 10
-23.5094
 20
18.6667
 11
-23.5094
 21
4.83333
  0
LINE
  8
0
 10
-23.5094
 20
4.83333
 11
-26.5512
 21
4.83333
  0
LINE
  8
0
 10
-26.5512
 20
4.83333
 11
-26.5512
 21
-18
  0
LINE
  8
0
 10
-26.5512
 20
-18
 11
-1
 21
-18
  0
LINE
  8
0
 10
-1
 20
-18
 11
-1
 21
-17.9706
  0
LINE
  8
0
 10
-13
 20
41.2
 11
-13
 21
50.8
  0
LINE
  8
0
 10
-13
 20
50.8
 11
-10
 21
54.0001
  0
LINE
  8
0
 10
-10
 20
54.0001
 11
-10
 21
80.3239
  0
LINE
  8
0
 10
-10
 20
80.3239
 11
-10.0775
 21
80.4598
  0
LINE
  8
0
 10
-10.0775
 20
80.4598
 11
-10.2466
 21
80.7791
  0
LINE
  8
0
 10
-10.2466
 20
80.7791
 11
-10.4055
 21
81.1035
  0
LINE
  8
0
 10
-10.4055
 20
81.1035
 11
-10.5542
 21
81.4328
  0
LINE
  8
0
 10
-10.5542
 20
81.4328
 11
-10.6924
 21
81.7666
  0
LINE
  8
0
 10
-10.6924
 20
81.7666
 11
-10.8201
 21
82.1045
  0
LINE
  8
0
 10
-10.8201
 20
82.1045
 11
-10.9371
 21
82.4463
  0
LINE
  8
0
 10
-10.9371
 20
82.4463
 11
-11.0434
 21
82.7916
  0
LINE
  8
0
 10
-11.0434
 20
82.7916
 11
-11.1387
 21
83.1401
  0
LINE
  8
0
 10
-11.1387
 20
83.1401
 11
-11.223
 21
83.4914
  0
LINE
  8
0
 10
-11.223
 20
83.4914
 11
-11.2963
 21
83.8451
  0
LINE
  8
0
 10
-11.2963
 20
83.8451
 11
-11.3584
 21
84.201
  0
LINE
  8
0
 10
-11.3584
 20
84.201
 11
-11.4093
 21
84.5587
  0
LINE
  8
0
 10
-11.4093
 20
84.5587
 11
-11.449
 21
84.9178
  0
LINE
  8
0
 10
-11.449
 20
84.9178
 11
-11.4773
 21
85.2779
  0
LINE
  8
0
 10
-11.4773
 20
85.2779
 11
-11.4943
 21
85.6388
  0
LINE
  8
0
 10
-11.4943
 20
85.6388
 11
-11.5
 21
86
  0
LINE
  8
0
 10
-11.5
 20
86
 11
-11.4943
 21
86.3612
  0
LINE
  8
0
 10
-11.4943
 20
86.3612
 11
-11.4773
 21
86.7221
  0
LINE
  8
0
 10
-11.4773
 20
86.7221
 11
-11.449
 21
87.0822
  0
LINE
  8
0
 10
-11.449
 20
87.0822
 11
-11.4093
 21
87.4413
  0
LINE
  8
0
 10
-11.4093
 20
87.4413
 11
-11.3584
 21
87.799
  0
LINE
  8
0
 10
-11.3584
 20
87.799
 11
-11.2963
 21
88.1549
  0
LINE
  8
0
 10
-11.2963
 20
88.1549
 11
-11.223
 21
88.5086
  0
LINE
  8
0
 10
-11.223
 20
88.5086
 11
-11.1387
 21
88.8599
  0
LINE
  8
0
 10
-11.1387
 20
88.8599
 11
-11.0434
 21
89.2084
  0
LINE
  8
0
 10
-11.0434
 20
89.2084
 11
-10.9371
 21
89.5537
  0
LINE
  8
0
 10
-10.9371
 20
89.5537
 11
-10.8201
 21
89.8955
  0
LINE
  8
0
 10
-10.8201
 20
89.8955
 11
-10.6924
 21
90.2334
  0
LINE
  8
0
 10
-10.6924
 20
90.2334
 11
-10.5542
 21
90.5672
  0
LINE
  8
0
 10
-10.5542
 20
90.5672
 11
-10.4055
 21
90.8965
  0
LINE
  8
0
 10
-10.4055
 20
90.8965
 11
-10.2466
 21
91.2209
  0
LINE
  8
0
 10
-10.2466
 20
91.2209
 11
-10.0775
 21
91.5402
  0
LINE
  8
0
 10
-10.0775
 20
91.5402
 11
-9.89853
 21
91.854
  0
LINE
  8
0
 10
-9.89853
 20
91.854
 11
-9.70976
 21
92.162
  0
LINE
  8
0
 10
-9.70976
 20
92.162
 11
-9.51141
 21
92.464
  0
LINE
  8
0
 10
-9.51141
 20
92.464
 11
-9.30368
 21
92.7595
  0
LINE
  8
0
 10
-9.30368
 20
92.7595
 11
-9.08678
 21
93.0484
  0
LINE
  8
0
 10
-9.08678
 20
93.0484
 11
-8.8609
 21
93.3304
  0
LINE
  8
0
 10
-8.8609
 20
93.3304
 11
-8.62627
 21
93.6051
  0
LINE
  8
0
 10
-8.62627
 20
93.6051
 11
-8.38313
 21
93.8723
  0
LINE
  8
0
 10
-8.38313
 20
93.8723
 11
-8.13171
 21
94.1317
  0
LINE
  8
0
 10
-8.13171
 20
94.1317
 11
-7.87228
 21
94.3831
  0
LINE
  8
0
 10
-7.87228
 20
94.3831
 11
-7.60507
 21
94.6263
  0
LINE
  8
0
 10
-7.60507
 20
94.6263
 11
-7.33037
 21
94.8609
  0
LINE
  8
0
 10
-7.33037
 20
94.8609
 11
-7.04842
 21
95.0868
  0
LINE
  8
0
 10
-7.04842
 20
95.0868
 11
-6.75952
 21
95.3037
  0
LINE
  8
0
 10
-6.75952
 20
95.3037
 11
-6.46396
 21
95.5114
  0
LINE
  8
0
 10
-6.46396
 20
95.5114
 11
-6.162
 21
95.7098
  0
LINE
  8
0
 10
-6.162
 20
95.7098
 11
-5.85397
 21
95.8985
  0
LINE
  8
0
 10
-5.85397
 20
95.8985
 11
-5.54016
 21
96.0775
  0
LINE
  8
0
 10
-5.54016
 20
96.0775
 11
-5.22089
 21
96.2466
  0
LINE
  8
0
 10
-5.22089
 20
96.2466
 11
-4.89645
 21
96.4055
  0
LINE
  8
0
 10
-4.89645
 20
96.4055
 11
-4.5672
 21
96.5542
  0
LINE
  8
0
 10
-4.5672
 20
96.5542
 11
-4.23343
 21
96.6924
  0
LINE
  8
0
 10
-4.23343
 20
96.6924
 11
-3.89548
 21
96.8201
  0
LINE
  8
0
 10
-3.89548
 20
96.8201
 11
-3.55368
 21
96.9371
  0
LINE
  8
0
 10
-3.55368
 20
96.9371
 11
-3.20839
 21
97.0434
  0
LINE
  8
0
 10
-3.20839
 20
97.0434
 11
-2.85992
 21
97.1387
  0
LINE
  8
0
 10
-2.85992
 20
97.1387
 11
-2.50864
 21
97.223
  0
LINE
  8
0
 10
-2.50864
 20
97.223
 11
-2.15488
 21
97.2963
  0
LINE
  8
0
 10
-2.15488
 20
97.2963
 11
-1.799
 21
97.3584
  0
LINE
  8
0
 10
-1.799
 20
97.3584
 11
-1.44133
 21
97.4093
  0
LINE
  8
0
 10
-1.44133
 20
97.4093
 11
-1.08224
 21
97.449
  0
LINE
  8
0
 10
-1.08224
 20
97.449
 11
-0.722076
 21
97.4773
  0
LINE
  8
0
 10
-0.722076
 20
97.4773
 11
-0.361221
 21
97.4943
  0
LINE
  8
0
 10
-0.361221
 20
97.4943
 11
0
 21
97.5
  0
LINE
  8
0
 10
0
 20
97.5
 11
0.361221
 21
97.4943
  0
LINE
  8
0
 10
0.361221
 20
97.4943
 11
0.722076
 21
97.4773
  0
LINE
  8
0
 10
0.722076
 20
97.4773
 11
1.08224
 21
97.449
  0
LINE
  8
0
 10
1.08224
 20
97.449
 11
1.44133
 21
97.4093
  0
LINE
  8
0
 10
1.44133
 20
97.4093
 11
1.799
 21
97.3584
  0
LINE
  8
0
 10
1.799
 20
97.3584
 11
2.15488
 21
97.2963
  0
LINE
  8
0
 10
2.15488
 20
97.2963
 11
2.50864
 21
97.223
  0
LINE
  8
0
 10
2.50864
 20
97.223
 11
2.85992
 21
97.1387
  0
LINE
  8
0
 10
2.85992
 20
97.1387
 11
3.20839
 21
97.0434
  0
LINE
  8
0
 10
3.20839
 20
97.0434
 11
3.55368
 21
96.9371
  0
LINE
  8
0
 10
3.55368
 20
96.9371
 11
3.89548
 21
96.8201
  0
LINE
  8
0
 10
3.89548
 20
96.8201
 11
4.23343
 21
96.6924
  0
LINE
  8
0
 10
4.23343
 20
96.6924
 11
4.5672
 21
96.5542
  0
LINE
  8
0
 10
4.5672
 20
96.5542
 11
4.89645
 21
96.4055
  0
LINE
  8
0
 10
4.89645
 20
96.4055
 11
5.22089
 21
96.2466
  0
LINE
  8
0
 10
5.22089
 20
96.2466
 11
5.54016
 21
96.0775
  0
LINE
  8
0
 10
5.54016
 20
96.0775
 11
5.85397
 21
95.8985
  0
LINE
  8
0
 10
5.85397
 20
95.8985
 11
6.162
 21
95.7098
  0
LINE
  8
0
 10
6.162
 20
95.7098
 11
6.46396
 21
95.5114
  0
LINE
  8
0
 10
6.46396
 20
95.5114
 11
6.75952
 21
95.3037
  0
LINE
  8
0
 10
6.75952
 20
95.3037
 11
7.04842
 21
95.0868
  0
LINE
  8
0
 10
7.04842
 20
95.0868
 11
7.33037
 21
94.8609
  0
LINE
  8
0
 10
7.33037
 20
94.8609
 11
7.60507
 21
94.6263
  0
LINE
  8
0
 10
7.60507
 20
94.6263
 11
7.87228
 21
94.3831
  0
LINE
  8
0
 10
7.87228
 20
94.3831
 11
8.13171
 21
94.1317
  0
LINE
  8
0
 10
8.13171
 20
94.1317
 11
8.38313
 21
93.8723
  0
LINE
  8
0
 10
8.38313
 20
93.8723
 11
8.62627
 21
93.6051
  0
LINE
  8
0
 10
8.62627
 20
93.6051
 11
8.8609
 21
93.3304
  0
LINE
  8
0
 10
8.8609
 20
93.3304
 11
9.08678
 21
93.0484
  0
LINE
  8
0
 10
9.08678
 20
93.0484
 11
9.30368
 21
92.7595
  0
LINE
  8
0
 10
9.30368
 20
92.7595
 11
9.51141
 21
92.464
  0
LINE
  8
0
 10
9.51141
 20
92.464
 11
9.70976
 21
92.162
  0
LINE
  8
0
 10
9.70976
 20
92.162
 11
9.89853
 21
91.854
  0
LINE
  8
0
 10
9.89853
 20
91.854
 11
10.0775
 21
91.5402
  0
LINE
  8
0
 10
10.0775
 20
91.5402
 11
10.2466
 21
91.2209
  0
LINE
  8
0
 10
10.2466
 20
91.2209
 11
10.4055
 21
90.8965
  0
LINE
  8
0
 10
10.4055
 20
90.8965
 11
10.5542
 21
90.5672
  0
LINE
  8
0
 10
10.5542
 20
90.5672
 11
10.6924
 21
90.2334
  0
LINE
  8
0
 10
10.6924
 20
90.2334
 11
10.8201
 21
89.8955
  0
LINE
  8
0
 10
10.8201
 20
89.8955
 11
10.9371
 21
89.5537
  0
LINE
  8
0
 10
10.9371
 20
89.5537
 11
11.0434
 21
89.2084
  0
LINE
  8
0
 10
11.0434
 20
89.2084
 11
11.1387
 21
88.8599
  0
LINE
  8
0
 10
11.1387
 20
88.8599
 11
11.223
 21
88.5086
  0
LINE
  8
0
 10
11.223
 20
88.5086
 11
11.2963
 21
88.1549
  0
LINE
  8
0
 10
11.2963
 20
88.1549
 11
11.3584
 21
87.799
  0
LINE
  8
0
 10
11.3584
 20
87.799
 11
11.4093
 21
87.4413
  0
LINE
  8
0
 10
11.4093
 20
87.4413
 11
11.449
 21
87.0822
  0
LINE
  8
0
 10
11.449
 20
87.0822
 11
11.4773
 21
86.7221
  0
LINE
  8
0
 10
11.4773
 20
86.7221
 11
11.4943
 21
86.3612
  0
LINE
  8
0
 10
11.4943
 20
86.3612
 11
11.5
 21
86
  0
LINE
  8
0
 10
11.5
 20
86
 11
11.4943
 21
85.6388
  0
LINE
  8
0
 10
11.4943
 20
85.6388
 11
11.4773
 21
85.2779
  0
LINE
  8
0
 10
11.4773
 20
85.2779
 11
11.449
 21
84.9178
  0
LINE
  8
0
 10
11.449
 20
84.9178
 11
11.4093
 21
84.5587
  0
LINE
  8
0
 10
11.4093
 20
84.5587
 11
11.3584
 21
84.201
  0
LINE
  8
0
 10
11.3584
 20
84.201
 11
11.2963
 21
83.8451
  0
LINE
  8
0
 10
11.2963
 20
83.8451
 11
11.223
 21
83.4914
  0
LINE
  8
0
 10
11.223
 20
83.4914
 11
11.1387
 21
83.1401
  0
LINE
  8
0
 10
11.1387
 20
83.1401
 11
11.0434
 21
82.7916
  0
LINE
  8
0
 10
11.0434
 20
82.7916
 11
10.9371
 21
82.4463
  0
LINE
  8
0
 10
10.9371
 20
82.4463
 11
10.8201
 21
82.1045
  0
LINE
  8
0
 10
10.8201
 20
82.1045
 11
10.6924
 21
81.7666
  0
LINE
  8
0
 10
10.6924
 20
81.7666
 11
10.5542
 21
81.4328
  0
LINE
  8
0
 10
10.5542
 20
81.4328
 11
10.4055
 21
81.1035
  0
LINE
  8
0
 10
10.4055
 20
81.1035
 11
10.2466
 21
80.7791
  0
LINE
  8
0
 10
10.2466
 20
80.7791
 11
10.0775
 21
80.4598
  0
LINE
  8
0
 10
10.0775
 20
80.4598
 11
10
 21
80.3239
  0
LINE
  8
0
 10
10
 20
80.3239
 11
10
 21
54.0001
  0
LINE
  8
0
 10
10
 20
54.0001
 11
13
 21
50.8
  0
LINE
  8
0
 10
13
 20
50.8
 11
13
 21
41.2
  0
LINE
  8
0
 10
13
 20
41.2
 11
-13
 21
41.2
  0
LINE
  8
0
 10
-13.6564
 20
78.2623
 11
-13.809
 21
78.2989
  0
LINE
  8
0
 10
-13.809
 20
78.2989
 11
-13.954
 21
78.359
  0
LINE
  8
0
 10
-13.954
 20
78.359
 11
-14.0878
 21
78.441
  0
LINE
  8
0
 10
-14.0878
 20
78.441
 11
-14.2071
 21
78.5429
  0
LINE
  8
0
 10
-14.2071
 20
78.5429
 11
-14.309
 21
78.6622
  0
LINE
  8
0
 10
-14.309
 20
78.6622
 11
-14.391
 21
78.796
  0
LINE
  8
0
 10
-14.391
 20
78.796
 11
-14.451
 21
78.941
  0
LINE
  8
0
 10
-14.451
 20
78.941
 11
-14.4877
 21
79.0936
  0
LINE
  8
0
 10
-14.4877
 20
79.0936
 11
-14.5
 21
79.25
  0
LINE
  8
0
 10
-14.5
 20
79.25
 11
-14.4877
 21
79.4064
  0
LINE
  8
0
 10
-14.4877
 20
79.4064
 11
-14.451
 21
79.559
  0
LINE
  8
0
 10
-14.451
 20
79.559
 11
-14.391
 21
79.704
  0
LINE
  8
0
 10
-14.391
 20
79.704
 11
-14.309
 21
79.8378
  0
LINE
  8
0
 10
-14.309
 20
79.8378
 11
-14.2071
 21
79.9571
  0
LINE
  8
0
 10
-14.2071
 20
79.9571
 11
-14.0878
 21
80.059
  0
LINE
  8
0
 10
-14.0878
 20
80.059
 11
-13.954
 21
80.141
  0
LINE
  8
0
 10
-13.954
 20
80.141
 11
-13.809
 21
80.201
  0
LINE
  8
0
 10
-13.809
 20
80.201
 11
-13.6564
 21
80.2377
  0
LINE
  8
0
 10
-13.6564
 20
80.2377
 11
-13.5
 21
80.25
  0
LINE
  8
0
 10
-13.5
 20
80.25
 11
-13.3436
 21
80.2377
  0
LINE
  8
0
 10
-13.3436
 20
80.2377
 11
-13.191
 21
80.201
  0
LINE
  8
0
 10
-13.191
 20
80.201
 11
-13.046
 21
80.141
  0
LINE
  8
0
 10
-13.046
 20
80.141
 11
-12.9122
 21
80.059
  0
LINE
  8
0
 10
-12.9122
 20
80.059
 11
-12.7929
 21
79.9571
  0
LINE
  8
0
 10
-12.7929
 20
79.9571
 11
-12.691
 21
79.8378
  0
LINE
  8
0
 10
-12.691
 20
79.8378
 11
-12.609
 21
79.704
  0
LINE
  8
0
 10
-12.609
 20
79.704
 11
-12.5489
 21
79.559
  0
LINE
  8
0
 10
-12.5489
 20
79.559
 11
-12.5123
 21
79.4064
  0
LINE
  8
0
 10
-12.5123
 20
79.4064
 11
-12.5
 21
79.25
  0
LINE
  8
0
 10
-12.5
 20
79.25
 11
-12.5123
 21
79.0936
  0
LINE
  8
0
 10
-12.5123
 20
79.0936
 11
-12.5489
 21
78.941
  0
LINE
  8
0
 10
-12.5489
 20
78.941
 11
-12.609
 21
78.796
  0
LINE
  8
0
 10
-12.609
 20
78.796
 11
-12.691
 21
78.6622
  0
LINE
  8
0
 10
-12.691
 20
78.6622
 11
-12.7929
 21
78.5429
  0
LINE
  8
0
 10
-12.7929
 20
78.5429
 11
-12.9122
 21
78.441
  0
LINE
  8
0
 10
-12.9122
 20
78.441
 11
-13.046
 21
78.359
  0
LINE
  8
0
 10
-13.046
 20
78.359
 11
-13.191
 21
78.2989
  0
LINE
  8
0
 10
-13.191
 20
78.2989
 11
-13.3436
 21
78.2623
  0
LINE
  8
0
 10
-13.3436
 20
78.2623
 11
-13.5
 21
78.25
  0
LINE
  8
0
 10
-13.5
 20
78.25
 11
-13.6564
 21
78.2623
  0
LINE
  8
0
 10
13.3436
 20
78.2623
 11
13.191
 21
78.2989
  0
LINE
  8
0
 10
13.191
 20
78.2989
 11
13.046
 21
78.359
  0
LINE
  8
0
 10
13.046
 20
78.359
 11
12.9122
 21
78.441
  0
LINE
  8
0
 10
12.9122
 20
78.441
 11
12.7929
 21
78.5429
  0
LINE
  8
0
 10
12.7929
 20
78.5429
 11
12.691
 21
78.6622
  0
LINE
  8
0
 10
12.691
 20
78.6622
 11
12.609
 21
78.796
  0
LINE
  8
0
 10
12.609
 20
78.796
 11
12.5489
 21
78.941
  0
LINE
  8
0
 10
12.5489
 20
78.941
 11
12.5123
 21
79.0936
  0
LINE
  8
0
 10
12.5123
 20
79.0936
 11
12.5
 21
79.25
  0
LINE
  8
0
 10
12.5
 20
79.25
 11
12.5123
 21
79.4064
  0
LINE
  8
0
 10
12.5123
 20
79.4064
 11
12.5489
 21
79.559
  0
LINE
  8
0
 10
12.5489
 20
79.559
 11
12.609
 21
79.704
  0
LINE
  8
0
 10
12.609
 20
79.704
 11
12.691
 21
79.8378
  0
LINE
  8
0
 10
12.691
 20
79.8378
 11
12.7929
 21
79.9571
  0
LINE
  8
0
 10
12.7929
 20
79.9571
 11
12.9122
 21
80.059
  0
LINE
  8
0
 10
12.9122
 20
80.059
 11
13.046
 21
80.141
  0
LINE
  8
0
 10
13.046
 20
80.141
 11
13.191
 21
80.201
  0
LINE
  8
0
 10
13.191
 20
80.201
 11
13.3436
 21
80.2377
  0
LINE
  8
0
 10
13.3436
 20
80.2377
 11
13.5
 21
80.25
  0
LINE
  8
0
 10
13.5
 20
80.25
 11
13.6564
 21
80.2377
  0
LINE
  8
0
 10
13.6564
 20
80.2377
 11
13.809
 21
80.201
  0
LINE
  8
0
 10
13.809
 20
80.201
 11
13.954
 21
80.141
  0
LINE
  8
0
 10
13.954
 20
80.141
 11
14.0878
 21
80.059
  0
LINE
  8
0
 10
14.0878
 20
80.059
 11
14.2071
 21
79.9571
  0
LINE
  8
0
 10
14.2071
 20
79.9571
 11
14.309
 21
79.8378
  0
LINE
  8
0
 10
14.309
 20
79.8378
 11
14.391
 21
79.704
  0
LINE
  8
0
 10
14.391
 20
79.704
 11
14.451
 21
79.559
  0
LINE
  8
0
 10
14.451
 20
79.559
 11
14.4877
 21
79.4064
  0
LINE
  8
0
 10
14.4877
 20
79.4064
 11
14.5
 21
79.25
  0
LINE
  8
0
 10
14.5
 20
79.25
 11
14.4877
 21
79.0936
  0
LINE
  8
0
 10
14.4877
 20
79.0936
 11
14.451
 21
78.941
  0
LINE
  8
0
 10
14.451
 20
78.941
 11
14.391
 21
78.796
  0
LINE
  8
0
 10
14.391
 20
78.796
 11
14.309
 21
78.6622
  0
LINE
  8
0
 10
14.309
 20
78.6622
 11
14.2071
 21
78.5429
  0
LINE
  8
0
 10
14.2071
 20
78.5429
 11
14.0878
 21
78.441
  0
LINE
  8
0
 10
14.0878
 20
78.441
 11
13.954
 21
78.359
  0
LINE
  8
0
 10
13.954
 20
78.359
 11
13.809
 21
78.2989
  0
LINE
  8
0
 10
13.809
 20
78.2989
 11
13.6564
 21
78.2623
  0
LINE
  8
0
 10
13.6564
 20
78.2623
 11
13.5
 21
78.25
  0
LINE
  8
0
 10
13.5
 20
78.25
 11
13.3436
 21
78.2623
  0
LINE
  8
0
 10
-13.6564
 20
70.2623
 11
-13.809
 21
70.2989
  0
LINE
  8
0
 10
-13.809
 20
70.2989
 11
-13.954
 21
70.359
  0
LINE
  8
0
 10
-13.954
 20
70.359
 11
-14.0878
 21
70.441
  0
LINE
  8
0
 10
-14.0878
 20
70.441
 11
-14.2071
 21
70.5429
  0
LINE
  8
0
 10
-14.2071
 20
70.5429
 11
-14.309
 21
70.6622
  0
LINE
  8
0
 10
-14.309
 20
70.6622
 11
-14.391
 21
70.796
  0
LINE
  8
0
 10
-14.391
 20
70.796
 11
-14.451
 21
70.941
  0
LINE
  8
0
 10
-14.451
 20
70.941
 11
-14.4877
 21
71.0936
  0
LINE
  8
0
 10
-14.4877
 20
71.0936
 11
-14.5
 21
71.25
  0
LINE
  8
0
 10
-14.5
 20
71.25
 11
-14.4877
 21
71.4064
  0
LINE
  8
0
 10
-14.4877
 20
71.4064
 11
-14.451
 21
71.559
  0
LINE
  8
0
 10
-14.451
 20
71.559
 11
-14.391
 21
71.704
  0
LINE
  8
0
 10
-14.391
 20
71.704
 11
-14.309
 21
71.8378
  0
LINE
  8
0
 10
-14.309
 20
71.8378
 11
-14.2071
 21
71.9571
  0
LINE
  8
0
 10
-14.2071
 20
71.9571
 11
-14.0878
 21
72.059
  0
LINE
  8
0
 10
-14.0878
 20
72.059
 11
-13.954
 21
72.141
  0
LINE
  8
0
 10
-13.954
 20
72.141
 11
-13.809
 21
72.201
  0
LINE
  8
0
 10
-13.809
 20
72.201
 11
-13.6564
 21
72.2377
  0
LINE
  8
0
 10
-13.6564
 20
72.2377
 11
-13.5
 21
72.25
  0
LINE
  8
0
 10
-13.5
 20
72.25
 11
-13.3436
 21
72.2377
  0
LINE
  8
0
 10
-13.3436
 20
72.2377
 11
-13.191
 21
72.201
  0
LINE
  8
0
 10
-13.191
 20
72.201
 11
-13.046
 21
72.141
  0
LINE
  8
0
 10
-13.046
 20
72.141
 11
-12.9122
 21
72.059
  0
LINE
  8
0
 10
-12.9122
 20
72.059
 11
-12.7929
 21
71.9571
  0
LINE
  8
0
 10
-12.7929
 20
71.9571
 11
-12.691
 21
71.8378
  0
LINE
  8
0
 10
-12.691
 20
71.8378
 11
-12.609
 21
71.704
  0
LINE
  8
0
 10
-12.609
 20
71.704
 11
-12.5489
 21
71.559
  0
LINE
  8
0
 10
-12.5489
 20
71.559
 11
-12.5123
 21
71.4064
  0
LINE
  8
0
 10
-12.5123
 20
71.4064
 11
-12.5
 21
71.25
  0
LINE
  8
0
 10
-12.5
 20
71.25
 11
-12.5123
 21
71.0936
  0
LINE
  8
0
 10
-12.5123
 20
71.0936
 11
-12.5489
 21
70.941
  0
LINE
  8
0
 10
-12.5489
 20
70.941
 11
-12.609
 21
70.796
  0
LINE
  8
0
 10
-12.609
 20
70.796
 11
-12.691
 21
70.6622
  0
LINE
  8
0
 10
-12.691
 20
70.6622
 11
-12.7929
 21
70.5429
  0
LINE
  8
0
 10
-12.7929
 20
70.5429
 11
-12.9122
 21
70.441
  0
LINE
  8
0
 10
-12.9122
 20
70.441
 11
-13.046
 21
70.359
  0
LINE
  8
0
 10
-13.046
 20
70.359
 11
-13.191
 21
70.2989
  0
LINE
  8
0
 10
-13.191
 20
70.2989
 11
-13.3436
 21
70.2623
  0
LINE
  8
0
 10
-13.3436
 20
70.2623
 11
-13.5
 21
70.25
  0
LINE
  8
0
 10
-13.5
 20
70.25
 11
-13.6564
 21
70.2623
  0
LINE
  8
0
 10
13.3436
 20
70.2623
 11
13.191
 21
70.2989
  0
LINE
  8
0
 10
13.191
 20
70.2989
 11
13.046
 21
70.359
  0
LINE
  8
0
 10
13.046
 20
70.359
 11
12.9122
 21
70.441
  0
LINE
  8
0
 10
12.9122
 20
70.441
 11
12.7929
 21
70.5429
  0
LINE
  8
0
 10
12.7929
 20
70.5429
 11
12.691
 21
70.6622
  0
LINE
  8
0
 10
12.691
 20
70.6622
 11
12.609
 21
70.796
  0
LINE
  8
0
 10
12.609
 20
70.796
 11
12.5489
 21
70.941
  0
LINE
  8
0
 10
12.5489
 20
70.941
 11
12.5123
 21
71.0936
  0
LINE
  8
0
 10
12.5123
 20
71.0936
 11
12.5
 21
71.25
  0
LINE
  8
0
 10
12.5
 20
71.25
 11
12.5123
 21
71.4064
  0
LINE
  8
0
 10
12.5123
 20
71.4064
 11
12.5489
 21
71.559
  0
LINE
  8
0
 10
12.5489
 20
71.559
 11
12.609
 21
71.704
  0
LINE
  8
0
 10
12.609
 20
71.704
 11
12.691
 21
71.8378
  0
LINE
  8
0
 10
12.691
 20
71.8378
 11
12.7929
 21
71.9571
  0
LINE
  8
0
 10
12.7929
 20
71.9571
 11
12.9122
 21
72.059
  0
LINE
  8
0
 10
12.9122
 20
72.059
 11
13.046
 21
72.141
  0
LINE
  8
0
 10
13.046
 20
72.141
 11
13.191
 21
72.201
  0
LINE
  8
0
 10
13.191
 20
72.201
 11
13.3436
 21
72.2377
  0
LINE
  8
0
 10
13.3436
 20
72.2377
 11
13.5
 21
72.25
  0
LINE
  8
0
 10
13.5
 20
72.25
 11
13.6564
 21
72.2377
  0
LINE
  8
0
 10
13.6564
 20
72.2377
 11
13.809
 21
72.201
  0
LINE
  8
0
 10
13.809
 20
72.201
 11
13.954
 21
72.141
  0
LINE
  8
0
 10
13.954
 20
72.141
 11
14.0878
 21
72.059
  0
LINE
  8
0
 10
14.0878
 20
72.059
 11
14.2071
 21
71.9571
  0
LINE
  8
0
 10
14.2071
 20
71.9571
 11
14.309
 21
71.8378
  0
LINE
  8
0
 10
14.309
 20
71.8378
 11
14.391
 21
71.704
  0
LINE
  8
0
 10
14.391
 20
71.704
 11
14.451
 21
71.559
  0
LINE
  8
0
 10
14.451
 20
71.559
 11
14.4877
 21
71.4064
  0
LINE
  8
0
 10
14.4877
 20
71.4064
 11
14.5
 21
71.25
  0
LINE
  8
0
 10
14.5
 20
71.25
 11
14.4877
 21
71.0936
  0
LINE
  8
0
 10
14.4877
 20
71.0936
 11
14.451
 21
70.941
  0
LINE
  8
0
 10
14.451
 20
70.941
 11
14.391
 21
70.796
  0
LINE
  8
0
 10
14.391
 20
70.796
 11
14.309
 21
70.6622
  0
LINE
  8
0
 10
14.309
 20
70.6622
 11
14.2071
 21
70.5429
  0
LINE
  8
0
 10
14.2071
 20
70.5429
 11
14.0878
 21
70.441
  0
LINE
  8
0
 10
14.0878
 20
70.441
 11
13.954
 21
70.359
  0
LINE
  8
0
 10
13.954
 20
70.359
 11
13.809
 21
70.2989
  0
LINE
  8
0
 10
13.809
 20
70.2989
 11
13.6564
 21
70.2623
  0
LINE
  8
0
 10
13.6564
 20
70.2623
 11
13.5
 21
70.25
  0
LINE
  8
0
 10
13.5
 20
70.25
 11
13.3436
 21
70.2623
  0
LINE
  8
0
 10
13.3436
 20
62.2623
 11
13.191
 21
62.2989
  0
LINE
  8
0
 10
13.191
 20
62.2989
 11
13.046
 21
62.359
  0
LINE
  8
0
 10
13.046
 20
62.359
 11
12.9122
 21
62.441
  0
LINE
  8
0
 10
12.9122
 20
62.441
 11
12.7929
 21
62.5429
  0
LINE
  8
0
 10
12.7929
 20
62.5429
 11
12.691
 21
62.6622
  0
LINE
  8
0
 10
12.691
 20
62.6622
 11
12.609
 21
62.796
  0
LINE
  8
0
 10
12.609
 20
62.796
 11
12.5489
 21
62.941
  0
LINE
  8
0
 10
12.5489
 20
62.941
 11
12.5123
 21
63.0936
  0
LINE
  8
0
 10
12.5123
 20
63.0936
 11
12.5
 21
63.25
  0
LINE
  8
0
 10
12.5
 20
63.25
 11
12.5123
 21
63.4064
  0
LINE
  8
0
 10
12.5123
 20
63.4064
 11
12.5489
 21
63.559
  0
LINE
  8
0
 10
12.5489
 20
63.559
 11
12.609
 21
63.704
  0
LINE
  8
0
 10
12.609
 20
63.704
 11
12.691
 21
63.8378
  0
LINE
  8
0
 10
12.691
 20
63.8378
 11
12.7929
 21
63.9571
  0
LINE
  8
0
 10
12.7929
 20
63.9571
 11
12.9122
 21
64.059
  0
LINE
  8
0
 10
12.9122
 20
64.059
 11
13.046
 21
64.141
  0
LINE
  8
0
 10
13.046
 20
64.141
 11
13.191
 21
64.201
  0
LINE
  8
0
 10
13.191
 20
64.201
 11
13.3436
 21
64.2377
  0
LINE
  8
0
 10
13.3436
 20
64.2377
 11
13.5
 21
64.25
  0
LINE
  8
0
 10
13.5
 20
64.25
 11
13.6564
 21
64.2377
  0
LINE
  8
0
 10
13.6564
 20
64.2377
 11
13.809
 21
64.201
  0
LINE
  8
0
 10
13.809
 20
64.201
 11
13.954
 21
64.141
  0
LINE
  8
0
 10
13.954
 20
64.141
 11
14.0878
 21
64.059
  0
LINE
  8
0
 10
14.0878
 20
64.059
 11
14.2071
 21
63.9571
  0
LINE
  8
0
 10
14.2071
 20
63.9571
 11
14.309
 21
63.8378
  0
LINE
  8
0
 10
14.309
 20
63.8378
 11
14.391
 21
63.704
  0
LINE
  8
0
 10
14.391
 20
63.704
 11
14.451
 21
63.559
  0
LINE
  8
0
 10
14.451
 20
63.559
 11
14.4877
 21
63.4064
  0
LINE
  8
0
 10
14.4877
 20
63.4064
 11
14.5
 21
63.25
  0
LINE
  8
0
 10
14.5
 20
63.25
 11
14.4877
 21
63.0936
  0
LINE
  8
0
 10
14.4877
 20
63.0936
 11
14.451
 21
62.941
  0
LINE
  8
0
 10
14.451
 20
62.941
 11
14.391
 21
62.796
  0
LINE
  8
0
 10
14.391
 20
62.796
 11
14.309
 21
62.6622
  0
LINE
  8
0
 10
14.309
 20
62.6622
 11
14.2071
 21
62.5429
  0
LINE
  8
0
 10
14.2071
 20
62.5429
 11
14.0878
 21
62.441
  0
LINE
  8
0
 10
14.0878
 20
62.441
 11
13.954
 21
62.359
  0
LINE
  8
0
 10
13.954
 20
62.359
 11
13.809
 21
62.2989
  0
LINE
  8
0
 10
13.809
 20
62.2989
 11
13.6564
 21
62.2623
  0
LINE
  8
0
 10
13.6564
 20
62.2623
 11
13.5
 21
62.25
  0
LINE
  8
0
 10
13.5
 20
62.25
 11
13.3436
 21
62.2623
  0
LINE
  8
0
 10
-13.6564
 20
62.2623
 11
-13.809
 21
62.2989
  0
LINE
  8
0
 10
-13.809
 20
62.2989
 11
-13.954
 21
62.359
  0
LINE
  8
0
 10
-13.954
 20
62.359
 11
-14.0878
 21
62.441
  0
LINE
  8
0
 10
-14.0878
 20
62.441
 11
-14.2071
 21
62.5429
  0
LINE
  8
0
 10
-14.2071
 20
62.5429
 11
-14.309
 21
62.6622
  0
LINE
  8
0
 10
-14.309
 20
62.6622
 11
-14.391
 21
62.796
  0
LINE
  8
0
 10
-14.391
 20
62.796
 11
-14.451
 21
62.941
  0
LINE
  8
0
 10
-14.451
 20
62.941
 11
-14.4877
 21
63.0936
  0
LINE
  8
0
 10
-14.4877
 20
63.0936
 11
-14.5
 21
63.25
  0
LINE
  8
0
 10
-14.5
 20
63.25
 11
-14.4877
 21
63.4064
  0
LINE
  8
0
 10
-14.4877
 20
63.4064
 11
-14.451
 21
63.559
  0
LINE
  8
0
 10
-14.451
 20
63.559
 11
-14.391
 21
63.704
  0
LINE
  8
0
 10
-14.391
 20
63.704
 11
-14.309
 21
63.8378
  0
LINE
  8
0
 10
-14.309
 20
63.8378
 11
-14.2071
 21
63.9571
  0
LINE
  8
0
 10
-14.2071
 20
63.9571
 11
-14.0878
 21
64.059
  0
LINE
  8
0
 10
-14.0878
 20
64.059
 11
-13.954
 21
64.141
  0
LINE
  8
0
 10
-13.954
 20
64.141
 11
-13.809
 21
64.201
  0
LINE
  8
0
 10
-13.809
 20
64.201
 11
-13.6564
 21
64.2377
  0
LINE
  8
0
 10
-13.6564
 20
64.2377
 11
-13.5
 21
64.25
  0
LINE
  8
0
 10
-13.5
 20
64.25
 11
-13.3436
 21
64.2377
  0
LINE
  8
0
 10
-13.3436
 20
64.2377
 11
-13.191
 21
64.201
  0
LINE
  8
0
 10
-13.191
 20
64.201
 11
-13.046
 21
64.141
  0
LINE
  8
0
 10
-13.046
 20
64.141
 11
-12.9122
 21
64.059
  0
LINE
  8
0
 10
-12.9122
 20
64.059
 11
-12.7929
 21
63.9571
  0
LINE
  8
0
 10
-12.7929
 20
63.9571
 11
-12.691
 21
63.8378
  0
LINE
  8
0
 10
-12.691
 20
63.8378
 11
-12.609
 21
63.704
  0
LINE
  8
0
 10
-12.609
 20
63.704
 11
-12.5489
 21
63.559
  0
LINE
  8
0
 10
-12.5489
 20
63.559
 11
-12.5123
 21
63.4064
  0
LINE
  8
0
 10
-12.5123
 20
63.4064
 11
-12.5
 21
63.25
  0
LINE
  8
0
 10
-12.5
 20
63.25
 11
-12.5123
 21
63.0936
  0
LINE
  8
0
 10
-12.5123
 20
63.0936
 11
-12.5489
 21
62.941
  0
LINE
  8
0
 10
-12.5489
 20
62.941
 11
-12.609
 21
62.796
  0
LINE
  8
0
 10
-12.609
 20
62.796
 11
-12.691
 21
62.6622
  0
LINE
  8
0
 10
-12.691
 20
62.6622
 11
-12.7929
 21
62.5429
  0
LINE
  8
0
 10
-12.7929
 20
62.5429
 11
-12.9122
 21
62.441
  0
LINE
  8
0
 10
-12.9122
 20
62.441
 11
-13.046
 21
62.359
  0
LINE
  8
0
 10
-13.046
 20
62.359
 11
-13.191
 21
62.2989
  0
LINE
  8
0
 10
-13.191
 20
62.2989
 11
-13.3436
 21
62.2623
  0
LINE
  8
0
 10
-13.3436
 20
62.2623
 11
-13.5
 21
62.25
  0
LINE
  8
0
 10
-13.5
 20
62.25
 11
-13.6564
 21
62.2623
  0
LINE
  8
0
 10
13.3436
 20
54.2623
 11
13.191
 21
54.2989
  0
LINE
  8
0
 10
13.191
 20
54.2989
 11
13.046
 21
54.359
  0
LINE
  8
0
 10
13.046
 20
54.359
 11
12.9122
 21
54.441
  0
LINE
  8
0
 10
12.9122
 20
54.441
 11
12.7929
 21
54.5429
  0
LINE
  8
0
 10
12.7929
 20
54.5429
 11
12.691
 21
54.6622
  0
LINE
  8
0
 10
12.691
 20
54.6622
 11
12.609
 21
54.796
  0
LINE
  8
0
 10
12.609
 20
54.796
 11
12.5489
 21
54.941
  0
LINE
  8
0
 10
12.5489
 20
54.941
 11
12.5123
 21
55.0936
  0
LINE
  8
0
 10
12.5123
 20
55.0936
 11
12.5
 21
55.25
  0
LINE
  8
0
 10
12.5
 20
55.25
 11
12.5123
 21
55.4064
  0
LINE
  8
0
 10
12.5123
 20
55.4064
 11
12.5489
 21
55.559
  0
LINE
  8
0
 10
12.5489
 20
55.559
 11
12.609
 21
55.704
  0
LINE
  8
0
 10
12.609
 20
55.704
 11
12.691
 21
55.8378
  0
LINE
  8
0
 10
12.691
 20
55.8378
 11
12.7929
 21
55.9571
  0
LINE
  8
0
 10
12.7929
 20
55.9571
 11
12.9122
 21
56.059
  0
LINE
  8
0
 10
12.9122
 20
56.059
 11
13.046
 21
56.141
  0
LINE
  8
0
 10
13.046
 20
56.141
 11
13.191
 21
56.201
  0
LINE
  8
0
 10
13.191
 20
56.201
 11
13.3436
 21
56.2377
  0
LINE
  8
0
 10
13.3436
 20
56.2377
 11
13.5
 21
56.25
  0
LINE
  8
0
 10
13.5
 20
56.25
 11
13.6564
 21
56.2377
  0
LINE
  8
0
 10
13.6564
 20
56.2377
 11
13.809
 21
56.201
  0
LINE
  8
0
 10
13.809
 20
56.201
 11
13.954
 21
56.141
  0
LINE
  8
0
 10
13.954
 20
56.141
 11
14.0878
 21
56.059
  0
LINE
  8
0
 10
14.0878
 20
56.059
 11
14.2071
 21
55.9571
  0
LINE
  8
0
 10
14.2071
 20
55.9571
 11
14.309
 21
55.8378
  0
LINE
  8
0
 10
14.309
 20
55.8378
 11
14.391
 21
55.704
  0
LINE
  8
0
 10
14.391
 20
55.704
 11
14.451
 21
55.559
  0
LINE
  8
0
 10
14.451
 20
55.559
 11
14.4877
 21
55.4064
  0
LINE
  8
0
 10
14.4877
 20
55.4064
 11
14.5
 21
55.25
  0
LINE
  8
0
 10
14.5
 20
55.25
 11
14.4877
 21
55.0936
  0
LINE
  8
0
 10
14.4877
 20
55.0936
 11
14.451
 21
54.941
  0
LINE
  8
0
 10
14.451
 20
54.941
 11
14.391
 21
54.796
  0
LINE
  8
0
 10
14.391
 20
54.796
 11
14.309
 21
54.6622
  0
LINE
  8
0
 10
14.309
 20
54.6622
 11
14.2071
 21
54.5429
  0
LINE
  8
0
 10
14.2071
 20
54.5429
 11
14.0878
 21
54.441
  0
LINE
  8
0
 10
14.0878
 20
54.441
 11
13.954
 21
54.359
  0
LINE
  8
0
 10
13.954
 20
54.359
 11
13.809
 21
54.2989
  0
LINE
  8
0
 10
13.809
 20
54.2989
 11
13.6564
 21
54.2623
  0
LINE
  8
0
 10
13.6564
 20
54.2623
 11
13.5
 21
54.25
  0
LINE
  8
0
 10
13.5
 20
54.25
 11
13.3436
 21
54.2623
  0
LINE
  8
0
 10
-13.6564
 20
54.2623
 11
-13.809
 21
54.2989
  0
LINE
  8
0
 10
-13.809
 20
54.2989
 11
-13.954
 21
54.359
  0
LINE
  8
0
 10
-13.954
 20
54.359
 11
-14.0878
 21
54.441
  0
LINE
  8
0
 10
-14.0878
 20
54.441
 11
-14.2071
 21
54.5429
  0
LINE
  8
0
 10
-14.2071
 20
54.5429
 11
-14.309
 21
54.6622
  0
LINE
  8
0
 10
-14.309
 20
54.6622
 11
-14.391
 21
54.796
  0
LINE
  8
0
 10
-14.391
 20
54.796
 11
-14.451
 21
54.941
  0
LINE
  8
0
 10
-14.451
 20
54.941
 11
-14.4877
 21
55.0936
  0
LINE
  8
0
 10
-14.4877
 20
55.0936
 11
-14.5
 21
55.25
  0
LINE
  8
0
 10
-14.5
 20
55.25
 11
-14.4877
 21
55.4064
  0
LINE
  8
0
 10
-14.4877
 20
55.4064
 11
-14.451
 21
55.559
  0
LINE
  8
0
 10
-14.451
 20
55.559
 11
-14.391
 21
55.704
  0
LINE
  8
0
 10
-14.391
 20
55.704
 11
-14.309
 21
55.8378
  0
LINE
  8
0
 10
-14.309
 20
55.8378
 11
-14.2071
 21
55.9571
  0
LINE
  8
0
 10
-14.2071
 20
55.9571
 11
-14.0878
 21
56.059
  0
LINE
  8
0
 10
-14.0878
 20
56.059
 11
-13.954
 21
56.141
  0
LINE
  8
0
 10
-13.954
 20
56.141
 11
-13.809
 21
56.201
  0
LINE
  8
0
 10
-13.809
 20
56.201
 11
-13.6564
 21
56.2377
  0
LINE
  8
0
 10
-13.6564
 20
56.2377
 11
-13.5
 21
56.25
  0
LINE
  8
0
 10
-13.5
 20
56.25
 11
-13.3436
 21
56.2377
  0
LINE
  8
0
 10
-13.3436
 20
56.2377
 11
-13.191
 21
56.201
  0
LINE
  8
0
 10
-13.191
 20
56.201
 11
-13.046
 21
56.141
  0
LINE
  8
0
 10
-13.046
 20
56.141
 11
-12.9122
 21
56.059
  0
LINE
  8
0
 10
-12.9122
 20
56.059
 11
-12.7929
 21
55.9571
  0
LINE
  8
0
 10
-12.7929
 20
55.9571
 11
-12.691
 21
55.8378
  0
LINE
  8
0
 10
-12.691
 20
55.8378
 11
-12.609
 21
55.704
  0
LINE
  8
0
 10
-12.609
 20
55.704
 11
-12.5489
 21
55.559
  0
LINE
  8
0
 10
-12.5489
 20
55.559
 11
-12.5123
 21
55.4064
  0
LINE
  8
0
 10
-12.5123
 20
55.4064
 11
-12.5
 21
55.25
  0
LINE
  8
0
 10
-12.5
 20
55.25
 11
-12.5123
 21
55.0936
  0
LINE
  8
0
 10
-12.5123
 20
55.0936
 11
-12.5489
 21
54.941
  0
LINE
  8
0
 10
-12.5489
 20
54.941
 11
-12.609
 21
54.796
  0
LINE
  8
0
 10
-12.609
 20
54.796
 11
-12.691
 21
54.6622
  0
LINE
  8
0
 10
-12.691
 20
54.6622
 11
-12.7929
 21
54.5429
  0
LINE
  8
0
 10
-12.7929
 20
54.5429
 11
-12.9122
 21
54.441
  0
LINE
  8
0
 10
-12.9122
 20
54.441
 11
-13.046
 21
54.359
  0
LINE
  8
0
 10
-13.046
 20
54.359
 11
-13.191
 21
54.2989
  0
LINE
  8
0
 10
-13.191
 20
54.2989
 11
-13.3436
 21
54.2623
  0
LINE
  8
0
 10
-13.3436
 20
54.2623
 11
-13.5
 21
54.25
  0
LINE
  8
0
 10
-13.5
 20
54.25
 11
-13.6564
 21
54.2623
  0
LINE
  8
0
 10
-20.5094
 20
30.5
 11
-20.5094
 21
34.5
  0
LINE
  8
0
 10
-20.5094
 20
34.5
 11
-18.5094
 21
34.5
  0
LINE
  8
0
 10
-18.5094
 20
34.5
 11
-18.5094
 21
30.5
  0
LINE
  8
0
 10
-18.5094
 20
30.5
 11
-20.5094
 21
30.5
  0
LINE
  8
0
 10
21.748
 20
30.5
 11
21.748
 21
34.5
  0
LINE
  8
0
 10
21.748
 20
34.5
 11
23.748
 21
34.5
  0
LINE
  8
0
 10
23.748
 20
34.5
 11
23.748
 21
30.5
  0
LINE
  8
0
 10
23.748
 20
30.5
 11
21.748
 21
30.5
  0
LINE
  8
0
 10
21.748
 20
0.843628
 11
21.748
 21
4.84363
  0
LINE
  8
0
 10
21.748
 20
4.84363
 11
23.748
 21
4.84363
  0
LINE
  8
0
 10
23.748
 20
4.84363
 11
23.748
 21
0.843628
  0
LINE
  8
0
 10
23.748
 20
0.843628
 11
21.748
 21
0.843628
  0
LINE
  8
0
 10
-0.477112
 20
-3.01244
 11
-0.94249
 21
-2.90071
  0
LINE
  8
0
 10
-0.94249
 20
-2.90071
 11
-1.38466
 21
-2.71756
  0
LINE
  8
0
 10
-1.38466
 20
-2.71756
 11
-1.79274
 21
-2.4675
  0
LINE
  8
0
 10
-1.79274
 20
-2.4675
 11
-2.15666
 21
-2.15666
  0
LINE
  8
0
 10
-2.15666
 20
-2.15666
 11
-2.4675
 21
-1.79274
  0
LINE
  8
0
 10
-2.4675
 20
-1.79274
 11
-2.71756
 21
-1.38466
  0
LINE
  8
0
 10
-2.71756
 20
-1.38466
 11
-2.90071
 21
-0.94249
  0
LINE
  8
0
 10
-2.90071
 20
-0.94249
 11
-3.01244
 21
-0.477112
  0
LINE
  8
0
 10
-3.01244
 20
-0.477112
 11
-3.04999
 21
0
  0
LINE
  8
0
 10
-3.04999
 20
0
 11
-3.01244
 21
0.477112
  0
LINE
  8
0
 10
-3.01244
 20
0.477112
 11
-2.90071
 21
0.94249
  0
LINE
  8
0
 10
-2.90071
 20
0.94249
 11
-2.71756
 21
1.38466
  0
LINE
  8
0
 10
-2.71756
 20
1.38466
 11
-2.4675
 21
1.79274
  0
LINE
  8
0
 10
-2.4675
 20
1.79274
 11
-2.15666
 21
2.15666
  0
LINE
  8
0
 10
-2.15666
 20
2.15666
 11
-1.79274
 21
2.4675
  0
LINE
  8
0
 10
-1.79274
 20
2.4675
 11
-1.38466
 21
2.71756
  0
LINE
  8
0
 10
-1.38466
 20
2.71756
 11
-0.94249
 21
2.90071
  0
LINE
  8
0
 10
-0.94249
 20
2.90071
 11
-0.477112
 21
3.01244
  0
LINE
  8
0
 10
-0.477112
 20
3.01244
 11
0
 21
3.04999
  0
LINE
  8
0
 10
0
 20
3.04999
 11
0.477112
 21
3.01244
  0
LINE
  8
0
 10
0.477112
 20
3.01244
 11
0.94249
 21
2.90071
  0
LINE
  8
0
 10
0.94249
 20
2.90071
 11
1.38466
 21
2.71756
  0
LINE
  8
0
 10
1.38466
 20
2.71756
 11
1.79274
 21
2.4675
  0
LINE
  8
0
 10
1.79274
 20
2.4675
 11
2.15666
 21
2.15666
  0
LINE
  8
0
 10
2.15666
 20
2.15666
 11
2.4675
 21
1.79274
  0
LINE
  8
0
 10
2.4675
 20
1.79274
 11
2.71756
 21
1.38466
  0
LINE
  8
0
 10
2.71756
 20
1.38466
 11
2.90071
 21
0.94249
  0
LINE
  8
0
 10
2.90071
 20
0.94249
 11
3.01244
 21
0.477112
  0
LINE
  8
0
 10
3.01244
 20
0.477112
 11
3.04999
 21
0
  0
LINE
  8
0
 10
3.04999
 20
0
 11
3.01244
 21
-0.477112
  0
LINE
  8
0
 10
3.01244
 20
-0.477112
 11
2.90071
 21
-0.94249
  0
LINE
  8
0
 10
2.90071
 20
-0.94249
 11
2.71756
 21
-1.38466
  0
LINE
  8
0
 10
2.71756
 20
-1.38466
 11
2.4675
 21
-1.79274
  0
LINE
  8
0
 10
2.4675
 20
-1.79274
 11
2.15666
 21
-2.15666
  0
LINE
  8
0
 10
2.15666
 20
-2.15666
 11
1.79274
 21
-2.4675
  0
LINE
  8
0
 10
1.79274
 20
-2.4675
 11
1.38466
 21
-2.71756
  0
LINE
  8
0
 10
1.38466
 20
-2.71756
 11
0.94249
 21
-2.90071
  0
LINE
  8
0
 10
0.94249
 20
-2.90071
 11
0.477112
 21
-3.01244
  0
LINE
  8
0
 10
0.477112
 20
-3.01244
 11
0
 21
-3.04999
  0
LINE
  8
0
 10
0
 20
-3.04999
 11
-0.477112
 21
-3.01244
  0
LINE
  8
0
 10
-20.5094
 20
-11
 11
-20.5094
 21
-7
  0
LINE
  8
0
 10
-20.5094
 20
-7
 11
-18.5094
 21
-7
  0
LINE
  8
0
 10
-18.5094
 20
-7
 11
-18.5094
 21
-11
  0
LINE
  8
0
 10
-18.5094
 20
-11
 11
-20.5094
 21
-11
  0
ENDSEC
  0
SECTION
  2
OBJECTS
  0
DICTIONARY
  0
ENDSEC
  0
EOF
