<?xml version="1.0" encoding="UTF-8" standalone="no"?>
<svg
   xmlns:dc="http://purl.org/dc/elements/1.1/"
   xmlns:cc="http://creativecommons.org/ns#"
   xmlns:rdf="http://www.w3.org/1999/02/22-rdf-syntax-ns#"
   xmlns:svg="http://www.w3.org/2000/svg"
   xmlns="http://www.w3.org/2000/svg"
   xmlns:sodipodi="http://sodipodi.sourceforge.net/DTD/sodipodi-0.dtd"
   xmlns:inkscape="http://www.inkscape.org/namespaces/inkscape"
   width="64.582214mm"
   height="14.182302mm"
   id="svg4185"
   version="1.1"
   inkscape:version="0.91 r13725"
   sodipodi:docname="shelf.svg">
  <metadata
     id="metadata5065">
    <rdf:RDF>
      <cc:Work
         rdf:about="">
        <dc:format>image/svg+xml</dc:format>
        <dc:type
           rdf:resource="http://purl.org/dc/dcmitype/StillImage" />
        <dc:title></dc:title>
      </cc:Work>
    </rdf:RDF>
  </metadata>
  <sodipodi:namedview
     pagecolor="#ffffff"
     bordercolor="#666666"
     borderopacity="1"
     objecttolerance="10"
     gridtolerance="10"
     guidetolerance="10"
     inkscape:pageopacity="0"
     inkscape:pageshadow="2"
     inkscape:window-width="3734"
     inkscape:window-height="2121"
     id="namedview5063"
     showgrid="false"
     inkscape:zoom="0.89702957"
     inkscape:cx="-306.04848"
     inkscape:cy="-9.6436847"
     inkscape:window-x="106"
     inkscape:window-y="39"
     inkscape:window-maximized="1"
     inkscape:current-layer="g4201"
     inkscape:document-units="mm"
     units="mm"
     fit-margin-top="0"
     fit-margin-left="0"
     fit-margin-right="0"
     fit-margin-bottom="0" />
  <desc
     id="desc4187">C:\Share\Robotics\Whr_bot\Parts\64\base.dxf - scale = 1.000000, origin = (0.000000, 0.000000), auto = False</desc>
  <defs
     id="defs4189">
    <marker
       refY="0"
       refX="0"
       style="overflow:visible"
       id="DistanceX"
       orient="auto">
      <path
         style="stroke:#000000;stroke-width:0.5"
         d="M 3,-3 -3,3 M 0,-5 0,5"
         id="path4192"
         inkscape:connector-curvature="0" />
    </marker>
    <pattern
       height="8"
       width="8"
       patternUnits="userSpaceOnUse"
       y="0"
       x="0"
       id="Hatch">
      <path
         linecap="square"
         stroke="#000000"
         stroke-width="0.25"
         d="M8 4 l-4,4"
         id="path4195" />
      <path
         linecap="square"
         stroke="#000000"
         stroke-width="0.25"
         d="M6 2 l-4,4"
         id="path4197" />
      <path
         linecap="square"
         stroke="#000000"
         stroke-width="0.25"
         d="M4 0 l-4,4"
         id="path4199" />
    </pattern>
    <marker
       style="overflow:visible"
       refY="0"
       refX="0"
       orient="auto"
       id="DistanceX-7">
      <path
         id="path9284"
         style="stroke:#000000;stroke-width:0.5"
         d="M 3,-3 -3,3 M 0,-5 0,5"
         inkscape:connector-curvature="0" />
    </marker>
    <pattern
       y="0"
       x="0"
       width="8"
       patternUnits="userSpaceOnUse"
       id="Hatch-5"
       height="8">
      <path
         id="path9287"
         stroke-width="0.25"
         stroke="#000000"
         linecap="square"
         d="M8 4 l-4,4" />
      <path
         id="path9289"
         stroke-width="0.25"
         stroke="#000000"
         linecap="square"
         d="M6 2 l-4,4" />
      <path
         id="path9291"
         stroke-width="0.25"
         stroke="#000000"
         linecap="square"
         d="M4 0 l-4,4" />
    </pattern>
    <marker
       style="overflow:visible"
       refY="0"
       refX="0"
       orient="auto"
       id="DistanceX-3">
      <path
         id="path13937"
         style="stroke:#000000;stroke-width:0.5"
         d="M 3,-3 -3,3 M 0,-5 0,5"
         inkscape:connector-curvature="0" />
    </marker>
    <pattern
       y="0"
       x="0"
       width="8"
       patternUnits="userSpaceOnUse"
       id="Hatch-56"
       height="8">
      <path
         id="path13940"
         stroke-width="0.25"
         stroke="#000000"
         linecap="square"
         d="M8 4 l-4,4" />
      <path
         id="path13942"
         stroke-width="0.25"
         stroke="#000000"
         linecap="square"
         d="M6 2 l-4,4" />
      <path
         id="path13944"
         stroke-width="0.25"
         stroke="#000000"
         linecap="square"
         d="M4 0 l-4,4" />
    </pattern>
    <marker
       style="overflow:visible"
       refY="0"
       refX="0"
       orient="auto"
       id="DistanceX-4">
      <path
         id="path51225"
         style="stroke:#000000;stroke-width:0.5"
         d="M 3,-3 -3,3 M 0,-5 0,5"
         inkscape:connector-curvature="0" />
    </marker>
    <pattern
       y="0"
       x="0"
       width="8"
       patternUnits="userSpaceOnUse"
       id="Hatch-7"
       height="8">
      <path
         id="path51228"
         stroke-width="0.25"
         stroke="#000000"
         linecap="square"
         d="M8 4 l-4,4" />
      <path
         id="path51230"
         stroke-width="0.25"
         stroke="#000000"
         linecap="square"
         d="M6 2 l-4,4" />
      <path
         id="path51232"
         stroke-width="0.25"
         stroke="#000000"
         linecap="square"
         d="M4 0 l-4,4" />
    </pattern>
  </defs>
  <g
     inkscape:label="0"
     inkscape:groupmode="layer"
     id="g4201"
     transform="translate(-255.69312,-482.1036)">
    <path
       inkscape:connector-curvature="0"
       d="m 272.26733,510.33565 -0.39154,-0.1445 -0.37913,-0.1747 -0.3639,-0.2039 -0.34724,-0.2318 -0.32776,-0.2584 -0.30614,-0.2833 -0.28346,-0.3065 -0.25831,-0.3277 -0.23173,-0.347 -0.2041,-0.3641 -0.17468,-0.379 -0.14457,-0.3915 -0.11303,-0.4017 -0.0815,-0.4093 -0.0493,-0.4144 -0.0163,-0.4171 0.0163,-0.417 0.0493,-0.4144 0.0815,-0.4093 0.11303,-0.4017 0.14457,-0.3915 0.17468,-0.379 0.2041,-0.3642 0.23173,-0.3469 0.25831,-0.3277 0.28346,-0.3065 0.30614,-0.2833 0.32776,-0.2584 0.34724,-0.2318 0.3639,-0.204 0.37913,-0.1746 0.39154,-0.1445 0.40146,-0.1133 0.4096,-0.0812 0.41421,-0.0492 0.41705,-0.0162 4.51772,-2e-4 0,-6.7323 -22.23425,0 0,19.311 0.0595,1.5151 0.17823,1.5058 0.29587,1.4871 0.41138,1.4594 0.52512,1.4226 0.6346,1.377 0.74091,1.323 0.8426,1.2607 0.93862,1.1908 1.02933,1.1135 1.1133,1.0292 1.19091,0.9387 1.26071,0.8425 1.32307,0.7409 1.37693,0.6346 1.42264,0.5248 1.45913,0.4117 1.48713,0.2959 1.5059,0.1782 1.51512,0.0598 189.2126,-2e-4 1.51512,-0.0598 1.5059,-0.178 1.48713,-0.2959 1.45913,-0.4117 1.42264,-0.5248 1.37693,-0.6346 1.32307,-0.7409 1.26071,-0.8425 1.19091,-0.9387 1.1133,-1.0292 1.02933,-1.1135 0.93862,-1.1908 0.8426,-1.2607 0.74091,-1.323 0.6346,-1.377 0.52512,-1.4226 0.41138,-1.4594 0.29587,-1.4871 0.17822,-1.5058 0.0595,-1.5151 2e-5,-19.311 -22.23425,0 0,6.7323 4.51772,0 0.41704,0.0162 0.41422,0.0492 0.4096,0.0812 0.40146,0.1135 0.39154,0.1445 0.37913,0.1746 0.3639,0.204 0.34724,0.2318 0.32776,0.2584 0.30614,0.2833 0.28346,0.3065 0.25831,0.3277 0.23173,0.3469 0.2041,0.3642 0.17468,0.379 0.14457,0.3915 0.11303,0.4017 0.0815,0.4093 0.0493,0.4144 0.0163,0.417 -0.0163,0.4171 -0.0493,0.4144 -0.0815,0.4093 -0.11303,0.4017 -0.14457,0.3915 -0.17468,0.379 -0.2041,0.3641 -0.23173,0.347 -0.25831,0.3277 -0.28346,0.3065 -0.30614,0.2833 -0.32776,0.2584 -0.34724,0.2318 -0.3639,0.2039 -0.37913,0.1747 -0.39154,0.1445 -0.40146,0.1132 -0.4096,0.0817 -0.41422,0.0487 -0.41704,0.0162 -17.71654,2e-4 -0.41705,-0.0162 -0.41456,-0.0492 -0.40925,-0.0817 -0.40146,-0.11295 -0.39154,-0.1445 -0.37913,-0.1747 -0.3639,-0.2039 -0.34724,-0.2318 -0.32776,-0.2584 -0.30649,-0.2833 -0.28311,-0.3065 -0.25831,-0.3277 -0.23209,-0.347 -0.20374,-0.3641 -0.17468,-0.379 -0.14457,-0.3915 -0.11303,-0.4017 -0.0815,-0.4093 -0.0493,-0.4144 -0.0163,-0.4171 0.0163,-0.417 0.0493,-0.4144 0.0815,-0.4093 0.11303,-0.4017 0.14457,-0.3915 0.17468,-0.379 0.20374,-0.3642 0.23209,-0.3469 0.25831,-0.3277 0.28311,-0.3065 0.30649,-0.2833 0.32776,-0.2584 0.34724,-0.2318 0.3639,-0.204 0.37913,-0.1746 0.39154,-0.1445 0.40146,-0.1133 0.40925,-0.0812 0.41456,-0.0492 0.41705,-0.0162 4.51772,-2e-4 0,-6.7323 -26.30906,0 0,-10.6299 -113.38582,0 0,10.6299 -26.30906,0 0,6.7323 4.51772,0 0.41704,0.0162 0.41457,0.0492 0.40925,0.0812 0.40146,0.1135 0.39154,0.1445 0.37913,0.1746 0.3639,0.204 0.34724,0.2318 0.32776,0.2584 0.30649,0.2833 0.28311,0.3065 0.25831,0.3277 0.23209,0.3469 0.20374,0.3642 0.17468,0.379 0.14457,0.3915 0.11303,0.4017 0.0815,0.4093 0.0492,0.4144 0.0163,0.417 -0.0163,0.4171 -0.0492,0.4144 -0.0815,0.4093 -0.11303,0.4017 -0.14457,0.3915 -0.17468,0.379 -0.20374,0.3641 -0.23209,0.347 -0.25831,0.3277 -0.28311,0.3065 -0.30649,0.2833 -0.32776,0.2584 -0.34724,0.2318 -0.3639,0.2039 -0.37913,0.1747 -0.39154,0.1445 -0.40146,0.1132 -0.40925,0.0817 -0.41457,0.0487 -0.41704,0.0162 -17.71654,2e-4 -0.41705,-0.0162 -0.41421,-0.0492 -0.4096,-0.0817 z"
       style="fill:none;stroke:#0000ff;stroke-opacity:1"
       id="path51550"
       sodipodi:nodetypes="ccccccccccccccccccccccccccccccccccccccccccccccccccccccccccccccccccccccccccccccccccccccccccccccccccccccccccccccccccccccccccccccccccccccccccccccccccccccccccccccccccccccccccccccccccccccccccccccccccccccccccccccccccccccccccccc" />
    <path
       inkscape:connector-curvature="0"
       d="m 339.58938,505.85195 0.64209,0.266 0.59262,0.3631 0.52851,0.4514 0.45135,0.5285 0.36315,0.5925 0.26597,0.6422 0.16224,0.6758 0.0545,0.6928 0,4.9606 -0.0545,0.6929 -0.16224,0.6758 -0.26597,0.6421 -0.36315,0.5926 -0.45135,0.5285 -0.52851,0.4513 -0.59262,0.3632 -0.64209,0.266 -0.67578,0.1622 -0.69292,0.0548 -0.69286,-0.055 -0.67578,-0.162 -0.64208,-0.266 -0.59266,-0.3632 -0.52848,-0.4513 -0.45149,-0.5285 -0.36319,-0.5926 -0.26575,-0.6421 -0.16228,-0.6758 -0.0546,-0.6929 2e-5,-4.9606 0.0546,-0.6928 0.16226,-0.6758 0.26575,-0.6422 0.36319,-0.5925 0.45149,-0.5285 0.52848,-0.4514 0.59266,-0.3631 0.64208,-0.266 0.67578,-0.1623 0.69286,-0.0542 0.69292,0.054 z"
       style="fill:none;stroke:#ff0000;stroke-opacity:1"
       id="path51718"
       sodipodi:nodetypes="ccccccccccccccccccccccccccccccccccccccccccc" />
    <path
       inkscape:connector-curvature="0"
       d="m 403.36884,505.85195 0.64208,0.266 0.59266,0.3631 0.52848,0.4514 0.45149,0.5285 0.36319,0.5925 0.26575,0.6422 0.16228,0.6758 0.0546,0.6928 -1e-5,4.9606 -0.0546,0.6929 -0.16227,0.6758 -0.26575,0.6421 -0.36319,0.5926 -0.45149,0.5285 -0.52848,0.4513 -0.59266,0.3632 -0.64208,0.266 -0.67578,0.1622 -0.69286,0.0548 -0.69293,-0.055 -0.67578,-0.162 -0.64208,-0.266 -0.59262,-0.3632 -0.52852,-0.4513 -0.45134,-0.5285 -0.36316,-0.5926 -0.26596,-0.6421 -0.16224,-0.6758 -0.0545,-0.6929 0,-4.9606 0.0545,-0.6928 0.16224,-0.6758 0.26596,-0.6422 0.36316,-0.5925 0.45134,-0.5285 0.52852,-0.4514 0.59262,-0.3631 0.64208,-0.266 0.67578,-0.1623 0.69293,-0.0542 0.69286,0.054 z"
       style="fill:none;stroke:#ff0000;stroke-opacity:1"
       id="path51802"
       sodipodi:nodetypes="ccccccccccccccccccccccccccccccccccccccccccc" />
  </g>
</svg>
