<?xml version="1.0" encoding="UTF-8" standalone="no"?>
<svg
   xmlns:dc="http://purl.org/dc/elements/1.1/"
   xmlns:cc="http://creativecommons.org/ns#"
   xmlns:rdf="http://www.w3.org/1999/02/22-rdf-syntax-ns#"
   xmlns:svg="http://www.w3.org/2000/svg"
   xmlns="http://www.w3.org/2000/svg"
   xmlns:sodipodi="http://sodipodi.sourceforge.net/DTD/sodipodi-0.dtd"
   xmlns:inkscape="http://www.inkscape.org/namespaces/inkscape"
   width="509.01102"
   height="709.66144"
   id="svg4185"
   version="1.1"
   inkscape:version="0.91 r13725"
   sodipodi:docname="simple_base.svg">
  <metadata
     id="metadata5065">
    <rdf:RDF>
      <cc:Work
         rdf:about="">
        <dc:format>image/svg+xml</dc:format>
        <dc:type
           rdf:resource="http://purl.org/dc/dcmitype/StillImage" />
        <dc:title></dc:title>
      </cc:Work>
    </rdf:RDF>
  </metadata>
  <sodipodi:namedview
     pagecolor="#ffffff"
     bordercolor="#666666"
     borderopacity="1"
     objecttolerance="10"
     gridtolerance="10"
     guidetolerance="10"
     inkscape:pageopacity="0"
     inkscape:pageshadow="2"
     inkscape:window-width="3734"
     inkscape:window-height="2121"
     id="namedview5063"
     showgrid="false"
     inkscape:zoom="0.89702957"
     inkscape:cx="-398.95148"
     inkscape:cy="333.43832"
     inkscape:window-x="106"
     inkscape:window-y="39"
     inkscape:window-maximized="1"
     inkscape:current-layer="g4201"
     fit-margin-top="0"
     fit-margin-left="0"
     fit-margin-right="0"
     fit-margin-bottom="0" />
  <desc
     id="desc4187">C:\Share\Robotics\Whr_bot\Parts\64\base.dxf - scale = 1.000000, origin = (0.000000, 0.000000), auto = False</desc>
  <defs
     id="defs4189">
    <marker
       refY="0"
       refX="0"
       style="overflow:visible"
       id="DistanceX"
       orient="auto">
      <path
         style="stroke:#000000;stroke-width:0.5"
         d="M 3,-3 -3,3 M 0,-5 0,5"
         id="path4192"
         inkscape:connector-curvature="0" />
    </marker>
    <pattern
       height="8"
       width="8"
       patternUnits="userSpaceOnUse"
       y="0"
       x="0"
       id="Hatch">
      <path
         linecap="square"
         stroke="#000000"
         stroke-width="0.25"
         d="M8 4 l-4,4"
         id="path4195" />
      <path
         linecap="square"
         stroke="#000000"
         stroke-width="0.25"
         d="M6 2 l-4,4"
         id="path4197" />
      <path
         linecap="square"
         stroke="#000000"
         stroke-width="0.25"
         d="M4 0 l-4,4"
         id="path4199" />
    </pattern>
    <marker
       style="overflow:visible"
       refY="0"
       refX="0"
       orient="auto"
       id="DistanceX-7">
      <path
         id="path9284"
         style="stroke:#000000;stroke-width:0.5"
         d="M 3,-3 -3,3 M 0,-5 0,5"
         inkscape:connector-curvature="0" />
    </marker>
    <pattern
       y="0"
       x="0"
       width="8"
       patternUnits="userSpaceOnUse"
       id="Hatch-5"
       height="8">
      <path
         id="path9287"
         stroke-width="0.25"
         stroke="#000000"
         linecap="square"
         d="M8 4 l-4,4" />
      <path
         id="path9289"
         stroke-width="0.25"
         stroke="#000000"
         linecap="square"
         d="M6 2 l-4,4" />
      <path
         id="path9291"
         stroke-width="0.25"
         stroke="#000000"
         linecap="square"
         d="M4 0 l-4,4" />
    </pattern>
    <marker
       style="overflow:visible"
       refY="0"
       refX="0"
       orient="auto"
       id="DistanceX-2">
      <path
         id="path11674"
         style="stroke:#000000;stroke-width:0.5"
         d="M 3,-3 -3,3 M 0,-5 0,5"
         inkscape:connector-curvature="0" />
    </marker>
    <pattern
       y="0"
       x="0"
       width="8"
       patternUnits="userSpaceOnUse"
       id="Hatch-9"
       height="8">
      <path
         id="path11677"
         stroke-width="0.25"
         stroke="#000000"
         linecap="square"
         d="M8 4 l-4,4" />
      <path
         id="path11679"
         stroke-width="0.25"
         stroke="#000000"
         linecap="square"
         d="M6 2 l-4,4" />
      <path
         id="path11681"
         stroke-width="0.25"
         stroke="#000000"
         linecap="square"
         d="M4 0 l-4,4" />
    </pattern>
    <marker
       style="overflow:visible"
       refY="0"
       refX="0"
       orient="auto"
       id="DistanceX-3">
      <path
         id="path4216"
         style="stroke:#000000;stroke-width:0.5"
         d="M 3,-3 -3,3 M 0,-5 0,5"
         inkscape:connector-curvature="0" />
    </marker>
    <pattern
       y="0"
       x="0"
       width="8"
       patternUnits="userSpaceOnUse"
       id="Hatch-6"
       height="8">
      <path
         id="path4219"
         stroke-width="0.25"
         stroke="#000000"
         linecap="square"
         d="M8 4 l-4,4" />
      <path
         id="path4221"
         stroke-width="0.25"
         stroke="#000000"
         linecap="square"
         d="M6 2 l-4,4" />
      <path
         id="path4223"
         stroke-width="0.25"
         stroke="#000000"
         linecap="square"
         d="M4 0 l-4,4" />
    </pattern>
    <marker
       style="overflow:visible"
       refY="0"
       refX="0"
       orient="auto"
       id="DistanceX-5">
      <path
         id="path16334"
         style="stroke:#000000;stroke-width:0.5"
         d="M 3,-3 -3,3 M 0,-5 0,5"
         inkscape:connector-curvature="0" />
    </marker>
    <pattern
       y="0"
       x="0"
       width="8"
       patternUnits="userSpaceOnUse"
       id="Hatch-69"
       height="8">
      <path
         id="path16337"
         stroke-width="0.25"
         stroke="#000000"
         linecap="square"
         d="M8 4 l-4,4" />
      <path
         id="path16339"
         stroke-width="0.25"
         stroke="#000000"
         linecap="square"
         d="M6 2 l-4,4" />
      <path
         id="path16341"
         stroke-width="0.25"
         stroke="#000000"
         linecap="square"
         d="M4 0 l-4,4" />
    </pattern>
  </defs>
  <g
     inkscape:label="0"
     inkscape:groupmode="layer"
     id="g4201"
     transform="translate(-127.86761,-165.77639)">
    <path
       inkscape:connector-curvature="0"
       d="m 393.5029,874.76313 5.56143,-0.2186 5.55736,-0.3058 5.55186,-0.3933 5.54503,-0.4801 5.53667,-0.5673 5.5272,-0.6541 5.51622,-0.7409 5.50382,-0.8277 5.49035,-0.9138 5.47512,-0.9999 5.45882,-1.0857 5.4411,-1.1714 5.42197,-1.2568 5.40177,-1.3419 5.37981,-1.4265 5.35677,-1.5105 5.33232,-1.5949 5.30681,-1.6784 5.27953,-1.7614 5.25154,-1.844 5.22177,-1.9265 5.19094,-2.0083 5.15835,-2.0895 5.12539,-2.1699 5.09032,-2.2507 5.05452,-2.3301 5.01733,-2.4095 4.9787,-2.4877 4.93937,-2.5654 4.89827,-2.6429 4.8561,-2.7199 4.81252,-2.7953 4.76823,-2.8708 4.72287,-2.9452 4.67575,-3.0192 4.62756,-3.0919 4.57866,-3.1645 4.52835,-3.2361 4.47696,-3.3066 4.42453,-3.3768 4.37102,-3.4459 4.31611,-3.5139 4.26047,-3.5812 4.20378,-3.6478 4.14567,-3.7134 4.0872,-3.7779 4.02733,-3.842 3.96637,-3.9044 3.45579,-3.5107 0,-236.8817 -11.6922,0 -3.6e-4,-59.1729 11.69256,-4e-4 0,-49.0149 -11.6922,0 -3.6e-4,-49.37067 11.69256,-3.5e-4 0,-99.63709 -3.45579,-3.51071 -3.96637,-3.90437 -4.02733,-3.84201 -4.0872,-3.77787 -4.14567,-3.71339 -4.20378,-3.64783 -4.26047,-3.58122 -4.31611,-3.5139 -4.37102,-3.44587 -4.42453,-3.37677 -4.47696,-3.30661 -4.52835,-3.2361 -4.57866,-3.16453 -4.62756,-3.09189 -4.67575,-3.01925 -4.72287,-2.9452 -4.76823,-2.87079 -4.81252,-2.79531 -4.8561,-2.71985 -4.89827,-2.64295 -4.93937,-2.56535 -4.9787,-2.48776 -5.01733,-2.40945 -5.05452,-2.33008 -5.09032,-2.25071 -5.12539,-2.16992 -5.15835,-2.08948 -5.19094,-2.00835 -5.22177,-1.9265 -5.25154,-1.84393 -5.27953,-1.76138 -5.30681,-1.67847 -5.33232,-1.59484 -5.35677,-1.51051 -5.37981,-1.42654 -5.40177,-1.34185 -5.42197,-1.25681 -5.4411,-1.17142 -5.45882,-1.08566 -5.47512,-0.99993 -5.49035,-0.91381 -5.50382,-0.82772 -5.51622,-0.74091 -5.5272,-0.65409 -5.53667,-0.56728 -5.54503,-0.48012 -5.55186,-0.39331 -5.55736,-0.30579 -5.56143,-0.21862 -5.56424,-0.1311 -5.56554,-0.0436 -5.56554,0.0436 -5.56424,0.13109 -5.56143,0.21862 -5.55736,0.30579 -5.55186,0.39331 -5.54503,0.48012 -5.53667,0.56728 -5.5272,0.65409 -5.51622,0.74091 -5.50382,0.82772 -5.49035,0.91381 -5.47512,0.99993 -5.45882,1.08566 -5.4411,1.17142 -5.42197,1.25681 -5.40177,1.34185 -5.37981,1.42654 -5.35677,1.51051 -5.33232,1.59484 -5.30681,1.67847 -5.27953,1.76138 -5.25154,1.84393 -5.22177,1.9265 -5.19094,2.00835 -5.15835,2.08948 -5.12539,2.16992 -5.09032,2.25071 -5.05452,2.33008 -5.01733,2.40945 -4.9787,2.48776 -4.93937,2.56535 -4.89827,2.64295 -4.8561,2.71985 -4.81252,2.79531 -4.76823,2.87079 -4.72287,2.9452 -4.67575,3.01925 -4.62756,3.09189 -4.57866,3.16453 -4.52835,3.2361 -4.47696,3.30661 -4.42453,3.37677 -4.37102,3.44587 -4.31611,3.5139 -4.26047,3.58122 -4.20378,3.64783 -4.14567,3.71339 -4.0872,3.77787 -4.02733,3.84201 -3.96637,3.90437 -3.45579,3.51071 0,99.63744 11.6922,-3.5e-4 0,49.37102 -11.6922,0 0,49.0153 11.6922,-4e-4 0,59.1733 -11.6922,0 0,236.8817 3.45579,3.5107 3.96637,3.9044 4.02733,3.842 4.0872,3.7779 4.14567,3.7134 4.20378,3.6478 4.26047,3.5812 4.31611,3.5139 4.37102,3.4459 4.42453,3.3768 4.47696,3.3066 4.52835,3.2361 4.57866,3.1645 4.62756,3.0919 4.67575,3.0192 4.72287,2.9452 4.76823,2.8708 4.81252,2.7953 4.8561,2.7199 4.89827,2.6429 4.93937,2.5654 4.9787,2.4877 5.01733,2.4095 5.05452,2.3301 5.09032,2.2507 5.12539,2.1699 5.15835,2.0895 5.19094,2.0083 5.22177,1.9265 5.25154,1.844 5.27953,1.7614 5.30681,1.6784 5.33232,1.5949 5.35677,1.5105 5.37981,1.4265 5.40177,1.3419 5.42197,1.2568 5.4411,1.1714 5.45882,1.0857 5.47512,0.9999 5.49035,0.9138 5.50382,0.8277 5.51622,0.7409 5.5272,0.6541 5.53667,0.5673 5.54503,0.4801 5.55186,0.3933 5.55736,0.3058 5.56143,0.2186 5.56424,0.1311 5.56554,0.0436 5.56554,-0.0438 z"
       style="fill:none;stroke:#0000ff;stroke-opacity:1"
       id="path16677"
       sodipodi:nodetypes="ccccccccccccccccccccccccccccccccccccccccccccccccccccccccccccccccccccccccccccccccccccccccccccccccccccccccccccccccccccccccccccccccccccccccccccccccccccccccccccccccccccccccccccccccccccccccccccccccccccccccccccccccccccccccccccccc" />
    <path
       inkscape:connector-curvature="0"
       d="m 380.73079,235.11084 -0.77055,-0.31926 -0.71109,-0.43582 -0.6342,-0.54142 -0.54163,-0.63425 -0.43579,-0.71114 -0.31915,-0.77067 -0.19471,-0.81071 -0.0654,-0.83162 0.0654,-0.83126 0.19471,-0.81106 0.31915,-0.77067 0.43579,-0.71114 0.54163,-0.63425 0.6342,-0.54142 0.71109,-0.43583 0.77055,-0.31925 0.81095,-0.19453 0.83138,-0.0656 0.83144,0.0656 0.81094,0.19456 0.77055,0.31925 0.71109,0.43583 0.63419,0.54142 0.54166,0.63425 0.43576,0.71114 0.31915,0.77067 0.1947,0.81106 0.0655,0.83126 -0.0655,0.83162 -0.19469,0.81071 -0.31915,0.77067 -0.43576,0.71114 -0.54166,0.63425 -0.63419,0.54142 -0.71109,0.43582 -0.77055,0.31926 -0.81094,0.19452 -0.83144,0.0656 -0.83138,-0.0656 z"
       style="fill:none;stroke:#ff0000;stroke-opacity:1"
       id="path16789"
       sodipodi:nodetypes="ccccccccccccccccccccccccccccccccccccccccc" />
    <path
       inkscape:connector-curvature="0"
       d="m 404.9583,262.06194 0.79965,0.23669 0.75274,0.35929 0.68737,0.47232 0.60495,0.57402 0.50776,0.66154 0.39798,0.73311 0.27836,0.78626 0.15201,0.81992 0.0218,0.83374 -0.10894,0.82701 -0.23687,0.79972 -0.35904,0.7526 -0.4724,0.6874 -0.57405,0.60484 -0.66168,0.50776 -0.73296,0.39791 -0.78619,0.27851 -0.82003,0.152 -0.83371,0.0216 -0.8269,-0.10877 -0.79969,-0.23669 -0.75277,-0.3593 -0.6873,-0.47232 -0.60502,-0.57401 -0.50768,-0.66154 -0.39799,-0.73311 -0.27836,-0.78626 -0.15201,-0.81992 -0.0218,-0.83374 0.10893,-0.82701 0.23684,-0.79972 0.35908,-0.7526 0.47236,-0.6874 0.57408,-0.60485 0.66168,-0.50775 0.73297,-0.39792 0.78612,-0.2785 0.82009,-0.15201 0.83371,-0.022 z"
       style="fill:none;stroke:#ff0000;stroke-opacity:1"
       id="path16907"
       sodipodi:nodetypes="ccccccccccccccccccccccccccccccccccccccccc" />
    <path
       inkscape:connector-curvature="0"
       d="m 355.75913,265.88517 0.27836,-0.78626 0.39798,-0.73311 0.50776,-0.66154 0.60495,-0.57402 0.68736,-0.47232 0.75274,-0.35929 0.79966,-0.23669 0.8269,-0.10914 0.8337,0.022 0.8201,0.152 0.78612,0.2785 0.73297,0.39792 0.66168,0.50775 0.57408,0.60485 0.47236,0.6874 0.35908,0.7526 0.23684,0.79972 0.10892,0.82701 -0.0219,0.83374 -0.15195,0.81992 -0.2784,0.78626 -0.39798,0.73311 -0.50769,0.66154 -0.60498,0.57401 -0.68729,0.47232 -0.75278,0.3593 -0.79972,0.23669 -0.82687,0.10878 -0.83371,-0.0216 -0.82002,-0.15201 -0.78619,-0.27851 -0.73301,-0.39791 -0.66164,-0.50776 -0.57408,-0.60484 -0.4724,-0.6874 -0.35904,-0.7526 -0.23687,-0.79972 -0.10889,-0.82701 0.0218,-0.83374 z"
       style="fill:none;stroke:#ff0000;stroke-opacity:1"
       id="path16969"
       sodipodi:nodetypes="ccccccccccccccccccccccccccccccccccccccccc" />
    <path
       inkscape:connector-curvature="0"
       d="m 226.96721,376.75241 -0.51377,-0.2126 -0.4741,-0.29055 -0.42272,-0.36106 -0.36106,-0.42272 -0.29055,-0.47409 -0.21295,-0.51378 -0.12969,-0.54071 -0.0436,-0.55418 -56.99763,0 -0.0436,0.55418 -0.12968,0.54071 -0.21295,0.51378 -0.29055,0.47409 -0.36106,0.42272 -0.42272,0.36106 -0.47409,0.29055 -0.51378,0.2126 -0.54071,0.13004 -0.55418,0.0436 -0.55417,-0.0436 -0.54071,-0.13003 -0.51378,-0.2126 -0.47409,-0.29055 -0.42272,-0.36106 -0.36106,-0.42272 -0.29055,-0.47409 -0.21295,-0.51378 -0.12969,-0.54071 -0.0436,-0.55418 10e-6,-11.33858 0.0436,-0.55417 0.12968,-0.54071 0.21295,-0.51378 0.29055,-0.47409 0.36106,-0.42272 0.42272,-0.36106 0.47409,-0.29055 0.51378,-0.2126 0.54071,-0.13004 0.55417,-0.0436 0.55418,0.0436 0.54071,0.13003 0.51378,0.2126 0.47409,0.29055 0.42272,0.36106 0.36106,0.42272 0.29055,0.47409 0.21295,0.51378 0.12969,0.54071 0.0436,0.55417 56.99763,0 0.0436,-0.55417 0.12968,-0.54071 0.21295,-0.51378 0.29055,-0.47409 0.36106,-0.42272 0.42272,-0.36106 0.4741,-0.29055 0.51377,-0.2126 0.54071,-0.13004 0.55418,-0.0436 0.55417,0.0436 0.54071,0.13003 0.51378,0.2126 0.47409,0.29055 0.42272,0.36106 0.36106,0.42272 0.29055,0.47409 0.2126,0.51378 0.13004,0.54071 0.0436,0.55417 -1e-5,11.33858 -0.0436,0.55418 -0.13003,0.54071 -0.2126,0.51378 -0.29055,0.47409 -0.36106,0.42272 -0.42272,0.36106 -0.47409,0.29055 -0.51378,0.2126 -0.54071,0.13004 -0.55417,0.0436 -0.55418,-0.0436 z"
       style="fill:none;stroke:#ff0000;stroke-opacity:1"
       id="path17029"
       sodipodi:nodetypes="ccccccccccccccccccccccccccccccccccccccccccccccccccccccccccccccccccccccccccccccccccccc" />
    <path
       inkscape:connector-curvature="0"
       d="m 537.77903,358.67446 0.51377,0.2126 0.4741,0.29055 0.42272,0.36106 0.36106,0.42272 0.29055,0.47409 0.21295,0.51378 0.12969,0.54071 0.0436,0.55417 56.99763,0 0.0436,-0.55417 0.12968,-0.54071 0.21295,-0.51378 0.29055,-0.47409 0.36106,-0.42272 0.42272,-0.36106 0.47409,-0.29055 0.51378,-0.2126 0.54071,-0.13004 0.55418,-0.0436 0.55417,0.0436 0.54071,0.13003 0.51378,0.2126 0.47409,0.29055 0.42272,0.36106 0.36106,0.42272 0.29055,0.47409 0.2126,0.51378 0.13004,0.54071 0.0436,0.55417 -10e-6,11.33858 -0.0436,0.55418 -0.13003,0.54071 -0.2126,0.51378 -0.29055,0.47409 -0.36106,0.42272 -0.42272,0.36106 -0.47409,0.29055 -0.51378,0.2126 -0.54071,0.13004 -0.55417,0.0436 -0.55418,-0.0436 -0.54071,-0.13003 -0.51378,-0.2126 -0.47409,-0.29055 -0.42272,-0.36106 -0.36106,-0.42272 -0.29055,-0.47409 -0.21295,-0.51378 -0.12969,-0.54071 -0.0436,-0.55418 -56.99763,0 -0.0436,0.55418 -0.12968,0.54071 -0.21295,0.51378 -0.29055,0.47409 -0.36106,0.42272 -0.42272,0.36106 -0.4741,0.29055 -0.51377,0.2126 -0.54071,0.13004 -0.55418,0.0436 -0.55417,-0.0436 -0.54071,-0.13003 -0.51378,-0.2126 -0.47409,-0.29055 -0.42272,-0.36106 -0.36106,-0.42272 -0.29055,-0.47409 -0.21296,-0.51378 -0.12968,-0.54071 -0.0436,-0.55418 1e-5,-11.33858 0.0436,-0.55417 0.12967,-0.54071 0.21296,-0.51378 0.29055,-0.47409 0.36106,-0.42272 0.42272,-0.36106 0.47409,-0.29055 0.51378,-0.2126 0.54071,-0.13004 0.55417,-0.0436 0.55418,0.0436 z"
       style="fill:none;stroke:#ff0000;stroke-opacity:1"
       id="path17281"
       sodipodi:nodetypes="ccccccccccccccccccccccccccccccccccccccccccccccccccccccccccccccccccccccccccccccccccccc" />
    <path
       inkscape:connector-curvature="0"
       d="m 202.3671,391.27607 0,31.30016 -13.37351,0 -3.5e-4,-31.2998 z"
       style="fill:none;stroke:#ff0000;stroke-opacity:1"
       id="path17367"
       sodipodi:nodetypes="ccccc" />
    <path
       inkscape:connector-curvature="0"
       d="m 575.75265,391.27607 0,31.30016 -13.37351,0 -3.5e-4,-31.2998 z"
       style="fill:none;stroke:#ff0000;stroke-opacity:1"
       id="path17375"
       sodipodi:nodetypes="ccccc" />
    <path
       inkscape:connector-curvature="0"
       d="m 618.6621,398.36304 0,14.17323 -7.08662,0 0,-14.17323 z"
       style="fill:none;stroke:#ff0000;stroke-opacity:1"
       id="path17383"
       sodipodi:nodetypes="ccccc" />
    <path
       inkscape:connector-curvature="0"
       d="m 146.08414,398.36304 7.08662,0 0,14.17323 -7.08662,0 z"
       style="fill:none;stroke:#ff0000;stroke-opacity:1"
       id="path17389"
       sodipodi:nodetypes="ccccc" />
    <path
       inkscape:connector-curvature="0"
       d="m 484.29741,484.39998 -0.40925,-0.0812 -0.40146,-0.11345 -0.39153,-0.1446 -0.37914,-0.1747 -0.36425,-0.2037 -0.34689,-0.2321 -0.32775,-0.2583 -0.3065,-0.2831 -0.28311,-0.3065 -0.25831,-0.3278 -0.23208,-0.3468 -0.20374,-0.3643 -0.17469,-0.3791 -0.14457,-0.3916 -0.11338,-0.4014 -0.0811,-0.4093 -0.0492,-0.4145 -0.0163,-0.4171 0,-63.77952 0.0163,-0.41704 0.0493,-0.41422 0.0811,-0.4096 0.1134,-0.40146 0.14457,-0.39153 0.17469,-0.37914 0.20374,-0.3639 0.23208,-0.34724 0.25831,-0.32776 0.28311,-0.30649 0.3065,-0.28311 0.32775,-0.25831 0.34689,-0.23209 0.36425,-0.20374 0.37914,-0.17468 0.39153,-0.14457 0.40146,-0.11338 0.40925,-0.0811 0.41457,-0.0493 0.41705,-0.0163 0.41704,0.0163 0.41422,0.0493 0.4096,0.0811 0.40146,0.11341 0.39153,0.14457 0.37914,0.17468 0.36389,0.20374 0.34725,0.23209 0.32776,0.25831 0.30649,0.28311 0.28311,0.30649 0.25831,0.32776 0.23173,0.34724 0.2041,0.3639 0.17468,0.37914 0.14457,0.39153 0.11303,0.40146 0.0815,0.4096 0.0493,0.41422 0.0163,0.41704 0,63.77952 -0.0163,0.4171 -0.0493,0.4145 -0.0815,0.4093 -0.11302,0.4014 -0.14457,0.3916 -0.17468,0.3791 -0.2041,0.3643 -0.23173,0.3468 -0.25831,0.3278 -0.28311,0.3065 -0.30649,0.2831 -0.32776,0.2583 -0.34725,0.2321 -0.36389,0.2037 -0.37914,0.1747 -0.39153,0.1446 -0.40146,0.1134 -0.4096,0.0811 -0.41422,0.0492 -0.41704,0.0163 -0.41705,-0.016 z"
       style="fill:none;stroke:#ff0000;stroke-opacity:1"
       id="path17397"
       sodipodi:nodetypes="ccccccccccccccccccccccccccccccccccccccccccccccccccccccccccccccccccccccccccccccccccc" />
    <path
       inkscape:connector-curvature="0"
       d="m 278.78595,484.39998 -0.4096,-0.0812 -0.40146,-0.11345 -0.39153,-0.1446 -0.37914,-0.1747 -0.36389,-0.2037 -0.34725,-0.2321 -0.32776,-0.2583 -0.30649,-0.2831 -0.28311,-0.3065 -0.25831,-0.3278 -0.23173,-0.3468 -0.2041,-0.3643 -0.17468,-0.3791 -0.14457,-0.3916 -0.11303,-0.4014 -0.0815,-0.4093 -0.0493,-0.4145 -0.0163,-0.4171 0,-63.77952 0.0163,-0.41704 0.0493,-0.41422 0.0815,-0.4096 0.11303,-0.40146 0.14457,-0.39153 0.17468,-0.37914 0.2041,-0.3639 0.23173,-0.34724 0.25831,-0.32776 0.28311,-0.30649 0.30649,-0.28311 0.32776,-0.25831 0.34725,-0.23209 0.36389,-0.20374 0.37914,-0.17468 0.39153,-0.14457 0.40146,-0.11338 0.4096,-0.0811 0.41422,-0.0493 0.41704,-0.0163 0.41705,0.0163 0.41457,0.0493 0.40925,0.0811 0.40146,0.11341 0.39153,0.14457 0.37914,0.17468 0.36425,0.20374 0.34689,0.23209 0.32775,0.25831 0.3065,0.28311 0.28311,0.30649 0.25831,0.32776 0.23208,0.34724 0.20374,0.3639 0.17469,0.37914 0.14457,0.39153 0.11338,0.40146 0.0811,0.4096 0.0492,0.41422 0.0163,0.41704 -10e-6,63.77952 -0.0163,0.4171 -0.0493,0.4145 -0.0811,0.4093 -0.1134,0.4014 -0.14457,0.3916 -0.17469,0.3791 -0.20374,0.3643 -0.23208,0.3468 -0.25831,0.3278 -0.28311,0.3065 -0.3065,0.2831 -0.32775,0.2583 -0.34689,0.2321 -0.36425,0.2037 -0.37914,0.1747 -0.39153,0.1446 -0.40146,0.1134 -0.40925,0.0811 -0.41457,0.0492 -0.41705,0.0163 -0.41704,-0.016 z"
       style="fill:none;stroke:#ff0000;stroke-opacity:1"
       id="path17561"
       sodipodi:nodetypes="ccccccccccccccccccccccccccccccccccccccccccccccccccccccccccccccccccccccccccccccccccc" />
    <path
       inkscape:connector-curvature="0"
       d="m 558.42588,454.46528 -7.08662,0 0,-14.17322 7.08662,0 z"
       style="fill:none;stroke:#ff0000;stroke-opacity:1"
       id="path17729"
       sodipodi:nodetypes="ccccc" />
    <path
       inkscape:connector-curvature="0"
       d="m 206.32036,454.46528 0,-14.17322 7.08662,0 0,14.17322 z"
       style="fill:none;stroke:#ff0000;stroke-opacity:1"
       id="path17739"
       sodipodi:nodetypes="ccccc" />
    <path
       inkscape:connector-curvature="0"
       d="m 583.22903,440.29206 7.08661,0 0,14.17322 -7.08661,0 z"
       style="fill:none;stroke:#ff0000;stroke-opacity:1"
       id="path17741"
       sodipodi:nodetypes="ccccc" />
    <path
       inkscape:connector-curvature="0"
       d="m 181.51721,440.29206 0,14.17322 -7.08661,0 0,-14.17322 z"
       style="fill:none;stroke:#ff0000;stroke-opacity:1"
       id="path17751"
       sodipodi:nodetypes="ccccc" />
    <path
       inkscape:connector-curvature="0"
       d="m 562.37914,530.76443 -3.5e-4,-59.1729 13.37386,-4e-4 0,59.1733 z"
       style="fill:none;stroke:#ff0000;stroke-opacity:1"
       id="path17763"
       sodipodi:nodetypes="ccccc" />
    <path
       inkscape:connector-curvature="0"
       d="m 188.99359,530.76443 -3.5e-4,-59.1729 13.37386,-4e-4 0,59.1733 z"
       style="fill:none;stroke:#ff0000;stroke-opacity:1"
       id="path17771"
       sodipodi:nodetypes="ccccc" />
    <path
       inkscape:connector-curvature="0"
       d="m 146.08414,503.44463 7.08662,0 0,14.1733 -7.08662,0 z"
       style="fill:none;stroke:#ff0000;stroke-opacity:1"
       id="path17773"
       sodipodi:nodetypes="ccccc" />
    <path
       inkscape:connector-curvature="0"
       d="m 618.6621,517.61793 -7.08662,0 0,-14.1733 7.08662,0 z"
       style="fill:none;stroke:#ff0000;stroke-opacity:1"
       id="path17785"
       sodipodi:nodetypes="ccccc" />
    <path
       inkscape:connector-curvature="0"
       d="m 280.44883,523.50718 0.40925,0.0813 0.40146,0.1135 0.39153,0.1444 0.37914,0.1747 0.36425,0.2039 0.34689,0.2319 0.32775,0.2583 0.3065,0.2833 0.28311,0.3065 0.25831,0.3277 0.23208,0.347 0.20374,0.3641 0.17469,0.379 0.14457,0.3916 0.11338,0.4017 0.0811,0.4092 0.0492,0.4145 0.0163,0.417 -10e-6,63.7795 -0.0163,0.4171 -0.0493,0.4142 -0.0811,0.4096 -0.1134,0.4015 -0.14457,0.3915 -0.17469,0.3791 -0.20374,0.3639 -0.23208,0.3473 -0.25831,0.3277 -0.28311,0.3065 -0.3065,0.2831 -0.32775,0.2583 -0.34689,0.2318 -0.36425,0.2041 -0.37914,0.1747 -0.39153,0.1445 -0.40146,0.1131 -0.40925,0.0812 -0.41457,0.0494 -0.41705,0.0163 -0.41704,-0.016 -0.41422,-0.0493 -0.4096,-0.0814 -0.40146,-0.1133 -0.39153,-0.1445 -0.37914,-0.1747 -0.36389,-0.2041 -0.34725,-0.2318 -0.32776,-0.2583 -0.30649,-0.2831 -0.28311,-0.3065 -0.25831,-0.3277 -0.23173,-0.3473 -0.2041,-0.3639 -0.17468,-0.3791 -0.14457,-0.3915 -0.11303,-0.4015 -0.0815,-0.4096 -0.0493,-0.4142 -0.0163,-0.4171 0,-63.7795 0.0163,-0.417 0.0493,-0.4145 0.0815,-0.4092 0.11303,-0.4017 0.14457,-0.3916 0.17468,-0.379 0.2041,-0.3641 0.23173,-0.347 0.25831,-0.3277 0.28311,-0.3065 0.30649,-0.2833 0.32776,-0.2583 0.34725,-0.2319 0.36389,-0.2039 0.37914,-0.1747 0.39153,-0.1444 0.40146,-0.1133 0.4096,-0.0812 0.41422,-0.0493 0.41704,-0.0163 0.41705,0.016 z"
       style="fill:none;stroke:#ff0000;stroke-opacity:1"
       id="path17871"
       sodipodi:nodetypes="ccccccccccccccccccccccccccccccccccccccccccccccccccccccccccccccccccccccccccccccccccc" />
    <path
       inkscape:connector-curvature="0"
       d="m 485.96029,523.50718 0.4096,0.0813 0.40146,0.1135 0.39153,0.1444 0.37914,0.1747 0.36389,0.2039 0.34725,0.2319 0.32776,0.2583 0.30649,0.2833 0.28311,0.3065 0.25831,0.3277 0.23173,0.347 0.2041,0.3641 0.17468,0.379 0.14457,0.3916 0.11303,0.4017 0.0815,0.4092 0.0493,0.4145 0.0163,0.417 0,63.7795 -0.0163,0.4171 -0.0493,0.4142 -0.0815,0.4096 -0.11302,0.4015 -0.14457,0.3915 -0.17468,0.3791 -0.2041,0.3639 -0.23173,0.3473 -0.25831,0.3277 -0.28311,0.3065 -0.30649,0.2831 -0.32776,0.2583 -0.34725,0.2318 -0.36389,0.2041 -0.37914,0.1747 -0.39153,0.1445 -0.40146,0.1131 -0.4096,0.0812 -0.41422,0.0494 -0.41704,0.0163 -0.41705,-0.016 -0.41457,-0.0493 -0.40925,-0.0814 -0.40146,-0.1133 -0.39153,-0.1445 -0.37914,-0.1747 -0.36425,-0.2041 -0.34689,-0.2318 -0.32775,-0.2583 -0.3065,-0.2831 -0.28311,-0.3065 -0.25831,-0.3277 -0.23208,-0.3473 -0.20374,-0.3639 -0.17469,-0.3791 -0.14457,-0.3915 -0.11338,-0.4015 -0.0811,-0.4096 -0.0492,-0.4142 -0.0163,-0.4171 0,-63.7795 0.0163,-0.417 0.0493,-0.4145 0.0811,-0.4092 0.1134,-0.4017 0.14457,-0.3916 0.17469,-0.379 0.20374,-0.3641 0.23208,-0.347 0.25831,-0.3277 0.28311,-0.3065 0.3065,-0.2833 0.32775,-0.2583 0.34689,-0.2319 0.36425,-0.2039 0.37914,-0.1747 0.39153,-0.1444 0.40146,-0.1133 0.40925,-0.0812 0.41457,-0.0493 0.41705,-0.0163 0.41704,0.016 z"
       style="fill:none;stroke:#ff0000;stroke-opacity:1"
       id="path18035"
       sodipodi:nodetypes="ccccccccccccccccccccccccccccccccccccccccccccccccccccccccccccccccccccccccccccccccccc" />
    <path
       inkscape:connector-curvature="0"
       d="m 210.24529,707.56473 -0.78626,-0.2781 -0.73276,-0.3979 -0.66189,-0.5078 -0.57402,-0.6052 -0.47232,-0.6874 -0.35894,-0.7526 -0.23704,-0.7997 -0.10878,-0.827 0.0216,-0.8334 0.15202,-0.8203 0.2785,-0.7859 0.39792,-0.7331 0.50775,-0.6615 0.6052,-0.5744 0.68705,-0.4723 0.75295,-0.3589 0.79972,-0.2371 0.82666,-0.1088 0.83374,0.022 0.82027,0.152 0.78591,0.2782 0.73311,0.3979 0.66153,0.5077 0.57402,0.6052 0.47268,0.6871 0.35893,0.7529 0.2367,0.7997 0.10913,0.8271 -0.022,0.8333 -0.15198,0.8203 -0.27816,0.7863 -0.39826,0.7327 -0.50776,0.6619 -0.60484,0.574 -0.6874,0.4724 -0.7526,0.3589 -0.79972,0.237 -0.82701,0.1088 -0.83374,-0.022 z"
       style="fill:none;stroke:#ff0000;stroke-opacity:1"
       id="path18117"
       sodipodi:nodetypes="ccccccccccccccccccccccccccccccccccccccccc" />
    <path
       inkscape:connector-curvature="0"
       d="m 167.55552,707.62993 -0.79972,-0.237 -0.7526,-0.3589 -0.6874,-0.4724 -0.60484,-0.574 -0.50776,-0.6619 -0.39791,-0.7327 -0.27851,-0.7863 -0.15201,-0.8203 -0.022,-0.8333 0.10915,-0.8271 0.23669,-0.7997 0.35929,-0.7529 0.47233,-0.6871 0.57401,-0.6052 0.66154,-0.5077 0.73311,-0.3979 0.78626,-0.2782 0.81992,-0.152 0.83374,-0.022 0.82701,0.1088 0.79937,0.2371 0.75295,0.3589 0.6874,0.4723 0.60484,0.5744 0.50776,0.6615 0.39791,0.7331 0.27851,0.7859 0.15201,0.8203 0.0216,0.8334 -0.10877,0.827 -0.23669,0.7997 -0.3593,0.7526 -0.47232,0.6874 -0.57401,0.6052 -0.66189,0.5078 -0.73276,0.3979 -0.78626,0.2781 -0.81992,0.1521 -0.83374,0.022 z"
       style="fill:none;stroke:#ff0000;stroke-opacity:1"
       id="path18275"
       sodipodi:nodetypes="ccccccccccccccccccccccccccccccccccccccccc" />
    <path
       inkscape:connector-curvature="0"
       d="m 594.71005,707.56473 -0.78626,-0.2781 -0.73276,-0.3979 -0.66189,-0.5078 -0.57401,-0.6052 -0.47232,-0.6874 -0.3593,-0.7526 -0.23669,-0.7997 -0.10878,-0.827 0.0216,-0.8334 0.15201,-0.8203 0.27851,-0.7859 0.39791,-0.7331 0.50776,-0.6615 0.60484,-0.5744 0.6874,-0.4723 0.75295,-0.3589 0.79937,-0.2371 0.82701,-0.1088 0.83374,0.022 0.81992,0.152 0.78626,0.2782 0.73311,0.3979 0.66154,0.5077 0.57401,0.6052 0.47233,0.6871 0.35929,0.7529 0.23669,0.7997 0.10913,0.8271 -0.022,0.8333 -0.15199,0.8203 -0.27851,0.7863 -0.39791,0.7327 -0.50776,0.6619 -0.60484,0.574 -0.6874,0.4724 -0.7526,0.3589 -0.79972,0.237 -0.82701,0.1088 -0.83374,-0.022 z"
       style="fill:none;stroke:#ff0000;stroke-opacity:1"
       id="path18277"
       sodipodi:nodetypes="ccccccccccccccccccccccccccccccccccccccccc" />
    <path
       inkscape:connector-curvature="0"
       d="m 552.02028,707.62993 -0.79972,-0.237 -0.7526,-0.3589 -0.6874,-0.4724 -0.60484,-0.574 -0.50776,-0.6619 -0.39826,-0.7327 -0.27816,-0.7863 -0.152,-0.8203 -0.022,-0.8333 0.10914,-0.8271 0.2367,-0.7997 0.35893,-0.7529 0.47268,-0.6871 0.57402,-0.6052 0.66153,-0.5077 0.73311,-0.3979 0.78591,-0.2782 0.82027,-0.152 0.83374,-0.022 0.82666,0.1088 0.79972,0.2371 0.75295,0.3589 0.68705,0.4723 0.6052,0.5744 0.50775,0.6615 0.39792,0.7331 0.2785,0.7859 0.15201,0.8203 0.0216,0.8334 -0.10877,0.827 -0.23704,0.7997 -0.35894,0.7526 -0.47232,0.6874 -0.57402,0.6052 -0.66189,0.5078 -0.73276,0.3979 -0.78626,0.2781 -0.81992,0.1521 -0.83374,0.022 z"
       style="fill:none;stroke:#ff0000;stroke-opacity:1"
       id="path18435"
       sodipodi:nodetypes="ccccccccccccccccccccccccccccccccccccccccc" />
    <path
       inkscape:connector-curvature="0"
       d="m 575.43694,734.38643 0.81106,0.1946 0.77032,0.3189 0.71114,0.4359 0.63425,0.5417 0.54177,0.6343 0.43547,0.7108 0.31926,0.7706 0.19488,0.8111 0.0652,0.8313 -0.0652,0.8316 -0.19488,0.811 -0.31926,0.7704 -0.43547,0.7111 -0.54177,0.6343 -0.63425,0.5417 -0.71114,0.4355 -0.77032,0.3193 -0.81106,0.1948 -0.83162,0.0651 -0.83126,-0.065 -0.81106,-0.1949 -0.77031,-0.3193 -0.71115,-0.4355 -0.63425,-0.5417 -0.54177,-0.6343 -0.43583,-0.7111 -0.31889,-0.7704 -0.19489,-0.811 -0.0656,-0.8316 0.0656,-0.8313 0.19486,-0.8111 0.31889,-0.7706 0.43583,-0.7108 0.54177,-0.6343 0.63425,-0.5417 0.71115,-0.4359 0.77031,-0.3189 0.81106,-0.1948 0.83126,-0.0658 z"
       style="fill:none;stroke:#ff0000;stroke-opacity:1"
       id="path18475"
       sodipodi:nodetypes="ccccccccccccccccccccccccccccccccccccccccc" />
    <path
       inkscape:connector-curvature="0"
       d="m 190.97218,734.38643 0.81106,0.1946 0.77031,0.3189 0.71115,0.4359 0.63425,0.5417 0.54177,0.6343 0.43583,0.7108 0.31889,0.7706 0.19489,0.8111 0.0652,0.8313 -0.0652,0.8316 -0.19489,0.811 -0.31889,0.7704 -0.43583,0.7111 -0.54177,0.6343 -0.63425,0.5417 -0.71115,0.4355 -0.77031,0.3193 -0.81106,0.1948 -0.83126,0.0651 -0.83162,-0.065 -0.81106,-0.1949 -0.77032,-0.3193 -0.71114,-0.4355 -0.63425,-0.5417 -0.54177,-0.6343 -0.43547,-0.7111 -0.31926,-0.7704 -0.19488,-0.811 -0.0652,-0.8316 0.0652,-0.8313 0.19487,-0.8111 0.31926,-0.7706 0.43547,-0.7108 0.54177,-0.6343 0.63425,-0.5417 0.71114,-0.4359 0.77032,-0.3189 0.81106,-0.1948 0.83162,-0.0658 z"
       style="fill:none;stroke:#ff0000;stroke-opacity:1"
       id="path18555"
       sodipodi:nodetypes="ccccccccccccccccccccccccccccccccccccccccc" />
    <path
       inkscape:connector-curvature="0"
       d="m 243.2441,799.93708 0.81071,0.19515 0.77067,0.3189 0.71114,0.4358 0.63426,0.5418 0.54141,0.6343 0.43583,0.7111 0.31925,0.7703 0.19453,0.8111 0.0656,0.8313 -0.0656,0.8316 -0.1945,0.811 -0.31925,0.7703 -0.43583,0.7112 -0.54141,0.6342 -0.63426,0.5418 -0.71114,0.4355 -0.77067,0.3192 -0.81071,0.1949 -0.83161,0.0651 -0.83126,-0.065 -0.81106,-0.195 -0.77067,-0.3192 -0.71114,-0.4355 -0.63426,-0.5418 -0.54141,-0.6342 -0.43583,-0.7112 -0.31925,-0.7703 -0.19453,-0.811 -0.0656,-0.8316 0.0656,-0.8313 0.19451,-0.8111 0.31925,-0.7703 0.43583,-0.7111 0.54141,-0.6343 0.63426,-0.5418 0.71114,-0.4358 0.77067,-0.3189 0.81106,-0.1949 0.83126,-0.0652 z"
       style="fill:none;stroke:#ff0000;stroke-opacity:1"
       id="path18635"
       sodipodi:nodetypes="ccccccccccccccccccccccccccccccccccccccccc" />
    <path
       inkscape:connector-curvature="0"
       d="m 523.16501,799.93708 0.81106,0.19515 0.77067,0.3189 0.71114,0.4358 0.63426,0.5418 0.54141,0.6343 0.43583,0.7111 0.31925,0.7703 0.19453,0.8111 0.0656,0.8313 -0.0656,0.8316 -0.19451,0.811 -0.31925,0.7703 -0.43583,0.7112 -0.54141,0.6342 -0.63426,0.5418 -0.71114,0.4355 -0.77067,0.3192 -0.81106,0.1949 -0.83126,0.0651 -0.83161,-0.065 -0.81071,-0.195 -0.77067,-0.3192 -0.71114,-0.4355 -0.63426,-0.5418 -0.54141,-0.6342 -0.43583,-0.7112 -0.31925,-0.7703 -0.19453,-0.811 -0.0656,-0.8316 0.0656,-0.8313 0.19451,-0.8111 0.31925,-0.7703 0.43583,-0.7111 0.54141,-0.6343 0.63426,-0.5418 0.71114,-0.4358 0.77067,-0.3189 0.81071,-0.1949 0.83161,-0.0652 z"
       style="fill:none;stroke:#ff0000;stroke-opacity:1"
       id="path18715"
       sodipodi:nodetypes="ccccccccccccccccccccccccccccccccccccccccc" />
  </g>
</svg>
