  0
SECTION
  2
BLOCKS
  0
ENDSEC
  0
SECTION
  2
ENTITIES
  0
LINE
  8
0
 10
59.1184
 20
-18.0001
 11
59.1183
 21
4.83333
  0
LINE
  8
0
 10
59.1183
 20
4.83333
 11
62.6816
 21
4.83344
  0
LINE
  8
0
 10
62.6816
 20
4.83344
 11
62.6816
 21
18.6665
  0
LINE
  8
0
 10
62.6816
 20
18.6665
 11
59.1184
 21
18.6665
  0
LINE
  8
0
 10
59.1184
 20
18.6665
 11
59.1183
 21
41.5
  0
LINE
  8
0
 10
59.1183
 20
41.5
 11
53.7262
 21
41.5
  0
LINE
  8
0
 10
53.7262
 20
41.5
 11
53.7262
 21
44.3
  0
LINE
  8
0
 10
53.7262
 20
44.3
 11
45.0881
 21
44.3
  0
LINE
  8
0
 10
45.0881
 20
44.3
 11
45.0881
 21
41.5
  0
LINE
  8
0
 10
45.0881
 20
41.5
 11
46.3131
 21
41.5
  0
LINE
  8
0
 10
46.3131
 20
41.5
 11
46.3719
 21
41.4977
  0
LINE
  8
0
 10
46.3719
 20
41.4977
 11
46.4304
 21
41.4908
  0
LINE
  8
0
 10
46.4304
 20
41.4908
 11
46.4882
 21
41.4793
  0
LINE
  8
0
 10
46.4882
 20
41.4793
 11
46.5449
 21
41.4633
  0
LINE
  8
0
 10
46.5449
 20
41.4633
 11
46.6001
 21
41.4429
  0
LINE
  8
0
 10
46.6001
 20
41.4429
 11
46.6536
 21
41.4182
  0
LINE
  8
0
 10
46.6536
 20
41.4182
 11
46.705
 21
41.3895
  0
LINE
  8
0
 10
46.705
 20
41.3895
 11
46.7539
 21
41.3568
  0
LINE
  8
0
 10
46.7539
 20
41.3568
 11
46.8002
 21
41.3203
  0
LINE
  8
0
 10
46.8002
 20
41.3203
 11
46.8434
 21
41.2803
  0
LINE
  8
0
 10
46.8434
 20
41.2803
 11
46.8834
 21
41.2371
  0
LINE
  8
0
 10
46.8834
 20
41.2371
 11
46.9199
 21
41.1908
  0
LINE
  8
0
 10
46.9199
 20
41.1908
 11
46.9526
 21
41.1419
  0
LINE
  8
0
 10
46.9526
 20
41.1419
 11
46.9813
 21
41.0905
  0
LINE
  8
0
 10
46.9813
 20
41.0905
 11
47.006
 21
41.037
  0
LINE
  8
0
 10
47.006
 20
41.037
 11
47.0264
 21
40.9818
  0
LINE
  8
0
 10
47.0264
 20
40.9818
 11
47.0424
 21
40.9251
  0
LINE
  8
0
 10
47.0424
 20
40.9251
 11
47.0539
 21
40.8673
  0
LINE
  8
0
 10
47.0539
 20
40.8673
 11
47.0608
 21
40.8088
  0
LINE
  8
0
 10
47.0608
 20
40.8088
 11
47.0631
 21
40.75
  0
LINE
  8
0
 10
47.0631
 20
40.75
 11
47.0608
 21
40.6912
  0
LINE
  8
0
 10
47.0608
 20
40.6912
 11
47.0539
 21
40.6327
  0
LINE
  8
0
 10
47.0539
 20
40.6327
 11
47.0424
 21
40.5749
  0
LINE
  8
0
 10
47.0424
 20
40.5749
 11
47.0264
 21
40.5182
  0
LINE
  8
0
 10
47.0264
 20
40.5182
 11
47.006
 21
40.463
  0
LINE
  8
0
 10
47.006
 20
40.463
 11
46.9813
 21
40.4095
  0
LINE
  8
0
 10
46.9813
 20
40.4095
 11
46.9526
 21
40.3581
  0
LINE
  8
0
 10
46.9526
 20
40.3581
 11
46.9199
 21
40.3092
  0
LINE
  8
0
 10
46.9199
 20
40.3092
 11
46.8834
 21
40.2629
  0
LINE
  8
0
 10
46.8834
 20
40.2629
 11
46.8434
 21
40.2197
  0
LINE
  8
0
 10
46.8434
 20
40.2197
 11
46.8002
 21
40.1797
  0
LINE
  8
0
 10
46.8002
 20
40.1797
 11
46.7539
 21
40.1432
  0
LINE
  8
0
 10
46.7539
 20
40.1432
 11
46.705
 21
40.1105
  0
LINE
  8
0
 10
46.705
 20
40.1105
 11
46.6536
 21
40.0818
  0
LINE
  8
0
 10
46.6536
 20
40.0818
 11
46.6001
 21
40.0571
  0
LINE
  8
0
 10
46.6001
 20
40.0571
 11
46.5449
 21
40.0367
  0
LINE
  8
0
 10
46.5449
 20
40.0367
 11
46.4882
 21
40.0207
  0
LINE
  8
0
 10
46.4882
 20
40.0207
 11
46.4304
 21
40.0092
  0
LINE
  8
0
 10
46.4304
 20
40.0092
 11
46.3719
 21
40.0023
  0
LINE
  8
0
 10
46.3719
 20
40.0023
 11
46.3131
 21
40
  0
LINE
  8
0
 10
46.3131
 20
40
 11
46.3131
 21
38.55
  0
LINE
  8
0
 10
46.3131
 20
38.55
 11
46.3048
 21
38.3382
  0
LINE
  8
0
 10
46.3048
 20
38.3382
 11
46.2798
 21
38.1276
  0
LINE
  8
0
 10
46.2798
 20
38.1276
 11
46.2385
 21
37.9197
  0
LINE
  8
0
 10
46.2385
 20
37.9197
 11
46.1809
 21
37.7157
  0
LINE
  8
0
 10
46.1809
 20
37.7157
 11
46.1076
 21
37.5168
  0
LINE
  8
0
 10
46.1076
 20
37.5168
 11
46.0188
 21
37.3242
  0
LINE
  8
0
 10
46.0188
 20
37.3242
 11
45.9152
 21
37.1393
  0
LINE
  8
0
 10
45.9152
 20
37.1393
 11
45.7974
 21
36.963
  0
LINE
  8
0
 10
45.7974
 20
36.963
 11
45.6662
 21
36.7965
  0
LINE
  8
0
 10
45.6662
 20
36.7965
 11
45.5223
 21
36.6408
  0
LINE
  8
0
 10
45.5223
 20
36.6408
 11
45.3666
 21
36.4969
  0
LINE
  8
0
 10
45.3666
 20
36.4969
 11
45.2001
 21
36.3657
  0
LINE
  8
0
 10
45.2001
 20
36.3657
 11
45.0238
 21
36.2479
  0
LINE
  8
0
 10
45.0238
 20
36.2479
 11
44.8389
 21
36.1443
  0
LINE
  8
0
 10
44.8389
 20
36.1443
 11
44.6463
 21
36.0555
  0
LINE
  8
0
 10
44.6463
 20
36.0555
 11
44.4474
 21
35.9822
  0
LINE
  8
0
 10
44.4474
 20
35.9822
 11
44.2434
 21
35.9246
  0
LINE
  8
0
 10
44.2434
 20
35.9246
 11
44.0355
 21
35.8833
  0
LINE
  8
0
 10
44.0355
 20
35.8833
 11
43.8249
 21
35.8583
  0
LINE
  8
0
 10
43.8249
 20
35.8583
 11
43.6131
 21
35.85
  0
LINE
  8
0
 10
43.6131
 20
35.85
 11
43.4013
 21
35.8583
  0
LINE
  8
0
 10
43.4013
 20
35.8583
 11
43.1907
 21
35.8833
  0
LINE
  8
0
 10
43.1907
 20
35.8833
 11
42.9828
 21
35.9246
  0
LINE
  8
0
 10
42.9828
 20
35.9246
 11
42.7788
 21
35.9822
  0
LINE
  8
0
 10
42.7788
 20
35.9822
 11
42.5799
 21
36.0555
  0
LINE
  8
0
 10
42.5799
 20
36.0555
 11
42.3873
 21
36.1443
  0
LINE
  8
0
 10
42.3873
 20
36.1443
 11
42.2024
 21
36.2479
  0
LINE
  8
0
 10
42.2024
 20
36.2479
 11
42.0261
 21
36.3657
  0
LINE
  8
0
 10
42.0261
 20
36.3657
 11
41.8596
 21
36.4969
  0
LINE
  8
0
 10
41.8596
 20
36.4969
 11
41.7039
 21
36.6408
  0
LINE
  8
0
 10
41.7039
 20
36.6408
 11
41.56
 21
36.7965
  0
LINE
  8
0
 10
41.56
 20
36.7965
 11
41.4288
 21
36.963
  0
LINE
  8
0
 10
41.4288
 20
36.963
 11
41.311
 21
37.1393
  0
LINE
  8
0
 10
41.311
 20
37.1393
 11
41.2074
 21
37.3242
  0
LINE
  8
0
 10
41.2074
 20
37.3242
 11
41.1186
 21
37.5168
  0
LINE
  8
0
 10
41.1186
 20
37.5168
 11
41.0453
 21
37.7157
  0
LINE
  8
0
 10
41.0453
 20
37.7157
 11
40.9877
 21
37.9197
  0
LINE
  8
0
 10
40.9877
 20
37.9197
 11
40.9464
 21
38.1276
  0
LINE
  8
0
 10
40.9464
 20
38.1276
 11
40.9214
 21
38.3382
  0
LINE
  8
0
 10
40.9214
 20
38.3382
 11
40.9131
 21
38.55
  0
LINE
  8
0
 10
40.9131
 20
38.55
 11
40.9131
 21
40
  0
LINE
  8
0
 10
40.9131
 20
40
 11
40.8543
 21
40.0023
  0
LINE
  8
0
 10
40.8543
 20
40.0023
 11
40.7958
 21
40.0092
  0
LINE
  8
0
 10
40.7958
 20
40.0092
 11
40.738
 21
40.0207
  0
LINE
  8
0
 10
40.738
 20
40.0207
 11
40.6813
 21
40.0367
  0
LINE
  8
0
 10
40.6813
 20
40.0367
 11
40.6261
 21
40.0571
  0
LINE
  8
0
 10
40.6261
 20
40.0571
 11
40.5726
 21
40.0818
  0
LINE
  8
0
 10
40.5726
 20
40.0818
 11
40.5212
 21
40.1105
  0
LINE
  8
0
 10
40.5212
 20
40.1105
 11
40.4723
 21
40.1432
  0
LINE
  8
0
 10
40.4723
 20
40.1432
 11
40.426
 21
40.1797
  0
LINE
  8
0
 10
40.426
 20
40.1797
 11
40.3828
 21
40.2197
  0
LINE
  8
0
 10
40.3828
 20
40.2197
 11
40.3428
 21
40.2629
  0
LINE
  8
0
 10
40.3428
 20
40.2629
 11
40.3063
 21
40.3092
  0
LINE
  8
0
 10
40.3063
 20
40.3092
 11
40.2736
 21
40.3581
  0
LINE
  8
0
 10
40.2736
 20
40.3581
 11
40.2449
 21
40.4095
  0
LINE
  8
0
 10
40.2449
 20
40.4095
 11
40.2202
 21
40.463
  0
LINE
  8
0
 10
40.2202
 20
40.463
 11
40.1998
 21
40.5183
  0
LINE
  8
0
 10
40.1998
 20
40.5183
 11
40.1838
 21
40.5749
  0
LINE
  8
0
 10
40.1838
 20
40.5749
 11
40.1723
 21
40.6327
  0
LINE
  8
0
 10
40.1723
 20
40.6327
 11
40.1654
 21
40.6912
  0
LINE
  8
0
 10
40.1654
 20
40.6912
 11
40.1631
 21
40.75
  0
LINE
  8
0
 10
40.1631
 20
40.75
 11
40.1654
 21
40.8089
  0
LINE
  8
0
 10
40.1654
 20
40.8089
 11
40.1723
 21
40.8673
  0
LINE
  8
0
 10
40.1723
 20
40.8673
 11
40.1838
 21
40.9251
  0
LINE
  8
0
 10
40.1838
 20
40.9251
 11
40.1998
 21
40.9818
  0
LINE
  8
0
 10
40.1998
 20
40.9818
 11
40.2202
 21
41.037
  0
LINE
  8
0
 10
40.2202
 20
41.037
 11
40.2449
 21
41.0905
  0
LINE
  8
0
 10
40.2449
 20
41.0905
 11
40.2736
 21
41.1419
  0
LINE
  8
0
 10
40.2736
 20
41.1419
 11
40.3063
 21
41.1908
  0
LINE
  8
0
 10
40.3063
 20
41.1908
 11
40.3428
 21
41.2371
  0
LINE
  8
0
 10
40.3428
 20
41.2371
 11
40.3828
 21
41.2803
  0
LINE
  8
0
 10
40.3828
 20
41.2803
 11
40.426
 21
41.3203
  0
LINE
  8
0
 10
40.426
 20
41.3203
 11
40.4723
 21
41.3568
  0
LINE
  8
0
 10
40.4723
 20
41.3568
 11
40.5212
 21
41.3895
  0
LINE
  8
0
 10
40.5212
 20
41.3895
 11
40.5726
 21
41.4183
  0
LINE
  8
0
 10
40.5726
 20
41.4183
 11
40.6261
 21
41.4429
  0
LINE
  8
0
 10
40.6261
 20
41.4429
 11
40.6813
 21
41.4633
  0
LINE
  8
0
 10
40.6813
 20
41.4633
 11
40.738
 21
41.4793
  0
LINE
  8
0
 10
40.738
 20
41.4793
 11
40.7958
 21
41.4908
  0
LINE
  8
0
 10
40.7958
 20
41.4908
 11
40.8543
 21
41.4977
  0
LINE
  8
0
 10
40.8543
 20
41.4977
 11
40.9131
 21
41.5
  0
LINE
  8
0
 10
40.9131
 20
41.5
 11
42.1381
 21
41.5
  0
LINE
  8
0
 10
42.1381
 20
41.5
 11
42.1381
 21
44.3
  0
LINE
  8
0
 10
42.1381
 20
44.3
 11
33.5
 21
44.3
  0
LINE
  8
0
 10
33.5
 20
44.3
 11
33.5
 21
41.5
  0
LINE
  8
0
 10
33.5
 20
41.5
 11
10.1131
 21
41.5
  0
LINE
  8
0
 10
10.1131
 20
41.5
 11
10.1131
 21
44.3
  0
LINE
  8
0
 10
10.1131
 20
44.3
 11
-10.1131
 21
44.3
  0
LINE
  8
0
 10
-10.1131
 20
44.3
 11
-10.1131
 21
41.5
  0
LINE
  8
0
 10
-10.1131
 20
41.5
 11
-33.5
 21
41.5
  0
LINE
  8
0
 10
-33.5
 20
41.5
 11
-33.5
 21
44.3
  0
LINE
  8
0
 10
-33.5
 20
44.3
 11
-42.1381
 21
44.3
  0
LINE
  8
0
 10
-42.1381
 20
44.3
 11
-42.1381
 21
41.5
  0
LINE
  8
0
 10
-42.1381
 20
41.5
 11
-40.9131
 21
41.5
  0
LINE
  8
0
 10
-40.9131
 20
41.5
 11
-40.8542
 21
41.4977
  0
LINE
  8
0
 10
-40.8542
 20
41.4977
 11
-40.7958
 21
41.4908
  0
LINE
  8
0
 10
-40.7958
 20
41.4908
 11
-40.738
 21
41.4793
  0
LINE
  8
0
 10
-40.738
 20
41.4793
 11
-40.6813
 21
41.4633
  0
LINE
  8
0
 10
-40.6813
 20
41.4633
 11
-40.6261
 21
41.4429
  0
LINE
  8
0
 10
-40.6261
 20
41.4429
 11
-40.5726
 21
41.4182
  0
LINE
  8
0
 10
-40.5726
 20
41.4182
 11
-40.5212
 21
41.3895
  0
LINE
  8
0
 10
-40.5212
 20
41.3895
 11
-40.4722
 21
41.3568
  0
LINE
  8
0
 10
-40.4722
 20
41.3568
 11
-40.426
 21
41.3203
  0
LINE
  8
0
 10
-40.426
 20
41.3203
 11
-40.3828
 21
41.2803
  0
LINE
  8
0
 10
-40.3828
 20
41.2803
 11
-40.3428
 21
41.2371
  0
LINE
  8
0
 10
-40.3428
 20
41.2371
 11
-40.3063
 21
41.1908
  0
LINE
  8
0
 10
-40.3063
 20
41.1908
 11
-40.2736
 21
41.1419
  0
LINE
  8
0
 10
-40.2736
 20
41.1419
 11
-40.2448
 21
41.0905
  0
LINE
  8
0
 10
-40.2448
 20
41.0905
 11
-40.2202
 21
41.037
  0
LINE
  8
0
 10
-40.2202
 20
41.037
 11
-40.1998
 21
40.9818
  0
LINE
  8
0
 10
-40.1998
 20
40.9818
 11
-40.1838
 21
40.9251
  0
LINE
  8
0
 10
-40.1838
 20
40.9251
 11
-40.1723
 21
40.8673
  0
LINE
  8
0
 10
-40.1723
 20
40.8673
 11
-40.1654
 21
40.8088
  0
LINE
  8
0
 10
-40.1654
 20
40.8088
 11
-40.1631
 21
40.75
  0
LINE
  8
0
 10
-40.1631
 20
40.75
 11
-40.1654
 21
40.6912
  0
LINE
  8
0
 10
-40.1654
 20
40.6912
 11
-40.1723
 21
40.6327
  0
LINE
  8
0
 10
-40.1723
 20
40.6327
 11
-40.1838
 21
40.5749
  0
LINE
  8
0
 10
-40.1838
 20
40.5749
 11
-40.1998
 21
40.5182
  0
LINE
  8
0
 10
-40.1998
 20
40.5182
 11
-40.2202
 21
40.463
  0
LINE
  8
0
 10
-40.2202
 20
40.463
 11
-40.2448
 21
40.4095
  0
LINE
  8
0
 10
-40.2448
 20
40.4095
 11
-40.2736
 21
40.3581
  0
LINE
  8
0
 10
-40.2736
 20
40.3581
 11
-40.3063
 21
40.3092
  0
LINE
  8
0
 10
-40.3063
 20
40.3092
 11
-40.3428
 21
40.2629
  0
LINE
  8
0
 10
-40.3428
 20
40.2629
 11
-40.3828
 21
40.2197
  0
LINE
  8
0
 10
-40.3828
 20
40.2197
 11
-40.426
 21
40.1797
  0
LINE
  8
0
 10
-40.426
 20
40.1797
 11
-40.4722
 21
40.1432
  0
LINE
  8
0
 10
-40.4722
 20
40.1432
 11
-40.5212
 21
40.1105
  0
LINE
  8
0
 10
-40.5212
 20
40.1105
 11
-40.5726
 21
40.0818
  0
LINE
  8
0
 10
-40.5726
 20
40.0818
 11
-40.6261
 21
40.0571
  0
LINE
  8
0
 10
-40.6261
 20
40.0571
 11
-40.6813
 21
40.0367
  0
LINE
  8
0
 10
-40.6813
 20
40.0367
 11
-40.738
 21
40.0207
  0
LINE
  8
0
 10
-40.738
 20
40.0207
 11
-40.7958
 21
40.0092
  0
LINE
  8
0
 10
-40.7958
 20
40.0092
 11
-40.8542
 21
40.0023
  0
LINE
  8
0
 10
-40.8542
 20
40.0023
 11
-40.9131
 21
40
  0
LINE
  8
0
 10
-40.9131
 20
40
 11
-40.9131
 21
38.55
  0
LINE
  8
0
 10
-40.9131
 20
38.55
 11
-40.9214
 21
38.3382
  0
LINE
  8
0
 10
-40.9214
 20
38.3382
 11
-40.9463
 21
38.1276
  0
LINE
  8
0
 10
-40.9463
 20
38.1276
 11
-40.9877
 21
37.9197
  0
LINE
  8
0
 10
-40.9877
 20
37.9197
 11
-41.0452
 21
37.7157
  0
LINE
  8
0
 10
-41.0452
 20
37.7157
 11
-41.1186
 21
37.5168
  0
LINE
  8
0
 10
-41.1186
 20
37.5168
 11
-41.2074
 21
37.3242
  0
LINE
  8
0
 10
-41.2074
 20
37.3242
 11
-41.311
 21
37.1393
  0
LINE
  8
0
 10
-41.311
 20
37.1393
 11
-41.4287
 21
36.963
  0
LINE
  8
0
 10
-41.4287
 20
36.963
 11
-41.56
 21
36.7965
  0
LINE
  8
0
 10
-41.56
 20
36.7965
 11
-41.7039
 21
36.6408
  0
LINE
  8
0
 10
-41.7039
 20
36.6408
 11
-41.8596
 21
36.4969
  0
LINE
  8
0
 10
-41.8596
 20
36.4969
 11
-42.0261
 21
36.3657
  0
LINE
  8
0
 10
-42.0261
 20
36.3657
 11
-42.2023
 21
36.2479
  0
LINE
  8
0
 10
-42.2023
 20
36.2479
 11
-42.3873
 21
36.1443
  0
LINE
  8
0
 10
-42.3873
 20
36.1443
 11
-42.5798
 21
36.0555
  0
LINE
  8
0
 10
-42.5798
 20
36.0555
 11
-42.7787
 21
35.9822
  0
LINE
  8
0
 10
-42.7787
 20
35.9822
 11
-42.9828
 21
35.9246
  0
LINE
  8
0
 10
-42.9828
 20
35.9246
 11
-43.1907
 21
35.8833
  0
LINE
  8
0
 10
-43.1907
 20
35.8833
 11
-43.4012
 21
35.8583
  0
LINE
  8
0
 10
-43.4012
 20
35.8583
 11
-43.6131
 21
35.85
  0
LINE
  8
0
 10
-43.6131
 20
35.85
 11
-43.8249
 21
35.8583
  0
LINE
  8
0
 10
-43.8249
 20
35.8583
 11
-44.0354
 21
35.8833
  0
LINE
  8
0
 10
-44.0354
 20
35.8833
 11
-44.2434
 21
35.9246
  0
LINE
  8
0
 10
-44.2434
 20
35.9246
 11
-44.4474
 21
35.9822
  0
LINE
  8
0
 10
-44.4474
 20
35.9822
 11
-44.6463
 21
36.0555
  0
LINE
  8
0
 10
-44.6463
 20
36.0555
 11
-44.8389
 21
36.1443
  0
LINE
  8
0
 10
-44.8389
 20
36.1443
 11
-45.0238
 21
36.2479
  0
LINE
  8
0
 10
-45.0238
 20
36.2479
 11
-45.2001
 21
36.3657
  0
LINE
  8
0
 10
-45.2001
 20
36.3657
 11
-45.3666
 21
36.4969
  0
LINE
  8
0
 10
-45.3666
 20
36.4969
 11
-45.5223
 21
36.6408
  0
LINE
  8
0
 10
-45.5223
 20
36.6408
 11
-45.6662
 21
36.7965
  0
LINE
  8
0
 10
-45.6662
 20
36.7965
 11
-45.7974
 21
36.963
  0
LINE
  8
0
 10
-45.7974
 20
36.963
 11
-45.9152
 21
37.1393
  0
LINE
  8
0
 10
-45.9152
 20
37.1393
 11
-46.0188
 21
37.3242
  0
LINE
  8
0
 10
-46.0188
 20
37.3242
 11
-46.1075
 21
37.5168
  0
LINE
  8
0
 10
-46.1075
 20
37.5168
 11
-46.1809
 21
37.7157
  0
LINE
  8
0
 10
-46.1809
 20
37.7157
 11
-46.2385
 21
37.9197
  0
LINE
  8
0
 10
-46.2385
 20
37.9197
 11
-46.2798
 21
38.1276
  0
LINE
  8
0
 10
-46.2798
 20
38.1276
 11
-46.3047
 21
38.3382
  0
LINE
  8
0
 10
-46.3047
 20
38.3382
 11
-46.3131
 21
38.55
  0
LINE
  8
0
 10
-46.3131
 20
38.55
 11
-46.3131
 21
40
  0
LINE
  8
0
 10
-46.3131
 20
40
 11
-46.3719
 21
40.0023
  0
LINE
  8
0
 10
-46.3719
 20
40.0023
 11
-46.4304
 21
40.0092
  0
LINE
  8
0
 10
-46.4304
 20
40.0092
 11
-46.4882
 21
40.0207
  0
LINE
  8
0
 10
-46.4882
 20
40.0207
 11
-46.5448
 21
40.0367
  0
LINE
  8
0
 10
-46.5448
 20
40.0367
 11
-46.6001
 21
40.0571
  0
LINE
  8
0
 10
-46.6001
 20
40.0571
 11
-46.6536
 21
40.0818
  0
LINE
  8
0
 10
-46.6536
 20
40.0818
 11
-46.705
 21
40.1105
  0
LINE
  8
0
 10
-46.705
 20
40.1105
 11
-46.7539
 21
40.1432
  0
LINE
  8
0
 10
-46.7539
 20
40.1432
 11
-46.8002
 21
40.1797
  0
LINE
  8
0
 10
-46.8002
 20
40.1797
 11
-46.8434
 21
40.2197
  0
LINE
  8
0
 10
-46.8434
 20
40.2197
 11
-46.8834
 21
40.2629
  0
LINE
  8
0
 10
-46.8834
 20
40.2629
 11
-46.9198
 21
40.3092
  0
LINE
  8
0
 10
-46.9198
 20
40.3092
 11
-46.9526
 21
40.3581
  0
LINE
  8
0
 10
-46.9526
 20
40.3581
 11
-46.9813
 21
40.4095
  0
LINE
  8
0
 10
-46.9813
 20
40.4095
 11
-47.006
 21
40.463
  0
LINE
  8
0
 10
-47.006
 20
40.463
 11
-47.0264
 21
40.5183
  0
LINE
  8
0
 10
-47.0264
 20
40.5183
 11
-47.0424
 21
40.5749
  0
LINE
  8
0
 10
-47.0424
 20
40.5749
 11
-47.0538
 21
40.6327
  0
LINE
  8
0
 10
-47.0538
 20
40.6327
 11
-47.0608
 21
40.6912
  0
LINE
  8
0
 10
-47.0608
 20
40.6912
 11
-47.0631
 21
40.75
  0
LINE
  8
0
 10
-47.0631
 20
40.75
 11
-47.0608
 21
40.8089
  0
LINE
  8
0
 10
-47.0608
 20
40.8089
 11
-47.0538
 21
40.8673
  0
LINE
  8
0
 10
-47.0538
 20
40.8673
 11
-47.0424
 21
40.9251
  0
LINE
  8
0
 10
-47.0424
 20
40.9251
 11
-47.0264
 21
40.9818
  0
LINE
  8
0
 10
-47.0264
 20
40.9818
 11
-47.006
 21
41.037
  0
LINE
  8
0
 10
-47.006
 20
41.037
 11
-46.9813
 21
41.0905
  0
LINE
  8
0
 10
-46.9813
 20
41.0905
 11
-46.9526
 21
41.1419
  0
LINE
  8
0
 10
-46.9526
 20
41.1419
 11
-46.9198
 21
41.1908
  0
LINE
  8
0
 10
-46.9198
 20
41.1908
 11
-46.8834
 21
41.2371
  0
LINE
  8
0
 10
-46.8834
 20
41.2371
 11
-46.8434
 21
41.2803
  0
LINE
  8
0
 10
-46.8434
 20
41.2803
 11
-46.8002
 21
41.3203
  0
LINE
  8
0
 10
-46.8002
 20
41.3203
 11
-46.7539
 21
41.3568
  0
LINE
  8
0
 10
-46.7539
 20
41.3568
 11
-46.705
 21
41.3895
  0
LINE
  8
0
 10
-46.705
 20
41.3895
 11
-46.6536
 21
41.4183
  0
LINE
  8
0
 10
-46.6536
 20
41.4183
 11
-46.6001
 21
41.4429
  0
LINE
  8
0
 10
-46.6001
 20
41.4429
 11
-46.5448
 21
41.4633
  0
LINE
  8
0
 10
-46.5448
 20
41.4633
 11
-46.4882
 21
41.4793
  0
LINE
  8
0
 10
-46.4882
 20
41.4793
 11
-46.4304
 21
41.4908
  0
LINE
  8
0
 10
-46.4304
 20
41.4908
 11
-46.3719
 21
41.4977
  0
LINE
  8
0
 10
-46.3719
 20
41.4977
 11
-46.3131
 21
41.5
  0
LINE
  8
0
 10
-46.3131
 20
41.5
 11
-45.0881
 21
41.5
  0
LINE
  8
0
 10
-45.0881
 20
41.5
 11
-45.0881
 21
44.3
  0
LINE
  8
0
 10
-45.0881
 20
44.3
 11
-53.7262
 21
44.3
  0
LINE
  8
0
 10
-53.7262
 20
44.3
 11
-53.7262
 21
41.5
  0
LINE
  8
0
 10
-53.7262
 20
41.5
 11
-59.1184
 21
41.5
  0
LINE
  8
0
 10
-59.1184
 20
41.5
 11
-59.1183
 21
18.6667
  0
LINE
  8
0
 10
-59.1183
 20
18.6667
 11
-62.6816
 21
18.6665
  0
LINE
  8
0
 10
-62.6816
 20
18.6665
 11
-62.6816
 21
4.83344
  0
LINE
  8
0
 10
-62.6816
 20
4.83344
 11
-59.1184
 21
4.83344
  0
LINE
  8
0
 10
-59.1184
 20
4.83344
 11
-59.1184
 21
-18.0001
  0
LINE
  8
0
 10
-59.1184
 20
-18.0001
 11
-62.7262
 21
-18.0001
  0
LINE
  8
0
 10
-62.7262
 20
-18.0001
 11
-62.7262
 21
-77.8786
  0
LINE
  8
0
 10
-62.7262
 20
-77.8786
 11
-62.5243
 21
-78.043
  0
LINE
  8
0
 10
-62.5243
 20
-78.043
 11
-61.2907
 21
-79.0155
  0
LINE
  8
0
 10
-61.2907
 20
-79.0155
 11
-60.042
 21
-79.9685
  0
LINE
  8
0
 10
-60.042
 20
-79.9685
 11
-58.7785
 21
-80.9017
  0
LINE
  8
0
 10
-58.7785
 20
-80.9017
 11
-57.5005
 21
-81.815
  0
LINE
  8
0
 10
-57.5005
 20
-81.815
 11
-56.2083
 21
-82.7081
  0
LINE
  8
0
 10
-56.2083
 20
-82.7081
 11
-54.9023
 21
-83.5807
  0
LINE
  8
0
 10
-54.9023
 20
-83.5807
 11
-53.5827
 21
-84.4328
  0
LINE
  8
0
 10
-53.5827
 20
-84.4328
 11
-52.2498
 21
-85.264
  0
LINE
  8
0
 10
-52.2498
 20
-85.264
 11
-50.9041
 21
-86.0742
  0
LINE
  8
0
 10
-50.9041
 20
-86.0742
 11
-49.5459
 21
-86.8631
  0
LINE
  8
0
 10
-49.5459
 20
-86.8631
 11
-48.1754
 21
-87.6307
  0
LINE
  8
0
 10
-48.1754
 20
-87.6307
 11
-46.793
 21
-88.3766
  0
LINE
  8
0
 10
-46.793
 20
-88.3766
 11
-45.399
 21
-89.1006
  0
LINE
  8
0
 10
-45.399
 20
-89.1006
 11
-43.9939
 21
-89.8027
  0
LINE
  8
0
 10
-43.9939
 20
-89.8027
 11
-42.5779
 21
-90.4827
  0
LINE
  8
0
 10
-42.5779
 20
-90.4827
 11
-41.1514
 21
-91.1403
  0
LINE
  8
0
 10
-41.1514
 20
-91.1403
 11
-39.7148
 21
-91.7755
  0
LINE
  8
0
 10
-39.7148
 20
-91.7755
 11
-38.2683
 21
-92.3879
  0
LINE
  8
0
 10
-38.2683
 20
-92.3879
 11
-36.8125
 21
-92.9776
  0
LINE
  8
0
 10
-36.8125
 20
-92.9776
 11
-35.3475
 21
-93.5444
  0
LINE
  8
0
 10
-35.3475
 20
-93.5444
 11
-33.8738
 21
-94.0881
  0
LINE
  8
0
 10
-33.8738
 20
-94.0881
 11
-32.3917
 21
-94.6085
  0
LINE
  8
0
 10
-32.3917
 20
-94.6085
 11
-30.9017
 21
-95.1056
  0
LINE
  8
0
 10
-30.9017
 20
-95.1056
 11
-29.404
 21
-95.5793
  0
LINE
  8
0
 10
-29.404
 20
-95.5793
 11
-27.8991
 21
-96.0294
  0
LINE
  8
0
 10
-27.8991
 20
-96.0294
 11
-26.3873
 21
-96.4557
  0
LINE
  8
0
 10
-26.3873
 20
-96.4557
 11
-24.869
 21
-96.8583
  0
LINE
  8
0
 10
-24.869
 20
-96.8583
 11
-23.3445
 21
-97.237
  0
LINE
  8
0
 10
-23.3445
 20
-97.237
 11
-21.8143
 21
-97.5917
  0
LINE
  8
0
 10
-21.8143
 20
-97.5917
 11
-20.2787
 21
-97.9223
  0
LINE
  8
0
 10
-20.2787
 20
-97.9223
 11
-18.7381
 21
-98.2287
  0
LINE
  8
0
 10
-18.7381
 20
-98.2287
 11
-17.1929
 21
-98.5109
  0
LINE
  8
0
 10
-17.1929
 20
-98.5109
 11
-15.6434
 21
-98.7688
  0
LINE
  8
0
 10
-15.6434
 20
-98.7688
 11
-14.0901
 21
-99.0024
  0
LINE
  8
0
 10
-14.0901
 20
-99.0024
 11
-12.5333
 21
-99.2115
  0
LINE
  8
0
 10
-12.5333
 20
-99.2115
 11
-10.9734
 21
-99.3961
  0
LINE
  8
0
 10
-10.9734
 20
-99.3961
 11
-9.41083
 21
-99.5562
  0
LINE
  8
0
 10
-9.41083
 20
-99.5562
 11
-7.8459
 21
-99.6917
  0
LINE
  8
0
 10
-7.8459
 20
-99.6917
 11
-6.27904
 21
-99.8027
  0
LINE
  8
0
 10
-6.27904
 20
-99.8027
 11
-4.71063
 21
-99.889
  0
LINE
  8
0
 10
-4.71063
 20
-99.889
 11
-3.14107
 21
-99.9507
  0
LINE
  8
0
 10
-3.14107
 20
-99.9507
 11
-1.57072
 21
-99.9877
  0
LINE
  8
0
 10
-1.57072
 20
-99.9877
 11
0
 21
-100
  0
LINE
  8
0
 10
0
 20
-100
 11
1.57072
 21
-99.9877
  0
LINE
  8
0
 10
1.57072
 20
-99.9877
 11
3.14107
 21
-99.9507
  0
LINE
  8
0
 10
3.14107
 20
-99.9507
 11
4.71063
 21
-99.889
  0
LINE
  8
0
 10
4.71063
 20
-99.889
 11
6.27904
 21
-99.8027
  0
LINE
  8
0
 10
6.27904
 20
-99.8027
 11
7.8459
 21
-99.6917
  0
LINE
  8
0
 10
7.8459
 20
-99.6917
 11
9.41083
 21
-99.5562
  0
LINE
  8
0
 10
9.41083
 20
-99.5562
 11
10.9734
 21
-99.3961
  0
LINE
  8
0
 10
10.9734
 20
-99.3961
 11
12.5333
 21
-99.2115
  0
LINE
  8
0
 10
12.5333
 20
-99.2115
 11
14.0901
 21
-99.0024
  0
LINE
  8
0
 10
14.0901
 20
-99.0024
 11
15.6434
 21
-98.7688
  0
LINE
  8
0
 10
15.6434
 20
-98.7688
 11
17.1929
 21
-98.5109
  0
LINE
  8
0
 10
17.1929
 20
-98.5109
 11
18.7381
 21
-98.2287
  0
LINE
  8
0
 10
18.7381
 20
-98.2287
 11
20.2787
 21
-97.9223
  0
LINE
  8
0
 10
20.2787
 20
-97.9223
 11
21.8143
 21
-97.5917
  0
LINE
  8
0
 10
21.8143
 20
-97.5917
 11
23.3445
 21
-97.237
  0
LINE
  8
0
 10
23.3445
 20
-97.237
 11
24.869
 21
-96.8583
  0
LINE
  8
0
 10
24.869
 20
-96.8583
 11
26.3873
 21
-96.4557
  0
LINE
  8
0
 10
26.3873
 20
-96.4557
 11
27.8991
 21
-96.0294
  0
LINE
  8
0
 10
27.8991
 20
-96.0294
 11
29.404
 21
-95.5793
  0
LINE
  8
0
 10
29.404
 20
-95.5793
 11
30.9017
 21
-95.1056
  0
LINE
  8
0
 10
30.9017
 20
-95.1056
 11
32.3917
 21
-94.6085
  0
LINE
  8
0
 10
32.3917
 20
-94.6085
 11
33.8738
 21
-94.0881
  0
LINE
  8
0
 10
33.8738
 20
-94.0881
 11
35.3475
 21
-93.5444
  0
LINE
  8
0
 10
35.3475
 20
-93.5444
 11
36.8125
 21
-92.9776
  0
LINE
  8
0
 10
36.8125
 20
-92.9776
 11
38.2683
 21
-92.3879
  0
LINE
  8
0
 10
38.2683
 20
-92.3879
 11
39.7148
 21
-91.7755
  0
LINE
  8
0
 10
39.7148
 20
-91.7755
 11
41.1514
 21
-91.1403
  0
LINE
  8
0
 10
41.1514
 20
-91.1403
 11
42.5779
 21
-90.4827
  0
LINE
  8
0
 10
42.5779
 20
-90.4827
 11
43.9939
 21
-89.8027
  0
LINE
  8
0
 10
43.9939
 20
-89.8027
 11
45.399
 21
-89.1006
  0
LINE
  8
0
 10
45.399
 20
-89.1006
 11
46.793
 21
-88.3766
  0
LINE
  8
0
 10
46.793
 20
-88.3766
 11
48.1754
 21
-87.6307
  0
LINE
  8
0
 10
48.1754
 20
-87.6307
 11
49.5459
 21
-86.8631
  0
LINE
  8
0
 10
49.5459
 20
-86.8631
 11
50.9041
 21
-86.0742
  0
LINE
  8
0
 10
50.9041
 20
-86.0742
 11
52.2498
 21
-85.264
  0
LINE
  8
0
 10
52.2498
 20
-85.264
 11
53.5827
 21
-84.4328
  0
LINE
  8
0
 10
53.5827
 20
-84.4328
 11
54.9023
 21
-83.5807
  0
LINE
  8
0
 10
54.9023
 20
-83.5807
 11
56.2083
 21
-82.7081
  0
LINE
  8
0
 10
56.2083
 20
-82.7081
 11
57.5005
 21
-81.815
  0
LINE
  8
0
 10
57.5005
 20
-81.815
 11
58.7785
 21
-80.9017
  0
LINE
  8
0
 10
58.7785
 20
-80.9017
 11
60.042
 21
-79.9685
  0
LINE
  8
0
 10
60.042
 20
-79.9685
 11
61.2907
 21
-79.0155
  0
LINE
  8
0
 10
61.2907
 20
-79.0155
 11
62.5243
 21
-78.043
  0
LINE
  8
0
 10
62.5243
 20
-78.043
 11
62.7262
 21
-77.8786
  0
LINE
  8
0
 10
62.7262
 20
-77.8786
 11
62.7262
 21
-18.0001
  0
LINE
  8
0
 10
62.7262
 20
-18.0001
 11
59.1184
 21
-18.0001
  0
LINE
  8
0
 10
-57.7262
 20
30.5
 11
-57.7262
 21
34.5
  0
LINE
  8
0
 10
-57.7262
 20
34.5
 11
-55.7262
 21
34.5
  0
LINE
  8
0
 10
-55.7262
 20
34.5
 11
-55.7262
 21
30.5
  0
LINE
  8
0
 10
-55.7262
 20
30.5
 11
-57.7262
 21
30.5
  0
LINE
  8
0
 10
55.7262
 20
30.5
 11
55.7262
 21
34.5
  0
LINE
  8
0
 10
55.7262
 20
34.5
 11
57.7262
 21
34.5
  0
LINE
  8
0
 10
57.7262
 20
34.5
 11
57.7262
 21
30.5
  0
LINE
  8
0
 10
57.7262
 20
30.5
 11
55.7262
 21
30.5
  0
LINE
  8
0
 10
-45.3363
 20
18.6665
 11
-45.3364
 21
31.5
  0
LINE
  8
0
 10
-45.3364
 20
31.5
 11
-41.586
 21
31.5001
  0
LINE
  8
0
 10
-41.586
 20
31.5001
 11
-41.586
 21
18.6665
  0
LINE
  8
0
 10
-41.586
 20
18.6665
 11
-45.3363
 21
18.6665
  0
LINE
  8
0
 10
41.586
 20
18.6665
 11
41.5859
 21
31.5
  0
LINE
  8
0
 10
41.5859
 20
31.5
 11
45.3363
 21
31.5001
  0
LINE
  8
0
 10
45.3363
 20
31.5001
 11
45.3363
 21
18.6665
  0
LINE
  8
0
 10
45.3363
 20
18.6665
 11
41.586
 21
18.6665
  0
LINE
  8
0
 10
-28.1963
 20
1.20384
 11
-28.3923
 21
1.21541
  0
LINE
  8
0
 10
-28.3923
 20
1.21541
 11
-28.5877
 21
1.23465
  0
LINE
  8
0
 10
-28.5877
 20
1.23465
 11
-28.7822
 21
1.26155
  0
LINE
  8
0
 10
-28.7822
 20
1.26155
 11
-28.9754
 21
1.29607
  0
LINE
  8
0
 10
-28.9754
 20
1.29607
 11
-29.1672
 21
1.33815
  0
LINE
  8
0
 10
-29.1672
 20
1.33815
 11
-29.3572
 21
1.38771
  0
LINE
  8
0
 10
-29.3572
 20
1.38771
 11
-29.5451
 21
1.44472
  0
LINE
  8
0
 10
-29.5451
 20
1.44472
 11
-29.7306
 21
1.50903
  0
LINE
  8
0
 10
-29.7306
 20
1.50903
 11
-29.9134
 21
1.5806
  0
LINE
  8
0
 10
-29.9134
 20
1.5806
 11
-30.0933
 21
1.65927
  0
LINE
  8
0
 10
-30.0933
 20
1.65927
 11
-30.2699
 21
1.74496
  0
LINE
  8
0
 10
-30.2699
 20
1.74496
 11
-30.4431
 21
1.83751
  0
LINE
  8
0
 10
-30.4431
 20
1.83751
 11
-30.6125
 21
1.9368
  0
LINE
  8
0
 10
-30.6125
 20
1.9368
 11
-30.7778
 21
2.04265
  0
LINE
  8
0
 10
-30.7778
 20
2.04265
 11
-30.9389
 21
2.15491
  0
LINE
  8
0
 10
-30.9389
 20
2.15491
 11
-31.0955
 21
2.27341
  0
LINE
  8
0
 10
-31.0955
 20
2.27341
 11
-31.2472
 21
2.39796
  0
LINE
  8
0
 10
-31.2472
 20
2.39796
 11
-31.394
 21
2.52838
  0
LINE
  8
0
 10
-31.394
 20
2.52838
 11
-31.5355
 21
2.66446
  0
LINE
  8
0
 10
-31.5355
 20
2.66446
 11
-31.6716
 21
2.80598
  0
LINE
  8
0
 10
-31.6716
 20
2.80598
 11
-31.802
 21
2.95276
  0
LINE
  8
0
 10
-31.802
 20
2.95276
 11
-31.9266
 21
3.10452
  0
LINE
  8
0
 10
-31.9266
 20
3.10452
 11
-32.0451
 21
3.26106
  0
LINE
  8
0
 10
-32.0451
 20
3.26106
 11
-32.1573
 21
3.42213
  0
LINE
  8
0
 10
-32.1573
 20
3.42213
 11
-32.2632
 21
3.58749
  0
LINE
  8
0
 10
-32.2632
 20
3.58749
 11
-32.3625
 21
3.75688
  0
LINE
  8
0
 10
-32.3625
 20
3.75688
 11
-32.455
 21
3.93004
  0
LINE
  8
0
 10
-32.455
 20
3.93004
 11
-32.5407
 21
4.10669
  0
LINE
  8
0
 10
-32.5407
 20
4.10669
 11
-32.6194
 21
4.28658
  0
LINE
  8
0
 10
-32.6194
 20
4.28658
 11
-32.6909
 21
4.46941
  0
LINE
  8
0
 10
-32.6909
 20
4.46941
 11
-32.7553
 21
4.65491
  0
LINE
  8
0
 10
-32.7553
 20
4.65491
 11
-32.8123
 21
4.84279
  0
LINE
  8
0
 10
-32.8123
 20
4.84279
 11
-32.8618
 21
5.03276
  0
LINE
  8
0
 10
-32.8618
 20
5.03276
 11
-32.9039
 21
5.22455
  0
LINE
  8
0
 10
-32.9039
 20
5.22455
 11
-32.9384
 21
5.41782
  0
LINE
  8
0
 10
-32.9384
 20
5.41782
 11
-32.9653
 21
5.6123
  0
LINE
  8
0
 10
-32.9653
 20
5.6123
 11
-32.9846
 21
5.80769
  0
LINE
  8
0
 10
-32.9846
 20
5.80769
 11
-32.9961
 21
6.00369
  0
LINE
  8
0
 10
-32.9961
 20
6.00369
 11
-33
 21
6.2
  0
LINE
  8
0
 10
-33
 20
6.2
 11
-33
 21
26.2
  0
LINE
  8
0
 10
-33
 20
26.2
 11
-32.9961
 21
26.3963
  0
LINE
  8
0
 10
-32.9961
 20
26.3963
 11
-32.9846
 21
26.5923
  0
LINE
  8
0
 10
-32.9846
 20
26.5923
 11
-32.9653
 21
26.7877
  0
LINE
  8
0
 10
-32.9653
 20
26.7877
 11
-32.9384
 21
26.9822
  0
LINE
  8
0
 10
-32.9384
 20
26.9822
 11
-32.9039
 21
27.1754
  0
LINE
  8
0
 10
-32.9039
 20
27.1754
 11
-32.8618
 21
27.3672
  0
LINE
  8
0
 10
-32.8618
 20
27.3672
 11
-32.8123
 21
27.5572
  0
LINE
  8
0
 10
-32.8123
 20
27.5572
 11
-32.7553
 21
27.7451
  0
LINE
  8
0
 10
-32.7553
 20
27.7451
 11
-32.6909
 21
27.9306
  0
LINE
  8
0
 10
-32.6909
 20
27.9306
 11
-32.6194
 21
28.1134
  0
LINE
  8
0
 10
-32.6194
 20
28.1134
 11
-32.5407
 21
28.2933
  0
LINE
  8
0
 10
-32.5407
 20
28.2933
 11
-32.455
 21
28.4699
  0
LINE
  8
0
 10
-32.455
 20
28.4699
 11
-32.3625
 21
28.6431
  0
LINE
  8
0
 10
-32.3625
 20
28.6431
 11
-32.2632
 21
28.8125
  0
LINE
  8
0
 10
-32.2632
 20
28.8125
 11
-32.1573
 21
28.9778
  0
LINE
  8
0
 10
-32.1573
 20
28.9778
 11
-32.0451
 21
29.1389
  0
LINE
  8
0
 10
-32.0451
 20
29.1389
 11
-31.9266
 21
29.2955
  0
LINE
  8
0
 10
-31.9266
 20
29.2955
 11
-31.802
 21
29.4472
  0
LINE
  8
0
 10
-31.802
 20
29.4472
 11
-31.6716
 21
29.594
  0
LINE
  8
0
 10
-31.6716
 20
29.594
 11
-31.5355
 21
29.7355
  0
LINE
  8
0
 10
-31.5355
 20
29.7355
 11
-31.394
 21
29.8716
  0
LINE
  8
0
 10
-31.394
 20
29.8716
 11
-31.2472
 21
30.002
  0
LINE
  8
0
 10
-31.2472
 20
30.002
 11
-31.0955
 21
30.1266
  0
LINE
  8
0
 10
-31.0955
 20
30.1266
 11
-30.9389
 21
30.2451
  0
LINE
  8
0
 10
-30.9389
 20
30.2451
 11
-30.7778
 21
30.3573
  0
LINE
  8
0
 10
-30.7778
 20
30.3573
 11
-30.6125
 21
30.4632
  0
LINE
  8
0
 10
-30.6125
 20
30.4632
 11
-30.4431
 21
30.5625
  0
LINE
  8
0
 10
-30.4431
 20
30.5625
 11
-30.2699
 21
30.655
  0
LINE
  8
0
 10
-30.2699
 20
30.655
 11
-30.0933
 21
30.7407
  0
LINE
  8
0
 10
-30.0933
 20
30.7407
 11
-29.9134
 21
30.8194
  0
LINE
  8
0
 10
-29.9134
 20
30.8194
 11
-29.7306
 21
30.8909
  0
LINE
  8
0
 10
-29.7306
 20
30.8909
 11
-29.5451
 21
30.9553
  0
LINE
  8
0
 10
-29.5451
 20
30.9553
 11
-29.3572
 21
31.0123
  0
LINE
  8
0
 10
-29.3572
 20
31.0123
 11
-29.1672
 21
31.0618
  0
LINE
  8
0
 10
-29.1672
 20
31.0618
 11
-28.9754
 21
31.1039
  0
LINE
  8
0
 10
-28.9754
 20
31.1039
 11
-28.7822
 21
31.1384
  0
LINE
  8
0
 10
-28.7822
 20
31.1384
 11
-28.5877
 21
31.1653
  0
LINE
  8
0
 10
-28.5877
 20
31.1653
 11
-28.3923
 21
31.1846
  0
LINE
  8
0
 10
-28.3923
 20
31.1846
 11
-28.1963
 21
31.1961
  0
LINE
  8
0
 10
-28.1963
 20
31.1961
 11
-28
 21
31.2
  0
LINE
  8
0
 10
-28
 20
31.2
 11
-27.8037
 21
31.1961
  0
LINE
  8
0
 10
-27.8037
 20
31.1961
 11
-27.6077
 21
31.1846
  0
LINE
  8
0
 10
-27.6077
 20
31.1846
 11
-27.4123
 21
31.1653
  0
LINE
  8
0
 10
-27.4123
 20
31.1653
 11
-27.2178
 21
31.1384
  0
LINE
  8
0
 10
-27.2178
 20
31.1384
 11
-27.0245
 21
31.1039
  0
LINE
  8
0
 10
-27.0245
 20
31.1039
 11
-26.8328
 21
31.0618
  0
LINE
  8
0
 10
-26.8328
 20
31.0618
 11
-26.6428
 21
31.0123
  0
LINE
  8
0
 10
-26.6428
 20
31.0123
 11
-26.4549
 21
30.9553
  0
LINE
  8
0
 10
-26.4549
 20
30.9553
 11
-26.2694
 21
30.8909
  0
LINE
  8
0
 10
-26.2694
 20
30.8909
 11
-26.0866
 21
30.8194
  0
LINE
  8
0
 10
-26.0866
 20
30.8194
 11
-25.9067
 21
30.7407
  0
LINE
  8
0
 10
-25.9067
 20
30.7407
 11
-25.73
 21
30.655
  0
LINE
  8
0
 10
-25.73
 20
30.655
 11
-25.5569
 21
30.5625
  0
LINE
  8
0
 10
-25.5569
 20
30.5625
 11
-25.3875
 21
30.4632
  0
LINE
  8
0
 10
-25.3875
 20
30.4632
 11
-25.2221
 21
30.3573
  0
LINE
  8
0
 10
-25.2221
 20
30.3573
 11
-25.0611
 21
30.2451
  0
LINE
  8
0
 10
-25.0611
 20
30.2451
 11
-24.9045
 21
30.1266
  0
LINE
  8
0
 10
-24.9045
 20
30.1266
 11
-24.7527
 21
30.002
  0
LINE
  8
0
 10
-24.7527
 20
30.002
 11
-24.606
 21
29.8716
  0
LINE
  8
0
 10
-24.606
 20
29.8716
 11
-24.4645
 21
29.7355
  0
LINE
  8
0
 10
-24.4645
 20
29.7355
 11
-24.3284
 21
29.594
  0
LINE
  8
0
 10
-24.3284
 20
29.594
 11
-24.198
 21
29.4472
  0
LINE
  8
0
 10
-24.198
 20
29.4472
 11
-24.0734
 21
29.2955
  0
LINE
  8
0
 10
-24.0734
 20
29.2955
 11
-23.9549
 21
29.1389
  0
LINE
  8
0
 10
-23.9549
 20
29.1389
 11
-23.8427
 21
28.9778
  0
LINE
  8
0
 10
-23.8427
 20
28.9778
 11
-23.7368
 21
28.8125
  0
LINE
  8
0
 10
-23.7368
 20
28.8125
 11
-23.6375
 21
28.6431
  0
LINE
  8
0
 10
-23.6375
 20
28.6431
 11
-23.545
 21
28.4699
  0
LINE
  8
0
 10
-23.545
 20
28.4699
 11
-23.4593
 21
28.2933
  0
LINE
  8
0
 10
-23.4593
 20
28.2933
 11
-23.3806
 21
28.1134
  0
LINE
  8
0
 10
-23.3806
 20
28.1134
 11
-23.309
 21
27.9306
  0
LINE
  8
0
 10
-23.309
 20
27.9306
 11
-23.2447
 21
27.7451
  0
LINE
  8
0
 10
-23.2447
 20
27.7451
 11
-23.1877
 21
27.5572
  0
LINE
  8
0
 10
-23.1877
 20
27.5572
 11
-23.1381
 21
27.3672
  0
LINE
  8
0
 10
-23.1381
 20
27.3672
 11
-23.0961
 21
27.1754
  0
LINE
  8
0
 10
-23.0961
 20
27.1754
 11
-23.0616
 21
26.9822
  0
LINE
  8
0
 10
-23.0616
 20
26.9822
 11
-23.0347
 21
26.7877
  0
LINE
  8
0
 10
-23.0347
 20
26.7877
 11
-23.0154
 21
26.5923
  0
LINE
  8
0
 10
-23.0154
 20
26.5923
 11
-23.0038
 21
26.3963
  0
LINE
  8
0
 10
-23.0038
 20
26.3963
 11
-23
 21
26.2
  0
LINE
  8
0
 10
-23
 20
26.2
 11
-23
 21
6.2
  0
LINE
  8
0
 10
-23
 20
6.2
 11
-23.0038
 21
6.00369
  0
LINE
  8
0
 10
-23.0038
 20
6.00369
 11
-23.0154
 21
5.80769
  0
LINE
  8
0
 10
-23.0154
 20
5.80769
 11
-23.0347
 21
5.6123
  0
LINE
  8
0
 10
-23.0347
 20
5.6123
 11
-23.0616
 21
5.41782
  0
LINE
  8
0
 10
-23.0616
 20
5.41782
 11
-23.0961
 21
5.22455
  0
LINE
  8
0
 10
-23.0961
 20
5.22455
 11
-23.1381
 21
5.03276
  0
LINE
  8
0
 10
-23.1381
 20
5.03276
 11
-23.1877
 21
4.84279
  0
LINE
  8
0
 10
-23.1877
 20
4.84279
 11
-23.2447
 21
4.65491
  0
LINE
  8
0
 10
-23.2447
 20
4.65491
 11
-23.309
 21
4.46941
  0
LINE
  8
0
 10
-23.309
 20
4.46941
 11
-23.3806
 21
4.28658
  0
LINE
  8
0
 10
-23.3806
 20
4.28658
 11
-23.4593
 21
4.10669
  0
LINE
  8
0
 10
-23.4593
 20
4.10669
 11
-23.545
 21
3.93004
  0
LINE
  8
0
 10
-23.545
 20
3.93004
 11
-23.6375
 21
3.75688
  0
LINE
  8
0
 10
-23.6375
 20
3.75688
 11
-23.7368
 21
3.58749
  0
LINE
  8
0
 10
-23.7368
 20
3.58749
 11
-23.8427
 21
3.42213
  0
LINE
  8
0
 10
-23.8427
 20
3.42213
 11
-23.9549
 21
3.26106
  0
LINE
  8
0
 10
-23.9549
 20
3.26106
 11
-24.0734
 21
3.10452
  0
LINE
  8
0
 10
-24.0734
 20
3.10452
 11
-24.198
 21
2.95276
  0
LINE
  8
0
 10
-24.198
 20
2.95276
 11
-24.3284
 21
2.80598
  0
LINE
  8
0
 10
-24.3284
 20
2.80598
 11
-24.4645
 21
2.66446
  0
LINE
  8
0
 10
-24.4645
 20
2.66446
 11
-24.606
 21
2.52838
  0
LINE
  8
0
 10
-24.606
 20
2.52838
 11
-24.7527
 21
2.39796
  0
LINE
  8
0
 10
-24.7527
 20
2.39796
 11
-24.9045
 21
2.27341
  0
LINE
  8
0
 10
-24.9045
 20
2.27341
 11
-25.0611
 21
2.15491
  0
LINE
  8
0
 10
-25.0611
 20
2.15491
 11
-25.2221
 21
2.04265
  0
LINE
  8
0
 10
-25.2221
 20
2.04265
 11
-25.3875
 21
1.9368
  0
LINE
  8
0
 10
-25.3875
 20
1.9368
 11
-25.5569
 21
1.83751
  0
LINE
  8
0
 10
-25.5569
 20
1.83751
 11
-25.73
 21
1.74496
  0
LINE
  8
0
 10
-25.73
 20
1.74496
 11
-25.9067
 21
1.65927
  0
LINE
  8
0
 10
-25.9067
 20
1.65927
 11
-26.0866
 21
1.5806
  0
LINE
  8
0
 10
-26.0866
 20
1.5806
 11
-26.2694
 21
1.50903
  0
LINE
  8
0
 10
-26.2694
 20
1.50903
 11
-26.4549
 21
1.44472
  0
LINE
  8
0
 10
-26.4549
 20
1.44472
 11
-26.6428
 21
1.38771
  0
LINE
  8
0
 10
-26.6428
 20
1.38771
 11
-26.8328
 21
1.33815
  0
LINE
  8
0
 10
-26.8328
 20
1.33815
 11
-27.0245
 21
1.29607
  0
LINE
  8
0
 10
-27.0245
 20
1.29607
 11
-27.2178
 21
1.26155
  0
LINE
  8
0
 10
-27.2178
 20
1.26155
 11
-27.4123
 21
1.23465
  0
LINE
  8
0
 10
-27.4123
 20
1.23465
 11
-27.6077
 21
1.21541
  0
LINE
  8
0
 10
-27.6077
 20
1.21541
 11
-27.8037
 21
1.20384
  0
LINE
  8
0
 10
-27.8037
 20
1.20384
 11
-28
 21
1.2
  0
LINE
  8
0
 10
-28
 20
1.2
 11
-28.1963
 21
1.20384
  0
LINE
  8
0
 10
27.8037
 20
1.20384
 11
27.6077
 21
1.21541
  0
LINE
  8
0
 10
27.6077
 20
1.21541
 11
27.4123
 21
1.23465
  0
LINE
  8
0
 10
27.4123
 20
1.23465
 11
27.2178
 21
1.26155
  0
LINE
  8
0
 10
27.2178
 20
1.26155
 11
27.0245
 21
1.29607
  0
LINE
  8
0
 10
27.0245
 20
1.29607
 11
26.8328
 21
1.33815
  0
LINE
  8
0
 10
26.8328
 20
1.33815
 11
26.6428
 21
1.38771
  0
LINE
  8
0
 10
26.6428
 20
1.38771
 11
26.4549
 21
1.44472
  0
LINE
  8
0
 10
26.4549
 20
1.44472
 11
26.2694
 21
1.50903
  0
LINE
  8
0
 10
26.2694
 20
1.50903
 11
26.0866
 21
1.5806
  0
LINE
  8
0
 10
26.0866
 20
1.5806
 11
25.9067
 21
1.65927
  0
LINE
  8
0
 10
25.9067
 20
1.65927
 11
25.73
 21
1.74496
  0
LINE
  8
0
 10
25.73
 20
1.74496
 11
25.5569
 21
1.83751
  0
LINE
  8
0
 10
25.5569
 20
1.83751
 11
25.3875
 21
1.9368
  0
LINE
  8
0
 10
25.3875
 20
1.9368
 11
25.2221
 21
2.04265
  0
LINE
  8
0
 10
25.2221
 20
2.04265
 11
25.0611
 21
2.15491
  0
LINE
  8
0
 10
25.0611
 20
2.15491
 11
24.9045
 21
2.27341
  0
LINE
  8
0
 10
24.9045
 20
2.27341
 11
24.7527
 21
2.39796
  0
LINE
  8
0
 10
24.7527
 20
2.39796
 11
24.606
 21
2.52838
  0
LINE
  8
0
 10
24.606
 20
2.52838
 11
24.4645
 21
2.66446
  0
LINE
  8
0
 10
24.4645
 20
2.66446
 11
24.3284
 21
2.80598
  0
LINE
  8
0
 10
24.3284
 20
2.80598
 11
24.198
 21
2.95276
  0
LINE
  8
0
 10
24.198
 20
2.95276
 11
24.0734
 21
3.10452
  0
LINE
  8
0
 10
24.0734
 20
3.10452
 11
23.9549
 21
3.26106
  0
LINE
  8
0
 10
23.9549
 20
3.26106
 11
23.8427
 21
3.42213
  0
LINE
  8
0
 10
23.8427
 20
3.42213
 11
23.7368
 21
3.58749
  0
LINE
  8
0
 10
23.7368
 20
3.58749
 11
23.6375
 21
3.75688
  0
LINE
  8
0
 10
23.6375
 20
3.75688
 11
23.545
 21
3.93004
  0
LINE
  8
0
 10
23.545
 20
3.93004
 11
23.4593
 21
4.10669
  0
LINE
  8
0
 10
23.4593
 20
4.10669
 11
23.3806
 21
4.28658
  0
LINE
  8
0
 10
23.3806
 20
4.28658
 11
23.309
 21
4.46941
  0
LINE
  8
0
 10
23.309
 20
4.46941
 11
23.2447
 21
4.65491
  0
LINE
  8
0
 10
23.2447
 20
4.65491
 11
23.1877
 21
4.84279
  0
LINE
  8
0
 10
23.1877
 20
4.84279
 11
23.1381
 21
5.03276
  0
LINE
  8
0
 10
23.1381
 20
5.03276
 11
23.0961
 21
5.22455
  0
LINE
  8
0
 10
23.0961
 20
5.22455
 11
23.0616
 21
5.41782
  0
LINE
  8
0
 10
23.0616
 20
5.41782
 11
23.0347
 21
5.6123
  0
LINE
  8
0
 10
23.0347
 20
5.6123
 11
23.0154
 21
5.80769
  0
LINE
  8
0
 10
23.0154
 20
5.80769
 11
23.0038
 21
6.00369
  0
LINE
  8
0
 10
23.0038
 20
6.00369
 11
23
 21
6.2
  0
LINE
  8
0
 10
23
 20
6.2
 11
23
 21
26.2
  0
LINE
  8
0
 10
23
 20
26.2
 11
23.0038
 21
26.3963
  0
LINE
  8
0
 10
23.0038
 20
26.3963
 11
23.0154
 21
26.5923
  0
LINE
  8
0
 10
23.0154
 20
26.5923
 11
23.0347
 21
26.7877
  0
LINE
  8
0
 10
23.0347
 20
26.7877
 11
23.0616
 21
26.9822
  0
LINE
  8
0
 10
23.0616
 20
26.9822
 11
23.0961
 21
27.1754
  0
LINE
  8
0
 10
23.0961
 20
27.1754
 11
23.1381
 21
27.3672
  0
LINE
  8
0
 10
23.1381
 20
27.3672
 11
23.1877
 21
27.5572
  0
LINE
  8
0
 10
23.1877
 20
27.5572
 11
23.2447
 21
27.7451
  0
LINE
  8
0
 10
23.2447
 20
27.7451
 11
23.309
 21
27.9306
  0
LINE
  8
0
 10
23.309
 20
27.9306
 11
23.3806
 21
28.1134
  0
LINE
  8
0
 10
23.3806
 20
28.1134
 11
23.4593
 21
28.2933
  0
LINE
  8
0
 10
23.4593
 20
28.2933
 11
23.545
 21
28.4699
  0
LINE
  8
0
 10
23.545
 20
28.4699
 11
23.6375
 21
28.6431
  0
LINE
  8
0
 10
23.6375
 20
28.6431
 11
23.7368
 21
28.8125
  0
LINE
  8
0
 10
23.7368
 20
28.8125
 11
23.8427
 21
28.9778
  0
LINE
  8
0
 10
23.8427
 20
28.9778
 11
23.9549
 21
29.1389
  0
LINE
  8
0
 10
23.9549
 20
29.1389
 11
24.0734
 21
29.2955
  0
LINE
  8
0
 10
24.0734
 20
29.2955
 11
24.198
 21
29.4472
  0
LINE
  8
0
 10
24.198
 20
29.4472
 11
24.3284
 21
29.594
  0
LINE
  8
0
 10
24.3284
 20
29.594
 11
24.4645
 21
29.7355
  0
LINE
  8
0
 10
24.4645
 20
29.7355
 11
24.606
 21
29.8716
  0
LINE
  8
0
 10
24.606
 20
29.8716
 11
24.7527
 21
30.002
  0
LINE
  8
0
 10
24.7527
 20
30.002
 11
24.9045
 21
30.1266
  0
LINE
  8
0
 10
24.9045
 20
30.1266
 11
25.0611
 21
30.2451
  0
LINE
  8
0
 10
25.0611
 20
30.2451
 11
25.2221
 21
30.3573
  0
LINE
  8
0
 10
25.2221
 20
30.3573
 11
25.3875
 21
30.4632
  0
LINE
  8
0
 10
25.3875
 20
30.4632
 11
25.5569
 21
30.5625
  0
LINE
  8
0
 10
25.5569
 20
30.5625
 11
25.73
 21
30.655
  0
LINE
  8
0
 10
25.73
 20
30.655
 11
25.9067
 21
30.7407
  0
LINE
  8
0
 10
25.9067
 20
30.7407
 11
26.0866
 21
30.8194
  0
LINE
  8
0
 10
26.0866
 20
30.8194
 11
26.2694
 21
30.8909
  0
LINE
  8
0
 10
26.2694
 20
30.8909
 11
26.4549
 21
30.9553
  0
LINE
  8
0
 10
26.4549
 20
30.9553
 11
26.6428
 21
31.0123
  0
LINE
  8
0
 10
26.6428
 20
31.0123
 11
26.8328
 21
31.0618
  0
LINE
  8
0
 10
26.8328
 20
31.0618
 11
27.0245
 21
31.1039
  0
LINE
  8
0
 10
27.0245
 20
31.1039
 11
27.2178
 21
31.1384
  0
LINE
  8
0
 10
27.2178
 20
31.1384
 11
27.4123
 21
31.1653
  0
LINE
  8
0
 10
27.4123
 20
31.1653
 11
27.6077
 21
31.1846
  0
LINE
  8
0
 10
27.6077
 20
31.1846
 11
27.8037
 21
31.1961
  0
LINE
  8
0
 10
27.8037
 20
31.1961
 11
28
 21
31.2
  0
LINE
  8
0
 10
28
 20
31.2
 11
28.1963
 21
31.1961
  0
LINE
  8
0
 10
28.1963
 20
31.1961
 11
28.3923
 21
31.1846
  0
LINE
  8
0
 10
28.3923
 20
31.1846
 11
28.5877
 21
31.1653
  0
LINE
  8
0
 10
28.5877
 20
31.1653
 11
28.7822
 21
31.1384
  0
LINE
  8
0
 10
28.7822
 20
31.1384
 11
28.9754
 21
31.1039
  0
LINE
  8
0
 10
28.9754
 20
31.1039
 11
29.1672
 21
31.0618
  0
LINE
  8
0
 10
29.1672
 20
31.0618
 11
29.3572
 21
31.0123
  0
LINE
  8
0
 10
29.3572
 20
31.0123
 11
29.5451
 21
30.9553
  0
LINE
  8
0
 10
29.5451
 20
30.9553
 11
29.7306
 21
30.8909
  0
LINE
  8
0
 10
29.7306
 20
30.8909
 11
29.9134
 21
30.8194
  0
LINE
  8
0
 10
29.9134
 20
30.8194
 11
30.0933
 21
30.7407
  0
LINE
  8
0
 10
30.0933
 20
30.7407
 11
30.2699
 21
30.655
  0
LINE
  8
0
 10
30.2699
 20
30.655
 11
30.4431
 21
30.5625
  0
LINE
  8
0
 10
30.4431
 20
30.5625
 11
30.6125
 21
30.4632
  0
LINE
  8
0
 10
30.6125
 20
30.4632
 11
30.7778
 21
30.3573
  0
LINE
  8
0
 10
30.7778
 20
30.3573
 11
30.9389
 21
30.2451
  0
LINE
  8
0
 10
30.9389
 20
30.2451
 11
31.0955
 21
30.1266
  0
LINE
  8
0
 10
31.0955
 20
30.1266
 11
31.2472
 21
30.002
  0
LINE
  8
0
 10
31.2472
 20
30.002
 11
31.394
 21
29.8716
  0
LINE
  8
0
 10
31.394
 20
29.8716
 11
31.5355
 21
29.7355
  0
LINE
  8
0
 10
31.5355
 20
29.7355
 11
31.6716
 21
29.594
  0
LINE
  8
0
 10
31.6716
 20
29.594
 11
31.802
 21
29.4472
  0
LINE
  8
0
 10
31.802
 20
29.4472
 11
31.9266
 21
29.2955
  0
LINE
  8
0
 10
31.9266
 20
29.2955
 11
32.0451
 21
29.1389
  0
LINE
  8
0
 10
32.0451
 20
29.1389
 11
32.1573
 21
28.9778
  0
LINE
  8
0
 10
32.1573
 20
28.9778
 11
32.2632
 21
28.8125
  0
LINE
  8
0
 10
32.2632
 20
28.8125
 11
32.3625
 21
28.6431
  0
LINE
  8
0
 10
32.3625
 20
28.6431
 11
32.455
 21
28.4699
  0
LINE
  8
0
 10
32.455
 20
28.4699
 11
32.5407
 21
28.2933
  0
LINE
  8
0
 10
32.5407
 20
28.2933
 11
32.6194
 21
28.1134
  0
LINE
  8
0
 10
32.6194
 20
28.1134
 11
32.6909
 21
27.9306
  0
LINE
  8
0
 10
32.6909
 20
27.9306
 11
32.7553
 21
27.7451
  0
LINE
  8
0
 10
32.7553
 20
27.7451
 11
32.8123
 21
27.5572
  0
LINE
  8
0
 10
32.8123
 20
27.5572
 11
32.8618
 21
27.3672
  0
LINE
  8
0
 10
32.8618
 20
27.3672
 11
32.9039
 21
27.1754
  0
LINE
  8
0
 10
32.9039
 20
27.1754
 11
32.9384
 21
26.9822
  0
LINE
  8
0
 10
32.9384
 20
26.9822
 11
32.9653
 21
26.7877
  0
LINE
  8
0
 10
32.9653
 20
26.7877
 11
32.9846
 21
26.5923
  0
LINE
  8
0
 10
32.9846
 20
26.5923
 11
32.9961
 21
26.3963
  0
LINE
  8
0
 10
32.9961
 20
26.3963
 11
33
 21
26.2
  0
LINE
  8
0
 10
33
 20
26.2
 11
33
 21
6.2
  0
LINE
  8
0
 10
33
 20
6.2
 11
32.9961
 21
6.00369
  0
LINE
  8
0
 10
32.9961
 20
6.00369
 11
32.9846
 21
5.80769
  0
LINE
  8
0
 10
32.9846
 20
5.80769
 11
32.9653
 21
5.6123
  0
LINE
  8
0
 10
32.9653
 20
5.6123
 11
32.9384
 21
5.41782
  0
LINE
  8
0
 10
32.9384
 20
5.41782
 11
32.9039
 21
5.22455
  0
LINE
  8
0
 10
32.9039
 20
5.22455
 11
32.8618
 21
5.03276
  0
LINE
  8
0
 10
32.8618
 20
5.03276
 11
32.8123
 21
4.84279
  0
LINE
  8
0
 10
32.8123
 20
4.84279
 11
32.7553
 21
4.65491
  0
LINE
  8
0
 10
32.7553
 20
4.65491
 11
32.6909
 21
4.46941
  0
LINE
  8
0
 10
32.6909
 20
4.46941
 11
32.6194
 21
4.28658
  0
LINE
  8
0
 10
32.6194
 20
4.28658
 11
32.5407
 21
4.10669
  0
LINE
  8
0
 10
32.5407
 20
4.10669
 11
32.455
 21
3.93004
  0
LINE
  8
0
 10
32.455
 20
3.93004
 11
32.3625
 21
3.75688
  0
LINE
  8
0
 10
32.3625
 20
3.75688
 11
32.2632
 21
3.58749
  0
LINE
  8
0
 10
32.2632
 20
3.58749
 11
32.1573
 21
3.42213
  0
LINE
  8
0
 10
32.1573
 20
3.42213
 11
32.0451
 21
3.26106
  0
LINE
  8
0
 10
32.0451
 20
3.26106
 11
31.9266
 21
3.10452
  0
LINE
  8
0
 10
31.9266
 20
3.10452
 11
31.802
 21
2.95276
  0
LINE
  8
0
 10
31.802
 20
2.95276
 11
31.6716
 21
2.80598
  0
LINE
  8
0
 10
31.6716
 20
2.80598
 11
31.5355
 21
2.66446
  0
LINE
  8
0
 10
31.5355
 20
2.66446
 11
31.394
 21
2.52838
  0
LINE
  8
0
 10
31.394
 20
2.52838
 11
31.2472
 21
2.39796
  0
LINE
  8
0
 10
31.2472
 20
2.39796
 11
31.0955
 21
2.27341
  0
LINE
  8
0
 10
31.0955
 20
2.27341
 11
30.9389
 21
2.15491
  0
LINE
  8
0
 10
30.9389
 20
2.15491
 11
30.7778
 21
2.04265
  0
LINE
  8
0
 10
30.7778
 20
2.04265
 11
30.6125
 21
1.9368
  0
LINE
  8
0
 10
30.6125
 20
1.9368
 11
30.4431
 21
1.83751
  0
LINE
  8
0
 10
30.4431
 20
1.83751
 11
30.2699
 21
1.74496
  0
LINE
  8
0
 10
30.2699
 20
1.74496
 11
30.0933
 21
1.65927
  0
LINE
  8
0
 10
30.0933
 20
1.65927
 11
29.9134
 21
1.5806
  0
LINE
  8
0
 10
29.9134
 20
1.5806
 11
29.7306
 21
1.50903
  0
LINE
  8
0
 10
29.7306
 20
1.50903
 11
29.5451
 21
1.44472
  0
LINE
  8
0
 10
29.5451
 20
1.44472
 11
29.3572
 21
1.38771
  0
LINE
  8
0
 10
29.3572
 20
1.38771
 11
29.1672
 21
1.33815
  0
LINE
  8
0
 10
29.1672
 20
1.33815
 11
28.9754
 21
1.29607
  0
LINE
  8
0
 10
28.9754
 20
1.29607
 11
28.7822
 21
1.26155
  0
LINE
  8
0
 10
28.7822
 20
1.26155
 11
28.5877
 21
1.23465
  0
LINE
  8
0
 10
28.5877
 20
1.23465
 11
28.3923
 21
1.21541
  0
LINE
  8
0
 10
28.3923
 20
1.21541
 11
28.1963
 21
1.20384
  0
LINE
  8
0
 10
28.1963
 20
1.20384
 11
28
 21
1.2
  0
LINE
  8
0
 10
28
 20
1.2
 11
27.8037
 21
1.20384
  0
LINE
  8
0
 10
-18.5589
 20
4.70114
 11
-18.6177
 21
4.70462
  0
LINE
  8
0
 10
-18.6177
 20
4.70462
 11
-18.6763
 21
4.71039
  0
LINE
  8
0
 10
-18.6763
 20
4.71039
 11
-18.7346
 21
4.71846
  0
LINE
  8
0
 10
-18.7346
 20
4.71846
 11
-18.7926
 21
4.72882
  0
LINE
  8
0
 10
-18.7926
 20
4.72882
 11
-18.8502
 21
4.74144
  0
LINE
  8
0
 10
-18.8502
 20
4.74144
 11
-18.9072
 21
4.75632
  0
LINE
  8
0
 10
-18.9072
 20
4.75632
 11
-18.9635
 21
4.77341
  0
LINE
  8
0
 10
-18.9635
 20
4.77341
 11
-19.0192
 21
4.79271
  0
LINE
  8
0
 10
-19.0192
 20
4.79271
 11
-19.074
 21
4.81418
  0
LINE
  8
0
 10
-19.074
 20
4.81418
 11
-19.128
 21
4.83778
  0
LINE
  8
0
 10
-19.128
 20
4.83778
 11
-19.181
 21
4.86348
  0
LINE
  8
0
 10
-19.181
 20
4.86348
 11
-19.2329
 21
4.89125
  0
LINE
  8
0
 10
-19.2329
 20
4.89125
 11
-19.2837
 21
4.92104
  0
LINE
  8
0
 10
-19.2837
 20
4.92104
 11
-19.3333
 21
4.95279
  0
LINE
  8
0
 10
-19.3333
 20
4.95279
 11
-19.3817
 21
4.98647
  0
LINE
  8
0
 10
-19.3817
 20
4.98647
 11
-19.4286
 21
5.02202
  0
LINE
  8
0
 10
-19.4286
 20
5.02202
 11
-19.4742
 21
5.05939
  0
LINE
  8
0
 10
-19.4742
 20
5.05939
 11
-19.5182
 21
5.09851
  0
LINE
  8
0
 10
-19.5182
 20
5.09851
 11
-19.5607
 21
5.13933
  0
LINE
  8
0
 10
-19.5607
 20
5.13933
 11
-19.6015
 21
5.18179
  0
LINE
  8
0
 10
-19.6015
 20
5.18179
 11
-19.6406
 21
5.22581
  0
LINE
  8
0
 10
-19.6406
 20
5.22581
 11
-19.678
 21
5.27135
  0
LINE
  8
0
 10
-19.678
 20
5.27135
 11
-19.7135
 21
5.31831
  0
LINE
  8
0
 10
-19.7135
 20
5.31831
 11
-19.7472
 21
5.36664
  0
LINE
  8
0
 10
-19.7472
 20
5.36664
 11
-19.7789
 21
5.41624
  0
LINE
  8
0
 10
-19.7789
 20
5.41624
 11
-19.8087
 21
5.46706
  0
LINE
  8
0
 10
-19.8087
 20
5.46706
 11
-19.8365
 21
5.51901
  0
LINE
  8
0
 10
-19.8365
 20
5.51901
 11
-19.8622
 21
5.57201
  0
LINE
  8
0
 10
-19.8622
 20
5.57201
 11
-19.8858
 21
5.62596
  0
LINE
  8
0
 10
-19.8858
 20
5.62596
 11
-19.9073
 21
5.68082
  0
LINE
  8
0
 10
-19.9073
 20
5.68082
 11
-19.9266
 21
5.73647
  0
LINE
  8
0
 10
-19.9266
 20
5.73647
 11
-19.9437
 21
5.79283
  0
LINE
  8
0
 10
-19.9437
 20
5.79283
 11
-19.9585
 21
5.84982
  0
LINE
  8
0
 10
-19.9585
 20
5.84982
 11
-19.9712
 21
5.90736
  0
LINE
  8
0
 10
-19.9712
 20
5.90736
 11
-19.9815
 21
5.96535
  0
LINE
  8
0
 10
-19.9815
 20
5.96535
 11
-19.9896
 21
6.02368
  0
LINE
  8
0
 10
-19.9896
 20
6.02368
 11
-19.9954
 21
6.08231
  0
LINE
  8
0
 10
-19.9954
 20
6.08231
 11
-19.9988
 21
6.1411
  0
LINE
  8
0
 10
-19.9988
 20
6.1411
 11
-20
 21
6.2
  0
LINE
  8
0
 10
-20
 20
6.2
 11
-20
 21
26.2
  0
LINE
  8
0
 10
-20
 20
26.2
 11
-19.9988
 21
26.2589
  0
LINE
  8
0
 10
-19.9988
 20
26.2589
 11
-19.9954
 21
26.3177
  0
LINE
  8
0
 10
-19.9954
 20
26.3177
 11
-19.9896
 21
26.3763
  0
LINE
  8
0
 10
-19.9896
 20
26.3763
 11
-19.9815
 21
26.4346
  0
LINE
  8
0
 10
-19.9815
 20
26.4346
 11
-19.9712
 21
26.4926
  0
LINE
  8
0
 10
-19.9712
 20
26.4926
 11
-19.9585
 21
26.5502
  0
LINE
  8
0
 10
-19.9585
 20
26.5502
 11
-19.9437
 21
26.6071
  0
LINE
  8
0
 10
-19.9437
 20
26.6071
 11
-19.9266
 21
26.6635
  0
LINE
  8
0
 10
-19.9266
 20
26.6635
 11
-19.9073
 21
26.7192
  0
LINE
  8
0
 10
-19.9073
 20
26.7192
 11
-19.8858
 21
26.774
  0
LINE
  8
0
 10
-19.8858
 20
26.774
 11
-19.8622
 21
26.828
  0
LINE
  8
0
 10
-19.8622
 20
26.828
 11
-19.8365
 21
26.881
  0
LINE
  8
0
 10
-19.8365
 20
26.881
 11
-19.8087
 21
26.9329
  0
LINE
  8
0
 10
-19.8087
 20
26.9329
 11
-19.7789
 21
26.9837
  0
LINE
  8
0
 10
-19.7789
 20
26.9837
 11
-19.7472
 21
27.0333
  0
LINE
  8
0
 10
-19.7472
 20
27.0333
 11
-19.7135
 21
27.0817
  0
LINE
  8
0
 10
-19.7135
 20
27.0817
 11
-19.678
 21
27.1286
  0
LINE
  8
0
 10
-19.678
 20
27.1286
 11
-19.6406
 21
27.1742
  0
LINE
  8
0
 10
-19.6406
 20
27.1742
 11
-19.6015
 21
27.2182
  0
LINE
  8
0
 10
-19.6015
 20
27.2182
 11
-19.5607
 21
27.2607
  0
LINE
  8
0
 10
-19.5607
 20
27.2607
 11
-19.5182
 21
27.3015
  0
LINE
  8
0
 10
-19.5182
 20
27.3015
 11
-19.4742
 21
27.3406
  0
LINE
  8
0
 10
-19.4742
 20
27.3406
 11
-19.4286
 21
27.378
  0
LINE
  8
0
 10
-19.4286
 20
27.378
 11
-19.3817
 21
27.4135
  0
LINE
  8
0
 10
-19.3817
 20
27.4135
 11
-19.3333
 21
27.4472
  0
LINE
  8
0
 10
-19.3333
 20
27.4472
 11
-19.2837
 21
27.479
  0
LINE
  8
0
 10
-19.2837
 20
27.479
 11
-19.2329
 21
27.5087
  0
LINE
  8
0
 10
-19.2329
 20
27.5087
 11
-19.181
 21
27.5365
  0
LINE
  8
0
 10
-19.181
 20
27.5365
 11
-19.128
 21
27.5622
  0
LINE
  8
0
 10
-19.128
 20
27.5622
 11
-19.074
 21
27.5858
  0
LINE
  8
0
 10
-19.074
 20
27.5858
 11
-19.0192
 21
27.6073
  0
LINE
  8
0
 10
-19.0192
 20
27.6073
 11
-18.9635
 21
27.6266
  0
LINE
  8
0
 10
-18.9635
 20
27.6266
 11
-18.9072
 21
27.6437
  0
LINE
  8
0
 10
-18.9072
 20
27.6437
 11
-18.8502
 21
27.6586
  0
LINE
  8
0
 10
-18.8502
 20
27.6586
 11
-18.7926
 21
27.6712
  0
LINE
  8
0
 10
-18.7926
 20
27.6712
 11
-18.7346
 21
27.6815
  0
LINE
  8
0
 10
-18.7346
 20
27.6815
 11
-18.6763
 21
27.6896
  0
LINE
  8
0
 10
-18.6763
 20
27.6896
 11
-18.6177
 21
27.6954
  0
LINE
  8
0
 10
-18.6177
 20
27.6954
 11
-18.5589
 21
27.6988
  0
LINE
  8
0
 10
-18.5589
 20
27.6988
 11
-18.5
 21
27.7
  0
LINE
  8
0
 10
-18.5
 20
27.7
 11
-18.4411
 21
27.6988
  0
LINE
  8
0
 10
-18.4411
 20
27.6988
 11
-18.3823
 21
27.6954
  0
LINE
  8
0
 10
-18.3823
 20
27.6954
 11
-18.3237
 21
27.6896
  0
LINE
  8
0
 10
-18.3237
 20
27.6896
 11
-18.2653
 21
27.6815
  0
LINE
  8
0
 10
-18.2653
 20
27.6815
 11
-18.2074
 21
27.6712
  0
LINE
  8
0
 10
-18.2074
 20
27.6712
 11
-18.1498
 21
27.6586
  0
LINE
  8
0
 10
-18.1498
 20
27.6586
 11
-18.0928
 21
27.6437
  0
LINE
  8
0
 10
-18.0928
 20
27.6437
 11
-18.0365
 21
27.6266
  0
LINE
  8
0
 10
-18.0365
 20
27.6266
 11
-17.9808
 21
27.6073
  0
LINE
  8
0
 10
-17.9808
 20
27.6073
 11
-17.926
 21
27.5858
  0
LINE
  8
0
 10
-17.926
 20
27.5858
 11
-17.872
 21
27.5622
  0
LINE
  8
0
 10
-17.872
 20
27.5622
 11
-17.819
 21
27.5365
  0
LINE
  8
0
 10
-17.819
 20
27.5365
 11
-17.7671
 21
27.5087
  0
LINE
  8
0
 10
-17.7671
 20
27.5087
 11
-17.7162
 21
27.479
  0
LINE
  8
0
 10
-17.7162
 20
27.479
 11
-17.6666
 21
27.4472
  0
LINE
  8
0
 10
-17.6666
 20
27.4472
 11
-17.6183
 21
27.4135
  0
LINE
  8
0
 10
-17.6183
 20
27.4135
 11
-17.5714
 21
27.378
  0
LINE
  8
0
 10
-17.5714
 20
27.378
 11
-17.5258
 21
27.3406
  0
LINE
  8
0
 10
-17.5258
 20
27.3406
 11
-17.4818
 21
27.3015
  0
LINE
  8
0
 10
-17.4818
 20
27.3015
 11
-17.4393
 21
27.2607
  0
LINE
  8
0
 10
-17.4393
 20
27.2607
 11
-17.3985
 21
27.2182
  0
LINE
  8
0
 10
-17.3985
 20
27.2182
 11
-17.3594
 21
27.1742
  0
LINE
  8
0
 10
-17.3594
 20
27.1742
 11
-17.322
 21
27.1286
  0
LINE
  8
0
 10
-17.322
 20
27.1286
 11
-17.2865
 21
27.0817
  0
LINE
  8
0
 10
-17.2865
 20
27.0817
 11
-17.2528
 21
27.0333
  0
LINE
  8
0
 10
-17.2528
 20
27.0333
 11
-17.221
 21
26.9837
  0
LINE
  8
0
 10
-17.221
 20
26.9837
 11
-17.1913
 21
26.9329
  0
LINE
  8
0
 10
-17.1913
 20
26.9329
 11
-17.1635
 21
26.881
  0
LINE
  8
0
 10
-17.1635
 20
26.881
 11
-17.1378
 21
26.828
  0
LINE
  8
0
 10
-17.1378
 20
26.828
 11
-17.1142
 21
26.774
  0
LINE
  8
0
 10
-17.1142
 20
26.774
 11
-17.0927
 21
26.7192
  0
LINE
  8
0
 10
-17.0927
 20
26.7192
 11
-17.0734
 21
26.6635
  0
LINE
  8
0
 10
-17.0734
 20
26.6635
 11
-17.0563
 21
26.6071
  0
LINE
  8
0
 10
-17.0563
 20
26.6071
 11
-17.0414
 21
26.5502
  0
LINE
  8
0
 10
-17.0414
 20
26.5502
 11
-17.0288
 21
26.4926
  0
LINE
  8
0
 10
-17.0288
 20
26.4926
 11
-17.0185
 21
26.4346
  0
LINE
  8
0
 10
-17.0185
 20
26.4346
 11
-17.0104
 21
26.3763
  0
LINE
  8
0
 10
-17.0104
 20
26.3763
 11
-17.0046
 21
26.3177
  0
LINE
  8
0
 10
-17.0046
 20
26.3177
 11
-17.0011
 21
26.2589
  0
LINE
  8
0
 10
-17.0011
 20
26.2589
 11
-17
 21
26.2
  0
LINE
  8
0
 10
-17
 20
26.2
 11
-17
 21
6.2
  0
LINE
  8
0
 10
-17
 20
6.2
 11
-17.0011
 21
6.1411
  0
LINE
  8
0
 10
-17.0011
 20
6.1411
 11
-17.0046
 21
6.08231
  0
LINE
  8
0
 10
-17.0046
 20
6.08231
 11
-17.0104
 21
6.02368
  0
LINE
  8
0
 10
-17.0104
 20
6.02368
 11
-17.0185
 21
5.96535
  0
LINE
  8
0
 10
-17.0185
 20
5.96535
 11
-17.0288
 21
5.90736
  0
LINE
  8
0
 10
-17.0288
 20
5.90736
 11
-17.0414
 21
5.84982
  0
LINE
  8
0
 10
-17.0414
 20
5.84982
 11
-17.0563
 21
5.79283
  0
LINE
  8
0
 10
-17.0563
 20
5.79283
 11
-17.0734
 21
5.73647
  0
LINE
  8
0
 10
-17.0734
 20
5.73647
 11
-17.0927
 21
5.68082
  0
LINE
  8
0
 10
-17.0927
 20
5.68082
 11
-17.1142
 21
5.62596
  0
LINE
  8
0
 10
-17.1142
 20
5.62596
 11
-17.1378
 21
5.57201
  0
LINE
  8
0
 10
-17.1378
 20
5.57201
 11
-17.1635
 21
5.51901
  0
LINE
  8
0
 10
-17.1635
 20
5.51901
 11
-17.1913
 21
5.46706
  0
LINE
  8
0
 10
-17.1913
 20
5.46706
 11
-17.221
 21
5.41624
  0
LINE
  8
0
 10
-17.221
 20
5.41624
 11
-17.2528
 21
5.36664
  0
LINE
  8
0
 10
-17.2528
 20
5.36664
 11
-17.2865
 21
5.31831
  0
LINE
  8
0
 10
-17.2865
 20
5.31831
 11
-17.322
 21
5.27135
  0
LINE
  8
0
 10
-17.322
 20
5.27135
 11
-17.3594
 21
5.22581
  0
LINE
  8
0
 10
-17.3594
 20
5.22581
 11
-17.3985
 21
5.18179
  0
LINE
  8
0
 10
-17.3985
 20
5.18179
 11
-17.4393
 21
5.13933
  0
LINE
  8
0
 10
-17.4393
 20
5.13933
 11
-17.4818
 21
5.09851
  0
LINE
  8
0
 10
-17.4818
 20
5.09851
 11
-17.5258
 21
5.05939
  0
LINE
  8
0
 10
-17.5258
 20
5.05939
 11
-17.5714
 21
5.02202
  0
LINE
  8
0
 10
-17.5714
 20
5.02202
 11
-17.6183
 21
4.98647
  0
LINE
  8
0
 10
-17.6183
 20
4.98647
 11
-17.6666
 21
4.95279
  0
LINE
  8
0
 10
-17.6666
 20
4.95279
 11
-17.7162
 21
4.92104
  0
LINE
  8
0
 10
-17.7162
 20
4.92104
 11
-17.7671
 21
4.89125
  0
LINE
  8
0
 10
-17.7671
 20
4.89125
 11
-17.819
 21
4.86348
  0
LINE
  8
0
 10
-17.819
 20
4.86348
 11
-17.872
 21
4.83778
  0
LINE
  8
0
 10
-17.872
 20
4.83778
 11
-17.926
 21
4.81418
  0
LINE
  8
0
 10
-17.926
 20
4.81418
 11
-17.9808
 21
4.79271
  0
LINE
  8
0
 10
-17.9808
 20
4.79271
 11
-18.0365
 21
4.77341
  0
LINE
  8
0
 10
-18.0365
 20
4.77341
 11
-18.0928
 21
4.75632
  0
LINE
  8
0
 10
-18.0928
 20
4.75632
 11
-18.1498
 21
4.74144
  0
LINE
  8
0
 10
-18.1498
 20
4.74144
 11
-18.2074
 21
4.72882
  0
LINE
  8
0
 10
-18.2074
 20
4.72882
 11
-18.2653
 21
4.71846
  0
LINE
  8
0
 10
-18.2653
 20
4.71846
 11
-18.3237
 21
4.71039
  0
LINE
  8
0
 10
-18.3237
 20
4.71039
 11
-18.3823
 21
4.70462
  0
LINE
  8
0
 10
-18.3823
 20
4.70462
 11
-18.4411
 21
4.70114
  0
LINE
  8
0
 10
-18.4411
 20
4.70114
 11
-18.5
 21
4.7
  0
LINE
  8
0
 10
-18.5
 20
4.7
 11
-18.5589
 21
4.70114
  0
LINE
  8
0
 10
18.4411
 20
4.70114
 11
18.3823
 21
4.70462
  0
LINE
  8
0
 10
18.3823
 20
4.70462
 11
18.3237
 21
4.71039
  0
LINE
  8
0
 10
18.3237
 20
4.71039
 11
18.2653
 21
4.71846
  0
LINE
  8
0
 10
18.2653
 20
4.71846
 11
18.2074
 21
4.72882
  0
LINE
  8
0
 10
18.2074
 20
4.72882
 11
18.1498
 21
4.74144
  0
LINE
  8
0
 10
18.1498
 20
4.74144
 11
18.0928
 21
4.75632
  0
LINE
  8
0
 10
18.0928
 20
4.75632
 11
18.0365
 21
4.77341
  0
LINE
  8
0
 10
18.0365
 20
4.77341
 11
17.9808
 21
4.79271
  0
LINE
  8
0
 10
17.9808
 20
4.79271
 11
17.926
 21
4.81418
  0
LINE
  8
0
 10
17.926
 20
4.81418
 11
17.872
 21
4.83778
  0
LINE
  8
0
 10
17.872
 20
4.83778
 11
17.819
 21
4.86348
  0
LINE
  8
0
 10
17.819
 20
4.86348
 11
17.7671
 21
4.89125
  0
LINE
  8
0
 10
17.7671
 20
4.89125
 11
17.7162
 21
4.92104
  0
LINE
  8
0
 10
17.7162
 20
4.92104
 11
17.6666
 21
4.95279
  0
LINE
  8
0
 10
17.6666
 20
4.95279
 11
17.6183
 21
4.98647
  0
LINE
  8
0
 10
17.6183
 20
4.98647
 11
17.5714
 21
5.02202
  0
LINE
  8
0
 10
17.5714
 20
5.02202
 11
17.5258
 21
5.05939
  0
LINE
  8
0
 10
17.5258
 20
5.05939
 11
17.4818
 21
5.09851
  0
LINE
  8
0
 10
17.4818
 20
5.09851
 11
17.4393
 21
5.13933
  0
LINE
  8
0
 10
17.4393
 20
5.13933
 11
17.3985
 21
5.18179
  0
LINE
  8
0
 10
17.3985
 20
5.18179
 11
17.3594
 21
5.22581
  0
LINE
  8
0
 10
17.3594
 20
5.22581
 11
17.322
 21
5.27135
  0
LINE
  8
0
 10
17.322
 20
5.27135
 11
17.2865
 21
5.31831
  0
LINE
  8
0
 10
17.2865
 20
5.31831
 11
17.2528
 21
5.36664
  0
LINE
  8
0
 10
17.2528
 20
5.36664
 11
17.221
 21
5.41624
  0
LINE
  8
0
 10
17.221
 20
5.41624
 11
17.1913
 21
5.46706
  0
LINE
  8
0
 10
17.1913
 20
5.46706
 11
17.1635
 21
5.51901
  0
LINE
  8
0
 10
17.1635
 20
5.51901
 11
17.1378
 21
5.57201
  0
LINE
  8
0
 10
17.1378
 20
5.57201
 11
17.1142
 21
5.62596
  0
LINE
  8
0
 10
17.1142
 20
5.62596
 11
17.0927
 21
5.68082
  0
LINE
  8
0
 10
17.0927
 20
5.68082
 11
17.0734
 21
5.73647
  0
LINE
  8
0
 10
17.0734
 20
5.73647
 11
17.0563
 21
5.79283
  0
LINE
  8
0
 10
17.0563
 20
5.79283
 11
17.0414
 21
5.84982
  0
LINE
  8
0
 10
17.0414
 20
5.84982
 11
17.0288
 21
5.90736
  0
LINE
  8
0
 10
17.0288
 20
5.90736
 11
17.0185
 21
5.96535
  0
LINE
  8
0
 10
17.0185
 20
5.96535
 11
17.0104
 21
6.02368
  0
LINE
  8
0
 10
17.0104
 20
6.02368
 11
17.0046
 21
6.08231
  0
LINE
  8
0
 10
17.0046
 20
6.08231
 11
17.0011
 21
6.1411
  0
LINE
  8
0
 10
17.0011
 20
6.1411
 11
17
 21
6.2
  0
LINE
  8
0
 10
17
 20
6.2
 11
17
 21
26.2
  0
LINE
  8
0
 10
17
 20
26.2
 11
17.0011
 21
26.2589
  0
LINE
  8
0
 10
17.0011
 20
26.2589
 11
17.0046
 21
26.3177
  0
LINE
  8
0
 10
17.0046
 20
26.3177
 11
17.0104
 21
26.3763
  0
LINE
  8
0
 10
17.0104
 20
26.3763
 11
17.0185
 21
26.4346
  0
LINE
  8
0
 10
17.0185
 20
26.4346
 11
17.0288
 21
26.4926
  0
LINE
  8
0
 10
17.0288
 20
26.4926
 11
17.0414
 21
26.5502
  0
LINE
  8
0
 10
17.0414
 20
26.5502
 11
17.0563
 21
26.6071
  0
LINE
  8
0
 10
17.0563
 20
26.6071
 11
17.0734
 21
26.6635
  0
LINE
  8
0
 10
17.0734
 20
26.6635
 11
17.0927
 21
26.7192
  0
LINE
  8
0
 10
17.0927
 20
26.7192
 11
17.1142
 21
26.774
  0
LINE
  8
0
 10
17.1142
 20
26.774
 11
17.1378
 21
26.828
  0
LINE
  8
0
 10
17.1378
 20
26.828
 11
17.1635
 21
26.881
  0
LINE
  8
0
 10
17.1635
 20
26.881
 11
17.1913
 21
26.9329
  0
LINE
  8
0
 10
17.1913
 20
26.9329
 11
17.221
 21
26.9837
  0
LINE
  8
0
 10
17.221
 20
26.9837
 11
17.2528
 21
27.0333
  0
LINE
  8
0
 10
17.2528
 20
27.0333
 11
17.2865
 21
27.0817
  0
LINE
  8
0
 10
17.2865
 20
27.0817
 11
17.322
 21
27.1286
  0
LINE
  8
0
 10
17.322
 20
27.1286
 11
17.3594
 21
27.1742
  0
LINE
  8
0
 10
17.3594
 20
27.1742
 11
17.3985
 21
27.2182
  0
LINE
  8
0
 10
17.3985
 20
27.2182
 11
17.4393
 21
27.2607
  0
LINE
  8
0
 10
17.4393
 20
27.2607
 11
17.4818
 21
27.3015
  0
LINE
  8
0
 10
17.4818
 20
27.3015
 11
17.5258
 21
27.3406
  0
LINE
  8
0
 10
17.5258
 20
27.3406
 11
17.5714
 21
27.378
  0
LINE
  8
0
 10
17.5714
 20
27.378
 11
17.6183
 21
27.4135
  0
LINE
  8
0
 10
17.6183
 20
27.4135
 11
17.6666
 21
27.4472
  0
LINE
  8
0
 10
17.6666
 20
27.4472
 11
17.7162
 21
27.479
  0
LINE
  8
0
 10
17.7162
 20
27.479
 11
17.7671
 21
27.5087
  0
LINE
  8
0
 10
17.7671
 20
27.5087
 11
17.819
 21
27.5365
  0
LINE
  8
0
 10
17.819
 20
27.5365
 11
17.872
 21
27.5622
  0
LINE
  8
0
 10
17.872
 20
27.5622
 11
17.926
 21
27.5858
  0
LINE
  8
0
 10
17.926
 20
27.5858
 11
17.9808
 21
27.6073
  0
LINE
  8
0
 10
17.9808
 20
27.6073
 11
18.0365
 21
27.6266
  0
LINE
  8
0
 10
18.0365
 20
27.6266
 11
18.0928
 21
27.6437
  0
LINE
  8
0
 10
18.0928
 20
27.6437
 11
18.1498
 21
27.6586
  0
LINE
  8
0
 10
18.1498
 20
27.6586
 11
18.2074
 21
27.6712
  0
LINE
  8
0
 10
18.2074
 20
27.6712
 11
18.2653
 21
27.6815
  0
LINE
  8
0
 10
18.2653
 20
27.6815
 11
18.3237
 21
27.6896
  0
LINE
  8
0
 10
18.3237
 20
27.6896
 11
18.3823
 21
27.6954
  0
LINE
  8
0
 10
18.3823
 20
27.6954
 11
18.4411
 21
27.6988
  0
LINE
  8
0
 10
18.4411
 20
27.6988
 11
18.5
 21
27.7
  0
LINE
  8
0
 10
18.5
 20
27.7
 11
18.5589
 21
27.6988
  0
LINE
  8
0
 10
18.5589
 20
27.6988
 11
18.6177
 21
27.6954
  0
LINE
  8
0
 10
18.6177
 20
27.6954
 11
18.6763
 21
27.6896
  0
LINE
  8
0
 10
18.6763
 20
27.6896
 11
18.7346
 21
27.6815
  0
LINE
  8
0
 10
18.7346
 20
27.6815
 11
18.7926
 21
27.6712
  0
LINE
  8
0
 10
18.7926
 20
27.6712
 11
18.8502
 21
27.6586
  0
LINE
  8
0
 10
18.8502
 20
27.6586
 11
18.9072
 21
27.6437
  0
LINE
  8
0
 10
18.9072
 20
27.6437
 11
18.9635
 21
27.6266
  0
LINE
  8
0
 10
18.9635
 20
27.6266
 11
19.0192
 21
27.6073
  0
LINE
  8
0
 10
19.0192
 20
27.6073
 11
19.074
 21
27.5858
  0
LINE
  8
0
 10
19.074
 20
27.5858
 11
19.128
 21
27.5622
  0
LINE
  8
0
 10
19.128
 20
27.5622
 11
19.181
 21
27.5365
  0
LINE
  8
0
 10
19.181
 20
27.5365
 11
19.2329
 21
27.5087
  0
LINE
  8
0
 10
19.2329
 20
27.5087
 11
19.2837
 21
27.479
  0
LINE
  8
0
 10
19.2837
 20
27.479
 11
19.3333
 21
27.4472
  0
LINE
  8
0
 10
19.3333
 20
27.4472
 11
19.3817
 21
27.4135
  0
LINE
  8
0
 10
19.3817
 20
27.4135
 11
19.4286
 21
27.378
  0
LINE
  8
0
 10
19.4286
 20
27.378
 11
19.4742
 21
27.3406
  0
LINE
  8
0
 10
19.4742
 20
27.3406
 11
19.5182
 21
27.3015
  0
LINE
  8
0
 10
19.5182
 20
27.3015
 11
19.5607
 21
27.2607
  0
LINE
  8
0
 10
19.5607
 20
27.2607
 11
19.6015
 21
27.2182
  0
LINE
  8
0
 10
19.6015
 20
27.2182
 11
19.6406
 21
27.1742
  0
LINE
  8
0
 10
19.6406
 20
27.1742
 11
19.678
 21
27.1286
  0
LINE
  8
0
 10
19.678
 20
27.1286
 11
19.7135
 21
27.0817
  0
LINE
  8
0
 10
19.7135
 20
27.0817
 11
19.7472
 21
27.0333
  0
LINE
  8
0
 10
19.7472
 20
27.0333
 11
19.7789
 21
26.9837
  0
LINE
  8
0
 10
19.7789
 20
26.9837
 11
19.8087
 21
26.9329
  0
LINE
  8
0
 10
19.8087
 20
26.9329
 11
19.8365
 21
26.881
  0
LINE
  8
0
 10
19.8365
 20
26.881
 11
19.8622
 21
26.828
  0
LINE
  8
0
 10
19.8622
 20
26.828
 11
19.8858
 21
26.774
  0
LINE
  8
0
 10
19.8858
 20
26.774
 11
19.9073
 21
26.7192
  0
LINE
  8
0
 10
19.9073
 20
26.7192
 11
19.9266
 21
26.6635
  0
LINE
  8
0
 10
19.9266
 20
26.6635
 11
19.9437
 21
26.6071
  0
LINE
  8
0
 10
19.9437
 20
26.6071
 11
19.9585
 21
26.5502
  0
LINE
  8
0
 10
19.9585
 20
26.5502
 11
19.9712
 21
26.4926
  0
LINE
  8
0
 10
19.9712
 20
26.4926
 11
19.9815
 21
26.4346
  0
LINE
  8
0
 10
19.9815
 20
26.4346
 11
19.9896
 21
26.3763
  0
LINE
  8
0
 10
19.9896
 20
26.3763
 11
19.9954
 21
26.3177
  0
LINE
  8
0
 10
19.9954
 20
26.3177
 11
19.9988
 21
26.2589
  0
LINE
  8
0
 10
19.9988
 20
26.2589
 11
20
 21
26.2
  0
LINE
  8
0
 10
20
 20
26.2
 11
20
 21
6.2
  0
LINE
  8
0
 10
20
 20
6.2
 11
19.9988
 21
6.1411
  0
LINE
  8
0
 10
19.9988
 20
6.1411
 11
19.9954
 21
6.08231
  0
LINE
  8
0
 10
19.9954
 20
6.08231
 11
19.9896
 21
6.02368
  0
LINE
  8
0
 10
19.9896
 20
6.02368
 11
19.9815
 21
5.96535
  0
LINE
  8
0
 10
19.9815
 20
5.96535
 11
19.9712
 21
5.90736
  0
LINE
  8
0
 10
19.9712
 20
5.90736
 11
19.9585
 21
5.84982
  0
LINE
  8
0
 10
19.9585
 20
5.84982
 11
19.9437
 21
5.79283
  0
LINE
  8
0
 10
19.9437
 20
5.79283
 11
19.9266
 21
5.73647
  0
LINE
  8
0
 10
19.9266
 20
5.73647
 11
19.9073
 21
5.68082
  0
LINE
  8
0
 10
19.9073
 20
5.68082
 11
19.8858
 21
5.62596
  0
LINE
  8
0
 10
19.8858
 20
5.62596
 11
19.8622
 21
5.57201
  0
LINE
  8
0
 10
19.8622
 20
5.57201
 11
19.8365
 21
5.51901
  0
LINE
  8
0
 10
19.8365
 20
5.51901
 11
19.8087
 21
5.46706
  0
LINE
  8
0
 10
19.8087
 20
5.46706
 11
19.7789
 21
5.41624
  0
LINE
  8
0
 10
19.7789
 20
5.41624
 11
19.7472
 21
5.36664
  0
LINE
  8
0
 10
19.7472
 20
5.36664
 11
19.7135
 21
5.31831
  0
LINE
  8
0
 10
19.7135
 20
5.31831
 11
19.678
 21
5.27135
  0
LINE
  8
0
 10
19.678
 20
5.27135
 11
19.6406
 21
5.22581
  0
LINE
  8
0
 10
19.6406
 20
5.22581
 11
19.6015
 21
5.18179
  0
LINE
  8
0
 10
19.6015
 20
5.18179
 11
19.5607
 21
5.13933
  0
LINE
  8
0
 10
19.5607
 20
5.13933
 11
19.5182
 21
5.09851
  0
LINE
  8
0
 10
19.5182
 20
5.09851
 11
19.4742
 21
5.05939
  0
LINE
  8
0
 10
19.4742
 20
5.05939
 11
19.4286
 21
5.02202
  0
LINE
  8
0
 10
19.4286
 20
5.02202
 11
19.3817
 21
4.98647
  0
LINE
  8
0
 10
19.3817
 20
4.98647
 11
19.3333
 21
4.95279
  0
LINE
  8
0
 10
19.3333
 20
4.95279
 11
19.2837
 21
4.92104
  0
LINE
  8
0
 10
19.2837
 20
4.92104
 11
19.2329
 21
4.89125
  0
LINE
  8
0
 10
19.2329
 20
4.89125
 11
19.181
 21
4.86348
  0
LINE
  8
0
 10
19.181
 20
4.86348
 11
19.128
 21
4.83778
  0
LINE
  8
0
 10
19.128
 20
4.83778
 11
19.074
 21
4.81418
  0
LINE
  8
0
 10
19.074
 20
4.81418
 11
19.0192
 21
4.79271
  0
LINE
  8
0
 10
19.0192
 20
4.79271
 11
18.9635
 21
4.77341
  0
LINE
  8
0
 10
18.9635
 20
4.77341
 11
18.9072
 21
4.75632
  0
LINE
  8
0
 10
18.9072
 20
4.75632
 11
18.8502
 21
4.74144
  0
LINE
  8
0
 10
18.8502
 20
4.74144
 11
18.7926
 21
4.72882
  0
LINE
  8
0
 10
18.7926
 20
4.72882
 11
18.7346
 21
4.71846
  0
LINE
  8
0
 10
18.7346
 20
4.71846
 11
18.6763
 21
4.71039
  0
LINE
  8
0
 10
18.6763
 20
4.71039
 11
18.6177
 21
4.70462
  0
LINE
  8
0
 10
18.6177
 20
4.70462
 11
18.5589
 21
4.70114
  0
LINE
  8
0
 10
18.5589
 20
4.70114
 11
18.5
 21
4.7
  0
LINE
  8
0
 10
18.5
 20
4.7
 11
18.4411
 21
4.70114
  0
LINE
  8
0
 10
-40.7262
 20
23.5
 11
-40.7262
 21
27.5
  0
LINE
  8
0
 10
-40.7262
 20
27.5
 11
-38.7262
 21
27.5
  0
LINE
  8
0
 10
-38.7262
 20
27.5
 11
-38.7262
 21
23.5
  0
LINE
  8
0
 10
-38.7262
 20
23.5
 11
-40.7262
 21
23.5
  0
LINE
  8
0
 10
38.7262
 20
23.5
 11
38.7262
 21
27.5
  0
LINE
  8
0
 10
38.7262
 20
27.5
 11
40.7262
 21
27.5
  0
LINE
  8
0
 10
40.7262
 20
27.5
 11
40.7262
 21
23.5
  0
LINE
  8
0
 10
40.7262
 20
23.5
 11
38.7262
 21
23.5
  0
LINE
  8
0
 10
-49.7262
 20
23.5
 11
-49.7262
 21
27.5
  0
LINE
  8
0
 10
-49.7262
 20
27.5
 11
-47.7262
 21
27.5
  0
LINE
  8
0
 10
-47.7262
 20
27.5
 11
-47.7262
 21
23.5
  0
LINE
  8
0
 10
-47.7262
 20
23.5
 11
-49.7262
 21
23.5
  0
LINE
  8
0
 10
47.7262
 20
23.5
 11
47.7262
 21
27.5
  0
LINE
  8
0
 10
47.7262
 20
27.5
 11
49.7262
 21
27.5
  0
LINE
  8
0
 10
49.7262
 20
27.5
 11
49.7262
 21
23.5
  0
LINE
  8
0
 10
49.7262
 20
23.5
 11
47.7262
 21
23.5
  0
LINE
  8
0
 10
8.63797
 20
3.44562
 11
8.38239
 21
3.50697
  0
LINE
  8
0
 10
8.38239
 20
3.50697
 11
8.13956
 21
3.60756
  0
LINE
  8
0
 10
8.13956
 20
3.60756
 11
7.91545
 21
3.74489
  0
LINE
  8
0
 10
7.91545
 20
3.74489
 11
7.71559
 21
3.91559
  0
LINE
  8
0
 10
7.71559
 20
3.91559
 11
7.54489
 21
4.11545
  0
LINE
  8
0
 10
7.54489
 20
4.11545
 11
7.40756
 21
4.33955
  0
LINE
  8
0
 10
7.40756
 20
4.33955
 11
7.30698
 21
4.58238
  0
LINE
  8
0
 10
7.30698
 20
4.58238
 11
7.24562
 21
4.83797
  0
LINE
  8
0
 10
7.24562
 20
4.83797
 11
7.22499
 21
5.09999
  0
LINE
  8
0
 10
7.22499
 20
5.09999
 11
7.24562
 21
5.36201
  0
LINE
  8
0
 10
7.24562
 20
5.36201
 11
7.30698
 21
5.6176
  0
LINE
  8
0
 10
7.30698
 20
5.6176
 11
7.40756
 21
5.86043
  0
LINE
  8
0
 10
7.40756
 20
5.86043
 11
7.54489
 21
6.08453
  0
LINE
  8
0
 10
7.54489
 20
6.08453
 11
7.71559
 21
6.28439
  0
LINE
  8
0
 10
7.71559
 20
6.28439
 11
7.91545
 21
6.45509
  0
LINE
  8
0
 10
7.91545
 20
6.45509
 11
8.13956
 21
6.59242
  0
LINE
  8
0
 10
8.13956
 20
6.59242
 11
8.38239
 21
6.69301
  0
LINE
  8
0
 10
8.38239
 20
6.69301
 11
8.63797
 21
6.75436
  0
LINE
  8
0
 10
8.63797
 20
6.75436
 11
8.89999
 21
6.77499
  0
LINE
  8
0
 10
8.89999
 20
6.77499
 11
9.16202
 21
6.75436
  0
LINE
  8
0
 10
9.16202
 20
6.75436
 11
9.4176
 21
6.69301
  0
LINE
  8
0
 10
9.4176
 20
6.69301
 11
9.66043
 21
6.59242
  0
LINE
  8
0
 10
9.66043
 20
6.59242
 11
9.88454
 21
6.45509
  0
LINE
  8
0
 10
9.88454
 20
6.45509
 11
10.0844
 21
6.28439
  0
LINE
  8
0
 10
10.0844
 20
6.28439
 11
10.2551
 21
6.08453
  0
LINE
  8
0
 10
10.2551
 20
6.08453
 11
10.3924
 21
5.86043
  0
LINE
  8
0
 10
10.3924
 20
5.86043
 11
10.493
 21
5.6176
  0
LINE
  8
0
 10
10.493
 20
5.6176
 11
10.5544
 21
5.36201
  0
LINE
  8
0
 10
10.5544
 20
5.36201
 11
10.575
 21
5.09999
  0
LINE
  8
0
 10
10.575
 20
5.09999
 11
10.5544
 21
4.83797
  0
LINE
  8
0
 10
10.5544
 20
4.83797
 11
10.493
 21
4.58238
  0
LINE
  8
0
 10
10.493
 20
4.58238
 11
10.3924
 21
4.33955
  0
LINE
  8
0
 10
10.3924
 20
4.33955
 11
10.2551
 21
4.11545
  0
LINE
  8
0
 10
10.2551
 20
4.11545
 11
10.0844
 21
3.91559
  0
LINE
  8
0
 10
10.0844
 20
3.91559
 11
9.88454
 21
3.74489
  0
LINE
  8
0
 10
9.88454
 20
3.74489
 11
9.66043
 21
3.60756
  0
LINE
  8
0
 10
9.66043
 20
3.60756
 11
9.4176
 21
3.50697
  0
LINE
  8
0
 10
9.4176
 20
3.50697
 11
9.16202
 21
3.44562
  0
LINE
  8
0
 10
9.16202
 20
3.44562
 11
8.89999
 21
3.42499
  0
LINE
  8
0
 10
8.89999
 20
3.42499
 11
8.63797
 21
3.44562
  0
LINE
  8
0
 10
-9.16202
 20
3.44562
 11
-9.4176
 21
3.50697
  0
LINE
  8
0
 10
-9.4176
 20
3.50697
 11
-9.66043
 21
3.60756
  0
LINE
  8
0
 10
-9.66043
 20
3.60756
 11
-9.88454
 21
3.74489
  0
LINE
  8
0
 10
-9.88454
 20
3.74489
 11
-10.0844
 21
3.91559
  0
LINE
  8
0
 10
-10.0844
 20
3.91559
 11
-10.2551
 21
4.11545
  0
LINE
  8
0
 10
-10.2551
 20
4.11545
 11
-10.3924
 21
4.33955
  0
LINE
  8
0
 10
-10.3924
 20
4.33955
 11
-10.493
 21
4.58238
  0
LINE
  8
0
 10
-10.493
 20
4.58238
 11
-10.5544
 21
4.83797
  0
LINE
  8
0
 10
-10.5544
 20
4.83797
 11
-10.575
 21
5.09999
  0
LINE
  8
0
 10
-10.575
 20
5.09999
 11
-10.5544
 21
5.36201
  0
LINE
  8
0
 10
-10.5544
 20
5.36201
 11
-10.493
 21
5.6176
  0
LINE
  8
0
 10
-10.493
 20
5.6176
 11
-10.3924
 21
5.86043
  0
LINE
  8
0
 10
-10.3924
 20
5.86043
 11
-10.2551
 21
6.08453
  0
LINE
  8
0
 10
-10.2551
 20
6.08453
 11
-10.0844
 21
6.28439
  0
LINE
  8
0
 10
-10.0844
 20
6.28439
 11
-9.88454
 21
6.45509
  0
LINE
  8
0
 10
-9.88454
 20
6.45509
 11
-9.66043
 21
6.59242
  0
LINE
  8
0
 10
-9.66043
 20
6.59242
 11
-9.4176
 21
6.69301
  0
LINE
  8
0
 10
-9.4176
 20
6.69301
 11
-9.16202
 21
6.75436
  0
LINE
  8
0
 10
-9.16202
 20
6.75436
 11
-8.89999
 21
6.77499
  0
LINE
  8
0
 10
-8.89999
 20
6.77499
 11
-8.63797
 21
6.75436
  0
LINE
  8
0
 10
-8.63797
 20
6.75436
 11
-8.38239
 21
6.69301
  0
LINE
  8
0
 10
-8.38239
 20
6.69301
 11
-8.13956
 21
6.59242
  0
LINE
  8
0
 10
-8.13956
 20
6.59242
 11
-7.91545
 21
6.45509
  0
LINE
  8
0
 10
-7.91545
 20
6.45509
 11
-7.71559
 21
6.28439
  0
LINE
  8
0
 10
-7.71559
 20
6.28439
 11
-7.54489
 21
6.08453
  0
LINE
  8
0
 10
-7.54489
 20
6.08453
 11
-7.40756
 21
5.86043
  0
LINE
  8
0
 10
-7.40756
 20
5.86043
 11
-7.30698
 21
5.6176
  0
LINE
  8
0
 10
-7.30698
 20
5.6176
 11
-7.24562
 21
5.36201
  0
LINE
  8
0
 10
-7.24562
 20
5.36201
 11
-7.22499
 21
5.09999
  0
LINE
  8
0
 10
-7.22499
 20
5.09999
 11
-7.24562
 21
4.83797
  0
LINE
  8
0
 10
-7.24562
 20
4.83797
 11
-7.30698
 21
4.58238
  0
LINE
  8
0
 10
-7.30698
 20
4.58238
 11
-7.40756
 21
4.33955
  0
LINE
  8
0
 10
-7.40756
 20
4.33955
 11
-7.54489
 21
4.11545
  0
LINE
  8
0
 10
-7.54489
 20
4.11545
 11
-7.71559
 21
3.91559
  0
LINE
  8
0
 10
-7.71559
 20
3.91559
 11
-7.91545
 21
3.74489
  0
LINE
  8
0
 10
-7.91545
 20
3.74489
 11
-8.13956
 21
3.60756
  0
LINE
  8
0
 10
-8.13956
 20
3.60756
 11
-8.38239
 21
3.50697
  0
LINE
  8
0
 10
-8.38239
 20
3.50697
 11
-8.63797
 21
3.44562
  0
LINE
  8
0
 10
-8.63797
 20
3.44562
 11
-8.89999
 21
3.42499
  0
LINE
  8
0
 10
-8.89999
 20
3.42499
 11
-9.16202
 21
3.44562
  0
LINE
  8
0
 10
41.586
 20
-18.0001
 11
41.5859
 21
4.83333
  0
LINE
  8
0
 10
41.5859
 20
4.83333
 11
45.3363
 21
4.83344
  0
LINE
  8
0
 10
45.3363
 20
4.83344
 11
45.3363
 21
-18.0001
  0
LINE
  8
0
 10
45.3363
 20
-18.0001
 11
41.586
 21
-18.0001
  0
LINE
  8
0
 10
-45.3363
 20
-18.0001
 11
-45.3364
 21
4.83333
  0
LINE
  8
0
 10
-45.3364
 20
4.83333
 11
-41.586
 21
4.83344
  0
LINE
  8
0
 10
-41.586
 20
4.83344
 11
-41.586
 21
-18.0001
  0
LINE
  8
0
 10
-41.586
 20
-18.0001
 11
-45.3363
 21
-18.0001
  0
LINE
  8
0
 10
-9.16202
 20
-6.75436
 11
-9.4176
 21
-6.69301
  0
LINE
  8
0
 10
-9.4176
 20
-6.69301
 11
-9.66043
 21
-6.59242
  0
LINE
  8
0
 10
-9.66043
 20
-6.59242
 11
-9.88454
 21
-6.45509
  0
LINE
  8
0
 10
-9.88454
 20
-6.45509
 11
-10.0844
 21
-6.28439
  0
LINE
  8
0
 10
-10.0844
 20
-6.28439
 11
-10.2551
 21
-6.08453
  0
LINE
  8
0
 10
-10.2551
 20
-6.08453
 11
-10.3924
 21
-5.86043
  0
LINE
  8
0
 10
-10.3924
 20
-5.86043
 11
-10.493
 21
-5.6176
  0
LINE
  8
0
 10
-10.493
 20
-5.6176
 11
-10.5544
 21
-5.36201
  0
LINE
  8
0
 10
-10.5544
 20
-5.36201
 11
-10.575
 21
-5.09999
  0
LINE
  8
0
 10
-10.575
 20
-5.09999
 11
-10.5544
 21
-4.83797
  0
LINE
  8
0
 10
-10.5544
 20
-4.83797
 11
-10.493
 21
-4.58238
  0
LINE
  8
0
 10
-10.493
 20
-4.58238
 11
-10.3924
 21
-4.33955
  0
LINE
  8
0
 10
-10.3924
 20
-4.33955
 11
-10.2551
 21
-4.11545
  0
LINE
  8
0
 10
-10.2551
 20
-4.11545
 11
-10.0844
 21
-3.91559
  0
LINE
  8
0
 10
-10.0844
 20
-3.91559
 11
-9.88454
 21
-3.74489
  0
LINE
  8
0
 10
-9.88454
 20
-3.74489
 11
-9.66043
 21
-3.60756
  0
LINE
  8
0
 10
-9.66043
 20
-3.60756
 11
-9.4176
 21
-3.50697
  0
LINE
  8
0
 10
-9.4176
 20
-3.50697
 11
-9.16202
 21
-3.44562
  0
LINE
  8
0
 10
-9.16202
 20
-3.44562
 11
-8.89999
 21
-3.42499
  0
LINE
  8
0
 10
-8.89999
 20
-3.42499
 11
-8.63797
 21
-3.44562
  0
LINE
  8
0
 10
-8.63797
 20
-3.44562
 11
-8.38239
 21
-3.50697
  0
LINE
  8
0
 10
-8.38239
 20
-3.50697
 11
-8.13956
 21
-3.60756
  0
LINE
  8
0
 10
-8.13956
 20
-3.60756
 11
-7.91545
 21
-3.74489
  0
LINE
  8
0
 10
-7.91545
 20
-3.74489
 11
-7.71559
 21
-3.91559
  0
LINE
  8
0
 10
-7.71559
 20
-3.91559
 11
-7.54489
 21
-4.11545
  0
LINE
  8
0
 10
-7.54489
 20
-4.11545
 11
-7.40756
 21
-4.33955
  0
LINE
  8
0
 10
-7.40756
 20
-4.33955
 11
-7.30698
 21
-4.58238
  0
LINE
  8
0
 10
-7.30698
 20
-4.58238
 11
-7.24562
 21
-4.83797
  0
LINE
  8
0
 10
-7.24562
 20
-4.83797
 11
-7.22499
 21
-5.09999
  0
LINE
  8
0
 10
-7.22499
 20
-5.09999
 11
-7.24562
 21
-5.36201
  0
LINE
  8
0
 10
-7.24562
 20
-5.36201
 11
-7.30698
 21
-5.6176
  0
LINE
  8
0
 10
-7.30698
 20
-5.6176
 11
-7.40756
 21
-5.86043
  0
LINE
  8
0
 10
-7.40756
 20
-5.86043
 11
-7.54489
 21
-6.08453
  0
LINE
  8
0
 10
-7.54489
 20
-6.08453
 11
-7.71559
 21
-6.28439
  0
LINE
  8
0
 10
-7.71559
 20
-6.28439
 11
-7.91545
 21
-6.45509
  0
LINE
  8
0
 10
-7.91545
 20
-6.45509
 11
-8.13956
 21
-6.59242
  0
LINE
  8
0
 10
-8.13956
 20
-6.59242
 11
-8.38239
 21
-6.69301
  0
LINE
  8
0
 10
-8.38239
 20
-6.69301
 11
-8.63797
 21
-6.75436
  0
LINE
  8
0
 10
-8.63797
 20
-6.75436
 11
-8.89999
 21
-6.77499
  0
LINE
  8
0
 10
-8.89999
 20
-6.77499
 11
-9.16202
 21
-6.75436
  0
LINE
  8
0
 10
8.63797
 20
-6.75436
 11
8.38239
 21
-6.69301
  0
LINE
  8
0
 10
8.38239
 20
-6.69301
 11
8.13956
 21
-6.59242
  0
LINE
  8
0
 10
8.13956
 20
-6.59242
 11
7.91545
 21
-6.45509
  0
LINE
  8
0
 10
7.91545
 20
-6.45509
 11
7.71559
 21
-6.28439
  0
LINE
  8
0
 10
7.71559
 20
-6.28439
 11
7.54489
 21
-6.08453
  0
LINE
  8
0
 10
7.54489
 20
-6.08453
 11
7.40756
 21
-5.86043
  0
LINE
  8
0
 10
7.40756
 20
-5.86043
 11
7.30698
 21
-5.6176
  0
LINE
  8
0
 10
7.30698
 20
-5.6176
 11
7.24562
 21
-5.36201
  0
LINE
  8
0
 10
7.24562
 20
-5.36201
 11
7.22499
 21
-5.09999
  0
LINE
  8
0
 10
7.22499
 20
-5.09999
 11
7.24562
 21
-4.83797
  0
LINE
  8
0
 10
7.24562
 20
-4.83797
 11
7.30698
 21
-4.58238
  0
LINE
  8
0
 10
7.30698
 20
-4.58238
 11
7.40756
 21
-4.33955
  0
LINE
  8
0
 10
7.40756
 20
-4.33955
 11
7.54489
 21
-4.11545
  0
LINE
  8
0
 10
7.54489
 20
-4.11545
 11
7.71559
 21
-3.91559
  0
LINE
  8
0
 10
7.71559
 20
-3.91559
 11
7.91545
 21
-3.74489
  0
LINE
  8
0
 10
7.91545
 20
-3.74489
 11
8.13956
 21
-3.60756
  0
LINE
  8
0
 10
8.13956
 20
-3.60756
 11
8.38239
 21
-3.50697
  0
LINE
  8
0
 10
8.38239
 20
-3.50697
 11
8.63797
 21
-3.44562
  0
LINE
  8
0
 10
8.63797
 20
-3.44562
 11
8.89999
 21
-3.42499
  0
LINE
  8
0
 10
8.89999
 20
-3.42499
 11
9.16202
 21
-3.44562
  0
LINE
  8
0
 10
9.16202
 20
-3.44562
 11
9.4176
 21
-3.50697
  0
LINE
  8
0
 10
9.4176
 20
-3.50697
 11
9.66043
 21
-3.60756
  0
LINE
  8
0
 10
9.66043
 20
-3.60756
 11
9.88454
 21
-3.74489
  0
LINE
  8
0
 10
9.88454
 20
-3.74489
 11
10.0844
 21
-3.91559
  0
LINE
  8
0
 10
10.0844
 20
-3.91559
 11
10.2551
 21
-4.11545
  0
LINE
  8
0
 10
10.2551
 20
-4.11545
 11
10.3924
 21
-4.33955
  0
LINE
  8
0
 10
10.3924
 20
-4.33955
 11
10.493
 21
-4.58238
  0
LINE
  8
0
 10
10.493
 20
-4.58238
 11
10.5544
 21
-4.83797
  0
LINE
  8
0
 10
10.5544
 20
-4.83797
 11
10.575
 21
-5.09999
  0
LINE
  8
0
 10
10.575
 20
-5.09999
 11
10.5544
 21
-5.36201
  0
LINE
  8
0
 10
10.5544
 20
-5.36201
 11
10.493
 21
-5.6176
  0
LINE
  8
0
 10
10.493
 20
-5.6176
 11
10.3924
 21
-5.86043
  0
LINE
  8
0
 10
10.3924
 20
-5.86043
 11
10.2551
 21
-6.08453
  0
LINE
  8
0
 10
10.2551
 20
-6.08453
 11
10.0844
 21
-6.28439
  0
LINE
  8
0
 10
10.0844
 20
-6.28439
 11
9.88454
 21
-6.45509
  0
LINE
  8
0
 10
9.88454
 20
-6.45509
 11
9.66043
 21
-6.59242
  0
LINE
  8
0
 10
9.66043
 20
-6.59242
 11
9.4176
 21
-6.69301
  0
LINE
  8
0
 10
9.4176
 20
-6.69301
 11
9.16202
 21
-6.75436
  0
LINE
  8
0
 10
9.16202
 20
-6.75436
 11
8.89999
 21
-6.77499
  0
LINE
  8
0
 10
8.89999
 20
-6.77499
 11
8.63797
 21
-6.75436
  0
LINE
  8
0
 10
47.7262
 20
-11
 11
47.7262
 21
-7
  0
LINE
  8
0
 10
47.7262
 20
-7
 11
49.7262
 21
-7
  0
LINE
  8
0
 10
49.7262
 20
-7
 11
49.7262
 21
-11
  0
LINE
  8
0
 10
49.7262
 20
-11
 11
47.7262
 21
-11
  0
LINE
  8
0
 10
-40.7262
 20
-11
 11
-40.7262
 21
-7
  0
LINE
  8
0
 10
-40.7262
 20
-7
 11
-38.7262
 21
-7
  0
LINE
  8
0
 10
-38.7262
 20
-7
 11
-38.7262
 21
-11
  0
LINE
  8
0
 10
-38.7262
 20
-11
 11
-40.7262
 21
-11
  0
LINE
  8
0
 10
38.7262
 20
-11
 11
38.7262
 21
-7
  0
LINE
  8
0
 10
38.7262
 20
-7
 11
40.7262
 21
-7
  0
LINE
  8
0
 10
40.7262
 20
-7
 11
40.7262
 21
-11
  0
LINE
  8
0
 10
40.7262
 20
-11
 11
38.7262
 21
-11
  0
LINE
  8
0
 10
-57.7262
 20
-11
 11
-57.7262
 21
-7
  0
LINE
  8
0
 10
-57.7262
 20
-7
 11
-55.7262
 21
-7
  0
LINE
  8
0
 10
-55.7262
 20
-7
 11
-55.7262
 21
-11
  0
LINE
  8
0
 10
-55.7262
 20
-11
 11
-57.7262
 21
-11
  0
LINE
  8
0
 10
55.7262
 20
-11
 11
55.7262
 21
-7
  0
LINE
  8
0
 10
55.7262
 20
-7
 11
57.7262
 21
-7
  0
LINE
  8
0
 10
57.7262
 20
-7
 11
57.7262
 21
-11
  0
LINE
  8
0
 10
57.7262
 20
-11
 11
55.7262
 21
-11
  0
LINE
  8
0
 10
-49.7262
 20
-11
 11
-49.7262
 21
-7
  0
LINE
  8
0
 10
-49.7262
 20
-7
 11
-47.7262
 21
-7
  0
LINE
  8
0
 10
-47.7262
 20
-7
 11
-47.7262
 21
-11
  0
LINE
  8
0
 10
-47.7262
 20
-11
 11
-49.7262
 21
-11
  0
LINE
  8
0
 10
-58.6762
 20
-73.45
 11
-58.6762
 21
-44.55
  0
LINE
  8
0
 10
-58.6762
 20
-44.55
 11
-47.7762
 21
-44.55
  0
LINE
  8
0
 10
-47.7762
 20
-44.55
 11
-47.7762
 21
-73.45
  0
LINE
  8
0
 10
-47.7762
 20
-73.45
 11
-58.6762
 21
-73.45
  0
LINE
  8
0
 10
47.7762
 20
-73.45
 11
47.7762
 21
-44.55
  0
LINE
  8
0
 10
47.7762
 20
-44.55
 11
58.6762
 21
-44.55
  0
LINE
  8
0
 10
58.6762
 20
-44.55
 11
58.6762
 21
-73.45
  0
LINE
  8
0
 10
58.6762
 20
-73.45
 11
47.7762
 21
-73.45
  0
LINE
  8
0
 10
-39.7346
 20
-81.7963
 11
-39.9635
 21
-81.7413
  0
LINE
  8
0
 10
-39.9635
 20
-81.7413
 11
-40.181
 21
-81.6512
  0
LINE
  8
0
 10
-40.181
 20
-81.6512
 11
-40.3817
 21
-81.5283
  0
LINE
  8
0
 10
-40.3817
 20
-81.5283
 11
-40.5607
 21
-81.3754
  0
LINE
  8
0
 10
-40.5607
 20
-81.3754
 11
-40.7135
 21
-81.1964
  0
LINE
  8
0
 10
-40.7135
 20
-81.1964
 11
-40.8365
 21
-80.9957
  0
LINE
  8
0
 10
-40.8365
 20
-80.9957
 11
-40.9266
 21
-80.7783
  0
LINE
  8
0
 10
-40.9266
 20
-80.7783
 11
-40.9815
 21
-80.5494
  0
LINE
  8
0
 10
-40.9815
 20
-80.5494
 11
-41
 21
-80.3147
  0
LINE
  8
0
 10
-41
 20
-80.3147
 11
-40.9815
 21
-80.0801
  0
LINE
  8
0
 10
-40.9815
 20
-80.0801
 11
-40.9266
 21
-79.8512
  0
LINE
  8
0
 10
-40.9266
 20
-79.8512
 11
-40.8365
 21
-79.6338
  0
LINE
  8
0
 10
-40.8365
 20
-79.6338
 11
-40.7135
 21
-79.4331
  0
LINE
  8
0
 10
-40.7135
 20
-79.4331
 11
-40.5607
 21
-79.2541
  0
LINE
  8
0
 10
-40.5607
 20
-79.2541
 11
-40.3817
 21
-79.1012
  0
LINE
  8
0
 10
-40.3817
 20
-79.1012
 11
-40.181
 21
-78.9782
  0
LINE
  8
0
 10
-40.181
 20
-78.9782
 11
-39.9635
 21
-78.8882
  0
LINE
  8
0
 10
-39.9635
 20
-78.8882
 11
-39.7346
 21
-78.8332
  0
LINE
  8
0
 10
-39.7346
 20
-78.8332
 11
-39.5
 21
-78.8147
  0
LINE
  8
0
 10
-39.5
 20
-78.8147
 11
-39.2653
 21
-78.8332
  0
LINE
  8
0
 10
-39.2653
 20
-78.8332
 11
-39.0365
 21
-78.8882
  0
LINE
  8
0
 10
-39.0365
 20
-78.8882
 11
-38.819
 21
-78.9782
  0
LINE
  8
0
 10
-38.819
 20
-78.9782
 11
-38.6183
 21
-79.1012
  0
LINE
  8
0
 10
-38.6183
 20
-79.1012
 11
-38.4393
 21
-79.2541
  0
LINE
  8
0
 10
-38.4393
 20
-79.2541
 11
-38.2865
 21
-79.4331
  0
LINE
  8
0
 10
-38.2865
 20
-79.4331
 11
-38.1635
 21
-79.6338
  0
LINE
  8
0
 10
-38.1635
 20
-79.6338
 11
-38.0734
 21
-79.8512
  0
LINE
  8
0
 10
-38.0734
 20
-79.8512
 11
-38.0185
 21
-80.0801
  0
LINE
  8
0
 10
-38.0185
 20
-80.0801
 11
-38
 21
-80.3147
  0
LINE
  8
0
 10
-38
 20
-80.3147
 11
-38.0185
 21
-80.5494
  0
LINE
  8
0
 10
-38.0185
 20
-80.5494
 11
-38.0734
 21
-80.7783
  0
LINE
  8
0
 10
-38.0734
 20
-80.7783
 11
-38.1635
 21
-80.9957
  0
LINE
  8
0
 10
-38.1635
 20
-80.9957
 11
-38.2865
 21
-81.1964
  0
LINE
  8
0
 10
-38.2865
 20
-81.1964
 11
-38.4393
 21
-81.3754
  0
LINE
  8
0
 10
-38.4393
 20
-81.3754
 11
-38.6183
 21
-81.5283
  0
LINE
  8
0
 10
-38.6183
 20
-81.5283
 11
-38.819
 21
-81.6512
  0
LINE
  8
0
 10
-38.819
 20
-81.6512
 11
-39.0365
 21
-81.7413
  0
LINE
  8
0
 10
-39.0365
 20
-81.7413
 11
-39.2653
 21
-81.7963
  0
LINE
  8
0
 10
-39.2653
 20
-81.7963
 11
-39.5
 21
-81.8147
  0
LINE
  8
0
 10
-39.5
 20
-81.8147
 11
-39.7346
 21
-81.7963
  0
LINE
  8
0
 10
39.2653
 20
-81.7963
 11
39.0365
 21
-81.7413
  0
LINE
  8
0
 10
39.0365
 20
-81.7413
 11
38.819
 21
-81.6512
  0
LINE
  8
0
 10
38.819
 20
-81.6512
 11
38.6183
 21
-81.5283
  0
LINE
  8
0
 10
38.6183
 20
-81.5283
 11
38.4393
 21
-81.3754
  0
LINE
  8
0
 10
38.4393
 20
-81.3754
 11
38.2865
 21
-81.1964
  0
LINE
  8
0
 10
38.2865
 20
-81.1964
 11
38.1635
 21
-80.9957
  0
LINE
  8
0
 10
38.1635
 20
-80.9957
 11
38.0734
 21
-80.7783
  0
LINE
  8
0
 10
38.0734
 20
-80.7783
 11
38.0185
 21
-80.5494
  0
LINE
  8
0
 10
38.0185
 20
-80.5494
 11
38
 21
-80.3147
  0
LINE
  8
0
 10
38
 20
-80.3147
 11
38.0185
 21
-80.0801
  0
LINE
  8
0
 10
38.0185
 20
-80.0801
 11
38.0734
 21
-79.8512
  0
LINE
  8
0
 10
38.0734
 20
-79.8512
 11
38.1635
 21
-79.6338
  0
LINE
  8
0
 10
38.1635
 20
-79.6338
 11
38.2865
 21
-79.4331
  0
LINE
  8
0
 10
38.2865
 20
-79.4331
 11
38.4393
 21
-79.2541
  0
LINE
  8
0
 10
38.4393
 20
-79.2541
 11
38.6183
 21
-79.1012
  0
LINE
  8
0
 10
38.6183
 20
-79.1012
 11
38.819
 21
-78.9782
  0
LINE
  8
0
 10
38.819
 20
-78.9782
 11
39.0365
 21
-78.8882
  0
LINE
  8
0
 10
39.0365
 20
-78.8882
 11
39.2653
 21
-78.8332
  0
LINE
  8
0
 10
39.2653
 20
-78.8332
 11
39.5
 21
-78.8147
  0
LINE
  8
0
 10
39.5
 20
-78.8147
 11
39.7346
 21
-78.8332
  0
LINE
  8
0
 10
39.7346
 20
-78.8332
 11
39.9635
 21
-78.8882
  0
LINE
  8
0
 10
39.9635
 20
-78.8882
 11
40.181
 21
-78.9782
  0
LINE
  8
0
 10
40.181
 20
-78.9782
 11
40.3817
 21
-79.1012
  0
LINE
  8
0
 10
40.3817
 20
-79.1012
 11
40.5607
 21
-79.2541
  0
LINE
  8
0
 10
40.5607
 20
-79.2541
 11
40.7135
 21
-79.4331
  0
LINE
  8
0
 10
40.7135
 20
-79.4331
 11
40.8365
 21
-79.6338
  0
LINE
  8
0
 10
40.8365
 20
-79.6338
 11
40.9266
 21
-79.8512
  0
LINE
  8
0
 10
40.9266
 20
-79.8512
 11
40.9815
 21
-80.0801
  0
LINE
  8
0
 10
40.9815
 20
-80.0801
 11
41
 21
-80.3147
  0
LINE
  8
0
 10
41
 20
-80.3147
 11
40.9815
 21
-80.5494
  0
LINE
  8
0
 10
40.9815
 20
-80.5494
 11
40.9266
 21
-80.7783
  0
LINE
  8
0
 10
40.9266
 20
-80.7783
 11
40.8365
 21
-80.9957
  0
LINE
  8
0
 10
40.8365
 20
-80.9957
 11
40.7135
 21
-81.1964
  0
LINE
  8
0
 10
40.7135
 20
-81.1964
 11
40.5607
 21
-81.3754
  0
LINE
  8
0
 10
40.5607
 20
-81.3754
 11
40.3817
 21
-81.5283
  0
LINE
  8
0
 10
40.3817
 20
-81.5283
 11
40.181
 21
-81.6512
  0
LINE
  8
0
 10
40.181
 20
-81.6512
 11
39.9635
 21
-81.7413
  0
LINE
  8
0
 10
39.9635
 20
-81.7413
 11
39.7346
 21
-81.7963
  0
LINE
  8
0
 10
39.7346
 20
-81.7963
 11
39.5
 21
-81.8147
  0
LINE
  8
0
 10
39.5
 20
-81.8147
 11
39.2653
 21
-81.7963
  0
ENDSEC
  0
SECTION
  2
OBJECTS
  0
DICTIONARY
  0
ENDSEC
  0
EOF
