  0
SECTION
  2
BLOCKS
  0
ENDSEC
  0
SECTION
  2
ENTITIES
  0
LINE
  8
0
 10
-54.068
 20
-30.9501
 11
-55.293
 21
-30.9501
  0
LINE
  8
0
 10
-55.293
 20
-30.9501
 11
-55.3518
 21
-30.9478
  0
LINE
  8
0
 10
-55.3518
 20
-30.9478
 11
-55.4103
 21
-30.9409
  0
LINE
  8
0
 10
-55.4103
 20
-30.9409
 11
-55.4681
 21
-30.9294
  0
LINE
  8
0
 10
-55.4681
 20
-30.9294
 11
-55.5247
 21
-30.9134
  0
LINE
  8
0
 10
-55.5247
 20
-30.9134
 11
-55.58
 21
-30.893
  0
LINE
  8
0
 10
-55.58
 20
-30.893
 11
-55.6335
 21
-30.8683
  0
LINE
  8
0
 10
-55.6335
 20
-30.8683
 11
-55.6849
 21
-30.8396
  0
LINE
  8
0
 10
-55.6849
 20
-30.8396
 11
-55.7338
 21
-30.8069
  0
LINE
  8
0
 10
-55.7338
 20
-30.8069
 11
-55.7801
 21
-30.7704
  0
LINE
  8
0
 10
-55.7801
 20
-30.7704
 11
-55.8233
 21
-30.7304
  0
LINE
  8
0
 10
-55.8233
 20
-30.7304
 11
-55.8633
 21
-30.6872
  0
LINE
  8
0
 10
-55.8633
 20
-30.6872
 11
-55.8997
 21
-30.6409
  0
LINE
  8
0
 10
-55.8997
 20
-30.6409
 11
-55.9325
 21
-30.592
  0
LINE
  8
0
 10
-55.9325
 20
-30.592
 11
-55.9612
 21
-30.5406
  0
LINE
  8
0
 10
-55.9612
 20
-30.5406
 11
-55.9859
 21
-30.4871
  0
LINE
  8
0
 10
-55.9859
 20
-30.4871
 11
-56.0063
 21
-30.4319
  0
LINE
  8
0
 10
-56.0063
 20
-30.4319
 11
-56.0223
 21
-30.3752
  0
LINE
  8
0
 10
-56.0223
 20
-30.3752
 11
-56.0338
 21
-30.3174
  0
LINE
  8
0
 10
-56.0338
 20
-30.3174
 11
-56.0407
 21
-30.2589
  0
LINE
  8
0
 10
-56.0407
 20
-30.2589
 11
-56.043
 21
-30.2001
  0
LINE
  8
0
 10
-56.043
 20
-30.2001
 11
-56.0407
 21
-30.1413
  0
LINE
  8
0
 10
-56.0407
 20
-30.1413
 11
-56.0338
 21
-30.0828
  0
LINE
  8
0
 10
-56.0338
 20
-30.0828
 11
-56.0223
 21
-30.025
  0
LINE
  8
0
 10
-56.0223
 20
-30.025
 11
-56.0063
 21
-29.9684
  0
LINE
  8
0
 10
-56.0063
 20
-29.9684
 11
-55.9859
 21
-29.9131
  0
LINE
  8
0
 10
-55.9859
 20
-29.9131
 11
-55.9612
 21
-29.8596
  0
LINE
  8
0
 10
-55.9612
 20
-29.8596
 11
-55.9325
 21
-29.8082
  0
LINE
  8
0
 10
-55.9325
 20
-29.8082
 11
-55.8997
 21
-29.7593
  0
LINE
  8
0
 10
-55.8997
 20
-29.7593
 11
-55.8633
 21
-29.713
  0
LINE
  8
0
 10
-55.8633
 20
-29.713
 11
-55.8233
 21
-29.6698
  0
LINE
  8
0
 10
-55.8233
 20
-29.6698
 11
-55.7801
 21
-29.6298
  0
LINE
  8
0
 10
-55.7801
 20
-29.6298
 11
-55.7338
 21
-29.5934
  0
LINE
  8
0
 10
-55.7338
 20
-29.5934
 11
-55.6849
 21
-29.5606
  0
LINE
  8
0
 10
-55.6849
 20
-29.5606
 11
-55.6335
 21
-29.5319
  0
LINE
  8
0
 10
-55.6335
 20
-29.5319
 11
-55.58
 21
-29.5072
  0
LINE
  8
0
 10
-55.58
 20
-29.5072
 11
-55.5247
 21
-29.4868
  0
LINE
  8
0
 10
-55.5247
 20
-29.4868
 11
-55.4681
 21
-29.4708
  0
LINE
  8
0
 10
-55.4681
 20
-29.4708
 11
-55.4103
 21
-29.4594
  0
LINE
  8
0
 10
-55.4103
 20
-29.4594
 11
-55.3518
 21
-29.4524
  0
LINE
  8
0
 10
-55.3518
 20
-29.4524
 11
-55.293
 21
-29.4501
  0
LINE
  8
0
 10
-55.293
 20
-29.4501
 11
-55.293
 21
-28.0001
  0
LINE
  8
0
 10
-55.293
 20
-28.0001
 11
-55.2847
 21
-27.7883
  0
LINE
  8
0
 10
-55.2847
 20
-27.7883
 11
-55.2597
 21
-27.5777
  0
LINE
  8
0
 10
-55.2597
 20
-27.5777
 11
-55.2184
 21
-27.3698
  0
LINE
  8
0
 10
-55.2184
 20
-27.3698
 11
-55.1608
 21
-27.1658
  0
LINE
  8
0
 10
-55.1608
 20
-27.1658
 11
-55.0874
 21
-26.9669
  0
LINE
  8
0
 10
-55.0874
 20
-26.9669
 11
-54.9987
 21
-26.7743
  0
LINE
  8
0
 10
-54.9987
 20
-26.7743
 11
-54.8951
 21
-26.5894
  0
LINE
  8
0
 10
-54.8951
 20
-26.5894
 11
-54.7773
 21
-26.4131
  0
LINE
  8
0
 10
-54.7773
 20
-26.4131
 11
-54.6461
 21
-26.2466
  0
LINE
  8
0
 10
-54.6461
 20
-26.2466
 11
-54.5022
 21
-26.0909
  0
LINE
  8
0
 10
-54.5022
 20
-26.0909
 11
-54.3465
 21
-25.947
  0
LINE
  8
0
 10
-54.3465
 20
-25.947
 11
-54.18
 21
-25.8158
  0
LINE
  8
0
 10
-54.18
 20
-25.8158
 11
-54.0037
 21
-25.698
  0
LINE
  8
0
 10
-54.0037
 20
-25.698
 11
-53.8188
 21
-25.5944
  0
LINE
  8
0
 10
-53.8188
 20
-25.5944
 11
-53.6262
 21
-25.5056
  0
LINE
  8
0
 10
-53.6262
 20
-25.5056
 11
-53.4273
 21
-25.4323
  0
LINE
  8
0
 10
-53.4273
 20
-25.4323
 11
-53.2233
 21
-25.3747
  0
LINE
  8
0
 10
-53.2233
 20
-25.3747
 11
-53.0154
 21
-25.3334
  0
LINE
  8
0
 10
-53.0154
 20
-25.3334
 11
-52.8048
 21
-25.3084
  0
LINE
  8
0
 10
-52.8048
 20
-25.3084
 11
-52.593
 21
-25.3001
  0
LINE
  8
0
 10
-52.593
 20
-25.3001
 11
-52.3811
 21
-25.3084
  0
LINE
  8
0
 10
-52.3811
 20
-25.3084
 11
-52.1706
 21
-25.3334
  0
LINE
  8
0
 10
-52.1706
 20
-25.3334
 11
-51.9627
 21
-25.3747
  0
LINE
  8
0
 10
-51.9627
 20
-25.3747
 11
-51.7587
 21
-25.4323
  0
LINE
  8
0
 10
-51.7587
 20
-25.4323
 11
-51.5598
 21
-25.5056
  0
LINE
  8
0
 10
-51.5598
 20
-25.5056
 11
-51.3672
 21
-25.5944
  0
LINE
  8
0
 10
-51.3672
 20
-25.5944
 11
-51.1823
 21
-25.698
  0
LINE
  8
0
 10
-51.1823
 20
-25.698
 11
-51.006
 21
-25.8158
  0
LINE
  8
0
 10
-51.006
 20
-25.8158
 11
-50.8395
 21
-25.947
  0
LINE
  8
0
 10
-50.8395
 20
-25.947
 11
-50.6838
 21
-26.0909
  0
LINE
  8
0
 10
-50.6838
 20
-26.0909
 11
-50.5399
 21
-26.2466
  0
LINE
  8
0
 10
-50.5399
 20
-26.2466
 11
-50.4086
 21
-26.4131
  0
LINE
  8
0
 10
-50.4086
 20
-26.4131
 11
-50.2909
 21
-26.5894
  0
LINE
  8
0
 10
-50.2909
 20
-26.5894
 11
-50.1873
 21
-26.7743
  0
LINE
  8
0
 10
-50.1873
 20
-26.7743
 11
-50.0985
 21
-26.9669
  0
LINE
  8
0
 10
-50.0985
 20
-26.9669
 11
-50.0251
 21
-27.1658
  0
LINE
  8
0
 10
-50.0251
 20
-27.1658
 11
-49.9676
 21
-27.3698
  0
LINE
  8
0
 10
-49.9676
 20
-27.3698
 11
-49.9262
 21
-27.5777
  0
LINE
  8
0
 10
-49.9262
 20
-27.5777
 11
-49.9013
 21
-27.7883
  0
LINE
  8
0
 10
-49.9013
 20
-27.7883
 11
-49.893
 21
-28.0001
  0
LINE
  8
0
 10
-49.893
 20
-28.0001
 11
-49.893
 21
-29.4501
  0
LINE
  8
0
 10
-49.893
 20
-29.4501
 11
-49.8342
 21
-29.4524
  0
LINE
  8
0
 10
-49.8342
 20
-29.4524
 11
-49.7757
 21
-29.4594
  0
LINE
  8
0
 10
-49.7757
 20
-29.4594
 11
-49.7179
 21
-29.4708
  0
LINE
  8
0
 10
-49.7179
 20
-29.4708
 11
-49.6612
 21
-29.4868
  0
LINE
  8
0
 10
-49.6612
 20
-29.4868
 11
-49.606
 21
-29.5072
  0
LINE
  8
0
 10
-49.606
 20
-29.5072
 11
-49.5525
 21
-29.5319
  0
LINE
  8
0
 10
-49.5525
 20
-29.5319
 11
-49.5011
 21
-29.5606
  0
LINE
  8
0
 10
-49.5011
 20
-29.5606
 11
-49.4521
 21
-29.5934
  0
LINE
  8
0
 10
-49.4521
 20
-29.5934
 11
-49.4059
 21
-29.6298
  0
LINE
  8
0
 10
-49.4059
 20
-29.6298
 11
-49.3627
 21
-29.6698
  0
LINE
  8
0
 10
-49.3627
 20
-29.6698
 11
-49.3227
 21
-29.713
  0
LINE
  8
0
 10
-49.3227
 20
-29.713
 11
-49.2862
 21
-29.7593
  0
LINE
  8
0
 10
-49.2862
 20
-29.7593
 11
-49.2535
 21
-29.8082
  0
LINE
  8
0
 10
-49.2535
 20
-29.8082
 11
-49.2247
 21
-29.8596
  0
LINE
  8
0
 10
-49.2247
 20
-29.8596
 11
-49.2001
 21
-29.9131
  0
LINE
  8
0
 10
-49.2001
 20
-29.9131
 11
-49.1797
 21
-29.9684
  0
LINE
  8
0
 10
-49.1797
 20
-29.9684
 11
-49.1637
 21
-30.025
  0
LINE
  8
0
 10
-49.1637
 20
-30.025
 11
-49.1522
 21
-30.0828
  0
LINE
  8
0
 10
-49.1522
 20
-30.0828
 11
-49.1453
 21
-30.1413
  0
LINE
  8
0
 10
-49.1453
 20
-30.1413
 11
-49.143
 21
-30.2001
  0
LINE
  8
0
 10
-49.143
 20
-30.2001
 11
-49.1453
 21
-30.2589
  0
LINE
  8
0
 10
-49.1453
 20
-30.2589
 11
-49.1522
 21
-30.3174
  0
LINE
  8
0
 10
-49.1522
 20
-30.3174
 11
-49.1637
 21
-30.3752
  0
LINE
  8
0
 10
-49.1637
 20
-30.3752
 11
-49.1797
 21
-30.4319
  0
LINE
  8
0
 10
-49.1797
 20
-30.4319
 11
-49.2001
 21
-30.4871
  0
LINE
  8
0
 10
-49.2001
 20
-30.4871
 11
-49.2247
 21
-30.5406
  0
LINE
  8
0
 10
-49.2247
 20
-30.5406
 11
-49.2535
 21
-30.592
  0
LINE
  8
0
 10
-49.2535
 20
-30.592
 11
-49.2862
 21
-30.6409
  0
LINE
  8
0
 10
-49.2862
 20
-30.6409
 11
-49.3227
 21
-30.6872
  0
LINE
  8
0
 10
-49.3227
 20
-30.6872
 11
-49.3627
 21
-30.7304
  0
LINE
  8
0
 10
-49.3627
 20
-30.7304
 11
-49.4059
 21
-30.7704
  0
LINE
  8
0
 10
-49.4059
 20
-30.7704
 11
-49.4521
 21
-30.8069
  0
LINE
  8
0
 10
-49.4521
 20
-30.8069
 11
-49.5011
 21
-30.8396
  0
LINE
  8
0
 10
-49.5011
 20
-30.8396
 11
-49.5525
 21
-30.8683
  0
LINE
  8
0
 10
-49.5525
 20
-30.8683
 11
-49.606
 21
-30.893
  0
LINE
  8
0
 10
-49.606
 20
-30.893
 11
-49.6612
 21
-30.9134
  0
LINE
  8
0
 10
-49.6612
 20
-30.9134
 11
-49.7179
 21
-30.9294
  0
LINE
  8
0
 10
-49.7179
 20
-30.9294
 11
-49.7757
 21
-30.9409
  0
LINE
  8
0
 10
-49.7757
 20
-30.9409
 11
-49.8342
 21
-30.9478
  0
LINE
  8
0
 10
-49.8342
 20
-30.9478
 11
-49.893
 21
-30.9501
  0
LINE
  8
0
 10
-49.893
 20
-30.9501
 11
-51.118
 21
-30.9501
  0
LINE
  8
0
 10
-51.118
 20
-30.9501
 11
-51.118
 21
-33.95
  0
LINE
  8
0
 10
-51.118
 20
-33.95
 11
-42.5
 21
-33.95
  0
LINE
  8
0
 10
-42.5
 20
-33.95
 11
-42.5
 21
-31.25
  0
LINE
  8
0
 10
-42.5
 20
-31.25
 11
-30.5
 21
-31.25
  0
LINE
  8
0
 10
-30.5
 20
-31.25
 11
-30.5
 21
-13.75
  0
LINE
  8
0
 10
-30.5
 20
-13.75
 11
-30.4669
 21
-12.6983
  0
LINE
  8
0
 10
-30.4669
 20
-12.6983
 11
-30.3679
 21
-11.6507
  0
LINE
  8
0
 10
-30.3679
 20
-11.6507
 11
-30.2033
 21
-10.6114
  0
LINE
  8
0
 10
-30.2033
 20
-10.6114
 11
-29.9738
 21
-9.58444
  0
LINE
  8
0
 10
-29.9738
 20
-9.58444
 11
-29.6802
 21
-8.57396
  0
LINE
  8
0
 10
-29.6802
 20
-8.57396
 11
-29.3237
 21
-7.58391
  0
LINE
  8
0
 10
-29.3237
 20
-7.58391
 11
-28.9058
 21
-6.61819
  0
LINE
  8
0
 10
-28.9058
 20
-6.61819
 11
-28.4281
 21
-5.68062
  0
LINE
  8
0
 10
-28.4281
 20
-5.68062
 11
-27.8925
 21
-4.77489
  0
LINE
  8
0
 10
-27.8925
 20
-4.77489
 11
-27.301
 21
-3.90459
  0
LINE
  8
0
 10
-27.301
 20
-3.90459
 11
-26.6561
 21
-3.07314
  0
LINE
  8
0
 10
-26.6561
 20
-3.07314
 11
-25.9602
 21
-2.28383
  0
LINE
  8
0
 10
-25.9602
 20
-2.28383
 11
-25.2162
 21
-1.53976
  0
LINE
  8
0
 10
-25.2162
 20
-1.53976
 11
-24.5
 21
-0.908386
  0
LINE
  8
0
 10
-24.5
 20
-0.908386
 11
-24.5
 21
6.75
  0
LINE
  8
0
 10
-24.5
 20
6.75
 11
-24.496
 21
6.87558
  0
LINE
  8
0
 10
-24.496
 20
6.87558
 11
-24.4842
 21
7.00066
  0
LINE
  8
0
 10
-24.4842
 20
7.00066
 11
-24.4646
 21
7.12476
  0
LINE
  8
0
 10
-24.4646
 20
7.12476
 11
-24.4372
 21
7.24738
  0
LINE
  8
0
 10
-24.4372
 20
7.24738
 11
-24.4021
 21
7.36803
  0
LINE
  8
0
 10
-24.4021
 20
7.36803
 11
-24.3595
 21
7.48624
  0
LINE
  8
0
 10
-24.3595
 20
7.48624
 11
-24.3096
 21
7.60155
  0
LINE
  8
0
 10
-24.3096
 20
7.60155
 11
-24.2526
 21
7.7135
  0
LINE
  8
0
 10
-24.2526
 20
7.7135
 11
-24.1886
 21
7.82164
  0
LINE
  8
0
 10
-24.1886
 20
7.82164
 11
-24.118
 21
7.92557
  0
LINE
  8
0
 10
-24.118
 20
7.92557
 11
-24.041
 21
8.02484
  0
LINE
  8
0
 10
-24.041
 20
8.02484
 11
-23.9579
 21
8.11908
  0
LINE
  8
0
 10
-23.9579
 20
8.11908
 11
-23.8691
 21
8.20793
  0
LINE
  8
0
 10
-23.8691
 20
8.20793
 11
-23.7748
 21
8.29102
  0
LINE
  8
0
 10
-23.7748
 20
8.29102
 11
-23.6756
 21
8.36803
  0
LINE
  8
0
 10
-23.6756
 20
8.36803
 11
-23.5716
 21
8.43864
  0
LINE
  8
0
 10
-23.5716
 20
8.43864
 11
-23.4635
 21
8.50261
  0
LINE
  8
0
 10
-23.4635
 20
8.50261
 11
-23.3515
 21
8.55965
  0
LINE
  8
0
 10
-23.3515
 20
8.55965
 11
-23.2362
 21
8.60954
  0
LINE
  8
0
 10
-23.2362
 20
8.60954
 11
-23.118
 21
8.6521
  0
LINE
  8
0
 10
-23.118
 20
8.6521
 11
-22.9974
 21
8.68716
  0
LINE
  8
0
 10
-22.9974
 20
8.68716
 11
-22.8748
 21
8.71457
  0
LINE
  8
0
 10
-22.8748
 20
8.71457
 11
-22.7507
 21
8.73422
  0
LINE
  8
0
 10
-22.7507
 20
8.73422
 11
-22.6256
 21
8.74605
  0
LINE
  8
0
 10
-22.6256
 20
8.74605
 11
-22.5
 21
8.75
  0
LINE
  8
0
 10
-22.5
 20
8.75
 11
22.5
 21
8.75
  0
LINE
  8
0
 10
22.5
 20
8.75
 11
22.6256
 21
8.74605
  0
LINE
  8
0
 10
22.6256
 20
8.74605
 11
22.7507
 21
8.73422
  0
LINE
  8
0
 10
22.7507
 20
8.73422
 11
22.8748
 21
8.71457
  0
LINE
  8
0
 10
22.8748
 20
8.71457
 11
22.9974
 21
8.68716
  0
LINE
  8
0
 10
22.9974
 20
8.68716
 11
23.118
 21
8.6521
  0
LINE
  8
0
 10
23.118
 20
8.6521
 11
23.2362
 21
8.60954
  0
LINE
  8
0
 10
23.2362
 20
8.60954
 11
23.3515
 21
8.55965
  0
LINE
  8
0
 10
23.3515
 20
8.55965
 11
23.4635
 21
8.50261
  0
LINE
  8
0
 10
23.4635
 20
8.50261
 11
23.5716
 21
8.43864
  0
LINE
  8
0
 10
23.5716
 20
8.43864
 11
23.6756
 21
8.36803
  0
LINE
  8
0
 10
23.6756
 20
8.36803
 11
23.7748
 21
8.29102
  0
LINE
  8
0
 10
23.7748
 20
8.29102
 11
23.8691
 21
8.20793
  0
LINE
  8
0
 10
23.8691
 20
8.20793
 11
23.9579
 21
8.11908
  0
LINE
  8
0
 10
23.9579
 20
8.11908
 11
24.041
 21
8.02484
  0
LINE
  8
0
 10
24.041
 20
8.02484
 11
24.118
 21
7.92557
  0
LINE
  8
0
 10
24.118
 20
7.92557
 11
24.1886
 21
7.82164
  0
LINE
  8
0
 10
24.1886
 20
7.82164
 11
24.2526
 21
7.7135
  0
LINE
  8
0
 10
24.2526
 20
7.7135
 11
24.3096
 21
7.60155
  0
LINE
  8
0
 10
24.3096
 20
7.60155
 11
24.3595
 21
7.48624
  0
LINE
  8
0
 10
24.3595
 20
7.48624
 11
24.4021
 21
7.36803
  0
LINE
  8
0
 10
24.4021
 20
7.36803
 11
24.4372
 21
7.24738
  0
LINE
  8
0
 10
24.4372
 20
7.24738
 11
24.4646
 21
7.12476
  0
LINE
  8
0
 10
24.4646
 20
7.12476
 11
24.4842
 21
7.00066
  0
LINE
  8
0
 10
24.4842
 20
7.00066
 11
24.496
 21
6.87558
  0
LINE
  8
0
 10
24.496
 20
6.87558
 11
24.5
 21
6.75
  0
LINE
  8
0
 10
24.5
 20
6.75
 11
24.5
 21
-0.908386
  0
LINE
  8
0
 10
24.5
 20
-0.908386
 11
25.2162
 21
-1.53976
  0
LINE
  8
0
 10
25.2162
 20
-1.53976
 11
25.9602
 21
-2.28383
  0
LINE
  8
0
 10
25.9602
 20
-2.28383
 11
26.6561
 21
-3.07314
  0
LINE
  8
0
 10
26.6561
 20
-3.07314
 11
27.301
 21
-3.90459
  0
LINE
  8
0
 10
27.301
 20
-3.90459
 11
27.8925
 21
-4.77489
  0
LINE
  8
0
 10
27.8925
 20
-4.77489
 11
28.4281
 21
-5.68062
  0
LINE
  8
0
 10
28.4281
 20
-5.68062
 11
28.9058
 21
-6.61819
  0
LINE
  8
0
 10
28.9058
 20
-6.61819
 11
29.3237
 21
-7.58391
  0
LINE
  8
0
 10
29.3237
 20
-7.58391
 11
29.6802
 21
-8.57396
  0
LINE
  8
0
 10
29.6802
 20
-8.57396
 11
29.9738
 21
-9.58444
  0
LINE
  8
0
 10
29.9738
 20
-9.58444
 11
30.2033
 21
-10.6114
  0
LINE
  8
0
 10
30.2033
 20
-10.6114
 11
30.3679
 21
-11.6507
  0
LINE
  8
0
 10
30.3679
 20
-11.6507
 11
30.4669
 21
-12.6983
  0
LINE
  8
0
 10
30.4669
 20
-12.6983
 11
30.5
 21
-13.75
  0
LINE
  8
0
 10
30.5
 20
-13.75
 11
30.5
 21
-31.25
  0
LINE
  8
0
 10
30.5
 20
-31.25
 11
42.5
 21
-31.25
  0
LINE
  8
0
 10
42.5
 20
-31.25
 11
42.5
 21
-33.95
  0
LINE
  8
0
 10
42.5
 20
-33.95
 11
51.118
 21
-33.95
  0
LINE
  8
0
 10
51.118
 20
-33.95
 11
51.118
 21
-30.9501
  0
LINE
  8
0
 10
51.118
 20
-30.9501
 11
49.893
 21
-30.9501
  0
LINE
  8
0
 10
49.893
 20
-30.9501
 11
49.8342
 21
-30.9478
  0
LINE
  8
0
 10
49.8342
 20
-30.9478
 11
49.7757
 21
-30.9409
  0
LINE
  8
0
 10
49.7757
 20
-30.9409
 11
49.7179
 21
-30.9294
  0
LINE
  8
0
 10
49.7179
 20
-30.9294
 11
49.6612
 21
-30.9134
  0
LINE
  8
0
 10
49.6612
 20
-30.9134
 11
49.606
 21
-30.893
  0
LINE
  8
0
 10
49.606
 20
-30.893
 11
49.5525
 21
-30.8683
  0
LINE
  8
0
 10
49.5525
 20
-30.8683
 11
49.5011
 21
-30.8396
  0
LINE
  8
0
 10
49.5011
 20
-30.8396
 11
49.4521
 21
-30.8069
  0
LINE
  8
0
 10
49.4521
 20
-30.8069
 11
49.4059
 21
-30.7704
  0
LINE
  8
0
 10
49.4059
 20
-30.7704
 11
49.3627
 21
-30.7304
  0
LINE
  8
0
 10
49.3627
 20
-30.7304
 11
49.3227
 21
-30.6872
  0
LINE
  8
0
 10
49.3227
 20
-30.6872
 11
49.2862
 21
-30.6409
  0
LINE
  8
0
 10
49.2862
 20
-30.6409
 11
49.2535
 21
-30.592
  0
LINE
  8
0
 10
49.2535
 20
-30.592
 11
49.2247
 21
-30.5406
  0
LINE
  8
0
 10
49.2247
 20
-30.5406
 11
49.2001
 21
-30.4871
  0
LINE
  8
0
 10
49.2001
 20
-30.4871
 11
49.1797
 21
-30.4319
  0
LINE
  8
0
 10
49.1797
 20
-30.4319
 11
49.1637
 21
-30.3752
  0
LINE
  8
0
 10
49.1637
 20
-30.3752
 11
49.1522
 21
-30.3174
  0
LINE
  8
0
 10
49.1522
 20
-30.3174
 11
49.1453
 21
-30.2589
  0
LINE
  8
0
 10
49.1453
 20
-30.2589
 11
49.143
 21
-30.2001
  0
LINE
  8
0
 10
49.143
 20
-30.2001
 11
49.1453
 21
-30.1413
  0
LINE
  8
0
 10
49.1453
 20
-30.1413
 11
49.1522
 21
-30.0828
  0
LINE
  8
0
 10
49.1522
 20
-30.0828
 11
49.1637
 21
-30.025
  0
LINE
  8
0
 10
49.1637
 20
-30.025
 11
49.1797
 21
-29.9684
  0
LINE
  8
0
 10
49.1797
 20
-29.9684
 11
49.2001
 21
-29.9131
  0
LINE
  8
0
 10
49.2001
 20
-29.9131
 11
49.2247
 21
-29.8596
  0
LINE
  8
0
 10
49.2247
 20
-29.8596
 11
49.2535
 21
-29.8082
  0
LINE
  8
0
 10
49.2535
 20
-29.8082
 11
49.2862
 21
-29.7593
  0
LINE
  8
0
 10
49.2862
 20
-29.7593
 11
49.3227
 21
-29.713
  0
LINE
  8
0
 10
49.3227
 20
-29.713
 11
49.3627
 21
-29.6698
  0
LINE
  8
0
 10
49.3627
 20
-29.6698
 11
49.4059
 21
-29.6298
  0
LINE
  8
0
 10
49.4059
 20
-29.6298
 11
49.4521
 21
-29.5934
  0
LINE
  8
0
 10
49.4521
 20
-29.5934
 11
49.5011
 21
-29.5606
  0
LINE
  8
0
 10
49.5011
 20
-29.5606
 11
49.5525
 21
-29.5319
  0
LINE
  8
0
 10
49.5525
 20
-29.5319
 11
49.606
 21
-29.5072
  0
LINE
  8
0
 10
49.606
 20
-29.5072
 11
49.6612
 21
-29.4868
  0
LINE
  8
0
 10
49.6612
 20
-29.4868
 11
49.7179
 21
-29.4708
  0
LINE
  8
0
 10
49.7179
 20
-29.4708
 11
49.7757
 21
-29.4594
  0
LINE
  8
0
 10
49.7757
 20
-29.4594
 11
49.8342
 21
-29.4524
  0
LINE
  8
0
 10
49.8342
 20
-29.4524
 11
49.893
 21
-29.4501
  0
LINE
  8
0
 10
49.893
 20
-29.4501
 11
49.893
 21
-28.0001
  0
LINE
  8
0
 10
49.893
 20
-28.0001
 11
49.9013
 21
-27.7883
  0
LINE
  8
0
 10
49.9013
 20
-27.7883
 11
49.9262
 21
-27.5777
  0
LINE
  8
0
 10
49.9262
 20
-27.5777
 11
49.9676
 21
-27.3698
  0
LINE
  8
0
 10
49.9676
 20
-27.3698
 11
50.0251
 21
-27.1658
  0
LINE
  8
0
 10
50.0251
 20
-27.1658
 11
50.0985
 21
-26.9669
  0
LINE
  8
0
 10
50.0985
 20
-26.9669
 11
50.1873
 21
-26.7743
  0
LINE
  8
0
 10
50.1873
 20
-26.7743
 11
50.2909
 21
-26.5894
  0
LINE
  8
0
 10
50.2909
 20
-26.5894
 11
50.4086
 21
-26.4131
  0
LINE
  8
0
 10
50.4086
 20
-26.4131
 11
50.5399
 21
-26.2466
  0
LINE
  8
0
 10
50.5399
 20
-26.2466
 11
50.6838
 21
-26.0909
  0
LINE
  8
0
 10
50.6838
 20
-26.0909
 11
50.8395
 21
-25.947
  0
LINE
  8
0
 10
50.8395
 20
-25.947
 11
51.006
 21
-25.8158
  0
LINE
  8
0
 10
51.006
 20
-25.8158
 11
51.1823
 21
-25.698
  0
LINE
  8
0
 10
51.1823
 20
-25.698
 11
51.3672
 21
-25.5944
  0
LINE
  8
0
 10
51.3672
 20
-25.5944
 11
51.5598
 21
-25.5056
  0
LINE
  8
0
 10
51.5598
 20
-25.5056
 11
51.7587
 21
-25.4323
  0
LINE
  8
0
 10
51.7587
 20
-25.4323
 11
51.9627
 21
-25.3747
  0
LINE
  8
0
 10
51.9627
 20
-25.3747
 11
52.1706
 21
-25.3334
  0
LINE
  8
0
 10
52.1706
 20
-25.3334
 11
52.3811
 21
-25.3084
  0
LINE
  8
0
 10
52.3811
 20
-25.3084
 11
52.593
 21
-25.3001
  0
LINE
  8
0
 10
52.593
 20
-25.3001
 11
52.8048
 21
-25.3084
  0
LINE
  8
0
 10
52.8048
 20
-25.3084
 11
53.0154
 21
-25.3334
  0
LINE
  8
0
 10
53.0154
 20
-25.3334
 11
53.2233
 21
-25.3747
  0
LINE
  8
0
 10
53.2233
 20
-25.3747
 11
53.4273
 21
-25.4323
  0
LINE
  8
0
 10
53.4273
 20
-25.4323
 11
53.6262
 21
-25.5056
  0
LINE
  8
0
 10
53.6262
 20
-25.5056
 11
53.8188
 21
-25.5944
  0
LINE
  8
0
 10
53.8188
 20
-25.5944
 11
54.0037
 21
-25.698
  0
LINE
  8
0
 10
54.0037
 20
-25.698
 11
54.18
 21
-25.8158
  0
LINE
  8
0
 10
54.18
 20
-25.8158
 11
54.3465
 21
-25.947
  0
LINE
  8
0
 10
54.3465
 20
-25.947
 11
54.5022
 21
-26.0909
  0
LINE
  8
0
 10
54.5022
 20
-26.0909
 11
54.6461
 21
-26.2466
  0
LINE
  8
0
 10
54.6461
 20
-26.2466
 11
54.7773
 21
-26.4131
  0
LINE
  8
0
 10
54.7773
 20
-26.4131
 11
54.8951
 21
-26.5894
  0
LINE
  8
0
 10
54.8951
 20
-26.5894
 11
54.9987
 21
-26.7743
  0
LINE
  8
0
 10
54.9987
 20
-26.7743
 11
55.0874
 21
-26.9669
  0
LINE
  8
0
 10
55.0874
 20
-26.9669
 11
55.1608
 21
-27.1658
  0
LINE
  8
0
 10
55.1608
 20
-27.1658
 11
55.2184
 21
-27.3698
  0
LINE
  8
0
 10
55.2184
 20
-27.3698
 11
55.2597
 21
-27.5777
  0
LINE
  8
0
 10
55.2597
 20
-27.5777
 11
55.2847
 21
-27.7883
  0
LINE
  8
0
 10
55.2847
 20
-27.7883
 11
55.293
 21
-28.0001
  0
LINE
  8
0
 10
55.293
 20
-28.0001
 11
55.293
 21
-29.4501
  0
LINE
  8
0
 10
55.293
 20
-29.4501
 11
55.3518
 21
-29.4524
  0
LINE
  8
0
 10
55.3518
 20
-29.4524
 11
55.4103
 21
-29.4594
  0
LINE
  8
0
 10
55.4103
 20
-29.4594
 11
55.4681
 21
-29.4708
  0
LINE
  8
0
 10
55.4681
 20
-29.4708
 11
55.5247
 21
-29.4868
  0
LINE
  8
0
 10
55.5247
 20
-29.4868
 11
55.58
 21
-29.5072
  0
LINE
  8
0
 10
55.58
 20
-29.5072
 11
55.6335
 21
-29.5319
  0
LINE
  8
0
 10
55.6335
 20
-29.5319
 11
55.6849
 21
-29.5606
  0
LINE
  8
0
 10
55.6849
 20
-29.5606
 11
55.7338
 21
-29.5934
  0
LINE
  8
0
 10
55.7338
 20
-29.5934
 11
55.7801
 21
-29.6298
  0
LINE
  8
0
 10
55.7801
 20
-29.6298
 11
55.8233
 21
-29.6698
  0
LINE
  8
0
 10
55.8233
 20
-29.6698
 11
55.8633
 21
-29.713
  0
LINE
  8
0
 10
55.8633
 20
-29.713
 11
55.8997
 21
-29.7593
  0
LINE
  8
0
 10
55.8997
 20
-29.7593
 11
55.9325
 21
-29.8082
  0
LINE
  8
0
 10
55.9325
 20
-29.8082
 11
55.9612
 21
-29.8596
  0
LINE
  8
0
 10
55.9612
 20
-29.8596
 11
55.9859
 21
-29.9131
  0
LINE
  8
0
 10
55.9859
 20
-29.9131
 11
56.0063
 21
-29.9684
  0
LINE
  8
0
 10
56.0063
 20
-29.9684
 11
56.0223
 21
-30.025
  0
LINE
  8
0
 10
56.0223
 20
-30.025
 11
56.0338
 21
-30.0828
  0
LINE
  8
0
 10
56.0338
 20
-30.0828
 11
56.0407
 21
-30.1413
  0
LINE
  8
0
 10
56.0407
 20
-30.1413
 11
56.043
 21
-30.2001
  0
LINE
  8
0
 10
56.043
 20
-30.2001
 11
56.0407
 21
-30.2589
  0
LINE
  8
0
 10
56.0407
 20
-30.2589
 11
56.0338
 21
-30.3174
  0
LINE
  8
0
 10
56.0338
 20
-30.3174
 11
56.0223
 21
-30.3752
  0
LINE
  8
0
 10
56.0223
 20
-30.3752
 11
56.0063
 21
-30.4319
  0
LINE
  8
0
 10
56.0063
 20
-30.4319
 11
55.9859
 21
-30.4871
  0
LINE
  8
0
 10
55.9859
 20
-30.4871
 11
55.9612
 21
-30.5406
  0
LINE
  8
0
 10
55.9612
 20
-30.5406
 11
55.9325
 21
-30.592
  0
LINE
  8
0
 10
55.9325
 20
-30.592
 11
55.8997
 21
-30.6409
  0
LINE
  8
0
 10
55.8997
 20
-30.6409
 11
55.8633
 21
-30.6872
  0
LINE
  8
0
 10
55.8633
 20
-30.6872
 11
55.8233
 21
-30.7304
  0
LINE
  8
0
 10
55.8233
 20
-30.7304
 11
55.7801
 21
-30.7704
  0
LINE
  8
0
 10
55.7801
 20
-30.7704
 11
55.7338
 21
-30.8069
  0
LINE
  8
0
 10
55.7338
 20
-30.8069
 11
55.6849
 21
-30.8396
  0
LINE
  8
0
 10
55.6849
 20
-30.8396
 11
55.6335
 21
-30.8683
  0
LINE
  8
0
 10
55.6335
 20
-30.8683
 11
55.58
 21
-30.893
  0
LINE
  8
0
 10
55.58
 20
-30.893
 11
55.5247
 21
-30.9134
  0
LINE
  8
0
 10
55.5247
 20
-30.9134
 11
55.4681
 21
-30.9294
  0
LINE
  8
0
 10
55.4681
 20
-30.9294
 11
55.4103
 21
-30.9409
  0
LINE
  8
0
 10
55.4103
 20
-30.9409
 11
55.3518
 21
-30.9478
  0
LINE
  8
0
 10
55.3518
 20
-30.9478
 11
55.293
 21
-30.9501
  0
LINE
  8
0
 10
55.293
 20
-30.9501
 11
54.068
 21
-30.9501
  0
LINE
  8
0
 10
54.068
 20
-30.9501
 11
54.068
 21
-33.95
  0
LINE
  8
0
 10
54.068
 20
-33.95
 11
62.686
 21
-33.95
  0
LINE
  8
0
 10
62.686
 20
-33.95
 11
62.686
 21
-31.25
  0
LINE
  8
0
 10
62.686
 20
-31.25
 11
71.384
 21
-31.25
  0
LINE
  8
0
 10
71.384
 20
-31.25
 11
69.7792
 21
-22.1482
  0
LINE
  8
0
 10
69.7792
 20
-22.1482
 11
66.8546
 21
-22.6639
  0
LINE
  8
0
 10
66.8546
 20
-22.6639
 11
65.9863
 21
-17.7399
  0
LINE
  8
0
 10
65.9863
 20
-17.7399
 11
68.9109
 21
-17.2241
  0
LINE
  8
0
 10
68.9109
 20
-17.2241
 11
64.3961
 21
8.38081
  0
LINE
  8
0
 10
64.3961
 20
8.38081
 11
61.4715
 21
7.86513
  0
LINE
  8
0
 10
61.4715
 20
7.86513
 11
60.6032
 21
12.7892
  0
LINE
  8
0
 10
60.6032
 20
12.7892
 11
63.5278
 21
13.3049
  0
LINE
  8
0
 10
63.5278
 20
13.3049
 11
56.5163
 21
53.0691
  0
LINE
  8
0
 10
56.5163
 20
53.0691
 11
56.4043
 21
53.8464
  0
LINE
  8
0
 10
56.4043
 20
53.8464
 11
56.3413
 21
54.6291
  0
LINE
  8
0
 10
56.3413
 20
54.6291
 11
56.3276
 21
55.4142
  0
LINE
  8
0
 10
56.3276
 20
55.4142
 11
56.3632
 21
56.1987
  0
LINE
  8
0
 10
56.3632
 20
56.1987
 11
56.448
 21
56.9794
  0
LINE
  8
0
 10
56.448
 20
56.9794
 11
56.5817
 21
57.7532
  0
LINE
  8
0
 10
56.5817
 20
57.7532
 11
56.7637
 21
58.5171
  0
LINE
  8
0
 10
56.7637
 20
58.5171
 11
56.9933
 21
59.2681
  0
LINE
  8
0
 10
56.9933
 20
59.2681
 11
57.2696
 21
60.0031
  0
LINE
  8
0
 10
57.2696
 20
60.0031
 11
57.5915
 21
60.7194
  0
LINE
  8
0
 10
57.5915
 20
60.7194
 11
57.9577
 21
61.414
  0
LINE
  8
0
 10
57.9577
 20
61.414
 11
58.3669
 21
62.0843
  0
LINE
  8
0
 10
58.3669
 20
62.0843
 11
58.8173
 21
62.7275
  0
LINE
  8
0
 10
58.8173
 20
62.7275
 11
59.3072
 21
63.3412
  0
LINE
  8
0
 10
59.3072
 20
63.3412
 11
59.8347
 21
63.923
  0
LINE
  8
0
 10
59.8347
 20
63.923
 11
60.3976
 21
64.4704
  0
LINE
  8
0
 10
60.3976
 20
64.4704
 11
60.9939
 21
64.9814
  0
LINE
  8
0
 10
60.9939
 20
64.9814
 11
61.621
 21
65.454
  0
LINE
  8
0
 10
61.621
 20
65.454
 11
62.2766
 21
65.8863
  0
LINE
  8
0
 10
62.2766
 20
65.8863
 11
62.958
 21
66.2766
  0
LINE
  8
0
 10
62.958
 20
66.2766
 11
63.6626
 21
66.6233
  0
LINE
  8
0
 10
63.6626
 20
66.6233
 11
64.3876
 21
66.925
  0
LINE
  8
0
 10
64.3876
 20
66.925
 11
65.1301
 21
67.1807
  0
LINE
  8
0
 10
65.1301
 20
67.1807
 11
65.8871
 21
67.3892
  0
LINE
  8
0
 10
65.8871
 20
67.3892
 11
66.6558
 21
67.5498
  0
LINE
  8
0
 10
66.6558
 20
67.5498
 11
67.433
 21
67.6618
  0
LINE
  8
0
 10
67.433
 20
67.6618
 11
67.4574
 21
67.6638
  0
LINE
  8
0
 10
67.4574
 20
67.6638
 11
64.5
 21
98.401
  0
LINE
  8
0
 10
64.5
 20
98.401
 11
59.5
 21
98.401
  0
LINE
  8
0
 10
59.5
 20
98.401
 11
59.5
 21
97.4
  0
LINE
  8
0
 10
59.5
 20
97.4
 11
55.5
 21
97.4
  0
LINE
  8
0
 10
55.5
 20
97.4
 11
55.5
 21
98.401
  0
LINE
  8
0
 10
55.5
 20
98.401
 11
-51.5
 21
98.401
  0
LINE
  8
0
 10
-51.5
 20
98.401
 11
-51.5
 21
97.4
  0
LINE
  8
0
 10
-51.5
 20
97.4
 11
-55.5
 21
97.4
  0
LINE
  8
0
 10
-55.5
 20
97.4
 11
-55.5
 21
98.401
  0
LINE
  8
0
 10
-55.5
 20
98.401
 11
-64.5
 21
98.401
  0
LINE
  8
0
 10
-64.5
 20
98.401
 11
-67.4574
 21
67.6638
  0
LINE
  8
0
 10
-67.4574
 20
67.6638
 11
-67.433
 21
67.6618
  0
LINE
  8
0
 10
-67.433
 20
67.6618
 11
-66.6558
 21
67.5498
  0
LINE
  8
0
 10
-66.6558
 20
67.5498
 11
-65.8871
 21
67.3892
  0
LINE
  8
0
 10
-65.8871
 20
67.3892
 11
-65.1301
 21
67.1807
  0
LINE
  8
0
 10
-65.1301
 20
67.1807
 11
-64.3876
 21
66.925
  0
LINE
  8
0
 10
-64.3876
 20
66.925
 11
-63.6626
 21
66.6233
  0
LINE
  8
0
 10
-63.6626
 20
66.6233
 11
-62.958
 21
66.2766
  0
LINE
  8
0
 10
-62.958
 20
66.2766
 11
-62.2766
 21
65.8863
  0
LINE
  8
0
 10
-62.2766
 20
65.8863
 11
-61.621
 21
65.454
  0
LINE
  8
0
 10
-61.621
 20
65.454
 11
-60.9939
 21
64.9814
  0
LINE
  8
0
 10
-60.9939
 20
64.9814
 11
-60.3976
 21
64.4704
  0
LINE
  8
0
 10
-60.3976
 20
64.4704
 11
-59.8347
 21
63.923
  0
LINE
  8
0
 10
-59.8347
 20
63.923
 11
-59.3072
 21
63.3412
  0
LINE
  8
0
 10
-59.3072
 20
63.3412
 11
-58.8173
 21
62.7275
  0
LINE
  8
0
 10
-58.8173
 20
62.7275
 11
-58.3669
 21
62.0843
  0
LINE
  8
0
 10
-58.3669
 20
62.0843
 11
-57.9577
 21
61.414
  0
LINE
  8
0
 10
-57.9577
 20
61.414
 11
-57.5915
 21
60.7194
  0
LINE
  8
0
 10
-57.5915
 20
60.7194
 11
-57.2696
 21
60.0031
  0
LINE
  8
0
 10
-57.2696
 20
60.0031
 11
-56.9933
 21
59.2681
  0
LINE
  8
0
 10
-56.9933
 20
59.2681
 11
-56.7637
 21
58.5171
  0
LINE
  8
0
 10
-56.7637
 20
58.5171
 11
-56.5817
 21
57.7532
  0
LINE
  8
0
 10
-56.5817
 20
57.7532
 11
-56.448
 21
56.9794
  0
LINE
  8
0
 10
-56.448
 20
56.9794
 11
-56.3632
 21
56.1987
  0
LINE
  8
0
 10
-56.3632
 20
56.1987
 11
-56.3276
 21
55.4142
  0
LINE
  8
0
 10
-56.3276
 20
55.4142
 11
-56.3413
 21
54.6291
  0
LINE
  8
0
 10
-56.3413
 20
54.6291
 11
-56.4043
 21
53.8464
  0
LINE
  8
0
 10
-56.4043
 20
53.8464
 11
-56.5163
 21
53.0691
  0
LINE
  8
0
 10
-56.5163
 20
53.0691
 11
-63.5278
 21
13.3048
  0
LINE
  8
0
 10
-63.5278
 20
13.3048
 11
-60.6033
 21
12.7893
  0
LINE
  8
0
 10
-60.6033
 20
12.7893
 11
-61.4716
 21
7.86505
  0
LINE
  8
0
 10
-61.4716
 20
7.86505
 11
-64.3961
 21
8.38072
  0
LINE
  8
0
 10
-64.3961
 20
8.38072
 11
-68.9109
 21
-17.2242
  0
LINE
  8
0
 10
-68.9109
 20
-17.2242
 11
-65.9864
 21
-17.7398
  0
LINE
  8
0
 10
-65.9864
 20
-17.7398
 11
-66.8547
 21
-22.664
  0
LINE
  8
0
 10
-66.8547
 20
-22.664
 11
-69.7792
 21
-22.1483
  0
LINE
  8
0
 10
-69.7792
 20
-22.1483
 11
-71.384
 21
-31.25
  0
LINE
  8
0
 10
-71.384
 20
-31.25
 11
-62.686
 21
-31.25
  0
LINE
  8
0
 10
-62.686
 20
-31.25
 11
-62.686
 21
-33.95
  0
LINE
  8
0
 10
-62.686
 20
-33.95
 11
-54.068
 21
-33.95
  0
LINE
  8
0
 10
-54.068
 20
-33.95
 11
-54.068
 21
-30.9501
  0
LINE
  8
0
 10
-61.9253
 20
80.7832
 11
-62.3992
 21
81.0247
  0
LINE
  8
0
 10
-62.3992
 20
81.0247
 11
-62.7753
 21
81.4008
  0
LINE
  8
0
 10
-62.7753
 20
81.4008
 11
-63.0168
 21
81.8747
  0
LINE
  8
0
 10
-63.0168
 20
81.8747
 11
-63.1
 21
82.4
  0
LINE
  8
0
 10
-63.1
 20
82.4
 11
-63.0168
 21
82.9253
  0
LINE
  8
0
 10
-63.0168
 20
82.9253
 11
-62.7753
 21
83.3992
  0
LINE
  8
0
 10
-62.7753
 20
83.3992
 11
-62.3992
 21
83.7753
  0
LINE
  8
0
 10
-62.3992
 20
83.7753
 11
-61.9253
 21
84.0168
  0
LINE
  8
0
 10
-61.9253
 20
84.0168
 11
-61.4
 21
84.1
  0
LINE
  8
0
 10
-61.4
 20
84.1
 11
-60.8747
 21
84.0168
  0
LINE
  8
0
 10
-60.8747
 20
84.0168
 11
-60.4008
 21
83.7753
  0
LINE
  8
0
 10
-60.4008
 20
83.7753
 11
-60.0247
 21
83.3992
  0
LINE
  8
0
 10
-60.0247
 20
83.3992
 11
-59.7832
 21
82.9253
  0
LINE
  8
0
 10
-59.7832
 20
82.9253
 11
-59.7
 21
82.4
  0
LINE
  8
0
 10
-59.7
 20
82.4
 11
-59.7832
 21
81.8747
  0
LINE
  8
0
 10
-59.7832
 20
81.8747
 11
-60.0247
 21
81.4008
  0
LINE
  8
0
 10
-60.0247
 20
81.4008
 11
-60.4008
 21
81.0247
  0
LINE
  8
0
 10
-60.4008
 20
81.0247
 11
-60.8747
 21
80.7832
  0
LINE
  8
0
 10
-60.8747
 20
80.7832
 11
-61.4
 21
80.7
  0
LINE
  8
0
 10
-61.4
 20
80.7
 11
-61.9253
 21
80.7832
  0
LINE
  8
0
 10
-33.3753
 20
80.7832
 11
-33.8492
 21
81.0247
  0
LINE
  8
0
 10
-33.8492
 20
81.0247
 11
-34.2253
 21
81.4008
  0
LINE
  8
0
 10
-34.2253
 20
81.4008
 11
-34.4668
 21
81.8747
  0
LINE
  8
0
 10
-34.4668
 20
81.8747
 11
-34.55
 21
82.4
  0
LINE
  8
0
 10
-34.55
 20
82.4
 11
-34.4668
 21
82.9253
  0
LINE
  8
0
 10
-34.4668
 20
82.9253
 11
-34.2253
 21
83.3992
  0
LINE
  8
0
 10
-34.2253
 20
83.3992
 11
-33.8492
 21
83.7753
  0
LINE
  8
0
 10
-33.8492
 20
83.7753
 11
-33.3753
 21
84.0168
  0
LINE
  8
0
 10
-33.3753
 20
84.0168
 11
-32.85
 21
84.1
  0
LINE
  8
0
 10
-32.85
 20
84.1
 11
-32.3247
 21
84.0168
  0
LINE
  8
0
 10
-32.3247
 20
84.0168
 11
-31.8508
 21
83.7753
  0
LINE
  8
0
 10
-31.8508
 20
83.7753
 11
-31.4747
 21
83.3992
  0
LINE
  8
0
 10
-31.4747
 20
83.3992
 11
-31.2332
 21
82.9253
  0
LINE
  8
0
 10
-31.2332
 20
82.9253
 11
-31.15
 21
82.4
  0
LINE
  8
0
 10
-31.15
 20
82.4
 11
-31.2332
 21
81.8747
  0
LINE
  8
0
 10
-31.2332
 20
81.8747
 11
-31.4747
 21
81.4008
  0
LINE
  8
0
 10
-31.4747
 20
81.4008
 11
-31.8508
 21
81.0247
  0
LINE
  8
0
 10
-31.8508
 20
81.0247
 11
-32.3247
 21
80.7832
  0
LINE
  8
0
 10
-32.3247
 20
80.7832
 11
-32.85
 21
80.7
  0
LINE
  8
0
 10
-32.85
 20
80.7
 11
-33.3753
 21
80.7832
  0
LINE
  8
0
 10
55.5
 20
77
 11
55.5
 21
80
  0
LINE
  8
0
 10
55.5
 20
80
 11
59.5
 21
80
  0
LINE
  8
0
 10
59.5
 20
80
 11
59.5
 21
77
  0
LINE
  8
0
 10
59.5
 20
77
 11
55.5
 21
77
  0
LINE
  8
0
 10
-55.5
 20
77
 11
-55.5
 21
80
  0
LINE
  8
0
 10
-55.5
 20
80
 11
-51.5
 21
80
  0
LINE
  8
0
 10
-51.5
 20
80
 11
-51.5
 21
77
  0
LINE
  8
0
 10
-51.5
 20
77
 11
-55.5
 21
77
  0
LINE
  8
0
 10
14.7936
 20
71.8123
 11
14.641
 21
71.849
  0
LINE
  8
0
 10
14.641
 20
71.849
 11
14.496
 21
71.909
  0
LINE
  8
0
 10
14.496
 20
71.909
 11
14.3622
 21
71.991
  0
LINE
  8
0
 10
14.3622
 20
71.991
 11
14.2429
 21
72.0929
  0
LINE
  8
0
 10
14.2429
 20
72.0929
 11
14.141
 21
72.2122
  0
LINE
  8
0
 10
14.141
 20
72.2122
 11
14.059
 21
72.346
  0
LINE
  8
0
 10
14.059
 20
72.346
 11
13.9989
 21
72.491
  0
LINE
  8
0
 10
13.9989
 20
72.491
 11
13.9623
 21
72.6436
  0
LINE
  8
0
 10
13.9623
 20
72.6436
 11
13.95
 21
72.8
  0
LINE
  8
0
 10
13.95
 20
72.8
 11
-13.95
 21
72.8
  0
LINE
  8
0
 10
-13.95
 20
72.8
 11
-13.9623
 21
72.6436
  0
LINE
  8
0
 10
-13.9623
 20
72.6436
 11
-13.9989
 21
72.491
  0
LINE
  8
0
 10
-13.9989
 20
72.491
 11
-14.059
 21
72.346
  0
LINE
  8
0
 10
-14.059
 20
72.346
 11
-14.141
 21
72.2122
  0
LINE
  8
0
 10
-14.141
 20
72.2122
 11
-14.2429
 21
72.0929
  0
LINE
  8
0
 10
-14.2429
 20
72.0929
 11
-14.3622
 21
71.991
  0
LINE
  8
0
 10
-14.3622
 20
71.991
 11
-14.496
 21
71.909
  0
LINE
  8
0
 10
-14.496
 20
71.909
 11
-14.641
 21
71.849
  0
LINE
  8
0
 10
-14.641
 20
71.849
 11
-14.7936
 21
71.8123
  0
LINE
  8
0
 10
-14.7936
 20
71.8123
 11
-14.95
 21
71.8
  0
LINE
  8
0
 10
-14.95
 20
71.8
 11
-15.1064
 21
71.8123
  0
LINE
  8
0
 10
-15.1064
 20
71.8123
 11
-15.259
 21
71.849
  0
LINE
  8
0
 10
-15.259
 20
71.849
 11
-15.404
 21
71.909
  0
LINE
  8
0
 10
-15.404
 20
71.909
 11
-15.5378
 21
71.991
  0
LINE
  8
0
 10
-15.5378
 20
71.991
 11
-15.6571
 21
72.0929
  0
LINE
  8
0
 10
-15.6571
 20
72.0929
 11
-15.759
 21
72.2122
  0
LINE
  8
0
 10
-15.759
 20
72.2122
 11
-15.841
 21
72.346
  0
LINE
  8
0
 10
-15.841
 20
72.346
 11
-15.9011
 21
72.491
  0
LINE
  8
0
 10
-15.9011
 20
72.491
 11
-15.9377
 21
72.6436
  0
LINE
  8
0
 10
-15.9377
 20
72.6436
 11
-15.95
 21
72.8
  0
LINE
  8
0
 10
-15.95
 20
72.8
 11
-15.95
 21
76
  0
LINE
  8
0
 10
-15.95
 20
76
 11
-15.9377
 21
76.1564
  0
LINE
  8
0
 10
-15.9377
 20
76.1564
 11
-15.9011
 21
76.309
  0
LINE
  8
0
 10
-15.9011
 20
76.309
 11
-15.841
 21
76.454
  0
LINE
  8
0
 10
-15.841
 20
76.454
 11
-15.759
 21
76.5878
  0
LINE
  8
0
 10
-15.759
 20
76.5878
 11
-15.6571
 21
76.7071
  0
LINE
  8
0
 10
-15.6571
 20
76.7071
 11
-15.5378
 21
76.809
  0
LINE
  8
0
 10
-15.5378
 20
76.809
 11
-15.404
 21
76.891
  0
LINE
  8
0
 10
-15.404
 20
76.891
 11
-15.259
 21
76.951
  0
LINE
  8
0
 10
-15.259
 20
76.951
 11
-15.1064
 21
76.9877
  0
LINE
  8
0
 10
-15.1064
 20
76.9877
 11
-14.95
 21
77
  0
LINE
  8
0
 10
-14.95
 20
77
 11
-14.7936
 21
76.9877
  0
LINE
  8
0
 10
-14.7936
 20
76.9877
 11
-14.641
 21
76.951
  0
LINE
  8
0
 10
-14.641
 20
76.951
 11
-14.496
 21
76.891
  0
LINE
  8
0
 10
-14.496
 20
76.891
 11
-14.3622
 21
76.809
  0
LINE
  8
0
 10
-14.3622
 20
76.809
 11
-14.2429
 21
76.7071
  0
LINE
  8
0
 10
-14.2429
 20
76.7071
 11
-14.141
 21
76.5878
  0
LINE
  8
0
 10
-14.141
 20
76.5878
 11
-14.059
 21
76.454
  0
LINE
  8
0
 10
-14.059
 20
76.454
 11
-13.9989
 21
76.309
  0
LINE
  8
0
 10
-13.9989
 20
76.309
 11
-13.9623
 21
76.1564
  0
LINE
  8
0
 10
-13.9623
 20
76.1564
 11
-13.95
 21
76
  0
LINE
  8
0
 10
-13.95
 20
76
 11
13.95
 21
76
  0
LINE
  8
0
 10
13.95
 20
76
 11
13.9623
 21
76.1564
  0
LINE
  8
0
 10
13.9623
 20
76.1564
 11
13.9989
 21
76.309
  0
LINE
  8
0
 10
13.9989
 20
76.309
 11
14.059
 21
76.454
  0
LINE
  8
0
 10
14.059
 20
76.454
 11
14.141
 21
76.5878
  0
LINE
  8
0
 10
14.141
 20
76.5878
 11
14.2429
 21
76.7071
  0
LINE
  8
0
 10
14.2429
 20
76.7071
 11
14.3622
 21
76.809
  0
LINE
  8
0
 10
14.3622
 20
76.809
 11
14.496
 21
76.891
  0
LINE
  8
0
 10
14.496
 20
76.891
 11
14.641
 21
76.951
  0
LINE
  8
0
 10
14.641
 20
76.951
 11
14.7936
 21
76.9877
  0
LINE
  8
0
 10
14.7936
 20
76.9877
 11
14.95
 21
77
  0
LINE
  8
0
 10
14.95
 20
77
 11
15.1064
 21
76.9877
  0
LINE
  8
0
 10
15.1064
 20
76.9877
 11
15.259
 21
76.951
  0
LINE
  8
0
 10
15.259
 20
76.951
 11
15.404
 21
76.891
  0
LINE
  8
0
 10
15.404
 20
76.891
 11
15.5378
 21
76.809
  0
LINE
  8
0
 10
15.5378
 20
76.809
 11
15.6571
 21
76.7071
  0
LINE
  8
0
 10
15.6571
 20
76.7071
 11
15.759
 21
76.5878
  0
LINE
  8
0
 10
15.759
 20
76.5878
 11
15.841
 21
76.454
  0
LINE
  8
0
 10
15.841
 20
76.454
 11
15.901
 21
76.309
  0
LINE
  8
0
 10
15.901
 20
76.309
 11
15.9377
 21
76.1564
  0
LINE
  8
0
 10
15.9377
 20
76.1564
 11
15.95
 21
76
  0
LINE
  8
0
 10
15.95
 20
76
 11
15.95
 21
72.8
  0
LINE
  8
0
 10
15.95
 20
72.8
 11
15.9377
 21
72.6436
  0
LINE
  8
0
 10
15.9377
 20
72.6436
 11
15.901
 21
72.491
  0
LINE
  8
0
 10
15.901
 20
72.491
 11
15.841
 21
72.346
  0
LINE
  8
0
 10
15.841
 20
72.346
 11
15.759
 21
72.2122
  0
LINE
  8
0
 10
15.759
 20
72.2122
 11
15.6571
 21
72.0929
  0
LINE
  8
0
 10
15.6571
 20
72.0929
 11
15.5378
 21
71.991
  0
LINE
  8
0
 10
15.5378
 20
71.991
 11
15.404
 21
71.909
  0
LINE
  8
0
 10
15.404
 20
71.909
 11
15.259
 21
71.849
  0
LINE
  8
0
 10
15.259
 20
71.849
 11
15.1064
 21
71.8123
  0
LINE
  8
0
 10
15.1064
 20
71.8123
 11
14.95
 21
71.8
  0
LINE
  8
0
 10
14.95
 20
71.8
 11
14.7936
 21
71.8123
  0
LINE
  8
0
 10
24.4545
 20
73.3154
 11
24.2637
 21
73.3612
  0
LINE
  8
0
 10
24.2637
 20
73.3612
 11
24.0825
 21
73.4362
  0
LINE
  8
0
 10
24.0825
 20
73.4362
 11
23.9153
 21
73.5387
  0
LINE
  8
0
 10
23.9153
 20
73.5387
 11
23.7661
 21
73.6661
  0
LINE
  8
0
 10
23.7661
 20
73.6661
 11
23.6387
 21
73.8153
  0
LINE
  8
0
 10
23.6387
 20
73.8153
 11
23.5362
 21
73.9825
  0
LINE
  8
0
 10
23.5362
 20
73.9825
 11
23.4612
 21
74.1637
  0
LINE
  8
0
 10
23.4612
 20
74.1637
 11
23.4154
 21
74.3544
  0
LINE
  8
0
 10
23.4154
 20
74.3544
 11
23.4
 21
74.55
  0
LINE
  8
0
 10
23.4
 20
74.55
 11
23.4154
 21
74.7455
  0
LINE
  8
0
 10
23.4154
 20
74.7455
 11
23.4612
 21
74.9363
  0
LINE
  8
0
 10
23.4612
 20
74.9363
 11
23.5362
 21
75.1175
  0
LINE
  8
0
 10
23.5362
 20
75.1175
 11
23.6387
 21
75.2847
  0
LINE
  8
0
 10
23.6387
 20
75.2847
 11
23.7661
 21
75.4339
  0
LINE
  8
0
 10
23.7661
 20
75.4339
 11
23.9153
 21
75.5613
  0
LINE
  8
0
 10
23.9153
 20
75.5613
 11
24.0825
 21
75.6637
  0
LINE
  8
0
 10
24.0825
 20
75.6637
 11
24.2637
 21
75.7388
  0
LINE
  8
0
 10
24.2637
 20
75.7388
 11
24.4545
 21
75.7846
  0
LINE
  8
0
 10
24.4545
 20
75.7846
 11
24.65
 21
75.8
  0
LINE
  8
0
 10
24.65
 20
75.8
 11
24.8455
 21
75.7846
  0
LINE
  8
0
 10
24.8455
 20
75.7846
 11
25.0363
 21
75.7388
  0
LINE
  8
0
 10
25.0363
 20
75.7388
 11
25.2175
 21
75.6637
  0
LINE
  8
0
 10
25.2175
 20
75.6637
 11
25.3847
 21
75.5613
  0
LINE
  8
0
 10
25.3847
 20
75.5613
 11
25.5339
 21
75.4339
  0
LINE
  8
0
 10
25.5339
 20
75.4339
 11
25.6613
 21
75.2847
  0
LINE
  8
0
 10
25.6613
 20
75.2847
 11
25.7637
 21
75.1175
  0
LINE
  8
0
 10
25.7637
 20
75.1175
 11
25.8388
 21
74.9363
  0
LINE
  8
0
 10
25.8388
 20
74.9363
 11
25.8846
 21
74.7455
  0
LINE
  8
0
 10
25.8846
 20
74.7455
 11
25.9
 21
74.55
  0
LINE
  8
0
 10
25.9
 20
74.55
 11
25.8846
 21
74.3544
  0
LINE
  8
0
 10
25.8846
 20
74.3544
 11
25.8388
 21
74.1637
  0
LINE
  8
0
 10
25.8388
 20
74.1637
 11
25.7637
 21
73.9825
  0
LINE
  8
0
 10
25.7637
 20
73.9825
 11
25.6613
 21
73.8153
  0
LINE
  8
0
 10
25.6613
 20
73.8153
 11
25.5339
 21
73.6661
  0
LINE
  8
0
 10
25.5339
 20
73.6661
 11
25.3847
 21
73.5387
  0
LINE
  8
0
 10
25.3847
 20
73.5387
 11
25.2175
 21
73.4362
  0
LINE
  8
0
 10
25.2175
 20
73.4362
 11
25.0363
 21
73.3612
  0
LINE
  8
0
 10
25.0363
 20
73.3612
 11
24.8455
 21
73.3154
  0
LINE
  8
0
 10
24.8455
 20
73.3154
 11
24.65
 21
73.3
  0
LINE
  8
0
 10
24.65
 20
73.3
 11
24.4545
 21
73.3154
  0
LINE
  8
0
 10
-24.8455
 20
73.3154
 11
-25.0363
 21
73.3612
  0
LINE
  8
0
 10
-25.0363
 20
73.3612
 11
-25.2175
 21
73.4362
  0
LINE
  8
0
 10
-25.2175
 20
73.4362
 11
-25.3847
 21
73.5387
  0
LINE
  8
0
 10
-25.3847
 20
73.5387
 11
-25.5339
 21
73.6661
  0
LINE
  8
0
 10
-25.5339
 20
73.6661
 11
-25.6613
 21
73.8153
  0
LINE
  8
0
 10
-25.6613
 20
73.8153
 11
-25.7637
 21
73.9825
  0
LINE
  8
0
 10
-25.7637
 20
73.9825
 11
-25.8388
 21
74.1637
  0
LINE
  8
0
 10
-25.8388
 20
74.1637
 11
-25.8846
 21
74.3544
  0
LINE
  8
0
 10
-25.8846
 20
74.3544
 11
-25.9
 21
74.55
  0
LINE
  8
0
 10
-25.9
 20
74.55
 11
-25.8846
 21
74.7455
  0
LINE
  8
0
 10
-25.8846
 20
74.7455
 11
-25.8388
 21
74.9363
  0
LINE
  8
0
 10
-25.8388
 20
74.9363
 11
-25.7637
 21
75.1175
  0
LINE
  8
0
 10
-25.7637
 20
75.1175
 11
-25.6613
 21
75.2847
  0
LINE
  8
0
 10
-25.6613
 20
75.2847
 11
-25.5339
 21
75.4339
  0
LINE
  8
0
 10
-25.5339
 20
75.4339
 11
-25.3847
 21
75.5613
  0
LINE
  8
0
 10
-25.3847
 20
75.5613
 11
-25.2175
 21
75.6637
  0
LINE
  8
0
 10
-25.2175
 20
75.6637
 11
-25.0363
 21
75.7388
  0
LINE
  8
0
 10
-25.0363
 20
75.7388
 11
-24.8455
 21
75.7846
  0
LINE
  8
0
 10
-24.8455
 20
75.7846
 11
-24.65
 21
75.8
  0
LINE
  8
0
 10
-24.65
 20
75.8
 11
-24.4545
 21
75.7846
  0
LINE
  8
0
 10
-24.4545
 20
75.7846
 11
-24.2637
 21
75.7388
  0
LINE
  8
0
 10
-24.2637
 20
75.7388
 11
-24.0825
 21
75.6637
  0
LINE
  8
0
 10
-24.0825
 20
75.6637
 11
-23.9153
 21
75.5613
  0
LINE
  8
0
 10
-23.9153
 20
75.5613
 11
-23.7661
 21
75.4339
  0
LINE
  8
0
 10
-23.7661
 20
75.4339
 11
-23.6387
 21
75.2847
  0
LINE
  8
0
 10
-23.6387
 20
75.2847
 11
-23.5362
 21
75.1175
  0
LINE
  8
0
 10
-23.5362
 20
75.1175
 11
-23.4612
 21
74.9363
  0
LINE
  8
0
 10
-23.4612
 20
74.9363
 11
-23.4154
 21
74.7455
  0
LINE
  8
0
 10
-23.4154
 20
74.7455
 11
-23.4
 21
74.55
  0
LINE
  8
0
 10
-23.4
 20
74.55
 11
-23.4154
 21
74.3544
  0
LINE
  8
0
 10
-23.4154
 20
74.3544
 11
-23.4612
 21
74.1637
  0
LINE
  8
0
 10
-23.4612
 20
74.1637
 11
-23.5362
 21
73.9825
  0
LINE
  8
0
 10
-23.5362
 20
73.9825
 11
-23.6387
 21
73.8153
  0
LINE
  8
0
 10
-23.6387
 20
73.8153
 11
-23.7661
 21
73.6661
  0
LINE
  8
0
 10
-23.7661
 20
73.6661
 11
-23.9153
 21
73.5387
  0
LINE
  8
0
 10
-23.9153
 20
73.5387
 11
-24.0825
 21
73.4362
  0
LINE
  8
0
 10
-24.0825
 20
73.4362
 11
-24.2637
 21
73.3612
  0
LINE
  8
0
 10
-24.2637
 20
73.3612
 11
-24.4545
 21
73.3154
  0
LINE
  8
0
 10
-24.4545
 20
73.3154
 11
-24.65
 21
73.3
  0
LINE
  8
0
 10
-24.65
 20
73.3
 11
-24.8455
 21
73.3154
  0
LINE
  8
0
 10
38.3436
 20
70.5123
 11
38.191
 21
70.5489
  0
LINE
  8
0
 10
38.191
 20
70.5489
 11
38.046
 21
70.609
  0
LINE
  8
0
 10
38.046
 20
70.609
 11
37.9122
 21
70.691
  0
LINE
  8
0
 10
37.9122
 20
70.691
 11
37.7929
 21
70.7929
  0
LINE
  8
0
 10
37.7929
 20
70.7929
 11
37.691
 21
70.9122
  0
LINE
  8
0
 10
37.691
 20
70.9122
 11
37.609
 21
71.046
  0
LINE
  8
0
 10
37.609
 20
71.046
 11
37.5489
 21
71.191
  0
LINE
  8
0
 10
37.5489
 20
71.191
 11
37.5123
 21
71.3436
  0
LINE
  8
0
 10
37.5123
 20
71.3436
 11
37.5
 21
71.5
  0
LINE
  8
0
 10
37.5
 20
71.5
 11
37.5123
 21
71.6564
  0
LINE
  8
0
 10
37.5123
 20
71.6564
 11
37.5489
 21
71.809
  0
LINE
  8
0
 10
37.5489
 20
71.809
 11
37.609
 21
71.954
  0
LINE
  8
0
 10
37.609
 20
71.954
 11
37.691
 21
72.0878
  0
LINE
  8
0
 10
37.691
 20
72.0878
 11
37.7929
 21
72.2071
  0
LINE
  8
0
 10
37.7929
 20
72.2071
 11
37.9122
 21
72.309
  0
LINE
  8
0
 10
37.9122
 20
72.309
 11
38.046
 21
72.391
  0
LINE
  8
0
 10
38.046
 20
72.391
 11
38.191
 21
72.451
  0
LINE
  8
0
 10
38.191
 20
72.451
 11
38.3436
 21
72.4877
  0
LINE
  8
0
 10
38.3436
 20
72.4877
 11
38.5
 21
72.5
  0
LINE
  8
0
 10
38.5
 20
72.5
 11
38.6564
 21
72.4877
  0
LINE
  8
0
 10
38.6564
 20
72.4877
 11
38.809
 21
72.451
  0
LINE
  8
0
 10
38.809
 20
72.451
 11
38.954
 21
72.391
  0
LINE
  8
0
 10
38.954
 20
72.391
 11
39.0878
 21
72.309
  0
LINE
  8
0
 10
39.0878
 20
72.309
 11
39.2071
 21
72.2071
  0
LINE
  8
0
 10
39.2071
 20
72.2071
 11
39.309
 21
72.0878
  0
LINE
  8
0
 10
39.309
 20
72.0878
 11
39.391
 21
71.954
  0
LINE
  8
0
 10
39.391
 20
71.954
 11
39.451
 21
71.809
  0
LINE
  8
0
 10
39.451
 20
71.809
 11
39.4877
 21
71.6564
  0
LINE
  8
0
 10
39.4877
 20
71.6564
 11
39.5
 21
71.5
  0
LINE
  8
0
 10
39.5
 20
71.5
 11
39.4877
 21
71.3436
  0
LINE
  8
0
 10
39.4877
 20
71.3436
 11
39.451
 21
71.191
  0
LINE
  8
0
 10
39.451
 20
71.191
 11
39.391
 21
71.046
  0
LINE
  8
0
 10
39.391
 20
71.046
 11
39.309
 21
70.9122
  0
LINE
  8
0
 10
39.309
 20
70.9122
 11
39.2071
 21
70.7929
  0
LINE
  8
0
 10
39.2071
 20
70.7929
 11
39.0878
 21
70.691
  0
LINE
  8
0
 10
39.0878
 20
70.691
 11
38.954
 21
70.609
  0
LINE
  8
0
 10
38.954
 20
70.609
 11
38.809
 21
70.5489
  0
LINE
  8
0
 10
38.809
 20
70.5489
 11
38.6564
 21
70.5123
  0
LINE
  8
0
 10
38.6564
 20
70.5123
 11
38.5
 21
70.5
  0
LINE
  8
0
 10
38.5
 20
70.5
 11
38.3436
 21
70.5123
  0
LINE
  8
0
 10
7.45445
 20
69.6154
 11
7.26372
 21
69.6612
  0
LINE
  8
0
 10
7.26372
 20
69.6612
 11
7.0825
 21
69.7362
  0
LINE
  8
0
 10
7.0825
 20
69.7362
 11
6.91527
 21
69.8387
  0
LINE
  8
0
 10
6.91527
 20
69.8387
 11
6.76611
 21
69.9661
  0
LINE
  8
0
 10
6.76611
 20
69.9661
 11
6.63872
 21
70.1153
  0
LINE
  8
0
 10
6.63872
 20
70.1153
 11
6.53624
 21
70.2825
  0
LINE
  8
0
 10
6.53624
 20
70.2825
 11
6.46117
 21
70.4637
  0
LINE
  8
0
 10
6.46117
 20
70.4637
 11
6.41537
 21
70.6544
  0
LINE
  8
0
 10
6.41537
 20
70.6544
 11
6.39999
 21
70.85
  0
LINE
  8
0
 10
6.39999
 20
70.85
 11
6.41537
 21
71.0455
  0
LINE
  8
0
 10
6.41537
 20
71.0455
 11
6.46117
 21
71.2363
  0
LINE
  8
0
 10
6.46117
 20
71.2363
 11
6.53624
 21
71.4175
  0
LINE
  8
0
 10
6.53624
 20
71.4175
 11
6.63872
 21
71.5847
  0
LINE
  8
0
 10
6.63872
 20
71.5847
 11
6.76611
 21
71.7339
  0
LINE
  8
0
 10
6.76611
 20
71.7339
 11
6.91527
 21
71.8613
  0
LINE
  8
0
 10
6.91527
 20
71.8613
 11
7.0825
 21
71.9637
  0
LINE
  8
0
 10
7.0825
 20
71.9637
 11
7.26372
 21
72.0388
  0
LINE
  8
0
 10
7.26372
 20
72.0388
 11
7.45445
 21
72.0846
  0
LINE
  8
0
 10
7.45445
 20
72.0846
 11
7.64999
 21
72.1
  0
LINE
  8
0
 10
7.64999
 20
72.1
 11
7.84554
 21
72.0846
  0
LINE
  8
0
 10
7.84554
 20
72.0846
 11
8.03627
 21
72.0388
  0
LINE
  8
0
 10
8.03627
 20
72.0388
 11
8.21748
 21
71.9637
  0
LINE
  8
0
 10
8.21748
 20
71.9637
 11
8.38472
 21
71.8613
  0
LINE
  8
0
 10
8.38472
 20
71.8613
 11
8.53387
 21
71.7339
  0
LINE
  8
0
 10
8.53387
 20
71.7339
 11
8.66127
 21
71.5847
  0
LINE
  8
0
 10
8.66127
 20
71.5847
 11
8.76375
 21
71.4175
  0
LINE
  8
0
 10
8.76375
 20
71.4175
 11
8.83881
 21
71.2363
  0
LINE
  8
0
 10
8.83881
 20
71.2363
 11
8.8846
 21
71.0455
  0
LINE
  8
0
 10
8.8846
 20
71.0455
 11
8.89999
 21
70.85
  0
LINE
  8
0
 10
8.89999
 20
70.85
 11
8.8846
 21
70.6544
  0
LINE
  8
0
 10
8.8846
 20
70.6544
 11
8.83881
 21
70.4637
  0
LINE
  8
0
 10
8.83881
 20
70.4637
 11
8.76375
 21
70.2825
  0
LINE
  8
0
 10
8.76375
 20
70.2825
 11
8.66127
 21
70.1153
  0
LINE
  8
0
 10
8.66127
 20
70.1153
 11
8.53387
 21
69.9661
  0
LINE
  8
0
 10
8.53387
 20
69.9661
 11
8.38472
 21
69.8387
  0
LINE
  8
0
 10
8.38472
 20
69.8387
 11
8.21748
 21
69.7362
  0
LINE
  8
0
 10
8.21748
 20
69.7362
 11
8.03627
 21
69.6612
  0
LINE
  8
0
 10
8.03627
 20
69.6612
 11
7.84554
 21
69.6154
  0
LINE
  8
0
 10
7.84554
 20
69.6154
 11
7.64999
 21
69.6
  0
LINE
  8
0
 10
7.64999
 20
69.6
 11
7.45445
 21
69.6154
  0
LINE
  8
0
 10
-41.8455
 20
69.6154
 11
-42.0363
 21
69.6612
  0
LINE
  8
0
 10
-42.0363
 20
69.6612
 11
-42.2175
 21
69.7362
  0
LINE
  8
0
 10
-42.2175
 20
69.7362
 11
-42.3847
 21
69.8387
  0
LINE
  8
0
 10
-42.3847
 20
69.8387
 11
-42.5339
 21
69.9661
  0
LINE
  8
0
 10
-42.5339
 20
69.9661
 11
-42.6613
 21
70.1153
  0
LINE
  8
0
 10
-42.6613
 20
70.1153
 11
-42.7637
 21
70.2825
  0
LINE
  8
0
 10
-42.7637
 20
70.2825
 11
-42.8388
 21
70.4637
  0
LINE
  8
0
 10
-42.8388
 20
70.4637
 11
-42.8846
 21
70.6544
  0
LINE
  8
0
 10
-42.8846
 20
70.6544
 11
-42.9
 21
70.85
  0
LINE
  8
0
 10
-42.9
 20
70.85
 11
-42.8846
 21
71.0455
  0
LINE
  8
0
 10
-42.8846
 20
71.0455
 11
-42.8388
 21
71.2363
  0
LINE
  8
0
 10
-42.8388
 20
71.2363
 11
-42.7637
 21
71.4175
  0
LINE
  8
0
 10
-42.7637
 20
71.4175
 11
-42.6613
 21
71.5847
  0
LINE
  8
0
 10
-42.6613
 20
71.5847
 11
-42.5339
 21
71.7339
  0
LINE
  8
0
 10
-42.5339
 20
71.7339
 11
-42.3847
 21
71.8613
  0
LINE
  8
0
 10
-42.3847
 20
71.8613
 11
-42.2175
 21
71.9637
  0
LINE
  8
0
 10
-42.2175
 20
71.9637
 11
-42.0363
 21
72.0388
  0
LINE
  8
0
 10
-42.0363
 20
72.0388
 11
-41.8455
 21
72.0846
  0
LINE
  8
0
 10
-41.8455
 20
72.0846
 11
-41.65
 21
72.1
  0
LINE
  8
0
 10
-41.65
 20
72.1
 11
-41.4545
 21
72.0846
  0
LINE
  8
0
 10
-41.4545
 20
72.0846
 11
-41.2637
 21
72.0388
  0
LINE
  8
0
 10
-41.2637
 20
72.0388
 11
-41.0825
 21
71.9637
  0
LINE
  8
0
 10
-41.0825
 20
71.9637
 11
-40.9153
 21
71.8613
  0
LINE
  8
0
 10
-40.9153
 20
71.8613
 11
-40.7661
 21
71.7339
  0
LINE
  8
0
 10
-40.7661
 20
71.7339
 11
-40.6387
 21
71.5847
  0
LINE
  8
0
 10
-40.6387
 20
71.5847
 11
-40.5362
 21
71.4175
  0
LINE
  8
0
 10
-40.5362
 20
71.4175
 11
-40.4612
 21
71.2363
  0
LINE
  8
0
 10
-40.4612
 20
71.2363
 11
-40.4154
 21
71.0455
  0
LINE
  8
0
 10
-40.4154
 20
71.0455
 11
-40.4
 21
70.85
  0
LINE
  8
0
 10
-40.4
 20
70.85
 11
-40.4154
 21
70.6544
  0
LINE
  8
0
 10
-40.4154
 20
70.6544
 11
-40.4612
 21
70.4637
  0
LINE
  8
0
 10
-40.4612
 20
70.4637
 11
-40.5362
 21
70.2825
  0
LINE
  8
0
 10
-40.5362
 20
70.2825
 11
-40.6387
 21
70.1153
  0
LINE
  8
0
 10
-40.6387
 20
70.1153
 11
-40.7661
 21
69.9661
  0
LINE
  8
0
 10
-40.7661
 20
69.9661
 11
-40.9153
 21
69.8387
  0
LINE
  8
0
 10
-40.9153
 20
69.8387
 11
-41.0825
 21
69.7362
  0
LINE
  8
0
 10
-41.0825
 20
69.7362
 11
-41.2637
 21
69.6612
  0
LINE
  8
0
 10
-41.2637
 20
69.6612
 11
-41.4545
 21
69.6154
  0
LINE
  8
0
 10
-41.4545
 20
69.6154
 11
-41.65
 21
69.6
  0
LINE
  8
0
 10
-41.65
 20
69.6
 11
-41.8455
 21
69.6154
  0
LINE
  8
0
 10
-7.84554
 20
69.6154
 11
-8.03627
 21
69.6612
  0
LINE
  8
0
 10
-8.03627
 20
69.6612
 11
-8.21748
 21
69.7362
  0
LINE
  8
0
 10
-8.21748
 20
69.7362
 11
-8.38472
 21
69.8387
  0
LINE
  8
0
 10
-8.38472
 20
69.8387
 11
-8.53387
 21
69.9661
  0
LINE
  8
0
 10
-8.53387
 20
69.9661
 11
-8.66127
 21
70.1153
  0
LINE
  8
0
 10
-8.66127
 20
70.1153
 11
-8.76375
 21
70.2825
  0
LINE
  8
0
 10
-8.76375
 20
70.2825
 11
-8.83881
 21
70.4637
  0
LINE
  8
0
 10
-8.83881
 20
70.4637
 11
-8.8846
 21
70.6544
  0
LINE
  8
0
 10
-8.8846
 20
70.6544
 11
-8.89999
 21
70.85
  0
LINE
  8
0
 10
-8.89999
 20
70.85
 11
-8.8846
 21
71.0455
  0
LINE
  8
0
 10
-8.8846
 20
71.0455
 11
-8.83881
 21
71.2363
  0
LINE
  8
0
 10
-8.83881
 20
71.2363
 11
-8.76375
 21
71.4175
  0
LINE
  8
0
 10
-8.76375
 20
71.4175
 11
-8.66127
 21
71.5847
  0
LINE
  8
0
 10
-8.66127
 20
71.5847
 11
-8.53387
 21
71.7339
  0
LINE
  8
0
 10
-8.53387
 20
71.7339
 11
-8.38472
 21
71.8613
  0
LINE
  8
0
 10
-8.38472
 20
71.8613
 11
-8.21748
 21
71.9637
  0
LINE
  8
0
 10
-8.21748
 20
71.9637
 11
-8.03627
 21
72.0388
  0
LINE
  8
0
 10
-8.03627
 20
72.0388
 11
-7.84554
 21
72.0846
  0
LINE
  8
0
 10
-7.84554
 20
72.0846
 11
-7.64999
 21
72.1
  0
LINE
  8
0
 10
-7.64999
 20
72.1
 11
-7.45445
 21
72.0846
  0
LINE
  8
0
 10
-7.45445
 20
72.0846
 11
-7.26372
 21
72.0388
  0
LINE
  8
0
 10
-7.26372
 20
72.0388
 11
-7.0825
 21
71.9637
  0
LINE
  8
0
 10
-7.0825
 20
71.9637
 11
-6.91527
 21
71.8613
  0
LINE
  8
0
 10
-6.91527
 20
71.8613
 11
-6.76611
 21
71.7339
  0
LINE
  8
0
 10
-6.76611
 20
71.7339
 11
-6.63872
 21
71.5847
  0
LINE
  8
0
 10
-6.63872
 20
71.5847
 11
-6.53624
 21
71.4175
  0
LINE
  8
0
 10
-6.53624
 20
71.4175
 11
-6.46117
 21
71.2363
  0
LINE
  8
0
 10
-6.46117
 20
71.2363
 11
-6.41537
 21
71.0455
  0
LINE
  8
0
 10
-6.41537
 20
71.0455
 11
-6.39999
 21
70.85
  0
LINE
  8
0
 10
-6.39999
 20
70.85
 11
-6.41537
 21
70.6544
  0
LINE
  8
0
 10
-6.41537
 20
70.6544
 11
-6.46117
 21
70.4637
  0
LINE
  8
0
 10
-6.46117
 20
70.4637
 11
-6.53624
 21
70.2825
  0
LINE
  8
0
 10
-6.53624
 20
70.2825
 11
-6.63872
 21
70.1153
  0
LINE
  8
0
 10
-6.63872
 20
70.1153
 11
-6.76611
 21
69.9661
  0
LINE
  8
0
 10
-6.76611
 20
69.9661
 11
-6.91527
 21
69.8387
  0
LINE
  8
0
 10
-6.91527
 20
69.8387
 11
-7.0825
 21
69.7362
  0
LINE
  8
0
 10
-7.0825
 20
69.7362
 11
-7.26372
 21
69.6612
  0
LINE
  8
0
 10
-7.26372
 20
69.6612
 11
-7.45445
 21
69.6154
  0
LINE
  8
0
 10
-7.45445
 20
69.6154
 11
-7.64999
 21
69.6
  0
LINE
  8
0
 10
-7.64999
 20
69.6
 11
-7.84554
 21
69.6154
  0
LINE
  8
0
 10
41.4545
 20
69.6154
 11
41.2637
 21
69.6612
  0
LINE
  8
0
 10
41.2637
 20
69.6612
 11
41.0825
 21
69.7362
  0
LINE
  8
0
 10
41.0825
 20
69.7362
 11
40.9153
 21
69.8387
  0
LINE
  8
0
 10
40.9153
 20
69.8387
 11
40.7661
 21
69.9661
  0
LINE
  8
0
 10
40.7661
 20
69.9661
 11
40.6387
 21
70.1153
  0
LINE
  8
0
 10
40.6387
 20
70.1153
 11
40.5362
 21
70.2825
  0
LINE
  8
0
 10
40.5362
 20
70.2825
 11
40.4612
 21
70.4637
  0
LINE
  8
0
 10
40.4612
 20
70.4637
 11
40.4154
 21
70.6544
  0
LINE
  8
0
 10
40.4154
 20
70.6544
 11
40.4
 21
70.85
  0
LINE
  8
0
 10
40.4
 20
70.85
 11
40.4154
 21
71.0455
  0
LINE
  8
0
 10
40.4154
 20
71.0455
 11
40.4612
 21
71.2363
  0
LINE
  8
0
 10
40.4612
 20
71.2363
 11
40.5362
 21
71.4175
  0
LINE
  8
0
 10
40.5362
 20
71.4175
 11
40.6387
 21
71.5847
  0
LINE
  8
0
 10
40.6387
 20
71.5847
 11
40.7661
 21
71.7339
  0
LINE
  8
0
 10
40.7661
 20
71.7339
 11
40.9153
 21
71.8613
  0
LINE
  8
0
 10
40.9153
 20
71.8613
 11
41.0825
 21
71.9637
  0
LINE
  8
0
 10
41.0825
 20
71.9637
 11
41.2637
 21
72.0388
  0
LINE
  8
0
 10
41.2637
 20
72.0388
 11
41.4545
 21
72.0846
  0
LINE
  8
0
 10
41.4545
 20
72.0846
 11
41.65
 21
72.1
  0
LINE
  8
0
 10
41.65
 20
72.1
 11
41.8455
 21
72.0846
  0
LINE
  8
0
 10
41.8455
 20
72.0846
 11
42.0363
 21
72.0388
  0
LINE
  8
0
 10
42.0363
 20
72.0388
 11
42.2175
 21
71.9637
  0
LINE
  8
0
 10
42.2175
 20
71.9637
 11
42.3847
 21
71.8613
  0
LINE
  8
0
 10
42.3847
 20
71.8613
 11
42.5339
 21
71.7339
  0
LINE
  8
0
 10
42.5339
 20
71.7339
 11
42.6613
 21
71.5847
  0
LINE
  8
0
 10
42.6613
 20
71.5847
 11
42.7637
 21
71.4175
  0
LINE
  8
0
 10
42.7637
 20
71.4175
 11
42.8388
 21
71.2363
  0
LINE
  8
0
 10
42.8388
 20
71.2363
 11
42.8846
 21
71.0455
  0
LINE
  8
0
 10
42.8846
 20
71.0455
 11
42.9
 21
70.85
  0
LINE
  8
0
 10
42.9
 20
70.85
 11
42.8846
 21
70.6544
  0
LINE
  8
0
 10
42.8846
 20
70.6544
 11
42.8388
 21
70.4637
  0
LINE
  8
0
 10
42.8388
 20
70.4637
 11
42.7637
 21
70.2825
  0
LINE
  8
0
 10
42.7637
 20
70.2825
 11
42.6613
 21
70.1153
  0
LINE
  8
0
 10
42.6613
 20
70.1153
 11
42.5339
 21
69.9661
  0
LINE
  8
0
 10
42.5339
 20
69.9661
 11
42.3847
 21
69.8387
  0
LINE
  8
0
 10
42.3847
 20
69.8387
 11
42.2175
 21
69.7362
  0
LINE
  8
0
 10
42.2175
 20
69.7362
 11
42.0363
 21
69.6612
  0
LINE
  8
0
 10
42.0363
 20
69.6612
 11
41.8455
 21
69.6154
  0
LINE
  8
0
 10
41.8455
 20
69.6154
 11
41.65
 21
69.6
  0
LINE
  8
0
 10
41.65
 20
69.6
 11
41.4545
 21
69.6154
  0
LINE
  8
0
 10
21.5341
 20
63.5959
 11
21.2747
 21
63.6582
  0
LINE
  8
0
 10
21.2747
 20
63.6582
 11
21.0282
 21
63.7603
  0
LINE
  8
0
 10
21.0282
 20
63.7603
 11
20.8008
 21
63.8997
  0
LINE
  8
0
 10
20.8008
 20
63.8997
 11
20.5979
 21
64.0729
  0
LINE
  8
0
 10
20.5979
 20
64.0729
 11
20.4247
 21
64.2758
  0
LINE
  8
0
 10
20.4247
 20
64.2758
 11
20.2853
 21
64.5032
  0
LINE
  8
0
 10
20.2853
 20
64.5032
 11
20.1832
 21
64.7497
  0
LINE
  8
0
 10
20.1832
 20
64.7497
 11
20.1209
 21
65.009
  0
LINE
  8
0
 10
20.1209
 20
65.009
 11
20.1
 21
65.275
  0
LINE
  8
0
 10
20.1
 20
65.275
 11
20.1209
 21
65.5409
  0
LINE
  8
0
 10
20.1209
 20
65.5409
 11
20.1832
 21
65.8003
  0
LINE
  8
0
 10
20.1832
 20
65.8003
 11
20.2853
 21
66.0468
  0
LINE
  8
0
 10
20.2853
 20
66.0468
 11
20.4247
 21
66.2742
  0
LINE
  8
0
 10
20.4247
 20
66.2742
 11
20.5979
 21
66.4771
  0
LINE
  8
0
 10
20.5979
 20
66.4771
 11
20.8008
 21
66.6503
  0
LINE
  8
0
 10
20.8008
 20
66.6503
 11
21.0282
 21
66.7897
  0
LINE
  8
0
 10
21.0282
 20
66.7897
 11
21.2747
 21
66.8918
  0
LINE
  8
0
 10
21.2747
 20
66.8918
 11
21.5341
 21
66.9541
  0
LINE
  8
0
 10
21.5341
 20
66.9541
 11
21.8
 21
66.975
  0
LINE
  8
0
 10
21.8
 20
66.975
 11
22.0659
 21
66.9541
  0
LINE
  8
0
 10
22.0659
 20
66.9541
 11
22.3253
 21
66.8918
  0
LINE
  8
0
 10
22.3253
 20
66.8918
 11
22.5718
 21
66.7897
  0
LINE
  8
0
 10
22.5718
 20
66.7897
 11
22.7992
 21
66.6503
  0
LINE
  8
0
 10
22.7992
 20
66.6503
 11
23.0021
 21
66.4771
  0
LINE
  8
0
 10
23.0021
 20
66.4771
 11
23.1753
 21
66.2742
  0
LINE
  8
0
 10
23.1753
 20
66.2742
 11
23.3147
 21
66.0468
  0
LINE
  8
0
 10
23.3147
 20
66.0468
 11
23.4168
 21
65.8003
  0
LINE
  8
0
 10
23.4168
 20
65.8003
 11
23.4791
 21
65.5409
  0
LINE
  8
0
 10
23.4791
 20
65.5409
 11
23.5
 21
65.275
  0
LINE
  8
0
 10
23.5
 20
65.275
 11
23.4791
 21
65.009
  0
LINE
  8
0
 10
23.4791
 20
65.009
 11
23.4168
 21
64.7497
  0
LINE
  8
0
 10
23.4168
 20
64.7497
 11
23.3147
 21
64.5032
  0
LINE
  8
0
 10
23.3147
 20
64.5032
 11
23.1753
 21
64.2758
  0
LINE
  8
0
 10
23.1753
 20
64.2758
 11
23.0021
 21
64.0729
  0
LINE
  8
0
 10
23.0021
 20
64.0729
 11
22.7992
 21
63.8997
  0
LINE
  8
0
 10
22.7992
 20
63.8997
 11
22.5718
 21
63.7603
  0
LINE
  8
0
 10
22.5718
 20
63.7603
 11
22.3253
 21
63.6582
  0
LINE
  8
0
 10
22.3253
 20
63.6582
 11
22.0659
 21
63.5959
  0
LINE
  8
0
 10
22.0659
 20
63.5959
 11
21.8
 21
63.575
  0
LINE
  8
0
 10
21.8
 20
63.575
 11
21.5341
 21
63.5959
  0
LINE
  8
0
 10
-22.0659
 20
63.5959
 11
-22.3253
 21
63.6582
  0
LINE
  8
0
 10
-22.3253
 20
63.6582
 11
-22.5718
 21
63.7603
  0
LINE
  8
0
 10
-22.5718
 20
63.7603
 11
-22.7992
 21
63.8997
  0
LINE
  8
0
 10
-22.7992
 20
63.8997
 11
-23.0021
 21
64.0729
  0
LINE
  8
0
 10
-23.0021
 20
64.0729
 11
-23.1753
 21
64.2758
  0
LINE
  8
0
 10
-23.1753
 20
64.2758
 11
-23.3147
 21
64.5032
  0
LINE
  8
0
 10
-23.3147
 20
64.5032
 11
-23.4168
 21
64.7497
  0
LINE
  8
0
 10
-23.4168
 20
64.7497
 11
-23.4791
 21
65.009
  0
LINE
  8
0
 10
-23.4791
 20
65.009
 11
-23.5
 21
65.275
  0
LINE
  8
0
 10
-23.5
 20
65.275
 11
-23.4791
 21
65.5409
  0
LINE
  8
0
 10
-23.4791
 20
65.5409
 11
-23.4168
 21
65.8003
  0
LINE
  8
0
 10
-23.4168
 20
65.8003
 11
-23.3147
 21
66.0468
  0
LINE
  8
0
 10
-23.3147
 20
66.0468
 11
-23.1753
 21
66.2742
  0
LINE
  8
0
 10
-23.1753
 20
66.2742
 11
-23.0021
 21
66.4771
  0
LINE
  8
0
 10
-23.0021
 20
66.4771
 11
-22.7992
 21
66.6503
  0
LINE
  8
0
 10
-22.7992
 20
66.6503
 11
-22.5718
 21
66.7897
  0
LINE
  8
0
 10
-22.5718
 20
66.7897
 11
-22.3253
 21
66.8918
  0
LINE
  8
0
 10
-22.3253
 20
66.8918
 11
-22.0659
 21
66.9541
  0
LINE
  8
0
 10
-22.0659
 20
66.9541
 11
-21.8
 21
66.975
  0
LINE
  8
0
 10
-21.8
 20
66.975
 11
-21.5341
 21
66.9541
  0
LINE
  8
0
 10
-21.5341
 20
66.9541
 11
-21.2747
 21
66.8918
  0
LINE
  8
0
 10
-21.2747
 20
66.8918
 11
-21.0282
 21
66.7897
  0
LINE
  8
0
 10
-21.0282
 20
66.7897
 11
-20.8008
 21
66.6503
  0
LINE
  8
0
 10
-20.8008
 20
66.6503
 11
-20.5979
 21
66.4771
  0
LINE
  8
0
 10
-20.5979
 20
66.4771
 11
-20.4247
 21
66.2742
  0
LINE
  8
0
 10
-20.4247
 20
66.2742
 11
-20.2853
 21
66.0468
  0
LINE
  8
0
 10
-20.2853
 20
66.0468
 11
-20.1832
 21
65.8003
  0
LINE
  8
0
 10
-20.1832
 20
65.8003
 11
-20.1209
 21
65.5409
  0
LINE
  8
0
 10
-20.1209
 20
65.5409
 11
-20.1
 21
65.275
  0
LINE
  8
0
 10
-20.1
 20
65.275
 11
-20.1209
 21
65.009
  0
LINE
  8
0
 10
-20.1209
 20
65.009
 11
-20.1832
 21
64.7497
  0
LINE
  8
0
 10
-20.1832
 20
64.7497
 11
-20.2853
 21
64.5032
  0
LINE
  8
0
 10
-20.2853
 20
64.5032
 11
-20.4247
 21
64.2758
  0
LINE
  8
0
 10
-20.4247
 20
64.2758
 11
-20.5979
 21
64.0729
  0
LINE
  8
0
 10
-20.5979
 20
64.0729
 11
-20.8008
 21
63.8997
  0
LINE
  8
0
 10
-20.8008
 20
63.8997
 11
-21.0282
 21
63.7603
  0
LINE
  8
0
 10
-21.0282
 20
63.7603
 11
-21.2747
 21
63.6582
  0
LINE
  8
0
 10
-21.2747
 20
63.6582
 11
-21.5341
 21
63.5959
  0
LINE
  8
0
 10
-21.5341
 20
63.5959
 11
-21.8
 21
63.575
  0
LINE
  8
0
 10
-21.8
 20
63.575
 11
-22.0659
 21
63.5959
  0
LINE
  8
0
 10
-38.6564
 20
62.5123
 11
-38.809
 21
62.5489
  0
LINE
  8
0
 10
-38.809
 20
62.5489
 11
-38.954
 21
62.609
  0
LINE
  8
0
 10
-38.954
 20
62.609
 11
-39.0878
 21
62.691
  0
LINE
  8
0
 10
-39.0878
 20
62.691
 11
-39.2071
 21
62.7929
  0
LINE
  8
0
 10
-39.2071
 20
62.7929
 11
-39.309
 21
62.9122
  0
LINE
  8
0
 10
-39.309
 20
62.9122
 11
-39.391
 21
63.046
  0
LINE
  8
0
 10
-39.391
 20
63.046
 11
-39.451
 21
63.191
  0
LINE
  8
0
 10
-39.451
 20
63.191
 11
-39.4877
 21
63.3436
  0
LINE
  8
0
 10
-39.4877
 20
63.3436
 11
-39.5
 21
63.5
  0
LINE
  8
0
 10
-39.5
 20
63.5
 11
-39.4877
 21
63.6564
  0
LINE
  8
0
 10
-39.4877
 20
63.6564
 11
-39.451
 21
63.809
  0
LINE
  8
0
 10
-39.451
 20
63.809
 11
-39.391
 21
63.954
  0
LINE
  8
0
 10
-39.391
 20
63.954
 11
-39.309
 21
64.0878
  0
LINE
  8
0
 10
-39.309
 20
64.0878
 11
-39.2071
 21
64.2071
  0
LINE
  8
0
 10
-39.2071
 20
64.2071
 11
-39.0878
 21
64.309
  0
LINE
  8
0
 10
-39.0878
 20
64.309
 11
-38.954
 21
64.391
  0
LINE
  8
0
 10
-38.954
 20
64.391
 11
-38.809
 21
64.451
  0
LINE
  8
0
 10
-38.809
 20
64.451
 11
-38.6564
 21
64.4877
  0
LINE
  8
0
 10
-38.6564
 20
64.4877
 11
-38.5
 21
64.5
  0
LINE
  8
0
 10
-38.5
 20
64.5
 11
-38.3436
 21
64.4877
  0
LINE
  8
0
 10
-38.3436
 20
64.4877
 11
-38.191
 21
64.451
  0
LINE
  8
0
 10
-38.191
 20
64.451
 11
-38.046
 21
64.391
  0
LINE
  8
0
 10
-38.046
 20
64.391
 11
-37.9122
 21
64.309
  0
LINE
  8
0
 10
-37.9122
 20
64.309
 11
-37.7929
 21
64.2071
  0
LINE
  8
0
 10
-37.7929
 20
64.2071
 11
-37.691
 21
64.0878
  0
LINE
  8
0
 10
-37.691
 20
64.0878
 11
-37.609
 21
63.954
  0
LINE
  8
0
 10
-37.609
 20
63.954
 11
-37.5489
 21
63.809
  0
LINE
  8
0
 10
-37.5489
 20
63.809
 11
-37.5123
 21
63.6564
  0
LINE
  8
0
 10
-37.5123
 20
63.6564
 11
-37.5
 21
63.5
  0
LINE
  8
0
 10
-37.5
 20
63.5
 11
-37.5123
 21
63.3436
  0
LINE
  8
0
 10
-37.5123
 20
63.3436
 11
-37.5489
 21
63.191
  0
LINE
  8
0
 10
-37.5489
 20
63.191
 11
-37.609
 21
63.046
  0
LINE
  8
0
 10
-37.609
 20
63.046
 11
-37.691
 21
62.9122
  0
LINE
  8
0
 10
-37.691
 20
62.9122
 11
-37.7929
 21
62.7929
  0
LINE
  8
0
 10
-37.7929
 20
62.7929
 11
-37.9122
 21
62.691
  0
LINE
  8
0
 10
-37.9122
 20
62.691
 11
-38.046
 21
62.609
  0
LINE
  8
0
 10
-38.046
 20
62.609
 11
-38.191
 21
62.5489
  0
LINE
  8
0
 10
-38.191
 20
62.5489
 11
-38.3436
 21
62.5123
  0
LINE
  8
0
 10
-38.3436
 20
62.5123
 11
-38.5
 21
62.5
  0
LINE
  8
0
 10
-38.5
 20
62.5
 11
-38.6564
 21
62.5123
  0
LINE
  8
0
 10
32.8037
 20
32.0538
 11
32.6077
 21
32.0654
  0
LINE
  8
0
 10
32.6077
 20
32.0654
 11
32.4123
 21
32.0847
  0
LINE
  8
0
 10
32.4123
 20
32.0847
 11
32.2178
 21
32.1116
  0
LINE
  8
0
 10
32.2178
 20
32.1116
 11
32.0245
 21
32.1461
  0
LINE
  8
0
 10
32.0245
 20
32.1461
 11
31.8328
 21
32.1881
  0
LINE
  8
0
 10
31.8328
 20
32.1881
 11
31.6428
 21
32.2377
  0
LINE
  8
0
 10
31.6428
 20
32.2377
 11
31.4549
 21
32.2947
  0
LINE
  8
0
 10
31.4549
 20
32.2947
 11
31.2694
 21
32.359
  0
LINE
  8
0
 10
31.2694
 20
32.359
 11
31.0866
 21
32.4306
  0
LINE
  8
0
 10
31.0866
 20
32.4306
 11
30.9067
 21
32.5093
  0
LINE
  8
0
 10
30.9067
 20
32.5093
 11
30.73
 21
32.595
  0
LINE
  8
0
 10
30.73
 20
32.595
 11
30.5569
 21
32.6875
  0
LINE
  8
0
 10
30.5569
 20
32.6875
 11
30.3875
 21
32.7868
  0
LINE
  8
0
 10
30.3875
 20
32.7868
 11
30.2221
 21
32.8926
  0
LINE
  8
0
 10
30.2221
 20
32.8926
 11
30.0611
 21
33.0049
  0
LINE
  8
0
 10
30.0611
 20
33.0049
 11
29.9045
 21
33.1234
  0
LINE
  8
0
 10
29.9045
 20
33.1234
 11
29.7527
 21
33.248
  0
LINE
  8
0
 10
29.7527
 20
33.248
 11
29.606
 21
33.3784
  0
LINE
  8
0
 10
29.606
 20
33.3784
 11
29.4645
 21
33.5145
  0
LINE
  8
0
 10
29.4645
 20
33.5145
 11
29.3284
 21
33.656
  0
LINE
  8
0
 10
29.3284
 20
33.656
 11
29.198
 21
33.8027
  0
LINE
  8
0
 10
29.198
 20
33.8027
 11
29.0734
 21
33.9545
  0
LINE
  8
0
 10
29.0734
 20
33.9545
 11
28.9549
 21
34.1111
  0
LINE
  8
0
 10
28.9549
 20
34.1111
 11
28.8427
 21
34.2721
  0
LINE
  8
0
 10
28.8427
 20
34.2721
 11
28.7368
 21
34.4375
  0
LINE
  8
0
 10
28.7368
 20
34.4375
 11
28.6375
 21
34.6069
  0
LINE
  8
0
 10
28.6375
 20
34.6069
 11
28.545
 21
34.78
  0
LINE
  8
0
 10
28.545
 20
34.78
 11
28.4593
 21
34.9567
  0
LINE
  8
0
 10
28.4593
 20
34.9567
 11
28.3806
 21
35.1366
  0
LINE
  8
0
 10
28.3806
 20
35.1366
 11
28.309
 21
35.3194
  0
LINE
  8
0
 10
28.309
 20
35.3194
 11
28.2447
 21
35.5049
  0
LINE
  8
0
 10
28.2447
 20
35.5049
 11
28.1877
 21
35.6928
  0
LINE
  8
0
 10
28.1877
 20
35.6928
 11
28.1381
 21
35.8828
  0
LINE
  8
0
 10
28.1381
 20
35.8828
 11
28.0961
 21
36.0745
  0
LINE
  8
0
 10
28.0961
 20
36.0745
 11
28.0616
 21
36.2678
  0
LINE
  8
0
 10
28.0616
 20
36.2678
 11
28.0347
 21
36.4623
  0
LINE
  8
0
 10
28.0347
 20
36.4623
 11
28.0154
 21
36.6577
  0
LINE
  8
0
 10
28.0154
 20
36.6577
 11
28.0038
 21
36.8537
  0
LINE
  8
0
 10
28.0038
 20
36.8537
 11
28
 21
37.05
  0
LINE
  8
0
 10
28
 20
37.05
 11
28
 21
57.05
  0
LINE
  8
0
 10
28
 20
57.05
 11
28.0038
 21
57.2463
  0
LINE
  8
0
 10
28.0038
 20
57.2463
 11
28.0154
 21
57.4423
  0
LINE
  8
0
 10
28.0154
 20
57.4423
 11
28.0347
 21
57.6377
  0
LINE
  8
0
 10
28.0347
 20
57.6377
 11
28.0616
 21
57.8322
  0
LINE
  8
0
 10
28.0616
 20
57.8322
 11
28.0961
 21
58.0254
  0
LINE
  8
0
 10
28.0961
 20
58.0254
 11
28.1381
 21
58.2172
  0
LINE
  8
0
 10
28.1381
 20
58.2172
 11
28.1877
 21
58.4072
  0
LINE
  8
0
 10
28.1877
 20
58.4072
 11
28.2447
 21
58.5951
  0
LINE
  8
0
 10
28.2447
 20
58.5951
 11
28.309
 21
58.7806
  0
LINE
  8
0
 10
28.309
 20
58.7806
 11
28.3806
 21
58.9634
  0
LINE
  8
0
 10
28.3806
 20
58.9634
 11
28.4593
 21
59.1433
  0
LINE
  8
0
 10
28.4593
 20
59.1433
 11
28.545
 21
59.3199
  0
LINE
  8
0
 10
28.545
 20
59.3199
 11
28.6375
 21
59.4931
  0
LINE
  8
0
 10
28.6375
 20
59.4931
 11
28.7368
 21
59.6625
  0
LINE
  8
0
 10
28.7368
 20
59.6625
 11
28.8427
 21
59.8279
  0
LINE
  8
0
 10
28.8427
 20
59.8279
 11
28.9549
 21
59.9889
  0
LINE
  8
0
 10
28.9549
 20
59.9889
 11
29.0734
 21
60.1455
  0
LINE
  8
0
 10
29.0734
 20
60.1455
 11
29.198
 21
60.2972
  0
LINE
  8
0
 10
29.198
 20
60.2972
 11
29.3284
 21
60.444
  0
LINE
  8
0
 10
29.3284
 20
60.444
 11
29.4645
 21
60.5855
  0
LINE
  8
0
 10
29.4645
 20
60.5855
 11
29.606
 21
60.7216
  0
LINE
  8
0
 10
29.606
 20
60.7216
 11
29.7527
 21
60.852
  0
LINE
  8
0
 10
29.7527
 20
60.852
 11
29.9045
 21
60.9766
  0
LINE
  8
0
 10
29.9045
 20
60.9766
 11
30.0611
 21
61.0951
  0
LINE
  8
0
 10
30.0611
 20
61.0951
 11
30.2221
 21
61.2073
  0
LINE
  8
0
 10
30.2221
 20
61.2073
 11
30.3875
 21
61.3132
  0
LINE
  8
0
 10
30.3875
 20
61.3132
 11
30.5569
 21
61.4125
  0
LINE
  8
0
 10
30.5569
 20
61.4125
 11
30.73
 21
61.505
  0
LINE
  8
0
 10
30.73
 20
61.505
 11
30.9067
 21
61.5907
  0
LINE
  8
0
 10
30.9067
 20
61.5907
 11
31.0866
 21
61.6694
  0
LINE
  8
0
 10
31.0866
 20
61.6694
 11
31.2694
 21
61.741
  0
LINE
  8
0
 10
31.2694
 20
61.741
 11
31.4549
 21
61.8053
  0
LINE
  8
0
 10
31.4549
 20
61.8053
 11
31.6428
 21
61.8623
  0
LINE
  8
0
 10
31.6428
 20
61.8623
 11
31.8328
 21
61.9118
  0
LINE
  8
0
 10
31.8328
 20
61.9118
 11
32.0245
 21
61.9539
  0
LINE
  8
0
 10
32.0245
 20
61.9539
 11
32.2178
 21
61.9884
  0
LINE
  8
0
 10
32.2178
 20
61.9884
 11
32.4123
 21
62.0153
  0
LINE
  8
0
 10
32.4123
 20
62.0153
 11
32.6077
 21
62.0346
  0
LINE
  8
0
 10
32.6077
 20
62.0346
 11
32.8037
 21
62.0461
  0
LINE
  8
0
 10
32.8037
 20
62.0461
 11
33
 21
62.05
  0
LINE
  8
0
 10
33
 20
62.05
 11
33.1963
 21
62.0461
  0
LINE
  8
0
 10
33.1963
 20
62.0461
 11
33.3923
 21
62.0346
  0
LINE
  8
0
 10
33.3923
 20
62.0346
 11
33.5877
 21
62.0153
  0
LINE
  8
0
 10
33.5877
 20
62.0153
 11
33.7822
 21
61.9884
  0
LINE
  8
0
 10
33.7822
 20
61.9884
 11
33.9754
 21
61.9539
  0
LINE
  8
0
 10
33.9754
 20
61.9539
 11
34.1672
 21
61.9118
  0
LINE
  8
0
 10
34.1672
 20
61.9118
 11
34.3572
 21
61.8623
  0
LINE
  8
0
 10
34.3572
 20
61.8623
 11
34.5451
 21
61.8053
  0
LINE
  8
0
 10
34.5451
 20
61.8053
 11
34.7306
 21
61.741
  0
LINE
  8
0
 10
34.7306
 20
61.741
 11
34.9134
 21
61.6694
  0
LINE
  8
0
 10
34.9134
 20
61.6694
 11
35.0933
 21
61.5907
  0
LINE
  8
0
 10
35.0933
 20
61.5907
 11
35.2699
 21
61.505
  0
LINE
  8
0
 10
35.2699
 20
61.505
 11
35.4431
 21
61.4125
  0
LINE
  8
0
 10
35.4431
 20
61.4125
 11
35.6125
 21
61.3132
  0
LINE
  8
0
 10
35.6125
 20
61.3132
 11
35.7778
 21
61.2073
  0
LINE
  8
0
 10
35.7778
 20
61.2073
 11
35.9389
 21
61.0951
  0
LINE
  8
0
 10
35.9389
 20
61.0951
 11
36.0955
 21
60.9766
  0
LINE
  8
0
 10
36.0955
 20
60.9766
 11
36.2472
 21
60.852
  0
LINE
  8
0
 10
36.2472
 20
60.852
 11
36.394
 21
60.7216
  0
LINE
  8
0
 10
36.394
 20
60.7216
 11
36.5355
 21
60.5855
  0
LINE
  8
0
 10
36.5355
 20
60.5855
 11
36.6716
 21
60.444
  0
LINE
  8
0
 10
36.6716
 20
60.444
 11
36.802
 21
60.2972
  0
LINE
  8
0
 10
36.802
 20
60.2972
 11
36.9266
 21
60.1455
  0
LINE
  8
0
 10
36.9266
 20
60.1455
 11
37.0451
 21
59.9889
  0
LINE
  8
0
 10
37.0451
 20
59.9889
 11
37.1573
 21
59.8279
  0
LINE
  8
0
 10
37.1573
 20
59.8279
 11
37.2632
 21
59.6625
  0
LINE
  8
0
 10
37.2632
 20
59.6625
 11
37.3625
 21
59.4931
  0
LINE
  8
0
 10
37.3625
 20
59.4931
 11
37.455
 21
59.3199
  0
LINE
  8
0
 10
37.455
 20
59.3199
 11
37.5407
 21
59.1433
  0
LINE
  8
0
 10
37.5407
 20
59.1433
 11
37.6194
 21
58.9634
  0
LINE
  8
0
 10
37.6194
 20
58.9634
 11
37.6909
 21
58.7806
  0
LINE
  8
0
 10
37.6909
 20
58.7806
 11
37.7553
 21
58.5951
  0
LINE
  8
0
 10
37.7553
 20
58.5951
 11
37.8123
 21
58.4072
  0
LINE
  8
0
 10
37.8123
 20
58.4072
 11
37.8618
 21
58.2172
  0
LINE
  8
0
 10
37.8618
 20
58.2172
 11
37.9039
 21
58.0254
  0
LINE
  8
0
 10
37.9039
 20
58.0254
 11
37.9384
 21
57.8322
  0
LINE
  8
0
 10
37.9384
 20
57.8322
 11
37.9653
 21
57.6377
  0
LINE
  8
0
 10
37.9653
 20
57.6377
 11
37.9846
 21
57.4423
  0
LINE
  8
0
 10
37.9846
 20
57.4423
 11
37.9961
 21
57.2463
  0
LINE
  8
0
 10
37.9961
 20
57.2463
 11
38
 21
57.05
  0
LINE
  8
0
 10
38
 20
57.05
 11
38
 21
37.05
  0
LINE
  8
0
 10
38
 20
37.05
 11
37.9961
 21
36.8537
  0
LINE
  8
0
 10
37.9961
 20
36.8537
 11
37.9846
 21
36.6577
  0
LINE
  8
0
 10
37.9846
 20
36.6577
 11
37.9653
 21
36.4623
  0
LINE
  8
0
 10
37.9653
 20
36.4623
 11
37.9384
 21
36.2678
  0
LINE
  8
0
 10
37.9384
 20
36.2678
 11
37.9039
 21
36.0745
  0
LINE
  8
0
 10
37.9039
 20
36.0745
 11
37.8618
 21
35.8828
  0
LINE
  8
0
 10
37.8618
 20
35.8828
 11
37.8123
 21
35.6928
  0
LINE
  8
0
 10
37.8123
 20
35.6928
 11
37.7553
 21
35.5049
  0
LINE
  8
0
 10
37.7553
 20
35.5049
 11
37.6909
 21
35.3194
  0
LINE
  8
0
 10
37.6909
 20
35.3194
 11
37.6194
 21
35.1366
  0
LINE
  8
0
 10
37.6194
 20
35.1366
 11
37.5407
 21
34.9567
  0
LINE
  8
0
 10
37.5407
 20
34.9567
 11
37.455
 21
34.78
  0
LINE
  8
0
 10
37.455
 20
34.78
 11
37.3625
 21
34.6069
  0
LINE
  8
0
 10
37.3625
 20
34.6069
 11
37.2632
 21
34.4375
  0
LINE
  8
0
 10
37.2632
 20
34.4375
 11
37.1573
 21
34.2721
  0
LINE
  8
0
 10
37.1573
 20
34.2721
 11
37.0451
 21
34.1111
  0
LINE
  8
0
 10
37.0451
 20
34.1111
 11
36.9266
 21
33.9545
  0
LINE
  8
0
 10
36.9266
 20
33.9545
 11
36.802
 21
33.8027
  0
LINE
  8
0
 10
36.802
 20
33.8027
 11
36.6716
 21
33.656
  0
LINE
  8
0
 10
36.6716
 20
33.656
 11
36.5355
 21
33.5145
  0
LINE
  8
0
 10
36.5355
 20
33.5145
 11
36.394
 21
33.3784
  0
LINE
  8
0
 10
36.394
 20
33.3784
 11
36.2472
 21
33.248
  0
LINE
  8
0
 10
36.2472
 20
33.248
 11
36.0955
 21
33.1234
  0
LINE
  8
0
 10
36.0955
 20
33.1234
 11
35.9389
 21
33.0049
  0
LINE
  8
0
 10
35.9389
 20
33.0049
 11
35.7778
 21
32.8926
  0
LINE
  8
0
 10
35.7778
 20
32.8926
 11
35.6125
 21
32.7868
  0
LINE
  8
0
 10
35.6125
 20
32.7868
 11
35.4431
 21
32.6875
  0
LINE
  8
0
 10
35.4431
 20
32.6875
 11
35.2699
 21
32.595
  0
LINE
  8
0
 10
35.2699
 20
32.595
 11
35.0933
 21
32.5093
  0
LINE
  8
0
 10
35.0933
 20
32.5093
 11
34.9134
 21
32.4306
  0
LINE
  8
0
 10
34.9134
 20
32.4306
 11
34.7306
 21
32.359
  0
LINE
  8
0
 10
34.7306
 20
32.359
 11
34.5451
 21
32.2947
  0
LINE
  8
0
 10
34.5451
 20
32.2947
 11
34.3572
 21
32.2377
  0
LINE
  8
0
 10
34.3572
 20
32.2377
 11
34.1672
 21
32.1881
  0
LINE
  8
0
 10
34.1672
 20
32.1881
 11
33.9754
 21
32.1461
  0
LINE
  8
0
 10
33.9754
 20
32.1461
 11
33.7822
 21
32.1116
  0
LINE
  8
0
 10
33.7822
 20
32.1116
 11
33.5877
 21
32.0847
  0
LINE
  8
0
 10
33.5877
 20
32.0847
 11
33.3923
 21
32.0654
  0
LINE
  8
0
 10
33.3923
 20
32.0654
 11
33.1963
 21
32.0538
  0
LINE
  8
0
 10
33.1963
 20
32.0538
 11
33
 21
32.05
  0
LINE
  8
0
 10
33
 20
32.05
 11
32.8037
 21
32.0538
  0
LINE
  8
0
 10
-33.1963
 20
32.0538
 11
-33.3923
 21
32.0654
  0
LINE
  8
0
 10
-33.3923
 20
32.0654
 11
-33.5877
 21
32.0847
  0
LINE
  8
0
 10
-33.5877
 20
32.0847
 11
-33.7822
 21
32.1116
  0
LINE
  8
0
 10
-33.7822
 20
32.1116
 11
-33.9754
 21
32.1461
  0
LINE
  8
0
 10
-33.9754
 20
32.1461
 11
-34.1672
 21
32.1881
  0
LINE
  8
0
 10
-34.1672
 20
32.1881
 11
-34.3572
 21
32.2377
  0
LINE
  8
0
 10
-34.3572
 20
32.2377
 11
-34.5451
 21
32.2947
  0
LINE
  8
0
 10
-34.5451
 20
32.2947
 11
-34.7306
 21
32.359
  0
LINE
  8
0
 10
-34.7306
 20
32.359
 11
-34.9134
 21
32.4306
  0
LINE
  8
0
 10
-34.9134
 20
32.4306
 11
-35.0933
 21
32.5093
  0
LINE
  8
0
 10
-35.0933
 20
32.5093
 11
-35.2699
 21
32.595
  0
LINE
  8
0
 10
-35.2699
 20
32.595
 11
-35.4431
 21
32.6875
  0
LINE
  8
0
 10
-35.4431
 20
32.6875
 11
-35.6125
 21
32.7868
  0
LINE
  8
0
 10
-35.6125
 20
32.7868
 11
-35.7778
 21
32.8926
  0
LINE
  8
0
 10
-35.7778
 20
32.8926
 11
-35.9389
 21
33.0049
  0
LINE
  8
0
 10
-35.9389
 20
33.0049
 11
-36.0955
 21
33.1234
  0
LINE
  8
0
 10
-36.0955
 20
33.1234
 11
-36.2472
 21
33.248
  0
LINE
  8
0
 10
-36.2472
 20
33.248
 11
-36.394
 21
33.3784
  0
LINE
  8
0
 10
-36.394
 20
33.3784
 11
-36.5355
 21
33.5145
  0
LINE
  8
0
 10
-36.5355
 20
33.5145
 11
-36.6716
 21
33.656
  0
LINE
  8
0
 10
-36.6716
 20
33.656
 11
-36.802
 21
33.8027
  0
LINE
  8
0
 10
-36.802
 20
33.8027
 11
-36.9266
 21
33.9545
  0
LINE
  8
0
 10
-36.9266
 20
33.9545
 11
-37.0451
 21
34.1111
  0
LINE
  8
0
 10
-37.0451
 20
34.1111
 11
-37.1573
 21
34.2721
  0
LINE
  8
0
 10
-37.1573
 20
34.2721
 11
-37.2632
 21
34.4375
  0
LINE
  8
0
 10
-37.2632
 20
34.4375
 11
-37.3625
 21
34.6069
  0
LINE
  8
0
 10
-37.3625
 20
34.6069
 11
-37.455
 21
34.78
  0
LINE
  8
0
 10
-37.455
 20
34.78
 11
-37.5407
 21
34.9567
  0
LINE
  8
0
 10
-37.5407
 20
34.9567
 11
-37.6194
 21
35.1366
  0
LINE
  8
0
 10
-37.6194
 20
35.1366
 11
-37.6909
 21
35.3194
  0
LINE
  8
0
 10
-37.6909
 20
35.3194
 11
-37.7553
 21
35.5049
  0
LINE
  8
0
 10
-37.7553
 20
35.5049
 11
-37.8123
 21
35.6928
  0
LINE
  8
0
 10
-37.8123
 20
35.6928
 11
-37.8618
 21
35.8828
  0
LINE
  8
0
 10
-37.8618
 20
35.8828
 11
-37.9039
 21
36.0745
  0
LINE
  8
0
 10
-37.9039
 20
36.0745
 11
-37.9384
 21
36.2678
  0
LINE
  8
0
 10
-37.9384
 20
36.2678
 11
-37.9653
 21
36.4623
  0
LINE
  8
0
 10
-37.9653
 20
36.4623
 11
-37.9846
 21
36.6577
  0
LINE
  8
0
 10
-37.9846
 20
36.6577
 11
-37.9961
 21
36.8537
  0
LINE
  8
0
 10
-37.9961
 20
36.8537
 11
-38
 21
37.05
  0
LINE
  8
0
 10
-38
 20
37.05
 11
-38
 21
57.05
  0
LINE
  8
0
 10
-38
 20
57.05
 11
-37.9961
 21
57.2463
  0
LINE
  8
0
 10
-37.9961
 20
57.2463
 11
-37.9846
 21
57.4423
  0
LINE
  8
0
 10
-37.9846
 20
57.4423
 11
-37.9653
 21
57.6377
  0
LINE
  8
0
 10
-37.9653
 20
57.6377
 11
-37.9384
 21
57.8322
  0
LINE
  8
0
 10
-37.9384
 20
57.8322
 11
-37.9039
 21
58.0254
  0
LINE
  8
0
 10
-37.9039
 20
58.0254
 11
-37.8618
 21
58.2172
  0
LINE
  8
0
 10
-37.8618
 20
58.2172
 11
-37.8123
 21
58.4072
  0
LINE
  8
0
 10
-37.8123
 20
58.4072
 11
-37.7553
 21
58.5951
  0
LINE
  8
0
 10
-37.7553
 20
58.5951
 11
-37.6909
 21
58.7806
  0
LINE
  8
0
 10
-37.6909
 20
58.7806
 11
-37.6194
 21
58.9634
  0
LINE
  8
0
 10
-37.6194
 20
58.9634
 11
-37.5407
 21
59.1433
  0
LINE
  8
0
 10
-37.5407
 20
59.1433
 11
-37.455
 21
59.3199
  0
LINE
  8
0
 10
-37.455
 20
59.3199
 11
-37.3625
 21
59.4931
  0
LINE
  8
0
 10
-37.3625
 20
59.4931
 11
-37.2632
 21
59.6625
  0
LINE
  8
0
 10
-37.2632
 20
59.6625
 11
-37.1573
 21
59.8279
  0
LINE
  8
0
 10
-37.1573
 20
59.8279
 11
-37.0451
 21
59.9889
  0
LINE
  8
0
 10
-37.0451
 20
59.9889
 11
-36.9266
 21
60.1455
  0
LINE
  8
0
 10
-36.9266
 20
60.1455
 11
-36.802
 21
60.2972
  0
LINE
  8
0
 10
-36.802
 20
60.2972
 11
-36.6716
 21
60.444
  0
LINE
  8
0
 10
-36.6716
 20
60.444
 11
-36.5355
 21
60.5855
  0
LINE
  8
0
 10
-36.5355
 20
60.5855
 11
-36.394
 21
60.7216
  0
LINE
  8
0
 10
-36.394
 20
60.7216
 11
-36.2472
 21
60.852
  0
LINE
  8
0
 10
-36.2472
 20
60.852
 11
-36.0955
 21
60.9766
  0
LINE
  8
0
 10
-36.0955
 20
60.9766
 11
-35.9389
 21
61.0951
  0
LINE
  8
0
 10
-35.9389
 20
61.0951
 11
-35.7778
 21
61.2073
  0
LINE
  8
0
 10
-35.7778
 20
61.2073
 11
-35.6125
 21
61.3132
  0
LINE
  8
0
 10
-35.6125
 20
61.3132
 11
-35.4431
 21
61.4125
  0
LINE
  8
0
 10
-35.4431
 20
61.4125
 11
-35.2699
 21
61.505
  0
LINE
  8
0
 10
-35.2699
 20
61.505
 11
-35.0933
 21
61.5907
  0
LINE
  8
0
 10
-35.0933
 20
61.5907
 11
-34.9134
 21
61.6694
  0
LINE
  8
0
 10
-34.9134
 20
61.6694
 11
-34.7306
 21
61.741
  0
LINE
  8
0
 10
-34.7306
 20
61.741
 11
-34.5451
 21
61.8053
  0
LINE
  8
0
 10
-34.5451
 20
61.8053
 11
-34.3572
 21
61.8623
  0
LINE
  8
0
 10
-34.3572
 20
61.8623
 11
-34.1672
 21
61.9118
  0
LINE
  8
0
 10
-34.1672
 20
61.9118
 11
-33.9754
 21
61.9539
  0
LINE
  8
0
 10
-33.9754
 20
61.9539
 11
-33.7822
 21
61.9884
  0
LINE
  8
0
 10
-33.7822
 20
61.9884
 11
-33.5877
 21
62.0153
  0
LINE
  8
0
 10
-33.5877
 20
62.0153
 11
-33.3923
 21
62.0346
  0
LINE
  8
0
 10
-33.3923
 20
62.0346
 11
-33.1963
 21
62.0461
  0
LINE
  8
0
 10
-33.1963
 20
62.0461
 11
-33
 21
62.05
  0
LINE
  8
0
 10
-33
 20
62.05
 11
-32.8037
 21
62.0461
  0
LINE
  8
0
 10
-32.8037
 20
62.0461
 11
-32.6077
 21
62.0346
  0
LINE
  8
0
 10
-32.6077
 20
62.0346
 11
-32.4123
 21
62.0153
  0
LINE
  8
0
 10
-32.4123
 20
62.0153
 11
-32.2178
 21
61.9884
  0
LINE
  8
0
 10
-32.2178
 20
61.9884
 11
-32.0245
 21
61.9539
  0
LINE
  8
0
 10
-32.0245
 20
61.9539
 11
-31.8328
 21
61.9118
  0
LINE
  8
0
 10
-31.8328
 20
61.9118
 11
-31.6428
 21
61.8623
  0
LINE
  8
0
 10
-31.6428
 20
61.8623
 11
-31.4549
 21
61.8053
  0
LINE
  8
0
 10
-31.4549
 20
61.8053
 11
-31.2694
 21
61.741
  0
LINE
  8
0
 10
-31.2694
 20
61.741
 11
-31.0866
 21
61.6694
  0
LINE
  8
0
 10
-31.0866
 20
61.6694
 11
-30.9067
 21
61.5907
  0
LINE
  8
0
 10
-30.9067
 20
61.5907
 11
-30.73
 21
61.505
  0
LINE
  8
0
 10
-30.73
 20
61.505
 11
-30.5569
 21
61.4125
  0
LINE
  8
0
 10
-30.5569
 20
61.4125
 11
-30.3875
 21
61.3132
  0
LINE
  8
0
 10
-30.3875
 20
61.3132
 11
-30.2221
 21
61.2073
  0
LINE
  8
0
 10
-30.2221
 20
61.2073
 11
-30.0611
 21
61.0951
  0
LINE
  8
0
 10
-30.0611
 20
61.0951
 11
-29.9045
 21
60.9766
  0
LINE
  8
0
 10
-29.9045
 20
60.9766
 11
-29.7527
 21
60.852
  0
LINE
  8
0
 10
-29.7527
 20
60.852
 11
-29.606
 21
60.7216
  0
LINE
  8
0
 10
-29.606
 20
60.7216
 11
-29.4645
 21
60.5855
  0
LINE
  8
0
 10
-29.4645
 20
60.5855
 11
-29.3284
 21
60.444
  0
LINE
  8
0
 10
-29.3284
 20
60.444
 11
-29.198
 21
60.2972
  0
LINE
  8
0
 10
-29.198
 20
60.2972
 11
-29.0734
 21
60.1455
  0
LINE
  8
0
 10
-29.0734
 20
60.1455
 11
-28.9549
 21
59.9889
  0
LINE
  8
0
 10
-28.9549
 20
59.9889
 11
-28.8427
 21
59.8279
  0
LINE
  8
0
 10
-28.8427
 20
59.8279
 11
-28.7368
 21
59.6625
  0
LINE
  8
0
 10
-28.7368
 20
59.6625
 11
-28.6375
 21
59.4931
  0
LINE
  8
0
 10
-28.6375
 20
59.4931
 11
-28.545
 21
59.3199
  0
LINE
  8
0
 10
-28.545
 20
59.3199
 11
-28.4593
 21
59.1433
  0
LINE
  8
0
 10
-28.4593
 20
59.1433
 11
-28.3806
 21
58.9634
  0
LINE
  8
0
 10
-28.3806
 20
58.9634
 11
-28.309
 21
58.7806
  0
LINE
  8
0
 10
-28.309
 20
58.7806
 11
-28.2447
 21
58.5951
  0
LINE
  8
0
 10
-28.2447
 20
58.5951
 11
-28.1877
 21
58.4072
  0
LINE
  8
0
 10
-28.1877
 20
58.4072
 11
-28.1381
 21
58.2172
  0
LINE
  8
0
 10
-28.1381
 20
58.2172
 11
-28.0961
 21
58.0254
  0
LINE
  8
0
 10
-28.0961
 20
58.0254
 11
-28.0616
 21
57.8322
  0
LINE
  8
0
 10
-28.0616
 20
57.8322
 11
-28.0347
 21
57.6377
  0
LINE
  8
0
 10
-28.0347
 20
57.6377
 11
-28.0154
 21
57.4423
  0
LINE
  8
0
 10
-28.0154
 20
57.4423
 11
-28.0038
 21
57.2463
  0
LINE
  8
0
 10
-28.0038
 20
57.2463
 11
-28
 21
57.05
  0
LINE
  8
0
 10
-28
 20
57.05
 11
-28
 21
37.05
  0
LINE
  8
0
 10
-28
 20
37.05
 11
-28.0038
 21
36.8537
  0
LINE
  8
0
 10
-28.0038
 20
36.8537
 11
-28.0154
 21
36.6577
  0
LINE
  8
0
 10
-28.0154
 20
36.6577
 11
-28.0347
 21
36.4623
  0
LINE
  8
0
 10
-28.0347
 20
36.4623
 11
-28.0616
 21
36.2678
  0
LINE
  8
0
 10
-28.0616
 20
36.2678
 11
-28.0961
 21
36.0745
  0
LINE
  8
0
 10
-28.0961
 20
36.0745
 11
-28.1381
 21
35.8828
  0
LINE
  8
0
 10
-28.1381
 20
35.8828
 11
-28.1877
 21
35.6928
  0
LINE
  8
0
 10
-28.1877
 20
35.6928
 11
-28.2447
 21
35.5049
  0
LINE
  8
0
 10
-28.2447
 20
35.5049
 11
-28.309
 21
35.3194
  0
LINE
  8
0
 10
-28.309
 20
35.3194
 11
-28.3806
 21
35.1366
  0
LINE
  8
0
 10
-28.3806
 20
35.1366
 11
-28.4593
 21
34.9567
  0
LINE
  8
0
 10
-28.4593
 20
34.9567
 11
-28.545
 21
34.78
  0
LINE
  8
0
 10
-28.545
 20
34.78
 11
-28.6375
 21
34.6069
  0
LINE
  8
0
 10
-28.6375
 20
34.6069
 11
-28.7368
 21
34.4375
  0
LINE
  8
0
 10
-28.7368
 20
34.4375
 11
-28.8427
 21
34.2721
  0
LINE
  8
0
 10
-28.8427
 20
34.2721
 11
-28.9549
 21
34.1111
  0
LINE
  8
0
 10
-28.9549
 20
34.1111
 11
-29.0734
 21
33.9545
  0
LINE
  8
0
 10
-29.0734
 20
33.9545
 11
-29.198
 21
33.8027
  0
LINE
  8
0
 10
-29.198
 20
33.8027
 11
-29.3284
 21
33.656
  0
LINE
  8
0
 10
-29.3284
 20
33.656
 11
-29.4645
 21
33.5145
  0
LINE
  8
0
 10
-29.4645
 20
33.5145
 11
-29.606
 21
33.3784
  0
LINE
  8
0
 10
-29.606
 20
33.3784
 11
-29.7527
 21
33.248
  0
LINE
  8
0
 10
-29.7527
 20
33.248
 11
-29.9045
 21
33.1234
  0
LINE
  8
0
 10
-29.9045
 20
33.1234
 11
-30.0611
 21
33.0049
  0
LINE
  8
0
 10
-30.0611
 20
33.0049
 11
-30.2221
 21
32.8926
  0
LINE
  8
0
 10
-30.2221
 20
32.8926
 11
-30.3875
 21
32.7868
  0
LINE
  8
0
 10
-30.3875
 20
32.7868
 11
-30.5569
 21
32.6875
  0
LINE
  8
0
 10
-30.5569
 20
32.6875
 11
-30.73
 21
32.595
  0
LINE
  8
0
 10
-30.73
 20
32.595
 11
-30.9067
 21
32.5093
  0
LINE
  8
0
 10
-30.9067
 20
32.5093
 11
-31.0866
 21
32.4306
  0
LINE
  8
0
 10
-31.0866
 20
32.4306
 11
-31.2694
 21
32.359
  0
LINE
  8
0
 10
-31.2694
 20
32.359
 11
-31.4549
 21
32.2947
  0
LINE
  8
0
 10
-31.4549
 20
32.2947
 11
-31.6428
 21
32.2377
  0
LINE
  8
0
 10
-31.6428
 20
32.2377
 11
-31.8328
 21
32.1881
  0
LINE
  8
0
 10
-31.8328
 20
32.1881
 11
-32.0245
 21
32.1461
  0
LINE
  8
0
 10
-32.0245
 20
32.1461
 11
-32.2178
 21
32.1116
  0
LINE
  8
0
 10
-32.2178
 20
32.1116
 11
-32.4123
 21
32.0847
  0
LINE
  8
0
 10
-32.4123
 20
32.0847
 11
-32.6077
 21
32.0654
  0
LINE
  8
0
 10
-32.6077
 20
32.0654
 11
-32.8037
 21
32.0538
  0
LINE
  8
0
 10
-32.8037
 20
32.0538
 11
-33
 21
32.05
  0
LINE
  8
0
 10
-33
 20
32.05
 11
-33.1963
 21
32.0538
  0
LINE
  8
0
 10
-42.5589
 20
35.5511
 11
-42.6177
 21
35.5546
  0
LINE
  8
0
 10
-42.6177
 20
35.5546
 11
-42.6763
 21
35.5604
  0
LINE
  8
0
 10
-42.6763
 20
35.5604
 11
-42.7346
 21
35.5685
  0
LINE
  8
0
 10
-42.7346
 20
35.5685
 11
-42.7926
 21
35.5788
  0
LINE
  8
0
 10
-42.7926
 20
35.5788
 11
-42.8502
 21
35.5914
  0
LINE
  8
0
 10
-42.8502
 20
35.5914
 11
-42.9072
 21
35.6063
  0
LINE
  8
0
 10
-42.9072
 20
35.6063
 11
-42.9635
 21
35.6234
  0
LINE
  8
0
 10
-42.9635
 20
35.6234
 11
-43.0192
 21
35.6427
  0
LINE
  8
0
 10
-43.0192
 20
35.6427
 11
-43.074
 21
35.6642
  0
LINE
  8
0
 10
-43.074
 20
35.6642
 11
-43.128
 21
35.6878
  0
LINE
  8
0
 10
-43.128
 20
35.6878
 11
-43.181
 21
35.7135
  0
LINE
  8
0
 10
-43.181
 20
35.7135
 11
-43.2329
 21
35.7412
  0
LINE
  8
0
 10
-43.2329
 20
35.7412
 11
-43.2837
 21
35.771
  0
LINE
  8
0
 10
-43.2837
 20
35.771
 11
-43.3333
 21
35.8028
  0
LINE
  8
0
 10
-43.3333
 20
35.8028
 11
-43.3817
 21
35.8365
  0
LINE
  8
0
 10
-43.3817
 20
35.8365
 11
-43.4286
 21
35.872
  0
LINE
  8
0
 10
-43.4286
 20
35.872
 11
-43.4742
 21
35.9094
  0
LINE
  8
0
 10
-43.4742
 20
35.9094
 11
-43.5182
 21
35.9485
  0
LINE
  8
0
 10
-43.5182
 20
35.9485
 11
-43.5607
 21
35.9893
  0
LINE
  8
0
 10
-43.5607
 20
35.9893
 11
-43.6015
 21
36.0318
  0
LINE
  8
0
 10
-43.6015
 20
36.0318
 11
-43.6406
 21
36.0758
  0
LINE
  8
0
 10
-43.6406
 20
36.0758
 11
-43.678
 21
36.1214
  0
LINE
  8
0
 10
-43.678
 20
36.1214
 11
-43.7135
 21
36.1683
  0
LINE
  8
0
 10
-43.7135
 20
36.1683
 11
-43.7472
 21
36.2166
  0
LINE
  8
0
 10
-43.7472
 20
36.2166
 11
-43.7789
 21
36.2663
  0
LINE
  8
0
 10
-43.7789
 20
36.2663
 11
-43.8087
 21
36.3171
  0
LINE
  8
0
 10
-43.8087
 20
36.3171
 11
-43.8365
 21
36.369
  0
LINE
  8
0
 10
-43.8365
 20
36.369
 11
-43.8622
 21
36.422
  0
LINE
  8
0
 10
-43.8622
 20
36.422
 11
-43.8858
 21
36.476
  0
LINE
  8
0
 10
-43.8858
 20
36.476
 11
-43.9073
 21
36.5308
  0
LINE
  8
0
 10
-43.9073
 20
36.5308
 11
-43.9266
 21
36.5865
  0
LINE
  8
0
 10
-43.9266
 20
36.5865
 11
-43.9437
 21
36.6428
  0
LINE
  8
0
 10
-43.9437
 20
36.6428
 11
-43.9585
 21
36.6998
  0
LINE
  8
0
 10
-43.9585
 20
36.6998
 11
-43.9712
 21
36.7574
  0
LINE
  8
0
 10
-43.9712
 20
36.7574
 11
-43.9815
 21
36.8153
  0
LINE
  8
0
 10
-43.9815
 20
36.8153
 11
-43.9896
 21
36.8737
  0
LINE
  8
0
 10
-43.9896
 20
36.8737
 11
-43.9954
 21
36.9323
  0
LINE
  8
0
 10
-43.9954
 20
36.9323
 11
-43.9988
 21
36.9911
  0
LINE
  8
0
 10
-43.9988
 20
36.9911
 11
-44
 21
37.05
  0
LINE
  8
0
 10
-44
 20
37.05
 11
-44
 21
57.05
  0
LINE
  8
0
 10
-44
 20
57.05
 11
-43.9988
 21
57.1089
  0
LINE
  8
0
 10
-43.9988
 20
57.1089
 11
-43.9954
 21
57.1677
  0
LINE
  8
0
 10
-43.9954
 20
57.1677
 11
-43.9896
 21
57.2263
  0
LINE
  8
0
 10
-43.9896
 20
57.2263
 11
-43.9815
 21
57.2846
  0
LINE
  8
0
 10
-43.9815
 20
57.2846
 11
-43.9712
 21
57.3426
  0
LINE
  8
0
 10
-43.9712
 20
57.3426
 11
-43.9585
 21
57.4002
  0
LINE
  8
0
 10
-43.9585
 20
57.4002
 11
-43.9437
 21
57.4572
  0
LINE
  8
0
 10
-43.9437
 20
57.4572
 11
-43.9266
 21
57.5135
  0
LINE
  8
0
 10
-43.9266
 20
57.5135
 11
-43.9073
 21
57.5692
  0
LINE
  8
0
 10
-43.9073
 20
57.5692
 11
-43.8858
 21
57.624
  0
LINE
  8
0
 10
-43.8858
 20
57.624
 11
-43.8622
 21
57.678
  0
LINE
  8
0
 10
-43.8622
 20
57.678
 11
-43.8365
 21
57.731
  0
LINE
  8
0
 10
-43.8365
 20
57.731
 11
-43.8087
 21
57.7829
  0
LINE
  8
0
 10
-43.8087
 20
57.7829
 11
-43.7789
 21
57.8337
  0
LINE
  8
0
 10
-43.7789
 20
57.8337
 11
-43.7472
 21
57.8833
  0
LINE
  8
0
 10
-43.7472
 20
57.8833
 11
-43.7135
 21
57.9317
  0
LINE
  8
0
 10
-43.7135
 20
57.9317
 11
-43.678
 21
57.9786
  0
LINE
  8
0
 10
-43.678
 20
57.9786
 11
-43.6406
 21
58.0242
  0
LINE
  8
0
 10
-43.6406
 20
58.0242
 11
-43.6015
 21
58.0682
  0
LINE
  8
0
 10
-43.6015
 20
58.0682
 11
-43.5607
 21
58.1107
  0
LINE
  8
0
 10
-43.5607
 20
58.1107
 11
-43.5182
 21
58.1515
  0
LINE
  8
0
 10
-43.5182
 20
58.1515
 11
-43.4742
 21
58.1906
  0
LINE
  8
0
 10
-43.4742
 20
58.1906
 11
-43.4286
 21
58.228
  0
LINE
  8
0
 10
-43.4286
 20
58.228
 11
-43.3817
 21
58.2635
  0
LINE
  8
0
 10
-43.3817
 20
58.2635
 11
-43.3333
 21
58.2972
  0
LINE
  8
0
 10
-43.3333
 20
58.2972
 11
-43.2837
 21
58.3289
  0
LINE
  8
0
 10
-43.2837
 20
58.3289
 11
-43.2329
 21
58.3587
  0
LINE
  8
0
 10
-43.2329
 20
58.3587
 11
-43.181
 21
58.3865
  0
LINE
  8
0
 10
-43.181
 20
58.3865
 11
-43.128
 21
58.4122
  0
LINE
  8
0
 10
-43.128
 20
58.4122
 11
-43.074
 21
58.4358
  0
LINE
  8
0
 10
-43.074
 20
58.4358
 11
-43.0192
 21
58.4573
  0
LINE
  8
0
 10
-43.0192
 20
58.4573
 11
-42.9635
 21
58.4766
  0
LINE
  8
0
 10
-42.9635
 20
58.4766
 11
-42.9072
 21
58.4937
  0
LINE
  8
0
 10
-42.9072
 20
58.4937
 11
-42.8502
 21
58.5085
  0
LINE
  8
0
 10
-42.8502
 20
58.5085
 11
-42.7926
 21
58.5212
  0
LINE
  8
0
 10
-42.7926
 20
58.5212
 11
-42.7346
 21
58.5315
  0
LINE
  8
0
 10
-42.7346
 20
58.5315
 11
-42.6763
 21
58.5396
  0
LINE
  8
0
 10
-42.6763
 20
58.5396
 11
-42.6177
 21
58.5454
  0
LINE
  8
0
 10
-42.6177
 20
58.5454
 11
-42.5589
 21
58.5488
  0
LINE
  8
0
 10
-42.5589
 20
58.5488
 11
-42.5
 21
58.55
  0
LINE
  8
0
 10
-42.5
 20
58.55
 11
-42.4411
 21
58.5488
  0
LINE
  8
0
 10
-42.4411
 20
58.5488
 11
-42.3823
 21
58.5454
  0
LINE
  8
0
 10
-42.3823
 20
58.5454
 11
-42.3237
 21
58.5396
  0
LINE
  8
0
 10
-42.3237
 20
58.5396
 11
-42.2653
 21
58.5315
  0
LINE
  8
0
 10
-42.2653
 20
58.5315
 11
-42.2074
 21
58.5212
  0
LINE
  8
0
 10
-42.2074
 20
58.5212
 11
-42.1498
 21
58.5085
  0
LINE
  8
0
 10
-42.1498
 20
58.5085
 11
-42.0928
 21
58.4937
  0
LINE
  8
0
 10
-42.0928
 20
58.4937
 11
-42.0365
 21
58.4766
  0
LINE
  8
0
 10
-42.0365
 20
58.4766
 11
-41.9808
 21
58.4573
  0
LINE
  8
0
 10
-41.9808
 20
58.4573
 11
-41.926
 21
58.4358
  0
LINE
  8
0
 10
-41.926
 20
58.4358
 11
-41.872
 21
58.4122
  0
LINE
  8
0
 10
-41.872
 20
58.4122
 11
-41.819
 21
58.3865
  0
LINE
  8
0
 10
-41.819
 20
58.3865
 11
-41.7671
 21
58.3587
  0
LINE
  8
0
 10
-41.7671
 20
58.3587
 11
-41.7162
 21
58.3289
  0
LINE
  8
0
 10
-41.7162
 20
58.3289
 11
-41.6666
 21
58.2972
  0
LINE
  8
0
 10
-41.6666
 20
58.2972
 11
-41.6183
 21
58.2635
  0
LINE
  8
0
 10
-41.6183
 20
58.2635
 11
-41.5714
 21
58.228
  0
LINE
  8
0
 10
-41.5714
 20
58.228
 11
-41.5258
 21
58.1906
  0
LINE
  8
0
 10
-41.5258
 20
58.1906
 11
-41.4818
 21
58.1515
  0
LINE
  8
0
 10
-41.4818
 20
58.1515
 11
-41.4393
 21
58.1107
  0
LINE
  8
0
 10
-41.4393
 20
58.1107
 11
-41.3985
 21
58.0682
  0
LINE
  8
0
 10
-41.3985
 20
58.0682
 11
-41.3594
 21
58.0242
  0
LINE
  8
0
 10
-41.3594
 20
58.0242
 11
-41.322
 21
57.9786
  0
LINE
  8
0
 10
-41.322
 20
57.9786
 11
-41.2865
 21
57.9317
  0
LINE
  8
0
 10
-41.2865
 20
57.9317
 11
-41.2528
 21
57.8833
  0
LINE
  8
0
 10
-41.2528
 20
57.8833
 11
-41.221
 21
57.8337
  0
LINE
  8
0
 10
-41.221
 20
57.8337
 11
-41.1913
 21
57.7829
  0
LINE
  8
0
 10
-41.1913
 20
57.7829
 11
-41.1635
 21
57.731
  0
LINE
  8
0
 10
-41.1635
 20
57.731
 11
-41.1378
 21
57.678
  0
LINE
  8
0
 10
-41.1378
 20
57.678
 11
-41.1142
 21
57.624
  0
LINE
  8
0
 10
-41.1142
 20
57.624
 11
-41.0927
 21
57.5692
  0
LINE
  8
0
 10
-41.0927
 20
57.5692
 11
-41.0734
 21
57.5135
  0
LINE
  8
0
 10
-41.0734
 20
57.5135
 11
-41.0563
 21
57.4572
  0
LINE
  8
0
 10
-41.0563
 20
57.4572
 11
-41.0414
 21
57.4002
  0
LINE
  8
0
 10
-41.0414
 20
57.4002
 11
-41.0288
 21
57.3426
  0
LINE
  8
0
 10
-41.0288
 20
57.3426
 11
-41.0185
 21
57.2846
  0
LINE
  8
0
 10
-41.0185
 20
57.2846
 11
-41.0104
 21
57.2263
  0
LINE
  8
0
 10
-41.0104
 20
57.2263
 11
-41.0046
 21
57.1677
  0
LINE
  8
0
 10
-41.0046
 20
57.1677
 11
-41.0011
 21
57.1089
  0
LINE
  8
0
 10
-41.0011
 20
57.1089
 11
-41
 21
57.05
  0
LINE
  8
0
 10
-41
 20
57.05
 11
-41
 21
37.05
  0
LINE
  8
0
 10
-41
 20
37.05
 11
-41.0011
 21
36.9911
  0
LINE
  8
0
 10
-41.0011
 20
36.9911
 11
-41.0046
 21
36.9323
  0
LINE
  8
0
 10
-41.0046
 20
36.9323
 11
-41.0104
 21
36.8737
  0
LINE
  8
0
 10
-41.0104
 20
36.8737
 11
-41.0185
 21
36.8153
  0
LINE
  8
0
 10
-41.0185
 20
36.8153
 11
-41.0288
 21
36.7574
  0
LINE
  8
0
 10
-41.0288
 20
36.7574
 11
-41.0414
 21
36.6998
  0
LINE
  8
0
 10
-41.0414
 20
36.6998
 11
-41.0563
 21
36.6428
  0
LINE
  8
0
 10
-41.0563
 20
36.6428
 11
-41.0734
 21
36.5865
  0
LINE
  8
0
 10
-41.0734
 20
36.5865
 11
-41.0927
 21
36.5308
  0
LINE
  8
0
 10
-41.0927
 20
36.5308
 11
-41.1142
 21
36.476
  0
LINE
  8
0
 10
-41.1142
 20
36.476
 11
-41.1378
 21
36.422
  0
LINE
  8
0
 10
-41.1378
 20
36.422
 11
-41.1635
 21
36.369
  0
LINE
  8
0
 10
-41.1635
 20
36.369
 11
-41.1913
 21
36.3171
  0
LINE
  8
0
 10
-41.1913
 20
36.3171
 11
-41.221
 21
36.2663
  0
LINE
  8
0
 10
-41.221
 20
36.2663
 11
-41.2528
 21
36.2166
  0
LINE
  8
0
 10
-41.2528
 20
36.2166
 11
-41.2865
 21
36.1683
  0
LINE
  8
0
 10
-41.2865
 20
36.1683
 11
-41.322
 21
36.1214
  0
LINE
  8
0
 10
-41.322
 20
36.1214
 11
-41.3594
 21
36.0758
  0
LINE
  8
0
 10
-41.3594
 20
36.0758
 11
-41.3985
 21
36.0318
  0
LINE
  8
0
 10
-41.3985
 20
36.0318
 11
-41.4393
 21
35.9893
  0
LINE
  8
0
 10
-41.4393
 20
35.9893
 11
-41.4818
 21
35.9485
  0
LINE
  8
0
 10
-41.4818
 20
35.9485
 11
-41.5258
 21
35.9094
  0
LINE
  8
0
 10
-41.5258
 20
35.9094
 11
-41.5714
 21
35.872
  0
LINE
  8
0
 10
-41.5714
 20
35.872
 11
-41.6183
 21
35.8365
  0
LINE
  8
0
 10
-41.6183
 20
35.8365
 11
-41.6666
 21
35.8028
  0
LINE
  8
0
 10
-41.6666
 20
35.8028
 11
-41.7162
 21
35.771
  0
LINE
  8
0
 10
-41.7162
 20
35.771
 11
-41.7671
 21
35.7412
  0
LINE
  8
0
 10
-41.7671
 20
35.7412
 11
-41.819
 21
35.7135
  0
LINE
  8
0
 10
-41.819
 20
35.7135
 11
-41.872
 21
35.6878
  0
LINE
  8
0
 10
-41.872
 20
35.6878
 11
-41.926
 21
35.6642
  0
LINE
  8
0
 10
-41.926
 20
35.6642
 11
-41.9808
 21
35.6427
  0
LINE
  8
0
 10
-41.9808
 20
35.6427
 11
-42.0365
 21
35.6234
  0
LINE
  8
0
 10
-42.0365
 20
35.6234
 11
-42.0928
 21
35.6063
  0
LINE
  8
0
 10
-42.0928
 20
35.6063
 11
-42.1498
 21
35.5914
  0
LINE
  8
0
 10
-42.1498
 20
35.5914
 11
-42.2074
 21
35.5788
  0
LINE
  8
0
 10
-42.2074
 20
35.5788
 11
-42.2653
 21
35.5685
  0
LINE
  8
0
 10
-42.2653
 20
35.5685
 11
-42.3237
 21
35.5604
  0
LINE
  8
0
 10
-42.3237
 20
35.5604
 11
-42.3823
 21
35.5546
  0
LINE
  8
0
 10
-42.3823
 20
35.5546
 11
-42.4411
 21
35.5511
  0
LINE
  8
0
 10
-42.4411
 20
35.5511
 11
-42.5
 21
35.55
  0
LINE
  8
0
 10
-42.5
 20
35.55
 11
-42.5589
 21
35.5511
  0
LINE
  8
0
 10
42.4411
 20
35.5511
 11
42.3823
 21
35.5546
  0
LINE
  8
0
 10
42.3823
 20
35.5546
 11
42.3237
 21
35.5604
  0
LINE
  8
0
 10
42.3237
 20
35.5604
 11
42.2653
 21
35.5685
  0
LINE
  8
0
 10
42.2653
 20
35.5685
 11
42.2074
 21
35.5788
  0
LINE
  8
0
 10
42.2074
 20
35.5788
 11
42.1498
 21
35.5914
  0
LINE
  8
0
 10
42.1498
 20
35.5914
 11
42.0928
 21
35.6063
  0
LINE
  8
0
 10
42.0928
 20
35.6063
 11
42.0365
 21
35.6234
  0
LINE
  8
0
 10
42.0365
 20
35.6234
 11
41.9808
 21
35.6427
  0
LINE
  8
0
 10
41.9808
 20
35.6427
 11
41.926
 21
35.6642
  0
LINE
  8
0
 10
41.926
 20
35.6642
 11
41.872
 21
35.6878
  0
LINE
  8
0
 10
41.872
 20
35.6878
 11
41.819
 21
35.7135
  0
LINE
  8
0
 10
41.819
 20
35.7135
 11
41.7671
 21
35.7412
  0
LINE
  8
0
 10
41.7671
 20
35.7412
 11
41.7162
 21
35.771
  0
LINE
  8
0
 10
41.7162
 20
35.771
 11
41.6666
 21
35.8028
  0
LINE
  8
0
 10
41.6666
 20
35.8028
 11
41.6183
 21
35.8365
  0
LINE
  8
0
 10
41.6183
 20
35.8365
 11
41.5714
 21
35.872
  0
LINE
  8
0
 10
41.5714
 20
35.872
 11
41.5258
 21
35.9094
  0
LINE
  8
0
 10
41.5258
 20
35.9094
 11
41.4818
 21
35.9485
  0
LINE
  8
0
 10
41.4818
 20
35.9485
 11
41.4393
 21
35.9893
  0
LINE
  8
0
 10
41.4393
 20
35.9893
 11
41.3985
 21
36.0318
  0
LINE
  8
0
 10
41.3985
 20
36.0318
 11
41.3594
 21
36.0758
  0
LINE
  8
0
 10
41.3594
 20
36.0758
 11
41.322
 21
36.1214
  0
LINE
  8
0
 10
41.322
 20
36.1214
 11
41.2865
 21
36.1683
  0
LINE
  8
0
 10
41.2865
 20
36.1683
 11
41.2528
 21
36.2166
  0
LINE
  8
0
 10
41.2528
 20
36.2166
 11
41.221
 21
36.2663
  0
LINE
  8
0
 10
41.221
 20
36.2663
 11
41.1913
 21
36.3171
  0
LINE
  8
0
 10
41.1913
 20
36.3171
 11
41.1635
 21
36.369
  0
LINE
  8
0
 10
41.1635
 20
36.369
 11
41.1378
 21
36.422
  0
LINE
  8
0
 10
41.1378
 20
36.422
 11
41.1142
 21
36.476
  0
LINE
  8
0
 10
41.1142
 20
36.476
 11
41.0927
 21
36.5308
  0
LINE
  8
0
 10
41.0927
 20
36.5308
 11
41.0734
 21
36.5865
  0
LINE
  8
0
 10
41.0734
 20
36.5865
 11
41.0563
 21
36.6428
  0
LINE
  8
0
 10
41.0563
 20
36.6428
 11
41.0414
 21
36.6998
  0
LINE
  8
0
 10
41.0414
 20
36.6998
 11
41.0288
 21
36.7574
  0
LINE
  8
0
 10
41.0288
 20
36.7574
 11
41.0185
 21
36.8153
  0
LINE
  8
0
 10
41.0185
 20
36.8153
 11
41.0104
 21
36.8737
  0
LINE
  8
0
 10
41.0104
 20
36.8737
 11
41.0046
 21
36.9323
  0
LINE
  8
0
 10
41.0046
 20
36.9323
 11
41.0011
 21
36.9911
  0
LINE
  8
0
 10
41.0011
 20
36.9911
 11
41
 21
37.05
  0
LINE
  8
0
 10
41
 20
37.05
 11
41
 21
57.05
  0
LINE
  8
0
 10
41
 20
57.05
 11
41.0011
 21
57.1089
  0
LINE
  8
0
 10
41.0011
 20
57.1089
 11
41.0046
 21
57.1677
  0
LINE
  8
0
 10
41.0046
 20
57.1677
 11
41.0104
 21
57.2263
  0
LINE
  8
0
 10
41.0104
 20
57.2263
 11
41.0185
 21
57.2846
  0
LINE
  8
0
 10
41.0185
 20
57.2846
 11
41.0288
 21
57.3426
  0
LINE
  8
0
 10
41.0288
 20
57.3426
 11
41.0414
 21
57.4002
  0
LINE
  8
0
 10
41.0414
 20
57.4002
 11
41.0563
 21
57.4572
  0
LINE
  8
0
 10
41.0563
 20
57.4572
 11
41.0734
 21
57.5135
  0
LINE
  8
0
 10
41.0734
 20
57.5135
 11
41.0927
 21
57.5692
  0
LINE
  8
0
 10
41.0927
 20
57.5692
 11
41.1142
 21
57.624
  0
LINE
  8
0
 10
41.1142
 20
57.624
 11
41.1378
 21
57.678
  0
LINE
  8
0
 10
41.1378
 20
57.678
 11
41.1635
 21
57.731
  0
LINE
  8
0
 10
41.1635
 20
57.731
 11
41.1913
 21
57.7829
  0
LINE
  8
0
 10
41.1913
 20
57.7829
 11
41.221
 21
57.8337
  0
LINE
  8
0
 10
41.221
 20
57.8337
 11
41.2528
 21
57.8833
  0
LINE
  8
0
 10
41.2528
 20
57.8833
 11
41.2865
 21
57.9317
  0
LINE
  8
0
 10
41.2865
 20
57.9317
 11
41.322
 21
57.9786
  0
LINE
  8
0
 10
41.322
 20
57.9786
 11
41.3594
 21
58.0242
  0
LINE
  8
0
 10
41.3594
 20
58.0242
 11
41.3985
 21
58.0682
  0
LINE
  8
0
 10
41.3985
 20
58.0682
 11
41.4393
 21
58.1107
  0
LINE
  8
0
 10
41.4393
 20
58.1107
 11
41.4818
 21
58.1515
  0
LINE
  8
0
 10
41.4818
 20
58.1515
 11
41.5258
 21
58.1906
  0
LINE
  8
0
 10
41.5258
 20
58.1906
 11
41.5714
 21
58.228
  0
LINE
  8
0
 10
41.5714
 20
58.228
 11
41.6183
 21
58.2635
  0
LINE
  8
0
 10
41.6183
 20
58.2635
 11
41.6666
 21
58.2972
  0
LINE
  8
0
 10
41.6666
 20
58.2972
 11
41.7162
 21
58.3289
  0
LINE
  8
0
 10
41.7162
 20
58.3289
 11
41.7671
 21
58.3587
  0
LINE
  8
0
 10
41.7671
 20
58.3587
 11
41.819
 21
58.3865
  0
LINE
  8
0
 10
41.819
 20
58.3865
 11
41.872
 21
58.4122
  0
LINE
  8
0
 10
41.872
 20
58.4122
 11
41.926
 21
58.4358
  0
LINE
  8
0
 10
41.926
 20
58.4358
 11
41.9808
 21
58.4573
  0
LINE
  8
0
 10
41.9808
 20
58.4573
 11
42.0365
 21
58.4766
  0
LINE
  8
0
 10
42.0365
 20
58.4766
 11
42.0928
 21
58.4937
  0
LINE
  8
0
 10
42.0928
 20
58.4937
 11
42.1498
 21
58.5085
  0
LINE
  8
0
 10
42.1498
 20
58.5085
 11
42.2074
 21
58.5212
  0
LINE
  8
0
 10
42.2074
 20
58.5212
 11
42.2653
 21
58.5315
  0
LINE
  8
0
 10
42.2653
 20
58.5315
 11
42.3237
 21
58.5396
  0
LINE
  8
0
 10
42.3237
 20
58.5396
 11
42.3823
 21
58.5454
  0
LINE
  8
0
 10
42.3823
 20
58.5454
 11
42.4411
 21
58.5488
  0
LINE
  8
0
 10
42.4411
 20
58.5488
 11
42.5
 21
58.55
  0
LINE
  8
0
 10
42.5
 20
58.55
 11
42.5589
 21
58.5488
  0
LINE
  8
0
 10
42.5589
 20
58.5488
 11
42.6177
 21
58.5454
  0
LINE
  8
0
 10
42.6177
 20
58.5454
 11
42.6763
 21
58.5396
  0
LINE
  8
0
 10
42.6763
 20
58.5396
 11
42.7346
 21
58.5315
  0
LINE
  8
0
 10
42.7346
 20
58.5315
 11
42.7926
 21
58.5212
  0
LINE
  8
0
 10
42.7926
 20
58.5212
 11
42.8502
 21
58.5085
  0
LINE
  8
0
 10
42.8502
 20
58.5085
 11
42.9072
 21
58.4937
  0
LINE
  8
0
 10
42.9072
 20
58.4937
 11
42.9635
 21
58.4766
  0
LINE
  8
0
 10
42.9635
 20
58.4766
 11
43.0192
 21
58.4573
  0
LINE
  8
0
 10
43.0192
 20
58.4573
 11
43.074
 21
58.4358
  0
LINE
  8
0
 10
43.074
 20
58.4358
 11
43.128
 21
58.4122
  0
LINE
  8
0
 10
43.128
 20
58.4122
 11
43.181
 21
58.3865
  0
LINE
  8
0
 10
43.181
 20
58.3865
 11
43.2329
 21
58.3587
  0
LINE
  8
0
 10
43.2329
 20
58.3587
 11
43.2837
 21
58.3289
  0
LINE
  8
0
 10
43.2837
 20
58.3289
 11
43.3333
 21
58.2972
  0
LINE
  8
0
 10
43.3333
 20
58.2972
 11
43.3817
 21
58.2635
  0
LINE
  8
0
 10
43.3817
 20
58.2635
 11
43.4286
 21
58.228
  0
LINE
  8
0
 10
43.4286
 20
58.228
 11
43.4742
 21
58.1906
  0
LINE
  8
0
 10
43.4742
 20
58.1906
 11
43.5182
 21
58.1515
  0
LINE
  8
0
 10
43.5182
 20
58.1515
 11
43.5607
 21
58.1107
  0
LINE
  8
0
 10
43.5607
 20
58.1107
 11
43.6015
 21
58.0682
  0
LINE
  8
0
 10
43.6015
 20
58.0682
 11
43.6406
 21
58.0242
  0
LINE
  8
0
 10
43.6406
 20
58.0242
 11
43.678
 21
57.9786
  0
LINE
  8
0
 10
43.678
 20
57.9786
 11
43.7135
 21
57.9317
  0
LINE
  8
0
 10
43.7135
 20
57.9317
 11
43.7472
 21
57.8833
  0
LINE
  8
0
 10
43.7472
 20
57.8833
 11
43.7789
 21
57.8337
  0
LINE
  8
0
 10
43.7789
 20
57.8337
 11
43.8087
 21
57.7829
  0
LINE
  8
0
 10
43.8087
 20
57.7829
 11
43.8365
 21
57.731
  0
LINE
  8
0
 10
43.8365
 20
57.731
 11
43.8622
 21
57.678
  0
LINE
  8
0
 10
43.8622
 20
57.678
 11
43.8858
 21
57.624
  0
LINE
  8
0
 10
43.8858
 20
57.624
 11
43.9073
 21
57.5692
  0
LINE
  8
0
 10
43.9073
 20
57.5692
 11
43.9266
 21
57.5135
  0
LINE
  8
0
 10
43.9266
 20
57.5135
 11
43.9437
 21
57.4572
  0
LINE
  8
0
 10
43.9437
 20
57.4572
 11
43.9585
 21
57.4002
  0
LINE
  8
0
 10
43.9585
 20
57.4002
 11
43.9712
 21
57.3426
  0
LINE
  8
0
 10
43.9712
 20
57.3426
 11
43.9815
 21
57.2846
  0
LINE
  8
0
 10
43.9815
 20
57.2846
 11
43.9896
 21
57.2263
  0
LINE
  8
0
 10
43.9896
 20
57.2263
 11
43.9954
 21
57.1677
  0
LINE
  8
0
 10
43.9954
 20
57.1677
 11
43.9988
 21
57.1089
  0
LINE
  8
0
 10
43.9988
 20
57.1089
 11
44
 21
57.05
  0
LINE
  8
0
 10
44
 20
57.05
 11
44
 21
37.05
  0
LINE
  8
0
 10
44
 20
37.05
 11
43.9988
 21
36.9911
  0
LINE
  8
0
 10
43.9988
 20
36.9911
 11
43.9954
 21
36.9323
  0
LINE
  8
0
 10
43.9954
 20
36.9323
 11
43.9896
 21
36.8737
  0
LINE
  8
0
 10
43.9896
 20
36.8737
 11
43.9815
 21
36.8153
  0
LINE
  8
0
 10
43.9815
 20
36.8153
 11
43.9712
 21
36.7574
  0
LINE
  8
0
 10
43.9712
 20
36.7574
 11
43.9585
 21
36.6998
  0
LINE
  8
0
 10
43.9585
 20
36.6998
 11
43.9437
 21
36.6428
  0
LINE
  8
0
 10
43.9437
 20
36.6428
 11
43.9266
 21
36.5865
  0
LINE
  8
0
 10
43.9266
 20
36.5865
 11
43.9073
 21
36.5308
  0
LINE
  8
0
 10
43.9073
 20
36.5308
 11
43.8858
 21
36.476
  0
LINE
  8
0
 10
43.8858
 20
36.476
 11
43.8622
 21
36.422
  0
LINE
  8
0
 10
43.8622
 20
36.422
 11
43.8365
 21
36.369
  0
LINE
  8
0
 10
43.8365
 20
36.369
 11
43.8087
 21
36.3171
  0
LINE
  8
0
 10
43.8087
 20
36.3171
 11
43.7789
 21
36.2663
  0
LINE
  8
0
 10
43.7789
 20
36.2663
 11
43.7472
 21
36.2166
  0
LINE
  8
0
 10
43.7472
 20
36.2166
 11
43.7135
 21
36.1683
  0
LINE
  8
0
 10
43.7135
 20
36.1683
 11
43.678
 21
36.1214
  0
LINE
  8
0
 10
43.678
 20
36.1214
 11
43.6406
 21
36.0758
  0
LINE
  8
0
 10
43.6406
 20
36.0758
 11
43.6015
 21
36.0318
  0
LINE
  8
0
 10
43.6015
 20
36.0318
 11
43.5607
 21
35.9893
  0
LINE
  8
0
 10
43.5607
 20
35.9893
 11
43.5182
 21
35.9485
  0
LINE
  8
0
 10
43.5182
 20
35.9485
 11
43.4742
 21
35.9094
  0
LINE
  8
0
 10
43.4742
 20
35.9094
 11
43.4286
 21
35.872
  0
LINE
  8
0
 10
43.4286
 20
35.872
 11
43.3817
 21
35.8365
  0
LINE
  8
0
 10
43.3817
 20
35.8365
 11
43.3333
 21
35.8028
  0
LINE
  8
0
 10
43.3333
 20
35.8028
 11
43.2837
 21
35.771
  0
LINE
  8
0
 10
43.2837
 20
35.771
 11
43.2329
 21
35.7412
  0
LINE
  8
0
 10
43.2329
 20
35.7412
 11
43.181
 21
35.7135
  0
LINE
  8
0
 10
43.181
 20
35.7135
 11
43.128
 21
35.6878
  0
LINE
  8
0
 10
43.128
 20
35.6878
 11
43.074
 21
35.6642
  0
LINE
  8
0
 10
43.074
 20
35.6642
 11
43.0192
 21
35.6427
  0
LINE
  8
0
 10
43.0192
 20
35.6427
 11
42.9635
 21
35.6234
  0
LINE
  8
0
 10
42.9635
 20
35.6234
 11
42.9072
 21
35.6063
  0
LINE
  8
0
 10
42.9072
 20
35.6063
 11
42.8502
 21
35.5914
  0
LINE
  8
0
 10
42.8502
 20
35.5914
 11
42.7926
 21
35.5788
  0
LINE
  8
0
 10
42.7926
 20
35.5788
 11
42.7346
 21
35.5685
  0
LINE
  8
0
 10
42.7346
 20
35.5685
 11
42.6763
 21
35.5604
  0
LINE
  8
0
 10
42.6763
 20
35.5604
 11
42.6177
 21
35.5546
  0
LINE
  8
0
 10
42.6177
 20
35.5546
 11
42.5589
 21
35.5511
  0
LINE
  8
0
 10
42.5589
 20
35.5511
 11
42.5
 21
35.55
  0
LINE
  8
0
 10
42.5
 20
35.55
 11
42.4411
 21
35.5511
  0
LINE
  8
0
 10
-22.0659
 20
24.0459
 11
-22.3253
 21
24.1082
  0
LINE
  8
0
 10
-22.3253
 20
24.1082
 11
-22.5718
 21
24.2103
  0
LINE
  8
0
 10
-22.5718
 20
24.2103
 11
-22.7992
 21
24.3497
  0
LINE
  8
0
 10
-22.7992
 20
24.3497
 11
-23.0021
 21
24.5229
  0
LINE
  8
0
 10
-23.0021
 20
24.5229
 11
-23.1753
 21
24.7258
  0
LINE
  8
0
 10
-23.1753
 20
24.7258
 11
-23.3147
 21
24.9532
  0
LINE
  8
0
 10
-23.3147
 20
24.9532
 11
-23.4168
 21
25.1997
  0
LINE
  8
0
 10
-23.4168
 20
25.1997
 11
-23.4791
 21
25.4591
  0
LINE
  8
0
 10
-23.4791
 20
25.4591
 11
-23.5
 21
25.725
  0
LINE
  8
0
 10
-23.5
 20
25.725
 11
-23.4791
 21
25.991
  0
LINE
  8
0
 10
-23.4791
 20
25.991
 11
-23.4168
 21
26.2503
  0
LINE
  8
0
 10
-23.4168
 20
26.2503
 11
-23.3147
 21
26.4968
  0
LINE
  8
0
 10
-23.3147
 20
26.4968
 11
-23.1753
 21
26.7242
  0
LINE
  8
0
 10
-23.1753
 20
26.7242
 11
-23.0021
 21
26.9271
  0
LINE
  8
0
 10
-23.0021
 20
26.9271
 11
-22.7992
 21
27.1003
  0
LINE
  8
0
 10
-22.7992
 20
27.1003
 11
-22.5718
 21
27.2397
  0
LINE
  8
0
 10
-22.5718
 20
27.2397
 11
-22.3253
 21
27.3418
  0
LINE
  8
0
 10
-22.3253
 20
27.3418
 11
-22.0659
 21
27.4041
  0
LINE
  8
0
 10
-22.0659
 20
27.4041
 11
-21.8
 21
27.425
  0
LINE
  8
0
 10
-21.8
 20
27.425
 11
-21.5341
 21
27.4041
  0
LINE
  8
0
 10
-21.5341
 20
27.4041
 11
-21.2747
 21
27.3418
  0
LINE
  8
0
 10
-21.2747
 20
27.3418
 11
-21.0282
 21
27.2397
  0
LINE
  8
0
 10
-21.0282
 20
27.2397
 11
-20.8008
 21
27.1003
  0
LINE
  8
0
 10
-20.8008
 20
27.1003
 11
-20.5979
 21
26.9271
  0
LINE
  8
0
 10
-20.5979
 20
26.9271
 11
-20.4247
 21
26.7242
  0
LINE
  8
0
 10
-20.4247
 20
26.7242
 11
-20.2853
 21
26.4968
  0
LINE
  8
0
 10
-20.2853
 20
26.4968
 11
-20.1832
 21
26.2503
  0
LINE
  8
0
 10
-20.1832
 20
26.2503
 11
-20.1209
 21
25.991
  0
LINE
  8
0
 10
-20.1209
 20
25.991
 11
-20.1
 21
25.725
  0
LINE
  8
0
 10
-20.1
 20
25.725
 11
-20.1209
 21
25.4591
  0
LINE
  8
0
 10
-20.1209
 20
25.4591
 11
-20.1832
 21
25.1997
  0
LINE
  8
0
 10
-20.1832
 20
25.1997
 11
-20.2853
 21
24.9532
  0
LINE
  8
0
 10
-20.2853
 20
24.9532
 11
-20.4247
 21
24.7258
  0
LINE
  8
0
 10
-20.4247
 20
24.7258
 11
-20.5979
 21
24.5229
  0
LINE
  8
0
 10
-20.5979
 20
24.5229
 11
-20.8008
 21
24.3497
  0
LINE
  8
0
 10
-20.8008
 20
24.3497
 11
-21.0282
 21
24.2103
  0
LINE
  8
0
 10
-21.0282
 20
24.2103
 11
-21.2747
 21
24.1082
  0
LINE
  8
0
 10
-21.2747
 20
24.1082
 11
-21.5341
 21
24.0459
  0
LINE
  8
0
 10
-21.5341
 20
24.0459
 11
-21.8
 21
24.025
  0
LINE
  8
0
 10
-21.8
 20
24.025
 11
-22.0659
 21
24.0459
  0
LINE
  8
0
 10
21.5341
 20
24.0459
 11
21.2747
 21
24.1082
  0
LINE
  8
0
 10
21.2747
 20
24.1082
 11
21.0282
 21
24.2103
  0
LINE
  8
0
 10
21.0282
 20
24.2103
 11
20.8008
 21
24.3497
  0
LINE
  8
0
 10
20.8008
 20
24.3497
 11
20.5979
 21
24.5229
  0
LINE
  8
0
 10
20.5979
 20
24.5229
 11
20.4247
 21
24.7258
  0
LINE
  8
0
 10
20.4247
 20
24.7258
 11
20.2853
 21
24.9532
  0
LINE
  8
0
 10
20.2853
 20
24.9532
 11
20.1832
 21
25.1997
  0
LINE
  8
0
 10
20.1832
 20
25.1997
 11
20.1209
 21
25.4591
  0
LINE
  8
0
 10
20.1209
 20
25.4591
 11
20.1
 21
25.725
  0
LINE
  8
0
 10
20.1
 20
25.725
 11
20.1209
 21
25.991
  0
LINE
  8
0
 10
20.1209
 20
25.991
 11
20.1832
 21
26.2503
  0
LINE
  8
0
 10
20.1832
 20
26.2503
 11
20.2853
 21
26.4968
  0
LINE
  8
0
 10
20.2853
 20
26.4968
 11
20.4247
 21
26.7242
  0
LINE
  8
0
 10
20.4247
 20
26.7242
 11
20.5979
 21
26.9271
  0
LINE
  8
0
 10
20.5979
 20
26.9271
 11
20.8008
 21
27.1003
  0
LINE
  8
0
 10
20.8008
 20
27.1003
 11
21.0282
 21
27.2397
  0
LINE
  8
0
 10
21.0282
 20
27.2397
 11
21.2747
 21
27.3418
  0
LINE
  8
0
 10
21.2747
 20
27.3418
 11
21.5341
 21
27.4041
  0
LINE
  8
0
 10
21.5341
 20
27.4041
 11
21.8
 21
27.425
  0
LINE
  8
0
 10
21.8
 20
27.425
 11
22.0659
 21
27.4041
  0
LINE
  8
0
 10
22.0659
 20
27.4041
 11
22.3253
 21
27.3418
  0
LINE
  8
0
 10
22.3253
 20
27.3418
 11
22.5718
 21
27.2397
  0
LINE
  8
0
 10
22.5718
 20
27.2397
 11
22.7992
 21
27.1003
  0
LINE
  8
0
 10
22.7992
 20
27.1003
 11
23.0021
 21
26.9271
  0
LINE
  8
0
 10
23.0021
 20
26.9271
 11
23.1753
 21
26.7242
  0
LINE
  8
0
 10
23.1753
 20
26.7242
 11
23.3147
 21
26.4968
  0
LINE
  8
0
 10
23.3147
 20
26.4968
 11
23.4168
 21
26.2503
  0
LINE
  8
0
 10
23.4168
 20
26.2503
 11
23.4791
 21
25.991
  0
LINE
  8
0
 10
23.4791
 20
25.991
 11
23.5
 21
25.725
  0
LINE
  8
0
 10
23.5
 20
25.725
 11
23.4791
 21
25.4591
  0
LINE
  8
0
 10
23.4791
 20
25.4591
 11
23.4168
 21
25.1997
  0
LINE
  8
0
 10
23.4168
 20
25.1997
 11
23.3147
 21
24.9532
  0
LINE
  8
0
 10
23.3147
 20
24.9532
 11
23.1753
 21
24.7258
  0
LINE
  8
0
 10
23.1753
 20
24.7258
 11
23.0021
 21
24.5229
  0
LINE
  8
0
 10
23.0021
 20
24.5229
 11
22.7992
 21
24.3497
  0
LINE
  8
0
 10
22.7992
 20
24.3497
 11
22.5718
 21
24.2103
  0
LINE
  8
0
 10
22.5718
 20
24.2103
 11
22.3253
 21
24.1082
  0
LINE
  8
0
 10
22.3253
 20
24.1082
 11
22.0659
 21
24.0459
  0
LINE
  8
0
 10
22.0659
 20
24.0459
 11
21.8
 21
24.025
  0
LINE
  8
0
 10
21.8
 20
24.025
 11
21.5341
 21
24.0459
  0
LINE
  8
0
 10
52.5198
 20
17.8123
 11
52.3672
 21
17.849
  0
LINE
  8
0
 10
52.3672
 20
17.849
 11
52.2222
 21
17.909
  0
LINE
  8
0
 10
52.2222
 20
17.909
 11
52.0884
 21
17.991
  0
LINE
  8
0
 10
52.0884
 20
17.991
 11
51.9691
 21
18.0929
  0
LINE
  8
0
 10
51.9691
 20
18.0929
 11
51.8672
 21
18.2122
  0
LINE
  8
0
 10
51.8672
 20
18.2122
 11
51.7852
 21
18.346
  0
LINE
  8
0
 10
51.7852
 20
18.346
 11
51.7251
 21
18.491
  0
LINE
  8
0
 10
51.7251
 20
18.491
 11
51.6885
 21
18.6436
  0
LINE
  8
0
 10
51.6885
 20
18.6436
 11
51.6762
 21
18.8
  0
LINE
  8
0
 10
51.6762
 20
18.8
 11
35.55
 21
18.8
  0
LINE
  8
0
 10
35.55
 20
18.8
 11
35.5377
 21
18.6436
  0
LINE
  8
0
 10
35.5377
 20
18.6436
 11
35.5011
 21
18.491
  0
LINE
  8
0
 10
35.5011
 20
18.491
 11
35.441
 21
18.346
  0
LINE
  8
0
 10
35.441
 20
18.346
 11
35.359
 21
18.2122
  0
LINE
  8
0
 10
35.359
 20
18.2122
 11
35.2571
 21
18.0929
  0
LINE
  8
0
 10
35.2571
 20
18.0929
 11
35.1378
 21
17.991
  0
LINE
  8
0
 10
35.1378
 20
17.991
 11
35.004
 21
17.909
  0
LINE
  8
0
 10
35.004
 20
17.909
 11
34.859
 21
17.849
  0
LINE
  8
0
 10
34.859
 20
17.849
 11
34.7064
 21
17.8123
  0
LINE
  8
0
 10
34.7064
 20
17.8123
 11
34.55
 21
17.8
  0
LINE
  8
0
 10
34.55
 20
17.8
 11
34.3936
 21
17.8123
  0
LINE
  8
0
 10
34.3936
 20
17.8123
 11
34.241
 21
17.849
  0
LINE
  8
0
 10
34.241
 20
17.849
 11
34.096
 21
17.909
  0
LINE
  8
0
 10
34.096
 20
17.909
 11
33.9622
 21
17.991
  0
LINE
  8
0
 10
33.9622
 20
17.991
 11
33.8429
 21
18.0929
  0
LINE
  8
0
 10
33.8429
 20
18.0929
 11
33.741
 21
18.2122
  0
LINE
  8
0
 10
33.741
 20
18.2122
 11
33.659
 21
18.346
  0
LINE
  8
0
 10
33.659
 20
18.346
 11
33.5989
 21
18.491
  0
LINE
  8
0
 10
33.5989
 20
18.491
 11
33.5623
 21
18.6436
  0
LINE
  8
0
 10
33.5623
 20
18.6436
 11
33.55
 21
18.8
  0
LINE
  8
0
 10
33.55
 20
18.8
 11
33.55
 21
22
  0
LINE
  8
0
 10
33.55
 20
22
 11
33.5623
 21
22.1564
  0
LINE
  8
0
 10
33.5623
 20
22.1564
 11
33.5989
 21
22.309
  0
LINE
  8
0
 10
33.5989
 20
22.309
 11
33.659
 21
22.454
  0
LINE
  8
0
 10
33.659
 20
22.454
 11
33.741
 21
22.5878
  0
LINE
  8
0
 10
33.741
 20
22.5878
 11
33.8429
 21
22.7071
  0
LINE
  8
0
 10
33.8429
 20
22.7071
 11
33.9622
 21
22.809
  0
LINE
  8
0
 10
33.9622
 20
22.809
 11
34.096
 21
22.891
  0
LINE
  8
0
 10
34.096
 20
22.891
 11
34.241
 21
22.951
  0
LINE
  8
0
 10
34.241
 20
22.951
 11
34.3936
 21
22.9877
  0
LINE
  8
0
 10
34.3936
 20
22.9877
 11
34.55
 21
23
  0
LINE
  8
0
 10
34.55
 20
23
 11
34.7064
 21
22.9877
  0
LINE
  8
0
 10
34.7064
 20
22.9877
 11
34.859
 21
22.951
  0
LINE
  8
0
 10
34.859
 20
22.951
 11
35.004
 21
22.891
  0
LINE
  8
0
 10
35.004
 20
22.891
 11
35.1378
 21
22.809
  0
LINE
  8
0
 10
35.1378
 20
22.809
 11
35.2571
 21
22.7071
  0
LINE
  8
0
 10
35.2571
 20
22.7071
 11
35.359
 21
22.5878
  0
LINE
  8
0
 10
35.359
 20
22.5878
 11
35.441
 21
22.454
  0
LINE
  8
0
 10
35.441
 20
22.454
 11
35.5011
 21
22.309
  0
LINE
  8
0
 10
35.5011
 20
22.309
 11
35.5377
 21
22.1564
  0
LINE
  8
0
 10
35.5377
 20
22.1564
 11
35.55
 21
22
  0
LINE
  8
0
 10
35.55
 20
22
 11
51.6762
 21
22
  0
LINE
  8
0
 10
51.6762
 20
22
 11
51.6885
 21
22.1564
  0
LINE
  8
0
 10
51.6885
 20
22.1564
 11
51.7251
 21
22.309
  0
LINE
  8
0
 10
51.7251
 20
22.309
 11
51.7852
 21
22.454
  0
LINE
  8
0
 10
51.7852
 20
22.454
 11
51.8672
 21
22.5878
  0
LINE
  8
0
 10
51.8672
 20
22.5878
 11
51.9691
 21
22.7071
  0
LINE
  8
0
 10
51.9691
 20
22.7071
 11
52.0884
 21
22.809
  0
LINE
  8
0
 10
52.0884
 20
22.809
 11
52.2222
 21
22.891
  0
LINE
  8
0
 10
52.2222
 20
22.891
 11
52.3672
 21
22.951
  0
LINE
  8
0
 10
52.3672
 20
22.951
 11
52.5198
 21
22.9877
  0
LINE
  8
0
 10
52.5198
 20
22.9877
 11
52.6762
 21
23
  0
LINE
  8
0
 10
52.6762
 20
23
 11
52.8326
 21
22.9877
  0
LINE
  8
0
 10
52.8326
 20
22.9877
 11
52.9852
 21
22.951
  0
LINE
  8
0
 10
52.9852
 20
22.951
 11
53.1302
 21
22.891
  0
LINE
  8
0
 10
53.1302
 20
22.891
 11
53.264
 21
22.809
  0
LINE
  8
0
 10
53.264
 20
22.809
 11
53.3833
 21
22.7071
  0
LINE
  8
0
 10
53.3833
 20
22.7071
 11
53.4852
 21
22.5878
  0
LINE
  8
0
 10
53.4852
 20
22.5878
 11
53.5672
 21
22.454
  0
LINE
  8
0
 10
53.5672
 20
22.454
 11
53.6272
 21
22.309
  0
LINE
  8
0
 10
53.6272
 20
22.309
 11
53.6639
 21
22.1564
  0
LINE
  8
0
 10
53.6639
 20
22.1564
 11
53.6762
 21
22
  0
LINE
  8
0
 10
53.6762
 20
22
 11
53.6762
 21
18.8
  0
LINE
  8
0
 10
53.6762
 20
18.8
 11
53.6639
 21
18.6436
  0
LINE
  8
0
 10
53.6639
 20
18.6436
 11
53.6272
 21
18.491
  0
LINE
  8
0
 10
53.6272
 20
18.491
 11
53.5672
 21
18.346
  0
LINE
  8
0
 10
53.5672
 20
18.346
 11
53.4852
 21
18.2122
  0
LINE
  8
0
 10
53.4852
 20
18.2122
 11
53.3833
 21
18.0929
  0
LINE
  8
0
 10
53.3833
 20
18.0929
 11
53.264
 21
17.991
  0
LINE
  8
0
 10
53.264
 20
17.991
 11
53.1302
 21
17.909
  0
LINE
  8
0
 10
53.1302
 20
17.909
 11
52.9852
 21
17.849
  0
LINE
  8
0
 10
52.9852
 20
17.849
 11
52.8326
 21
17.8123
  0
LINE
  8
0
 10
52.8326
 20
17.8123
 11
52.6762
 21
17.8
  0
LINE
  8
0
 10
52.6762
 20
17.8
 11
52.5198
 21
17.8123
  0
LINE
  8
0
 10
8.90665
 20
17.8123
 11
8.75406
 21
17.849
  0
LINE
  8
0
 10
8.75406
 20
17.849
 11
8.60909
 21
17.909
  0
LINE
  8
0
 10
8.60909
 20
17.909
 11
8.4753
 21
17.991
  0
LINE
  8
0
 10
8.4753
 20
17.991
 11
8.35597
 21
18.0929
  0
LINE
  8
0
 10
8.35597
 20
18.0929
 11
8.25406
 21
18.2122
  0
LINE
  8
0
 10
8.25406
 20
18.2122
 11
8.17207
 21
18.346
  0
LINE
  8
0
 10
8.17207
 20
18.346
 11
8.11201
 21
18.491
  0
LINE
  8
0
 10
8.11201
 20
18.491
 11
8.07539
 21
18.6436
  0
LINE
  8
0
 10
8.07539
 20
18.6436
 11
8.06308
 21
18.8
  0
LINE
  8
0
 10
8.06308
 20
18.8
 11
-8.06311
 21
18.8
  0
LINE
  8
0
 10
-8.06311
 20
18.8
 11
-8.07542
 21
18.6436
  0
LINE
  8
0
 10
-8.07542
 20
18.6436
 11
-8.11205
 21
18.491
  0
LINE
  8
0
 10
-8.11205
 20
18.491
 11
-8.1721
 21
18.346
  0
LINE
  8
0
 10
-8.1721
 20
18.346
 11
-8.25409
 21
18.2122
  0
LINE
  8
0
 10
-8.25409
 20
18.2122
 11
-8.356
 21
18.0929
  0
LINE
  8
0
 10
-8.356
 20
18.0929
 11
-8.47533
 21
17.991
  0
LINE
  8
0
 10
-8.47533
 20
17.991
 11
-8.60912
 21
17.909
  0
LINE
  8
0
 10
-8.60912
 20
17.909
 11
-8.75409
 21
17.849
  0
LINE
  8
0
 10
-8.75409
 20
17.849
 11
-8.90668
 21
17.8123
  0
LINE
  8
0
 10
-8.90668
 20
17.8123
 11
-9.06311
 21
17.8
  0
LINE
  8
0
 10
-9.06311
 20
17.8
 11
-9.21954
 21
17.8123
  0
LINE
  8
0
 10
-9.21954
 20
17.8123
 11
-9.37212
 21
17.849
  0
LINE
  8
0
 10
-9.37212
 20
17.849
 11
-9.51709
 21
17.909
  0
LINE
  8
0
 10
-9.51709
 20
17.909
 11
-9.65089
 21
17.991
  0
LINE
  8
0
 10
-9.65089
 20
17.991
 11
-9.77022
 21
18.0929
  0
LINE
  8
0
 10
-9.77022
 20
18.0929
 11
-9.87212
 21
18.2122
  0
LINE
  8
0
 10
-9.87212
 20
18.2122
 11
-9.95412
 21
18.346
  0
LINE
  8
0
 10
-9.95412
 20
18.346
 11
-10.0142
 21
18.491
  0
LINE
  8
0
 10
-10.0142
 20
18.491
 11
-10.0508
 21
18.6436
  0
LINE
  8
0
 10
-10.0508
 20
18.6436
 11
-10.0631
 21
18.8
  0
LINE
  8
0
 10
-10.0631
 20
18.8
 11
-10.0631
 21
22
  0
LINE
  8
0
 10
-10.0631
 20
22
 11
-10.0508
 21
22.1564
  0
LINE
  8
0
 10
-10.0508
 20
22.1564
 11
-10.0142
 21
22.309
  0
LINE
  8
0
 10
-10.0142
 20
22.309
 11
-9.95412
 21
22.454
  0
LINE
  8
0
 10
-9.95412
 20
22.454
 11
-9.87212
 21
22.5878
  0
LINE
  8
0
 10
-9.87212
 20
22.5878
 11
-9.77022
 21
22.7071
  0
LINE
  8
0
 10
-9.77022
 20
22.7071
 11
-9.65089
 21
22.809
  0
LINE
  8
0
 10
-9.65089
 20
22.809
 11
-9.51709
 21
22.891
  0
LINE
  8
0
 10
-9.51709
 20
22.891
 11
-9.37212
 21
22.951
  0
LINE
  8
0
 10
-9.37212
 20
22.951
 11
-9.21954
 21
22.9877
  0
LINE
  8
0
 10
-9.21954
 20
22.9877
 11
-9.06311
 21
23
  0
LINE
  8
0
 10
-9.06311
 20
23
 11
-8.90668
 21
22.9877
  0
LINE
  8
0
 10
-8.90668
 20
22.9877
 11
-8.75409
 21
22.951
  0
LINE
  8
0
 10
-8.75409
 20
22.951
 11
-8.60912
 21
22.891
  0
LINE
  8
0
 10
-8.60912
 20
22.891
 11
-8.47533
 21
22.809
  0
LINE
  8
0
 10
-8.47533
 20
22.809
 11
-8.356
 21
22.7071
  0
LINE
  8
0
 10
-8.356
 20
22.7071
 11
-8.25409
 21
22.5878
  0
LINE
  8
0
 10
-8.25409
 20
22.5878
 11
-8.1721
 21
22.454
  0
LINE
  8
0
 10
-8.1721
 20
22.454
 11
-8.11205
 21
22.309
  0
LINE
  8
0
 10
-8.11205
 20
22.309
 11
-8.07542
 21
22.1564
  0
LINE
  8
0
 10
-8.07542
 20
22.1564
 11
-8.06311
 21
22
  0
LINE
  8
0
 10
-8.06311
 20
22
 11
8.06308
 21
22
  0
LINE
  8
0
 10
8.06308
 20
22
 11
8.07539
 21
22.1564
  0
LINE
  8
0
 10
8.07539
 20
22.1564
 11
8.11201
 21
22.309
  0
LINE
  8
0
 10
8.11201
 20
22.309
 11
8.17207
 21
22.454
  0
LINE
  8
0
 10
8.17207
 20
22.454
 11
8.25406
 21
22.5878
  0
LINE
  8
0
 10
8.25406
 20
22.5878
 11
8.35597
 21
22.7071
  0
LINE
  8
0
 10
8.35597
 20
22.7071
 11
8.4753
 21
22.809
  0
LINE
  8
0
 10
8.4753
 20
22.809
 11
8.60909
 21
22.891
  0
LINE
  8
0
 10
8.60909
 20
22.891
 11
8.75406
 21
22.951
  0
LINE
  8
0
 10
8.75406
 20
22.951
 11
8.90665
 21
22.9877
  0
LINE
  8
0
 10
8.90665
 20
22.9877
 11
9.06308
 21
23
  0
LINE
  8
0
 10
9.06308
 20
23
 11
9.21951
 21
22.9877
  0
LINE
  8
0
 10
9.21951
 20
22.9877
 11
9.3721
 21
22.951
  0
LINE
  8
0
 10
9.3721
 20
22.951
 11
9.51707
 21
22.891
  0
LINE
  8
0
 10
9.51707
 20
22.891
 11
9.65086
 21
22.809
  0
LINE
  8
0
 10
9.65086
 20
22.809
 11
9.77019
 21
22.7071
  0
LINE
  8
0
 10
9.77019
 20
22.7071
 11
9.8721
 21
22.5878
  0
LINE
  8
0
 10
9.8721
 20
22.5878
 11
9.95409
 21
22.454
  0
LINE
  8
0
 10
9.95409
 20
22.454
 11
10.0141
 21
22.309
  0
LINE
  8
0
 10
10.0141
 20
22.309
 11
10.0508
 21
22.1564
  0
LINE
  8
0
 10
10.0508
 20
22.1564
 11
10.0631
 21
22
  0
LINE
  8
0
 10
10.0631
 20
22
 11
10.0631
 21
18.8
  0
LINE
  8
0
 10
10.0631
 20
18.8
 11
10.0508
 21
18.6436
  0
LINE
  8
0
 10
10.0508
 20
18.6436
 11
10.0141
 21
18.491
  0
LINE
  8
0
 10
10.0141
 20
18.491
 11
9.95409
 21
18.346
  0
LINE
  8
0
 10
9.95409
 20
18.346
 11
9.8721
 21
18.2122
  0
LINE
  8
0
 10
9.8721
 20
18.2122
 11
9.77019
 21
18.0929
  0
LINE
  8
0
 10
9.77019
 20
18.0929
 11
9.65086
 21
17.991
  0
LINE
  8
0
 10
9.65086
 20
17.991
 11
9.51707
 21
17.909
  0
LINE
  8
0
 10
9.51707
 20
17.909
 11
9.3721
 21
17.849
  0
LINE
  8
0
 10
9.3721
 20
17.849
 11
9.21951
 21
17.8123
  0
LINE
  8
0
 10
9.21951
 20
17.8123
 11
9.06308
 21
17.8
  0
LINE
  8
0
 10
9.06308
 20
17.8
 11
8.90665
 21
17.8123
  0
LINE
  8
0
 10
-34.7064
 20
17.8123
 11
-34.859
 21
17.849
  0
LINE
  8
0
 10
-34.859
 20
17.849
 11
-35.004
 21
17.909
  0
LINE
  8
0
 10
-35.004
 20
17.909
 11
-35.1378
 21
17.991
  0
LINE
  8
0
 10
-35.1378
 20
17.991
 11
-35.2571
 21
18.0929
  0
LINE
  8
0
 10
-35.2571
 20
18.0929
 11
-35.359
 21
18.2122
  0
LINE
  8
0
 10
-35.359
 20
18.2122
 11
-35.441
 21
18.346
  0
LINE
  8
0
 10
-35.441
 20
18.346
 11
-35.5011
 21
18.491
  0
LINE
  8
0
 10
-35.5011
 20
18.491
 11
-35.5377
 21
18.6436
  0
LINE
  8
0
 10
-35.5377
 20
18.6436
 11
-35.55
 21
18.8
  0
LINE
  8
0
 10
-35.55
 20
18.8
 11
-51.6762
 21
18.8
  0
LINE
  8
0
 10
-51.6762
 20
18.8
 11
-51.6885
 21
18.6436
  0
LINE
  8
0
 10
-51.6885
 20
18.6436
 11
-51.7251
 21
18.491
  0
LINE
  8
0
 10
-51.7251
 20
18.491
 11
-51.7852
 21
18.346
  0
LINE
  8
0
 10
-51.7852
 20
18.346
 11
-51.8672
 21
18.2122
  0
LINE
  8
0
 10
-51.8672
 20
18.2122
 11
-51.9691
 21
18.0929
  0
LINE
  8
0
 10
-51.9691
 20
18.0929
 11
-52.0884
 21
17.991
  0
LINE
  8
0
 10
-52.0884
 20
17.991
 11
-52.2222
 21
17.909
  0
LINE
  8
0
 10
-52.2222
 20
17.909
 11
-52.3672
 21
17.849
  0
LINE
  8
0
 10
-52.3672
 20
17.849
 11
-52.5198
 21
17.8123
  0
LINE
  8
0
 10
-52.5198
 20
17.8123
 11
-52.6762
 21
17.8
  0
LINE
  8
0
 10
-52.6762
 20
17.8
 11
-52.8326
 21
17.8123
  0
LINE
  8
0
 10
-52.8326
 20
17.8123
 11
-52.9852
 21
17.849
  0
LINE
  8
0
 10
-52.9852
 20
17.849
 11
-53.1302
 21
17.909
  0
LINE
  8
0
 10
-53.1302
 20
17.909
 11
-53.264
 21
17.991
  0
LINE
  8
0
 10
-53.264
 20
17.991
 11
-53.3833
 21
18.0929
  0
LINE
  8
0
 10
-53.3833
 20
18.0929
 11
-53.4852
 21
18.2122
  0
LINE
  8
0
 10
-53.4852
 20
18.2122
 11
-53.5672
 21
18.346
  0
LINE
  8
0
 10
-53.5672
 20
18.346
 11
-53.6273
 21
18.491
  0
LINE
  8
0
 10
-53.6273
 20
18.491
 11
-53.6639
 21
18.6436
  0
LINE
  8
0
 10
-53.6639
 20
18.6436
 11
-53.6762
 21
18.8
  0
LINE
  8
0
 10
-53.6762
 20
18.8
 11
-53.6762
 21
22
  0
LINE
  8
0
 10
-53.6762
 20
22
 11
-53.6639
 21
22.1564
  0
LINE
  8
0
 10
-53.6639
 20
22.1564
 11
-53.6273
 21
22.309
  0
LINE
  8
0
 10
-53.6273
 20
22.309
 11
-53.5672
 21
22.454
  0
LINE
  8
0
 10
-53.5672
 20
22.454
 11
-53.4852
 21
22.5878
  0
LINE
  8
0
 10
-53.4852
 20
22.5878
 11
-53.3833
 21
22.7071
  0
LINE
  8
0
 10
-53.3833
 20
22.7071
 11
-53.264
 21
22.809
  0
LINE
  8
0
 10
-53.264
 20
22.809
 11
-53.1302
 21
22.891
  0
LINE
  8
0
 10
-53.1302
 20
22.891
 11
-52.9852
 21
22.951
  0
LINE
  8
0
 10
-52.9852
 20
22.951
 11
-52.8326
 21
22.9877
  0
LINE
  8
0
 10
-52.8326
 20
22.9877
 11
-52.6762
 21
23
  0
LINE
  8
0
 10
-52.6762
 20
23
 11
-52.5198
 21
22.9877
  0
LINE
  8
0
 10
-52.5198
 20
22.9877
 11
-52.3672
 21
22.951
  0
LINE
  8
0
 10
-52.3672
 20
22.951
 11
-52.2222
 21
22.891
  0
LINE
  8
0
 10
-52.2222
 20
22.891
 11
-52.0884
 21
22.809
  0
LINE
  8
0
 10
-52.0884
 20
22.809
 11
-51.9691
 21
22.7071
  0
LINE
  8
0
 10
-51.9691
 20
22.7071
 11
-51.8672
 21
22.5878
  0
LINE
  8
0
 10
-51.8672
 20
22.5878
 11
-51.7852
 21
22.454
  0
LINE
  8
0
 10
-51.7852
 20
22.454
 11
-51.7251
 21
22.309
  0
LINE
  8
0
 10
-51.7251
 20
22.309
 11
-51.6885
 21
22.1564
  0
LINE
  8
0
 10
-51.6885
 20
22.1564
 11
-51.6762
 21
22
  0
LINE
  8
0
 10
-51.6762
 20
22
 11
-35.55
 21
22
  0
LINE
  8
0
 10
-35.55
 20
22
 11
-35.5377
 21
22.1564
  0
LINE
  8
0
 10
-35.5377
 20
22.1564
 11
-35.5011
 21
22.309
  0
LINE
  8
0
 10
-35.5011
 20
22.309
 11
-35.441
 21
22.454
  0
LINE
  8
0
 10
-35.441
 20
22.454
 11
-35.359
 21
22.5878
  0
LINE
  8
0
 10
-35.359
 20
22.5878
 11
-35.2571
 21
22.7071
  0
LINE
  8
0
 10
-35.2571
 20
22.7071
 11
-35.1378
 21
22.809
  0
LINE
  8
0
 10
-35.1378
 20
22.809
 11
-35.004
 21
22.891
  0
LINE
  8
0
 10
-35.004
 20
22.891
 11
-34.859
 21
22.951
  0
LINE
  8
0
 10
-34.859
 20
22.951
 11
-34.7064
 21
22.9877
  0
LINE
  8
0
 10
-34.7064
 20
22.9877
 11
-34.55
 21
23
  0
LINE
  8
0
 10
-34.55
 20
23
 11
-34.3936
 21
22.9877
  0
LINE
  8
0
 10
-34.3936
 20
22.9877
 11
-34.241
 21
22.951
  0
LINE
  8
0
 10
-34.241
 20
22.951
 11
-34.096
 21
22.891
  0
LINE
  8
0
 10
-34.096
 20
22.891
 11
-33.9622
 21
22.809
  0
LINE
  8
0
 10
-33.9622
 20
22.809
 11
-33.8429
 21
22.7071
  0
LINE
  8
0
 10
-33.8429
 20
22.7071
 11
-33.741
 21
22.5878
  0
LINE
  8
0
 10
-33.741
 20
22.5878
 11
-33.659
 21
22.454
  0
LINE
  8
0
 10
-33.659
 20
22.454
 11
-33.599
 21
22.309
  0
LINE
  8
0
 10
-33.599
 20
22.309
 11
-33.5623
 21
22.1564
  0
LINE
  8
0
 10
-33.5623
 20
22.1564
 11
-33.55
 21
22
  0
LINE
  8
0
 10
-33.55
 20
22
 11
-33.55
 21
18.8
  0
LINE
  8
0
 10
-33.55
 20
18.8
 11
-33.5623
 21
18.6436
  0
LINE
  8
0
 10
-33.5623
 20
18.6436
 11
-33.599
 21
18.491
  0
LINE
  8
0
 10
-33.599
 20
18.491
 11
-33.659
 21
18.346
  0
LINE
  8
0
 10
-33.659
 20
18.346
 11
-33.741
 21
18.2122
  0
LINE
  8
0
 10
-33.741
 20
18.2122
 11
-33.8429
 21
18.0929
  0
LINE
  8
0
 10
-33.8429
 20
18.0929
 11
-33.9622
 21
17.991
  0
LINE
  8
0
 10
-33.9622
 20
17.991
 11
-34.096
 21
17.909
  0
LINE
  8
0
 10
-34.096
 20
17.909
 11
-34.241
 21
17.849
  0
LINE
  8
0
 10
-34.241
 20
17.849
 11
-34.3936
 21
17.8123
  0
LINE
  8
0
 10
-34.3936
 20
17.8123
 11
-34.55
 21
17.8
  0
LINE
  8
0
 10
-34.55
 20
17.8
 11
-34.7064
 21
17.8123
  0
LINE
  8
0
 10
24.4544
 20
14.5154
 11
24.2637
 21
14.5612
  0
LINE
  8
0
 10
24.2637
 20
14.5612
 11
24.0825
 21
14.6362
  0
LINE
  8
0
 10
24.0825
 20
14.6362
 11
23.9153
 21
14.7387
  0
LINE
  8
0
 10
23.9153
 20
14.7387
 11
23.7661
 21
14.8661
  0
LINE
  8
0
 10
23.7661
 20
14.8661
 11
23.6387
 21
15.0153
  0
LINE
  8
0
 10
23.6387
 20
15.0153
 11
23.5362
 21
15.1825
  0
LINE
  8
0
 10
23.5362
 20
15.1825
 11
23.4612
 21
15.3637
  0
LINE
  8
0
 10
23.4612
 20
15.3637
 11
23.4154
 21
15.5545
  0
LINE
  8
0
 10
23.4154
 20
15.5545
 11
23.4
 21
15.75
  0
LINE
  8
0
 10
23.4
 20
15.75
 11
23.4154
 21
15.9455
  0
LINE
  8
0
 10
23.4154
 20
15.9455
 11
23.4612
 21
16.1363
  0
LINE
  8
0
 10
23.4612
 20
16.1363
 11
23.5362
 21
16.3175
  0
LINE
  8
0
 10
23.5362
 20
16.3175
 11
23.6387
 21
16.4847
  0
LINE
  8
0
 10
23.6387
 20
16.4847
 11
23.7661
 21
16.6339
  0
LINE
  8
0
 10
23.7661
 20
16.6339
 11
23.9153
 21
16.7613
  0
LINE
  8
0
 10
23.9153
 20
16.7613
 11
24.0825
 21
16.8638
  0
LINE
  8
0
 10
24.0825
 20
16.8638
 11
24.2637
 21
16.9388
  0
LINE
  8
0
 10
24.2637
 20
16.9388
 11
24.4544
 21
16.9846
  0
LINE
  8
0
 10
24.4544
 20
16.9846
 11
24.65
 21
17
  0
LINE
  8
0
 10
24.65
 20
17
 11
24.8455
 21
16.9846
  0
LINE
  8
0
 10
24.8455
 20
16.9846
 11
25.0363
 21
16.9388
  0
LINE
  8
0
 10
25.0363
 20
16.9388
 11
25.2175
 21
16.8638
  0
LINE
  8
0
 10
25.2175
 20
16.8638
 11
25.3847
 21
16.7613
  0
LINE
  8
0
 10
25.3847
 20
16.7613
 11
25.5339
 21
16.6339
  0
LINE
  8
0
 10
25.5339
 20
16.6339
 11
25.6613
 21
16.4847
  0
LINE
  8
0
 10
25.6613
 20
16.4847
 11
25.7637
 21
16.3175
  0
LINE
  8
0
 10
25.7637
 20
16.3175
 11
25.8388
 21
16.1363
  0
LINE
  8
0
 10
25.8388
 20
16.1363
 11
25.8846
 21
15.9455
  0
LINE
  8
0
 10
25.8846
 20
15.9455
 11
25.9
 21
15.75
  0
LINE
  8
0
 10
25.9
 20
15.75
 11
25.8846
 21
15.5545
  0
LINE
  8
0
 10
25.8846
 20
15.5545
 11
25.8388
 21
15.3637
  0
LINE
  8
0
 10
25.8388
 20
15.3637
 11
25.7637
 21
15.1825
  0
LINE
  8
0
 10
25.7637
 20
15.1825
 11
25.6613
 21
15.0153
  0
LINE
  8
0
 10
25.6613
 20
15.0153
 11
25.5339
 21
14.8661
  0
LINE
  8
0
 10
25.5339
 20
14.8661
 11
25.3847
 21
14.7387
  0
LINE
  8
0
 10
25.3847
 20
14.7387
 11
25.2175
 21
14.6362
  0
LINE
  8
0
 10
25.2175
 20
14.6362
 11
25.0363
 21
14.5612
  0
LINE
  8
0
 10
25.0363
 20
14.5612
 11
24.8455
 21
14.5154
  0
LINE
  8
0
 10
24.8455
 20
14.5154
 11
24.65
 21
14.5
  0
LINE
  8
0
 10
24.65
 20
14.5
 11
24.4544
 21
14.5154
  0
LINE
  8
0
 10
-24.8455
 20
14.5154
 11
-25.0363
 21
14.5612
  0
LINE
  8
0
 10
-25.0363
 20
14.5612
 11
-25.2175
 21
14.6362
  0
LINE
  8
0
 10
-25.2175
 20
14.6362
 11
-25.3847
 21
14.7387
  0
LINE
  8
0
 10
-25.3847
 20
14.7387
 11
-25.5339
 21
14.8661
  0
LINE
  8
0
 10
-25.5339
 20
14.8661
 11
-25.6613
 21
15.0153
  0
LINE
  8
0
 10
-25.6613
 20
15.0153
 11
-25.7637
 21
15.1825
  0
LINE
  8
0
 10
-25.7637
 20
15.1825
 11
-25.8388
 21
15.3637
  0
LINE
  8
0
 10
-25.8388
 20
15.3637
 11
-25.8846
 21
15.5545
  0
LINE
  8
0
 10
-25.8846
 20
15.5545
 11
-25.9
 21
15.75
  0
LINE
  8
0
 10
-25.9
 20
15.75
 11
-25.8846
 21
15.9455
  0
LINE
  8
0
 10
-25.8846
 20
15.9455
 11
-25.8388
 21
16.1363
  0
LINE
  8
0
 10
-25.8388
 20
16.1363
 11
-25.7637
 21
16.3175
  0
LINE
  8
0
 10
-25.7637
 20
16.3175
 11
-25.6613
 21
16.4847
  0
LINE
  8
0
 10
-25.6613
 20
16.4847
 11
-25.5339
 21
16.6339
  0
LINE
  8
0
 10
-25.5339
 20
16.6339
 11
-25.3847
 21
16.7613
  0
LINE
  8
0
 10
-25.3847
 20
16.7613
 11
-25.2175
 21
16.8638
  0
LINE
  8
0
 10
-25.2175
 20
16.8638
 11
-25.0363
 21
16.9388
  0
LINE
  8
0
 10
-25.0363
 20
16.9388
 11
-24.8455
 21
16.9846
  0
LINE
  8
0
 10
-24.8455
 20
16.9846
 11
-24.65
 21
17
  0
LINE
  8
0
 10
-24.65
 20
17
 11
-24.4545
 21
16.9846
  0
LINE
  8
0
 10
-24.4545
 20
16.9846
 11
-24.2637
 21
16.9388
  0
LINE
  8
0
 10
-24.2637
 20
16.9388
 11
-24.0825
 21
16.8638
  0
LINE
  8
0
 10
-24.0825
 20
16.8638
 11
-23.9153
 21
16.7613
  0
LINE
  8
0
 10
-23.9153
 20
16.7613
 11
-23.7661
 21
16.6339
  0
LINE
  8
0
 10
-23.7661
 20
16.6339
 11
-23.6387
 21
16.4847
  0
LINE
  8
0
 10
-23.6387
 20
16.4847
 11
-23.5362
 21
16.3175
  0
LINE
  8
0
 10
-23.5362
 20
16.3175
 11
-23.4612
 21
16.1363
  0
LINE
  8
0
 10
-23.4612
 20
16.1363
 11
-23.4154
 21
15.9455
  0
LINE
  8
0
 10
-23.4154
 20
15.9455
 11
-23.4
 21
15.75
  0
LINE
  8
0
 10
-23.4
 20
15.75
 11
-23.4154
 21
15.5545
  0
LINE
  8
0
 10
-23.4154
 20
15.5545
 11
-23.4612
 21
15.3637
  0
LINE
  8
0
 10
-23.4612
 20
15.3637
 11
-23.5362
 21
15.1825
  0
LINE
  8
0
 10
-23.5362
 20
15.1825
 11
-23.6387
 21
15.0153
  0
LINE
  8
0
 10
-23.6387
 20
15.0153
 11
-23.7661
 21
14.8661
  0
LINE
  8
0
 10
-23.7661
 20
14.8661
 11
-23.9153
 21
14.7387
  0
LINE
  8
0
 10
-23.9153
 20
14.7387
 11
-24.0825
 21
14.6362
  0
LINE
  8
0
 10
-24.0825
 20
14.6362
 11
-24.2637
 21
14.5612
  0
LINE
  8
0
 10
-24.2637
 20
14.5612
 11
-24.4545
 21
14.5154
  0
LINE
  8
0
 10
-24.4545
 20
14.5154
 11
-24.65
 21
14.5
  0
LINE
  8
0
 10
-24.65
 20
14.5
 11
-24.8455
 21
14.5154
  0
LINE
  8
0
 10
-38.6564
 20
15.0123
 11
-38.809
 21
15.049
  0
LINE
  8
0
 10
-38.809
 20
15.049
 11
-38.954
 21
15.109
  0
LINE
  8
0
 10
-38.954
 20
15.109
 11
-39.0878
 21
15.191
  0
LINE
  8
0
 10
-39.0878
 20
15.191
 11
-39.2071
 21
15.2929
  0
LINE
  8
0
 10
-39.2071
 20
15.2929
 11
-39.309
 21
15.4122
  0
LINE
  8
0
 10
-39.309
 20
15.4122
 11
-39.391
 21
15.546
  0
LINE
  8
0
 10
-39.391
 20
15.546
 11
-39.451
 21
15.691
  0
LINE
  8
0
 10
-39.451
 20
15.691
 11
-39.4877
 21
15.8436
  0
LINE
  8
0
 10
-39.4877
 20
15.8436
 11
-39.5
 21
16
  0
LINE
  8
0
 10
-39.5
 20
16
 11
-39.4877
 21
16.1564
  0
LINE
  8
0
 10
-39.4877
 20
16.1564
 11
-39.451
 21
16.309
  0
LINE
  8
0
 10
-39.451
 20
16.309
 11
-39.391
 21
16.454
  0
LINE
  8
0
 10
-39.391
 20
16.454
 11
-39.309
 21
16.5878
  0
LINE
  8
0
 10
-39.309
 20
16.5878
 11
-39.2071
 21
16.7071
  0
LINE
  8
0
 10
-39.2071
 20
16.7071
 11
-39.0878
 21
16.809
  0
LINE
  8
0
 10
-39.0878
 20
16.809
 11
-38.954
 21
16.891
  0
LINE
  8
0
 10
-38.954
 20
16.891
 11
-38.809
 21
16.9511
  0
LINE
  8
0
 10
-38.809
 20
16.9511
 11
-38.6564
 21
16.9877
  0
LINE
  8
0
 10
-38.6564
 20
16.9877
 11
-38.5
 21
17
  0
LINE
  8
0
 10
-38.5
 20
17
 11
-38.3436
 21
16.9877
  0
LINE
  8
0
 10
-38.3436
 20
16.9877
 11
-38.191
 21
16.9511
  0
LINE
  8
0
 10
-38.191
 20
16.9511
 11
-38.046
 21
16.891
  0
LINE
  8
0
 10
-38.046
 20
16.891
 11
-37.9122
 21
16.809
  0
LINE
  8
0
 10
-37.9122
 20
16.809
 11
-37.7929
 21
16.7071
  0
LINE
  8
0
 10
-37.7929
 20
16.7071
 11
-37.691
 21
16.5878
  0
LINE
  8
0
 10
-37.691
 20
16.5878
 11
-37.609
 21
16.454
  0
LINE
  8
0
 10
-37.609
 20
16.454
 11
-37.5489
 21
16.309
  0
LINE
  8
0
 10
-37.5489
 20
16.309
 11
-37.5123
 21
16.1564
  0
LINE
  8
0
 10
-37.5123
 20
16.1564
 11
-37.5
 21
16
  0
LINE
  8
0
 10
-37.5
 20
16
 11
-37.5123
 21
15.8436
  0
LINE
  8
0
 10
-37.5123
 20
15.8436
 11
-37.5489
 21
15.691
  0
LINE
  8
0
 10
-37.5489
 20
15.691
 11
-37.609
 21
15.546
  0
LINE
  8
0
 10
-37.609
 20
15.546
 11
-37.691
 21
15.4122
  0
LINE
  8
0
 10
-37.691
 20
15.4122
 11
-37.7929
 21
15.2929
  0
LINE
  8
0
 10
-37.7929
 20
15.2929
 11
-37.9122
 21
15.191
  0
LINE
  8
0
 10
-37.9122
 20
15.191
 11
-38.046
 21
15.109
  0
LINE
  8
0
 10
-38.046
 20
15.109
 11
-38.191
 21
15.049
  0
LINE
  8
0
 10
-38.191
 20
15.049
 11
-38.3436
 21
15.0123
  0
LINE
  8
0
 10
-38.3436
 20
15.0123
 11
-38.5
 21
15
  0
LINE
  8
0
 10
-38.5
 20
15
 11
-38.6564
 21
15.0123
  0
LINE
  8
0
 10
38.3435
 20
15.0123
 11
38.191
 21
15.0489
  0
LINE
  8
0
 10
38.191
 20
15.0489
 11
38.046
 21
15.109
  0
LINE
  8
0
 10
38.046
 20
15.109
 11
37.9122
 21
15.191
  0
LINE
  8
0
 10
37.9122
 20
15.191
 11
37.7929
 21
15.2929
  0
LINE
  8
0
 10
37.7929
 20
15.2929
 11
37.691
 21
15.4122
  0
LINE
  8
0
 10
37.691
 20
15.4122
 11
37.609
 21
15.546
  0
LINE
  8
0
 10
37.609
 20
15.546
 11
37.5489
 21
15.691
  0
LINE
  8
0
 10
37.5489
 20
15.691
 11
37.5123
 21
15.8436
  0
LINE
  8
0
 10
37.5123
 20
15.8436
 11
37.5
 21
16
  0
LINE
  8
0
 10
37.5
 20
16
 11
37.5123
 21
16.1564
  0
LINE
  8
0
 10
37.5123
 20
16.1564
 11
37.5489
 21
16.309
  0
LINE
  8
0
 10
37.5489
 20
16.309
 11
37.609
 21
16.454
  0
LINE
  8
0
 10
37.609
 20
16.454
 11
37.691
 21
16.5878
  0
LINE
  8
0
 10
37.691
 20
16.5878
 11
37.7929
 21
16.7071
  0
LINE
  8
0
 10
37.7929
 20
16.7071
 11
37.9122
 21
16.809
  0
LINE
  8
0
 10
37.9122
 20
16.809
 11
38.046
 21
16.891
  0
LINE
  8
0
 10
38.046
 20
16.891
 11
38.191
 21
16.951
  0
LINE
  8
0
 10
38.191
 20
16.951
 11
38.3435
 21
16.9877
  0
LINE
  8
0
 10
38.3435
 20
16.9877
 11
38.5
 21
17
  0
LINE
  8
0
 10
38.5
 20
17
 11
38.6564
 21
16.9877
  0
LINE
  8
0
 10
38.6564
 20
16.9877
 11
38.809
 21
16.951
  0
LINE
  8
0
 10
38.809
 20
16.951
 11
38.954
 21
16.891
  0
LINE
  8
0
 10
38.954
 20
16.891
 11
39.0878
 21
16.809
  0
LINE
  8
0
 10
39.0878
 20
16.809
 11
39.2071
 21
16.7071
  0
LINE
  8
0
 10
39.2071
 20
16.7071
 11
39.309
 21
16.5878
  0
LINE
  8
0
 10
39.309
 20
16.5878
 11
39.391
 21
16.454
  0
LINE
  8
0
 10
39.391
 20
16.454
 11
39.451
 21
16.309
  0
LINE
  8
0
 10
39.451
 20
16.309
 11
39.4877
 21
16.1564
  0
LINE
  8
0
 10
39.4877
 20
16.1564
 11
39.5
 21
16
  0
LINE
  8
0
 10
39.5
 20
16
 11
39.4877
 21
15.8436
  0
LINE
  8
0
 10
39.4877
 20
15.8436
 11
39.451
 21
15.691
  0
LINE
  8
0
 10
39.451
 20
15.691
 11
39.391
 21
15.546
  0
LINE
  8
0
 10
39.391
 20
15.546
 11
39.309
 21
15.4122
  0
LINE
  8
0
 10
39.309
 20
15.4122
 11
39.2071
 21
15.2929
  0
LINE
  8
0
 10
39.2071
 20
15.2929
 11
39.0878
 21
15.191
  0
LINE
  8
0
 10
39.0878
 20
15.191
 11
38.954
 21
15.109
  0
LINE
  8
0
 10
38.954
 20
15.109
 11
38.809
 21
15.0489
  0
LINE
  8
0
 10
38.809
 20
15.0489
 11
38.6564
 21
15.0123
  0
LINE
  8
0
 10
38.6564
 20
15.0123
 11
38.5
 21
15
  0
LINE
  8
0
 10
38.5
 20
15
 11
38.3435
 21
15.0123
  0
LINE
  8
0
 10
41.4545
 20
10.8154
 11
41.2637
 21
10.8612
  0
LINE
  8
0
 10
41.2637
 20
10.8612
 11
41.0825
 21
10.9362
  0
LINE
  8
0
 10
41.0825
 20
10.9362
 11
40.9153
 21
11.0387
  0
LINE
  8
0
 10
40.9153
 20
11.0387
 11
40.7661
 21
11.1661
  0
LINE
  8
0
 10
40.7661
 20
11.1661
 11
40.6387
 21
11.3153
  0
LINE
  8
0
 10
40.6387
 20
11.3153
 11
40.5362
 21
11.4825
  0
LINE
  8
0
 10
40.5362
 20
11.4825
 11
40.4612
 21
11.6637
  0
LINE
  8
0
 10
40.4612
 20
11.6637
 11
40.4154
 21
11.8545
  0
LINE
  8
0
 10
40.4154
 20
11.8545
 11
40.4
 21
12.05
  0
LINE
  8
0
 10
40.4
 20
12.05
 11
40.4154
 21
12.2455
  0
LINE
  8
0
 10
40.4154
 20
12.2455
 11
40.4612
 21
12.4363
  0
LINE
  8
0
 10
40.4612
 20
12.4363
 11
40.5362
 21
12.6175
  0
LINE
  8
0
 10
40.5362
 20
12.6175
 11
40.6387
 21
12.7847
  0
LINE
  8
0
 10
40.6387
 20
12.7847
 11
40.7661
 21
12.9339
  0
LINE
  8
0
 10
40.7661
 20
12.9339
 11
40.9153
 21
13.0613
  0
LINE
  8
0
 10
40.9153
 20
13.0613
 11
41.0825
 21
13.1638
  0
LINE
  8
0
 10
41.0825
 20
13.1638
 11
41.2637
 21
13.2388
  0
LINE
  8
0
 10
41.2637
 20
13.2388
 11
41.4545
 21
13.2846
  0
LINE
  8
0
 10
41.4545
 20
13.2846
 11
41.65
 21
13.3
  0
LINE
  8
0
 10
41.65
 20
13.3
 11
41.8455
 21
13.2846
  0
LINE
  8
0
 10
41.8455
 20
13.2846
 11
42.0363
 21
13.2388
  0
LINE
  8
0
 10
42.0363
 20
13.2388
 11
42.2175
 21
13.1638
  0
LINE
  8
0
 10
42.2175
 20
13.1638
 11
42.3847
 21
13.0613
  0
LINE
  8
0
 10
42.3847
 20
13.0613
 11
42.5339
 21
12.9339
  0
LINE
  8
0
 10
42.5339
 20
12.9339
 11
42.6613
 21
12.7847
  0
LINE
  8
0
 10
42.6613
 20
12.7847
 11
42.7637
 21
12.6175
  0
LINE
  8
0
 10
42.7637
 20
12.6175
 11
42.8388
 21
12.4363
  0
LINE
  8
0
 10
42.8388
 20
12.4363
 11
42.8846
 21
12.2455
  0
LINE
  8
0
 10
42.8846
 20
12.2455
 11
42.9
 21
12.05
  0
LINE
  8
0
 10
42.9
 20
12.05
 11
42.8846
 21
11.8545
  0
LINE
  8
0
 10
42.8846
 20
11.8545
 11
42.8388
 21
11.6637
  0
LINE
  8
0
 10
42.8388
 20
11.6637
 11
42.7637
 21
11.4825
  0
LINE
  8
0
 10
42.7637
 20
11.4825
 11
42.6613
 21
11.3153
  0
LINE
  8
0
 10
42.6613
 20
11.3153
 11
42.5339
 21
11.1661
  0
LINE
  8
0
 10
42.5339
 20
11.1661
 11
42.3847
 21
11.0387
  0
LINE
  8
0
 10
42.3847
 20
11.0387
 11
42.2175
 21
10.9362
  0
LINE
  8
0
 10
42.2175
 20
10.9362
 11
42.0363
 21
10.8612
  0
LINE
  8
0
 10
42.0363
 20
10.8612
 11
41.8455
 21
10.8154
  0
LINE
  8
0
 10
41.8455
 20
10.8154
 11
41.65
 21
10.8
  0
LINE
  8
0
 10
41.65
 20
10.8
 11
41.4545
 21
10.8154
  0
LINE
  8
0
 10
-41.8455
 20
10.8154
 11
-42.0363
 21
10.8612
  0
LINE
  8
0
 10
-42.0363
 20
10.8612
 11
-42.2175
 21
10.9362
  0
LINE
  8
0
 10
-42.2175
 20
10.9362
 11
-42.3847
 21
11.0387
  0
LINE
  8
0
 10
-42.3847
 20
11.0387
 11
-42.5339
 21
11.1661
  0
LINE
  8
0
 10
-42.5339
 20
11.1661
 11
-42.6613
 21
11.3153
  0
LINE
  8
0
 10
-42.6613
 20
11.3153
 11
-42.7637
 21
11.4825
  0
LINE
  8
0
 10
-42.7637
 20
11.4825
 11
-42.8388
 21
11.6637
  0
LINE
  8
0
 10
-42.8388
 20
11.6637
 11
-42.8846
 21
11.8545
  0
LINE
  8
0
 10
-42.8846
 20
11.8545
 11
-42.9
 21
12.05
  0
LINE
  8
0
 10
-42.9
 20
12.05
 11
-42.8846
 21
12.2455
  0
LINE
  8
0
 10
-42.8846
 20
12.2455
 11
-42.8388
 21
12.4363
  0
LINE
  8
0
 10
-42.8388
 20
12.4363
 11
-42.7637
 21
12.6175
  0
LINE
  8
0
 10
-42.7637
 20
12.6175
 11
-42.6613
 21
12.7847
  0
LINE
  8
0
 10
-42.6613
 20
12.7847
 11
-42.5339
 21
12.9339
  0
LINE
  8
0
 10
-42.5339
 20
12.9339
 11
-42.3847
 21
13.0613
  0
LINE
  8
0
 10
-42.3847
 20
13.0613
 11
-42.2175
 21
13.1638
  0
LINE
  8
0
 10
-42.2175
 20
13.1638
 11
-42.0363
 21
13.2388
  0
LINE
  8
0
 10
-42.0363
 20
13.2388
 11
-41.8455
 21
13.2846
  0
LINE
  8
0
 10
-41.8455
 20
13.2846
 11
-41.65
 21
13.3
  0
LINE
  8
0
 10
-41.65
 20
13.3
 11
-41.4545
 21
13.2846
  0
LINE
  8
0
 10
-41.4545
 20
13.2846
 11
-41.2637
 21
13.2388
  0
LINE
  8
0
 10
-41.2637
 20
13.2388
 11
-41.0825
 21
13.1638
  0
LINE
  8
0
 10
-41.0825
 20
13.1638
 11
-40.9153
 21
13.0613
  0
LINE
  8
0
 10
-40.9153
 20
13.0613
 11
-40.7661
 21
12.9339
  0
LINE
  8
0
 10
-40.7661
 20
12.9339
 11
-40.6387
 21
12.7847
  0
LINE
  8
0
 10
-40.6387
 20
12.7847
 11
-40.5362
 21
12.6175
  0
LINE
  8
0
 10
-40.5362
 20
12.6175
 11
-40.4612
 21
12.4363
  0
LINE
  8
0
 10
-40.4612
 20
12.4363
 11
-40.4154
 21
12.2455
  0
LINE
  8
0
 10
-40.4154
 20
12.2455
 11
-40.4
 21
12.05
  0
LINE
  8
0
 10
-40.4
 20
12.05
 11
-40.4154
 21
11.8545
  0
LINE
  8
0
 10
-40.4154
 20
11.8545
 11
-40.4612
 21
11.6637
  0
LINE
  8
0
 10
-40.4612
 20
11.6637
 11
-40.5362
 21
11.4825
  0
LINE
  8
0
 10
-40.5362
 20
11.4825
 11
-40.6387
 21
11.3153
  0
LINE
  8
0
 10
-40.6387
 20
11.3153
 11
-40.7661
 21
11.1661
  0
LINE
  8
0
 10
-40.7661
 20
11.1661
 11
-40.9153
 21
11.0387
  0
LINE
  8
0
 10
-40.9153
 20
11.0387
 11
-41.0825
 21
10.9362
  0
LINE
  8
0
 10
-41.0825
 20
10.9362
 11
-41.2637
 21
10.8612
  0
LINE
  8
0
 10
-41.2637
 20
10.8612
 11
-41.4545
 21
10.8154
  0
LINE
  8
0
 10
-41.4545
 20
10.8154
 11
-41.65
 21
10.8
  0
LINE
  8
0
 10
-41.65
 20
10.8
 11
-41.8455
 21
10.8154
  0
LINE
  8
0
 10
-7.84554
 20
10.8154
 11
-8.03627
 21
10.8612
  0
LINE
  8
0
 10
-8.03627
 20
10.8612
 11
-8.21748
 21
10.9362
  0
LINE
  8
0
 10
-8.21748
 20
10.9362
 11
-8.38472
 21
11.0387
  0
LINE
  8
0
 10
-8.38472
 20
11.0387
 11
-8.53387
 21
11.1661
  0
LINE
  8
0
 10
-8.53387
 20
11.1661
 11
-8.66127
 21
11.3153
  0
LINE
  8
0
 10
-8.66127
 20
11.3153
 11
-8.76375
 21
11.4825
  0
LINE
  8
0
 10
-8.76375
 20
11.4825
 11
-8.83881
 21
11.6637
  0
LINE
  8
0
 10
-8.83881
 20
11.6637
 11
-8.8846
 21
11.8545
  0
LINE
  8
0
 10
-8.8846
 20
11.8545
 11
-8.89999
 21
12.05
  0
LINE
  8
0
 10
-8.89999
 20
12.05
 11
-8.8846
 21
12.2455
  0
LINE
  8
0
 10
-8.8846
 20
12.2455
 11
-8.83881
 21
12.4363
  0
LINE
  8
0
 10
-8.83881
 20
12.4363
 11
-8.76375
 21
12.6175
  0
LINE
  8
0
 10
-8.76375
 20
12.6175
 11
-8.66127
 21
12.7847
  0
LINE
  8
0
 10
-8.66127
 20
12.7847
 11
-8.53387
 21
12.9339
  0
LINE
  8
0
 10
-8.53387
 20
12.9339
 11
-8.38472
 21
13.0613
  0
LINE
  8
0
 10
-8.38472
 20
13.0613
 11
-8.21748
 21
13.1638
  0
LINE
  8
0
 10
-8.21748
 20
13.1638
 11
-8.03627
 21
13.2388
  0
LINE
  8
0
 10
-8.03627
 20
13.2388
 11
-7.84554
 21
13.2846
  0
LINE
  8
0
 10
-7.84554
 20
13.2846
 11
-7.64999
 21
13.3
  0
LINE
  8
0
 10
-7.64999
 20
13.3
 11
-7.45445
 21
13.2846
  0
LINE
  8
0
 10
-7.45445
 20
13.2846
 11
-7.26372
 21
13.2388
  0
LINE
  8
0
 10
-7.26372
 20
13.2388
 11
-7.0825
 21
13.1638
  0
LINE
  8
0
 10
-7.0825
 20
13.1638
 11
-6.91527
 21
13.0613
  0
LINE
  8
0
 10
-6.91527
 20
13.0613
 11
-6.76611
 21
12.9339
  0
LINE
  8
0
 10
-6.76611
 20
12.9339
 11
-6.63872
 21
12.7847
  0
LINE
  8
0
 10
-6.63872
 20
12.7847
 11
-6.53624
 21
12.6175
  0
LINE
  8
0
 10
-6.53624
 20
12.6175
 11
-6.46117
 21
12.4363
  0
LINE
  8
0
 10
-6.46117
 20
12.4363
 11
-6.41537
 21
12.2455
  0
LINE
  8
0
 10
-6.41537
 20
12.2455
 11
-6.39999
 21
12.05
  0
LINE
  8
0
 10
-6.39999
 20
12.05
 11
-6.41537
 21
11.8545
  0
LINE
  8
0
 10
-6.41537
 20
11.8545
 11
-6.46117
 21
11.6637
  0
LINE
  8
0
 10
-6.46117
 20
11.6637
 11
-6.53624
 21
11.4825
  0
LINE
  8
0
 10
-6.53624
 20
11.4825
 11
-6.63872
 21
11.3153
  0
LINE
  8
0
 10
-6.63872
 20
11.3153
 11
-6.76611
 21
11.1661
  0
LINE
  8
0
 10
-6.76611
 20
11.1661
 11
-6.91527
 21
11.0387
  0
LINE
  8
0
 10
-6.91527
 20
11.0387
 11
-7.0825
 21
10.9362
  0
LINE
  8
0
 10
-7.0825
 20
10.9362
 11
-7.26372
 21
10.8612
  0
LINE
  8
0
 10
-7.26372
 20
10.8612
 11
-7.45445
 21
10.8154
  0
LINE
  8
0
 10
-7.45445
 20
10.8154
 11
-7.64999
 21
10.8
  0
LINE
  8
0
 10
-7.64999
 20
10.8
 11
-7.84554
 21
10.8154
  0
LINE
  8
0
 10
7.45444
 20
10.8154
 11
7.2637
 21
10.8612
  0
LINE
  8
0
 10
7.2637
 20
10.8612
 11
7.08249
 21
10.9362
  0
LINE
  8
0
 10
7.08249
 20
10.9362
 11
6.91525
 21
11.0387
  0
LINE
  8
0
 10
6.91525
 20
11.0387
 11
6.7661
 21
11.1661
  0
LINE
  8
0
 10
6.7661
 20
11.1661
 11
6.6387
 21
11.3153
  0
LINE
  8
0
 10
6.6387
 20
11.3153
 11
6.53622
 21
11.4825
  0
LINE
  8
0
 10
6.53622
 20
11.4825
 11
6.46115
 21
11.6637
  0
LINE
  8
0
 10
6.46115
 20
11.6637
 11
6.41536
 21
11.8545
  0
LINE
  8
0
 10
6.41536
 20
11.8545
 11
6.39998
 21
12.05
  0
LINE
  8
0
 10
6.39998
 20
12.05
 11
6.41536
 21
12.2455
  0
LINE
  8
0
 10
6.41536
 20
12.2455
 11
6.46115
 21
12.4363
  0
LINE
  8
0
 10
6.46115
 20
12.4363
 11
6.53622
 21
12.6175
  0
LINE
  8
0
 10
6.53622
 20
12.6175
 11
6.6387
 21
12.7847
  0
LINE
  8
0
 10
6.6387
 20
12.7847
 11
6.7661
 21
12.9339
  0
LINE
  8
0
 10
6.7661
 20
12.9339
 11
6.91525
 21
13.0613
  0
LINE
  8
0
 10
6.91525
 20
13.0613
 11
7.08249
 21
13.1638
  0
LINE
  8
0
 10
7.08249
 20
13.1638
 11
7.2637
 21
13.2388
  0
LINE
  8
0
 10
7.2637
 20
13.2388
 11
7.45444
 21
13.2846
  0
LINE
  8
0
 10
7.45444
 20
13.2846
 11
7.64998
 21
13.3
  0
LINE
  8
0
 10
7.64998
 20
13.3
 11
7.84552
 21
13.2846
  0
LINE
  8
0
 10
7.84552
 20
13.2846
 11
8.03625
 21
13.2388
  0
LINE
  8
0
 10
8.03625
 20
13.2388
 11
8.21747
 21
13.1638
  0
LINE
  8
0
 10
8.21747
 20
13.1638
 11
8.3847
 21
13.0613
  0
LINE
  8
0
 10
8.3847
 20
13.0613
 11
8.53386
 21
12.9339
  0
LINE
  8
0
 10
8.53386
 20
12.9339
 11
8.66125
 21
12.7847
  0
LINE
  8
0
 10
8.66125
 20
12.7847
 11
8.76373
 21
12.6175
  0
LINE
  8
0
 10
8.76373
 20
12.6175
 11
8.83879
 21
12.4363
  0
LINE
  8
0
 10
8.83879
 20
12.4363
 11
8.88458
 21
12.2455
  0
LINE
  8
0
 10
8.88458
 20
12.2455
 11
8.89998
 21
12.05
  0
LINE
  8
0
 10
8.89998
 20
12.05
 11
8.88458
 21
11.8545
  0
LINE
  8
0
 10
8.88458
 20
11.8545
 11
8.83879
 21
11.6637
  0
LINE
  8
0
 10
8.83879
 20
11.6637
 11
8.76373
 21
11.4825
  0
LINE
  8
0
 10
8.76373
 20
11.4825
 11
8.66125
 21
11.3153
  0
LINE
  8
0
 10
8.66125
 20
11.3153
 11
8.53386
 21
11.1661
  0
LINE
  8
0
 10
8.53386
 20
11.1661
 11
8.3847
 21
11.0387
  0
LINE
  8
0
 10
8.3847
 20
11.0387
 11
8.21747
 21
10.9362
  0
LINE
  8
0
 10
8.21747
 20
10.9362
 11
8.03625
 21
10.8612
  0
LINE
  8
0
 10
8.03625
 20
10.8612
 11
7.84552
 21
10.8154
  0
LINE
  8
0
 10
7.84552
 20
10.8154
 11
7.64998
 21
10.8
  0
LINE
  8
0
 10
7.64998
 20
10.8
 11
7.45444
 21
10.8154
  0
LINE
  8
0
 10
54.3222
 20
0.56163
 11
54.169
 21
0.595596
  0
LINE
  8
0
 10
54.169
 20
0.595596
 11
54.0229
 21
0.653107
  0
LINE
  8
0
 10
54.0229
 20
0.653107
 11
53.8878
 21
0.732758
  0
LINE
  8
0
 10
53.8878
 20
0.732758
 11
53.7667
 21
0.832565
  0
LINE
  8
0
 10
53.7667
 20
0.832565
 11
53.6627
 21
0.950089
  0
LINE
  8
0
 10
53.6627
 20
0.950089
 11
53.5784
 21
1.08244
  0
LINE
  8
0
 10
53.5784
 20
1.08244
 11
53.5158
 21
1.22633
  0
LINE
  8
0
 10
53.5158
 20
1.22633
 11
53.4765
 21
1.37827
  0
LINE
  8
0
 10
53.4765
 20
1.37827
 11
53.4615
 21
1.53445
  0
LINE
  8
0
 10
53.4615
 20
1.53445
 11
53.4711
 21
1.69107
  0
LINE
  8
0
 10
53.4711
 20
1.69107
 11
53.505
 21
1.84427
  0
LINE
  8
0
 10
53.505
 20
1.84427
 11
53.5625
 21
1.99028
  0
LINE
  8
0
 10
53.5625
 20
1.99028
 11
53.6422
 21
2.12547
  0
LINE
  8
0
 10
53.6422
 20
2.12547
 11
53.742
 21
2.24655
  0
LINE
  8
0
 10
53.742
 20
2.24655
 11
53.8595
 21
2.35056
  0
LINE
  8
0
 10
53.8595
 20
2.35056
 11
53.9919
 21
2.43486
  0
LINE
  8
0
 10
53.9919
 20
2.43486
 11
54.1358
 21
2.49742
  0
LINE
  8
0
 10
54.1358
 20
2.49742
 11
54.2877
 21
2.53673
  0
LINE
  8
0
 10
54.2877
 20
2.53673
 11
54.4439
 21
2.55176
  0
LINE
  8
0
 10
54.4439
 20
2.55176
 11
54.6005
 21
2.54218
  0
LINE
  8
0
 10
54.6005
 20
2.54218
 11
54.7537
 21
2.50821
  0
LINE
  8
0
 10
54.7537
 20
2.50821
 11
54.8997
 21
2.4507
  0
LINE
  8
0
 10
54.8997
 20
2.4507
 11
55.0349
 21
2.37105
  0
LINE
  8
0
 10
55.0349
 20
2.37105
 11
55.156
 21
2.27126
  0
LINE
  8
0
 10
55.156
 20
2.27126
 11
55.26
 21
2.15372
  0
LINE
  8
0
 10
55.26
 20
2.15372
 11
55.3443
 21
2.02138
  0
LINE
  8
0
 10
55.3443
 20
2.02138
 11
55.4069
 21
1.87749
  0
LINE
  8
0
 10
55.4069
 20
1.87749
 11
55.4462
 21
1.72556
  0
LINE
  8
0
 10
55.4462
 20
1.72556
 11
55.4612
 21
1.56935
  0
LINE
  8
0
 10
55.4612
 20
1.56935
 11
55.4516
 21
1.41273
  0
LINE
  8
0
 10
55.4516
 20
1.41273
 11
55.4176
 21
1.25954
  0
LINE
  8
0
 10
55.4176
 20
1.25954
 11
55.3601
 21
1.11353
  0
LINE
  8
0
 10
55.3601
 20
1.11353
 11
55.2805
 21
0.978333
  0
LINE
  8
0
 10
55.2805
 20
0.978333
 11
55.1807
 21
0.857254
  0
LINE
  8
0
 10
55.1807
 20
0.857254
 11
55.0631
 21
0.753265
  0
LINE
  8
0
 10
55.0631
 20
0.753265
 11
54.9308
 21
0.668961
  0
LINE
  8
0
 10
54.9308
 20
0.668961
 11
54.7869
 21
0.606384
  0
LINE
  8
0
 10
54.7869
 20
0.606384
 11
54.635
 21
0.567108
  0
LINE
  8
0
 10
54.635
 20
0.567108
 11
54.4788
 21
0.552048
  0
LINE
  8
0
 10
54.4788
 20
0.552048
 11
54.3222
 21
0.56163
  0
LINE
  8
0
 10
-54.635
 20
0.567108
 11
-54.7869
 21
0.606384
  0
LINE
  8
0
 10
-54.7869
 20
0.606384
 11
-54.9308
 21
0.668961
  0
LINE
  8
0
 10
-54.9308
 20
0.668961
 11
-55.0631
 21
0.753265
  0
LINE
  8
0
 10
-55.0631
 20
0.753265
 11
-55.1807
 21
0.857254
  0
LINE
  8
0
 10
-55.1807
 20
0.857254
 11
-55.2805
 21
0.978333
  0
LINE
  8
0
 10
-55.2805
 20
0.978333
 11
-55.3601
 21
1.11353
  0
LINE
  8
0
 10
-55.3601
 20
1.11353
 11
-55.4176
 21
1.25954
  0
LINE
  8
0
 10
-55.4176
 20
1.25954
 11
-55.4516
 21
1.41273
  0
LINE
  8
0
 10
-55.4516
 20
1.41273
 11
-55.4612
 21
1.56935
  0
LINE
  8
0
 10
-55.4612
 20
1.56935
 11
-55.4462
 21
1.72556
  0
LINE
  8
0
 10
-55.4462
 20
1.72556
 11
-55.4069
 21
1.87749
  0
LINE
  8
0
 10
-55.4069
 20
1.87749
 11
-55.3443
 21
2.02138
  0
LINE
  8
0
 10
-55.3443
 20
2.02138
 11
-55.26
 21
2.15372
  0
LINE
  8
0
 10
-55.26
 20
2.15372
 11
-55.156
 21
2.27126
  0
LINE
  8
0
 10
-55.156
 20
2.27126
 11
-55.0349
 21
2.37105
  0
LINE
  8
0
 10
-55.0349
 20
2.37105
 11
-54.8997
 21
2.4507
  0
LINE
  8
0
 10
-54.8997
 20
2.4507
 11
-54.7537
 21
2.50821
  0
LINE
  8
0
 10
-54.7537
 20
2.50821
 11
-54.6005
 21
2.54218
  0
LINE
  8
0
 10
-54.6005
 20
2.54218
 11
-54.4439
 21
2.55176
  0
LINE
  8
0
 10
-54.4439
 20
2.55176
 11
-54.2877
 21
2.53673
  0
LINE
  8
0
 10
-54.2877
 20
2.53673
 11
-54.1358
 21
2.49744
  0
LINE
  8
0
 10
-54.1358
 20
2.49744
 11
-53.9919
 21
2.43486
  0
LINE
  8
0
 10
-53.9919
 20
2.43486
 11
-53.8595
 21
2.35056
  0
LINE
  8
0
 10
-53.8595
 20
2.35056
 11
-53.742
 21
2.24657
  0
LINE
  8
0
 10
-53.742
 20
2.24657
 11
-53.6422
 21
2.12547
  0
LINE
  8
0
 10
-53.6422
 20
2.12547
 11
-53.5626
 21
1.99028
  0
LINE
  8
0
 10
-53.5626
 20
1.99028
 11
-53.505
 21
1.84427
  0
LINE
  8
0
 10
-53.505
 20
1.84427
 11
-53.4711
 21
1.69107
  0
LINE
  8
0
 10
-53.4711
 20
1.69107
 11
-53.4615
 21
1.53445
  0
LINE
  8
0
 10
-53.4615
 20
1.53445
 11
-53.4765
 21
1.37827
  0
LINE
  8
0
 10
-53.4765
 20
1.37827
 11
-53.5158
 21
1.22633
  0
LINE
  8
0
 10
-53.5158
 20
1.22633
 11
-53.5784
 21
1.08244
  0
LINE
  8
0
 10
-53.5784
 20
1.08244
 11
-53.6627
 21
0.950089
  0
LINE
  8
0
 10
-53.6627
 20
0.950089
 11
-53.7667
 21
0.832565
  0
LINE
  8
0
 10
-53.7667
 20
0.832565
 11
-53.8878
 21
0.732758
  0
LINE
  8
0
 10
-53.8878
 20
0.732758
 11
-54.023
 21
0.653122
  0
LINE
  8
0
 10
-54.023
 20
0.653122
 11
-54.169
 21
0.595596
  0
LINE
  8
0
 10
-54.169
 20
0.595596
 11
-54.3222
 21
0.561646
  0
LINE
  8
0
 10
-54.3222
 20
0.561646
 11
-54.4788
 21
0.552048
  0
LINE
  8
0
 10
-54.4788
 20
0.552048
 11
-54.635
 21
0.567108
  0
LINE
  8
0
 10
38.5652
 20
-2.21672
 11
38.4121
 21
-2.18275
  0
LINE
  8
0
 10
38.4121
 20
-2.18275
 11
38.2661
 21
-2.12524
  0
LINE
  8
0
 10
38.2661
 20
-2.12524
 11
38.1309
 21
-2.04559
  0
LINE
  8
0
 10
38.1309
 20
-2.04559
 11
38.0098
 21
-1.94579
  0
LINE
  8
0
 10
38.0098
 20
-1.94579
 11
37.9058
 21
-1.82826
  0
LINE
  8
0
 10
37.9058
 20
-1.82826
 11
37.8215
 21
-1.69592
  0
LINE
  8
0
 10
37.8215
 20
-1.69592
 11
37.7589
 21
-1.55202
  0
LINE
  8
0
 10
37.7589
 20
-1.55202
 11
37.7196
 21
-1.40009
  0
LINE
  8
0
 10
37.7196
 20
-1.40009
 11
37.7046
 21
-1.2439
  0
LINE
  8
0
 10
37.7046
 20
-1.2439
 11
37.7142
 21
-1.08728
  0
LINE
  8
0
 10
37.7142
 20
-1.08728
 11
37.7481
 21
-0.934082
  0
LINE
  8
0
 10
37.7481
 20
-0.934082
 11
37.8056
 21
-0.788071
  0
LINE
  8
0
 10
37.8056
 20
-0.788071
 11
37.8853
 21
-0.652878
  0
LINE
  8
0
 10
37.8853
 20
-0.652878
 11
37.9851
 21
-0.531799
  0
LINE
  8
0
 10
37.9851
 20
-0.531799
 11
38.1026
 21
-0.427811
  0
LINE
  8
0
 10
38.1026
 20
-0.427811
 11
38.235
 21
-0.343506
  0
LINE
  8
0
 10
38.235
 20
-0.343506
 11
38.3788
 21
-0.28093
  0
LINE
  8
0
 10
38.3788
 20
-0.28093
 11
38.5308
 21
-0.241638
  0
LINE
  8
0
 10
38.5308
 20
-0.241638
 11
38.687
 21
-0.226593
  0
LINE
  8
0
 10
38.687
 20
-0.226593
 11
38.8436
 21
-0.236176
  0
LINE
  8
0
 10
38.8436
 20
-0.236176
 11
38.9968
 21
-0.270142
  0
LINE
  8
0
 10
38.9968
 20
-0.270142
 11
39.1428
 21
-0.327652
  0
LINE
  8
0
 10
39.1428
 20
-0.327652
 11
39.278
 21
-0.407303
  0
LINE
  8
0
 10
39.278
 20
-0.407303
 11
39.3991
 21
-0.507111
  0
LINE
  8
0
 10
39.3991
 20
-0.507111
 11
39.5031
 21
-0.624634
  0
LINE
  8
0
 10
39.5031
 20
-0.624634
 11
39.5874
 21
-0.756989
  0
LINE
  8
0
 10
39.5874
 20
-0.756989
 11
39.6499
 21
-0.900879
  0
LINE
  8
0
 10
39.6499
 20
-0.900879
 11
39.6892
 21
-1.0528
  0
LINE
  8
0
 10
39.6892
 20
-1.0528
 11
39.7043
 21
-1.209
  0
LINE
  8
0
 10
39.7043
 20
-1.209
 11
39.6947
 21
-1.36562
  0
LINE
  8
0
 10
39.6947
 20
-1.36562
 11
39.6607
 21
-1.51881
  0
LINE
  8
0
 10
39.6607
 20
-1.51881
 11
39.6032
 21
-1.66483
  0
LINE
  8
0
 10
39.6032
 20
-1.66483
 11
39.5236
 21
-1.80002
  0
LINE
  8
0
 10
39.5236
 20
-1.80002
 11
39.4238
 21
-1.9211
  0
LINE
  8
0
 10
39.4238
 20
-1.9211
 11
39.3062
 21
-2.0251
  0
LINE
  8
0
 10
39.3062
 20
-2.0251
 11
39.1739
 21
-2.10941
  0
LINE
  8
0
 10
39.1739
 20
-2.10941
 11
39.03
 21
-2.17197
  0
LINE
  8
0
 10
39.03
 20
-2.17197
 11
38.8781
 21
-2.21124
  0
LINE
  8
0
 10
38.8781
 20
-2.21124
 11
38.7219
 21
-2.2263
  0
LINE
  8
0
 10
38.7219
 20
-2.2263
 11
38.5652
 21
-2.21672
  0
LINE
  8
0
 10
-38.8781
 20
-2.21124
 11
-39.03
 21
-2.17197
  0
LINE
  8
0
 10
-39.03
 20
-2.17197
 11
-39.1739
 21
-2.10939
  0
LINE
  8
0
 10
-39.1739
 20
-2.10939
 11
-39.3062
 21
-2.02509
  0
LINE
  8
0
 10
-39.3062
 20
-2.02509
 11
-39.4238
 21
-1.9211
  0
LINE
  8
0
 10
-39.4238
 20
-1.9211
 11
-39.5236
 21
-1.80002
  0
LINE
  8
0
 10
-39.5236
 20
-1.80002
 11
-39.6032
 21
-1.66483
  0
LINE
  8
0
 10
-39.6032
 20
-1.66483
 11
-39.6607
 21
-1.51881
  0
LINE
  8
0
 10
-39.6607
 20
-1.51881
 11
-39.6947
 21
-1.36562
  0
LINE
  8
0
 10
-39.6947
 20
-1.36562
 11
-39.7043
 21
-1.209
  0
LINE
  8
0
 10
-39.7043
 20
-1.209
 11
-39.6892
 21
-1.0528
  0
LINE
  8
0
 10
-39.6892
 20
-1.0528
 11
-39.6499
 21
-0.900879
  0
LINE
  8
0
 10
-39.6499
 20
-0.900879
 11
-39.5874
 21
-0.756973
  0
LINE
  8
0
 10
-39.5874
 20
-0.756973
 11
-39.5031
 21
-0.624634
  0
LINE
  8
0
 10
-39.5031
 20
-0.624634
 11
-39.3991
 21
-0.507095
  0
LINE
  8
0
 10
-39.3991
 20
-0.507095
 11
-39.278
 21
-0.407303
  0
LINE
  8
0
 10
-39.278
 20
-0.407303
 11
-39.1428
 21
-0.327652
  0
LINE
  8
0
 10
-39.1428
 20
-0.327652
 11
-38.9968
 21
-0.270142
  0
LINE
  8
0
 10
-38.9968
 20
-0.270142
 11
-38.8436
 21
-0.236176
  0
LINE
  8
0
 10
-38.8436
 20
-0.236176
 11
-38.687
 21
-0.226593
  0
LINE
  8
0
 10
-38.687
 20
-0.226593
 11
-38.5308
 21
-0.241638
  0
LINE
  8
0
 10
-38.5308
 20
-0.241638
 11
-38.3788
 21
-0.28093
  0
LINE
  8
0
 10
-38.3788
 20
-0.28093
 11
-38.235
 21
-0.343506
  0
LINE
  8
0
 10
-38.235
 20
-0.343506
 11
-38.1026
 21
-0.427811
  0
LINE
  8
0
 10
-38.1026
 20
-0.427811
 11
-37.9851
 21
-0.531799
  0
LINE
  8
0
 10
-37.9851
 20
-0.531799
 11
-37.8853
 21
-0.652878
  0
LINE
  8
0
 10
-37.8853
 20
-0.652878
 11
-37.8056
 21
-0.788071
  0
LINE
  8
0
 10
-37.8056
 20
-0.788071
 11
-37.7481
 21
-0.934082
  0
LINE
  8
0
 10
-37.7481
 20
-0.934082
 11
-37.7142
 21
-1.08728
  0
LINE
  8
0
 10
-37.7142
 20
-1.08728
 11
-37.7046
 21
-1.2439
  0
LINE
  8
0
 10
-37.7046
 20
-1.2439
 11
-37.7196
 21
-1.40009
  0
LINE
  8
0
 10
-37.7196
 20
-1.40009
 11
-37.7589
 21
-1.55202
  0
LINE
  8
0
 10
-37.7589
 20
-1.55202
 11
-37.8215
 21
-1.69592
  0
LINE
  8
0
 10
-37.8215
 20
-1.69592
 11
-37.9058
 21
-1.82826
  0
LINE
  8
0
 10
-37.9058
 20
-1.82826
 11
-38.0098
 21
-1.94579
  0
LINE
  8
0
 10
-38.0098
 20
-1.94579
 11
-38.1309
 21
-2.04559
  0
LINE
  8
0
 10
-38.1309
 20
-2.04559
 11
-38.2661
 21
-2.12524
  0
LINE
  8
0
 10
-38.2661
 20
-2.12524
 11
-38.4121
 21
-2.18275
  0
LINE
  8
0
 10
-38.4121
 20
-2.18275
 11
-38.5652
 21
-2.21672
  0
LINE
  8
0
 10
-38.5652
 20
-2.21672
 11
-38.7219
 21
-2.2263
  0
LINE
  8
0
 10
-38.7219
 20
-2.2263
 11
-38.8781
 21
-2.21124
  0
LINE
  8
0
 10
45.8649
 20
-3.25208
 11
49.1148
 21
-2.67892
  0
LINE
  8
0
 10
49.1148
 20
-2.67892
 11
50.8034
 21
-12.2548
  0
LINE
  8
0
 10
50.8034
 20
-12.2548
 11
47.5533
 21
-12.8279
  0
LINE
  8
0
 10
47.5533
 20
-12.8279
 11
45.8649
 21
-3.25208
  0
LINE
  8
0
 10
-50.8033
 20
-12.2549
 11
-49.1149
 21
-2.679
  0
LINE
  8
0
 10
-49.1149
 20
-2.679
 11
-45.8649
 21
-3.25197
  0
LINE
  8
0
 10
-45.8649
 20
-3.25197
 11
-47.5534
 21
-12.8279
  0
LINE
  8
0
 10
-47.5534
 20
-12.8279
 11
-50.8033
 21
-12.2549
  0
LINE
  8
0
 10
-56.0242
 20
-7.31134
 11
-56.1761
 21
-7.27206
  0
LINE
  8
0
 10
-56.1761
 20
-7.27206
 11
-56.32
 21
-7.20949
  0
LINE
  8
0
 10
-56.32
 20
-7.20949
 11
-56.4523
 21
-7.12518
  0
LINE
  8
0
 10
-56.4523
 20
-7.12518
 11
-56.5699
 21
-7.02119
  0
LINE
  8
0
 10
-56.5699
 20
-7.02119
 11
-56.6697
 21
-6.90012
  0
LINE
  8
0
 10
-56.6697
 20
-6.90012
 11
-56.7493
 21
-6.76492
  0
LINE
  8
0
 10
-56.7493
 20
-6.76492
 11
-56.8068
 21
-6.61891
  0
LINE
  8
0
 10
-56.8068
 20
-6.61891
 11
-56.8408
 21
-6.46571
  0
LINE
  8
0
 10
-56.8408
 20
-6.46571
 11
-56.8504
 21
-6.3091
  0
LINE
  8
0
 10
-56.8504
 20
-6.3091
 11
-56.8353
 21
-6.15288
  0
LINE
  8
0
 10
-56.8353
 20
-6.15288
 11
-56.796
 21
-6.00096
  0
LINE
  8
0
 10
-56.796
 20
-6.00096
 11
-56.7335
 21
-5.85707
  0
LINE
  8
0
 10
-56.7335
 20
-5.85707
 11
-56.6492
 21
-5.72473
  0
LINE
  8
0
 10
-56.6492
 20
-5.72473
 11
-56.5452
 21
-5.60719
  0
LINE
  8
0
 10
-56.5452
 20
-5.60719
 11
-56.4241
 21
-5.5074
  0
LINE
  8
0
 10
-56.4241
 20
-5.5074
 11
-56.2889
 21
-5.42775
  0
LINE
  8
0
 10
-56.2889
 20
-5.42775
 11
-56.1429
 21
-5.37022
  0
LINE
  8
0
 10
-56.1429
 20
-5.37022
 11
-55.9897
 21
-5.33627
  0
LINE
  8
0
 10
-55.9897
 20
-5.33627
 11
-55.8331
 21
-5.32669
  0
LINE
  8
0
 10
-55.8331
 20
-5.32669
 11
-55.6769
 21
-5.34172
  0
LINE
  8
0
 10
-55.6769
 20
-5.34172
 11
-55.525
 21
-5.38101
  0
LINE
  8
0
 10
-55.525
 20
-5.38101
 11
-55.3811
 21
-5.44359
  0
LINE
  8
0
 10
-55.3811
 20
-5.44359
 11
-55.2487
 21
-5.52789
  0
LINE
  8
0
 10
-55.2487
 20
-5.52789
 11
-55.1312
 21
-5.63188
  0
LINE
  8
0
 10
-55.1312
 20
-5.63188
 11
-55.0314
 21
-5.75298
  0
LINE
  8
0
 10
-55.0314
 20
-5.75298
 11
-54.9517
 21
-5.88817
  0
LINE
  8
0
 10
-54.9517
 20
-5.88817
 11
-54.8942
 21
-6.03416
  0
LINE
  8
0
 10
-54.8942
 20
-6.03416
 11
-54.8603
 21
-6.18736
  0
LINE
  8
0
 10
-54.8603
 20
-6.18736
 11
-54.8507
 21
-6.34398
  0
LINE
  8
0
 10
-54.8507
 20
-6.34398
 11
-54.8657
 21
-6.50018
  0
LINE
  8
0
 10
-54.8657
 20
-6.50018
 11
-54.905
 21
-6.65211
  0
LINE
  8
0
 10
-54.905
 20
-6.65211
 11
-54.9676
 21
-6.79601
  0
LINE
  8
0
 10
-54.9676
 20
-6.79601
 11
-55.0519
 21
-6.92834
  0
LINE
  8
0
 10
-55.0519
 20
-6.92834
 11
-55.1559
 21
-7.04588
  0
LINE
  8
0
 10
-55.1559
 20
-7.04588
 11
-55.277
 21
-7.14568
  0
LINE
  8
0
 10
-55.277
 20
-7.14568
 11
-55.4122
 21
-7.22533
  0
LINE
  8
0
 10
-55.4122
 20
-7.22533
 11
-55.5582
 21
-7.28285
  0
LINE
  8
0
 10
-55.5582
 20
-7.28285
 11
-55.7114
 21
-7.3168
  0
LINE
  8
0
 10
-55.7114
 20
-7.3168
 11
-55.868
 21
-7.32639
  0
LINE
  8
0
 10
-55.868
 20
-7.32639
 11
-56.0242
 21
-7.31134
  0
LINE
  8
0
 10
55.7113
 20
-7.3168
 11
55.5582
 21
-7.28285
  0
LINE
  8
0
 10
55.5582
 20
-7.28285
 11
55.4121
 21
-7.22533
  0
LINE
  8
0
 10
55.4121
 20
-7.22533
 11
55.2769
 21
-7.14569
  0
LINE
  8
0
 10
55.2769
 20
-7.14569
 11
55.1559
 21
-7.04588
  0
LINE
  8
0
 10
55.1559
 20
-7.04588
 11
55.0519
 21
-6.92836
  0
LINE
  8
0
 10
55.0519
 20
-6.92836
 11
54.9676
 21
-6.79601
  0
LINE
  8
0
 10
54.9676
 20
-6.79601
 11
54.905
 21
-6.65211
  0
LINE
  8
0
 10
54.905
 20
-6.65211
 11
54.8657
 21
-6.50018
  0
LINE
  8
0
 10
54.8657
 20
-6.50018
 11
54.8507
 21
-6.34399
  0
LINE
  8
0
 10
54.8507
 20
-6.34399
 11
54.8602
 21
-6.18738
  0
LINE
  8
0
 10
54.8602
 20
-6.18738
 11
54.8942
 21
-6.03418
  0
LINE
  8
0
 10
54.8942
 20
-6.03418
 11
54.9517
 21
-5.88817
  0
LINE
  8
0
 10
54.9517
 20
-5.88817
 11
55.0314
 21
-5.75298
  0
LINE
  8
0
 10
55.0314
 20
-5.75298
 11
55.1312
 21
-5.63188
  0
LINE
  8
0
 10
55.1312
 20
-5.63188
 11
55.2487
 21
-5.52789
  0
LINE
  8
0
 10
55.2487
 20
-5.52789
 11
55.381
 21
-5.44359
  0
LINE
  8
0
 10
55.381
 20
-5.44359
 11
55.5249
 21
-5.38101
  0
LINE
  8
0
 10
55.5249
 20
-5.38101
 11
55.6769
 21
-5.34172
  0
LINE
  8
0
 10
55.6769
 20
-5.34172
 11
55.8331
 21
-5.32669
  0
LINE
  8
0
 10
55.8331
 20
-5.32669
 11
55.9897
 21
-5.33627
  0
LINE
  8
0
 10
55.9897
 20
-5.33627
 11
56.1429
 21
-5.37022
  0
LINE
  8
0
 10
56.1429
 20
-5.37022
 11
56.2889
 21
-5.42775
  0
LINE
  8
0
 10
56.2889
 20
-5.42775
 11
56.4241
 21
-5.5074
  0
LINE
  8
0
 10
56.4241
 20
-5.5074
 11
56.5452
 21
-5.60719
  0
LINE
  8
0
 10
56.5452
 20
-5.60719
 11
56.6492
 21
-5.72473
  0
LINE
  8
0
 10
56.6492
 20
-5.72473
 11
56.7335
 21
-5.85707
  0
LINE
  8
0
 10
56.7335
 20
-5.85707
 11
56.796
 21
-6.00096
  0
LINE
  8
0
 10
56.796
 20
-6.00096
 11
56.8353
 21
-6.15288
  0
LINE
  8
0
 10
56.8353
 20
-6.15288
 11
56.8504
 21
-6.3091
  0
LINE
  8
0
 10
56.8504
 20
-6.3091
 11
56.8408
 21
-6.46571
  0
LINE
  8
0
 10
56.8408
 20
-6.46571
 11
56.8068
 21
-6.61891
  0
LINE
  8
0
 10
56.8068
 20
-6.61891
 11
56.7493
 21
-6.76492
  0
LINE
  8
0
 10
56.7493
 20
-6.76492
 11
56.6697
 21
-6.90012
  0
LINE
  8
0
 10
56.6697
 20
-6.90012
 11
56.5699
 21
-7.02119
  0
LINE
  8
0
 10
56.5699
 20
-7.02119
 11
56.4523
 21
-7.12518
  0
LINE
  8
0
 10
56.4523
 20
-7.12518
 11
56.32
 21
-7.20949
  0
LINE
  8
0
 10
56.32
 20
-7.20949
 11
56.1761
 21
-7.27206
  0
LINE
  8
0
 10
56.1761
 20
-7.27206
 11
56.0242
 21
-7.31134
  0
LINE
  8
0
 10
56.0242
 20
-7.31134
 11
55.868
 21
-7.3264
  0
LINE
  8
0
 10
55.868
 20
-7.3264
 11
55.7113
 21
-7.3168
  0
LINE
  8
0
 10
39.9544
 20
-10.0952
 11
39.8012
 21
-10.0612
  0
LINE
  8
0
 10
39.8012
 20
-10.0612
 11
39.6552
 21
-10.0037
  0
LINE
  8
0
 10
39.6552
 20
-10.0037
 11
39.52
 21
-9.92406
  0
LINE
  8
0
 10
39.52
 20
-9.92406
 11
39.399
 21
-9.82425
  0
LINE
  8
0
 10
39.399
 20
-9.82425
 11
39.295
 21
-9.70673
  0
LINE
  8
0
 10
39.295
 20
-9.70673
 11
39.2107
 21
-9.57437
  0
LINE
  8
0
 10
39.2107
 20
-9.57437
 11
39.1481
 21
-9.43048
  0
LINE
  8
0
 10
39.1481
 20
-9.43048
 11
39.1088
 21
-9.27855
  0
LINE
  8
0
 10
39.1088
 20
-9.27855
 11
39.0938
 21
-9.12236
  0
LINE
  8
0
 10
39.0938
 20
-9.12236
 11
39.1033
 21
-8.96574
  0
LINE
  8
0
 10
39.1033
 20
-8.96574
 11
39.1373
 21
-8.81255
  0
LINE
  8
0
 10
39.1373
 20
-8.81255
 11
39.1948
 21
-8.66653
  0
LINE
  8
0
 10
39.1948
 20
-8.66653
 11
39.2745
 21
-8.53134
  0
LINE
  8
0
 10
39.2745
 20
-8.53134
 11
39.3743
 21
-8.41026
  0
LINE
  8
0
 10
39.3743
 20
-8.41026
 11
39.4918
 21
-8.30626
  0
LINE
  8
0
 10
39.4918
 20
-8.30626
 11
39.6241
 21
-8.22195
  0
LINE
  8
0
 10
39.6241
 20
-8.22195
 11
39.768
 21
-8.15939
  0
LINE
  8
0
 10
39.768
 20
-8.15939
 11
39.92
 21
-8.1201
  0
LINE
  8
0
 10
39.92
 20
-8.1201
 11
40.0761
 21
-8.10506
  0
LINE
  8
0
 10
40.0761
 20
-8.10506
 11
40.2328
 21
-8.11464
  0
LINE
  8
0
 10
40.2328
 20
-8.11464
 11
40.386
 21
-8.14861
  0
LINE
  8
0
 10
40.386
 20
-8.14861
 11
40.532
 21
-8.20612
  0
LINE
  8
0
 10
40.532
 20
-8.20612
 11
40.6672
 21
-8.28577
  0
LINE
  8
0
 10
40.6672
 20
-8.28577
 11
40.7883
 21
-8.38557
  0
LINE
  8
0
 10
40.7883
 20
-8.38557
 11
40.8922
 21
-8.5031
  0
LINE
  8
0
 10
40.8922
 20
-8.5031
 11
40.9765
 21
-8.63544
  0
LINE
  8
0
 10
40.9765
 20
-8.63544
 11
41.0391
 21
-8.77934
  0
LINE
  8
0
 10
41.0391
 20
-8.77934
 11
41.0784
 21
-8.93126
  0
LINE
  8
0
 10
41.0784
 20
-8.93126
 11
41.0934
 21
-9.08746
  0
LINE
  8
0
 10
41.0934
 20
-9.08746
 11
41.0839
 21
-9.24408
  0
LINE
  8
0
 10
41.0839
 20
-9.24408
 11
41.0499
 21
-9.39728
  0
LINE
  8
0
 10
41.0499
 20
-9.39728
 11
40.9924
 21
-9.54329
  0
LINE
  8
0
 10
40.9924
 20
-9.54329
 11
40.9127
 21
-9.67848
  0
LINE
  8
0
 10
40.9127
 20
-9.67848
 11
40.8129
 21
-9.79956
  0
LINE
  8
0
 10
40.8129
 20
-9.79956
 11
40.6954
 21
-9.90355
  0
LINE
  8
0
 10
40.6954
 20
-9.90355
 11
40.5631
 21
-9.98785
  0
LINE
  8
0
 10
40.5631
 20
-9.98785
 11
40.4192
 21
-10.0504
  0
LINE
  8
0
 10
40.4192
 20
-10.0504
 11
40.2672
 21
-10.0897
  0
LINE
  8
0
 10
40.2672
 20
-10.0897
 11
40.1111
 21
-10.1048
  0
LINE
  8
0
 10
40.1111
 20
-10.1048
 11
39.9544
 21
-10.0952
  0
LINE
  8
0
 10
-40.2672
 20
-10.0897
 11
-40.4192
 21
-10.0504
  0
LINE
  8
0
 10
-40.4192
 20
-10.0504
 11
-40.5631
 21
-9.98785
  0
LINE
  8
0
 10
-40.5631
 20
-9.98785
 11
-40.6954
 21
-9.90355
  0
LINE
  8
0
 10
-40.6954
 20
-9.90355
 11
-40.813
 21
-9.79956
  0
LINE
  8
0
 10
-40.813
 20
-9.79956
 11
-40.9128
 21
-9.67848
  0
LINE
  8
0
 10
-40.9128
 20
-9.67848
 11
-40.9924
 21
-9.54329
  0
LINE
  8
0
 10
-40.9924
 20
-9.54329
 11
-41.0499
 21
-9.39728
  0
LINE
  8
0
 10
-41.0499
 20
-9.39728
 11
-41.0839
 21
-9.24408
  0
LINE
  8
0
 10
-41.0839
 20
-9.24408
 11
-41.0935
 21
-9.08746
  0
LINE
  8
0
 10
-41.0935
 20
-9.08746
 11
-41.0784
 21
-8.93126
  0
LINE
  8
0
 10
-41.0784
 20
-8.93126
 11
-41.0391
 21
-8.77933
  0
LINE
  8
0
 10
-41.0391
 20
-8.77933
 11
-40.9766
 21
-8.63544
  0
LINE
  8
0
 10
-40.9766
 20
-8.63544
 11
-40.8923
 21
-8.5031
  0
LINE
  8
0
 10
-40.8923
 20
-8.5031
 11
-40.7883
 21
-8.38556
  0
LINE
  8
0
 10
-40.7883
 20
-8.38556
 11
-40.6672
 21
-8.28577
  0
LINE
  8
0
 10
-40.6672
 20
-8.28577
 11
-40.532
 21
-8.20612
  0
LINE
  8
0
 10
-40.532
 20
-8.20612
 11
-40.386
 21
-8.14861
  0
LINE
  8
0
 10
-40.386
 20
-8.14861
 11
-40.2328
 21
-8.11464
  0
LINE
  8
0
 10
-40.2328
 20
-8.11464
 11
-40.0762
 21
-8.10506
  0
LINE
  8
0
 10
-40.0762
 20
-8.10506
 11
-39.92
 21
-8.1201
  0
LINE
  8
0
 10
-39.92
 20
-8.1201
 11
-39.768
 21
-8.15939
  0
LINE
  8
0
 10
-39.768
 20
-8.15939
 11
-39.6241
 21
-8.22195
  0
LINE
  8
0
 10
-39.6241
 20
-8.22195
 11
-39.4918
 21
-8.30626
  0
LINE
  8
0
 10
-39.4918
 20
-8.30626
 11
-39.3743
 21
-8.41026
  0
LINE
  8
0
 10
-39.3743
 20
-8.41026
 11
-39.2745
 21
-8.53134
  0
LINE
  8
0
 10
-39.2745
 20
-8.53134
 11
-39.1948
 21
-8.66653
  0
LINE
  8
0
 10
-39.1948
 20
-8.66653
 11
-39.1373
 21
-8.81255
  0
LINE
  8
0
 10
-39.1373
 20
-8.81255
 11
-39.1033
 21
-8.96574
  0
LINE
  8
0
 10
-39.1033
 20
-8.96574
 11
-39.0938
 21
-9.12236
  0
LINE
  8
0
 10
-39.0938
 20
-9.12236
 11
-39.1088
 21
-9.27855
  0
LINE
  8
0
 10
-39.1088
 20
-9.27855
 11
-39.1481
 21
-9.43048
  0
LINE
  8
0
 10
-39.1481
 20
-9.43048
 11
-39.2107
 21
-9.57437
  0
LINE
  8
0
 10
-39.2107
 20
-9.57437
 11
-39.295
 21
-9.70673
  0
LINE
  8
0
 10
-39.295
 20
-9.70673
 11
-39.399
 21
-9.82425
  0
LINE
  8
0
 10
-39.399
 20
-9.82425
 11
-39.52
 21
-9.92406
  0
LINE
  8
0
 10
-39.52
 20
-9.92406
 11
-39.6552
 21
-10.0037
  0
LINE
  8
0
 10
-39.6552
 20
-10.0037
 11
-39.8012
 21
-10.0612
  0
LINE
  8
0
 10
-39.8012
 20
-10.0612
 11
-39.9544
 21
-10.0952
  0
LINE
  8
0
 10
-39.9544
 20
-10.0952
 11
-40.1111
 21
-10.1048
  0
LINE
  8
0
 10
-40.1111
 20
-10.1048
 11
-40.2672
 21
-10.0897
  0
LINE
  8
0
 10
57.1005
 20
-15.1953
 11
56.9473
 21
-15.1613
  0
LINE
  8
0
 10
56.9473
 20
-15.1613
 11
56.8013
 21
-15.1038
  0
LINE
  8
0
 10
56.8013
 20
-15.1038
 11
56.6661
 21
-15.0241
  0
LINE
  8
0
 10
56.6661
 20
-15.0241
 11
56.545
 21
-14.9243
  0
LINE
  8
0
 10
56.545
 20
-14.9243
 11
56.4411
 21
-14.8068
  0
LINE
  8
0
 10
56.4411
 20
-14.8068
 11
56.3568
 21
-14.6745
  0
LINE
  8
0
 10
56.3568
 20
-14.6745
 11
56.2942
 21
-14.5306
  0
LINE
  8
0
 10
56.2942
 20
-14.5306
 11
56.2549
 21
-14.3786
  0
LINE
  8
0
 10
56.2549
 20
-14.3786
 11
56.2399
 21
-14.2225
  0
LINE
  8
0
 10
56.2399
 20
-14.2225
 11
56.2494
 21
-14.0658
  0
LINE
  8
0
 10
56.2494
 20
-14.0658
 11
56.2834
 21
-13.9126
  0
LINE
  8
0
 10
56.2834
 20
-13.9126
 11
56.3409
 21
-13.7666
  0
LINE
  8
0
 10
56.3409
 20
-13.7666
 11
56.4206
 21
-13.6314
  0
LINE
  8
0
 10
56.4206
 20
-13.6314
 11
56.5204
 21
-13.5103
  0
LINE
  8
0
 10
56.5204
 20
-13.5103
 11
56.6379
 21
-13.4064
  0
LINE
  8
0
 10
56.6379
 20
-13.4064
 11
56.7702
 21
-13.3221
  0
LINE
  8
0
 10
56.7702
 20
-13.3221
 11
56.9141
 21
-13.2595
  0
LINE
  8
0
 10
56.9141
 20
-13.2595
 11
57.0661
 21
-13.2202
  0
LINE
  8
0
 10
57.0661
 20
-13.2202
 11
57.2223
 21
-13.2052
  0
LINE
  8
0
 10
57.2223
 20
-13.2052
 11
57.3789
 21
-13.2147
  0
LINE
  8
0
 10
57.3789
 20
-13.2147
 11
57.5321
 21
-13.2487
  0
LINE
  8
0
 10
57.5321
 20
-13.2487
 11
57.6781
 21
-13.3062
  0
LINE
  8
0
 10
57.6781
 20
-13.3062
 11
57.8133
 21
-13.3859
  0
LINE
  8
0
 10
57.8133
 20
-13.3859
 11
57.9344
 21
-13.4857
  0
LINE
  8
0
 10
57.9344
 20
-13.4857
 11
58.0383
 21
-13.6032
  0
LINE
  8
0
 10
58.0383
 20
-13.6032
 11
58.1227
 21
-13.7355
  0
LINE
  8
0
 10
58.1227
 20
-13.7355
 11
58.1852
 21
-13.8794
  0
LINE
  8
0
 10
58.1852
 20
-13.8794
 11
58.2245
 21
-14.0313
  0
LINE
  8
0
 10
58.2245
 20
-14.0313
 11
58.2395
 21
-14.1875
  0
LINE
  8
0
 10
58.2395
 20
-14.1875
 11
58.23
 21
-14.3442
  0
LINE
  8
0
 10
58.23
 20
-14.3442
 11
58.196
 21
-14.4974
  0
LINE
  8
0
 10
58.196
 20
-14.4974
 11
58.1385
 21
-14.6434
  0
LINE
  8
0
 10
58.1385
 20
-14.6434
 11
58.0588
 21
-14.7786
  0
LINE
  8
0
 10
58.0588
 20
-14.7786
 11
57.959
 21
-14.8996
  0
LINE
  8
0
 10
57.959
 20
-14.8996
 11
57.8415
 21
-15.0036
  0
LINE
  8
0
 10
57.8415
 20
-15.0036
 11
57.7092
 21
-15.0879
  0
LINE
  8
0
 10
57.7092
 20
-15.0879
 11
57.5653
 21
-15.1505
  0
LINE
  8
0
 10
57.5653
 20
-15.1505
 11
57.4134
 21
-15.1898
  0
LINE
  8
0
 10
57.4134
 20
-15.1898
 11
57.2571
 21
-15.2048
  0
LINE
  8
0
 10
57.2571
 20
-15.2048
 11
57.1005
 21
-15.1953
  0
LINE
  8
0
 10
-57.4134
 20
-15.1898
 11
-57.5653
 21
-15.1505
  0
LINE
  8
0
 10
-57.5653
 20
-15.1505
 11
-57.7092
 21
-15.0879
  0
LINE
  8
0
 10
-57.7092
 20
-15.0879
 11
-57.8415
 21
-15.0036
  0
LINE
  8
0
 10
-57.8415
 20
-15.0036
 11
-57.959
 21
-14.8996
  0
LINE
  8
0
 10
-57.959
 20
-14.8996
 11
-58.0588
 21
-14.7786
  0
LINE
  8
0
 10
-58.0588
 20
-14.7786
 11
-58.1385
 21
-14.6434
  0
LINE
  8
0
 10
-58.1385
 20
-14.6434
 11
-58.196
 21
-14.4974
  0
LINE
  8
0
 10
-58.196
 20
-14.4974
 11
-58.23
 21
-14.3442
  0
LINE
  8
0
 10
-58.23
 20
-14.3442
 11
-58.2395
 21
-14.1875
  0
LINE
  8
0
 10
-58.2395
 20
-14.1875
 11
-58.2245
 21
-14.0313
  0
LINE
  8
0
 10
-58.2245
 20
-14.0313
 11
-58.1852
 21
-13.8794
  0
LINE
  8
0
 10
-58.1852
 20
-13.8794
 11
-58.1227
 21
-13.7355
  0
LINE
  8
0
 10
-58.1227
 20
-13.7355
 11
-58.0383
 21
-13.6032
  0
LINE
  8
0
 10
-58.0383
 20
-13.6032
 11
-57.9344
 21
-13.4857
  0
LINE
  8
0
 10
-57.9344
 20
-13.4857
 11
-57.8133
 21
-13.3859
  0
LINE
  8
0
 10
-57.8133
 20
-13.3859
 11
-57.6781
 21
-13.3062
  0
LINE
  8
0
 10
-57.6781
 20
-13.3062
 11
-57.5321
 21
-13.2487
  0
LINE
  8
0
 10
-57.5321
 20
-13.2487
 11
-57.3789
 21
-13.2147
  0
LINE
  8
0
 10
-57.3789
 20
-13.2147
 11
-57.2223
 21
-13.2052
  0
LINE
  8
0
 10
-57.2223
 20
-13.2052
 11
-57.0661
 21
-13.2202
  0
LINE
  8
0
 10
-57.0661
 20
-13.2202
 11
-56.9141
 21
-13.2595
  0
LINE
  8
0
 10
-56.9141
 20
-13.2595
 11
-56.7702
 21
-13.3221
  0
LINE
  8
0
 10
-56.7702
 20
-13.3221
 11
-56.6379
 21
-13.4064
  0
LINE
  8
0
 10
-56.6379
 20
-13.4064
 11
-56.5204
 21
-13.5103
  0
LINE
  8
0
 10
-56.5204
 20
-13.5103
 11
-56.4206
 21
-13.6314
  0
LINE
  8
0
 10
-56.4206
 20
-13.6314
 11
-56.3409
 21
-13.7666
  0
LINE
  8
0
 10
-56.3409
 20
-13.7666
 11
-56.2834
 21
-13.9126
  0
LINE
  8
0
 10
-56.2834
 20
-13.9126
 11
-56.2495
 21
-14.0658
  0
LINE
  8
0
 10
-56.2495
 20
-14.0658
 11
-56.2399
 21
-14.2224
  0
LINE
  8
0
 10
-56.2399
 20
-14.2224
 11
-56.2549
 21
-14.3786
  0
LINE
  8
0
 10
-56.2549
 20
-14.3786
 11
-56.2942
 21
-14.5306
  0
LINE
  8
0
 10
-56.2942
 20
-14.5306
 11
-56.3568
 21
-14.6745
  0
LINE
  8
0
 10
-56.3568
 20
-14.6745
 11
-56.4411
 21
-14.8068
  0
LINE
  8
0
 10
-56.4411
 20
-14.8068
 11
-56.5451
 21
-14.9243
  0
LINE
  8
0
 10
-56.5451
 20
-14.9243
 11
-56.6661
 21
-15.0241
  0
LINE
  8
0
 10
-56.6661
 20
-15.0241
 11
-56.8013
 21
-15.1038
  0
LINE
  8
0
 10
-56.8013
 20
-15.1038
 11
-56.9473
 21
-15.1613
  0
LINE
  8
0
 10
-56.9473
 20
-15.1613
 11
-57.1005
 21
-15.1953
  0
LINE
  8
0
 10
-57.1005
 20
-15.1953
 11
-57.2572
 21
-15.2048
  0
LINE
  8
0
 10
-57.2572
 20
-15.2048
 11
-57.4134
 21
-15.1898
  0
LINE
  8
0
 10
41.3436
 20
-17.9736
 11
41.1904
 21
-17.9397
  0
LINE
  8
0
 10
41.1904
 20
-17.9397
 11
41.0444
 21
-17.8821
  0
LINE
  8
0
 10
41.0444
 20
-17.8821
 11
40.9092
 21
-17.8025
  0
LINE
  8
0
 10
40.9092
 20
-17.8025
 11
40.7881
 21
-17.7027
  0
LINE
  8
0
 10
40.7881
 20
-17.7027
 11
40.6841
 21
-17.5852
  0
LINE
  8
0
 10
40.6841
 20
-17.5852
 11
40.5998
 21
-17.4528
  0
LINE
  8
0
 10
40.5998
 20
-17.4528
 11
40.5373
 21
-17.3089
  0
LINE
  8
0
 10
40.5373
 20
-17.3089
 11
40.498
 21
-17.157
  0
LINE
  8
0
 10
40.498
 20
-17.157
 11
40.4829
 21
-17.0008
  0
LINE
  8
0
 10
40.4829
 20
-17.0008
 11
40.4925
 21
-16.8442
  0
LINE
  8
0
 10
40.4925
 20
-16.8442
 11
40.5265
 21
-16.691
  0
LINE
  8
0
 10
40.5265
 20
-16.691
 11
40.584
 21
-16.545
  0
LINE
  8
0
 10
40.584
 20
-16.545
 11
40.6637
 21
-16.4098
  0
LINE
  8
0
 10
40.6637
 20
-16.4098
 11
40.7634
 21
-16.2887
  0
LINE
  8
0
 10
40.7634
 20
-16.2887
 11
40.881
 21
-16.1847
  0
LINE
  8
0
 10
40.881
 20
-16.1847
 11
41.0133
 21
-16.1004
  0
LINE
  8
0
 10
41.0133
 20
-16.1004
 11
41.1572
 21
-16.0378
  0
LINE
  8
0
 10
41.1572
 20
-16.0378
 11
41.3091
 21
-15.9986
  0
LINE
  8
0
 10
41.3091
 20
-15.9986
 11
41.4653
 21
-15.9835
  0
LINE
  8
0
 10
41.4653
 20
-15.9835
 11
41.6219
 21
-15.9931
  0
LINE
  8
0
 10
41.6219
 20
-15.9931
 11
41.7751
 21
-16.0271
  0
LINE
  8
0
 10
41.7751
 20
-16.0271
 11
41.9212
 21
-16.0846
  0
LINE
  8
0
 10
41.9212
 20
-16.0846
 11
42.0564
 21
-16.1642
  0
LINE
  8
0
 10
42.0564
 20
-16.1642
 11
42.1774
 21
-16.264
  0
LINE
  8
0
 10
42.1774
 20
-16.264
 11
42.2814
 21
-16.3816
  0
LINE
  8
0
 10
42.2814
 20
-16.3816
 11
42.3657
 21
-16.5139
  0
LINE
  8
0
 10
42.3657
 20
-16.5139
 11
42.4283
 21
-16.6578
  0
LINE
  8
0
 10
42.4283
 20
-16.6578
 11
42.4676
 21
-16.8097
  0
LINE
  8
0
 10
42.4676
 20
-16.8097
 11
42.4826
 21
-16.9659
  0
LINE
  8
0
 10
42.4826
 20
-16.9659
 11
42.473
 21
-17.1225
  0
LINE
  8
0
 10
42.473
 20
-17.1225
 11
42.4391
 21
-17.2757
  0
LINE
  8
0
 10
42.4391
 20
-17.2757
 11
42.3816
 21
-17.4217
  0
LINE
  8
0
 10
42.3816
 20
-17.4217
 11
42.3019
 21
-17.5569
  0
LINE
  8
0
 10
42.3019
 20
-17.5569
 11
42.2021
 21
-17.678
  0
LINE
  8
0
 10
42.2021
 20
-17.678
 11
42.0846
 21
-17.782
  0
LINE
  8
0
 10
42.0846
 20
-17.782
 11
41.9522
 21
-17.8663
  0
LINE
  8
0
 10
41.9522
 20
-17.8663
 11
41.8083
 21
-17.9289
  0
LINE
  8
0
 10
41.8083
 20
-17.9289
 11
41.6564
 21
-17.9682
  0
LINE
  8
0
 10
41.6564
 20
-17.9682
 11
41.5002
 21
-17.9832
  0
LINE
  8
0
 10
41.5002
 20
-17.9832
 11
41.3436
 21
-17.9736
  0
LINE
  8
0
 10
-41.6564
 20
-17.9682
 11
-41.8084
 21
-17.9289
  0
LINE
  8
0
 10
-41.8084
 20
-17.9289
 11
-41.9523
 21
-17.8663
  0
LINE
  8
0
 10
-41.9523
 20
-17.8663
 11
-42.0846
 21
-17.782
  0
LINE
  8
0
 10
-42.0846
 20
-17.782
 11
-42.2021
 21
-17.678
  0
LINE
  8
0
 10
-42.2021
 20
-17.678
 11
-42.3019
 21
-17.5569
  0
LINE
  8
0
 10
-42.3019
 20
-17.5569
 11
-42.3816
 21
-17.4217
  0
LINE
  8
0
 10
-42.3816
 20
-17.4217
 11
-42.4391
 21
-17.2757
  0
LINE
  8
0
 10
-42.4391
 20
-17.2757
 11
-42.4731
 21
-17.1225
  0
LINE
  8
0
 10
-42.4731
 20
-17.1225
 11
-42.4827
 21
-16.9659
  0
LINE
  8
0
 10
-42.4827
 20
-16.9659
 11
-42.4676
 21
-16.8097
  0
LINE
  8
0
 10
-42.4676
 20
-16.8097
 11
-42.4283
 21
-16.6578
  0
LINE
  8
0
 10
-42.4283
 20
-16.6578
 11
-42.3657
 21
-16.5139
  0
LINE
  8
0
 10
-42.3657
 20
-16.5139
 11
-42.2814
 21
-16.3816
  0
LINE
  8
0
 10
-42.2814
 20
-16.3816
 11
-42.1774
 21
-16.264
  0
LINE
  8
0
 10
-42.1774
 20
-16.264
 11
-42.0564
 21
-16.1642
  0
LINE
  8
0
 10
-42.0564
 20
-16.1642
 11
-41.9212
 21
-16.0846
  0
LINE
  8
0
 10
-41.9212
 20
-16.0846
 11
-41.7752
 21
-16.0271
  0
LINE
  8
0
 10
-41.7752
 20
-16.0271
 11
-41.622
 21
-15.9931
  0
LINE
  8
0
 10
-41.622
 20
-15.9931
 11
-41.4653
 21
-15.9835
  0
LINE
  8
0
 10
-41.4653
 20
-15.9835
 11
-41.3091
 21
-15.9986
  0
LINE
  8
0
 10
-41.3091
 20
-15.9986
 11
-41.1572
 21
-16.0378
  0
LINE
  8
0
 10
-41.1572
 20
-16.0378
 11
-41.0133
 21
-16.1004
  0
LINE
  8
0
 10
-41.0133
 20
-16.1004
 11
-40.881
 21
-16.1847
  0
LINE
  8
0
 10
-40.881
 20
-16.1847
 11
-40.7634
 21
-16.2887
  0
LINE
  8
0
 10
-40.7634
 20
-16.2887
 11
-40.6637
 21
-16.4098
  0
LINE
  8
0
 10
-40.6637
 20
-16.4098
 11
-40.584
 21
-16.545
  0
LINE
  8
0
 10
-40.584
 20
-16.545
 11
-40.5265
 21
-16.691
  0
LINE
  8
0
 10
-40.5265
 20
-16.691
 11
-40.4925
 21
-16.8442
  0
LINE
  8
0
 10
-40.4925
 20
-16.8442
 11
-40.4829
 21
-17.0008
  0
LINE
  8
0
 10
-40.4829
 20
-17.0008
 11
-40.498
 21
-17.157
  0
LINE
  8
0
 10
-40.498
 20
-17.157
 11
-40.5373
 21
-17.3089
  0
LINE
  8
0
 10
-40.5373
 20
-17.3089
 11
-40.5998
 21
-17.4528
  0
LINE
  8
0
 10
-40.5998
 20
-17.4528
 11
-40.6841
 21
-17.5852
  0
LINE
  8
0
 10
-40.6841
 20
-17.5852
 11
-40.7881
 21
-17.7027
  0
LINE
  8
0
 10
-40.7881
 20
-17.7027
 11
-40.9092
 21
-17.8025
  0
LINE
  8
0
 10
-40.9092
 20
-17.8025
 11
-41.0444
 21
-17.8821
  0
LINE
  8
0
 10
-41.0444
 20
-17.8821
 11
-41.1904
 21
-17.9397
  0
LINE
  8
0
 10
-41.1904
 20
-17.9397
 11
-41.3436
 21
-17.9736
  0
LINE
  8
0
 10
-41.3436
 20
-17.9736
 11
-41.5002
 21
-17.9832
  0
LINE
  8
0
 10
-41.5002
 20
-17.9832
 11
-41.6564
 21
-17.9682
  0
ENDSEC
  0
SECTION
  2
OBJECTS
  0
DICTIONARY
  0
ENDSEC
  0
EOF
