<?xml version="1.0" encoding="UTF-8" standalone="no"?>
<svg
   xmlns:dc="http://purl.org/dc/elements/1.1/"
   xmlns:cc="http://creativecommons.org/ns#"
   xmlns:rdf="http://www.w3.org/1999/02/22-rdf-syntax-ns#"
   xmlns:svg="http://www.w3.org/2000/svg"
   xmlns="http://www.w3.org/2000/svg"
   xmlns:sodipodi="http://sodipodi.sourceforge.net/DTD/sodipodi-0.dtd"
   xmlns:inkscape="http://www.inkscape.org/namespaces/inkscape"
   width="143.10435mm"
   height="132.63327mm"
   id="svg5525"
   version="1.1"
   inkscape:version="0.91 r13725"
   sodipodi:docname="tower.svg">
  <metadata
     id="metadata7829">
    <rdf:RDF>
      <cc:Work
         rdf:about="">
        <dc:format>image/svg+xml</dc:format>
        <dc:type
           rdf:resource="http://purl.org/dc/dcmitype/StillImage" />
        <dc:title></dc:title>
      </cc:Work>
    </rdf:RDF>
  </metadata>
  <sodipodi:namedview
     pagecolor="#ffffff"
     bordercolor="#666666"
     borderopacity="1"
     objecttolerance="10"
     gridtolerance="10"
     guidetolerance="10"
     inkscape:pageopacity="0"
     inkscape:pageshadow="2"
     inkscape:window-width="3734"
     inkscape:window-height="2121"
     id="namedview7827"
     showgrid="false"
     inkscape:zoom="0.89702957"
     inkscape:cx="-616.44655"
     inkscape:cy="241.6926"
     inkscape:window-x="106"
     inkscape:window-y="39"
     inkscape:window-maximized="1"
     inkscape:current-layer="g5541"
     units="mm"
     inkscape:document-units="mm"
     fit-margin-top="0"
     fit-margin-left="0"
     fit-margin-right="0"
     fit-margin-bottom="0" />
  <desc
     id="desc5527">C:\Share\Robotics\Whr_bot\Parts\61r\tower.dxf - scale = 1.000000, origin = (0.000000, 0.000000), auto = False</desc>
  <defs
     id="defs5529">
    <marker
       refY="0"
       refX="0"
       style="overflow:visible"
       id="DistanceX"
       orient="auto">
      <path
         style="stroke:#000000;stroke-width:0.5"
         d="M 3,-3 -3,3 M 0,-5 0,5"
         id="path5532"
         inkscape:connector-curvature="0" />
    </marker>
    <pattern
       height="8"
       width="8"
       patternUnits="userSpaceOnUse"
       y="0"
       x="0"
       id="Hatch">
      <path
         linecap="square"
         stroke="#000000"
         stroke-width="0.25"
         d="M8 4 l-4,4"
         id="path5535" />
      <path
         linecap="square"
         stroke="#000000"
         stroke-width="0.25"
         d="M6 2 l-4,4"
         id="path5537" />
      <path
         linecap="square"
         stroke="#000000"
         stroke-width="0.25"
         d="M4 0 l-4,4"
         id="path5539" />
    </pattern>
    <marker
       style="overflow:visible"
       refY="0"
       refX="0"
       orient="auto"
       id="DistanceX-9">
      <path
         id="path26282"
         style="stroke:#000000;stroke-width:0.5"
         d="M 3,-3 -3,3 M 0,-5 0,5"
         inkscape:connector-curvature="0" />
    </marker>
    <pattern
       y="0"
       x="0"
       width="8"
       patternUnits="userSpaceOnUse"
       id="Hatch-3"
       height="8">
      <path
         id="path26285"
         stroke-width="0.25"
         stroke="#000000"
         linecap="square"
         d="M8 4 l-4,4" />
      <path
         id="path26287"
         stroke-width="0.25"
         stroke="#000000"
         linecap="square"
         d="M6 2 l-4,4" />
      <path
         id="path26289"
         stroke-width="0.25"
         stroke="#000000"
         linecap="square"
         d="M4 0 l-4,4" />
    </pattern>
    <marker
       style="overflow:visible"
       refY="0"
       refX="0"
       orient="auto"
       id="DistanceX-6">
      <path
         id="path25678"
         style="stroke:#000000;stroke-width:0.5"
         d="M 3,-3 -3,3 M 0,-5 0,5"
         inkscape:connector-curvature="0" />
    </marker>
    <pattern
       y="0"
       x="0"
       width="8"
       patternUnits="userSpaceOnUse"
       id="Hatch-0"
       height="8">
      <path
         id="path25681"
         stroke-width="0.25"
         stroke="#000000"
         linecap="square"
         d="M8 4 l-4,4" />
      <path
         id="path25683"
         stroke-width="0.25"
         stroke="#000000"
         linecap="square"
         d="M6 2 l-4,4" />
      <path
         id="path25685"
         stroke-width="0.25"
         stroke="#000000"
         linecap="square"
         d="M4 0 l-4,4" />
    </pattern>
    <marker
       style="overflow:visible"
       refY="0"
       refX="0"
       orient="auto"
       id="DistanceX-2">
      <path
         id="path39503"
         style="stroke:#000000;stroke-width:0.5"
         d="M 3,-3 -3,3 M 0,-5 0,5"
         inkscape:connector-curvature="0" />
    </marker>
    <pattern
       y="0"
       x="0"
       width="8"
       patternUnits="userSpaceOnUse"
       id="Hatch-5"
       height="8">
      <path
         id="path39506"
         stroke-width="0.25"
         stroke="#000000"
         linecap="square"
         d="M8 4 l-4,4" />
      <path
         id="path39508"
         stroke-width="0.25"
         stroke="#000000"
         linecap="square"
         d="M6 2 l-4,4" />
      <path
         id="path39510"
         stroke-width="0.25"
         stroke="#000000"
         linecap="square"
         d="M4 0 l-4,4" />
    </pattern>
  </defs>
  <g
     inkscape:label="0"
     inkscape:groupmode="layer"
     id="g5541"
     transform="translate(-118.80875,-227.65759)">
    <path
       inkscape:connector-curvature="0"
       d="m 195.96943,681.20666 0.2048,0.0401 0.20091,0.0571 0.19559,0.072 0.18957,0.0879 0.18212,0.10145 0.17362,0.1162 0.1637,0.129 0.15308,0.1417 0.14173,0.1531 0.12933,0.164 0.11586,0.1733 0.10205,0.1821 0.0872,0.1896 0.0723,0.1959 0.0567,0.2006 0.0408,0.2048 0.0245,0.2073 0.008,0.2083 -0.008,0.2084 -0.0246,0.2073 -0.0407,0.2048 -0.0567,0.2009 -0.0723,0.1956 -0.0872,0.1895 -0.10203,0.1822 -0.11586,0.1732 -0.12933,0.1641 -0.14173,0.153 -0.15308,0.1418 -0.1637,0.1293 -0.17362,0.1159 -0.18212,0.1017 -0.18957,0.0873 -0.19559,0.0724 -0.20091,0.057 -0.2048,0.0407 -0.20728,0.0241 -0.20835,0.009 -4.34055,-9.5e-4 0,10.6296 30.53622,0 0,-9.5669 42.51968,0 0,-62.0079 0.11729,-3.7265 0.35078,-3.712 0.58323,-3.6825 0.81319,-3.6389 1.04032,-3.5804 1.26319,-3.5081 1.48074,-3.4218 1.69264,-3.3221 1.8978,-3.2093 2.09586,-3.0837 2.28508,-2.9461 2.46579,-2.7968 2.63622,-2.6365 2.53772,-2.2371 0,-27.136 0.0142,-0.445 0.0418,-0.4432 0.0695,-0.4397 0.0971,-0.4345 0.12436,-0.4275 0.15094,-0.4188 0.17681,-0.4086 0.20197,-0.3967 0.22677,-0.3832 0.25016,-0.3682 0.27283,-0.3518 0.29445,-0.3339 0.31465,-0.3148 0.33413,-0.2944 0.3515,-0.2729 0.3685,-0.2502 0.38303,-0.2267 0.39685,-0.2021 0.40855,-0.1767 0.41882,-0.1508 0.42732,-0.1243 0.43441,-0.097 0.43972,-0.0699 0.44327,-0.0417 0.44504,-0.014 159.44882,0 0.44504,0.014 0.44327,0.042 0.43972,0.0697 0.43441,0.0969 0.42732,0.12435 0.41882,0.1508 0.40854,0.1767 0.39686,0.2021 0.38303,0.2267 0.3685,0.2502 0.3515,0.2729 0.33413,0.2944 0.31465,0.3148 0.29445,0.3339 0.27283,0.3518 0.25016,0.3682 0.22677,0.3832 0.20197,0.3967 0.17681,0.4086 0.15094,0.4188 0.12437,0.4275 0.0971,0.4345 0.0695,0.4397 0.0418,0.4432 0.0142,0.445 -2e-5,27.136 2.53772,2.2371 2.63622,2.6365 2.46579,2.7968 2.28508,2.9461 2.09586,3.0837 1.8978,3.2093 1.69264,3.3221 1.48074,3.4218 1.26319,3.5081 1.04032,3.5804 0.81319,3.6389 0.58323,3.6825 0.35078,3.712 0.11729,3.7265 0,62.0079 42.51968,0 0,9.5669 30.53622,0 0,-10.6296 -4.34055,0 -0.20835,-0.009 -0.20728,-0.0233 -0.2048,-0.0411 -0.20091,-0.0567 -0.19559,-0.072 -0.18957,-0.0874 -0.18212,-0.10195 -0.17362,-0.1159 -0.1637,-0.1293 -0.15308,-0.1418 -0.14173,-0.153 -0.12933,-0.1641 -0.11586,-0.1732 -0.10205,-0.1822 -0.0872,-0.1895 -0.0723,-0.1956 -0.0567,-0.2009 -0.0408,-0.2048 -0.0244,-0.2073 -0.008,-0.2084 0.008,-0.2083 0.0246,-0.2073 0.0407,-0.2048 0.0567,-0.2006 0.0723,-0.1959 0.0872,-0.1896 0.10204,-0.1821 0.11586,-0.1733 0.12933,-0.164 0.14173,-0.1531 0.15308,-0.1417 0.1637,-0.129 0.17362,-0.1162 0.18212,-0.1017 0.18957,-0.0878 0.19559,-0.0719 0.20091,-0.057 0.2048,-0.04 0.20728,-0.0251 0.20835,-0.009 0,-5.13685 0.0294,-0.7505 0.0882,-0.7462 0.1467,-0.7367 0.20374,-0.7228 0.26008,-0.7048 0.31465,-0.6824 0.36708,-0.6552 0.41705,-0.6247 0.46524,-0.5899 0.50988,-0.5517 0.55169,-0.5099 0.58996,-0.4649 0.62469,-0.4174 0.65515,-0.3671 0.68244,-0.3146 0.70477,-0.2597 0.72283,-0.2041 0.73666,-0.1464 0.74586,-0.0888 0.75083,-0.029 0.75047,0.029 0.74622,0.089 0.73666,0.1462 0.72283,0.2041 0.70476,0.2597 0.68244,0.3146 0.65516,0.3671 0.62469,0.4174 0.58996,0.4649 0.55169,0.5099 0.50988,0.5517 0.46488,0.5899 0.41741,0.6247 0.36708,0.6552 0.31429,0.6824 0.26008,0.7048 0.2041,0.7228 0.14634,0.7367 0.0886,0.7462 0.0294,0.7505 10e-6,5.1378 0.20834,0.009 0.20729,0.024 0.2048,0.0401 0.20055,0.0571 0.19595,0.072 0.18956,0.0879 0.18213,0.10145 0.17327,0.1162 0.16405,0.129 0.15307,0.1417 0.14174,0.1531 0.12897,0.164 0.11622,0.1733 0.1017,0.1821 0.0875,0.1896 0.0723,0.1959 0.0567,0.2006 0.0408,0.2048 0.0244,0.2073 0.008,0.2083 -0.008,0.2084 -0.0246,0.2073 -0.0407,0.2048 -0.0567,0.2009 -0.0723,0.1956 -0.0875,0.1895 -0.10171,0.1822 -0.11622,0.1732 -0.12897,0.1641 -0.14174,0.153 -0.15307,0.1418 -0.16405,0.1293 -0.17327,0.1159 -0.18213,0.1017 -0.18956,0.0873 -0.19595,0.0724 -0.20055,0.057 -0.2048,0.0407 -0.20729,0.0241 -0.20834,0.009 -4.34055,-9.5e-4 0,10.6296 30.53622,0 0,-9.5669 30.81968,0 -5.6863,-32.2505 -10.36275,1.8273 -3.07666,-17.4473 10.36276,-1.8276 -15.99732,-90.7261 -10.36276,1.8272 -3.07665,-17.4475 10.36275,-1.8272 -24.84389,-140.89681 -0.39685,-2.75422 -0.22323,-2.77334 -0.0486,-2.78185 0.12617,-2.77973 0.30047,-2.76626 0.47374,-2.74181 0.64488,-2.70673 0.81354,-2.66102 0.97902,-2.60434 1.14059,-2.53807 1.29756,-2.46118 1.44992,-2.37508 1.59591,-2.27905 1.73586,-2.17453 1.8691,-2.06149 1.99452,-1.93961 2.11288,-1.81063 2.22201,-1.67457 2.32299,-1.53177 2.41441,-1.38295 2.49661,-1.22847 2.5689,-1.06901 2.6309,-0.90603 2.68229,-0.73877 2.72374,-0.56906 2.75386,-0.39685 0.0864,-0.007 -10.47894,-108.91139 -17.71654,0 0,3.54685 -14.17323,0 0,-3.54685 -379.13385,0 0,3.54685 -14.17323,0 0,-3.54685 -31.88977,0 -10.47897,108.91134 0.0864,0.007 2.75389,0.3969 2.72374,0.56906 2.68229,0.73877 2.6309,0.90603 2.5689,1.06901 2.49661,1.22847 2.41441,1.38295 2.32299,1.53177 2.22201,1.67457 2.11288,1.81063 1.99452,1.93961 1.8691,2.06149 1.73586,2.17453 1.59591,2.27905 1.44992,2.37508 1.29756,2.46118 1.14059,2.53807 0.97902,2.60434 0.81354,2.66102 0.64488,2.70673 0.47374,2.74181 0.30047,2.76626 0.12615,2.77973 -0.0486,2.78185 -0.2232,2.77334 -0.39685,2.75422 -24.84389,140.89711 10.3624,1.8266 -3.07666,17.4481 -10.3624,-1.8272 -15.99732,90.7261 10.3624,1.827 -3.07665,17.4479 -10.3624,-1.8273 -5.6863,32.2502 30.81968,0 0,9.5669 30.53622,0 0,-10.6296 -4.34055,0 -0.20834,-0.009 -0.20729,-0.0233 -0.2048,-0.0411 -0.20055,-0.0567 -0.19595,-0.072 -0.18956,-0.0874 -0.18213,-0.10195 -0.17327,-0.1159 -0.16405,-0.1293 -0.15307,-0.1418 -0.14174,-0.153 -0.12897,-0.1641 -0.11622,-0.1732 -0.1017,-0.1822 -0.0875,-0.1895 -0.0723,-0.1956 -0.0567,-0.2009 -0.0408,-0.2048 -0.0245,-0.2073 -0.008,-0.2084 0.008,-0.2083 0.0246,-0.2073 0.0407,-0.2048 0.0567,-0.2006 0.0723,-0.1959 0.0875,-0.1896 0.10171,-0.1821 0.11622,-0.1733 0.12897,-0.164 0.14174,-0.1531 0.15307,-0.1417 0.16405,-0.129 0.17327,-0.1162 0.18213,-0.1017 0.18956,-0.0878 0.19595,-0.0719 0.20055,-0.057 0.2048,-0.04 0.20729,-0.0251 0.20834,-0.009 0,-5.13685 0.0294,-0.7505 0.0886,-0.7462 0.14633,-0.7367 0.2041,-0.7228 0.26008,-0.7048 0.31429,-0.6824 0.36708,-0.6552 0.41741,-0.6247 0.46488,-0.5899 0.50988,-0.5517 0.55169,-0.5099 0.58996,-0.4649 0.62469,-0.4174 0.65516,-0.3671 0.68244,-0.3146 0.70476,-0.2597 0.72283,-0.2041 0.73666,-0.1464 0.74622,-0.0888 0.75047,-0.029 0.75083,0.029 0.74586,0.089 0.73666,0.1462 0.72283,0.2041 0.70477,0.2597 0.68244,0.3146 0.65515,0.3671 0.62469,0.4174 0.58996,0.4649 0.55169,0.5099 0.50988,0.5517 0.46524,0.5899 0.41705,0.6247 0.36708,0.6552 0.31465,0.6824 0.26008,0.7048 0.20374,0.7228 0.14669,0.7367 0.0882,0.7462 0.0294,0.7505 1e-5,5.1378 0.20835,0.009 z"
       style="fill:none;stroke:#0000ff;stroke-opacity:1"
       id="path39682"
       sodipodi:nodetypes="ccccccccccccccccccccccccccccccccccccccccccccccccccccccccccccccccccccccccccccccccccccccccccccccccccccccccccccccccccccccccccccccccccccccccccccccccccccccccccccccccccccccccccccccccccccccccccccccccccccccccccccccccccccccccccccccccccccccccccccccccccccccccccccccccccccccccccccccccccccccccccccccccccccccccccccccccccccccccccccccccccccccccccccccccccccccccccccccccccccccccccccccccccccccccccccccccccccccccccccccccccccccccccccccccccccccccccccccc" />
    <path
       inkscape:connector-curvature="0"
       d="m 159.65408,288.39483 -1.33264,1.33264 -1.67918,0.85571 -1.86129,0.2948 -1.8613,-0.2948 -1.67918,-0.85571 -1.33263,-1.33264 -0.85571,-1.67917 -0.29481,-1.8613 0.29481,-1.8613 0.85571,-1.67917 1.33263,-1.33264 1.67918,-0.85571 1.8613,-0.2948 1.86129,0.2948 1.67918,0.85571 1.33264,1.33264 0.8557,1.67917 0.29481,1.8613 -0.29481,1.8613 z"
       style="fill:none;stroke:#ff0000;stroke-opacity:1"
       id="path40404"
       sodipodi:nodetypes="ccccccccccccccccccccc" />
    <path
       inkscape:connector-curvature="0"
       d="m 255.94238,290.87798 -1.8613,-0.2948 -1.67917,-0.85571 -1.33264,-1.33264 -0.85571,-1.67917 -0.2948,-1.8613 0.2948,-1.8613 0.85571,-1.67917 1.33264,-1.33264 1.67917,-0.85571 1.8613,-0.2948 1.8613,0.2948 1.67918,0.85571 1.33263,1.33264 0.85571,1.67917 0.2948,1.8613 -0.2948,1.8613 -0.85571,1.67917 -1.33263,1.33264 -1.67918,0.85571 z"
       style="fill:none;stroke:#ff0000;stroke-opacity:1"
       id="path40450"
       sodipodi:nodetypes="ccccccccccccccccccccc" />
    <path
       inkscape:connector-curvature="0"
       d="m 568.99356,303.98822 0,-10.62992 14.17323,0 0,10.62992 z"
       style="fill:none;stroke:#ff0000;stroke-opacity:1"
       id="path40460"
       sodipodi:nodetypes="ccccc" />
    <path
       inkscape:connector-curvature="0"
       d="m 175.68648,293.3583 14.17323,0 0,10.62992 -14.17323,0 z"
       style="fill:none;stroke:#ff0000;stroke-opacity:1"
       id="path40462"
       sodipodi:nodetypes="ccccc" />
    <path
       inkscape:connector-curvature="0"
       d="m 315.99754,306.43664 0.21295,-0.51377 0.29055,-0.4741 0.36107,-0.42272 0.42271,-0.36106 0.4741,-0.29055 0.51378,-0.2126 0.54071,-0.13004 0.55417,-0.0436 0.55417,0.0436 0.54071,0.13003 0.51378,0.2126 0.47409,0.29055 0.42272,0.36106 0.36106,0.42272 0.29056,0.4741 0.21295,0.51377 0.12968,0.54071 0.0436,0.55418 98.85826,0 0.0436,-0.55418 0.12967,-0.54071 0.21295,-0.51377 0.29056,-0.4741 0.36106,-0.42272 0.42271,-0.36106 0.4741,-0.29055 0.51378,-0.2126 0.54071,-0.13004 0.55417,-0.0436 0.55417,0.0436 0.54071,0.13003 0.51378,0.2126 0.4741,0.29055 0.42271,0.36106 0.36107,0.42272 0.29055,0.4741 0.2126,0.51377 0.13003,0.54071 0.0436,0.55418 0,11.33858 -0.0436,0.55417 -0.13003,0.54071 -0.2126,0.51378 -0.29055,0.4741 -0.36107,0.42271 -0.42271,0.36106 -0.4741,0.29056 -0.51378,0.21259 -0.54071,0.13004 -0.55417,0.0436 -0.55417,-0.0436 -0.54071,-0.13003 -0.51378,-0.21259 -0.4741,-0.29056 -0.42271,-0.36106 -0.36106,-0.42271 -0.29056,-0.4741 -0.21295,-0.51378 -0.12968,-0.54071 -0.0436,-0.55417 -98.85825,0 -0.0436,0.55417 -0.12968,0.54071 -0.21295,0.51378 -0.29056,0.4741 -0.36106,0.42271 -0.42272,0.36106 -0.47409,0.29056 -0.51378,0.21259 -0.54071,0.13004 -0.55417,0.0436 -0.55417,-0.0436 -0.54071,-0.13003 -0.51378,-0.21259 -0.4741,-0.29056 -0.42271,-0.36106 -0.36107,-0.42271 -0.29055,-0.4741 -0.21295,-0.51378 -0.12969,-0.54071 -0.0436,-0.55417 10e-6,-11.33858 0.0436,-0.55418 z"
       style="fill:none;stroke:#ff0000;stroke-opacity:1"
       id="path40534"
       sodipodi:nodetypes="ccccccccccccccccccccccccccccccccccccccccccccccccccccccccccccccccccccccccccccccccccccc" />
    <path
       inkscape:connector-curvature="0"
       d="m 463.89482,314.0381 -0.2661,0.64205 -0.36283,0.59244 -0.45142,0.52866 -0.52866,0.45142 -0.59244,0.36319 -0.64205,0.26574 -0.67606,0.16229 -0.69272,0.0546 -0.69272,-0.0546 -0.67606,-0.16227 -0.64205,-0.26574 -0.59244,-0.36319 -0.52866,-0.45142 -0.45142,-0.52866 -0.36319,-0.59244 -0.26574,-0.64205 -0.16229,-0.67571 -0.0546,-0.69307 0.0546,-0.69272 0.16227,-0.67606 0.26574,-0.64204 0.36319,-0.59245 0.45142,-0.52866 0.52866,-0.45142 0.59244,-0.36283 0.64205,-0.2661 0.67606,-0.16229 0.69272,-0.0546 0.69272,0.0546 0.67606,0.16227 0.64205,0.2661 0.59244,0.36283 0.52866,0.45142 0.45142,0.52866 0.36283,0.59245 0.2661,0.64204 0.16229,0.67606 0.0546,0.69272 -0.0546,0.69307 z"
       style="fill:none;stroke:#ff0000;stroke-opacity:1"
       id="path40698"
       sodipodi:nodetypes="ccccccccccccccccccccccccccccccccccccccccc" />
    <path
       inkscape:connector-curvature="0"
       d="m 280.78522,311.30054 0.2661,-0.64204 0.36283,-0.59245 0.45142,-0.52866 0.52866,-0.45142 0.59244,-0.36283 0.64205,-0.2661 0.67606,-0.16229 0.69272,-0.0546 0.69272,0.0546 0.67606,0.16227 0.64205,0.2661 0.59244,0.36283 0.52866,0.45142 0.45142,0.52866 0.36319,0.59245 0.26574,0.64204 0.16229,0.67606 0.0546,0.69272 -0.0546,0.69307 -0.16227,0.67571 -0.26574,0.64205 -0.36319,0.59244 -0.45142,0.52866 -0.52866,0.45142 -0.59244,0.36319 -0.64205,0.26574 -0.67606,0.16229 -0.69272,0.0546 -0.69272,-0.0546 -0.67606,-0.16227 -0.64205,-0.26574 -0.59244,-0.36319 -0.52866,-0.45142 -0.45142,-0.52866 -0.36283,-0.59244 -0.2661,-0.64205 -0.16229,-0.67571 -0.0546,-0.69307 0.0546,-0.69272 z"
       style="fill:none;stroke:#ff0000;stroke-opacity:1"
       id="path40738"
       sodipodi:nodetypes="ccccccccccccccccccccccccccccccccccccccccc" />
    <path
       inkscape:connector-curvature="0"
       d="m 509.85222,320.10672 0.51378,0.2126 0.4741,0.29055 0.42271,0.36107 0.36107,0.42271 0.29055,0.4741 0.2126,0.51378 0.13004,0.54071 0.0436,0.55417 -0.0436,0.55417 -0.13003,0.54071 -0.2126,0.51378 -0.29055,0.47409 -0.36107,0.42272 -0.42271,0.36106 -0.4741,0.29055 -0.51378,0.21296 -0.5407,0.12968 -0.55418,0.0436 -0.55417,-0.0436 -0.54071,-0.12967 -0.51378,-0.21296 -0.47409,-0.29055 -0.42272,-0.36106 -0.36106,-0.42272 -0.29055,-0.47409 -0.21296,-0.51378 -0.12968,-0.54071 -0.0436,-0.55417 0.0436,-0.55417 0.12967,-0.54071 0.21296,-0.51378 0.29055,-0.4741 0.36106,-0.42271 0.42272,-0.36107 0.47409,-0.29055 0.51378,-0.2126 0.54071,-0.13004 0.55417,-0.0436 0.55418,0.0436 z"
       style="fill:none;stroke:#ff0000;stroke-opacity:1"
       id="path40838"
       sodipodi:nodetypes="ccccccccccccccccccccccccccccccccccccccccc" />
    <path
       inkscape:connector-curvature="0"
       d="m 398.75343,330.1541 -0.67582,-0.16226 -0.64212,-0.26575 -0.59255,-0.36319 -0.52851,-0.45141 -0.45139,-0.52867 -0.36311,-0.59244 -0.266,-0.64204 -0.16228,-0.67571 -0.0545,-0.69307 0.0545,-0.69272 0.16228,-0.67606 0.266,-0.64205 0.36311,-0.59244 0.45139,-0.52866 0.52851,-0.45142 0.59255,-0.36283 0.64212,-0.26611 0.67582,-0.16228 0.69285,-0.0546 0.6929,0.0546 0.67581,0.16227 0.64208,0.26611 0.59259,0.36283 0.52848,0.45142 0.45142,0.52866 0.36312,0.59244 0.26596,0.64205 0.16225,0.67606 0.0545,0.69272 -0.0545,0.69307 -0.16227,0.67571 -0.26596,0.64204 -0.36312,0.59244 -0.45142,0.52867 -0.52848,0.45141 -0.59259,0.36319 -0.64208,0.26575 -0.67581,0.16228 -0.6929,0.0546 z"
       style="fill:none;stroke:#ff0000;stroke-opacity:1"
       id="path40956"
       sodipodi:nodetypes="ccccccccccccccccccccccccccccccccccccccccc" />
    <path
       inkscape:connector-curvature="0"
       d="m 220.549,324.41078 0.2661,-0.64205 0.36283,-0.59244 0.45142,-0.52866 0.52866,-0.45142 0.59244,-0.36283 0.64205,-0.26611 0.67606,-0.16228 0.69272,-0.0546 0.69272,0.0546 0.67606,0.16227 0.64205,0.26611 0.59244,0.36283 0.52866,0.45142 0.45142,0.52866 0.36319,0.59244 0.26574,0.64205 0.16229,0.67606 0.0546,0.69272 -0.0546,0.69307 -0.16227,0.67571 -0.26574,0.64204 -0.36319,0.59244 -0.45142,0.52867 -0.52866,0.45141 -0.59244,0.36319 -0.64205,0.26575 -0.67606,0.16228 -0.69272,0.0546 -0.69272,-0.0546 -0.67606,-0.16226 -0.64205,-0.26575 -0.59244,-0.36319 -0.52866,-0.45141 -0.45142,-0.52867 -0.36283,-0.59244 -0.2661,-0.64204 -0.16229,-0.67571 -0.0546,-0.69307 0.0546,-0.69272 z"
       style="fill:none;stroke:#ff0000;stroke-opacity:1"
       id="path40978"
       sodipodi:nodetypes="ccccccccccccccccccccccccccccccccccccccccc" />
    <path
       inkscape:connector-curvature="0"
       d="m 344.54086,330.1541 -0.67581,-0.16226 -0.64209,-0.26575 -0.59258,-0.36319 -0.52848,-0.45141 -0.45142,-0.52867 -0.36312,-0.59244 -0.26596,-0.64204 -0.16225,-0.67571 -0.0545,-0.69307 0.0545,-0.69272 0.16226,-0.67606 0.26596,-0.64205 0.36312,-0.59244 0.45142,-0.52866 0.52848,-0.45142 0.59258,-0.36283 0.64209,-0.26611 0.67581,-0.16228 0.6929,-0.0546 0.69285,0.0546 0.67582,0.16227 0.64212,0.26611 0.59254,0.36283 0.52852,0.45142 0.45139,0.52866 0.36311,0.59244 0.266,0.64205 0.16228,0.67606 0.0545,0.69272 -0.0545,0.69307 -0.16228,0.67571 -0.266,0.64204 -0.36311,0.59244 -0.45139,0.52867 -0.52852,0.45141 -0.59254,0.36319 -0.64212,0.26575 -0.67582,0.16228 -0.69285,0.0546 z"
       style="fill:none;stroke:#ff0000;stroke-opacity:1"
       id="path41116"
       sodipodi:nodetypes="ccccccccccccccccccccccccccccccccccccccccc" />
    <path
       inkscape:connector-curvature="0"
       d="m 515.70648,324.41078 0.26574,-0.64205 0.36319,-0.59244 0.45142,-0.52866 0.52866,-0.45142 0.59244,-0.36283 0.64205,-0.26611 0.67606,-0.16228 0.69272,-0.0546 0.69272,0.0546 0.67606,0.16227 0.64205,0.26611 0.59244,0.36283 0.52866,0.45142 0.45142,0.52866 0.36283,0.59244 0.2661,0.64205 0.16229,0.67606 0.0546,0.69272 -0.0546,0.69307 -0.16227,0.67571 -0.2661,0.64204 -0.36283,0.59244 -0.45142,0.52867 -0.52866,0.45141 -0.59244,0.36319 -0.64205,0.26575 -0.67606,0.16228 -0.69272,0.0546 -0.69272,-0.0546 -0.67606,-0.16226 -0.64205,-0.26575 -0.59244,-0.36319 -0.52866,-0.45141 -0.45142,-0.52867 -0.36319,-0.59244 -0.26574,-0.64204 -0.16229,-0.67571 -0.0546,-0.69307 0.0546,-0.69272 z"
       style="fill:none;stroke:#ff0000;stroke-opacity:1"
       id="path41138"
       sodipodi:nodetypes="ccccccccccccccccccccccccccccccccccccccccc" />
    <path
       inkscape:connector-curvature="0"
       d="m 448.64195,351.48304 -0.91914,-0.22073 -0.87342,-0.36177 -0.80575,-0.49393 -0.71894,-0.61371 -0.6137,-0.71893 -0.49393,-0.80575 -0.36177,-0.87343 -0.22075,-0.91878 -0.0741,-0.94251 0.0741,-0.94217 0.22073,-0.91913 0.36177,-0.87343 0.49393,-0.80575 0.6137,-0.71893 0.71894,-0.61371 0.80575,-0.49393 0.87342,-0.36177 0.91914,-0.22075 0.94216,-0.0741 0.94217,0.0741 0.91913,0.22073 0.87343,0.36177 0.80575,0.49393 0.71893,0.61371 0.6137,0.71893 0.49394,0.80575 0.36177,0.87343 0.22075,0.91913 0.0741,0.94217 -0.0741,0.94251 -0.22073,0.91878 -0.36177,0.87343 -0.49394,0.80575 -0.6137,0.71893 -0.71893,0.61371 -0.80575,0.49393 -0.87343,0.36177 -0.91913,0.22075 -0.94217,0.0741 z"
       style="fill:none;stroke:#ff0000;stroke-opacity:1"
       id="path41276"
       sodipodi:nodetypes="ccccccccccccccccccccccccccccccccccccccccc" />
    <path
       inkscape:connector-curvature="0"
       d="m 294.15376,351.48304 -0.91913,-0.22073 -0.87343,-0.36177 -0.80575,-0.49393 -0.71893,-0.61371 -0.61371,-0.71893 -0.49393,-0.80575 -0.36177,-0.87343 -0.22075,-0.91878 -0.0741,-0.94251 0.0741,-0.94217 0.22073,-0.91913 0.36177,-0.87343 0.49393,-0.80575 0.61371,-0.71893 0.71893,-0.61371 0.80575,-0.49393 0.87343,-0.36177 0.91913,-0.22075 0.94217,-0.0741 0.94216,0.0741 0.91913,0.22073 0.87343,0.36177 0.80575,0.49393 0.71893,0.61371 0.61371,0.71893 0.49393,0.80575 0.36177,0.87343 0.22075,0.91913 0.0741,0.94217 -0.0741,0.94251 -0.22073,0.91878 -0.36177,0.87343 -0.49393,0.80575 -0.61371,0.71893 -0.71893,0.61371 -0.80575,0.49393 -0.87343,0.36177 -0.91913,0.22075 -0.94216,0.0741 z"
       style="fill:none;stroke:#ff0000;stroke-opacity:1"
       id="path41356"
       sodipodi:nodetypes="ccccccccccccccccccccccccccccccccccccccccc" />
    <path
       inkscape:connector-curvature="0"
       d="m 237.01758,348.45318 0.51378,0.2126 0.47409,0.29055 0.42272,0.36106 0.36106,0.42272 0.29055,0.47409 0.21296,0.51378 0.12968,0.54071 0.0436,0.55418 -0.0436,0.55417 -0.12967,0.54071 -0.21296,0.51378 -0.29055,0.47409 -0.36106,0.42272 -0.42272,0.36106 -0.47409,0.29055 -0.51378,0.21295 -0.54071,0.12969 -0.55417,0.0436 -0.55418,-0.0436 -0.5407,-0.12968 -0.51378,-0.21295 -0.4741,-0.29055 -0.42271,-0.36106 -0.36107,-0.42272 -0.29055,-0.47409 -0.2126,-0.51378 -0.13004,-0.54071 -0.0436,-0.55417 0.0436,-0.55418 0.13003,-0.54071 0.2126,-0.51378 0.29055,-0.47409 0.36107,-0.42272 0.42271,-0.36106 0.4741,-0.29055 0.51378,-0.2126 0.5407,-0.13004 0.55418,-0.0436 0.55417,0.0436 z"
       style="fill:none;stroke:#ff0000;stroke-opacity:1"
       id="path41398"
       sodipodi:nodetypes="ccccccccccccccccccccccccccccccccccccccccc" />
    <path
       inkscape:connector-curvature="0"
       d="m 491.35155,357.08362 0.68918,0.0953 0.68457,0.12225 0.6796,0.14917 0.67323,0.1754 0.66579,0.20197 0.65728,0.22783 0.64772,0.2537 0.63744,0.27886 0.62575,0.30366 0.6137,0.32776 0.60023,0.35185 0.58571,0.37524 0.57083,0.39755 0.55488,0.41989 0.53752,0.44149 0.52016,0.46205 0.50138,0.48224 0.48224,0.50138 0.46205,0.52016 0.44149,0.53752 0.41988,0.55488 0.39756,0.57047 0.37524,0.58607 0.35185,0.60023 0.32776,0.6137 0.30366,0.62575 0.27886,0.63744 0.25334,0.64772 0.22819,0.65728 0.20197,0.66579 0.17539,0.67323 0.14918,0.6796 0.12224,0.68457 0.0953,0.68917 0.0684,0.69237 0.0407,0.69448 0.0138,0.69556 1e-5,70.86614 -0.0138,0.69555 -0.0407,0.69449 -0.0684,0.69236 -0.0953,0.68917 -0.12225,0.68492 -0.14918,0.67926 -0.17539,0.67322 -0.20197,0.66579 -0.22819,0.65728 -0.25334,0.64772 -0.27886,0.63744 -0.30366,0.6261 -0.32776,0.61335 -0.35185,0.60024 -0.37524,0.58606 -0.39756,0.57047 -0.41988,0.55488 -0.44149,0.53788 -0.46205,0.5198 -0.48224,0.50138 -0.50138,0.48224 -0.52016,0.46205 -0.53752,0.4415 -0.55488,0.41988 -0.57083,0.39791 -0.58571,0.37488 -0.60023,0.35185 -0.6137,0.32776 -0.62575,0.30366 -0.63744,0.27886 -0.64772,0.2537 -0.65728,0.22784 -0.66579,0.20196 -0.67323,0.17575 -0.6796,0.14882 -0.68457,0.12225 -0.68918,0.0953 -0.69236,0.0684 -0.69448,0.0411 -0.69556,0.0135 -0.69555,-0.0135 -0.69449,-0.0411 -0.69236,-0.0684 -0.68917,-0.0953 -0.68492,-0.12225 -0.67925,-0.14882 -0.67323,-0.17575 -0.66579,-0.20196 -0.65728,-0.22784 -0.64772,-0.2537 -0.63744,-0.27886 -0.6261,-0.30366 -0.61335,-0.32776 -0.60024,-0.35185 -0.58606,-0.37488 -0.57047,-0.39791 -0.55488,-0.41988 -0.53788,-0.4415 -0.5198,-0.46205 -0.50138,-0.48224 -0.48224,-0.50138 -0.46205,-0.5198 -0.4415,-0.53788 -0.41988,-0.55488 -0.39756,-0.57047 -0.37523,-0.58606 -0.35185,-0.60024 -0.32776,-0.61335 -0.30366,-0.6261 -0.27886,-0.63744 -0.2537,-0.64772 -0.22783,-0.65728 -0.20197,-0.66579 -0.17575,-0.67322 -0.14882,-0.67926 -0.12224,-0.68492 -0.0953,-0.68917 -0.0684,-0.69236 -0.0411,-0.69449 -0.0135,-0.69555 2e-5,-70.86614 0.0135,-0.69556 0.0411,-0.69448 0.0684,-0.69237 0.0953,-0.68917 0.12225,-0.68457 0.14882,-0.6796 0.17575,-0.67323 0.20197,-0.66579 0.22783,-0.65728 0.2537,-0.64772 0.27886,-0.63744 0.30366,-0.62575 0.32776,-0.6137 0.35185,-0.60023 0.37523,-0.58607 0.39756,-0.57047 0.41988,-0.55488 0.4415,-0.53752 0.46205,-0.52016 0.48224,-0.50138 0.50138,-0.48224 0.5198,-0.46205 0.53788,-0.44149 0.55488,-0.41989 0.57047,-0.39755 0.58606,-0.37524 0.60024,-0.35185 0.61335,-0.32776 0.6261,-0.30366 0.63744,-0.27886 0.64772,-0.2537 0.65728,-0.22783 0.66579,-0.20197 0.67323,-0.1754 0.67925,-0.14917 0.68492,-0.12224 0.68917,-0.0953 0.69236,-0.0684 0.69449,-0.0408 0.69555,-0.0138 0.69556,0.0138 0.69448,0.0408 z"
       style="fill:none;stroke:#ff0000;stroke-opacity:1"
       id="path41602"
       sodipodi:nodetypes="ccccccccccccccccccccccccccccccccccccccccccccccccccccccccccccccccccccccccccccccccccccccccccccccccccccccccccccccccccccccccccccccccccccccccccccccccccccccccccccccccccc" />
    <path
       inkscape:connector-curvature="0"
       d="m 255.41089,356.96067 0.69555,0.0138 0.69449,0.0408 0.69236,0.0684 0.68917,0.0953 0.68492,0.12225 0.67925,0.14917 0.67323,0.1754 0.66579,0.20197 0.65728,0.22783 0.64772,0.2537 0.63744,0.27886 0.6261,0.30366 0.61335,0.32776 0.60024,0.35185 0.58606,0.37524 0.57047,0.39755 0.55488,0.41989 0.53788,0.44149 0.5198,0.46205 0.50138,0.48224 0.48224,0.50138 0.46205,0.52016 0.4415,0.53752 0.41988,0.55488 0.39756,0.57047 0.37523,0.58607 0.35185,0.60023 0.32776,0.6137 0.30366,0.62575 0.27886,0.63744 0.2537,0.64772 0.22783,0.65728 0.20197,0.66579 0.17575,0.67323 0.14882,0.6796 0.12224,0.68457 0.0953,0.68917 0.0684,0.69237 0.0411,0.69448 0.0135,0.69556 -2e-5,70.86614 -0.0135,0.69555 -0.0411,0.69449 -0.0684,0.69236 -0.0953,0.68917 -0.12225,0.68492 -0.14882,0.67926 -0.17575,0.67322 -0.20197,0.66579 -0.22783,0.65728 -0.2537,0.64772 -0.27886,0.63744 -0.30366,0.6261 -0.32776,0.61335 -0.35185,0.60024 -0.37523,0.58606 -0.39756,0.57047 -0.41988,0.55488 -0.4415,0.53788 -0.46205,0.5198 -0.48224,0.50138 -0.50138,0.48224 -0.5198,0.46205 -0.53788,0.4415 -0.55488,0.41988 -0.57047,0.39791 -0.58606,0.37488 -0.60024,0.35185 -0.61335,0.32776 -0.6261,0.30366 -0.63744,0.27886 -0.64772,0.2537 -0.65728,0.22784 -0.66579,0.20196 -0.67323,0.17575 -0.67925,0.14882 -0.68492,0.12225 -0.68917,0.0953 -0.69236,0.0684 -0.69449,0.0411 -0.69555,0.0135 -0.69556,-0.0135 -0.69448,-0.0411 -0.69236,-0.0684 -0.68918,-0.0953 -0.68457,-0.12225 -0.6796,-0.14882 -0.67323,-0.17575 -0.66579,-0.20196 -0.65728,-0.22784 -0.64772,-0.2537 -0.63744,-0.27886 -0.62575,-0.30366 -0.6137,-0.32776 -0.60023,-0.35185 -0.58571,-0.37488 -0.57083,-0.39791 -0.55488,-0.41988 -0.53752,-0.4415 -0.52016,-0.46205 -0.50138,-0.48224 -0.48224,-0.50138 -0.46205,-0.5198 -0.44149,-0.53788 -0.41988,-0.55488 -0.39756,-0.57047 -0.37524,-0.58606 -0.35185,-0.60024 -0.32776,-0.61335 -0.30366,-0.6261 -0.27886,-0.63744 -0.25334,-0.64772 -0.22819,-0.65728 -0.20197,-0.66579 -0.17539,-0.67322 -0.14918,-0.67926 -0.12224,-0.68492 -0.0953,-0.68917 -0.0684,-0.69236 -0.0407,-0.69449 -0.0138,-0.69555 -1e-5,-70.86614 0.0138,-0.69556 0.0407,-0.69448 0.0684,-0.69237 0.0953,-0.68917 0.12225,-0.68457 0.14918,-0.6796 0.17539,-0.67323 0.20197,-0.66579 0.22819,-0.65728 0.25334,-0.64772 0.27886,-0.63744 0.30366,-0.62575 0.32776,-0.6137 0.35185,-0.60023 0.37524,-0.58607 0.39756,-0.57047 0.41988,-0.55488 0.44149,-0.53752 0.46205,-0.52016 0.48224,-0.50138 0.50138,-0.48224 0.52016,-0.46205 0.53752,-0.44149 0.55488,-0.41989 0.57083,-0.39755 0.58571,-0.37524 0.60023,-0.35185 0.6137,-0.32776 0.62575,-0.30366 0.63744,-0.27886 0.64772,-0.2537 0.65728,-0.22783 0.66579,-0.20197 0.67323,-0.1754 0.6796,-0.14917 0.68457,-0.12224 0.68918,-0.0953 0.69236,-0.0684 0.69448,-0.0408 z"
       style="fill:none;stroke:#ff0000;stroke-opacity:1"
       id="path41920"
       sodipodi:nodetypes="ccccccccccccccccccccccccccccccccccccccccccccccccccccccccccccccccccccccccccccccccccccccccccccccccccccccccccccccccccccccccccccccccccccccccccccccccccccccccccccccccccc" />
    <path
       inkscape:connector-curvature="0"
       d="m 221.95817,369.36636 0.20835,0.0122 0.20763,0.0206 0.20693,0.0287 0.20516,0.0365 0.2041,0.045 0.20196,0.0524 0.19949,0.0606 0.19736,0.0684 0.19418,0.0762 0.19134,0.0836 0.18779,0.0911 0.1839,0.0985 0.18035,0.10559 0.17575,0.11232 0.17114,0.11941 0.16618,0.12579 0.16158,0.13252 0.1559,0.13854 0.1506,0.14457 0.14456,0.15059 0.13855,0.15591 0.13252,0.16157 0.12578,0.16618 0.11941,0.1715 0.11268,0.17575 0.10524,0.18 0.0985,0.18389 0.0911,0.1878 0.0836,0.19134 0.0762,0.19417 0.0684,0.19736 0.0606,0.19949 0.0528,0.20197 0.0446,0.20409 0.0365,0.20552 0.0287,0.20657 0.0206,0.20764 0.0124,0.20834 0.004,0.20871 -5e-5,70.86614 -0.004,0.2087 -0.0124,0.20834 -0.0206,0.20764 -0.0287,0.20693 -0.0365,0.20516 -0.0446,0.20409 -0.0528,0.20197 -0.0606,0.19949 -0.0684,0.19736 -0.0762,0.19417 -0.0836,0.19134 -0.0911,0.1878 -0.0985,0.1839 -0.10524,0.18 -0.11268,0.1761 -0.11941,0.17114 -0.12578,0.16618 -0.13252,0.16158 -0.13855,0.1559 -0.14456,0.15059 -0.1506,0.14457 -0.1559,0.13854 -0.16158,0.13252 -0.16618,0.12579 -0.17114,0.11941 -0.17575,0.11268 -0.18035,0.10559 -0.1839,0.0982 -0.18779,0.0911 -0.19134,0.0836 -0.19418,0.0762 -0.19736,0.0684 -0.19949,0.0606 -0.20196,0.0528 -0.2041,0.0446 -0.20516,0.0365 -0.20693,0.0287 -0.20763,0.0206 -0.20835,0.0124 -0.2087,0.004 -0.2087,-0.004 -0.20835,-0.0124 -0.20764,-0.0206 -0.20657,-0.0287 -0.20551,-0.0365 -0.2041,-0.0446 -0.20197,-0.0528 -0.19948,-0.0606 -0.19737,-0.0684 -0.19417,-0.0762 -0.19134,-0.0836 -0.18779,-0.0911 -0.1839,-0.0982 -0.18,-0.10556 -0.17575,-0.11268 -0.17149,-0.11941 -0.16619,-0.12579 -0.16157,-0.13252 -0.15591,-0.13854 -0.15059,-0.14457 -0.14456,-0.15059 -0.13855,-0.1559 -0.13252,-0.16158 -0.12578,-0.16618 -0.11941,-0.17114 -0.11233,-0.1761 -0.10559,-0.18 -0.0985,-0.1839 -0.0911,-0.1878 -0.0836,-0.19134 -0.0762,-0.19417 -0.0684,-0.19736 -0.0606,-0.19949 -0.0524,-0.20197 -0.045,-0.20409 -0.0365,-0.20516 -0.0287,-0.20693 -0.0205,-0.20764 -0.0121,-0.20834 -0.004,-0.2087 -1.3e-4,-70.86614 0.004,-0.20871 0.0122,-0.20834 0.0205,-0.20764 0.0287,-0.20657 0.0365,-0.20552 0.045,-0.20409 0.0524,-0.20197 0.0606,-0.19949 0.0684,-0.19736 0.0762,-0.19417 0.0836,-0.19134 0.0911,-0.1878 0.0985,-0.18389 0.10559,-0.18 0.11233,-0.17575 0.11941,-0.1715 0.12578,-0.16618 0.13252,-0.16157 0.13855,-0.15591 0.14456,-0.15059 0.15059,-0.14457 0.15591,-0.13854 0.16157,-0.13252 0.16619,-0.12579 0.17149,-0.11941 0.17575,-0.11232 0.18,-0.10559 0.1839,-0.0985 0.18779,-0.0911 0.19134,-0.0836 0.19417,-0.0762 0.19737,-0.0684 0.19948,-0.0606 0.20197,-0.0524 0.2041,-0.045 0.20551,-0.0365 0.20657,-0.0287 0.20764,-0.0206 0.20835,-0.012 0.2087,-0.004 z"
       style="fill:none;stroke:#ff0000;stroke-opacity:1"
       id="path42246"
       sodipodi:nodetypes="ccccccccccccccccccccccccccccccccccccccccccccccccccccccccccccccccccccccccccccccccccccccccccccccccccccccccccccccccccccccccccccccccccccccccccccccccccccccccccccccccccc" />
    <path
       inkscape:connector-curvature="0"
       d="m 523.13927,369.36636 0.20835,0.0122 0.20764,0.0206 0.20657,0.0287 0.20551,0.0365 0.2041,0.045 0.20197,0.0524 0.19948,0.0606 0.19737,0.0684 0.19417,0.0762 0.19134,0.0836 0.18779,0.0911 0.1839,0.0985 0.18,0.10559 0.17575,0.11232 0.17149,0.11941 0.16619,0.12579 0.16157,0.13252 0.15591,0.13854 0.15059,0.14457 0.14456,0.15059 0.13855,0.15591 0.13252,0.16157 0.12578,0.16618 0.11941,0.1715 0.11233,0.17575 0.10559,0.18 0.0985,0.18389 0.0911,0.1878 0.0836,0.19134 0.0762,0.19417 0.0684,0.19736 0.0606,0.19949 0.0524,0.20197 0.045,0.20409 0.0365,0.20552 0.0287,0.20657 0.0205,0.20764 0.0121,0.20834 0.004,0.20871 1.3e-4,70.86614 -0.004,0.2087 -0.0122,0.20834 -0.0205,0.20764 -0.0287,0.20693 -0.0365,0.20516 -0.045,0.20409 -0.0524,0.20197 -0.0606,0.19949 -0.0684,0.19736 -0.0762,0.19417 -0.0836,0.19134 -0.0911,0.1878 -0.0985,0.1839 -0.10559,0.18 -0.11233,0.1761 -0.11941,0.17114 -0.12578,0.16618 -0.13252,0.16158 -0.13855,0.1559 -0.14456,0.15059 -0.15059,0.14457 -0.15591,0.13854 -0.16157,0.13252 -0.16619,0.12579 -0.17149,0.11941 -0.17575,0.11268 -0.18,0.10559 -0.1839,0.0982 -0.18779,0.0911 -0.19134,0.0836 -0.19417,0.0762 -0.19737,0.0684 -0.19948,0.0606 -0.20197,0.0528 -0.2041,0.0446 -0.20551,0.0365 -0.20657,0.0287 -0.20764,0.0206 -0.20835,0.0124 -0.2087,0.004 -0.2087,-0.004 -0.20835,-0.0124 -0.20763,-0.0206 -0.20693,-0.0287 -0.20516,-0.0365 -0.2041,-0.0446 -0.20196,-0.0528 -0.19949,-0.0606 -0.19736,-0.0684 -0.19418,-0.0762 -0.19134,-0.0836 -0.18779,-0.0911 -0.1839,-0.0982 -0.18035,-0.10556 -0.17575,-0.11268 -0.17114,-0.11941 -0.16618,-0.12579 -0.16158,-0.13252 -0.1559,-0.13854 -0.1506,-0.14457 -0.14456,-0.15059 -0.13855,-0.1559 -0.13252,-0.16158 -0.12578,-0.16618 -0.11941,-0.17114 -0.11268,-0.1761 -0.10524,-0.18 -0.0985,-0.1839 -0.0911,-0.1878 -0.0836,-0.19134 -0.0762,-0.19417 -0.0684,-0.19736 -0.0606,-0.19949 -0.0528,-0.20197 -0.0446,-0.20409 -0.0365,-0.20516 -0.0287,-0.20693 -0.0206,-0.20764 -0.0124,-0.20834 -0.004,-0.2087 5e-5,-70.86614 0.004,-0.20871 0.0123,-0.20834 0.0206,-0.20764 0.0287,-0.20657 0.0365,-0.20552 0.0446,-0.20409 0.0528,-0.20197 0.0606,-0.19949 0.0684,-0.19736 0.0762,-0.19417 0.0836,-0.19134 0.0911,-0.1878 0.0985,-0.18389 0.10524,-0.18 0.11268,-0.17575 0.11941,-0.1715 0.12578,-0.16618 0.13252,-0.16157 0.13855,-0.15591 0.14456,-0.15059 0.1506,-0.14457 0.1559,-0.13854 0.16158,-0.13252 0.16618,-0.12579 0.17114,-0.11941 0.17575,-0.11232 0.18035,-0.10559 0.1839,-0.0985 0.18779,-0.0911 0.19134,-0.0836 0.19418,-0.0762 0.19736,-0.0684 0.19949,-0.0606 0.20196,-0.0524 0.2041,-0.045 0.20516,-0.0365 0.20693,-0.0287 0.20763,-0.0206 0.20835,-0.012 0.2087,-0.004 z"
       style="fill:none;stroke:#ff0000;stroke-opacity:1"
       id="path42570"
       sodipodi:nodetypes="ccccccccccccccccccccccccccccccccccccccccccccccccccccccccccccccccccccccccccccccccccccccccccccccccccccccccccccccccccccccccccccccccccccccccccccccccccccccccccccccccccc" />
    <path
       inkscape:connector-curvature="0"
       d="m 296.03809,479.72175 0.91913,0.22072 0.87343,0.36177 0.80575,0.49394 0.71893,0.6137 0.61371,0.71894 0.49393,0.80575 0.36177,0.87342 0.22075,0.91878 0.0741,0.94252 -0.0741,0.94216 -0.22073,0.91914 -0.36177,0.87342 -0.49393,0.80575 -0.61371,0.71894 -0.71893,0.6137 -0.80575,0.49394 -0.87343,0.36177 -0.91913,0.22075 -0.94216,0.074 -0.94217,-0.074 -0.91913,-0.22078 -0.87343,-0.36177 -0.80575,-0.49394 -0.71893,-0.6137 -0.61371,-0.71894 -0.49393,-0.80575 -0.36177,-0.87342 -0.22075,-0.91914 -0.0741,-0.94216 0.0741,-0.94252 0.22073,-0.91878 0.36177,-0.87342 0.49393,-0.80575 0.61371,-0.71894 0.71893,-0.6137 0.80575,-0.49394 0.87343,-0.36177 0.91913,-0.22075 0.94217,-0.0741 z"
       style="fill:none;stroke:#ff0000;stroke-opacity:1"
       id="path42772"
       sodipodi:nodetypes="ccccccccccccccccccccccccccccccccccccccccc" />
    <path
       inkscape:connector-curvature="0"
       d="m 450.52628,479.72175 0.91913,0.22072 0.87343,0.36177 0.80575,0.49394 0.71893,0.6137 0.6137,0.71894 0.49394,0.80575 0.36177,0.87342 0.22075,0.91878 0.0741,0.94252 -0.0741,0.94216 -0.22073,0.91914 -0.36177,0.87342 -0.49394,0.80575 -0.6137,0.71894 -0.71893,0.6137 -0.80575,0.49394 -0.87343,0.36177 -0.91913,0.22075 -0.94217,0.074 -0.94216,-0.074 -0.91914,-0.22078 -0.87342,-0.36177 -0.80575,-0.49394 -0.71894,-0.6137 -0.6137,-0.71894 -0.49393,-0.80575 -0.36177,-0.87342 -0.22075,-0.91914 -0.0741,-0.94216 0.0741,-0.94252 0.22073,-0.91878 0.36177,-0.87342 0.49393,-0.80575 0.6137,-0.71894 0.71894,-0.6137 0.80575,-0.49394 0.87342,-0.36177 0.91914,-0.22075 0.94216,-0.0741 z"
       style="fill:none;stroke:#ff0000;stroke-opacity:1"
       id="path42852"
       sodipodi:nodetypes="ccccccccccccccccccccccccccccccccccccccccc" />
    <path
       inkscape:connector-curvature="0"
       d="m 493.6664,513.57838 -0.51378,-0.2126 -0.4741,-0.29055 -0.42271,-0.36107 -0.36107,-0.42271 -0.29055,-0.4741 -0.21295,-0.51378 -0.12968,-0.54071 -0.0436,-0.55417 10e-6,-11.33858 0.0436,-0.55417 0.12967,-0.54071 0.21295,-0.51378 0.29055,-0.4741 0.36107,-0.42271 0.42271,-0.36107 0.4741,-0.29055 0.51378,-0.2126 0.54071,-0.13004 0.55417,-0.0436 0.55417,0.0436 0.54071,0.13003 0.51378,0.2126 0.4741,0.29055 0.42271,0.36107 0.36107,0.42271 0.29055,0.4741 0.21295,0.51378 0.12968,0.54071 0.0436,0.55417 57.14007,0 0.0436,-0.55417 0.12967,-0.54071 0.21296,-0.51378 0.29055,-0.4741 0.36106,-0.42271 0.42272,-0.36107 0.47409,-0.29055 0.51378,-0.2126 0.54071,-0.13004 0.55417,-0.0436 0.55418,0.0436 0.54071,0.13003 0.51377,0.2126 0.4741,0.29055 0.42271,0.36107 0.36107,0.42271 0.29055,0.4741 0.2126,0.51378 0.13004,0.54071 0.0436,0.55417 -10e-6,11.33858 -0.0436,0.55417 -0.13003,0.54071 -0.2126,0.51378 -0.29055,0.4741 -0.36107,0.42271 -0.42271,0.36107 -0.4741,0.29055 -0.51377,0.2126 -0.54071,0.13004 -0.55418,0.0436 -0.55417,-0.0436 -0.54071,-0.13003 -0.51378,-0.2126 -0.47409,-0.29055 -0.42272,-0.36107 -0.36106,-0.42271 -0.29055,-0.4741 -0.21296,-0.51378 -0.12968,-0.54071 -0.0436,-0.55417 -57.14007,0 -0.0436,0.55417 -0.12967,0.54071 -0.21295,0.51378 -0.29055,0.4741 -0.36107,0.42271 -0.42271,0.36107 -0.4741,0.29055 -0.51378,0.2126 -0.54071,0.13004 -0.55417,0.0436 -0.55417,-0.0436 z"
       style="fill:none;stroke:#ff0000;stroke-opacity:1"
       id="path42936"
       sodipodi:nodetypes="ccccccccccccccccccccccccccccccccccccccccccccccccccccccccccccccccccccccccccccccccccccc" />
    <path
       inkscape:connector-curvature="0"
       d="m 403.89902,513.70841 -0.54068,-0.13003 -0.51367,-0.2126 -0.47406,-0.29055 -0.42282,-0.36107 -0.3611,-0.42271 -0.29052,-0.4741 -0.21281,-0.51378 -0.12975,-0.54071 -0.0436,-0.55417 -57.14006,0 -0.0436,0.55417 -0.12979,0.54071 -0.21278,0.51378 -0.29052,0.4741 -0.36109,0.42271 -0.42283,0.36107 -0.47406,0.29055 -0.51367,0.2126 -0.54067,0.13004 -0.55428,0.0436 -0.55428,-0.0436 -0.54064,-0.13003 -0.51367,-0.2126 -0.4741,-0.29055 -0.42282,-0.36107 -0.36106,-0.42271 -0.29055,-0.4741 -0.21289,-0.51378 -0.12968,-0.54071 -0.0436,-0.55417 10e-6,-11.33858 0.0436,-0.55417 0.12967,-0.54071 0.21289,-0.51378 0.29055,-0.4741 0.36106,-0.42271 0.42282,-0.36107 0.4741,-0.29055 0.51367,-0.2126 0.54064,-0.13004 0.55428,-0.0436 0.55428,0.0436 0.54067,0.13003 0.51367,0.2126 0.47406,0.29055 0.42283,0.36107 0.36109,0.42271 0.29052,0.4741 0.21278,0.51378 0.12979,0.54071 0.0436,0.55417 57.14005,0 0.0436,-0.55417 0.12976,-0.54071 0.21281,-0.51378 0.29052,-0.4741 0.3611,-0.42271 0.42282,-0.36107 0.47406,-0.29055 0.51367,-0.2126 0.54068,-0.13004 0.55428,-0.0436 0.55427,0.0436 0.54068,0.13003 0.51367,0.2126 0.47406,0.29055 0.42282,0.36107 0.3611,0.42271 0.29052,0.4741 0.21263,0.51378 0.13004,0.54071 0.0436,0.55417 -10e-6,11.33858 -0.0436,0.55417 -0.13003,0.54071 -0.21263,0.51378 -0.29052,0.4741 -0.3611,0.42271 -0.42282,0.36107 -0.47406,0.29055 -0.51367,0.2126 -0.54068,0.13004 -0.55427,0.0436 z"
       style="fill:none;stroke:#ff0000;stroke-opacity:1"
       id="path43228"
       sodipodi:nodetypes="ccccccccccccccccccccccccccccccccccccccccccccccccccccccccccccccccccccccccccccccccccccc" />
    <path
       inkscape:connector-curvature="0"
       d="m 250.47293,495.37039 0.54071,0.13003 0.51378,0.2126 0.4741,0.29055 0.42271,0.36107 0.36107,0.42271 0.29055,0.4741 0.21259,0.51378 0.13004,0.54071 0.0436,0.55417 0,11.33858 -0.0436,0.55417 -0.13003,0.54071 -0.21259,0.51378 -0.29055,0.4741 -0.36107,0.42271 -0.42271,0.36107 -0.4741,0.29055 -0.51378,0.2126 -0.54071,0.13004 -0.55417,0.0436 -0.55417,-0.0436 -0.54071,-0.13003 -0.51378,-0.2126 -0.4741,-0.29055 -0.42271,-0.36107 -0.36107,-0.42271 -0.29055,-0.4741 -0.21295,-0.51378 -0.12968,-0.54071 -0.0436,-0.55417 -57.14008,0 -0.0436,0.55417 -0.12967,0.54071 -0.21296,0.51378 -0.29055,0.4741 -0.36106,0.42271 -0.42272,0.36107 -0.47409,0.29055 -0.51378,0.2126 -0.54071,0.13004 -0.55417,0.0436 -0.55418,-0.0436 -0.54071,-0.13003 -0.51377,-0.2126 -0.4741,-0.29055 -0.42271,-0.36107 -0.36107,-0.42271 -0.29055,-0.4741 -0.21295,-0.51378 -0.12969,-0.54071 -0.0436,-0.55417 1e-5,-11.33858 0.0436,-0.55417 0.12968,-0.54071 0.21295,-0.51378 0.29055,-0.4741 0.36107,-0.42271 0.42271,-0.36107 0.4741,-0.29055 0.51377,-0.2126 0.54071,-0.13004 0.55418,-0.0436 0.55417,0.0436 0.54071,0.13003 0.51378,0.2126 0.47409,0.29055 0.42272,0.36107 0.36106,0.42271 0.29055,0.4741 0.21296,0.51378 0.12968,0.54071 0.0436,0.55417 57.14007,0 0.0436,-0.55417 0.12968,-0.54071 0.21295,-0.51378 0.29055,-0.4741 0.36107,-0.42271 0.42271,-0.36107 0.4741,-0.29055 0.51378,-0.2126 0.54071,-0.13004 0.55417,-0.0436 z"
       style="fill:none;stroke:#ff0000;stroke-opacity:1"
       id="path43354"
       sodipodi:nodetypes="ccccccccccccccccccccccccccccccccccccccccccccccccccccccccccccccccccccccccccccccccccccc" />
    <path
       inkscape:connector-curvature="0"
       d="m 458.31376,525.22806 -0.64205,-0.2657 -0.59244,-0.3632 -0.52866,-0.45145 -0.45142,-0.52866 -0.36319,-0.59244 -0.26574,-0.64205 -0.16229,-0.67607 -0.0546,-0.69271 0.0546,-0.69272 0.16227,-0.67606 0.26574,-0.64205 0.36319,-0.59244 0.45142,-0.52866 0.52866,-0.45142 0.59244,-0.36319 0.64205,-0.26574 0.67571,-0.16229 0.69307,-0.0546 0.69272,0.0546 0.67606,0.16227 0.64205,0.26574 0.59244,0.36319 0.52866,0.45142 0.45142,0.52866 0.36283,0.59244 0.2661,0.64205 0.16229,0.67606 0.0546,0.69272 -0.0546,0.69271 -0.16227,0.67607 -0.2661,0.64205 -0.36283,0.59244 -0.45142,0.52866 -0.52866,0.45145 -0.59244,0.3632 -0.64205,0.2657 -0.67606,0.1623 -0.69272,0.0548 -0.69307,-0.055 z"
       style="fill:none;stroke:#ff0000;stroke-opacity:1"
       id="path43398"
       sodipodi:nodetypes="ccccccccccccccccccccccccccccccccccccccccc" />
    <path
       inkscape:connector-curvature="0"
       d="m 284.30478,525.39016 -0.67606,-0.1621 -0.64205,-0.2657 -0.59244,-0.3632 -0.52866,-0.45145 -0.45142,-0.52866 -0.36283,-0.59244 -0.2661,-0.64205 -0.16229,-0.67607 -0.0546,-0.69271 0.0546,-0.69272 0.16227,-0.67606 0.2661,-0.64205 0.36283,-0.59244 0.45142,-0.52866 0.52866,-0.45142 0.59244,-0.36319 0.64205,-0.26574 0.67606,-0.16229 0.69272,-0.0546 0.69272,0.0546 0.67606,0.16227 0.64205,0.26574 0.59244,0.36319 0.52866,0.45142 0.45142,0.52866 0.36319,0.59244 0.26574,0.64205 0.16229,0.67606 0.0546,0.69272 -0.0546,0.69271 -0.16227,0.67607 -0.26574,0.64205 -0.36319,0.59244 -0.45142,0.52866 -0.52866,0.45145 -0.59244,0.3632 -0.64205,0.2657 -0.67606,0.1623 -0.69272,0.0548 z"
       style="fill:none;stroke:#ff0000;stroke-opacity:1"
       id="path43556"
       sodipodi:nodetypes="ccccccccccccccccccccccccccccccccccccccccc" />
    <path
       inkscape:connector-curvature="0"
       d="m 232.55301,519.03507 0.2126,-0.51378 0.29055,-0.47409 0.36107,-0.42272 0.42271,-0.36106 0.4741,-0.29056 0.51378,-0.21295 0.5407,-0.12968 0.55418,-0.0436 0.55417,0.0436 0.54071,0.12968 0.51378,0.21295 0.47409,0.29056 0.42272,0.36106 0.36106,0.42272 0.29055,0.47409 0.21296,0.51378 0.12968,0.54071 0.0436,0.55417 -0.0436,0.55418 -0.12967,0.5407 -0.21296,0.51378 -0.29055,0.4741 -0.36106,0.42271 -0.42272,0.36107 -0.47409,0.29055 -0.51378,0.2126 -0.54071,0.13004 -0.55417,0.0436 -0.55418,-0.0436 -0.5407,-0.13003 -0.51378,-0.2126 -0.4741,-0.29055 -0.42271,-0.36107 -0.36107,-0.42271 -0.29055,-0.4741 -0.2126,-0.51378 -0.13004,-0.5407 -0.0436,-0.55418 0.0436,-0.55417 z"
       style="fill:none;stroke:#ff0000;stroke-opacity:1"
       id="path43578"
       sodipodi:nodetypes="ccccccccccccccccccccccccccccccccccccccccc" />
    <path
       inkscape:connector-curvature="0"
       d="m 505.3873,519.03507 0.21296,-0.51378 0.29055,-0.47409 0.36106,-0.42272 0.42272,-0.36106 0.47409,-0.29056 0.51378,-0.21259 0.54035,-0.13004 0.55453,-0.0436 0.55418,0.0436 0.5407,0.13004 0.51378,0.21259 0.4741,0.29056 0.42271,0.36106 0.36107,0.42272 0.29055,0.47409 0.2126,0.51378 0.13004,0.54071 0.0436,0.55417 -0.0436,0.55418 -0.13003,0.5407 -0.2126,0.51378 -0.29055,0.4741 -0.36107,0.42271 -0.42271,0.36107 -0.4741,0.29055 -0.51378,0.21295 -0.5407,0.12969 -0.55418,0.0436 -0.55453,-0.0436 -0.54035,-0.12968 -0.51378,-0.21295 -0.47409,-0.29055 -0.42272,-0.36107 -0.36106,-0.42271 -0.29055,-0.4741 -0.21296,-0.51378 -0.12968,-0.5407 -0.0436,-0.55418 0.0436,-0.55417 z"
       style="fill:none;stroke:#ff0000;stroke-opacity:1"
       id="path43658"
       sodipodi:nodetypes="ccccccccccccccccccccccccccccccccccccccccc" />
    <path
       inkscape:connector-curvature="0"
       d="m 521.28754,529.91376 0.64205,0.2657 0.59244,0.3632 0.52866,0.4514 0.45142,0.5287 0.36283,0.5924 0.2661,0.6421 0.16229,0.676 0.0546,0.6928 -0.0546,0.6927 -0.16227,0.676 -0.2661,0.6421 -0.36283,0.5924 -0.45142,0.5287 -0.52866,0.4514 -0.59244,0.3632 -0.64205,0.2657 -0.67606,0.1623 -0.69272,0.0548 -0.69272,-0.055 -0.67606,-0.1621 -0.64205,-0.2657 -0.59244,-0.3632 -0.52866,-0.4514 -0.45142,-0.5287 -0.36319,-0.5924 -0.26574,-0.6421 -0.16229,-0.676 -0.0546,-0.6927 0.0546,-0.6928 0.16227,-0.676 0.26574,-0.6421 0.36319,-0.5924 0.45142,-0.5287 0.52866,-0.4514 0.59244,-0.3632 0.64205,-0.2657 0.67606,-0.1623 0.69272,-0.0548 0.69272,0.055 z"
       style="fill:none;stroke:#ff0000;stroke-opacity:1"
       id="path43758"
       sodipodi:nodetypes="ccccccccccccccccccccccccccccccccccccccccc" />
    <path
       inkscape:connector-curvature="0"
       d="m 225.454,529.75166 0.67606,0.1621 0.64205,0.2657 0.59244,0.3632 0.52866,0.4514 0.45142,0.5287 0.36319,0.5924 0.26574,0.6421 0.16229,0.676 0.0546,0.6928 -0.0546,0.6927 -0.16227,0.676 -0.26574,0.6421 -0.36319,0.5924 -0.45142,0.5287 -0.52866,0.4514 -0.59244,0.3632 -0.64205,0.2657 -0.67606,0.1623 -0.69272,0.0548 -0.69272,-0.055 -0.67606,-0.1621 -0.64205,-0.2657 -0.59244,-0.3632 -0.52866,-0.4514 -0.45142,-0.5287 -0.36283,-0.5924 -0.2661,-0.6421 -0.16229,-0.676 -0.0546,-0.6927 0.0546,-0.6928 0.16227,-0.676 0.2661,-0.6421 0.36283,-0.5924 0.45142,-0.5287 0.52866,-0.4514 0.59244,-0.3632 0.64205,-0.2657 0.67606,-0.1623 0.69272,-0.0548 z"
       style="fill:none;stroke:#ff0000;stroke-opacity:1"
       id="path43836"
       sodipodi:nodetypes="ccccccccccccccccccccccccccccccccccccccccc" />
    <path
       inkscape:connector-curvature="0"
       d="m 346.60243,529.91376 0.64212,0.2657 0.59254,0.3632 0.52852,0.4514 0.45139,0.5287 0.36311,0.5924 0.266,0.6421 0.16228,0.676 0.0545,0.6928 -0.0545,0.6927 -0.16228,0.676 -0.266,0.6421 -0.36311,0.5924 -0.45139,0.5287 -0.52852,0.4514 -0.59254,0.3632 -0.64212,0.2657 -0.67582,0.1623 -0.69285,0.0548 -0.6929,-0.055 -0.67581,-0.1621 -0.64209,-0.2657 -0.59258,-0.3632 -0.52848,-0.4514 -0.45142,-0.5287 -0.36312,-0.5924 -0.26596,-0.6421 -0.16225,-0.676 -0.0545,-0.6927 0.0545,-0.6928 0.16226,-0.676 0.26596,-0.6421 0.36312,-0.5924 0.45142,-0.5287 0.52848,-0.4514 0.59258,-0.3632 0.64209,-0.2657 0.67581,-0.1623 0.6929,-0.0548 0.69285,0.055 z"
       style="fill:none;stroke:#ff0000;stroke-opacity:1"
       id="path43918"
       sodipodi:nodetypes="ccccccccccccccccccccccccccccccccccccccccc" />
    <path
       inkscape:connector-curvature="0"
       d="m 400.81492,529.91376 0.64212,0.2657 0.59255,0.3632 0.52852,0.4514 0.45138,0.5287 0.36312,0.5924 0.26596,0.6421 0.16224,0.676 0.0546,0.6928 -0.0546,0.6927 -0.16222,0.676 -0.26596,0.6421 -0.36312,0.5924 -0.45138,0.5287 -0.52852,0.4514 -0.59255,0.3632 -0.64212,0.2657 -0.67581,0.1623 -0.69286,0.0548 -0.69286,-0.055 -0.67585,-0.1621 -0.64208,-0.2657 -0.59259,-0.3632 -0.52848,-0.4514 -0.45142,-0.5287 -0.36312,-0.5924 -0.26599,-0.6421 -0.16225,-0.676 -0.0545,-0.6927 0.0545,-0.6928 0.16225,-0.676 0.26599,-0.6421 0.36312,-0.5924 0.45142,-0.5287 0.52848,-0.4514 0.59259,-0.3632 0.64208,-0.2657 0.67585,-0.1623 0.69286,-0.0548 0.69286,0.055 z"
       style="fill:none;stroke:#ff0000;stroke-opacity:1"
       id="path43998"
       sodipodi:nodetypes="ccccccccccccccccccccccccccccccccccccccccc" />
    <path
       inkscape:connector-curvature="0"
       d="m 564.82026,574.83281 -0.54284,-0.12035 -0.51768,-0.2038 -0.4787,-0.2822 -0.42909,-0.3536 -0.36851,-0.4165 -0.2987,-0.4689 -0.22181,-0.5099 -0.13925,-0.5383 -0.0531,-0.5534 0.034,-0.555 0.12013,-0.5428 0.20374,-0.5174 0.2824,-0.479 0.35362,-0.429 0.41634,-0.3686 0.46913,-0.2987 0.50988,-0.2216 0.53823,-0.1393 0.55347,-0.0532 0.55488,0.0339 0.54283,0.1203 0.51733,0.2038 0.47905,0.2822 0.4291,0.3536 0.3685,0.4165 0.2987,0.4689 0.22181,0.5099 0.13925,0.5383 0.0532,0.5535 -0.034,0.555 -0.12049,0.5428 -0.20374,0.5173 -0.28204,0.4791 -0.35363,0.429 -0.41669,0.3685 -0.46878,0.2987 -0.50988,0.2217 -0.53823,0.1392 -0.55346,0.0532 z"
       style="fill:none;stroke:#ff0000;stroke-opacity:1"
       id="path44116"
       sodipodi:nodetypes="ccccccccccccccccccccccccccccccccccccccccc" />
    <path
       inkscape:connector-curvature="0"
       d="m 178.21321,574.67426 -0.50988,-0.2217 -0.46878,-0.2987 -0.41669,-0.3685 -0.35363,-0.429 -0.28204,-0.4791 -0.20374,-0.5173 -0.12048,-0.5428 -0.034,-0.555 0.0532,-0.5535 0.13923,-0.5383 0.22181,-0.5099 0.2987,-0.4689 0.3685,-0.4165 0.4291,-0.3536 0.47905,-0.2822 0.51733,-0.2038 0.54283,-0.1203 0.55488,-0.034 0.55347,0.0531 0.53823,0.13935 0.50988,0.2217 0.46913,0.2987 0.41634,0.3685 0.35362,0.4291 0.28205,0.479 0.20409,0.5174 0.12012,0.5428 0.034,0.555 -0.0531,0.5534 -0.13927,0.5383 -0.22181,0.5099 -0.2987,0.4689 -0.36851,0.4165 -0.42909,0.3536 -0.47906,0.2822 -0.51732,0.2038 -0.54284,0.1203 -0.55488,0.034 -0.55346,-0.0531 z"
       style="fill:none;stroke:#ff0000;stroke-opacity:1"
       id="path44118"
       sodipodi:nodetypes="ccccccccccccccccccccccccccccccccccccccccc" />
    <path
       inkscape:connector-curvature="0"
       d="m 508.98837,584.67736 -0.54248,-0.1203 -0.51733,-0.2038 -0.47905,-0.2822 -0.4291,-0.3537 -0.3685,-0.4164 -0.2987,-0.4689 -0.22181,-0.5099 -0.13925,-0.5383 -0.0531,-0.5535 0.034,-0.5549 0.12013,-0.5429 0.20374,-0.5173 0.2824,-0.479 0.35362,-0.4291 0.41634,-0.3684 0.46914,-0.2987 0.50952,-0.2218 0.53859,-0.1392 0.55346,-0.0532 0.55488,0.0338 0.54284,0.12035 0.51732,0.2038 0.47906,0.2822 0.42909,0.3537 0.3685,0.4164 0.2987,0.4689 0.22146,0.5099 0.13925,0.5383 0.0535,0.5535 -0.034,0.5549 -0.12048,0.5428 -0.20374,0.5174 -0.28205,0.479 -0.35362,0.4291 -0.41669,0.3685 -0.46878,0.2987 -0.50988,0.2217 -0.53823,0.1391 -0.55347,0.0532 z"
       style="fill:none;stroke:#ff0000;stroke-opacity:1"
       id="path44276"
       sodipodi:nodetypes="ccccccccccccccccccccccccccccccccccccccccc" />
    <path
       inkscape:connector-curvature="0"
       d="m 234.04474,584.51886 -0.50988,-0.2218 -0.46878,-0.2987 -0.41669,-0.3684 -0.35362,-0.4291 -0.28205,-0.479 -0.20374,-0.5174 -0.12047,-0.5428 -0.034,-0.5549 0.0535,-0.5535 0.13925,-0.5383 0.22146,-0.5099 0.2987,-0.4689 0.3685,-0.4165 0.42909,-0.3536 0.47906,-0.2822 0.51732,-0.2038 0.54284,-0.1204 0.55488,-0.034 0.55346,0.0532 0.53859,0.13935 0.50952,0.2218 0.46914,0.2987 0.41634,0.3684 0.35362,0.4291 0.2824,0.479 0.20374,0.5173 0.12012,0.5429 0.034,0.5549 -0.0531,0.5535 -0.13927,0.5383 -0.22181,0.5099 -0.2987,0.4689 -0.3685,0.4164 -0.4291,0.3537 -0.47905,0.2822 -0.51733,0.2038 -0.54248,0.1203 -0.55523,0.034 -0.55347,-0.0532 z"
       style="fill:none;stroke:#ff0000;stroke-opacity:1"
       id="path44278"
       sodipodi:nodetypes="ccccccccccccccccccccccccccccccccccccccccc" />
    <path
       inkscape:connector-curvature="0"
       d="m 546.36884,586.31506 5.98323,33.9303 -11.51611,2.0307 -5.98252,-33.9301 z"
       style="fill:none;stroke:#ff0000;stroke-opacity:1"
       id="path44358"
       sodipodi:nodetypes="ccccc" />
    <path
       inkscape:connector-curvature="0"
       d="m 203.84372,622.27606 -11.51539,-2.0303 5.98252,-33.9304 11.51575,2.0302 z"
       style="fill:none;stroke:#ff0000;stroke-opacity:1"
       id="path44370"
       sodipodi:nodetypes="ccccc" />
    <path
       inkscape:connector-curvature="0"
       d="m 173.29085,602.58996 -0.50988,-0.2217 -0.46878,-0.2987 -0.4167,-0.3685 -0.35362,-0.429 -0.28205,-0.479 -0.20374,-0.5174 -0.12047,-0.5428 -0.034,-0.5549 0.0535,-0.5536 0.13925,-0.5383 0.22146,-0.5098 0.2987,-0.4689 0.3685,-0.4165 0.4291,-0.3536 0.47905,-0.2822 0.51733,-0.2039 0.54283,-0.1203 0.55488,-0.034 0.55347,0.0532 0.53822,0.13935 0.50989,0.2217 0.46913,0.2987 0.41634,0.3685 0.35362,0.4291 0.2824,0.479 0.20374,0.5173 0.12012,0.5428 0.034,0.555 -0.0532,0.5534 -0.13923,0.5384 -0.22181,0.5099 -0.2987,0.4688 -0.3685,0.4165 -0.4291,0.3536 -0.47905,0.2823 -0.51732,0.2038 -0.54284,0.1203 -0.55488,0.034 -0.55346,-0.0532 z"
       style="fill:none;stroke:#ff0000;stroke-opacity:1"
       id="path44374"
       sodipodi:nodetypes="ccccccccccccccccccccccccccccccccccccccccc" />
    <path
       inkscape:connector-curvature="0"
       d="m 569.74226,602.74856 -0.54248,-0.1203 -0.51767,-0.2038 -0.47906,-0.2822 -0.42874,-0.3537 -0.3685,-0.4164 -0.2987,-0.4689 -0.22181,-0.5099 -0.13926,-0.5384 -0.0532,-0.5534 0.0337,-0.5549 0.12046,-0.5428 0.20374,-0.5174 0.2824,-0.479 0.35362,-0.4291 0.41634,-0.3685 0.46878,-0.2987 0.50988,-0.2217 0.53858,-0.1392 0.55347,-0.0532 0.55488,0.0338 0.54283,0.12025 0.51733,0.2039 0.47905,0.2822 0.4291,0.3536 0.3685,0.4165 0.2987,0.4689 0.22146,0.5098 0.13925,0.5383 0.0535,0.5536 -0.034,0.5549 -0.12048,0.5428 -0.20374,0.5174 -0.28205,0.479 -0.35362,0.429 -0.4167,0.3685 -0.46878,0.2987 -0.50988,0.2217 -0.53823,0.1392 -0.55346,0.0532 z"
       style="fill:none;stroke:#ff0000;stroke-opacity:1"
       id="path44532"
       sodipodi:nodetypes="ccccccccccccccccccccccccccccccccccccccccc" />
    <path
       inkscape:connector-curvature="0"
       d="m 513.91073,612.59326 -0.54284,-0.1205 -0.51732,-0.2037 -0.47905,-0.2822 -0.42874,-0.3537 -0.36851,-0.4164 -0.2987,-0.469 -0.22181,-0.5098 -0.13925,-0.5383 -0.0531,-0.5535 0.0337,-0.5549 0.12045,-0.5428 0.20374,-0.5174 0.2824,-0.479 0.35363,-0.4291 0.41633,-0.3685 0.46878,-0.2987 0.50989,-0.2217 0.53858,-0.1392 0.55311,-0.0532 0.55523,0.0339 0.54284,0.1203 0.51732,0.2038 0.47906,0.2822 0.42909,0.3537 0.36815,0.4164 0.2987,0.4689 0.22181,0.5099 0.13926,0.5383 0.0531,0.5535 -0.0337,0.5549 -0.12045,0.5429 -0.20374,0.5173 -0.2824,0.479 -0.35362,0.4291 -0.41634,0.3684 -0.46878,0.2987 -0.50988,0.2217 -0.53859,0.1392 -0.55311,0.0533 z"
       style="fill:none;stroke:#ff0000;stroke-opacity:1"
       id="path44612"
       sodipodi:nodetypes="ccccccccccccccccccccccccccccccccccccccccc" />
    <path
       inkscape:connector-curvature="0"
       d="m 229.12238,612.43456 -0.50988,-0.2217 -0.46878,-0.2987 -0.41669,-0.3684 -0.35362,-0.4291 -0.28205,-0.479 -0.20374,-0.5173 -0.12047,-0.5429 -0.034,-0.5549 0.0535,-0.5535 0.13926,-0.5383 0.22145,-0.5099 0.2987,-0.4689 0.36851,-0.4165 0.42909,-0.3536 0.47906,-0.2822 0.51732,-0.2038 0.54284,-0.1203 0.55488,-0.034 0.55346,0.0531 0.53858,0.13935 0.50989,0.2217 0.46878,0.2987 0.41633,0.3685 0.35363,0.4291 0.2824,0.479 0.20374,0.5174 0.12047,0.5428 0.0337,0.5549 -0.0532,0.5535 -0.13927,0.5383 -0.22181,0.5098 -0.2987,0.469 -0.36851,0.4164 -0.42874,0.3537 -0.47905,0.2822 -0.51732,0.2037 -0.54284,0.1205 -0.55523,0.034 -0.55311,-0.0532 z"
       style="fill:none;stroke:#ff0000;stroke-opacity:1"
       id="path44614"
       sodipodi:nodetypes="ccccccccccccccccccccccccccccccccccccccccc" />
    <path
       inkscape:connector-curvature="0"
       d="m 576.19392,623.76706 0.51732,0.2038 0.47906,0.2824 0.42909,0.3536 0.36815,0.4163 0.29905,0.4688 0.22146,0.5099 0.13925,0.5382 0.0532,0.5535 -0.0337,0.5552 -0.12045,0.5428 -0.20374,0.5174 -0.2824,0.479 -0.35363,0.4288 -0.41633,0.3685 -0.46878,0.2987 -0.50989,0.2218 -0.53822,0.1392 -0.55382,0.0531 -0.55488,-0.0338 -0.54284,-0.12035 -0.51732,-0.2037 -0.47906,-0.2824 -0.42909,-0.3536 -0.36815,-0.4164 -0.2987,-0.4687 -0.22181,-0.5099 -0.13925,-0.5386 -0.0532,-0.5531 0.0337,-0.5552 0.12045,-0.5429 0.20374,-0.5173 0.2824,-0.4791 0.35362,-0.4291 0.41634,-0.3681 0.46878,-0.2987 0.50988,-0.2218 0.53859,-0.1393 0.55346,-0.053 0.55488,0.0337 z"
       style="fill:none;stroke:#ff0000;stroke-opacity:1"
       id="path44734"
       sodipodi:nodetypes="ccccccccccccccccccccccccccccccccccccccccc" />
    <path
       inkscape:connector-curvature="0"
       d="m 170.1373,623.66601 0.53859,0.13935 0.50988,0.2218 0.46878,0.2987 0.41634,0.3681 0.35362,0.4291 0.2824,0.4791 0.20374,0.5173 0.12012,0.5429 0.034,0.5548 -0.0532,0.5535 -0.13922,0.5386 -0.22181,0.5099 -0.2987,0.4687 -0.3685,0.4164 -0.42874,0.3536 -0.47906,0.2824 -0.51732,0.2037 -0.54284,0.1205 -0.55523,0.0339 -0.55347,-0.0533 -0.53822,-0.1393 -0.50989,-0.2218 -0.46878,-0.2987 -0.41633,-0.3685 -0.35363,-0.4288 -0.2824,-0.479 -0.20374,-0.5174 -0.12047,-0.5428 -0.0337,-0.5552 0.0532,-0.5535 0.13923,-0.5382 0.22146,-0.5099 0.29905,-0.4688 0.36815,-0.4163 0.42909,-0.3536 0.47906,-0.2824 0.51732,-0.2038 0.54284,-0.1205 0.55488,-0.0338 z"
       style="fill:none;stroke:#ff0000;stroke-opacity:1"
       id="path44812"
       sodipodi:nodetypes="ccccccccccccccccccccccccccccccccccccccccc" />
    <path
       inkscape:connector-curvature="0"
       d="m 519.81919,633.49136 0.54284,0.1204 0.51767,0.2038 0.47906,0.282 0.42874,0.3537 0.3685,0.4166 0.2987,0.4688 0.22182,0.5099 0.13925,0.5382 0.0531,0.5535 -0.034,0.5549 -0.12013,0.5428 -0.20374,0.5173 -0.2824,0.4791 -0.35362,0.4291 -0.41634,0.3685 -0.46913,0.2987 -0.50988,0.2218 -0.53823,0.1393 -0.55347,0.053 -0.55488,-0.034 -0.54283,-0.1201 -0.51733,-0.2041 -0.47905,-0.2821 -0.4291,-0.3536 -0.3685,-0.4163 -0.2987,-0.4692 -0.22146,-0.5098 -0.13925,-0.5383 -0.0535,-0.5534 0.034,-0.5549 0.12048,-0.5429 0.20375,-0.5173 0.2824,-0.479 0.35326,-0.4291 0.4167,-0.3685 0.46878,-0.2987 0.50988,-0.2218 0.53823,-0.1389 0.55346,-0.0532 z"
       style="fill:none;stroke:#ff0000;stroke-opacity:1"
       id="path44892"
       sodipodi:nodetypes="ccccccccccccccccccccccccccccccccccccccccc" />
    <path
       inkscape:connector-curvature="0"
       d="m 226.50742,633.64976 0.50988,0.2218 0.46878,0.2987 0.4167,0.3685 0.35326,0.4291 0.2824,0.479 0.20375,0.5173 0.12047,0.5429 0.034,0.5549 -0.0535,0.5534 -0.13925,0.5383 -0.22146,0.5098 -0.2987,0.4692 -0.3685,0.4163 -0.4291,0.3536 -0.47905,0.2821 -0.51733,0.2041 -0.54283,0.1201 -0.55488,0.034 -0.55347,-0.053 -0.53858,-0.13935 -0.50988,-0.2218 -0.46878,-0.2987 -0.41634,-0.3685 -0.35362,-0.4291 -0.2824,-0.4791 -0.20374,-0.5173 -0.12048,-0.5428 -0.034,-0.5549 0.0535,-0.5535 0.13925,-0.5382 0.22182,-0.5099 0.2987,-0.4688 0.3685,-0.4166 0.42874,-0.3537 0.47906,-0.282 0.51732,-0.2038 0.54283,-0.1204 0.55524,-0.034 0.55346,0.0533 z"
       style="fill:none;stroke:#ff0000;stroke-opacity:1"
       id="path44974"
       sodipodi:nodetypes="ccccccccccccccccccccccccccccccccccccccccc" />
  </g>
</svg>
