  0
SECTION
  2
BLOCKS
  0
ENDSEC
  0
SECTION
  2
ENTITIES
  0
LINE
  8
0
 10
69.1533
 20
27.6665
 11
69.1532
 21
41.6
  0
LINE
  8
0
 10
69.1532
 20
41.6
 11
71.686
 21
41.6001
  0
LINE
  8
0
 10
71.686
 20
41.6001
 11
71.686
 21
69.6912
  0
LINE
  8
0
 10
71.686
 20
69.6912
 11
69.9663
 21
71.4473
  0
LINE
  8
0
 10
69.9663
 20
71.4473
 11
66.9131
 21
74.3145
  0
LINE
  8
0
 10
66.9131
 20
74.3145
 11
63.7424
 21
77.0513
  0
LINE
  8
0
 10
63.7424
 20
77.0513
 11
60.4599
 21
79.653
  0
LINE
  8
0
 10
60.4599
 20
79.653
 11
57.0714
 21
82.1149
  0
LINE
  8
0
 10
57.0714
 20
82.1149
 11
53.5827
 21
84.4328
  0
LINE
  8
0
 10
53.5827
 20
84.4328
 11
50
 21
86.6025
  0
LINE
  8
0
 10
50
 20
86.6025
 11
46.3296
 21
88.6203
  0
LINE
  8
0
 10
46.3296
 20
88.6203
 11
42.5779
 21
90.4827
  0
LINE
  8
0
 10
42.5779
 20
90.4827
 11
38.7516
 21
92.1863
  0
LINE
  8
0
 10
38.7516
 20
92.1863
 11
34.8572
 21
93.7282
  0
LINE
  8
0
 10
34.8572
 20
93.7282
 11
30.9017
 21
95.1056
  0
LINE
  8
0
 10
30.9017
 20
95.1056
 11
26.892
 21
96.3163
  0
LINE
  8
0
 10
26.892
 20
96.3163
 11
22.8351
 21
97.3579
  0
LINE
  8
0
 10
22.8351
 20
97.3579
 11
18.7381
 21
98.2287
  0
LINE
  8
0
 10
18.7381
 20
98.2287
 11
14.6083
 21
98.9272
  0
LINE
  8
0
 10
14.6083
 20
98.9272
 11
10.4528
 21
99.4522
  0
LINE
  8
0
 10
10.4528
 20
99.4522
 11
6.27904
 21
99.8027
  0
LINE
  8
0
 10
6.27904
 20
99.8027
 11
2.09424
 21
99.9781
  0
LINE
  8
0
 10
2.09424
 20
99.9781
 11
-2.09424
 21
99.9781
  0
LINE
  8
0
 10
-2.09424
 20
99.9781
 11
-6.27904
 21
99.8027
  0
LINE
  8
0
 10
-6.27904
 20
99.8027
 11
-10.4528
 21
99.4522
  0
LINE
  8
0
 10
-10.4528
 20
99.4522
 11
-14.6083
 21
98.9272
  0
LINE
  8
0
 10
-14.6083
 20
98.9272
 11
-18.7381
 21
98.2287
  0
LINE
  8
0
 10
-18.7381
 20
98.2287
 11
-22.8351
 21
97.3579
  0
LINE
  8
0
 10
-22.8351
 20
97.3579
 11
-26.892
 21
96.3163
  0
LINE
  8
0
 10
-26.892
 20
96.3163
 11
-30.9017
 21
95.1056
  0
LINE
  8
0
 10
-30.9017
 20
95.1056
 11
-34.8572
 21
93.7282
  0
LINE
  8
0
 10
-34.8572
 20
93.7282
 11
-38.7516
 21
92.1863
  0
LINE
  8
0
 10
-38.7516
 20
92.1863
 11
-42.5779
 21
90.4827
  0
LINE
  8
0
 10
-42.5779
 20
90.4827
 11
-46.3296
 21
88.6203
  0
LINE
  8
0
 10
-46.3296
 20
88.6203
 11
-50
 21
86.6025
  0
LINE
  8
0
 10
-50
 20
86.6025
 11
-53.5827
 21
84.4328
  0
LINE
  8
0
 10
-53.5827
 20
84.4328
 11
-57.0714
 21
82.1149
  0
LINE
  8
0
 10
-57.0714
 20
82.1149
 11
-60.4599
 21
79.653
  0
LINE
  8
0
 10
-60.4599
 20
79.653
 11
-63.7424
 21
77.0513
  0
LINE
  8
0
 10
-63.7424
 20
77.0513
 11
-66.9131
 21
74.3145
  0
LINE
  8
0
 10
-66.9131
 20
74.3145
 11
-69.9663
 21
71.4473
  0
LINE
  8
0
 10
-69.9663
 20
71.4473
 11
-71.686
 21
69.6912
  0
LINE
  8
0
 10
-71.686
 20
69.6912
 11
-71.686
 21
41.6
  0
LINE
  8
0
 10
-71.686
 20
41.6
 11
-69.1533
 21
41.6001
  0
LINE
  8
0
 10
-69.1533
 20
41.6001
 11
-69.1533
 21
27.6665
  0
LINE
  8
0
 10
-69.1533
 20
27.6665
 11
-71.686
 21
27.6665
  0
LINE
  8
0
 10
-71.686
 20
27.6665
 11
-71.686
 21
13.8333
  0
LINE
  8
0
 10
-71.686
 20
13.8333
 11
-69.1533
 21
13.8334
  0
LINE
  8
0
 10
-69.1533
 20
13.8334
 11
-69.1532
 21
-2.86674
  0
LINE
  8
0
 10
-69.1532
 20
-2.86674
 11
-71.686
 21
-2.86681
  0
LINE
  8
0
 10
-71.686
 20
-2.86681
 11
-71.686
 21
-3.99077
  0
LINE
  8
0
 10
-71.686
 20
-3.99077
 11
-71.6148
 21
-4.04424
  0
LINE
  8
0
 10
-71.6148
 20
-4.04424
 11
-71.5526
 21
-4.10028
  0
LINE
  8
0
 10
-71.5526
 20
-4.10028
 11
-71.4952
 21
-4.16133
  0
LINE
  8
0
 10
-71.4952
 20
-4.16133
 11
-71.4432
 21
-4.22696
  0
LINE
  8
0
 10
-71.4432
 20
-4.22696
 11
-71.3969
 21
-4.29672
  0
LINE
  8
0
 10
-71.3969
 20
-4.29672
 11
-71.3565
 21
-4.37012
  0
LINE
  8
0
 10
-71.3565
 20
-4.37012
 11
-71.3225
 21
-4.44662
  0
LINE
  8
0
 10
-71.3225
 20
-4.44662
 11
-71.2949
 21
-4.52573
  0
LINE
  8
0
 10
-71.2949
 20
-4.52573
 11
-71.2741
 21
-4.60684
  0
LINE
  8
0
 10
-71.2741
 20
-4.60684
 11
-71.2601
 21
-4.68942
  0
LINE
  8
0
 10
-71.2601
 20
-4.68942
 11
-71.2531
 21
-4.77287
  0
LINE
  8
0
 10
-71.2531
 20
-4.77287
 11
-71.2522
 21
-54.8147
  0
LINE
  8
0
 10
-71.2522
 20
-54.8147
 11
-71.2373
 21
-55.5266
  0
LINE
  8
0
 10
-71.2373
 20
-55.5266
 11
-71.1926
 21
-56.2373
  0
LINE
  8
0
 10
-71.1926
 20
-56.2373
 11
-71.1182
 21
-56.9454
  0
LINE
  8
0
 10
-71.1182
 20
-56.9454
 11
-71.0142
 21
-57.6498
  0
LINE
  8
0
 10
-71.0142
 20
-57.6498
 11
-70.8807
 21
-58.3492
  0
LINE
  8
0
 10
-70.8807
 20
-58.3492
 11
-70.7182
 21
-59.0425
  0
LINE
  8
0
 10
-70.7182
 20
-59.0425
 11
-70.5267
 21
-59.7283
  0
LINE
  8
0
 10
-70.5267
 20
-59.7283
 11
-70.3066
 21
-60.4055
  0
LINE
  8
0
 10
-70.3066
 20
-60.4055
 11
-70.0584
 21
-61.0728
  0
LINE
  8
0
 10
-70.0584
 20
-61.0728
 11
-69.7825
 21
-61.7293
  0
LINE
  8
0
 10
-69.7825
 20
-61.7293
 11
-69.4793
 21
-62.3735
  0
LINE
  8
0
 10
-69.4793
 20
-62.3735
 11
-69.1494
 21
-63.0045
  0
LINE
  8
0
 10
-69.1494
 20
-63.0045
 11
-68.7934
 21
-63.6212
  0
LINE
  8
0
 10
-68.7934
 20
-63.6212
 11
-68.4119
 21
-64.2224
  0
LINE
  8
0
 10
-68.4119
 20
-64.2224
 11
-68.0055
 21
-64.8071
  0
LINE
  8
0
 10
-68.0055
 20
-64.8071
 11
-67.575
 21
-65.3743
  0
LINE
  8
0
 10
-67.575
 20
-65.3743
 11
-67.1212
 21
-65.9229
  0
LINE
  8
0
 10
-67.1212
 20
-65.9229
 11
-66.6447
 21
-66.452
  0
LINE
  8
0
 10
-66.6447
 20
-66.452
 11
-66.1465
 21
-66.9608
  0
LINE
  8
0
 10
-66.1465
 20
-66.9608
 11
-65.6275
 21
-67.4482
  0
LINE
  8
0
 10
-65.6275
 20
-67.4482
 11
-65.0884
 21
-67.9135
  0
LINE
  8
0
 10
-65.0884
 20
-67.9135
 11
-64.5304
 21
-68.3557
  0
LINE
  8
0
 10
-64.5304
 20
-68.3557
 11
-63.9544
 21
-68.7743
  0
LINE
  8
0
 10
-63.9544
 20
-68.7743
 11
-63.3613
 21
-69.1683
  0
LINE
  8
0
 10
-63.3613
 20
-69.1683
 11
-62.7522
 21
-69.5372
  0
LINE
  8
0
 10
-62.7522
 20
-69.5372
 11
-62.1283
 21
-69.8802
  0
LINE
  8
0
 10
-62.1283
 20
-69.8802
 11
-61.4905
 21
-70.1968
  0
LINE
  8
0
 10
-61.4905
 20
-70.1968
 11
-60.84
 21
-70.4864
  0
LINE
  8
0
 10
-60.84
 20
-70.4864
 11
-60.178
 21
-70.7485
  0
LINE
  8
0
 10
-60.178
 20
-70.7485
 11
-59.5055
 21
-70.9827
  0
LINE
  8
0
 10
-59.5055
 20
-70.9827
 11
-58.8239
 21
-71.1885
  0
LINE
  8
0
 10
-58.8239
 20
-71.1885
 11
-58.1342
 21
-71.3656
  0
LINE
  8
0
 10
-58.1342
 20
-71.3656
 11
-57.4377
 21
-71.5136
  0
LINE
  8
0
 10
-57.4377
 20
-71.5136
 11
-56.7356
 21
-71.6324
  0
LINE
  8
0
 10
-56.7356
 20
-71.6324
 11
-56.0292
 21
-71.7216
  0
LINE
  8
0
 10
-56.0292
 20
-71.7216
 11
-55.3197
 21
-71.7812
  0
LINE
  8
0
 10
-55.3197
 20
-71.7812
 11
-54.6083
 21
-71.811
  0
LINE
  8
0
 10
-54.6083
 20
-71.811
 11
-53.8962
 21
-71.811
  0
LINE
  8
0
 10
-53.8962
 20
-71.811
 11
-53.1848
 21
-71.7812
  0
LINE
  8
0
 10
-53.1848
 20
-71.7812
 11
-52.4753
 21
-71.7216
  0
LINE
  8
0
 10
-52.4753
 20
-71.7216
 11
-51.7688
 21
-71.6324
  0
LINE
  8
0
 10
-51.7688
 20
-71.6324
 11
-51.0668
 21
-71.5136
  0
LINE
  8
0
 10
-51.0668
 20
-71.5136
 11
-50.3703
 21
-71.3656
  0
LINE
  8
0
 10
-50.3703
 20
-71.3656
 11
-49.6806
 21
-71.1885
  0
LINE
  8
0
 10
-49.6806
 20
-71.1885
 11
-48.999
 21
-70.9827
  0
LINE
  8
0
 10
-48.999
 20
-70.9827
 11
-48.3265
 21
-70.7485
  0
LINE
  8
0
 10
-48.3265
 20
-70.7485
 11
-47.6645
 21
-70.4864
  0
LINE
  8
0
 10
-47.6645
 20
-70.4864
 11
-47.014
 21
-70.1968
  0
LINE
  8
0
 10
-47.014
 20
-70.1968
 11
-46.3762
 21
-69.8802
  0
LINE
  8
0
 10
-46.3762
 20
-69.8802
 11
-45.7523
 21
-69.5372
  0
LINE
  8
0
 10
-45.7523
 20
-69.5372
 11
-45.1432
 21
-69.1683
  0
LINE
  8
0
 10
-45.1432
 20
-69.1683
 11
-44.5501
 21
-68.7743
  0
LINE
  8
0
 10
-44.5501
 20
-68.7743
 11
-43.9741
 21
-68.3557
  0
LINE
  8
0
 10
-43.9741
 20
-68.3557
 11
-43.416
 21
-67.9135
  0
LINE
  8
0
 10
-43.416
 20
-67.9135
 11
-42.877
 21
-67.4482
  0
LINE
  8
0
 10
-42.877
 20
-67.4482
 11
-42.358
 21
-66.9608
  0
LINE
  8
0
 10
-42.358
 20
-66.9608
 11
-41.8598
 21
-66.452
  0
LINE
  8
0
 10
-41.8598
 20
-66.452
 11
-41.3833
 21
-65.9229
  0
LINE
  8
0
 10
-41.3833
 20
-65.9229
 11
-40.9295
 21
-65.3743
  0
LINE
  8
0
 10
-40.9295
 20
-65.3743
 11
-40.499
 21
-64.8071
  0
LINE
  8
0
 10
-40.499
 20
-64.8071
 11
-40.0926
 21
-64.2224
  0
LINE
  8
0
 10
-40.0926
 20
-64.2224
 11
-39.7111
 21
-63.6212
  0
LINE
  8
0
 10
-39.7111
 20
-63.6212
 11
-39.355
 21
-63.0045
  0
LINE
  8
0
 10
-39.355
 20
-63.0045
 11
-39.0251
 21
-62.3735
  0
LINE
  8
0
 10
-39.0251
 20
-62.3735
 11
-38.722
 21
-61.7293
  0
LINE
  8
0
 10
-38.722
 20
-61.7293
 11
-38.446
 21
-61.0728
  0
LINE
  8
0
 10
-38.446
 20
-61.0728
 11
-38.1978
 21
-60.4055
  0
LINE
  8
0
 10
-38.1978
 20
-60.4055
 11
-37.9778
 21
-59.7283
  0
LINE
  8
0
 10
-37.9778
 20
-59.7283
 11
-37.7863
 21
-59.0425
  0
LINE
  8
0
 10
-37.7863
 20
-59.0425
 11
-37.6237
 21
-58.3492
  0
LINE
  8
0
 10
-37.6237
 20
-58.3492
 11
-37.4903
 21
-57.6498
  0
LINE
  8
0
 10
-37.4903
 20
-57.6498
 11
-37.3863
 21
-56.9454
  0
LINE
  8
0
 10
-37.3863
 20
-56.9454
 11
-37.3119
 21
-56.2373
  0
LINE
  8
0
 10
-37.3119
 20
-56.2373
 11
-37.2672
 21
-55.5266
  0
LINE
  8
0
 10
-37.2672
 20
-55.5266
 11
-37.2522
 21
-54.8147
  0
LINE
  8
0
 10
-37.2522
 20
-54.8147
 11
-37.2522
 21
-4.81474
  0
LINE
  8
0
 10
-37.2522
 20
-4.81474
 11
-37.2487
 21
-4.73108
  0
LINE
  8
0
 10
-37.2487
 20
-4.73108
 11
-37.2383
 21
-4.64798
  0
LINE
  8
0
 10
-37.2383
 20
-4.64798
 11
-37.2208
 21
-4.56606
  0
LINE
  8
0
 10
-37.2208
 20
-4.56606
 11
-37.1966
 21
-4.48589
  0
LINE
  8
0
 10
-37.1966
 20
-4.48589
 11
-37.1658
 21
-4.40802
  0
LINE
  8
0
 10
-37.1658
 20
-4.40802
 11
-37.1286
 21
-4.33299
  0
LINE
  8
0
 10
-37.1286
 20
-4.33299
 11
-37.0852
 21
-4.26135
  0
LINE
  8
0
 10
-37.0852
 20
-4.26135
 11
-37.0359
 21
-4.1936
  0
LINE
  8
0
 10
-37.0359
 20
-4.1936
 11
-36.9812
 21
-4.1302
  0
LINE
  8
0
 10
-36.9812
 20
-4.1302
 11
-36.9214
 21
-4.07161
  0
LINE
  8
0
 10
-36.9214
 20
-4.07161
 11
-36.8569
 21
-4.01822
  0
LINE
  8
0
 10
-36.8569
 20
-4.01822
 11
-36.7881
 21
-3.97043
  0
LINE
  8
0
 10
-36.7881
 20
-3.97043
 11
-36.7155
 21
-3.92854
  0
LINE
  8
0
 10
-36.7155
 20
-3.92854
 11
-36.6398
 21
-3.89288
  0
LINE
  8
0
 10
-36.6398
 20
-3.89288
 11
-36.5613
 21
-3.86369
  0
LINE
  8
0
 10
-36.5613
 20
-3.86369
 11
-36.4806
 21
-3.84117
  0
LINE
  8
0
 10
-36.4806
 20
-3.84117
 11
-36.3983
 21
-3.82549
  0
LINE
  8
0
 10
-36.3983
 20
-3.82549
 11
-36.315
 21
-3.81673
  0
LINE
  8
0
 10
-36.315
 20
-3.81673
 11
-36.2313
 21
-3.81497
  0
LINE
  8
0
 10
-36.2313
 20
-3.81497
 11
-36.1477
 21
-3.82024
  0
LINE
  8
0
 10
-36.1477
 20
-3.82024
 11
-36.0649
 21
-3.83246
  0
LINE
  8
0
 10
-36.0649
 20
-3.83246
 11
-35.9833
 21
-3.85159
  0
LINE
  8
0
 10
-35.9833
 20
-3.85159
 11
-35.9037
 21
-3.87747
  0
LINE
  8
0
 10
-35.9037
 20
-3.87747
 11
-35.8265
 21
-3.90993
  0
LINE
  8
0
 10
-35.8265
 20
-3.90993
 11
-35.7522
 21
-3.94873
  0
LINE
  8
0
 10
-35.7522
 20
-3.94873
 11
-35.6815
 21
-3.99361
  0
LINE
  8
0
 10
-35.6815
 20
-3.99361
 11
-35.6148
 21
-4.04424
  0
LINE
  8
0
 10
-35.6148
 20
-4.04424
 11
-35.5526
 21
-4.10028
  0
LINE
  8
0
 10
-35.5526
 20
-4.10028
 11
-35.4953
 21
-4.16133
  0
LINE
  8
0
 10
-35.4953
 20
-4.16133
 11
-35.4432
 21
-4.22696
  0
LINE
  8
0
 10
-35.4432
 20
-4.22696
 11
-35.3969
 21
-4.29672
  0
LINE
  8
0
 10
-35.3969
 20
-4.29672
 11
-35.3565
 21
-4.37012
  0
LINE
  8
0
 10
-35.3565
 20
-4.37012
 11
-35.3225
 21
-4.44662
  0
LINE
  8
0
 10
-35.3225
 20
-4.44662
 11
-35.2949
 21
-4.52573
  0
LINE
  8
0
 10
-35.2949
 20
-4.52573
 11
-35.2741
 21
-4.60684
  0
LINE
  8
0
 10
-35.2741
 20
-4.60684
 11
-35.2601
 21
-4.68942
  0
LINE
  8
0
 10
-35.2601
 20
-4.68942
 11
-35.2531
 21
-4.77287
  0
LINE
  8
0
 10
-35.2531
 20
-4.77287
 11
-35.2522
 21
-54.8147
  0
LINE
  8
0
 10
-35.2522
 20
-54.8147
 11
-35.2689
 21
-55.6104
  0
LINE
  8
0
 10
-35.2689
 20
-55.6104
 11
-35.3189
 21
-56.4046
  0
LINE
  8
0
 10
-35.3189
 20
-56.4046
 11
-35.4021
 21
-57.1961
  0
LINE
  8
0
 10
-35.4021
 20
-57.1961
 11
-35.5183
 21
-57.9833
  0
LINE
  8
0
 10
-35.5183
 20
-57.9833
 11
-35.6674
 21
-58.7651
  0
LINE
  8
0
 10
-35.6674
 20
-58.7651
 11
-35.8492
 21
-59.5398
  0
LINE
  8
0
 10
-35.8492
 20
-59.5398
 11
-36.0632
 21
-60.3063
  0
LINE
  8
0
 10
-36.0632
 20
-60.3063
 11
-36.3091
 21
-61.0632
  0
LINE
  8
0
 10
-36.3091
 20
-61.0632
 11
-36.5865
 21
-61.8091
  0
LINE
  8
0
 10
-36.5865
 20
-61.8091
 11
-36.8949
 21
-62.5427
  0
LINE
  8
0
 10
-36.8949
 20
-62.5427
 11
-37.2337
 21
-63.2628
  0
LINE
  8
0
 10
-37.2337
 20
-63.2628
 11
-37.6024
 21
-63.968
  0
LINE
  8
0
 10
-37.6024
 20
-63.968
 11
-38.0003
 21
-64.6572
  0
LINE
  8
0
 10
-38.0003
 20
-64.6572
 11
-38.4267
 21
-65.3292
  0
LINE
  8
0
 10
-38.4267
 20
-65.3292
 11
-38.8809
 21
-65.9827
  0
LINE
  8
0
 10
-38.8809
 20
-65.9827
 11
-39.3621
 21
-66.6165
  0
LINE
  8
0
 10
-39.3621
 20
-66.6165
 11
-39.8693
 21
-67.2297
  0
LINE
  8
0
 10
-39.8693
 20
-67.2297
 11
-40.4018
 21
-67.8211
  0
LINE
  8
0
 10
-40.4018
 20
-67.8211
 11
-40.9586
 21
-68.3897
  0
LINE
  8
0
 10
-40.9586
 20
-68.3897
 11
-41.5388
 21
-68.9345
  0
LINE
  8
0
 10
-41.5388
 20
-68.9345
 11
-42.1412
 21
-69.4545
  0
LINE
  8
0
 10
-42.1412
 20
-69.4545
 11
-42.7649
 21
-69.9488
  0
LINE
  8
0
 10
-42.7649
 20
-69.9488
 11
-43.4087
 21
-70.4166
  0
LINE
  8
0
 10
-43.4087
 20
-70.4166
 11
-44.0715
 21
-70.857
  0
LINE
  8
0
 10
-44.0715
 20
-70.857
 11
-44.7523
 21
-71.2692
  0
LINE
  8
0
 10
-44.7523
 20
-71.2692
 11
-45.4496
 21
-71.6526
  0
LINE
  8
0
 10
-45.4496
 20
-71.6526
 11
-46.1624
 21
-72.0065
  0
LINE
  8
0
 10
-46.1624
 20
-72.0065
 11
-46.8895
 21
-72.3301
  0
LINE
  8
0
 10
-46.8895
 20
-72.3301
 11
-47.6294
 21
-72.6231
  0
LINE
  8
0
 10
-47.6294
 20
-72.6231
 11
-48.3809
 21
-72.8848
  0
LINE
  8
0
 10
-48.3809
 20
-72.8848
 11
-49.1428
 21
-73.1148
  0
LINE
  8
0
 10
-49.1428
 20
-73.1148
 11
-49.9136
 21
-73.3127
  0
LINE
  8
0
 10
-49.9136
 20
-73.3127
 11
-50.692
 21
-73.4782
  0
LINE
  8
0
 10
-50.692
 20
-73.4782
 11
-51.4767
 21
-73.6109
  0
LINE
  8
0
 10
-51.4767
 20
-73.6109
 11
-52.2662
 21
-73.7106
  0
LINE
  8
0
 10
-52.2662
 20
-73.7106
 11
-53.0592
 21
-73.7772
  0
LINE
  8
0
 10
-53.0592
 20
-73.7772
 11
-53.8543
 21
-73.8106
  0
LINE
  8
0
 10
-53.8543
 20
-73.8106
 11
-54.2522
 21
-73.8106
  0
LINE
  8
0
 10
-54.2522
 20
-73.8106
 11
-54.2522
 21
-83.9879
  0
LINE
  8
0
 10
-54.2522
 20
-83.9879
 11
-53.5827
 21
-84.4328
  0
LINE
  8
0
 10
-53.5827
 20
-84.4328
 11
-50
 21
-86.6025
  0
LINE
  8
0
 10
-50
 20
-86.6025
 11
-46.3296
 21
-88.6203
  0
LINE
  8
0
 10
-46.3296
 20
-88.6203
 11
-42.5779
 21
-90.4827
  0
LINE
  8
0
 10
-42.5779
 20
-90.4827
 11
-38.7516
 21
-92.1863
  0
LINE
  8
0
 10
-38.7516
 20
-92.1863
 11
-34.8572
 21
-93.7282
  0
LINE
  8
0
 10
-34.8572
 20
-93.7282
 11
-30.9017
 21
-95.1056
  0
LINE
  8
0
 10
-30.9017
 20
-95.1056
 11
-26.892
 21
-96.3163
  0
LINE
  8
0
 10
-26.892
 20
-96.3163
 11
-22.8351
 21
-97.3579
  0
LINE
  8
0
 10
-22.8351
 20
-97.3579
 11
-18.7381
 21
-98.2287
  0
LINE
  8
0
 10
-18.7381
 20
-98.2287
 11
-14.6083
 21
-98.9272
  0
LINE
  8
0
 10
-14.6083
 20
-98.9272
 11
-10.4528
 21
-99.4522
  0
LINE
  8
0
 10
-10.4528
 20
-99.4522
 11
-6.27904
 21
-99.8027
  0
LINE
  8
0
 10
-6.27904
 20
-99.8027
 11
-2.09424
 21
-99.9781
  0
LINE
  8
0
 10
-2.09424
 20
-99.9781
 11
2.09424
 21
-99.9781
  0
LINE
  8
0
 10
2.09424
 20
-99.9781
 11
6.27904
 21
-99.8027
  0
LINE
  8
0
 10
6.27904
 20
-99.8027
 11
10.4528
 21
-99.4522
  0
LINE
  8
0
 10
10.4528
 20
-99.4522
 11
14.6083
 21
-98.9272
  0
LINE
  8
0
 10
14.6083
 20
-98.9272
 11
18.7381
 21
-98.2287
  0
LINE
  8
0
 10
18.7381
 20
-98.2287
 11
22.8351
 21
-97.3579
  0
LINE
  8
0
 10
22.8351
 20
-97.3579
 11
26.892
 21
-96.3163
  0
LINE
  8
0
 10
26.892
 20
-96.3163
 11
30.9017
 21
-95.1056
  0
LINE
  8
0
 10
30.9017
 20
-95.1056
 11
34.8572
 21
-93.7282
  0
LINE
  8
0
 10
34.8572
 20
-93.7282
 11
38.7516
 21
-92.1863
  0
LINE
  8
0
 10
38.7516
 20
-92.1863
 11
42.5779
 21
-90.4827
  0
LINE
  8
0
 10
42.5779
 20
-90.4827
 11
46.3296
 21
-88.6203
  0
LINE
  8
0
 10
46.3296
 20
-88.6203
 11
50
 21
-86.6025
  0
LINE
  8
0
 10
50
 20
-86.6025
 11
53.5827
 21
-84.4328
  0
LINE
  8
0
 10
53.5827
 20
-84.4328
 11
54.2522
 21
-83.9879
  0
LINE
  8
0
 10
54.2522
 20
-83.9879
 11
54.2522
 21
-73.8106
  0
LINE
  8
0
 10
54.2522
 20
-73.8106
 11
53.8543
 21
-73.8106
  0
LINE
  8
0
 10
53.8543
 20
-73.8106
 11
53.0592
 21
-73.7772
  0
LINE
  8
0
 10
53.0592
 20
-73.7772
 11
52.2662
 21
-73.7106
  0
LINE
  8
0
 10
52.2662
 20
-73.7106
 11
51.4767
 21
-73.6109
  0
LINE
  8
0
 10
51.4767
 20
-73.6109
 11
50.692
 21
-73.4782
  0
LINE
  8
0
 10
50.692
 20
-73.4782
 11
49.9136
 21
-73.3127
  0
LINE
  8
0
 10
49.9136
 20
-73.3127
 11
49.1428
 21
-73.1148
  0
LINE
  8
0
 10
49.1428
 20
-73.1148
 11
48.3809
 21
-72.8848
  0
LINE
  8
0
 10
48.3809
 20
-72.8848
 11
47.6294
 21
-72.6231
  0
LINE
  8
0
 10
47.6294
 20
-72.6231
 11
46.8895
 21
-72.3301
  0
LINE
  8
0
 10
46.8895
 20
-72.3301
 11
46.1624
 21
-72.0065
  0
LINE
  8
0
 10
46.1624
 20
-72.0065
 11
45.4496
 21
-71.6526
  0
LINE
  8
0
 10
45.4496
 20
-71.6526
 11
44.7523
 21
-71.2692
  0
LINE
  8
0
 10
44.7523
 20
-71.2692
 11
44.0715
 21
-70.857
  0
LINE
  8
0
 10
44.0715
 20
-70.857
 11
43.4087
 21
-70.4166
  0
LINE
  8
0
 10
43.4087
 20
-70.4166
 11
42.7649
 21
-69.9488
  0
LINE
  8
0
 10
42.7649
 20
-69.9488
 11
42.1412
 21
-69.4545
  0
LINE
  8
0
 10
42.1412
 20
-69.4545
 11
41.5388
 21
-68.9345
  0
LINE
  8
0
 10
41.5388
 20
-68.9345
 11
40.9586
 21
-68.3897
  0
LINE
  8
0
 10
40.9586
 20
-68.3897
 11
40.4018
 21
-67.8211
  0
LINE
  8
0
 10
40.4018
 20
-67.8211
 11
39.8693
 21
-67.2297
  0
LINE
  8
0
 10
39.8693
 20
-67.2297
 11
39.3621
 21
-66.6165
  0
LINE
  8
0
 10
39.3621
 20
-66.6165
 11
38.8809
 21
-65.9827
  0
LINE
  8
0
 10
38.8809
 20
-65.9827
 11
38.4267
 21
-65.3292
  0
LINE
  8
0
 10
38.4267
 20
-65.3292
 11
38.0003
 21
-64.6572
  0
LINE
  8
0
 10
38.0003
 20
-64.6572
 11
37.6024
 21
-63.968
  0
LINE
  8
0
 10
37.6024
 20
-63.968
 11
37.2337
 21
-63.2628
  0
LINE
  8
0
 10
37.2337
 20
-63.2628
 11
36.8949
 21
-62.5427
  0
LINE
  8
0
 10
36.8949
 20
-62.5427
 11
36.5865
 21
-61.8091
  0
LINE
  8
0
 10
36.5865
 20
-61.8091
 11
36.3091
 21
-61.0632
  0
LINE
  8
0
 10
36.3091
 20
-61.0632
 11
36.0632
 21
-60.3063
  0
LINE
  8
0
 10
36.0632
 20
-60.3063
 11
35.8492
 21
-59.5398
  0
LINE
  8
0
 10
35.8492
 20
-59.5398
 11
35.6674
 21
-58.7651
  0
LINE
  8
0
 10
35.6674
 20
-58.7651
 11
35.5183
 21
-57.9833
  0
LINE
  8
0
 10
35.5183
 20
-57.9833
 11
35.4021
 21
-57.1961
  0
LINE
  8
0
 10
35.4021
 20
-57.1961
 11
35.3189
 21
-56.4046
  0
LINE
  8
0
 10
35.3189
 20
-56.4046
 11
35.2689
 21
-55.6104
  0
LINE
  8
0
 10
35.2689
 20
-55.6104
 11
35.2522
 21
-54.8147
  0
LINE
  8
0
 10
35.2522
 20
-54.8147
 11
35.2522
 21
-4.81474
  0
LINE
  8
0
 10
35.2522
 20
-4.81474
 11
35.2558
 21
-4.73108
  0
LINE
  8
0
 10
35.2558
 20
-4.73108
 11
35.2663
 21
-4.64798
  0
LINE
  8
0
 10
35.2663
 20
-4.64798
 11
35.2837
 21
-4.56606
  0
LINE
  8
0
 10
35.2837
 20
-4.56606
 11
35.3079
 21
-4.48589
  0
LINE
  8
0
 10
35.3079
 20
-4.48589
 11
35.3387
 21
-4.40802
  0
LINE
  8
0
 10
35.3387
 20
-4.40802
 11
35.3759
 21
-4.33299
  0
LINE
  8
0
 10
35.3759
 20
-4.33299
 11
35.4193
 21
-4.26135
  0
LINE
  8
0
 10
35.4193
 20
-4.26135
 11
35.4686
 21
-4.1936
  0
LINE
  8
0
 10
35.4686
 20
-4.1936
 11
35.5233
 21
-4.1302
  0
LINE
  8
0
 10
35.5233
 20
-4.1302
 11
35.5831
 21
-4.07161
  0
LINE
  8
0
 10
35.5831
 20
-4.07161
 11
35.6476
 21
-4.01822
  0
LINE
  8
0
 10
35.6476
 20
-4.01822
 11
35.7164
 21
-3.97043
  0
LINE
  8
0
 10
35.7164
 20
-3.97043
 11
35.789
 21
-3.92854
  0
LINE
  8
0
 10
35.789
 20
-3.92854
 11
35.8647
 21
-3.89288
  0
LINE
  8
0
 10
35.8647
 20
-3.89288
 11
35.9432
 21
-3.86369
  0
LINE
  8
0
 10
35.9432
 20
-3.86369
 11
36.0239
 21
-3.84117
  0
LINE
  8
0
 10
36.0239
 20
-3.84117
 11
36.1062
 21
-3.82549
  0
LINE
  8
0
 10
36.1062
 20
-3.82549
 11
36.1895
 21
-3.81673
  0
LINE
  8
0
 10
36.1895
 20
-3.81673
 11
36.2732
 21
-3.81497
  0
LINE
  8
0
 10
36.2732
 20
-3.81497
 11
36.3568
 21
-3.82024
  0
LINE
  8
0
 10
36.3568
 20
-3.82024
 11
36.4396
 21
-3.83246
  0
LINE
  8
0
 10
36.4396
 20
-3.83246
 11
36.5212
 21
-3.85159
  0
LINE
  8
0
 10
36.5212
 20
-3.85159
 11
36.6008
 21
-3.87747
  0
LINE
  8
0
 10
36.6008
 20
-3.87747
 11
36.678
 21
-3.90993
  0
LINE
  8
0
 10
36.678
 20
-3.90993
 11
36.7522
 21
-3.94873
  0
LINE
  8
0
 10
36.7522
 20
-3.94873
 11
36.823
 21
-3.99361
  0
LINE
  8
0
 10
36.823
 20
-3.99361
 11
36.8897
 21
-4.04424
  0
LINE
  8
0
 10
36.8897
 20
-4.04424
 11
36.9519
 21
-4.10028
  0
LINE
  8
0
 10
36.9519
 20
-4.10028
 11
37.0092
 21
-4.16133
  0
LINE
  8
0
 10
37.0092
 20
-4.16133
 11
37.0613
 21
-4.22696
  0
LINE
  8
0
 10
37.0613
 20
-4.22696
 11
37.1076
 21
-4.29672
  0
LINE
  8
0
 10
37.1076
 20
-4.29672
 11
37.148
 21
-4.37012
  0
LINE
  8
0
 10
37.148
 20
-4.37012
 11
37.182
 21
-4.44662
  0
LINE
  8
0
 10
37.182
 20
-4.44662
 11
37.2096
 21
-4.52573
  0
LINE
  8
0
 10
37.2096
 20
-4.52573
 11
37.2304
 21
-4.60684
  0
LINE
  8
0
 10
37.2304
 20
-4.60684
 11
37.2444
 21
-4.68942
  0
LINE
  8
0
 10
37.2444
 20
-4.68942
 11
37.2514
 21
-4.77287
  0
LINE
  8
0
 10
37.2514
 20
-4.77287
 11
37.2522
 21
-54.8147
  0
LINE
  8
0
 10
37.2522
 20
-54.8147
 11
37.2672
 21
-55.5266
  0
LINE
  8
0
 10
37.2672
 20
-55.5266
 11
37.3119
 21
-56.2373
  0
LINE
  8
0
 10
37.3119
 20
-56.2373
 11
37.3863
 21
-56.9454
  0
LINE
  8
0
 10
37.3863
 20
-56.9454
 11
37.4903
 21
-57.6498
  0
LINE
  8
0
 10
37.4903
 20
-57.6498
 11
37.6237
 21
-58.3492
  0
LINE
  8
0
 10
37.6237
 20
-58.3492
 11
37.7863
 21
-59.0425
  0
LINE
  8
0
 10
37.7863
 20
-59.0425
 11
37.9778
 21
-59.7283
  0
LINE
  8
0
 10
37.9778
 20
-59.7283
 11
38.1978
 21
-60.4055
  0
LINE
  8
0
 10
38.1978
 20
-60.4055
 11
38.446
 21
-61.0728
  0
LINE
  8
0
 10
38.446
 20
-61.0728
 11
38.722
 21
-61.7293
  0
LINE
  8
0
 10
38.722
 20
-61.7293
 11
39.0251
 21
-62.3735
  0
LINE
  8
0
 10
39.0251
 20
-62.3735
 11
39.355
 21
-63.0045
  0
LINE
  8
0
 10
39.355
 20
-63.0045
 11
39.7111
 21
-63.6212
  0
LINE
  8
0
 10
39.7111
 20
-63.6212
 11
40.0926
 21
-64.2224
  0
LINE
  8
0
 10
40.0926
 20
-64.2224
 11
40.499
 21
-64.8071
  0
LINE
  8
0
 10
40.499
 20
-64.8071
 11
40.9295
 21
-65.3743
  0
LINE
  8
0
 10
40.9295
 20
-65.3743
 11
41.3833
 21
-65.9229
  0
LINE
  8
0
 10
41.3833
 20
-65.9229
 11
41.8598
 21
-66.452
  0
LINE
  8
0
 10
41.8598
 20
-66.452
 11
42.358
 21
-66.9608
  0
LINE
  8
0
 10
42.358
 20
-66.9608
 11
42.877
 21
-67.4482
  0
LINE
  8
0
 10
42.877
 20
-67.4482
 11
43.416
 21
-67.9135
  0
LINE
  8
0
 10
43.416
 20
-67.9135
 11
43.9741
 21
-68.3557
  0
LINE
  8
0
 10
43.9741
 20
-68.3557
 11
44.5501
 21
-68.7743
  0
LINE
  8
0
 10
44.5501
 20
-68.7743
 11
45.1432
 21
-69.1683
  0
LINE
  8
0
 10
45.1432
 20
-69.1683
 11
45.7523
 21
-69.5372
  0
LINE
  8
0
 10
45.7523
 20
-69.5372
 11
46.3762
 21
-69.8802
  0
LINE
  8
0
 10
46.3762
 20
-69.8802
 11
47.014
 21
-70.1968
  0
LINE
  8
0
 10
47.014
 20
-70.1968
 11
47.6645
 21
-70.4864
  0
LINE
  8
0
 10
47.6645
 20
-70.4864
 11
48.3265
 21
-70.7485
  0
LINE
  8
0
 10
48.3265
 20
-70.7485
 11
48.999
 21
-70.9827
  0
LINE
  8
0
 10
48.999
 20
-70.9827
 11
49.6806
 21
-71.1885
  0
LINE
  8
0
 10
49.6806
 20
-71.1885
 11
50.3703
 21
-71.3656
  0
LINE
  8
0
 10
50.3703
 20
-71.3656
 11
51.0668
 21
-71.5136
  0
LINE
  8
0
 10
51.0668
 20
-71.5136
 11
51.7688
 21
-71.6324
  0
LINE
  8
0
 10
51.7688
 20
-71.6324
 11
52.4753
 21
-71.7216
  0
LINE
  8
0
 10
52.4753
 20
-71.7216
 11
53.1848
 21
-71.7812
  0
LINE
  8
0
 10
53.1848
 20
-71.7812
 11
53.8962
 21
-71.811
  0
LINE
  8
0
 10
53.8962
 20
-71.811
 11
54.6083
 21
-71.811
  0
LINE
  8
0
 10
54.6083
 20
-71.811
 11
55.3197
 21
-71.7812
  0
LINE
  8
0
 10
55.3197
 20
-71.7812
 11
56.0292
 21
-71.7216
  0
LINE
  8
0
 10
56.0292
 20
-71.7216
 11
56.7356
 21
-71.6324
  0
LINE
  8
0
 10
56.7356
 20
-71.6324
 11
57.4377
 21
-71.5136
  0
LINE
  8
0
 10
57.4377
 20
-71.5136
 11
58.1342
 21
-71.3656
  0
LINE
  8
0
 10
58.1342
 20
-71.3656
 11
58.8239
 21
-71.1885
  0
LINE
  8
0
 10
58.8239
 20
-71.1885
 11
59.5055
 21
-70.9827
  0
LINE
  8
0
 10
59.5055
 20
-70.9827
 11
60.178
 21
-70.7485
  0
LINE
  8
0
 10
60.178
 20
-70.7485
 11
60.84
 21
-70.4864
  0
LINE
  8
0
 10
60.84
 20
-70.4864
 11
61.4905
 21
-70.1968
  0
LINE
  8
0
 10
61.4905
 20
-70.1968
 11
62.1283
 21
-69.8802
  0
LINE
  8
0
 10
62.1283
 20
-69.8802
 11
62.7522
 21
-69.5372
  0
LINE
  8
0
 10
62.7522
 20
-69.5372
 11
63.3613
 21
-69.1683
  0
LINE
  8
0
 10
63.3613
 20
-69.1683
 11
63.9544
 21
-68.7743
  0
LINE
  8
0
 10
63.9544
 20
-68.7743
 11
64.5304
 21
-68.3557
  0
LINE
  8
0
 10
64.5304
 20
-68.3557
 11
65.0884
 21
-67.9135
  0
LINE
  8
0
 10
65.0884
 20
-67.9135
 11
65.6275
 21
-67.4482
  0
LINE
  8
0
 10
65.6275
 20
-67.4482
 11
66.1465
 21
-66.9608
  0
LINE
  8
0
 10
66.1465
 20
-66.9608
 11
66.6447
 21
-66.452
  0
LINE
  8
0
 10
66.6447
 20
-66.452
 11
67.1212
 21
-65.9229
  0
LINE
  8
0
 10
67.1212
 20
-65.9229
 11
67.575
 21
-65.3743
  0
LINE
  8
0
 10
67.575
 20
-65.3743
 11
68.0055
 21
-64.8071
  0
LINE
  8
0
 10
68.0055
 20
-64.8071
 11
68.4119
 21
-64.2224
  0
LINE
  8
0
 10
68.4119
 20
-64.2224
 11
68.7934
 21
-63.6212
  0
LINE
  8
0
 10
68.7934
 20
-63.6212
 11
69.1494
 21
-63.0045
  0
LINE
  8
0
 10
69.1494
 20
-63.0045
 11
69.4793
 21
-62.3735
  0
LINE
  8
0
 10
69.4793
 20
-62.3735
 11
69.7825
 21
-61.7293
  0
LINE
  8
0
 10
69.7825
 20
-61.7293
 11
70.0584
 21
-61.0728
  0
LINE
  8
0
 10
70.0584
 20
-61.0728
 11
70.3066
 21
-60.4055
  0
LINE
  8
0
 10
70.3066
 20
-60.4055
 11
70.5267
 21
-59.7283
  0
LINE
  8
0
 10
70.5267
 20
-59.7283
 11
70.7182
 21
-59.0425
  0
LINE
  8
0
 10
70.7182
 20
-59.0425
 11
70.8807
 21
-58.3492
  0
LINE
  8
0
 10
70.8807
 20
-58.3492
 11
71.0142
 21
-57.6498
  0
LINE
  8
0
 10
71.0142
 20
-57.6498
 11
71.1182
 21
-56.9454
  0
LINE
  8
0
 10
71.1182
 20
-56.9454
 11
71.1926
 21
-56.2373
  0
LINE
  8
0
 10
71.1926
 20
-56.2373
 11
71.2373
 21
-55.5266
  0
LINE
  8
0
 10
71.2373
 20
-55.5266
 11
71.2522
 21
-54.8147
  0
LINE
  8
0
 10
71.2522
 20
-54.8147
 11
71.2522
 21
-4.81474
  0
LINE
  8
0
 10
71.2522
 20
-4.81474
 11
71.2557
 21
-4.73108
  0
LINE
  8
0
 10
71.2557
 20
-4.73108
 11
71.2662
 21
-4.64798
  0
LINE
  8
0
 10
71.2662
 20
-4.64798
 11
71.2836
 21
-4.56606
  0
LINE
  8
0
 10
71.2836
 20
-4.56606
 11
71.3079
 21
-4.48589
  0
LINE
  8
0
 10
71.3079
 20
-4.48589
 11
71.3387
 21
-4.40802
  0
LINE
  8
0
 10
71.3387
 20
-4.40802
 11
71.3759
 21
-4.33299
  0
LINE
  8
0
 10
71.3759
 20
-4.33299
 11
71.4193
 21
-4.26135
  0
LINE
  8
0
 10
71.4193
 20
-4.26135
 11
71.4685
 21
-4.1936
  0
LINE
  8
0
 10
71.4685
 20
-4.1936
 11
71.5233
 21
-4.1302
  0
LINE
  8
0
 10
71.5233
 20
-4.1302
 11
71.5831
 21
-4.07161
  0
LINE
  8
0
 10
71.5831
 20
-4.07161
 11
71.6476
 21
-4.01822
  0
LINE
  8
0
 10
71.6476
 20
-4.01822
 11
71.686
 21
-3.99156
  0
LINE
  8
0
 10
71.686
 20
-3.99156
 11
71.686
 21
-2.86691
  0
LINE
  8
0
 10
71.686
 20
-2.86691
 11
69.1533
 21
-2.86685
  0
LINE
  8
0
 10
69.1533
 20
-2.86685
 11
69.1532
 21
13.8333
  0
LINE
  8
0
 10
69.1532
 20
13.8333
 11
71.686
 21
13.8334
  0
LINE
  8
0
 10
71.686
 20
13.8334
 11
71.686
 21
27.6665
  0
LINE
  8
0
 10
71.686
 20
27.6665
 11
69.1533
 21
27.6665
  0
LINE
  8
0
 10
17.8954
 20
24.0055
 11
17.8126
 21
24.0177
  0
LINE
  8
0
 10
17.8126
 20
24.0177
 11
17.7311
 21
24.0368
  0
LINE
  8
0
 10
17.7311
 20
24.0368
 11
17.6514
 21
24.0627
  0
LINE
  8
0
 10
17.6514
 20
24.0627
 11
17.5742
 21
24.0952
  0
LINE
  8
0
 10
17.5742
 20
24.0952
 11
17.5
 21
24.134
  0
LINE
  8
0
 10
17.5
 20
24.134
 11
17.4293
 21
24.1789
  0
LINE
  8
0
 10
17.4293
 20
24.1789
 11
17.3625
 21
24.2295
  0
LINE
  8
0
 10
17.3625
 20
24.2295
 11
17.3003
 21
24.2855
  0
LINE
  8
0
 10
17.3003
 20
24.2855
 11
17.243
 21
24.3466
  0
LINE
  8
0
 10
17.243
 20
24.3466
 11
17.191
 21
24.4122
  0
LINE
  8
0
 10
17.191
 20
24.4122
 11
17.1446
 21
24.482
  0
LINE
  8
0
 10
17.1446
 20
24.482
 11
17.1043
 21
24.5554
  0
LINE
  8
0
 10
17.1043
 20
24.5554
 11
17.0702
 21
24.6319
  0
LINE
  8
0
 10
17.0702
 20
24.6319
 11
17.0427
 21
24.711
  0
LINE
  8
0
 10
17.0427
 20
24.711
 11
17.0218
 21
24.7921
  0
LINE
  8
0
 10
17.0218
 20
24.7921
 11
17.0079
 21
24.8747
  0
LINE
  8
0
 10
17.0079
 20
24.8747
 11
17.0009
 21
24.9581
  0
LINE
  8
0
 10
17.0009
 20
24.9581
 11
17
 21
75
  0
LINE
  8
0
 10
17
 20
75
 11
16.9851
 21
75.7119
  0
LINE
  8
0
 10
16.9851
 20
75.7119
 11
16.9404
 21
76.4225
  0
LINE
  8
0
 10
16.9404
 20
76.4225
 11
16.8659
 21
77.1307
  0
LINE
  8
0
 10
16.8659
 20
77.1307
 11
16.7619
 21
77.8351
  0
LINE
  8
0
 10
16.7619
 20
77.8351
 11
16.6285
 21
78.5345
  0
LINE
  8
0
 10
16.6285
 20
78.5345
 11
16.4659
 21
79.2277
  0
LINE
  8
0
 10
16.4659
 20
79.2277
 11
16.2744
 21
79.9135
  0
LINE
  8
0
 10
16.2744
 20
79.9135
 11
16.0544
 21
80.5907
  0
LINE
  8
0
 10
16.0544
 20
80.5907
 11
15.8062
 21
81.2581
  0
LINE
  8
0
 10
15.8062
 20
81.2581
 11
15.5303
 21
81.9145
  0
LINE
  8
0
 10
15.5303
 20
81.9145
 11
15.2271
 21
82.5588
  0
LINE
  8
0
 10
15.2271
 20
82.5588
 11
14.8972
 21
83.1898
  0
LINE
  8
0
 10
14.8972
 20
83.1898
 11
14.5412
 21
83.8065
  0
LINE
  8
0
 10
14.5412
 20
83.8065
 11
14.1597
 21
84.4077
  0
LINE
  8
0
 10
14.1597
 20
84.4077
 11
13.7533
 21
84.9923
  0
LINE
  8
0
 10
13.7533
 20
84.9923
 11
13.3228
 21
85.5595
  0
LINE
  8
0
 10
13.3228
 20
85.5595
 11
12.8689
 21
86.1081
  0
LINE
  8
0
 10
12.8689
 20
86.1081
 11
12.3925
 21
86.6373
  0
LINE
  8
0
 10
12.3925
 20
86.6373
 11
11.8943
 21
87.146
  0
LINE
  8
0
 10
11.8943
 20
87.146
 11
11.3752
 21
87.6335
  0
LINE
  8
0
 10
11.3752
 20
87.6335
 11
10.8362
 21
88.0987
  0
LINE
  8
0
 10
10.8362
 20
88.0987
 11
10.2782
 21
88.541
  0
LINE
  8
0
 10
10.2782
 20
88.541
 11
9.70212
 21
88.9595
  0
LINE
  8
0
 10
9.70212
 20
88.9595
 11
9.10905
 21
89.3536
  0
LINE
  8
0
 10
9.10905
 20
89.3536
 11
8.49998
 21
89.7224
  0
LINE
  8
0
 10
8.49998
 20
89.7224
 11
7.87602
 21
90.0655
  0
LINE
  8
0
 10
7.87602
 20
90.0655
 11
7.23824
 21
90.382
  0
LINE
  8
0
 10
7.23824
 20
90.382
 11
6.58775
 21
90.6717
  0
LINE
  8
0
 10
6.58775
 20
90.6717
 11
5.92572
 21
90.9338
  0
LINE
  8
0
 10
5.92572
 20
90.9338
 11
5.25328
 21
91.168
  0
LINE
  8
0
 10
5.25328
 20
91.168
 11
4.57162
 21
91.3737
  0
LINE
  8
0
 10
4.57162
 20
91.3737
 11
3.88196
 21
91.5508
  0
LINE
  8
0
 10
3.88196
 20
91.5508
 11
3.18547
 21
91.6989
  0
LINE
  8
0
 10
3.18547
 20
91.6989
 11
2.4834
 21
91.8176
  0
LINE
  8
0
 10
2.4834
 20
91.8176
 11
1.77698
 21
91.9069
  0
LINE
  8
0
 10
1.77698
 20
91.9069
 11
1.06743
 21
91.9664
  0
LINE
  8
0
 10
1.06743
 20
91.9664
 11
0.356018
 21
91.9963
  0
LINE
  8
0
 10
0.356018
 20
91.9963
 11
-0.356003
 21
91.9963
  0
LINE
  8
0
 10
-0.356003
 20
91.9963
 11
-1.06741
 21
91.9664
  0
LINE
  8
0
 10
-1.06741
 20
91.9664
 11
-1.77696
 21
91.9069
  0
LINE
  8
0
 10
-1.77696
 20
91.9069
 11
-2.48338
 21
91.8176
  0
LINE
  8
0
 10
-2.48338
 20
91.8176
 11
-3.18546
 21
91.6989
  0
LINE
  8
0
 10
-3.18546
 20
91.6989
 11
-3.88194
 21
91.5508
  0
LINE
  8
0
 10
-3.88194
 20
91.5508
 11
-4.57161
 21
91.3737
  0
LINE
  8
0
 10
-4.57161
 20
91.3737
 11
-5.25327
 21
91.168
  0
LINE
  8
0
 10
-5.25327
 20
91.168
 11
-5.9257
 21
90.9338
  0
LINE
  8
0
 10
-5.9257
 20
90.9338
 11
-6.58774
 21
90.6717
  0
LINE
  8
0
 10
-6.58774
 20
90.6717
 11
-7.23822
 21
90.382
  0
LINE
  8
0
 10
-7.23822
 20
90.382
 11
-7.87601
 21
90.0655
  0
LINE
  8
0
 10
-7.87601
 20
90.0655
 11
-8.49997
 21
89.7224
  0
LINE
  8
0
 10
-8.49997
 20
89.7224
 11
-9.10904
 21
89.3536
  0
LINE
  8
0
 10
-9.10904
 20
89.3536
 11
-9.7021
 21
88.9595
  0
LINE
  8
0
 10
-9.7021
 20
88.9595
 11
-10.2782
 21
88.541
  0
LINE
  8
0
 10
-10.2782
 20
88.541
 11
-10.8362
 21
88.0987
  0
LINE
  8
0
 10
-10.8362
 20
88.0987
 11
-11.3752
 21
87.6335
  0
LINE
  8
0
 10
-11.3752
 20
87.6335
 11
-11.8943
 21
87.146
  0
LINE
  8
0
 10
-11.8943
 20
87.146
 11
-12.3924
 21
86.6373
  0
LINE
  8
0
 10
-12.3924
 20
86.6373
 11
-12.8689
 21
86.1081
  0
LINE
  8
0
 10
-12.8689
 20
86.1081
 11
-13.3228
 21
85.5595
  0
LINE
  8
0
 10
-13.3228
 20
85.5595
 11
-13.7533
 21
84.9923
  0
LINE
  8
0
 10
-13.7533
 20
84.9923
 11
-14.1596
 21
84.4077
  0
LINE
  8
0
 10
-14.1596
 20
84.4077
 11
-14.5412
 21
83.8065
  0
LINE
  8
0
 10
-14.5412
 20
83.8065
 11
-14.8972
 21
83.1898
  0
LINE
  8
0
 10
-14.8972
 20
83.1898
 11
-15.2271
 21
82.5588
  0
LINE
  8
0
 10
-15.2271
 20
82.5588
 11
-15.5303
 21
81.9145
  0
LINE
  8
0
 10
-15.5303
 20
81.9145
 11
-15.8062
 21
81.2581
  0
LINE
  8
0
 10
-15.8062
 20
81.2581
 11
-16.0544
 21
80.5907
  0
LINE
  8
0
 10
-16.0544
 20
80.5907
 11
-16.2744
 21
79.9135
  0
LINE
  8
0
 10
-16.2744
 20
79.9135
 11
-16.4659
 21
79.2277
  0
LINE
  8
0
 10
-16.4659
 20
79.2277
 11
-16.6285
 21
78.5345
  0
LINE
  8
0
 10
-16.6285
 20
78.5345
 11
-16.7619
 21
77.8351
  0
LINE
  8
0
 10
-16.7619
 20
77.8351
 11
-16.8659
 21
77.1307
  0
LINE
  8
0
 10
-16.8659
 20
77.1307
 11
-16.9404
 21
76.4225
  0
LINE
  8
0
 10
-16.9404
 20
76.4225
 11
-16.9851
 21
75.7119
  0
LINE
  8
0
 10
-16.9851
 20
75.7119
 11
-17
 21
75
  0
LINE
  8
0
 10
-17
 20
75
 11
-17
 21
25
  0
LINE
  8
0
 10
-17
 20
25
 11
-17.0035
 21
24.9163
  0
LINE
  8
0
 10
-17.0035
 20
24.9163
 11
-17.014
 21
24.8332
  0
LINE
  8
0
 10
-17.014
 20
24.8332
 11
-17.0314
 21
24.7513
  0
LINE
  8
0
 10
-17.0314
 20
24.7513
 11
-17.0556
 21
24.6711
  0
LINE
  8
0
 10
-17.0556
 20
24.6711
 11
-17.0864
 21
24.5933
  0
LINE
  8
0
 10
-17.0864
 20
24.5933
 11
-17.1237
 21
24.5182
  0
LINE
  8
0
 10
-17.1237
 20
24.5182
 11
-17.1671
 21
24.4466
  0
LINE
  8
0
 10
-17.1671
 20
24.4466
 11
-17.2163
 21
24.3789
  0
LINE
  8
0
 10
-17.2163
 20
24.3789
 11
-17.271
 21
24.3155
  0
LINE
  8
0
 10
-17.271
 20
24.3155
 11
-17.3309
 21
24.2569
  0
LINE
  8
0
 10
-17.3309
 20
24.2569
 11
-17.3954
 21
24.2035
  0
LINE
  8
0
 10
-17.3954
 20
24.2035
 11
-17.4642
 21
24.1557
  0
LINE
  8
0
 10
-17.4642
 20
24.1557
 11
-17.5367
 21
24.1138
  0
LINE
  8
0
 10
-17.5367
 20
24.1138
 11
-17.6125
 21
24.0781
  0
LINE
  8
0
 10
-17.6125
 20
24.0781
 11
-17.691
 21
24.049
  0
LINE
  8
0
 10
-17.691
 20
24.049
 11
-17.7716
 21
24.0264
  0
LINE
  8
0
 10
-17.7716
 20
24.0264
 11
-17.8539
 21
24.0107
  0
LINE
  8
0
 10
-17.8539
 20
24.0107
 11
-17.9372
 21
24.002
  0
LINE
  8
0
 10
-17.9372
 20
24.002
 11
-18.0209
 21
24.0002
  0
LINE
  8
0
 10
-18.0209
 20
24.0002
 11
-18.1045
 21
24.0055
  0
LINE
  8
0
 10
-18.1045
 20
24.0055
 11
-18.1874
 21
24.0177
  0
LINE
  8
0
 10
-18.1874
 20
24.0177
 11
-18.2689
 21
24.0368
  0
LINE
  8
0
 10
-18.2689
 20
24.0368
 11
-18.3486
 21
24.0627
  0
LINE
  8
0
 10
-18.3486
 20
24.0627
 11
-18.4258
 21
24.0952
  0
LINE
  8
0
 10
-18.4258
 20
24.0952
 11
-18.5
 21
24.134
  0
LINE
  8
0
 10
-18.5
 20
24.134
 11
-18.5707
 21
24.1789
  0
LINE
  8
0
 10
-18.5707
 20
24.1789
 11
-18.6374
 21
24.2295
  0
LINE
  8
0
 10
-18.6374
 20
24.2295
 11
-18.6997
 21
24.2855
  0
LINE
  8
0
 10
-18.6997
 20
24.2855
 11
-18.757
 21
24.3466
  0
LINE
  8
0
 10
-18.757
 20
24.3466
 11
-18.809
 21
24.4122
  0
LINE
  8
0
 10
-18.809
 20
24.4122
 11
-18.8554
 21
24.482
  0
LINE
  8
0
 10
-18.8554
 20
24.482
 11
-18.8957
 21
24.5554
  0
LINE
  8
0
 10
-18.8957
 20
24.5554
 11
-18.9298
 21
24.6319
  0
LINE
  8
0
 10
-18.9298
 20
24.6319
 11
-18.9573
 21
24.711
  0
LINE
  8
0
 10
-18.9573
 20
24.711
 11
-18.9781
 21
24.7921
  0
LINE
  8
0
 10
-18.9781
 20
24.7921
 11
-18.9921
 21
24.8747
  0
LINE
  8
0
 10
-18.9921
 20
24.8747
 11
-18.9991
 21
24.9581
  0
LINE
  8
0
 10
-18.9991
 20
24.9581
 11
-19
 21
75
  0
LINE
  8
0
 10
-19
 20
75
 11
-18.9833
 21
75.7956
  0
LINE
  8
0
 10
-18.9833
 20
75.7956
 11
-18.9333
 21
76.5899
  0
LINE
  8
0
 10
-18.9333
 20
76.5899
 11
-18.8502
 21
77.3813
  0
LINE
  8
0
 10
-18.8502
 20
77.3813
 11
-18.7339
 21
78.1686
  0
LINE
  8
0
 10
-18.7339
 20
78.1686
 11
-18.5848
 21
78.9503
  0
LINE
  8
0
 10
-18.5848
 20
78.9503
 11
-18.4031
 21
79.7251
  0
LINE
  8
0
 10
-18.4031
 20
79.7251
 11
-18.1891
 21
80.4916
  0
LINE
  8
0
 10
-18.1891
 20
80.4916
 11
-17.9431
 21
81.2485
  0
LINE
  8
0
 10
-17.9431
 20
81.2485
 11
-17.6657
 21
81.9944
  0
LINE
  8
0
 10
-17.6657
 20
81.9944
 11
-17.3574
 21
82.728
  0
LINE
  8
0
 10
-17.3574
 20
82.728
 11
-17.0185
 21
83.4481
  0
LINE
  8
0
 10
-17.0185
 20
83.4481
 11
-16.6498
 21
84.1533
  0
LINE
  8
0
 10
-16.6498
 20
84.1533
 11
-16.2519
 21
84.8425
  0
LINE
  8
0
 10
-16.2519
 20
84.8425
 11
-15.8255
 21
85.5144
  0
LINE
  8
0
 10
-15.8255
 20
85.5144
 11
-15.3713
 21
86.1679
  0
LINE
  8
0
 10
-15.3713
 20
86.1679
 11
-14.8902
 21
86.8018
  0
LINE
  8
0
 10
-14.8902
 20
86.8018
 11
-14.3829
 21
87.415
  0
LINE
  8
0
 10
-14.3829
 20
87.415
 11
-13.8504
 21
88.0064
  0
LINE
  8
0
 10
-13.8504
 20
88.0064
 11
-13.2936
 21
88.575
  0
LINE
  8
0
 10
-13.2936
 20
88.575
 11
-12.7135
 21
89.1198
  0
LINE
  8
0
 10
-12.7135
 20
89.1198
 11
-12.111
 21
89.6397
  0
LINE
  8
0
 10
-12.111
 20
89.6397
 11
-11.4874
 21
90.1341
  0
LINE
  8
0
 10
-11.4874
 20
90.1341
 11
-10.8435
 21
90.6018
  0
LINE
  8
0
 10
-10.8435
 20
90.6018
 11
-10.1807
 21
91.0422
  0
LINE
  8
0
 10
-10.1807
 20
91.0422
 11
-9.49997
 21
91.4545
  0
LINE
  8
0
 10
-9.49997
 20
91.4545
 11
-8.8026
 21
91.8379
  0
LINE
  8
0
 10
-8.8026
 20
91.8379
 11
-8.08978
 21
92.1917
  0
LINE
  8
0
 10
-8.08978
 20
92.1917
 11
-7.36278
 21
92.5154
  0
LINE
  8
0
 10
-7.36278
 20
92.5154
 11
-6.62285
 21
92.8083
  0
LINE
  8
0
 10
-6.62285
 20
92.8083
 11
-5.87131
 21
93.0701
  0
LINE
  8
0
 10
-5.87131
 20
93.0701
 11
-5.10945
 21
93.3001
  0
LINE
  8
0
 10
-5.10945
 20
93.3001
 11
-4.33864
 21
93.498
  0
LINE
  8
0
 10
-4.33864
 20
93.498
 11
-3.56023
 21
93.6635
  0
LINE
  8
0
 10
-3.56023
 20
93.6635
 11
-2.77556
 21
93.7962
  0
LINE
  8
0
 10
-2.77556
 20
93.7962
 11
-1.98602
 21
93.8959
  0
LINE
  8
0
 10
-1.98602
 20
93.8959
 11
-1.19299
 21
93.9625
  0
LINE
  8
0
 10
-1.19299
 20
93.9625
 11
-0.397888
 21
93.9958
  0
LINE
  8
0
 10
-0.397888
 20
93.9958
 11
0.397903
 21
93.9958
  0
LINE
  8
0
 10
0.397903
 20
93.9958
 11
1.19301
 21
93.9625
  0
LINE
  8
0
 10
1.19301
 20
93.9625
 11
1.98604
 21
93.8959
  0
LINE
  8
0
 10
1.98604
 20
93.8959
 11
2.77557
 21
93.7962
  0
LINE
  8
0
 10
2.77557
 20
93.7962
 11
3.56024
 21
93.6635
  0
LINE
  8
0
 10
3.56024
 20
93.6635
 11
4.33865
 21
93.498
  0
LINE
  8
0
 10
4.33865
 20
93.498
 11
5.10947
 21
93.3001
  0
LINE
  8
0
 10
5.10947
 20
93.3001
 11
5.87132
 21
93.0701
  0
LINE
  8
0
 10
5.87132
 20
93.0701
 11
6.62286
 21
92.8083
  0
LINE
  8
0
 10
6.62286
 20
92.8083
 11
7.36279
 21
92.5154
  0
LINE
  8
0
 10
7.36279
 20
92.5154
 11
8.0898
 21
92.1917
  0
LINE
  8
0
 10
8.0898
 20
92.1917
 11
8.80261
 21
91.8379
  0
LINE
  8
0
 10
8.80261
 20
91.8379
 11
9.49998
 21
91.4545
  0
LINE
  8
0
 10
9.49998
 20
91.4545
 11
10.1807
 21
91.0422
  0
LINE
  8
0
 10
10.1807
 20
91.0422
 11
10.8436
 21
90.6018
  0
LINE
  8
0
 10
10.8436
 20
90.6018
 11
11.4874
 21
90.1341
  0
LINE
  8
0
 10
11.4874
 20
90.1341
 11
12.1111
 21
89.6397
  0
LINE
  8
0
 10
12.1111
 20
89.6397
 11
12.7135
 21
89.1198
  0
LINE
  8
0
 10
12.7135
 20
89.1198
 11
13.2936
 21
88.575
  0
LINE
  8
0
 10
13.2936
 20
88.575
 11
13.8504
 21
88.0064
  0
LINE
  8
0
 10
13.8504
 20
88.0064
 11
14.3829
 21
87.415
  0
LINE
  8
0
 10
14.3829
 20
87.415
 11
14.8902
 21
86.8018
  0
LINE
  8
0
 10
14.8902
 20
86.8018
 11
15.3713
 21
86.1679
  0
LINE
  8
0
 10
15.3713
 20
86.1679
 11
15.8255
 21
85.5144
  0
LINE
  8
0
 10
15.8255
 20
85.5144
 11
16.2519
 21
84.8425
  0
LINE
  8
0
 10
16.2519
 20
84.8425
 11
16.6498
 21
84.1533
  0
LINE
  8
0
 10
16.6498
 20
84.1533
 11
17.0185
 21
83.4481
  0
LINE
  8
0
 10
17.0185
 20
83.4481
 11
17.3574
 21
82.728
  0
LINE
  8
0
 10
17.3574
 20
82.728
 11
17.6657
 21
81.9944
  0
LINE
  8
0
 10
17.6657
 20
81.9944
 11
17.9431
 21
81.2485
  0
LINE
  8
0
 10
17.9431
 20
81.2485
 11
18.1891
 21
80.4916
  0
LINE
  8
0
 10
18.1891
 20
80.4916
 11
18.4031
 21
79.7251
  0
LINE
  8
0
 10
18.4031
 20
79.7251
 11
18.5848
 21
78.9503
  0
LINE
  8
0
 10
18.5848
 20
78.9503
 11
18.7339
 21
78.1686
  0
LINE
  8
0
 10
18.7339
 20
78.1686
 11
18.8502
 21
77.3813
  0
LINE
  8
0
 10
18.8502
 20
77.3813
 11
18.9333
 21
76.5899
  0
LINE
  8
0
 10
18.9333
 20
76.5899
 11
18.9833
 21
75.7956
  0
LINE
  8
0
 10
18.9833
 20
75.7956
 11
19
 21
75
  0
LINE
  8
0
 10
19
 20
75
 11
19
 21
25
  0
LINE
  8
0
 10
19
 20
25
 11
18.9965
 21
24.9163
  0
LINE
  8
0
 10
18.9965
 20
24.9163
 11
18.986
 21
24.8332
  0
LINE
  8
0
 10
18.986
 20
24.8332
 11
18.9686
 21
24.7513
  0
LINE
  8
0
 10
18.9686
 20
24.7513
 11
18.9444
 21
24.6711
  0
LINE
  8
0
 10
18.9444
 20
24.6711
 11
18.9135
 21
24.5933
  0
LINE
  8
0
 10
18.9135
 20
24.5933
 11
18.8763
 21
24.5182
  0
LINE
  8
0
 10
18.8763
 20
24.5182
 11
18.8329
 21
24.4466
  0
LINE
  8
0
 10
18.8329
 20
24.4466
 11
18.7837
 21
24.3789
  0
LINE
  8
0
 10
18.7837
 20
24.3789
 11
18.7289
 21
24.3155
  0
LINE
  8
0
 10
18.7289
 20
24.3155
 11
18.6691
 21
24.2569
  0
LINE
  8
0
 10
18.6691
 20
24.2569
 11
18.6046
 21
24.2035
  0
LINE
  8
0
 10
18.6046
 20
24.2035
 11
18.5358
 21
24.1557
  0
LINE
  8
0
 10
18.5358
 20
24.1557
 11
18.4633
 21
24.1138
  0
LINE
  8
0
 10
18.4633
 20
24.1138
 11
18.3875
 21
24.0781
  0
LINE
  8
0
 10
18.3875
 20
24.0781
 11
18.309
 21
24.049
  0
LINE
  8
0
 10
18.309
 20
24.049
 11
18.2283
 21
24.0264
  0
LINE
  8
0
 10
18.2283
 20
24.0264
 11
18.1461
 21
24.0107
  0
LINE
  8
0
 10
18.1461
 20
24.0107
 11
18.0628
 21
24.002
  0
LINE
  8
0
 10
18.0628
 20
24.002
 11
17.979
 21
24.0002
  0
LINE
  8
0
 10
17.979
 20
24.0002
 11
17.8954
 21
24.0055
  0
LINE
  8
0
 10
-0.156769
 20
80.5082
 11
-0.463501
 21
80.5734
  0
LINE
  8
0
 10
-0.463501
 20
80.5734
 11
-0.749985
 21
80.701
  0
LINE
  8
0
 10
-0.749985
 20
80.701
 11
-1.00368
 21
80.8853
  0
LINE
  8
0
 10
-1.00368
 20
80.8853
 11
-1.2135
 21
81.1183
  0
LINE
  8
0
 10
-1.2135
 20
81.1183
 11
-1.3703
 21
81.3899
  0
LINE
  8
0
 10
-1.3703
 20
81.3899
 11
-1.46719
 21
81.6881
  0
LINE
  8
0
 10
-1.46719
 20
81.6881
 11
-1.49997
 21
82
  0
LINE
  8
0
 10
-1.49997
 20
82
 11
-1.46719
 21
82.3119
  0
LINE
  8
0
 10
-1.46719
 20
82.3119
 11
-1.3703
 21
82.6101
  0
LINE
  8
0
 10
-1.3703
 20
82.6101
 11
-1.2135
 21
82.8817
  0
LINE
  8
0
 10
-1.2135
 20
82.8817
 11
-1.00368
 21
83.1147
  0
LINE
  8
0
 10
-1.00368
 20
83.1147
 11
-0.749969
 21
83.299
  0
LINE
  8
0
 10
-0.749969
 20
83.299
 11
-0.463501
 21
83.4266
  0
LINE
  8
0
 10
-0.463501
 20
83.4266
 11
-0.156769
 21
83.4918
  0
LINE
  8
0
 10
-0.156769
 20
83.4918
 11
0.156784
 21
83.4918
  0
LINE
  8
0
 10
0.156784
 20
83.4918
 11
0.463516
 21
83.4266
  0
LINE
  8
0
 10
0.463516
 20
83.4266
 11
0.75
 21
83.299
  0
LINE
  8
0
 10
0.75
 20
83.299
 11
1.00369
 21
83.1147
  0
LINE
  8
0
 10
1.00369
 20
83.1147
 11
1.21352
 21
82.8817
  0
LINE
  8
0
 10
1.21352
 20
82.8817
 11
1.37032
 21
82.6101
  0
LINE
  8
0
 10
1.37032
 20
82.6101
 11
1.46721
 21
82.3119
  0
LINE
  8
0
 10
1.46721
 20
82.3119
 11
1.5
 21
82
  0
LINE
  8
0
 10
1.5
 20
82
 11
1.46721
 21
81.6881
  0
LINE
  8
0
 10
1.46721
 20
81.6881
 11
1.37032
 21
81.3899
  0
LINE
  8
0
 10
1.37032
 20
81.3899
 11
1.21352
 21
81.1183
  0
LINE
  8
0
 10
1.21352
 20
81.1183
 11
1.00369
 21
80.8853
  0
LINE
  8
0
 10
1.00369
 20
80.8853
 11
0.75
 21
80.701
  0
LINE
  8
0
 10
0.75
 20
80.701
 11
0.463516
 21
80.5734
  0
LINE
  8
0
 10
0.463516
 20
80.5734
 11
0.156784
 21
80.5082
  0
LINE
  8
0
 10
0.156784
 20
80.5082
 11
-0.156769
 21
80.5082
  0
LINE
  8
0
 10
5.90536
 20
70.0082
 11
5.59863
 21
70.0734
  0
LINE
  8
0
 10
5.59863
 20
70.0734
 11
5.31215
 21
70.201
  0
LINE
  8
0
 10
5.31215
 20
70.201
 11
5.05846
 21
70.3853
  0
LINE
  8
0
 10
5.05846
 20
70.3853
 11
4.84863
 21
70.6183
  0
LINE
  8
0
 10
4.84863
 20
70.6183
 11
4.69183
 21
70.8899
  0
LINE
  8
0
 10
4.69183
 20
70.8899
 11
4.59494
 21
71.1881
  0
LINE
  8
0
 10
4.59494
 20
71.1881
 11
4.56216
 21
71.5
  0
LINE
  8
0
 10
4.56216
 20
71.5
 11
4.59496
 21
71.8119
  0
LINE
  8
0
 10
4.59496
 20
71.8119
 11
4.69185
 21
72.1101
  0
LINE
  8
0
 10
4.69185
 20
72.1101
 11
4.84865
 21
72.3817
  0
LINE
  8
0
 10
4.84865
 20
72.3817
 11
5.05847
 21
72.6147
  0
LINE
  8
0
 10
5.05847
 20
72.6147
 11
5.31216
 21
72.799
  0
LINE
  8
0
 10
5.31216
 20
72.799
 11
5.59865
 21
72.9266
  0
LINE
  8
0
 10
5.59865
 20
72.9266
 11
5.90538
 21
72.9918
  0
LINE
  8
0
 10
5.90538
 20
72.9918
 11
6.21896
 21
72.9918
  0
LINE
  8
0
 10
6.21896
 20
72.9918
 11
6.5257
 21
72.9266
  0
LINE
  8
0
 10
6.5257
 20
72.9266
 11
6.81216
 21
72.799
  0
LINE
  8
0
 10
6.81216
 20
72.799
 11
7.06587
 21
72.6147
  0
LINE
  8
0
 10
7.06587
 20
72.6147
 11
7.2757
 21
72.3817
  0
LINE
  8
0
 10
7.2757
 20
72.3817
 11
7.4325
 21
72.1101
  0
LINE
  8
0
 10
7.4325
 20
72.1101
 11
7.52939
 21
71.8119
  0
LINE
  8
0
 10
7.52939
 20
71.8119
 11
7.56216
 21
71.5
  0
LINE
  8
0
 10
7.56216
 20
71.5
 11
7.52937
 21
71.1881
  0
LINE
  8
0
 10
7.52937
 20
71.1881
 11
7.43248
 21
70.8899
  0
LINE
  8
0
 10
7.43248
 20
70.8899
 11
7.27568
 21
70.6183
  0
LINE
  8
0
 10
7.27568
 20
70.6183
 11
7.06586
 21
70.3853
  0
LINE
  8
0
 10
7.06586
 20
70.3853
 11
6.81215
 21
70.201
  0
LINE
  8
0
 10
6.81215
 20
70.201
 11
6.52568
 21
70.0734
  0
LINE
  8
0
 10
6.52568
 20
70.0734
 11
6.21895
 21
70.0082
  0
LINE
  8
0
 10
6.21895
 20
70.0082
 11
5.90536
 21
70.0082
  0
LINE
  8
0
 10
-6.21896
 20
70.0082
 11
-6.5257
 21
70.0734
  0
LINE
  8
0
 10
-6.5257
 20
70.0734
 11
-6.81216
 21
70.201
  0
LINE
  8
0
 10
-6.81216
 20
70.201
 11
-7.06587
 21
70.3853
  0
LINE
  8
0
 10
-7.06587
 20
70.3853
 11
-7.2757
 21
70.6183
  0
LINE
  8
0
 10
-7.2757
 20
70.6183
 11
-7.4325
 21
70.8899
  0
LINE
  8
0
 10
-7.4325
 20
70.8899
 11
-7.52939
 21
71.1881
  0
LINE
  8
0
 10
-7.52939
 20
71.1881
 11
-7.56216
 21
71.5
  0
LINE
  8
0
 10
-7.56216
 20
71.5
 11
-7.52939
 21
71.8119
  0
LINE
  8
0
 10
-7.52939
 20
71.8119
 11
-7.4325
 21
72.1101
  0
LINE
  8
0
 10
-7.4325
 20
72.1101
 11
-7.2757
 21
72.3817
  0
LINE
  8
0
 10
-7.2757
 20
72.3817
 11
-7.06587
 21
72.6147
  0
LINE
  8
0
 10
-7.06587
 20
72.6147
 11
-6.81216
 21
72.799
  0
LINE
  8
0
 10
-6.81216
 20
72.799
 11
-6.5257
 21
72.9266
  0
LINE
  8
0
 10
-6.5257
 20
72.9266
 11
-6.21896
 21
72.9918
  0
LINE
  8
0
 10
-6.21896
 20
72.9918
 11
-5.90538
 21
72.9918
  0
LINE
  8
0
 10
-5.90538
 20
72.9918
 11
-5.59865
 21
72.9266
  0
LINE
  8
0
 10
-5.59865
 20
72.9266
 11
-5.31216
 21
72.799
  0
LINE
  8
0
 10
-5.31216
 20
72.799
 11
-5.05847
 21
72.6147
  0
LINE
  8
0
 10
-5.05847
 20
72.6147
 11
-4.84865
 21
72.3817
  0
LINE
  8
0
 10
-4.84865
 20
72.3817
 11
-4.69185
 21
72.1101
  0
LINE
  8
0
 10
-4.69185
 20
72.1101
 11
-4.59496
 21
71.8119
  0
LINE
  8
0
 10
-4.59496
 20
71.8119
 11
-4.56216
 21
71.5
  0
LINE
  8
0
 10
-4.56216
 20
71.5
 11
-4.59496
 21
71.1881
  0
LINE
  8
0
 10
-4.59496
 20
71.1881
 11
-4.69185
 21
70.8899
  0
LINE
  8
0
 10
-4.69185
 20
70.8899
 11
-4.84865
 21
70.6183
  0
LINE
  8
0
 10
-4.84865
 20
70.6183
 11
-5.05847
 21
70.3853
  0
LINE
  8
0
 10
-5.05847
 20
70.3853
 11
-5.31216
 21
70.201
  0
LINE
  8
0
 10
-5.31216
 20
70.201
 11
-5.59865
 21
70.0734
  0
LINE
  8
0
 10
-5.59865
 20
70.0734
 11
-5.90538
 21
70.0082
  0
LINE
  8
0
 10
-5.90538
 20
70.0082
 11
-6.21896
 21
70.0082
  0
LINE
  8
0
 10
-65.636
 20
41.55
 11
-65.636
 21
44.75
  0
LINE
  8
0
 10
-65.636
 20
44.75
 11
-39.55
 21
44.75
  0
LINE
  8
0
 10
-39.55
 20
44.75
 11
-39.55
 21
41.55
  0
LINE
  8
0
 10
-39.55
 20
41.55
 11
-65.636
 21
41.55
  0
LINE
  8
0
 10
39.55
 20
41.55
 11
39.55
 21
44.75
  0
LINE
  8
0
 10
39.55
 20
44.75
 11
65.636
 21
44.75
  0
LINE
  8
0
 10
65.636
 20
44.75
 11
65.636
 21
41.55
  0
LINE
  8
0
 10
65.636
 20
41.55
 11
39.55
 21
41.55
  0
LINE
  8
0
 10
-54.4509
 20
27.6665
 11
-54.451
 21
36.5
  0
LINE
  8
0
 10
-54.451
 20
36.5
 11
-50.571
 21
36.5001
  0
LINE
  8
0
 10
-50.571
 20
36.5001
 11
-50.571
 21
27.6665
  0
LINE
  8
0
 10
-50.571
 20
27.6665
 11
-54.4509
 21
27.6665
  0
LINE
  8
0
 10
50.571
 20
27.6665
 11
50.5709
 21
36.5
  0
LINE
  8
0
 10
50.5709
 20
36.5
 11
54.4509
 21
36.5001
  0
LINE
  8
0
 10
54.4509
 20
36.5001
 11
54.4509
 21
27.6665
  0
LINE
  8
0
 10
54.4509
 20
27.6665
 11
50.571
 21
27.6665
  0
LINE
  8
0
 10
64.686
 20
30.5
 11
64.686
 21
34.5
  0
LINE
  8
0
 10
64.686
 20
34.5
 11
66.686
 21
34.5
  0
LINE
  8
0
 10
66.686
 20
34.5
 11
66.686
 21
30.5
  0
LINE
  8
0
 10
66.686
 20
30.5
 11
64.686
 21
30.5
  0
LINE
  8
0
 10
-66.686
 20
30.5
 11
-66.686
 21
34.5
  0
LINE
  8
0
 10
-66.686
 20
34.5
 11
-64.686
 21
34.5
  0
LINE
  8
0
 10
-64.686
 20
34.5
 11
-64.686
 21
30.5
  0
LINE
  8
0
 10
-64.686
 20
30.5
 11
-66.686
 21
30.5
  0
LINE
  8
0
 10
-29.1568
 20
10.2082
 11
-29.4635
 21
10.2734
  0
LINE
  8
0
 10
-29.4635
 20
10.2734
 11
-29.75
 21
10.401
  0
LINE
  8
0
 10
-29.75
 20
10.401
 11
-30.0037
 21
10.5853
  0
LINE
  8
0
 10
-30.0037
 20
10.5853
 11
-30.2135
 21
10.8183
  0
LINE
  8
0
 10
-30.2135
 20
10.8183
 11
-30.3703
 21
11.0899
  0
LINE
  8
0
 10
-30.3703
 20
11.0899
 11
-30.4672
 21
11.3881
  0
LINE
  8
0
 10
-30.4672
 20
11.3881
 11
-30.5
 21
11.7
  0
LINE
  8
0
 10
-30.5
 20
11.7
 11
-30.5
 21
29.7
  0
LINE
  8
0
 10
-30.5
 20
29.7
 11
-30.4672
 21
30.0119
  0
LINE
  8
0
 10
-30.4672
 20
30.0119
 11
-30.3703
 21
30.3101
  0
LINE
  8
0
 10
-30.3703
 20
30.3101
 11
-30.2135
 21
30.5817
  0
LINE
  8
0
 10
-30.2135
 20
30.5817
 11
-30.0037
 21
30.8147
  0
LINE
  8
0
 10
-30.0037
 20
30.8147
 11
-29.75
 21
30.999
  0
LINE
  8
0
 10
-29.75
 20
30.999
 11
-29.4635
 21
31.1266
  0
LINE
  8
0
 10
-29.4635
 20
31.1266
 11
-29.1568
 21
31.1918
  0
LINE
  8
0
 10
-29.1568
 20
31.1918
 11
-28.8432
 21
31.1918
  0
LINE
  8
0
 10
-28.8432
 20
31.1918
 11
-28.5365
 21
31.1266
  0
LINE
  8
0
 10
-28.5365
 20
31.1266
 11
-28.25
 21
30.999
  0
LINE
  8
0
 10
-28.25
 20
30.999
 11
-27.9963
 21
30.8147
  0
LINE
  8
0
 10
-27.9963
 20
30.8147
 11
-27.7865
 21
30.5817
  0
LINE
  8
0
 10
-27.7865
 20
30.5817
 11
-27.6297
 21
30.3101
  0
LINE
  8
0
 10
-27.6297
 20
30.3101
 11
-27.5328
 21
30.0119
  0
LINE
  8
0
 10
-27.5328
 20
30.0119
 11
-27.5
 21
29.7
  0
LINE
  8
0
 10
-27.5
 20
29.7
 11
-27.5
 21
11.7
  0
LINE
  8
0
 10
-27.5
 20
11.7
 11
-27.5328
 21
11.3881
  0
LINE
  8
0
 10
-27.5328
 20
11.3881
 11
-27.6297
 21
11.0899
  0
LINE
  8
0
 10
-27.6297
 20
11.0899
 11
-27.7865
 21
10.8183
  0
LINE
  8
0
 10
-27.7865
 20
10.8183
 11
-27.9963
 21
10.5853
  0
LINE
  8
0
 10
-27.9963
 20
10.5853
 11
-28.25
 21
10.401
  0
LINE
  8
0
 10
-28.25
 20
10.401
 11
-28.5365
 21
10.2734
  0
LINE
  8
0
 10
-28.5365
 20
10.2734
 11
-28.8432
 21
10.2082
  0
LINE
  8
0
 10
-28.8432
 20
10.2082
 11
-29.1568
 21
10.2082
  0
LINE
  8
0
 10
28.8432
 20
10.2082
 11
28.5365
 21
10.2734
  0
LINE
  8
0
 10
28.5365
 20
10.2734
 11
28.25
 21
10.401
  0
LINE
  8
0
 10
28.25
 20
10.401
 11
27.9963
 21
10.5853
  0
LINE
  8
0
 10
27.9963
 20
10.5853
 11
27.7865
 21
10.8183
  0
LINE
  8
0
 10
27.7865
 20
10.8183
 11
27.6297
 21
11.0899
  0
LINE
  8
0
 10
27.6297
 20
11.0899
 11
27.5328
 21
11.3881
  0
LINE
  8
0
 10
27.5328
 20
11.3881
 11
27.5
 21
11.7
  0
LINE
  8
0
 10
27.5
 20
11.7
 11
27.5
 21
29.7
  0
LINE
  8
0
 10
27.5
 20
29.7
 11
27.5328
 21
30.0119
  0
LINE
  8
0
 10
27.5328
 20
30.0119
 11
27.6297
 21
30.3101
  0
LINE
  8
0
 10
27.6297
 20
30.3101
 11
27.7865
 21
30.5817
  0
LINE
  8
0
 10
27.7865
 20
30.5817
 11
27.9963
 21
30.8147
  0
LINE
  8
0
 10
27.9963
 20
30.8147
 11
28.25
 21
30.999
  0
LINE
  8
0
 10
28.25
 20
30.999
 11
28.5365
 21
31.1266
  0
LINE
  8
0
 10
28.5365
 20
31.1266
 11
28.8432
 21
31.1918
  0
LINE
  8
0
 10
28.8432
 20
31.1918
 11
29.1568
 21
31.1918
  0
LINE
  8
0
 10
29.1568
 20
31.1918
 11
29.4635
 21
31.1266
  0
LINE
  8
0
 10
29.4635
 20
31.1266
 11
29.75
 21
30.999
  0
LINE
  8
0
 10
29.75
 20
30.999
 11
30.0037
 21
30.8147
  0
LINE
  8
0
 10
30.0037
 20
30.8147
 11
30.2135
 21
30.5817
  0
LINE
  8
0
 10
30.2135
 20
30.5817
 11
30.3703
 21
30.3101
  0
LINE
  8
0
 10
30.3703
 20
30.3101
 11
30.4672
 21
30.0119
  0
LINE
  8
0
 10
30.4672
 20
30.0119
 11
30.5
 21
29.7
  0
LINE
  8
0
 10
30.5
 20
29.7
 11
30.5
 21
11.7
  0
LINE
  8
0
 10
30.5
 20
11.7
 11
30.4672
 21
11.3881
  0
LINE
  8
0
 10
30.4672
 20
11.3881
 11
30.3703
 21
11.0899
  0
LINE
  8
0
 10
30.3703
 20
11.0899
 11
30.2135
 21
10.8183
  0
LINE
  8
0
 10
30.2135
 20
10.8183
 11
30.0037
 21
10.5853
  0
LINE
  8
0
 10
30.0037
 20
10.5853
 11
29.75
 21
10.401
  0
LINE
  8
0
 10
29.75
 20
10.401
 11
29.4635
 21
10.2734
  0
LINE
  8
0
 10
29.4635
 20
10.2734
 11
29.1568
 21
10.2082
  0
LINE
  8
0
 10
29.1568
 20
10.2082
 11
28.8432
 21
10.2082
  0
LINE
  8
0
 10
-57.686
 20
18.6667
 11
-57.686
 21
22.6667
  0
LINE
  8
0
 10
-57.686
 20
22.6667
 11
-55.686
 21
22.6667
  0
LINE
  8
0
 10
-55.686
 20
22.6667
 11
-55.686
 21
18.6667
  0
LINE
  8
0
 10
-55.686
 20
18.6667
 11
-57.686
 21
18.6667
  0
LINE
  8
0
 10
55.686
 20
18.6667
 11
55.686
 21
22.6667
  0
LINE
  8
0
 10
55.686
 20
22.6667
 11
57.686
 21
22.6667
  0
LINE
  8
0
 10
57.686
 20
22.6667
 11
57.686
 21
18.6667
  0
LINE
  8
0
 10
57.686
 20
18.6667
 11
55.686
 21
18.6667
  0
LINE
  8
0
 10
-48.686
 20
18.6667
 11
-48.686
 21
22.6667
  0
LINE
  8
0
 10
-48.686
 20
22.6667
 11
-46.686
 21
22.6667
  0
LINE
  8
0
 10
-46.686
 20
22.6667
 11
-46.686
 21
18.6667
  0
LINE
  8
0
 10
-46.686
 20
18.6667
 11
-48.686
 21
18.6667
  0
LINE
  8
0
 10
46.686
 20
18.6667
 11
46.686
 21
22.6667
  0
LINE
  8
0
 10
46.686
 20
22.6667
 11
48.686
 21
22.6667
  0
LINE
  8
0
 10
48.686
 20
22.6667
 11
48.686
 21
18.6667
  0
LINE
  8
0
 10
48.686
 20
18.6667
 11
46.686
 21
18.6667
  0
LINE
  8
0
 10
50.571
 20
-2.86679
 11
50.5709
 21
13.8333
  0
LINE
  8
0
 10
50.5709
 20
13.8333
 11
54.4509
 21
13.8334
  0
LINE
  8
0
 10
54.4509
 20
13.8334
 11
54.4509
 21
-2.86685
  0
LINE
  8
0
 10
54.4509
 20
-2.86685
 11
50.571
 21
-2.86679
  0
LINE
  8
0
 10
-54.451
 20
13.8333
 11
-50.571
 21
13.8334
  0
LINE
  8
0
 10
-50.571
 20
13.8334
 11
-50.5709
 21
-2.86668
  0
LINE
  8
0
 10
-50.5709
 20
-2.86668
 11
-54.451
 21
-2.86674
  0
LINE
  8
0
 10
-54.451
 20
-2.86674
 11
-54.451
 21
13.8333
  0
LINE
  8
0
 10
-66.686
 20
0.843628
 11
-66.686
 21
4.84363
  0
LINE
  8
0
 10
-66.686
 20
4.84363
 11
-64.686
 21
4.84363
  0
LINE
  8
0
 10
-64.686
 20
4.84363
 11
-64.686
 21
0.843628
  0
LINE
  8
0
 10
-64.686
 20
0.843628
 11
-66.686
 21
0.843628
  0
LINE
  8
0
 10
64.686
 20
0.843628
 11
64.686
 21
4.84363
  0
LINE
  8
0
 10
64.686
 20
4.84363
 11
66.686
 21
4.84363
  0
LINE
  8
0
 10
66.686
 20
4.84363
 11
66.686
 21
0.843628
  0
LINE
  8
0
 10
66.686
 20
0.843628
 11
64.686
 21
0.843628
  0
LINE
  8
0
 10
28.8432
 20
-21.7918
 11
28.5365
 21
-21.7266
  0
LINE
  8
0
 10
28.5365
 20
-21.7266
 11
28.25
 21
-21.599
  0
LINE
  8
0
 10
28.25
 20
-21.599
 11
27.9963
 21
-21.4147
  0
LINE
  8
0
 10
27.9963
 20
-21.4147
 11
27.7865
 21
-21.1817
  0
LINE
  8
0
 10
27.7865
 20
-21.1817
 11
27.6297
 21
-20.9101
  0
LINE
  8
0
 10
27.6297
 20
-20.9101
 11
27.5328
 21
-20.6119
  0
LINE
  8
0
 10
27.5328
 20
-20.6119
 11
27.5
 21
-20.3
  0
LINE
  8
0
 10
27.5
 20
-20.3
 11
27.5
 21
-2.29999
  0
LINE
  8
0
 10
27.5
 20
-2.29999
 11
27.5328
 21
-1.98813
  0
LINE
  8
0
 10
27.5328
 20
-1.98813
 11
27.6297
 21
-1.68988
  0
LINE
  8
0
 10
27.6297
 20
-1.68988
 11
27.7865
 21
-1.41832
  0
LINE
  8
0
 10
27.7865
 20
-1.41832
 11
27.9963
 21
-1.18527
  0
LINE
  8
0
 10
27.9963
 20
-1.18527
 11
28.25
 21
-1.00096
  0
LINE
  8
0
 10
28.25
 20
-1.00096
 11
28.5365
 21
-0.873413
  0
LINE
  8
0
 10
28.5365
 20
-0.873413
 11
28.8432
 21
-0.808212
  0
LINE
  8
0
 10
28.8432
 20
-0.808212
 11
29.1568
 21
-0.808212
  0
LINE
  8
0
 10
29.1568
 20
-0.808212
 11
29.4635
 21
-0.873413
  0
LINE
  8
0
 10
29.4635
 20
-0.873413
 11
29.75
 21
-1.00096
  0
LINE
  8
0
 10
29.75
 20
-1.00096
 11
30.0037
 21
-1.18527
  0
LINE
  8
0
 10
30.0037
 20
-1.18527
 11
30.2135
 21
-1.41832
  0
LINE
  8
0
 10
30.2135
 20
-1.41832
 11
30.3703
 21
-1.68988
  0
LINE
  8
0
 10
30.3703
 20
-1.68988
 11
30.4672
 21
-1.98813
  0
LINE
  8
0
 10
30.4672
 20
-1.98813
 11
30.5
 21
-2.29999
  0
LINE
  8
0
 10
30.5
 20
-2.29999
 11
30.5
 21
-20.3
  0
LINE
  8
0
 10
30.5
 20
-20.3
 11
30.4672
 21
-20.6119
  0
LINE
  8
0
 10
30.4672
 20
-20.6119
 11
30.3703
 21
-20.9101
  0
LINE
  8
0
 10
30.3703
 20
-20.9101
 11
30.2135
 21
-21.1817
  0
LINE
  8
0
 10
30.2135
 20
-21.1817
 11
30.0037
 21
-21.4147
  0
LINE
  8
0
 10
30.0037
 20
-21.4147
 11
29.75
 21
-21.599
  0
LINE
  8
0
 10
29.75
 20
-21.599
 11
29.4635
 21
-21.7266
  0
LINE
  8
0
 10
29.4635
 20
-21.7266
 11
29.1568
 21
-21.7918
  0
LINE
  8
0
 10
29.1568
 20
-21.7918
 11
28.8432
 21
-21.7918
  0
LINE
  8
0
 10
-29.1568
 20
-21.7918
 11
-29.4635
 21
-21.7266
  0
LINE
  8
0
 10
-29.4635
 20
-21.7266
 11
-29.75
 21
-21.599
  0
LINE
  8
0
 10
-29.75
 20
-21.599
 11
-30.0037
 21
-21.4147
  0
LINE
  8
0
 10
-30.0037
 20
-21.4147
 11
-30.2135
 21
-21.1817
  0
LINE
  8
0
 10
-30.2135
 20
-21.1817
 11
-30.3703
 21
-20.9101
  0
LINE
  8
0
 10
-30.3703
 20
-20.9101
 11
-30.4672
 21
-20.6119
  0
LINE
  8
0
 10
-30.4672
 20
-20.6119
 11
-30.5
 21
-20.3
  0
LINE
  8
0
 10
-30.5
 20
-20.3
 11
-30.5
 21
-2.29999
  0
LINE
  8
0
 10
-30.5
 20
-2.29999
 11
-30.4672
 21
-1.98813
  0
LINE
  8
0
 10
-30.4672
 20
-1.98813
 11
-30.3703
 21
-1.68988
  0
LINE
  8
0
 10
-30.3703
 20
-1.68988
 11
-30.2135
 21
-1.41832
  0
LINE
  8
0
 10
-30.2135
 20
-1.41832
 11
-30.0037
 21
-1.18527
  0
LINE
  8
0
 10
-30.0037
 20
-1.18527
 11
-29.75
 21
-1.00096
  0
LINE
  8
0
 10
-29.75
 20
-1.00096
 11
-29.4635
 21
-0.873413
  0
LINE
  8
0
 10
-29.4635
 20
-0.873413
 11
-29.1568
 21
-0.808212
  0
LINE
  8
0
 10
-29.1568
 20
-0.808212
 11
-28.8432
 21
-0.808212
  0
LINE
  8
0
 10
-28.8432
 20
-0.808212
 11
-28.5365
 21
-0.873413
  0
LINE
  8
0
 10
-28.5365
 20
-0.873413
 11
-28.25
 21
-1.00096
  0
LINE
  8
0
 10
-28.25
 20
-1.00096
 11
-27.9963
 21
-1.18527
  0
LINE
  8
0
 10
-27.9963
 20
-1.18527
 11
-27.7865
 21
-1.41832
  0
LINE
  8
0
 10
-27.7865
 20
-1.41832
 11
-27.6297
 21
-1.68988
  0
LINE
  8
0
 10
-27.6297
 20
-1.68988
 11
-27.5328
 21
-1.98813
  0
LINE
  8
0
 10
-27.5328
 20
-1.98813
 11
-27.5
 21
-2.29999
  0
LINE
  8
0
 10
-27.5
 20
-2.29999
 11
-27.5
 21
-20.3
  0
LINE
  8
0
 10
-27.5
 20
-20.3
 11
-27.5328
 21
-20.6119
  0
LINE
  8
0
 10
-27.5328
 20
-20.6119
 11
-27.6297
 21
-20.9101
  0
LINE
  8
0
 10
-27.6297
 20
-20.9101
 11
-27.7865
 21
-21.1817
  0
LINE
  8
0
 10
-27.7865
 20
-21.1817
 11
-27.9963
 21
-21.4147
  0
LINE
  8
0
 10
-27.9963
 20
-21.4147
 11
-28.25
 21
-21.599
  0
LINE
  8
0
 10
-28.25
 20
-21.599
 11
-28.5365
 21
-21.7266
  0
LINE
  8
0
 10
-28.5365
 20
-21.7266
 11
-28.8432
 21
-21.7918
  0
LINE
  8
0
 10
-28.8432
 20
-21.7918
 11
-29.1568
 21
-21.7918
  0
LINE
  8
0
 10
60.1576
 20
-52.8065
 11
59.8509
 21
-52.7413
  0
LINE
  8
0
 10
59.8509
 20
-52.7413
 11
59.5644
 21
-52.6138
  0
LINE
  8
0
 10
59.5644
 20
-52.6138
 11
59.3107
 21
-52.4295
  0
LINE
  8
0
 10
59.3107
 20
-52.4295
 11
59.1009
 21
-52.1964
  0
LINE
  8
0
 10
59.1009
 20
-52.1964
 11
58.9441
 21
-51.9249
  0
LINE
  8
0
 10
58.9441
 20
-51.9249
 11
58.8472
 21
-51.6266
  0
LINE
  8
0
 10
58.8472
 20
-51.6266
 11
58.8144
 21
-51.3147
  0
LINE
  8
0
 10
58.8144
 20
-51.3147
 11
58.8472
 21
-51.0029
  0
LINE
  8
0
 10
58.8472
 20
-51.0029
 11
58.9441
 21
-50.7047
  0
LINE
  8
0
 10
58.9441
 20
-50.7047
 11
59.1009
 21
-50.4331
  0
LINE
  8
0
 10
59.1009
 20
-50.4331
 11
59.3107
 21
-50.2
  0
LINE
  8
0
 10
59.3107
 20
-50.2
 11
59.5644
 21
-50.0157
  0
LINE
  8
0
 10
59.5644
 20
-50.0157
 11
59.8509
 21
-49.8882
  0
LINE
  8
0
 10
59.8509
 20
-49.8882
 11
60.1576
 21
-49.823
  0
LINE
  8
0
 10
60.1576
 20
-49.823
 11
60.4712
 21
-49.823
  0
LINE
  8
0
 10
60.4712
 20
-49.823
 11
60.7779
 21
-49.8882
  0
LINE
  8
0
 10
60.7779
 20
-49.8882
 11
61.0644
 21
-50.0157
  0
LINE
  8
0
 10
61.0644
 20
-50.0157
 11
61.3181
 21
-50.2
  0
LINE
  8
0
 10
61.3181
 20
-50.2
 11
61.5279
 21
-50.4331
  0
LINE
  8
0
 10
61.5279
 20
-50.4331
 11
61.6847
 21
-50.7047
  0
LINE
  8
0
 10
61.6847
 20
-50.7047
 11
61.7816
 21
-51.0029
  0
LINE
  8
0
 10
61.7816
 20
-51.0029
 11
61.8144
 21
-51.3147
  0
LINE
  8
0
 10
61.8144
 20
-51.3147
 11
61.7816
 21
-51.6266
  0
LINE
  8
0
 10
61.7816
 20
-51.6266
 11
61.6847
 21
-51.9249
  0
LINE
  8
0
 10
61.6847
 20
-51.9249
 11
61.5279
 21
-52.1964
  0
LINE
  8
0
 10
61.5279
 20
-52.1964
 11
61.3181
 21
-52.4295
  0
LINE
  8
0
 10
61.3181
 20
-52.4295
 11
61.0644
 21
-52.6138
  0
LINE
  8
0
 10
61.0644
 20
-52.6138
 11
60.7779
 21
-52.7413
  0
LINE
  8
0
 10
60.7779
 20
-52.7413
 11
60.4712
 21
-52.8065
  0
LINE
  8
0
 10
60.4712
 20
-52.8065
 11
60.1576
 21
-52.8065
  0
LINE
  8
0
 10
48.0333
 20
-52.8065
 11
47.7265
 21
-52.7413
  0
LINE
  8
0
 10
47.7265
 20
-52.7413
 11
47.4401
 21
-52.6138
  0
LINE
  8
0
 10
47.4401
 20
-52.6138
 11
47.1864
 21
-52.4295
  0
LINE
  8
0
 10
47.1864
 20
-52.4295
 11
46.9765
 21
-52.1964
  0
LINE
  8
0
 10
46.9765
 20
-52.1964
 11
46.8197
 21
-51.9249
  0
LINE
  8
0
 10
46.8197
 20
-51.9249
 11
46.7229
 21
-51.6266
  0
LINE
  8
0
 10
46.7229
 20
-51.6266
 11
46.6901
 21
-51.3147
  0
LINE
  8
0
 10
46.6901
 20
-51.3147
 11
46.7229
 21
-51.0029
  0
LINE
  8
0
 10
46.7229
 20
-51.0029
 11
46.8197
 21
-50.7047
  0
LINE
  8
0
 10
46.8197
 20
-50.7047
 11
46.9765
 21
-50.4331
  0
LINE
  8
0
 10
46.9765
 20
-50.4331
 11
47.1864
 21
-50.2
  0
LINE
  8
0
 10
47.1864
 20
-50.2
 11
47.4401
 21
-50.0157
  0
LINE
  8
0
 10
47.4401
 20
-50.0157
 11
47.7265
 21
-49.8882
  0
LINE
  8
0
 10
47.7265
 20
-49.8882
 11
48.0333
 21
-49.823
  0
LINE
  8
0
 10
48.0333
 20
-49.823
 11
48.3469
 21
-49.823
  0
LINE
  8
0
 10
48.3469
 20
-49.823
 11
48.6536
 21
-49.8882
  0
LINE
  8
0
 10
48.6536
 20
-49.8882
 11
48.9401
 21
-50.0157
  0
LINE
  8
0
 10
48.9401
 20
-50.0157
 11
49.1938
 21
-50.2
  0
LINE
  8
0
 10
49.1938
 20
-50.2
 11
49.4036
 21
-50.4331
  0
LINE
  8
0
 10
49.4036
 20
-50.4331
 11
49.5604
 21
-50.7047
  0
LINE
  8
0
 10
49.5604
 20
-50.7047
 11
49.6573
 21
-51.0029
  0
LINE
  8
0
 10
49.6573
 20
-51.0029
 11
49.6901
 21
-51.3147
  0
LINE
  8
0
 10
49.6901
 20
-51.3147
 11
49.6573
 21
-51.6266
  0
LINE
  8
0
 10
49.6573
 20
-51.6266
 11
49.5604
 21
-51.9249
  0
LINE
  8
0
 10
49.5604
 20
-51.9249
 11
49.4036
 21
-52.1964
  0
LINE
  8
0
 10
49.4036
 20
-52.1964
 11
49.1938
 21
-52.4295
  0
LINE
  8
0
 10
49.1938
 20
-52.4295
 11
48.9401
 21
-52.6138
  0
LINE
  8
0
 10
48.9401
 20
-52.6138
 11
48.6536
 21
-52.7413
  0
LINE
  8
0
 10
48.6536
 20
-52.7413
 11
48.3469
 21
-52.8065
  0
LINE
  8
0
 10
48.3469
 20
-52.8065
 11
48.0333
 21
-52.8065
  0
LINE
  8
0
 10
-60.4712
 20
-52.8065
 11
-60.7779
 21
-52.7413
  0
LINE
  8
0
 10
-60.7779
 20
-52.7413
 11
-61.0644
 21
-52.6138
  0
LINE
  8
0
 10
-61.0644
 20
-52.6138
 11
-61.3181
 21
-52.4295
  0
LINE
  8
0
 10
-61.3181
 20
-52.4295
 11
-61.5279
 21
-52.1964
  0
LINE
  8
0
 10
-61.5279
 20
-52.1964
 11
-61.6847
 21
-51.9249
  0
LINE
  8
0
 10
-61.6847
 20
-51.9249
 11
-61.7816
 21
-51.6266
  0
LINE
  8
0
 10
-61.7816
 20
-51.6266
 11
-61.8144
 21
-51.3147
  0
LINE
  8
0
 10
-61.8144
 20
-51.3147
 11
-61.7816
 21
-51.0029
  0
LINE
  8
0
 10
-61.7816
 20
-51.0029
 11
-61.6847
 21
-50.7047
  0
LINE
  8
0
 10
-61.6847
 20
-50.7047
 11
-61.5279
 21
-50.4331
  0
LINE
  8
0
 10
-61.5279
 20
-50.4331
 11
-61.3181
 21
-50.2
  0
LINE
  8
0
 10
-61.3181
 20
-50.2
 11
-61.0644
 21
-50.0157
  0
LINE
  8
0
 10
-61.0644
 20
-50.0157
 11
-60.7779
 21
-49.8882
  0
LINE
  8
0
 10
-60.7779
 20
-49.8882
 11
-60.4712
 21
-49.823
  0
LINE
  8
0
 10
-60.4712
 20
-49.823
 11
-60.1576
 21
-49.823
  0
LINE
  8
0
 10
-60.1576
 20
-49.823
 11
-59.8509
 21
-49.8882
  0
LINE
  8
0
 10
-59.8509
 20
-49.8882
 11
-59.5644
 21
-50.0157
  0
LINE
  8
0
 10
-59.5644
 20
-50.0157
 11
-59.3107
 21
-50.2
  0
LINE
  8
0
 10
-59.3107
 20
-50.2
 11
-59.1009
 21
-50.4331
  0
LINE
  8
0
 10
-59.1009
 20
-50.4331
 11
-58.9441
 21
-50.7047
  0
LINE
  8
0
 10
-58.9441
 20
-50.7047
 11
-58.8472
 21
-51.0029
  0
LINE
  8
0
 10
-58.8472
 20
-51.0029
 11
-58.8144
 21
-51.3147
  0
LINE
  8
0
 10
-58.8144
 20
-51.3147
 11
-58.8472
 21
-51.6266
  0
LINE
  8
0
 10
-58.8472
 20
-51.6266
 11
-58.9441
 21
-51.9249
  0
LINE
  8
0
 10
-58.9441
 20
-51.9249
 11
-59.1009
 21
-52.1964
  0
LINE
  8
0
 10
-59.1009
 20
-52.1964
 11
-59.3107
 21
-52.4295
  0
LINE
  8
0
 10
-59.3107
 20
-52.4295
 11
-59.5644
 21
-52.6138
  0
LINE
  8
0
 10
-59.5644
 20
-52.6138
 11
-59.8509
 21
-52.7413
  0
LINE
  8
0
 10
-59.8509
 20
-52.7413
 11
-60.1576
 21
-52.8065
  0
LINE
  8
0
 10
-60.1576
 20
-52.8065
 11
-60.4712
 21
-52.8065
  0
LINE
  8
0
 10
-48.3469
 20
-52.8065
 11
-48.6536
 21
-52.7413
  0
LINE
  8
0
 10
-48.6536
 20
-52.7413
 11
-48.9401
 21
-52.6138
  0
LINE
  8
0
 10
-48.9401
 20
-52.6138
 11
-49.1938
 21
-52.4295
  0
LINE
  8
0
 10
-49.1938
 20
-52.4295
 11
-49.4036
 21
-52.1964
  0
LINE
  8
0
 10
-49.4036
 20
-52.1964
 11
-49.5604
 21
-51.9249
  0
LINE
  8
0
 10
-49.5604
 20
-51.9249
 11
-49.6573
 21
-51.6266
  0
LINE
  8
0
 10
-49.6573
 20
-51.6266
 11
-49.6901
 21
-51.3147
  0
LINE
  8
0
 10
-49.6901
 20
-51.3147
 11
-49.6573
 21
-51.0029
  0
LINE
  8
0
 10
-49.6573
 20
-51.0029
 11
-49.5604
 21
-50.7047
  0
LINE
  8
0
 10
-49.5604
 20
-50.7047
 11
-49.4036
 21
-50.4331
  0
LINE
  8
0
 10
-49.4036
 20
-50.4331
 11
-49.1938
 21
-50.2
  0
LINE
  8
0
 10
-49.1938
 20
-50.2
 11
-48.9401
 21
-50.0157
  0
LINE
  8
0
 10
-48.9401
 20
-50.0157
 11
-48.6536
 21
-49.8882
  0
LINE
  8
0
 10
-48.6536
 20
-49.8882
 11
-48.3469
 21
-49.823
  0
LINE
  8
0
 10
-48.3469
 20
-49.823
 11
-48.0333
 21
-49.823
  0
LINE
  8
0
 10
-48.0333
 20
-49.823
 11
-47.7265
 21
-49.8882
  0
LINE
  8
0
 10
-47.7265
 20
-49.8882
 11
-47.4401
 21
-50.0157
  0
LINE
  8
0
 10
-47.4401
 20
-50.0157
 11
-47.1864
 21
-50.2
  0
LINE
  8
0
 10
-47.1864
 20
-50.2
 11
-46.9765
 21
-50.4331
  0
LINE
  8
0
 10
-46.9765
 20
-50.4331
 11
-46.8197
 21
-50.7047
  0
LINE
  8
0
 10
-46.8197
 20
-50.7047
 11
-46.7229
 21
-51.0029
  0
LINE
  8
0
 10
-46.7229
 20
-51.0029
 11
-46.6901
 21
-51.3147
  0
LINE
  8
0
 10
-46.6901
 20
-51.3147
 11
-46.7229
 21
-51.6266
  0
LINE
  8
0
 10
-46.7229
 20
-51.6266
 11
-46.8197
 21
-51.9249
  0
LINE
  8
0
 10
-46.8197
 20
-51.9249
 11
-46.9765
 21
-52.1964
  0
LINE
  8
0
 10
-46.9765
 20
-52.1964
 11
-47.1864
 21
-52.4295
  0
LINE
  8
0
 10
-47.1864
 20
-52.4295
 11
-47.4401
 21
-52.6138
  0
LINE
  8
0
 10
-47.4401
 20
-52.6138
 11
-47.7265
 21
-52.7413
  0
LINE
  8
0
 10
-47.7265
 20
-52.7413
 11
-48.0333
 21
-52.8065
  0
LINE
  8
0
 10
-48.0333
 20
-52.8065
 11
-48.3469
 21
-52.8065
  0
LINE
  8
0
 10
-54.409
 20
-63.3065
 11
-54.7158
 21
-63.2413
  0
LINE
  8
0
 10
-54.7158
 20
-63.2413
 11
-55.0022
 21
-63.1138
  0
LINE
  8
0
 10
-55.0022
 20
-63.1138
 11
-55.2559
 21
-62.9295
  0
LINE
  8
0
 10
-55.2559
 20
-62.9295
 11
-55.4658
 21
-62.6964
  0
LINE
  8
0
 10
-55.4658
 20
-62.6964
 11
-55.6226
 21
-62.4248
  0
LINE
  8
0
 10
-55.6226
 20
-62.4248
 11
-55.7195
 21
-62.1266
  0
LINE
  8
0
 10
-55.7195
 20
-62.1266
 11
-55.7522
 21
-61.8147
  0
LINE
  8
0
 10
-55.7522
 20
-61.8147
 11
-55.7195
 21
-61.5029
  0
LINE
  8
0
 10
-55.7195
 20
-61.5029
 11
-55.6226
 21
-61.2046
  0
LINE
  8
0
 10
-55.6226
 20
-61.2046
 11
-55.4658
 21
-60.9331
  0
LINE
  8
0
 10
-55.4658
 20
-60.9331
 11
-55.2559
 21
-60.7
  0
LINE
  8
0
 10
-55.2559
 20
-60.7
 11
-55.0022
 21
-60.5157
  0
LINE
  8
0
 10
-55.0022
 20
-60.5157
 11
-54.7158
 21
-60.3882
  0
LINE
  8
0
 10
-54.7158
 20
-60.3882
 11
-54.409
 21
-60.323
  0
LINE
  8
0
 10
-54.409
 20
-60.323
 11
-54.0955
 21
-60.323
  0
LINE
  8
0
 10
-54.0955
 20
-60.323
 11
-53.7887
 21
-60.3882
  0
LINE
  8
0
 10
-53.7887
 20
-60.3882
 11
-53.5022
 21
-60.5157
  0
LINE
  8
0
 10
-53.5022
 20
-60.5157
 11
-53.2486
 21
-60.7
  0
LINE
  8
0
 10
-53.2486
 20
-60.7
 11
-53.0387
 21
-60.9331
  0
LINE
  8
0
 10
-53.0387
 20
-60.9331
 11
-52.8819
 21
-61.2046
  0
LINE
  8
0
 10
-52.8819
 20
-61.2046
 11
-52.785
 21
-61.5029
  0
LINE
  8
0
 10
-52.785
 20
-61.5029
 11
-52.7523
 21
-61.8147
  0
LINE
  8
0
 10
-52.7523
 20
-61.8147
 11
-52.785
 21
-62.1266
  0
LINE
  8
0
 10
-52.785
 20
-62.1266
 11
-52.8819
 21
-62.4248
  0
LINE
  8
0
 10
-52.8819
 20
-62.4248
 11
-53.0387
 21
-62.6964
  0
LINE
  8
0
 10
-53.0387
 20
-62.6964
 11
-53.2486
 21
-62.9295
  0
LINE
  8
0
 10
-53.2486
 20
-62.9295
 11
-53.5023
 21
-63.1138
  0
LINE
  8
0
 10
-53.5023
 20
-63.1138
 11
-53.7887
 21
-63.2413
  0
LINE
  8
0
 10
-53.7887
 20
-63.2413
 11
-54.0955
 21
-63.3065
  0
LINE
  8
0
 10
-54.0955
 20
-63.3065
 11
-54.409
 21
-63.3065
  0
LINE
  8
0
 10
54.0955
 20
-63.3065
 11
53.7887
 21
-63.2413
  0
LINE
  8
0
 10
53.7887
 20
-63.2413
 11
53.5022
 21
-63.1138
  0
LINE
  8
0
 10
53.5022
 20
-63.1138
 11
53.2486
 21
-62.9295
  0
LINE
  8
0
 10
53.2486
 20
-62.9295
 11
53.0387
 21
-62.6964
  0
LINE
  8
0
 10
53.0387
 20
-62.6964
 11
52.8819
 21
-62.4248
  0
LINE
  8
0
 10
52.8819
 20
-62.4248
 11
52.785
 21
-62.1266
  0
LINE
  8
0
 10
52.785
 20
-62.1266
 11
52.7522
 21
-61.8147
  0
LINE
  8
0
 10
52.7522
 20
-61.8147
 11
52.785
 21
-61.5029
  0
LINE
  8
0
 10
52.785
 20
-61.5029
 11
52.8819
 21
-61.2046
  0
LINE
  8
0
 10
52.8819
 20
-61.2046
 11
53.0387
 21
-60.9331
  0
LINE
  8
0
 10
53.0387
 20
-60.9331
 11
53.2486
 21
-60.7
  0
LINE
  8
0
 10
53.2486
 20
-60.7
 11
53.5022
 21
-60.5157
  0
LINE
  8
0
 10
53.5022
 20
-60.5157
 11
53.7887
 21
-60.3882
  0
LINE
  8
0
 10
53.7887
 20
-60.3882
 11
54.0955
 21
-60.323
  0
LINE
  8
0
 10
54.0955
 20
-60.323
 11
54.409
 21
-60.323
  0
LINE
  8
0
 10
54.409
 20
-60.323
 11
54.7158
 21
-60.3882
  0
LINE
  8
0
 10
54.7158
 20
-60.3882
 11
55.0022
 21
-60.5157
  0
LINE
  8
0
 10
55.0022
 20
-60.5157
 11
55.2559
 21
-60.7
  0
LINE
  8
0
 10
55.2559
 20
-60.7
 11
55.4658
 21
-60.9331
  0
LINE
  8
0
 10
55.4658
 20
-60.9331
 11
55.6226
 21
-61.2046
  0
LINE
  8
0
 10
55.6226
 20
-61.2046
 11
55.7195
 21
-61.5029
  0
LINE
  8
0
 10
55.7195
 20
-61.5029
 11
55.7522
 21
-61.8147
  0
LINE
  8
0
 10
55.7522
 20
-61.8147
 11
55.7195
 21
-62.1266
  0
LINE
  8
0
 10
55.7195
 20
-62.1266
 11
55.6226
 21
-62.4248
  0
LINE
  8
0
 10
55.6226
 20
-62.4248
 11
55.4658
 21
-62.6964
  0
LINE
  8
0
 10
55.4658
 20
-62.6964
 11
55.2559
 21
-62.9295
  0
LINE
  8
0
 10
55.2559
 20
-62.9295
 11
55.0022
 21
-63.1138
  0
LINE
  8
0
 10
55.0022
 20
-63.1138
 11
54.7158
 21
-63.2413
  0
LINE
  8
0
 10
54.7158
 20
-63.2413
 11
54.409
 21
-63.3065
  0
LINE
  8
0
 10
54.409
 20
-63.3065
 11
54.0955
 21
-63.3065
  0
LINE
  8
0
 10
-39.6568
 20
-81.8065
 11
-39.9635
 21
-81.7413
  0
LINE
  8
0
 10
-39.9635
 20
-81.7413
 11
-40.25
 21
-81.6138
  0
LINE
  8
0
 10
-40.25
 20
-81.6138
 11
-40.5037
 21
-81.4295
  0
LINE
  8
0
 10
-40.5037
 20
-81.4295
 11
-40.7135
 21
-81.1964
  0
LINE
  8
0
 10
-40.7135
 20
-81.1964
 11
-40.8703
 21
-80.9248
  0
LINE
  8
0
 10
-40.8703
 20
-80.9248
 11
-40.9672
 21
-80.6266
  0
LINE
  8
0
 10
-40.9672
 20
-80.6266
 11
-41
 21
-80.3147
  0
LINE
  8
0
 10
-41
 20
-80.3147
 11
-40.9672
 21
-80.0029
  0
LINE
  8
0
 10
-40.9672
 20
-80.0029
 11
-40.8703
 21
-79.7047
  0
LINE
  8
0
 10
-40.8703
 20
-79.7047
 11
-40.7135
 21
-79.4331
  0
LINE
  8
0
 10
-40.7135
 20
-79.4331
 11
-40.5037
 21
-79.2
  0
LINE
  8
0
 10
-40.5037
 20
-79.2
 11
-40.25
 21
-79.0157
  0
LINE
  8
0
 10
-40.25
 20
-79.0157
 11
-39.9635
 21
-78.8882
  0
LINE
  8
0
 10
-39.9635
 20
-78.8882
 11
-39.6568
 21
-78.823
  0
LINE
  8
0
 10
-39.6568
 20
-78.823
 11
-39.3432
 21
-78.823
  0
LINE
  8
0
 10
-39.3432
 20
-78.823
 11
-39.0365
 21
-78.8882
  0
LINE
  8
0
 10
-39.0365
 20
-78.8882
 11
-38.75
 21
-79.0157
  0
LINE
  8
0
 10
-38.75
 20
-79.0157
 11
-38.4963
 21
-79.2
  0
LINE
  8
0
 10
-38.4963
 20
-79.2
 11
-38.2865
 21
-79.4331
  0
LINE
  8
0
 10
-38.2865
 20
-79.4331
 11
-38.1297
 21
-79.7047
  0
LINE
  8
0
 10
-38.1297
 20
-79.7047
 11
-38.0328
 21
-80.0029
  0
LINE
  8
0
 10
-38.0328
 20
-80.0029
 11
-38
 21
-80.3147
  0
LINE
  8
0
 10
-38
 20
-80.3147
 11
-38.0328
 21
-80.6266
  0
LINE
  8
0
 10
-38.0328
 20
-80.6266
 11
-38.1297
 21
-80.9248
  0
LINE
  8
0
 10
-38.1297
 20
-80.9248
 11
-38.2865
 21
-81.1964
  0
LINE
  8
0
 10
-38.2865
 20
-81.1964
 11
-38.4963
 21
-81.4295
  0
LINE
  8
0
 10
-38.4963
 20
-81.4295
 11
-38.75
 21
-81.6138
  0
LINE
  8
0
 10
-38.75
 20
-81.6138
 11
-39.0365
 21
-81.7413
  0
LINE
  8
0
 10
-39.0365
 20
-81.7413
 11
-39.3432
 21
-81.8065
  0
LINE
  8
0
 10
-39.3432
 20
-81.8065
 11
-39.6568
 21
-81.8065
  0
LINE
  8
0
 10
39.3432
 20
-81.8065
 11
39.0365
 21
-81.7413
  0
LINE
  8
0
 10
39.0365
 20
-81.7413
 11
38.75
 21
-81.6138
  0
LINE
  8
0
 10
38.75
 20
-81.6138
 11
38.4963
 21
-81.4295
  0
LINE
  8
0
 10
38.4963
 20
-81.4295
 11
38.2865
 21
-81.1964
  0
LINE
  8
0
 10
38.2865
 20
-81.1964
 11
38.1297
 21
-80.9248
  0
LINE
  8
0
 10
38.1297
 20
-80.9248
 11
38.0328
 21
-80.6266
  0
LINE
  8
0
 10
38.0328
 20
-80.6266
 11
38
 21
-80.3147
  0
LINE
  8
0
 10
38
 20
-80.3147
 11
38.0328
 21
-80.0029
  0
LINE
  8
0
 10
38.0328
 20
-80.0029
 11
38.1297
 21
-79.7047
  0
LINE
  8
0
 10
38.1297
 20
-79.7047
 11
38.2865
 21
-79.4331
  0
LINE
  8
0
 10
38.2865
 20
-79.4331
 11
38.4963
 21
-79.2
  0
LINE
  8
0
 10
38.4963
 20
-79.2
 11
38.75
 21
-79.0157
  0
LINE
  8
0
 10
38.75
 20
-79.0157
 11
39.0365
 21
-78.8882
  0
LINE
  8
0
 10
39.0365
 20
-78.8882
 11
39.3432
 21
-78.823
  0
LINE
  8
0
 10
39.3432
 20
-78.823
 11
39.6568
 21
-78.823
  0
LINE
  8
0
 10
39.6568
 20
-78.823
 11
39.9635
 21
-78.8882
  0
LINE
  8
0
 10
39.9635
 20
-78.8882
 11
40.25
 21
-79.0157
  0
LINE
  8
0
 10
40.25
 20
-79.0157
 11
40.5037
 21
-79.2
  0
LINE
  8
0
 10
40.5037
 20
-79.2
 11
40.7135
 21
-79.4331
  0
LINE
  8
0
 10
40.7135
 20
-79.4331
 11
40.8703
 21
-79.7047
  0
LINE
  8
0
 10
40.8703
 20
-79.7047
 11
40.9672
 21
-80.0029
  0
LINE
  8
0
 10
40.9672
 20
-80.0029
 11
41
 21
-80.3147
  0
LINE
  8
0
 10
41
 20
-80.3147
 11
40.9672
 21
-80.6266
  0
LINE
  8
0
 10
40.9672
 20
-80.6266
 11
40.8703
 21
-80.9248
  0
LINE
  8
0
 10
40.8703
 20
-80.9248
 11
40.7135
 21
-81.1964
  0
LINE
  8
0
 10
40.7135
 20
-81.1964
 11
40.5037
 21
-81.4295
  0
LINE
  8
0
 10
40.5037
 20
-81.4295
 11
40.25
 21
-81.6138
  0
LINE
  8
0
 10
40.25
 20
-81.6138
 11
39.9635
 21
-81.7413
  0
LINE
  8
0
 10
39.9635
 20
-81.7413
 11
39.6568
 21
-81.8065
  0
LINE
  8
0
 10
39.6568
 20
-81.8065
 11
39.3432
 21
-81.8065
  0
ENDSEC
  0
SECTION
  2
OBJECTS
  0
DICTIONARY
  0
ENDSEC
  0
EOF
