  0
SECTION
  2
BLOCKS
  0
ENDSEC
  0
SECTION
  2
ENTITIES
  0
LINE
  8
0
 10
0.690689
 20
-10.9783
 11
1.14981
 21
-10.9397
  0
LINE
  8
0
 10
1.14981
 20
-10.9397
 11
1.6069
 21
-10.882
  0
LINE
  8
0
 10
1.6069
 20
-10.882
 11
2.06119
 21
-10.8051
  0
LINE
  8
0
 10
2.06119
 20
-10.8051
 11
2.51186
 21
-10.7094
  0
LINE
  8
0
 10
2.51186
 20
-10.7094
 11
2.95811
 21
-10.5948
  0
LINE
  8
0
 10
2.95811
 20
-10.5948
 11
3.39919
 21
-10.4616
  0
LINE
  8
0
 10
3.39919
 20
-10.4616
 11
3.83429
 21
-10.3101
  0
LINE
  8
0
 10
3.83429
 20
-10.3101
 11
4.26266
 21
-10.1405
  0
LINE
  8
0
 10
4.26266
 20
-10.1405
 11
4.68356
 21
-9.95309
  0
LINE
  8
0
 10
4.68356
 20
-9.95309
 11
5.09625
 21
-9.74823
  0
LINE
  8
0
 10
5.09625
 20
-9.74823
 11
5.49998
 21
-9.52628
  0
LINE
  8
0
 10
5.49998
 20
-9.52628
 11
5.89409
 21
-9.2876
  0
LINE
  8
0
 10
5.89409
 20
-9.2876
 11
6.27785
 21
-9.03264
  0
LINE
  8
0
 10
6.27785
 20
-9.03264
 11
6.65059
 21
-8.76183
  0
LINE
  8
0
 10
6.65059
 20
-8.76183
 11
7.01166
 21
-8.47563
  0
LINE
  8
0
 10
7.01166
 20
-8.47563
 11
7.36043
 21
-8.17459
  0
LINE
  8
0
 10
7.36043
 20
-8.17459
 11
7.69629
 21
-7.85919
  0
LINE
  8
0
 10
7.69629
 20
-7.85919
 11
8.01865
 21
-7.53001
  0
LINE
  8
0
 10
8.01865
 20
-7.53001
 11
8.32693
 21
-7.18762
  0
LINE
  8
0
 10
8.32693
 20
-7.18762
 11
8.62062
 21
-6.83261
  0
LINE
  8
0
 10
8.62062
 20
-6.83261
 11
8.89919
 21
-6.46564
  0
LINE
  8
0
 10
8.89919
 20
-6.46564
 11
9.16212
 21
-6.0873
  0
LINE
  8
0
 10
9.16212
 20
-6.0873
 11
9.409
 21
-5.69829
  0
LINE
  8
0
 10
9.409
 20
-5.69829
 11
9.63936
 21
-5.29929
  0
LINE
  8
0
 10
9.63936
 20
-5.29929
 11
9.85283
 21
-4.89098
  0
LINE
  8
0
 10
9.85283
 20
-4.89098
 11
10.049
 21
-4.47409
  0
LINE
  8
0
 10
10.049
 20
-4.47409
 11
10.2275
 21
-4.04936
  0
LINE
  8
0
 10
10.2275
 20
-4.04936
 11
10.3881
 21
-3.61752
  0
LINE
  8
0
 10
10.3881
 20
-3.61752
 11
10.5305
 21
-3.17934
  0
LINE
  8
0
 10
10.5305
 20
-3.17934
 11
10.6544
 21
-2.73558
  0
LINE
  8
0
 10
10.6544
 20
-2.73558
 11
10.7596
 21
-2.28702
  0
LINE
  8
0
 10
10.7596
 20
-2.28702
 11
10.8459
 21
-1.83444
  0
LINE
  8
0
 10
10.8459
 20
-1.83444
 11
10.9133
 21
-1.37866
  0
LINE
  8
0
 10
10.9133
 20
-1.37866
 11
10.9614
 21
-0.920456
  0
LINE
  8
0
 10
10.9614
 20
-0.920456
 11
10.9903
 21
-0.460617
  0
LINE
  8
0
 10
10.9903
 20
-0.460617
 11
11
 21
0
  0
LINE
  8
0
 10
11
 20
0
 11
10.9903
 21
0.460617
  0
LINE
  8
0
 10
10.9903
 20
0.460617
 11
10.9614
 21
0.920456
  0
LINE
  8
0
 10
10.9614
 20
0.920456
 11
10.9133
 21
1.37866
  0
LINE
  8
0
 10
10.9133
 20
1.37866
 11
10.8459
 21
1.83444
  0
LINE
  8
0
 10
10.8459
 20
1.83444
 11
10.7596
 21
2.28702
  0
LINE
  8
0
 10
10.7596
 20
2.28702
 11
10.6544
 21
2.73558
  0
LINE
  8
0
 10
10.6544
 20
2.73558
 11
10.5305
 21
3.17934
  0
LINE
  8
0
 10
10.5305
 20
3.17934
 11
10.3881
 21
3.61752
  0
LINE
  8
0
 10
10.3881
 20
3.61752
 11
10.2275
 21
4.04936
  0
LINE
  8
0
 10
10.2275
 20
4.04936
 11
10.049
 21
4.47409
  0
LINE
  8
0
 10
10.049
 20
4.47409
 11
9.85283
 21
4.89098
  0
LINE
  8
0
 10
9.85283
 20
4.89098
 11
9.63936
 21
5.29929
  0
LINE
  8
0
 10
9.63936
 20
5.29929
 11
9.409
 21
5.69829
  0
LINE
  8
0
 10
9.409
 20
5.69829
 11
9.16212
 21
6.0873
  0
LINE
  8
0
 10
9.16212
 20
6.0873
 11
8.89919
 21
6.46564
  0
LINE
  8
0
 10
8.89919
 20
6.46564
 11
8.62062
 21
6.83261
  0
LINE
  8
0
 10
8.62062
 20
6.83261
 11
8.32693
 21
7.18762
  0
LINE
  8
0
 10
8.32693
 20
7.18762
 11
8.01865
 21
7.53001
  0
LINE
  8
0
 10
8.01865
 20
7.53001
 11
7.69629
 21
7.85919
  0
LINE
  8
0
 10
7.69629
 20
7.85919
 11
7.36043
 21
8.17459
  0
LINE
  8
0
 10
7.36043
 20
8.17459
 11
7.01166
 21
8.47563
  0
LINE
  8
0
 10
7.01166
 20
8.47563
 11
6.65059
 21
8.76183
  0
LINE
  8
0
 10
6.65059
 20
8.76183
 11
6.27785
 21
9.03264
  0
LINE
  8
0
 10
6.27785
 20
9.03264
 11
5.89409
 21
9.2876
  0
LINE
  8
0
 10
5.89409
 20
9.2876
 11
5.49998
 21
9.52628
  0
LINE
  8
0
 10
5.49998
 20
9.52628
 11
5.09625
 21
9.74823
  0
LINE
  8
0
 10
5.09625
 20
9.74823
 11
4.68356
 21
9.95309
  0
LINE
  8
0
 10
4.68356
 20
9.95309
 11
4.26266
 21
10.1405
  0
LINE
  8
0
 10
4.26266
 20
10.1405
 11
3.83429
 21
10.3101
  0
LINE
  8
0
 10
3.83429
 20
10.3101
 11
3.39919
 21
10.4616
  0
LINE
  8
0
 10
3.39919
 20
10.4616
 11
2.95811
 21
10.5948
  0
LINE
  8
0
 10
2.95811
 20
10.5948
 11
2.51186
 21
10.7094
  0
LINE
  8
0
 10
2.51186
 20
10.7094
 11
2.06119
 21
10.8051
  0
LINE
  8
0
 10
2.06119
 20
10.8051
 11
1.6069
 21
10.882
  0
LINE
  8
0
 10
1.6069
 20
10.882
 11
1.14981
 21
10.9397
  0
LINE
  8
0
 10
1.14981
 20
10.9397
 11
0.690689
 21
10.9783
  0
LINE
  8
0
 10
0.690689
 20
10.9783
 11
0.230362
 21
10.9976
  0
LINE
  8
0
 10
0.230362
 20
10.9976
 11
-0.230362
 21
10.9976
  0
LINE
  8
0
 10
-0.230362
 20
10.9976
 11
-0.690689
 21
10.9783
  0
LINE
  8
0
 10
-0.690689
 20
10.9783
 11
-1.14981
 21
10.9397
  0
LINE
  8
0
 10
-1.14981
 20
10.9397
 11
-1.6069
 21
10.882
  0
LINE
  8
0
 10
-1.6069
 20
10.882
 11
-2.06119
 21
10.8051
  0
LINE
  8
0
 10
-2.06119
 20
10.8051
 11
-2.51186
 21
10.7094
  0
LINE
  8
0
 10
-2.51186
 20
10.7094
 11
-2.95811
 21
10.5948
  0
LINE
  8
0
 10
-2.95811
 20
10.5948
 11
-3.39919
 21
10.4616
  0
LINE
  8
0
 10
-3.39919
 20
10.4616
 11
-3.83429
 21
10.3101
  0
LINE
  8
0
 10
-3.83429
 20
10.3101
 11
-4.26266
 21
10.1405
  0
LINE
  8
0
 10
-4.26266
 20
10.1405
 11
-4.68356
 21
9.95309
  0
LINE
  8
0
 10
-4.68356
 20
9.95309
 11
-5.09625
 21
9.74823
  0
LINE
  8
0
 10
-5.09625
 20
9.74823
 11
-5.5
 21
9.52628
  0
LINE
  8
0
 10
-5.5
 20
9.52628
 11
-5.89409
 21
9.2876
  0
LINE
  8
0
 10
-5.89409
 20
9.2876
 11
-6.27785
 21
9.03264
  0
LINE
  8
0
 10
-6.27785
 20
9.03264
 11
-6.65059
 21
8.76183
  0
LINE
  8
0
 10
-6.65059
 20
8.76183
 11
-7.01166
 21
8.47563
  0
LINE
  8
0
 10
-7.01166
 20
8.47563
 11
-7.36043
 21
8.17459
  0
LINE
  8
0
 10
-7.36043
 20
8.17459
 11
-7.69629
 21
7.85919
  0
LINE
  8
0
 10
-7.69629
 20
7.85919
 11
-8.01865
 21
7.53001
  0
LINE
  8
0
 10
-8.01865
 20
7.53001
 11
-8.32693
 21
7.18762
  0
LINE
  8
0
 10
-8.32693
 20
7.18762
 11
-8.62062
 21
6.83261
  0
LINE
  8
0
 10
-8.62062
 20
6.83261
 11
-8.89919
 21
6.46564
  0
LINE
  8
0
 10
-8.89919
 20
6.46564
 11
-9.16212
 21
6.0873
  0
LINE
  8
0
 10
-9.16212
 20
6.0873
 11
-9.409
 21
5.69829
  0
LINE
  8
0
 10
-9.409
 20
5.69829
 11
-9.63936
 21
5.29929
  0
LINE
  8
0
 10
-9.63936
 20
5.29929
 11
-9.85283
 21
4.89098
  0
LINE
  8
0
 10
-9.85283
 20
4.89098
 11
-10.049
 21
4.47409
  0
LINE
  8
0
 10
-10.049
 20
4.47409
 11
-10.2275
 21
4.04936
  0
LINE
  8
0
 10
-10.2275
 20
4.04936
 11
-10.3881
 21
3.61752
  0
LINE
  8
0
 10
-10.3881
 20
3.61752
 11
-10.5305
 21
3.17934
  0
LINE
  8
0
 10
-10.5305
 20
3.17934
 11
-10.6544
 21
2.73558
  0
LINE
  8
0
 10
-10.6544
 20
2.73558
 11
-10.7596
 21
2.28702
  0
LINE
  8
0
 10
-10.7596
 20
2.28702
 11
-10.8459
 21
1.83444
  0
LINE
  8
0
 10
-10.8459
 20
1.83444
 11
-10.9133
 21
1.37866
  0
LINE
  8
0
 10
-10.9133
 20
1.37866
 11
-10.9614
 21
0.920456
  0
LINE
  8
0
 10
-10.9614
 20
0.920456
 11
-10.9903
 21
0.460617
  0
LINE
  8
0
 10
-10.9903
 20
0.460617
 11
-11
 21
0
  0
LINE
  8
0
 10
-11
 20
0
 11
-10.9903
 21
-0.460617
  0
LINE
  8
0
 10
-10.9903
 20
-0.460617
 11
-10.9614
 21
-0.920456
  0
LINE
  8
0
 10
-10.9614
 20
-0.920456
 11
-10.9133
 21
-1.37866
  0
LINE
  8
0
 10
-10.9133
 20
-1.37866
 11
-10.8459
 21
-1.83444
  0
LINE
  8
0
 10
-10.8459
 20
-1.83444
 11
-10.7596
 21
-2.28702
  0
LINE
  8
0
 10
-10.7596
 20
-2.28702
 11
-10.6544
 21
-2.73558
  0
LINE
  8
0
 10
-10.6544
 20
-2.73558
 11
-10.5305
 21
-3.17934
  0
LINE
  8
0
 10
-10.5305
 20
-3.17934
 11
-10.3881
 21
-3.61752
  0
LINE
  8
0
 10
-10.3881
 20
-3.61752
 11
-10.2275
 21
-4.04936
  0
LINE
  8
0
 10
-10.2275
 20
-4.04936
 11
-10.049
 21
-4.47409
  0
LINE
  8
0
 10
-10.049
 20
-4.47409
 11
-9.85283
 21
-4.89098
  0
LINE
  8
0
 10
-9.85283
 20
-4.89098
 11
-9.63936
 21
-5.29929
  0
LINE
  8
0
 10
-9.63936
 20
-5.29929
 11
-9.409
 21
-5.69829
  0
LINE
  8
0
 10
-9.409
 20
-5.69829
 11
-9.16212
 21
-6.0873
  0
LINE
  8
0
 10
-9.16212
 20
-6.0873
 11
-8.89919
 21
-6.46564
  0
LINE
  8
0
 10
-8.89919
 20
-6.46564
 11
-8.62062
 21
-6.83261
  0
LINE
  8
0
 10
-8.62062
 20
-6.83261
 11
-8.32693
 21
-7.18762
  0
LINE
  8
0
 10
-8.32693
 20
-7.18762
 11
-8.01865
 21
-7.53001
  0
LINE
  8
0
 10
-8.01865
 20
-7.53001
 11
-7.69629
 21
-7.85919
  0
LINE
  8
0
 10
-7.69629
 20
-7.85919
 11
-7.36043
 21
-8.17459
  0
LINE
  8
0
 10
-7.36043
 20
-8.17459
 11
-7.01166
 21
-8.47563
  0
LINE
  8
0
 10
-7.01166
 20
-8.47563
 11
-6.65059
 21
-8.76183
  0
LINE
  8
0
 10
-6.65059
 20
-8.76183
 11
-6.27785
 21
-9.03264
  0
LINE
  8
0
 10
-6.27785
 20
-9.03264
 11
-5.89409
 21
-9.2876
  0
LINE
  8
0
 10
-5.89409
 20
-9.2876
 11
-5.49998
 21
-9.52628
  0
LINE
  8
0
 10
-5.49998
 20
-9.52628
 11
-5.09625
 21
-9.74823
  0
LINE
  8
0
 10
-5.09625
 20
-9.74823
 11
-4.68356
 21
-9.95309
  0
LINE
  8
0
 10
-4.68356
 20
-9.95309
 11
-4.26266
 21
-10.1405
  0
LINE
  8
0
 10
-4.26266
 20
-10.1405
 11
-3.83429
 21
-10.3101
  0
LINE
  8
0
 10
-3.83429
 20
-10.3101
 11
-3.39919
 21
-10.4616
  0
LINE
  8
0
 10
-3.39919
 20
-10.4616
 11
-2.95811
 21
-10.5948
  0
LINE
  8
0
 10
-2.95811
 20
-10.5948
 11
-2.51186
 21
-10.7094
  0
LINE
  8
0
 10
-2.51186
 20
-10.7094
 11
-2.06119
 21
-10.8051
  0
LINE
  8
0
 10
-2.06119
 20
-10.8051
 11
-1.6069
 21
-10.882
  0
LINE
  8
0
 10
-1.6069
 20
-10.882
 11
-1.14981
 21
-10.9397
  0
LINE
  8
0
 10
-1.14981
 20
-10.9397
 11
-0.690689
 21
-10.9783
  0
LINE
  8
0
 10
-0.690689
 20
-10.9783
 11
-0.230362
 21
-10.9976
  0
LINE
  8
0
 10
-0.230362
 20
-10.9976
 11
0.230362
 21
-10.9976
  0
LINE
  8
0
 10
0.230362
 20
-10.9976
 11
0.690689
 21
-10.9783
  0
LINE
  8
0
 10
-0.207901
 20
7.02185
 11
-0.406723
 21
7.08644
  0
LINE
  8
0
 10
-0.406723
 20
7.08644
 11
-0.587784
 21
7.19098
  0
LINE
  8
0
 10
-0.587784
 20
7.19098
 11
-0.743134
 21
7.33086
  0
LINE
  8
0
 10
-0.743134
 20
7.33086
 11
-0.866013
 21
7.5
  0
LINE
  8
0
 10
-0.866013
 20
7.5
 11
-0.95105
 21
7.69098
  0
LINE
  8
0
 10
-0.95105
 20
7.69098
 11
-0.994507
 21
7.89546
  0
LINE
  8
0
 10
-0.994507
 20
7.89546
 11
-0.994507
 21
8.10452
  0
LINE
  8
0
 10
-0.994507
 20
8.10452
 11
-0.95105
 21
8.30901
  0
LINE
  8
0
 10
-0.95105
 20
8.30901
 11
-0.866013
 21
8.5
  0
LINE
  8
0
 10
-0.866013
 20
8.5
 11
-0.743134
 21
8.66913
  0
LINE
  8
0
 10
-0.743134
 20
8.66913
 11
-0.587784
 21
8.80901
  0
LINE
  8
0
 10
-0.587784
 20
8.80901
 11
-0.406723
 21
8.91354
  0
LINE
  8
0
 10
-0.406723
 20
8.91354
 11
-0.207901
 21
8.97813
  0
LINE
  8
0
 10
-0.207901
 20
8.97813
 11
0
 21
9
  0
LINE
  8
0
 10
0
 20
9
 11
0.207901
 21
8.97813
  0
LINE
  8
0
 10
0.207901
 20
8.97813
 11
0.406723
 21
8.91354
  0
LINE
  8
0
 10
0.406723
 20
8.91354
 11
0.587784
 21
8.80901
  0
LINE
  8
0
 10
0.587784
 20
8.80901
 11
0.743134
 21
8.66913
  0
LINE
  8
0
 10
0.743134
 20
8.66913
 11
0.866013
 21
8.5
  0
LINE
  8
0
 10
0.866013
 20
8.5
 11
0.95105
 21
8.30901
  0
LINE
  8
0
 10
0.95105
 20
8.30901
 11
0.994507
 21
8.10452
  0
LINE
  8
0
 10
0.994507
 20
8.10452
 11
0.994507
 21
7.89546
  0
LINE
  8
0
 10
0.994507
 20
7.89546
 11
0.95105
 21
7.69098
  0
LINE
  8
0
 10
0.95105
 20
7.69098
 11
0.866013
 21
7.5
  0
LINE
  8
0
 10
0.866013
 20
7.5
 11
0.743134
 21
7.33086
  0
LINE
  8
0
 10
0.743134
 20
7.33086
 11
0.587784
 21
7.19098
  0
LINE
  8
0
 10
0.587784
 20
7.19098
 11
0.406723
 21
7.08644
  0
LINE
  8
0
 10
0.406723
 20
7.08644
 11
0.207901
 21
7.02185
  0
LINE
  8
0
 10
0.207901
 20
7.02185
 11
0
 21
7
  0
LINE
  8
0
 10
0
 20
7
 11
-0.207901
 21
7.02185
  0
LINE
  8
0
 10
-0.313583
 20
-2.98355
 11
-0.927048
 21
-2.85316
  0
LINE
  8
0
 10
-0.927048
 20
-2.85316
 11
-1.5
 21
-2.59807
  0
LINE
  8
0
 10
-1.5
 20
-2.59807
 11
-2.00739
 21
-2.22943
  0
LINE
  8
0
 10
-2.00739
 20
-2.22943
 11
-2.42705
 21
-1.76335
  0
LINE
  8
0
 10
-2.42705
 20
-1.76335
 11
-2.74063
 21
-1.2202
  0
LINE
  8
0
 10
-2.74063
 20
-1.2202
 11
-2.93443
 21
-0.623734
  0
LINE
  8
0
 10
-2.93443
 20
-0.623734
 11
-3
 21
0
  0
LINE
  8
0
 10
-3
 20
0
 11
-2.93443
 21
0.623734
  0
LINE
  8
0
 10
-2.93443
 20
0.623734
 11
-2.74063
 21
1.2202
  0
LINE
  8
0
 10
-2.74063
 20
1.2202
 11
-2.42705
 21
1.76335
  0
LINE
  8
0
 10
-2.42705
 20
1.76335
 11
-2.00739
 21
2.22943
  0
LINE
  8
0
 10
-2.00739
 20
2.22943
 11
-1.49998
 21
2.59807
  0
LINE
  8
0
 10
-1.49998
 20
2.59807
 11
-0.927048
 21
2.85316
  0
LINE
  8
0
 10
-0.927048
 20
2.85316
 11
-0.313583
 21
2.98355
  0
LINE
  8
0
 10
-0.313583
 20
2.98355
 11
0.313583
 21
2.98355
  0
LINE
  8
0
 10
0.313583
 20
2.98355
 11
0.927048
 21
2.85316
  0
LINE
  8
0
 10
0.927048
 20
2.85316
 11
1.5
 21
2.59807
  0
LINE
  8
0
 10
1.5
 20
2.59807
 11
2.00739
 21
2.22943
  0
LINE
  8
0
 10
2.00739
 20
2.22943
 11
2.42705
 21
1.76335
  0
LINE
  8
0
 10
2.42705
 20
1.76335
 11
2.74063
 21
1.2202
  0
LINE
  8
0
 10
2.74063
 20
1.2202
 11
2.93443
 21
0.623734
  0
LINE
  8
0
 10
2.93443
 20
0.623734
 11
3
 21
0
  0
LINE
  8
0
 10
3
 20
0
 11
2.93443
 21
-0.623734
  0
LINE
  8
0
 10
2.93443
 20
-0.623734
 11
2.74063
 21
-1.2202
  0
LINE
  8
0
 10
2.74063
 20
-1.2202
 11
2.42705
 21
-1.76335
  0
LINE
  8
0
 10
2.42705
 20
-1.76335
 11
2.00739
 21
-2.22943
  0
LINE
  8
0
 10
2.00739
 20
-2.22943
 11
1.5
 21
-2.59807
  0
LINE
  8
0
 10
1.5
 20
-2.59807
 11
0.927048
 21
-2.85316
  0
LINE
  8
0
 10
0.927048
 20
-2.85316
 11
0.313583
 21
-2.98355
  0
LINE
  8
0
 10
0.313583
 20
-2.98355
 11
-0.313583
 21
-2.98355
  0
LINE
  8
0
 10
7.89546
 20
-0.994507
 11
7.69098
 21
-0.95105
  0
LINE
  8
0
 10
7.69098
 20
-0.95105
 11
7.5
 21
-0.866013
  0
LINE
  8
0
 10
7.5
 20
-0.866013
 11
7.33086
 21
-0.743134
  0
LINE
  8
0
 10
7.33086
 20
-0.743134
 11
7.19098
 21
-0.587784
  0
LINE
  8
0
 10
7.19098
 20
-0.587784
 11
7.08644
 21
-0.406723
  0
LINE
  8
0
 10
7.08644
 20
-0.406723
 11
7.02185
 21
-0.207901
  0
LINE
  8
0
 10
7.02185
 20
-0.207901
 11
7
 21
0
  0
LINE
  8
0
 10
7
 20
0
 11
7.02185
 21
0.207901
  0
LINE
  8
0
 10
7.02185
 20
0.207901
 11
7.08644
 21
0.406723
  0
LINE
  8
0
 10
7.08644
 20
0.406723
 11
7.19098
 21
0.587784
  0
LINE
  8
0
 10
7.19098
 20
0.587784
 11
7.33086
 21
0.743134
  0
LINE
  8
0
 10
7.33086
 20
0.743134
 11
7.5
 21
0.866013
  0
LINE
  8
0
 10
7.5
 20
0.866013
 11
7.69098
 21
0.95105
  0
LINE
  8
0
 10
7.69098
 20
0.95105
 11
7.89546
 21
0.994507
  0
LINE
  8
0
 10
7.89546
 20
0.994507
 11
8.10452
 21
0.994507
  0
LINE
  8
0
 10
8.10452
 20
0.994507
 11
8.30901
 21
0.95105
  0
LINE
  8
0
 10
8.30901
 20
0.95105
 11
8.5
 21
0.866013
  0
LINE
  8
0
 10
8.5
 20
0.866013
 11
8.66913
 21
0.743134
  0
LINE
  8
0
 10
8.66913
 20
0.743134
 11
8.80901
 21
0.587784
  0
LINE
  8
0
 10
8.80901
 20
0.587784
 11
8.91354
 21
0.406723
  0
LINE
  8
0
 10
8.91354
 20
0.406723
 11
8.97813
 21
0.207901
  0
LINE
  8
0
 10
8.97813
 20
0.207901
 11
9
 21
0
  0
LINE
  8
0
 10
9
 20
0
 11
8.97813
 21
-0.207901
  0
LINE
  8
0
 10
8.97813
 20
-0.207901
 11
8.91354
 21
-0.406723
  0
LINE
  8
0
 10
8.91354
 20
-0.406723
 11
8.80901
 21
-0.587784
  0
LINE
  8
0
 10
8.80901
 20
-0.587784
 11
8.66913
 21
-0.743134
  0
LINE
  8
0
 10
8.66913
 20
-0.743134
 11
8.5
 21
-0.866013
  0
LINE
  8
0
 10
8.5
 20
-0.866013
 11
8.30901
 21
-0.95105
  0
LINE
  8
0
 10
8.30901
 20
-0.95105
 11
8.10452
 21
-0.994507
  0
LINE
  8
0
 10
8.10452
 20
-0.994507
 11
7.89546
 21
-0.994507
  0
LINE
  8
0
 10
-8.10452
 20
-0.994507
 11
-8.30901
 21
-0.95105
  0
LINE
  8
0
 10
-8.30901
 20
-0.95105
 11
-8.5
 21
-0.866013
  0
LINE
  8
0
 10
-8.5
 20
-0.866013
 11
-8.66913
 21
-0.743134
  0
LINE
  8
0
 10
-8.66913
 20
-0.743134
 11
-8.80901
 21
-0.587784
  0
LINE
  8
0
 10
-8.80901
 20
-0.587784
 11
-8.91354
 21
-0.406723
  0
LINE
  8
0
 10
-8.91354
 20
-0.406723
 11
-8.97813
 21
-0.207901
  0
LINE
  8
0
 10
-8.97813
 20
-0.207901
 11
-9
 21
0
  0
LINE
  8
0
 10
-9
 20
0
 11
-8.97813
 21
0.207901
  0
LINE
  8
0
 10
-8.97813
 20
0.207901
 11
-8.91354
 21
0.406723
  0
LINE
  8
0
 10
-8.91354
 20
0.406723
 11
-8.80901
 21
0.587784
  0
LINE
  8
0
 10
-8.80901
 20
0.587784
 11
-8.66913
 21
0.743134
  0
LINE
  8
0
 10
-8.66913
 20
0.743134
 11
-8.5
 21
0.866013
  0
LINE
  8
0
 10
-8.5
 20
0.866013
 11
-8.30901
 21
0.95105
  0
LINE
  8
0
 10
-8.30901
 20
0.95105
 11
-8.10452
 21
0.994507
  0
LINE
  8
0
 10
-8.10452
 20
0.994507
 11
-7.89546
 21
0.994507
  0
LINE
  8
0
 10
-7.89546
 20
0.994507
 11
-7.69098
 21
0.95105
  0
LINE
  8
0
 10
-7.69098
 20
0.95105
 11
-7.5
 21
0.866013
  0
LINE
  8
0
 10
-7.5
 20
0.866013
 11
-7.33086
 21
0.743134
  0
LINE
  8
0
 10
-7.33086
 20
0.743134
 11
-7.19098
 21
0.587784
  0
LINE
  8
0
 10
-7.19098
 20
0.587784
 11
-7.08644
 21
0.406723
  0
LINE
  8
0
 10
-7.08644
 20
0.406723
 11
-7.02185
 21
0.207901
  0
LINE
  8
0
 10
-7.02185
 20
0.207901
 11
-7
 21
0
  0
LINE
  8
0
 10
-7
 20
0
 11
-7.02185
 21
-0.207901
  0
LINE
  8
0
 10
-7.02185
 20
-0.207901
 11
-7.08644
 21
-0.406723
  0
LINE
  8
0
 10
-7.08644
 20
-0.406723
 11
-7.19098
 21
-0.587784
  0
LINE
  8
0
 10
-7.19098
 20
-0.587784
 11
-7.33086
 21
-0.743134
  0
LINE
  8
0
 10
-7.33086
 20
-0.743134
 11
-7.5
 21
-0.866013
  0
LINE
  8
0
 10
-7.5
 20
-0.866013
 11
-7.69098
 21
-0.95105
  0
LINE
  8
0
 10
-7.69098
 20
-0.95105
 11
-7.89546
 21
-0.994507
  0
LINE
  8
0
 10
-7.89546
 20
-0.994507
 11
-8.10452
 21
-0.994507
  0
LINE
  8
0
 10
-0.207901
 20
-8.97813
 11
-0.406723
 21
-8.91354
  0
LINE
  8
0
 10
-0.406723
 20
-8.91354
 11
-0.587784
 21
-8.80901
  0
LINE
  8
0
 10
-0.587784
 20
-8.80901
 11
-0.743134
 21
-8.66913
  0
LINE
  8
0
 10
-0.743134
 20
-8.66913
 11
-0.866013
 21
-8.5
  0
LINE
  8
0
 10
-0.866013
 20
-8.5
 11
-0.95105
 21
-8.30901
  0
LINE
  8
0
 10
-0.95105
 20
-8.30901
 11
-0.994507
 21
-8.10452
  0
LINE
  8
0
 10
-0.994507
 20
-8.10452
 11
-0.994507
 21
-7.89546
  0
LINE
  8
0
 10
-0.994507
 20
-7.89546
 11
-0.95105
 21
-7.69098
  0
LINE
  8
0
 10
-0.95105
 20
-7.69098
 11
-0.866013
 21
-7.5
  0
LINE
  8
0
 10
-0.866013
 20
-7.5
 11
-0.743134
 21
-7.33086
  0
LINE
  8
0
 10
-0.743134
 20
-7.33086
 11
-0.587784
 21
-7.19098
  0
LINE
  8
0
 10
-0.587784
 20
-7.19098
 11
-0.406723
 21
-7.08644
  0
LINE
  8
0
 10
-0.406723
 20
-7.08644
 11
-0.207901
 21
-7.02185
  0
LINE
  8
0
 10
-0.207901
 20
-7.02185
 11
0
 21
-7
  0
LINE
  8
0
 10
0
 20
-7
 11
0.207901
 21
-7.02185
  0
LINE
  8
0
 10
0.207901
 20
-7.02185
 11
0.406723
 21
-7.08644
  0
LINE
  8
0
 10
0.406723
 20
-7.08644
 11
0.587784
 21
-7.19098
  0
LINE
  8
0
 10
0.587784
 20
-7.19098
 11
0.743134
 21
-7.33086
  0
LINE
  8
0
 10
0.743134
 20
-7.33086
 11
0.866013
 21
-7.5
  0
LINE
  8
0
 10
0.866013
 20
-7.5
 11
0.95105
 21
-7.69098
  0
LINE
  8
0
 10
0.95105
 20
-7.69098
 11
0.994507
 21
-7.89546
  0
LINE
  8
0
 10
0.994507
 20
-7.89546
 11
0.994507
 21
-8.10452
  0
LINE
  8
0
 10
0.994507
 20
-8.10452
 11
0.95105
 21
-8.30901
  0
LINE
  8
0
 10
0.95105
 20
-8.30901
 11
0.866013
 21
-8.5
  0
LINE
  8
0
 10
0.866013
 20
-8.5
 11
0.743134
 21
-8.66913
  0
LINE
  8
0
 10
0.743134
 20
-8.66913
 11
0.587784
 21
-8.80901
  0
LINE
  8
0
 10
0.587784
 20
-8.80901
 11
0.406723
 21
-8.91354
  0
LINE
  8
0
 10
0.406723
 20
-8.91354
 11
0.207901
 21
-8.97813
  0
LINE
  8
0
 10
0.207901
 20
-8.97813
 11
0
 21
-9
  0
LINE
  8
0
 10
0
 20
-9
 11
-0.207901
 21
-8.97813
  0
ENDSEC
  0
SECTION
  2
OBJECTS
  0
DICTIONARY
  0
ENDSEC
  0
EOF
