  0
SECTION
  2
BLOCKS
  0
ENDSEC
  0
SECTION
  2
ENTITIES
  0
LINE
  8
0
 10
38.7512
 20
-34.9921
 11
38.9181
 21
-34.9781
  0
LINE
  8
0
 10
38.9181
 20
-34.9781
 11
39.0843
 21
-34.9571
  0
LINE
  8
0
 10
39.0843
 20
-34.9571
 11
39.2495
 21
-34.9291
  0
LINE
  8
0
 10
39.2495
 20
-34.9291
 11
39.4134
 21
-34.8943
  0
LINE
  8
0
 10
39.4134
 20
-34.8943
 11
39.5757
 21
-34.8526
  0
LINE
  8
0
 10
39.5757
 20
-34.8526
 11
39.7361
 21
-34.8042
  0
LINE
  8
0
 10
39.7361
 20
-34.8042
 11
39.8943
 21
-34.7491
  0
LINE
  8
0
 10
39.8943
 20
-34.7491
 11
40.05
 21
-34.6874
  0
LINE
  8
0
 10
40.05
 20
-34.6874
 11
40.2031
 21
-34.6193
  0
LINE
  8
0
 10
40.2031
 20
-34.6193
 11
40.3532
 21
-34.5448
  0
LINE
  8
0
 10
40.3532
 20
-34.5448
 11
40.5
 21
-34.4641
  0
LINE
  8
0
 10
40.5
 20
-34.4641
 11
40.6433
 21
-34.3773
  0
LINE
  8
0
 10
40.6433
 20
-34.3773
 11
40.7829
 21
-34.2846
  0
LINE
  8
0
 10
40.7829
 20
-34.2846
 11
40.9184
 21
-34.1861
  0
LINE
  8
0
 10
40.9184
 20
-34.1861
 11
41.0497
 21
-34.082
  0
LINE
  8
0
 10
41.0497
 20
-34.082
 11
41.1765
 21
-33.9726
  0
LINE
  8
0
 10
41.1765
 20
-33.9726
 11
41.2986
 21
-33.8579
  0
LINE
  8
0
 10
41.2986
 20
-33.8579
 11
41.4159
 21
-33.7382
  0
LINE
  8
0
 10
41.4159
 20
-33.7382
 11
41.528
 21
-33.6137
  0
LINE
  8
0
 10
41.528
 20
-33.6137
 11
41.6348
 21
-33.4846
  0
LINE
  8
0
 10
41.6348
 20
-33.4846
 11
41.7361
 21
-33.3511
  0
LINE
  8
0
 10
41.7361
 20
-33.3511
 11
41.8317
 21
-33.2136
  0
LINE
  8
0
 10
41.8317
 20
-33.2136
 11
41.9214
 21
-33.0721
  0
LINE
  8
0
 10
41.9214
 20
-33.0721
 11
42.0052
 21
-32.927
  0
LINE
  8
0
 10
42.0052
 20
-32.927
 11
42.0828
 21
-32.7785
  0
LINE
  8
0
 10
42.0828
 20
-32.7785
 11
42.1542
 21
-32.6269
  0
LINE
  8
0
 10
42.1542
 20
-32.6269
 11
42.2191
 21
-32.4725
  0
LINE
  8
0
 10
42.2191
 20
-32.4725
 11
42.2775
 21
-32.3155
  0
LINE
  8
0
 10
42.2775
 20
-32.3155
 11
42.3293
 21
-32.1561
  0
LINE
  8
0
 10
42.3293
 20
-32.1561
 11
42.3743
 21
-31.9948
  0
LINE
  8
0
 10
42.3743
 20
-31.9948
 11
42.4126
 21
-31.8316
  0
LINE
  8
0
 10
42.4126
 20
-31.8316
 11
42.444
 21
-31.6671
  0
LINE
  8
0
 10
42.444
 20
-31.6671
 11
42.4684
 21
-31.5013
  0
LINE
  8
0
 10
42.4684
 20
-31.5013
 11
42.486
 21
-31.3347
  0
LINE
  8
0
 10
42.486
 20
-31.3347
 11
42.4965
 21
-31.1675
  0
LINE
  8
0
 10
42.4965
 20
-31.1675
 11
42.5
 21
-31
  0
LINE
  8
0
 10
42.5
 20
-31
 11
42.5
 21
31
  0
LINE
  8
0
 10
42.5
 20
31
 11
42.4965
 21
31.1675
  0
LINE
  8
0
 10
42.4965
 20
31.1675
 11
42.486
 21
31.3347
  0
LINE
  8
0
 10
42.486
 20
31.3347
 11
42.4684
 21
31.5013
  0
LINE
  8
0
 10
42.4684
 20
31.5013
 11
42.444
 21
31.6671
  0
LINE
  8
0
 10
42.444
 20
31.6671
 11
42.4126
 21
31.8316
  0
LINE
  8
0
 10
42.4126
 20
31.8316
 11
42.3743
 21
31.9948
  0
LINE
  8
0
 10
42.3743
 20
31.9948
 11
42.3293
 21
32.1561
  0
LINE
  8
0
 10
42.3293
 20
32.1561
 11
42.2775
 21
32.3155
  0
LINE
  8
0
 10
42.2775
 20
32.3155
 11
42.2191
 21
32.4725
  0
LINE
  8
0
 10
42.2191
 20
32.4725
 11
42.1542
 21
32.6269
  0
LINE
  8
0
 10
42.1542
 20
32.6269
 11
42.0828
 21
32.7785
  0
LINE
  8
0
 10
42.0828
 20
32.7785
 11
42.0052
 21
32.927
  0
LINE
  8
0
 10
42.0052
 20
32.927
 11
41.9214
 21
33.0721
  0
LINE
  8
0
 10
41.9214
 20
33.0721
 11
41.8317
 21
33.2136
  0
LINE
  8
0
 10
41.8317
 20
33.2136
 11
41.7361
 21
33.3511
  0
LINE
  8
0
 10
41.7361
 20
33.3511
 11
41.6348
 21
33.4846
  0
LINE
  8
0
 10
41.6348
 20
33.4846
 11
41.528
 21
33.6137
  0
LINE
  8
0
 10
41.528
 20
33.6137
 11
41.4159
 21
33.7382
  0
LINE
  8
0
 10
41.4159
 20
33.7382
 11
41.2986
 21
33.8579
  0
LINE
  8
0
 10
41.2986
 20
33.8579
 11
41.1765
 21
33.9726
  0
LINE
  8
0
 10
41.1765
 20
33.9726
 11
41.0497
 21
34.082
  0
LINE
  8
0
 10
41.0497
 20
34.082
 11
40.9184
 21
34.1861
  0
LINE
  8
0
 10
40.9184
 20
34.1861
 11
40.7829
 21
34.2846
  0
LINE
  8
0
 10
40.7829
 20
34.2846
 11
40.6433
 21
34.3773
  0
LINE
  8
0
 10
40.6433
 20
34.3773
 11
40.5
 21
34.4641
  0
LINE
  8
0
 10
40.5
 20
34.4641
 11
40.3532
 21
34.5448
  0
LINE
  8
0
 10
40.3532
 20
34.5448
 11
40.2031
 21
34.6193
  0
LINE
  8
0
 10
40.2031
 20
34.6193
 11
40.05
 21
34.6874
  0
LINE
  8
0
 10
40.05
 20
34.6874
 11
39.8943
 21
34.7491
  0
LINE
  8
0
 10
39.8943
 20
34.7491
 11
39.7361
 21
34.8042
  0
LINE
  8
0
 10
39.7361
 20
34.8042
 11
39.5757
 21
34.8526
  0
LINE
  8
0
 10
39.5757
 20
34.8526
 11
39.4134
 21
34.8943
  0
LINE
  8
0
 10
39.4134
 20
34.8943
 11
39.2495
 21
34.9291
  0
LINE
  8
0
 10
39.2495
 20
34.9291
 11
39.0843
 21
34.9571
  0
LINE
  8
0
 10
39.0843
 20
34.9571
 11
38.9181
 21
34.9781
  0
LINE
  8
0
 10
38.9181
 20
34.9781
 11
38.7512
 21
34.9921
  0
LINE
  8
0
 10
38.7512
 20
34.9921
 11
38.5838
 21
34.9991
  0
LINE
  8
0
 10
38.5838
 20
34.9991
 11
-38.5838
 21
34.9991
  0
LINE
  8
0
 10
-38.5838
 20
34.9991
 11
-38.7512
 21
34.9921
  0
LINE
  8
0
 10
-38.7512
 20
34.9921
 11
-38.9181
 21
34.9781
  0
LINE
  8
0
 10
-38.9181
 20
34.9781
 11
-39.0843
 21
34.9571
  0
LINE
  8
0
 10
-39.0843
 20
34.9571
 11
-39.2495
 21
34.9291
  0
LINE
  8
0
 10
-39.2495
 20
34.9291
 11
-39.4134
 21
34.8943
  0
LINE
  8
0
 10
-39.4134
 20
34.8943
 11
-39.5757
 21
34.8526
  0
LINE
  8
0
 10
-39.5757
 20
34.8526
 11
-39.7361
 21
34.8042
  0
LINE
  8
0
 10
-39.7361
 20
34.8042
 11
-39.8943
 21
34.7491
  0
LINE
  8
0
 10
-39.8943
 20
34.7491
 11
-40.05
 21
34.6874
  0
LINE
  8
0
 10
-40.05
 20
34.6874
 11
-40.2031
 21
34.6193
  0
LINE
  8
0
 10
-40.2031
 20
34.6193
 11
-40.3532
 21
34.5448
  0
LINE
  8
0
 10
-40.3532
 20
34.5448
 11
-40.5
 21
34.4641
  0
LINE
  8
0
 10
-40.5
 20
34.4641
 11
-40.6433
 21
34.3773
  0
LINE
  8
0
 10
-40.6433
 20
34.3773
 11
-40.7829
 21
34.2846
  0
LINE
  8
0
 10
-40.7829
 20
34.2846
 11
-40.9184
 21
34.1861
  0
LINE
  8
0
 10
-40.9184
 20
34.1861
 11
-41.0497
 21
34.082
  0
LINE
  8
0
 10
-41.0497
 20
34.082
 11
-41.1765
 21
33.9726
  0
LINE
  8
0
 10
-41.1765
 20
33.9726
 11
-41.2986
 21
33.8579
  0
LINE
  8
0
 10
-41.2986
 20
33.8579
 11
-41.4159
 21
33.7382
  0
LINE
  8
0
 10
-41.4159
 20
33.7382
 11
-41.528
 21
33.6137
  0
LINE
  8
0
 10
-41.528
 20
33.6137
 11
-41.6348
 21
33.4846
  0
LINE
  8
0
 10
-41.6348
 20
33.4846
 11
-41.7361
 21
33.3511
  0
LINE
  8
0
 10
-41.7361
 20
33.3511
 11
-41.8317
 21
33.2136
  0
LINE
  8
0
 10
-41.8317
 20
33.2136
 11
-41.9214
 21
33.0721
  0
LINE
  8
0
 10
-41.9214
 20
33.0721
 11
-42.0052
 21
32.927
  0
LINE
  8
0
 10
-42.0052
 20
32.927
 11
-42.0828
 21
32.7785
  0
LINE
  8
0
 10
-42.0828
 20
32.7785
 11
-42.1542
 21
32.6269
  0
LINE
  8
0
 10
-42.1542
 20
32.6269
 11
-42.2191
 21
32.4725
  0
LINE
  8
0
 10
-42.2191
 20
32.4725
 11
-42.2775
 21
32.3155
  0
LINE
  8
0
 10
-42.2775
 20
32.3155
 11
-42.3293
 21
32.1561
  0
LINE
  8
0
 10
-42.3293
 20
32.1561
 11
-42.3743
 21
31.9948
  0
LINE
  8
0
 10
-42.3743
 20
31.9948
 11
-42.4126
 21
31.8316
  0
LINE
  8
0
 10
-42.4126
 20
31.8316
 11
-42.444
 21
31.6671
  0
LINE
  8
0
 10
-42.444
 20
31.6671
 11
-42.4684
 21
31.5013
  0
LINE
  8
0
 10
-42.4684
 20
31.5013
 11
-42.486
 21
31.3347
  0
LINE
  8
0
 10
-42.486
 20
31.3347
 11
-42.4965
 21
31.1675
  0
LINE
  8
0
 10
-42.4965
 20
31.1675
 11
-42.5
 21
31
  0
LINE
  8
0
 10
-42.5
 20
31
 11
-42.5
 21
-31
  0
LINE
  8
0
 10
-42.5
 20
-31
 11
-42.4965
 21
-31.1675
  0
LINE
  8
0
 10
-42.4965
 20
-31.1675
 11
-42.486
 21
-31.3347
  0
LINE
  8
0
 10
-42.486
 20
-31.3347
 11
-42.4684
 21
-31.5013
  0
LINE
  8
0
 10
-42.4684
 20
-31.5013
 11
-42.444
 21
-31.6671
  0
LINE
  8
0
 10
-42.444
 20
-31.6671
 11
-42.4126
 21
-31.8316
  0
LINE
  8
0
 10
-42.4126
 20
-31.8316
 11
-42.3743
 21
-31.9948
  0
LINE
  8
0
 10
-42.3743
 20
-31.9948
 11
-42.3293
 21
-32.1561
  0
LINE
  8
0
 10
-42.3293
 20
-32.1561
 11
-42.2775
 21
-32.3155
  0
LINE
  8
0
 10
-42.2775
 20
-32.3155
 11
-42.2191
 21
-32.4725
  0
LINE
  8
0
 10
-42.2191
 20
-32.4725
 11
-42.1542
 21
-32.6269
  0
LINE
  8
0
 10
-42.1542
 20
-32.6269
 11
-42.0828
 21
-32.7785
  0
LINE
  8
0
 10
-42.0828
 20
-32.7785
 11
-42.0052
 21
-32.927
  0
LINE
  8
0
 10
-42.0052
 20
-32.927
 11
-41.9214
 21
-33.0721
  0
LINE
  8
0
 10
-41.9214
 20
-33.0721
 11
-41.8317
 21
-33.2136
  0
LINE
  8
0
 10
-41.8317
 20
-33.2136
 11
-41.7361
 21
-33.3511
  0
LINE
  8
0
 10
-41.7361
 20
-33.3511
 11
-41.6348
 21
-33.4846
  0
LINE
  8
0
 10
-41.6348
 20
-33.4846
 11
-41.528
 21
-33.6137
  0
LINE
  8
0
 10
-41.528
 20
-33.6137
 11
-41.4159
 21
-33.7382
  0
LINE
  8
0
 10
-41.4159
 20
-33.7382
 11
-41.2986
 21
-33.8579
  0
LINE
  8
0
 10
-41.2986
 20
-33.8579
 11
-41.1765
 21
-33.9726
  0
LINE
  8
0
 10
-41.1765
 20
-33.9726
 11
-41.0497
 21
-34.082
  0
LINE
  8
0
 10
-41.0497
 20
-34.082
 11
-40.9184
 21
-34.1861
  0
LINE
  8
0
 10
-40.9184
 20
-34.1861
 11
-40.7829
 21
-34.2846
  0
LINE
  8
0
 10
-40.7829
 20
-34.2846
 11
-40.6433
 21
-34.3773
  0
LINE
  8
0
 10
-40.6433
 20
-34.3773
 11
-40.5
 21
-34.4641
  0
LINE
  8
0
 10
-40.5
 20
-34.4641
 11
-40.3532
 21
-34.5448
  0
LINE
  8
0
 10
-40.3532
 20
-34.5448
 11
-40.2031
 21
-34.6193
  0
LINE
  8
0
 10
-40.2031
 20
-34.6193
 11
-40.05
 21
-34.6874
  0
LINE
  8
0
 10
-40.05
 20
-34.6874
 11
-39.8943
 21
-34.7491
  0
LINE
  8
0
 10
-39.8943
 20
-34.7491
 11
-39.7361
 21
-34.8042
  0
LINE
  8
0
 10
-39.7361
 20
-34.8042
 11
-39.5757
 21
-34.8526
  0
LINE
  8
0
 10
-39.5757
 20
-34.8526
 11
-39.4134
 21
-34.8943
  0
LINE
  8
0
 10
-39.4134
 20
-34.8943
 11
-39.2495
 21
-34.9291
  0
LINE
  8
0
 10
-39.2495
 20
-34.9291
 11
-39.0843
 21
-34.9571
  0
LINE
  8
0
 10
-39.0843
 20
-34.9571
 11
-38.9181
 21
-34.9781
  0
LINE
  8
0
 10
-38.9181
 20
-34.9781
 11
-38.7512
 21
-34.9921
  0
LINE
  8
0
 10
-38.7512
 20
-34.9921
 11
-38.5838
 21
-34.9991
  0
LINE
  8
0
 10
-38.5838
 20
-34.9991
 11
38.5838
 21
-34.9991
  0
LINE
  8
0
 10
38.5838
 20
-34.9991
 11
38.7512
 21
-34.9921
  0
LINE
  8
0
 10
-38.6045
 20
30.0055
 11
-38.809
 21
30.0489
  0
LINE
  8
0
 10
-38.809
 20
30.0489
 11
-39
 21
30.134
  0
LINE
  8
0
 10
-39
 20
30.134
 11
-39.1691
 21
30.2569
  0
LINE
  8
0
 10
-39.1691
 20
30.2569
 11
-39.309
 21
30.4122
  0
LINE
  8
0
 10
-39.309
 20
30.4122
 11
-39.4135
 21
30.5933
  0
LINE
  8
0
 10
-39.4135
 20
30.5933
 11
-39.4781
 21
30.7921
  0
LINE
  8
0
 10
-39.4781
 20
30.7921
 11
-39.5
 21
31
  0
LINE
  8
0
 10
-39.5
 20
31
 11
-39.4781
 21
31.2079
  0
LINE
  8
0
 10
-39.4781
 20
31.2079
 11
-39.4135
 21
31.4067
  0
LINE
  8
0
 10
-39.4135
 20
31.4067
 11
-39.309
 21
31.5878
  0
LINE
  8
0
 10
-39.309
 20
31.5878
 11
-39.1691
 21
31.7431
  0
LINE
  8
0
 10
-39.1691
 20
31.7431
 11
-39
 21
31.866
  0
LINE
  8
0
 10
-39
 20
31.866
 11
-38.809
 21
31.951
  0
LINE
  8
0
 10
-38.809
 20
31.951
 11
-38.6045
 21
31.9945
  0
LINE
  8
0
 10
-38.6045
 20
31.9945
 11
-38.3955
 21
31.9945
  0
LINE
  8
0
 10
-38.3955
 20
31.9945
 11
-38.191
 21
31.951
  0
LINE
  8
0
 10
-38.191
 20
31.951
 11
-38
 21
31.866
  0
LINE
  8
0
 10
-38
 20
31.866
 11
-37.8309
 21
31.7431
  0
LINE
  8
0
 10
-37.8309
 20
31.7431
 11
-37.691
 21
31.5878
  0
LINE
  8
0
 10
-37.691
 20
31.5878
 11
-37.5864
 21
31.4067
  0
LINE
  8
0
 10
-37.5864
 20
31.4067
 11
-37.5219
 21
31.2079
  0
LINE
  8
0
 10
-37.5219
 20
31.2079
 11
-37.5
 21
31
  0
LINE
  8
0
 10
-37.5
 20
31
 11
-37.5219
 21
30.7921
  0
LINE
  8
0
 10
-37.5219
 20
30.7921
 11
-37.5864
 21
30.5933
  0
LINE
  8
0
 10
-37.5864
 20
30.5933
 11
-37.691
 21
30.4122
  0
LINE
  8
0
 10
-37.691
 20
30.4122
 11
-37.8309
 21
30.2569
  0
LINE
  8
0
 10
-37.8309
 20
30.2569
 11
-38
 21
30.134
  0
LINE
  8
0
 10
-38
 20
30.134
 11
-38.191
 21
30.0489
  0
LINE
  8
0
 10
-38.191
 20
30.0489
 11
-38.3955
 21
30.0055
  0
LINE
  8
0
 10
-38.3955
 20
30.0055
 11
-38.6045
 21
30.0055
  0
LINE
  8
0
 10
38.3955
 20
30.0055
 11
38.191
 21
30.0489
  0
LINE
  8
0
 10
38.191
 20
30.0489
 11
38
 21
30.134
  0
LINE
  8
0
 10
38
 20
30.134
 11
37.8309
 21
30.2569
  0
LINE
  8
0
 10
37.8309
 20
30.2569
 11
37.691
 21
30.4122
  0
LINE
  8
0
 10
37.691
 20
30.4122
 11
37.5864
 21
30.5933
  0
LINE
  8
0
 10
37.5864
 20
30.5933
 11
37.5219
 21
30.7921
  0
LINE
  8
0
 10
37.5219
 20
30.7921
 11
37.5
 21
31
  0
LINE
  8
0
 10
37.5
 20
31
 11
37.5219
 21
31.2079
  0
LINE
  8
0
 10
37.5219
 20
31.2079
 11
37.5864
 21
31.4067
  0
LINE
  8
0
 10
37.5864
 20
31.4067
 11
37.691
 21
31.5878
  0
LINE
  8
0
 10
37.691
 20
31.5878
 11
37.8309
 21
31.7431
  0
LINE
  8
0
 10
37.8309
 20
31.7431
 11
38
 21
31.866
  0
LINE
  8
0
 10
38
 20
31.866
 11
38.191
 21
31.951
  0
LINE
  8
0
 10
38.191
 20
31.951
 11
38.3955
 21
31.9945
  0
LINE
  8
0
 10
38.3955
 20
31.9945
 11
38.6045
 21
31.9945
  0
LINE
  8
0
 10
38.6045
 20
31.9945
 11
38.809
 21
31.951
  0
LINE
  8
0
 10
38.809
 20
31.951
 11
39
 21
31.866
  0
LINE
  8
0
 10
39
 20
31.866
 11
39.1691
 21
31.7431
  0
LINE
  8
0
 10
39.1691
 20
31.7431
 11
39.309
 21
31.5878
  0
LINE
  8
0
 10
39.309
 20
31.5878
 11
39.4135
 21
31.4067
  0
LINE
  8
0
 10
39.4135
 20
31.4067
 11
39.4781
 21
31.2079
  0
LINE
  8
0
 10
39.4781
 20
31.2079
 11
39.5
 21
31
  0
LINE
  8
0
 10
39.5
 20
31
 11
39.4781
 21
30.7921
  0
LINE
  8
0
 10
39.4781
 20
30.7921
 11
39.4135
 21
30.5933
  0
LINE
  8
0
 10
39.4135
 20
30.5933
 11
39.309
 21
30.4122
  0
LINE
  8
0
 10
39.309
 20
30.4122
 11
39.1691
 21
30.2569
  0
LINE
  8
0
 10
39.1691
 20
30.2569
 11
39
 21
30.134
  0
LINE
  8
0
 10
39
 20
30.134
 11
38.809
 21
30.0489
  0
LINE
  8
0
 10
38.809
 20
30.0489
 11
38.6045
 21
30.0055
  0
LINE
  8
0
 10
38.6045
 20
30.0055
 11
38.3955
 21
30.0055
  0
LINE
  8
0
 10
-0.607315
 20
-28.9936
 11
-1.82092
 21
-28.9428
  0
LINE
  8
0
 10
-1.82092
 20
-28.9428
 11
-3.03131
 21
-28.8411
  0
LINE
  8
0
 10
-3.03131
 20
-28.8411
 11
-4.2364
 21
-28.6889
  0
LINE
  8
0
 10
-4.2364
 20
-28.6889
 11
-5.43405
 21
-28.4863
  0
LINE
  8
0
 10
-5.43405
 20
-28.4863
 11
-6.62216
 21
-28.2338
  0
LINE
  8
0
 10
-6.62216
 20
-28.2338
 11
-7.79866
 21
-27.9317
  0
LINE
  8
0
 10
-7.79866
 20
-27.9317
 11
-8.96149
 21
-27.5806
  0
LINE
  8
0
 10
-8.96149
 20
-27.5806
 11
-10.1086
 21
-27.1812
  0
LINE
  8
0
 10
-10.1086
 20
-27.1812
 11
-11.2379
 21
-26.734
  0
LINE
  8
0
 10
-11.2379
 20
-26.734
 11
-12.3476
 21
-26.24
  0
LINE
  8
0
 10
-12.3476
 20
-26.24
 11
-13.4356
 21
-25.6999
  0
LINE
  8
0
 10
-13.4356
 20
-25.6999
 11
-14.5
 21
-25.1147
  0
LINE
  8
0
 10
-14.5
 20
-25.1147
 11
-15.539
 21
-24.4855
  0
LINE
  8
0
 10
-15.539
 20
-24.4855
 11
-16.5507
 21
-23.8133
  0
LINE
  8
0
 10
-16.5507
 20
-23.8133
 11
-17.5334
 21
-23.0994
  0
LINE
  8
0
 10
-17.5334
 20
-23.0994
 11
-18.4853
 21
-22.3449
  0
LINE
  8
0
 10
-18.4853
 20
-22.3449
 11
-19.4048
 21
-21.5512
  0
LINE
  8
0
 10
-19.4048
 20
-21.5512
 11
-20.2902
 21
-20.7197
  0
LINE
  8
0
 10
-20.2902
 20
-20.7197
 11
-21.1401
 21
-19.8519
  0
LINE
  8
0
 10
-21.1401
 20
-19.8519
 11
-21.9529
 21
-18.9492
  0
LINE
  8
0
 10
-21.9529
 20
-18.9492
 11
-22.7271
 21
-18.0133
  0
LINE
  8
0
 10
-22.7271
 20
-18.0133
 11
-23.4615
 21
-17.0458
  0
LINE
  8
0
 10
-23.4615
 20
-17.0458
 11
-24.1547
 21
-16.0483
  0
LINE
  8
0
 10
-24.1547
 20
-16.0483
 11
-24.8056
 21
-15.0228
  0
LINE
  8
0
 10
-24.8056
 20
-15.0228
 11
-25.4129
 21
-13.9709
  0
LINE
  8
0
 10
-25.4129
 20
-13.9709
 11
-25.9756
 21
-12.8944
  0
LINE
  8
0
 10
-25.9756
 20
-12.8944
 11
-26.4928
 21
-11.7953
  0
LINE
  8
0
 10
-26.4928
 20
-11.7953
 11
-26.9635
 21
-10.6756
  0
LINE
  8
0
 10
-26.9635
 20
-10.6756
 11
-27.3869
 21
-9.53712
  0
LINE
  8
0
 10
-27.3869
 20
-9.53712
 11
-27.7623
 21
-8.38191
  0
LINE
  8
0
 10
-27.7623
 20
-8.38191
 11
-28.0889
 21
-7.21201
  0
LINE
  8
0
 10
-28.0889
 20
-7.21201
 11
-28.3663
 21
-6.02943
  0
LINE
  8
0
 10
-28.3663
 20
-6.02943
 11
-28.5939
 21
-4.83629
  0
LINE
  8
0
 10
-28.5939
 20
-4.83629
 11
-28.7713
 21
-3.63466
  0
LINE
  8
0
 10
-28.7713
 20
-3.63466
 11
-28.8983
 21
-2.42665
  0
LINE
  8
0
 10
-28.8983
 20
-2.42665
 11
-28.9745
 21
-1.21439
  0
LINE
  8
0
 10
-28.9745
 20
-1.21439
 11
-29
 21
0
  0
LINE
  8
0
 10
-29
 20
0
 11
-28.9745
 21
1.21439
  0
LINE
  8
0
 10
-28.9745
 20
1.21439
 11
-28.8983
 21
2.42665
  0
LINE
  8
0
 10
-28.8983
 20
2.42665
 11
-28.7713
 21
3.63466
  0
LINE
  8
0
 10
-28.7713
 20
3.63466
 11
-28.5939
 21
4.83629
  0
LINE
  8
0
 10
-28.5939
 20
4.83629
 11
-28.3663
 21
6.02943
  0
LINE
  8
0
 10
-28.3663
 20
6.02943
 11
-28.0889
 21
7.21201
  0
LINE
  8
0
 10
-28.0889
 20
7.21201
 11
-27.7623
 21
8.38191
  0
LINE
  8
0
 10
-27.7623
 20
8.38191
 11
-27.3869
 21
9.53712
  0
LINE
  8
0
 10
-27.3869
 20
9.53712
 11
-26.9635
 21
10.6756
  0
LINE
  8
0
 10
-26.9635
 20
10.6756
 11
-26.4928
 21
11.7953
  0
LINE
  8
0
 10
-26.4928
 20
11.7953
 11
-25.9756
 21
12.8944
  0
LINE
  8
0
 10
-25.9756
 20
12.8944
 11
-25.4129
 21
13.9709
  0
LINE
  8
0
 10
-25.4129
 20
13.9709
 11
-24.8056
 21
15.0228
  0
LINE
  8
0
 10
-24.8056
 20
15.0228
 11
-24.1547
 21
16.0483
  0
LINE
  8
0
 10
-24.1547
 20
16.0483
 11
-23.4615
 21
17.0458
  0
LINE
  8
0
 10
-23.4615
 20
17.0458
 11
-22.7271
 21
18.0133
  0
LINE
  8
0
 10
-22.7271
 20
18.0133
 11
-21.9529
 21
18.9492
  0
LINE
  8
0
 10
-21.9529
 20
18.9492
 11
-21.1401
 21
19.8519
  0
LINE
  8
0
 10
-21.1401
 20
19.8519
 11
-20.2902
 21
20.7197
  0
LINE
  8
0
 10
-20.2902
 20
20.7197
 11
-19.4048
 21
21.5512
  0
LINE
  8
0
 10
-19.4048
 20
21.5512
 11
-18.4853
 21
22.3449
  0
LINE
  8
0
 10
-18.4853
 20
22.3449
 11
-17.5334
 21
23.0994
  0
LINE
  8
0
 10
-17.5334
 20
23.0994
 11
-16.5507
 21
23.8133
  0
LINE
  8
0
 10
-16.5507
 20
23.8133
 11
-15.539
 21
24.4855
  0
LINE
  8
0
 10
-15.539
 20
24.4855
 11
-14.5
 21
25.1147
  0
LINE
  8
0
 10
-14.5
 20
25.1147
 11
-13.4356
 21
25.6999
  0
LINE
  8
0
 10
-13.4356
 20
25.6999
 11
-12.3476
 21
26.24
  0
LINE
  8
0
 10
-12.3476
 20
26.24
 11
-11.2379
 21
26.734
  0
LINE
  8
0
 10
-11.2379
 20
26.734
 11
-10.1086
 21
27.1812
  0
LINE
  8
0
 10
-10.1086
 20
27.1812
 11
-8.96149
 21
27.5806
  0
LINE
  8
0
 10
-8.96149
 20
27.5806
 11
-7.79866
 21
27.9317
  0
LINE
  8
0
 10
-7.79866
 20
27.9317
 11
-6.62216
 21
28.2338
  0
LINE
  8
0
 10
-6.62216
 20
28.2338
 11
-5.43405
 21
28.4863
  0
LINE
  8
0
 10
-5.43405
 20
28.4863
 11
-4.2364
 21
28.6889
  0
LINE
  8
0
 10
-4.2364
 20
28.6889
 11
-3.03131
 21
28.8411
  0
LINE
  8
0
 10
-3.03131
 20
28.8411
 11
-1.82092
 21
28.9428
  0
LINE
  8
0
 10
-1.82092
 20
28.9428
 11
-0.607315
 21
28.9936
  0
LINE
  8
0
 10
-0.607315
 20
28.9936
 11
0.607315
 21
28.9936
  0
LINE
  8
0
 10
0.607315
 20
28.9936
 11
1.82092
 21
28.9428
  0
LINE
  8
0
 10
1.82092
 20
28.9428
 11
3.03131
 21
28.8411
  0
LINE
  8
0
 10
3.03131
 20
28.8411
 11
4.2364
 21
28.6889
  0
LINE
  8
0
 10
4.2364
 20
28.6889
 11
5.43405
 21
28.4863
  0
LINE
  8
0
 10
5.43405
 20
28.4863
 11
6.62216
 21
28.2338
  0
LINE
  8
0
 10
6.62216
 20
28.2338
 11
7.79866
 21
27.9317
  0
LINE
  8
0
 10
7.79866
 20
27.9317
 11
8.96149
 21
27.5806
  0
LINE
  8
0
 10
8.96149
 20
27.5806
 11
10.1086
 21
27.1812
  0
LINE
  8
0
 10
10.1086
 20
27.1812
 11
11.2379
 21
26.734
  0
LINE
  8
0
 10
11.2379
 20
26.734
 11
12.3476
 21
26.24
  0
LINE
  8
0
 10
12.3476
 20
26.24
 11
13.4356
 21
25.6999
  0
LINE
  8
0
 10
13.4356
 20
25.6999
 11
14.5
 21
25.1147
  0
LINE
  8
0
 10
14.5
 20
25.1147
 11
15.539
 21
24.4855
  0
LINE
  8
0
 10
15.539
 20
24.4855
 11
16.5507
 21
23.8133
  0
LINE
  8
0
 10
16.5507
 20
23.8133
 11
17.5334
 21
23.0994
  0
LINE
  8
0
 10
17.5334
 20
23.0994
 11
18.4853
 21
22.3449
  0
LINE
  8
0
 10
18.4853
 20
22.3449
 11
19.4048
 21
21.5512
  0
LINE
  8
0
 10
19.4048
 20
21.5512
 11
20.2902
 21
20.7197
  0
LINE
  8
0
 10
20.2902
 20
20.7197
 11
21.1401
 21
19.8519
  0
LINE
  8
0
 10
21.1401
 20
19.8519
 11
21.9529
 21
18.9492
  0
LINE
  8
0
 10
21.9529
 20
18.9492
 11
22.7271
 21
18.0133
  0
LINE
  8
0
 10
22.7271
 20
18.0133
 11
23.4615
 21
17.0458
  0
LINE
  8
0
 10
23.4615
 20
17.0458
 11
24.1547
 21
16.0483
  0
LINE
  8
0
 10
24.1547
 20
16.0483
 11
24.8056
 21
15.0228
  0
LINE
  8
0
 10
24.8056
 20
15.0228
 11
25.4129
 21
13.9709
  0
LINE
  8
0
 10
25.4129
 20
13.9709
 11
25.9756
 21
12.8944
  0
LINE
  8
0
 10
25.9756
 20
12.8944
 11
26.4928
 21
11.7953
  0
LINE
  8
0
 10
26.4928
 20
11.7953
 11
26.9635
 21
10.6756
  0
LINE
  8
0
 10
26.9635
 20
10.6756
 11
27.3869
 21
9.53712
  0
LINE
  8
0
 10
27.3869
 20
9.53712
 11
27.7623
 21
8.38191
  0
LINE
  8
0
 10
27.7623
 20
8.38191
 11
28.0889
 21
7.21201
  0
LINE
  8
0
 10
28.0889
 20
7.21201
 11
28.3663
 21
6.02943
  0
LINE
  8
0
 10
28.3663
 20
6.02943
 11
28.5939
 21
4.83629
  0
LINE
  8
0
 10
28.5939
 20
4.83629
 11
28.7713
 21
3.63466
  0
LINE
  8
0
 10
28.7713
 20
3.63466
 11
28.8983
 21
2.42665
  0
LINE
  8
0
 10
28.8983
 20
2.42665
 11
28.9745
 21
1.21439
  0
LINE
  8
0
 10
28.9745
 20
1.21439
 11
29
 21
0
  0
LINE
  8
0
 10
29
 20
0
 11
28.9745
 21
-1.21439
  0
LINE
  8
0
 10
28.9745
 20
-1.21439
 11
28.8983
 21
-2.42665
  0
LINE
  8
0
 10
28.8983
 20
-2.42665
 11
28.7713
 21
-3.63466
  0
LINE
  8
0
 10
28.7713
 20
-3.63466
 11
28.5939
 21
-4.83629
  0
LINE
  8
0
 10
28.5939
 20
-4.83629
 11
28.3663
 21
-6.02943
  0
LINE
  8
0
 10
28.3663
 20
-6.02943
 11
28.0889
 21
-7.21201
  0
LINE
  8
0
 10
28.0889
 20
-7.21201
 11
27.7623
 21
-8.38191
  0
LINE
  8
0
 10
27.7623
 20
-8.38191
 11
27.3869
 21
-9.53712
  0
LINE
  8
0
 10
27.3869
 20
-9.53712
 11
26.9635
 21
-10.6756
  0
LINE
  8
0
 10
26.9635
 20
-10.6756
 11
26.4928
 21
-11.7953
  0
LINE
  8
0
 10
26.4928
 20
-11.7953
 11
25.9756
 21
-12.8944
  0
LINE
  8
0
 10
25.9756
 20
-12.8944
 11
25.4129
 21
-13.9709
  0
LINE
  8
0
 10
25.4129
 20
-13.9709
 11
24.8056
 21
-15.0228
  0
LINE
  8
0
 10
24.8056
 20
-15.0228
 11
24.1547
 21
-16.0483
  0
LINE
  8
0
 10
24.1547
 20
-16.0483
 11
23.4615
 21
-17.0458
  0
LINE
  8
0
 10
23.4615
 20
-17.0458
 11
22.7271
 21
-18.0133
  0
LINE
  8
0
 10
22.7271
 20
-18.0133
 11
21.9529
 21
-18.9492
  0
LINE
  8
0
 10
21.9529
 20
-18.9492
 11
21.1401
 21
-19.8519
  0
LINE
  8
0
 10
21.1401
 20
-19.8519
 11
20.2902
 21
-20.7197
  0
LINE
  8
0
 10
20.2902
 20
-20.7197
 11
19.4048
 21
-21.5512
  0
LINE
  8
0
 10
19.4048
 20
-21.5512
 11
18.4853
 21
-22.3449
  0
LINE
  8
0
 10
18.4853
 20
-22.3449
 11
17.5334
 21
-23.0994
  0
LINE
  8
0
 10
17.5334
 20
-23.0994
 11
16.5507
 21
-23.8133
  0
LINE
  8
0
 10
16.5507
 20
-23.8133
 11
15.539
 21
-24.4855
  0
LINE
  8
0
 10
15.539
 20
-24.4855
 11
14.5
 21
-25.1147
  0
LINE
  8
0
 10
14.5
 20
-25.1147
 11
13.4356
 21
-25.6999
  0
LINE
  8
0
 10
13.4356
 20
-25.6999
 11
12.3476
 21
-26.24
  0
LINE
  8
0
 10
12.3476
 20
-26.24
 11
11.2379
 21
-26.734
  0
LINE
  8
0
 10
11.2379
 20
-26.734
 11
10.1086
 21
-27.1812
  0
LINE
  8
0
 10
10.1086
 20
-27.1812
 11
8.96149
 21
-27.5806
  0
LINE
  8
0
 10
8.96149
 20
-27.5806
 11
7.79866
 21
-27.9317
  0
LINE
  8
0
 10
7.79866
 20
-27.9317
 11
6.62216
 21
-28.2338
  0
LINE
  8
0
 10
6.62216
 20
-28.2338
 11
5.43405
 21
-28.4863
  0
LINE
  8
0
 10
5.43405
 20
-28.4863
 11
4.2364
 21
-28.6889
  0
LINE
  8
0
 10
4.2364
 20
-28.6889
 11
3.03131
 21
-28.8411
  0
LINE
  8
0
 10
3.03131
 20
-28.8411
 11
1.82092
 21
-28.9428
  0
LINE
  8
0
 10
1.82092
 20
-28.9428
 11
0.607315
 21
-28.9936
  0
LINE
  8
0
 10
0.607315
 20
-28.9936
 11
-0.607315
 21
-28.9936
  0
LINE
  8
0
 10
-25.0314
 20
23.5003
 11
-25.0942
 21
23.5029
  0
LINE
  8
0
 10
-25.0942
 20
23.5029
 11
-25.1568
 21
23.5082
  0
LINE
  8
0
 10
-25.1568
 20
23.5082
 11
-25.2191
 21
23.5161
  0
LINE
  8
0
 10
-25.2191
 20
23.5161
 11
-25.2811
 21
23.5266
  0
LINE
  8
0
 10
-25.2811
 20
23.5266
 11
-25.3425
 21
23.5396
  0
LINE
  8
0
 10
-25.3425
 20
23.5396
 11
-25.4034
 21
23.5553
  0
LINE
  8
0
 10
-25.4034
 20
23.5553
 11
-25.4635
 21
23.5734
  0
LINE
  8
0
 10
-25.4635
 20
23.5734
 11
-25.5229
 21
23.5941
  0
LINE
  8
0
 10
-25.5229
 20
23.5941
 11
-25.5813
 21
23.6172
  0
LINE
  8
0
 10
-25.5813
 20
23.6172
 11
-25.6387
 21
23.6427
  0
LINE
  8
0
 10
-25.6387
 20
23.6427
 11
-25.6949
 21
23.6707
  0
LINE
  8
0
 10
-25.6949
 20
23.6707
 11
-25.75
 21
23.701
  0
LINE
  8
0
 10
-25.75
 20
23.701
 11
-25.8037
 21
23.7335
  0
LINE
  8
0
 10
-25.8037
 20
23.7335
 11
-25.8561
 21
23.7683
  0
LINE
  8
0
 10
-25.8561
 20
23.7683
 11
-25.9069
 21
23.8052
  0
LINE
  8
0
 10
-25.9069
 20
23.8052
 11
-25.9561
 21
23.8442
  0
LINE
  8
0
 10
-25.9561
 20
23.8442
 11
-26.0037
 21
23.8853
  0
LINE
  8
0
 10
-26.0037
 20
23.8853
 11
-26.0495
 21
23.9283
  0
LINE
  8
0
 10
-26.0495
 20
23.9283
 11
-26.0934
 21
23.9732
  0
LINE
  8
0
 10
-26.0934
 20
23.9732
 11
-26.1355
 21
24.0199
  0
LINE
  8
0
 10
-26.1355
 20
24.0199
 11
-26.1755
 21
24.0683
  0
LINE
  8
0
 10
-26.1755
 20
24.0683
 11
-26.2135
 21
24.1183
  0
LINE
  8
0
 10
-26.2135
 20
24.1183
 11
-26.2494
 21
24.1699
  0
LINE
  8
0
 10
-26.2494
 20
24.1699
 11
-26.283
 21
24.2229
  0
LINE
  8
0
 10
-26.283
 20
24.2229
 11
-26.3145
 21
24.2774
  0
LINE
  8
0
 10
-26.3145
 20
24.2774
 11
-26.3436
 21
24.333
  0
LINE
  8
0
 10
-26.3436
 20
24.333
 11
-26.3703
 21
24.3899
  0
LINE
  8
0
 10
-26.3703
 20
24.3899
 11
-26.3947
 21
24.4478
  0
LINE
  8
0
 10
-26.3947
 20
24.4478
 11
-26.4165
 21
24.5067
  0
LINE
  8
0
 10
-26.4165
 20
24.5067
 11
-26.436
 21
24.5665
  0
LINE
  8
0
 10
-26.436
 20
24.5665
 11
-26.4529
 21
24.627
  0
LINE
  8
0
 10
-26.4529
 20
24.627
 11
-26.4672
 21
24.6881
  0
LINE
  8
0
 10
-26.4672
 20
24.6881
 11
-26.479
 21
24.7498
  0
LINE
  8
0
 10
-26.479
 20
24.7498
 11
-26.4882
 21
24.812
  0
LINE
  8
0
 10
-26.4882
 20
24.812
 11
-26.4947
 21
24.8745
  0
LINE
  8
0
 10
-26.4947
 20
24.8745
 11
-26.4987
 21
24.9372
  0
LINE
  8
0
 10
-26.4987
 20
24.9372
 11
-26.5
 21
25
  0
LINE
  8
0
 10
-26.5
 20
25
 11
-26.4987
 21
25.0628
  0
LINE
  8
0
 10
-26.4987
 20
25.0628
 11
-26.4947
 21
25.1255
  0
LINE
  8
0
 10
-26.4947
 20
25.1255
 11
-26.4882
 21
25.188
  0
LINE
  8
0
 10
-26.4882
 20
25.188
 11
-26.479
 21
25.2502
  0
LINE
  8
0
 10
-26.479
 20
25.2502
 11
-26.4672
 21
25.3119
  0
LINE
  8
0
 10
-26.4672
 20
25.3119
 11
-26.4529
 21
25.373
  0
LINE
  8
0
 10
-26.4529
 20
25.373
 11
-26.436
 21
25.4335
  0
LINE
  8
0
 10
-26.436
 20
25.4335
 11
-26.4165
 21
25.4933
  0
LINE
  8
0
 10
-26.4165
 20
25.4933
 11
-26.3947
 21
25.5522
  0
LINE
  8
0
 10
-26.3947
 20
25.5522
 11
-26.3703
 21
25.6101
  0
LINE
  8
0
 10
-26.3703
 20
25.6101
 11
-26.3436
 21
25.6669
  0
LINE
  8
0
 10
-26.3436
 20
25.6669
 11
-26.3145
 21
25.7226
  0
LINE
  8
0
 10
-26.3145
 20
25.7226
 11
-26.283
 21
25.777
  0
LINE
  8
0
 10
-26.283
 20
25.777
 11
-26.2494
 21
25.8301
  0
LINE
  8
0
 10
-26.2494
 20
25.8301
 11
-26.2135
 21
25.8817
  0
LINE
  8
0
 10
-26.2135
 20
25.8817
 11
-26.1755
 21
25.9317
  0
LINE
  8
0
 10
-26.1755
 20
25.9317
 11
-26.1355
 21
25.9801
  0
LINE
  8
0
 10
-26.1355
 20
25.9801
 11
-26.0934
 21
26.0268
  0
LINE
  8
0
 10
-26.0934
 20
26.0268
 11
-26.0495
 21
26.0717
  0
LINE
  8
0
 10
-26.0495
 20
26.0717
 11
-26.0037
 21
26.1147
  0
LINE
  8
0
 10
-26.0037
 20
26.1147
 11
-25.9561
 21
26.1558
  0
LINE
  8
0
 10
-25.9561
 20
26.1558
 11
-25.9069
 21
26.1948
  0
LINE
  8
0
 10
-25.9069
 20
26.1948
 11
-25.8561
 21
26.2317
  0
LINE
  8
0
 10
-25.8561
 20
26.2317
 11
-25.8037
 21
26.2665
  0
LINE
  8
0
 10
-25.8037
 20
26.2665
 11
-25.75
 21
26.299
  0
LINE
  8
0
 10
-25.75
 20
26.299
 11
-25.6949
 21
26.3293
  0
LINE
  8
0
 10
-25.6949
 20
26.3293
 11
-25.6387
 21
26.3572
  0
LINE
  8
0
 10
-25.6387
 20
26.3572
 11
-25.5813
 21
26.3828
  0
LINE
  8
0
 10
-25.5813
 20
26.3828
 11
-25.5229
 21
26.4059
  0
LINE
  8
0
 10
-25.5229
 20
26.4059
 11
-25.4635
 21
26.4266
  0
LINE
  8
0
 10
-25.4635
 20
26.4266
 11
-25.4034
 21
26.4447
  0
LINE
  8
0
 10
-25.4034
 20
26.4447
 11
-25.3425
 21
26.4604
  0
LINE
  8
0
 10
-25.3425
 20
26.4604
 11
-25.2811
 21
26.4734
  0
LINE
  8
0
 10
-25.2811
 20
26.4734
 11
-25.2191
 21
26.4839
  0
LINE
  8
0
 10
-25.2191
 20
26.4839
 11
-25.1568
 21
26.4918
  0
LINE
  8
0
 10
-25.1568
 20
26.4918
 11
-25.0942
 21
26.497
  0
LINE
  8
0
 10
-25.0942
 20
26.497
 11
-25.0314
 21
26.4997
  0
LINE
  8
0
 10
-25.0314
 20
26.4997
 11
-24.9686
 21
26.4997
  0
LINE
  8
0
 10
-24.9686
 20
26.4997
 11
-24.9058
 21
26.497
  0
LINE
  8
0
 10
-24.9058
 20
26.497
 11
-24.8432
 21
26.4918
  0
LINE
  8
0
 10
-24.8432
 20
26.4918
 11
-24.7809
 21
26.4839
  0
LINE
  8
0
 10
-24.7809
 20
26.4839
 11
-24.7189
 21
26.4734
  0
LINE
  8
0
 10
-24.7189
 20
26.4734
 11
-24.6575
 21
26.4604
  0
LINE
  8
0
 10
-24.6575
 20
26.4604
 11
-24.5966
 21
26.4447
  0
LINE
  8
0
 10
-24.5966
 20
26.4447
 11
-24.5365
 21
26.4266
  0
LINE
  8
0
 10
-24.5365
 20
26.4266
 11
-24.4771
 21
26.4059
  0
LINE
  8
0
 10
-24.4771
 20
26.4059
 11
-24.4187
 21
26.3828
  0
LINE
  8
0
 10
-24.4187
 20
26.3828
 11
-24.3613
 21
26.3572
  0
LINE
  8
0
 10
-24.3613
 20
26.3572
 11
-24.3051
 21
26.3293
  0
LINE
  8
0
 10
-24.3051
 20
26.3293
 11
-24.25
 21
26.299
  0
LINE
  8
0
 10
-24.25
 20
26.299
 11
-24.1963
 21
26.2665
  0
LINE
  8
0
 10
-24.1963
 20
26.2665
 11
-24.1439
 21
26.2317
  0
LINE
  8
0
 10
-24.1439
 20
26.2317
 11
-24.0931
 21
26.1948
  0
LINE
  8
0
 10
-24.0931
 20
26.1948
 11
-24.0439
 21
26.1558
  0
LINE
  8
0
 10
-24.0439
 20
26.1558
 11
-23.9963
 21
26.1147
  0
LINE
  8
0
 10
-23.9963
 20
26.1147
 11
-23.9505
 21
26.0717
  0
LINE
  8
0
 10
-23.9505
 20
26.0717
 11
-23.9065
 21
26.0268
  0
LINE
  8
0
 10
-23.9065
 20
26.0268
 11
-23.8645
 21
25.9801
  0
LINE
  8
0
 10
-23.8645
 20
25.9801
 11
-23.8244
 21
25.9317
  0
LINE
  8
0
 10
-23.8244
 20
25.9317
 11
-23.7865
 21
25.8817
  0
LINE
  8
0
 10
-23.7865
 20
25.8817
 11
-23.7506
 21
25.8301
  0
LINE
  8
0
 10
-23.7506
 20
25.8301
 11
-23.7169
 21
25.777
  0
LINE
  8
0
 10
-23.7169
 20
25.777
 11
-23.6855
 21
25.7226
  0
LINE
  8
0
 10
-23.6855
 20
25.7226
 11
-23.6564
 21
25.6669
  0
LINE
  8
0
 10
-23.6564
 20
25.6669
 11
-23.6297
 21
25.6101
  0
LINE
  8
0
 10
-23.6297
 20
25.6101
 11
-23.6053
 21
25.5522
  0
LINE
  8
0
 10
-23.6053
 20
25.5522
 11
-23.5834
 21
25.4933
  0
LINE
  8
0
 10
-23.5834
 20
25.4933
 11
-23.564
 21
25.4335
  0
LINE
  8
0
 10
-23.564
 20
25.4335
 11
-23.5471
 21
25.373
  0
LINE
  8
0
 10
-23.5471
 20
25.373
 11
-23.5328
 21
25.3119
  0
LINE
  8
0
 10
-23.5328
 20
25.3119
 11
-23.521
 21
25.2502
  0
LINE
  8
0
 10
-23.521
 20
25.2502
 11
-23.5118
 21
25.188
  0
LINE
  8
0
 10
-23.5118
 20
25.188
 11
-23.5052
 21
25.1255
  0
LINE
  8
0
 10
-23.5052
 20
25.1255
 11
-23.5013
 21
25.0628
  0
LINE
  8
0
 10
-23.5013
 20
25.0628
 11
-23.5
 21
25
  0
LINE
  8
0
 10
-23.5
 20
25
 11
-23.5013
 21
24.9372
  0
LINE
  8
0
 10
-23.5013
 20
24.9372
 11
-23.5052
 21
24.8745
  0
LINE
  8
0
 10
-23.5052
 20
24.8745
 11
-23.5118
 21
24.812
  0
LINE
  8
0
 10
-23.5118
 20
24.812
 11
-23.521
 21
24.7498
  0
LINE
  8
0
 10
-23.521
 20
24.7498
 11
-23.5328
 21
24.6881
  0
LINE
  8
0
 10
-23.5328
 20
24.6881
 11
-23.5471
 21
24.627
  0
LINE
  8
0
 10
-23.5471
 20
24.627
 11
-23.564
 21
24.5665
  0
LINE
  8
0
 10
-23.564
 20
24.5665
 11
-23.5834
 21
24.5067
  0
LINE
  8
0
 10
-23.5834
 20
24.5067
 11
-23.6053
 21
24.4478
  0
LINE
  8
0
 10
-23.6053
 20
24.4478
 11
-23.6297
 21
24.3899
  0
LINE
  8
0
 10
-23.6297
 20
24.3899
 11
-23.6564
 21
24.333
  0
LINE
  8
0
 10
-23.6564
 20
24.333
 11
-23.6855
 21
24.2774
  0
LINE
  8
0
 10
-23.6855
 20
24.2774
 11
-23.7169
 21
24.2229
  0
LINE
  8
0
 10
-23.7169
 20
24.2229
 11
-23.7506
 21
24.1699
  0
LINE
  8
0
 10
-23.7506
 20
24.1699
 11
-23.7865
 21
24.1183
  0
LINE
  8
0
 10
-23.7865
 20
24.1183
 11
-23.8244
 21
24.0683
  0
LINE
  8
0
 10
-23.8244
 20
24.0683
 11
-23.8645
 21
24.0199
  0
LINE
  8
0
 10
-23.8645
 20
24.0199
 11
-23.9065
 21
23.9732
  0
LINE
  8
0
 10
-23.9065
 20
23.9732
 11
-23.9505
 21
23.9283
  0
LINE
  8
0
 10
-23.9505
 20
23.9283
 11
-23.9963
 21
23.8853
  0
LINE
  8
0
 10
-23.9963
 20
23.8853
 11
-24.0439
 21
23.8442
  0
LINE
  8
0
 10
-24.0439
 20
23.8442
 11
-24.0931
 21
23.8052
  0
LINE
  8
0
 10
-24.0931
 20
23.8052
 11
-24.1439
 21
23.7683
  0
LINE
  8
0
 10
-24.1439
 20
23.7683
 11
-24.1963
 21
23.7335
  0
LINE
  8
0
 10
-24.1963
 20
23.7335
 11
-24.25
 21
23.701
  0
LINE
  8
0
 10
-24.25
 20
23.701
 11
-24.3051
 21
23.6707
  0
LINE
  8
0
 10
-24.3051
 20
23.6707
 11
-24.3613
 21
23.6427
  0
LINE
  8
0
 10
-24.3613
 20
23.6427
 11
-24.4187
 21
23.6172
  0
LINE
  8
0
 10
-24.4187
 20
23.6172
 11
-24.4771
 21
23.5941
  0
LINE
  8
0
 10
-24.4771
 20
23.5941
 11
-24.5365
 21
23.5734
  0
LINE
  8
0
 10
-24.5365
 20
23.5734
 11
-24.5966
 21
23.5553
  0
LINE
  8
0
 10
-24.5966
 20
23.5553
 11
-24.6575
 21
23.5396
  0
LINE
  8
0
 10
-24.6575
 20
23.5396
 11
-24.7189
 21
23.5266
  0
LINE
  8
0
 10
-24.7189
 20
23.5266
 11
-24.7809
 21
23.5161
  0
LINE
  8
0
 10
-24.7809
 20
23.5161
 11
-24.8432
 21
23.5082
  0
LINE
  8
0
 10
-24.8432
 20
23.5082
 11
-24.9058
 21
23.5029
  0
LINE
  8
0
 10
-24.9058
 20
23.5029
 11
-24.9686
 21
23.5003
  0
LINE
  8
0
 10
-24.9686
 20
23.5003
 11
-25.0314
 21
23.5003
  0
LINE
  8
0
 10
24.9686
 20
23.5003
 11
24.9058
 21
23.5029
  0
LINE
  8
0
 10
24.9058
 20
23.5029
 11
24.8432
 21
23.5082
  0
LINE
  8
0
 10
24.8432
 20
23.5082
 11
24.7809
 21
23.5161
  0
LINE
  8
0
 10
24.7809
 20
23.5161
 11
24.7189
 21
23.5266
  0
LINE
  8
0
 10
24.7189
 20
23.5266
 11
24.6575
 21
23.5396
  0
LINE
  8
0
 10
24.6575
 20
23.5396
 11
24.5966
 21
23.5553
  0
LINE
  8
0
 10
24.5966
 20
23.5553
 11
24.5365
 21
23.5734
  0
LINE
  8
0
 10
24.5365
 20
23.5734
 11
24.4771
 21
23.5941
  0
LINE
  8
0
 10
24.4771
 20
23.5941
 11
24.4187
 21
23.6172
  0
LINE
  8
0
 10
24.4187
 20
23.6172
 11
24.3613
 21
23.6427
  0
LINE
  8
0
 10
24.3613
 20
23.6427
 11
24.3051
 21
23.6707
  0
LINE
  8
0
 10
24.3051
 20
23.6707
 11
24.25
 21
23.701
  0
LINE
  8
0
 10
24.25
 20
23.701
 11
24.1963
 21
23.7335
  0
LINE
  8
0
 10
24.1963
 20
23.7335
 11
24.1439
 21
23.7683
  0
LINE
  8
0
 10
24.1439
 20
23.7683
 11
24.0931
 21
23.8052
  0
LINE
  8
0
 10
24.0931
 20
23.8052
 11
24.0439
 21
23.8442
  0
LINE
  8
0
 10
24.0439
 20
23.8442
 11
23.9963
 21
23.8853
  0
LINE
  8
0
 10
23.9963
 20
23.8853
 11
23.9505
 21
23.9283
  0
LINE
  8
0
 10
23.9505
 20
23.9283
 11
23.9065
 21
23.9732
  0
LINE
  8
0
 10
23.9065
 20
23.9732
 11
23.8645
 21
24.0199
  0
LINE
  8
0
 10
23.8645
 20
24.0199
 11
23.8244
 21
24.0683
  0
LINE
  8
0
 10
23.8244
 20
24.0683
 11
23.7865
 21
24.1183
  0
LINE
  8
0
 10
23.7865
 20
24.1183
 11
23.7506
 21
24.1699
  0
LINE
  8
0
 10
23.7506
 20
24.1699
 11
23.7169
 21
24.2229
  0
LINE
  8
0
 10
23.7169
 20
24.2229
 11
23.6855
 21
24.2774
  0
LINE
  8
0
 10
23.6855
 20
24.2774
 11
23.6564
 21
24.333
  0
LINE
  8
0
 10
23.6564
 20
24.333
 11
23.6297
 21
24.3899
  0
LINE
  8
0
 10
23.6297
 20
24.3899
 11
23.6053
 21
24.4478
  0
LINE
  8
0
 10
23.6053
 20
24.4478
 11
23.5834
 21
24.5067
  0
LINE
  8
0
 10
23.5834
 20
24.5067
 11
23.564
 21
24.5665
  0
LINE
  8
0
 10
23.564
 20
24.5665
 11
23.5471
 21
24.627
  0
LINE
  8
0
 10
23.5471
 20
24.627
 11
23.5328
 21
24.6881
  0
LINE
  8
0
 10
23.5328
 20
24.6881
 11
23.521
 21
24.7498
  0
LINE
  8
0
 10
23.521
 20
24.7498
 11
23.5118
 21
24.812
  0
LINE
  8
0
 10
23.5118
 20
24.812
 11
23.5052
 21
24.8745
  0
LINE
  8
0
 10
23.5052
 20
24.8745
 11
23.5013
 21
24.9372
  0
LINE
  8
0
 10
23.5013
 20
24.9372
 11
23.5
 21
25
  0
LINE
  8
0
 10
23.5
 20
25
 11
23.5013
 21
25.0628
  0
LINE
  8
0
 10
23.5013
 20
25.0628
 11
23.5052
 21
25.1255
  0
LINE
  8
0
 10
23.5052
 20
25.1255
 11
23.5118
 21
25.188
  0
LINE
  8
0
 10
23.5118
 20
25.188
 11
23.521
 21
25.2502
  0
LINE
  8
0
 10
23.521
 20
25.2502
 11
23.5328
 21
25.3119
  0
LINE
  8
0
 10
23.5328
 20
25.3119
 11
23.5471
 21
25.373
  0
LINE
  8
0
 10
23.5471
 20
25.373
 11
23.564
 21
25.4335
  0
LINE
  8
0
 10
23.564
 20
25.4335
 11
23.5834
 21
25.4933
  0
LINE
  8
0
 10
23.5834
 20
25.4933
 11
23.6053
 21
25.5522
  0
LINE
  8
0
 10
23.6053
 20
25.5522
 11
23.6297
 21
25.6101
  0
LINE
  8
0
 10
23.6297
 20
25.6101
 11
23.6564
 21
25.6669
  0
LINE
  8
0
 10
23.6564
 20
25.6669
 11
23.6855
 21
25.7226
  0
LINE
  8
0
 10
23.6855
 20
25.7226
 11
23.7169
 21
25.777
  0
LINE
  8
0
 10
23.7169
 20
25.777
 11
23.7506
 21
25.8301
  0
LINE
  8
0
 10
23.7506
 20
25.8301
 11
23.7865
 21
25.8817
  0
LINE
  8
0
 10
23.7865
 20
25.8817
 11
23.8244
 21
25.9317
  0
LINE
  8
0
 10
23.8244
 20
25.9317
 11
23.8645
 21
25.9801
  0
LINE
  8
0
 10
23.8645
 20
25.9801
 11
23.9065
 21
26.0268
  0
LINE
  8
0
 10
23.9065
 20
26.0268
 11
23.9505
 21
26.0717
  0
LINE
  8
0
 10
23.9505
 20
26.0717
 11
23.9963
 21
26.1147
  0
LINE
  8
0
 10
23.9963
 20
26.1147
 11
24.0439
 21
26.1558
  0
LINE
  8
0
 10
24.0439
 20
26.1558
 11
24.0931
 21
26.1948
  0
LINE
  8
0
 10
24.0931
 20
26.1948
 11
24.1439
 21
26.2317
  0
LINE
  8
0
 10
24.1439
 20
26.2317
 11
24.1963
 21
26.2665
  0
LINE
  8
0
 10
24.1963
 20
26.2665
 11
24.25
 21
26.299
  0
LINE
  8
0
 10
24.25
 20
26.299
 11
24.3051
 21
26.3293
  0
LINE
  8
0
 10
24.3051
 20
26.3293
 11
24.3613
 21
26.3572
  0
LINE
  8
0
 10
24.3613
 20
26.3572
 11
24.4187
 21
26.3828
  0
LINE
  8
0
 10
24.4187
 20
26.3828
 11
24.4771
 21
26.4059
  0
LINE
  8
0
 10
24.4771
 20
26.4059
 11
24.5365
 21
26.4266
  0
LINE
  8
0
 10
24.5365
 20
26.4266
 11
24.5966
 21
26.4447
  0
LINE
  8
0
 10
24.5966
 20
26.4447
 11
24.6575
 21
26.4604
  0
LINE
  8
0
 10
24.6575
 20
26.4604
 11
24.7189
 21
26.4734
  0
LINE
  8
0
 10
24.7189
 20
26.4734
 11
24.7809
 21
26.4839
  0
LINE
  8
0
 10
24.7809
 20
26.4839
 11
24.8432
 21
26.4918
  0
LINE
  8
0
 10
24.8432
 20
26.4918
 11
24.9058
 21
26.497
  0
LINE
  8
0
 10
24.9058
 20
26.497
 11
24.9686
 21
26.4997
  0
LINE
  8
0
 10
24.9686
 20
26.4997
 11
25.0314
 21
26.4997
  0
LINE
  8
0
 10
25.0314
 20
26.4997
 11
25.0942
 21
26.497
  0
LINE
  8
0
 10
25.0942
 20
26.497
 11
25.1568
 21
26.4918
  0
LINE
  8
0
 10
25.1568
 20
26.4918
 11
25.2191
 21
26.4839
  0
LINE
  8
0
 10
25.2191
 20
26.4839
 11
25.2811
 21
26.4734
  0
LINE
  8
0
 10
25.2811
 20
26.4734
 11
25.3425
 21
26.4604
  0
LINE
  8
0
 10
25.3425
 20
26.4604
 11
25.4034
 21
26.4447
  0
LINE
  8
0
 10
25.4034
 20
26.4447
 11
25.4635
 21
26.4266
  0
LINE
  8
0
 10
25.4635
 20
26.4266
 11
25.5229
 21
26.4059
  0
LINE
  8
0
 10
25.5229
 20
26.4059
 11
25.5813
 21
26.3828
  0
LINE
  8
0
 10
25.5813
 20
26.3828
 11
25.6387
 21
26.3572
  0
LINE
  8
0
 10
25.6387
 20
26.3572
 11
25.6949
 21
26.3293
  0
LINE
  8
0
 10
25.6949
 20
26.3293
 11
25.75
 21
26.299
  0
LINE
  8
0
 10
25.75
 20
26.299
 11
25.8037
 21
26.2665
  0
LINE
  8
0
 10
25.8037
 20
26.2665
 11
25.8561
 21
26.2317
  0
LINE
  8
0
 10
25.8561
 20
26.2317
 11
25.9069
 21
26.1948
  0
LINE
  8
0
 10
25.9069
 20
26.1948
 11
25.9561
 21
26.1558
  0
LINE
  8
0
 10
25.9561
 20
26.1558
 11
26.0037
 21
26.1147
  0
LINE
  8
0
 10
26.0037
 20
26.1147
 11
26.0495
 21
26.0717
  0
LINE
  8
0
 10
26.0495
 20
26.0717
 11
26.0934
 21
26.0268
  0
LINE
  8
0
 10
26.0934
 20
26.0268
 11
26.1355
 21
25.9801
  0
LINE
  8
0
 10
26.1355
 20
25.9801
 11
26.1755
 21
25.9317
  0
LINE
  8
0
 10
26.1755
 20
25.9317
 11
26.2135
 21
25.8817
  0
LINE
  8
0
 10
26.2135
 20
25.8817
 11
26.2494
 21
25.8301
  0
LINE
  8
0
 10
26.2494
 20
25.8301
 11
26.283
 21
25.777
  0
LINE
  8
0
 10
26.283
 20
25.777
 11
26.3145
 21
25.7226
  0
LINE
  8
0
 10
26.3145
 20
25.7226
 11
26.3436
 21
25.6669
  0
LINE
  8
0
 10
26.3436
 20
25.6669
 11
26.3703
 21
25.6101
  0
LINE
  8
0
 10
26.3703
 20
25.6101
 11
26.3947
 21
25.5522
  0
LINE
  8
0
 10
26.3947
 20
25.5522
 11
26.4165
 21
25.4933
  0
LINE
  8
0
 10
26.4165
 20
25.4933
 11
26.436
 21
25.4335
  0
LINE
  8
0
 10
26.436
 20
25.4335
 11
26.4529
 21
25.373
  0
LINE
  8
0
 10
26.4529
 20
25.373
 11
26.4672
 21
25.3119
  0
LINE
  8
0
 10
26.4672
 20
25.3119
 11
26.479
 21
25.2502
  0
LINE
  8
0
 10
26.479
 20
25.2502
 11
26.4882
 21
25.188
  0
LINE
  8
0
 10
26.4882
 20
25.188
 11
26.4947
 21
25.1255
  0
LINE
  8
0
 10
26.4947
 20
25.1255
 11
26.4987
 21
25.0628
  0
LINE
  8
0
 10
26.4987
 20
25.0628
 11
26.5
 21
25
  0
LINE
  8
0
 10
26.5
 20
25
 11
26.4987
 21
24.9372
  0
LINE
  8
0
 10
26.4987
 20
24.9372
 11
26.4947
 21
24.8745
  0
LINE
  8
0
 10
26.4947
 20
24.8745
 11
26.4882
 21
24.812
  0
LINE
  8
0
 10
26.4882
 20
24.812
 11
26.479
 21
24.7498
  0
LINE
  8
0
 10
26.479
 20
24.7498
 11
26.4672
 21
24.6881
  0
LINE
  8
0
 10
26.4672
 20
24.6881
 11
26.4529
 21
24.627
  0
LINE
  8
0
 10
26.4529
 20
24.627
 11
26.436
 21
24.5665
  0
LINE
  8
0
 10
26.436
 20
24.5665
 11
26.4165
 21
24.5067
  0
LINE
  8
0
 10
26.4165
 20
24.5067
 11
26.3947
 21
24.4478
  0
LINE
  8
0
 10
26.3947
 20
24.4478
 11
26.3703
 21
24.3899
  0
LINE
  8
0
 10
26.3703
 20
24.3899
 11
26.3436
 21
24.333
  0
LINE
  8
0
 10
26.3436
 20
24.333
 11
26.3145
 21
24.2774
  0
LINE
  8
0
 10
26.3145
 20
24.2774
 11
26.283
 21
24.2229
  0
LINE
  8
0
 10
26.283
 20
24.2229
 11
26.2494
 21
24.1699
  0
LINE
  8
0
 10
26.2494
 20
24.1699
 11
26.2135
 21
24.1183
  0
LINE
  8
0
 10
26.2135
 20
24.1183
 11
26.1755
 21
24.0683
  0
LINE
  8
0
 10
26.1755
 20
24.0683
 11
26.1355
 21
24.0199
  0
LINE
  8
0
 10
26.1355
 20
24.0199
 11
26.0934
 21
23.9732
  0
LINE
  8
0
 10
26.0934
 20
23.9732
 11
26.0495
 21
23.9283
  0
LINE
  8
0
 10
26.0495
 20
23.9283
 11
26.0037
 21
23.8853
  0
LINE
  8
0
 10
26.0037
 20
23.8853
 11
25.9561
 21
23.8442
  0
LINE
  8
0
 10
25.9561
 20
23.8442
 11
25.9069
 21
23.8052
  0
LINE
  8
0
 10
25.9069
 20
23.8052
 11
25.8561
 21
23.7683
  0
LINE
  8
0
 10
25.8561
 20
23.7683
 11
25.8037
 21
23.7335
  0
LINE
  8
0
 10
25.8037
 20
23.7335
 11
25.75
 21
23.701
  0
LINE
  8
0
 10
25.75
 20
23.701
 11
25.6949
 21
23.6707
  0
LINE
  8
0
 10
25.6949
 20
23.6707
 11
25.6387
 21
23.6427
  0
LINE
  8
0
 10
25.6387
 20
23.6427
 11
25.5813
 21
23.6172
  0
LINE
  8
0
 10
25.5813
 20
23.6172
 11
25.5229
 21
23.5941
  0
LINE
  8
0
 10
25.5229
 20
23.5941
 11
25.4635
 21
23.5734
  0
LINE
  8
0
 10
25.4635
 20
23.5734
 11
25.4034
 21
23.5553
  0
LINE
  8
0
 10
25.4034
 20
23.5553
 11
25.3425
 21
23.5396
  0
LINE
  8
0
 10
25.3425
 20
23.5396
 11
25.2811
 21
23.5266
  0
LINE
  8
0
 10
25.2811
 20
23.5266
 11
25.2191
 21
23.5161
  0
LINE
  8
0
 10
25.2191
 20
23.5161
 11
25.1568
 21
23.5082
  0
LINE
  8
0
 10
25.1568
 20
23.5082
 11
25.0942
 21
23.5029
  0
LINE
  8
0
 10
25.0942
 20
23.5029
 11
25.0314
 21
23.5003
  0
LINE
  8
0
 10
25.0314
 20
23.5003
 11
24.9686
 21
23.5003
  0
LINE
  8
0
 10
-38.6045
 20
-17.4945
 11
-38.809
 21
-17.451
  0
LINE
  8
0
 10
-38.809
 20
-17.451
 11
-39
 21
-17.366
  0
LINE
  8
0
 10
-39
 20
-17.366
 11
-39.1691
 21
-17.2431
  0
LINE
  8
0
 10
-39.1691
 20
-17.2431
 11
-39.309
 21
-17.0878
  0
LINE
  8
0
 10
-39.309
 20
-17.0878
 11
-39.4135
 21
-16.9067
  0
LINE
  8
0
 10
-39.4135
 20
-16.9067
 11
-39.4781
 21
-16.7079
  0
LINE
  8
0
 10
-39.4781
 20
-16.7079
 11
-39.5
 21
-16.5
  0
LINE
  8
0
 10
-39.5
 20
-16.5
 11
-39.4781
 21
-16.2921
  0
LINE
  8
0
 10
-39.4781
 20
-16.2921
 11
-39.4135
 21
-16.0933
  0
LINE
  8
0
 10
-39.4135
 20
-16.0933
 11
-39.309
 21
-15.9122
  0
LINE
  8
0
 10
-39.309
 20
-15.9122
 11
-39.1691
 21
-15.7569
  0
LINE
  8
0
 10
-39.1691
 20
-15.7569
 11
-39
 21
-15.634
  0
LINE
  8
0
 10
-39
 20
-15.634
 11
-38.809
 21
-15.5489
  0
LINE
  8
0
 10
-38.809
 20
-15.5489
 11
-38.6045
 21
-15.5055
  0
LINE
  8
0
 10
-38.6045
 20
-15.5055
 11
-38.3955
 21
-15.5055
  0
LINE
  8
0
 10
-38.3955
 20
-15.5055
 11
-38.191
 21
-15.5489
  0
LINE
  8
0
 10
-38.191
 20
-15.5489
 11
-38
 21
-15.634
  0
LINE
  8
0
 10
-38
 20
-15.634
 11
-37.8309
 21
-15.7569
  0
LINE
  8
0
 10
-37.8309
 20
-15.7569
 11
-37.691
 21
-15.9122
  0
LINE
  8
0
 10
-37.691
 20
-15.9122
 11
-37.5864
 21
-16.0933
  0
LINE
  8
0
 10
-37.5864
 20
-16.0933
 11
-37.5219
 21
-16.2921
  0
LINE
  8
0
 10
-37.5219
 20
-16.2921
 11
-37.5
 21
-16.5
  0
LINE
  8
0
 10
-37.5
 20
-16.5
 11
-37.5219
 21
-16.7079
  0
LINE
  8
0
 10
-37.5219
 20
-16.7079
 11
-37.5864
 21
-16.9067
  0
LINE
  8
0
 10
-37.5864
 20
-16.9067
 11
-37.691
 21
-17.0878
  0
LINE
  8
0
 10
-37.691
 20
-17.0878
 11
-37.8309
 21
-17.2431
  0
LINE
  8
0
 10
-37.8309
 20
-17.2431
 11
-38
 21
-17.366
  0
LINE
  8
0
 10
-38
 20
-17.366
 11
-38.191
 21
-17.451
  0
LINE
  8
0
 10
-38.191
 20
-17.451
 11
-38.3955
 21
-17.4945
  0
LINE
  8
0
 10
-38.3955
 20
-17.4945
 11
-38.6045
 21
-17.4945
  0
LINE
  8
0
 10
-25.0314
 20
-26.4997
 11
-25.0942
 21
-26.497
  0
LINE
  8
0
 10
-25.0942
 20
-26.497
 11
-25.1568
 21
-26.4918
  0
LINE
  8
0
 10
-25.1568
 20
-26.4918
 11
-25.2191
 21
-26.4839
  0
LINE
  8
0
 10
-25.2191
 20
-26.4839
 11
-25.2811
 21
-26.4734
  0
LINE
  8
0
 10
-25.2811
 20
-26.4734
 11
-25.3425
 21
-26.4604
  0
LINE
  8
0
 10
-25.3425
 20
-26.4604
 11
-25.4034
 21
-26.4447
  0
LINE
  8
0
 10
-25.4034
 20
-26.4447
 11
-25.4635
 21
-26.4266
  0
LINE
  8
0
 10
-25.4635
 20
-26.4266
 11
-25.5229
 21
-26.4059
  0
LINE
  8
0
 10
-25.5229
 20
-26.4059
 11
-25.5813
 21
-26.3828
  0
LINE
  8
0
 10
-25.5813
 20
-26.3828
 11
-25.6387
 21
-26.3572
  0
LINE
  8
0
 10
-25.6387
 20
-26.3572
 11
-25.6949
 21
-26.3293
  0
LINE
  8
0
 10
-25.6949
 20
-26.3293
 11
-25.75
 21
-26.299
  0
LINE
  8
0
 10
-25.75
 20
-26.299
 11
-25.8037
 21
-26.2665
  0
LINE
  8
0
 10
-25.8037
 20
-26.2665
 11
-25.8561
 21
-26.2317
  0
LINE
  8
0
 10
-25.8561
 20
-26.2317
 11
-25.9069
 21
-26.1948
  0
LINE
  8
0
 10
-25.9069
 20
-26.1948
 11
-25.9561
 21
-26.1558
  0
LINE
  8
0
 10
-25.9561
 20
-26.1558
 11
-26.0037
 21
-26.1147
  0
LINE
  8
0
 10
-26.0037
 20
-26.1147
 11
-26.0495
 21
-26.0717
  0
LINE
  8
0
 10
-26.0495
 20
-26.0717
 11
-26.0934
 21
-26.0268
  0
LINE
  8
0
 10
-26.0934
 20
-26.0268
 11
-26.1355
 21
-25.9801
  0
LINE
  8
0
 10
-26.1355
 20
-25.9801
 11
-26.1755
 21
-25.9317
  0
LINE
  8
0
 10
-26.1755
 20
-25.9317
 11
-26.2135
 21
-25.8817
  0
LINE
  8
0
 10
-26.2135
 20
-25.8817
 11
-26.2494
 21
-25.8301
  0
LINE
  8
0
 10
-26.2494
 20
-25.8301
 11
-26.283
 21
-25.777
  0
LINE
  8
0
 10
-26.283
 20
-25.777
 11
-26.3145
 21
-25.7226
  0
LINE
  8
0
 10
-26.3145
 20
-25.7226
 11
-26.3436
 21
-25.6669
  0
LINE
  8
0
 10
-26.3436
 20
-25.6669
 11
-26.3703
 21
-25.6101
  0
LINE
  8
0
 10
-26.3703
 20
-25.6101
 11
-26.3947
 21
-25.5522
  0
LINE
  8
0
 10
-26.3947
 20
-25.5522
 11
-26.4165
 21
-25.4933
  0
LINE
  8
0
 10
-26.4165
 20
-25.4933
 11
-26.436
 21
-25.4335
  0
LINE
  8
0
 10
-26.436
 20
-25.4335
 11
-26.4529
 21
-25.373
  0
LINE
  8
0
 10
-26.4529
 20
-25.373
 11
-26.4672
 21
-25.3119
  0
LINE
  8
0
 10
-26.4672
 20
-25.3119
 11
-26.479
 21
-25.2502
  0
LINE
  8
0
 10
-26.479
 20
-25.2502
 11
-26.4882
 21
-25.188
  0
LINE
  8
0
 10
-26.4882
 20
-25.188
 11
-26.4947
 21
-25.1255
  0
LINE
  8
0
 10
-26.4947
 20
-25.1255
 11
-26.4987
 21
-25.0628
  0
LINE
  8
0
 10
-26.4987
 20
-25.0628
 11
-26.5
 21
-25
  0
LINE
  8
0
 10
-26.5
 20
-25
 11
-26.4987
 21
-24.9372
  0
LINE
  8
0
 10
-26.4987
 20
-24.9372
 11
-26.4947
 21
-24.8745
  0
LINE
  8
0
 10
-26.4947
 20
-24.8745
 11
-26.4882
 21
-24.812
  0
LINE
  8
0
 10
-26.4882
 20
-24.812
 11
-26.479
 21
-24.7498
  0
LINE
  8
0
 10
-26.479
 20
-24.7498
 11
-26.4672
 21
-24.6881
  0
LINE
  8
0
 10
-26.4672
 20
-24.6881
 11
-26.4529
 21
-24.627
  0
LINE
  8
0
 10
-26.4529
 20
-24.627
 11
-26.436
 21
-24.5665
  0
LINE
  8
0
 10
-26.436
 20
-24.5665
 11
-26.4165
 21
-24.5067
  0
LINE
  8
0
 10
-26.4165
 20
-24.5067
 11
-26.3947
 21
-24.4478
  0
LINE
  8
0
 10
-26.3947
 20
-24.4478
 11
-26.3703
 21
-24.3899
  0
LINE
  8
0
 10
-26.3703
 20
-24.3899
 11
-26.3436
 21
-24.333
  0
LINE
  8
0
 10
-26.3436
 20
-24.333
 11
-26.3145
 21
-24.2774
  0
LINE
  8
0
 10
-26.3145
 20
-24.2774
 11
-26.283
 21
-24.2229
  0
LINE
  8
0
 10
-26.283
 20
-24.2229
 11
-26.2494
 21
-24.1699
  0
LINE
  8
0
 10
-26.2494
 20
-24.1699
 11
-26.2135
 21
-24.1183
  0
LINE
  8
0
 10
-26.2135
 20
-24.1183
 11
-26.1755
 21
-24.0683
  0
LINE
  8
0
 10
-26.1755
 20
-24.0683
 11
-26.1355
 21
-24.0199
  0
LINE
  8
0
 10
-26.1355
 20
-24.0199
 11
-26.0934
 21
-23.9732
  0
LINE
  8
0
 10
-26.0934
 20
-23.9732
 11
-26.0495
 21
-23.9283
  0
LINE
  8
0
 10
-26.0495
 20
-23.9283
 11
-26.0037
 21
-23.8853
  0
LINE
  8
0
 10
-26.0037
 20
-23.8853
 11
-25.9561
 21
-23.8442
  0
LINE
  8
0
 10
-25.9561
 20
-23.8442
 11
-25.9069
 21
-23.8052
  0
LINE
  8
0
 10
-25.9069
 20
-23.8052
 11
-25.8561
 21
-23.7683
  0
LINE
  8
0
 10
-25.8561
 20
-23.7683
 11
-25.8037
 21
-23.7335
  0
LINE
  8
0
 10
-25.8037
 20
-23.7335
 11
-25.75
 21
-23.701
  0
LINE
  8
0
 10
-25.75
 20
-23.701
 11
-25.6949
 21
-23.6707
  0
LINE
  8
0
 10
-25.6949
 20
-23.6707
 11
-25.6387
 21
-23.6427
  0
LINE
  8
0
 10
-25.6387
 20
-23.6427
 11
-25.5813
 21
-23.6172
  0
LINE
  8
0
 10
-25.5813
 20
-23.6172
 11
-25.5229
 21
-23.5941
  0
LINE
  8
0
 10
-25.5229
 20
-23.5941
 11
-25.4635
 21
-23.5734
  0
LINE
  8
0
 10
-25.4635
 20
-23.5734
 11
-25.4034
 21
-23.5553
  0
LINE
  8
0
 10
-25.4034
 20
-23.5553
 11
-25.3425
 21
-23.5396
  0
LINE
  8
0
 10
-25.3425
 20
-23.5396
 11
-25.2811
 21
-23.5266
  0
LINE
  8
0
 10
-25.2811
 20
-23.5266
 11
-25.2191
 21
-23.5161
  0
LINE
  8
0
 10
-25.2191
 20
-23.5161
 11
-25.1568
 21
-23.5082
  0
LINE
  8
0
 10
-25.1568
 20
-23.5082
 11
-25.0942
 21
-23.5029
  0
LINE
  8
0
 10
-25.0942
 20
-23.5029
 11
-25.0314
 21
-23.5003
  0
LINE
  8
0
 10
-25.0314
 20
-23.5003
 11
-24.9686
 21
-23.5003
  0
LINE
  8
0
 10
-24.9686
 20
-23.5003
 11
-24.9058
 21
-23.5029
  0
LINE
  8
0
 10
-24.9058
 20
-23.5029
 11
-24.8432
 21
-23.5082
  0
LINE
  8
0
 10
-24.8432
 20
-23.5082
 11
-24.7809
 21
-23.5161
  0
LINE
  8
0
 10
-24.7809
 20
-23.5161
 11
-24.7189
 21
-23.5266
  0
LINE
  8
0
 10
-24.7189
 20
-23.5266
 11
-24.6575
 21
-23.5396
  0
LINE
  8
0
 10
-24.6575
 20
-23.5396
 11
-24.5966
 21
-23.5553
  0
LINE
  8
0
 10
-24.5966
 20
-23.5553
 11
-24.5365
 21
-23.5734
  0
LINE
  8
0
 10
-24.5365
 20
-23.5734
 11
-24.4771
 21
-23.5941
  0
LINE
  8
0
 10
-24.4771
 20
-23.5941
 11
-24.4187
 21
-23.6172
  0
LINE
  8
0
 10
-24.4187
 20
-23.6172
 11
-24.3613
 21
-23.6427
  0
LINE
  8
0
 10
-24.3613
 20
-23.6427
 11
-24.3051
 21
-23.6707
  0
LINE
  8
0
 10
-24.3051
 20
-23.6707
 11
-24.25
 21
-23.701
  0
LINE
  8
0
 10
-24.25
 20
-23.701
 11
-24.1963
 21
-23.7335
  0
LINE
  8
0
 10
-24.1963
 20
-23.7335
 11
-24.1439
 21
-23.7683
  0
LINE
  8
0
 10
-24.1439
 20
-23.7683
 11
-24.0931
 21
-23.8052
  0
LINE
  8
0
 10
-24.0931
 20
-23.8052
 11
-24.0439
 21
-23.8442
  0
LINE
  8
0
 10
-24.0439
 20
-23.8442
 11
-23.9963
 21
-23.8853
  0
LINE
  8
0
 10
-23.9963
 20
-23.8853
 11
-23.9505
 21
-23.9283
  0
LINE
  8
0
 10
-23.9505
 20
-23.9283
 11
-23.9065
 21
-23.9732
  0
LINE
  8
0
 10
-23.9065
 20
-23.9732
 11
-23.8645
 21
-24.0199
  0
LINE
  8
0
 10
-23.8645
 20
-24.0199
 11
-23.8244
 21
-24.0683
  0
LINE
  8
0
 10
-23.8244
 20
-24.0683
 11
-23.7865
 21
-24.1183
  0
LINE
  8
0
 10
-23.7865
 20
-24.1183
 11
-23.7506
 21
-24.1699
  0
LINE
  8
0
 10
-23.7506
 20
-24.1699
 11
-23.7169
 21
-24.2229
  0
LINE
  8
0
 10
-23.7169
 20
-24.2229
 11
-23.6855
 21
-24.2774
  0
LINE
  8
0
 10
-23.6855
 20
-24.2774
 11
-23.6564
 21
-24.333
  0
LINE
  8
0
 10
-23.6564
 20
-24.333
 11
-23.6297
 21
-24.3899
  0
LINE
  8
0
 10
-23.6297
 20
-24.3899
 11
-23.6053
 21
-24.4478
  0
LINE
  8
0
 10
-23.6053
 20
-24.4478
 11
-23.5834
 21
-24.5067
  0
LINE
  8
0
 10
-23.5834
 20
-24.5067
 11
-23.564
 21
-24.5665
  0
LINE
  8
0
 10
-23.564
 20
-24.5665
 11
-23.5471
 21
-24.627
  0
LINE
  8
0
 10
-23.5471
 20
-24.627
 11
-23.5328
 21
-24.6881
  0
LINE
  8
0
 10
-23.5328
 20
-24.6881
 11
-23.521
 21
-24.7498
  0
LINE
  8
0
 10
-23.521
 20
-24.7498
 11
-23.5118
 21
-24.812
  0
LINE
  8
0
 10
-23.5118
 20
-24.812
 11
-23.5052
 21
-24.8745
  0
LINE
  8
0
 10
-23.5052
 20
-24.8745
 11
-23.5013
 21
-24.9372
  0
LINE
  8
0
 10
-23.5013
 20
-24.9372
 11
-23.5
 21
-25
  0
LINE
  8
0
 10
-23.5
 20
-25
 11
-23.5013
 21
-25.0628
  0
LINE
  8
0
 10
-23.5013
 20
-25.0628
 11
-23.5052
 21
-25.1255
  0
LINE
  8
0
 10
-23.5052
 20
-25.1255
 11
-23.5118
 21
-25.188
  0
LINE
  8
0
 10
-23.5118
 20
-25.188
 11
-23.521
 21
-25.2502
  0
LINE
  8
0
 10
-23.521
 20
-25.2502
 11
-23.5328
 21
-25.3119
  0
LINE
  8
0
 10
-23.5328
 20
-25.3119
 11
-23.5471
 21
-25.373
  0
LINE
  8
0
 10
-23.5471
 20
-25.373
 11
-23.564
 21
-25.4335
  0
LINE
  8
0
 10
-23.564
 20
-25.4335
 11
-23.5834
 21
-25.4933
  0
LINE
  8
0
 10
-23.5834
 20
-25.4933
 11
-23.6053
 21
-25.5522
  0
LINE
  8
0
 10
-23.6053
 20
-25.5522
 11
-23.6297
 21
-25.6101
  0
LINE
  8
0
 10
-23.6297
 20
-25.6101
 11
-23.6564
 21
-25.6669
  0
LINE
  8
0
 10
-23.6564
 20
-25.6669
 11
-23.6855
 21
-25.7226
  0
LINE
  8
0
 10
-23.6855
 20
-25.7226
 11
-23.7169
 21
-25.777
  0
LINE
  8
0
 10
-23.7169
 20
-25.777
 11
-23.7506
 21
-25.8301
  0
LINE
  8
0
 10
-23.7506
 20
-25.8301
 11
-23.7865
 21
-25.8817
  0
LINE
  8
0
 10
-23.7865
 20
-25.8817
 11
-23.8244
 21
-25.9317
  0
LINE
  8
0
 10
-23.8244
 20
-25.9317
 11
-23.8645
 21
-25.9801
  0
LINE
  8
0
 10
-23.8645
 20
-25.9801
 11
-23.9065
 21
-26.0268
  0
LINE
  8
0
 10
-23.9065
 20
-26.0268
 11
-23.9505
 21
-26.0717
  0
LINE
  8
0
 10
-23.9505
 20
-26.0717
 11
-23.9963
 21
-26.1147
  0
LINE
  8
0
 10
-23.9963
 20
-26.1147
 11
-24.0439
 21
-26.1558
  0
LINE
  8
0
 10
-24.0439
 20
-26.1558
 11
-24.0931
 21
-26.1948
  0
LINE
  8
0
 10
-24.0931
 20
-26.1948
 11
-24.1439
 21
-26.2317
  0
LINE
  8
0
 10
-24.1439
 20
-26.2317
 11
-24.1963
 21
-26.2665
  0
LINE
  8
0
 10
-24.1963
 20
-26.2665
 11
-24.25
 21
-26.299
  0
LINE
  8
0
 10
-24.25
 20
-26.299
 11
-24.3051
 21
-26.3293
  0
LINE
  8
0
 10
-24.3051
 20
-26.3293
 11
-24.3613
 21
-26.3572
  0
LINE
  8
0
 10
-24.3613
 20
-26.3572
 11
-24.4187
 21
-26.3828
  0
LINE
  8
0
 10
-24.4187
 20
-26.3828
 11
-24.4771
 21
-26.4059
  0
LINE
  8
0
 10
-24.4771
 20
-26.4059
 11
-24.5365
 21
-26.4266
  0
LINE
  8
0
 10
-24.5365
 20
-26.4266
 11
-24.5966
 21
-26.4447
  0
LINE
  8
0
 10
-24.5966
 20
-26.4447
 11
-24.6575
 21
-26.4604
  0
LINE
  8
0
 10
-24.6575
 20
-26.4604
 11
-24.7189
 21
-26.4734
  0
LINE
  8
0
 10
-24.7189
 20
-26.4734
 11
-24.7809
 21
-26.4839
  0
LINE
  8
0
 10
-24.7809
 20
-26.4839
 11
-24.8432
 21
-26.4918
  0
LINE
  8
0
 10
-24.8432
 20
-26.4918
 11
-24.9058
 21
-26.497
  0
LINE
  8
0
 10
-24.9058
 20
-26.497
 11
-24.9686
 21
-26.4997
  0
LINE
  8
0
 10
-24.9686
 20
-26.4997
 11
-25.0314
 21
-26.4997
  0
LINE
  8
0
 10
24.9686
 20
-26.4997
 11
24.9058
 21
-26.497
  0
LINE
  8
0
 10
24.9058
 20
-26.497
 11
24.8432
 21
-26.4918
  0
LINE
  8
0
 10
24.8432
 20
-26.4918
 11
24.7809
 21
-26.4839
  0
LINE
  8
0
 10
24.7809
 20
-26.4839
 11
24.7189
 21
-26.4734
  0
LINE
  8
0
 10
24.7189
 20
-26.4734
 11
24.6575
 21
-26.4604
  0
LINE
  8
0
 10
24.6575
 20
-26.4604
 11
24.5966
 21
-26.4447
  0
LINE
  8
0
 10
24.5966
 20
-26.4447
 11
24.5365
 21
-26.4266
  0
LINE
  8
0
 10
24.5365
 20
-26.4266
 11
24.4771
 21
-26.4059
  0
LINE
  8
0
 10
24.4771
 20
-26.4059
 11
24.4187
 21
-26.3828
  0
LINE
  8
0
 10
24.4187
 20
-26.3828
 11
24.3613
 21
-26.3572
  0
LINE
  8
0
 10
24.3613
 20
-26.3572
 11
24.3051
 21
-26.3293
  0
LINE
  8
0
 10
24.3051
 20
-26.3293
 11
24.25
 21
-26.299
  0
LINE
  8
0
 10
24.25
 20
-26.299
 11
24.1963
 21
-26.2665
  0
LINE
  8
0
 10
24.1963
 20
-26.2665
 11
24.1439
 21
-26.2317
  0
LINE
  8
0
 10
24.1439
 20
-26.2317
 11
24.0931
 21
-26.1948
  0
LINE
  8
0
 10
24.0931
 20
-26.1948
 11
24.0439
 21
-26.1558
  0
LINE
  8
0
 10
24.0439
 20
-26.1558
 11
23.9963
 21
-26.1147
  0
LINE
  8
0
 10
23.9963
 20
-26.1147
 11
23.9505
 21
-26.0717
  0
LINE
  8
0
 10
23.9505
 20
-26.0717
 11
23.9065
 21
-26.0268
  0
LINE
  8
0
 10
23.9065
 20
-26.0268
 11
23.8645
 21
-25.9801
  0
LINE
  8
0
 10
23.8645
 20
-25.9801
 11
23.8244
 21
-25.9317
  0
LINE
  8
0
 10
23.8244
 20
-25.9317
 11
23.7865
 21
-25.8817
  0
LINE
  8
0
 10
23.7865
 20
-25.8817
 11
23.7506
 21
-25.8301
  0
LINE
  8
0
 10
23.7506
 20
-25.8301
 11
23.7169
 21
-25.777
  0
LINE
  8
0
 10
23.7169
 20
-25.777
 11
23.6855
 21
-25.7226
  0
LINE
  8
0
 10
23.6855
 20
-25.7226
 11
23.6564
 21
-25.6669
  0
LINE
  8
0
 10
23.6564
 20
-25.6669
 11
23.6297
 21
-25.6101
  0
LINE
  8
0
 10
23.6297
 20
-25.6101
 11
23.6053
 21
-25.5522
  0
LINE
  8
0
 10
23.6053
 20
-25.5522
 11
23.5834
 21
-25.4933
  0
LINE
  8
0
 10
23.5834
 20
-25.4933
 11
23.564
 21
-25.4335
  0
LINE
  8
0
 10
23.564
 20
-25.4335
 11
23.5471
 21
-25.373
  0
LINE
  8
0
 10
23.5471
 20
-25.373
 11
23.5328
 21
-25.3119
  0
LINE
  8
0
 10
23.5328
 20
-25.3119
 11
23.521
 21
-25.2502
  0
LINE
  8
0
 10
23.521
 20
-25.2502
 11
23.5118
 21
-25.188
  0
LINE
  8
0
 10
23.5118
 20
-25.188
 11
23.5052
 21
-25.1255
  0
LINE
  8
0
 10
23.5052
 20
-25.1255
 11
23.5013
 21
-25.0628
  0
LINE
  8
0
 10
23.5013
 20
-25.0628
 11
23.5
 21
-25
  0
LINE
  8
0
 10
23.5
 20
-25
 11
23.5013
 21
-24.9372
  0
LINE
  8
0
 10
23.5013
 20
-24.9372
 11
23.5052
 21
-24.8745
  0
LINE
  8
0
 10
23.5052
 20
-24.8745
 11
23.5118
 21
-24.812
  0
LINE
  8
0
 10
23.5118
 20
-24.812
 11
23.521
 21
-24.7498
  0
LINE
  8
0
 10
23.521
 20
-24.7498
 11
23.5328
 21
-24.6881
  0
LINE
  8
0
 10
23.5328
 20
-24.6881
 11
23.5471
 21
-24.627
  0
LINE
  8
0
 10
23.5471
 20
-24.627
 11
23.564
 21
-24.5665
  0
LINE
  8
0
 10
23.564
 20
-24.5665
 11
23.5834
 21
-24.5067
  0
LINE
  8
0
 10
23.5834
 20
-24.5067
 11
23.6053
 21
-24.4478
  0
LINE
  8
0
 10
23.6053
 20
-24.4478
 11
23.6297
 21
-24.3899
  0
LINE
  8
0
 10
23.6297
 20
-24.3899
 11
23.6564
 21
-24.333
  0
LINE
  8
0
 10
23.6564
 20
-24.333
 11
23.6855
 21
-24.2774
  0
LINE
  8
0
 10
23.6855
 20
-24.2774
 11
23.7169
 21
-24.2229
  0
LINE
  8
0
 10
23.7169
 20
-24.2229
 11
23.7506
 21
-24.1699
  0
LINE
  8
0
 10
23.7506
 20
-24.1699
 11
23.7865
 21
-24.1183
  0
LINE
  8
0
 10
23.7865
 20
-24.1183
 11
23.8244
 21
-24.0683
  0
LINE
  8
0
 10
23.8244
 20
-24.0683
 11
23.8645
 21
-24.0199
  0
LINE
  8
0
 10
23.8645
 20
-24.0199
 11
23.9065
 21
-23.9732
  0
LINE
  8
0
 10
23.9065
 20
-23.9732
 11
23.9505
 21
-23.9283
  0
LINE
  8
0
 10
23.9505
 20
-23.9283
 11
23.9963
 21
-23.8853
  0
LINE
  8
0
 10
23.9963
 20
-23.8853
 11
24.0439
 21
-23.8442
  0
LINE
  8
0
 10
24.0439
 20
-23.8442
 11
24.0931
 21
-23.8052
  0
LINE
  8
0
 10
24.0931
 20
-23.8052
 11
24.1439
 21
-23.7683
  0
LINE
  8
0
 10
24.1439
 20
-23.7683
 11
24.1963
 21
-23.7335
  0
LINE
  8
0
 10
24.1963
 20
-23.7335
 11
24.25
 21
-23.701
  0
LINE
  8
0
 10
24.25
 20
-23.701
 11
24.3051
 21
-23.6707
  0
LINE
  8
0
 10
24.3051
 20
-23.6707
 11
24.3613
 21
-23.6427
  0
LINE
  8
0
 10
24.3613
 20
-23.6427
 11
24.4187
 21
-23.6172
  0
LINE
  8
0
 10
24.4187
 20
-23.6172
 11
24.4771
 21
-23.5941
  0
LINE
  8
0
 10
24.4771
 20
-23.5941
 11
24.5365
 21
-23.5734
  0
LINE
  8
0
 10
24.5365
 20
-23.5734
 11
24.5966
 21
-23.5553
  0
LINE
  8
0
 10
24.5966
 20
-23.5553
 11
24.6575
 21
-23.5396
  0
LINE
  8
0
 10
24.6575
 20
-23.5396
 11
24.7189
 21
-23.5266
  0
LINE
  8
0
 10
24.7189
 20
-23.5266
 11
24.7809
 21
-23.5161
  0
LINE
  8
0
 10
24.7809
 20
-23.5161
 11
24.8432
 21
-23.5082
  0
LINE
  8
0
 10
24.8432
 20
-23.5082
 11
24.9058
 21
-23.5029
  0
LINE
  8
0
 10
24.9058
 20
-23.5029
 11
24.9686
 21
-23.5003
  0
LINE
  8
0
 10
24.9686
 20
-23.5003
 11
25.0314
 21
-23.5003
  0
LINE
  8
0
 10
25.0314
 20
-23.5003
 11
25.0942
 21
-23.5029
  0
LINE
  8
0
 10
25.0942
 20
-23.5029
 11
25.1568
 21
-23.5082
  0
LINE
  8
0
 10
25.1568
 20
-23.5082
 11
25.2191
 21
-23.5161
  0
LINE
  8
0
 10
25.2191
 20
-23.5161
 11
25.2811
 21
-23.5266
  0
LINE
  8
0
 10
25.2811
 20
-23.5266
 11
25.3425
 21
-23.5396
  0
LINE
  8
0
 10
25.3425
 20
-23.5396
 11
25.4034
 21
-23.5553
  0
LINE
  8
0
 10
25.4034
 20
-23.5553
 11
25.4635
 21
-23.5734
  0
LINE
  8
0
 10
25.4635
 20
-23.5734
 11
25.5229
 21
-23.5941
  0
LINE
  8
0
 10
25.5229
 20
-23.5941
 11
25.5813
 21
-23.6172
  0
LINE
  8
0
 10
25.5813
 20
-23.6172
 11
25.6387
 21
-23.6427
  0
LINE
  8
0
 10
25.6387
 20
-23.6427
 11
25.6949
 21
-23.6707
  0
LINE
  8
0
 10
25.6949
 20
-23.6707
 11
25.75
 21
-23.701
  0
LINE
  8
0
 10
25.75
 20
-23.701
 11
25.8037
 21
-23.7335
  0
LINE
  8
0
 10
25.8037
 20
-23.7335
 11
25.8561
 21
-23.7683
  0
LINE
  8
0
 10
25.8561
 20
-23.7683
 11
25.9069
 21
-23.8052
  0
LINE
  8
0
 10
25.9069
 20
-23.8052
 11
25.9561
 21
-23.8442
  0
LINE
  8
0
 10
25.9561
 20
-23.8442
 11
26.0037
 21
-23.8853
  0
LINE
  8
0
 10
26.0037
 20
-23.8853
 11
26.0495
 21
-23.9283
  0
LINE
  8
0
 10
26.0495
 20
-23.9283
 11
26.0934
 21
-23.9732
  0
LINE
  8
0
 10
26.0934
 20
-23.9732
 11
26.1355
 21
-24.0199
  0
LINE
  8
0
 10
26.1355
 20
-24.0199
 11
26.1755
 21
-24.0683
  0
LINE
  8
0
 10
26.1755
 20
-24.0683
 11
26.2135
 21
-24.1183
  0
LINE
  8
0
 10
26.2135
 20
-24.1183
 11
26.2494
 21
-24.1699
  0
LINE
  8
0
 10
26.2494
 20
-24.1699
 11
26.283
 21
-24.2229
  0
LINE
  8
0
 10
26.283
 20
-24.2229
 11
26.3145
 21
-24.2774
  0
LINE
  8
0
 10
26.3145
 20
-24.2774
 11
26.3436
 21
-24.333
  0
LINE
  8
0
 10
26.3436
 20
-24.333
 11
26.3703
 21
-24.3899
  0
LINE
  8
0
 10
26.3703
 20
-24.3899
 11
26.3947
 21
-24.4478
  0
LINE
  8
0
 10
26.3947
 20
-24.4478
 11
26.4165
 21
-24.5067
  0
LINE
  8
0
 10
26.4165
 20
-24.5067
 11
26.436
 21
-24.5665
  0
LINE
  8
0
 10
26.436
 20
-24.5665
 11
26.4529
 21
-24.627
  0
LINE
  8
0
 10
26.4529
 20
-24.627
 11
26.4672
 21
-24.6881
  0
LINE
  8
0
 10
26.4672
 20
-24.6881
 11
26.479
 21
-24.7498
  0
LINE
  8
0
 10
26.479
 20
-24.7498
 11
26.4882
 21
-24.812
  0
LINE
  8
0
 10
26.4882
 20
-24.812
 11
26.4947
 21
-24.8745
  0
LINE
  8
0
 10
26.4947
 20
-24.8745
 11
26.4987
 21
-24.9372
  0
LINE
  8
0
 10
26.4987
 20
-24.9372
 11
26.5
 21
-25
  0
LINE
  8
0
 10
26.5
 20
-25
 11
26.4987
 21
-25.0628
  0
LINE
  8
0
 10
26.4987
 20
-25.0628
 11
26.4947
 21
-25.1255
  0
LINE
  8
0
 10
26.4947
 20
-25.1255
 11
26.4882
 21
-25.188
  0
LINE
  8
0
 10
26.4882
 20
-25.188
 11
26.479
 21
-25.2502
  0
LINE
  8
0
 10
26.479
 20
-25.2502
 11
26.4672
 21
-25.3119
  0
LINE
  8
0
 10
26.4672
 20
-25.3119
 11
26.4529
 21
-25.373
  0
LINE
  8
0
 10
26.4529
 20
-25.373
 11
26.436
 21
-25.4335
  0
LINE
  8
0
 10
26.436
 20
-25.4335
 11
26.4165
 21
-25.4933
  0
LINE
  8
0
 10
26.4165
 20
-25.4933
 11
26.3947
 21
-25.5522
  0
LINE
  8
0
 10
26.3947
 20
-25.5522
 11
26.3703
 21
-25.6101
  0
LINE
  8
0
 10
26.3703
 20
-25.6101
 11
26.3436
 21
-25.6669
  0
LINE
  8
0
 10
26.3436
 20
-25.6669
 11
26.3145
 21
-25.7226
  0
LINE
  8
0
 10
26.3145
 20
-25.7226
 11
26.283
 21
-25.777
  0
LINE
  8
0
 10
26.283
 20
-25.777
 11
26.2494
 21
-25.8301
  0
LINE
  8
0
 10
26.2494
 20
-25.8301
 11
26.2135
 21
-25.8817
  0
LINE
  8
0
 10
26.2135
 20
-25.8817
 11
26.1755
 21
-25.9317
  0
LINE
  8
0
 10
26.1755
 20
-25.9317
 11
26.1355
 21
-25.9801
  0
LINE
  8
0
 10
26.1355
 20
-25.9801
 11
26.0934
 21
-26.0268
  0
LINE
  8
0
 10
26.0934
 20
-26.0268
 11
26.0495
 21
-26.0717
  0
LINE
  8
0
 10
26.0495
 20
-26.0717
 11
26.0037
 21
-26.1147
  0
LINE
  8
0
 10
26.0037
 20
-26.1147
 11
25.9561
 21
-26.1558
  0
LINE
  8
0
 10
25.9561
 20
-26.1558
 11
25.9069
 21
-26.1948
  0
LINE
  8
0
 10
25.9069
 20
-26.1948
 11
25.8561
 21
-26.2317
  0
LINE
  8
0
 10
25.8561
 20
-26.2317
 11
25.8037
 21
-26.2665
  0
LINE
  8
0
 10
25.8037
 20
-26.2665
 11
25.75
 21
-26.299
  0
LINE
  8
0
 10
25.75
 20
-26.299
 11
25.6949
 21
-26.3293
  0
LINE
  8
0
 10
25.6949
 20
-26.3293
 11
25.6387
 21
-26.3572
  0
LINE
  8
0
 10
25.6387
 20
-26.3572
 11
25.5813
 21
-26.3828
  0
LINE
  8
0
 10
25.5813
 20
-26.3828
 11
25.5229
 21
-26.4059
  0
LINE
  8
0
 10
25.5229
 20
-26.4059
 11
25.4635
 21
-26.4266
  0
LINE
  8
0
 10
25.4635
 20
-26.4266
 11
25.4034
 21
-26.4447
  0
LINE
  8
0
 10
25.4034
 20
-26.4447
 11
25.3425
 21
-26.4604
  0
LINE
  8
0
 10
25.3425
 20
-26.4604
 11
25.2811
 21
-26.4734
  0
LINE
  8
0
 10
25.2811
 20
-26.4734
 11
25.2191
 21
-26.4839
  0
LINE
  8
0
 10
25.2191
 20
-26.4839
 11
25.1568
 21
-26.4918
  0
LINE
  8
0
 10
25.1568
 20
-26.4918
 11
25.0942
 21
-26.497
  0
LINE
  8
0
 10
25.0942
 20
-26.497
 11
25.0314
 21
-26.4997
  0
LINE
  8
0
 10
25.0314
 20
-26.4997
 11
24.9686
 21
-26.4997
  0
LINE
  8
0
 10
38.3955
 20
-25.4945
 11
38.191
 21
-25.451
  0
LINE
  8
0
 10
38.191
 20
-25.451
 11
38
 21
-25.366
  0
LINE
  8
0
 10
38
 20
-25.366
 11
37.8309
 21
-25.2431
  0
LINE
  8
0
 10
37.8309
 20
-25.2431
 11
37.691
 21
-25.0878
  0
LINE
  8
0
 10
37.691
 20
-25.0878
 11
37.5864
 21
-24.9067
  0
LINE
  8
0
 10
37.5864
 20
-24.9067
 11
37.5219
 21
-24.7079
  0
LINE
  8
0
 10
37.5219
 20
-24.7079
 11
37.5
 21
-24.5
  0
LINE
  8
0
 10
37.5
 20
-24.5
 11
37.5219
 21
-24.2921
  0
LINE
  8
0
 10
37.5219
 20
-24.2921
 11
37.5864
 21
-24.0933
  0
LINE
  8
0
 10
37.5864
 20
-24.0933
 11
37.691
 21
-23.9122
  0
LINE
  8
0
 10
37.691
 20
-23.9122
 11
37.8309
 21
-23.7569
  0
LINE
  8
0
 10
37.8309
 20
-23.7569
 11
38
 21
-23.634
  0
LINE
  8
0
 10
38
 20
-23.634
 11
38.191
 21
-23.5489
  0
LINE
  8
0
 10
38.191
 20
-23.5489
 11
38.3955
 21
-23.5055
  0
LINE
  8
0
 10
38.3955
 20
-23.5055
 11
38.6045
 21
-23.5055
  0
LINE
  8
0
 10
38.6045
 20
-23.5055
 11
38.809
 21
-23.5489
  0
LINE
  8
0
 10
38.809
 20
-23.5489
 11
39
 21
-23.634
  0
LINE
  8
0
 10
39
 20
-23.634
 11
39.1691
 21
-23.7569
  0
LINE
  8
0
 10
39.1691
 20
-23.7569
 11
39.309
 21
-23.9122
  0
LINE
  8
0
 10
39.309
 20
-23.9122
 11
39.4135
 21
-24.0933
  0
LINE
  8
0
 10
39.4135
 20
-24.0933
 11
39.4781
 21
-24.2921
  0
LINE
  8
0
 10
39.4781
 20
-24.2921
 11
39.5
 21
-24.5
  0
LINE
  8
0
 10
39.5
 20
-24.5
 11
39.4781
 21
-24.7079
  0
LINE
  8
0
 10
39.4781
 20
-24.7079
 11
39.4135
 21
-24.9067
  0
LINE
  8
0
 10
39.4135
 20
-24.9067
 11
39.309
 21
-25.0878
  0
LINE
  8
0
 10
39.309
 20
-25.0878
 11
39.1691
 21
-25.2431
  0
LINE
  8
0
 10
39.1691
 20
-25.2431
 11
39
 21
-25.366
  0
LINE
  8
0
 10
39
 20
-25.366
 11
38.809
 21
-25.451
  0
LINE
  8
0
 10
38.809
 20
-25.451
 11
38.6045
 21
-25.4945
  0
LINE
  8
0
 10
38.6045
 20
-25.4945
 11
38.3955
 21
-25.4945
  0
ENDSEC
  0
SECTION
  2
OBJECTS
  0
DICTIONARY
  0
ENDSEC
  0
EOF
