  0
SECTION
  2
BLOCKS
  0
ENDSEC
  0
SECTION
  2
ENTITIES
  0
LINE
  8
0
 10
3.5526
 20
-56.4671
 11
5.91408
 21
-56.2688
  0
LINE
  8
0
 10
5.91408
 20
-56.2688
 11
8.26518
 21
-55.9718
  0
LINE
  8
0
 10
8.26518
 20
-55.9718
 11
10.6018
 21
-55.5766
  0
LINE
  8
0
 10
10.6018
 20
-55.5766
 11
12.9198
 21
-55.0839
  0
LINE
  8
0
 10
12.9198
 20
-55.0839
 11
15.2151
 21
-54.4945
  0
LINE
  8
0
 10
15.2151
 20
-54.4945
 11
17.4838
 21
-53.8096
  0
LINE
  8
0
 10
17.4838
 20
-53.8096
 11
19.7218
 21
-53.0302
  0
LINE
  8
0
 10
19.7218
 20
-53.0302
 11
21.9251
 21
-52.1579
  0
LINE
  8
0
 10
21.9251
 20
-52.1579
 11
24.0901
 21
-51.194
  0
LINE
  8
0
 10
24.0901
 20
-51.194
 11
26.2127
 21
-50.1403
  0
LINE
  8
0
 10
26.2127
 20
-50.1403
 11
28.2894
 21
-48.9986
  0
LINE
  8
0
 10
28.2894
 20
-48.9986
 11
30.3164
 21
-47.771
  0
LINE
  8
0
 10
30.3164
 20
-47.771
 11
32.2903
 21
-46.4596
  0
LINE
  8
0
 10
32.2903
 20
-46.4596
 11
34.2075
 21
-45.0667
  0
LINE
  8
0
 10
34.2075
 20
-45.0667
 11
36.0647
 21
-43.5947
  0
LINE
  8
0
 10
36.0647
 20
-43.5947
 11
37.8586
 21
-42.0462
  0
LINE
  8
0
 10
37.8586
 20
-42.0462
 11
39.5861
 21
-40.424
  0
LINE
  8
0
 10
39.5861
 20
-40.424
 11
41.2441
 21
-38.7308
  0
LINE
  8
0
 10
41.2441
 20
-38.7308
 11
42.8298
 21
-36.9697
  0
LINE
  8
0
 10
42.8298
 20
-36.9697
 11
44.3404
 21
-35.1438
  0
LINE
  8
0
 10
44.3404
 20
-35.1438
 11
45.7732
 21
-33.2561
  0
LINE
  8
0
 10
45.7732
 20
-33.2561
 11
47.1256
 21
-31.3102
  0
LINE
  8
0
 10
47.1256
 20
-31.3102
 11
48.3954
 21
-29.3093
  0
LINE
  8
0
 10
48.3954
 20
-29.3093
 11
49.5803
 21
-27.257
  0
LINE
  8
0
 10
49.5803
 20
-27.257
 11
50.6782
 21
-25.1569
  0
LINE
  8
0
 10
50.6782
 20
-25.1569
 11
51.6873
 21
-23.0126
  0
LINE
  8
0
 10
51.6873
 20
-23.0126
 11
52.6056
 21
-20.828
  0
LINE
  8
0
 10
52.6056
 20
-20.828
 11
53.4316
 21
-18.6069
  0
LINE
  8
0
 10
53.4316
 20
-18.6069
 11
54.1639
 21
-16.353
  0
LINE
  8
0
 10
54.1639
 20
-16.353
 11
54.8012
 21
-14.0706
  0
LINE
  8
0
 10
54.8012
 20
-14.0706
 11
55.3424
 21
-11.7634
  0
LINE
  8
0
 10
55.3424
 20
-11.7634
 11
55.7864
 21
-9.43556
  0
LINE
  8
0
 10
55.7864
 20
-9.43556
 11
56.1326
 21
-7.09119
  0
LINE
  8
0
 10
56.1326
 20
-7.09119
 11
56.3803
 21
-4.73438
  0
LINE
  8
0
 10
56.3803
 20
-4.73438
 11
56.5291
 21
-2.36926
  0
LINE
  8
0
 10
56.5291
 20
-2.36926
 11
56.5787
 21
0
  0
LINE
  8
0
 10
56.5787
 20
0
 11
56.5291
 21
2.36926
  0
LINE
  8
0
 10
56.5291
 20
2.36926
 11
56.3803
 21
4.73438
  0
LINE
  8
0
 10
56.3803
 20
4.73438
 11
56.1326
 21
7.09119
  0
LINE
  8
0
 10
56.1326
 20
7.09119
 11
55.7864
 21
9.43556
  0
LINE
  8
0
 10
55.7864
 20
9.43556
 11
55.3424
 21
11.7634
  0
LINE
  8
0
 10
55.3424
 20
11.7634
 11
54.8012
 21
14.0706
  0
LINE
  8
0
 10
54.8012
 20
14.0706
 11
54.1639
 21
16.353
  0
LINE
  8
0
 10
54.1639
 20
16.353
 11
53.4316
 21
18.6069
  0
LINE
  8
0
 10
53.4316
 20
18.6069
 11
52.6056
 21
20.828
  0
LINE
  8
0
 10
52.6056
 20
20.828
 11
51.6873
 21
23.0126
  0
LINE
  8
0
 10
51.6873
 20
23.0126
 11
50.6782
 21
25.1569
  0
LINE
  8
0
 10
50.6782
 20
25.1569
 11
49.5803
 21
27.257
  0
LINE
  8
0
 10
49.5803
 20
27.257
 11
48.3954
 21
29.3093
  0
LINE
  8
0
 10
48.3954
 20
29.3093
 11
47.1256
 21
31.3102
  0
LINE
  8
0
 10
47.1256
 20
31.3102
 11
45.7732
 21
33.2561
  0
LINE
  8
0
 10
45.7732
 20
33.2561
 11
44.3404
 21
35.1438
  0
LINE
  8
0
 10
44.3404
 20
35.1438
 11
42.8298
 21
36.9697
  0
LINE
  8
0
 10
42.8298
 20
36.9697
 11
41.2441
 21
38.7308
  0
LINE
  8
0
 10
41.2441
 20
38.7308
 11
39.5861
 21
40.424
  0
LINE
  8
0
 10
39.5861
 20
40.424
 11
37.8586
 21
42.0462
  0
LINE
  8
0
 10
37.8586
 20
42.0462
 11
36.0647
 21
43.5947
  0
LINE
  8
0
 10
36.0647
 20
43.5947
 11
34.2075
 21
45.0667
  0
LINE
  8
0
 10
34.2075
 20
45.0667
 11
32.2903
 21
46.4596
  0
LINE
  8
0
 10
32.2903
 20
46.4596
 11
30.3164
 21
47.771
  0
LINE
  8
0
 10
30.3164
 20
47.771
 11
28.2894
 21
48.9986
  0
LINE
  8
0
 10
28.2894
 20
48.9986
 11
26.2127
 21
50.1403
  0
LINE
  8
0
 10
26.2127
 20
50.1403
 11
24.0901
 21
51.194
  0
LINE
  8
0
 10
24.0901
 20
51.194
 11
21.9251
 21
52.1579
  0
LINE
  8
0
 10
21.9251
 20
52.1579
 11
19.7218
 21
53.0302
  0
LINE
  8
0
 10
19.7218
 20
53.0302
 11
17.4838
 21
53.8096
  0
LINE
  8
0
 10
17.4838
 20
53.8096
 11
15.2151
 21
54.4945
  0
LINE
  8
0
 10
15.2151
 20
54.4945
 11
12.9198
 21
55.0839
  0
LINE
  8
0
 10
12.9198
 20
55.0839
 11
10.6018
 21
55.5766
  0
LINE
  8
0
 10
10.6018
 20
55.5766
 11
8.26518
 21
55.9718
  0
LINE
  8
0
 10
8.26518
 20
55.9718
 11
5.91408
 21
56.2688
  0
LINE
  8
0
 10
5.91408
 20
56.2688
 11
3.5526
 21
56.4671
  0
LINE
  8
0
 10
3.5526
 20
56.4671
 11
1.18489
 21
56.5663
  0
LINE
  8
0
 10
1.18489
 20
56.5663
 11
-1.18489
 21
56.5663
  0
LINE
  8
0
 10
-1.18489
 20
56.5663
 11
-3.5526
 21
56.4671
  0
LINE
  8
0
 10
-3.5526
 20
56.4671
 11
-5.91408
 21
56.2688
  0
LINE
  8
0
 10
-5.91408
 20
56.2688
 11
-8.26518
 21
55.9718
  0
LINE
  8
0
 10
-8.26518
 20
55.9718
 11
-10.6018
 21
55.5766
  0
LINE
  8
0
 10
-10.6018
 20
55.5766
 11
-12.9198
 21
55.0839
  0
LINE
  8
0
 10
-12.9198
 20
55.0839
 11
-15.2151
 21
54.4945
  0
LINE
  8
0
 10
-15.2151
 20
54.4945
 11
-17.4838
 21
53.8096
  0
LINE
  8
0
 10
-17.4838
 20
53.8096
 11
-19.7218
 21
53.0302
  0
LINE
  8
0
 10
-19.7218
 20
53.0302
 11
-21.9251
 21
52.1579
  0
LINE
  8
0
 10
-21.9251
 20
52.1579
 11
-24.0901
 21
51.194
  0
LINE
  8
0
 10
-24.0901
 20
51.194
 11
-26.2127
 21
50.1403
  0
LINE
  8
0
 10
-26.2127
 20
50.1403
 11
-28.2894
 21
48.9986
  0
LINE
  8
0
 10
-28.2894
 20
48.9986
 11
-30.3164
 21
47.771
  0
LINE
  8
0
 10
-30.3164
 20
47.771
 11
-32.2903
 21
46.4596
  0
LINE
  8
0
 10
-32.2903
 20
46.4596
 11
-34.2075
 21
45.0667
  0
LINE
  8
0
 10
-34.2075
 20
45.0667
 11
-36.0647
 21
43.5947
  0
LINE
  8
0
 10
-36.0647
 20
43.5947
 11
-37.8586
 21
42.0462
  0
LINE
  8
0
 10
-37.8586
 20
42.0462
 11
-39.5861
 21
40.424
  0
LINE
  8
0
 10
-39.5861
 20
40.424
 11
-41.2441
 21
38.7308
  0
LINE
  8
0
 10
-41.2441
 20
38.7308
 11
-42.8298
 21
36.9697
  0
LINE
  8
0
 10
-42.8298
 20
36.9697
 11
-44.3404
 21
35.1438
  0
LINE
  8
0
 10
-44.3404
 20
35.1438
 11
-45.7732
 21
33.2561
  0
LINE
  8
0
 10
-45.7732
 20
33.2561
 11
-47.1256
 21
31.3102
  0
LINE
  8
0
 10
-47.1256
 20
31.3102
 11
-48.3954
 21
29.3093
  0
LINE
  8
0
 10
-48.3954
 20
29.3093
 11
-49.5803
 21
27.257
  0
LINE
  8
0
 10
-49.5803
 20
27.257
 11
-50.6782
 21
25.1569
  0
LINE
  8
0
 10
-50.6782
 20
25.1569
 11
-51.6873
 21
23.0126
  0
LINE
  8
0
 10
-51.6873
 20
23.0126
 11
-52.6056
 21
20.828
  0
LINE
  8
0
 10
-52.6056
 20
20.828
 11
-53.4316
 21
18.6069
  0
LINE
  8
0
 10
-53.4316
 20
18.6069
 11
-54.1639
 21
16.353
  0
LINE
  8
0
 10
-54.1639
 20
16.353
 11
-54.8012
 21
14.0706
  0
LINE
  8
0
 10
-54.8012
 20
14.0706
 11
-55.3424
 21
11.7634
  0
LINE
  8
0
 10
-55.3424
 20
11.7634
 11
-55.7864
 21
9.43556
  0
LINE
  8
0
 10
-55.7864
 20
9.43556
 11
-56.1326
 21
7.09119
  0
LINE
  8
0
 10
-56.1326
 20
7.09119
 11
-56.3803
 21
4.73438
  0
LINE
  8
0
 10
-56.3803
 20
4.73438
 11
-56.5291
 21
2.36926
  0
LINE
  8
0
 10
-56.5291
 20
2.36926
 11
-56.5787
 21
0
  0
LINE
  8
0
 10
-56.5787
 20
0
 11
-56.5291
 21
-2.36926
  0
LINE
  8
0
 10
-56.5291
 20
-2.36926
 11
-56.3803
 21
-4.73438
  0
LINE
  8
0
 10
-56.3803
 20
-4.73438
 11
-56.1326
 21
-7.09119
  0
LINE
  8
0
 10
-56.1326
 20
-7.09119
 11
-55.7864
 21
-9.43556
  0
LINE
  8
0
 10
-55.7864
 20
-9.43556
 11
-55.3424
 21
-11.7634
  0
LINE
  8
0
 10
-55.3424
 20
-11.7634
 11
-54.8012
 21
-14.0706
  0
LINE
  8
0
 10
-54.8012
 20
-14.0706
 11
-54.1639
 21
-16.353
  0
LINE
  8
0
 10
-54.1639
 20
-16.353
 11
-53.4316
 21
-18.6069
  0
LINE
  8
0
 10
-53.4316
 20
-18.6069
 11
-52.6056
 21
-20.828
  0
LINE
  8
0
 10
-52.6056
 20
-20.828
 11
-51.6873
 21
-23.0126
  0
LINE
  8
0
 10
-51.6873
 20
-23.0126
 11
-50.6782
 21
-25.1569
  0
LINE
  8
0
 10
-50.6782
 20
-25.1569
 11
-49.5803
 21
-27.257
  0
LINE
  8
0
 10
-49.5803
 20
-27.257
 11
-48.3954
 21
-29.3093
  0
LINE
  8
0
 10
-48.3954
 20
-29.3093
 11
-47.1256
 21
-31.3102
  0
LINE
  8
0
 10
-47.1256
 20
-31.3102
 11
-45.7732
 21
-33.2561
  0
LINE
  8
0
 10
-45.7732
 20
-33.2561
 11
-44.3404
 21
-35.1438
  0
LINE
  8
0
 10
-44.3404
 20
-35.1438
 11
-42.8298
 21
-36.9697
  0
LINE
  8
0
 10
-42.8298
 20
-36.9697
 11
-41.2441
 21
-38.7308
  0
LINE
  8
0
 10
-41.2441
 20
-38.7308
 11
-39.5861
 21
-40.424
  0
LINE
  8
0
 10
-39.5861
 20
-40.424
 11
-37.8586
 21
-42.0462
  0
LINE
  8
0
 10
-37.8586
 20
-42.0462
 11
-36.0647
 21
-43.5947
  0
LINE
  8
0
 10
-36.0647
 20
-43.5947
 11
-34.2075
 21
-45.0667
  0
LINE
  8
0
 10
-34.2075
 20
-45.0667
 11
-32.2903
 21
-46.4596
  0
LINE
  8
0
 10
-32.2903
 20
-46.4596
 11
-30.3164
 21
-47.771
  0
LINE
  8
0
 10
-30.3164
 20
-47.771
 11
-28.2894
 21
-48.9986
  0
LINE
  8
0
 10
-28.2894
 20
-48.9986
 11
-26.2127
 21
-50.1403
  0
LINE
  8
0
 10
-26.2127
 20
-50.1403
 11
-24.0901
 21
-51.194
  0
LINE
  8
0
 10
-24.0901
 20
-51.194
 11
-21.9251
 21
-52.1579
  0
LINE
  8
0
 10
-21.9251
 20
-52.1579
 11
-19.7218
 21
-53.0302
  0
LINE
  8
0
 10
-19.7218
 20
-53.0302
 11
-17.4838
 21
-53.8096
  0
LINE
  8
0
 10
-17.4838
 20
-53.8096
 11
-15.2151
 21
-54.4945
  0
LINE
  8
0
 10
-15.2151
 20
-54.4945
 11
-12.9198
 21
-55.0839
  0
LINE
  8
0
 10
-12.9198
 20
-55.0839
 11
-10.6018
 21
-55.5766
  0
LINE
  8
0
 10
-10.6018
 20
-55.5766
 11
-8.26518
 21
-55.9718
  0
LINE
  8
0
 10
-8.26518
 20
-55.9718
 11
-5.91408
 21
-56.2688
  0
LINE
  8
0
 10
-5.91408
 20
-56.2688
 11
-3.5526
 21
-56.4671
  0
LINE
  8
0
 10
-3.5526
 20
-56.4671
 11
-1.18489
 21
-56.5663
  0
LINE
  8
0
 10
-1.18489
 20
-56.5663
 11
1.18489
 21
-56.5663
  0
LINE
  8
0
 10
1.18489
 20
-56.5663
 11
3.5526
 21
-56.4671
  0
LINE
  8
0
 10
-0.311859
 20
51.2536
 11
-0.610092
 21
51.3506
  0
LINE
  8
0
 10
-0.610092
 20
51.3506
 11
-0.881668
 21
51.5073
  0
LINE
  8
0
 10
-0.881668
 20
51.5073
 11
-1.11472
 21
51.7172
  0
LINE
  8
0
 10
-1.11472
 20
51.7172
 11
-1.29903
 21
51.9709
  0
LINE
  8
0
 10
-1.29903
 20
51.9709
 11
-1.42657
 21
52.2573
  0
LINE
  8
0
 10
-1.42657
 20
52.2573
 11
-1.49178
 21
52.5641
  0
LINE
  8
0
 10
-1.49178
 20
52.5641
 11
-1.49178
 21
52.8777
  0
LINE
  8
0
 10
-1.49178
 20
52.8777
 11
-1.42657
 21
53.1844
  0
LINE
  8
0
 10
-1.42657
 20
53.1844
 11
-1.29903
 21
53.4709
  0
LINE
  8
0
 10
-1.29903
 20
53.4709
 11
-1.11472
 21
53.7246
  0
LINE
  8
0
 10
-1.11472
 20
53.7246
 11
-0.881668
 21
53.9344
  0
LINE
  8
0
 10
-0.881668
 20
53.9344
 11
-0.610092
 21
54.0912
  0
LINE
  8
0
 10
-0.610092
 20
54.0912
 11
-0.311859
 21
54.1881
  0
LINE
  8
0
 10
-0.311859
 20
54.1881
 11
0
 21
54.2209
  0
LINE
  8
0
 10
0
 20
54.2209
 11
0.311859
 21
54.1881
  0
LINE
  8
0
 10
0.311859
 20
54.1881
 11
0.610092
 21
54.0912
  0
LINE
  8
0
 10
0.610092
 20
54.0912
 11
0.881668
 21
53.9344
  0
LINE
  8
0
 10
0.881668
 20
53.9344
 11
1.11472
 21
53.7246
  0
LINE
  8
0
 10
1.11472
 20
53.7246
 11
1.29903
 21
53.4709
  0
LINE
  8
0
 10
1.29903
 20
53.4709
 11
1.42657
 21
53.1844
  0
LINE
  8
0
 10
1.42657
 20
53.1844
 11
1.49178
 21
52.8777
  0
LINE
  8
0
 10
1.49178
 20
52.8777
 11
1.49178
 21
52.5641
  0
LINE
  8
0
 10
1.49178
 20
52.5641
 11
1.42657
 21
52.2573
  0
LINE
  8
0
 10
1.42657
 20
52.2573
 11
1.29903
 21
51.9709
  0
LINE
  8
0
 10
1.29903
 20
51.9709
 11
1.11472
 21
51.7172
  0
LINE
  8
0
 10
1.11472
 20
51.7172
 11
0.881668
 21
51.5073
  0
LINE
  8
0
 10
0.881668
 20
51.5073
 11
0.610092
 21
51.3506
  0
LINE
  8
0
 10
0.610092
 20
51.3506
 11
0.311859
 21
51.2536
  0
LINE
  8
0
 10
0.311859
 20
51.2536
 11
0
 21
51.2209
  0
LINE
  8
0
 10
0
 20
51.2209
 11
-0.311859
 21
51.2536
  0
LINE
  8
0
 10
-6.89357
 20
14.4866
 11
-7.13538
 21
14.5271
  0
LINE
  8
0
 10
-7.13538
 20
14.5271
 11
-7.3692
 21
14.6008
  0
LINE
  8
0
 10
-7.3692
 20
14.6008
 11
-7.5905
 21
14.7064
  0
LINE
  8
0
 10
-7.5905
 20
14.7064
 11
-7.79494
 21
14.8417
  0
LINE
  8
0
 10
-7.79494
 20
14.8417
 11
-7.97856
 21
15.0042
  0
LINE
  8
0
 10
-7.97856
 20
15.0042
 11
-23.0037
 21
30.6986
  0
LINE
  8
0
 10
-23.0037
 20
30.6986
 11
-23.9325
 21
31.7861
  0
LINE
  8
0
 10
-23.9325
 20
31.7861
 11
-24.701
 21
32.9923
  0
LINE
  8
0
 10
-24.701
 20
32.9923
 11
-25.2941
 21
34.2937
  0
LINE
  8
0
 10
-25.2941
 20
34.2937
 11
-25.7003
 21
35.665
  0
LINE
  8
0
 10
-25.7003
 20
35.665
 11
-25.9117
 21
37.0795
  0
LINE
  8
0
 10
-25.9117
 20
37.0795
 11
-25.9241
 21
38.5096
  0
LINE
  8
0
 10
-25.9241
 20
38.5096
 11
-25.7375
 21
39.9276
  0
LINE
  8
0
 10
-25.7375
 20
39.9276
 11
-25.3553
 21
41.3057
  0
LINE
  8
0
 10
-25.3553
 20
41.3057
 11
-24.785
 21
42.6173
  0
LINE
  8
0
 10
-24.785
 20
42.6173
 11
-24.0377
 21
43.8367
  0
LINE
  8
0
 10
-24.0377
 20
43.8367
 11
-23.128
 21
44.9403
  0
LINE
  8
0
 10
-23.128
 20
44.9403
 11
-22.0735
 21
45.9065
  0
LINE
  8
0
 10
-22.0735
 20
45.9065
 11
-20.8949
 21
46.7166
  0
LINE
  8
0
 10
-20.8949
 20
46.7166
 11
-19.615
 21
47.3547
  0
LINE
  8
0
 10
-19.615
 20
47.3547
 11
-18.2587
 21
47.8085
  0
LINE
  8
0
 10
-18.2587
 20
47.8085
 11
-16.8524
 21
48.0692
  0
LINE
  8
0
 10
-16.8524
 20
48.0692
 11
-15.4236
 21
48.1316
  0
LINE
  8
0
 10
-15.4236
 20
48.1316
 11
-14
 21
47.9945
  0
LINE
  8
0
 10
-14
 20
47.9945
 11
-12.6094
 21
47.6606
  0
LINE
  8
0
 10
-12.6094
 20
47.6606
 11
-11.2787
 21
47.1364
  0
LINE
  8
0
 10
-11.2787
 20
47.1364
 11
-10.0339
 21
46.4322
  0
LINE
  8
0
 10
-10.0339
 20
46.4322
 11
-8.89928
 21
45.5615
  0
LINE
  8
0
 10
-8.89928
 20
45.5615
 11
-7.89684
 21
44.5415
  0
LINE
  8
0
 10
-7.89684
 20
44.5415
 11
-7.04613
 21
43.3918
  0
LINE
  8
0
 10
-7.04613
 20
43.3918
 11
-6.36371
 21
42.1349
  0
LINE
  8
0
 10
-6.36371
 20
42.1349
 11
-5.86284
 21
40.7953
  0
LINE
  8
0
 10
-5.86284
 20
40.7953
 11
-5.5533
 21
39.399
  0
LINE
  8
0
 10
-5.5533
 20
39.399
 11
-5.44109
 21
37.9733
  0
LINE
  8
0
 10
-5.44109
 20
37.9733
 11
-4.96783
 21
16.2512
  0
LINE
  8
0
 10
-4.96783
 20
16.2512
 11
-4.9828
 21
16.0065
  0
LINE
  8
0
 10
-4.9828
 20
16.0065
 11
-5.03168
 21
15.7663
  0
LINE
  8
0
 10
-5.03168
 20
15.7663
 11
-5.11353
 21
15.5352
  0
LINE
  8
0
 10
-5.11353
 20
15.5352
 11
-5.22673
 21
15.3177
  0
LINE
  8
0
 10
-5.22673
 20
15.3177
 11
-5.36911
 21
15.1181
  0
LINE
  8
0
 10
-5.36911
 20
15.1181
 11
-5.53787
 21
14.9402
  0
LINE
  8
0
 10
-5.53787
 20
14.9402
 11
-5.72975
 21
14.7876
  0
LINE
  8
0
 10
-5.72975
 20
14.7876
 11
-5.94099
 21
14.6632
  0
LINE
  8
0
 10
-5.94099
 20
14.6632
 11
-6.16751
 21
14.5694
  0
LINE
  8
0
 10
-6.16751
 20
14.5694
 11
-6.40488
 21
14.508
  0
LINE
  8
0
 10
-6.40488
 20
14.508
 11
-6.64847
 21
14.4802
  0
LINE
  8
0
 10
-6.64847
 20
14.4802
 11
-6.89357
 21
14.4866
  0
LINE
  8
0
 10
6.40488
 20
14.508
 11
6.16751
 21
14.5694
  0
LINE
  8
0
 10
6.16751
 20
14.5694
 11
5.94099
 21
14.6632
  0
LINE
  8
0
 10
5.94099
 20
14.6632
 11
5.72975
 21
14.7876
  0
LINE
  8
0
 10
5.72975
 20
14.7876
 11
5.53787
 21
14.9402
  0
LINE
  8
0
 10
5.53787
 20
14.9402
 11
5.36911
 21
15.1181
  0
LINE
  8
0
 10
5.36911
 20
15.1181
 11
5.22673
 21
15.3177
  0
LINE
  8
0
 10
5.22673
 20
15.3177
 11
5.11353
 21
15.5352
  0
LINE
  8
0
 10
5.11353
 20
15.5352
 11
5.03168
 21
15.7663
  0
LINE
  8
0
 10
5.03168
 20
15.7663
 11
4.9828
 21
16.0065
  0
LINE
  8
0
 10
4.9828
 20
16.0065
 11
4.96783
 21
16.2512
  0
LINE
  8
0
 10
4.96783
 20
16.2512
 11
5.44109
 21
37.9733
  0
LINE
  8
0
 10
5.44109
 20
37.9733
 11
5.5533
 21
39.399
  0
LINE
  8
0
 10
5.5533
 20
39.399
 11
5.86284
 21
40.7953
  0
LINE
  8
0
 10
5.86284
 20
40.7953
 11
6.36371
 21
42.1349
  0
LINE
  8
0
 10
6.36371
 20
42.1349
 11
7.04613
 21
43.3918
  0
LINE
  8
0
 10
7.04613
 20
43.3918
 11
7.89684
 21
44.5415
  0
LINE
  8
0
 10
7.89684
 20
44.5415
 11
8.89928
 21
45.5615
  0
LINE
  8
0
 10
8.89928
 20
45.5615
 11
10.0339
 21
46.4322
  0
LINE
  8
0
 10
10.0339
 20
46.4322
 11
11.2787
 21
47.1364
  0
LINE
  8
0
 10
11.2787
 20
47.1364
 11
12.6094
 21
47.6606
  0
LINE
  8
0
 10
12.6094
 20
47.6606
 11
14
 21
47.9945
  0
LINE
  8
0
 10
14
 20
47.9945
 11
15.4236
 21
48.1316
  0
LINE
  8
0
 10
15.4236
 20
48.1316
 11
16.8524
 21
48.0692
  0
LINE
  8
0
 10
16.8524
 20
48.0692
 11
18.2587
 21
47.8085
  0
LINE
  8
0
 10
18.2587
 20
47.8085
 11
19.615
 21
47.3547
  0
LINE
  8
0
 10
19.615
 20
47.3547
 11
20.8949
 21
46.7166
  0
LINE
  8
0
 10
20.8949
 20
46.7166
 11
22.0735
 21
45.9065
  0
LINE
  8
0
 10
22.0735
 20
45.9065
 11
23.128
 21
44.9403
  0
LINE
  8
0
 10
23.128
 20
44.9403
 11
24.0377
 21
43.8367
  0
LINE
  8
0
 10
24.0377
 20
43.8367
 11
24.785
 21
42.6173
  0
LINE
  8
0
 10
24.785
 20
42.6173
 11
25.3553
 21
41.3057
  0
LINE
  8
0
 10
25.3553
 20
41.3057
 11
25.7375
 21
39.9276
  0
LINE
  8
0
 10
25.7375
 20
39.9276
 11
25.9241
 21
38.5096
  0
LINE
  8
0
 10
25.9241
 20
38.5096
 11
25.9117
 21
37.0795
  0
LINE
  8
0
 10
25.9117
 20
37.0795
 11
25.7003
 21
35.665
  0
LINE
  8
0
 10
25.7003
 20
35.665
 11
25.2941
 21
34.2937
  0
LINE
  8
0
 10
25.2941
 20
34.2937
 11
24.701
 21
32.9923
  0
LINE
  8
0
 10
24.701
 20
32.9923
 11
23.9325
 21
31.7861
  0
LINE
  8
0
 10
23.9325
 20
31.7861
 11
23.0037
 21
30.6986
  0
LINE
  8
0
 10
23.0037
 20
30.6986
 11
7.97856
 21
15.0042
  0
LINE
  8
0
 10
7.97856
 20
15.0042
 11
7.79494
 21
14.8417
  0
LINE
  8
0
 10
7.79494
 20
14.8417
 11
7.5905
 21
14.7064
  0
LINE
  8
0
 10
7.5905
 20
14.7064
 11
7.3692
 21
14.6008
  0
LINE
  8
0
 10
7.3692
 20
14.6008
 11
7.13538
 21
14.5271
  0
LINE
  8
0
 10
7.13538
 20
14.5271
 11
6.89357
 21
14.4866
  0
LINE
  8
0
 10
6.89357
 20
14.4866
 11
6.64847
 21
14.4802
  0
LINE
  8
0
 10
6.64847
 20
14.4802
 11
6.40488
 21
14.508
  0
LINE
  8
0
 10
37.0446
 20
35.7977
 11
36.7417
 21
35.8789
  0
LINE
  8
0
 10
36.7417
 20
35.8789
 11
36.4623
 21
36.0213
  0
LINE
  8
0
 10
36.4623
 20
36.0213
 11
36.2186
 21
36.2186
  0
LINE
  8
0
 10
36.2186
 20
36.2186
 11
36.0213
 21
36.4623
  0
LINE
  8
0
 10
36.0213
 20
36.4623
 11
35.8789
 21
36.7417
  0
LINE
  8
0
 10
35.8789
 20
36.7417
 11
35.7977
 21
37.0446
  0
LINE
  8
0
 10
35.7977
 20
37.0446
 11
35.7813
 21
37.3578
  0
LINE
  8
0
 10
35.7813
 20
37.3578
 11
35.8304
 21
37.6675
  0
LINE
  8
0
 10
35.8304
 20
37.6675
 11
35.9428
 21
37.9603
  0
LINE
  8
0
 10
35.9428
 20
37.9603
 11
36.1136
 21
38.2233
  0
LINE
  8
0
 10
36.1136
 20
38.2233
 11
36.3353
 21
38.445
  0
LINE
  8
0
 10
36.3353
 20
38.445
 11
36.5983
 21
38.6158
  0
LINE
  8
0
 10
36.5983
 20
38.6158
 11
36.8911
 21
38.7282
  0
LINE
  8
0
 10
36.8911
 20
38.7282
 11
37.2008
 21
38.7772
  0
LINE
  8
0
 10
37.2008
 20
38.7772
 11
37.5139
 21
38.7608
  0
LINE
  8
0
 10
37.5139
 20
38.7608
 11
37.8168
 21
38.6797
  0
LINE
  8
0
 10
37.8168
 20
38.6797
 11
38.0962
 21
38.5373
  0
LINE
  8
0
 10
38.0962
 20
38.5373
 11
38.3399
 21
38.3399
  0
LINE
  8
0
 10
38.3399
 20
38.3399
 11
38.5373
 21
38.0962
  0
LINE
  8
0
 10
38.5373
 20
38.0962
 11
38.6797
 21
37.8168
  0
LINE
  8
0
 10
38.6797
 20
37.8168
 11
38.7608
 21
37.5139
  0
LINE
  8
0
 10
38.7608
 20
37.5139
 11
38.7772
 21
37.2008
  0
LINE
  8
0
 10
38.7772
 20
37.2008
 11
38.7282
 21
36.8911
  0
LINE
  8
0
 10
38.7282
 20
36.8911
 11
38.6158
 21
36.5983
  0
LINE
  8
0
 10
38.6158
 20
36.5983
 11
38.445
 21
36.3353
  0
LINE
  8
0
 10
38.445
 20
36.3353
 11
38.2233
 21
36.1136
  0
LINE
  8
0
 10
38.2233
 20
36.1136
 11
37.9603
 21
35.9428
  0
LINE
  8
0
 10
37.9603
 20
35.9428
 11
37.6675
 21
35.8304
  0
LINE
  8
0
 10
37.6675
 20
35.8304
 11
37.3578
 21
35.7813
  0
LINE
  8
0
 10
37.3578
 20
35.7813
 11
37.0446
 21
35.7977
  0
LINE
  8
0
 10
-37.6675
 20
35.8304
 11
-37.9603
 21
35.9428
  0
LINE
  8
0
 10
-37.9603
 20
35.9428
 11
-38.2233
 21
36.1136
  0
LINE
  8
0
 10
-38.2233
 20
36.1136
 11
-38.445
 21
36.3353
  0
LINE
  8
0
 10
-38.445
 20
36.3353
 11
-38.6158
 21
36.5983
  0
LINE
  8
0
 10
-38.6158
 20
36.5983
 11
-38.7282
 21
36.8911
  0
LINE
  8
0
 10
-38.7282
 20
36.8911
 11
-38.7772
 21
37.2008
  0
LINE
  8
0
 10
-38.7772
 20
37.2008
 11
-38.7608
 21
37.5139
  0
LINE
  8
0
 10
-38.7608
 20
37.5139
 11
-38.6797
 21
37.8168
  0
LINE
  8
0
 10
-38.6797
 20
37.8168
 11
-38.5373
 21
38.0962
  0
LINE
  8
0
 10
-38.5373
 20
38.0962
 11
-38.3399
 21
38.3399
  0
LINE
  8
0
 10
-38.3399
 20
38.3399
 11
-38.0962
 21
38.5373
  0
LINE
  8
0
 10
-38.0962
 20
38.5373
 11
-37.8168
 21
38.6797
  0
LINE
  8
0
 10
-37.8168
 20
38.6797
 11
-37.5139
 21
38.7608
  0
LINE
  8
0
 10
-37.5139
 20
38.7608
 11
-37.2008
 21
38.7772
  0
LINE
  8
0
 10
-37.2008
 20
38.7772
 11
-36.8911
 21
38.7282
  0
LINE
  8
0
 10
-36.8911
 20
38.7282
 11
-36.5983
 21
38.6158
  0
LINE
  8
0
 10
-36.5983
 20
38.6158
 11
-36.3353
 21
38.445
  0
LINE
  8
0
 10
-36.3353
 20
38.445
 11
-36.1136
 21
38.2233
  0
LINE
  8
0
 10
-36.1136
 20
38.2233
 11
-35.9428
 21
37.9603
  0
LINE
  8
0
 10
-35.9428
 20
37.9603
 11
-35.8304
 21
37.6675
  0
LINE
  8
0
 10
-35.8304
 20
37.6675
 11
-35.7813
 21
37.3578
  0
LINE
  8
0
 10
-35.7813
 20
37.3578
 11
-35.7977
 21
37.0446
  0
LINE
  8
0
 10
-35.7977
 20
37.0446
 11
-35.8789
 21
36.7417
  0
LINE
  8
0
 10
-35.8789
 20
36.7417
 11
-36.0213
 21
36.4623
  0
LINE
  8
0
 10
-36.0213
 20
36.4623
 11
-36.2186
 21
36.2186
  0
LINE
  8
0
 10
-36.2186
 20
36.2186
 11
-36.4623
 21
36.0213
  0
LINE
  8
0
 10
-36.4623
 20
36.0213
 11
-36.7417
 21
35.8789
  0
LINE
  8
0
 10
-36.7417
 20
35.8789
 11
-37.0446
 21
35.7977
  0
LINE
  8
0
 10
-37.0446
 20
35.7977
 11
-37.3578
 21
35.7813
  0
LINE
  8
0
 10
-37.3578
 20
35.7813
 11
-37.6675
 21
35.8304
  0
LINE
  8
0
 10
-37.9733
 20
5.44109
 11
-39.399
 21
5.5533
  0
LINE
  8
0
 10
-39.399
 20
5.5533
 11
-40.7953
 21
5.86284
  0
LINE
  8
0
 10
-40.7953
 20
5.86284
 11
-42.1349
 21
6.36371
  0
LINE
  8
0
 10
-42.1349
 20
6.36371
 11
-43.3918
 21
7.04613
  0
LINE
  8
0
 10
-43.3918
 20
7.04613
 11
-44.5415
 21
7.89684
  0
LINE
  8
0
 10
-44.5415
 20
7.89684
 11
-45.5615
 21
8.89928
  0
LINE
  8
0
 10
-45.5615
 20
8.89928
 11
-46.4322
 21
10.0339
  0
LINE
  8
0
 10
-46.4322
 20
10.0339
 11
-47.1364
 21
11.2787
  0
LINE
  8
0
 10
-47.1364
 20
11.2787
 11
-47.6606
 21
12.6094
  0
LINE
  8
0
 10
-47.6606
 20
12.6094
 11
-47.9945
 21
14
  0
LINE
  8
0
 10
-47.9945
 20
14
 11
-48.1316
 21
15.4236
  0
LINE
  8
0
 10
-48.1316
 20
15.4236
 11
-48.0692
 21
16.8524
  0
LINE
  8
0
 10
-48.0692
 20
16.8524
 11
-47.8085
 21
18.2587
  0
LINE
  8
0
 10
-47.8085
 20
18.2587
 11
-47.3547
 21
19.615
  0
LINE
  8
0
 10
-47.3547
 20
19.615
 11
-46.7166
 21
20.8949
  0
LINE
  8
0
 10
-46.7166
 20
20.8949
 11
-45.9065
 21
22.0735
  0
LINE
  8
0
 10
-45.9065
 20
22.0735
 11
-44.9403
 21
23.128
  0
LINE
  8
0
 10
-44.9403
 20
23.128
 11
-43.8367
 21
24.0377
  0
LINE
  8
0
 10
-43.8367
 20
24.0377
 11
-42.6173
 21
24.785
  0
LINE
  8
0
 10
-42.6173
 20
24.785
 11
-41.3057
 21
25.3553
  0
LINE
  8
0
 10
-41.3057
 20
25.3553
 11
-39.9276
 21
25.7375
  0
LINE
  8
0
 10
-39.9276
 20
25.7375
 11
-38.5096
 21
25.9241
  0
LINE
  8
0
 10
-38.5096
 20
25.9241
 11
-37.0795
 21
25.9117
  0
LINE
  8
0
 10
-37.0795
 20
25.9117
 11
-35.665
 21
25.7003
  0
LINE
  8
0
 10
-35.665
 20
25.7003
 11
-34.2937
 21
25.2941
  0
LINE
  8
0
 10
-34.2937
 20
25.2941
 11
-32.9923
 21
24.701
  0
LINE
  8
0
 10
-32.9923
 20
24.701
 11
-31.7861
 21
23.9325
  0
LINE
  8
0
 10
-31.7861
 20
23.9325
 11
-30.6986
 21
23.0037
  0
LINE
  8
0
 10
-30.6986
 20
23.0037
 11
-15.0042
 21
7.97856
  0
LINE
  8
0
 10
-15.0042
 20
7.97856
 11
-14.8417
 21
7.79494
  0
LINE
  8
0
 10
-14.8417
 20
7.79494
 11
-14.7064
 21
7.5905
  0
LINE
  8
0
 10
-14.7064
 20
7.5905
 11
-14.6008
 21
7.3692
  0
LINE
  8
0
 10
-14.6008
 20
7.3692
 11
-14.5271
 21
7.13538
  0
LINE
  8
0
 10
-14.5271
 20
7.13538
 11
-14.4866
 21
6.89357
  0
LINE
  8
0
 10
-14.4866
 20
6.89357
 11
-14.4802
 21
6.64847
  0
LINE
  8
0
 10
-14.4802
 20
6.64847
 11
-14.508
 21
6.40488
  0
LINE
  8
0
 10
-14.508
 20
6.40488
 11
-14.5694
 21
6.16751
  0
LINE
  8
0
 10
-14.5694
 20
6.16751
 11
-14.6632
 21
5.94099
  0
LINE
  8
0
 10
-14.6632
 20
5.94099
 11
-14.7876
 21
5.72975
  0
LINE
  8
0
 10
-14.7876
 20
5.72975
 11
-14.9402
 21
5.53787
  0
LINE
  8
0
 10
-14.9402
 20
5.53787
 11
-15.1181
 21
5.36911
  0
LINE
  8
0
 10
-15.1181
 20
5.36911
 11
-15.3177
 21
5.22673
  0
LINE
  8
0
 10
-15.3177
 20
5.22673
 11
-15.5352
 21
5.11353
  0
LINE
  8
0
 10
-15.5352
 20
5.11353
 11
-15.7663
 21
5.03168
  0
LINE
  8
0
 10
-15.7663
 20
5.03168
 11
-16.0065
 21
4.9828
  0
LINE
  8
0
 10
-16.0065
 20
4.9828
 11
-16.2512
 21
4.96783
  0
LINE
  8
0
 10
-16.2512
 20
4.96783
 11
-37.9733
 21
5.44109
  0
LINE
  8
0
 10
16.0065
 20
4.9828
 11
15.7663
 21
5.03168
  0
LINE
  8
0
 10
15.7663
 20
5.03168
 11
15.5352
 21
5.11353
  0
LINE
  8
0
 10
15.5352
 20
5.11353
 11
15.3177
 21
5.22673
  0
LINE
  8
0
 10
15.3177
 20
5.22673
 11
15.1181
 21
5.36911
  0
LINE
  8
0
 10
15.1181
 20
5.36911
 11
14.9402
 21
5.53787
  0
LINE
  8
0
 10
14.9402
 20
5.53787
 11
14.7876
 21
5.72975
  0
LINE
  8
0
 10
14.7876
 20
5.72975
 11
14.6632
 21
5.94099
  0
LINE
  8
0
 10
14.6632
 20
5.94099
 11
14.5694
 21
6.16751
  0
LINE
  8
0
 10
14.5694
 20
6.16751
 11
14.508
 21
6.40488
  0
LINE
  8
0
 10
14.508
 20
6.40488
 11
14.4802
 21
6.64847
  0
LINE
  8
0
 10
14.4802
 20
6.64847
 11
14.4866
 21
6.89357
  0
LINE
  8
0
 10
14.4866
 20
6.89357
 11
14.5271
 21
7.13538
  0
LINE
  8
0
 10
14.5271
 20
7.13538
 11
14.6008
 21
7.3692
  0
LINE
  8
0
 10
14.6008
 20
7.3692
 11
14.7064
 21
7.5905
  0
LINE
  8
0
 10
14.7064
 20
7.5905
 11
14.8417
 21
7.79494
  0
LINE
  8
0
 10
14.8417
 20
7.79494
 11
15.0042
 21
7.97856
  0
LINE
  8
0
 10
15.0042
 20
7.97856
 11
30.6986
 21
23.0037
  0
LINE
  8
0
 10
30.6986
 20
23.0037
 11
31.7861
 21
23.9325
  0
LINE
  8
0
 10
31.7861
 20
23.9325
 11
32.9923
 21
24.701
  0
LINE
  8
0
 10
32.9923
 20
24.701
 11
34.2937
 21
25.2941
  0
LINE
  8
0
 10
34.2937
 20
25.2941
 11
35.665
 21
25.7003
  0
LINE
  8
0
 10
35.665
 20
25.7003
 11
37.0795
 21
25.9117
  0
LINE
  8
0
 10
37.0795
 20
25.9117
 11
38.5096
 21
25.9241
  0
LINE
  8
0
 10
38.5096
 20
25.9241
 11
39.9276
 21
25.7375
  0
LINE
  8
0
 10
39.9276
 20
25.7375
 11
41.3057
 21
25.3553
  0
LINE
  8
0
 10
41.3057
 20
25.3553
 11
42.6173
 21
24.785
  0
LINE
  8
0
 10
42.6173
 20
24.785
 11
43.8367
 21
24.0377
  0
LINE
  8
0
 10
43.8367
 20
24.0377
 11
44.9403
 21
23.128
  0
LINE
  8
0
 10
44.9403
 20
23.128
 11
45.9065
 21
22.0735
  0
LINE
  8
0
 10
45.9065
 20
22.0735
 11
46.7166
 21
20.8949
  0
LINE
  8
0
 10
46.7166
 20
20.8949
 11
47.3547
 21
19.615
  0
LINE
  8
0
 10
47.3547
 20
19.615
 11
47.8085
 21
18.2587
  0
LINE
  8
0
 10
47.8085
 20
18.2587
 11
48.0692
 21
16.8524
  0
LINE
  8
0
 10
48.0692
 20
16.8524
 11
48.1316
 21
15.4236
  0
LINE
  8
0
 10
48.1316
 20
15.4236
 11
47.9945
 21
14
  0
LINE
  8
0
 10
47.9945
 20
14
 11
47.6606
 21
12.6094
  0
LINE
  8
0
 10
47.6606
 20
12.6094
 11
47.1364
 21
11.2787
  0
LINE
  8
0
 10
47.1364
 20
11.2787
 11
46.4322
 21
10.0339
  0
LINE
  8
0
 10
46.4322
 20
10.0339
 11
45.5615
 21
8.89928
  0
LINE
  8
0
 10
45.5615
 20
8.89928
 11
44.5415
 21
7.89684
  0
LINE
  8
0
 10
44.5415
 20
7.89684
 11
43.3918
 21
7.04613
  0
LINE
  8
0
 10
43.3918
 20
7.04613
 11
42.1349
 21
6.36371
  0
LINE
  8
0
 10
42.1349
 20
6.36371
 11
40.7953
 21
5.86284
  0
LINE
  8
0
 10
40.7953
 20
5.86284
 11
39.399
 21
5.5533
  0
LINE
  8
0
 10
39.399
 20
5.5533
 11
37.9733
 21
5.44109
  0
LINE
  8
0
 10
37.9733
 20
5.44109
 11
16.2512
 21
4.96783
  0
LINE
  8
0
 10
16.2512
 20
4.96783
 11
16.0065
 21
4.9828
  0
LINE
  8
0
 10
-0.311859
 20
10.3196
 11
-0.610092
 21
10.4165
  0
LINE
  8
0
 10
-0.610092
 20
10.4165
 11
-0.881668
 21
10.5733
  0
LINE
  8
0
 10
-0.881668
 20
10.5733
 11
-1.11472
 21
10.7831
  0
LINE
  8
0
 10
-1.11472
 20
10.7831
 11
-1.29903
 21
11.0368
  0
LINE
  8
0
 10
-1.29903
 20
11.0368
 11
-1.42657
 21
11.3233
  0
LINE
  8
0
 10
-1.42657
 20
11.3233
 11
-1.49178
 21
11.63
  0
LINE
  8
0
 10
-1.49178
 20
11.63
 11
-1.49178
 21
11.9436
  0
LINE
  8
0
 10
-1.49178
 20
11.9436
 11
-1.42657
 21
12.2503
  0
LINE
  8
0
 10
-1.42657
 20
12.2503
 11
-1.29903
 21
12.5368
  0
LINE
  8
0
 10
-1.29903
 20
12.5368
 11
-1.11472
 21
12.7905
  0
LINE
  8
0
 10
-1.11472
 20
12.7905
 11
-0.881668
 21
13.0003
  0
LINE
  8
0
 10
-0.881668
 20
13.0003
 11
-0.610092
 21
13.1571
  0
LINE
  8
0
 10
-0.610092
 20
13.1571
 11
-0.311859
 21
13.254
  0
LINE
  8
0
 10
-0.311859
 20
13.254
 11
0
 21
13.2868
  0
LINE
  8
0
 10
0
 20
13.2868
 11
0.311859
 21
13.254
  0
LINE
  8
0
 10
0.311859
 20
13.254
 11
0.610092
 21
13.1571
  0
LINE
  8
0
 10
0.610092
 20
13.1571
 11
0.881668
 21
13.0003
  0
LINE
  8
0
 10
0.881668
 20
13.0003
 11
1.11472
 21
12.7905
  0
LINE
  8
0
 10
1.11472
 20
12.7905
 11
1.29903
 21
12.5368
  0
LINE
  8
0
 10
1.29903
 20
12.5368
 11
1.42657
 21
12.2503
  0
LINE
  8
0
 10
1.42657
 20
12.2503
 11
1.49178
 21
11.9436
  0
LINE
  8
0
 10
1.49178
 20
11.9436
 11
1.49178
 21
11.63
  0
LINE
  8
0
 10
1.49178
 20
11.63
 11
1.42657
 21
11.3233
  0
LINE
  8
0
 10
1.42657
 20
11.3233
 11
1.29903
 21
11.0368
  0
LINE
  8
0
 10
1.29903
 20
11.0368
 11
1.11472
 21
10.7831
  0
LINE
  8
0
 10
1.11472
 20
10.7831
 11
0.881668
 21
10.5733
  0
LINE
  8
0
 10
0.881668
 20
10.5733
 11
0.610092
 21
10.4165
  0
LINE
  8
0
 10
0.610092
 20
10.4165
 11
0.311859
 21
10.3196
  0
LINE
  8
0
 10
0.311859
 20
10.3196
 11
0
 21
10.2868
  0
LINE
  8
0
 10
0
 20
10.2868
 11
-0.311859
 21
10.3196
  0
LINE
  8
0
 10
-0.522629
 20
-4.9726
 11
-1.03955
 21
-4.89073
  0
LINE
  8
0
 10
-1.03955
 20
-4.89073
 11
-1.54507
 21
-4.75528
  0
LINE
  8
0
 10
-1.54507
 20
-4.75528
 11
-2.03368
 21
-4.56772
  0
LINE
  8
0
 10
-2.03368
 20
-4.56772
 11
-2.5
 21
-4.33012
  0
LINE
  8
0
 10
-2.5
 20
-4.33012
 11
-2.93892
 21
-4.04507
  0
LINE
  8
0
 10
-2.93892
 20
-4.04507
 11
-3.34564
 21
-3.71571
  0
LINE
  8
0
 10
-3.34564
 20
-3.71571
 11
-3.71571
 21
-3.34564
  0
LINE
  8
0
 10
-3.71571
 20
-3.34564
 11
-4.04507
 21
-2.93892
  0
LINE
  8
0
 10
-4.04507
 20
-2.93892
 11
-4.33012
 21
-2.49998
  0
LINE
  8
0
 10
-4.33012
 20
-2.49998
 11
-4.56772
 21
-2.03368
  0
LINE
  8
0
 10
-4.56772
 20
-2.03368
 11
-4.75528
 21
-1.54507
  0
LINE
  8
0
 10
-4.75528
 20
-1.54507
 11
-4.89073
 21
-1.03955
  0
LINE
  8
0
 10
-4.89073
 20
-1.03955
 11
-4.9726
 21
-0.522629
  0
LINE
  8
0
 10
-4.9726
 20
-0.522629
 11
-5
 21
0
  0
LINE
  8
0
 10
-5
 20
0
 11
-4.9726
 21
0.522629
  0
LINE
  8
0
 10
-4.9726
 20
0.522629
 11
-4.89073
 21
1.03955
  0
LINE
  8
0
 10
-4.89073
 20
1.03955
 11
-4.75528
 21
1.54507
  0
LINE
  8
0
 10
-4.75528
 20
1.54507
 11
-4.56772
 21
2.03368
  0
LINE
  8
0
 10
-4.56772
 20
2.03368
 11
-4.33012
 21
2.49998
  0
LINE
  8
0
 10
-4.33012
 20
2.49998
 11
-4.04507
 21
2.93892
  0
LINE
  8
0
 10
-4.04507
 20
2.93892
 11
-3.71571
 21
3.34564
  0
LINE
  8
0
 10
-3.71571
 20
3.34564
 11
-3.34564
 21
3.71571
  0
LINE
  8
0
 10
-3.34564
 20
3.71571
 11
-2.93892
 21
4.04507
  0
LINE
  8
0
 10
-2.93892
 20
4.04507
 11
-2.49998
 21
4.33012
  0
LINE
  8
0
 10
-2.49998
 20
4.33012
 11
-2.03368
 21
4.56772
  0
LINE
  8
0
 10
-2.03368
 20
4.56772
 11
-1.54507
 21
4.75528
  0
LINE
  8
0
 10
-1.54507
 20
4.75528
 11
-1.03955
 21
4.89073
  0
LINE
  8
0
 10
-1.03955
 20
4.89073
 11
-0.522629
 21
4.9726
  0
LINE
  8
0
 10
-0.522629
 20
4.9726
 11
0
 21
5
  0
LINE
  8
0
 10
0
 20
5
 11
0.522629
 21
4.9726
  0
LINE
  8
0
 10
0.522629
 20
4.9726
 11
1.03955
 21
4.89073
  0
LINE
  8
0
 10
1.03955
 20
4.89073
 11
1.54507
 21
4.75528
  0
LINE
  8
0
 10
1.54507
 20
4.75528
 11
2.03368
 21
4.56772
  0
LINE
  8
0
 10
2.03368
 20
4.56772
 11
2.5
 21
4.33012
  0
LINE
  8
0
 10
2.5
 20
4.33012
 11
2.93892
 21
4.04507
  0
LINE
  8
0
 10
2.93892
 20
4.04507
 11
3.34564
 21
3.71571
  0
LINE
  8
0
 10
3.34564
 20
3.71571
 11
3.71571
 21
3.34564
  0
LINE
  8
0
 10
3.71571
 20
3.34564
 11
4.04507
 21
2.93892
  0
LINE
  8
0
 10
4.04507
 20
2.93892
 11
4.33012
 21
2.49998
  0
LINE
  8
0
 10
4.33012
 20
2.49998
 11
4.56772
 21
2.03368
  0
LINE
  8
0
 10
4.56772
 20
2.03368
 11
4.75528
 21
1.54507
  0
LINE
  8
0
 10
4.75528
 20
1.54507
 11
4.89073
 21
1.03955
  0
LINE
  8
0
 10
4.89073
 20
1.03955
 11
4.9726
 21
0.522629
  0
LINE
  8
0
 10
4.9726
 20
0.522629
 11
5
 21
0
  0
LINE
  8
0
 10
5
 20
0
 11
4.9726
 21
-0.522629
  0
LINE
  8
0
 10
4.9726
 20
-0.522629
 11
4.89073
 21
-1.03955
  0
LINE
  8
0
 10
4.89073
 20
-1.03955
 11
4.75528
 21
-1.54507
  0
LINE
  8
0
 10
4.75528
 20
-1.54507
 11
4.56772
 21
-2.03368
  0
LINE
  8
0
 10
4.56772
 20
-2.03368
 11
4.33012
 21
-2.49998
  0
LINE
  8
0
 10
4.33012
 20
-2.49998
 11
4.04507
 21
-2.93892
  0
LINE
  8
0
 10
4.04507
 20
-2.93892
 11
3.71571
 21
-3.34564
  0
LINE
  8
0
 10
3.71571
 20
-3.34564
 11
3.34564
 21
-3.71571
  0
LINE
  8
0
 10
3.34564
 20
-3.71571
 11
2.93892
 21
-4.04507
  0
LINE
  8
0
 10
2.93892
 20
-4.04507
 11
2.5
 21
-4.33012
  0
LINE
  8
0
 10
2.5
 20
-4.33012
 11
2.03368
 21
-4.56772
  0
LINE
  8
0
 10
2.03368
 20
-4.56772
 11
1.54507
 21
-4.75528
  0
LINE
  8
0
 10
1.54507
 20
-4.75528
 11
1.03955
 21
-4.89073
  0
LINE
  8
0
 10
1.03955
 20
-4.89073
 11
0.522629
 21
-4.9726
  0
LINE
  8
0
 10
0.522629
 20
-4.9726
 11
0
 21
-5
  0
LINE
  8
0
 10
0
 20
-5
 11
-0.522629
 21
-4.9726
  0
LINE
  8
0
 10
52.5641
 20
-1.49178
 11
52.2573
 21
-1.42657
  0
LINE
  8
0
 10
52.2573
 20
-1.42657
 11
51.9709
 21
-1.29903
  0
LINE
  8
0
 10
51.9709
 20
-1.29903
 11
51.7172
 21
-1.11472
  0
LINE
  8
0
 10
51.7172
 20
-1.11472
 11
51.5073
 21
-0.881668
  0
LINE
  8
0
 10
51.5073
 20
-0.881668
 11
51.3506
 21
-0.610092
  0
LINE
  8
0
 10
51.3506
 20
-0.610092
 11
51.2536
 21
-0.311859
  0
LINE
  8
0
 10
51.2536
 20
-0.311859
 11
51.2209
 21
0
  0
LINE
  8
0
 10
51.2209
 20
0
 11
51.2536
 21
0.311859
  0
LINE
  8
0
 10
51.2536
 20
0.311859
 11
51.3506
 21
0.610092
  0
LINE
  8
0
 10
51.3506
 20
0.610092
 11
51.5073
 21
0.881668
  0
LINE
  8
0
 10
51.5073
 20
0.881668
 11
51.7172
 21
1.11472
  0
LINE
  8
0
 10
51.7172
 20
1.11472
 11
51.9709
 21
1.29903
  0
LINE
  8
0
 10
51.9709
 20
1.29903
 11
52.2573
 21
1.42657
  0
LINE
  8
0
 10
52.2573
 20
1.42657
 11
52.5641
 21
1.49178
  0
LINE
  8
0
 10
52.5641
 20
1.49178
 11
52.8777
 21
1.49178
  0
LINE
  8
0
 10
52.8777
 20
1.49178
 11
53.1844
 21
1.42657
  0
LINE
  8
0
 10
53.1844
 20
1.42657
 11
53.4709
 21
1.29903
  0
LINE
  8
0
 10
53.4709
 20
1.29903
 11
53.7246
 21
1.11472
  0
LINE
  8
0
 10
53.7246
 20
1.11472
 11
53.9344
 21
0.881668
  0
LINE
  8
0
 10
53.9344
 20
0.881668
 11
54.0912
 21
0.610092
  0
LINE
  8
0
 10
54.0912
 20
0.610092
 11
54.1881
 21
0.311859
  0
LINE
  8
0
 10
54.1881
 20
0.311859
 11
54.2209
 21
0
  0
LINE
  8
0
 10
54.2209
 20
0
 11
54.1881
 21
-0.311859
  0
LINE
  8
0
 10
54.1881
 20
-0.311859
 11
54.0912
 21
-0.610092
  0
LINE
  8
0
 10
54.0912
 20
-0.610092
 11
53.9344
 21
-0.881668
  0
LINE
  8
0
 10
53.9344
 20
-0.881668
 11
53.7246
 21
-1.11472
  0
LINE
  8
0
 10
53.7246
 20
-1.11472
 11
53.4709
 21
-1.29903
  0
LINE
  8
0
 10
53.4709
 20
-1.29903
 11
53.1844
 21
-1.42657
  0
LINE
  8
0
 10
53.1844
 20
-1.42657
 11
52.8777
 21
-1.49178
  0
LINE
  8
0
 10
52.8777
 20
-1.49178
 11
52.5641
 21
-1.49178
  0
LINE
  8
0
 10
-52.8777
 20
-1.49178
 11
-53.1844
 21
-1.42657
  0
LINE
  8
0
 10
-53.1844
 20
-1.42657
 11
-53.4709
 21
-1.29903
  0
LINE
  8
0
 10
-53.4709
 20
-1.29903
 11
-53.7246
 21
-1.11472
  0
LINE
  8
0
 10
-53.7246
 20
-1.11472
 11
-53.9344
 21
-0.881668
  0
LINE
  8
0
 10
-53.9344
 20
-0.881668
 11
-54.0912
 21
-0.610092
  0
LINE
  8
0
 10
-54.0912
 20
-0.610092
 11
-54.1881
 21
-0.311859
  0
LINE
  8
0
 10
-54.1881
 20
-0.311859
 11
-54.2209
 21
0
  0
LINE
  8
0
 10
-54.2209
 20
0
 11
-54.1881
 21
0.311859
  0
LINE
  8
0
 10
-54.1881
 20
0.311859
 11
-54.0912
 21
0.610092
  0
LINE
  8
0
 10
-54.0912
 20
0.610092
 11
-53.9344
 21
0.881668
  0
LINE
  8
0
 10
-53.9344
 20
0.881668
 11
-53.7246
 21
1.11472
  0
LINE
  8
0
 10
-53.7246
 20
1.11472
 11
-53.4709
 21
1.29903
  0
LINE
  8
0
 10
-53.4709
 20
1.29903
 11
-53.1844
 21
1.42657
  0
LINE
  8
0
 10
-53.1844
 20
1.42657
 11
-52.8777
 21
1.49178
  0
LINE
  8
0
 10
-52.8777
 20
1.49178
 11
-52.5641
 21
1.49178
  0
LINE
  8
0
 10
-52.5641
 20
1.49178
 11
-52.2573
 21
1.42657
  0
LINE
  8
0
 10
-52.2573
 20
1.42657
 11
-51.9709
 21
1.29903
  0
LINE
  8
0
 10
-51.9709
 20
1.29903
 11
-51.7172
 21
1.11472
  0
LINE
  8
0
 10
-51.7172
 20
1.11472
 11
-51.5073
 21
0.881668
  0
LINE
  8
0
 10
-51.5073
 20
0.881668
 11
-51.3506
 21
0.610092
  0
LINE
  8
0
 10
-51.3506
 20
0.610092
 11
-51.2536
 21
0.311859
  0
LINE
  8
0
 10
-51.2536
 20
0.311859
 11
-51.2209
 21
0
  0
LINE
  8
0
 10
-51.2209
 20
0
 11
-51.2536
 21
-0.311859
  0
LINE
  8
0
 10
-51.2536
 20
-0.311859
 11
-51.3506
 21
-0.610092
  0
LINE
  8
0
 10
-51.3506
 20
-0.610092
 11
-51.5073
 21
-0.881668
  0
LINE
  8
0
 10
-51.5073
 20
-0.881668
 11
-51.7172
 21
-1.11472
  0
LINE
  8
0
 10
-51.7172
 20
-1.11472
 11
-51.9709
 21
-1.29903
  0
LINE
  8
0
 10
-51.9709
 20
-1.29903
 11
-52.2573
 21
-1.42657
  0
LINE
  8
0
 10
-52.2573
 20
-1.42657
 11
-52.5641
 21
-1.49178
  0
LINE
  8
0
 10
-52.5641
 20
-1.49178
 11
-52.8777
 21
-1.49178
  0
LINE
  8
0
 10
-11.9436
 20
-1.49178
 11
-12.2503
 21
-1.42657
  0
LINE
  8
0
 10
-12.2503
 20
-1.42657
 11
-12.5368
 21
-1.29903
  0
LINE
  8
0
 10
-12.5368
 20
-1.29903
 11
-12.7905
 21
-1.11472
  0
LINE
  8
0
 10
-12.7905
 20
-1.11472
 11
-13.0003
 21
-0.881668
  0
LINE
  8
0
 10
-13.0003
 20
-0.881668
 11
-13.1571
 21
-0.610092
  0
LINE
  8
0
 10
-13.1571
 20
-0.610092
 11
-13.254
 21
-0.311859
  0
LINE
  8
0
 10
-13.254
 20
-0.311859
 11
-13.2868
 21
0
  0
LINE
  8
0
 10
-13.2868
 20
0
 11
-13.254
 21
0.311859
  0
LINE
  8
0
 10
-13.254
 20
0.311859
 11
-13.1571
 21
0.610092
  0
LINE
  8
0
 10
-13.1571
 20
0.610092
 11
-13.0003
 21
0.881668
  0
LINE
  8
0
 10
-13.0003
 20
0.881668
 11
-12.7905
 21
1.11472
  0
LINE
  8
0
 10
-12.7905
 20
1.11472
 11
-12.5368
 21
1.29903
  0
LINE
  8
0
 10
-12.5368
 20
1.29903
 11
-12.2503
 21
1.42657
  0
LINE
  8
0
 10
-12.2503
 20
1.42657
 11
-11.9436
 21
1.49178
  0
LINE
  8
0
 10
-11.9436
 20
1.49178
 11
-11.63
 21
1.49178
  0
LINE
  8
0
 10
-11.63
 20
1.49178
 11
-11.3233
 21
1.42657
  0
LINE
  8
0
 10
-11.3233
 20
1.42657
 11
-11.0368
 21
1.29903
  0
LINE
  8
0
 10
-11.0368
 20
1.29903
 11
-10.7831
 21
1.11472
  0
LINE
  8
0
 10
-10.7831
 20
1.11472
 11
-10.5733
 21
0.881668
  0
LINE
  8
0
 10
-10.5733
 20
0.881668
 11
-10.4165
 21
0.610092
  0
LINE
  8
0
 10
-10.4165
 20
0.610092
 11
-10.3196
 21
0.311859
  0
LINE
  8
0
 10
-10.3196
 20
0.311859
 11
-10.2868
 21
0
  0
LINE
  8
0
 10
-10.2868
 20
0
 11
-10.3196
 21
-0.311859
  0
LINE
  8
0
 10
-10.3196
 20
-0.311859
 11
-10.4165
 21
-0.610092
  0
LINE
  8
0
 10
-10.4165
 20
-0.610092
 11
-10.5733
 21
-0.881668
  0
LINE
  8
0
 10
-10.5733
 20
-0.881668
 11
-10.7831
 21
-1.11472
  0
LINE
  8
0
 10
-10.7831
 20
-1.11472
 11
-11.0368
 21
-1.29903
  0
LINE
  8
0
 10
-11.0368
 20
-1.29903
 11
-11.3233
 21
-1.42657
  0
LINE
  8
0
 10
-11.3233
 20
-1.42657
 11
-11.63
 21
-1.49178
  0
LINE
  8
0
 10
-11.63
 20
-1.49178
 11
-11.9436
 21
-1.49178
  0
LINE
  8
0
 10
11.63
 20
-1.49178
 11
11.3233
 21
-1.42657
  0
LINE
  8
0
 10
11.3233
 20
-1.42657
 11
11.0368
 21
-1.29903
  0
LINE
  8
0
 10
11.0368
 20
-1.29903
 11
10.7831
 21
-1.11472
  0
LINE
  8
0
 10
10.7831
 20
-1.11472
 11
10.5733
 21
-0.881668
  0
LINE
  8
0
 10
10.5733
 20
-0.881668
 11
10.4165
 21
-0.610092
  0
LINE
  8
0
 10
10.4165
 20
-0.610092
 11
10.3196
 21
-0.311859
  0
LINE
  8
0
 10
10.3196
 20
-0.311859
 11
10.2868
 21
0
  0
LINE
  8
0
 10
10.2868
 20
0
 11
10.3196
 21
0.311859
  0
LINE
  8
0
 10
10.3196
 20
0.311859
 11
10.4165
 21
0.610092
  0
LINE
  8
0
 10
10.4165
 20
0.610092
 11
10.5733
 21
0.881668
  0
LINE
  8
0
 10
10.5733
 20
0.881668
 11
10.7831
 21
1.11472
  0
LINE
  8
0
 10
10.7831
 20
1.11472
 11
11.0368
 21
1.29903
  0
LINE
  8
0
 10
11.0368
 20
1.29903
 11
11.3233
 21
1.42657
  0
LINE
  8
0
 10
11.3233
 20
1.42657
 11
11.63
 21
1.49178
  0
LINE
  8
0
 10
11.63
 20
1.49178
 11
11.9436
 21
1.49178
  0
LINE
  8
0
 10
11.9436
 20
1.49178
 11
12.2503
 21
1.42657
  0
LINE
  8
0
 10
12.2503
 20
1.42657
 11
12.5368
 21
1.29903
  0
LINE
  8
0
 10
12.5368
 20
1.29903
 11
12.7905
 21
1.11472
  0
LINE
  8
0
 10
12.7905
 20
1.11472
 11
13.0003
 21
0.881668
  0
LINE
  8
0
 10
13.0003
 20
0.881668
 11
13.1571
 21
0.610092
  0
LINE
  8
0
 10
13.1571
 20
0.610092
 11
13.254
 21
0.311859
  0
LINE
  8
0
 10
13.254
 20
0.311859
 11
13.2868
 21
0
  0
LINE
  8
0
 10
13.2868
 20
0
 11
13.254
 21
-0.311859
  0
LINE
  8
0
 10
13.254
 20
-0.311859
 11
13.1571
 21
-0.610092
  0
LINE
  8
0
 10
13.1571
 20
-0.610092
 11
13.0003
 21
-0.881668
  0
LINE
  8
0
 10
13.0003
 20
-0.881668
 11
12.7905
 21
-1.11472
  0
LINE
  8
0
 10
12.7905
 20
-1.11472
 11
12.5368
 21
-1.29903
  0
LINE
  8
0
 10
12.5368
 20
-1.29903
 11
12.2503
 21
-1.42657
  0
LINE
  8
0
 10
12.2503
 20
-1.42657
 11
11.9436
 21
-1.49178
  0
LINE
  8
0
 10
11.9436
 20
-1.49178
 11
11.63
 21
-1.49178
  0
LINE
  8
0
 10
37.0795
 20
-25.9117
 11
35.665
 21
-25.7003
  0
LINE
  8
0
 10
35.665
 20
-25.7003
 11
34.2937
 21
-25.2941
  0
LINE
  8
0
 10
34.2937
 20
-25.2941
 11
32.9923
 21
-24.701
  0
LINE
  8
0
 10
32.9923
 20
-24.701
 11
31.7861
 21
-23.9325
  0
LINE
  8
0
 10
31.7861
 20
-23.9325
 11
30.6986
 21
-23.0037
  0
LINE
  8
0
 10
30.6986
 20
-23.0037
 11
15.0042
 21
-7.97856
  0
LINE
  8
0
 10
15.0042
 20
-7.97856
 11
14.8417
 21
-7.79494
  0
LINE
  8
0
 10
14.8417
 20
-7.79494
 11
14.7064
 21
-7.5905
  0
LINE
  8
0
 10
14.7064
 20
-7.5905
 11
14.6008
 21
-7.3692
  0
LINE
  8
0
 10
14.6008
 20
-7.3692
 11
14.5271
 21
-7.13538
  0
LINE
  8
0
 10
14.5271
 20
-7.13538
 11
14.4866
 21
-6.89357
  0
LINE
  8
0
 10
14.4866
 20
-6.89357
 11
14.4802
 21
-6.64847
  0
LINE
  8
0
 10
14.4802
 20
-6.64847
 11
14.508
 21
-6.40488
  0
LINE
  8
0
 10
14.508
 20
-6.40488
 11
14.5694
 21
-6.16751
  0
LINE
  8
0
 10
14.5694
 20
-6.16751
 11
14.6632
 21
-5.94099
  0
LINE
  8
0
 10
14.6632
 20
-5.94099
 11
14.7876
 21
-5.72975
  0
LINE
  8
0
 10
14.7876
 20
-5.72975
 11
14.9402
 21
-5.53787
  0
LINE
  8
0
 10
14.9402
 20
-5.53787
 11
15.1181
 21
-5.36911
  0
LINE
  8
0
 10
15.1181
 20
-5.36911
 11
15.3177
 21
-5.22673
  0
LINE
  8
0
 10
15.3177
 20
-5.22673
 11
15.5352
 21
-5.11353
  0
LINE
  8
0
 10
15.5352
 20
-5.11353
 11
15.7663
 21
-5.03168
  0
LINE
  8
0
 10
15.7663
 20
-5.03168
 11
16.0065
 21
-4.9828
  0
LINE
  8
0
 10
16.0065
 20
-4.9828
 11
16.2512
 21
-4.96783
  0
LINE
  8
0
 10
16.2512
 20
-4.96783
 11
37.9733
 21
-5.44109
  0
LINE
  8
0
 10
37.9733
 20
-5.44109
 11
39.399
 21
-5.5533
  0
LINE
  8
0
 10
39.399
 20
-5.5533
 11
40.7953
 21
-5.86284
  0
LINE
  8
0
 10
40.7953
 20
-5.86284
 11
42.1349
 21
-6.36371
  0
LINE
  8
0
 10
42.1349
 20
-6.36371
 11
43.3918
 21
-7.04613
  0
LINE
  8
0
 10
43.3918
 20
-7.04613
 11
44.5415
 21
-7.89684
  0
LINE
  8
0
 10
44.5415
 20
-7.89684
 11
45.5615
 21
-8.89928
  0
LINE
  8
0
 10
45.5615
 20
-8.89928
 11
46.4322
 21
-10.0339
  0
LINE
  8
0
 10
46.4322
 20
-10.0339
 11
47.1364
 21
-11.2787
  0
LINE
  8
0
 10
47.1364
 20
-11.2787
 11
47.6606
 21
-12.6094
  0
LINE
  8
0
 10
47.6606
 20
-12.6094
 11
47.9945
 21
-14
  0
LINE
  8
0
 10
47.9945
 20
-14
 11
48.1316
 21
-15.4236
  0
LINE
  8
0
 10
48.1316
 20
-15.4236
 11
48.0692
 21
-16.8524
  0
LINE
  8
0
 10
48.0692
 20
-16.8524
 11
47.8085
 21
-18.2587
  0
LINE
  8
0
 10
47.8085
 20
-18.2587
 11
47.3547
 21
-19.615
  0
LINE
  8
0
 10
47.3547
 20
-19.615
 11
46.7166
 21
-20.8949
  0
LINE
  8
0
 10
46.7166
 20
-20.8949
 11
45.9065
 21
-22.0735
  0
LINE
  8
0
 10
45.9065
 20
-22.0735
 11
44.9403
 21
-23.128
  0
LINE
  8
0
 10
44.9403
 20
-23.128
 11
43.8367
 21
-24.0377
  0
LINE
  8
0
 10
43.8367
 20
-24.0377
 11
42.6173
 21
-24.785
  0
LINE
  8
0
 10
42.6173
 20
-24.785
 11
41.3057
 21
-25.3553
  0
LINE
  8
0
 10
41.3057
 20
-25.3553
 11
39.9276
 21
-25.7375
  0
LINE
  8
0
 10
39.9276
 20
-25.7375
 11
38.5096
 21
-25.9241
  0
LINE
  8
0
 10
38.5096
 20
-25.9241
 11
37.0795
 21
-25.9117
  0
LINE
  8
0
 10
-39.9276
 20
-25.7375
 11
-41.3057
 21
-25.3553
  0
LINE
  8
0
 10
-41.3057
 20
-25.3553
 11
-42.6173
 21
-24.785
  0
LINE
  8
0
 10
-42.6173
 20
-24.785
 11
-43.8367
 21
-24.0377
  0
LINE
  8
0
 10
-43.8367
 20
-24.0377
 11
-44.9403
 21
-23.128
  0
LINE
  8
0
 10
-44.9403
 20
-23.128
 11
-45.9065
 21
-22.0735
  0
LINE
  8
0
 10
-45.9065
 20
-22.0735
 11
-46.7166
 21
-20.8949
  0
LINE
  8
0
 10
-46.7166
 20
-20.8949
 11
-47.3547
 21
-19.615
  0
LINE
  8
0
 10
-47.3547
 20
-19.615
 11
-47.8085
 21
-18.2587
  0
LINE
  8
0
 10
-47.8085
 20
-18.2587
 11
-48.0692
 21
-16.8524
  0
LINE
  8
0
 10
-48.0692
 20
-16.8524
 11
-48.1316
 21
-15.4236
  0
LINE
  8
0
 10
-48.1316
 20
-15.4236
 11
-47.9945
 21
-14
  0
LINE
  8
0
 10
-47.9945
 20
-14
 11
-47.6606
 21
-12.6094
  0
LINE
  8
0
 10
-47.6606
 20
-12.6094
 11
-47.1364
 21
-11.2787
  0
LINE
  8
0
 10
-47.1364
 20
-11.2787
 11
-46.4322
 21
-10.0339
  0
LINE
  8
0
 10
-46.4322
 20
-10.0339
 11
-45.5615
 21
-8.89928
  0
LINE
  8
0
 10
-45.5615
 20
-8.89928
 11
-44.5415
 21
-7.89684
  0
LINE
  8
0
 10
-44.5415
 20
-7.89684
 11
-43.3918
 21
-7.04613
  0
LINE
  8
0
 10
-43.3918
 20
-7.04613
 11
-42.1349
 21
-6.36371
  0
LINE
  8
0
 10
-42.1349
 20
-6.36371
 11
-40.7953
 21
-5.86284
  0
LINE
  8
0
 10
-40.7953
 20
-5.86284
 11
-39.399
 21
-5.5533
  0
LINE
  8
0
 10
-39.399
 20
-5.5533
 11
-37.9733
 21
-5.44109
  0
LINE
  8
0
 10
-37.9733
 20
-5.44109
 11
-16.2512
 21
-4.96783
  0
LINE
  8
0
 10
-16.2512
 20
-4.96783
 11
-16.0065
 21
-4.9828
  0
LINE
  8
0
 10
-16.0065
 20
-4.9828
 11
-15.7663
 21
-5.03168
  0
LINE
  8
0
 10
-15.7663
 20
-5.03168
 11
-15.5352
 21
-5.11353
  0
LINE
  8
0
 10
-15.5352
 20
-5.11353
 11
-15.3177
 21
-5.22673
  0
LINE
  8
0
 10
-15.3177
 20
-5.22673
 11
-15.1181
 21
-5.36911
  0
LINE
  8
0
 10
-15.1181
 20
-5.36911
 11
-14.9402
 21
-5.53787
  0
LINE
  8
0
 10
-14.9402
 20
-5.53787
 11
-14.7876
 21
-5.72975
  0
LINE
  8
0
 10
-14.7876
 20
-5.72975
 11
-14.6632
 21
-5.94099
  0
LINE
  8
0
 10
-14.6632
 20
-5.94099
 11
-14.5694
 21
-6.16751
  0
LINE
  8
0
 10
-14.5694
 20
-6.16751
 11
-14.508
 21
-6.40488
  0
LINE
  8
0
 10
-14.508
 20
-6.40488
 11
-14.4802
 21
-6.64847
  0
LINE
  8
0
 10
-14.4802
 20
-6.64847
 11
-14.4866
 21
-6.89357
  0
LINE
  8
0
 10
-14.4866
 20
-6.89357
 11
-14.5271
 21
-7.13538
  0
LINE
  8
0
 10
-14.5271
 20
-7.13538
 11
-14.6008
 21
-7.3692
  0
LINE
  8
0
 10
-14.6008
 20
-7.3692
 11
-14.7064
 21
-7.5905
  0
LINE
  8
0
 10
-14.7064
 20
-7.5905
 11
-14.8417
 21
-7.79494
  0
LINE
  8
0
 10
-14.8417
 20
-7.79494
 11
-15.0042
 21
-7.97856
  0
LINE
  8
0
 10
-15.0042
 20
-7.97856
 11
-30.6986
 21
-23.0037
  0
LINE
  8
0
 10
-30.6986
 20
-23.0037
 11
-31.7861
 21
-23.9325
  0
LINE
  8
0
 10
-31.7861
 20
-23.9325
 11
-32.9923
 21
-24.701
  0
LINE
  8
0
 10
-32.9923
 20
-24.701
 11
-34.2937
 21
-25.2941
  0
LINE
  8
0
 10
-34.2937
 20
-25.2941
 11
-35.665
 21
-25.7003
  0
LINE
  8
0
 10
-35.665
 20
-25.7003
 11
-37.0795
 21
-25.9117
  0
LINE
  8
0
 10
-37.0795
 20
-25.9117
 11
-38.5096
 21
-25.9241
  0
LINE
  8
0
 10
-38.5096
 20
-25.9241
 11
-39.9276
 21
-25.7375
  0
LINE
  8
0
 10
-0.311859
 20
-13.254
 11
-0.610092
 21
-13.1571
  0
LINE
  8
0
 10
-0.610092
 20
-13.1571
 11
-0.881668
 21
-13.0003
  0
LINE
  8
0
 10
-0.881668
 20
-13.0003
 11
-1.11472
 21
-12.7905
  0
LINE
  8
0
 10
-1.11472
 20
-12.7905
 11
-1.29903
 21
-12.5368
  0
LINE
  8
0
 10
-1.29903
 20
-12.5368
 11
-1.42657
 21
-12.2503
  0
LINE
  8
0
 10
-1.42657
 20
-12.2503
 11
-1.49178
 21
-11.9436
  0
LINE
  8
0
 10
-1.49178
 20
-11.9436
 11
-1.49178
 21
-11.63
  0
LINE
  8
0
 10
-1.49178
 20
-11.63
 11
-1.42657
 21
-11.3233
  0
LINE
  8
0
 10
-1.42657
 20
-11.3233
 11
-1.29903
 21
-11.0368
  0
LINE
  8
0
 10
-1.29903
 20
-11.0368
 11
-1.11472
 21
-10.7831
  0
LINE
  8
0
 10
-1.11472
 20
-10.7831
 11
-0.881668
 21
-10.5733
  0
LINE
  8
0
 10
-0.881668
 20
-10.5733
 11
-0.610092
 21
-10.4165
  0
LINE
  8
0
 10
-0.610092
 20
-10.4165
 11
-0.311859
 21
-10.3196
  0
LINE
  8
0
 10
-0.311859
 20
-10.3196
 11
0
 21
-10.2868
  0
LINE
  8
0
 10
0
 20
-10.2868
 11
0.311859
 21
-10.3196
  0
LINE
  8
0
 10
0.311859
 20
-10.3196
 11
0.610092
 21
-10.4165
  0
LINE
  8
0
 10
0.610092
 20
-10.4165
 11
0.881668
 21
-10.5733
  0
LINE
  8
0
 10
0.881668
 20
-10.5733
 11
1.11472
 21
-10.7831
  0
LINE
  8
0
 10
1.11472
 20
-10.7831
 11
1.29903
 21
-11.0368
  0
LINE
  8
0
 10
1.29903
 20
-11.0368
 11
1.42657
 21
-11.3233
  0
LINE
  8
0
 10
1.42657
 20
-11.3233
 11
1.49178
 21
-11.63
  0
LINE
  8
0
 10
1.49178
 20
-11.63
 11
1.49178
 21
-11.9436
  0
LINE
  8
0
 10
1.49178
 20
-11.9436
 11
1.42657
 21
-12.2503
  0
LINE
  8
0
 10
1.42657
 20
-12.2503
 11
1.29903
 21
-12.5368
  0
LINE
  8
0
 10
1.29903
 20
-12.5368
 11
1.11472
 21
-12.7905
  0
LINE
  8
0
 10
1.11472
 20
-12.7905
 11
0.881668
 21
-13.0003
  0
LINE
  8
0
 10
0.881668
 20
-13.0003
 11
0.610092
 21
-13.1571
  0
LINE
  8
0
 10
0.610092
 20
-13.1571
 11
0.311859
 21
-13.254
  0
LINE
  8
0
 10
0.311859
 20
-13.254
 11
0
 21
-13.2868
  0
LINE
  8
0
 10
0
 20
-13.2868
 11
-0.311859
 21
-13.254
  0
LINE
  8
0
 10
-16.8524
 20
-48.0692
 11
-18.2587
 21
-47.8085
  0
LINE
  8
0
 10
-18.2587
 20
-47.8085
 11
-19.615
 21
-47.3547
  0
LINE
  8
0
 10
-19.615
 20
-47.3547
 11
-20.8949
 21
-46.7166
  0
LINE
  8
0
 10
-20.8949
 20
-46.7166
 11
-22.0735
 21
-45.9065
  0
LINE
  8
0
 10
-22.0735
 20
-45.9065
 11
-23.128
 21
-44.9403
  0
LINE
  8
0
 10
-23.128
 20
-44.9403
 11
-24.0377
 21
-43.8367
  0
LINE
  8
0
 10
-24.0377
 20
-43.8367
 11
-24.785
 21
-42.6173
  0
LINE
  8
0
 10
-24.785
 20
-42.6173
 11
-25.3553
 21
-41.3057
  0
LINE
  8
0
 10
-25.3553
 20
-41.3057
 11
-25.7375
 21
-39.9276
  0
LINE
  8
0
 10
-25.7375
 20
-39.9276
 11
-25.9241
 21
-38.5096
  0
LINE
  8
0
 10
-25.9241
 20
-38.5096
 11
-25.9117
 21
-37.0795
  0
LINE
  8
0
 10
-25.9117
 20
-37.0795
 11
-25.7003
 21
-35.665
  0
LINE
  8
0
 10
-25.7003
 20
-35.665
 11
-25.2941
 21
-34.2937
  0
LINE
  8
0
 10
-25.2941
 20
-34.2937
 11
-24.701
 21
-32.9923
  0
LINE
  8
0
 10
-24.701
 20
-32.9923
 11
-23.9325
 21
-31.7861
  0
LINE
  8
0
 10
-23.9325
 20
-31.7861
 11
-23.0037
 21
-30.6986
  0
LINE
  8
0
 10
-23.0037
 20
-30.6986
 11
-7.97856
 21
-15.0042
  0
LINE
  8
0
 10
-7.97856
 20
-15.0042
 11
-7.79494
 21
-14.8417
  0
LINE
  8
0
 10
-7.79494
 20
-14.8417
 11
-7.5905
 21
-14.7064
  0
LINE
  8
0
 10
-7.5905
 20
-14.7064
 11
-7.3692
 21
-14.6008
  0
LINE
  8
0
 10
-7.3692
 20
-14.6008
 11
-7.13538
 21
-14.5271
  0
LINE
  8
0
 10
-7.13538
 20
-14.5271
 11
-6.89357
 21
-14.4866
  0
LINE
  8
0
 10
-6.89357
 20
-14.4866
 11
-6.64847
 21
-14.4802
  0
LINE
  8
0
 10
-6.64847
 20
-14.4802
 11
-6.40488
 21
-14.508
  0
LINE
  8
0
 10
-6.40488
 20
-14.508
 11
-6.16751
 21
-14.5694
  0
LINE
  8
0
 10
-6.16751
 20
-14.5694
 11
-5.94099
 21
-14.6632
  0
LINE
  8
0
 10
-5.94099
 20
-14.6632
 11
-5.72975
 21
-14.7876
  0
LINE
  8
0
 10
-5.72975
 20
-14.7876
 11
-5.53787
 21
-14.9402
  0
LINE
  8
0
 10
-5.53787
 20
-14.9402
 11
-5.36911
 21
-15.1181
  0
LINE
  8
0
 10
-5.36911
 20
-15.1181
 11
-5.22673
 21
-15.3177
  0
LINE
  8
0
 10
-5.22673
 20
-15.3177
 11
-5.11353
 21
-15.5352
  0
LINE
  8
0
 10
-5.11353
 20
-15.5352
 11
-5.03168
 21
-15.7663
  0
LINE
  8
0
 10
-5.03168
 20
-15.7663
 11
-4.9828
 21
-16.0065
  0
LINE
  8
0
 10
-4.9828
 20
-16.0065
 11
-4.96783
 21
-16.2512
  0
LINE
  8
0
 10
-4.96783
 20
-16.2512
 11
-5.44109
 21
-37.9733
  0
LINE
  8
0
 10
-5.44109
 20
-37.9733
 11
-5.5533
 21
-39.399
  0
LINE
  8
0
 10
-5.5533
 20
-39.399
 11
-5.86284
 21
-40.7953
  0
LINE
  8
0
 10
-5.86284
 20
-40.7953
 11
-6.36371
 21
-42.1349
  0
LINE
  8
0
 10
-6.36371
 20
-42.1349
 11
-7.04613
 21
-43.3918
  0
LINE
  8
0
 10
-7.04613
 20
-43.3918
 11
-7.89684
 21
-44.5415
  0
LINE
  8
0
 10
-7.89684
 20
-44.5415
 11
-8.89928
 21
-45.5615
  0
LINE
  8
0
 10
-8.89928
 20
-45.5615
 11
-10.0339
 21
-46.4322
  0
LINE
  8
0
 10
-10.0339
 20
-46.4322
 11
-11.2787
 21
-47.1364
  0
LINE
  8
0
 10
-11.2787
 20
-47.1364
 11
-12.6094
 21
-47.6606
  0
LINE
  8
0
 10
-12.6094
 20
-47.6606
 11
-14
 21
-47.9945
  0
LINE
  8
0
 10
-14
 20
-47.9945
 11
-15.4236
 21
-48.1316
  0
LINE
  8
0
 10
-15.4236
 20
-48.1316
 11
-16.8524
 21
-48.0692
  0
LINE
  8
0
 10
14
 20
-47.9945
 11
12.6094
 21
-47.6606
  0
LINE
  8
0
 10
12.6094
 20
-47.6606
 11
11.2787
 21
-47.1364
  0
LINE
  8
0
 10
11.2787
 20
-47.1364
 11
10.0339
 21
-46.4322
  0
LINE
  8
0
 10
10.0339
 20
-46.4322
 11
8.89928
 21
-45.5615
  0
LINE
  8
0
 10
8.89928
 20
-45.5615
 11
7.89684
 21
-44.5415
  0
LINE
  8
0
 10
7.89684
 20
-44.5415
 11
7.04613
 21
-43.3918
  0
LINE
  8
0
 10
7.04613
 20
-43.3918
 11
6.36371
 21
-42.1349
  0
LINE
  8
0
 10
6.36371
 20
-42.1349
 11
5.86284
 21
-40.7953
  0
LINE
  8
0
 10
5.86284
 20
-40.7953
 11
5.5533
 21
-39.399
  0
LINE
  8
0
 10
5.5533
 20
-39.399
 11
5.44109
 21
-37.9733
  0
LINE
  8
0
 10
5.44109
 20
-37.9733
 11
4.96783
 21
-16.2512
  0
LINE
  8
0
 10
4.96783
 20
-16.2512
 11
4.9828
 21
-16.0065
  0
LINE
  8
0
 10
4.9828
 20
-16.0065
 11
5.03168
 21
-15.7663
  0
LINE
  8
0
 10
5.03168
 20
-15.7663
 11
5.11353
 21
-15.5352
  0
LINE
  8
0
 10
5.11353
 20
-15.5352
 11
5.22673
 21
-15.3177
  0
LINE
  8
0
 10
5.22673
 20
-15.3177
 11
5.36911
 21
-15.1181
  0
LINE
  8
0
 10
5.36911
 20
-15.1181
 11
5.53787
 21
-14.9402
  0
LINE
  8
0
 10
5.53787
 20
-14.9402
 11
5.72975
 21
-14.7876
  0
LINE
  8
0
 10
5.72975
 20
-14.7876
 11
5.94099
 21
-14.6632
  0
LINE
  8
0
 10
5.94099
 20
-14.6632
 11
6.16751
 21
-14.5694
  0
LINE
  8
0
 10
6.16751
 20
-14.5694
 11
6.40488
 21
-14.508
  0
LINE
  8
0
 10
6.40488
 20
-14.508
 11
6.64847
 21
-14.4802
  0
LINE
  8
0
 10
6.64847
 20
-14.4802
 11
6.89357
 21
-14.4866
  0
LINE
  8
0
 10
6.89357
 20
-14.4866
 11
7.13538
 21
-14.5271
  0
LINE
  8
0
 10
7.13538
 20
-14.5271
 11
7.3692
 21
-14.6008
  0
LINE
  8
0
 10
7.3692
 20
-14.6008
 11
7.5905
 21
-14.7064
  0
LINE
  8
0
 10
7.5905
 20
-14.7064
 11
7.79494
 21
-14.8417
  0
LINE
  8
0
 10
7.79494
 20
-14.8417
 11
7.97856
 21
-15.0042
  0
LINE
  8
0
 10
7.97856
 20
-15.0042
 11
23.0037
 21
-30.6986
  0
LINE
  8
0
 10
23.0037
 20
-30.6986
 11
23.9325
 21
-31.7861
  0
LINE
  8
0
 10
23.9325
 20
-31.7861
 11
24.701
 21
-32.9923
  0
LINE
  8
0
 10
24.701
 20
-32.9923
 11
25.2941
 21
-34.2937
  0
LINE
  8
0
 10
25.2941
 20
-34.2937
 11
25.7003
 21
-35.665
  0
LINE
  8
0
 10
25.7003
 20
-35.665
 11
25.9117
 21
-37.0795
  0
LINE
  8
0
 10
25.9117
 20
-37.0795
 11
25.9241
 21
-38.5096
  0
LINE
  8
0
 10
25.9241
 20
-38.5096
 11
25.7375
 21
-39.9276
  0
LINE
  8
0
 10
25.7375
 20
-39.9276
 11
25.3553
 21
-41.3057
  0
LINE
  8
0
 10
25.3553
 20
-41.3057
 11
24.785
 21
-42.6173
  0
LINE
  8
0
 10
24.785
 20
-42.6173
 11
24.0377
 21
-43.8367
  0
LINE
  8
0
 10
24.0377
 20
-43.8367
 11
23.128
 21
-44.9403
  0
LINE
  8
0
 10
23.128
 20
-44.9403
 11
22.0735
 21
-45.9065
  0
LINE
  8
0
 10
22.0735
 20
-45.9065
 11
20.8949
 21
-46.7166
  0
LINE
  8
0
 10
20.8949
 20
-46.7166
 11
19.615
 21
-47.3547
  0
LINE
  8
0
 10
19.615
 20
-47.3547
 11
18.2587
 21
-47.8085
  0
LINE
  8
0
 10
18.2587
 20
-47.8085
 11
16.8524
 21
-48.0692
  0
LINE
  8
0
 10
16.8524
 20
-48.0692
 11
15.4236
 21
-48.1316
  0
LINE
  8
0
 10
15.4236
 20
-48.1316
 11
14
 21
-47.9945
  0
LINE
  8
0
 10
36.8911
 20
-38.7282
 11
36.5983
 21
-38.6158
  0
LINE
  8
0
 10
36.5983
 20
-38.6158
 11
36.3353
 21
-38.445
  0
LINE
  8
0
 10
36.3353
 20
-38.445
 11
36.1136
 21
-38.2233
  0
LINE
  8
0
 10
36.1136
 20
-38.2233
 11
35.9428
 21
-37.9603
  0
LINE
  8
0
 10
35.9428
 20
-37.9603
 11
35.8304
 21
-37.6675
  0
LINE
  8
0
 10
35.8304
 20
-37.6675
 11
35.7813
 21
-37.3578
  0
LINE
  8
0
 10
35.7813
 20
-37.3578
 11
35.7977
 21
-37.0446
  0
LINE
  8
0
 10
35.7977
 20
-37.0446
 11
35.8789
 21
-36.7417
  0
LINE
  8
0
 10
35.8789
 20
-36.7417
 11
36.0213
 21
-36.4623
  0
LINE
  8
0
 10
36.0213
 20
-36.4623
 11
36.2186
 21
-36.2186
  0
LINE
  8
0
 10
36.2186
 20
-36.2186
 11
36.4623
 21
-36.0213
  0
LINE
  8
0
 10
36.4623
 20
-36.0213
 11
36.7417
 21
-35.8789
  0
LINE
  8
0
 10
36.7417
 20
-35.8789
 11
37.0446
 21
-35.7977
  0
LINE
  8
0
 10
37.0446
 20
-35.7977
 11
37.3578
 21
-35.7813
  0
LINE
  8
0
 10
37.3578
 20
-35.7813
 11
37.6675
 21
-35.8304
  0
LINE
  8
0
 10
37.6675
 20
-35.8304
 11
37.9603
 21
-35.9428
  0
LINE
  8
0
 10
37.9603
 20
-35.9428
 11
38.2233
 21
-36.1136
  0
LINE
  8
0
 10
38.2233
 20
-36.1136
 11
38.445
 21
-36.3353
  0
LINE
  8
0
 10
38.445
 20
-36.3353
 11
38.6158
 21
-36.5983
  0
LINE
  8
0
 10
38.6158
 20
-36.5983
 11
38.7282
 21
-36.8911
  0
LINE
  8
0
 10
38.7282
 20
-36.8911
 11
38.7772
 21
-37.2008
  0
LINE
  8
0
 10
38.7772
 20
-37.2008
 11
38.7608
 21
-37.5139
  0
LINE
  8
0
 10
38.7608
 20
-37.5139
 11
38.6797
 21
-37.8168
  0
LINE
  8
0
 10
38.6797
 20
-37.8168
 11
38.5373
 21
-38.0962
  0
LINE
  8
0
 10
38.5373
 20
-38.0962
 11
38.3399
 21
-38.3399
  0
LINE
  8
0
 10
38.3399
 20
-38.3399
 11
38.0962
 21
-38.5373
  0
LINE
  8
0
 10
38.0962
 20
-38.5373
 11
37.8168
 21
-38.6797
  0
LINE
  8
0
 10
37.8168
 20
-38.6797
 11
37.5139
 21
-38.7608
  0
LINE
  8
0
 10
37.5139
 20
-38.7608
 11
37.2008
 21
-38.7772
  0
LINE
  8
0
 10
37.2008
 20
-38.7772
 11
36.8911
 21
-38.7282
  0
LINE
  8
0
 10
-37.5139
 20
-38.7608
 11
-37.8168
 21
-38.6797
  0
LINE
  8
0
 10
-37.8168
 20
-38.6797
 11
-38.0962
 21
-38.5373
  0
LINE
  8
0
 10
-38.0962
 20
-38.5373
 11
-38.3399
 21
-38.3399
  0
LINE
  8
0
 10
-38.3399
 20
-38.3399
 11
-38.5373
 21
-38.0962
  0
LINE
  8
0
 10
-38.5373
 20
-38.0962
 11
-38.6797
 21
-37.8168
  0
LINE
  8
0
 10
-38.6797
 20
-37.8168
 11
-38.7608
 21
-37.5139
  0
LINE
  8
0
 10
-38.7608
 20
-37.5139
 11
-38.7772
 21
-37.2008
  0
LINE
  8
0
 10
-38.7772
 20
-37.2008
 11
-38.7282
 21
-36.8911
  0
LINE
  8
0
 10
-38.7282
 20
-36.8911
 11
-38.6158
 21
-36.5983
  0
LINE
  8
0
 10
-38.6158
 20
-36.5983
 11
-38.445
 21
-36.3353
  0
LINE
  8
0
 10
-38.445
 20
-36.3353
 11
-38.2233
 21
-36.1136
  0
LINE
  8
0
 10
-38.2233
 20
-36.1136
 11
-37.9603
 21
-35.9428
  0
LINE
  8
0
 10
-37.9603
 20
-35.9428
 11
-37.6675
 21
-35.8304
  0
LINE
  8
0
 10
-37.6675
 20
-35.8304
 11
-37.3578
 21
-35.7813
  0
LINE
  8
0
 10
-37.3578
 20
-35.7813
 11
-37.0446
 21
-35.7977
  0
LINE
  8
0
 10
-37.0446
 20
-35.7977
 11
-36.7417
 21
-35.8789
  0
LINE
  8
0
 10
-36.7417
 20
-35.8789
 11
-36.4623
 21
-36.0213
  0
LINE
  8
0
 10
-36.4623
 20
-36.0213
 11
-36.2186
 21
-36.2186
  0
LINE
  8
0
 10
-36.2186
 20
-36.2186
 11
-36.0213
 21
-36.4623
  0
LINE
  8
0
 10
-36.0213
 20
-36.4623
 11
-35.8789
 21
-36.7417
  0
LINE
  8
0
 10
-35.8789
 20
-36.7417
 11
-35.7977
 21
-37.0446
  0
LINE
  8
0
 10
-35.7977
 20
-37.0446
 11
-35.7813
 21
-37.3578
  0
LINE
  8
0
 10
-35.7813
 20
-37.3578
 11
-35.8304
 21
-37.6675
  0
LINE
  8
0
 10
-35.8304
 20
-37.6675
 11
-35.9428
 21
-37.9603
  0
LINE
  8
0
 10
-35.9428
 20
-37.9603
 11
-36.1136
 21
-38.2233
  0
LINE
  8
0
 10
-36.1136
 20
-38.2233
 11
-36.3353
 21
-38.445
  0
LINE
  8
0
 10
-36.3353
 20
-38.445
 11
-36.5983
 21
-38.6158
  0
LINE
  8
0
 10
-36.5983
 20
-38.6158
 11
-36.8911
 21
-38.7282
  0
LINE
  8
0
 10
-36.8911
 20
-38.7282
 11
-37.2008
 21
-38.7772
  0
LINE
  8
0
 10
-37.2008
 20
-38.7772
 11
-37.5139
 21
-38.7608
  0
LINE
  8
0
 10
-0.311859
 20
-54.1881
 11
-0.610092
 21
-54.0912
  0
LINE
  8
0
 10
-0.610092
 20
-54.0912
 11
-0.881668
 21
-53.9344
  0
LINE
  8
0
 10
-0.881668
 20
-53.9344
 11
-1.11472
 21
-53.7246
  0
LINE
  8
0
 10
-1.11472
 20
-53.7246
 11
-1.29903
 21
-53.4709
  0
LINE
  8
0
 10
-1.29903
 20
-53.4709
 11
-1.42657
 21
-53.1844
  0
LINE
  8
0
 10
-1.42657
 20
-53.1844
 11
-1.49178
 21
-52.8777
  0
LINE
  8
0
 10
-1.49178
 20
-52.8777
 11
-1.49178
 21
-52.5641
  0
LINE
  8
0
 10
-1.49178
 20
-52.5641
 11
-1.42657
 21
-52.2573
  0
LINE
  8
0
 10
-1.42657
 20
-52.2573
 11
-1.29903
 21
-51.9709
  0
LINE
  8
0
 10
-1.29903
 20
-51.9709
 11
-1.11472
 21
-51.7172
  0
LINE
  8
0
 10
-1.11472
 20
-51.7172
 11
-0.881668
 21
-51.5073
  0
LINE
  8
0
 10
-0.881668
 20
-51.5073
 11
-0.610092
 21
-51.3506
  0
LINE
  8
0
 10
-0.610092
 20
-51.3506
 11
-0.311859
 21
-51.2536
  0
LINE
  8
0
 10
-0.311859
 20
-51.2536
 11
0
 21
-51.2209
  0
LINE
  8
0
 10
0
 20
-51.2209
 11
0.311859
 21
-51.2536
  0
LINE
  8
0
 10
0.311859
 20
-51.2536
 11
0.610092
 21
-51.3506
  0
LINE
  8
0
 10
0.610092
 20
-51.3506
 11
0.881668
 21
-51.5073
  0
LINE
  8
0
 10
0.881668
 20
-51.5073
 11
1.11472
 21
-51.7172
  0
LINE
  8
0
 10
1.11472
 20
-51.7172
 11
1.29903
 21
-51.9709
  0
LINE
  8
0
 10
1.29903
 20
-51.9709
 11
1.42657
 21
-52.2573
  0
LINE
  8
0
 10
1.42657
 20
-52.2573
 11
1.49178
 21
-52.5641
  0
LINE
  8
0
 10
1.49178
 20
-52.5641
 11
1.49178
 21
-52.8777
  0
LINE
  8
0
 10
1.49178
 20
-52.8777
 11
1.42657
 21
-53.1844
  0
LINE
  8
0
 10
1.42657
 20
-53.1844
 11
1.29903
 21
-53.4709
  0
LINE
  8
0
 10
1.29903
 20
-53.4709
 11
1.11472
 21
-53.7246
  0
LINE
  8
0
 10
1.11472
 20
-53.7246
 11
0.881668
 21
-53.9344
  0
LINE
  8
0
 10
0.881668
 20
-53.9344
 11
0.610092
 21
-54.0912
  0
LINE
  8
0
 10
0.610092
 20
-54.0912
 11
0.311859
 21
-54.1881
  0
LINE
  8
0
 10
0.311859
 20
-54.1881
 11
0
 21
-54.2209
  0
LINE
  8
0
 10
0
 20
-54.2209
 11
-0.311859
 21
-54.1881
  0
ENDSEC
  0
SECTION
  2
OBJECTS
  0
DICTIONARY
  0
ENDSEC
  0
EOF
