  0
SECTION
  2
HEADER
  9
$ACADVER
  1
AC1014
  9
$HANDSEED
  5
FFFF
  9
$MEASUREMENT
 70
     1
  0
ENDSEC
  0
SECTION
  2
TABLES
  0
TABLE
  2
VPORT
  5
8
330
0
100
AcDbSymbolTable
 70
     4
  0
VPORT
  5
2E
330
8
100
AcDbSymbolTableRecord
100
AcDbViewportTableRecord
  2
*ACTIVE
 70
     0
 10
0.0
 20
0.0
 11
1.0
 21
1.0
 12
210.0
 22
148.5
 13
0.0
 23
0.0
 14
10.0
 24
10.0
 15
10.0
 25
10.0
 16
0.0
 26
0.0
 36
1.0
 17
0.0
 27
0.0
 37
0.0
 40
341.0
 41
1.24
 42
50.0
 43
0.0
 44
0.0
 50
0.0
 51
0.0
 71
     0
 72
   100
 73
     1
 74
     3
 75
     0
 76
     0
 77
     0
 78
     0
  0
ENDTAB
  0
TABLE
  2
LTYPE
  5
5
330
0
100
AcDbSymbolTable
 70
     1
  0
LTYPE
  5
14
330
5
100
AcDbSymbolTableRecord
100
AcDbLinetypeTableRecord
  2
BYBLOCK
 70
     0
  3

 72
    65
 73
     0
 40
0.0
  0
LTYPE
  5
15
330
5
100
AcDbSymbolTableRecord
100
AcDbLinetypeTableRecord
  2
BYLAYER
 70
     0
  3

 72
    65
 73
     0
 40
0.0
  0
LTYPE
  5
16
330
5
100
AcDbSymbolTableRecord
100
AcDbLinetypeTableRecord
  2
CONTINUOUS
 70
     0
  3
Solid line
 72
    65
 73
     0
 40
0.0
  0
ENDTAB
  0
TABLE
  2
LAYER
  5
2
100
AcDbSymbolTable
 70
1
  0
LAYER
  5
50
100
AcDbSymbolTableRecord
100
AcDbLayerTableRecord
  2
0
 70
0
  6
CONTINUOUS
  0
ENDTAB
  0
TABLE
  2
STYLE
  5
3
330
0
100
AcDbSymbolTable
 70
     1
  0
STYLE
  5
11
330
3
100
AcDbSymbolTableRecord
100
AcDbTextStyleTableRecord
  2
STANDARD
 70
     0
 40
0.0
 41
1.0
 50
0.0
 71
     0
 42
2.5
  3
txt
  4

  0
ENDTAB
  0
TABLE
  2
VIEW
  5
6
330
0
100
AcDbSymbolTable
 70
     0
  0
ENDTAB
  0
TABLE
  2
UCS
  5
7
330
0
100
AcDbSymbolTable
 70
     0
  0
ENDTAB
  0
TABLE
  2
APPID
  5
9
330
0
100
AcDbSymbolTable
 70
     2
  0
APPID
  5
12
330
9
100
AcDbSymbolTableRecord
100
AcDbRegAppTableRecord
  2
ACAD
 70
     0
  0
ENDTAB
  0
TABLE
  2
DIMSTYLE
  5
A
330
0
100
AcDbSymbolTable
 70
     1
  0
DIMSTYLE
105
27
330
A
100
AcDbSymbolTableRecord
100
AcDbDimStyleTableRecord
  2
ISO-25
 70
     0
  3

  4

  5

  6

  7

 40
1.0
 41
2.5
 42
0.625
 43
3.75
 44
1.25
 45
0.0
 46
0.0
 47
0.0
 48
0.0
140
2.5
141
2.5
142
0.0
143
0.03937007874016
144
1.0
145
0.0
146
1.0
147
0.625
 71
     0
 72
     0
 73
     0
 74
     0
 75
     0
 76
     0
 77
     1
 78
     8
170
     0
171
     3
172
     1
173
     0
174
     0
175
     0
176
     0
177
     0
178
     0
270
     2
271
     2
272
     2
273
     2
274
     3
340
11
275
     0
280
     0
281
     0
282
     0
283
     0
284
     8
285
     0
286
     0
287
     3
288
     0
  0
ENDTAB
  0
TABLE
  2
BLOCK_RECORD
  5
1
330
0
100
AcDbSymbolTable
 70
     1
  0
BLOCK_RECORD
  5
1F
330
1
100
AcDbSymbolTableRecord
100
AcDbBlockTableRecord
  2
*MODEL_SPACE
  0
BLOCK_RECORD
  5
1B
330
1
100
AcDbSymbolTableRecord
100
AcDbBlockTableRecord
  2
*PAPER_SPACE
  0
ENDTAB
  0
ENDSEC
  0
SECTION
  2
BLOCKS
  0
BLOCK
  5
20
330
1F
100
AcDbEntity
  8
0
100
AcDbBlockBegin
  2
*MODEL_SPACE
 70
     0
 10
0.0
 20
0.0
 30
0.0
  3
*MODEL_SPACE
  1

  0
ENDBLK
  5
21
330
1F
100
AcDbEntity
  8
0
100
AcDbBlockEnd
  0
BLOCK
  5
1C
330
1B
100
AcDbEntity
 67
     1
  8
0
100
AcDbBlockBegin
  2
*PAPER_SPACE
  1

  0
ENDBLK
  5
1D
330
1B
100
AcDbEntity
 67
     1
  8
0
100
AcDbBlockEnd
  0
ENDSEC
  0
SECTION
  2
ENTITIES
  0
LWPOLYLINE
  5
100
100
AcDbEntity
  8
0
 62
7
100
AcDbPolyline
 90
211
 70
1
 10
55.396401
 20
-29.454206
 30
0.0
 10
55.549701
 20
-29.486802
 30
0.0
 10
55.693000
 20
-29.550613
 30
0.0
 10
55.819799
 20
-29.642702
 30
0.0
 10
55.924701
 20
-29.759288
 30
0.0
 10
56.003100
 20
-29.895093
 30
0.0
 10
56.051600
 20
-30.044191
 30
0.0
 10
56.067997
 20
-30.200091
 30
0.0
 10
56.051600
 20
-30.355990
 30
0.0
 10
56.003100
 20
-30.505088
 30
0.0
 10
55.924701
 20
-30.640894
 30
0.0
 10
55.819799
 20
-30.757508
 30
0.0
 10
55.693000
 20
-30.849597
 30
0.0
 10
55.549701
 20
-30.913407
 30
0.0
 10
55.396401
 20
-30.946004
 30
0.0
 10
55.318000
 20
-30.946004
 30
0.0
 10
55.318000
 20
-30.949955
 30
0.0
 10
54.068001
 20
-30.949955
 30
0.0
 10
54.068001
 20
-33.949864
 30
0.0
 10
65.686000
 20
-33.949864
 30
0.0
 10
65.686000
 20
-31.249873
 30
0.0
 10
72.199599
 20
-31.249873
 30
0.0
 10
69.809100
 20
-17.692764
 30
0.0
 10
66.854601
 20
-18.213746
 30
0.0
 10
65.986299
 20
-13.289758
 30
0.0
 10
68.940900
 20
-12.768663
 30
0.0
 10
64.425999
 20
12.836230
 30
0.0
 10
61.471500
 20
12.315248
 30
0.0
 10
60.603201
 20
17.239343
 30
0.0
 10
63.557799
 20
17.760342
 30
0.0
 10
56.420300
 20
58.239241
 30
0.0
 10
56.359400
 20
59.982042
 30
0.0
 10
56.541701
 20
61.716442
 30
0.0
 10
56.963601
 20
63.408542
 30
0.0
 10
57.616900
 20
65.025441
 30
0.0
 10
58.488800
 20
66.535742
 30
0.0
 10
59.562500
 20
67.909941
 30
0.0
 10
60.817001
 20
69.121340
 30
0.0
 10
62.227801
 20
70.146442
 30
0.0
 10
63.767600
 20
70.965140
 30
0.0
 10
65.406301
 20
71.561642
 30
0.0
 10
67.048801
 20
71.910740
 30
0.0
 10
64.500001
 20
98.401142
 30
0.0
 10
59.500000
 20
98.401142
 30
0.0
 10
59.500000
 20
97.400142
 30
0.0
 10
55.499999
 20
97.400142
 30
0.0
 10
55.499999
 20
98.401142
 30
0.0
 10
-64.500001
 20
98.401142
 30
0.0
 10
-67.051301
 20
71.884942
 30
0.0
 10
-66.252900
 20
71.772640
 30
0.0
 10
-64.576500
 20
71.292041
 30
0.0
 10
-62.983401
 20
70.582642
 30
0.0
 10
-61.504500
 20
69.658542
 30
0.0
 10
-60.168601
 20
68.537541
 30
0.0
 10
-59.001700
 20
67.241641
 30
0.0
 10
-58.026500
 20
65.795840
 30
0.0
 10
-57.262000
 20
64.228442
 30
0.0
 10
-56.723099
 20
62.569842
 30
0.0
 10
-56.420300
 20
60.852441
 30
0.0
 10
-56.359400
 20
59.109642
 30
0.0
 10
-56.541701
 20
57.375240
 30
0.0
 10
-63.527799
 20
17.754940
 30
0.0
 10
-60.603299
 20
17.239441
 30
0.0
 10
-61.471601
 20
12.315135
 30
0.0
 10
-64.396101
 20
12.830840
 30
0.0
 10
-68.910900
 20
-12.774054
 30
0.0
 10
-65.986400
 20
-13.289561
 30
0.0
 10
-66.854699
 20
-18.213859
 30
0.0
 10
-69.779199
 20
-17.698154
 30
0.0
 10
-72.168701
 20
-31.249873
 30
0.0
 10
-65.686000
 20
-31.249873
 30
0.0
 10
-65.686000
 20
-33.949864
 30
0.0
 10
-54.068001
 20
-33.949864
 30
0.0
 10
-54.068001
 20
-30.949955
 30
0.0
 10
-55.318000
 20
-30.949955
 30
0.0
 10
-55.318000
 20
-30.946004
 30
0.0
 10
-55.396401
 20
-30.946004
 30
0.0
 10
-55.549701
 20
-30.913407
 30
0.0
 10
-55.693000
 20
-30.849597
 30
0.0
 10
-55.819799
 20
-30.757508
 30
0.0
 10
-55.924701
 20
-30.640894
 30
0.0
 10
-56.003100
 20
-30.505088
 30
0.0
 10
-56.051600
 20
-30.355990
 30
0.0
 10
-56.067997
 20
-30.200091
 30
0.0
 10
-56.051600
 20
-30.044191
 30
0.0
 10
-56.003100
 20
-29.895093
 30
0.0
 10
-55.924701
 20
-29.759288
 30
0.0
 10
-55.819799
 20
-29.642702
 30
0.0
 10
-55.693000
 20
-29.550613
 30
0.0
 10
-55.549701
 20
-29.486802
 30
0.0
 10
-55.396401
 20
-29.454206
 30
0.0
 10
-55.318000
 20
-29.454206
 30
0.0
 10
-55.318000
 20
-28.000112
 30
0.0
 10
-55.258400
 20
-27.433494
 30
0.0
 10
-55.082400
 20
-26.891797
 30
0.0
 10
-54.797500
 20
-26.398388
 30
0.0
 10
-54.416401
 20
-25.974998
 30
0.0
 10
-53.955501
 20
-25.640198
 30
0.0
 10
-53.434999
 20
-25.408494
 30
0.0
 10
-52.877799
 20
-25.289988
 30
0.0
 10
-52.308201
 20
-25.289988
 30
0.0
 10
-51.750900
 20
-25.408494
 30
0.0
 10
-51.230499
 20
-25.640198
 30
0.0
 10
-50.769599
 20
-25.974998
 30
0.0
 10
-50.388399
 20
-26.398388
 30
0.0
 10
-50.103600
 20
-26.891797
 30
0.0
 10
-49.927499
 20
-27.433494
 30
0.0
 10
-49.868001
 20
-28.000112
 30
0.0
 10
-49.868001
 20
-29.454206
 30
0.0
 10
-49.789599
 20
-29.454206
 30
0.0
 10
-49.636200
 20
-29.486802
 30
0.0
 10
-49.493001
 20
-29.550613
 30
0.0
 10
-49.366099
 20
-29.642702
 30
0.0
 10
-49.261200
 20
-29.759288
 30
0.0
 10
-49.182799
 20
-29.895093
 30
0.0
 10
-49.134401
 20
-30.044191
 30
0.0
 10
-49.118004
 20
-30.200091
 30
0.0
 10
-49.134401
 20
-30.355990
 30
0.0
 10
-49.182799
 20
-30.505088
 30
0.0
 10
-49.261200
 20
-30.640894
 30
0.0
 10
-49.366099
 20
-30.757508
 30
0.0
 10
-49.493001
 20
-30.849597
 30
0.0
 10
-49.636200
 20
-30.913407
 30
0.0
 10
-49.789599
 20
-30.946004
 30
0.0
 10
-49.868001
 20
-30.946004
 30
0.0
 10
-49.868001
 20
-30.949955
 30
0.0
 10
-51.118000
 20
-30.949955
 30
0.0
 10
-51.118000
 20
-33.949864
 30
0.0
 10
-39.500000
 20
-33.949864
 30
0.0
 10
-39.500000
 20
-31.249873
 30
0.0
 10
-30.459200
 20
-31.249873
 30
0.0
 10
-30.459200
 20
-12.581465
 30
0.0
 10
-30.134001
 20
-10.267356
 30
0.0
 10
-29.489801
 20
-8.021008
 30
0.0
 10
-28.539400
 20
-5.886195
 30
0.0
 10
-27.301000
 20
-3.904458
 30
0.0
 10
-25.798900
 20
-2.114323
 30
0.0
 10
-24.495100
 20
-0.940363
 30
0.0
 10
-24.495100
 20
6.889638
 30
0.0
 10
-24.456300
 20
7.165962
 30
0.0
 10
-24.379400
 20
7.434186
 30
0.0
 10
-24.265900
 20
7.689061
 30
0.0
 10
-24.118000
 20
7.925704
 30
0.0
 10
-23.938700
 20
8.139460
 30
0.0
 10
-23.731300
 20
8.326150
 30
0.0
 10
-23.500000
 20
8.482190
 30
0.0
 10
-23.249200
 20
8.604477
 30
0.0
 10
-22.983800
 20
8.690724
 30
0.0
 10
-22.709000
 20
8.739182
 30
0.0
 10
-22.430200
 20
8.748777
 30
0.0
 10
22.569800
 20
8.748777
 30
0.0
 10
22.847300
 20
8.719596
 30
0.0
 10
23.118000
 20
8.652088
 30
0.0
 10
23.376700
 20
8.547581
 30
0.0
 10
23.618400
 20
8.408079
 30
0.0
 10
23.838300
 20
8.236290
 30
0.0
 10
24.032100
 20
8.035574
 30
0.0
 10
24.196100
 20
7.809824
 30
0.0
 10
24.327100
 20
7.563472
 30
0.0
 10
24.422500
 20
7.301260
 30
0.0
 10
24.480500
 20
7.028351
 30
0.0
 10
24.500002
 20
6.749995
 30
0.0
 10
24.500002
 20
-0.944540
 30
0.0
 10
24.957901
 20
-1.302313
 30
0.0
 10
26.581201
 20
-2.983313
 30
0.0
 10
27.954801
 20
-4.873835
 30
0.0
 10
29.051901
 20
-6.937162
 30
0.0
 10
29.851100
 20
-9.133077
 30
0.0
 10
30.337002
 20
-11.418794
 30
0.0
 10
30.500003
 20
-13.750006
 30
0.0
 10
30.500003
 20
-31.250014
 30
0.0
 10
39.500001
 20
-31.250014
 30
0.0
 10
39.500001
 20
-33.950006
 30
0.0
 10
51.118001
 20
-33.950006
 30
0.0
 10
51.118001
 20
-30.950096
 30
0.0
 10
49.868002
 20
-30.950096
 30
0.0
 10
49.868002
 20
-30.946145
 30
0.0
 10
49.789601
 20
-30.946145
 30
0.0
 10
49.636202
 20
-30.913548
 30
0.0
 10
49.493002
 20
-30.849738
 30
0.0
 10
49.366101
 20
-30.757649
 30
0.0
 10
49.261202
 20
-30.641035
 30
0.0
 10
49.182800
 20
-30.505229
 30
0.0
 10
49.134402
 20
-30.356131
 30
0.0
 10
49.118005
 20
-30.200232
 30
0.0
 10
49.134402
 20
-30.044332
 30
0.0
 10
49.182800
 20
-29.895234
 30
0.0
 10
49.261202
 20
-29.759429
 30
0.0
 10
49.366101
 20
-29.642843
 30
0.0
 10
49.493002
 20
-29.550754
 30
0.0
 10
49.636202
 20
-29.486943
 30
0.0
 10
49.789601
 20
-29.454347
 30
0.0
 10
49.868002
 20
-29.454347
 30
0.0
 10
49.868002
 20
-28.000253
 30
0.0
 10
49.927500
 20
-27.433636
 30
0.0
 10
50.103601
 20
-26.891938
 30
0.0
 10
50.388400
 20
-26.398529
 30
0.0
 10
50.769600
 20
-25.975139
 30
0.0
 10
51.230500
 20
-25.640339
 30
0.0
 10
51.750901
 20
-25.408635
 30
0.0
 10
52.308203
 20
-25.290130
 30
0.0
 10
52.877800
 20
-25.290130
 30
0.0
 10
53.435000
 20
-25.408635
 30
0.0
 10
53.955503
 20
-25.640339
 30
0.0
 10
54.416403
 20
-25.975139
 30
0.0
 10
54.797501
 20
-26.398529
 30
0.0
 10
55.082402
 20
-26.891938
 30
0.0
 10
55.258401
 20
-27.433636
 30
0.0
 10
55.318001
 20
-28.000253
 30
0.0
 10
55.318001
 20
-29.454347
 30
0.0
 10
55.396401
 20
-29.454206
 30
0.0
  0
LWPOLYLINE
  5
101
100
AcDbEntity
  8
0
 62
7
100
AcDbPolyline
 90
31
 70
1
 10
-60.132801
 20
82.711901
 30
0.0
 10
-60.100001
 20
82.400000
 30
0.0
 10
-60.132801
 20
82.088100
 30
0.0
 10
-60.229699
 20
81.789901
 30
0.0
 10
-60.386499
 20
81.518301
 30
0.0
 10
-60.596300
 20
81.285299
 30
0.0
 10
-60.850001
 20
81.100999
 30
0.0
 10
-61.136499
 20
80.973401
 30
0.0
 10
-61.443201
 20
80.908199
 30
0.0
 10
-61.756801
 20
80.908199
 30
0.0
 10
-62.063500
 20
80.973401
 30
0.0
 10
-62.350001
 20
81.100999
 30
0.0
 10
-62.603699
 20
81.285299
 30
0.0
 10
-62.813500
 20
81.518301
 30
0.0
 10
-62.970300
 20
81.789901
 30
0.0
 10
-63.067201
 20
82.088100
 30
0.0
 10
-63.100001
 20
82.400000
 30
0.0
 10
-63.067201
 20
82.711901
 30
0.0
 10
-62.970300
 20
83.010100
 30
0.0
 10
-62.813500
 20
83.281699
 30
0.0
 10
-62.603699
 20
83.514699
 30
0.0
 10
-62.350001
 20
83.699001
 30
0.0
 10
-62.063500
 20
83.826600
 30
0.0
 10
-61.756801
 20
83.891801
 30
0.0
 10
-61.443201
 20
83.891801
 30
0.0
 10
-61.136499
 20
83.826600
 30
0.0
 10
-60.850001
 20
83.699001
 30
0.0
 10
-60.596300
 20
83.514699
 30
0.0
 10
-60.386499
 20
83.281699
 30
0.0
 10
-60.229699
 20
83.010100
 30
0.0
 10
-60.132801
 20
82.711901
 30
0.0
  0
LWPOLYLINE
  5
102
100
AcDbEntity
  8
0
 62
7
100
AcDbPolyline
 90
31
 70
1
 10
-34.517200
 20
82.711901
 30
0.0
 10
-34.420299
 20
83.010100
 30
0.0
 10
-34.263499
 20
83.281699
 30
0.0
 10
-34.053701
 20
83.514699
 30
0.0
 10
-33.800000
 20
83.699001
 30
0.0
 10
-33.513499
 20
83.826600
 30
0.0
 10
-33.206800
 20
83.891801
 30
0.0
 10
-32.893200
 20
83.891801
 30
0.0
 10
-32.586501
 20
83.826600
 30
0.0
 10
-32.300000
 20
83.699001
 30
0.0
 10
-32.046299
 20
83.514699
 30
0.0
 10
-31.836501
 20
83.281699
 30
0.0
 10
-31.679701
 20
83.010100
 30
0.0
 10
-31.582800
 20
82.711901
 30
0.0
 10
-31.550000
 20
82.400000
 30
0.0
 10
-31.582800
 20
82.088100
 30
0.0
 10
-31.679701
 20
81.789901
 30
0.0
 10
-31.836501
 20
81.518301
 30
0.0
 10
-32.046299
 20
81.285299
 30
0.0
 10
-32.300000
 20
81.100999
 30
0.0
 10
-32.586501
 20
80.973401
 30
0.0
 10
-32.893200
 20
80.908199
 30
0.0
 10
-33.206800
 20
80.908199
 30
0.0
 10
-33.513499
 20
80.973401
 30
0.0
 10
-33.800000
 20
81.100999
 30
0.0
 10
-34.053701
 20
81.285299
 30
0.0
 10
-34.263499
 20
81.518301
 30
0.0
 10
-34.420299
 20
81.789901
 30
0.0
 10
-34.517200
 20
82.088100
 30
0.0
 10
-34.550000
 20
82.400000
 30
0.0
 10
-34.517200
 20
82.711901
 30
0.0
  0
LWPOLYLINE
  5
103
100
AcDbEntity
  8
0
 62
7
100
AcDbPolyline
 90
5
 70
1
 10
59.500000
 20
77.000000
 30
0.0
 10
55.499999
 20
77.000000
 30
0.0
 10
55.499999
 20
79.999999
 30
0.0
 10
59.500000
 20
79.999999
 30
0.0
 10
59.500000
 20
77.000000
 30
0.0
  0
LWPOLYLINE
  5
104
100
AcDbEntity
  8
0
 62
7
100
AcDbPolyline
 90
31
 70
1
 10
-24.600000
 20
71.699999
 30
0.0
 10
-24.870300
 20
71.728399
 30
0.0
 10
-25.128800
 20
71.812400
 30
0.0
 10
-25.364100
 20
71.948301
 30
0.0
 10
-25.566100
 20
72.130100
 30
0.0
 10
-25.725800
 20
72.349999
 30
0.0
 10
-25.836400
 20
72.598301
 30
0.0
 10
-25.892900
 20
72.864101
 30
0.0
 10
-25.892900
 20
73.135901
 30
0.0
 10
-25.836400
 20
73.401700
 30
0.0
 10
-25.725800
 20
73.649999
 30
0.0
 10
-25.566100
 20
73.869898
 30
0.0
 10
-25.364100
 20
74.051700
 30
0.0
 10
-25.128800
 20
74.187599
 30
0.0
 10
-24.870300
 20
74.271599
 30
0.0
 10
-24.600000
 20
74.299999
 30
0.0
 10
-24.329700
 20
74.271599
 30
0.0
 10
-24.071200
 20
74.187599
 30
0.0
 10
-23.835900
 20
74.051700
 30
0.0
 10
-23.633900
 20
73.869898
 30
0.0
 10
-23.474200
 20
73.649999
 30
0.0
 10
-23.363600
 20
73.401700
 30
0.0
 10
-23.307100
 20
73.135901
 30
0.0
 10
-23.307100
 20
72.864101
 30
0.0
 10
-23.363600
 20
72.598301
 30
0.0
 10
-23.474200
 20
72.349999
 30
0.0
 10
-23.633900
 20
72.130100
 30
0.0
 10
-23.835900
 20
71.948301
 30
0.0
 10
-24.071200
 20
71.812400
 30
0.0
 10
-24.329700
 20
71.728399
 30
0.0
 10
-24.600000
 20
71.699999
 30
0.0
  0
LWPOLYLINE
  5
105
100
AcDbEntity
  8
0
 62
7
100
AcDbPolyline
 90
31
 70
1
 10
24.329700
 20
71.728399
 30
0.0
 10
24.071200
 20
71.812400
 30
0.0
 10
23.835900
 20
71.948301
 30
0.0
 10
23.633900
 20
72.130100
 30
0.0
 10
23.474200
 20
72.349999
 30
0.0
 10
23.363600
 20
72.598301
 30
0.0
 10
23.307100
 20
72.864101
 30
0.0
 10
23.307100
 20
73.135901
 30
0.0
 10
23.363600
 20
73.401700
 30
0.0
 10
23.474200
 20
73.649999
 30
0.0
 10
23.633900
 20
73.869898
 30
0.0
 10
23.835900
 20
74.051700
 30
0.0
 10
24.071200
 20
74.187599
 30
0.0
 10
24.329700
 20
74.271599
 30
0.0
 10
24.600000
 20
74.299999
 30
0.0
 10
24.870300
 20
74.271599
 30
0.0
 10
25.128800
 20
74.187599
 30
0.0
 10
25.364100
 20
74.051700
 30
0.0
 10
25.566100
 20
73.869898
 30
0.0
 10
25.725800
 20
73.649999
 30
0.0
 10
25.836400
 20
73.401700
 30
0.0
 10
25.892900
 20
73.135901
 30
0.0
 10
25.892900
 20
72.864101
 30
0.0
 10
25.836400
 20
72.598301
 30
0.0
 10
25.725800
 20
72.349999
 30
0.0
 10
25.566100
 20
72.130100
 30
0.0
 10
25.364100
 20
71.948301
 30
0.0
 10
25.128800
 20
71.812400
 30
0.0
 10
24.870300
 20
71.728399
 30
0.0
 10
24.600000
 20
71.699999
 30
0.0
 10
24.329700
 20
71.728399
 30
0.0
  0
LWPOLYLINE
  5
106
100
AcDbEntity
  8
0
 62
7
100
AcDbPolyline
 90
31
 70
1
 10
39.249999
 20
72.799001
 30
0.0
 10
39.503700
 20
72.614701
 30
0.0
 10
39.713501
 20
72.381701
 30
0.0
 10
39.870301
 20
72.110099
 30
0.0
 10
39.967199
 20
71.811900
 30
0.0
 10
39.999999
 20
71.499999
 30
0.0
 10
39.967199
 20
71.188099
 30
0.0
 10
39.870301
 20
70.889900
 30
0.0
 10
39.713501
 20
70.618301
 30
0.0
 10
39.503700
 20
70.385301
 30
0.0
 10
39.249999
 20
70.201001
 30
0.0
 10
38.963501
 20
70.073400
 30
0.0
 10
38.656799
 20
70.008201
 30
0.0
 10
38.343199
 20
70.008201
 30
0.0
 10
38.036500
 20
70.073400
 30
0.0
 10
37.749999
 20
70.201001
 30
0.0
 10
37.496301
 20
70.385301
 30
0.0
 10
37.286500
 20
70.618301
 30
0.0
 10
37.129700
 20
70.889900
 30
0.0
 10
37.032799
 20
71.188099
 30
0.0
 10
36.999999
 20
71.499999
 30
0.0
 10
37.032799
 20
71.811900
 30
0.0
 10
37.129700
 20
72.110099
 30
0.0
 10
37.286500
 20
72.381701
 30
0.0
 10
37.496301
 20
72.614701
 30
0.0
 10
37.749999
 20
72.799001
 30
0.0
 10
38.036500
 20
72.926599
 30
0.0
 10
38.343199
 20
72.991801
 30
0.0
 10
38.656799
 20
72.991801
 30
0.0
 10
38.963501
 20
72.926599
 30
0.0
 10
39.249999
 20
72.799001
 30
0.0
  0
LWPOLYLINE
  5
107
100
AcDbEntity
  8
0
 62
7
100
AcDbPolyline
 90
31
 70
1
 10
-20.950000
 20
63.802699
 30
0.0
 10
-21.274700
 20
63.658201
 30
0.0
 10
-21.622300
 20
63.584301
 30
0.0
 10
-21.977700
 20
63.584301
 30
0.0
 10
-22.325300
 20
63.658201
 30
0.0
 10
-22.650000
 20
63.802699
 30
0.0
 10
-22.937500
 20
64.011600
 30
0.0
 10
-23.175300
 20
64.275799
 30
0.0
 10
-23.353000
 20
64.583500
 30
0.0
 10
-23.462800
 20
64.921501
 30
0.0
 10
-23.500000
 20
65.274998
 30
0.0
 10
-23.462800
 20
65.628400
 30
0.0
 10
-23.353000
 20
65.966401
 30
0.0
 10
-23.175300
 20
66.274201
 30
0.0
 10
-22.937500
 20
66.538299
 30
0.0
 10
-22.650000
 20
66.747199
 30
0.0
 10
-22.325300
 20
66.891799
 30
0.0
 10
-21.977700
 20
66.965699
 30
0.0
 10
-21.622300
 20
66.965699
 30
0.0
 10
-21.274700
 20
66.891799
 30
0.0
 10
-20.950000
 20
66.747199
 30
0.0
 10
-20.662500
 20
66.538299
 30
0.0
 10
-20.424700
 20
66.274201
 30
0.0
 10
-20.247000
 20
65.966401
 30
0.0
 10
-20.137100
 20
65.628400
 30
0.0
 10
-20.100000
 20
65.274998
 30
0.0
 10
-20.137100
 20
64.921501
 30
0.0
 10
-20.247000
 20
64.583500
 30
0.0
 10
-20.424700
 20
64.275799
 30
0.0
 10
-20.662500
 20
64.011600
 30
0.0
 10
-20.950000
 20
63.802699
 30
0.0
  0
LWPOLYLINE
  5
108
100
AcDbEntity
  8
0
 62
7
100
AcDbPolyline
 90
31
 70
1
 10
21.977700
 20
66.965699
 30
0.0
 10
22.325300
 20
66.891799
 30
0.0
 10
22.650000
 20
66.747199
 30
0.0
 10
22.937500
 20
66.538299
 30
0.0
 10
23.175300
 20
66.274201
 30
0.0
 10
23.353000
 20
65.966401
 30
0.0
 10
23.462800
 20
65.628400
 30
0.0
 10
23.500000
 20
65.274998
 30
0.0
 10
23.462800
 20
64.921501
 30
0.0
 10
23.353000
 20
64.583500
 30
0.0
 10
23.175300
 20
64.275799
 30
0.0
 10
22.937500
 20
64.011600
 30
0.0
 10
22.650000
 20
63.802699
 30
0.0
 10
22.325300
 20
63.658201
 30
0.0
 10
21.977700
 20
63.584301
 30
0.0
 10
21.622300
 20
63.584301
 30
0.0
 10
21.274700
 20
63.658201
 30
0.0
 10
20.950000
 20
63.802699
 30
0.0
 10
20.662500
 20
64.011600
 30
0.0
 10
20.424700
 20
64.275799
 30
0.0
 10
20.247000
 20
64.583500
 30
0.0
 10
20.137100
 20
64.921501
 30
0.0
 10
20.100000
 20
65.274998
 30
0.0
 10
20.137100
 20
65.628400
 30
0.0
 10
20.247000
 20
65.966401
 30
0.0
 10
20.424700
 20
66.274201
 30
0.0
 10
20.662500
 20
66.538299
 30
0.0
 10
20.950000
 20
66.747199
 30
0.0
 10
21.274700
 20
66.891799
 30
0.0
 10
21.622300
 20
66.965699
 30
0.0
 10
21.977700
 20
66.965699
 30
0.0
  0
LWPOLYLINE
  5
109
100
AcDbEntity
  8
0
 62
7
100
AcDbPolyline
 90
31
 70
1
 10
-39.249999
 20
62.201000
 30
0.0
 10
-39.503700
 20
62.385300
 30
0.0
 10
-39.713501
 20
62.618300
 30
0.0
 10
-39.870301
 20
62.889899
 30
0.0
 10
-39.967199
 20
63.188101
 30
0.0
 10
-39.999999
 20
63.499999
 30
0.0
 10
-39.967199
 20
63.811899
 30
0.0
 10
-39.870301
 20
64.110101
 30
0.0
 10
-39.713501
 20
64.381700
 30
0.0
 10
-39.503700
 20
64.614700
 30
0.0
 10
-39.249999
 20
64.799000
 30
0.0
 10
-38.963501
 20
64.926601
 30
0.0
 10
-38.656799
 20
64.991800
 30
0.0
 10
-38.343199
 20
64.991800
 30
0.0
 10
-38.036500
 20
64.926601
 30
0.0
 10
-37.749999
 20
64.799000
 30
0.0
 10
-37.496301
 20
64.614700
 30
0.0
 10
-37.286500
 20
64.381700
 30
0.0
 10
-37.129700
 20
64.110101
 30
0.0
 10
-37.032799
 20
63.811899
 30
0.0
 10
-36.999999
 20
63.499999
 30
0.0
 10
-37.032799
 20
63.188101
 30
0.0
 10
-37.129700
 20
62.889899
 30
0.0
 10
-37.286500
 20
62.618300
 30
0.0
 10
-37.496301
 20
62.385300
 30
0.0
 10
-37.749999
 20
62.201000
 30
0.0
 10
-38.036500
 20
62.073399
 30
0.0
 10
-38.343199
 20
62.008200
 30
0.0
 10
-38.656799
 20
62.008200
 30
0.0
 10
-38.963501
 20
62.073399
 30
0.0
 10
-39.249999
 20
62.201000
 30
0.0
  0
LWPOLYLINE
  5
10a
100
AcDbEntity
  8
0
 62
7
100
AcDbPolyline
 90
33
 70
1
 10
36.345599
 20
33.334301
 30
0.0
 10
35.500000
 20
32.719900
 30
0.0
 10
34.545101
 20
32.294699
 30
0.0
 10
33.522601
 20
32.077399
 30
0.0
 10
32.477400
 20
32.077399
 30
0.0
 10
31.454900
 20
32.294699
 30
0.0
 10
30.500001
 20
32.719900
 30
0.0
 10
29.654300
 20
33.334301
 30
0.0
 10
28.954899
 20
34.111101
 30
0.0
 10
28.432300
 20
35.016300
 30
0.0
 10
28.109300
 20
36.010400
 30
0.0
 10
28.000000
 20
37.049999
 30
0.0
 10
28.000000
 20
57.049999
 30
0.0
 10
28.109300
 20
58.089601
 30
0.0
 10
28.432300
 20
59.083701
 30
0.0
 10
28.954899
 20
59.988900
 30
0.0
 10
29.654300
 20
60.765700
 30
0.0
 10
30.500001
 20
61.380100
 30
0.0
 10
31.454900
 20
61.805299
 30
0.0
 10
32.477400
 20
62.022599
 30
0.0
 10
33.522601
 20
62.022599
 30
0.0
 10
34.545101
 20
61.805299
 30
0.0
 10
35.500000
 20
61.380100
 30
0.0
 10
36.345599
 20
60.765700
 30
0.0
 10
37.045098
 20
59.988900
 30
0.0
 10
37.567701
 20
59.083701
 30
0.0
 10
37.890701
 20
58.089601
 30
0.0
 10
38.000000
 20
57.049999
 30
0.0
 10
38.000000
 20
37.049999
 30
0.0
 10
37.890701
 20
36.010400
 30
0.0
 10
37.567701
 20
35.016300
 30
0.0
 10
37.045098
 20
34.111101
 30
0.0
 10
36.345599
 20
33.334301
 30
0.0
  0
LWPOLYLINE
  5
10b
100
AcDbEntity
  8
0
 62
7
100
AcDbPolyline
 90
33
 70
1
 10
-35.500000
 20
61.380100
 30
0.0
 10
-34.545101
 20
61.805299
 30
0.0
 10
-33.522601
 20
62.022599
 30
0.0
 10
-32.477400
 20
62.022599
 30
0.0
 10
-31.454900
 20
61.805299
 30
0.0
 10
-30.500001
 20
61.380100
 30
0.0
 10
-29.654300
 20
60.765700
 30
0.0
 10
-28.954899
 20
59.988900
 30
0.0
 10
-28.432300
 20
59.083701
 30
0.0
 10
-28.109300
 20
58.089601
 30
0.0
 10
-28.000000
 20
57.049999
 30
0.0
 10
-28.000000
 20
37.049999
 30
0.0
 10
-28.109300
 20
36.010400
 30
0.0
 10
-28.432300
 20
35.016300
 30
0.0
 10
-28.954899
 20
34.111101
 30
0.0
 10
-29.654300
 20
33.334301
 30
0.0
 10
-30.500001
 20
32.719900
 30
0.0
 10
-31.454900
 20
32.294699
 30
0.0
 10
-32.477400
 20
32.077399
 30
0.0
 10
-33.522601
 20
32.077399
 30
0.0
 10
-34.545101
 20
32.294699
 30
0.0
 10
-35.500000
 20
32.719900
 30
0.0
 10
-36.345599
 20
33.334301
 30
0.0
 10
-37.045098
 20
34.111101
 30
0.0
 10
-37.567701
 20
35.016300
 30
0.0
 10
-37.890701
 20
36.010400
 30
0.0
 10
-38.000000
 20
37.049999
 30
0.0
 10
-38.000000
 20
57.049999
 30
0.0
 10
-37.890701
 20
58.089601
 30
0.0
 10
-37.567701
 20
59.083701
 30
0.0
 10
-37.045098
 20
59.988900
 30
0.0
 10
-36.345599
 20
60.765700
 30
0.0
 10
-35.500000
 20
61.380100
 30
0.0
  0
LWPOLYLINE
  5
10c
100
AcDbEntity
  8
0
 62
7
100
AcDbPolyline
 90
33
 70
1
 10
-43.870299
 20
36.439900
 30
0.0
 10
-43.967200
 20
36.738101
 30
0.0
 10
-43.999999
 20
37.049999
 30
0.0
 10
-43.999999
 20
57.049999
 30
0.0
 10
-43.967200
 20
57.361899
 30
0.0
 10
-43.870299
 20
57.660101
 30
0.0
 10
-43.713499
 20
57.931700
 30
0.0
 10
-43.503700
 20
58.164700
 30
0.0
 10
-43.250000
 20
58.349000
 30
0.0
 10
-42.963499
 20
58.476601
 30
0.0
 10
-42.656800
 20
58.541800
 30
0.0
 10
-42.343200
 20
58.541800
 30
0.0
 10
-42.036500
 20
58.476601
 30
0.0
 10
-41.750000
 20
58.349000
 30
0.0
 10
-41.496299
 20
58.164700
 30
0.0
 10
-41.286501
 20
57.931700
 30
0.0
 10
-41.129701
 20
57.660101
 30
0.0
 10
-41.032800
 20
57.361899
 30
0.0
 10
-41.000000
 20
57.049999
 30
0.0
 10
-41.000000
 20
37.049999
 30
0.0
 10
-41.032800
 20
36.738101
 30
0.0
 10
-41.129701
 20
36.439900
 30
0.0
 10
-41.286501
 20
36.168300
 30
0.0
 10
-41.496299
 20
35.935300
 30
0.0
 10
-41.750000
 20
35.751001
 30
0.0
 10
-42.036500
 20
35.623400
 30
0.0
 10
-42.343200
 20
35.558201
 30
0.0
 10
-42.656800
 20
35.558201
 30
0.0
 10
-42.963499
 20
35.623400
 30
0.0
 10
-43.250000
 20
35.751001
 30
0.0
 10
-43.503700
 20
35.935300
 30
0.0
 10
-43.713499
 20
36.168300
 30
0.0
 10
-43.870299
 20
36.439900
 30
0.0
  0
LWPOLYLINE
  5
10d
100
AcDbEntity
  8
0
 62
7
100
AcDbPolyline
 90
33
 70
1
 10
41.000000
 20
57.049999
 30
0.0
 10
41.032800
 20
57.361899
 30
0.0
 10
41.129701
 20
57.660101
 30
0.0
 10
41.286501
 20
57.931700
 30
0.0
 10
41.496299
 20
58.164700
 30
0.0
 10
41.750000
 20
58.349000
 30
0.0
 10
42.036500
 20
58.476601
 30
0.0
 10
42.343200
 20
58.541800
 30
0.0
 10
42.656800
 20
58.541800
 30
0.0
 10
42.963499
 20
58.476601
 30
0.0
 10
43.250000
 20
58.349000
 30
0.0
 10
43.503700
 20
58.164700
 30
0.0
 10
43.713499
 20
57.931700
 30
0.0
 10
43.870299
 20
57.660101
 30
0.0
 10
43.967200
 20
57.361899
 30
0.0
 10
43.999999
 20
57.049999
 30
0.0
 10
43.999999
 20
37.049999
 30
0.0
 10
43.967200
 20
36.738101
 30
0.0
 10
43.870299
 20
36.439900
 30
0.0
 10
43.713499
 20
36.168300
 30
0.0
 10
43.503700
 20
35.935300
 30
0.0
 10
43.250000
 20
35.751001
 30
0.0
 10
42.963499
 20
35.623400
 30
0.0
 10
42.656800
 20
35.558201
 30
0.0
 10
42.343200
 20
35.558201
 30
0.0
 10
42.036500
 20
35.623400
 30
0.0
 10
41.750000
 20
35.751001
 30
0.0
 10
41.496299
 20
35.935300
 30
0.0
 10
41.286501
 20
36.168300
 30
0.0
 10
41.129701
 20
36.439900
 30
0.0
 10
41.032800
 20
36.738101
 30
0.0
 10
41.000000
 20
37.049999
 30
0.0
 10
41.000000
 20
57.049999
 30
0.0
  0
LWPOLYLINE
  5
10e
100
AcDbEntity
  8
0
 62
7
100
AcDbPolyline
 90
31
 70
1
 10
20.662500
 20
24.461700
 30
0.0
 10
20.424700
 20
24.725801
 30
0.0
 10
20.247000
 20
25.033601
 30
0.0
 10
20.137100
 20
25.371598
 30
0.0
 10
20.100000
 20
25.725000
 30
0.0
 10
20.137100
 20
26.078500
 30
0.0
 10
20.247000
 20
26.416501
 30
0.0
 10
20.424700
 20
26.724199
 30
0.0
 10
20.662500
 20
26.988399
 30
0.0
 10
20.950000
 20
27.197300
 30
0.0
 10
21.274700
 20
27.341800
 30
0.0
 10
21.622300
 20
27.415700
 30
0.0
 10
21.977700
 20
27.415700
 30
0.0
 10
22.325300
 20
27.341800
 30
0.0
 10
22.650000
 20
27.197300
 30
0.0
 10
22.937500
 20
26.988399
 30
0.0
 10
23.175300
 20
26.724199
 30
0.0
 10
23.353000
 20
26.416501
 30
0.0
 10
23.462800
 20
26.078500
 30
0.0
 10
23.500000
 20
25.725000
 30
0.0
 10
23.462800
 20
25.371598
 30
0.0
 10
23.353000
 20
25.033601
 30
0.0
 10
23.175300
 20
24.725801
 30
0.0
 10
22.937500
 20
24.461700
 30
0.0
 10
22.650000
 20
24.252799
 30
0.0
 10
22.325300
 20
24.108200
 30
0.0
 10
21.977700
 20
24.034300
 30
0.0
 10
21.622300
 20
24.034300
 30
0.0
 10
21.274700
 20
24.108200
 30
0.0
 10
20.950000
 20
24.252799
 30
0.0
 10
20.662500
 20
24.461700
 30
0.0
  0
LWPOLYLINE
  5
10f
100
AcDbEntity
  8
0
 62
7
100
AcDbPolyline
 90
31
 70
1
 10
-23.462800
 20
26.078500
 30
0.0
 10
-23.353000
 20
26.416501
 30
0.0
 10
-23.175300
 20
26.724199
 30
0.0
 10
-22.937500
 20
26.988399
 30
0.0
 10
-22.650000
 20
27.197300
 30
0.0
 10
-22.325300
 20
27.341800
 30
0.0
 10
-21.977700
 20
27.415700
 30
0.0
 10
-21.622300
 20
27.415700
 30
0.0
 10
-21.274700
 20
27.341800
 30
0.0
 10
-20.950000
 20
27.197300
 30
0.0
 10
-20.662500
 20
26.988399
 30
0.0
 10
-20.424700
 20
26.724199
 30
0.0
 10
-20.247000
 20
26.416501
 30
0.0
 10
-20.137100
 20
26.078500
 30
0.0
 10
-20.100000
 20
25.725000
 30
0.0
 10
-20.137100
 20
25.371598
 30
0.0
 10
-20.247000
 20
25.033601
 30
0.0
 10
-20.424700
 20
24.725801
 30
0.0
 10
-20.662500
 20
24.461700
 30
0.0
 10
-20.950000
 20
24.252799
 30
0.0
 10
-21.274700
 20
24.108200
 30
0.0
 10
-21.622300
 20
24.034300
 30
0.0
 10
-21.977700
 20
24.034300
 30
0.0
 10
-22.325300
 20
24.108200
 30
0.0
 10
-22.650000
 20
24.252799
 30
0.0
 10
-22.937500
 20
24.461700
 30
0.0
 10
-23.175300
 20
24.725801
 30
0.0
 10
-23.353000
 20
25.033601
 30
0.0
 10
-23.462800
 20
25.371598
 30
0.0
 10
-23.500000
 20
25.725000
 30
0.0
 10
-23.462800
 20
26.078500
 30
0.0
  0
LWPOLYLINE
  5
110
100
AcDbEntity
  8
0
 62
7
100
AcDbPolyline
 90
5
 70
1
 10
33.549999
 20
22.000000
 30
0.0
 10
56.676200
 20
22.000000
 30
0.0
 10
56.676200
 20
18.800000
 30
0.0
 10
33.549999
 20
18.800000
 30
0.0
 10
33.549999
 20
22.000000
 30
0.0
  0
LWPOLYLINE
  5
111
100
AcDbEntity
  8
0
 62
7
100
AcDbPolyline
 90
5
 70
1
 10
11.563100
 20
18.800000
 30
0.0
 10
-11.563100
 20
18.800000
 30
0.0
 10
-11.563100
 20
22.000000
 30
0.0
 10
11.563100
 20
22.000000
 30
0.0
 10
11.563100
 20
18.800000
 30
0.0
  0
LWPOLYLINE
  5
112
100
AcDbEntity
  8
0
 62
7
100
AcDbPolyline
 90
5
 70
1
 10
-56.676200
 20
22.000000
 30
0.0
 10
-33.549999
 20
22.000000
 30
0.0
 10
-33.549999
 20
18.800000
 30
0.0
 10
-56.676200
 20
18.800000
 30
0.0
 10
-56.676200
 20
22.000000
 30
0.0
  0
LWPOLYLINE
  5
113
100
AcDbEntity
  8
0
 62
7
100
AcDbPolyline
 90
31
 70
1
 10
-39.999999
 20
16.000000
 30
0.0
 10
-39.967199
 20
16.311901
 30
0.0
 10
-39.870301
 20
16.610100
 30
0.0
 10
-39.713501
 20
16.881699
 30
0.0
 10
-39.503700
 20
17.114699
 30
0.0
 10
-39.249999
 20
17.298999
 30
0.0
 10
-38.963501
 20
17.426600
 30
0.0
 10
-38.656799
 20
17.491799
 30
0.0
 10
-38.343199
 20
17.491799
 30
0.0
 10
-38.036500
 20
17.426600
 30
0.0
 10
-37.749999
 20
17.298999
 30
0.0
 10
-37.496301
 20
17.114699
 30
0.0
 10
-37.286500
 20
16.881699
 30
0.0
 10
-37.129700
 20
16.610100
 30
0.0
 10
-37.032799
 20
16.311901
 30
0.0
 10
-36.999999
 20
16.000000
 30
0.0
 10
-37.032799
 20
15.688100
 30
0.0
 10
-37.129700
 20
15.389901
 30
0.0
 10
-37.286500
 20
15.118301
 30
0.0
 10
-37.496301
 20
14.885299
 30
0.0
 10
-37.749999
 20
14.701013
 30
0.0
 10
-38.036500
 20
14.573392
 30
0.0
 10
-38.343199
 20
14.508199
 30
0.0
 10
-38.656799
 20
14.508199
 30
0.0
 10
-38.963501
 20
14.573392
 30
0.0
 10
-39.249999
 20
14.701013
 30
0.0
 10
-39.503700
 20
14.885299
 30
0.0
 10
-39.713501
 20
15.118301
 30
0.0
 10
-39.870301
 20
15.389901
 30
0.0
 10
-39.967199
 20
15.688100
 30
0.0
 10
-39.999999
 20
16.000000
 30
0.0
  0
LWPOLYLINE
  5
114
100
AcDbEntity
  8
0
 62
7
100
AcDbPolyline
 90
31
 70
1
 10
38.963501
 20
17.426600
 30
0.0
 10
39.249999
 20
17.298999
 30
0.0
 10
39.503700
 20
17.114699
 30
0.0
 10
39.713501
 20
16.881699
 30
0.0
 10
39.870301
 20
16.610100
 30
0.0
 10
39.967199
 20
16.311901
 30
0.0
 10
39.999999
 20
16.000000
 30
0.0
 10
39.967199
 20
15.688100
 30
0.0
 10
39.870301
 20
15.389901
 30
0.0
 10
39.713501
 20
15.118301
 30
0.0
 10
39.503700
 20
14.885299
 30
0.0
 10
39.249999
 20
14.701013
 30
0.0
 10
38.963501
 20
14.573392
 30
0.0
 10
38.656799
 20
14.508199
 30
0.0
 10
38.343199
 20
14.508199
 30
0.0
 10
38.036500
 20
14.573392
 30
0.0
 10
37.749999
 20
14.701013
 30
0.0
 10
37.496301
 20
14.885299
 30
0.0
 10
37.286500
 20
15.118301
 30
0.0
 10
37.129700
 20
15.389901
 30
0.0
 10
37.032799
 20
15.688100
 30
0.0
 10
36.999999
 20
16.000000
 30
0.0
 10
37.032799
 20
16.311901
 30
0.0
 10
37.129700
 20
16.610100
 30
0.0
 10
37.286500
 20
16.881699
 30
0.0
 10
37.496301
 20
17.114699
 30
0.0
 10
37.749999
 20
17.298999
 30
0.0
 10
38.036500
 20
17.426600
 30
0.0
 10
38.343199
 20
17.491799
 30
0.0
 10
38.656799
 20
17.491799
 30
0.0
 10
38.963501
 20
17.426600
 30
0.0
  0
LWPOLYLINE
  5
115
100
AcDbEntity
  8
0
 62
7
100
AcDbPolyline
 90
31
 70
1
 10
-24.600000
 20
13.600008
 30
0.0
 10
-24.870300
 20
13.628400
 30
0.0
 10
-25.128800
 20
13.712389
 30
0.0
 10
-25.364100
 20
13.848307
 30
0.0
 10
-25.566100
 20
14.030086
 30
0.0
 10
-25.725800
 20
14.249994
 30
0.0
 10
-25.836400
 20
14.498293
 30
0.0
 10
-25.892900
 20
14.764090
 30
0.0
 10
-25.892900
 20
15.035901
 30
0.0
 10
-25.836400
 20
15.301701
 30
0.0
 10
-25.725800
 20
15.550000
 30
0.0
 10
-25.566100
 20
15.769899
 30
0.0
 10
-25.364100
 20
15.951701
 30
0.0
 10
-25.128800
 20
16.087599
 30
0.0
 10
-24.870300
 20
16.171600
 30
0.0
 10
-24.600000
 20
16.200000
 30
0.0
 10
-24.329700
 20
16.171600
 30
0.0
 10
-24.071200
 20
16.087599
 30
0.0
 10
-23.835900
 20
15.951701
 30
0.0
 10
-23.633900
 20
15.769899
 30
0.0
 10
-23.474200
 20
15.550000
 30
0.0
 10
-23.363600
 20
15.301701
 30
0.0
 10
-23.307100
 20
15.035901
 30
0.0
 10
-23.307100
 20
14.764090
 30
0.0
 10
-23.363600
 20
14.498293
 30
0.0
 10
-23.474200
 20
14.249994
 30
0.0
 10
-23.633900
 20
14.030086
 30
0.0
 10
-23.835900
 20
13.848307
 30
0.0
 10
-24.071200
 20
13.712389
 30
0.0
 10
-24.329700
 20
13.628400
 30
0.0
 10
-24.600000
 20
13.600008
 30
0.0
  0
LWPOLYLINE
  5
116
100
AcDbEntity
  8
0
 62
7
100
AcDbPolyline
 90
31
 70
1
 10
25.566100
 20
14.030086
 30
0.0
 10
25.364100
 20
13.848307
 30
0.0
 10
25.128700
 20
13.712389
 30
0.0
 10
24.870300
 20
13.628400
 30
0.0
 10
24.600000
 20
13.600008
 30
0.0
 10
24.329700
 20
13.628400
 30
0.0
 10
24.071200
 20
13.712389
 30
0.0
 10
23.835900
 20
13.848307
 30
0.0
 10
23.633900
 20
14.030086
 30
0.0
 10
23.474200
 20
14.249994
 30
0.0
 10
23.363600
 20
14.498293
 30
0.0
 10
23.307100
 20
14.764090
 30
0.0
 10
23.307100
 20
15.035901
 30
0.0
 10
23.363600
 20
15.301701
 30
0.0
 10
23.474200
 20
15.550000
 30
0.0
 10
23.633900
 20
15.769899
 30
0.0
 10
23.835900
 20
15.951701
 30
0.0
 10
24.071200
 20
16.087599
 30
0.0
 10
24.329700
 20
16.171600
 30
0.0
 10
24.600000
 20
16.200000
 30
0.0
 10
24.870300
 20
16.171600
 30
0.0
 10
25.128700
 20
16.087599
 30
0.0
 10
25.364100
 20
15.951701
 30
0.0
 10
25.566100
 20
15.769899
 30
0.0
 10
25.725800
 20
15.550000
 30
0.0
 10
25.836300
 20
15.301701
 30
0.0
 10
25.892900
 20
15.035901
 30
0.0
 10
25.892900
 20
14.764090
 30
0.0
 10
25.836300
 20
14.498293
 30
0.0
 10
25.725800
 20
14.249994
 30
0.0
 10
25.566100
 20
14.030086
 30
0.0
  0
LWPOLYLINE
  5
117
100
AcDbEntity
  8
0
 62
7
100
AcDbPolyline
 90
31
 70
1
 10
-54.930799
 20
5.118948
 30
0.0
 10
-55.104101
 20
5.235873
 30
0.0
 10
-55.249301
 20
5.386241
 30
0.0
 10
-55.360099
 20
5.563533
 30
0.0
 10
-55.431600
 20
5.759988
 30
0.0
 10
-55.460700
 20
5.966998
 30
0.0
 10
-55.446193
 20
6.175560
 30
0.0
 10
-55.388493
 20
6.376502
 30
0.0
 10
-55.290395
 20
6.561104
 30
0.0
 10
-55.155996
 20
6.721236
 30
0.0
 10
-54.991294
 20
6.849958
 30
0.0
 10
-54.803294
 20
6.941596
 30
0.0
 10
-54.600495
 20
6.992170
 30
0.0
 10
-54.391594
 20
6.999508
 30
0.0
 10
-54.185693
 20
6.963186
 30
0.0
 10
-53.991894
 20
6.884897
 30
0.0
 10
-53.818595
 20
6.767972
 30
0.0
 10
-53.673293
 20
6.617604
 30
0.0
 10
-53.562594
 20
6.440312
 30
0.0
 10
-53.490995
 20
6.243858
 30
0.0
 10
-53.461993
 20
6.036819
 30
0.0
 10
-53.476500
 20
5.828285
 30
0.0
 10
-53.534200
 20
5.627315
 30
0.0
 10
-53.632300
 20
5.442742
 30
0.0
 10
-53.766700
 20
5.282580
 30
0.0
 10
-53.931399
 20
5.153887
 30
0.0
 10
-54.119300
 20
5.062250
 30
0.0
 10
-54.322201
 20
5.011675
 30
0.0
 10
-54.531099
 20
5.004338
 30
0.0
 10
-54.737000
 20
5.040660
 30
0.0
 10
-54.930799
 20
5.118948
 30
0.0
  0
LWPOLYLINE
  5
118
100
AcDbEntity
  8
0
 62
7
100
AcDbPolyline
 90
31
 70
1
 10
53.562501
 20
6.440284
 30
0.0
 10
53.673299
 20
6.617576
 30
0.0
 10
53.818601
 20
6.767944
 30
0.0
 10
53.991899
 20
6.884869
 30
0.0
 10
54.185699
 20
6.963157
 30
0.0
 10
54.391600
 20
6.999479
 30
0.0
 10
54.600500
 20
6.992142
 30
0.0
 10
54.803401
 20
6.941567
 30
0.0
 10
54.991299
 20
6.849930
 30
0.0
 10
55.156001
 20
6.721208
 30
0.0
 10
55.290401
 20
6.561075
 30
0.0
 10
55.388499
 20
6.376474
 30
0.0
 10
55.446199
 20
6.175532
 30
0.0
 10
55.460705
 20
5.966969
 30
0.0
 10
55.431605
 20
5.759959
 30
0.0
 10
55.360104
 20
5.563504
 30
0.0
 10
55.249307
 20
5.386212
 30
0.0
 10
55.104106
 20
5.235844
 30
0.0
 10
54.930805
 20
5.118920
 30
0.0
 10
54.737006
 20
5.040631
 30
0.0
 10
54.531105
 20
5.004309
 30
0.0
 10
54.322207
 20
5.011647
 30
0.0
 10
54.119306
 20
5.062221
 30
0.0
 10
53.931405
 20
5.153859
 30
0.0
 10
53.766706
 20
5.282552
 30
0.0
 10
53.632306
 20
5.442713
 30
0.0
 10
53.534107
 20
5.627287
 30
0.0
 10
53.476505
 20
5.828257
 30
0.0
 10
53.461914
 20
6.036791
 30
0.0
 10
53.491014
 20
6.243829
 30
0.0
 10
53.562501
 20
6.440284
 30
0.0
  0
LWPOLYLINE
  5
119
100
AcDbEntity
  8
0
 62
7
100
AcDbPolyline
 90
31
 70
1
 10
-39.603200
 20
2.785168
 30
0.0
 10
-39.674701
 20
2.981623
 30
0.0
 10
-39.703801
 20
3.188633
 30
0.0
 10
-39.689210
 20
3.397195
 30
0.0
 10
-39.631612
 20
3.598137
 30
0.0
 10
-39.533511
 20
3.782739
 30
0.0
 10
-39.399111
 20
3.942900
 30
0.0
 10
-39.234310
 20
4.071593
 30
0.0
 10
-39.046412
 20
4.163231
 30
0.0
 10
-38.843610
 20
4.213805
 30
0.0
 10
-38.634712
 20
4.221143
 30
0.0
 10
-38.428811
 20
4.184849
 30
0.0
 10
-38.235012
 20
4.106532
 30
0.0
 10
-38.061612
 20
3.989636
 30
0.0
 10
-37.916412
 20
3.839240
 30
0.0
 10
-37.805611
 20
3.661976
 30
0.0
 10
-37.734110
 20
3.465493
 30
0.0
 10
-37.705010
 20
3.258483
 30
0.0
 10
-37.719601
 20
3.049949
 30
0.0
 10
-37.777200
 20
2.849006
 30
0.0
 10
-37.875399
 20
2.664405
 30
0.0
 10
-38.009799
 20
2.504244
 30
0.0
 10
-38.174501
 20
2.375550
 30
0.0
 10
-38.362399
 20
2.283885
 30
0.0
 10
-38.565201
 20
2.233310
 30
0.0
 10
-38.774201
 20
2.225973
 30
0.0
 10
-38.980099
 20
2.262266
 30
0.0
 10
-39.173901
 20
2.340583
 30
0.0
 10
-39.347199
 20
2.457480
 30
0.0
 10
-39.492400
 20
2.607876
 30
0.0
 10
-39.603200
 20
2.785168
 30
0.0
  0
LWPOLYLINE
  5
11a
100
AcDbEntity
  8
0
 62
7
100
AcDbPolyline
 90
31
 70
1
 10
38.634701
 20
4.221086
 30
0.0
 10
38.843599
 20
4.213748
 30
0.0
 10
39.046401
 20
4.163174
 30
0.0
 10
39.234299
 20
4.071537
 30
0.0
 10
39.399100
 20
3.942843
 30
0.0
 10
39.533401
 20
3.782654
 30
0.0
 10
39.631600
 20
3.598081
 30
0.0
 10
39.689199
 20
3.397138
 30
0.0
 10
39.703790
 20
3.188576
 30
0.0
 10
39.674690
 20
2.981566
 30
0.0
 10
39.603189
 20
2.785111
 30
0.0
 10
39.492388
 20
2.607819
 30
0.0
 10
39.347188
 20
2.457423
 30
0.0
 10
39.173889
 20
2.340527
 30
0.0
 10
38.979989
 20
2.262210
 30
0.0
 10
38.774189
 20
2.225916
 30
0.0
 10
38.565190
 20
2.233254
 30
0.0
 10
38.362388
 20
2.283828
 30
0.0
 10
38.174490
 20
2.375494
 30
0.0
 10
38.009788
 20
2.504187
 30
0.0
 10
37.875388
 20
2.664348
 30
0.0
 10
37.777189
 20
2.848950
 30
0.0
 10
37.719590
 20
3.049892
 30
0.0
 10
37.704999
 20
3.258426
 30
0.0
 10
37.734099
 20
3.465436
 30
0.0
 10
37.805600
 20
3.661919
 30
0.0
 10
37.916400
 20
3.839183
 30
0.0
 10
38.061601
 20
3.989579
 30
0.0
 10
38.235001
 20
4.106476
 30
0.0
 10
38.428800
 20
4.184792
 30
0.0
 10
38.634701
 20
4.221086
 30
0.0
  0
LWPOLYLINE
  5
11b
100
AcDbEntity
  8
0
 62
7
100
AcDbPolyline
 90
5
 70
1
 10
48.130000
 20
1.597407
 30
0.0
 10
49.818600
 20
-7.978421
 30
0.0
 10
46.568501
 20
-8.551473
 30
0.0
 10
44.880101
 20
1.024270
 30
0.0
 10
48.130000
 20
1.597407
 30
0.0
  0
LWPOLYLINE
  5
11c
100
AcDbEntity
  8
0
 62
7
100
AcDbPolyline
 90
5
 70
1
 10
-46.568600
 20
-8.551558
 30
0.0
 10
-49.818499
 20
-7.978534
 30
0.0
 10
-48.130099
 20
1.597351
 30
0.0
 10
-44.880101
 20
1.024383
 30
0.0
 10
-46.568600
 20
-8.551558
 30
0.0
  0
LWPOLYLINE
  5
11d
100
AcDbEntity
  8
0
 62
7
100
AcDbPolyline
 90
31
 70
1
 10
-56.835300
 20
-1.702871
 30
0.0
 10
-56.777701
 20
-1.501929
 30
0.0
 10
-56.679600
 20
-1.317356
 30
0.0
 10
-56.545201
 20
-1.157194
 30
0.0
 10
-56.380400
 20
-1.028501
 30
0.0
 10
-56.192499
 20
-0.936864
 30
0.0
 10
-55.989700
 20
-0.886289
 30
0.0
 10
-55.780799
 20
-0.878952
 30
0.0
 10
-55.574901
 20
-0.915245
 30
0.0
 10
-55.381099
 20
-0.993562
 30
0.0
 10
-55.207702
 20
-1.110458
 30
0.0
 10
-55.062501
 20
-1.260855
 30
0.0
 10
-54.951701
 20
-1.438118
 30
0.0
 10
-54.880200
 20
-1.634602
 30
0.0
 10
-54.851201
 20
-1.841612
 30
0.0
 10
-54.865707
 20
-2.050174
 30
0.0
 10
-54.923408
 20
-2.251116
 30
0.0
 10
-55.021508
 20
-2.435689
 30
0.0
 10
-55.155908
 20
-2.595850
 30
0.0
 10
-55.320607
 20
-2.724544
 30
0.0
 10
-55.508508
 20
-2.816181
 30
0.0
 10
-55.711409
 20
-2.866784
 30
0.0
 10
-55.920307
 20
-2.874122
 30
0.0
 10
-56.126208
 20
-2.837828
 30
0.0
 10
-56.320007
 20
-2.759511
 30
0.0
 10
-56.493308
 20
-2.642615
 30
0.0
 10
-56.638509
 20
-2.492218
 30
0.0
 10
-56.749309
 20
-2.314955
 30
0.0
 10
-56.820808
 20
-2.118472
 30
0.0
 10
-56.849907
 20
-1.911462
 30
0.0
 10
-56.835300
 20
-1.702871
 30
0.0
  0
LWPOLYLINE
  5
11e
100
AcDbEntity
  8
0
 62
7
100
AcDbPolyline
 90
31
 70
1
 10
55.780799
 20
-0.878980
 30
0.0
 10
55.989700
 20
-0.886318
 30
0.0
 10
56.192601
 20
-0.936892
 30
0.0
 10
56.380400
 20
-1.028529
 30
0.0
 10
56.545201
 20
-1.157223
 30
0.0
 10
56.679600
 20
-1.317384
 30
0.0
 10
56.777701
 20
-1.501957
 30
0.0
 10
56.835300
 20
-1.702899
 30
0.0
 10
56.849891
 20
-1.911462
 30
0.0
 10
56.820791
 20
-2.118472
 30
0.0
 10
56.749292
 20
-2.314955
 30
0.0
 10
56.638492
 20
-2.492218
 30
0.0
 10
56.493291
 20
-2.642615
 30
0.0
 10
56.319990
 20
-2.759511
 30
0.0
 10
56.126191
 20
-2.837828
 30
0.0
 10
55.920290
 20
-2.874122
 30
0.0
 10
55.711290
 20
-2.866784
 30
0.0
 10
55.508491
 20
-2.816181
 30
0.0
 10
55.320590
 20
-2.724572
 30
0.0
 10
55.155891
 20
-2.595850
 30
0.0
 10
55.021491
 20
-2.435689
 30
0.0
 10
54.923292
 20
-2.251116
 30
0.0
 10
54.865691
 20
-2.050174
 30
0.0
 10
54.851100
 20
-1.841612
 30
0.0
 10
54.880200
 20
-1.634602
 30
0.0
 10
54.951701
 20
-1.438118
 30
0.0
 10
55.062501
 20
-1.260855
 30
0.0
 10
55.207702
 20
-1.110458
 30
0.0
 10
55.381000
 20
-0.993562
 30
0.0
 10
55.574901
 20
-0.915245
 30
0.0
 10
55.780799
 20
-0.878980
 30
0.0
  0
LWPOLYLINE
  5
11f
100
AcDbEntity
  8
0
 62
7
100
AcDbPolyline
 90
31
 70
1
 10
-41.020800
 20
-4.280294
 30
0.0
 10
-40.922699
 20
-4.095720
 30
0.0
 10
-40.788299
 20
-3.935559
 30
0.0
 10
-40.623498
 20
-3.806866
 30
0.0
 10
-40.435601
 20
-3.715228
 30
0.0
 10
-40.232798
 20
-3.664654
 30
0.0
 10
-40.023799
 20
-3.657316
 30
0.0
 10
-39.818000
 20
-3.693610
 30
0.0
 10
-39.624099
 20
-3.771927
 30
0.0
 10
-39.450800
 20
-3.888852
 30
0.0
 10
-39.305600
 20
-4.039220
 30
0.0
 10
-39.194799
 20
-4.216512
 30
0.0
 10
-39.123301
 20
-4.412966
 30
0.0
 10
-39.094201
 20
-4.619976
 30
0.0
 10
-39.108792
 20
-4.828510
 30
0.0
 10
-39.166391
 20
-5.029481
 30
0.0
 10
-39.264590
 20
-5.214082
 30
0.0
 10
-39.398993
 20
-5.374215
 30
0.0
 10
-39.563692
 20
-5.502937
 30
0.0
 10
-39.751593
 20
-5.594574
 30
0.0
 10
-39.954392
 20
-5.645149
 30
0.0
 10
-40.163392
 20
-5.652486
 30
0.0
 10
-40.369191
 20
-5.616193
 30
0.0
 10
-40.563092
 20
-5.537876
 30
0.0
 10
-40.736390
 20
-5.420980
 30
0.0
 10
-40.881591
 20
-5.270612
 30
0.0
 10
-40.992391
 20
-5.093320
 30
0.0
 10
-41.063892
 20
-4.896836
 30
0.0
 10
-41.092992
 20
-4.689826
 30
0.0
 10
-41.078401
 20
-4.481292
 30
0.0
 10
-41.020800
 20
-4.280294
 30
0.0
  0
LWPOLYLINE
  5
120
100
AcDbEntity
  8
0
 62
7
100
AcDbPolyline
 90
31
 70
1
 10
39.123301
 20
-4.412995
 30
0.0
 10
39.194799
 20
-4.216540
 30
0.0
 10
39.305600
 20
-4.039248
 30
0.0
 10
39.450800
 20
-3.888880
 30
0.0
 10
39.624099
 20
-3.771955
 30
0.0
 10
39.818000
 20
-3.693638
 30
0.0
 10
40.023799
 20
-3.657345
 30
0.0
 10
40.232798
 20
-3.664682
 30
0.0
 10
40.435601
 20
-3.715257
 30
0.0
 10
40.623498
 20
-3.806894
 30
0.0
 10
40.788299
 20
-3.935588
 30
0.0
 10
40.922600
 20
-4.095749
 30
0.0
 10
41.020800
 20
-4.280322
 30
0.0
 10
41.078401
 20
-4.481292
 30
0.0
 10
41.092992
 20
-4.689826
 30
0.0
 10
41.063892
 20
-4.896836
 30
0.0
 10
40.992391
 20
-5.093320
 30
0.0
 10
40.881591
 20
-5.270612
 30
0.0
 10
40.736390
 20
-5.420980
 30
0.0
 10
40.563092
 20
-5.537876
 30
0.0
 10
40.369191
 20
-5.616193
 30
0.0
 10
40.163392
 20
-5.652486
 30
0.0
 10
39.954392
 20
-5.645149
 30
0.0
 10
39.751593
 20
-5.594574
 30
0.0
 10
39.563692
 20
-5.502937
 30
0.0
 10
39.398993
 20
-5.374215
 30
0.0
 10
39.264590
 20
-5.214082
 30
0.0
 10
39.166391
 20
-5.029481
 30
0.0
 10
39.108792
 20
-4.828510
 30
0.0
 10
39.094201
 20
-4.619976
 30
0.0
 10
39.123301
 20
-4.412995
 30
0.0
  0
LWPOLYLINE
  5
121
100
AcDbEntity
  8
0
 62
7
100
AcDbPolyline
 90
31
 70
1
 10
-56.451700
 20
-9.139342
 30
0.0
 10
-56.340900
 20
-9.316634
 30
0.0
 10
-56.269399
 20
-9.513089
 30
0.0
 10
-56.240299
 20
-9.720099
 30
0.0
 10
-56.254890
 20
-9.928661
 30
0.0
 10
-56.312489
 20
-10.129603
 30
0.0
 10
-56.410688
 20
-10.314205
 30
0.0
 10
-56.545088
 20
-10.474310
 30
0.0
 10
-56.709790
 20
-10.603003
 30
0.0
 10
-56.897688
 20
-10.694697
 30
0.0
 10
-57.100490
 20
-10.745299
 30
0.0
 10
-57.309489
 20
-10.752637
 30
0.0
 10
-57.515289
 20
-10.716343
 30
0.0
 10
-57.709189
 20
-10.638055
 30
0.0
 10
-57.882488
 20
-10.521130
 30
0.0
 10
-58.027689
 20
-10.370847
 30
0.0
 10
-58.138489
 20
-10.193555
 30
0.0
 10
-58.209990
 20
-9.997044
 30
0.0
 10
-58.239090
 20
-9.790034
 30
0.0
 10
-58.224499
 20
-9.581471
 30
0.0
 10
-58.166900
 20
-9.380529
 30
0.0
 10
-58.068701
 20
-9.195956
 30
0.0
 10
-57.934400
 20
-9.035795
 30
0.0
 10
-57.769599
 20
-8.907101
 30
0.0
 10
-57.581701
 20
-8.815464
 30
0.0
 10
-57.378899
 20
-8.764890
 30
0.0
 10
-57.170001
 20
-8.757552
 30
0.0
 10
-56.964100
 20
-8.793874
 30
0.0
 10
-56.770199
 20
-8.872162
 30
0.0
 10
-56.596901
 20
-8.989087
 30
0.0
 10
-56.451700
 20
-9.139342
 30
0.0
  0
LWPOLYLINE
  5
122
100
AcDbEntity
  8
0
 62
7
100
AcDbPolyline
 90
31
 70
1
 10
56.596901
 20
-8.988974
 30
0.0
 10
56.770199
 20
-8.872049
 30
0.0
 10
56.964100
 20
-8.793761
 30
0.0
 10
57.170001
 20
-8.757439
 30
0.0
 10
57.378899
 20
-8.764777
 30
0.0
 10
57.581701
 20
-8.815351
 30
0.0
 10
57.769599
 20
-8.906988
 30
0.0
 10
57.934400
 20
-9.035682
 30
0.0
 10
58.068701
 20
-9.195843
 30
0.0
 10
58.166900
 20
-9.380416
 30
0.0
 10
58.224499
 20
-9.581358
 30
0.0
 10
58.239090
 20
-9.789921
 30
0.0
 10
58.209990
 20
-9.996931
 30
0.0
 10
58.138489
 20
-10.193442
 30
0.0
 10
58.027689
 20
-10.370734
 30
0.0
 10
57.882488
 20
-10.521017
 30
0.0
 10
57.709189
 20
-10.637942
 30
0.0
 10
57.515289
 20
-10.716230
 30
0.0
 10
57.309388
 20
-10.752524
 30
0.0
 10
57.100490
 20
-10.745186
 30
0.0
 10
56.897688
 20
-10.694584
 30
0.0
 10
56.709790
 20
-10.602890
 30
0.0
 10
56.544989
 20
-10.474197
 30
0.0
 10
56.410688
 20
-10.314092
 30
0.0
 10
56.312489
 20
-10.129490
 30
0.0
 10
56.254890
 20
-9.928548
 30
0.0
 10
56.240299
 20
-9.719986
 30
0.0
 10
56.269399
 20
-9.512976
 30
0.0
 10
56.340900
 20
-9.316521
 30
0.0
 10
56.451700
 20
-9.139229
 30
0.0
 10
56.596901
 20
-8.988974
 30
0.0
  0
LWPOLYLINE
  5
123
100
AcDbEntity
  8
0
 62
7
100
AcDbPolyline
 90
31
 70
1
 10
-42.381599
 20
-12.971694
 30
0.0
 10
-42.453100
 20
-12.775296
 30
0.0
 10
-42.482200
 20
-12.568314
 30
0.0
 10
-42.467609
 20
-12.359695
 30
0.0
 10
-42.410007
 20
-12.158809
 30
0.0
 10
-42.311808
 20
-11.974208
 30
0.0
 10
-42.177408
 20
-11.813990
 30
0.0
 10
-42.012709
 20
-11.685297
 30
0.0
 10
-41.824808
 20
-11.593688
 30
0.0
 10
-41.622009
 20
-11.543113
 30
0.0
 10
-41.413009
 20
-11.535776
 30
0.0
 10
-41.207207
 20
-11.572069
 30
0.0
 10
-41.013309
 20
-11.650386
 30
0.0
 10
-40.840008
 20
-11.767282
 30
0.0
 10
-40.694808
 20
-11.917679
 30
0.0
 10
-40.584010
 20
-12.094971
 30
0.0
 10
-40.512509
 20
-12.291482
 30
0.0
 10
-40.483409
 20
-12.498464
 30
0.0
 10
-40.498000
 20
-12.706970
 30
0.0
 10
-40.555599
 20
-12.907968
 30
0.0
 10
-40.653699
 20
-13.092485
 30
0.0
 10
-40.788099
 20
-13.252674
 30
0.0
 10
-40.952900
 20
-13.381368
 30
0.0
 10
-41.140801
 20
-13.473062
 30
0.0
 10
-41.343600
 20
-13.523580
 30
0.0
 10
-41.552599
 20
-13.530917
 30
0.0
 10
-41.758399
 20
-13.494624
 30
0.0
 10
-41.952299
 20
-13.416335
 30
0.0
 10
-42.125601
 20
-13.299439
 30
0.0
 10
-42.270799
 20
-13.149042
 30
0.0
 10
-42.381599
 20
-12.971694
 30
0.0
  0
LWPOLYLINE
  5
124
100
AcDbEntity
  8
0
 62
7
100
AcDbPolyline
 90
31
 70
1
 10
41.013301
 20
-11.650414
 30
0.0
 10
41.207199
 20
-11.572098
 30
0.0
 10
41.413001
 20
-11.535804
 30
0.0
 10
41.621899
 20
-11.543142
 30
0.0
 10
41.824800
 20
-11.593716
 30
0.0
 10
42.012701
 20
-11.685325
 30
0.0
 10
42.177400
 20
-11.814018
 30
0.0
 10
42.311800
 20
-11.974236
 30
0.0
 10
42.409999
 20
-12.158838
 30
0.0
 10
42.467601
 20
-12.359723
 30
0.0
 10
42.482191
 20
-12.568342
 30
0.0
 10
42.453092
 20
-12.775324
 30
0.0
 10
42.381591
 20
-12.971722
 30
0.0
 10
42.270790
 20
-13.149042
 30
0.0
 10
42.125592
 20
-13.299439
 30
0.0
 10
41.952192
 20
-13.416335
 30
0.0
 10
41.758390
 20
-13.494624
 30
0.0
 10
41.552591
 20
-13.530917
 30
0.0
 10
41.343591
 20
-13.523580
 30
0.0
 10
41.140792
 20
-13.473062
 30
0.0
 10
40.952891
 20
-13.381368
 30
0.0
 10
40.788090
 20
-13.252674
 30
0.0
 10
40.653691
 20
-13.092485
 30
0.0
 10
40.555590
 20
-12.907968
 30
0.0
 10
40.497991
 20
-12.706970
 30
0.0
 10
40.483401
 20
-12.498464
 30
0.0
 10
40.512500
 20
-12.291482
 30
0.0
 10
40.584001
 20
-12.094971
 30
0.0
 10
40.694799
 20
-11.917679
 30
0.0
 10
40.840000
 20
-11.767282
 30
0.0
 10
41.013301
 20
-11.650414
 30
0.0
  0
ENDSEC
  0
SECTION
  2
OBJECTS
  0
DICTIONARY
  5
C
330
0
100
AcDbDictionary
  3
ACAD_GROUP
350
D
  3
ACAD_MLINESTYLE
350
17
  0
DICTIONARY
  5
D
330
C
100
AcDbDictionary
  0
DICTIONARY
  5
1A
330
C
100
AcDbDictionary
  0
DICTIONARY
  5
17
330
C
100
AcDbDictionary
  3
STANDARD
350
18
  0
DICTIONARY
  5
19
330
C
100
AcDbDictionary
  0
ENDSEC
  0
EOF
