<?xml version="1.0" encoding="UTF-8" standalone="no"?>
<svg
   xmlns:dc="http://purl.org/dc/elements/1.1/"
   xmlns:cc="http://creativecommons.org/ns#"
   xmlns:rdf="http://www.w3.org/1999/02/22-rdf-syntax-ns#"
   xmlns:svg="http://www.w3.org/2000/svg"
   xmlns="http://www.w3.org/2000/svg"
   xmlns:sodipodi="http://sodipodi.sourceforge.net/DTD/sodipodi-0.dtd"
   xmlns:inkscape="http://www.inkscape.org/namespaces/inkscape"
   width="744.094488189"
   height="1052.36220472"
   id="svg8131"
   version="1.1"
   inkscape:version="0.91 r13725"
   sodipodi:docname="base.svg">
  <metadata
     id="metadata10469">
    <rdf:RDF>
      <cc:Work
         rdf:about="">
        <dc:format>image/svg+xml</dc:format>
        <dc:type
           rdf:resource="http://purl.org/dc/dcmitype/StillImage" />
        <dc:title></dc:title>
      </cc:Work>
    </rdf:RDF>
  </metadata>
  <sodipodi:namedview
     pagecolor="#ffffff"
     bordercolor="#666666"
     borderopacity="1"
     objecttolerance="10"
     gridtolerance="10"
     guidetolerance="10"
     inkscape:pageopacity="0"
     inkscape:pageshadow="2"
     inkscape:window-width="2880"
     inkscape:window-height="1711"
     id="namedview10467"
     showgrid="false"
     inkscape:zoom="1.2685914"
     inkscape:cx="65.044589"
     inkscape:cy="-133.49728"
     inkscape:window-x="-11"
     inkscape:window-y="-11"
     inkscape:window-maximized="1"
     inkscape:current-layer="g8147" />
  <desc
     id="desc8133">C:\Share\Robotics\SimpleBot\Parts\55r\base.dxf - scale = 1.000000, origin = (0.000000, 0.000000), auto = False</desc>
  <defs
     id="defs8135">
    <marker
       refY="0.0"
       refX="0.0"
       style="overflow:visible"
       id="DistanceX"
       orient="auto">
      <path
         style="stroke:#000000; stroke-width:0.5"
         d="M 3,-3 L -3,3 M 0,-5 L  0,5"
         id="path8138" />
    </marker>
    <pattern
       height="8"
       width="8"
       patternUnits="userSpaceOnUse"
       y="0"
       x="0"
       id="Hatch">
      <path
         linecap="square"
         stroke="#000000"
         stroke-width="0.25"
         d="M8 4 l-4,4"
         id="path8141" />
      <path
         linecap="square"
         stroke="#000000"
         stroke-width="0.25"
         d="M6 2 l-4,4"
         id="path8143" />
      <path
         linecap="square"
         stroke="#000000"
         stroke-width="0.25"
         d="M4 0 l-4,4"
         id="path8145" />
    </pattern>
  </defs>
  <g
     inkscape:label="0"
     inkscape:groupmode="layer"
     id="g8147">
    <path
       style="fill:none;stroke:#0000ff;stroke-opacity:1"
       d="m -162.11445,1298.7539 2.15823,-1.3072 2.10154,-1.396 2.04094,-1.4833 1.97752,-1.5668 1.90984,-1.6487 1.83898,-1.727 1.76527,-1.8029 1.68839,-1.8747 1.60795,-1.9439 1.5254,-2.0097 1.44,-2.0718 1.35177,-2.1302 1.26177,-2.1852 1.16894,-2.2358 1.07397,-2.2826 0.97796,-2.3262 0.87945,-2.3645 0.77952,-2.3995 0.67855,-2.43 0.57614,-2.4566 0.47267,-2.4782 0.36851,-2.4959 0.26362,-2.509 0.15839,-2.5182 0.0531,-2.5225 0,-177.1652 0.0124,-0.2964 0.0368,-0.2945 0.062,-0.2902 0.0857,-0.2841 0.10914,-0.2759 0.13181,-0.2659 0.15378,-0.2538 0.17468,-0.2401 0.19382,-0.2246 0.21189,-0.2076 0.22855,-0.1892 0.24378,-0.1693 0.25724,-0.1485 0.26823,-0.1263 0.27815,-0.1035 0.28594,-0.08 0.29162,-0.056 0.29515,-0.031 0.29658,-0.01 0.29622,0.019 0.29338,0.043 0.28914,0.068 0.28205,0.092 0.27354,0.115 0.26327,0.1375 0.25051,0.159 0.23634,0.1794 0.22039,0.1986 0.20303,0.2163 0.18461,0.2325 0.16405,0.2472 0.14315,0.2601 0.12047,0.271 0.0978,0.2804 0.0737,0.2874 0.0496,0.2926 0.0248,0.2956 0.003,177.3136 -0.0592,2.8194 -0.17717,2.8141 -0.2948,2.8046 -0.41173,2.7892 -0.52831,2.7702 -0.64417,2.745 -0.75827,2.7159 -0.8713,2.682 -0.98291,2.6429 -1.09276,2.5994 -1.20047,2.5515 -1.30642,2.4988 -1.40988,2.442 -1.51087,2.3811 -1.60937,2.3156 -1.70504,2.2457 -1.79716,2.1728 -1.88681,2.0955 -1.97292,2.0147 -2.05582,1.9304 -2.13449,1.8425 -2.20996,1.7515 -2.28118,1.6575 -2.34851,1.5605 -2.41228,1.4606 -2.47075,1.3585 -2.52567,1.2539 -2.57634,1.1467 -2.62169,1.0382 -2.6628,0.9272 -2.69964,0.815 -2.73118,0.7012 -2.75811,0.5864 -2.78044,0.4702 -2.79744,0.3533 -2.80984,0.236 -2.81728,0.1183 -1.40988,0 0,36.0613 2.37224,1.5764 12.69461,7.688 13.00535,7.1496 13.29343,6.5991 13.55775,6.0364 13.79906,5.4634 14.01555,4.8806 14.207596,4.2898 14.374842,3.6907 14.516929,3.0856 14.63315,2.475 14.724213,1.8602 14.788913,1.2419 14.828032,0.6215 14.84107,0 14.828032,-0.6215 14.788913,-1.2419 14.724213,-1.8602 14.63315,-2.475 14.516929,-3.0856 14.374842,-3.6907 14.207596,-4.2898 14.01555,-4.8806 13.79906,-5.4634 13.55775,-6.0364 13.29343,-6.5991 13.00535,-7.1496 12.69461,-7.688 2.37224,-1.5764 0,-36.0613 -1.40988,0 -2.81728,-0.1183 -2.80984,-0.236 -2.79744,-0.3533 -2.78044,-0.4702 -2.75811,-0.5864 -2.73118,-0.7012 -2.69964,-0.815 -2.6628,-0.9272 -2.62169,-1.0382 -2.57634,-1.1467 -2.52567,-1.2539 -2.47075,-1.3585 -2.41228,-1.4606 -2.34851,-1.5605 -2.28118,-1.6575 -2.20996,-1.7515 -2.13449,-1.8425 -2.05582,-1.9304 -1.97292,-2.0147 -1.88681,-2.0955 -1.79716,-2.1728 -1.70504,-2.2457 -1.60937,-2.3156 -1.51087,-2.3811 -1.40988,-2.442 -1.30642,-2.4988 -1.20047,-2.5515 -1.09276,-2.5994 -0.98291,-2.6429 -0.8713,-2.682 -0.75827,-2.7159 -0.64417,-2.745 -0.52831,-2.7702 -0.41173,-2.7892 -0.2948,-2.8046 -0.17717,-2.8141 -0.0592,-2.8194 0,-177.1652 0.0128,-0.2964 0.0372,-0.2945 0.0617,-0.2902 0.0858,-0.2841 0.10914,-0.2759 0.13181,-0.2659 0.15378,-0.2538 0.17468,-0.2401 0.19382,-0.2246 0.21189,-0.2076 0.22854,-0.1892 0.24378,-0.1693 0.25725,-0.1485 0.26823,-0.1263 0.27814,-0.1035 0.28595,-0.08 0.29161,-0.056 0.29516,-0.031 0.29658,-0.01 0.29622,0.019 0.29338,0.043 0.28914,0.068 0.28204,0.092 0.27355,0.115 0.26291,0.1375 0.25087,0.159 0.23633,0.1794 0.2204,0.1986 0.20303,0.2163 0.18461,0.2325 0.16405,0.2472 0.14315,0.2601 0.12047,0.271 0.0978,0.2804 0.0737,0.2874 0.0496,0.2926 0.0248,0.2956 0.003,177.3136 0.0531,2.5225 0.15839,2.5182 0.26362,2.509 0.36851,2.4959 0.47267,2.4782 0.57614,2.4566 0.67855,2.43 0.77952,2.3995 0.87945,2.3645 0.97796,2.3262 1.07397,2.2826 1.16894,2.2358 1.26177,2.1852 1.35177,2.1302 1.44,2.0718 1.5254,2.0097 1.60795,1.9439 1.68839,1.8747 1.76527,1.8029 1.83898,1.727 1.90984,1.6487 1.97752,1.5668 2.04094,1.4833 2.10154,1.396 2.15823,1.3072 2.21067,1.2153 2.25992,1.1218 2.30492,1.0262 2.34567,0.9287 2.38287,0.8298 2.41512,0.7292 2.44382,0.6275 2.46791,0.5245 2.48741,0.4209 2.50334,0.3161 2.51398,0.2111 2.52071,0.1056 2.52319,0 2.5207,-0.1056 2.51398,-0.2111 2.50299,-0.3161 2.48776,-0.4209 2.46791,-0.5245 2.44382,-0.6275 2.41512,-0.7292 2.38287,-0.8298 2.34567,-0.9287 2.30492,-1.0262 2.25993,-1.1218 2.21066,-1.2153 2.15823,-1.3072 2.10154,-1.396 2.04094,-1.4833 1.97717,-1.5668 1.9102,-1.6487 1.83897,-1.727 1.76528,-1.8029 1.68838,-1.8747 1.60796,-1.9439 1.52539,-2.0097 1.44,-2.0718 1.35177,-2.1302 1.26142,-2.1852 1.16894,-2.2358 1.07433,-2.2826 0.97759,-2.3262 0.87945,-2.3645 0.77989,-2.3995 0.67854,-2.43 0.57579,-2.4566 0.47303,-2.4782 0.3685,-2.4959 0.26362,-2.509 0.15839,-2.5182 0.0528,-2.5225 0,-177.1652 0.0124,-0.2964 0.0372,-0.2945 0.0616,-0.2902 0.0861,-0.2841 0.10913,-0.2759 0.13181,-0.2659 0.15378,-0.2538 0.17433,-0.2401 0.19418,-0.2246 0.21189,-0.2076 0.22854,-0.1892 0.13606,-0.094 0,-3.985 -8.97413,-2e-4 -3.6e-4,-59.1737 8.97449,-4e-4 0,-49.0149 -8.97413,0 -3.6e-4,-49.37067 8.97449,-3.5e-4 0,-99.5354 -6.09342,-6.2224 -10.81843,-10.15937 -11.23476,-9.69732 -11.63091,-9.21863 -12.00649,-8.72326 -12.36154,-8.21303 -12.69461,-7.68792 -13.00535,-7.14968 -13.29343,-6.59906 -13.55775,-6.03637 -13.79906,-5.46343 -14.01555,-4.88055 -14.207596,-4.28988 -14.374842,-3.69071 -14.516929,-3.08551 -14.63315,-2.475 -14.724213,-1.86024 -14.788913,-1.24193 -14.828032,-0.6215 -14.84107,0 -14.828032,0.6215 -14.788913,1.24193 -14.724213,1.86024 -14.63315,2.475 -14.516929,3.08551 -14.374842,3.69071 -14.207596,4.28988 -14.01555,4.88055 -13.79906,5.46343 -13.55775,6.03637 -13.29343,6.59906 -13.00535,7.14968 -12.69461,7.68792 -12.36154,8.21303 -12.00649,8.72326 -11.63091,9.21863 -11.23476,9.69732 -10.81843,10.15937 -6.09342,6.2224 0,99.53575 8.97413,-3.5e-4 0,49.37102 -8.97413,0 0,49.0153 8.97413,-4e-4 3.6e-4,59.1737 -8.97449,3e-4 0,3.9825 0.25228,0.1895 0.2204,0.1986 0.20338,0.2163 0.18425,0.2325 0.16406,0.2472 0.14315,0.2601 0.12047,0.271 0.0978,0.2804 0.0737,0.2874 0.0496,0.2926 0.0248,0.2956 0.003,177.3136 0.0528,2.5225 0.15839,2.5182 0.26362,2.509 0.3685,2.4959 0.47303,2.4782 0.57579,2.4566 0.67854,2.43 0.77989,2.3995 0.87945,2.3645 0.97759,2.3262 1.07433,2.2826 1.16894,2.2358 1.26142,2.1852 1.35177,2.1302 1.44,2.0718 1.52539,2.0097 1.60796,1.9439 1.68838,1.8747 1.76528,1.8029 1.83897,1.727 1.9102,1.6487 1.97717,1.5668 2.04094,1.4833 2.10154,1.396 2.15823,1.3072 2.21066,1.2153 2.25993,1.1218 2.30492,1.0262 2.34567,0.9287 2.38287,0.8298 2.41512,0.7292 2.44382,0.6275 2.46791,0.5245 2.48776,0.4209 2.50299,0.3161 2.51398,0.2111 2.5207,0.1056 2.52319,0 2.52071,-0.1056 2.51398,-0.2111 2.50334,-0.3161 2.48741,-0.4209 2.46791,-0.5245 2.44382,-0.6275 2.41512,-0.7292 2.38287,-0.8298 2.34567,-0.9287 2.30492,-1.0262 2.25992,-1.1218 z"
       id="path8373"
       inkscape:connector-curvature="0"
       sodipodi:nodetypes="cccccccccccccccccccccccccccccccccccccccccccccccccccccccccccccccccccccccccccccccccccccccccccccccccccccccccccccccccccccccccccccccccccccccccccccccccccccccccccccccccccccccccccccccccccccccccccccccccccccccccccccccccccccccccccccccccccccccccccccccccccccccccccccccccccccccccccccccccccccccccccccccccccccccccccccccccccccccccccccccccccccccccccccccccccccccccccccccccccccccccccccccccccccccccccccccccccccccccccccccccccccccccccccccccc" />
    <path
       style="fill:none;stroke:#ff0000;stroke-opacity:1"
       d="m -66.038031,966.50965 -0.220749,-0.19843 -0.203031,-0.2165 -0.184252,-0.23244 -0.164409,-0.24732 -0.142796,-0.26008 -0.120826,-0.27106 -0.09744,-0.28028 -0.0737,-0.28736 -0.04961,-0.29268 -0.0248,-0.29551 -0.0032,-177.31382 0.05917,-2.81905 0.177165,-2.81445 0.294449,-2.80417 0.412086,-2.78965 0.528307,-2.7698 0.643819,-2.74536 0.758268,-2.71594 0.871654,-2.68193 0.982913,-2.64295 1.092402,-2.59937 1.200826,-2.55154 1.306418,-2.49874 1.409882,-2.44205 1.510866,-2.38075 1.60937,-2.31555 1.704685,-2.2461 1.79752,-2.17275 1.886811,-2.09552 1.972913,-2.01472 2.055472,-1.93039 2.134843,-1.84217 2.209606,-1.75181 2.281536,-1.6572 2.348504,-1.56048 2.412035,-1.4609 2.470996,-1.35851 2.52574,-1.25362 2.575984,-1.14697 2.6218,-1.03783 2.662937,-0.92764 2.699504,-0.81496 2.731216,-0.70122 2.758146,-0.58642 2.780327,-0.4702 2.797582,-0.35326 2.809949,-0.23599 2.817291,-0.11799 2.819732,0 2.817308,0.11799 2.809949,0.23599 2.797547,0.35326 2.780327,0.4702 2.758145,0.58642 2.731252,0.70122 2.699469,0.81496 2.662937,0.92764 2.621799,1.03783 2.57602,1.14697 2.525704,1.25362 2.470996,1.35851 2.412,1.4609 2.348859,1.56048 2.281181,1.6572 2.20996,1.75181 2.134489,1.84217 2.055472,1.93039 1.972913,2.01472 1.886811,2.09552 1.79752,2.17275 1.704685,2.2461 1.60937,2.31555 1.510866,2.38075 1.409882,2.44205 1.306418,2.49874 1.200826,2.55154 1.092402,2.59937 0.982913,2.64295 0.871654,2.68193 0.758268,2.71594 0.643819,2.74536 0.528307,2.7698 0.412086,2.78965 0.294449,2.80417 0.177165,2.81445 0.05917,2.81905 0,177.16536 -0.0124,0.29657 -0.03721,0.29445 -0.06165,0.2902 -0.08575,0.28417 -0.109488,0.27567 -0.131811,0.2661 -0.15378,0.2537 -0.174331,0.23989 -0.194173,0.22464 -0.21189,0.20764 -0.228543,0.18921 -0.24378,0.16937 -0.256889,0.14847 -0.268583,0.12649 -0.27815,0.10311 -0.285944,0.0801 -0.29126,0.0556 -0.295158,0.0308 -0.296929,0.006 -0.29622,-0.0188 -0.293386,-0.0432 -0.28878,-0.0677 -0.282401,-0.0918 -0.273544,-0.11516 -0.262913,-0.13748 -0.250512,-0.15909 -0.236693,-0.17929 -0.220393,-0.19843 -0.203032,-0.2165 -0.184252,-0.23244 -0.164409,-0.24732 -0.142796,-0.26008 -0.120826,-0.27106 -0.09744,-0.28028 -0.07406,-0.28736 -0.04925,-0.29268 -0.0248,-0.29551 -0.0032,-177.31382 -0.0528,-2.52248 -0.158386,-2.51787 -0.263976,-2.50937 -0.368504,-2.49591 -0.472677,-2.47819 -0.576142,-2.45622 -0.678543,-2.43 -0.779528,-2.39952 -0.879449,-2.36481 -0.977598,-2.32582 -1.074331,-2.28296 -1.168937,-2.23582 -1.261417,-2.18516 -1.351772,-2.13024 -1.44,-2.07141 -1.525393,-2.00977 -1.608307,-1.94386 -1.688032,-1.87511 -1.765276,-1.80248 -1.83933,-1.72737 -1.909843,-1.64834 -1.977165,-1.56721 -2.041228,-1.48287 -2.10143,-1.39642 -2.158122,-1.30677 -2.210882,-1.21571 -2.25985,-1.12146 -2.304886,-1.02649 -2.345775,-0.9287 -2.382662,-0.82985 -2.41533,-0.72885 -2.443678,-0.62752 -2.467878,-0.52477 -2.487649,-0.42059 -2.503063,-0.31641 -2.514154,-0.21083 -2.520751,-0.10595 -2.522909,0 -2.520733,0.10595 -2.514154,0.21083 -2.503063,0.31641 -2.487685,0.42059 -2.467843,0.52477 -2.443712,0.62752 -2.415331,0.72885 -2.382626,0.82985 -2.345811,0.9287 -2.30485,1.02649 -2.259886,1.12146 -2.210882,1.21571 -2.158122,1.30677 -2.101394,1.39642 -2.041299,1.48287 -1.977165,1.56721 -1.909843,1.64834 -1.83933,1.72737 -1.764922,1.80248 -1.688386,1.87511 -1.608307,1.94386 -1.525393,2.00977 -1.439646,2.07141 -1.352126,2.13024 -1.261417,2.18516 -1.168937,2.23582 -1.074331,2.28296 -0.977598,2.32582 -0.879449,2.36481 -0.779528,2.39952 -0.678543,2.43 -0.576142,2.45622 -0.472677,2.47819 -0.368504,2.49591 -0.263976,2.50937 -0.158386,2.51787 -0.0528,2.52248 0,177.16536 -0.0124,0.29657 -0.03721,0.29445 -0.06165,0.2902 -0.08575,0.28417 -0.109134,0.27567 -0.132166,0.2661 -0.153779,0.2537 -0.174331,0.23989 -0.193819,0.22464 -0.212244,0.20764 -0.228543,0.18921 -0.24378,0.16937 -0.256889,0.14847 -0.268583,0.12649 -0.27815,0.10311 -0.28559,0.0801 -0.291614,0.0556 -0.295158,0.0308 -0.296575,0.006 -0.29622,-0.0188 -0.29374,-0.0432 -0.28878,-0.0677 -0.282401,-0.0918 -0.273544,-0.11516 -0.262913,-0.13748 -0.250512,-0.15909 z"
       id="path9223"
       inkscape:connector-curvature="0"
       sodipodi:nodetypes="ccccccccccccccccccccccccccccccccccccccccccccccccccccccccccccccccccccccccccccccccccccccccccccccccccccccccccccccccccccccccccccccccccccccccccccccccccccccccccccccccccccccccccccccccccccccccccccccccccccccccccccccccccccccccccccccccccccc" />
    <path
       style="fill:none;stroke:#ff0000;stroke-opacity:1"
       d="m 0.555534,756.52512 1.086846,0.23102 1.0151,0.45213 0.898902,0.65303 0.743492,0.82559 0.555591,0.96236 0.343311,1.05662 0.116185,1.10515 -0.116185,1.10516 -0.343311,1.05662 -0.555591,0.96236 -0.743492,0.82559 -0.898902,0.65303 -1.0151,0.45213 -1.086846,0.23102 -1.111015,0 -1.086845,-0.23102 -1.015101,-0.45213 -0.898919,-0.65303 -0.743457,-0.82559 -0.555591,-0.96236 -0.343311,-1.05662 -0.116149,-1.10516 0.116149,-1.10515 0.343311,-1.05662 0.555591,-0.96236 0.743457,-0.82559 0.898976,-0.65303 1.015044,-0.45213 1.086845,-0.23102 z"
       id="path9467"
       inkscape:connector-curvature="0"
       sodipodi:nodetypes="ccccccccccccccccccccccccccccccc" />
    <path
       style="fill:none;stroke:#ff0000;stroke-opacity:1"
       d="m 25.036512,802.96547 -0.898973,0.65303 -1.015051,0.45213 -1.086838,0.23102 -1.111146,0 -1.086839,-0.23102 -1.015086,-0.45213 -0.898902,-0.65303 -0.743492,-0.82559 -0.555591,-0.96236 -0.343311,-1.05661 -0.116149,-1.10516 0.11622,-1.10516 0.343311,-1.05661 0.555591,-0.96237 0.743457,-0.82559 0.898901,-0.65303 1.015122,-0.45212 1.086839,-0.23103 1.11111,0 1.086874,0.23103 1.015016,0.45212 0.898972,0.65303 0.743492,0.82559 0.555591,0.96237 0.343311,1.05661 0.116114,1.10516 -0.116185,1.10516 -0.343311,1.05661 -0.55559,0.96236 z"
       id="path9549"
       inkscape:connector-curvature="0"
       sodipodi:nodetypes="ccccccccccccccccccccccccccccccc" />
    <path
       style="fill:none;stroke:#ff0000;stroke-opacity:1"
       d="m -22.035685,793.72984 1.11111,0 1.086839,0.23103 1.015122,0.45212 0.898901,0.65303 0.743457,0.82559 0.555591,0.96237 0.343311,1.05661 0.11622,1.10516 -0.11622,1.10516 -0.343311,1.05661 -0.555591,0.96236 -0.743457,0.82559 -0.898901,0.65303 -1.015122,0.45213 -1.086839,0.23102 -1.11111,0 -1.086874,-0.23102 -1.015016,-0.45213 -0.898972,-0.65303 -0.743492,-0.82559 -0.555591,-0.96236 -0.343311,-1.05661 -0.116114,-1.10516 0.116114,-1.10516 0.343311,-1.05661 0.555591,-0.96237 0.743492,-0.82559 0.898972,-0.65303 1.015016,-0.45212 z"
       id="path9585"
       inkscape:connector-curvature="0"
       sodipodi:nodetypes="ccccccccccccccccccccccccccccccc" />
    <path
       style="fill:none;stroke:#ff0000;stroke-opacity:1"
       d="m -140.13779,893.79921 0,11.33858 -92.43071,0 0,-11.33858 z"
       id="path9621"
       inkscape:connector-curvature="0"
       sodipodi:nodetypes="ccccc" />
    <path
       style="fill:none;stroke:#ff0000;stroke-opacity:1"
       d="m 232.5685,905.13779 -92.43071,0 0,-11.33858 92.43071,0 z"
       id="path9631"
       inkscape:connector-curvature="0"
       sodipodi:nodetypes="ccccc" />
    <path
       style="fill:none;stroke:#ff0000;stroke-opacity:1"
       d="m -192.93661,923.0315 13.74803,-3.6e-4 0,31.30016 -13.74768,0 z"
       id="path9635"
       inkscape:connector-curvature="0"
       sodipodi:nodetypes="ccccc" />
    <path
       style="fill:none;stroke:#ff0000;stroke-opacity:1"
       d="m 179.18823,923.0315 13.74803,-3.6e-4 0,31.30016 -13.74768,0 z"
       id="path9643"
       inkscape:connector-curvature="0"
       sodipodi:nodetypes="ccccc" />
    <path
       style="fill:none;stroke:#ff0000;stroke-opacity:1"
       d="m 236.28898,944.29134 -7.08662,0 0,-14.17323 7.08662,0 z"
       id="path9655"
       inkscape:connector-curvature="0"
       sodipodi:nodetypes="ccccc" />
    <path
       style="fill:none;stroke:#ff0000;stroke-opacity:1"
       d="m -229.20236,944.29134 -7.08662,0 0,-14.17323 7.08662,0 z"
       id="path9663"
       inkscape:connector-curvature="0"
       sodipodi:nodetypes="ccccc" />
    <path
       style="fill:none;stroke:#ff0000;stroke-opacity:1"
       d="m -101.11358,942.0711 1.01515,0.45213 0.898942,0.65303 0.743386,0.82559 0.55559,0.96236 0.343347,1.05662 0.11622,1.10515 0,63.77952 -0.11622,1.1052 -0.343347,1.0566 -0.55559,0.9623 -0.743386,0.8256 -0.898942,0.6531 -1.01515,0.4521 -1.08674,0.231 -1.11118,0 -1.08673,-0.231 -1.01516,-0.4521 -0.89893,-0.6531 -0.74339,-0.8256 -0.55559,-0.9623 -0.34335,-1.0566 -0.11622,-1.1052 0,-63.77952 0.11622,-1.10515 0.34335,-1.05662 0.55559,-0.96236 0.74339,-0.82559 0.89893,-0.65303 1.01516,-0.45213 1.08673,-0.23102 1.11118,0 z"
       id="path9699"
       inkscape:connector-curvature="0"
       sodipodi:nodetypes="ccccccccccccccccccccccccccccccccc" />
    <path
       style="fill:none;stroke:#ff0000;stroke-opacity:1"
       d="m 100.09843,1015.5083 -0.898942,-0.6531 -0.743386,-0.8256 -0.55559,-0.9623 -0.343347,-1.0566 -0.11622,-1.1052 0,-63.77952 0.11622,-1.10515 0.343347,-1.05662 0.55559,-0.96236 0.743386,-0.82559 0.898942,-0.65303 1.01515,-0.45213 1.08674,-0.23102 1.11118,0 1.08673,0.23102 1.01516,0.45213 0.89893,0.65303 0.74339,0.82559 0.55559,0.96236 0.34335,1.05662 0.11622,1.10515 0,63.77952 -0.11622,1.1052 -0.34335,1.0566 -0.55559,0.9623 -0.74339,0.8256 -0.89893,0.6531 -1.01516,0.4521 -1.08673,0.231 -1.11118,0 -1.08674,-0.231 z"
       id="path9733"
       inkscape:connector-curvature="0"
       sodipodi:nodetypes="ccccccccccccccccccccccccccccccccc" />
    <path
       style="fill:none;stroke:#ff0000;stroke-opacity:1"
       d="m -197.3126,986.22035 -7.08661,0 0,-14.17322 7.08661,0 z"
       id="path9799"
       inkscape:connector-curvature="0"
       sodipodi:nodetypes="ccccc" />
    <path
       style="fill:none;stroke:#ff0000;stroke-opacity:1"
       d="m 197.3126,972.04713 7.08661,0 0,14.17322 -7.08661,0 z"
       id="path9803"
       inkscape:connector-curvature="0"
       sodipodi:nodetypes="ccccc" />
    <path
       style="fill:none;stroke:#ff0000;stroke-opacity:1"
       d="m -172.50945,972.04713 7.08662,0 0,14.17322 -7.08662,0 z"
       id="path9811"
       inkscape:connector-curvature="0"
       sodipodi:nodetypes="ccccc" />
    <path
       style="fill:none;stroke:#ff0000;stroke-opacity:1"
       d="m 172.50945,986.22035 -7.08662,0 0,-14.17322 7.08662,0 z"
       id="path9823"
       inkscape:connector-curvature="0"
       sodipodi:nodetypes="ccccc" />
    <path
       style="fill:none;stroke:#ff0000;stroke-opacity:1"
       d="m 179.18823,1003.3466 13.74803,-4e-4 0,59.1741 -13.74768,-2e-4 z"
       id="path9827"
       inkscape:connector-curvature="0"
       sodipodi:nodetypes="ccccc" />
    <path
       style="fill:none;stroke:#ff0000;stroke-opacity:1"
       d="m -179.18858,1003.3462 3.5e-4,59.1735 -13.74838,2e-4 0,-59.1733 z"
       id="path9835"
       inkscape:connector-curvature="0"
       sodipodi:nodetypes="ccccc" />
    <path
       style="fill:none;stroke:#ff0000;stroke-opacity:1"
       d="m -229.20236,1049.373 -7.08662,0 0,-14.1733 7.08662,0 z"
       id="path9847"
       inkscape:connector-curvature="0"
       sodipodi:nodetypes="ccccc" />
    <path
       style="fill:none;stroke:#ff0000;stroke-opacity:1"
       d="m 229.20236,1049.373 0,-14.1733 7.08662,0 0,14.1733 z"
       id="path9857"
       inkscape:connector-curvature="0"
       sodipodi:nodetypes="ccccc" />
    <path
       style="fill:none;stroke:#ff0000;stroke-opacity:1"
       d="m 108.07087,1124.2913 -0.11622,1.1052 -0.34335,1.0566 -0.55559,0.9624 -0.74339,0.8256 -0.89893,0.653 -1.01516,0.4521 -1.08673,0.231 -1.11118,0 -1.08674,-0.231 -1.01515,-0.4521 -0.898942,-0.653 -0.743386,-0.8256 -0.55559,-0.9624 -0.343347,-1.0566 -0.11622,-1.1052 0,-63.7795 0.11622,-1.105 0.343347,-1.0568 0.55559,-0.9623 0.743386,-0.8257 0.898942,-0.6531 1.01515,-0.4519 1.08674,-0.2311 1.11118,0 1.08673,0.2311 1.01516,0.4519 0.89893,0.6531 0.74339,0.8257 0.55559,0.9623 0.34335,1.0568 0.11622,1.105 z"
       id="path9905"
       inkscape:connector-curvature="0"
       sodipodi:nodetypes="ccccccccccccccccccccccccccccccccc" />
    <path
       style="fill:none;stroke:#ff0000;stroke-opacity:1"
       d="m -97.440945,1060.5118 0,63.7795 -0.11622,1.1052 -0.343347,1.0566 -0.55559,0.9624 -0.743386,0.8256 -0.898942,0.653 -1.01515,0.4521 -1.08674,0.231 -1.11118,0 -1.08673,-0.231 -1.01516,-0.4521 -0.89893,-0.653 -0.74339,-0.8256 -0.55559,-0.9624 -0.34335,-1.0566 -0.11622,-1.1052 0,-63.7795 0.11622,-1.105 0.34335,-1.0568 0.55559,-0.9623 0.74339,-0.8257 0.89893,-0.6531 1.01516,-0.4519 1.08673,-0.2311 1.11118,0 1.08674,0.2311 1.01515,0.4519 0.898942,0.6531 0.743386,0.8257 0.55559,0.9623 0.343347,1.0568 z"
       id="path9967"
       inkscape:connector-curvature="0"
       sodipodi:nodetypes="ccccccccccccccccccccccccccccccccc" />
    <path
       style="fill:none;stroke:#ff0000;stroke-opacity:1"
       d="m 209.41264,1231.0622 0.74338,-0.826 0.89894,-0.653 1.01516,-0.4518 1.08673,-0.231 1.11118,0 1.08673,0.231 1.01516,0.4518 0.89894,0.653 0.74338,0.826 0.55559,0.9623 0.34335,1.0566 0.11622,1.1048 -0.11622,1.1052 -0.34335,1.057 -0.55559,0.962 -0.74338,0.8259 -0.89894,0.6531 -1.01516,0.4517 -1.08673,0.2311 -1.11118,0 -1.08673,-0.2311 -1.01516,-0.4517 -0.89894,-0.6531 -0.74338,-0.8259 -0.55559,-0.962 -0.34335,-1.057 -0.11622,-1.1052 0.11622,-1.1048 0.34335,-1.0566 z"
       id="path10005"
       inkscape:connector-curvature="0"
       sodipodi:nodetypes="ccccccccccccccccccccccccccccccc" />
    <path
       style="fill:none;stroke:#ff0000;stroke-opacity:1"
       d="m 167.19591,1238.136 -0.74375,-0.8259 -0.55558,-0.962 -0.343,-1.057 -0.11622,-1.1052 0.11622,-1.1048 0.343,-1.0566 0.55558,-0.9623 0.74375,-0.826 0.89893,-0.653 1.01481,-0.4518 1.08708,-0.231 1.11118,0 1.08674,0.231 1.01515,0.4518 0.89894,0.653 0.74339,0.826 0.55559,0.9623 0.34334,1.0566 0.11622,1.1048 -0.11622,1.1052 -0.34334,1.057 -0.55559,0.962 -0.74339,0.8259 -0.89894,0.6531 -1.01515,0.4517 -1.08674,0.2311 -1.11118,0 -1.08708,-0.2311 -1.01481,-0.4517 z"
       id="path10051"
       inkscape:connector-curvature="0"
       sodipodi:nodetypes="ccccccccccccccccccccccccccccccc" />
    <path
       style="fill:none;stroke:#ff0000;stroke-opacity:1"
       d="m -211.05496,1238.7891 -1.01516,0.4517 -1.08673,0.2311 -1.11118,0 -1.08673,-0.2311 -1.01516,-0.4517 -0.89894,-0.6531 -0.74338,-0.8259 -0.55559,-0.962 -0.34335,-1.057 -0.11622,-1.1052 0.11622,-1.1048 0.34335,-1.0566 0.55559,-0.9623 0.74338,-0.826 0.89894,-0.653 1.01516,-0.4518 1.08673,-0.231 1.11118,0 1.08673,0.231 1.01516,0.4518 0.89894,0.653 0.74338,0.826 0.55559,0.9623 0.34335,1.0566 0.11622,1.1048 -0.11622,1.1052 -0.34335,1.057 -0.55559,0.962 -0.74338,0.8259 z"
       id="path10159"
       inkscape:connector-curvature="0"
       sodipodi:nodetypes="ccccccccccccccccccccccccccccccc" />
    <path
       style="fill:none;stroke:#ff0000;stroke-opacity:1"
       d="m -176.06728,1234.1859 0.11622,-1.1048 0.34334,-1.0566 0.55559,-0.9623 0.74339,-0.826 0.89894,-0.653 1.01515,-0.4518 1.08674,-0.231 1.11118,0 1.08708,0.231 1.01481,0.4518 0.89893,0.653 0.74375,0.826 0.55558,0.9623 0.343,1.0566 0.11622,1.1048 -0.11622,1.1052 -0.343,1.057 -0.55558,0.962 -0.74375,0.8259 -0.89893,0.6531 -1.01481,0.4517 -1.08708,0.2311 -1.11118,0 -1.08674,-0.2311 -1.01515,-0.4517 -0.89894,-0.6531 -0.74339,-0.8259 -0.55559,-0.962 -0.34334,-1.057 z"
       id="path10179"
       inkscape:connector-curvature="0"
       sodipodi:nodetypes="ccccccccccccccccccccccccccccccc" />
    <path
       style="fill:none;stroke:#ff0000;stroke-opacity:1"
       d="m -192.78779,1266.1051 1.11082,0 1.08709,0.231 1.01516,0.4518 0.89858,0.653 0.74374,0.826 0.55559,0.962 0.34335,1.057 0.11586,1.1048 -0.11586,1.1051 -0.34335,1.0566 -0.55559,0.9624 -0.74374,0.8259 -0.89894,0.6531 -1.0148,0.4518 -1.08709,0.231 -1.11082,0 -1.08709,-0.231 -1.0148,-0.4518 -0.89894,-0.6531 -0.74374,-0.8259 -0.55559,-0.9624 -0.34335,-1.0566 -0.11586,-1.1051 0.11586,-1.1048 0.34335,-1.057 0.55559,-0.962 0.74374,-0.826 0.89894,-0.653 1.0148,-0.4518 z"
       id="path10253"
       inkscape:connector-curvature="0"
       sodipodi:nodetypes="ccccccccccccccccccccccccccccccc" />
    <path
       style="fill:none;stroke:#ff0000;stroke-opacity:1"
       d="m 193.87488,1276.4456 -1.08709,0.231 -1.11082,0 -1.08709,-0.231 -1.01516,-0.4518 -0.89858,-0.6531 -0.74374,-0.8259 -0.55559,-0.9624 -0.34335,-1.0566 -0.11622,-1.1051 0.11622,-1.1048 0.34335,-1.057 0.55559,-0.962 0.74374,-0.826 0.89858,-0.653 1.01516,-0.4518 1.08709,-0.231 1.11082,0 1.08709,0.231 1.0148,0.4518 0.89894,0.653 0.74374,0.826 0.55559,0.962 0.34335,1.057 0.11586,1.1048 -0.11586,1.1051 -0.34335,1.0566 -0.55559,0.9624 -0.74374,0.8259 -0.89894,0.6531 z"
       id="path10341"
       inkscape:connector-curvature="0"
       sodipodi:nodetypes="ccccccccccccccccccccccccccccccc" />
    <path
       style="fill:none;stroke:#ff0000;stroke-opacity:1"
       d="m -140.51622,1342.2278 -1.08673,-0.2311 -1.01516,-0.4517 -0.89894,-0.6531 -0.74338,-0.8259 -0.55559,-0.9624 -0.34335,-1.0566 -0.11622,-1.1051 0.11622,-1.1049 0.34335,-1.0566 0.55559,-0.9623 0.74338,-0.826 0.89894,-0.653 1.01516,-0.4518 1.08673,-0.231 1.11118,0 1.08673,0.231 1.01516,0.4518 0.89894,0.653 0.74338,0.826 0.55559,0.9623 0.34335,1.0566 0.11622,1.1049 -0.11622,1.1051 -0.34335,1.0566 -0.55559,0.9624 -0.74338,0.8259 -0.89894,0.6531 -1.01516,0.4517 -1.08673,0.2311 z"
       id="path10405"
       inkscape:connector-curvature="0"
       sodipodi:nodetypes="ccccccccccccccccccccccccccccccc" />
    <path
       style="fill:none;stroke:#ff0000;stroke-opacity:1"
       d="m 142.61811,1341.545 -1.01516,0.4517 -1.08673,0.2311 -1.11118,0 -1.08673,-0.2311 -1.01516,-0.4517 -0.89894,-0.6531 -0.74338,-0.8259 -0.55559,-0.9624 -0.34335,-1.0566 -0.11622,-1.1051 0.11622,-1.1049 0.34335,-1.0566 0.55559,-0.9623 0.74338,-0.826 0.89894,-0.653 1.01516,-0.4518 1.08673,-0.231 1.11118,0 1.08673,0.231 1.01516,0.4518 0.89894,0.653 0.74338,0.826 0.55559,0.9623 0.34335,1.0566 0.11622,1.1049 -0.11622,1.1051 -0.34335,1.0566 -0.55559,0.9624 -0.74338,0.8259 z"
       id="path10459"
       inkscape:connector-curvature="0"
       sodipodi:nodetypes="ccccccccccccccccccccccccccccccc" />
  </g>
</svg>
