  0
SECTION
  2
BLOCKS
  0
ENDSEC
  0
SECTION
  2
ENTITIES
  0
LINE
  8
0
 10
0.988953
 20
-9.44829
 11
1.38779
 21
-9.39809
  0
LINE
  8
0
 10
1.38779
 20
-9.39809
 11
1.78012
 21
-9.33173
  0
LINE
  8
0
 10
1.78012
 20
-9.33173
 11
2.16933
 21
-9.24899
  0
LINE
  8
0
 10
2.16933
 20
-9.24899
 11
2.55473
 21
-9.15004
  0
LINE
  8
0
 10
2.55473
 20
-9.15004
 11
2.7011
 21
-9.10585
  0
LINE
  8
0
 10
2.7011
 20
-9.10585
 11
2.67667
 21
-9.06087
  0
LINE
  8
0
 10
2.67667
 20
-9.06087
 11
2.64404
 21
-8.64632
  0
LINE
  8
0
 10
2.64404
 20
-8.64632
 11
2.78285
 21
-8.25435
  0
LINE
  8
0
 10
2.78285
 20
-8.25435
 11
3.06908
 21
-7.95273
  0
LINE
  8
0
 10
3.06908
 20
-7.95273
 11
3.45325
 21
-7.79359
  0
LINE
  8
0
 10
3.45325
 20
-7.79359
 11
3.86893
 21
-7.80447
  0
LINE
  8
0
 10
3.86893
 20
-7.80447
 11
4.24425
 21
-7.98349
  0
LINE
  8
0
 10
4.24425
 20
-7.98349
 11
4.5143
 21
-8.29968
  0
LINE
  8
0
 10
4.5143
 20
-8.29968
 11
4.52885
 21
-8.34882
  0
LINE
  8
0
 10
4.52885
 20
-8.34882
 11
4.74998
 21
-8.22723
  0
LINE
  8
0
 10
4.74998
 20
-8.22723
 11
5.09035
 21
-8.0211
  0
LINE
  8
0
 10
5.09035
 20
-8.0211
 11
5.42177
 21
-7.8009
  0
LINE
  8
0
 10
5.42177
 20
-7.8009
 11
5.74368
 21
-7.56703
  0
LINE
  8
0
 10
5.74368
 20
-7.56703
 11
5.9805
 21
-7.37933
  0
LINE
  8
0
 10
5.9805
 20
-7.37933
 11
5.94035
 21
-7.34683
  0
LINE
  8
0
 10
5.94035
 20
-7.34683
 11
5.75159
 21
-6.97632
  0
LINE
  8
0
 10
5.75159
 20
-6.97632
 11
5.72981
 21
-6.56107
  0
LINE
  8
0
 10
5.72981
 20
-6.56107
 11
5.87883
 21
-6.17287
  0
LINE
  8
0
 10
5.87883
 20
-6.17287
 11
6.17287
 21
-5.87883
  0
LINE
  8
0
 10
6.17287
 20
-5.87883
 11
6.56107
 21
-5.72981
  0
LINE
  8
0
 10
6.56107
 20
-5.72981
 11
6.97632
 21
-5.75159
  0
LINE
  8
0
 10
6.97632
 20
-5.75159
 11
7.34683
 21
-5.94035
  0
LINE
  8
0
 10
7.34683
 20
-5.94035
 11
7.37929
 21
-5.98044
  0
LINE
  8
0
 10
7.37929
 20
-5.98044
 11
7.44508
 21
-5.90089
  0
LINE
  8
0
 10
7.44508
 20
-5.90089
 11
7.68565
 21
-5.58395
  0
LINE
  8
0
 10
7.68565
 20
-5.58395
 11
7.91275
 21
-5.25722
  0
LINE
  8
0
 10
7.91275
 20
-5.25722
 11
8.12595
 21
-4.92125
  0
LINE
  8
0
 10
8.12595
 20
-4.92125
 11
8.32491
 21
-4.57664
  0
LINE
  8
0
 10
8.32491
 20
-4.57664
 11
8.34975
 21
-4.52913
  0
LINE
  8
0
 10
8.34975
 20
-4.52913
 11
8.29968
 21
-4.5143
  0
LINE
  8
0
 10
8.29968
 20
-4.5143
 11
7.98349
 21
-4.24425
  0
LINE
  8
0
 10
7.98349
 20
-4.24425
 11
7.80447
 21
-3.86893
  0
LINE
  8
0
 10
7.80447
 20
-3.86893
 11
7.79359
 21
-3.45325
  0
LINE
  8
0
 10
7.79359
 20
-3.45325
 11
7.95273
 21
-3.06908
  0
LINE
  8
0
 10
7.95273
 20
-3.06908
 11
8.25435
 21
-2.78285
  0
LINE
  8
0
 10
8.25435
 20
-2.78285
 11
8.64632
 21
-2.64404
  0
LINE
  8
0
 10
8.64632
 20
-2.64404
 11
9.06087
 21
-2.67667
  0
LINE
  8
0
 10
9.06087
 20
-2.67667
 11
9.10686
 21
-2.70163
  0
LINE
  8
0
 10
9.10686
 20
-2.70163
 11
9.20154
 21
-2.36255
  0
LINE
  8
0
 10
9.20154
 20
-2.36255
 11
9.29239
 21
-1.97516
  0
LINE
  8
0
 10
9.29239
 20
-1.97516
 11
9.36696
 21
-1.58429
  0
LINE
  8
0
 10
9.36696
 20
-1.58429
 11
9.42508
 21
-1.19066
  0
LINE
  8
0
 10
9.42508
 20
-1.19066
 11
9.44626
 21
-0.989166
  0
LINE
  8
0
 10
9.44626
 20
-0.989166
 11
9.39546
 21
-0.994507
  0
LINE
  8
0
 10
9.39546
 20
-0.994507
 11
9
 21
-0.866013
  0
LINE
  8
0
 10
9
 20
-0.866013
 11
8.75616
 21
-0.646469
  0
LINE
  8
0
 10
8.75616
 20
-0.646469
 11
8.66913
 21
-0.743134
  0
LINE
  8
0
 10
8.66913
 20
-0.743134
 11
8.5
 21
-0.866013
  0
LINE
  8
0
 10
8.5
 20
-0.866013
 11
8.30901
 21
-0.95105
  0
LINE
  8
0
 10
8.30901
 20
-0.95105
 11
8.10452
 21
-0.994507
  0
LINE
  8
0
 10
8.10452
 20
-0.994507
 11
7.89546
 21
-0.994507
  0
LINE
  8
0
 10
7.89546
 20
-0.994507
 11
7.69098
 21
-0.95105
  0
LINE
  8
0
 10
7.69098
 20
-0.95105
 11
7.5
 21
-0.866013
  0
LINE
  8
0
 10
7.5
 20
-0.866013
 11
7.33086
 21
-0.743134
  0
LINE
  8
0
 10
7.33086
 20
-0.743134
 11
7.19098
 21
-0.587784
  0
LINE
  8
0
 10
7.19098
 20
-0.587784
 11
7.08644
 21
-0.406723
  0
LINE
  8
0
 10
7.08644
 20
-0.406723
 11
7.02185
 21
-0.207901
  0
LINE
  8
0
 10
7.02185
 20
-0.207901
 11
7
 21
0
  0
LINE
  8
0
 10
7
 20
0
 11
7.02185
 21
0.207901
  0
LINE
  8
0
 10
7.02185
 20
0.207901
 11
7.08644
 21
0.406723
  0
LINE
  8
0
 10
7.08644
 20
0.406723
 11
7.19098
 21
0.587784
  0
LINE
  8
0
 10
7.19098
 20
0.587784
 11
7.33086
 21
0.743134
  0
LINE
  8
0
 10
7.33086
 20
0.743134
 11
7.5
 21
0.866013
  0
LINE
  8
0
 10
7.5
 20
0.866013
 11
7.69098
 21
0.95105
  0
LINE
  8
0
 10
7.69098
 20
0.95105
 11
7.89546
 21
0.994507
  0
LINE
  8
0
 10
7.89546
 20
0.994507
 11
8.10452
 21
0.994507
  0
LINE
  8
0
 10
8.10452
 20
0.994507
 11
8.30901
 21
0.95105
  0
LINE
  8
0
 10
8.30901
 20
0.95105
 11
8.5
 21
0.866013
  0
LINE
  8
0
 10
8.5
 20
0.866013
 11
8.66913
 21
0.743134
  0
LINE
  8
0
 10
8.66913
 20
0.743134
 11
8.75616
 21
0.646469
  0
LINE
  8
0
 10
8.75616
 20
0.646469
 11
9
 21
0.866013
  0
LINE
  8
0
 10
9
 20
0.866013
 11
9.39546
 21
0.994507
  0
LINE
  8
0
 10
9.39546
 20
0.994507
 11
9.44626
 21
0.989166
  0
LINE
  8
0
 10
9.44626
 20
0.989166
 11
9.42508
 21
1.19066
  0
LINE
  8
0
 10
9.42508
 20
1.19066
 11
9.36696
 21
1.58429
  0
LINE
  8
0
 10
9.36696
 20
1.58429
 11
9.29239
 21
1.97516
  0
LINE
  8
0
 10
9.29239
 20
1.97516
 11
9.20154
 21
2.36255
  0
LINE
  8
0
 10
9.20154
 20
2.36255
 11
9.10686
 21
2.70163
  0
LINE
  8
0
 10
9.10686
 20
2.70163
 11
9.06087
 21
2.67667
  0
LINE
  8
0
 10
9.06087
 20
2.67667
 11
8.64632
 21
2.64404
  0
LINE
  8
0
 10
8.64632
 20
2.64404
 11
8.25435
 21
2.78285
  0
LINE
  8
0
 10
8.25435
 20
2.78285
 11
7.95273
 21
3.06908
  0
LINE
  8
0
 10
7.95273
 20
3.06908
 11
7.79359
 21
3.45325
  0
LINE
  8
0
 10
7.79359
 20
3.45325
 11
7.80447
 21
3.86893
  0
LINE
  8
0
 10
7.80447
 20
3.86893
 11
7.98349
 21
4.24425
  0
LINE
  8
0
 10
7.98349
 20
4.24425
 11
8.29968
 21
4.5143
  0
LINE
  8
0
 10
8.29968
 20
4.5143
 11
8.34975
 21
4.52913
  0
LINE
  8
0
 10
8.34975
 20
4.52913
 11
8.32491
 21
4.57664
  0
LINE
  8
0
 10
8.32491
 20
4.57664
 11
8.12595
 21
4.92125
  0
LINE
  8
0
 10
8.12595
 20
4.92125
 11
7.91275
 21
5.25722
  0
LINE
  8
0
 10
7.91275
 20
5.25722
 11
7.68565
 21
5.58395
  0
LINE
  8
0
 10
7.68565
 20
5.58395
 11
7.44508
 21
5.90089
  0
LINE
  8
0
 10
7.44508
 20
5.90089
 11
7.37929
 21
5.98044
  0
LINE
  8
0
 10
7.37929
 20
5.98044
 11
7.34683
 21
5.94035
  0
LINE
  8
0
 10
7.34683
 20
5.94035
 11
6.97632
 21
5.75159
  0
LINE
  8
0
 10
6.97632
 20
5.75159
 11
6.56107
 21
5.72981
  0
LINE
  8
0
 10
6.56107
 20
5.72981
 11
6.17287
 21
5.87883
  0
LINE
  8
0
 10
6.17287
 20
5.87883
 11
5.87883
 21
6.17287
  0
LINE
  8
0
 10
5.87883
 20
6.17287
 11
5.72981
 21
6.56107
  0
LINE
  8
0
 10
5.72981
 20
6.56107
 11
5.75159
 21
6.97632
  0
LINE
  8
0
 10
5.75159
 20
6.97632
 11
5.94035
 21
7.34683
  0
LINE
  8
0
 10
5.94035
 20
7.34683
 11
5.9805
 21
7.37933
  0
LINE
  8
0
 10
5.9805
 20
7.37933
 11
5.74368
 21
7.56703
  0
LINE
  8
0
 10
5.74368
 20
7.56703
 11
5.42177
 21
7.8009
  0
LINE
  8
0
 10
5.42177
 20
7.8009
 11
5.09035
 21
8.0211
  0
LINE
  8
0
 10
5.09035
 20
8.0211
 11
4.74998
 21
8.22723
  0
LINE
  8
0
 10
4.74998
 20
8.22723
 11
4.52885
 21
8.34882
  0
LINE
  8
0
 10
4.52885
 20
8.34882
 11
4.5143
 21
8.29968
  0
LINE
  8
0
 10
4.5143
 20
8.29968
 11
4.24425
 21
7.98349
  0
LINE
  8
0
 10
4.24425
 20
7.98349
 11
3.86893
 21
7.80447
  0
LINE
  8
0
 10
3.86893
 20
7.80447
 11
3.45325
 21
7.79359
  0
LINE
  8
0
 10
3.45325
 20
7.79359
 11
3.06908
 21
7.95273
  0
LINE
  8
0
 10
3.06908
 20
7.95273
 11
2.78285
 21
8.25435
  0
LINE
  8
0
 10
2.78285
 20
8.25435
 11
2.64404
 21
8.64632
  0
LINE
  8
0
 10
2.64404
 20
8.64632
 11
2.67667
 21
9.06087
  0
LINE
  8
0
 10
2.67667
 20
9.06087
 11
2.7011
 21
9.10585
  0
LINE
  8
0
 10
2.7011
 20
9.10585
 11
2.55473
 21
9.15004
  0
LINE
  8
0
 10
2.55473
 20
9.15004
 11
2.16933
 21
9.24899
  0
LINE
  8
0
 10
2.16933
 20
9.24899
 11
1.78012
 21
9.33173
  0
LINE
  8
0
 10
1.78012
 20
9.33173
 11
1.38779
 21
9.39809
  0
LINE
  8
0
 10
1.38779
 20
9.39809
 11
0.988953
 21
9.44829
  0
LINE
  8
0
 10
0.988953
 20
9.44829
 11
0.994507
 21
9.39546
  0
LINE
  8
0
 10
0.994507
 20
9.39546
 11
0.866013
 21
9
  0
LINE
  8
0
 10
0.866013
 20
9
 11
0.646469
 21
8.75616
  0
LINE
  8
0
 10
0.646469
 20
8.75616
 11
0.743134
 21
8.66913
  0
LINE
  8
0
 10
0.743134
 20
8.66913
 11
0.866013
 21
8.5
  0
LINE
  8
0
 10
0.866013
 20
8.5
 11
0.95105
 21
8.30901
  0
LINE
  8
0
 10
0.95105
 20
8.30901
 11
0.994507
 21
8.10452
  0
LINE
  8
0
 10
0.994507
 20
8.10452
 11
0.994507
 21
7.89546
  0
LINE
  8
0
 10
0.994507
 20
7.89546
 11
0.95105
 21
7.69098
  0
LINE
  8
0
 10
0.95105
 20
7.69098
 11
0.866013
 21
7.5
  0
LINE
  8
0
 10
0.866013
 20
7.5
 11
0.743134
 21
7.33086
  0
LINE
  8
0
 10
0.743134
 20
7.33086
 11
0.587784
 21
7.19098
  0
LINE
  8
0
 10
0.587784
 20
7.19098
 11
0.406723
 21
7.08644
  0
LINE
  8
0
 10
0.406723
 20
7.08644
 11
0.207901
 21
7.02185
  0
LINE
  8
0
 10
0.207901
 20
7.02185
 11
0
 21
7
  0
LINE
  8
0
 10
0
 20
7
 11
-0.207901
 21
7.02185
  0
LINE
  8
0
 10
-0.207901
 20
7.02185
 11
-0.406723
 21
7.08644
  0
LINE
  8
0
 10
-0.406723
 20
7.08644
 11
-0.587784
 21
7.19098
  0
LINE
  8
0
 10
-0.587784
 20
7.19098
 11
-0.743134
 21
7.33086
  0
LINE
  8
0
 10
-0.743134
 20
7.33086
 11
-0.866013
 21
7.5
  0
LINE
  8
0
 10
-0.866013
 20
7.5
 11
-0.95105
 21
7.69098
  0
LINE
  8
0
 10
-0.95105
 20
7.69098
 11
-0.994507
 21
7.89546
  0
LINE
  8
0
 10
-0.994507
 20
7.89546
 11
-0.994507
 21
8.10452
  0
LINE
  8
0
 10
-0.994507
 20
8.10452
 11
-0.95105
 21
8.30901
  0
LINE
  8
0
 10
-0.95105
 20
8.30901
 11
-0.866013
 21
8.5
  0
LINE
  8
0
 10
-0.866013
 20
8.5
 11
-0.743134
 21
8.66913
  0
LINE
  8
0
 10
-0.743134
 20
8.66913
 11
-0.646469
 21
8.75616
  0
LINE
  8
0
 10
-0.646469
 20
8.75616
 11
-0.866013
 21
9
  0
LINE
  8
0
 10
-0.866013
 20
9
 11
-0.994507
 21
9.39546
  0
LINE
  8
0
 10
-0.994507
 20
9.39546
 11
-0.988953
 21
9.44829
  0
LINE
  8
0
 10
-0.988953
 20
9.44829
 11
-1.38779
 21
9.39809
  0
LINE
  8
0
 10
-1.38779
 20
9.39809
 11
-1.78012
 21
9.33173
  0
LINE
  8
0
 10
-1.78012
 20
9.33173
 11
-2.16933
 21
9.24899
  0
LINE
  8
0
 10
-2.16933
 20
9.24899
 11
-2.55473
 21
9.15004
  0
LINE
  8
0
 10
-2.55473
 20
9.15004
 11
-2.7011
 21
9.10585
  0
LINE
  8
0
 10
-2.7011
 20
9.10585
 11
-2.67667
 21
9.06087
  0
LINE
  8
0
 10
-2.67667
 20
9.06087
 11
-2.64404
 21
8.64632
  0
LINE
  8
0
 10
-2.64404
 20
8.64632
 11
-2.78285
 21
8.25435
  0
LINE
  8
0
 10
-2.78285
 20
8.25435
 11
-3.06908
 21
7.95273
  0
LINE
  8
0
 10
-3.06908
 20
7.95273
 11
-3.45325
 21
7.79359
  0
LINE
  8
0
 10
-3.45325
 20
7.79359
 11
-3.86893
 21
7.80447
  0
LINE
  8
0
 10
-3.86893
 20
7.80447
 11
-4.24425
 21
7.98349
  0
LINE
  8
0
 10
-4.24425
 20
7.98349
 11
-4.5143
 21
8.29968
  0
LINE
  8
0
 10
-4.5143
 20
8.29968
 11
-4.52885
 21
8.34882
  0
LINE
  8
0
 10
-4.52885
 20
8.34882
 11
-4.75
 21
8.22723
  0
LINE
  8
0
 10
-4.75
 20
8.22723
 11
-5.09035
 21
8.0211
  0
LINE
  8
0
 10
-5.09035
 20
8.0211
 11
-5.42177
 21
7.8009
  0
LINE
  8
0
 10
-5.42177
 20
7.8009
 11
-5.74368
 21
7.56703
  0
LINE
  8
0
 10
-5.74368
 20
7.56703
 11
-5.9805
 21
7.37933
  0
LINE
  8
0
 10
-5.9805
 20
7.37933
 11
-5.94035
 21
7.34683
  0
LINE
  8
0
 10
-5.94035
 20
7.34683
 11
-5.75159
 21
6.97632
  0
LINE
  8
0
 10
-5.75159
 20
6.97632
 11
-5.72981
 21
6.56107
  0
LINE
  8
0
 10
-5.72981
 20
6.56107
 11
-5.87883
 21
6.17287
  0
LINE
  8
0
 10
-5.87883
 20
6.17287
 11
-6.17287
 21
5.87883
  0
LINE
  8
0
 10
-6.17287
 20
5.87883
 11
-6.56107
 21
5.72981
  0
LINE
  8
0
 10
-6.56107
 20
5.72981
 11
-6.97632
 21
5.75159
  0
LINE
  8
0
 10
-6.97632
 20
5.75159
 11
-7.34683
 21
5.94035
  0
LINE
  8
0
 10
-7.34683
 20
5.94035
 11
-7.37929
 21
5.98044
  0
LINE
  8
0
 10
-7.37929
 20
5.98044
 11
-7.44508
 21
5.90089
  0
LINE
  8
0
 10
-7.44508
 20
5.90089
 11
-7.68565
 21
5.58395
  0
LINE
  8
0
 10
-7.68565
 20
5.58395
 11
-7.91275
 21
5.25722
  0
LINE
  8
0
 10
-7.91275
 20
5.25722
 11
-8.12595
 21
4.92125
  0
LINE
  8
0
 10
-8.12595
 20
4.92125
 11
-8.32491
 21
4.57664
  0
LINE
  8
0
 10
-8.32491
 20
4.57664
 11
-8.34975
 21
4.52913
  0
LINE
  8
0
 10
-8.34975
 20
4.52913
 11
-8.29968
 21
4.5143
  0
LINE
  8
0
 10
-8.29968
 20
4.5143
 11
-7.98349
 21
4.24425
  0
LINE
  8
0
 10
-7.98349
 20
4.24425
 11
-7.80447
 21
3.86893
  0
LINE
  8
0
 10
-7.80447
 20
3.86893
 11
-7.79359
 21
3.45325
  0
LINE
  8
0
 10
-7.79359
 20
3.45325
 11
-7.95273
 21
3.06908
  0
LINE
  8
0
 10
-7.95273
 20
3.06908
 11
-8.25435
 21
2.78285
  0
LINE
  8
0
 10
-8.25435
 20
2.78285
 11
-8.64632
 21
2.64404
  0
LINE
  8
0
 10
-8.64632
 20
2.64404
 11
-9.06087
 21
2.67667
  0
LINE
  8
0
 10
-9.06087
 20
2.67667
 11
-9.10686
 21
2.70163
  0
LINE
  8
0
 10
-9.10686
 20
2.70163
 11
-9.20154
 21
2.36255
  0
LINE
  8
0
 10
-9.20154
 20
2.36255
 11
-9.29239
 21
1.97516
  0
LINE
  8
0
 10
-9.29239
 20
1.97516
 11
-9.36696
 21
1.58429
  0
LINE
  8
0
 10
-9.36696
 20
1.58429
 11
-9.42508
 21
1.19066
  0
LINE
  8
0
 10
-9.42508
 20
1.19066
 11
-9.44626
 21
0.989166
  0
LINE
  8
0
 10
-9.44626
 20
0.989166
 11
-9.39546
 21
0.994507
  0
LINE
  8
0
 10
-9.39546
 20
0.994507
 11
-9
 21
0.866013
  0
LINE
  8
0
 10
-9
 20
0.866013
 11
-8.75616
 21
0.646469
  0
LINE
  8
0
 10
-8.75616
 20
0.646469
 11
-8.66913
 21
0.743134
  0
LINE
  8
0
 10
-8.66913
 20
0.743134
 11
-8.5
 21
0.866013
  0
LINE
  8
0
 10
-8.5
 20
0.866013
 11
-8.30901
 21
0.95105
  0
LINE
  8
0
 10
-8.30901
 20
0.95105
 11
-8.10452
 21
0.994507
  0
LINE
  8
0
 10
-8.10452
 20
0.994507
 11
-7.89546
 21
0.994507
  0
LINE
  8
0
 10
-7.89546
 20
0.994507
 11
-7.69098
 21
0.95105
  0
LINE
  8
0
 10
-7.69098
 20
0.95105
 11
-7.5
 21
0.866013
  0
LINE
  8
0
 10
-7.5
 20
0.866013
 11
-7.33086
 21
0.743134
  0
LINE
  8
0
 10
-7.33086
 20
0.743134
 11
-7.19098
 21
0.587784
  0
LINE
  8
0
 10
-7.19098
 20
0.587784
 11
-7.08644
 21
0.406723
  0
LINE
  8
0
 10
-7.08644
 20
0.406723
 11
-7.02185
 21
0.207901
  0
LINE
  8
0
 10
-7.02185
 20
0.207901
 11
-7
 21
0
  0
LINE
  8
0
 10
-7
 20
0
 11
-7.02185
 21
-0.207901
  0
LINE
  8
0
 10
-7.02185
 20
-0.207901
 11
-7.08644
 21
-0.406723
  0
LINE
  8
0
 10
-7.08644
 20
-0.406723
 11
-7.19098
 21
-0.587784
  0
LINE
  8
0
 10
-7.19098
 20
-0.587784
 11
-7.33086
 21
-0.743134
  0
LINE
  8
0
 10
-7.33086
 20
-0.743134
 11
-7.5
 21
-0.866013
  0
LINE
  8
0
 10
-7.5
 20
-0.866013
 11
-7.69098
 21
-0.95105
  0
LINE
  8
0
 10
-7.69098
 20
-0.95105
 11
-7.89546
 21
-0.994507
  0
LINE
  8
0
 10
-7.89546
 20
-0.994507
 11
-8.10452
 21
-0.994507
  0
LINE
  8
0
 10
-8.10452
 20
-0.994507
 11
-8.30901
 21
-0.95105
  0
LINE
  8
0
 10
-8.30901
 20
-0.95105
 11
-8.5
 21
-0.866013
  0
LINE
  8
0
 10
-8.5
 20
-0.866013
 11
-8.66913
 21
-0.743134
  0
LINE
  8
0
 10
-8.66913
 20
-0.743134
 11
-8.75616
 21
-0.646469
  0
LINE
  8
0
 10
-8.75616
 20
-0.646469
 11
-9
 21
-0.866013
  0
LINE
  8
0
 10
-9
 20
-0.866013
 11
-9.39546
 21
-0.994507
  0
LINE
  8
0
 10
-9.39546
 20
-0.994507
 11
-9.44626
 21
-0.989166
  0
LINE
  8
0
 10
-9.44626
 20
-0.989166
 11
-9.42508
 21
-1.19066
  0
LINE
  8
0
 10
-9.42508
 20
-1.19066
 11
-9.36696
 21
-1.58429
  0
LINE
  8
0
 10
-9.36696
 20
-1.58429
 11
-9.29239
 21
-1.97516
  0
LINE
  8
0
 10
-9.29239
 20
-1.97516
 11
-9.20154
 21
-2.36255
  0
LINE
  8
0
 10
-9.20154
 20
-2.36255
 11
-9.10686
 21
-2.70163
  0
LINE
  8
0
 10
-9.10686
 20
-2.70163
 11
-9.06087
 21
-2.67667
  0
LINE
  8
0
 10
-9.06087
 20
-2.67667
 11
-8.64632
 21
-2.64404
  0
LINE
  8
0
 10
-8.64632
 20
-2.64404
 11
-8.25435
 21
-2.78285
  0
LINE
  8
0
 10
-8.25435
 20
-2.78285
 11
-7.95273
 21
-3.06908
  0
LINE
  8
0
 10
-7.95273
 20
-3.06908
 11
-7.79359
 21
-3.45325
  0
LINE
  8
0
 10
-7.79359
 20
-3.45325
 11
-7.80447
 21
-3.86893
  0
LINE
  8
0
 10
-7.80447
 20
-3.86893
 11
-7.98349
 21
-4.24425
  0
LINE
  8
0
 10
-7.98349
 20
-4.24425
 11
-8.29968
 21
-4.5143
  0
LINE
  8
0
 10
-8.29968
 20
-4.5143
 11
-8.34975
 21
-4.52913
  0
LINE
  8
0
 10
-8.34975
 20
-4.52913
 11
-8.32491
 21
-4.57664
  0
LINE
  8
0
 10
-8.32491
 20
-4.57664
 11
-8.12595
 21
-4.92125
  0
LINE
  8
0
 10
-8.12595
 20
-4.92125
 11
-7.91275
 21
-5.25722
  0
LINE
  8
0
 10
-7.91275
 20
-5.25722
 11
-7.68565
 21
-5.58395
  0
LINE
  8
0
 10
-7.68565
 20
-5.58395
 11
-7.44508
 21
-5.90089
  0
LINE
  8
0
 10
-7.44508
 20
-5.90089
 11
-7.37929
 21
-5.98044
  0
LINE
  8
0
 10
-7.37929
 20
-5.98044
 11
-7.34683
 21
-5.94035
  0
LINE
  8
0
 10
-7.34683
 20
-5.94035
 11
-6.97632
 21
-5.75159
  0
LINE
  8
0
 10
-6.97632
 20
-5.75159
 11
-6.56107
 21
-5.72981
  0
LINE
  8
0
 10
-6.56107
 20
-5.72981
 11
-6.17287
 21
-5.87883
  0
LINE
  8
0
 10
-6.17287
 20
-5.87883
 11
-5.87883
 21
-6.17287
  0
LINE
  8
0
 10
-5.87883
 20
-6.17287
 11
-5.72981
 21
-6.56107
  0
LINE
  8
0
 10
-5.72981
 20
-6.56107
 11
-5.75159
 21
-6.97632
  0
LINE
  8
0
 10
-5.75159
 20
-6.97632
 11
-5.94035
 21
-7.34683
  0
LINE
  8
0
 10
-5.94035
 20
-7.34683
 11
-5.9805
 21
-7.37933
  0
LINE
  8
0
 10
-5.9805
 20
-7.37933
 11
-5.74368
 21
-7.56703
  0
LINE
  8
0
 10
-5.74368
 20
-7.56703
 11
-5.42177
 21
-7.8009
  0
LINE
  8
0
 10
-5.42177
 20
-7.8009
 11
-5.09035
 21
-8.0211
  0
LINE
  8
0
 10
-5.09035
 20
-8.0211
 11
-4.74998
 21
-8.22723
  0
LINE
  8
0
 10
-4.74998
 20
-8.22723
 11
-4.52885
 21
-8.34882
  0
LINE
  8
0
 10
-4.52885
 20
-8.34882
 11
-4.5143
 21
-8.29968
  0
LINE
  8
0
 10
-4.5143
 20
-8.29968
 11
-4.24425
 21
-7.98349
  0
LINE
  8
0
 10
-4.24425
 20
-7.98349
 11
-3.86893
 21
-7.80447
  0
LINE
  8
0
 10
-3.86893
 20
-7.80447
 11
-3.45325
 21
-7.79359
  0
LINE
  8
0
 10
-3.45325
 20
-7.79359
 11
-3.06908
 21
-7.95273
  0
LINE
  8
0
 10
-3.06908
 20
-7.95273
 11
-2.78285
 21
-8.25435
  0
LINE
  8
0
 10
-2.78285
 20
-8.25435
 11
-2.64404
 21
-8.64632
  0
LINE
  8
0
 10
-2.64404
 20
-8.64632
 11
-2.67667
 21
-9.06087
  0
LINE
  8
0
 10
-2.67667
 20
-9.06087
 11
-2.7011
 21
-9.10585
  0
LINE
  8
0
 10
-2.7011
 20
-9.10585
 11
-2.55473
 21
-9.15004
  0
LINE
  8
0
 10
-2.55473
 20
-9.15004
 11
-2.16933
 21
-9.24899
  0
LINE
  8
0
 10
-2.16933
 20
-9.24899
 11
-1.78012
 21
-9.33173
  0
LINE
  8
0
 10
-1.78012
 20
-9.33173
 11
-1.38779
 21
-9.39809
  0
LINE
  8
0
 10
-1.38779
 20
-9.39809
 11
-0.988953
 21
-9.44829
  0
LINE
  8
0
 10
-0.988953
 20
-9.44829
 11
-0.994507
 21
-9.39546
  0
LINE
  8
0
 10
-0.994507
 20
-9.39546
 11
-0.866013
 21
-9
  0
LINE
  8
0
 10
-0.866013
 20
-9
 11
-0.646469
 21
-8.75616
  0
LINE
  8
0
 10
-0.646469
 20
-8.75616
 11
-0.743134
 21
-8.66913
  0
LINE
  8
0
 10
-0.743134
 20
-8.66913
 11
-0.866013
 21
-8.5
  0
LINE
  8
0
 10
-0.866013
 20
-8.5
 11
-0.95105
 21
-8.30901
  0
LINE
  8
0
 10
-0.95105
 20
-8.30901
 11
-0.994507
 21
-8.10452
  0
LINE
  8
0
 10
-0.994507
 20
-8.10452
 11
-0.994507
 21
-7.89546
  0
LINE
  8
0
 10
-0.994507
 20
-7.89546
 11
-0.95105
 21
-7.69098
  0
LINE
  8
0
 10
-0.95105
 20
-7.69098
 11
-0.866013
 21
-7.5
  0
LINE
  8
0
 10
-0.866013
 20
-7.5
 11
-0.743134
 21
-7.33086
  0
LINE
  8
0
 10
-0.743134
 20
-7.33086
 11
-0.587784
 21
-7.19098
  0
LINE
  8
0
 10
-0.587784
 20
-7.19098
 11
-0.406723
 21
-7.08644
  0
LINE
  8
0
 10
-0.406723
 20
-7.08644
 11
-0.207901
 21
-7.02185
  0
LINE
  8
0
 10
-0.207901
 20
-7.02185
 11
0
 21
-7
  0
LINE
  8
0
 10
0
 20
-7
 11
0.207901
 21
-7.02185
  0
LINE
  8
0
 10
0.207901
 20
-7.02185
 11
0.406723
 21
-7.08644
  0
LINE
  8
0
 10
0.406723
 20
-7.08644
 11
0.587784
 21
-7.19098
  0
LINE
  8
0
 10
0.587784
 20
-7.19098
 11
0.743134
 21
-7.33086
  0
LINE
  8
0
 10
0.743134
 20
-7.33086
 11
0.866013
 21
-7.5
  0
LINE
  8
0
 10
0.866013
 20
-7.5
 11
0.95105
 21
-7.69098
  0
LINE
  8
0
 10
0.95105
 20
-7.69098
 11
0.994507
 21
-7.89546
  0
LINE
  8
0
 10
0.994507
 20
-7.89546
 11
0.994507
 21
-8.10452
  0
LINE
  8
0
 10
0.994507
 20
-8.10452
 11
0.95105
 21
-8.30901
  0
LINE
  8
0
 10
0.95105
 20
-8.30901
 11
0.866013
 21
-8.5
  0
LINE
  8
0
 10
0.866013
 20
-8.5
 11
0.743134
 21
-8.66913
  0
LINE
  8
0
 10
0.743134
 20
-8.66913
 11
0.646469
 21
-8.75616
  0
LINE
  8
0
 10
0.646469
 20
-8.75616
 11
0.866013
 21
-9
  0
LINE
  8
0
 10
0.866013
 20
-9
 11
0.994507
 21
-9.39546
  0
LINE
  8
0
 10
0.994507
 20
-9.39546
 11
0.988953
 21
-9.44829
  0
LINE
  8
0
 10
-0.313583
 20
-2.98355
 11
-0.927048
 21
-2.85316
  0
LINE
  8
0
 10
-0.927048
 20
-2.85316
 11
-1.5
 21
-2.59807
  0
LINE
  8
0
 10
-1.5
 20
-2.59807
 11
-2.00739
 21
-2.22943
  0
LINE
  8
0
 10
-2.00739
 20
-2.22943
 11
-2.42705
 21
-1.76335
  0
LINE
  8
0
 10
-2.42705
 20
-1.76335
 11
-2.74063
 21
-1.2202
  0
LINE
  8
0
 10
-2.74063
 20
-1.2202
 11
-2.93443
 21
-0.623734
  0
LINE
  8
0
 10
-2.93443
 20
-0.623734
 11
-3
 21
0
  0
LINE
  8
0
 10
-3
 20
0
 11
-2.93443
 21
0.623734
  0
LINE
  8
0
 10
-2.93443
 20
0.623734
 11
-2.74063
 21
1.2202
  0
LINE
  8
0
 10
-2.74063
 20
1.2202
 11
-2.42705
 21
1.76335
  0
LINE
  8
0
 10
-2.42705
 20
1.76335
 11
-2.00739
 21
2.22943
  0
LINE
  8
0
 10
-2.00739
 20
2.22943
 11
-1.49998
 21
2.59807
  0
LINE
  8
0
 10
-1.49998
 20
2.59807
 11
-0.927048
 21
2.85316
  0
LINE
  8
0
 10
-0.927048
 20
2.85316
 11
-0.313583
 21
2.98355
  0
LINE
  8
0
 10
-0.313583
 20
2.98355
 11
0.313583
 21
2.98355
  0
LINE
  8
0
 10
0.313583
 20
2.98355
 11
0.927048
 21
2.85316
  0
LINE
  8
0
 10
0.927048
 20
2.85316
 11
1.5
 21
2.59807
  0
LINE
  8
0
 10
1.5
 20
2.59807
 11
2.00739
 21
2.22943
  0
LINE
  8
0
 10
2.00739
 20
2.22943
 11
2.42705
 21
1.76335
  0
LINE
  8
0
 10
2.42705
 20
1.76335
 11
2.74063
 21
1.2202
  0
LINE
  8
0
 10
2.74063
 20
1.2202
 11
2.93443
 21
0.623734
  0
LINE
  8
0
 10
2.93443
 20
0.623734
 11
3
 21
0
  0
LINE
  8
0
 10
3
 20
0
 11
2.93443
 21
-0.623734
  0
LINE
  8
0
 10
2.93443
 20
-0.623734
 11
2.74063
 21
-1.2202
  0
LINE
  8
0
 10
2.74063
 20
-1.2202
 11
2.42705
 21
-1.76335
  0
LINE
  8
0
 10
2.42705
 20
-1.76335
 11
2.00739
 21
-2.22943
  0
LINE
  8
0
 10
2.00739
 20
-2.22943
 11
1.5
 21
-2.59807
  0
LINE
  8
0
 10
1.5
 20
-2.59807
 11
0.927048
 21
-2.85316
  0
LINE
  8
0
 10
0.927048
 20
-2.85316
 11
0.313583
 21
-2.98355
  0
LINE
  8
0
 10
0.313583
 20
-2.98355
 11
-0.313583
 21
-2.98355
  0
ENDSEC
  0
SECTION
  2
OBJECTS
  0
DICTIONARY
  0
ENDSEC
  0
EOF
