  0
SECTION
  2
BLOCKS
  0
ENDSEC
  0
SECTION
  2
ENTITIES
  0
LINE
  8
0
 10
2.12564
 20
-17.9699
 11
2.7487
 21
-17.996
  0
LINE
  8
0
 10
2.7487
 20
-17.996
 11
3.50262
 21
-17.996
  0
LINE
  8
0
 10
3.50262
 20
-17.996
 11
4.25589
 21
-17.9645
  0
LINE
  8
0
 10
4.25589
 20
-17.9645
 11
5.00717
 21
-17.9014
  0
LINE
  8
0
 10
5.00717
 20
-17.9014
 11
5.75516
 21
-17.8069
  0
LINE
  8
0
 10
5.75516
 20
-17.8069
 11
6.49852
 21
-17.6812
  0
LINE
  8
0
 10
6.49852
 20
-17.6812
 11
7.23598
 21
-17.5244
  0
LINE
  8
0
 10
7.23598
 20
-17.5244
 11
7.96622
 21
-17.3369
  0
LINE
  8
0
 10
7.96622
 20
-17.3369
 11
8.68797
 21
-17.119
  0
LINE
  8
0
 10
8.68797
 20
-17.119
 11
9.39996
 21
-16.8711
  0
LINE
  8
0
 10
9.39996
 20
-16.8711
 11
10.1009
 21
-16.5935
  0
LINE
  8
0
 10
10.1009
 20
-16.5935
 11
10.7897
 21
-16.2869
  0
LINE
  8
0
 10
10.7897
 20
-16.2869
 11
11.465
 21
-15.9517
  0
LINE
  8
0
 10
11.465
 20
-15.9517
 11
12.1257
 21
-15.5885
  0
LINE
  8
0
 10
12.1257
 20
-15.5885
 11
12.7705
 21
-15.1979
  0
LINE
  8
0
 10
12.7705
 20
-15.1979
 11
13.3985
 21
-14.7807
  0
LINE
  8
0
 10
13.3985
 20
-14.7807
 11
14.0084
 21
-14.3375
  0
LINE
  8
0
 10
14.0084
 20
-14.3375
 11
14.5993
 21
-13.8692
  0
LINE
  8
0
 10
14.5993
 20
-13.8692
 11
15.17
 21
-13.3766
  0
LINE
  8
0
 10
15.17
 20
-13.3766
 11
15.7196
 21
-12.8605
  0
LINE
  8
0
 10
15.7196
 20
-12.8605
 11
16.2471
 21
-12.3218
  0
LINE
  8
0
 10
16.2471
 20
-12.3218
 11
16.7516
 21
-11.7616
  0
LINE
  8
0
 10
16.7516
 20
-11.7616
 11
17.2321
 21
-11.1806
  0
LINE
  8
0
 10
17.2321
 20
-11.1806
 11
17.688
 21
-10.5801
  0
LINE
  8
0
 10
17.688
 20
-10.5801
 11
18.1182
 21
-9.96104
  0
LINE
  8
0
 10
18.1182
 20
-9.96104
 11
18.5222
 21
-9.32448
  0
LINE
  8
0
 10
18.5222
 20
-9.32448
 11
18.8992
 21
-8.67155
  0
LINE
  8
0
 10
18.8992
 20
-8.67155
 11
19.2485
 21
-8.00342
  0
LINE
  8
0
 10
19.2485
 20
-8.00342
 11
19.5695
 21
-7.32126
  0
LINE
  8
0
 10
19.5695
 20
-7.32126
 11
19.8616
 21
-6.62624
  0
LINE
  8
0
 10
19.8616
 20
-6.62624
 11
20.0364
 21
-6.15636
  0
LINE
  8
0
 10
20.0364
 20
-6.15636
 11
20.0401
 21
-6.15636
  0
LINE
  8
0
 10
20.0401
 20
-6.15636
 11
20.1159
 21
-5.96112
  0
LINE
  8
0
 10
20.1159
 20
-5.96112
 11
20.1997
 21
-5.76921
  0
LINE
  8
0
 10
20.1997
 20
-5.76921
 11
20.2915
 21
-5.58096
  0
LINE
  8
0
 10
20.2915
 20
-5.58096
 11
20.3911
 21
-5.39676
  0
LINE
  8
0
 10
20.3911
 20
-5.39676
 11
20.4984
 21
-5.21687
  0
LINE
  8
0
 10
20.4984
 20
-5.21687
 11
20.613
 21
-5.04163
  0
LINE
  8
0
 10
20.613
 20
-5.04163
 11
20.7349
 21
-4.87135
  0
LINE
  8
0
 10
20.7349
 20
-4.87135
 11
20.8639
 21
-4.70631
  0
LINE
  8
0
 10
20.8639
 20
-4.70631
 11
20.9996
 21
-4.54683
  0
LINE
  8
0
 10
20.9996
 20
-4.54683
 11
21.1419
 21
-4.39317
  0
LINE
  8
0
 10
21.1419
 20
-4.39317
 11
21.2905
 21
-4.24561
  0
LINE
  8
0
 10
21.2905
 20
-4.24561
 11
21.4451
 21
-4.10439
  0
LINE
  8
0
 10
21.4451
 20
-4.10439
 11
21.6056
 21
-3.96977
  0
LINE
  8
0
 10
21.6056
 20
-3.96977
 11
21.7715
 21
-3.842
  0
LINE
  8
0
 10
21.7715
 20
-3.842
 11
21.9426
 21
-3.72128
  0
LINE
  8
0
 10
21.9426
 20
-3.72128
 11
22.1187
 21
-3.60783
  0
LINE
  8
0
 10
22.1187
 20
-3.60783
 11
22.2993
 21
-3.50186
  0
LINE
  8
0
 10
22.2993
 20
-3.50186
 11
22.4842
 21
-3.40353
  0
LINE
  8
0
 10
22.4842
 20
-3.40353
 11
22.6731
 21
-3.31305
  0
LINE
  8
0
 10
22.6731
 20
-3.31305
 11
22.8656
 21
-3.23055
  0
LINE
  8
0
 10
22.8656
 20
-3.23055
 11
23.0613
 21
-3.15617
  0
LINE
  8
0
 10
23.0613
 20
-3.15617
 11
23.26
 21
-3.09007
  0
LINE
  8
0
 10
23.26
 20
-3.09007
 11
23.4614
 21
-3.03235
  0
LINE
  8
0
 10
23.4614
 20
-3.03235
 11
23.6649
 21
-2.98311
  0
LINE
  8
0
 10
23.6649
 20
-2.98311
 11
23.8703
 21
-2.94241
  0
LINE
  8
0
 10
23.8703
 20
-2.94241
 11
24.0773
 21
-2.91039
  0
LINE
  8
0
 10
24.0773
 20
-2.91039
 11
24.2854
 21
-2.88704
  0
LINE
  8
0
 10
24.2854
 20
-2.88704
 11
24.4943
 21
-2.87242
  0
LINE
  8
0
 10
24.4943
 20
-2.87242
 11
24.7037
 21
-2.86659
  0
LINE
  8
0
 10
24.7037
 20
-2.86659
 11
34.2398
 21
-2.86674
  0
LINE
  8
0
 10
34.2398
 20
-2.86674
 11
34.2398
 21
13.8333
  0
LINE
  8
0
 10
34.2398
 20
13.8333
 11
31.198
 21
13.8333
  0
LINE
  8
0
 10
31.198
 20
13.8333
 11
31.198
 21
27.6667
  0
LINE
  8
0
 10
31.198
 20
27.6667
 11
34.2398
 21
27.6667
  0
LINE
  8
0
 10
34.2398
 20
27.6667
 11
34.2398
 21
36.5
  0
LINE
  8
0
 10
34.2398
 20
36.5
 11
30.2399
 21
36.5
  0
LINE
  8
0
 10
30.2399
 20
36.5
 11
30.2399
 21
36.5931
  0
LINE
  8
0
 10
30.2399
 20
36.5931
 11
30.0562
 21
36.6321
  0
LINE
  8
0
 10
30.0562
 20
36.6321
 11
29.8534
 21
36.6842
  0
LINE
  8
0
 10
29.8534
 20
36.6842
 11
29.6529
 21
36.7447
  0
LINE
  8
0
 10
29.6529
 20
36.7447
 11
29.4551
 21
36.8136
  0
LINE
  8
0
 10
29.4551
 20
36.8136
 11
29.2604
 21
36.8907
  0
LINE
  8
0
 10
29.2604
 20
36.8907
 11
29.0691
 21
36.9759
  0
LINE
  8
0
 10
29.0691
 20
36.9759
 11
28.8815
 21
37.069
  0
LINE
  8
0
 10
28.8815
 20
37.069
 11
28.698
 21
37.1699
  0
LINE
  8
0
 10
28.698
 20
37.1699
 11
28.5188
 21
37.2784
  0
LINE
  8
0
 10
28.5188
 20
37.2784
 11
28.3444
 21
37.3942
  0
LINE
  8
0
 10
28.3444
 20
37.3942
 11
28.175
 21
37.5173
  0
LINE
  8
0
 10
28.175
 20
37.5173
 11
28.0108
 21
37.6474
  0
LINE
  8
0
 10
28.0108
 20
37.6474
 11
27.8523
 21
37.7843
  0
LINE
  8
0
 10
27.8523
 20
37.7843
 11
27.6996
 21
37.9276
  0
LINE
  8
0
 10
27.6996
 20
37.9276
 11
27.5531
 21
38.0773
  0
LINE
  8
0
 10
27.5531
 20
38.0773
 11
27.413
 21
38.2329
  0
LINE
  8
0
 10
27.413
 20
38.2329
 11
27.2795
 21
38.3943
  0
LINE
  8
0
 10
27.2795
 20
38.3943
 11
27.1529
 21
38.5611
  0
LINE
  8
0
 10
27.1529
 20
38.5611
 11
27.0334
 21
38.733
  0
LINE
  8
0
 10
27.0334
 20
38.733
 11
26.9211
 21
38.9099
  0
LINE
  8
0
 10
26.9211
 20
38.9099
 11
26.8164
 21
39.0912
  0
LINE
  8
0
 10
26.8164
 20
39.0912
 11
26.7194
 21
39.2768
  0
LINE
  8
0
 10
26.7194
 20
39.2768
 11
26.6302
 21
39.4663
  0
LINE
  8
0
 10
26.6302
 20
39.4663
 11
26.5491
 21
39.6594
  0
LINE
  8
0
 10
26.5491
 20
39.6594
 11
26.4761
 21
39.8557
  0
LINE
  8
0
 10
26.4761
 20
39.8557
 11
26.4114
 21
40.0548
  0
LINE
  8
0
 10
26.4114
 20
40.0548
 11
26.355
 21
40.2565
  0
LINE
  8
0
 10
26.355
 20
40.2565
 11
26.3072
 21
40.4604
  0
LINE
  8
0
 10
26.3072
 20
40.4604
 11
26.268
 21
40.6662
  0
LINE
  8
0
 10
26.268
 20
40.6662
 11
26.2374
 21
40.8733
  0
LINE
  8
0
 10
26.2374
 20
40.8733
 11
26.2155
 21
41.0816
  0
LINE
  8
0
 10
26.2155
 20
41.0816
 11
26.2081
 21
41.2
  0
LINE
  8
0
 10
26.2081
 20
41.2
 11
7.98741
 21
41.2
  0
LINE
  8
0
 10
7.98741
 20
41.2
 11
7.98741
 21
43.9
  0
LINE
  8
0
 10
7.98741
 20
43.9
 11
-1.73608
 21
43.9
  0
LINE
  8
0
 10
-1.73608
 20
43.9
 11
-1.73608
 21
41.2
  0
LINE
  8
0
 10
-1.73608
 20
41.2
 11
-9.06563
 21
41.2
  0
LINE
  8
0
 10
-9.06563
 20
41.2
 11
-9.06812
 21
41.0812
  0
LINE
  8
0
 10
-9.06812
 20
41.0812
 11
-9.09442
 21
40.6632
  0
LINE
  8
0
 10
-9.09442
 20
40.6632
 11
-9.1382
 21
40.2467
  0
LINE
  8
0
 10
-9.1382
 20
40.2467
 11
-9.19939
 21
39.8323
  0
LINE
  8
0
 10
-9.19939
 20
39.8323
 11
-9.27788
 21
39.4209
  0
LINE
  8
0
 10
-9.27788
 20
39.4209
 11
-9.37352
 21
39.0131
  0
LINE
  8
0
 10
-9.37352
 20
39.0131
 11
-9.48616
 21
38.6097
  0
LINE
  8
0
 10
-9.48616
 20
38.6097
 11
-9.61559
 21
38.2113
  0
LINE
  8
0
 10
-9.61559
 20
38.2113
 11
-9.76158
 21
37.8187
  0
LINE
  8
0
 10
-9.76158
 20
37.8187
 11
-9.92389
 21
37.4326
  0
LINE
  8
0
 10
-9.92389
 20
37.4326
 11
-10.1022
 21
37.0536
  0
LINE
  8
0
 10
-10.1022
 20
37.0536
 11
-10.2963
 21
36.6824
  0
LINE
  8
0
 10
-10.2963
 20
36.6824
 11
-10.5057
 21
36.3197
  0
LINE
  8
0
 10
-10.5057
 20
36.3197
 11
-10.7301
 21
35.9661
  0
LINE
  8
0
 10
-10.7301
 20
35.9661
 11
-10.9692
 21
35.6221
  0
LINE
  8
0
 10
-10.9692
 20
35.6221
 11
-11.2224
 21
35.2885
  0
LINE
  8
0
 10
-11.2224
 20
35.2885
 11
-11.4894
 21
34.9658
  0
LINE
  8
0
 10
-11.4894
 20
34.9658
 11
-11.7697
 21
34.6545
  0
LINE
  8
0
 10
-11.7697
 20
34.6545
 11
-12.0627
 21
34.3553
  0
LINE
  8
0
 10
-12.0627
 20
34.3553
 11
-12.368
 21
34.0685
  0
LINE
  8
0
 10
-12.368
 20
34.0685
 11
-12.6851
 21
33.7949
  0
LINE
  8
0
 10
-12.6851
 20
33.7949
 11
-13.0134
 21
33.5347
  0
LINE
  8
0
 10
-13.0134
 20
33.5347
 11
-13.3522
 21
33.2885
  0
LINE
  8
0
 10
-13.3522
 20
33.2885
 11
-13.7011
 21
33.0567
  0
LINE
  8
0
 10
-13.7011
 20
33.0567
 11
-14.0593
 21
32.8397
  0
LINE
  8
0
 10
-14.0593
 20
32.8397
 11
-14.4264
 21
32.638
  0
LINE
  8
0
 10
-14.4264
 20
32.638
 11
-14.8016
 21
32.4517
  0
LINE
  8
0
 10
-14.8016
 20
32.4517
 11
-15.1842
 21
32.2814
  0
LINE
  8
0
 10
-15.1842
 20
32.2814
 11
-15.5736
 21
32.1272
  0
LINE
  8
0
 10
-15.5736
 20
32.1272
 11
-15.9692
 21
31.9894
  0
LINE
  8
0
 10
-15.9692
 20
31.9894
 11
-16.3701
 21
31.8684
  0
LINE
  8
0
 10
-16.3701
 20
31.8684
 11
-16.7758
 21
31.7642
  0
LINE
  8
0
 10
-16.7758
 20
31.7642
 11
-17.1855
 21
31.6771
  0
LINE
  8
0
 10
-17.1855
 20
31.6771
 11
-17.5985
 21
31.6073
  0
LINE
  8
0
 10
-17.5985
 20
31.6073
 11
-18.0141
 21
31.5548
  0
LINE
  8
0
 10
-18.0141
 20
31.5548
 11
-18.4314
 21
31.5197
  0
LINE
  8
0
 10
-18.4314
 20
31.5197
 11
-18.8499
 21
31.5022
  0
LINE
  8
0
 10
-18.8499
 20
31.5022
 11
-19.0593
 21
31.5022
  0
LINE
  8
0
 10
-19.0593
 20
31.5022
 11
-19.0593
 21
31.5
  0
LINE
  8
0
 10
-19.0593
 20
31.5
 11
-22.1012
 21
31.5
  0
LINE
  8
0
 10
-22.1012
 20
31.5
 11
-22.1012
 21
18.6667
  0
LINE
  8
0
 10
-22.1012
 20
18.6667
 11
-19.0594
 21
18.6667
  0
LINE
  8
0
 10
-19.0594
 20
18.6667
 11
-19.0594
 21
4.83333
  0
LINE
  8
0
 10
-19.0594
 20
4.83333
 11
-22.1012
 21
4.83333
  0
LINE
  8
0
 10
-22.1012
 20
4.83333
 11
-22.1012
 21
-18
  0
LINE
  8
0
 10
-22.1012
 20
-18
 11
2.12564
 21
-18
  0
LINE
  8
0
 10
2.12564
 20
-18
 11
2.12564
 21
-17.9699
  0
LINE
  8
0
 10
-16.0594
 20
23.5
 11
-16.0594
 21
27.5
  0
LINE
  8
0
 10
-16.0594
 20
27.5
 11
-14.0594
 21
27.5
  0
LINE
  8
0
 10
-14.0594
 20
27.5
 11
-14.0594
 21
23.5
  0
LINE
  8
0
 10
-14.0594
 20
23.5
 11
-16.0594
 21
23.5
  0
LINE
  8
0
 10
26.198
 20
18.6667
 11
26.198
 21
22.6667
  0
LINE
  8
0
 10
26.198
 20
22.6667
 11
28.198
 21
22.6667
  0
LINE
  8
0
 10
28.198
 20
22.6667
 11
28.198
 21
18.6667
  0
LINE
  8
0
 10
28.198
 20
18.6667
 11
26.198
 21
18.6667
  0
LINE
  8
0
 10
2.81731
 20
-2.93384
 11
2.21407
 21
-2.8056
  0
LINE
  8
0
 10
2.21407
 20
-2.8056
 11
1.65067
 21
-2.55476
  0
LINE
  8
0
 10
1.65067
 20
-2.55476
 11
1.15172
 21
-2.19228
  0
LINE
  8
0
 10
1.15172
 20
-2.19228
 11
0.739059
 21
-1.73396
  0
LINE
  8
0
 10
0.739059
 20
-1.73396
 11
0.430695
 21
-1.19986
  0
LINE
  8
0
 10
0.430695
 20
-1.19986
 11
0.240128
 21
-0.613327
  0
LINE
  8
0
 10
0.240128
 20
-0.613327
 11
0.175659
 21
0
  0
LINE
  8
0
 10
0.175659
 20
0
 11
0.240128
 21
0.613327
  0
LINE
  8
0
 10
0.240128
 20
0.613327
 11
0.430695
 21
1.19986
  0
LINE
  8
0
 10
0.430695
 20
1.19986
 11
0.739059
 21
1.73396
  0
LINE
  8
0
 10
0.739059
 20
1.73396
 11
1.15172
 21
2.19228
  0
LINE
  8
0
 10
1.15172
 20
2.19228
 11
1.65067
 21
2.55476
  0
LINE
  8
0
 10
1.65067
 20
2.55476
 11
2.21407
 21
2.8056
  0
LINE
  8
0
 10
2.21407
 20
2.8056
 11
2.81731
 21
2.93384
  0
LINE
  8
0
 10
2.81731
 20
2.93384
 11
3.43402
 21
2.93384
  0
LINE
  8
0
 10
3.43402
 20
2.93384
 11
4.03726
 21
2.8056
  0
LINE
  8
0
 10
4.03726
 20
2.8056
 11
4.60066
 21
2.55476
  0
LINE
  8
0
 10
4.60066
 20
2.55476
 11
5.09959
 21
2.19228
  0
LINE
  8
0
 10
5.09959
 20
2.19228
 11
5.51225
 21
1.73396
  0
LINE
  8
0
 10
5.51225
 20
1.73396
 11
5.82062
 21
1.19986
  0
LINE
  8
0
 10
5.82062
 20
1.19986
 11
6.0112
 21
0.613327
  0
LINE
  8
0
 10
6.0112
 20
0.613327
 11
6.07565
 21
0
  0
LINE
  8
0
 10
6.07565
 20
0
 11
6.0112
 21
-0.613327
  0
LINE
  8
0
 10
6.0112
 20
-0.613327
 11
5.82062
 21
-1.19986
  0
LINE
  8
0
 10
5.82062
 20
-1.19986
 11
5.51225
 21
-1.73396
  0
LINE
  8
0
 10
5.51225
 20
-1.73396
 11
5.09959
 21
-2.19228
  0
LINE
  8
0
 10
5.09959
 20
-2.19228
 11
4.60066
 21
-2.55476
  0
LINE
  8
0
 10
4.60066
 20
-2.55476
 11
4.03726
 21
-2.8056
  0
LINE
  8
0
 10
4.03726
 20
-2.8056
 11
3.43402
 21
-2.93384
  0
LINE
  8
0
 10
3.43402
 20
-2.93384
 11
2.81731
 21
-2.93384
  0
LINE
  8
0
 10
-16.0593
 20
-11
 11
-16.0593
 21
-7
  0
LINE
  8
0
 10
-16.0593
 20
-7
 11
-14.0593
 21
-7
  0
LINE
  8
0
 10
-14.0593
 20
-7
 11
-14.0593
 21
-11
  0
LINE
  8
0
 10
-14.0593
 20
-11
 11
-16.0593
 21
-11
  0
ENDSEC
  0
SECTION
  2
OBJECTS
  0
DICTIONARY
  0
ENDSEC
  0
EOF
