  0
SECTION
  2
HEADER
  9
$ACADVER
  1
AC1014
  9
$HANDSEED
  5
FFFF
  9
$MEASUREMENT
 70
     1
  0
ENDSEC
  0
SECTION
  2
TABLES
  0
TABLE
  2
VPORT
  5
8
330
0
100
AcDbSymbolTable
 70
     4
  0
VPORT
  5
2E
330
8
100
AcDbSymbolTableRecord
100
AcDbViewportTableRecord
  2
*ACTIVE
 70
     0
 10
0.0
 20
0.0
 11
1.0
 21
1.0
 12
210.0
 22
148.5
 13
0.0
 23
0.0
 14
10.0
 24
10.0
 15
10.0
 25
10.0
 16
0.0
 26
0.0
 36
1.0
 17
0.0
 27
0.0
 37
0.0
 40
341.0
 41
1.24
 42
50.0
 43
0.0
 44
0.0
 50
0.0
 51
0.0
 71
     0
 72
   100
 73
     1
 74
     3
 75
     0
 76
     0
 77
     0
 78
     0
  0
ENDTAB
  0
TABLE
  2
LTYPE
  5
5
330
0
100
AcDbSymbolTable
 70
     1
  0
LTYPE
  5
14
330
5
100
AcDbSymbolTableRecord
100
AcDbLinetypeTableRecord
  2
BYBLOCK
 70
     0
  3

 72
    65
 73
     0
 40
0.0
  0
LTYPE
  5
15
330
5
100
AcDbSymbolTableRecord
100
AcDbLinetypeTableRecord
  2
BYLAYER
 70
     0
  3

 72
    65
 73
     0
 40
0.0
  0
LTYPE
  5
16
330
5
100
AcDbSymbolTableRecord
100
AcDbLinetypeTableRecord
  2
CONTINUOUS
 70
     0
  3
Solid line
 72
    65
 73
     0
 40
0.0
  0
ENDTAB
  0
TABLE
  2
LAYER
  5
2
100
AcDbSymbolTable
 70
1
  0
LAYER
  5
50
100
AcDbSymbolTableRecord
100
AcDbLayerTableRecord
  2
0
 70
0
  6
CONTINUOUS
  0
ENDTAB
  0
TABLE
  2
STYLE
  5
3
330
0
100
AcDbSymbolTable
 70
     1
  0
STYLE
  5
11
330
3
100
AcDbSymbolTableRecord
100
AcDbTextStyleTableRecord
  2
STANDARD
 70
     0
 40
0.0
 41
1.0
 50
0.0
 71
     0
 42
2.5
  3
txt
  4

  0
ENDTAB
  0
TABLE
  2
VIEW
  5
6
330
0
100
AcDbSymbolTable
 70
     0
  0
ENDTAB
  0
TABLE
  2
UCS
  5
7
330
0
100
AcDbSymbolTable
 70
     0
  0
ENDTAB
  0
TABLE
  2
APPID
  5
9
330
0
100
AcDbSymbolTable
 70
     2
  0
APPID
  5
12
330
9
100
AcDbSymbolTableRecord
100
AcDbRegAppTableRecord
  2
ACAD
 70
     0
  0
ENDTAB
  0
TABLE
  2
DIMSTYLE
  5
A
330
0
100
AcDbSymbolTable
 70
     1
  0
DIMSTYLE
105
27
330
A
100
AcDbSymbolTableRecord
100
AcDbDimStyleTableRecord
  2
ISO-25
 70
     0
  3

  4

  5

  6

  7

 40
1.0
 41
2.5
 42
0.625
 43
3.75
 44
1.25
 45
0.0
 46
0.0
 47
0.0
 48
0.0
140
2.5
141
2.5
142
0.0
143
0.03937007874016
144
1.0
145
0.0
146
1.0
147
0.625
 71
     0
 72
     0
 73
     0
 74
     0
 75
     0
 76
     0
 77
     1
 78
     8
170
     0
171
     3
172
     1
173
     0
174
     0
175
     0
176
     0
177
     0
178
     0
270
     2
271
     2
272
     2
273
     2
274
     3
340
11
275
     0
280
     0
281
     0
282
     0
283
     0
284
     8
285
     0
286
     0
287
     3
288
     0
  0
ENDTAB
  0
TABLE
  2
BLOCK_RECORD
  5
1
330
0
100
AcDbSymbolTable
 70
     1
  0
BLOCK_RECORD
  5
1F
330
1
100
AcDbSymbolTableRecord
100
AcDbBlockTableRecord
  2
*MODEL_SPACE
  0
BLOCK_RECORD
  5
1B
330
1
100
AcDbSymbolTableRecord
100
AcDbBlockTableRecord
  2
*PAPER_SPACE
  0
ENDTAB
  0
ENDSEC
  0
SECTION
  2
BLOCKS
  0
BLOCK
  5
20
330
1F
100
AcDbEntity
  8
0
100
AcDbBlockBegin
  2
*MODEL_SPACE
 70
     0
 10
0.0
 20
0.0
 30
0.0
  3
*MODEL_SPACE
  1

  0
ENDBLK
  5
21
330
1F
100
AcDbEntity
  8
0
100
AcDbBlockEnd
  0
BLOCK
  5
1C
330
1B
100
AcDbEntity
 67
     1
  8
0
100
AcDbBlockBegin
  2
*PAPER_SPACE
  1

  0
ENDBLK
  5
1D
330
1B
100
AcDbEntity
 67
     1
  8
0
100
AcDbBlockEnd
  0
ENDSEC
  0
SECTION
  2
ENTITIES
  0
LWPOLYLINE
  5
100
100
AcDbEntity
  8
0
 62
7
100
AcDbPolyline
 90
154
 70
1
 10
-10.505700
 20
36.319701
 30
0.0
 10
-10.730100
 20
35.966099
 30
0.0
 10
-10.969200
 20
35.622102
 30
0.0
 10
-11.222400
 20
35.288501
 30
0.0
 10
-11.489400
 20
34.965799
 30
0.0
 10
-11.769700
 20
34.654500
 30
0.0
 10
-12.062700
 20
34.355299
 30
0.0
 10
-12.368000
 20
34.068499
 30
0.0
 10
-12.685100
 20
33.794899
 30
0.0
 10
-13.013400
 20
33.534701
 30
0.0
 10
-13.352200
 20
33.288499
 30
0.0
 10
-13.701100
 20
33.056702
 30
0.0
 10
-14.059300
 20
32.839701
 30
0.0
 10
-14.426400
 20
32.637999
 30
0.0
 10
-14.801600
 20
32.451699
 30
0.0
 10
-15.184200
 20
32.281400
 30
0.0
 10
-15.573600
 20
32.127200
 30
0.0
 10
-15.969200
 20
31.989399
 30
0.0
 10
-16.370100
 20
31.868399
 30
0.0
 10
-16.775800
 20
31.764200
 30
0.0
 10
-17.185500
 20
31.677101
 30
0.0
 10
-17.598500
 20
31.607298
 30
0.0
 10
-18.014100
 20
31.554800
 30
0.0
 10
-18.431400
 20
31.519700
 30
0.0
 10
-18.849900
 20
31.502202
 30
0.0
 10
-19.059300
 20
31.502202
 30
0.0
 10
-19.059300
 20
31.499944
 30
0.0
 10
-22.101200
 20
31.499944
 30
0.0
 10
-22.101200
 20
18.666645
 30
0.0
 10
-19.059400
 20
18.666645
 30
0.0
 10
-19.059400
 20
4.833283
 30
0.0
 10
-22.101200
 20
4.833283
 30
0.0
 10
-22.101200
 20
-18.000047
 30
0.0
 10
2.125640
 20
-18.000047
 30
0.0
 10
2.125640
 20
-17.969962
 30
0.0
 10
2.748700
 20
-17.995927
 30
0.0
 10
3.502620
 20
-17.995927
 30
0.0
 10
4.255890
 20
-17.964403
 30
0.0
 10
5.007170
 20
-17.901326
 30
0.0
 10
5.755160
 20
-17.806810
 30
0.0
 10
6.498520
 20
-17.681108
 30
0.0
 10
7.235980
 20
-17.524305
 30
0.0
 10
7.966220
 20
-17.336825
 30
0.0
 10
8.687970
 20
-17.118921
 30
0.0
 10
9.399960
 20
-16.871017
 30
0.0
 10
10.100900
 20
-16.593424
 30
0.0
 10
10.789700
 20
-16.286817
 30
0.0
 10
11.465000
 20
-15.951622
 30
0.0
 10
12.125700
 20
-15.588402
 30
0.0
 10
12.770500
 20
-15.197806
 30
0.0
 10
13.398500
 20
-14.780626
 30
0.0
 10
14.008400
 20
-14.337424
 30
0.0
 10
14.599300
 20
-13.869104
 30
0.0
 10
15.170000
 20
-13.376514
 30
0.0
 10
15.719600
 20
-12.860414
 30
0.0
 10
16.247100
 20
-12.321708
 30
0.0
 10
16.751600
 20
-11.761525
 30
0.0
 10
17.232100
 20
-11.180514
 30
0.0
 10
17.688000
 20
-10.580002
 30
0.0
 10
18.118200
 20
-9.960947
 30
0.0
 10
18.522200
 20
-9.324395
 30
0.0
 10
18.899200
 20
-8.671474
 30
0.0
 10
19.248500
 20
-8.003341
 30
0.0
 10
19.569500
 20
-7.321182
 30
0.0
 10
19.861600
 20
-6.626153
 30
0.0
 10
20.036400
 20
-6.156281
 30
0.0
 10
20.040100
 20
-6.156281
 30
0.0
 10
20.115900
 20
-5.961040
 30
0.0
 10
20.199700
 20
-5.769129
 30
0.0
 10
20.291500
 20
-5.580887
 30
0.0
 10
20.391100
 20
-5.396680
 30
0.0
 10
20.498400
 20
-5.216792
 30
0.0
 10
20.613000
 20
-5.041532
 30
0.0
 10
20.734900
 20
-4.871267
 30
0.0
 10
20.863900
 20
-4.706224
 30
0.0
 10
20.999600
 20
-4.546740
 30
0.0
 10
21.141900
 20
-4.393098
 30
0.0
 10
21.290500
 20
-4.245524
 30
0.0
 10
21.445100
 20
-4.104300
 30
0.0
 10
21.605600
 20
-3.969680
 30
0.0
 10
21.771500
 20
-3.841918
 30
0.0
 10
21.942600
 20
-3.721183
 30
0.0
 10
22.118700
 20
-3.607758
 30
0.0
 10
22.299300
 20
-3.501784
 30
0.0
 10
22.484200
 20
-3.403458
 30
0.0
 10
22.673100
 20
-3.312977
 30
0.0
 10
22.865600
 20
-3.230455
 30
0.0
 10
23.061300
 20
-3.156090
 30
0.0
 10
23.260000
 20
-3.089993
 30
0.0
 10
23.461400
 20
-3.032279
 30
0.0
 10
23.664900
 20
-2.983031
 30
0.0
 10
23.870300
 20
-2.942335
 30
0.0
 10
24.077300
 20
-2.910302
 30
0.0
 10
24.285400
 20
-2.886878
 30
0.0
 10
24.494300
 20
-2.872202
 30
0.0
 10
24.703700
 20
-2.866276
 30
0.0
 10
34.239801
 20
-2.866417
 30
0.0
 10
34.239801
 20
13.833603
 30
0.0
 10
31.197999
 20
13.833603
 30
0.0
 10
31.197999
 20
27.667011
 30
0.0
 10
34.239801
 20
27.667011
 30
0.0
 10
34.239801
 20
36.500309
 30
0.0
 10
30.239899
 20
36.500309
 30
0.0
 10
30.239899
 20
36.593412
 30
0.0
 10
30.056201
 20
36.632409
 30
0.0
 10
29.853399
 20
36.684510
 30
0.0
 10
29.652900
 20
36.745010
 30
0.0
 10
29.455102
 20
36.813912
 30
0.0
 10
29.260399
 20
36.891009
 30
0.0
 10
29.069101
 20
36.976209
 30
0.0
 10
28.881499
 20
37.069312
 30
0.0
 10
28.698001
 20
37.170212
 30
0.0
 10
28.518801
 20
37.278709
 30
0.0
 10
28.344399
 20
37.394511
 30
0.0
 10
28.175000
 20
37.517610
 30
0.0
 10
28.010800
 20
37.647709
 30
0.0
 10
27.852300
 20
37.784610
 30
0.0
 10
27.699600
 20
37.927911
 30
0.0
 10
27.553100
 20
38.077610
 30
0.0
 10
27.413000
 20
38.233210
 30
0.0
 10
27.279500
 20
38.394610
 30
0.0
 10
27.152900
 20
38.561409
 30
0.0
 10
27.033400
 20
38.733311
 30
0.0
 10
26.921100
 20
38.910211
 30
0.0
 10
26.816400
 20
39.091510
 30
0.0
 10
26.719400
 20
39.277111
 30
0.0
 10
26.630200
 20
39.466612
 30
0.0
 10
26.549100
 20
39.659711
 30
0.0
 10
26.476100
 20
39.856011
 30
0.0
 10
26.411400
 20
40.055110
 30
0.0
 10
26.355000
 20
40.256811
 30
0.0
 10
26.307200
 20
40.460711
 30
0.0
 10
26.268000
 20
40.666510
 30
0.0
 10
26.237400
 20
40.873611
 30
0.0
 10
26.215499
 20
41.081911
 30
0.0
 10
26.208100
 20
41.200311
 30
0.0
 10
7.987410
 20
41.200311
 30
0.0
 10
7.987410
 20
43.900311
 30
0.0
 10
-1.736080
 20
43.900311
 30
0.0
 10
-1.736080
 20
41.200311
 30
0.0
 10
-9.065630
 20
41.200311
 30
0.0
 10
-9.068114
 20
41.081510
 30
0.0
 10
-9.094414
 20
40.663510
 30
0.0
 10
-9.138194
 20
40.247010
 30
0.0
 10
-9.199384
 20
39.832612
 30
0.0
 10
-9.277874
 20
39.421211
 30
0.0
 10
-9.373514
 20
39.013411
 30
0.0
 10
-9.486154
 20
38.610011
 30
0.0
 10
-9.615584
 20
38.211609
 30
0.0
 10
-9.761574
 20
37.819010
 30
0.0
 10
-9.923884
 20
37.432910
 30
0.0
 10
-10.102194
 20
37.053911
 30
0.0
 10
-10.296294
 20
36.682710
 30
0.0
 10
-10.505700
 20
36.319701
 30
0.0
  0
LWPOLYLINE
  5
101
100
AcDbEntity
  8
0
 62
7
100
AcDbPolyline
 90
5
 70
1
 10
-16.059400
 20
23.499999
 30
0.0
 10
-16.059400
 20
27.500000
 30
0.0
 10
-14.059400
 20
27.500000
 30
0.0
 10
-14.059400
 20
23.499999
 30
0.0
 10
-16.059400
 20
23.499999
 30
0.0
  0
LWPOLYLINE
  5
102
100
AcDbEntity
  8
0
 62
7
100
AcDbPolyline
 90
5
 70
1
 10
26.198000
 20
18.666701
 30
0.0
 10
26.198000
 20
22.666699
 30
0.0
 10
28.198000
 20
22.666699
 30
0.0
 10
28.198000
 20
18.666701
 30
0.0
 10
26.198000
 20
18.666701
 30
0.0
  0
LWPOLYLINE
  5
103
100
AcDbEntity
  8
0
 62
7
100
AcDbPolyline
 90
31
 70
1
 10
0.739059
 20
-1.733972
 30
0.0
 10
0.430695
 20
-1.199866
 30
0.0
 10
0.240128
 20
-0.613324
 30
0.0
 10
0.175659
 20
0.000001
 30
0.0
 10
0.240128
 20
0.613327
 30
0.0
 10
0.430695
 20
1.199869
 30
0.0
 10
0.739059
 20
1.733946
 30
0.0
 10
1.151720
 20
2.192275
 30
0.0
 10
1.650670
 20
2.554762
 30
0.0
 10
2.214070
 20
2.805601
 30
0.0
 10
2.817310
 20
2.933842
 30
0.0
 10
3.434020
 20
2.933842
 30
0.0
 10
4.037260
 20
2.805601
 30
0.0
 10
4.600660
 20
2.554762
 30
0.0
 10
5.099590
 20
2.192275
 30
0.0
 10
5.512250
 20
1.733946
 30
0.0
 10
5.820620
 20
1.199869
 30
0.0
 10
6.011200
 20
0.613327
 30
0.0
 10
6.075650
 20
0.000001
 30
0.0
 10
6.011200
 20
-0.613324
 30
0.0
 10
5.820620
 20
-1.199866
 30
0.0
 10
5.512250
 20
-1.733972
 30
0.0
 10
5.099590
 20
-2.192273
 30
0.0
 10
4.600660
 20
-2.554759
 30
0.0
 10
4.037260
 20
-2.805598
 30
0.0
 10
3.434020
 20
-2.933840
 30
0.0
 10
2.817310
 20
-2.933840
 30
0.0
 10
2.214070
 20
-2.805598
 30
0.0
 10
1.650670
 20
-2.554759
 30
0.0
 10
1.151720
 20
-2.192273
 30
0.0
 10
0.739059
 20
-1.733972
 30
0.0
  0
LWPOLYLINE
  5
104
100
AcDbEntity
  8
0
 62
7
100
AcDbPolyline
 90
5
 70
1
 10
-14.059300
 20
-11.000005
 30
0.0
 10
-16.059300
 20
-11.000005
 30
0.0
 10
-16.059300
 20
-7.000013
 30
0.0
 10
-14.059300
 20
-7.000013
 30
0.0
 10
-14.059300
 20
-11.000005
 30
0.0
  0
ENDSEC
  0
SECTION
  2
OBJECTS
  0
DICTIONARY
  5
C
330
0
100
AcDbDictionary
  3
ACAD_GROUP
350
D
  3
ACAD_MLINESTYLE
350
17
  0
DICTIONARY
  5
D
330
C
100
AcDbDictionary
  0
DICTIONARY
  5
1A
330
C
100
AcDbDictionary
  0
DICTIONARY
  5
17
330
C
100
AcDbDictionary
  3
STANDARD
350
18
  0
DICTIONARY
  5
19
330
C
100
AcDbDictionary
  0
ENDSEC
  0
EOF
