  0
SECTION
  2
HEADER
  9
$ACADVER
  1
AC1014
  9
$HANDSEED
  5
FFFF
  9
$MEASUREMENT
 70
     1
  0
ENDSEC
  0
SECTION
  2
TABLES
  0
TABLE
  2
VPORT
  5
8
330
0
100
AcDbSymbolTable
 70
     4
  0
VPORT
  5
2E
330
8
100
AcDbSymbolTableRecord
100
AcDbViewportTableRecord
  2
*ACTIVE
 70
     0
 10
0.0
 20
0.0
 11
1.0
 21
1.0
 12
210.0
 22
148.5
 13
0.0
 23
0.0
 14
10.0
 24
10.0
 15
10.0
 25
10.0
 16
0.0
 26
0.0
 36
1.0
 17
0.0
 27
0.0
 37
0.0
 40
341.0
 41
1.24
 42
50.0
 43
0.0
 44
0.0
 50
0.0
 51
0.0
 71
     0
 72
   100
 73
     1
 74
     3
 75
     0
 76
     0
 77
     0
 78
     0
  0
ENDTAB
  0
TABLE
  2
LTYPE
  5
5
330
0
100
AcDbSymbolTable
 70
     1
  0
LTYPE
  5
14
330
5
100
AcDbSymbolTableRecord
100
AcDbLinetypeTableRecord
  2
BYBLOCK
 70
     0
  3

 72
    65
 73
     0
 40
0.0
  0
LTYPE
  5
15
330
5
100
AcDbSymbolTableRecord
100
AcDbLinetypeTableRecord
  2
BYLAYER
 70
     0
  3

 72
    65
 73
     0
 40
0.0
  0
LTYPE
  5
16
330
5
100
AcDbSymbolTableRecord
100
AcDbLinetypeTableRecord
  2
CONTINUOUS
 70
     0
  3
Solid line
 72
    65
 73
     0
 40
0.0
  0
ENDTAB
  0
TABLE
  2
LAYER
  5
2
100
AcDbSymbolTable
 70
1
  0
LAYER
  5
50
100
AcDbSymbolTableRecord
100
AcDbLayerTableRecord
  2
0
 70
0
  6
CONTINUOUS
  0
ENDTAB
  0
TABLE
  2
STYLE
  5
3
330
0
100
AcDbSymbolTable
 70
     1
  0
STYLE
  5
11
330
3
100
AcDbSymbolTableRecord
100
AcDbTextStyleTableRecord
  2
STANDARD
 70
     0
 40
0.0
 41
1.0
 50
0.0
 71
     0
 42
2.5
  3
txt
  4

  0
ENDTAB
  0
TABLE
  2
VIEW
  5
6
330
0
100
AcDbSymbolTable
 70
     0
  0
ENDTAB
  0
TABLE
  2
UCS
  5
7
330
0
100
AcDbSymbolTable
 70
     0
  0
ENDTAB
  0
TABLE
  2
APPID
  5
9
330
0
100
AcDbSymbolTable
 70
     2
  0
APPID
  5
12
330
9
100
AcDbSymbolTableRecord
100
AcDbRegAppTableRecord
  2
ACAD
 70
     0
  0
ENDTAB
  0
TABLE
  2
DIMSTYLE
  5
A
330
0
100
AcDbSymbolTable
 70
     1
  0
DIMSTYLE
105
27
330
A
100
AcDbSymbolTableRecord
100
AcDbDimStyleTableRecord
  2
ISO-25
 70
     0
  3

  4

  5

  6

  7

 40
1.0
 41
2.5
 42
0.625
 43
3.75
 44
1.25
 45
0.0
 46
0.0
 47
0.0
 48
0.0
140
2.5
141
2.5
142
0.0
143
0.03937007874016
144
1.0
145
0.0
146
1.0
147
0.625
 71
     0
 72
     0
 73
     0
 74
     0
 75
     0
 76
     0
 77
     1
 78
     8
170
     0
171
     3
172
     1
173
     0
174
     0
175
     0
176
     0
177
     0
178
     0
270
     2
271
     2
272
     2
273
     2
274
     3
340
11
275
     0
280
     0
281
     0
282
     0
283
     0
284
     8
285
     0
286
     0
287
     3
288
     0
  0
ENDTAB
  0
TABLE
  2
BLOCK_RECORD
  5
1
330
0
100
AcDbSymbolTable
 70
     1
  0
BLOCK_RECORD
  5
1F
330
1
100
AcDbSymbolTableRecord
100
AcDbBlockTableRecord
  2
*MODEL_SPACE
  0
BLOCK_RECORD
  5
1B
330
1
100
AcDbSymbolTableRecord
100
AcDbBlockTableRecord
  2
*PAPER_SPACE
  0
ENDTAB
  0
ENDSEC
  0
SECTION
  2
BLOCKS
  0
BLOCK
  5
20
330
1F
100
AcDbEntity
  8
0
100
AcDbBlockBegin
  2
*MODEL_SPACE
 70
     0
 10
0.0
 20
0.0
 30
0.0
  3
*MODEL_SPACE
  1

  0
ENDBLK
  5
21
330
1F
100
AcDbEntity
  8
0
100
AcDbBlockEnd
  0
BLOCK
  5
1C
330
1B
100
AcDbEntity
 67
     1
  8
0
100
AcDbBlockBegin
  2
*PAPER_SPACE
  1

  0
ENDBLK
  5
1D
330
1B
100
AcDbEntity
 67
     1
  8
0
100
AcDbBlockEnd
  0
ENDSEC
  0
SECTION
  2
ENTITIES
  0
LWPOLYLINE
  5
100
100
AcDbEntity
  8
0
 62
7
100
AcDbPolyline
 90
154
 70
1
 10
9.644880
 20
-15.197891
 30
0.0
 10
10.272800
 20
-14.780710
 30
0.0
 10
10.882800
 20
-14.337508
 30
0.0
 10
11.473600
 20
-13.869189
 30
0.0
 10
12.044300
 20
-13.376598
 30
0.0
 10
12.593900
 20
-12.860498
 30
0.0
 10
13.121400
 20
-12.321793
 30
0.0
 10
13.625900
 20
-11.761610
 30
0.0
 10
14.106500
 20
-11.180599
 30
0.0
 10
14.562300
 20
-10.580086
 30
0.0
 10
14.992600
 20
-9.961032
 30
0.0
 10
15.396500
 20
-9.324480
 30
0.0
 10
15.773500
 20
-8.671559
 30
0.0
 10
16.122800
 20
-8.003426
 30
0.0
 10
16.443800
 20
-7.321266
 30
0.0
 10
16.736000
 20
-6.626238
 30
0.0
 10
16.910700
 20
-6.156366
 30
0.0
 10
16.914499
 20
-6.156366
 30
0.0
 10
16.990199
 20
-5.961125
 30
0.0
 10
17.074099
 20
-5.769214
 30
0.0
 10
17.165799
 20
-5.580971
 30
0.0
 10
17.265399
 20
-5.396765
 30
0.0
 10
17.372699
 20
-5.216876
 30
0.0
 10
17.487398
 20
-5.041616
 30
0.0
 10
17.609298
 20
-4.871352
 30
0.0
 10
17.738199
 20
-4.706308
 30
0.0
 10
17.873899
 20
-4.546824
 30
0.0
 10
18.016199
 20
-4.393183
 30
0.0
 10
18.164799
 20
-4.245609
 30
0.0
 10
18.319499
 20
-4.104385
 30
0.0
 10
18.479899
 20
-3.969765
 30
0.0
 10
18.645799
 20
-3.842003
 30
0.0
 10
18.816998
 20
-3.721268
 30
0.0
 10
18.992998
 20
-3.607843
 30
0.0
 10
19.173599
 20
-3.501868
 30
0.0
 10
19.358499
 20
-3.403542
 30
0.0
 10
19.547399
 20
-3.313062
 30
0.0
 10
19.739899
 20
-3.230540
 30
0.0
 10
19.935699
 20
-3.156174
 30
0.0
 10
20.134399
 20
-3.090078
 30
0.0
 10
20.335699
 20
-3.032364
 30
0.0
 10
20.539299
 20
-2.983116
 30
0.0
 10
20.744699
 20
-2.942419
 30
0.0
 10
20.951599
 20
-2.910387
 30
0.0
 10
21.159799
 20
-2.886963
 30
0.0
 10
21.368699
 20
-2.872287
 30
0.0
 10
21.577998
 20
-2.866360
 30
0.0
 10
34.239800
 20
-2.866586
 30
0.0
 10
34.239800
 20
13.833519
 30
0.0
 10
31.197997
 20
13.833519
 30
0.0
 10
31.197997
 20
27.666926
 30
0.0
 10
34.239800
 20
27.666926
 30
0.0
 10
34.239800
 20
41.200227
 30
0.0
 10
17.999999
 20
41.200227
 30
0.0
 10
17.999999
 20
86.000227
 30
0.0
 10
17.984200
 20
86.754026
 30
0.0
 10
17.936900
 20
87.506425
 30
0.0
 10
17.858100
 20
88.256227
 30
0.0
 10
17.747900
 20
89.002025
 30
0.0
 10
17.606600
 20
89.742627
 30
0.0
 10
17.434500
 20
90.476627
 30
0.0
 10
17.231800
 20
91.202825
 30
0.0
 10
16.998800
 20
91.919827
 30
0.0
 10
16.736000
 20
92.626427
 30
0.0
 10
16.443800
 20
93.321526
 30
0.0
 10
16.122800
 20
94.003626
 30
0.0
 10
15.773500
 20
94.671827
 30
0.0
 10
15.396500
 20
95.324725
 30
0.0
 10
14.992600
 20
95.961227
 30
0.0
 10
14.562300
 20
96.580326
 30
0.0
 10
14.106500
 20
97.180825
 30
0.0
 10
13.625900
 20
97.761824
 30
0.0
 10
13.121400
 20
98.322027
 30
0.0
 10
12.593900
 20
98.860727
 30
0.0
 10
12.044300
 20
99.376827
 30
0.0
 10
11.473600
 20
99.869426
 30
0.0
 10
10.882800
 20
100.338225
 30
0.0
 10
10.272800
 20
100.781227
 30
0.0
 10
9.644880
 20
101.198227
 30
0.0
 10
8.999980
 20
101.588227
 30
0.0
 10
8.339320
 20
101.952226
 30
0.0
 10
7.664020
 20
102.287227
 30
0.0
 10
6.975270
 20
102.594225
 30
0.0
 10
6.274290
 20
102.871226
 30
0.0
 10
5.562300
 20
103.119226
 30
0.0
 10
4.840550
 20
103.337226
 30
0.0
 10
4.110310
 20
103.524226
 30
0.0
 10
3.372850
 20
103.681227
 30
0.0
 10
2.629490
 20
103.807225
 30
0.0
 10
1.881500
 20
103.901224
 30
0.0
 10
1.130220
 20
103.964225
 30
0.0
 10
0.376953
 20
103.996226
 30
0.0
 10
-0.376953
 20
103.996226
 30
0.0
 10
-1.130220
 20
103.964225
 30
0.0
 10
-1.881500
 20
103.901224
 30
0.0
 10
-2.629490
 20
103.807225
 30
0.0
 10
-3.372850
 20
103.681227
 30
0.0
 10
-4.110310
 20
103.524226
 30
0.0
 10
-4.840550
 20
103.337226
 30
0.0
 10
-5.562300
 20
103.119226
 30
0.0
 10
-6.274290
 20
102.871226
 30
0.0
 10
-6.975270
 20
102.594225
 30
0.0
 10
-7.664020
 20
102.287227
 30
0.0
 10
-8.339320
 20
101.952226
 30
0.0
 10
-9.000000
 20
101.588227
 30
0.0
 10
-9.644880
 20
101.198227
 30
0.0
 10
-10.272800
 20
100.781227
 30
0.0
 10
-10.882800
 20
100.338225
 30
0.0
 10
-11.473600
 20
99.869426
 30
0.0
 10
-12.044300
 20
99.376827
 30
0.0
 10
-12.593900
 20
98.860727
 30
0.0
 10
-13.121400
 20
98.322027
 30
0.0
 10
-13.625900
 20
97.761824
 30
0.0
 10
-14.106500
 20
97.180825
 30
0.0
 10
-14.562300
 20
96.580326
 30
0.0
 10
-14.992600
 20
95.961227
 30
0.0
 10
-15.396500
 20
95.324725
 30
0.0
 10
-15.773500
 20
94.671827
 30
0.0
 10
-16.122800
 20
94.003626
 30
0.0
 10
-16.443800
 20
93.321526
 30
0.0
 10
-16.736000
 20
92.626427
 30
0.0
 10
-16.998800
 20
91.919827
 30
0.0
 10
-17.231800
 20
91.202825
 30
0.0
 10
-17.434500
 20
90.476627
 30
0.0
 10
-17.606600
 20
89.742627
 30
0.0
 10
-17.747900
 20
89.002025
 30
0.0
 10
-17.858100
 20
88.256227
 30
0.0
 10
-17.936900
 20
87.506425
 30
0.0
 10
-17.984200
 20
86.754026
 30
0.0
 10
-17.999999
 20
86.000227
 30
0.0
 10
-17.999999
 20
41.200227
 30
0.0
 10
-22.101199
 20
41.200227
 30
0.0
 10
-22.101199
 20
18.666927
 30
0.0
 10
-19.059399
 20
18.666927
 30
0.0
 10
-19.059399
 20
4.833565
 30
0.0
 10
-22.101199
 20
4.833565
 30
0.0
 10
-22.101199
 20
-17.999765
 30
0.0
 10
-0.999999
 20
-17.999765
 30
0.0
 10
-0.999999
 20
-17.969680
 30
0.0
 10
-0.376952
 20
-17.995645
 30
0.0
 10
0.376954
 20
-17.995645
 30
0.0
 10
1.130222
 20
-17.964120
 30
0.0
 10
1.881501
 20
-17.901044
 30
0.0
 10
2.629492
 20
-17.806528
 30
0.0
 10
3.372851
 20
-17.680826
 30
0.0
 10
4.110312
 20
-17.524023
 30
0.0
 10
4.840551
 20
-17.336543
 30
0.0
 10
5.562301
 20
-17.118639
 30
0.0
 10
6.274291
 20
-16.870735
 30
0.0
 10
6.975272
 20
-16.593141
 30
0.0
 10
7.664021
 20
-16.286535
 30
0.0
 10
8.339322
 20
-15.951340
 30
0.0
 10
8.999981
 20
-15.588120
 30
0.0
 10
9.644880
 20
-15.197891
 30
0.0
  0
LWPOLYLINE
  5
101
100
AcDbEntity
  8
0
 62
7
100
AcDbPolyline
 90
109
 70
1
 10
11.338900
 20
84.082200
 30
0.0
 10
11.248700
 20
83.609001
 30
0.0
 10
11.138700
 20
83.140100
 30
0.0
 10
11.009200
 20
82.676101
 30
0.0
 10
10.860300
 20
82.218001
 30
0.0
 10
10.692400
 20
81.766600
 30
0.0
 10
10.505800
 20
81.322501
 30
0.0
 10
10.300700
 20
80.886699
 30
0.0
 10
10.077500
 20
80.459801
 30
0.0
 10
10.000000
 20
80.325599
 30
0.0
 10
10.000000
 20
54.000099
 30
0.0
 10
13.000000
 20
50.799999
 30
0.0
 10
13.000000
 20
41.200001
 30
0.0
 10
-13.000000
 20
41.200001
 30
0.0
 10
-13.000000
 20
50.799999
 30
0.0
 10
-10.000000
 20
54.000099
 30
0.0
 10
-10.000000
 20
80.325599
 30
0.0
 10
-10.077500
 20
80.459801
 30
0.0
 10
-10.300700
 20
80.886699
 30
0.0
 10
-10.505800
 20
81.322501
 30
0.0
 10
-10.692400
 20
81.766600
 30
0.0
 10
-10.860300
 20
82.218001
 30
0.0
 10
-11.009200
 20
82.676101
 30
0.0
 10
-11.138700
 20
83.140100
 30
0.0
 10
-11.248700
 20
83.609001
 30
0.0
 10
-11.338900
 20
84.082200
 30
0.0
 10
-11.409300
 20
84.558701
 30
0.0
 10
-11.459700
 20
85.037700
 30
0.0
 10
-11.489900
 20
85.518401
 30
0.0
 10
-11.500001
 20
86.000001
 30
0.0
 10
-11.489900
 20
86.481600
 30
0.0
 10
-11.459700
 20
86.962300
 30
0.0
 10
-11.409300
 20
87.441299
 30
0.0
 10
-11.338900
 20
87.917800
 30
0.0
 10
-11.248700
 20
88.390999
 30
0.0
 10
-11.138700
 20
88.859900
 30
0.0
 10
-11.009200
 20
89.323899
 30
0.0
 10
-10.860300
 20
89.781999
 30
0.0
 10
-10.692400
 20
90.233400
 30
0.0
 10
-10.505800
 20
90.677499
 30
0.0
 10
-10.300700
 20
91.113301
 30
0.0
 10
-10.077500
 20
91.540202
 30
0.0
 10
-9.836690
 20
91.957301
 30
0.0
 10
-9.578580
 20
92.364000
 30
0.0
 10
-9.303680
 20
92.759500
 30
0.0
 10
-9.012470
 20
93.143201
 30
0.0
 10
-8.705430
 20
93.514301
 30
0.0
 10
-8.383130
 20
93.872300
 30
0.0
 10
-8.046130
 20
94.216399
 30
0.0
 10
-7.694990
 20
94.546201
 30
0.0
 10
-7.330370
 20
94.860899
 30
0.0
 10
-6.952880
 20
95.160099
 30
0.0
 10
-6.563200
 20
95.443199
 30
0.0
 10
-6.162000
 20
95.709801
 30
0.0
 10
-5.750000
 20
95.959299
 30
0.0
 10
-5.327900
 20
96.191300
 30
0.0
 10
-4.896450
 20
96.405501
 30
0.0
 10
-4.456420
 20
96.601400
 30
0.0
 10
-4.008580
 20
96.778700
 30
0.0
 10
-3.553680
 20
96.937100
 30
0.0
 10
-3.092580
 20
97.076400
 30
0.0
 10
-2.626020
 20
97.196200
 30
0.0
 10
-2.154880
 20
97.296302
 30
0.0
 10
-1.679950
 20
97.376599
 30
0.0
 10
-1.202070
 20
97.437001
 30
0.0
 10
-0.722076
 20
97.477299
 30
0.0
 10
-0.240829
 20
97.497506
 30
0.0
 10
0.240829
 20
97.497506
 30
0.0
 10
0.722076
 20
97.477299
 30
0.0
 10
1.202070
 20
97.437001
 30
0.0
 10
1.679950
 20
97.376599
 30
0.0
 10
2.154880
 20
97.296302
 30
0.0
 10
2.626020
 20
97.196200
 30
0.0
 10
3.092580
 20
97.076400
 30
0.0
 10
3.553680
 20
96.937100
 30
0.0
 10
4.008580
 20
96.778700
 30
0.0
 10
4.456420
 20
96.601400
 30
0.0
 10
4.896450
 20
96.405501
 30
0.0
 10
5.327900
 20
96.191300
 30
0.0
 10
5.749980
 20
95.959299
 30
0.0
 10
6.162000
 20
95.709801
 30
0.0
 10
6.563200
 20
95.443199
 30
0.0
 10
6.952880
 20
95.160099
 30
0.0
 10
7.330370
 20
94.860899
 30
0.0
 10
7.694990
 20
94.546201
 30
0.0
 10
8.046130
 20
94.216399
 30
0.0
 10
8.383130
 20
93.872300
 30
0.0
 10
8.705430
 20
93.514301
 30
0.0
 10
9.012470
 20
93.143201
 30
0.0
 10
9.303680
 20
92.759500
 30
0.0
 10
9.578580
 20
92.364000
 30
0.0
 10
9.836690
 20
91.957301
 30
0.0
 10
10.077500
 20
91.540202
 30
0.0
 10
10.300700
 20
91.113301
 30
0.0
 10
10.505800
 20
90.677499
 30
0.0
 10
10.692400
 20
90.233400
 30
0.0
 10
10.860300
 20
89.781999
 30
0.0
 10
11.009200
 20
89.323899
 30
0.0
 10
11.138700
 20
88.859900
 30
0.0
 10
11.248700
 20
88.390999
 30
0.0
 10
11.338900
 20
87.917800
 30
0.0
 10
11.409300
 20
87.441299
 30
0.0
 10
11.459700
 20
86.962300
 30
0.0
 10
11.489900
 20
86.481600
 30
0.0
 10
11.500001
 20
86.000001
 30
0.0
 10
11.489900
 20
85.518401
 30
0.0
 10
11.459700
 20
85.037700
 30
0.0
 10
11.409300
 20
84.558701
 30
0.0
 10
11.338900
 20
84.082200
 30
0.0
  0
LWPOLYLINE
  5
102
100
AcDbEntity
  8
0
 62
7
100
AcDbPolyline
 90
31
 70
1
 10
12.830900
 20
79.993099
 30
0.0
 10
13.000000
 20
80.116001
 30
0.0
 10
13.191000
 20
80.201001
 30
0.0
 10
13.395500
 20
80.244500
 30
0.0
 10
13.604500
 20
80.244500
 30
0.0
 10
13.809000
 20
80.201001
 30
0.0
 10
14.000000
 20
80.116001
 30
0.0
 10
14.169100
 20
79.993099
 30
0.0
 10
14.309000
 20
79.837801
 30
0.0
 10
14.413500
 20
79.656701
 30
0.0
 10
14.478100
 20
79.457901
 30
0.0
 10
14.500000
 20
79.249999
 30
0.0
 10
14.478100
 20
79.042100
 30
0.0
 10
14.413500
 20
78.843300
 30
0.0
 10
14.309000
 20
78.662201
 30
0.0
 10
14.169100
 20
78.506900
 30
0.0
 10
14.000000
 20
78.384001
 30
0.0
 10
13.809000
 20
78.298899
 30
0.0
 10
13.604500
 20
78.255499
 30
0.0
 10
13.395500
 20
78.255499
 30
0.0
 10
13.191000
 20
78.298899
 30
0.0
 10
13.000000
 20
78.384001
 30
0.0
 10
12.830900
 20
78.506900
 30
0.0
 10
12.691000
 20
78.662201
 30
0.0
 10
12.586400
 20
78.843300
 30
0.0
 10
12.521900
 20
79.042100
 30
0.0
 10
12.500000
 20
79.249999
 30
0.0
 10
12.521900
 20
79.457901
 30
0.0
 10
12.586400
 20
79.656701
 30
0.0
 10
12.691000
 20
79.837801
 30
0.0
 10
12.830900
 20
79.993099
 30
0.0
  0
LWPOLYLINE
  5
103
100
AcDbEntity
  8
0
 62
7
100
AcDbPolyline
 90
31
 70
1
 10
-14.413500
 20
78.843300
 30
0.0
 10
-14.478100
 20
79.042100
 30
0.0
 10
-14.500000
 20
79.249999
 30
0.0
 10
-14.478100
 20
79.457901
 30
0.0
 10
-14.413500
 20
79.656701
 30
0.0
 10
-14.309000
 20
79.837801
 30
0.0
 10
-14.169100
 20
79.993099
 30
0.0
 10
-14.000000
 20
80.116001
 30
0.0
 10
-13.809000
 20
80.201001
 30
0.0
 10
-13.604500
 20
80.244500
 30
0.0
 10
-13.395500
 20
80.244500
 30
0.0
 10
-13.191000
 20
80.201001
 30
0.0
 10
-13.000000
 20
80.116001
 30
0.0
 10
-12.830900
 20
79.993099
 30
0.0
 10
-12.691000
 20
79.837801
 30
0.0
 10
-12.586400
 20
79.656701
 30
0.0
 10
-12.521900
 20
79.457901
 30
0.0
 10
-12.500000
 20
79.249999
 30
0.0
 10
-12.521900
 20
79.042100
 30
0.0
 10
-12.586400
 20
78.843300
 30
0.0
 10
-12.691000
 20
78.662201
 30
0.0
 10
-12.830900
 20
78.506900
 30
0.0
 10
-13.000000
 20
78.384001
 30
0.0
 10
-13.191000
 20
78.298899
 30
0.0
 10
-13.395500
 20
78.255499
 30
0.0
 10
-13.604500
 20
78.255499
 30
0.0
 10
-13.809000
 20
78.298899
 30
0.0
 10
-14.000000
 20
78.384001
 30
0.0
 10
-14.169100
 20
78.506900
 30
0.0
 10
-14.309000
 20
78.662201
 30
0.0
 10
-14.413500
 20
78.843300
 30
0.0
  0
LWPOLYLINE
  5
104
100
AcDbEntity
  8
0
 62
7
100
AcDbPolyline
 90
31
 70
1
 10
12.830900
 20
70.506899
 30
0.0
 10
12.691000
 20
70.662200
 30
0.0
 10
12.586400
 20
70.843299
 30
0.0
 10
12.521900
 20
71.042100
 30
0.0
 10
12.500000
 20
71.250001
 30
0.0
 10
12.521900
 20
71.457900
 30
0.0
 10
12.586400
 20
71.656701
 30
0.0
 10
12.691000
 20
71.837800
 30
0.0
 10
12.830900
 20
71.993101
 30
0.0
 10
13.000000
 20
72.116000
 30
0.0
 10
13.191000
 20
72.201000
 30
0.0
 10
13.395500
 20
72.244499
 30
0.0
 10
13.604500
 20
72.244499
 30
0.0
 10
13.809000
 20
72.201000
 30
0.0
 10
14.000000
 20
72.116000
 30
0.0
 10
14.169100
 20
71.993101
 30
0.0
 10
14.309000
 20
71.837800
 30
0.0
 10
14.413500
 20
71.656701
 30
0.0
 10
14.478100
 20
71.457900
 30
0.0
 10
14.500000
 20
71.250001
 30
0.0
 10
14.478100
 20
71.042100
 30
0.0
 10
14.413500
 20
70.843299
 30
0.0
 10
14.309000
 20
70.662200
 30
0.0
 10
14.169100
 20
70.506899
 30
0.0
 10
14.000000
 20
70.384000
 30
0.0
 10
13.809000
 20
70.298901
 30
0.0
 10
13.604500
 20
70.255501
 30
0.0
 10
13.395500
 20
70.255501
 30
0.0
 10
13.191000
 20
70.298901
 30
0.0
 10
13.000000
 20
70.384000
 30
0.0
 10
12.830900
 20
70.506899
 30
0.0
  0
LWPOLYLINE
  5
105
100
AcDbEntity
  8
0
 62
7
100
AcDbPolyline
 90
31
 70
1
 10
-13.809000
 20
70.298901
 30
0.0
 10
-14.000000
 20
70.384000
 30
0.0
 10
-14.169100
 20
70.506899
 30
0.0
 10
-14.309000
 20
70.662200
 30
0.0
 10
-14.413500
 20
70.843299
 30
0.0
 10
-14.478100
 20
71.042100
 30
0.0
 10
-14.500000
 20
71.250001
 30
0.0
 10
-14.478100
 20
71.457900
 30
0.0
 10
-14.413500
 20
71.656701
 30
0.0
 10
-14.309000
 20
71.837800
 30
0.0
 10
-14.169100
 20
71.993101
 30
0.0
 10
-14.000000
 20
72.116000
 30
0.0
 10
-13.809000
 20
72.201000
 30
0.0
 10
-13.604500
 20
72.244499
 30
0.0
 10
-13.395500
 20
72.244499
 30
0.0
 10
-13.191000
 20
72.201000
 30
0.0
 10
-13.000000
 20
72.116000
 30
0.0
 10
-12.830900
 20
71.993101
 30
0.0
 10
-12.691000
 20
71.837800
 30
0.0
 10
-12.586400
 20
71.656701
 30
0.0
 10
-12.521900
 20
71.457900
 30
0.0
 10
-12.500000
 20
71.250001
 30
0.0
 10
-12.521900
 20
71.042100
 30
0.0
 10
-12.586400
 20
70.843299
 30
0.0
 10
-12.691000
 20
70.662200
 30
0.0
 10
-12.830900
 20
70.506899
 30
0.0
 10
-13.000000
 20
70.384000
 30
0.0
 10
-13.191000
 20
70.298901
 30
0.0
 10
-13.395500
 20
70.255501
 30
0.0
 10
-13.604500
 20
70.255501
 30
0.0
 10
-13.809000
 20
70.298901
 30
0.0
  0
LWPOLYLINE
  5
106
100
AcDbEntity
  8
0
 62
7
100
AcDbPolyline
 90
31
 70
1
 10
13.604500
 20
64.244501
 30
0.0
 10
13.809000
 20
64.200999
 30
0.0
 10
14.000000
 20
64.115999
 30
0.0
 10
14.169100
 20
63.993100
 30
0.0
 10
14.309000
 20
63.837799
 30
0.0
 10
14.413500
 20
63.656700
 30
0.0
 10
14.478100
 20
63.457899
 30
0.0
 10
14.500000
 20
63.250000
 30
0.0
 10
14.478100
 20
63.042099
 30
0.0
 10
14.413500
 20
62.843301
 30
0.0
 10
14.309000
 20
62.662199
 30
0.0
 10
14.169100
 20
62.506901
 30
0.0
 10
14.000000
 20
62.383999
 30
0.0
 10
13.809000
 20
62.298900
 30
0.0
 10
13.604500
 20
62.255500
 30
0.0
 10
13.395500
 20
62.255500
 30
0.0
 10
13.191000
 20
62.298900
 30
0.0
 10
13.000000
 20
62.383999
 30
0.0
 10
12.830900
 20
62.506901
 30
0.0
 10
12.691000
 20
62.662199
 30
0.0
 10
12.586400
 20
62.843301
 30
0.0
 10
12.521900
 20
63.042099
 30
0.0
 10
12.500000
 20
63.250000
 30
0.0
 10
12.521900
 20
63.457899
 30
0.0
 10
12.586400
 20
63.656700
 30
0.0
 10
12.691000
 20
63.837799
 30
0.0
 10
12.830900
 20
63.993100
 30
0.0
 10
13.000000
 20
64.115999
 30
0.0
 10
13.191000
 20
64.200999
 30
0.0
 10
13.395500
 20
64.244501
 30
0.0
 10
13.604500
 20
64.244501
 30
0.0
  0
LWPOLYLINE
  5
107
100
AcDbEntity
  8
0
 62
7
100
AcDbPolyline
 90
31
 70
1
 10
-12.586400
 20
63.656700
 30
0.0
 10
-12.521900
 20
63.457899
 30
0.0
 10
-12.500000
 20
63.250000
 30
0.0
 10
-12.521900
 20
63.042099
 30
0.0
 10
-12.586400
 20
62.843301
 30
0.0
 10
-12.691000
 20
62.662199
 30
0.0
 10
-12.830900
 20
62.506901
 30
0.0
 10
-13.000000
 20
62.383999
 30
0.0
 10
-13.191000
 20
62.298900
 30
0.0
 10
-13.395500
 20
62.255500
 30
0.0
 10
-13.604500
 20
62.255500
 30
0.0
 10
-13.809000
 20
62.298900
 30
0.0
 10
-14.000000
 20
62.383999
 30
0.0
 10
-14.169100
 20
62.506901
 30
0.0
 10
-14.309000
 20
62.662199
 30
0.0
 10
-14.413500
 20
62.843301
 30
0.0
 10
-14.478100
 20
63.042099
 30
0.0
 10
-14.500000
 20
63.250000
 30
0.0
 10
-14.478100
 20
63.457899
 30
0.0
 10
-14.413500
 20
63.656700
 30
0.0
 10
-14.309000
 20
63.837799
 30
0.0
 10
-14.169100
 20
63.993100
 30
0.0
 10
-14.000000
 20
64.115999
 30
0.0
 10
-13.809000
 20
64.200999
 30
0.0
 10
-13.604500
 20
64.244501
 30
0.0
 10
-13.395500
 20
64.244501
 30
0.0
 10
-13.191000
 20
64.200999
 30
0.0
 10
-13.000000
 20
64.115999
 30
0.0
 10
-12.830900
 20
63.993100
 30
0.0
 10
-12.691000
 20
63.837799
 30
0.0
 10
-12.586400
 20
63.656700
 30
0.0
  0
LWPOLYLINE
  5
108
100
AcDbEntity
  8
0
 62
7
100
AcDbPolyline
 90
31
 70
1
 10
-13.604500
 20
54.255499
 30
0.0
 10
-13.809000
 20
54.298899
 30
0.0
 10
-14.000000
 20
54.384001
 30
0.0
 10
-14.169100
 20
54.506900
 30
0.0
 10
-14.309000
 20
54.662201
 30
0.0
 10
-14.413500
 20
54.843300
 30
0.0
 10
-14.478100
 20
55.042100
 30
0.0
 10
-14.500000
 20
55.249999
 30
0.0
 10
-14.478100
 20
55.457898
 30
0.0
 10
-14.413500
 20
55.656701
 30
0.0
 10
-14.309000
 20
55.837801
 30
0.0
 10
-14.169100
 20
55.993099
 30
0.0
 10
-14.000000
 20
56.116001
 30
0.0
 10
-13.809000
 20
56.201001
 30
0.0
 10
-13.604500
 20
56.244500
 30
0.0
 10
-13.395500
 20
56.244500
 30
0.0
 10
-13.191000
 20
56.201001
 30
0.0
 10
-13.000000
 20
56.116001
 30
0.0
 10
-12.830900
 20
55.993099
 30
0.0
 10
-12.691000
 20
55.837801
 30
0.0
 10
-12.586400
 20
55.656701
 30
0.0
 10
-12.521900
 20
55.457898
 30
0.0
 10
-12.500000
 20
55.249999
 30
0.0
 10
-12.521900
 20
55.042100
 30
0.0
 10
-12.586400
 20
54.843300
 30
0.0
 10
-12.691000
 20
54.662201
 30
0.0
 10
-12.830900
 20
54.506900
 30
0.0
 10
-13.000000
 20
54.384001
 30
0.0
 10
-13.191000
 20
54.298899
 30
0.0
 10
-13.395500
 20
54.255499
 30
0.0
 10
-13.604500
 20
54.255499
 30
0.0
  0
LWPOLYLINE
  5
109
100
AcDbEntity
  8
0
 62
7
100
AcDbPolyline
 90
31
 70
1
 10
14.309000
 20
55.837801
 30
0.0
 10
14.413500
 20
55.656701
 30
0.0
 10
14.478100
 20
55.457898
 30
0.0
 10
14.500000
 20
55.249999
 30
0.0
 10
14.478100
 20
55.042100
 30
0.0
 10
14.413500
 20
54.843300
 30
0.0
 10
14.309000
 20
54.662201
 30
0.0
 10
14.169100
 20
54.506900
 30
0.0
 10
14.000000
 20
54.384001
 30
0.0
 10
13.809000
 20
54.298899
 30
0.0
 10
13.604500
 20
54.255499
 30
0.0
 10
13.395500
 20
54.255499
 30
0.0
 10
13.191000
 20
54.298899
 30
0.0
 10
13.000000
 20
54.384001
 30
0.0
 10
12.830900
 20
54.506900
 30
0.0
 10
12.691000
 20
54.662201
 30
0.0
 10
12.586400
 20
54.843300
 30
0.0
 10
12.521900
 20
55.042100
 30
0.0
 10
12.500000
 20
55.249999
 30
0.0
 10
12.521900
 20
55.457898
 30
0.0
 10
12.586400
 20
55.656701
 30
0.0
 10
12.691000
 20
55.837801
 30
0.0
 10
12.830900
 20
55.993099
 30
0.0
 10
13.000000
 20
56.116001
 30
0.0
 10
13.191000
 20
56.201001
 30
0.0
 10
13.395500
 20
56.244500
 30
0.0
 10
13.604500
 20
56.244500
 30
0.0
 10
13.809000
 20
56.201001
 30
0.0
 10
14.000000
 20
56.116001
 30
0.0
 10
14.169100
 20
55.993099
 30
0.0
 10
14.309000
 20
55.837801
 30
0.0
  0
LWPOLYLINE
  5
10a
100
AcDbEntity
  8
0
 62
7
100
AcDbPolyline
 90
5
 70
1
 10
28.198000
 20
30.500000
 30
0.0
 10
26.198000
 20
30.500000
 30
0.0
 10
26.198000
 20
34.500000
 30
0.0
 10
28.198000
 20
34.500000
 30
0.0
 10
28.198000
 20
30.500000
 30
0.0
  0
LWPOLYLINE
  5
10b
100
AcDbEntity
  8
0
 62
7
100
AcDbPolyline
 90
5
 70
1
 10
-16.059400
 20
30.500000
 30
0.0
 10
-16.059400
 20
34.500000
 30
0.0
 10
-14.059400
 20
34.500000
 30
0.0
 10
-14.059400
 20
30.500000
 30
0.0
 10
-16.059400
 20
30.500000
 30
0.0
  0
LWPOLYLINE
  5
10c
100
AcDbEntity
  8
0
 62
7
100
AcDbPolyline
 90
5
 70
1
 10
28.198000
 20
4.843640
 30
0.0
 10
28.198000
 20
0.843620
 30
0.0
 10
26.198000
 20
0.843620
 30
0.0
 10
26.198000
 20
4.843640
 30
0.0
 10
28.198000
 20
4.843640
 30
0.0
  0
LWPOLYLINE
  5
10d
100
AcDbEntity
  8
0
 62
7
100
AcDbPolyline
 90
31
 70
1
 10
-1.474990
 20
2.554762
 30
0.0
 10
-0.911591
 20
2.805601
 30
0.0
 10
-0.308350
 20
2.933842
 30
0.0
 10
0.308350
 20
2.933842
 30
0.0
 10
0.911591
 20
2.805601
 30
0.0
 10
1.474990
 20
2.554762
 30
0.0
 10
1.973920
 20
2.192275
 30
0.0
 10
2.386600
 20
1.733946
 30
0.0
 10
2.694950
 20
1.199869
 30
0.0
 10
2.885530
 20
0.613327
 30
0.0
 10
2.950000
 20
0.000001
 30
0.0
 10
2.885530
 20
-0.613324
 30
0.0
 10
2.694950
 20
-1.199866
 30
0.0
 10
2.386600
 20
-1.733972
 30
0.0
 10
1.973920
 20
-2.192273
 30
0.0
 10
1.474990
 20
-2.554759
 30
0.0
 10
0.911591
 20
-2.805598
 30
0.0
 10
0.308350
 20
-2.933840
 30
0.0
 10
-0.308350
 20
-2.933840
 30
0.0
 10
-0.911591
 20
-2.805598
 30
0.0
 10
-1.474990
 20
-2.554759
 30
0.0
 10
-1.973920
 20
-2.192273
 30
0.0
 10
-2.386600
 20
-1.733972
 30
0.0
 10
-2.694950
 20
-1.199866
 30
0.0
 10
-2.885530
 20
-0.613324
 30
0.0
 10
-2.950000
 20
0.000001
 30
0.0
 10
-2.885530
 20
0.613327
 30
0.0
 10
-2.694950
 20
1.199869
 30
0.0
 10
-2.386600
 20
1.733946
 30
0.0
 10
-1.973920
 20
2.192275
 30
0.0
 10
-1.474990
 20
2.554762
 30
0.0
  0
LWPOLYLINE
  5
10e
100
AcDbEntity
  8
0
 62
7
100
AcDbPolyline
 90
5
 70
1
 10
-16.059400
 20
-7.000013
 30
0.0
 10
-14.059400
 20
-7.000013
 30
0.0
 10
-14.059400
 20
-11.000005
 30
0.0
 10
-16.059400
 20
-11.000005
 30
0.0
 10
-16.059400
 20
-7.000013
 30
0.0
  0
ENDSEC
  0
SECTION
  2
OBJECTS
  0
DICTIONARY
  5
C
330
0
100
AcDbDictionary
  3
ACAD_GROUP
350
D
  3
ACAD_MLINESTYLE
350
17
  0
DICTIONARY
  5
D
330
C
100
AcDbDictionary
  0
DICTIONARY
  5
1A
330
C
100
AcDbDictionary
  0
DICTIONARY
  5
17
330
C
100
AcDbDictionary
  3
STANDARD
350
18
  0
DICTIONARY
  5
19
330
C
100
AcDbDictionary
  0
ENDSEC
  0
EOF
