  0
SECTION
  2
BLOCKS
  0
ENDSEC
  0
SECTION
  2
ENTITIES
  0
LINE
  8
0
 10
3.65305
 20
-58.9645
 11
3.6356
 21
-58.8705
  0
LINE
  8
0
 10
3.6356
 20
-58.8705
 11
3.73267
 21
-58.4661
  0
LINE
  8
0
 10
3.73267
 20
-58.4661
 11
3.98581
 21
-58.1362
  0
LINE
  8
0
 10
3.98581
 20
-58.1362
 11
4.35124
 21
-57.9378
  0
LINE
  8
0
 10
4.35124
 20
-57.9378
 11
4.76578
 21
-57.9052
  0
LINE
  8
0
 10
4.76578
 20
-57.9052
 11
5.15776
 21
-58.044
  0
LINE
  8
0
 10
5.15776
 20
-58.044
 11
5.45938
 21
-58.3302
  0
LINE
  8
0
 10
5.45938
 20
-58.3302
 11
5.61852
 21
-58.7144
  0
LINE
  8
0
 10
5.61852
 20
-58.7144
 11
5.61621
 21
-58.802
  0
LINE
  8
0
 10
5.61621
 20
-58.802
 11
6.1754
 21
-58.7551
  0
LINE
  8
0
 10
6.1754
 20
-58.7551
 11
8.26668
 21
-58.4909
  0
LINE
  8
0
 10
8.26668
 20
-58.4909
 11
8.24332
 21
-58.4037
  0
LINE
  8
0
 10
8.24332
 20
-58.4037
 11
8.30836
 21
-57.993
  0
LINE
  8
0
 10
8.30836
 20
-57.993
 11
8.53484
 21
-57.6443
  0
LINE
  8
0
 10
8.53484
 20
-57.6443
 11
8.88358
 21
-57.4178
  0
LINE
  8
0
 10
8.88358
 20
-57.4178
 11
9.29428
 21
-57.3528
  0
LINE
  8
0
 10
9.29428
 20
-57.3528
 11
9.69594
 21
-57.4604
  0
LINE
  8
0
 10
9.69594
 20
-57.4604
 11
10.0191
 21
-57.7221
  0
LINE
  8
0
 10
10.0191
 20
-57.7221
 11
10.2079
 21
-58.0926
  0
LINE
  8
0
 10
10.2079
 20
-58.0926
 11
10.2123
 21
-58.1774
  0
LINE
  8
0
 10
10.2123
 20
-58.1774
 11
11.0703
 21
-58.0323
  0
LINE
  8
0
 10
11.0703
 20
-58.0323
 11
12.8291
 21
-57.6584
  0
LINE
  8
0
 10
12.8291
 20
-57.6584
 11
12.8002
 21
-57.5769
  0
LINE
  8
0
 10
12.8002
 20
-57.5769
 11
12.8328
 21
-57.1624
  0
LINE
  8
0
 10
12.8328
 20
-57.1624
 11
13.0312
 21
-56.797
  0
LINE
  8
0
 10
13.0312
 20
-56.797
 11
13.3611
 21
-56.5438
  0
LINE
  8
0
 10
13.3611
 20
-56.5438
 11
13.7655
 21
-56.4467
  0
LINE
  8
0
 10
13.7655
 20
-56.4467
 11
14.1743
 21
-56.5225
  0
LINE
  8
0
 10
14.1743
 20
-56.5225
 11
14.517
 21
-56.758
  0
LINE
  8
0
 10
14.517
 20
-56.758
 11
14.7343
 21
-57.1126
  0
LINE
  8
0
 10
14.7343
 20
-57.1126
 11
14.7452
 21
-57.1957
  0
LINE
  8
0
 10
14.7452
 20
-57.1957
 11
15.8874
 21
-56.9024
  0
LINE
  8
0
 10
15.8874
 20
-56.9024
 11
17.3125
 21
-56.4722
  0
LINE
  8
0
 10
17.3125
 20
-56.4722
 11
17.2782
 21
-56.3951
  0
LINE
  8
0
 10
17.2782
 20
-56.3951
 11
17.2782
 21
-55.9793
  0
LINE
  8
0
 10
17.2782
 20
-55.9793
 11
17.4473
 21
-55.5994
  0
LINE
  8
0
 10
17.4473
 20
-55.5994
 11
17.7563
 21
-55.3212
  0
LINE
  8
0
 10
17.7563
 20
-55.3212
 11
18.1518
 21
-55.1927
  0
LINE
  8
0
 10
18.1518
 20
-55.1927
 11
18.5654
 21
-55.2362
  0
LINE
  8
0
 10
18.5654
 20
-55.2362
 11
18.9255
 21
-55.4441
  0
LINE
  8
0
 10
18.9255
 20
-55.4441
 11
19.1699
 21
-55.7805
  0
LINE
  8
0
 10
19.1699
 20
-55.7805
 11
19.1874
 21
-55.863
  0
LINE
  8
0
 10
19.1874
 20
-55.863
 11
20.5932
 21
-55.3734
  0
LINE
  8
0
 10
20.5932
 20
-55.3734
 11
21.6896
 21
-54.9393
  0
LINE
  8
0
 10
21.6896
 20
-54.9393
 11
21.6496
 21
-54.8657
  0
LINE
  8
0
 10
21.6496
 20
-54.8657
 11
21.617
 21
-54.4511
  0
LINE
  8
0
 10
21.617
 20
-54.4511
 11
21.7558
 21
-54.0591
  0
LINE
  8
0
 10
21.7558
 20
-54.0591
 11
22.042
 21
-53.7575
  0
LINE
  8
0
 10
22.042
 20
-53.7575
 11
22.4262
 21
-53.5984
  0
LINE
  8
0
 10
22.4262
 20
-53.5984
 11
22.8419
 21
-53.6093
  0
LINE
  8
0
 10
22.8419
 20
-53.6093
 11
23.2172
 21
-53.7883
  0
LINE
  8
0
 10
23.2172
 20
-53.7883
 11
23.4873
 21
-54.1045
  0
LINE
  8
0
 10
23.4873
 20
-54.1045
 11
23.5118
 21
-54.1874
  0
LINE
  8
0
 10
23.5118
 20
-54.1874
 11
25.1545
 21
-53.456
  0
LINE
  8
0
 10
25.1545
 20
-53.456
 11
25.9339
 21
-53.0692
  0
LINE
  8
0
 10
25.9339
 20
-53.0692
 11
25.8876
 21
-52.9979
  0
LINE
  8
0
 10
25.8876
 20
-52.9979
 11
25.8226
 21
-52.5872
  0
LINE
  8
0
 10
25.8226
 20
-52.5872
 11
25.9302
 21
-52.1855
  0
LINE
  8
0
 10
25.9302
 20
-52.1855
 11
26.1919
 21
-51.8624
  0
LINE
  8
0
 10
26.1919
 20
-51.8624
 11
26.5624
 21
-51.6736
  0
LINE
  8
0
 10
26.5624
 20
-51.6736
 11
26.9776
 21
-51.6519
  0
LINE
  8
0
 10
26.9776
 20
-51.6519
 11
27.3658
 21
-51.8009
  0
LINE
  8
0
 10
27.3658
 20
-51.8009
 11
27.6599
 21
-52.0949
  0
LINE
  8
0
 10
27.6599
 20
-52.0949
 11
27.6922
 21
-52.1792
  0
LINE
  8
0
 10
27.6922
 20
-52.1792
 11
29.5394
 21
-51.1637
  0
LINE
  8
0
 10
29.5394
 20
-51.1637
 11
30.0194
 21
-50.873
  0
LINE
  8
0
 10
30.0194
 20
-50.873
 11
29.966
 21
-50.8034
  0
LINE
  8
0
 10
29.966
 20
-50.8034
 11
29.8689
 21
-50.3991
  0
LINE
  8
0
 10
29.8689
 20
-50.3991
 11
29.9447
 21
-49.9902
  0
LINE
  8
0
 10
29.9447
 20
-49.9902
 11
30.1802
 21
-49.6475
  0
LINE
  8
0
 10
30.1802
 20
-49.6475
 11
30.5347
 21
-49.4303
  0
LINE
  8
0
 10
30.5347
 20
-49.4303
 11
30.947
 21
-49.376
  0
LINE
  8
0
 10
30.947
 20
-49.376
 11
31.3457
 21
-49.4941
  0
LINE
  8
0
 10
31.3457
 20
-49.4941
 11
31.6619
 21
-49.7641
  0
LINE
  8
0
 10
31.6619
 20
-49.7641
 11
31.7031
 21
-49.8505
  0
LINE
  8
0
 10
31.7031
 20
-49.8505
 11
33.717
 21
-48.5125
  0
LINE
  8
0
 10
33.717
 20
-48.5125
 11
33.9212
 21
-48.3641
  0
LINE
  8
0
 10
33.9212
 20
-48.3641
 11
33.8596
 21
-48.2957
  0
LINE
  8
0
 10
33.8596
 20
-48.2957
 11
33.7311
 21
-47.9002
  0
LINE
  8
0
 10
33.7311
 20
-47.9002
 11
33.7746
 21
-47.4867
  0
LINE
  8
0
 10
33.7746
 20
-47.4867
 11
33.9825
 21
-47.1266
  0
LINE
  8
0
 10
33.9825
 20
-47.1266
 11
34.3189
 21
-46.8822
  0
LINE
  8
0
 10
34.3189
 20
-46.8822
 11
34.7256
 21
-46.7957
  0
LINE
  8
0
 10
34.7256
 20
-46.7957
 11
35.1323
 21
-46.8822
  0
LINE
  8
0
 10
35.1323
 20
-46.8822
 11
35.4688
 21
-47.1266
  0
LINE
  8
0
 10
35.4688
 20
-47.1266
 11
35.5148
 21
-47.2063
  0
LINE
  8
0
 10
35.5148
 20
-47.2063
 11
35.7189
 21
-47.058
  0
LINE
  8
0
 10
35.7189
 20
-47.058
 11
37.6139
 21
-45.5561
  0
LINE
  8
0
 10
37.6139
 20
-45.5561
 11
37.5444
 21
-45.4902
  0
LINE
  8
0
 10
37.5444
 20
-45.4902
 11
37.3853
 21
-45.1061
  0
LINE
  8
0
 10
37.3853
 20
-45.1061
 11
37.3962
 21
-44.6904
  0
LINE
  8
0
 10
37.3962
 20
-44.6904
 11
37.5752
 21
-44.3151
  0
LINE
  8
0
 10
37.5752
 20
-44.3151
 11
37.8914
 21
-44.045
  0
LINE
  8
0
 10
37.8914
 20
-44.045
 11
38.2901
 21
-43.9269
  0
LINE
  8
0
 10
38.2901
 20
-43.9269
 11
38.7024
 21
-43.9812
  0
LINE
  8
0
 10
38.7024
 20
-43.9812
 11
39.0569
 21
-44.1985
  0
LINE
  8
0
 10
39.0569
 20
-44.1985
 11
39.1066
 21
-44.2707
  0
LINE
  8
0
 10
39.1066
 20
-44.2707
 11
39.5314
 21
-43.9041
  0
LINE
  8
0
 10
39.5314
 20
-43.9041
 11
41.068
 21
-42.4611
  0
LINE
  8
0
 10
41.068
 20
-42.4611
 11
40.9978
 21
-42.4043
  0
LINE
  8
0
 10
40.9978
 20
-42.4043
 11
40.8091
 21
-42.0338
  0
LINE
  8
0
 10
40.8091
 20
-42.0338
 11
40.7873
 21
-41.6185
  0
LINE
  8
0
 10
40.7873
 20
-41.6185
 11
40.9363
 21
-41.2303
  0
LINE
  8
0
 10
40.9363
 20
-41.2303
 11
41.2303
 21
-40.9363
  0
LINE
  8
0
 10
41.2303
 20
-40.9363
 11
41.6185
 21
-40.7873
  0
LINE
  8
0
 10
41.6185
 20
-40.7873
 11
42.0338
 21
-40.8091
  0
LINE
  8
0
 10
42.0338
 20
-40.8091
 11
42.4043
 21
-40.9978
  0
LINE
  8
0
 10
42.4043
 20
-40.9978
 11
42.4578
 21
-41.0639
  0
LINE
  8
0
 10
42.4578
 20
-41.0639
 11
43.0665
 21
-40.4422
  0
LINE
  8
0
 10
43.0665
 20
-40.4422
 11
44.2697
 21
-39.1059
  0
LINE
  8
0
 10
44.2697
 20
-39.1059
 11
44.1985
 21
-39.0569
  0
LINE
  8
0
 10
44.1985
 20
-39.0569
 11
43.9812
 21
-38.7024
  0
LINE
  8
0
 10
43.9812
 20
-38.7024
 11
43.9269
 21
-38.2901
  0
LINE
  8
0
 10
43.9269
 20
-38.2901
 11
44.045
 21
-37.8914
  0
LINE
  8
0
 10
44.045
 20
-37.8914
 11
44.3151
 21
-37.5752
  0
LINE
  8
0
 10
44.3151
 20
-37.5752
 11
44.6904
 21
-37.3962
  0
LINE
  8
0
 10
44.6904
 20
-37.3962
 11
45.1061
 21
-37.3853
  0
LINE
  8
0
 10
45.1061
 20
-37.3853
 11
45.4902
 21
-37.5444
  0
LINE
  8
0
 10
45.4902
 20
-37.5444
 11
45.5479
 21
-37.6053
  0
LINE
  8
0
 10
45.5479
 20
-37.6053
 11
46.2996
 21
-36.6966
  0
LINE
  8
0
 10
46.2996
 20
-36.6966
 11
47.1996
 21
-35.5109
  0
LINE
  8
0
 10
47.1996
 20
-35.5109
 11
47.1266
 21
-35.4688
  0
LINE
  8
0
 10
47.1266
 20
-35.4688
 11
46.8822
 21
-35.1323
  0
LINE
  8
0
 10
46.8822
 20
-35.1323
 11
46.7957
 21
-34.7256
  0
LINE
  8
0
 10
46.7957
 20
-34.7256
 11
46.8822
 21
-34.3189
  0
LINE
  8
0
 10
46.8822
 20
-34.3189
 11
47.1266
 21
-33.9825
  0
LINE
  8
0
 10
47.1266
 20
-33.9825
 11
47.4867
 21
-33.7746
  0
LINE
  8
0
 10
47.4867
 20
-33.7746
 11
47.9002
 21
-33.7311
  0
LINE
  8
0
 10
47.9002
 20
-33.7311
 11
48.2957
 21
-33.8596
  0
LINE
  8
0
 10
48.2957
 20
-33.8596
 11
48.3584
 21
-33.916
  0
LINE
  8
0
 10
48.3584
 20
-33.916
 11
49.2079
 21
-32.6937
  0
LINE
  8
0
 10
49.2079
 20
-32.6937
 11
49.8398
 21
-31.698
  0
LINE
  8
0
 10
49.8398
 20
-31.698
 11
49.7641
 21
-31.6619
  0
LINE
  8
0
 10
49.7641
 20
-31.6619
 11
49.4941
 21
-31.3457
  0
LINE
  8
0
 10
49.4941
 20
-31.3457
 11
49.376
 21
-30.947
  0
LINE
  8
0
 10
49.376
 20
-30.947
 11
49.4303
 21
-30.5347
  0
LINE
  8
0
 10
49.4303
 20
-30.5347
 11
49.6475
 21
-30.1802
  0
LINE
  8
0
 10
49.6475
 20
-30.1802
 11
49.9902
 21
-29.9447
  0
LINE
  8
0
 10
49.9902
 20
-29.9447
 11
50.3991
 21
-29.8689
  0
LINE
  8
0
 10
50.3991
 20
-29.8689
 11
50.8034
 21
-29.966
  0
LINE
  8
0
 10
50.8034
 20
-29.966
 11
50.872
 21
-30.0186
  0
LINE
  8
0
 10
50.872
 20
-30.0186
 11
51.7711
 21
-28.4614
  0
LINE
  8
0
 10
51.7711
 20
-28.4614
 11
52.1742
 21
-27.6903
  0
LINE
  8
0
 10
52.1742
 20
-27.6903
 11
52.0949
 21
-27.6599
  0
LINE
  8
0
 10
52.0949
 20
-27.6599
 11
51.8009
 21
-27.3658
  0
LINE
  8
0
 10
51.8009
 20
-27.3658
 11
51.6519
 21
-26.9776
  0
LINE
  8
0
 10
51.6519
 20
-26.9776
 11
51.6736
 21
-26.5624
  0
LINE
  8
0
 10
51.6736
 20
-26.5624
 11
51.8624
 21
-26.1919
  0
LINE
  8
0
 10
51.8624
 20
-26.1919
 11
52.1855
 21
-25.9302
  0
LINE
  8
0
 10
52.1855
 20
-25.9302
 11
52.5872
 21
-25.8226
  0
LINE
  8
0
 10
52.5872
 20
-25.8226
 11
52.9979
 21
-25.8876
  0
LINE
  8
0
 10
52.9979
 20
-25.8876
 11
53.0736
 21
-25.9368
  0
LINE
  8
0
 10
53.0736
 20
-25.9368
 11
53.9711
 21
-24.0295
  0
LINE
  8
0
 10
53.9711
 20
-24.0295
 11
54.1886
 21
-23.5122
  0
LINE
  8
0
 10
54.1886
 20
-23.5122
 11
54.1045
 21
-23.4873
  0
LINE
  8
0
 10
54.1045
 20
-23.4873
 11
53.7883
 21
-23.2172
  0
LINE
  8
0
 10
53.7883
 20
-23.2172
 11
53.6093
 21
-22.8419
  0
LINE
  8
0
 10
53.6093
 20
-22.8419
 11
53.5984
 21
-22.4262
  0
LINE
  8
0
 10
53.5984
 20
-22.4262
 11
53.7575
 21
-22.042
  0
LINE
  8
0
 10
53.7575
 20
-22.042
 11
54.0591
 21
-21.7558
  0
LINE
  8
0
 10
54.0591
 20
-21.7558
 11
54.4511
 21
-21.617
  0
LINE
  8
0
 10
54.4511
 20
-21.617
 11
54.8657
 21
-21.6496
  0
LINE
  8
0
 10
54.8657
 20
-21.6496
 11
54.9498
 21
-21.6953
  0
LINE
  8
0
 10
54.9498
 20
-21.6953
 11
55.7926
 21
-19.429
  0
LINE
  8
0
 10
55.7926
 20
-19.429
 11
55.8705
 21
-19.189
  0
LINE
  8
0
 10
55.8705
 20
-19.189
 11
55.7805
 21
-19.1699
  0
LINE
  8
0
 10
55.7805
 20
-19.1699
 11
55.4441
 21
-18.9255
  0
LINE
  8
0
 10
55.4441
 20
-18.9255
 11
55.2362
 21
-18.5654
  0
LINE
  8
0
 10
55.2362
 20
-18.5654
 11
55.1927
 21
-18.1518
  0
LINE
  8
0
 10
55.1927
 20
-18.1518
 11
55.3212
 21
-17.7563
  0
LINE
  8
0
 10
55.3212
 20
-17.7563
 11
55.5994
 21
-17.4473
  0
LINE
  8
0
 10
55.5994
 20
-17.4473
 11
55.9793
 21
-17.2782
  0
LINE
  8
0
 10
55.9793
 20
-17.2782
 11
56.3951
 21
-17.2782
  0
LINE
  8
0
 10
56.3951
 20
-17.2782
 11
56.4792
 21
-17.3156
  0
LINE
  8
0
 10
56.4792
 20
-17.3156
 11
56.5572
 21
-17.0756
  0
LINE
  8
0
 10
56.5572
 20
-17.0756
 11
57.2075
 21
-14.7468
  0
LINE
  8
0
 10
57.2075
 20
-14.7468
 11
57.1126
 21
-14.7343
  0
LINE
  8
0
 10
57.1126
 20
-14.7343
 11
56.758
 21
-14.517
  0
LINE
  8
0
 10
56.758
 20
-14.517
 11
56.5225
 21
-14.1743
  0
LINE
  8
0
 10
56.5225
 20
-14.1743
 11
56.4467
 21
-13.7655
  0
LINE
  8
0
 10
56.4467
 20
-13.7655
 11
56.5438
 21
-13.3611
  0
LINE
  8
0
 10
56.5438
 20
-13.3611
 11
56.797
 21
-13.0312
  0
LINE
  8
0
 10
56.797
 20
-13.0312
 11
57.1624
 21
-12.8328
  0
LINE
  8
0
 10
57.1624
 20
-12.8328
 11
57.5769
 21
-12.8002
  0
LINE
  8
0
 10
57.5769
 20
-12.8002
 11
57.6596
 21
-12.8295
  0
LINE
  8
0
 10
57.6596
 20
-12.8295
 11
57.7877
 21
-12.2832
  0
LINE
  8
0
 10
57.7877
 20
-12.2832
 11
58.1827
 21
-10.2126
  0
LINE
  8
0
 10
58.1827
 20
-10.2126
 11
58.0926
 21
-10.2079
  0
LINE
  8
0
 10
58.0926
 20
-10.2079
 11
57.7221
 21
-10.0191
  0
LINE
  8
0
 10
57.7221
 20
-10.0191
 11
57.4604
 21
-9.69594
  0
LINE
  8
0
 10
57.4604
 20
-9.69594
 11
57.3528
 21
-9.29428
  0
LINE
  8
0
 10
57.3528
 20
-9.29428
 11
57.4178
 21
-8.88358
  0
LINE
  8
0
 10
57.4178
 20
-8.88358
 11
57.6443
 21
-8.53484
  0
LINE
  8
0
 10
57.6443
 20
-8.53484
 11
57.993
 21
-8.30836
  0
LINE
  8
0
 10
57.993
 20
-8.30836
 11
58.4037
 21
-8.24332
  0
LINE
  8
0
 10
58.4037
 20
-8.24332
 11
58.4858
 21
-8.2653
  0
LINE
  8
0
 10
58.4858
 20
-8.2653
 11
58.6129
 21
-7.40453
  0
LINE
  8
0
 10
58.6129
 20
-7.40453
 11
58.8008
 21
-5.61624
  0
LINE
  8
0
 10
58.8008
 20
-5.61624
 11
58.7144
 21
-5.61852
  0
LINE
  8
0
 10
58.7144
 20
-5.61852
 11
58.3302
 21
-5.45938
  0
LINE
  8
0
 10
58.3302
 20
-5.45938
 11
58.044
 21
-5.15776
  0
LINE
  8
0
 10
58.044
 20
-5.15776
 11
57.9052
 21
-4.76578
  0
LINE
  8
0
 10
57.9052
 20
-4.76578
 11
57.9378
 21
-4.35124
  0
LINE
  8
0
 10
57.9378
 20
-4.35124
 11
58.1362
 21
-3.98581
  0
LINE
  8
0
 10
58.1362
 20
-3.98581
 11
58.4661
 21
-3.73267
  0
LINE
  8
0
 10
58.4661
 20
-3.73267
 11
58.8705
 21
-3.6356
  0
LINE
  8
0
 10
58.8705
 20
-3.6356
 11
58.9529
 21
-3.65088
  0
LINE
  8
0
 10
58.9529
 20
-3.65088
 11
59.0269
 21
-2.47395
  0
LINE
  8
0
 10
59.0269
 20
-2.47395
 11
59.0581
 21
-0.985687
  0
LINE
  8
0
 10
59.0581
 20
-0.985687
 11
58.9742
 21
-0.994507
  0
LINE
  8
0
 10
58.9742
 20
-0.994507
 11
58.5787
 21
-0.866013
  0
LINE
  8
0
 10
58.5787
 20
-0.866013
 11
58.2697
 21
-0.587784
  0
LINE
  8
0
 10
58.2697
 20
-0.587784
 11
58.1006
 21
-0.207901
  0
LINE
  8
0
 10
58.1006
 20
-0.207901
 11
58.1006
 21
0.207901
  0
LINE
  8
0
 10
58.1006
 20
0.207901
 11
58.2697
 21
0.587784
  0
LINE
  8
0
 10
58.2697
 20
0.587784
 11
58.5787
 21
0.866013
  0
LINE
  8
0
 10
58.5787
 20
0.866013
 11
58.9742
 21
0.994507
  0
LINE
  8
0
 10
58.9742
 20
0.994507
 11
59.0581
 21
0.985687
  0
LINE
  8
0
 10
59.0581
 20
0.985687
 11
59.0269
 21
2.47395
  0
LINE
  8
0
 10
59.0269
 20
2.47395
 11
58.9529
 21
3.65088
  0
LINE
  8
0
 10
58.9529
 20
3.65088
 11
58.8705
 21
3.6356
  0
LINE
  8
0
 10
58.8705
 20
3.6356
 11
58.4661
 21
3.73267
  0
LINE
  8
0
 10
58.4661
 20
3.73267
 11
58.1362
 21
3.98581
  0
LINE
  8
0
 10
58.1362
 20
3.98581
 11
57.9378
 21
4.35124
  0
LINE
  8
0
 10
57.9378
 20
4.35124
 11
57.9052
 21
4.76578
  0
LINE
  8
0
 10
57.9052
 20
4.76578
 11
58.044
 21
5.15776
  0
LINE
  8
0
 10
58.044
 20
5.15776
 11
58.3302
 21
5.45938
  0
LINE
  8
0
 10
58.3302
 20
5.45938
 11
58.7144
 21
5.61852
  0
LINE
  8
0
 10
58.7144
 20
5.61852
 11
58.8008
 21
5.61624
  0
LINE
  8
0
 10
58.8008
 20
5.61624
 11
58.6129
 21
7.40453
  0
LINE
  8
0
 10
58.6129
 20
7.40453
 11
58.4858
 21
8.2653
  0
LINE
  8
0
 10
58.4858
 20
8.2653
 11
58.4037
 21
8.24332
  0
LINE
  8
0
 10
58.4037
 20
8.24332
 11
57.993
 21
8.30836
  0
LINE
  8
0
 10
57.993
 20
8.30836
 11
57.6443
 21
8.53484
  0
LINE
  8
0
 10
57.6443
 20
8.53484
 11
57.4178
 21
8.88358
  0
LINE
  8
0
 10
57.4178
 20
8.88358
 11
57.3528
 21
9.29428
  0
LINE
  8
0
 10
57.3528
 20
9.29428
 11
57.4604
 21
9.69594
  0
LINE
  8
0
 10
57.4604
 20
9.69594
 11
57.7221
 21
10.0191
  0
LINE
  8
0
 10
57.7221
 20
10.0191
 11
58.0926
 21
10.2079
  0
LINE
  8
0
 10
58.0926
 20
10.2079
 11
58.1827
 21
10.2126
  0
LINE
  8
0
 10
58.1827
 20
10.2126
 11
57.7877
 21
12.2832
  0
LINE
  8
0
 10
57.7877
 20
12.2832
 11
57.6596
 21
12.8295
  0
LINE
  8
0
 10
57.6596
 20
12.8295
 11
57.5769
 21
12.8002
  0
LINE
  8
0
 10
57.5769
 20
12.8002
 11
57.1624
 21
12.8328
  0
LINE
  8
0
 10
57.1624
 20
12.8328
 11
56.797
 21
13.0312
  0
LINE
  8
0
 10
56.797
 20
13.0312
 11
56.5438
 21
13.3611
  0
LINE
  8
0
 10
56.5438
 20
13.3611
 11
56.4467
 21
13.7655
  0
LINE
  8
0
 10
56.4467
 20
13.7655
 11
56.5225
 21
14.1743
  0
LINE
  8
0
 10
56.5225
 20
14.1743
 11
56.758
 21
14.517
  0
LINE
  8
0
 10
56.758
 20
14.517
 11
57.1126
 21
14.7343
  0
LINE
  8
0
 10
57.1126
 20
14.7343
 11
57.2075
 21
14.7468
  0
LINE
  8
0
 10
57.2075
 20
14.7468
 11
56.5572
 21
17.0756
  0
LINE
  8
0
 10
56.5572
 20
17.0756
 11
56.4792
 21
17.3156
  0
LINE
  8
0
 10
56.4792
 20
17.3156
 11
56.3951
 21
17.2782
  0
LINE
  8
0
 10
56.3951
 20
17.2782
 11
55.9793
 21
17.2782
  0
LINE
  8
0
 10
55.9793
 20
17.2782
 11
55.5994
 21
17.4473
  0
LINE
  8
0
 10
55.5994
 20
17.4473
 11
55.3212
 21
17.7563
  0
LINE
  8
0
 10
55.3212
 20
17.7563
 11
55.1927
 21
18.1518
  0
LINE
  8
0
 10
55.1927
 20
18.1518
 11
55.2362
 21
18.5654
  0
LINE
  8
0
 10
55.2362
 20
18.5654
 11
55.4441
 21
18.9255
  0
LINE
  8
0
 10
55.4441
 20
18.9255
 11
55.7805
 21
19.1699
  0
LINE
  8
0
 10
55.7805
 20
19.1699
 11
55.8705
 21
19.189
  0
LINE
  8
0
 10
55.8705
 20
19.189
 11
55.7926
 21
19.429
  0
LINE
  8
0
 10
55.7926
 20
19.429
 11
54.9498
 21
21.6953
  0
LINE
  8
0
 10
54.9498
 20
21.6953
 11
54.8657
 21
21.6496
  0
LINE
  8
0
 10
54.8657
 20
21.6496
 11
54.4511
 21
21.617
  0
LINE
  8
0
 10
54.4511
 20
21.617
 11
54.0591
 21
21.7558
  0
LINE
  8
0
 10
54.0591
 20
21.7558
 11
53.7575
 21
22.042
  0
LINE
  8
0
 10
53.7575
 20
22.042
 11
53.5984
 21
22.4262
  0
LINE
  8
0
 10
53.5984
 20
22.4262
 11
53.6093
 21
22.8419
  0
LINE
  8
0
 10
53.6093
 20
22.8419
 11
53.7883
 21
23.2172
  0
LINE
  8
0
 10
53.7883
 20
23.2172
 11
54.1045
 21
23.4873
  0
LINE
  8
0
 10
54.1045
 20
23.4873
 11
54.1886
 21
23.5122
  0
LINE
  8
0
 10
54.1886
 20
23.5122
 11
53.9711
 21
24.0295
  0
LINE
  8
0
 10
53.9711
 20
24.0295
 11
53.0736
 21
25.9368
  0
LINE
  8
0
 10
53.0736
 20
25.9368
 11
52.9979
 21
25.8876
  0
LINE
  8
0
 10
52.9979
 20
25.8876
 11
52.5872
 21
25.8226
  0
LINE
  8
0
 10
52.5872
 20
25.8226
 11
52.1855
 21
25.9302
  0
LINE
  8
0
 10
52.1855
 20
25.9302
 11
51.8624
 21
26.1919
  0
LINE
  8
0
 10
51.8624
 20
26.1919
 11
51.6736
 21
26.5624
  0
LINE
  8
0
 10
51.6736
 20
26.5624
 11
51.6519
 21
26.9776
  0
LINE
  8
0
 10
51.6519
 20
26.9776
 11
51.8009
 21
27.3658
  0
LINE
  8
0
 10
51.8009
 20
27.3658
 11
52.0949
 21
27.6599
  0
LINE
  8
0
 10
52.0949
 20
27.6599
 11
52.1742
 21
27.6903
  0
LINE
  8
0
 10
52.1742
 20
27.6903
 11
51.7711
 21
28.4614
  0
LINE
  8
0
 10
51.7711
 20
28.4614
 11
50.872
 21
30.0186
  0
LINE
  8
0
 10
50.872
 20
30.0186
 11
50.8034
 21
29.966
  0
LINE
  8
0
 10
50.8034
 20
29.966
 11
50.3991
 21
29.8689
  0
LINE
  8
0
 10
50.3991
 20
29.8689
 11
49.9902
 21
29.9447
  0
LINE
  8
0
 10
49.9902
 20
29.9447
 11
49.6475
 21
30.1802
  0
LINE
  8
0
 10
49.6475
 20
30.1802
 11
49.4303
 21
30.5347
  0
LINE
  8
0
 10
49.4303
 20
30.5347
 11
49.376
 21
30.947
  0
LINE
  8
0
 10
49.376
 20
30.947
 11
49.4941
 21
31.3457
  0
LINE
  8
0
 10
49.4941
 20
31.3457
 11
49.7641
 21
31.6619
  0
LINE
  8
0
 10
49.7641
 20
31.6619
 11
49.8398
 21
31.698
  0
LINE
  8
0
 10
49.8398
 20
31.698
 11
49.2079
 21
32.6937
  0
LINE
  8
0
 10
49.2079
 20
32.6937
 11
48.3584
 21
33.916
  0
LINE
  8
0
 10
48.3584
 20
33.916
 11
48.2957
 21
33.8596
  0
LINE
  8
0
 10
48.2957
 20
33.8596
 11
47.9002
 21
33.7311
  0
LINE
  8
0
 10
47.9002
 20
33.7311
 11
47.4867
 21
33.7746
  0
LINE
  8
0
 10
47.4867
 20
33.7746
 11
47.1266
 21
33.9825
  0
LINE
  8
0
 10
47.1266
 20
33.9825
 11
46.8822
 21
34.3189
  0
LINE
  8
0
 10
46.8822
 20
34.3189
 11
46.7957
 21
34.7256
  0
LINE
  8
0
 10
46.7957
 20
34.7256
 11
46.8822
 21
35.1323
  0
LINE
  8
0
 10
46.8822
 20
35.1323
 11
47.1266
 21
35.4688
  0
LINE
  8
0
 10
47.1266
 20
35.4688
 11
47.1996
 21
35.5109
  0
LINE
  8
0
 10
47.1996
 20
35.5109
 11
46.2996
 21
36.6966
  0
LINE
  8
0
 10
46.2996
 20
36.6966
 11
45.5479
 21
37.6053
  0
LINE
  8
0
 10
45.5479
 20
37.6053
 11
45.4902
 21
37.5444
  0
LINE
  8
0
 10
45.4902
 20
37.5444
 11
45.1061
 21
37.3853
  0
LINE
  8
0
 10
45.1061
 20
37.3853
 11
44.6904
 21
37.3962
  0
LINE
  8
0
 10
44.6904
 20
37.3962
 11
44.3151
 21
37.5752
  0
LINE
  8
0
 10
44.3151
 20
37.5752
 11
44.045
 21
37.8914
  0
LINE
  8
0
 10
44.045
 20
37.8914
 11
43.9269
 21
38.2901
  0
LINE
  8
0
 10
43.9269
 20
38.2901
 11
43.9812
 21
38.7024
  0
LINE
  8
0
 10
43.9812
 20
38.7024
 11
44.1985
 21
39.0569
  0
LINE
  8
0
 10
44.1985
 20
39.0569
 11
44.2697
 21
39.1059
  0
LINE
  8
0
 10
44.2697
 20
39.1059
 11
43.0665
 21
40.4422
  0
LINE
  8
0
 10
43.0665
 20
40.4422
 11
42.4578
 21
41.0639
  0
LINE
  8
0
 10
42.4578
 20
41.0639
 11
42.4043
 21
40.9978
  0
LINE
  8
0
 10
42.4043
 20
40.9978
 11
42.0338
 21
40.8091
  0
LINE
  8
0
 10
42.0338
 20
40.8091
 11
41.6185
 21
40.7873
  0
LINE
  8
0
 10
41.6185
 20
40.7873
 11
41.2303
 21
40.9363
  0
LINE
  8
0
 10
41.2303
 20
40.9363
 11
40.9363
 21
41.2303
  0
LINE
  8
0
 10
40.9363
 20
41.2303
 11
40.7873
 21
41.6185
  0
LINE
  8
0
 10
40.7873
 20
41.6185
 11
40.8091
 21
42.0338
  0
LINE
  8
0
 10
40.8091
 20
42.0338
 11
40.9978
 21
42.4043
  0
LINE
  8
0
 10
40.9978
 20
42.4043
 11
41.068
 21
42.4611
  0
LINE
  8
0
 10
41.068
 20
42.4611
 11
39.5314
 21
43.9041
  0
LINE
  8
0
 10
39.5314
 20
43.9041
 11
39.1066
 21
44.2707
  0
LINE
  8
0
 10
39.1066
 20
44.2707
 11
39.0569
 21
44.1985
  0
LINE
  8
0
 10
39.0569
 20
44.1985
 11
38.7024
 21
43.9812
  0
LINE
  8
0
 10
38.7024
 20
43.9812
 11
38.2901
 21
43.9269
  0
LINE
  8
0
 10
38.2901
 20
43.9269
 11
37.8914
 21
44.045
  0
LINE
  8
0
 10
37.8914
 20
44.045
 11
37.5752
 21
44.3151
  0
LINE
  8
0
 10
37.5752
 20
44.3151
 11
37.3962
 21
44.6904
  0
LINE
  8
0
 10
37.3962
 20
44.6904
 11
37.3853
 21
45.1061
  0
LINE
  8
0
 10
37.3853
 20
45.1061
 11
37.5444
 21
45.4902
  0
LINE
  8
0
 10
37.5444
 20
45.4902
 11
37.6139
 21
45.5561
  0
LINE
  8
0
 10
37.6139
 20
45.5561
 11
35.7189
 21
47.058
  0
LINE
  8
0
 10
35.7189
 20
47.058
 11
35.5148
 21
47.2063
  0
LINE
  8
0
 10
35.5148
 20
47.2063
 11
35.4688
 21
47.1266
  0
LINE
  8
0
 10
35.4688
 20
47.1266
 11
35.1323
 21
46.8822
  0
LINE
  8
0
 10
35.1323
 20
46.8822
 11
34.7256
 21
46.7957
  0
LINE
  8
0
 10
34.7256
 20
46.7957
 11
34.3189
 21
46.8822
  0
LINE
  8
0
 10
34.3189
 20
46.8822
 11
33.9825
 21
47.1266
  0
LINE
  8
0
 10
33.9825
 20
47.1266
 11
33.7746
 21
47.4867
  0
LINE
  8
0
 10
33.7746
 20
47.4867
 11
33.7311
 21
47.9002
  0
LINE
  8
0
 10
33.7311
 20
47.9002
 11
33.8596
 21
48.2957
  0
LINE
  8
0
 10
33.8596
 20
48.2957
 11
33.9212
 21
48.3641
  0
LINE
  8
0
 10
33.9212
 20
48.3641
 11
33.717
 21
48.5125
  0
LINE
  8
0
 10
33.717
 20
48.5125
 11
31.7031
 21
49.8505
  0
LINE
  8
0
 10
31.7031
 20
49.8505
 11
31.6619
 21
49.7641
  0
LINE
  8
0
 10
31.6619
 20
49.7641
 11
31.3457
 21
49.4941
  0
LINE
  8
0
 10
31.3457
 20
49.4941
 11
30.947
 21
49.376
  0
LINE
  8
0
 10
30.947
 20
49.376
 11
30.5347
 21
49.4303
  0
LINE
  8
0
 10
30.5347
 20
49.4303
 11
30.1802
 21
49.6475
  0
LINE
  8
0
 10
30.1802
 20
49.6475
 11
29.9447
 21
49.9902
  0
LINE
  8
0
 10
29.9447
 20
49.9902
 11
29.8689
 21
50.3991
  0
LINE
  8
0
 10
29.8689
 20
50.3991
 11
29.966
 21
50.8034
  0
LINE
  8
0
 10
29.966
 20
50.8034
 11
30.0194
 21
50.873
  0
LINE
  8
0
 10
30.0194
 20
50.873
 11
29.5394
 21
51.1637
  0
LINE
  8
0
 10
29.5394
 20
51.1637
 11
27.6922
 21
52.1792
  0
LINE
  8
0
 10
27.6922
 20
52.1792
 11
27.6599
 21
52.0949
  0
LINE
  8
0
 10
27.6599
 20
52.0949
 11
27.3658
 21
51.8009
  0
LINE
  8
0
 10
27.3658
 20
51.8009
 11
26.9776
 21
51.6519
  0
LINE
  8
0
 10
26.9776
 20
51.6519
 11
26.5624
 21
51.6736
  0
LINE
  8
0
 10
26.5624
 20
51.6736
 11
26.1919
 21
51.8624
  0
LINE
  8
0
 10
26.1919
 20
51.8624
 11
25.9302
 21
52.1855
  0
LINE
  8
0
 10
25.9302
 20
52.1855
 11
25.8226
 21
52.5872
  0
LINE
  8
0
 10
25.8226
 20
52.5872
 11
25.8876
 21
52.9979
  0
LINE
  8
0
 10
25.8876
 20
52.9979
 11
25.9339
 21
53.0692
  0
LINE
  8
0
 10
25.9339
 20
53.0692
 11
25.1545
 21
53.456
  0
LINE
  8
0
 10
25.1545
 20
53.456
 11
23.5118
 21
54.1874
  0
LINE
  8
0
 10
23.5118
 20
54.1874
 11
23.4873
 21
54.1045
  0
LINE
  8
0
 10
23.4873
 20
54.1045
 11
23.2172
 21
53.7883
  0
LINE
  8
0
 10
23.2172
 20
53.7883
 11
22.8419
 21
53.6093
  0
LINE
  8
0
 10
22.8419
 20
53.6093
 11
22.4262
 21
53.5984
  0
LINE
  8
0
 10
22.4262
 20
53.5984
 11
22.042
 21
53.7575
  0
LINE
  8
0
 10
22.042
 20
53.7575
 11
21.7558
 21
54.0591
  0
LINE
  8
0
 10
21.7558
 20
54.0591
 11
21.617
 21
54.4511
  0
LINE
  8
0
 10
21.617
 20
54.4511
 11
21.6496
 21
54.8657
  0
LINE
  8
0
 10
21.6496
 20
54.8657
 11
21.6896
 21
54.9393
  0
LINE
  8
0
 10
21.6896
 20
54.9393
 11
20.5932
 21
55.3734
  0
LINE
  8
0
 10
20.5932
 20
55.3734
 11
19.1874
 21
55.863
  0
LINE
  8
0
 10
19.1874
 20
55.863
 11
19.1699
 21
55.7805
  0
LINE
  8
0
 10
19.1699
 20
55.7805
 11
18.9255
 21
55.4441
  0
LINE
  8
0
 10
18.9255
 20
55.4441
 11
18.5654
 21
55.2362
  0
LINE
  8
0
 10
18.5654
 20
55.2362
 11
18.1518
 21
55.1927
  0
LINE
  8
0
 10
18.1518
 20
55.1927
 11
17.7563
 21
55.3212
  0
LINE
  8
0
 10
17.7563
 20
55.3212
 11
17.4473
 21
55.5994
  0
LINE
  8
0
 10
17.4473
 20
55.5994
 11
17.2782
 21
55.9793
  0
LINE
  8
0
 10
17.2782
 20
55.9793
 11
17.2782
 21
56.3951
  0
LINE
  8
0
 10
17.2782
 20
56.3951
 11
17.3125
 21
56.4722
  0
LINE
  8
0
 10
17.3125
 20
56.4722
 11
15.8874
 21
56.9024
  0
LINE
  8
0
 10
15.8874
 20
56.9024
 11
14.7452
 21
57.1957
  0
LINE
  8
0
 10
14.7452
 20
57.1957
 11
14.7343
 21
57.1126
  0
LINE
  8
0
 10
14.7343
 20
57.1126
 11
14.517
 21
56.758
  0
LINE
  8
0
 10
14.517
 20
56.758
 11
14.1743
 21
56.5225
  0
LINE
  8
0
 10
14.1743
 20
56.5225
 11
13.7655
 21
56.4467
  0
LINE
  8
0
 10
13.7655
 20
56.4467
 11
13.3611
 21
56.5438
  0
LINE
  8
0
 10
13.3611
 20
56.5438
 11
13.0312
 21
56.797
  0
LINE
  8
0
 10
13.0312
 20
56.797
 11
12.8328
 21
57.1624
  0
LINE
  8
0
 10
12.8328
 20
57.1624
 11
12.8002
 21
57.5769
  0
LINE
  8
0
 10
12.8002
 20
57.5769
 11
12.8291
 21
57.6584
  0
LINE
  8
0
 10
12.8291
 20
57.6584
 11
11.0703
 21
58.0323
  0
LINE
  8
0
 10
11.0703
 20
58.0323
 11
10.2123
 21
58.1774
  0
LINE
  8
0
 10
10.2123
 20
58.1774
 11
10.2079
 21
58.0926
  0
LINE
  8
0
 10
10.2079
 20
58.0926
 11
10.0191
 21
57.7221
  0
LINE
  8
0
 10
10.0191
 20
57.7221
 11
9.69594
 21
57.4604
  0
LINE
  8
0
 10
9.69594
 20
57.4604
 11
9.29428
 21
57.3528
  0
LINE
  8
0
 10
9.29428
 20
57.3528
 11
8.88358
 21
57.4178
  0
LINE
  8
0
 10
8.88358
 20
57.4178
 11
8.53484
 21
57.6443
  0
LINE
  8
0
 10
8.53484
 20
57.6443
 11
8.30836
 21
57.993
  0
LINE
  8
0
 10
8.30836
 20
57.993
 11
8.24332
 21
58.4037
  0
LINE
  8
0
 10
8.24332
 20
58.4037
 11
8.26668
 21
58.4909
  0
LINE
  8
0
 10
8.26668
 20
58.4909
 11
6.1754
 21
58.7551
  0
LINE
  8
0
 10
6.1754
 20
58.7551
 11
5.61621
 21
58.802
  0
LINE
  8
0
 10
5.61621
 20
58.802
 11
5.61852
 21
58.7144
  0
LINE
  8
0
 10
5.61852
 20
58.7144
 11
5.45938
 21
58.3302
  0
LINE
  8
0
 10
5.45938
 20
58.3302
 11
5.15776
 21
58.044
  0
LINE
  8
0
 10
5.15776
 20
58.044
 11
4.76578
 21
57.9052
  0
LINE
  8
0
 10
4.76578
 20
57.9052
 11
4.35124
 21
57.9378
  0
LINE
  8
0
 10
4.35124
 20
57.9378
 11
3.98581
 21
58.1362
  0
LINE
  8
0
 10
3.98581
 20
58.1362
 11
3.73267
 21
58.4661
  0
LINE
  8
0
 10
3.73267
 20
58.4661
 11
3.6356
 21
58.8705
  0
LINE
  8
0
 10
3.6356
 20
58.8705
 11
3.65305
 21
58.9645
  0
LINE
  8
0
 10
3.65305
 20
58.9645
 11
1.23724
 21
59.0658
  0
LINE
  8
0
 10
1.23724
 20
59.0658
 11
0.984879
 21
59.0658
  0
LINE
  8
0
 10
0.984879
 20
59.0658
 11
0.994507
 21
58.9742
  0
LINE
  8
0
 10
0.994507
 20
58.9742
 11
0.866013
 21
58.5787
  0
LINE
  8
0
 10
0.866013
 20
58.5787
 11
0.587784
 21
58.2697
  0
LINE
  8
0
 10
0.587784
 20
58.2697
 11
0.207901
 21
58.1006
  0
LINE
  8
0
 10
0.207901
 20
58.1006
 11
-0.207901
 21
58.1006
  0
LINE
  8
0
 10
-0.207901
 20
58.1006
 11
-0.587784
 21
58.2697
  0
LINE
  8
0
 10
-0.587784
 20
58.2697
 11
-0.866013
 21
58.5787
  0
LINE
  8
0
 10
-0.866013
 20
58.5787
 11
-0.994507
 21
58.9742
  0
LINE
  8
0
 10
-0.994507
 20
58.9742
 11
-0.984879
 21
59.0658
  0
LINE
  8
0
 10
-0.984879
 20
59.0658
 11
-1.23724
 21
59.0658
  0
LINE
  8
0
 10
-1.23724
 20
59.0658
 11
-3.65305
 21
58.9645
  0
LINE
  8
0
 10
-3.65305
 20
58.9645
 11
-3.6356
 21
58.8705
  0
LINE
  8
0
 10
-3.6356
 20
58.8705
 11
-3.73267
 21
58.4661
  0
LINE
  8
0
 10
-3.73267
 20
58.4661
 11
-3.98581
 21
58.1362
  0
LINE
  8
0
 10
-3.98581
 20
58.1362
 11
-4.35124
 21
57.9378
  0
LINE
  8
0
 10
-4.35124
 20
57.9378
 11
-4.76578
 21
57.9052
  0
LINE
  8
0
 10
-4.76578
 20
57.9052
 11
-5.15776
 21
58.044
  0
LINE
  8
0
 10
-5.15776
 20
58.044
 11
-5.45938
 21
58.3302
  0
LINE
  8
0
 10
-5.45938
 20
58.3302
 11
-5.61852
 21
58.7144
  0
LINE
  8
0
 10
-5.61852
 20
58.7144
 11
-5.61621
 21
58.802
  0
LINE
  8
0
 10
-5.61621
 20
58.802
 11
-6.1754
 21
58.7551
  0
LINE
  8
0
 10
-6.1754
 20
58.7551
 11
-8.26668
 21
58.4909
  0
LINE
  8
0
 10
-8.26668
 20
58.4909
 11
-8.24332
 21
58.4037
  0
LINE
  8
0
 10
-8.24332
 20
58.4037
 11
-8.30836
 21
57.993
  0
LINE
  8
0
 10
-8.30836
 20
57.993
 11
-8.53484
 21
57.6443
  0
LINE
  8
0
 10
-8.53484
 20
57.6443
 11
-8.88358
 21
57.4178
  0
LINE
  8
0
 10
-8.88358
 20
57.4178
 11
-9.29428
 21
57.3528
  0
LINE
  8
0
 10
-9.29428
 20
57.3528
 11
-9.69594
 21
57.4604
  0
LINE
  8
0
 10
-9.69594
 20
57.4604
 11
-10.0191
 21
57.7221
  0
LINE
  8
0
 10
-10.0191
 20
57.7221
 11
-10.2079
 21
58.0926
  0
LINE
  8
0
 10
-10.2079
 20
58.0926
 11
-10.2123
 21
58.1774
  0
LINE
  8
0
 10
-10.2123
 20
58.1774
 11
-11.0703
 21
58.0323
  0
LINE
  8
0
 10
-11.0703
 20
58.0323
 11
-12.8291
 21
57.6584
  0
LINE
  8
0
 10
-12.8291
 20
57.6584
 11
-12.8002
 21
57.5769
  0
LINE
  8
0
 10
-12.8002
 20
57.5769
 11
-12.8328
 21
57.1624
  0
LINE
  8
0
 10
-12.8328
 20
57.1624
 11
-13.0312
 21
56.797
  0
LINE
  8
0
 10
-13.0312
 20
56.797
 11
-13.3611
 21
56.5438
  0
LINE
  8
0
 10
-13.3611
 20
56.5438
 11
-13.7655
 21
56.4467
  0
LINE
  8
0
 10
-13.7655
 20
56.4467
 11
-14.1743
 21
56.5225
  0
LINE
  8
0
 10
-14.1743
 20
56.5225
 11
-14.517
 21
56.758
  0
LINE
  8
0
 10
-14.517
 20
56.758
 11
-14.7343
 21
57.1126
  0
LINE
  8
0
 10
-14.7343
 20
57.1126
 11
-14.7452
 21
57.1957
  0
LINE
  8
0
 10
-14.7452
 20
57.1957
 11
-15.8874
 21
56.9024
  0
LINE
  8
0
 10
-15.8874
 20
56.9024
 11
-17.3125
 21
56.4722
  0
LINE
  8
0
 10
-17.3125
 20
56.4722
 11
-17.2782
 21
56.3951
  0
LINE
  8
0
 10
-17.2782
 20
56.3951
 11
-17.2782
 21
55.9793
  0
LINE
  8
0
 10
-17.2782
 20
55.9793
 11
-17.4473
 21
55.5994
  0
LINE
  8
0
 10
-17.4473
 20
55.5994
 11
-17.7563
 21
55.3212
  0
LINE
  8
0
 10
-17.7563
 20
55.3212
 11
-18.1518
 21
55.1927
  0
LINE
  8
0
 10
-18.1518
 20
55.1927
 11
-18.5654
 21
55.2362
  0
LINE
  8
0
 10
-18.5654
 20
55.2362
 11
-18.9255
 21
55.4441
  0
LINE
  8
0
 10
-18.9255
 20
55.4441
 11
-19.1699
 21
55.7805
  0
LINE
  8
0
 10
-19.1699
 20
55.7805
 11
-19.1874
 21
55.863
  0
LINE
  8
0
 10
-19.1874
 20
55.863
 11
-20.5932
 21
55.3734
  0
LINE
  8
0
 10
-20.5932
 20
55.3734
 11
-21.6896
 21
54.9393
  0
LINE
  8
0
 10
-21.6896
 20
54.9393
 11
-21.6496
 21
54.8657
  0
LINE
  8
0
 10
-21.6496
 20
54.8657
 11
-21.617
 21
54.4511
  0
LINE
  8
0
 10
-21.617
 20
54.4511
 11
-21.7558
 21
54.0591
  0
LINE
  8
0
 10
-21.7558
 20
54.0591
 11
-22.042
 21
53.7575
  0
LINE
  8
0
 10
-22.042
 20
53.7575
 11
-22.4262
 21
53.5984
  0
LINE
  8
0
 10
-22.4262
 20
53.5984
 11
-22.8419
 21
53.6093
  0
LINE
  8
0
 10
-22.8419
 20
53.6093
 11
-23.2172
 21
53.7883
  0
LINE
  8
0
 10
-23.2172
 20
53.7883
 11
-23.4873
 21
54.1045
  0
LINE
  8
0
 10
-23.4873
 20
54.1045
 11
-23.5118
 21
54.1874
  0
LINE
  8
0
 10
-23.5118
 20
54.1874
 11
-25.1545
 21
53.456
  0
LINE
  8
0
 10
-25.1545
 20
53.456
 11
-25.9339
 21
53.0692
  0
LINE
  8
0
 10
-25.9339
 20
53.0692
 11
-25.8876
 21
52.9979
  0
LINE
  8
0
 10
-25.8876
 20
52.9979
 11
-25.8226
 21
52.5872
  0
LINE
  8
0
 10
-25.8226
 20
52.5872
 11
-25.9302
 21
52.1855
  0
LINE
  8
0
 10
-25.9302
 20
52.1855
 11
-26.1919
 21
51.8624
  0
LINE
  8
0
 10
-26.1919
 20
51.8624
 11
-26.5624
 21
51.6736
  0
LINE
  8
0
 10
-26.5624
 20
51.6736
 11
-26.9776
 21
51.6519
  0
LINE
  8
0
 10
-26.9776
 20
51.6519
 11
-27.3658
 21
51.8009
  0
LINE
  8
0
 10
-27.3658
 20
51.8009
 11
-27.6599
 21
52.0949
  0
LINE
  8
0
 10
-27.6599
 20
52.0949
 11
-27.6922
 21
52.1792
  0
LINE
  8
0
 10
-27.6922
 20
52.1792
 11
-29.5394
 21
51.1637
  0
LINE
  8
0
 10
-29.5394
 20
51.1637
 11
-30.0194
 21
50.873
  0
LINE
  8
0
 10
-30.0194
 20
50.873
 11
-29.966
 21
50.8034
  0
LINE
  8
0
 10
-29.966
 20
50.8034
 11
-29.8689
 21
50.3991
  0
LINE
  8
0
 10
-29.8689
 20
50.3991
 11
-29.9447
 21
49.9902
  0
LINE
  8
0
 10
-29.9447
 20
49.9902
 11
-30.1802
 21
49.6475
  0
LINE
  8
0
 10
-30.1802
 20
49.6475
 11
-30.5347
 21
49.4303
  0
LINE
  8
0
 10
-30.5347
 20
49.4303
 11
-30.947
 21
49.376
  0
LINE
  8
0
 10
-30.947
 20
49.376
 11
-31.3457
 21
49.4941
  0
LINE
  8
0
 10
-31.3457
 20
49.4941
 11
-31.6619
 21
49.7641
  0
LINE
  8
0
 10
-31.6619
 20
49.7641
 11
-31.7031
 21
49.8505
  0
LINE
  8
0
 10
-31.7031
 20
49.8505
 11
-33.717
 21
48.5125
  0
LINE
  8
0
 10
-33.717
 20
48.5125
 11
-33.9212
 21
48.3641
  0
LINE
  8
0
 10
-33.9212
 20
48.3641
 11
-33.8596
 21
48.2957
  0
LINE
  8
0
 10
-33.8596
 20
48.2957
 11
-33.7311
 21
47.9002
  0
LINE
  8
0
 10
-33.7311
 20
47.9002
 11
-33.7746
 21
47.4867
  0
LINE
  8
0
 10
-33.7746
 20
47.4867
 11
-33.9825
 21
47.1266
  0
LINE
  8
0
 10
-33.9825
 20
47.1266
 11
-34.3189
 21
46.8822
  0
LINE
  8
0
 10
-34.3189
 20
46.8822
 11
-34.7256
 21
46.7957
  0
LINE
  8
0
 10
-34.7256
 20
46.7957
 11
-35.1323
 21
46.8822
  0
LINE
  8
0
 10
-35.1323
 20
46.8822
 11
-35.4688
 21
47.1266
  0
LINE
  8
0
 10
-35.4688
 20
47.1266
 11
-35.5148
 21
47.2063
  0
LINE
  8
0
 10
-35.5148
 20
47.2063
 11
-35.7189
 21
47.058
  0
LINE
  8
0
 10
-35.7189
 20
47.058
 11
-37.6139
 21
45.5561
  0
LINE
  8
0
 10
-37.6139
 20
45.5561
 11
-37.5444
 21
45.4902
  0
LINE
  8
0
 10
-37.5444
 20
45.4902
 11
-37.3853
 21
45.1061
  0
LINE
  8
0
 10
-37.3853
 20
45.1061
 11
-37.3962
 21
44.6904
  0
LINE
  8
0
 10
-37.3962
 20
44.6904
 11
-37.5752
 21
44.3151
  0
LINE
  8
0
 10
-37.5752
 20
44.3151
 11
-37.8914
 21
44.045
  0
LINE
  8
0
 10
-37.8914
 20
44.045
 11
-38.2901
 21
43.9269
  0
LINE
  8
0
 10
-38.2901
 20
43.9269
 11
-38.7024
 21
43.9812
  0
LINE
  8
0
 10
-38.7024
 20
43.9812
 11
-39.0569
 21
44.1985
  0
LINE
  8
0
 10
-39.0569
 20
44.1985
 11
-39.1066
 21
44.2707
  0
LINE
  8
0
 10
-39.1066
 20
44.2707
 11
-39.5314
 21
43.9041
  0
LINE
  8
0
 10
-39.5314
 20
43.9041
 11
-41.068
 21
42.4611
  0
LINE
  8
0
 10
-41.068
 20
42.4611
 11
-40.9978
 21
42.4043
  0
LINE
  8
0
 10
-40.9978
 20
42.4043
 11
-40.8091
 21
42.0338
  0
LINE
  8
0
 10
-40.8091
 20
42.0338
 11
-40.7873
 21
41.6185
  0
LINE
  8
0
 10
-40.7873
 20
41.6185
 11
-40.9363
 21
41.2303
  0
LINE
  8
0
 10
-40.9363
 20
41.2303
 11
-41.2303
 21
40.9363
  0
LINE
  8
0
 10
-41.2303
 20
40.9363
 11
-41.6185
 21
40.7873
  0
LINE
  8
0
 10
-41.6185
 20
40.7873
 11
-42.0338
 21
40.8091
  0
LINE
  8
0
 10
-42.0338
 20
40.8091
 11
-42.4043
 21
40.9978
  0
LINE
  8
0
 10
-42.4043
 20
40.9978
 11
-42.4578
 21
41.0639
  0
LINE
  8
0
 10
-42.4578
 20
41.0639
 11
-43.0665
 21
40.4422
  0
LINE
  8
0
 10
-43.0665
 20
40.4422
 11
-44.2697
 21
39.1059
  0
LINE
  8
0
 10
-44.2697
 20
39.1059
 11
-44.1985
 21
39.0569
  0
LINE
  8
0
 10
-44.1985
 20
39.0569
 11
-43.9812
 21
38.7024
  0
LINE
  8
0
 10
-43.9812
 20
38.7024
 11
-43.9269
 21
38.2901
  0
LINE
  8
0
 10
-43.9269
 20
38.2901
 11
-44.045
 21
37.8914
  0
LINE
  8
0
 10
-44.045
 20
37.8914
 11
-44.3151
 21
37.5752
  0
LINE
  8
0
 10
-44.3151
 20
37.5752
 11
-44.6904
 21
37.3962
  0
LINE
  8
0
 10
-44.6904
 20
37.3962
 11
-45.1061
 21
37.3853
  0
LINE
  8
0
 10
-45.1061
 20
37.3853
 11
-45.4902
 21
37.5444
  0
LINE
  8
0
 10
-45.4902
 20
37.5444
 11
-45.5479
 21
37.6053
  0
LINE
  8
0
 10
-45.5479
 20
37.6053
 11
-46.2996
 21
36.6966
  0
LINE
  8
0
 10
-46.2996
 20
36.6966
 11
-47.1996
 21
35.5109
  0
LINE
  8
0
 10
-47.1996
 20
35.5109
 11
-47.1266
 21
35.4688
  0
LINE
  8
0
 10
-47.1266
 20
35.4688
 11
-46.8822
 21
35.1323
  0
LINE
  8
0
 10
-46.8822
 20
35.1323
 11
-46.7957
 21
34.7256
  0
LINE
  8
0
 10
-46.7957
 20
34.7256
 11
-46.8822
 21
34.3189
  0
LINE
  8
0
 10
-46.8822
 20
34.3189
 11
-47.1266
 21
33.9825
  0
LINE
  8
0
 10
-47.1266
 20
33.9825
 11
-47.4867
 21
33.7746
  0
LINE
  8
0
 10
-47.4867
 20
33.7746
 11
-47.9002
 21
33.7311
  0
LINE
  8
0
 10
-47.9002
 20
33.7311
 11
-48.2957
 21
33.8596
  0
LINE
  8
0
 10
-48.2957
 20
33.8596
 11
-48.3584
 21
33.916
  0
LINE
  8
0
 10
-48.3584
 20
33.916
 11
-49.2079
 21
32.6937
  0
LINE
  8
0
 10
-49.2079
 20
32.6937
 11
-49.8398
 21
31.698
  0
LINE
  8
0
 10
-49.8398
 20
31.698
 11
-49.7641
 21
31.6619
  0
LINE
  8
0
 10
-49.7641
 20
31.6619
 11
-49.4941
 21
31.3457
  0
LINE
  8
0
 10
-49.4941
 20
31.3457
 11
-49.376
 21
30.947
  0
LINE
  8
0
 10
-49.376
 20
30.947
 11
-49.4303
 21
30.5347
  0
LINE
  8
0
 10
-49.4303
 20
30.5347
 11
-49.6475
 21
30.1802
  0
LINE
  8
0
 10
-49.6475
 20
30.1802
 11
-49.9902
 21
29.9447
  0
LINE
  8
0
 10
-49.9902
 20
29.9447
 11
-50.3991
 21
29.8689
  0
LINE
  8
0
 10
-50.3991
 20
29.8689
 11
-50.8034
 21
29.966
  0
LINE
  8
0
 10
-50.8034
 20
29.966
 11
-50.872
 21
30.0186
  0
LINE
  8
0
 10
-50.872
 20
30.0186
 11
-51.7711
 21
28.4614
  0
LINE
  8
0
 10
-51.7711
 20
28.4614
 11
-52.1742
 21
27.6903
  0
LINE
  8
0
 10
-52.1742
 20
27.6903
 11
-52.0949
 21
27.6599
  0
LINE
  8
0
 10
-52.0949
 20
27.6599
 11
-51.8009
 21
27.3658
  0
LINE
  8
0
 10
-51.8009
 20
27.3658
 11
-51.6519
 21
26.9776
  0
LINE
  8
0
 10
-51.6519
 20
26.9776
 11
-51.6736
 21
26.5624
  0
LINE
  8
0
 10
-51.6736
 20
26.5624
 11
-51.8624
 21
26.1919
  0
LINE
  8
0
 10
-51.8624
 20
26.1919
 11
-52.1855
 21
25.9302
  0
LINE
  8
0
 10
-52.1855
 20
25.9302
 11
-52.5872
 21
25.8226
  0
LINE
  8
0
 10
-52.5872
 20
25.8226
 11
-52.9979
 21
25.8876
  0
LINE
  8
0
 10
-52.9979
 20
25.8876
 11
-53.0736
 21
25.9368
  0
LINE
  8
0
 10
-53.0736
 20
25.9368
 11
-53.9711
 21
24.0295
  0
LINE
  8
0
 10
-53.9711
 20
24.0295
 11
-54.1886
 21
23.5122
  0
LINE
  8
0
 10
-54.1886
 20
23.5122
 11
-54.1045
 21
23.4873
  0
LINE
  8
0
 10
-54.1045
 20
23.4873
 11
-53.7883
 21
23.2172
  0
LINE
  8
0
 10
-53.7883
 20
23.2172
 11
-53.6093
 21
22.8419
  0
LINE
  8
0
 10
-53.6093
 20
22.8419
 11
-53.5984
 21
22.4262
  0
LINE
  8
0
 10
-53.5984
 20
22.4262
 11
-53.7575
 21
22.042
  0
LINE
  8
0
 10
-53.7575
 20
22.042
 11
-54.0591
 21
21.7558
  0
LINE
  8
0
 10
-54.0591
 20
21.7558
 11
-54.4511
 21
21.617
  0
LINE
  8
0
 10
-54.4511
 20
21.617
 11
-54.8657
 21
21.6496
  0
LINE
  8
0
 10
-54.8657
 20
21.6496
 11
-54.9498
 21
21.6953
  0
LINE
  8
0
 10
-54.9498
 20
21.6953
 11
-55.7926
 21
19.429
  0
LINE
  8
0
 10
-55.7926
 20
19.429
 11
-55.8705
 21
19.189
  0
LINE
  8
0
 10
-55.8705
 20
19.189
 11
-55.7805
 21
19.1699
  0
LINE
  8
0
 10
-55.7805
 20
19.1699
 11
-55.4441
 21
18.9255
  0
LINE
  8
0
 10
-55.4441
 20
18.9255
 11
-55.2362
 21
18.5654
  0
LINE
  8
0
 10
-55.2362
 20
18.5654
 11
-55.1927
 21
18.1518
  0
LINE
  8
0
 10
-55.1927
 20
18.1518
 11
-55.3212
 21
17.7563
  0
LINE
  8
0
 10
-55.3212
 20
17.7563
 11
-55.5994
 21
17.4473
  0
LINE
  8
0
 10
-55.5994
 20
17.4473
 11
-55.9793
 21
17.2782
  0
LINE
  8
0
 10
-55.9793
 20
17.2782
 11
-56.3951
 21
17.2782
  0
LINE
  8
0
 10
-56.3951
 20
17.2782
 11
-56.4792
 21
17.3156
  0
LINE
  8
0
 10
-56.4792
 20
17.3156
 11
-56.5572
 21
17.0756
  0
LINE
  8
0
 10
-56.5572
 20
17.0756
 11
-57.2075
 21
14.7468
  0
LINE
  8
0
 10
-57.2075
 20
14.7468
 11
-57.1126
 21
14.7343
  0
LINE
  8
0
 10
-57.1126
 20
14.7343
 11
-56.758
 21
14.517
  0
LINE
  8
0
 10
-56.758
 20
14.517
 11
-56.5225
 21
14.1743
  0
LINE
  8
0
 10
-56.5225
 20
14.1743
 11
-56.4467
 21
13.7655
  0
LINE
  8
0
 10
-56.4467
 20
13.7655
 11
-56.5438
 21
13.3611
  0
LINE
  8
0
 10
-56.5438
 20
13.3611
 11
-56.797
 21
13.0312
  0
LINE
  8
0
 10
-56.797
 20
13.0312
 11
-57.1624
 21
12.8328
  0
LINE
  8
0
 10
-57.1624
 20
12.8328
 11
-57.5769
 21
12.8002
  0
LINE
  8
0
 10
-57.5769
 20
12.8002
 11
-57.6596
 21
12.8295
  0
LINE
  8
0
 10
-57.6596
 20
12.8295
 11
-57.7877
 21
12.2832
  0
LINE
  8
0
 10
-57.7877
 20
12.2832
 11
-58.1827
 21
10.2126
  0
LINE
  8
0
 10
-58.1827
 20
10.2126
 11
-58.0926
 21
10.2079
  0
LINE
  8
0
 10
-58.0926
 20
10.2079
 11
-57.7221
 21
10.0191
  0
LINE
  8
0
 10
-57.7221
 20
10.0191
 11
-57.4604
 21
9.69594
  0
LINE
  8
0
 10
-57.4604
 20
9.69594
 11
-57.3528
 21
9.29428
  0
LINE
  8
0
 10
-57.3528
 20
9.29428
 11
-57.4178
 21
8.88358
  0
LINE
  8
0
 10
-57.4178
 20
8.88358
 11
-57.6443
 21
8.53484
  0
LINE
  8
0
 10
-57.6443
 20
8.53484
 11
-57.993
 21
8.30836
  0
LINE
  8
0
 10
-57.993
 20
8.30836
 11
-58.4037
 21
8.24332
  0
LINE
  8
0
 10
-58.4037
 20
8.24332
 11
-58.4858
 21
8.2653
  0
LINE
  8
0
 10
-58.4858
 20
8.2653
 11
-58.6129
 21
7.40453
  0
LINE
  8
0
 10
-58.6129
 20
7.40453
 11
-58.8008
 21
5.61624
  0
LINE
  8
0
 10
-58.8008
 20
5.61624
 11
-58.7144
 21
5.61852
  0
LINE
  8
0
 10
-58.7144
 20
5.61852
 11
-58.3302
 21
5.45938
  0
LINE
  8
0
 10
-58.3302
 20
5.45938
 11
-58.044
 21
5.15776
  0
LINE
  8
0
 10
-58.044
 20
5.15776
 11
-57.9052
 21
4.76578
  0
LINE
  8
0
 10
-57.9052
 20
4.76578
 11
-57.9378
 21
4.35124
  0
LINE
  8
0
 10
-57.9378
 20
4.35124
 11
-58.1362
 21
3.98581
  0
LINE
  8
0
 10
-58.1362
 20
3.98581
 11
-58.4661
 21
3.73267
  0
LINE
  8
0
 10
-58.4661
 20
3.73267
 11
-58.8705
 21
3.6356
  0
LINE
  8
0
 10
-58.8705
 20
3.6356
 11
-58.9529
 21
3.65088
  0
LINE
  8
0
 10
-58.9529
 20
3.65088
 11
-59.0269
 21
2.47395
  0
LINE
  8
0
 10
-59.0269
 20
2.47395
 11
-59.0581
 21
0.985687
  0
LINE
  8
0
 10
-59.0581
 20
0.985687
 11
-58.9742
 21
0.994507
  0
LINE
  8
0
 10
-58.9742
 20
0.994507
 11
-58.5787
 21
0.866013
  0
LINE
  8
0
 10
-58.5787
 20
0.866013
 11
-58.2697
 21
0.587784
  0
LINE
  8
0
 10
-58.2697
 20
0.587784
 11
-58.1006
 21
0.207901
  0
LINE
  8
0
 10
-58.1006
 20
0.207901
 11
-58.1006
 21
-0.207901
  0
LINE
  8
0
 10
-58.1006
 20
-0.207901
 11
-58.2697
 21
-0.587784
  0
LINE
  8
0
 10
-58.2697
 20
-0.587784
 11
-58.5787
 21
-0.866013
  0
LINE
  8
0
 10
-58.5787
 20
-0.866013
 11
-58.9742
 21
-0.994507
  0
LINE
  8
0
 10
-58.9742
 20
-0.994507
 11
-59.0581
 21
-0.985687
  0
LINE
  8
0
 10
-59.0581
 20
-0.985687
 11
-59.0269
 21
-2.47395
  0
LINE
  8
0
 10
-59.0269
 20
-2.47395
 11
-58.9529
 21
-3.65088
  0
LINE
  8
0
 10
-58.9529
 20
-3.65088
 11
-58.8705
 21
-3.6356
  0
LINE
  8
0
 10
-58.8705
 20
-3.6356
 11
-58.4661
 21
-3.73267
  0
LINE
  8
0
 10
-58.4661
 20
-3.73267
 11
-58.1362
 21
-3.98581
  0
LINE
  8
0
 10
-58.1362
 20
-3.98581
 11
-57.9378
 21
-4.35124
  0
LINE
  8
0
 10
-57.9378
 20
-4.35124
 11
-57.9052
 21
-4.76578
  0
LINE
  8
0
 10
-57.9052
 20
-4.76578
 11
-58.044
 21
-5.15776
  0
LINE
  8
0
 10
-58.044
 20
-5.15776
 11
-58.3302
 21
-5.45938
  0
LINE
  8
0
 10
-58.3302
 20
-5.45938
 11
-58.7144
 21
-5.61852
  0
LINE
  8
0
 10
-58.7144
 20
-5.61852
 11
-58.8008
 21
-5.61624
  0
LINE
  8
0
 10
-58.8008
 20
-5.61624
 11
-58.6129
 21
-7.40453
  0
LINE
  8
0
 10
-58.6129
 20
-7.40453
 11
-58.4858
 21
-8.2653
  0
LINE
  8
0
 10
-58.4858
 20
-8.2653
 11
-58.4037
 21
-8.24332
  0
LINE
  8
0
 10
-58.4037
 20
-8.24332
 11
-57.993
 21
-8.30836
  0
LINE
  8
0
 10
-57.993
 20
-8.30836
 11
-57.6443
 21
-8.53484
  0
LINE
  8
0
 10
-57.6443
 20
-8.53484
 11
-57.4178
 21
-8.88358
  0
LINE
  8
0
 10
-57.4178
 20
-8.88358
 11
-57.3528
 21
-9.29428
  0
LINE
  8
0
 10
-57.3528
 20
-9.29428
 11
-57.4604
 21
-9.69594
  0
LINE
  8
0
 10
-57.4604
 20
-9.69594
 11
-57.7221
 21
-10.0191
  0
LINE
  8
0
 10
-57.7221
 20
-10.0191
 11
-58.0926
 21
-10.2079
  0
LINE
  8
0
 10
-58.0926
 20
-10.2079
 11
-58.1827
 21
-10.2126
  0
LINE
  8
0
 10
-58.1827
 20
-10.2126
 11
-57.7877
 21
-12.2832
  0
LINE
  8
0
 10
-57.7877
 20
-12.2832
 11
-57.6596
 21
-12.8295
  0
LINE
  8
0
 10
-57.6596
 20
-12.8295
 11
-57.5769
 21
-12.8002
  0
LINE
  8
0
 10
-57.5769
 20
-12.8002
 11
-57.1624
 21
-12.8328
  0
LINE
  8
0
 10
-57.1624
 20
-12.8328
 11
-56.797
 21
-13.0312
  0
LINE
  8
0
 10
-56.797
 20
-13.0312
 11
-56.5438
 21
-13.3611
  0
LINE
  8
0
 10
-56.5438
 20
-13.3611
 11
-56.4467
 21
-13.7655
  0
LINE
  8
0
 10
-56.4467
 20
-13.7655
 11
-56.5225
 21
-14.1743
  0
LINE
  8
0
 10
-56.5225
 20
-14.1743
 11
-56.758
 21
-14.517
  0
LINE
  8
0
 10
-56.758
 20
-14.517
 11
-57.1126
 21
-14.7343
  0
LINE
  8
0
 10
-57.1126
 20
-14.7343
 11
-57.2075
 21
-14.7468
  0
LINE
  8
0
 10
-57.2075
 20
-14.7468
 11
-56.5572
 21
-17.0756
  0
LINE
  8
0
 10
-56.5572
 20
-17.0756
 11
-56.4792
 21
-17.3156
  0
LINE
  8
0
 10
-56.4792
 20
-17.3156
 11
-56.3951
 21
-17.2782
  0
LINE
  8
0
 10
-56.3951
 20
-17.2782
 11
-55.9793
 21
-17.2782
  0
LINE
  8
0
 10
-55.9793
 20
-17.2782
 11
-55.5994
 21
-17.4473
  0
LINE
  8
0
 10
-55.5994
 20
-17.4473
 11
-55.3212
 21
-17.7563
  0
LINE
  8
0
 10
-55.3212
 20
-17.7563
 11
-55.1927
 21
-18.1518
  0
LINE
  8
0
 10
-55.1927
 20
-18.1518
 11
-55.2362
 21
-18.5654
  0
LINE
  8
0
 10
-55.2362
 20
-18.5654
 11
-55.4441
 21
-18.9255
  0
LINE
  8
0
 10
-55.4441
 20
-18.9255
 11
-55.7805
 21
-19.1699
  0
LINE
  8
0
 10
-55.7805
 20
-19.1699
 11
-55.8705
 21
-19.189
  0
LINE
  8
0
 10
-55.8705
 20
-19.189
 11
-55.7926
 21
-19.429
  0
LINE
  8
0
 10
-55.7926
 20
-19.429
 11
-54.9498
 21
-21.6953
  0
LINE
  8
0
 10
-54.9498
 20
-21.6953
 11
-54.8657
 21
-21.6496
  0
LINE
  8
0
 10
-54.8657
 20
-21.6496
 11
-54.4511
 21
-21.617
  0
LINE
  8
0
 10
-54.4511
 20
-21.617
 11
-54.0591
 21
-21.7558
  0
LINE
  8
0
 10
-54.0591
 20
-21.7558
 11
-53.7575
 21
-22.042
  0
LINE
  8
0
 10
-53.7575
 20
-22.042
 11
-53.5984
 21
-22.4262
  0
LINE
  8
0
 10
-53.5984
 20
-22.4262
 11
-53.6093
 21
-22.8419
  0
LINE
  8
0
 10
-53.6093
 20
-22.8419
 11
-53.7883
 21
-23.2172
  0
LINE
  8
0
 10
-53.7883
 20
-23.2172
 11
-54.1045
 21
-23.4873
  0
LINE
  8
0
 10
-54.1045
 20
-23.4873
 11
-54.1886
 21
-23.5122
  0
LINE
  8
0
 10
-54.1886
 20
-23.5122
 11
-53.9711
 21
-24.0295
  0
LINE
  8
0
 10
-53.9711
 20
-24.0295
 11
-53.0736
 21
-25.9368
  0
LINE
  8
0
 10
-53.0736
 20
-25.9368
 11
-52.9979
 21
-25.8876
  0
LINE
  8
0
 10
-52.9979
 20
-25.8876
 11
-52.5872
 21
-25.8226
  0
LINE
  8
0
 10
-52.5872
 20
-25.8226
 11
-52.1855
 21
-25.9302
  0
LINE
  8
0
 10
-52.1855
 20
-25.9302
 11
-51.8624
 21
-26.1919
  0
LINE
  8
0
 10
-51.8624
 20
-26.1919
 11
-51.6736
 21
-26.5624
  0
LINE
  8
0
 10
-51.6736
 20
-26.5624
 11
-51.6519
 21
-26.9776
  0
LINE
  8
0
 10
-51.6519
 20
-26.9776
 11
-51.8009
 21
-27.3658
  0
LINE
  8
0
 10
-51.8009
 20
-27.3658
 11
-52.0949
 21
-27.6599
  0
LINE
  8
0
 10
-52.0949
 20
-27.6599
 11
-52.1742
 21
-27.6903
  0
LINE
  8
0
 10
-52.1742
 20
-27.6903
 11
-51.7711
 21
-28.4614
  0
LINE
  8
0
 10
-51.7711
 20
-28.4614
 11
-50.872
 21
-30.0186
  0
LINE
  8
0
 10
-50.872
 20
-30.0186
 11
-50.8034
 21
-29.966
  0
LINE
  8
0
 10
-50.8034
 20
-29.966
 11
-50.3991
 21
-29.8689
  0
LINE
  8
0
 10
-50.3991
 20
-29.8689
 11
-49.9902
 21
-29.9447
  0
LINE
  8
0
 10
-49.9902
 20
-29.9447
 11
-49.6475
 21
-30.1802
  0
LINE
  8
0
 10
-49.6475
 20
-30.1802
 11
-49.4303
 21
-30.5347
  0
LINE
  8
0
 10
-49.4303
 20
-30.5347
 11
-49.376
 21
-30.947
  0
LINE
  8
0
 10
-49.376
 20
-30.947
 11
-49.4941
 21
-31.3457
  0
LINE
  8
0
 10
-49.4941
 20
-31.3457
 11
-49.7641
 21
-31.6619
  0
LINE
  8
0
 10
-49.7641
 20
-31.6619
 11
-49.8398
 21
-31.698
  0
LINE
  8
0
 10
-49.8398
 20
-31.698
 11
-49.2079
 21
-32.6937
  0
LINE
  8
0
 10
-49.2079
 20
-32.6937
 11
-48.3584
 21
-33.916
  0
LINE
  8
0
 10
-48.3584
 20
-33.916
 11
-48.2957
 21
-33.8596
  0
LINE
  8
0
 10
-48.2957
 20
-33.8596
 11
-47.9002
 21
-33.7311
  0
LINE
  8
0
 10
-47.9002
 20
-33.7311
 11
-47.4867
 21
-33.7746
  0
LINE
  8
0
 10
-47.4867
 20
-33.7746
 11
-47.1266
 21
-33.9825
  0
LINE
  8
0
 10
-47.1266
 20
-33.9825
 11
-46.8822
 21
-34.3189
  0
LINE
  8
0
 10
-46.8822
 20
-34.3189
 11
-46.7957
 21
-34.7256
  0
LINE
  8
0
 10
-46.7957
 20
-34.7256
 11
-46.8822
 21
-35.1323
  0
LINE
  8
0
 10
-46.8822
 20
-35.1323
 11
-47.1266
 21
-35.4688
  0
LINE
  8
0
 10
-47.1266
 20
-35.4688
 11
-47.1996
 21
-35.5109
  0
LINE
  8
0
 10
-47.1996
 20
-35.5109
 11
-46.2996
 21
-36.6966
  0
LINE
  8
0
 10
-46.2996
 20
-36.6966
 11
-45.5479
 21
-37.6053
  0
LINE
  8
0
 10
-45.5479
 20
-37.6053
 11
-45.4902
 21
-37.5444
  0
LINE
  8
0
 10
-45.4902
 20
-37.5444
 11
-45.1061
 21
-37.3853
  0
LINE
  8
0
 10
-45.1061
 20
-37.3853
 11
-44.6904
 21
-37.3962
  0
LINE
  8
0
 10
-44.6904
 20
-37.3962
 11
-44.3151
 21
-37.5752
  0
LINE
  8
0
 10
-44.3151
 20
-37.5752
 11
-44.045
 21
-37.8914
  0
LINE
  8
0
 10
-44.045
 20
-37.8914
 11
-43.9269
 21
-38.2901
  0
LINE
  8
0
 10
-43.9269
 20
-38.2901
 11
-43.9812
 21
-38.7024
  0
LINE
  8
0
 10
-43.9812
 20
-38.7024
 11
-44.1985
 21
-39.0569
  0
LINE
  8
0
 10
-44.1985
 20
-39.0569
 11
-44.2697
 21
-39.1059
  0
LINE
  8
0
 10
-44.2697
 20
-39.1059
 11
-43.0665
 21
-40.4422
  0
LINE
  8
0
 10
-43.0665
 20
-40.4422
 11
-42.4578
 21
-41.0639
  0
LINE
  8
0
 10
-42.4578
 20
-41.0639
 11
-42.4043
 21
-40.9978
  0
LINE
  8
0
 10
-42.4043
 20
-40.9978
 11
-42.0338
 21
-40.8091
  0
LINE
  8
0
 10
-42.0338
 20
-40.8091
 11
-41.6185
 21
-40.7873
  0
LINE
  8
0
 10
-41.6185
 20
-40.7873
 11
-41.2303
 21
-40.9363
  0
LINE
  8
0
 10
-41.2303
 20
-40.9363
 11
-40.9363
 21
-41.2303
  0
LINE
  8
0
 10
-40.9363
 20
-41.2303
 11
-40.7873
 21
-41.6185
  0
LINE
  8
0
 10
-40.7873
 20
-41.6185
 11
-40.8091
 21
-42.0338
  0
LINE
  8
0
 10
-40.8091
 20
-42.0338
 11
-40.9978
 21
-42.4043
  0
LINE
  8
0
 10
-40.9978
 20
-42.4043
 11
-41.068
 21
-42.4611
  0
LINE
  8
0
 10
-41.068
 20
-42.4611
 11
-39.5314
 21
-43.9041
  0
LINE
  8
0
 10
-39.5314
 20
-43.9041
 11
-39.1066
 21
-44.2707
  0
LINE
  8
0
 10
-39.1066
 20
-44.2707
 11
-39.0569
 21
-44.1985
  0
LINE
  8
0
 10
-39.0569
 20
-44.1985
 11
-38.7024
 21
-43.9812
  0
LINE
  8
0
 10
-38.7024
 20
-43.9812
 11
-38.2901
 21
-43.9269
  0
LINE
  8
0
 10
-38.2901
 20
-43.9269
 11
-37.8914
 21
-44.045
  0
LINE
  8
0
 10
-37.8914
 20
-44.045
 11
-37.5752
 21
-44.3151
  0
LINE
  8
0
 10
-37.5752
 20
-44.3151
 11
-37.3962
 21
-44.6904
  0
LINE
  8
0
 10
-37.3962
 20
-44.6904
 11
-37.3853
 21
-45.1061
  0
LINE
  8
0
 10
-37.3853
 20
-45.1061
 11
-37.5444
 21
-45.4902
  0
LINE
  8
0
 10
-37.5444
 20
-45.4902
 11
-37.6139
 21
-45.5561
  0
LINE
  8
0
 10
-37.6139
 20
-45.5561
 11
-35.7189
 21
-47.058
  0
LINE
  8
0
 10
-35.7189
 20
-47.058
 11
-35.5148
 21
-47.2063
  0
LINE
  8
0
 10
-35.5148
 20
-47.2063
 11
-35.4688
 21
-47.1266
  0
LINE
  8
0
 10
-35.4688
 20
-47.1266
 11
-35.1323
 21
-46.8822
  0
LINE
  8
0
 10
-35.1323
 20
-46.8822
 11
-34.7256
 21
-46.7957
  0
LINE
  8
0
 10
-34.7256
 20
-46.7957
 11
-34.3189
 21
-46.8822
  0
LINE
  8
0
 10
-34.3189
 20
-46.8822
 11
-33.9825
 21
-47.1266
  0
LINE
  8
0
 10
-33.9825
 20
-47.1266
 11
-33.7746
 21
-47.4867
  0
LINE
  8
0
 10
-33.7746
 20
-47.4867
 11
-33.7311
 21
-47.9002
  0
LINE
  8
0
 10
-33.7311
 20
-47.9002
 11
-33.8596
 21
-48.2957
  0
LINE
  8
0
 10
-33.8596
 20
-48.2957
 11
-33.9212
 21
-48.3641
  0
LINE
  8
0
 10
-33.9212
 20
-48.3641
 11
-33.717
 21
-48.5125
  0
LINE
  8
0
 10
-33.717
 20
-48.5125
 11
-31.7031
 21
-49.8505
  0
LINE
  8
0
 10
-31.7031
 20
-49.8505
 11
-31.6619
 21
-49.7641
  0
LINE
  8
0
 10
-31.6619
 20
-49.7641
 11
-31.3457
 21
-49.4941
  0
LINE
  8
0
 10
-31.3457
 20
-49.4941
 11
-30.947
 21
-49.376
  0
LINE
  8
0
 10
-30.947
 20
-49.376
 11
-30.5347
 21
-49.4303
  0
LINE
  8
0
 10
-30.5347
 20
-49.4303
 11
-30.1802
 21
-49.6475
  0
LINE
  8
0
 10
-30.1802
 20
-49.6475
 11
-29.9447
 21
-49.9902
  0
LINE
  8
0
 10
-29.9447
 20
-49.9902
 11
-29.8689
 21
-50.3991
  0
LINE
  8
0
 10
-29.8689
 20
-50.3991
 11
-29.966
 21
-50.8034
  0
LINE
  8
0
 10
-29.966
 20
-50.8034
 11
-30.0194
 21
-50.873
  0
LINE
  8
0
 10
-30.0194
 20
-50.873
 11
-29.5394
 21
-51.1637
  0
LINE
  8
0
 10
-29.5394
 20
-51.1637
 11
-27.6922
 21
-52.1792
  0
LINE
  8
0
 10
-27.6922
 20
-52.1792
 11
-27.6599
 21
-52.0949
  0
LINE
  8
0
 10
-27.6599
 20
-52.0949
 11
-27.3658
 21
-51.8009
  0
LINE
  8
0
 10
-27.3658
 20
-51.8009
 11
-26.9776
 21
-51.6519
  0
LINE
  8
0
 10
-26.9776
 20
-51.6519
 11
-26.5624
 21
-51.6736
  0
LINE
  8
0
 10
-26.5624
 20
-51.6736
 11
-26.1919
 21
-51.8624
  0
LINE
  8
0
 10
-26.1919
 20
-51.8624
 11
-25.9302
 21
-52.1855
  0
LINE
  8
0
 10
-25.9302
 20
-52.1855
 11
-25.8226
 21
-52.5872
  0
LINE
  8
0
 10
-25.8226
 20
-52.5872
 11
-25.8876
 21
-52.9979
  0
LINE
  8
0
 10
-25.8876
 20
-52.9979
 11
-25.9339
 21
-53.0692
  0
LINE
  8
0
 10
-25.9339
 20
-53.0692
 11
-25.1545
 21
-53.456
  0
LINE
  8
0
 10
-25.1545
 20
-53.456
 11
-23.5118
 21
-54.1874
  0
LINE
  8
0
 10
-23.5118
 20
-54.1874
 11
-23.4873
 21
-54.1045
  0
LINE
  8
0
 10
-23.4873
 20
-54.1045
 11
-23.2172
 21
-53.7883
  0
LINE
  8
0
 10
-23.2172
 20
-53.7883
 11
-22.8419
 21
-53.6093
  0
LINE
  8
0
 10
-22.8419
 20
-53.6093
 11
-22.4262
 21
-53.5984
  0
LINE
  8
0
 10
-22.4262
 20
-53.5984
 11
-22.042
 21
-53.7575
  0
LINE
  8
0
 10
-22.042
 20
-53.7575
 11
-21.7558
 21
-54.0591
  0
LINE
  8
0
 10
-21.7558
 20
-54.0591
 11
-21.617
 21
-54.4511
  0
LINE
  8
0
 10
-21.617
 20
-54.4511
 11
-21.6496
 21
-54.8657
  0
LINE
  8
0
 10
-21.6496
 20
-54.8657
 11
-21.6896
 21
-54.9393
  0
LINE
  8
0
 10
-21.6896
 20
-54.9393
 11
-20.5932
 21
-55.3734
  0
LINE
  8
0
 10
-20.5932
 20
-55.3734
 11
-19.1874
 21
-55.863
  0
LINE
  8
0
 10
-19.1874
 20
-55.863
 11
-19.1699
 21
-55.7805
  0
LINE
  8
0
 10
-19.1699
 20
-55.7805
 11
-18.9255
 21
-55.4441
  0
LINE
  8
0
 10
-18.9255
 20
-55.4441
 11
-18.5654
 21
-55.2362
  0
LINE
  8
0
 10
-18.5654
 20
-55.2362
 11
-18.1518
 21
-55.1927
  0
LINE
  8
0
 10
-18.1518
 20
-55.1927
 11
-17.7563
 21
-55.3212
  0
LINE
  8
0
 10
-17.7563
 20
-55.3212
 11
-17.4473
 21
-55.5994
  0
LINE
  8
0
 10
-17.4473
 20
-55.5994
 11
-17.2782
 21
-55.9793
  0
LINE
  8
0
 10
-17.2782
 20
-55.9793
 11
-17.2782
 21
-56.3951
  0
LINE
  8
0
 10
-17.2782
 20
-56.3951
 11
-17.3125
 21
-56.4722
  0
LINE
  8
0
 10
-17.3125
 20
-56.4722
 11
-15.8874
 21
-56.9024
  0
LINE
  8
0
 10
-15.8874
 20
-56.9024
 11
-14.7452
 21
-57.1957
  0
LINE
  8
0
 10
-14.7452
 20
-57.1957
 11
-14.7343
 21
-57.1126
  0
LINE
  8
0
 10
-14.7343
 20
-57.1126
 11
-14.517
 21
-56.758
  0
LINE
  8
0
 10
-14.517
 20
-56.758
 11
-14.1743
 21
-56.5225
  0
LINE
  8
0
 10
-14.1743
 20
-56.5225
 11
-13.7655
 21
-56.4467
  0
LINE
  8
0
 10
-13.7655
 20
-56.4467
 11
-13.3611
 21
-56.5438
  0
LINE
  8
0
 10
-13.3611
 20
-56.5438
 11
-13.0312
 21
-56.797
  0
LINE
  8
0
 10
-13.0312
 20
-56.797
 11
-12.8328
 21
-57.1624
  0
LINE
  8
0
 10
-12.8328
 20
-57.1624
 11
-12.8002
 21
-57.5769
  0
LINE
  8
0
 10
-12.8002
 20
-57.5769
 11
-12.8291
 21
-57.6584
  0
LINE
  8
0
 10
-12.8291
 20
-57.6584
 11
-11.0703
 21
-58.0323
  0
LINE
  8
0
 10
-11.0703
 20
-58.0323
 11
-10.2123
 21
-58.1774
  0
LINE
  8
0
 10
-10.2123
 20
-58.1774
 11
-10.2079
 21
-58.0926
  0
LINE
  8
0
 10
-10.2079
 20
-58.0926
 11
-10.0191
 21
-57.7221
  0
LINE
  8
0
 10
-10.0191
 20
-57.7221
 11
-9.69594
 21
-57.4604
  0
LINE
  8
0
 10
-9.69594
 20
-57.4604
 11
-9.29428
 21
-57.3528
  0
LINE
  8
0
 10
-9.29428
 20
-57.3528
 11
-8.88358
 21
-57.4178
  0
LINE
  8
0
 10
-8.88358
 20
-57.4178
 11
-8.53484
 21
-57.6443
  0
LINE
  8
0
 10
-8.53484
 20
-57.6443
 11
-8.30836
 21
-57.993
  0
LINE
  8
0
 10
-8.30836
 20
-57.993
 11
-8.24332
 21
-58.4037
  0
LINE
  8
0
 10
-8.24332
 20
-58.4037
 11
-8.26668
 21
-58.4909
  0
LINE
  8
0
 10
-8.26668
 20
-58.4909
 11
-6.1754
 21
-58.7551
  0
LINE
  8
0
 10
-6.1754
 20
-58.7551
 11
-5.61621
 21
-58.802
  0
LINE
  8
0
 10
-5.61621
 20
-58.802
 11
-5.61852
 21
-58.7144
  0
LINE
  8
0
 10
-5.61852
 20
-58.7144
 11
-5.45938
 21
-58.3302
  0
LINE
  8
0
 10
-5.45938
 20
-58.3302
 11
-5.15776
 21
-58.044
  0
LINE
  8
0
 10
-5.15776
 20
-58.044
 11
-4.76578
 21
-57.9052
  0
LINE
  8
0
 10
-4.76578
 20
-57.9052
 11
-4.35124
 21
-57.9378
  0
LINE
  8
0
 10
-4.35124
 20
-57.9378
 11
-3.98581
 21
-58.1362
  0
LINE
  8
0
 10
-3.98581
 20
-58.1362
 11
-3.73267
 21
-58.4661
  0
LINE
  8
0
 10
-3.73267
 20
-58.4661
 11
-3.6356
 21
-58.8705
  0
LINE
  8
0
 10
-3.6356
 20
-58.8705
 11
-3.65305
 21
-58.9645
  0
LINE
  8
0
 10
-3.65305
 20
-58.9645
 11
-1.23724
 21
-59.0658
  0
LINE
  8
0
 10
-1.23724
 20
-59.0658
 11
-0.984879
 21
-59.0658
  0
LINE
  8
0
 10
-0.984879
 20
-59.0658
 11
-0.994507
 21
-58.9742
  0
LINE
  8
0
 10
-0.994507
 20
-58.9742
 11
-0.866013
 21
-58.5787
  0
LINE
  8
0
 10
-0.866013
 20
-58.5787
 11
-0.587784
 21
-58.2697
  0
LINE
  8
0
 10
-0.587784
 20
-58.2697
 11
-0.207901
 21
-58.1006
  0
LINE
  8
0
 10
-0.207901
 20
-58.1006
 11
0.207901
 21
-58.1006
  0
LINE
  8
0
 10
0.207901
 20
-58.1006
 11
0.587784
 21
-58.2697
  0
LINE
  8
0
 10
0.587784
 20
-58.2697
 11
0.866013
 21
-58.5787
  0
LINE
  8
0
 10
0.866013
 20
-58.5787
 11
0.994507
 21
-58.9742
  0
LINE
  8
0
 10
0.994507
 20
-58.9742
 11
0.984879
 21
-59.0658
  0
LINE
  8
0
 10
0.984879
 20
-59.0658
 11
1.23724
 21
-59.0658
  0
LINE
  8
0
 10
1.23724
 20
-59.0658
 11
3.65305
 21
-58.9645
  0
LINE
  8
0
 10
-0.311859
 20
51.2536
 11
-0.610092
 21
51.3506
  0
LINE
  8
0
 10
-0.610092
 20
51.3506
 11
-0.881668
 21
51.5073
  0
LINE
  8
0
 10
-0.881668
 20
51.5073
 11
-1.11472
 21
51.7172
  0
LINE
  8
0
 10
-1.11472
 20
51.7172
 11
-1.29903
 21
51.9709
  0
LINE
  8
0
 10
-1.29903
 20
51.9709
 11
-1.42657
 21
52.2573
  0
LINE
  8
0
 10
-1.42657
 20
52.2573
 11
-1.49178
 21
52.5641
  0
LINE
  8
0
 10
-1.49178
 20
52.5641
 11
-1.49178
 21
52.8777
  0
LINE
  8
0
 10
-1.49178
 20
52.8777
 11
-1.42657
 21
53.1844
  0
LINE
  8
0
 10
-1.42657
 20
53.1844
 11
-1.29903
 21
53.4709
  0
LINE
  8
0
 10
-1.29903
 20
53.4709
 11
-1.11472
 21
53.7246
  0
LINE
  8
0
 10
-1.11472
 20
53.7246
 11
-0.881668
 21
53.9344
  0
LINE
  8
0
 10
-0.881668
 20
53.9344
 11
-0.610092
 21
54.0912
  0
LINE
  8
0
 10
-0.610092
 20
54.0912
 11
-0.311859
 21
54.1881
  0
LINE
  8
0
 10
-0.311859
 20
54.1881
 11
0
 21
54.2209
  0
LINE
  8
0
 10
0
 20
54.2209
 11
0.311859
 21
54.1881
  0
LINE
  8
0
 10
0.311859
 20
54.1881
 11
0.610092
 21
54.0912
  0
LINE
  8
0
 10
0.610092
 20
54.0912
 11
0.881668
 21
53.9344
  0
LINE
  8
0
 10
0.881668
 20
53.9344
 11
1.11472
 21
53.7246
  0
LINE
  8
0
 10
1.11472
 20
53.7246
 11
1.29903
 21
53.4709
  0
LINE
  8
0
 10
1.29903
 20
53.4709
 11
1.42657
 21
53.1844
  0
LINE
  8
0
 10
1.42657
 20
53.1844
 11
1.49178
 21
52.8777
  0
LINE
  8
0
 10
1.49178
 20
52.8777
 11
1.49178
 21
52.5641
  0
LINE
  8
0
 10
1.49178
 20
52.5641
 11
1.42657
 21
52.2573
  0
LINE
  8
0
 10
1.42657
 20
52.2573
 11
1.29903
 21
51.9709
  0
LINE
  8
0
 10
1.29903
 20
51.9709
 11
1.11472
 21
51.7172
  0
LINE
  8
0
 10
1.11472
 20
51.7172
 11
0.881668
 21
51.5073
  0
LINE
  8
0
 10
0.881668
 20
51.5073
 11
0.610092
 21
51.3506
  0
LINE
  8
0
 10
0.610092
 20
51.3506
 11
0.311859
 21
51.2536
  0
LINE
  8
0
 10
0.311859
 20
51.2536
 11
0
 21
51.2209
  0
LINE
  8
0
 10
0
 20
51.2209
 11
-0.311859
 21
51.2536
  0
LINE
  8
0
 10
6.40488
 20
14.508
 11
6.16751
 21
14.5694
  0
LINE
  8
0
 10
6.16751
 20
14.5694
 11
5.94099
 21
14.6632
  0
LINE
  8
0
 10
5.94099
 20
14.6632
 11
5.72975
 21
14.7876
  0
LINE
  8
0
 10
5.72975
 20
14.7876
 11
5.53787
 21
14.9402
  0
LINE
  8
0
 10
5.53787
 20
14.9402
 11
5.36911
 21
15.1181
  0
LINE
  8
0
 10
5.36911
 20
15.1181
 11
5.22673
 21
15.3177
  0
LINE
  8
0
 10
5.22673
 20
15.3177
 11
5.11353
 21
15.5352
  0
LINE
  8
0
 10
5.11353
 20
15.5352
 11
5.03168
 21
15.7663
  0
LINE
  8
0
 10
5.03168
 20
15.7663
 11
4.9828
 21
16.0065
  0
LINE
  8
0
 10
4.9828
 20
16.0065
 11
4.96783
 21
16.2512
  0
LINE
  8
0
 10
4.96783
 20
16.2512
 11
5.44109
 21
37.9733
  0
LINE
  8
0
 10
5.44109
 20
37.9733
 11
5.5533
 21
39.399
  0
LINE
  8
0
 10
5.5533
 20
39.399
 11
5.86284
 21
40.7953
  0
LINE
  8
0
 10
5.86284
 20
40.7953
 11
6.36371
 21
42.1349
  0
LINE
  8
0
 10
6.36371
 20
42.1349
 11
7.04613
 21
43.3918
  0
LINE
  8
0
 10
7.04613
 20
43.3918
 11
7.89684
 21
44.5415
  0
LINE
  8
0
 10
7.89684
 20
44.5415
 11
8.89928
 21
45.5615
  0
LINE
  8
0
 10
8.89928
 20
45.5615
 11
10.0339
 21
46.4322
  0
LINE
  8
0
 10
10.0339
 20
46.4322
 11
11.2787
 21
47.1364
  0
LINE
  8
0
 10
11.2787
 20
47.1364
 11
12.6094
 21
47.6606
  0
LINE
  8
0
 10
12.6094
 20
47.6606
 11
14
 21
47.9945
  0
LINE
  8
0
 10
14
 20
47.9945
 11
15.4236
 21
48.1316
  0
LINE
  8
0
 10
15.4236
 20
48.1316
 11
16.8524
 21
48.0692
  0
LINE
  8
0
 10
16.8524
 20
48.0692
 11
18.2587
 21
47.8085
  0
LINE
  8
0
 10
18.2587
 20
47.8085
 11
19.615
 21
47.3547
  0
LINE
  8
0
 10
19.615
 20
47.3547
 11
20.8949
 21
46.7166
  0
LINE
  8
0
 10
20.8949
 20
46.7166
 11
22.0735
 21
45.9065
  0
LINE
  8
0
 10
22.0735
 20
45.9065
 11
23.128
 21
44.9403
  0
LINE
  8
0
 10
23.128
 20
44.9403
 11
24.0377
 21
43.8367
  0
LINE
  8
0
 10
24.0377
 20
43.8367
 11
24.785
 21
42.6173
  0
LINE
  8
0
 10
24.785
 20
42.6173
 11
25.3553
 21
41.3057
  0
LINE
  8
0
 10
25.3553
 20
41.3057
 11
25.7375
 21
39.9276
  0
LINE
  8
0
 10
25.7375
 20
39.9276
 11
25.9241
 21
38.5096
  0
LINE
  8
0
 10
25.9241
 20
38.5096
 11
25.9117
 21
37.0795
  0
LINE
  8
0
 10
25.9117
 20
37.0795
 11
25.7003
 21
35.665
  0
LINE
  8
0
 10
25.7003
 20
35.665
 11
25.2941
 21
34.2937
  0
LINE
  8
0
 10
25.2941
 20
34.2937
 11
24.701
 21
32.9923
  0
LINE
  8
0
 10
24.701
 20
32.9923
 11
23.9325
 21
31.7861
  0
LINE
  8
0
 10
23.9325
 20
31.7861
 11
23.0037
 21
30.6986
  0
LINE
  8
0
 10
23.0037
 20
30.6986
 11
7.97856
 21
15.0042
  0
LINE
  8
0
 10
7.97856
 20
15.0042
 11
7.79494
 21
14.8417
  0
LINE
  8
0
 10
7.79494
 20
14.8417
 11
7.5905
 21
14.7064
  0
LINE
  8
0
 10
7.5905
 20
14.7064
 11
7.3692
 21
14.6008
  0
LINE
  8
0
 10
7.3692
 20
14.6008
 11
7.13538
 21
14.5271
  0
LINE
  8
0
 10
7.13538
 20
14.5271
 11
6.89357
 21
14.4866
  0
LINE
  8
0
 10
6.89357
 20
14.4866
 11
6.64847
 21
14.4802
  0
LINE
  8
0
 10
6.64847
 20
14.4802
 11
6.40488
 21
14.508
  0
LINE
  8
0
 10
-6.89357
 20
14.4866
 11
-7.13538
 21
14.5271
  0
LINE
  8
0
 10
-7.13538
 20
14.5271
 11
-7.3692
 21
14.6008
  0
LINE
  8
0
 10
-7.3692
 20
14.6008
 11
-7.5905
 21
14.7064
  0
LINE
  8
0
 10
-7.5905
 20
14.7064
 11
-7.79494
 21
14.8417
  0
LINE
  8
0
 10
-7.79494
 20
14.8417
 11
-7.97856
 21
15.0042
  0
LINE
  8
0
 10
-7.97856
 20
15.0042
 11
-23.0037
 21
30.6986
  0
LINE
  8
0
 10
-23.0037
 20
30.6986
 11
-23.9325
 21
31.7861
  0
LINE
  8
0
 10
-23.9325
 20
31.7861
 11
-24.701
 21
32.9923
  0
LINE
  8
0
 10
-24.701
 20
32.9923
 11
-25.2941
 21
34.2937
  0
LINE
  8
0
 10
-25.2941
 20
34.2937
 11
-25.7003
 21
35.665
  0
LINE
  8
0
 10
-25.7003
 20
35.665
 11
-25.9117
 21
37.0795
  0
LINE
  8
0
 10
-25.9117
 20
37.0795
 11
-25.9241
 21
38.5096
  0
LINE
  8
0
 10
-25.9241
 20
38.5096
 11
-25.7375
 21
39.9276
  0
LINE
  8
0
 10
-25.7375
 20
39.9276
 11
-25.3553
 21
41.3057
  0
LINE
  8
0
 10
-25.3553
 20
41.3057
 11
-24.785
 21
42.6173
  0
LINE
  8
0
 10
-24.785
 20
42.6173
 11
-24.0377
 21
43.8367
  0
LINE
  8
0
 10
-24.0377
 20
43.8367
 11
-23.128
 21
44.9403
  0
LINE
  8
0
 10
-23.128
 20
44.9403
 11
-22.0735
 21
45.9065
  0
LINE
  8
0
 10
-22.0735
 20
45.9065
 11
-20.8949
 21
46.7166
  0
LINE
  8
0
 10
-20.8949
 20
46.7166
 11
-19.615
 21
47.3547
  0
LINE
  8
0
 10
-19.615
 20
47.3547
 11
-18.2587
 21
47.8085
  0
LINE
  8
0
 10
-18.2587
 20
47.8085
 11
-16.8524
 21
48.0692
  0
LINE
  8
0
 10
-16.8524
 20
48.0692
 11
-15.4236
 21
48.1316
  0
LINE
  8
0
 10
-15.4236
 20
48.1316
 11
-14
 21
47.9945
  0
LINE
  8
0
 10
-14
 20
47.9945
 11
-12.6094
 21
47.6606
  0
LINE
  8
0
 10
-12.6094
 20
47.6606
 11
-11.2787
 21
47.1364
  0
LINE
  8
0
 10
-11.2787
 20
47.1364
 11
-10.0339
 21
46.4322
  0
LINE
  8
0
 10
-10.0339
 20
46.4322
 11
-8.89928
 21
45.5615
  0
LINE
  8
0
 10
-8.89928
 20
45.5615
 11
-7.89684
 21
44.5415
  0
LINE
  8
0
 10
-7.89684
 20
44.5415
 11
-7.04613
 21
43.3918
  0
LINE
  8
0
 10
-7.04613
 20
43.3918
 11
-6.36371
 21
42.1349
  0
LINE
  8
0
 10
-6.36371
 20
42.1349
 11
-5.86284
 21
40.7953
  0
LINE
  8
0
 10
-5.86284
 20
40.7953
 11
-5.5533
 21
39.399
  0
LINE
  8
0
 10
-5.5533
 20
39.399
 11
-5.44109
 21
37.9733
  0
LINE
  8
0
 10
-5.44109
 20
37.9733
 11
-4.96783
 21
16.2512
  0
LINE
  8
0
 10
-4.96783
 20
16.2512
 11
-4.9828
 21
16.0065
  0
LINE
  8
0
 10
-4.9828
 20
16.0065
 11
-5.03168
 21
15.7663
  0
LINE
  8
0
 10
-5.03168
 20
15.7663
 11
-5.11353
 21
15.5352
  0
LINE
  8
0
 10
-5.11353
 20
15.5352
 11
-5.22673
 21
15.3177
  0
LINE
  8
0
 10
-5.22673
 20
15.3177
 11
-5.36911
 21
15.1181
  0
LINE
  8
0
 10
-5.36911
 20
15.1181
 11
-5.53787
 21
14.9402
  0
LINE
  8
0
 10
-5.53787
 20
14.9402
 11
-5.72975
 21
14.7876
  0
LINE
  8
0
 10
-5.72975
 20
14.7876
 11
-5.94099
 21
14.6632
  0
LINE
  8
0
 10
-5.94099
 20
14.6632
 11
-6.16751
 21
14.5694
  0
LINE
  8
0
 10
-6.16751
 20
14.5694
 11
-6.40488
 21
14.508
  0
LINE
  8
0
 10
-6.40488
 20
14.508
 11
-6.64847
 21
14.4802
  0
LINE
  8
0
 10
-6.64847
 20
14.4802
 11
-6.89357
 21
14.4866
  0
LINE
  8
0
 10
-37.6675
 20
35.8304
 11
-37.9603
 21
35.9428
  0
LINE
  8
0
 10
-37.9603
 20
35.9428
 11
-38.2233
 21
36.1136
  0
LINE
  8
0
 10
-38.2233
 20
36.1136
 11
-38.445
 21
36.3353
  0
LINE
  8
0
 10
-38.445
 20
36.3353
 11
-38.6158
 21
36.5983
  0
LINE
  8
0
 10
-38.6158
 20
36.5983
 11
-38.7282
 21
36.8911
  0
LINE
  8
0
 10
-38.7282
 20
36.8911
 11
-38.7772
 21
37.2008
  0
LINE
  8
0
 10
-38.7772
 20
37.2008
 11
-38.7608
 21
37.5139
  0
LINE
  8
0
 10
-38.7608
 20
37.5139
 11
-38.6797
 21
37.8168
  0
LINE
  8
0
 10
-38.6797
 20
37.8168
 11
-38.5373
 21
38.0962
  0
LINE
  8
0
 10
-38.5373
 20
38.0962
 11
-38.3399
 21
38.3399
  0
LINE
  8
0
 10
-38.3399
 20
38.3399
 11
-38.0962
 21
38.5373
  0
LINE
  8
0
 10
-38.0962
 20
38.5373
 11
-37.8168
 21
38.6797
  0
LINE
  8
0
 10
-37.8168
 20
38.6797
 11
-37.5139
 21
38.7608
  0
LINE
  8
0
 10
-37.5139
 20
38.7608
 11
-37.2008
 21
38.7772
  0
LINE
  8
0
 10
-37.2008
 20
38.7772
 11
-36.8911
 21
38.7282
  0
LINE
  8
0
 10
-36.8911
 20
38.7282
 11
-36.5983
 21
38.6158
  0
LINE
  8
0
 10
-36.5983
 20
38.6158
 11
-36.3353
 21
38.445
  0
LINE
  8
0
 10
-36.3353
 20
38.445
 11
-36.1136
 21
38.2233
  0
LINE
  8
0
 10
-36.1136
 20
38.2233
 11
-35.9428
 21
37.9603
  0
LINE
  8
0
 10
-35.9428
 20
37.9603
 11
-35.8304
 21
37.6675
  0
LINE
  8
0
 10
-35.8304
 20
37.6675
 11
-35.7813
 21
37.3578
  0
LINE
  8
0
 10
-35.7813
 20
37.3578
 11
-35.7977
 21
37.0446
  0
LINE
  8
0
 10
-35.7977
 20
37.0446
 11
-35.8789
 21
36.7417
  0
LINE
  8
0
 10
-35.8789
 20
36.7417
 11
-36.0213
 21
36.4623
  0
LINE
  8
0
 10
-36.0213
 20
36.4623
 11
-36.2186
 21
36.2186
  0
LINE
  8
0
 10
-36.2186
 20
36.2186
 11
-36.4623
 21
36.0213
  0
LINE
  8
0
 10
-36.4623
 20
36.0213
 11
-36.7417
 21
35.8789
  0
LINE
  8
0
 10
-36.7417
 20
35.8789
 11
-37.0446
 21
35.7977
  0
LINE
  8
0
 10
-37.0446
 20
35.7977
 11
-37.3578
 21
35.7813
  0
LINE
  8
0
 10
-37.3578
 20
35.7813
 11
-37.6675
 21
35.8304
  0
LINE
  8
0
 10
37.0446
 20
35.7977
 11
36.7417
 21
35.8789
  0
LINE
  8
0
 10
36.7417
 20
35.8789
 11
36.4623
 21
36.0213
  0
LINE
  8
0
 10
36.4623
 20
36.0213
 11
36.2186
 21
36.2186
  0
LINE
  8
0
 10
36.2186
 20
36.2186
 11
36.0213
 21
36.4623
  0
LINE
  8
0
 10
36.0213
 20
36.4623
 11
35.8789
 21
36.7417
  0
LINE
  8
0
 10
35.8789
 20
36.7417
 11
35.7977
 21
37.0446
  0
LINE
  8
0
 10
35.7977
 20
37.0446
 11
35.7813
 21
37.3578
  0
LINE
  8
0
 10
35.7813
 20
37.3578
 11
35.8304
 21
37.6675
  0
LINE
  8
0
 10
35.8304
 20
37.6675
 11
35.9428
 21
37.9603
  0
LINE
  8
0
 10
35.9428
 20
37.9603
 11
36.1136
 21
38.2233
  0
LINE
  8
0
 10
36.1136
 20
38.2233
 11
36.3353
 21
38.445
  0
LINE
  8
0
 10
36.3353
 20
38.445
 11
36.5983
 21
38.6158
  0
LINE
  8
0
 10
36.5983
 20
38.6158
 11
36.8911
 21
38.7282
  0
LINE
  8
0
 10
36.8911
 20
38.7282
 11
37.2008
 21
38.7772
  0
LINE
  8
0
 10
37.2008
 20
38.7772
 11
37.5139
 21
38.7608
  0
LINE
  8
0
 10
37.5139
 20
38.7608
 11
37.8168
 21
38.6797
  0
LINE
  8
0
 10
37.8168
 20
38.6797
 11
38.0962
 21
38.5373
  0
LINE
  8
0
 10
38.0962
 20
38.5373
 11
38.3399
 21
38.3399
  0
LINE
  8
0
 10
38.3399
 20
38.3399
 11
38.5373
 21
38.0962
  0
LINE
  8
0
 10
38.5373
 20
38.0962
 11
38.6797
 21
37.8168
  0
LINE
  8
0
 10
38.6797
 20
37.8168
 11
38.7608
 21
37.5139
  0
LINE
  8
0
 10
38.7608
 20
37.5139
 11
38.7772
 21
37.2008
  0
LINE
  8
0
 10
38.7772
 20
37.2008
 11
38.7282
 21
36.8911
  0
LINE
  8
0
 10
38.7282
 20
36.8911
 11
38.6158
 21
36.5983
  0
LINE
  8
0
 10
38.6158
 20
36.5983
 11
38.445
 21
36.3353
  0
LINE
  8
0
 10
38.445
 20
36.3353
 11
38.2233
 21
36.1136
  0
LINE
  8
0
 10
38.2233
 20
36.1136
 11
37.9603
 21
35.9428
  0
LINE
  8
0
 10
37.9603
 20
35.9428
 11
37.6675
 21
35.8304
  0
LINE
  8
0
 10
37.6675
 20
35.8304
 11
37.3578
 21
35.7813
  0
LINE
  8
0
 10
37.3578
 20
35.7813
 11
37.0446
 21
35.7977
  0
LINE
  8
0
 10
16.0065
 20
4.9828
 11
15.7663
 21
5.03168
  0
LINE
  8
0
 10
15.7663
 20
5.03168
 11
15.5352
 21
5.11353
  0
LINE
  8
0
 10
15.5352
 20
5.11353
 11
15.3177
 21
5.22673
  0
LINE
  8
0
 10
15.3177
 20
5.22673
 11
15.1181
 21
5.36911
  0
LINE
  8
0
 10
15.1181
 20
5.36911
 11
14.9402
 21
5.53787
  0
LINE
  8
0
 10
14.9402
 20
5.53787
 11
14.7876
 21
5.72975
  0
LINE
  8
0
 10
14.7876
 20
5.72975
 11
14.6632
 21
5.94099
  0
LINE
  8
0
 10
14.6632
 20
5.94099
 11
14.5694
 21
6.16751
  0
LINE
  8
0
 10
14.5694
 20
6.16751
 11
14.508
 21
6.40488
  0
LINE
  8
0
 10
14.508
 20
6.40488
 11
14.4802
 21
6.64847
  0
LINE
  8
0
 10
14.4802
 20
6.64847
 11
14.4866
 21
6.89357
  0
LINE
  8
0
 10
14.4866
 20
6.89357
 11
14.5271
 21
7.13538
  0
LINE
  8
0
 10
14.5271
 20
7.13538
 11
14.6008
 21
7.3692
  0
LINE
  8
0
 10
14.6008
 20
7.3692
 11
14.7064
 21
7.5905
  0
LINE
  8
0
 10
14.7064
 20
7.5905
 11
14.8417
 21
7.79494
  0
LINE
  8
0
 10
14.8417
 20
7.79494
 11
15.0042
 21
7.97856
  0
LINE
  8
0
 10
15.0042
 20
7.97856
 11
30.6986
 21
23.0037
  0
LINE
  8
0
 10
30.6986
 20
23.0037
 11
31.7861
 21
23.9325
  0
LINE
  8
0
 10
31.7861
 20
23.9325
 11
32.9923
 21
24.701
  0
LINE
  8
0
 10
32.9923
 20
24.701
 11
34.2937
 21
25.2941
  0
LINE
  8
0
 10
34.2937
 20
25.2941
 11
35.665
 21
25.7003
  0
LINE
  8
0
 10
35.665
 20
25.7003
 11
37.0795
 21
25.9117
  0
LINE
  8
0
 10
37.0795
 20
25.9117
 11
38.5096
 21
25.9241
  0
LINE
  8
0
 10
38.5096
 20
25.9241
 11
39.9276
 21
25.7375
  0
LINE
  8
0
 10
39.9276
 20
25.7375
 11
41.3057
 21
25.3553
  0
LINE
  8
0
 10
41.3057
 20
25.3553
 11
42.6173
 21
24.785
  0
LINE
  8
0
 10
42.6173
 20
24.785
 11
43.8367
 21
24.0377
  0
LINE
  8
0
 10
43.8367
 20
24.0377
 11
44.9403
 21
23.128
  0
LINE
  8
0
 10
44.9403
 20
23.128
 11
45.9065
 21
22.0735
  0
LINE
  8
0
 10
45.9065
 20
22.0735
 11
46.7166
 21
20.8949
  0
LINE
  8
0
 10
46.7166
 20
20.8949
 11
47.3547
 21
19.615
  0
LINE
  8
0
 10
47.3547
 20
19.615
 11
47.8085
 21
18.2587
  0
LINE
  8
0
 10
47.8085
 20
18.2587
 11
48.0692
 21
16.8524
  0
LINE
  8
0
 10
48.0692
 20
16.8524
 11
48.1316
 21
15.4236
  0
LINE
  8
0
 10
48.1316
 20
15.4236
 11
47.9945
 21
14
  0
LINE
  8
0
 10
47.9945
 20
14
 11
47.6606
 21
12.6094
  0
LINE
  8
0
 10
47.6606
 20
12.6094
 11
47.1364
 21
11.2787
  0
LINE
  8
0
 10
47.1364
 20
11.2787
 11
46.4322
 21
10.0339
  0
LINE
  8
0
 10
46.4322
 20
10.0339
 11
45.5615
 21
8.89928
  0
LINE
  8
0
 10
45.5615
 20
8.89928
 11
44.5415
 21
7.89684
  0
LINE
  8
0
 10
44.5415
 20
7.89684
 11
43.3918
 21
7.04613
  0
LINE
  8
0
 10
43.3918
 20
7.04613
 11
42.1349
 21
6.36371
  0
LINE
  8
0
 10
42.1349
 20
6.36371
 11
40.7953
 21
5.86284
  0
LINE
  8
0
 10
40.7953
 20
5.86284
 11
39.399
 21
5.5533
  0
LINE
  8
0
 10
39.399
 20
5.5533
 11
37.9733
 21
5.44109
  0
LINE
  8
0
 10
37.9733
 20
5.44109
 11
16.2512
 21
4.96783
  0
LINE
  8
0
 10
16.2512
 20
4.96783
 11
16.0065
 21
4.9828
  0
LINE
  8
0
 10
-37.9733
 20
5.44109
 11
-39.399
 21
5.5533
  0
LINE
  8
0
 10
-39.399
 20
5.5533
 11
-40.7953
 21
5.86284
  0
LINE
  8
0
 10
-40.7953
 20
5.86284
 11
-42.1349
 21
6.36371
  0
LINE
  8
0
 10
-42.1349
 20
6.36371
 11
-43.3918
 21
7.04613
  0
LINE
  8
0
 10
-43.3918
 20
7.04613
 11
-44.5415
 21
7.89684
  0
LINE
  8
0
 10
-44.5415
 20
7.89684
 11
-45.5615
 21
8.89928
  0
LINE
  8
0
 10
-45.5615
 20
8.89928
 11
-46.4322
 21
10.0339
  0
LINE
  8
0
 10
-46.4322
 20
10.0339
 11
-47.1364
 21
11.2787
  0
LINE
  8
0
 10
-47.1364
 20
11.2787
 11
-47.6606
 21
12.6094
  0
LINE
  8
0
 10
-47.6606
 20
12.6094
 11
-47.9945
 21
14
  0
LINE
  8
0
 10
-47.9945
 20
14
 11
-48.1316
 21
15.4236
  0
LINE
  8
0
 10
-48.1316
 20
15.4236
 11
-48.0692
 21
16.8524
  0
LINE
  8
0
 10
-48.0692
 20
16.8524
 11
-47.8085
 21
18.2587
  0
LINE
  8
0
 10
-47.8085
 20
18.2587
 11
-47.3547
 21
19.615
  0
LINE
  8
0
 10
-47.3547
 20
19.615
 11
-46.7166
 21
20.8949
  0
LINE
  8
0
 10
-46.7166
 20
20.8949
 11
-45.9065
 21
22.0735
  0
LINE
  8
0
 10
-45.9065
 20
22.0735
 11
-44.9403
 21
23.128
  0
LINE
  8
0
 10
-44.9403
 20
23.128
 11
-43.8367
 21
24.0377
  0
LINE
  8
0
 10
-43.8367
 20
24.0377
 11
-42.6173
 21
24.785
  0
LINE
  8
0
 10
-42.6173
 20
24.785
 11
-41.3057
 21
25.3553
  0
LINE
  8
0
 10
-41.3057
 20
25.3553
 11
-39.9276
 21
25.7375
  0
LINE
  8
0
 10
-39.9276
 20
25.7375
 11
-38.5096
 21
25.9241
  0
LINE
  8
0
 10
-38.5096
 20
25.9241
 11
-37.0795
 21
25.9117
  0
LINE
  8
0
 10
-37.0795
 20
25.9117
 11
-35.665
 21
25.7003
  0
LINE
  8
0
 10
-35.665
 20
25.7003
 11
-34.2937
 21
25.2941
  0
LINE
  8
0
 10
-34.2937
 20
25.2941
 11
-32.9923
 21
24.701
  0
LINE
  8
0
 10
-32.9923
 20
24.701
 11
-31.7861
 21
23.9325
  0
LINE
  8
0
 10
-31.7861
 20
23.9325
 11
-30.6986
 21
23.0037
  0
LINE
  8
0
 10
-30.6986
 20
23.0037
 11
-15.0042
 21
7.97856
  0
LINE
  8
0
 10
-15.0042
 20
7.97856
 11
-14.8417
 21
7.79494
  0
LINE
  8
0
 10
-14.8417
 20
7.79494
 11
-14.7064
 21
7.5905
  0
LINE
  8
0
 10
-14.7064
 20
7.5905
 11
-14.6008
 21
7.3692
  0
LINE
  8
0
 10
-14.6008
 20
7.3692
 11
-14.5271
 21
7.13538
  0
LINE
  8
0
 10
-14.5271
 20
7.13538
 11
-14.4866
 21
6.89357
  0
LINE
  8
0
 10
-14.4866
 20
6.89357
 11
-14.4802
 21
6.64847
  0
LINE
  8
0
 10
-14.4802
 20
6.64847
 11
-14.508
 21
6.40488
  0
LINE
  8
0
 10
-14.508
 20
6.40488
 11
-14.5694
 21
6.16751
  0
LINE
  8
0
 10
-14.5694
 20
6.16751
 11
-14.6632
 21
5.94099
  0
LINE
  8
0
 10
-14.6632
 20
5.94099
 11
-14.7876
 21
5.72975
  0
LINE
  8
0
 10
-14.7876
 20
5.72975
 11
-14.9402
 21
5.53787
  0
LINE
  8
0
 10
-14.9402
 20
5.53787
 11
-15.1181
 21
5.36911
  0
LINE
  8
0
 10
-15.1181
 20
5.36911
 11
-15.3177
 21
5.22673
  0
LINE
  8
0
 10
-15.3177
 20
5.22673
 11
-15.5352
 21
5.11353
  0
LINE
  8
0
 10
-15.5352
 20
5.11353
 11
-15.7663
 21
5.03168
  0
LINE
  8
0
 10
-15.7663
 20
5.03168
 11
-16.0065
 21
4.9828
  0
LINE
  8
0
 10
-16.0065
 20
4.9828
 11
-16.2512
 21
4.96783
  0
LINE
  8
0
 10
-16.2512
 20
4.96783
 11
-37.9733
 21
5.44109
  0
LINE
  8
0
 10
-0.311859
 20
10.3196
 11
-0.610092
 21
10.4165
  0
LINE
  8
0
 10
-0.610092
 20
10.4165
 11
-0.881668
 21
10.5733
  0
LINE
  8
0
 10
-0.881668
 20
10.5733
 11
-1.11472
 21
10.7831
  0
LINE
  8
0
 10
-1.11472
 20
10.7831
 11
-1.29903
 21
11.0368
  0
LINE
  8
0
 10
-1.29903
 20
11.0368
 11
-1.42657
 21
11.3233
  0
LINE
  8
0
 10
-1.42657
 20
11.3233
 11
-1.49178
 21
11.63
  0
LINE
  8
0
 10
-1.49178
 20
11.63
 11
-1.49178
 21
11.9436
  0
LINE
  8
0
 10
-1.49178
 20
11.9436
 11
-1.42657
 21
12.2503
  0
LINE
  8
0
 10
-1.42657
 20
12.2503
 11
-1.29903
 21
12.5368
  0
LINE
  8
0
 10
-1.29903
 20
12.5368
 11
-1.11472
 21
12.7905
  0
LINE
  8
0
 10
-1.11472
 20
12.7905
 11
-0.881668
 21
13.0003
  0
LINE
  8
0
 10
-0.881668
 20
13.0003
 11
-0.610092
 21
13.1571
  0
LINE
  8
0
 10
-0.610092
 20
13.1571
 11
-0.311859
 21
13.254
  0
LINE
  8
0
 10
-0.311859
 20
13.254
 11
0
 21
13.2868
  0
LINE
  8
0
 10
0
 20
13.2868
 11
0.311859
 21
13.254
  0
LINE
  8
0
 10
0.311859
 20
13.254
 11
0.610092
 21
13.1571
  0
LINE
  8
0
 10
0.610092
 20
13.1571
 11
0.881668
 21
13.0003
  0
LINE
  8
0
 10
0.881668
 20
13.0003
 11
1.11472
 21
12.7905
  0
LINE
  8
0
 10
1.11472
 20
12.7905
 11
1.29903
 21
12.5368
  0
LINE
  8
0
 10
1.29903
 20
12.5368
 11
1.42657
 21
12.2503
  0
LINE
  8
0
 10
1.42657
 20
12.2503
 11
1.49178
 21
11.9436
  0
LINE
  8
0
 10
1.49178
 20
11.9436
 11
1.49178
 21
11.63
  0
LINE
  8
0
 10
1.49178
 20
11.63
 11
1.42657
 21
11.3233
  0
LINE
  8
0
 10
1.42657
 20
11.3233
 11
1.29903
 21
11.0368
  0
LINE
  8
0
 10
1.29903
 20
11.0368
 11
1.11472
 21
10.7831
  0
LINE
  8
0
 10
1.11472
 20
10.7831
 11
0.881668
 21
10.5733
  0
LINE
  8
0
 10
0.881668
 20
10.5733
 11
0.610092
 21
10.4165
  0
LINE
  8
0
 10
0.610092
 20
10.4165
 11
0.311859
 21
10.3196
  0
LINE
  8
0
 10
0.311859
 20
10.3196
 11
0
 21
10.2868
  0
LINE
  8
0
 10
0
 20
10.2868
 11
-0.311859
 21
10.3196
  0
LINE
  8
0
 10
-0.621933
 20
-5.9174
 11
-1.23706
 21
-5.81998
  0
LINE
  8
0
 10
-1.23706
 20
-5.81998
 11
-1.83864
 21
-5.65878
  0
LINE
  8
0
 10
-1.83864
 20
-5.65878
 11
-2.42007
 21
-5.43559
  0
LINE
  8
0
 10
-2.42007
 20
-5.43559
 11
-2.97499
 21
-5.15285
  0
LINE
  8
0
 10
-2.97499
 20
-5.15285
 11
-3.49731
 21
-4.81364
  0
LINE
  8
0
 10
-3.49731
 20
-4.81364
 11
-3.98132
 21
-4.42171
  0
LINE
  8
0
 10
-3.98132
 20
-4.42171
 11
-4.42171
 21
-3.98132
  0
LINE
  8
0
 10
-4.42171
 20
-3.98132
 11
-4.81364
 21
-3.49731
  0
LINE
  8
0
 10
-4.81364
 20
-3.49731
 11
-5.15285
 21
-2.97499
  0
LINE
  8
0
 10
-5.15285
 20
-2.97499
 11
-5.43559
 21
-2.42007
  0
LINE
  8
0
 10
-5.43559
 20
-2.42007
 11
-5.65878
 21
-1.83864
  0
LINE
  8
0
 10
-5.65878
 20
-1.83864
 11
-5.81998
 21
-1.23706
  0
LINE
  8
0
 10
-5.81998
 20
-1.23706
 11
-5.9174
 21
-0.621933
  0
LINE
  8
0
 10
-5.9174
 20
-0.621933
 11
-5.95
 21
0
  0
LINE
  8
0
 10
-5.95
 20
0
 11
-5.9174
 21
0.621933
  0
LINE
  8
0
 10
-5.9174
 20
0.621933
 11
-5.81998
 21
1.23706
  0
LINE
  8
0
 10
-5.81998
 20
1.23706
 11
-5.65878
 21
1.83864
  0
LINE
  8
0
 10
-5.65878
 20
1.83864
 11
-5.43559
 21
2.42007
  0
LINE
  8
0
 10
-5.43559
 20
2.42007
 11
-5.15285
 21
2.97499
  0
LINE
  8
0
 10
-5.15285
 20
2.97499
 11
-4.81364
 21
3.49731
  0
LINE
  8
0
 10
-4.81364
 20
3.49731
 11
-4.42171
 21
3.98132
  0
LINE
  8
0
 10
-4.42171
 20
3.98132
 11
-3.98132
 21
4.42171
  0
LINE
  8
0
 10
-3.98132
 20
4.42171
 11
-3.49731
 21
4.81364
  0
LINE
  8
0
 10
-3.49731
 20
4.81364
 11
-2.97499
 21
5.15285
  0
LINE
  8
0
 10
-2.97499
 20
5.15285
 11
-2.42007
 21
5.43559
  0
LINE
  8
0
 10
-2.42007
 20
5.43559
 11
-1.83864
 21
5.65878
  0
LINE
  8
0
 10
-1.83864
 20
5.65878
 11
-1.23706
 21
5.81998
  0
LINE
  8
0
 10
-1.23706
 20
5.81998
 11
-0.621933
 21
5.9174
  0
LINE
  8
0
 10
-0.621933
 20
5.9174
 11
0
 21
5.95
  0
LINE
  8
0
 10
0
 20
5.95
 11
0.621933
 21
5.9174
  0
LINE
  8
0
 10
0.621933
 20
5.9174
 11
1.23706
 21
5.81998
  0
LINE
  8
0
 10
1.23706
 20
5.81998
 11
1.83864
 21
5.65878
  0
LINE
  8
0
 10
1.83864
 20
5.65878
 11
2.42007
 21
5.43559
  0
LINE
  8
0
 10
2.42007
 20
5.43559
 11
2.97499
 21
5.15285
  0
LINE
  8
0
 10
2.97499
 20
5.15285
 11
3.49731
 21
4.81364
  0
LINE
  8
0
 10
3.49731
 20
4.81364
 11
3.98132
 21
4.42171
  0
LINE
  8
0
 10
3.98132
 20
4.42171
 11
4.42171
 21
3.98132
  0
LINE
  8
0
 10
4.42171
 20
3.98132
 11
4.81364
 21
3.49731
  0
LINE
  8
0
 10
4.81364
 20
3.49731
 11
5.15285
 21
2.97499
  0
LINE
  8
0
 10
5.15285
 20
2.97499
 11
5.43559
 21
2.42007
  0
LINE
  8
0
 10
5.43559
 20
2.42007
 11
5.65878
 21
1.83864
  0
LINE
  8
0
 10
5.65878
 20
1.83864
 11
5.81998
 21
1.23706
  0
LINE
  8
0
 10
5.81998
 20
1.23706
 11
5.9174
 21
0.621933
  0
LINE
  8
0
 10
5.9174
 20
0.621933
 11
5.95
 21
0
  0
LINE
  8
0
 10
5.95
 20
0
 11
5.9174
 21
-0.621933
  0
LINE
  8
0
 10
5.9174
 20
-0.621933
 11
5.81998
 21
-1.23706
  0
LINE
  8
0
 10
5.81998
 20
-1.23706
 11
5.65878
 21
-1.83864
  0
LINE
  8
0
 10
5.65878
 20
-1.83864
 11
5.43559
 21
-2.42007
  0
LINE
  8
0
 10
5.43559
 20
-2.42007
 11
5.15285
 21
-2.97499
  0
LINE
  8
0
 10
5.15285
 20
-2.97499
 11
4.81364
 21
-3.49731
  0
LINE
  8
0
 10
4.81364
 20
-3.49731
 11
4.42171
 21
-3.98132
  0
LINE
  8
0
 10
4.42171
 20
-3.98132
 11
3.98132
 21
-4.42171
  0
LINE
  8
0
 10
3.98132
 20
-4.42171
 11
3.49731
 21
-4.81364
  0
LINE
  8
0
 10
3.49731
 20
-4.81364
 11
2.97499
 21
-5.15285
  0
LINE
  8
0
 10
2.97499
 20
-5.15285
 11
2.42007
 21
-5.43559
  0
LINE
  8
0
 10
2.42007
 20
-5.43559
 11
1.83864
 21
-5.65878
  0
LINE
  8
0
 10
1.83864
 20
-5.65878
 11
1.23706
 21
-5.81998
  0
LINE
  8
0
 10
1.23706
 20
-5.81998
 11
0.621933
 21
-5.9174
  0
LINE
  8
0
 10
0.621933
 20
-5.9174
 11
0
 21
-5.95
  0
LINE
  8
0
 10
0
 20
-5.95
 11
-0.621933
 21
-5.9174
  0
LINE
  8
0
 10
52.5641
 20
-1.49178
 11
52.2573
 21
-1.42657
  0
LINE
  8
0
 10
52.2573
 20
-1.42657
 11
51.9709
 21
-1.29903
  0
LINE
  8
0
 10
51.9709
 20
-1.29903
 11
51.7172
 21
-1.11472
  0
LINE
  8
0
 10
51.7172
 20
-1.11472
 11
51.5073
 21
-0.881668
  0
LINE
  8
0
 10
51.5073
 20
-0.881668
 11
51.3506
 21
-0.610092
  0
LINE
  8
0
 10
51.3506
 20
-0.610092
 11
51.2536
 21
-0.311859
  0
LINE
  8
0
 10
51.2536
 20
-0.311859
 11
51.2209
 21
0
  0
LINE
  8
0
 10
51.2209
 20
0
 11
51.2536
 21
0.311859
  0
LINE
  8
0
 10
51.2536
 20
0.311859
 11
51.3506
 21
0.610092
  0
LINE
  8
0
 10
51.3506
 20
0.610092
 11
51.5073
 21
0.881668
  0
LINE
  8
0
 10
51.5073
 20
0.881668
 11
51.7172
 21
1.11472
  0
LINE
  8
0
 10
51.7172
 20
1.11472
 11
51.9709
 21
1.29903
  0
LINE
  8
0
 10
51.9709
 20
1.29903
 11
52.2573
 21
1.42657
  0
LINE
  8
0
 10
52.2573
 20
1.42657
 11
52.5641
 21
1.49178
  0
LINE
  8
0
 10
52.5641
 20
1.49178
 11
52.8777
 21
1.49178
  0
LINE
  8
0
 10
52.8777
 20
1.49178
 11
53.1844
 21
1.42657
  0
LINE
  8
0
 10
53.1844
 20
1.42657
 11
53.4709
 21
1.29903
  0
LINE
  8
0
 10
53.4709
 20
1.29903
 11
53.7246
 21
1.11472
  0
LINE
  8
0
 10
53.7246
 20
1.11472
 11
53.9344
 21
0.881668
  0
LINE
  8
0
 10
53.9344
 20
0.881668
 11
54.0912
 21
0.610092
  0
LINE
  8
0
 10
54.0912
 20
0.610092
 11
54.1881
 21
0.311859
  0
LINE
  8
0
 10
54.1881
 20
0.311859
 11
54.2209
 21
0
  0
LINE
  8
0
 10
54.2209
 20
0
 11
54.1881
 21
-0.311859
  0
LINE
  8
0
 10
54.1881
 20
-0.311859
 11
54.0912
 21
-0.610092
  0
LINE
  8
0
 10
54.0912
 20
-0.610092
 11
53.9344
 21
-0.881668
  0
LINE
  8
0
 10
53.9344
 20
-0.881668
 11
53.7246
 21
-1.11472
  0
LINE
  8
0
 10
53.7246
 20
-1.11472
 11
53.4709
 21
-1.29903
  0
LINE
  8
0
 10
53.4709
 20
-1.29903
 11
53.1844
 21
-1.42657
  0
LINE
  8
0
 10
53.1844
 20
-1.42657
 11
52.8777
 21
-1.49178
  0
LINE
  8
0
 10
52.8777
 20
-1.49178
 11
52.5641
 21
-1.49178
  0
LINE
  8
0
 10
-52.8777
 20
-1.49178
 11
-53.1844
 21
-1.42657
  0
LINE
  8
0
 10
-53.1844
 20
-1.42657
 11
-53.4709
 21
-1.29903
  0
LINE
  8
0
 10
-53.4709
 20
-1.29903
 11
-53.7246
 21
-1.11472
  0
LINE
  8
0
 10
-53.7246
 20
-1.11472
 11
-53.9344
 21
-0.881668
  0
LINE
  8
0
 10
-53.9344
 20
-0.881668
 11
-54.0912
 21
-0.610092
  0
LINE
  8
0
 10
-54.0912
 20
-0.610092
 11
-54.1881
 21
-0.311859
  0
LINE
  8
0
 10
-54.1881
 20
-0.311859
 11
-54.2209
 21
0
  0
LINE
  8
0
 10
-54.2209
 20
0
 11
-54.1881
 21
0.311859
  0
LINE
  8
0
 10
-54.1881
 20
0.311859
 11
-54.0912
 21
0.610092
  0
LINE
  8
0
 10
-54.0912
 20
0.610092
 11
-53.9344
 21
0.881668
  0
LINE
  8
0
 10
-53.9344
 20
0.881668
 11
-53.7246
 21
1.11472
  0
LINE
  8
0
 10
-53.7246
 20
1.11472
 11
-53.4709
 21
1.29903
  0
LINE
  8
0
 10
-53.4709
 20
1.29903
 11
-53.1844
 21
1.42657
  0
LINE
  8
0
 10
-53.1844
 20
1.42657
 11
-52.8777
 21
1.49178
  0
LINE
  8
0
 10
-52.8777
 20
1.49178
 11
-52.5641
 21
1.49178
  0
LINE
  8
0
 10
-52.5641
 20
1.49178
 11
-52.2573
 21
1.42657
  0
LINE
  8
0
 10
-52.2573
 20
1.42657
 11
-51.9709
 21
1.29903
  0
LINE
  8
0
 10
-51.9709
 20
1.29903
 11
-51.7172
 21
1.11472
  0
LINE
  8
0
 10
-51.7172
 20
1.11472
 11
-51.5073
 21
0.881668
  0
LINE
  8
0
 10
-51.5073
 20
0.881668
 11
-51.3506
 21
0.610092
  0
LINE
  8
0
 10
-51.3506
 20
0.610092
 11
-51.2536
 21
0.311859
  0
LINE
  8
0
 10
-51.2536
 20
0.311859
 11
-51.2209
 21
0
  0
LINE
  8
0
 10
-51.2209
 20
0
 11
-51.2536
 21
-0.311859
  0
LINE
  8
0
 10
-51.2536
 20
-0.311859
 11
-51.3506
 21
-0.610092
  0
LINE
  8
0
 10
-51.3506
 20
-0.610092
 11
-51.5073
 21
-0.881668
  0
LINE
  8
0
 10
-51.5073
 20
-0.881668
 11
-51.7172
 21
-1.11472
  0
LINE
  8
0
 10
-51.7172
 20
-1.11472
 11
-51.9709
 21
-1.29903
  0
LINE
  8
0
 10
-51.9709
 20
-1.29903
 11
-52.2573
 21
-1.42657
  0
LINE
  8
0
 10
-52.2573
 20
-1.42657
 11
-52.5641
 21
-1.49178
  0
LINE
  8
0
 10
-52.5641
 20
-1.49178
 11
-52.8777
 21
-1.49178
  0
LINE
  8
0
 10
-11.9436
 20
-1.49178
 11
-12.2503
 21
-1.42657
  0
LINE
  8
0
 10
-12.2503
 20
-1.42657
 11
-12.5368
 21
-1.29903
  0
LINE
  8
0
 10
-12.5368
 20
-1.29903
 11
-12.7905
 21
-1.11472
  0
LINE
  8
0
 10
-12.7905
 20
-1.11472
 11
-13.0003
 21
-0.881668
  0
LINE
  8
0
 10
-13.0003
 20
-0.881668
 11
-13.1571
 21
-0.610092
  0
LINE
  8
0
 10
-13.1571
 20
-0.610092
 11
-13.254
 21
-0.311859
  0
LINE
  8
0
 10
-13.254
 20
-0.311859
 11
-13.2868
 21
0
  0
LINE
  8
0
 10
-13.2868
 20
0
 11
-13.254
 21
0.311859
  0
LINE
  8
0
 10
-13.254
 20
0.311859
 11
-13.1571
 21
0.610092
  0
LINE
  8
0
 10
-13.1571
 20
0.610092
 11
-13.0003
 21
0.881668
  0
LINE
  8
0
 10
-13.0003
 20
0.881668
 11
-12.7905
 21
1.11472
  0
LINE
  8
0
 10
-12.7905
 20
1.11472
 11
-12.5368
 21
1.29903
  0
LINE
  8
0
 10
-12.5368
 20
1.29903
 11
-12.2503
 21
1.42657
  0
LINE
  8
0
 10
-12.2503
 20
1.42657
 11
-11.9436
 21
1.49178
  0
LINE
  8
0
 10
-11.9436
 20
1.49178
 11
-11.63
 21
1.49178
  0
LINE
  8
0
 10
-11.63
 20
1.49178
 11
-11.3233
 21
1.42657
  0
LINE
  8
0
 10
-11.3233
 20
1.42657
 11
-11.0368
 21
1.29903
  0
LINE
  8
0
 10
-11.0368
 20
1.29903
 11
-10.7831
 21
1.11472
  0
LINE
  8
0
 10
-10.7831
 20
1.11472
 11
-10.5733
 21
0.881668
  0
LINE
  8
0
 10
-10.5733
 20
0.881668
 11
-10.4165
 21
0.610092
  0
LINE
  8
0
 10
-10.4165
 20
0.610092
 11
-10.3196
 21
0.311859
  0
LINE
  8
0
 10
-10.3196
 20
0.311859
 11
-10.2868
 21
0
  0
LINE
  8
0
 10
-10.2868
 20
0
 11
-10.3196
 21
-0.311859
  0
LINE
  8
0
 10
-10.3196
 20
-0.311859
 11
-10.4165
 21
-0.610092
  0
LINE
  8
0
 10
-10.4165
 20
-0.610092
 11
-10.5733
 21
-0.881668
  0
LINE
  8
0
 10
-10.5733
 20
-0.881668
 11
-10.7831
 21
-1.11472
  0
LINE
  8
0
 10
-10.7831
 20
-1.11472
 11
-11.0368
 21
-1.29903
  0
LINE
  8
0
 10
-11.0368
 20
-1.29903
 11
-11.3233
 21
-1.42657
  0
LINE
  8
0
 10
-11.3233
 20
-1.42657
 11
-11.63
 21
-1.49178
  0
LINE
  8
0
 10
-11.63
 20
-1.49178
 11
-11.9436
 21
-1.49178
  0
LINE
  8
0
 10
11.63
 20
-1.49178
 11
11.3233
 21
-1.42657
  0
LINE
  8
0
 10
11.3233
 20
-1.42657
 11
11.0368
 21
-1.29903
  0
LINE
  8
0
 10
11.0368
 20
-1.29903
 11
10.7831
 21
-1.11472
  0
LINE
  8
0
 10
10.7831
 20
-1.11472
 11
10.5733
 21
-0.881668
  0
LINE
  8
0
 10
10.5733
 20
-0.881668
 11
10.4165
 21
-0.610092
  0
LINE
  8
0
 10
10.4165
 20
-0.610092
 11
10.3196
 21
-0.311859
  0
LINE
  8
0
 10
10.3196
 20
-0.311859
 11
10.2868
 21
0
  0
LINE
  8
0
 10
10.2868
 20
0
 11
10.3196
 21
0.311859
  0
LINE
  8
0
 10
10.3196
 20
0.311859
 11
10.4165
 21
0.610092
  0
LINE
  8
0
 10
10.4165
 20
0.610092
 11
10.5733
 21
0.881668
  0
LINE
  8
0
 10
10.5733
 20
0.881668
 11
10.7831
 21
1.11472
  0
LINE
  8
0
 10
10.7831
 20
1.11472
 11
11.0368
 21
1.29903
  0
LINE
  8
0
 10
11.0368
 20
1.29903
 11
11.3233
 21
1.42657
  0
LINE
  8
0
 10
11.3233
 20
1.42657
 11
11.63
 21
1.49178
  0
LINE
  8
0
 10
11.63
 20
1.49178
 11
11.9436
 21
1.49178
  0
LINE
  8
0
 10
11.9436
 20
1.49178
 11
12.2503
 21
1.42657
  0
LINE
  8
0
 10
12.2503
 20
1.42657
 11
12.5368
 21
1.29903
  0
LINE
  8
0
 10
12.5368
 20
1.29903
 11
12.7905
 21
1.11472
  0
LINE
  8
0
 10
12.7905
 20
1.11472
 11
13.0003
 21
0.881668
  0
LINE
  8
0
 10
13.0003
 20
0.881668
 11
13.1571
 21
0.610092
  0
LINE
  8
0
 10
13.1571
 20
0.610092
 11
13.254
 21
0.311859
  0
LINE
  8
0
 10
13.254
 20
0.311859
 11
13.2868
 21
0
  0
LINE
  8
0
 10
13.2868
 20
0
 11
13.254
 21
-0.311859
  0
LINE
  8
0
 10
13.254
 20
-0.311859
 11
13.1571
 21
-0.610092
  0
LINE
  8
0
 10
13.1571
 20
-0.610092
 11
13.0003
 21
-0.881668
  0
LINE
  8
0
 10
13.0003
 20
-0.881668
 11
12.7905
 21
-1.11472
  0
LINE
  8
0
 10
12.7905
 20
-1.11472
 11
12.5368
 21
-1.29903
  0
LINE
  8
0
 10
12.5368
 20
-1.29903
 11
12.2503
 21
-1.42657
  0
LINE
  8
0
 10
12.2503
 20
-1.42657
 11
11.9436
 21
-1.49178
  0
LINE
  8
0
 10
11.9436
 20
-1.49178
 11
11.63
 21
-1.49178
  0
LINE
  8
0
 10
-39.9276
 20
-25.7375
 11
-41.3057
 21
-25.3553
  0
LINE
  8
0
 10
-41.3057
 20
-25.3553
 11
-42.6173
 21
-24.785
  0
LINE
  8
0
 10
-42.6173
 20
-24.785
 11
-43.8367
 21
-24.0377
  0
LINE
  8
0
 10
-43.8367
 20
-24.0377
 11
-44.9403
 21
-23.128
  0
LINE
  8
0
 10
-44.9403
 20
-23.128
 11
-45.9065
 21
-22.0735
  0
LINE
  8
0
 10
-45.9065
 20
-22.0735
 11
-46.7166
 21
-20.8949
  0
LINE
  8
0
 10
-46.7166
 20
-20.8949
 11
-47.3547
 21
-19.615
  0
LINE
  8
0
 10
-47.3547
 20
-19.615
 11
-47.8085
 21
-18.2587
  0
LINE
  8
0
 10
-47.8085
 20
-18.2587
 11
-48.0692
 21
-16.8524
  0
LINE
  8
0
 10
-48.0692
 20
-16.8524
 11
-48.1316
 21
-15.4236
  0
LINE
  8
0
 10
-48.1316
 20
-15.4236
 11
-47.9945
 21
-14
  0
LINE
  8
0
 10
-47.9945
 20
-14
 11
-47.6606
 21
-12.6094
  0
LINE
  8
0
 10
-47.6606
 20
-12.6094
 11
-47.1364
 21
-11.2787
  0
LINE
  8
0
 10
-47.1364
 20
-11.2787
 11
-46.4322
 21
-10.0339
  0
LINE
  8
0
 10
-46.4322
 20
-10.0339
 11
-45.5615
 21
-8.89928
  0
LINE
  8
0
 10
-45.5615
 20
-8.89928
 11
-44.5415
 21
-7.89684
  0
LINE
  8
0
 10
-44.5415
 20
-7.89684
 11
-43.3918
 21
-7.04613
  0
LINE
  8
0
 10
-43.3918
 20
-7.04613
 11
-42.1349
 21
-6.36371
  0
LINE
  8
0
 10
-42.1349
 20
-6.36371
 11
-40.7953
 21
-5.86284
  0
LINE
  8
0
 10
-40.7953
 20
-5.86284
 11
-39.399
 21
-5.5533
  0
LINE
  8
0
 10
-39.399
 20
-5.5533
 11
-37.9733
 21
-5.44109
  0
LINE
  8
0
 10
-37.9733
 20
-5.44109
 11
-16.2512
 21
-4.96783
  0
LINE
  8
0
 10
-16.2512
 20
-4.96783
 11
-16.0065
 21
-4.9828
  0
LINE
  8
0
 10
-16.0065
 20
-4.9828
 11
-15.7663
 21
-5.03168
  0
LINE
  8
0
 10
-15.7663
 20
-5.03168
 11
-15.5352
 21
-5.11353
  0
LINE
  8
0
 10
-15.5352
 20
-5.11353
 11
-15.3177
 21
-5.22673
  0
LINE
  8
0
 10
-15.3177
 20
-5.22673
 11
-15.1181
 21
-5.36911
  0
LINE
  8
0
 10
-15.1181
 20
-5.36911
 11
-14.9402
 21
-5.53787
  0
LINE
  8
0
 10
-14.9402
 20
-5.53787
 11
-14.7876
 21
-5.72975
  0
LINE
  8
0
 10
-14.7876
 20
-5.72975
 11
-14.6632
 21
-5.94099
  0
LINE
  8
0
 10
-14.6632
 20
-5.94099
 11
-14.5694
 21
-6.16751
  0
LINE
  8
0
 10
-14.5694
 20
-6.16751
 11
-14.508
 21
-6.40488
  0
LINE
  8
0
 10
-14.508
 20
-6.40488
 11
-14.4802
 21
-6.64847
  0
LINE
  8
0
 10
-14.4802
 20
-6.64847
 11
-14.4866
 21
-6.89357
  0
LINE
  8
0
 10
-14.4866
 20
-6.89357
 11
-14.5271
 21
-7.13538
  0
LINE
  8
0
 10
-14.5271
 20
-7.13538
 11
-14.6008
 21
-7.3692
  0
LINE
  8
0
 10
-14.6008
 20
-7.3692
 11
-14.7064
 21
-7.5905
  0
LINE
  8
0
 10
-14.7064
 20
-7.5905
 11
-14.8417
 21
-7.79494
  0
LINE
  8
0
 10
-14.8417
 20
-7.79494
 11
-15.0042
 21
-7.97856
  0
LINE
  8
0
 10
-15.0042
 20
-7.97856
 11
-30.6986
 21
-23.0037
  0
LINE
  8
0
 10
-30.6986
 20
-23.0037
 11
-31.7861
 21
-23.9325
  0
LINE
  8
0
 10
-31.7861
 20
-23.9325
 11
-32.9923
 21
-24.701
  0
LINE
  8
0
 10
-32.9923
 20
-24.701
 11
-34.2937
 21
-25.2941
  0
LINE
  8
0
 10
-34.2937
 20
-25.2941
 11
-35.665
 21
-25.7003
  0
LINE
  8
0
 10
-35.665
 20
-25.7003
 11
-37.0795
 21
-25.9117
  0
LINE
  8
0
 10
-37.0795
 20
-25.9117
 11
-38.5096
 21
-25.9241
  0
LINE
  8
0
 10
-38.5096
 20
-25.9241
 11
-39.9276
 21
-25.7375
  0
LINE
  8
0
 10
37.0795
 20
-25.9117
 11
35.665
 21
-25.7003
  0
LINE
  8
0
 10
35.665
 20
-25.7003
 11
34.2937
 21
-25.2941
  0
LINE
  8
0
 10
34.2937
 20
-25.2941
 11
32.9923
 21
-24.701
  0
LINE
  8
0
 10
32.9923
 20
-24.701
 11
31.7861
 21
-23.9325
  0
LINE
  8
0
 10
31.7861
 20
-23.9325
 11
30.6986
 21
-23.0037
  0
LINE
  8
0
 10
30.6986
 20
-23.0037
 11
15.0042
 21
-7.97856
  0
LINE
  8
0
 10
15.0042
 20
-7.97856
 11
14.8417
 21
-7.79494
  0
LINE
  8
0
 10
14.8417
 20
-7.79494
 11
14.7064
 21
-7.5905
  0
LINE
  8
0
 10
14.7064
 20
-7.5905
 11
14.6008
 21
-7.3692
  0
LINE
  8
0
 10
14.6008
 20
-7.3692
 11
14.5271
 21
-7.13538
  0
LINE
  8
0
 10
14.5271
 20
-7.13538
 11
14.4866
 21
-6.89357
  0
LINE
  8
0
 10
14.4866
 20
-6.89357
 11
14.4802
 21
-6.64847
  0
LINE
  8
0
 10
14.4802
 20
-6.64847
 11
14.508
 21
-6.40488
  0
LINE
  8
0
 10
14.508
 20
-6.40488
 11
14.5694
 21
-6.16751
  0
LINE
  8
0
 10
14.5694
 20
-6.16751
 11
14.6632
 21
-5.94099
  0
LINE
  8
0
 10
14.6632
 20
-5.94099
 11
14.7876
 21
-5.72975
  0
LINE
  8
0
 10
14.7876
 20
-5.72975
 11
14.9402
 21
-5.53787
  0
LINE
  8
0
 10
14.9402
 20
-5.53787
 11
15.1181
 21
-5.36911
  0
LINE
  8
0
 10
15.1181
 20
-5.36911
 11
15.3177
 21
-5.22673
  0
LINE
  8
0
 10
15.3177
 20
-5.22673
 11
15.5352
 21
-5.11353
  0
LINE
  8
0
 10
15.5352
 20
-5.11353
 11
15.7663
 21
-5.03168
  0
LINE
  8
0
 10
15.7663
 20
-5.03168
 11
16.0065
 21
-4.9828
  0
LINE
  8
0
 10
16.0065
 20
-4.9828
 11
16.2512
 21
-4.96783
  0
LINE
  8
0
 10
16.2512
 20
-4.96783
 11
37.9733
 21
-5.44109
  0
LINE
  8
0
 10
37.9733
 20
-5.44109
 11
39.399
 21
-5.5533
  0
LINE
  8
0
 10
39.399
 20
-5.5533
 11
40.7953
 21
-5.86284
  0
LINE
  8
0
 10
40.7953
 20
-5.86284
 11
42.1349
 21
-6.36371
  0
LINE
  8
0
 10
42.1349
 20
-6.36371
 11
43.3918
 21
-7.04613
  0
LINE
  8
0
 10
43.3918
 20
-7.04613
 11
44.5415
 21
-7.89684
  0
LINE
  8
0
 10
44.5415
 20
-7.89684
 11
45.5615
 21
-8.89928
  0
LINE
  8
0
 10
45.5615
 20
-8.89928
 11
46.4322
 21
-10.0339
  0
LINE
  8
0
 10
46.4322
 20
-10.0339
 11
47.1364
 21
-11.2787
  0
LINE
  8
0
 10
47.1364
 20
-11.2787
 11
47.6606
 21
-12.6094
  0
LINE
  8
0
 10
47.6606
 20
-12.6094
 11
47.9945
 21
-14
  0
LINE
  8
0
 10
47.9945
 20
-14
 11
48.1316
 21
-15.4236
  0
LINE
  8
0
 10
48.1316
 20
-15.4236
 11
48.0692
 21
-16.8524
  0
LINE
  8
0
 10
48.0692
 20
-16.8524
 11
47.8085
 21
-18.2587
  0
LINE
  8
0
 10
47.8085
 20
-18.2587
 11
47.3547
 21
-19.615
  0
LINE
  8
0
 10
47.3547
 20
-19.615
 11
46.7166
 21
-20.8949
  0
LINE
  8
0
 10
46.7166
 20
-20.8949
 11
45.9065
 21
-22.0735
  0
LINE
  8
0
 10
45.9065
 20
-22.0735
 11
44.9403
 21
-23.128
  0
LINE
  8
0
 10
44.9403
 20
-23.128
 11
43.8367
 21
-24.0377
  0
LINE
  8
0
 10
43.8367
 20
-24.0377
 11
42.6173
 21
-24.785
  0
LINE
  8
0
 10
42.6173
 20
-24.785
 11
41.3057
 21
-25.3553
  0
LINE
  8
0
 10
41.3057
 20
-25.3553
 11
39.9276
 21
-25.7375
  0
LINE
  8
0
 10
39.9276
 20
-25.7375
 11
38.5096
 21
-25.9241
  0
LINE
  8
0
 10
38.5096
 20
-25.9241
 11
37.0795
 21
-25.9117
  0
LINE
  8
0
 10
-0.311859
 20
-13.254
 11
-0.610092
 21
-13.1571
  0
LINE
  8
0
 10
-0.610092
 20
-13.1571
 11
-0.881668
 21
-13.0003
  0
LINE
  8
0
 10
-0.881668
 20
-13.0003
 11
-1.11472
 21
-12.7905
  0
LINE
  8
0
 10
-1.11472
 20
-12.7905
 11
-1.29903
 21
-12.5368
  0
LINE
  8
0
 10
-1.29903
 20
-12.5368
 11
-1.42657
 21
-12.2503
  0
LINE
  8
0
 10
-1.42657
 20
-12.2503
 11
-1.49178
 21
-11.9436
  0
LINE
  8
0
 10
-1.49178
 20
-11.9436
 11
-1.49178
 21
-11.63
  0
LINE
  8
0
 10
-1.49178
 20
-11.63
 11
-1.42657
 21
-11.3233
  0
LINE
  8
0
 10
-1.42657
 20
-11.3233
 11
-1.29903
 21
-11.0368
  0
LINE
  8
0
 10
-1.29903
 20
-11.0368
 11
-1.11472
 21
-10.7831
  0
LINE
  8
0
 10
-1.11472
 20
-10.7831
 11
-0.881668
 21
-10.5733
  0
LINE
  8
0
 10
-0.881668
 20
-10.5733
 11
-0.610092
 21
-10.4165
  0
LINE
  8
0
 10
-0.610092
 20
-10.4165
 11
-0.311859
 21
-10.3196
  0
LINE
  8
0
 10
-0.311859
 20
-10.3196
 11
0
 21
-10.2868
  0
LINE
  8
0
 10
0
 20
-10.2868
 11
0.311859
 21
-10.3196
  0
LINE
  8
0
 10
0.311859
 20
-10.3196
 11
0.610092
 21
-10.4165
  0
LINE
  8
0
 10
0.610092
 20
-10.4165
 11
0.881668
 21
-10.5733
  0
LINE
  8
0
 10
0.881668
 20
-10.5733
 11
1.11472
 21
-10.7831
  0
LINE
  8
0
 10
1.11472
 20
-10.7831
 11
1.29903
 21
-11.0368
  0
LINE
  8
0
 10
1.29903
 20
-11.0368
 11
1.42657
 21
-11.3233
  0
LINE
  8
0
 10
1.42657
 20
-11.3233
 11
1.49178
 21
-11.63
  0
LINE
  8
0
 10
1.49178
 20
-11.63
 11
1.49178
 21
-11.9436
  0
LINE
  8
0
 10
1.49178
 20
-11.9436
 11
1.42657
 21
-12.2503
  0
LINE
  8
0
 10
1.42657
 20
-12.2503
 11
1.29903
 21
-12.5368
  0
LINE
  8
0
 10
1.29903
 20
-12.5368
 11
1.11472
 21
-12.7905
  0
LINE
  8
0
 10
1.11472
 20
-12.7905
 11
0.881668
 21
-13.0003
  0
LINE
  8
0
 10
0.881668
 20
-13.0003
 11
0.610092
 21
-13.1571
  0
LINE
  8
0
 10
0.610092
 20
-13.1571
 11
0.311859
 21
-13.254
  0
LINE
  8
0
 10
0.311859
 20
-13.254
 11
0
 21
-13.2868
  0
LINE
  8
0
 10
0
 20
-13.2868
 11
-0.311859
 21
-13.254
  0
LINE
  8
0
 10
14
 20
-47.9945
 11
12.6094
 21
-47.6606
  0
LINE
  8
0
 10
12.6094
 20
-47.6606
 11
11.2787
 21
-47.1364
  0
LINE
  8
0
 10
11.2787
 20
-47.1364
 11
10.0339
 21
-46.4322
  0
LINE
  8
0
 10
10.0339
 20
-46.4322
 11
8.89928
 21
-45.5615
  0
LINE
  8
0
 10
8.89928
 20
-45.5615
 11
7.89684
 21
-44.5415
  0
LINE
  8
0
 10
7.89684
 20
-44.5415
 11
7.04613
 21
-43.3918
  0
LINE
  8
0
 10
7.04613
 20
-43.3918
 11
6.36371
 21
-42.1349
  0
LINE
  8
0
 10
6.36371
 20
-42.1349
 11
5.86284
 21
-40.7953
  0
LINE
  8
0
 10
5.86284
 20
-40.7953
 11
5.5533
 21
-39.399
  0
LINE
  8
0
 10
5.5533
 20
-39.399
 11
5.44109
 21
-37.9733
  0
LINE
  8
0
 10
5.44109
 20
-37.9733
 11
4.96783
 21
-16.2512
  0
LINE
  8
0
 10
4.96783
 20
-16.2512
 11
4.9828
 21
-16.0065
  0
LINE
  8
0
 10
4.9828
 20
-16.0065
 11
5.03168
 21
-15.7663
  0
LINE
  8
0
 10
5.03168
 20
-15.7663
 11
5.11353
 21
-15.5352
  0
LINE
  8
0
 10
5.11353
 20
-15.5352
 11
5.22673
 21
-15.3177
  0
LINE
  8
0
 10
5.22673
 20
-15.3177
 11
5.36911
 21
-15.1181
  0
LINE
  8
0
 10
5.36911
 20
-15.1181
 11
5.53787
 21
-14.9402
  0
LINE
  8
0
 10
5.53787
 20
-14.9402
 11
5.72975
 21
-14.7876
  0
LINE
  8
0
 10
5.72975
 20
-14.7876
 11
5.94099
 21
-14.6632
  0
LINE
  8
0
 10
5.94099
 20
-14.6632
 11
6.16751
 21
-14.5694
  0
LINE
  8
0
 10
6.16751
 20
-14.5694
 11
6.40488
 21
-14.508
  0
LINE
  8
0
 10
6.40488
 20
-14.508
 11
6.64847
 21
-14.4802
  0
LINE
  8
0
 10
6.64847
 20
-14.4802
 11
6.89357
 21
-14.4866
  0
LINE
  8
0
 10
6.89357
 20
-14.4866
 11
7.13538
 21
-14.5271
  0
LINE
  8
0
 10
7.13538
 20
-14.5271
 11
7.3692
 21
-14.6008
  0
LINE
  8
0
 10
7.3692
 20
-14.6008
 11
7.5905
 21
-14.7064
  0
LINE
  8
0
 10
7.5905
 20
-14.7064
 11
7.79494
 21
-14.8417
  0
LINE
  8
0
 10
7.79494
 20
-14.8417
 11
7.97856
 21
-15.0042
  0
LINE
  8
0
 10
7.97856
 20
-15.0042
 11
23.0037
 21
-30.6986
  0
LINE
  8
0
 10
23.0037
 20
-30.6986
 11
23.9325
 21
-31.7861
  0
LINE
  8
0
 10
23.9325
 20
-31.7861
 11
24.701
 21
-32.9923
  0
LINE
  8
0
 10
24.701
 20
-32.9923
 11
25.2941
 21
-34.2937
  0
LINE
  8
0
 10
25.2941
 20
-34.2937
 11
25.7003
 21
-35.665
  0
LINE
  8
0
 10
25.7003
 20
-35.665
 11
25.9117
 21
-37.0795
  0
LINE
  8
0
 10
25.9117
 20
-37.0795
 11
25.9241
 21
-38.5096
  0
LINE
  8
0
 10
25.9241
 20
-38.5096
 11
25.7375
 21
-39.9276
  0
LINE
  8
0
 10
25.7375
 20
-39.9276
 11
25.3553
 21
-41.3057
  0
LINE
  8
0
 10
25.3553
 20
-41.3057
 11
24.785
 21
-42.6173
  0
LINE
  8
0
 10
24.785
 20
-42.6173
 11
24.0377
 21
-43.8367
  0
LINE
  8
0
 10
24.0377
 20
-43.8367
 11
23.128
 21
-44.9403
  0
LINE
  8
0
 10
23.128
 20
-44.9403
 11
22.0735
 21
-45.9065
  0
LINE
  8
0
 10
22.0735
 20
-45.9065
 11
20.8949
 21
-46.7166
  0
LINE
  8
0
 10
20.8949
 20
-46.7166
 11
19.615
 21
-47.3547
  0
LINE
  8
0
 10
19.615
 20
-47.3547
 11
18.2587
 21
-47.8085
  0
LINE
  8
0
 10
18.2587
 20
-47.8085
 11
16.8524
 21
-48.0692
  0
LINE
  8
0
 10
16.8524
 20
-48.0692
 11
15.4236
 21
-48.1316
  0
LINE
  8
0
 10
15.4236
 20
-48.1316
 11
14
 21
-47.9945
  0
LINE
  8
0
 10
-16.8524
 20
-48.0692
 11
-18.2587
 21
-47.8085
  0
LINE
  8
0
 10
-18.2587
 20
-47.8085
 11
-19.615
 21
-47.3547
  0
LINE
  8
0
 10
-19.615
 20
-47.3547
 11
-20.8949
 21
-46.7166
  0
LINE
  8
0
 10
-20.8949
 20
-46.7166
 11
-22.0735
 21
-45.9065
  0
LINE
  8
0
 10
-22.0735
 20
-45.9065
 11
-23.128
 21
-44.9403
  0
LINE
  8
0
 10
-23.128
 20
-44.9403
 11
-24.0377
 21
-43.8367
  0
LINE
  8
0
 10
-24.0377
 20
-43.8367
 11
-24.785
 21
-42.6173
  0
LINE
  8
0
 10
-24.785
 20
-42.6173
 11
-25.3553
 21
-41.3057
  0
LINE
  8
0
 10
-25.3553
 20
-41.3057
 11
-25.7375
 21
-39.9276
  0
LINE
  8
0
 10
-25.7375
 20
-39.9276
 11
-25.9241
 21
-38.5096
  0
LINE
  8
0
 10
-25.9241
 20
-38.5096
 11
-25.9117
 21
-37.0795
  0
LINE
  8
0
 10
-25.9117
 20
-37.0795
 11
-25.7003
 21
-35.665
  0
LINE
  8
0
 10
-25.7003
 20
-35.665
 11
-25.2941
 21
-34.2937
  0
LINE
  8
0
 10
-25.2941
 20
-34.2937
 11
-24.701
 21
-32.9923
  0
LINE
  8
0
 10
-24.701
 20
-32.9923
 11
-23.9325
 21
-31.7861
  0
LINE
  8
0
 10
-23.9325
 20
-31.7861
 11
-23.0037
 21
-30.6986
  0
LINE
  8
0
 10
-23.0037
 20
-30.6986
 11
-7.97856
 21
-15.0042
  0
LINE
  8
0
 10
-7.97856
 20
-15.0042
 11
-7.79494
 21
-14.8417
  0
LINE
  8
0
 10
-7.79494
 20
-14.8417
 11
-7.5905
 21
-14.7064
  0
LINE
  8
0
 10
-7.5905
 20
-14.7064
 11
-7.3692
 21
-14.6008
  0
LINE
  8
0
 10
-7.3692
 20
-14.6008
 11
-7.13538
 21
-14.5271
  0
LINE
  8
0
 10
-7.13538
 20
-14.5271
 11
-6.89357
 21
-14.4866
  0
LINE
  8
0
 10
-6.89357
 20
-14.4866
 11
-6.64847
 21
-14.4802
  0
LINE
  8
0
 10
-6.64847
 20
-14.4802
 11
-6.40488
 21
-14.508
  0
LINE
  8
0
 10
-6.40488
 20
-14.508
 11
-6.16751
 21
-14.5694
  0
LINE
  8
0
 10
-6.16751
 20
-14.5694
 11
-5.94099
 21
-14.6632
  0
LINE
  8
0
 10
-5.94099
 20
-14.6632
 11
-5.72975
 21
-14.7876
  0
LINE
  8
0
 10
-5.72975
 20
-14.7876
 11
-5.53787
 21
-14.9402
  0
LINE
  8
0
 10
-5.53787
 20
-14.9402
 11
-5.36911
 21
-15.1181
  0
LINE
  8
0
 10
-5.36911
 20
-15.1181
 11
-5.22673
 21
-15.3177
  0
LINE
  8
0
 10
-5.22673
 20
-15.3177
 11
-5.11353
 21
-15.5352
  0
LINE
  8
0
 10
-5.11353
 20
-15.5352
 11
-5.03168
 21
-15.7663
  0
LINE
  8
0
 10
-5.03168
 20
-15.7663
 11
-4.9828
 21
-16.0065
  0
LINE
  8
0
 10
-4.9828
 20
-16.0065
 11
-4.96783
 21
-16.2512
  0
LINE
  8
0
 10
-4.96783
 20
-16.2512
 11
-5.44109
 21
-37.9733
  0
LINE
  8
0
 10
-5.44109
 20
-37.9733
 11
-5.5533
 21
-39.399
  0
LINE
  8
0
 10
-5.5533
 20
-39.399
 11
-5.86284
 21
-40.7953
  0
LINE
  8
0
 10
-5.86284
 20
-40.7953
 11
-6.36371
 21
-42.1349
  0
LINE
  8
0
 10
-6.36371
 20
-42.1349
 11
-7.04613
 21
-43.3918
  0
LINE
  8
0
 10
-7.04613
 20
-43.3918
 11
-7.89684
 21
-44.5415
  0
LINE
  8
0
 10
-7.89684
 20
-44.5415
 11
-8.89928
 21
-45.5615
  0
LINE
  8
0
 10
-8.89928
 20
-45.5615
 11
-10.0339
 21
-46.4322
  0
LINE
  8
0
 10
-10.0339
 20
-46.4322
 11
-11.2787
 21
-47.1364
  0
LINE
  8
0
 10
-11.2787
 20
-47.1364
 11
-12.6094
 21
-47.6606
  0
LINE
  8
0
 10
-12.6094
 20
-47.6606
 11
-14
 21
-47.9945
  0
LINE
  8
0
 10
-14
 20
-47.9945
 11
-15.4236
 21
-48.1316
  0
LINE
  8
0
 10
-15.4236
 20
-48.1316
 11
-16.8524
 21
-48.0692
  0
LINE
  8
0
 10
36.8911
 20
-38.7282
 11
36.5983
 21
-38.6158
  0
LINE
  8
0
 10
36.5983
 20
-38.6158
 11
36.3353
 21
-38.445
  0
LINE
  8
0
 10
36.3353
 20
-38.445
 11
36.1136
 21
-38.2233
  0
LINE
  8
0
 10
36.1136
 20
-38.2233
 11
35.9428
 21
-37.9603
  0
LINE
  8
0
 10
35.9428
 20
-37.9603
 11
35.8304
 21
-37.6675
  0
LINE
  8
0
 10
35.8304
 20
-37.6675
 11
35.7813
 21
-37.3578
  0
LINE
  8
0
 10
35.7813
 20
-37.3578
 11
35.7977
 21
-37.0446
  0
LINE
  8
0
 10
35.7977
 20
-37.0446
 11
35.8789
 21
-36.7417
  0
LINE
  8
0
 10
35.8789
 20
-36.7417
 11
36.0213
 21
-36.4623
  0
LINE
  8
0
 10
36.0213
 20
-36.4623
 11
36.2186
 21
-36.2186
  0
LINE
  8
0
 10
36.2186
 20
-36.2186
 11
36.4623
 21
-36.0213
  0
LINE
  8
0
 10
36.4623
 20
-36.0213
 11
36.7417
 21
-35.8789
  0
LINE
  8
0
 10
36.7417
 20
-35.8789
 11
37.0446
 21
-35.7977
  0
LINE
  8
0
 10
37.0446
 20
-35.7977
 11
37.3578
 21
-35.7813
  0
LINE
  8
0
 10
37.3578
 20
-35.7813
 11
37.6675
 21
-35.8304
  0
LINE
  8
0
 10
37.6675
 20
-35.8304
 11
37.9603
 21
-35.9428
  0
LINE
  8
0
 10
37.9603
 20
-35.9428
 11
38.2233
 21
-36.1136
  0
LINE
  8
0
 10
38.2233
 20
-36.1136
 11
38.445
 21
-36.3353
  0
LINE
  8
0
 10
38.445
 20
-36.3353
 11
38.6158
 21
-36.5983
  0
LINE
  8
0
 10
38.6158
 20
-36.5983
 11
38.7282
 21
-36.8911
  0
LINE
  8
0
 10
38.7282
 20
-36.8911
 11
38.7772
 21
-37.2008
  0
LINE
  8
0
 10
38.7772
 20
-37.2008
 11
38.7608
 21
-37.5139
  0
LINE
  8
0
 10
38.7608
 20
-37.5139
 11
38.6797
 21
-37.8168
  0
LINE
  8
0
 10
38.6797
 20
-37.8168
 11
38.5373
 21
-38.0962
  0
LINE
  8
0
 10
38.5373
 20
-38.0962
 11
38.3399
 21
-38.3399
  0
LINE
  8
0
 10
38.3399
 20
-38.3399
 11
38.0962
 21
-38.5373
  0
LINE
  8
0
 10
38.0962
 20
-38.5373
 11
37.8168
 21
-38.6797
  0
LINE
  8
0
 10
37.8168
 20
-38.6797
 11
37.5139
 21
-38.7608
  0
LINE
  8
0
 10
37.5139
 20
-38.7608
 11
37.2008
 21
-38.7772
  0
LINE
  8
0
 10
37.2008
 20
-38.7772
 11
36.8911
 21
-38.7282
  0
LINE
  8
0
 10
-37.5139
 20
-38.7608
 11
-37.8168
 21
-38.6797
  0
LINE
  8
0
 10
-37.8168
 20
-38.6797
 11
-38.0962
 21
-38.5373
  0
LINE
  8
0
 10
-38.0962
 20
-38.5373
 11
-38.3399
 21
-38.3399
  0
LINE
  8
0
 10
-38.3399
 20
-38.3399
 11
-38.5373
 21
-38.0962
  0
LINE
  8
0
 10
-38.5373
 20
-38.0962
 11
-38.6797
 21
-37.8168
  0
LINE
  8
0
 10
-38.6797
 20
-37.8168
 11
-38.7608
 21
-37.5139
  0
LINE
  8
0
 10
-38.7608
 20
-37.5139
 11
-38.7772
 21
-37.2008
  0
LINE
  8
0
 10
-38.7772
 20
-37.2008
 11
-38.7282
 21
-36.8911
  0
LINE
  8
0
 10
-38.7282
 20
-36.8911
 11
-38.6158
 21
-36.5983
  0
LINE
  8
0
 10
-38.6158
 20
-36.5983
 11
-38.445
 21
-36.3353
  0
LINE
  8
0
 10
-38.445
 20
-36.3353
 11
-38.2233
 21
-36.1136
  0
LINE
  8
0
 10
-38.2233
 20
-36.1136
 11
-37.9603
 21
-35.9428
  0
LINE
  8
0
 10
-37.9603
 20
-35.9428
 11
-37.6675
 21
-35.8304
  0
LINE
  8
0
 10
-37.6675
 20
-35.8304
 11
-37.3578
 21
-35.7813
  0
LINE
  8
0
 10
-37.3578
 20
-35.7813
 11
-37.0446
 21
-35.7977
  0
LINE
  8
0
 10
-37.0446
 20
-35.7977
 11
-36.7417
 21
-35.8789
  0
LINE
  8
0
 10
-36.7417
 20
-35.8789
 11
-36.4623
 21
-36.0213
  0
LINE
  8
0
 10
-36.4623
 20
-36.0213
 11
-36.2186
 21
-36.2186
  0
LINE
  8
0
 10
-36.2186
 20
-36.2186
 11
-36.0213
 21
-36.4623
  0
LINE
  8
0
 10
-36.0213
 20
-36.4623
 11
-35.8789
 21
-36.7417
  0
LINE
  8
0
 10
-35.8789
 20
-36.7417
 11
-35.7977
 21
-37.0446
  0
LINE
  8
0
 10
-35.7977
 20
-37.0446
 11
-35.7813
 21
-37.3578
  0
LINE
  8
0
 10
-35.7813
 20
-37.3578
 11
-35.8304
 21
-37.6675
  0
LINE
  8
0
 10
-35.8304
 20
-37.6675
 11
-35.9428
 21
-37.9603
  0
LINE
  8
0
 10
-35.9428
 20
-37.9603
 11
-36.1136
 21
-38.2233
  0
LINE
  8
0
 10
-36.1136
 20
-38.2233
 11
-36.3353
 21
-38.445
  0
LINE
  8
0
 10
-36.3353
 20
-38.445
 11
-36.5983
 21
-38.6158
  0
LINE
  8
0
 10
-36.5983
 20
-38.6158
 11
-36.8911
 21
-38.7282
  0
LINE
  8
0
 10
-36.8911
 20
-38.7282
 11
-37.2008
 21
-38.7772
  0
LINE
  8
0
 10
-37.2008
 20
-38.7772
 11
-37.5139
 21
-38.7608
  0
LINE
  8
0
 10
-0.311859
 20
-54.1881
 11
-0.610092
 21
-54.0912
  0
LINE
  8
0
 10
-0.610092
 20
-54.0912
 11
-0.881668
 21
-53.9344
  0
LINE
  8
0
 10
-0.881668
 20
-53.9344
 11
-1.11472
 21
-53.7246
  0
LINE
  8
0
 10
-1.11472
 20
-53.7246
 11
-1.29903
 21
-53.4709
  0
LINE
  8
0
 10
-1.29903
 20
-53.4709
 11
-1.42657
 21
-53.1844
  0
LINE
  8
0
 10
-1.42657
 20
-53.1844
 11
-1.49178
 21
-52.8777
  0
LINE
  8
0
 10
-1.49178
 20
-52.8777
 11
-1.49178
 21
-52.5641
  0
LINE
  8
0
 10
-1.49178
 20
-52.5641
 11
-1.42657
 21
-52.2573
  0
LINE
  8
0
 10
-1.42657
 20
-52.2573
 11
-1.29903
 21
-51.9709
  0
LINE
  8
0
 10
-1.29903
 20
-51.9709
 11
-1.11472
 21
-51.7172
  0
LINE
  8
0
 10
-1.11472
 20
-51.7172
 11
-0.881668
 21
-51.5073
  0
LINE
  8
0
 10
-0.881668
 20
-51.5073
 11
-0.610092
 21
-51.3506
  0
LINE
  8
0
 10
-0.610092
 20
-51.3506
 11
-0.311859
 21
-51.2536
  0
LINE
  8
0
 10
-0.311859
 20
-51.2536
 11
0
 21
-51.2209
  0
LINE
  8
0
 10
0
 20
-51.2209
 11
0.311859
 21
-51.2536
  0
LINE
  8
0
 10
0.311859
 20
-51.2536
 11
0.610092
 21
-51.3506
  0
LINE
  8
0
 10
0.610092
 20
-51.3506
 11
0.881668
 21
-51.5073
  0
LINE
  8
0
 10
0.881668
 20
-51.5073
 11
1.11472
 21
-51.7172
  0
LINE
  8
0
 10
1.11472
 20
-51.7172
 11
1.29903
 21
-51.9709
  0
LINE
  8
0
 10
1.29903
 20
-51.9709
 11
1.42657
 21
-52.2573
  0
LINE
  8
0
 10
1.42657
 20
-52.2573
 11
1.49178
 21
-52.5641
  0
LINE
  8
0
 10
1.49178
 20
-52.5641
 11
1.49178
 21
-52.8777
  0
LINE
  8
0
 10
1.49178
 20
-52.8777
 11
1.42657
 21
-53.1844
  0
LINE
  8
0
 10
1.42657
 20
-53.1844
 11
1.29903
 21
-53.4709
  0
LINE
  8
0
 10
1.29903
 20
-53.4709
 11
1.11472
 21
-53.7246
  0
LINE
  8
0
 10
1.11472
 20
-53.7246
 11
0.881668
 21
-53.9344
  0
LINE
  8
0
 10
0.881668
 20
-53.9344
 11
0.610092
 21
-54.0912
  0
LINE
  8
0
 10
0.610092
 20
-54.0912
 11
0.311859
 21
-54.1881
  0
LINE
  8
0
 10
0.311859
 20
-54.1881
 11
0
 21
-54.2209
  0
LINE
  8
0
 10
0
 20
-54.2209
 11
-0.311859
 21
-54.1881
  0
ENDSEC
  0
SECTION
  2
OBJECTS
  0
DICTIONARY
  0
ENDSEC
  0
EOF
