<?xml version="1.0" encoding="UTF-8" standalone="no"?>
<svg
   xmlns:dc="http://purl.org/dc/elements/1.1/"
   xmlns:cc="http://creativecommons.org/ns#"
   xmlns:rdf="http://www.w3.org/1999/02/22-rdf-syntax-ns#"
   xmlns:svg="http://www.w3.org/2000/svg"
   xmlns="http://www.w3.org/2000/svg"
   xmlns:sodipodi="http://sodipodi.sourceforge.net/DTD/sodipodi-0.dtd"
   xmlns:inkscape="http://www.inkscape.org/namespaces/inkscape"
   width="744.094488189"
   height="1052.36220472"
   id="svg8885"
   version="1.1"
   inkscape:version="0.91 r13725"
   sodipodi:docname="outer_wheel.svg">
  <metadata
     id="metadata12257">
    <rdf:RDF>
      <cc:Work
         rdf:about="">
        <dc:format>image/svg+xml</dc:format>
        <dc:type
           rdf:resource="http://purl.org/dc/dcmitype/StillImage" />
        <dc:title></dc:title>
      </cc:Work>
    </rdf:RDF>
  </metadata>
  <sodipodi:namedview
     pagecolor="#ffffff"
     bordercolor="#666666"
     borderopacity="1"
     objecttolerance="10"
     gridtolerance="10"
     guidetolerance="10"
     inkscape:pageopacity="0"
     inkscape:pageshadow="2"
     inkscape:window-width="2130"
     inkscape:window-height="1265"
     id="namedview12255"
     showgrid="false"
     inkscape:zoom="0.89702957"
     inkscape:cx="96.126467"
     inkscape:cy="-10.554655"
     inkscape:window-x="0"
     inkscape:window-y="0"
     inkscape:window-maximized="0"
     inkscape:current-layer="g8901" />
  <desc
     id="desc8887">C:\Share\Robotics\SimpleBot\Parts\55r\inner_wheel.dxf - scale = 1.000000, origin = (0.000000, 0.000000), auto = False</desc>
  <defs
     id="defs8889">
    <marker
       refY="0.0"
       refX="0.0"
       style="overflow:visible"
       id="DistanceX"
       orient="auto">
      <path
         style="stroke:#000000; stroke-width:0.5"
         d="M 3,-3 L -3,3 M 0,-5 L  0,5"
         id="path8892" />
    </marker>
    <pattern
       height="8"
       width="8"
       patternUnits="userSpaceOnUse"
       y="0"
       x="0"
       id="Hatch">
      <path
         linecap="square"
         stroke="#000000"
         stroke-width="0.25"
         d="M8 4 l-4,4"
         id="path8895" />
      <path
         linecap="square"
         stroke="#000000"
         stroke-width="0.25"
         d="M6 2 l-4,4"
         id="path8897" />
      <path
         linecap="square"
         stroke="#000000"
         stroke-width="0.25"
         d="M4 0 l-4,4"
         id="path8899" />
    </pattern>
  </defs>
  <g
     inkscape:label="0"
     inkscape:groupmode="layer"
     id="g8901">
    <path
       style="fill:none;stroke:#0000ff;stroke-opacity:1"
       d="m -207.23315,1023.0757 -0.45035,3.05 -0.66579,6.3364 0.30614,-0.01 1.36134,0.5638 1.01409,1.0688 0.49181,1.3889 -0.11551,1.4688 -0.70299,1.2949 -1.16894,0.8969 -1.43291,0.344 -0.29197,-0.054 -0.2622,4.1702 -0.11055,5.2734 0.29728,-0.031 1.40138,0.4553 1.09488,0.9858 0.59917,1.346 0,1.4734 -0.59917,1.346 -1.09488,0.9859 -1.40138,0.4552 -0.29728,-0.031 0.11055,5.2734 0.2622,4.1702 0.29197,-0.054 1.43291,0.3439 1.16894,0.897 0.70299,1.2948 0.11551,1.4688 -0.49181,1.3889 -1.01409,1.0688 -1.36134,0.5638 -0.30614,-0.01 0.66579,6.3364 0.45035,3.05 0.29091,-0.078 1.45523,0.2305 1.23555,0.8025 0.80256,1.2357 0.23032,1.4552 -0.38126,1.4232 -0.92729,1.1451 -1.31279,0.6689 -0.31925,0.017 1.3996,7.3368 0.4539,1.9357 0.29303,-0.1039 1.4687,0.1156 1.29473,0.7029 0.89716,1.169 0.34406,1.4329 -0.26858,1.4485 -0.83445,1.2143 -1.25646,0.77 -0.33626,0.044 2.30421,8.2517 0.27638,0.8504 0.29799,-0.1325 1.47331,0 1.3461,0.5991 0.98575,1.0949 0.45532,1.4014 -0.15414,1.4655 -0.73665,1.276 -1.19197,0.8659 -0.3189,0.068 0.27603,0.8504 2.98629,8.0302 0.298,-0.1619 1.46905,-0.1155 1.38898,0.4918 1.06866,1.0141 0.56374,1.3613 -0.0386,1.473 -0.63426,1.3298 -1.12039,0.957 -0.29799,0.088 0.77067,1.8329 3.18012,6.7582 0.26823,-0.1744 1.45523,-0.2303 1.42335,0.3813 1.14484,0.9273 0.66898,1.3127 0.0769,1.4712 -0.52796,1.3755 -1.04173,1.0421 -0.28098,0.1077 1.4283,2.7323 3.18579,5.5176 0.24307,-0.1864 1.43256,-0.344 1.44886,0.2686 1.21429,0.8344 0.76961,1.2561 0.1924,1.4609 -0.41846,1.4127 -0.9567,1.1204 -0.26823,0.128 2.23902,3.528 3.01004,4.331 0.22216,-0.1998 1.40138,-0.4553 1.46516,0.1541 1.27594,0.7366 0.86599,1.192 0.3065,1.4411 -0.3065,1.441 -0.86599,1.1924 -0.25866,0.1491 3.18898,4.2013 2.6635,3.2198 0.20445,-0.2158 1.36099,-0.5637 1.47295,0.039 1.3298,0.6343 0.95705,1.1204 0.41846,1.4127 -0.1924,1.4609 -0.76996,1.2561 -0.25228,0.1736 4.26331,4.7349 2.15681,2.2029 0.18956,-0.2342 1.3128,-0.6686 1.47153,-0.077 1.37552,0.528 1.04173,1.0417 0.52795,1.3755 -0.0772,1.4716 -0.66862,1.3128 -0.24874,0.2012 5.44464,5.113 1.5052,1.299 0.1761,-0.2558 1.2561,-0.77 1.46091,-0.1924 1.41271,0.4185 1.1204,0.957 0.63425,1.3298 0.0386,1.473 -0.56374,1.361 -0.24626,0.2335 6.71457,5.3217 0.72319,0.5254 0.16299,-0.2824 1.19232,-0.866 1.44107,-0.3065 1.44106,0.3065 1.19197,0.866 0.73665,1.276 0.15413,1.4651 -0.45531,1.4014 -0.21827,0.2424 0.72355,0.5258 7.13586,4.7409 0.14598,-0.3061 1.1204,-0.9567 1.41272,-0.4185 1.4609,0.1924 1.2561,0.7696 0.83445,1.2143 0.26859,1.4489 -0.34406,1.4326 -0.18921,0.2466 1.70079,1.03 6.545191,3.5982 0.114449,-0.2987 1.042087,-1.0417 1.375512,-0.528 1.471181,0.077 1.312795,0.669 0.927284,1.1449 0.381259,1.4233 -0.230315,1.4552 -0.164055,0.2527 2.761654,1.3705 5.82059,2.5916 0.08681,-0.2937 0.957048,-1.1204 1.329803,-0.6343 1.472953,-0.039 1.361338,0.5637 1.014095,1.0687 0.491811,1.389 -0.115512,1.469 -0.141732,0.2608 3.884882,1.5382 4.981181,1.7348 0.06201,-0.2924 0.865985,-1.1919 1.275945,-0.7367 1.465511,-0.1541 1.401378,0.4553 1.094882,0.9858 0.599173,1.3461 0,1.4733 -0.121535,0.2732 5.049567,1.5243 4.047165,1.0392 0.03862,-0.2944 0.769961,-1.2565 1.214291,-0.8344 1.448504,-0.2686 1.432914,0.3441 1.168937,0.8971 0.702992,1.2947 0.115512,1.4687 -0.102402,0.2888 6.231969,1.3249 3.040157,0.5141 0.01559,-0.3005 0.668976,-1.3128 1.145055,-0.9273 1.423205,-0.3812 1.455236,0.2303 1.235693,0.8026 0.802488,1.2355 0.230457,1.4552 -0.08277,0.309 7.410047,0.9362 1.981382,0.1661 -0.0082,-0.3103 0.563882,-1.3614 1.068732,-1.0141 1.388906,-0.4918 1.468842,0.1155 1.294831,0.703 0.896953,1.169 0.343949,1.4329 -0.06183,0.333 8.559957,0.359 0.894192,0 -0.034115,-0.3246 0.455294,-1.4014 0.985851,-1.0949 1.346042,-0.5991 1.473314,0 1.346042,0.5991 0.985851,1.0949 0.455294,1.4014 -0.034115,0.3246 0.894192,0 8.559957,-0.359 -0.06183,-0.333 0.343949,-1.4329 0.896953,-1.169 1.294831,-0.703 1.468842,-0.1155 1.388906,0.4918 1.068732,1.0141 0.563882,1.3614 -0.0082,0.3103 1.981382,-0.1661 7.410047,-0.9362 -0.08277,-0.309 0.230457,-1.4552 0.802488,-1.2355 1.235693,-0.8026 1.455236,-0.2303 1.423205,0.3812 1.145055,0.9273 0.668976,1.3128 0.01559,0.3005 3.040157,-0.5141 6.231969,-1.3249 -0.102402,-0.2888 0.115512,-1.4687 0.702992,-1.2947 1.168937,-0.8971 1.432914,-0.3441 1.448504,0.2686 1.214291,0.8344 0.769961,1.2565 0.03862,0.2944 4.047165,-1.0392 5.049567,-1.5243 -0.121535,-0.2732 0,-1.4733 0.599173,-1.3461 1.094882,-0.9858 1.401378,-0.4553 1.465511,0.1541 1.275945,0.7367 0.865985,1.1919 0.06201,0.2924 4.981181,-1.7348 3.884882,-1.5382 -0.141732,-0.2608 -0.115512,-1.469 0.491811,-1.389 1.014095,-1.0687 1.361338,-0.5637 1.472953,0.039 1.329803,0.6343 0.957048,1.1204 0.08681,0.2937 5.82059,-2.5916 2.761654,-1.3705 -0.164055,-0.2527 -0.230315,-1.4552 0.381259,-1.4233 0.927284,-1.1449 1.312795,-0.669 1.471181,-0.077 1.375512,0.528 1.042087,1.0417 0.114449,0.2987 6.545191,-3.5982 1.70079,-1.03 -0.18921,-0.2466 -0.34406,-1.4326 0.26859,-1.4489 0.83445,-1.2143 1.2561,-0.7696 1.4609,-0.1924 1.41272,0.4185 1.1204,0.9567 0.14598,0.3061 7.13586,-4.7409 0.72355,-0.5258 -0.21827,-0.2424 -0.45531,-1.4014 0.15413,-1.4651 0.73665,-1.276 1.19197,-0.866 1.44106,-0.3065 1.44107,0.3065 1.19232,0.866 0.16299,0.2824 0.72319,-0.5254 6.71457,-5.3217 -0.24626,-0.2335 -0.56374,-1.361 0.0386,-1.473 0.63425,-1.3298 1.1204,-0.957 1.41271,-0.4185 1.46091,0.1924 1.2561,0.77 0.1761,0.2558 1.5052,-1.299 5.44464,-5.113 -0.24874,-0.2012 -0.66862,-1.3128 -0.0772,-1.4716 0.52795,-1.3755 1.04173,-1.0417 1.37552,-0.528 1.47153,0.077 1.3128,0.6686 0.18956,0.2342 2.15681,-2.2029 4.26331,-4.7349 -0.25228,-0.1736 -0.76996,-1.2561 -0.1924,-1.4609 0.41846,-1.4127 0.95705,-1.1204 1.3298,-0.6343 1.47295,-0.039 1.36099,0.5637 0.20445,0.2158 2.6635,-3.2198 3.18898,-4.2013 -0.25866,-0.1491 -0.86599,-1.1924 -0.3065,-1.441 0.3065,-1.4411 0.86599,-1.192 1.27594,-0.7366 1.46516,-0.1541 1.40138,0.4553 0.22216,0.1998 3.01004,-4.331 2.23902,-3.528 -0.26823,-0.128 -0.9567,-1.1204 -0.41846,-1.4127 0.1924,-1.4609 0.76961,-1.2561 1.21429,-0.8344 1.44886,-0.2686 1.43256,0.344 0.24307,0.1864 3.18579,-5.5176 1.4283,-2.7323 -0.28098,-0.1077 -1.04173,-1.0421 -0.52796,-1.3755 0.0769,-1.4712 0.66898,-1.3127 1.14484,-0.9273 1.42335,-0.3813 1.45523,0.2303 0.26823,0.1744 3.18012,-6.7582 0.77067,-1.8329 -0.29799,-0.088 -1.12039,-0.957 -0.63426,-1.3298 -0.0386,-1.473 0.56374,-1.3613 1.06866,-1.0141 1.38898,-0.4918 1.46905,0.1155 0.298,0.1619 2.98629,-8.0302 0.27603,-0.8504 -0.3189,-0.068 -1.19197,-0.8659 -0.73665,-1.276 -0.15414,-1.4655 0.45532,-1.4014 0.98575,-1.0949 1.3461,-0.5991 1.47331,0 0.29799,0.1325 0.27638,-0.8504 2.30421,-8.2517 -0.33626,-0.044 -1.25646,-0.77 -0.83445,-1.2143 -0.26858,-1.4485 0.34406,-1.4329 0.89716,-1.169 1.29473,-0.7029 1.4687,-0.1156 0.29303,0.1039 0.4539,-1.9357 1.3996,-7.3368 -0.31925,-0.017 -1.31279,-0.6689 -0.92729,-1.1451 -0.38126,-1.4232 0.23032,-1.4552 0.80256,-1.2357 1.23555,-0.8025 1.45523,-0.2305 0.29091,0.078 0.45035,-3.05 0.66579,-6.3364 -0.30614,0.01 -1.36134,-0.5638 -1.01409,-1.0688 -0.49181,-1.3889 0.11551,-1.4688 0.70299,-1.2948 1.16894,-0.897 1.43291,-0.3439 0.29197,0.054 0.2622,-4.1702 0.11055,-5.2734 -0.29728,0.031 -1.40138,-0.4552 -1.09488,-0.9859 -0.59917,-1.346 0,-1.4734 0.59917,-1.346 1.09488,-0.9858 1.40138,-0.4553 0.29728,0.031 -0.11055,-5.2734 -0.2622,-4.1702 -0.29197,0.054 -1.43291,-0.344 -1.16894,-0.8969 -0.70299,-1.2949 -0.11551,-1.4688 0.49181,-1.3889 1.01409,-1.0688 1.36134,-0.5638 0.30614,0.01 -0.66579,-6.3364 -0.45035,-3.05 -0.29091,0.078 -1.45523,-0.2305 -1.23555,-0.8025 -0.80256,-1.2356 -0.23032,-1.4553 0.38126,-1.4232 0.92729,-1.145 1.31279,-0.669 0.31925,-0.017 -1.3996,-7.3367 -0.4539,-1.9358 -0.29303,0.1039 -1.4687,-0.1155 -1.29473,-0.703 -0.89716,-1.169 -0.34406,-1.4329 0.26858,-1.4485 0.83445,-1.2143 1.25646,-0.7699 0.33626,-0.044 -2.30421,-8.25169 -0.27638,-0.85039 -0.29799,0.13252 -1.47331,0 -1.3461,-0.59918 -0.98575,-1.09488 -0.45532,-1.40138 0.15414,-1.46551 0.73665,-1.27594 1.19197,-0.86599 0.3189,-0.0677 -0.27603,-0.85039 -2.98629,-8.0302 -0.298,0.16193 -1.46905,0.11551 -1.38898,-0.49181 -1.06866,-1.01409 -0.56374,-1.36134 0.0386,-1.47295 0.63426,-1.3298 1.12039,-0.95705 0.29799,-0.0882 -0.77067,-1.83295 -3.18012,-6.75815 -0.26823,0.17433 -1.45523,0.23031 -1.42335,-0.38126 -1.14484,-0.92728 -0.66898,-1.31279 -0.0769,-1.47119 0.52796,-1.37551 1.04173,-1.04208 0.28098,-0.10772 -1.4283,-2.73225 -3.18579,-5.51763 -0.24307,0.18637 -1.43256,0.34406 -1.44886,-0.26858 -1.21429,-0.83445 -0.76961,-1.2561 -0.1924,-1.46091 0.41846,-1.41272 0.9567,-1.12039 0.26823,-0.12791 -2.23902,-3.52807 -3.01004,-4.33099 -0.22216,0.19984 -1.40138,0.45532 -1.46516,-0.15413 -1.27594,-0.73666 -0.86599,-1.19197 -0.3065,-1.44106 0.3065,-1.44106 0.86599,-1.19233 0.25866,-0.14917 -3.18898,-4.2013 -2.6635,-3.2198 -0.20445,0.21579 -1.36099,0.56374 -1.47295,-0.0386 -1.3298,-0.63425 -0.95705,-1.12039 -0.41846,-1.41272 0.1924,-1.4609 0.76996,-1.25611 0.25228,-0.17362 -4.26331,-4.73492 -2.15681,-2.20287 -0.18956,0.23421 -1.3128,0.66862 -1.47153,0.0773 -1.37552,-0.52796 -1.04173,-1.04173 -0.52795,-1.37551 0.0772,-1.47154 0.66862,-1.31279 0.24874,-0.20126 -5.44464,-5.11299 -1.5052,-1.29898 -0.1761,0.25583 -1.2561,0.76996 -1.46091,0.1924 -1.41271,-0.41847 -1.1204,-0.95704 -0.63425,-1.32981 -0.0386,-1.47295 0.56374,-1.36098 0.24626,-0.23351 -6.71457,-5.32169 -0.72319,-0.52547 -0.16299,0.2824 -1.19232,0.86598 -1.44107,0.3065 -1.44106,-0.3065 -1.19197,-0.86598 -0.73665,-1.27595 -0.15413,-1.46515 0.45531,-1.40138 0.21827,-0.24236 -0.72355,-0.52583 -7.13586,-4.74094 -0.14598,0.30614 -1.1204,0.95669 -1.41272,0.41846 -1.4609,-0.1924 -1.2561,-0.7696 -0.83445,-1.21429 -0.26859,-1.44886 0.34406,-1.43256 0.18921,-0.24662 -1.70079,-1.03004 -6.545191,-3.59822 -0.114449,0.2987 -1.042087,1.04173 -1.375512,0.52795 -1.471181,-0.0769 -1.312795,-0.66897 -0.927284,-1.14485 -0.381259,-1.42334 0.230315,-1.45524 0.164055,-0.25264 -2.761654,-1.37055 -5.82059,-2.59157 -0.08681,0.29374 -0.957048,1.12039 -1.329803,0.63425 -1.472953,0.0386 -1.361338,-0.56374 -1.014095,-1.06866 -0.491811,-1.38897 0.115512,-1.46906 0.141732,-0.26079 -3.884882,-1.53815 -4.981181,-1.7348 -0.06201,0.29232 -0.865985,1.19197 -1.275945,0.73666 -1.465511,0.15413 -1.401378,-0.45531 -1.094882,-0.98575 -0.599173,-1.34611 0,-1.4733 0.121535,-0.27319 -5.049567,-1.52433 -4.047165,-1.03925 -0.03862,0.29444 -0.769961,1.25646 -1.214291,0.83445 -1.448504,0.26858 -1.432914,-0.34405 -1.168937,-0.89717 -0.702992,-1.29472 -0.115512,-1.4687 0.102402,-0.28878 -6.231969,-1.32484 -3.040157,-0.51414 -0.01559,0.30047 -0.668976,1.3128 -1.145055,0.92728 -1.423205,0.38126 -1.455236,-0.23031 -1.235693,-0.80256 -0.802488,-1.23555 -0.230457,-1.45524 0.08277,-0.30898 -7.410047,-0.93614 -1.981382,-0.16618 0.0082,0.3104 -0.563882,1.36133 -1.068732,1.0141 -1.388906,0.49181 -1.468842,-0.11551 -1.294831,-0.703 -0.896953,-1.16893 -0.343949,-1.43292 0.06183,-0.33307 -8.559957,-0.35893 -0.894192,0 0.034115,0.32456 -0.455294,1.40138 -0.985851,1.09488 -1.346042,0.59918 -1.473314,0 -1.346042,-0.59918 -0.985851,-1.09488 -0.455294,-1.40138 0.034115,-0.32456 -0.894192,0 -8.559957,0.35893 0.06183,0.33307 -0.343949,1.43292 -0.896953,1.16893 -1.294831,0.703 -1.468842,0.11551 -1.388906,-0.49181 -1.068732,-1.0141 -0.563882,-1.36133 0.0082,-0.3104 -1.981382,0.16618 -7.410047,0.93614 0.08277,0.30898 -0.230457,1.45524 -0.802488,1.23555 -1.235693,0.80256 -1.455236,0.23031 -1.423205,-0.38126 -1.145055,-0.92728 -0.668976,-1.3128 -0.01559,-0.30047 -3.040157,0.51414 -6.231969,1.32484 0.102402,0.28878 -0.115512,1.4687 -0.702992,1.29472 -1.168937,0.89717 -1.432914,0.34405 -1.448504,-0.26858 -1.214291,-0.83445 -0.769961,-1.25646 -0.03862,-0.29444 -4.047165,1.03925 -5.049567,1.52433 0.121535,0.27319 0,1.4733 -0.599173,1.34611 -1.094882,0.98575 -1.401378,0.45531 -1.465511,-0.15413 -1.275945,-0.73666 -0.865985,-1.19197 -0.06201,-0.29232 -4.981181,1.7348 -3.884882,1.53815 0.141732,0.26079 0.115512,1.46906 -0.491811,1.38897 -1.014095,1.06866 -1.361338,0.56374 -1.472953,-0.0386 -1.329803,-0.63425 -0.957048,-1.12039 -0.08681,-0.29374 -5.82059,2.59157 -2.761654,1.37055 0.164055,0.25264 0.230315,1.45524 -0.381259,1.42334 -0.927284,1.14485 -1.312795,0.66897 -1.471181,0.0769 -1.375512,-0.52795 -1.042087,-1.04173 -0.114449,-0.2987 -6.545191,3.59822 -1.70079,1.03004 0.18921,0.24662 0.34406,1.43256 -0.26859,1.44886 -0.83445,1.21429 -1.2561,0.7696 -1.4609,0.1924 -1.41272,-0.41846 -1.1204,-0.95669 -0.14598,-0.30614 -7.13586,4.74094 -0.72355,0.52583 0.21827,0.24236 0.45531,1.40138 -0.15413,1.46515 -0.73665,1.27595 -1.19197,0.86598 -1.44106,0.3065 -1.44107,-0.3065 -1.19232,-0.86598 -0.16299,-0.2824 -0.72319,0.52547 -6.71457,5.32169 0.24626,0.23351 0.56374,1.36098 -0.0386,1.47295 -0.63425,1.32981 -1.1204,0.95704 -1.41271,0.41847 -1.46091,-0.1924 -1.2561,-0.76996 -0.1761,-0.25583 -1.5052,1.29898 -5.44464,5.11299 0.24874,0.20126 0.66862,1.31279 0.0772,1.47154 -0.52795,1.37551 -1.04173,1.04173 -1.37552,0.52796 -1.47153,-0.0773 -1.3128,-0.66862 -0.18956,-0.23421 -2.15681,2.20287 -4.26331,4.73492 0.25228,0.17362 0.76996,1.25611 0.1924,1.4609 -0.41846,1.41272 -0.95705,1.12039 -1.3298,0.63425 -1.47295,0.0386 -1.36099,-0.56374 -0.20445,-0.21579 -2.6635,3.2198 -3.18898,4.2013 0.25866,0.14917 0.86599,1.19233 0.3065,1.44106 -0.3065,1.44106 -0.86599,1.19197 -1.27594,0.73666 -1.46516,0.15413 -1.40138,-0.45532 -0.22216,-0.19984 -3.01004,4.33099 -2.23902,3.52807 0.26823,0.12791 0.9567,1.12039 0.41846,1.41272 -0.1924,1.46091 -0.76961,1.2561 -1.21429,0.83445 -1.44886,0.26858 -1.43256,-0.34406 -0.24307,-0.18637 -3.18579,5.51763 -1.4283,2.73225 0.28098,0.10772 1.04173,1.04208 0.52796,1.37551 -0.0769,1.47119 -0.66898,1.31279 -1.14484,0.92728 -1.42335,0.38126 -1.45523,-0.23031 -0.26823,-0.17433 -3.18012,6.75815 -0.77067,1.83295 0.29799,0.0882 1.12039,0.95705 0.63426,1.3298 0.0386,1.47295 -0.56374,1.36134 -1.06866,1.01409 -1.38898,0.49181 -1.46905,-0.11551 -0.298,-0.16193 -2.98629,8.0302 -0.27603,0.85039 0.3189,0.0677 1.19197,0.86599 0.73665,1.27594 0.15414,1.46551 -0.45532,1.40138 -0.98575,1.09488 -1.3461,0.59918 -1.47331,0 -0.29799,-0.13252 -0.27638,0.85039 -2.30421,8.25169 0.33626,0.044 1.25646,0.7699 0.83445,1.2143 0.26858,1.4485 -0.34406,1.4329 -0.89716,1.169 -1.29473,0.703 -1.4687,0.1155 -0.29303,-0.1039 -0.4539,1.9358 -1.3996,7.3367 0.31925,0.017 1.31279,0.669 0.92729,1.145 0.38126,1.4232 -0.23032,1.4553 -0.80256,1.2356 -1.23555,0.8025 -1.45523,0.2305 z"
       id="path10173"
       inkscape:connector-curvature="0"
       sodipodi:nodetypes="ccccccccccccccccccccccccccccccccccccccccccccccccccccccccccccccccccccccccccccccccccccccccccccccccccccccccccccccccccccccccccccccccccccccccccccccccccccccccccccccccccccccccccccccccccccccccccccccccccccccccccccccccccccccccccccccccccccccccccccccccccccccccccccccccccccccccccccccccccccccccccccccccccccccccccccccccccccccccccccccccccccccccccccccccccccccccccccccccccccccccccccccccccccccccccccccccccccccccccccccccccccccccccccccccccccccccccccccccccccccccccccccccccccccccccccccccccccccccccccccccccccccccccccccccccccccccccccccccccccccccccccccccccccccccccccccccccccccccccccccccccccccccccccccccccccccccccccccccccccccccccccccccccccccccccccccccccccccccccccccccccccccccccccccccccccccccccccccccccccccccccccccccccccccccccccccccccccccccccccccccccccccccccccccccccccccccccccccccccccccccccccccccccccccccccccccccccccccccccccccccccccccccccccccccccccccccccccccccccccccccccccccccccccccccccccccccccccccccccccccccc" />
    <path
       style="fill:none;stroke:#ff0000;stroke-opacity:1"
       d="m 0,860.24091 1.105012,0.11622 1.056731,0.34334 0.962277,0.55559 0.825775,0.74339 0.653067,0.89894 0.451914,1.01515 0.231059,1.08674 0,1.11118 -0.231059,1.08708 -0.451914,1.01481 -0.653067,0.89893 -0.825775,0.74374 -0.962277,0.55524 -1.056731,0.3437 L 0,870.87083 l -1.105012,-0.11587 -1.056731,-0.3437 -0.962277,-0.55524 -0.825775,-0.74374 -0.653067,-0.89893 -0.451914,-1.01481 -0.231059,-1.08708 0,-1.11118 0.231059,-1.08674 0.451914,-1.01515 0.653067,-0.89894 0.825775,-0.74339 0.962277,-0.55559 1.056731,-0.34334 z"
       id="path10689"
       inkscape:connector-curvature="0"
       sodipodi:nodetypes="ccccccccccccccccccccccccccccccc" />
    <path
       style="fill:none;stroke:#ff0000;stroke-opacity:1"
       d="m 21.853382,1000.7383 -0.80263,-0.3323 -0.748488,-0.4408 -0.67989,-0.54071 -0.597968,-0.63036 -0.504497,-0.70724 -0.401102,-0.77067 -0.29002,-0.81886 -0.173196,-0.8511 -0.05304,-0.86705 1.676906,-76.96807 0.397594,-5.05169 1.096796,-4.94752 1.774736,-4.74661 2.418023,-4.45359 3.014327,-4.07374 3.551953,-3.61417 4.020307,-3.08516 4.410709,-2.49519 4.715078,-1.85741 4.927323,-1.18311 5.044252,-0.48578 5.062677,0.2211 4.982953,0.92374 4.805788,1.60795 4.535078,2.26099 4.176142,2.87043 3.736417,3.42354 3.223347,3.91039 2.647913,4.32071 2.020748,4.6474 1.354252,4.88304 0.661181,5.02441 -0.04394,5.06728 -0.749055,5.01201 -1.439291,4.85893 -2.101536,4.61126 -2.723031,4.27394 -3.291024,3.85335 -53.238685,55.61008 -0.650622,0.57578 -0.724394,0.4794 -0.784133,0.3742 -0.828496,0.2611 -0.856808,0.1435 -0.868464,0.023 -0.863114,-0.098 z"
       id="path10723"
       inkscape:connector-curvature="0"
       sodipodi:nodetypes="cccccccccccccccccccccccccccccccccccccccccccccccc" />
    <path
       style="fill:none;stroke:#ff0000;stroke-opacity:1"
       d="m -59.713228,882.03827 5.062677,-0.2211 5.044252,0.48578 4.927323,1.18311 4.715078,1.85741 4.410709,2.49519 4.020307,3.08516 3.551953,3.61417 3.014327,4.07374 2.418023,4.45359 1.774736,4.74661 1.096796,4.94752 0.397594,5.05169 1.676906,76.96807 -0.05304,0.86705 -0.173196,0.8511 -0.29002,0.81886 -0.401102,0.77067 -0.504497,0.70724 -0.597968,0.63036 -0.67989,0.54071 -0.748488,0.4408 -0.80263,0.3323 -0.841075,0.2176 -0.863114,0.098 -0.868464,-0.023 -0.856808,-0.1435 -0.828496,-0.2611 -0.784133,-0.3742 -0.724394,-0.4794 -0.650622,-0.57578 -53.238685,-55.61008 -3.291024,-3.85335 -2.723031,-4.27394 -2.101536,-4.61126 -1.439291,-4.85893 -0.749055,-5.01201 -0.04394,-5.06728 0.661181,-5.02441 1.354252,-4.88304 2.020748,-4.6474 2.647913,-4.32071 3.223347,-3.91039 3.736417,-3.42354 4.176142,-2.87043 4.535078,-2.26099 4.805788,-1.60795 z"
       id="path10859"
       inkscape:connector-curvature="0"
       sodipodi:nodetypes="cccccccccccccccccccccccccccccccccccccccccccccccc" />
    <path
       style="fill:none;stroke:#ff0000;stroke-opacity:1"
       d="m -135.85004,916.51216 0.86351,-0.69944 0.99,-0.50457 1.07326,-0.28736 1.10941,-0.0581 1.09736,0.17362 1.03748,0.39827 0.93189,0.60519 0.78556,0.78555 0.60519,0.9319 0.39827,1.03747 0.17398,1.09737 -0.0581,1.10976 -0.28772,1.07327 -0.50457,0.99 -0.69909,0.8635 -0.86351,0.6991 -0.99,0.50456 -1.07326,0.28772 -1.10977,0.0581 -1.09736,-0.17398 -1.03748,-0.39826 -0.93189,-0.6052 -0.78555,-0.78555 -0.6052,-0.93189 -0.39827,-1.03748 -0.17362,-1.09736 0.0581,-1.10941 0.28737,-1.07327 0.50456,-0.99 z"
       id="path10929"
       inkscape:connector-curvature="0"
       sodipodi:nodetypes="ccccccccccccccccccccccccccccccc" />
    <path
       style="fill:none;stroke:#ff0000;stroke-opacity:1"
       d="m 137.39953,920.54835 -0.17362,1.09736 -0.39827,1.03748 -0.6052,0.93189 -0.78555,0.78555 -0.93189,0.6052 -1.03748,0.39826 -1.09736,0.17398 -1.10977,-0.0581 -1.07326,-0.28772 -0.99,-0.50456 -0.86351,-0.6991 -0.69909,-0.8635 -0.50457,-0.99 -0.28772,-1.07327 -0.0581,-1.10976 0.17398,-1.09737 0.39827,-1.03747 0.60519,-0.9319 0.78556,-0.78555 0.93189,-0.60519 1.03748,-0.39827 1.09736,-0.17362 1.10941,0.0581 1.07326,0.28736 0.99,0.50457 0.86351,0.69944 0.69945,0.86351 0.50456,0.99 0.28737,1.07327 z"
       id="path11013"
       inkscape:connector-curvature="0"
       sodipodi:nodetypes="ccccccccccccccccccccccccccccccc" />
    <path
       style="fill:none;stroke:#ff0000;stroke-opacity:1"
       d="m 51.406299,1029.6677 -0.0985,-0.8631 0.02268,-0.8684 0.143504,-0.8568 0.261142,-0.8285 0.374173,-0.7842 0.47941,-0.7244 0.575787,-0.6506 55.610082,-53.23867 3.85334,-3.29102 4.27394,-2.72303 4.61126,-2.10154 4.85894,-1.43929 5.012,-0.74906 5.06729,-0.0439 5.02441,0.66118 4.88303,1.35425 4.6474,2.02075 4.32071,2.64791 3.91039,3.22335 3.42355,3.73642 2.87043,4.17614 2.26098,4.53508 1.60796,4.80578 0.92374,4.98296 0.2211,5.06267 -0.48579,5.04425 -1.18311,4.9273 -1.8574,4.7151 -2.4952,4.4107 -3.08515,4.0203 -3.61418,3.552 -4.07374,3.0143 -4.45358,2.418 -4.74661,1.7748 -4.94752,1.0968 -5.0517,0.3976 -76.968068,1.6769 -0.867047,-0.053 -0.851102,-0.1732 -0.818859,-0.29 -0.770669,-0.4011 -0.707244,-0.5045 -0.630354,-0.598 -0.540709,-0.6799 -0.440788,-0.7484 -0.332362,-0.8027 z"
       id="path11047"
       inkscape:connector-curvature="0"
       sodipodi:nodetypes="cccccccccccccccccccccccccccccccccccccccccccccccc" />
    <path
       style="fill:none;stroke:#ff0000;stroke-opacity:1"
       d="m -165.53126,978.32516 2.87043,-4.17614 3.42355,-3.73642 3.91039,-3.22335 4.32071,-2.64791 4.6474,-2.02075 4.88303,-1.35425 5.02441,-0.66118 5.06729,0.0439 5.012,0.74906 4.85894,1.43929 4.61126,2.10154 4.27394,2.72303 3.85334,3.29102 55.610082,53.23867 0.575787,0.6506 0.47941,0.7244 0.374173,0.7842 0.261142,0.8285 0.143504,0.8568 0.02268,0.8684 -0.0985,0.8631 -0.217559,0.8411 -0.332362,0.8027 -0.440788,0.7484 -0.540709,0.6799 -0.630354,0.598 -0.707244,0.5045 -0.770669,0.4011 -0.818859,0.29 -0.851102,0.1732 -0.867047,0.053 -76.968068,-1.6769 -5.0517,-0.3976 -4.94752,-1.0968 -4.74661,-1.7748 -4.45358,-2.418 -4.07374,-3.0143 -3.61418,-3.552 -3.08515,-4.0203 -2.4952,-4.4107 -1.8574,-4.7151 -1.18311,-4.9273 -0.48579,-5.04425 0.2211,-5.06267 0.92374,-4.98296 1.60796,-4.80578 z"
       id="path11153"
       inkscape:connector-curvature="0"
       sodipodi:nodetypes="cccccccccccccccccccccccccccccccccccccccccccccccc" />
    <path
       style="fill:none;stroke:#ff0000;stroke-opacity:1"
       d="m 3.949795,1007.0415 0.653067,0.899 0.451914,1.0151 0.231059,1.0868 0,1.1111 -0.231059,1.0868 -0.451914,1.0151 -0.653067,0.899 -0.825775,0.7434 -0.962277,0.5555 -1.056731,0.3434 L 0,1015.9129 l -1.105012,-0.1162 -1.056731,-0.3434 -0.962277,-0.5555 -0.825775,-0.7434 -0.653067,-0.899 -0.451914,-1.0151 -0.231059,-1.0868 0,-1.1111 0.231059,-1.0868 0.451914,-1.0151 0.653067,-0.899 0.825775,-0.7434 0.962277,-0.5555 1.056731,-0.3434 L 0,1005.283 l 1.105012,0.1162 1.056731,0.3434 0.962277,0.5555 z"
       id="path11253"
       inkscape:connector-curvature="0"
       sodipodi:nodetypes="ccccccccccccccccccccccccccccccc" />
    <path
       style="fill:none;stroke:#ff0000;stroke-opacity:1"
       d="m -14.107039,1068.0297 -1.560437,-1.5605 -1.388729,-1.715 -1.201925,-1.8507 -1.001835,-1.9662 -0.79083,-2.0602 -0.571181,-2.1316 -0.345189,-2.1796 -0.115512,-2.2037 0.115512,-2.2037 0.345189,-2.1796 0.571181,-2.1316 0.79083,-2.0601 1.001835,-1.9663 1.201925,-1.8507 1.388729,-1.715 1.560437,-1.5605 1.714996,-1.3887 1.85074,-1.2019 1.966252,-1.0019 2.060185,-0.7908 2.131583,-0.5712 2.179583,-0.3452 2.2037,-0.1155 2.2037,0.1155 2.179583,0.3452 2.131583,0.5712 2.060185,0.7908 1.966252,1.0019 1.85074,1.2019 1.714996,1.3887 1.560437,1.5605 1.388729,1.715 1.201925,1.8507 1.001835,1.9663 0.79083,2.0601 0.571181,2.1316 0.345189,2.1796 0.115512,2.2037 -0.115512,2.2037 -0.345189,2.1796 -0.571181,2.1316 -0.79083,2.0602 -1.001835,1.9662 -1.201925,1.8507 -1.388729,1.715 -1.560437,1.5605 -1.714996,1.3887 -1.85074,1.2019 -1.966252,1.0019 -2.060185,0.7908 -2.131583,0.5712 -2.179583,0.3452 -2.2037,0.1155 -2.2037,-0.1155 -2.179583,-0.3452 -2.131583,-0.5712 -2.060185,-0.7908 -1.966252,-1.0019 -1.85074,-1.2019 z"
       id="path11289"
       inkscape:connector-curvature="0"
       sodipodi:nodetypes="ccccccccccccccccccccccccccccccccccccccccccccccccccccccccccccc" />
    <path
       style="fill:none;stroke:#ff0000;stroke-opacity:1"
       d="m 185.16366,1057.417 -1.0148,-0.4519 -0.89894,-0.6531 -0.74374,-0.8258 -0.55524,-0.9623 -0.3437,-1.0567 -0.11586,-1.105 0.11586,-1.105 0.3437,-1.0567 0.55524,-0.9623 0.74374,-0.8258 0.89894,-0.6531 1.0148,-0.4519 1.08709,-0.231 1.11118,0 1.08673,0.231 1.01516,0.4519 0.89894,0.6531 0.74338,0.8258 0.55559,0.9623 0.34335,1.0567 0.11622,1.105 -0.11622,1.105 -0.34335,1.0567 -0.55559,0.9623 -0.74338,0.8258 -0.89894,0.6531 -1.01516,0.4519 -1.08673,0.231 -1.11118,0 z"
       id="path11399"
       inkscape:connector-curvature="0"
       sodipodi:nodetypes="ccccccccccccccccccccccccccccccc" />
    <path
       style="fill:none;stroke:#ff0000;stroke-opacity:1"
       d="m -189.46382,1047.7593 1.01516,-0.4519 1.08673,-0.231 1.11118,0 1.08709,0.231 1.0148,0.4519 0.89894,0.6531 0.74374,0.8258 0.55524,0.9623 0.3437,1.0567 0.11586,1.105 -0.11586,1.105 -0.3437,1.0567 -0.55524,0.9623 -0.74374,0.8258 -0.89894,0.6531 -1.0148,0.4519 -1.08709,0.231 -1.11118,0 -1.08673,-0.231 -1.01516,-0.4519 -0.89894,-0.6531 -0.74338,-0.8258 -0.55559,-0.9623 -0.34335,-1.0567 -0.11622,-1.105 0.11622,-1.105 0.34335,-1.0567 0.55559,-0.9623 0.74338,-0.8258 z"
       id="path11481"
       inkscape:connector-curvature="0"
       sodipodi:nodetypes="ccccccccccccccccccccccccccccccc" />
    <path
       style="fill:none;stroke:#ff0000;stroke-opacity:1"
       d="m -39.106772,1047.7593 0.898937,0.6531 0.743386,0.8258 0.555591,0.9623 0.343346,1.0567 0.116221,1.105 -0.116221,1.105 -0.343346,1.0567 -0.555591,0.9623 -0.743386,0.8258 -0.898937,0.6531 -1.015157,0.4519 -1.086732,0.231 -1.111182,0 -1.086732,-0.231 -1.015157,-0.4519 -0.898937,-0.6531 -0.743386,-0.8258 -0.555591,-0.9623 -0.343346,-1.0567 -0.116221,-1.105 0.116221,-1.105 0.343346,-1.0567 0.555591,-0.9623 0.743386,-0.8258 0.898937,-0.6531 1.015157,-0.4519 1.086732,-0.231 1.111182,0 1.086732,0.231 z"
       id="path11551"
       inkscape:connector-curvature="0"
       sodipodi:nodetypes="ccccccccccccccccccccccccccccccc" />
    <path
       style="fill:none;stroke:#ff0000;stroke-opacity:1"
       d="m 38.207835,1048.4124 0.898937,-0.6531 1.015157,-0.4519 1.086732,-0.231 1.111182,0 1.086732,0.231 1.015157,0.4519 0.898937,0.6531 0.743386,0.8258 0.555591,0.9623 0.343346,1.0567 0.116221,1.105 -0.116221,1.105 -0.343346,1.0567 -0.555591,0.9623 -0.743386,0.8258 -0.898937,0.6531 -1.015157,0.4519 -1.086732,0.231 -1.111182,0 -1.086732,-0.231 -1.015157,-0.4519 -0.898937,-0.6531 -0.743386,-0.8258 -0.555591,-0.9623 -0.343346,-1.0567 -0.116221,-1.105 0.116221,-1.105 0.343346,-1.0567 0.555591,-0.9623 z"
       id="path11599"
       inkscape:connector-curvature="0"
       sodipodi:nodetypes="ccccccccccccccccccccccccccccccc" />
    <path
       style="fill:none;stroke:#ff0000;stroke-opacity:1"
       d="m -157.82421,1080.3431 4.07374,-3.0143 4.45358,-2.418 4.74661,-1.7748 4.94752,-1.0967 5.0517,-0.3976 76.968068,-1.6769 0.867047,0.053 0.851102,0.1732 0.818859,0.29 0.770669,0.4011 0.707244,0.5045 0.630354,0.598 0.540709,0.6799 0.440788,0.7485 0.332362,0.8026 0.217559,0.8411 0.0985,0.8631 -0.02268,0.8684 -0.143504,0.8568 -0.261142,0.8285 -0.374173,0.7842 -0.47941,0.7244 -0.575787,0.6506 -55.610082,53.2387 -3.85334,3.291 -4.27394,2.723 -4.61126,2.1016 -4.85894,1.4393 -5.012,0.749 -5.06729,0.044 -5.02441,-0.6612 -4.88303,-1.3543 -4.6474,-2.0207 -4.32071,-2.6479 -3.91039,-3.2234 -3.42355,-3.7364 -2.87043,-4.1761 -2.26098,-4.5351 -1.60796,-4.8058 -0.92374,-4.983 -0.2211,-5.0626 0.48579,-5.0443 1.18311,-4.9273 1.8574,-4.7151 2.4952,-4.4107 3.08515,-4.0203 z"
       id="path11669"
       inkscape:connector-curvature="0"
       sodipodi:nodetypes="cccccccccccccccccccccccccccccccccccccccccccccccc" />
    <path
       style="fill:none;stroke:#ff0000;stroke-opacity:1"
       d="m 112.62791,1137.1624 -3.85334,-3.291 -55.610082,-53.2387 -0.575787,-0.6506 -0.47941,-0.7244 -0.374173,-0.7842 -0.261142,-0.8285 -0.143504,-0.8568 -0.02268,-0.8684 0.0985,-0.8631 0.217559,-0.8411 0.332362,-0.8026 0.440788,-0.7485 0.540709,-0.6799 0.630354,-0.598 0.707244,-0.5045 0.770669,-0.4011 0.818859,-0.29 0.851102,-0.1732 0.867047,-0.053 76.968068,1.6769 5.0517,0.3976 4.94752,1.0967 4.74661,1.7748 4.45358,2.418 4.07374,3.0143 3.61418,3.552 3.08515,4.0203 2.4952,4.4107 1.8574,4.7151 1.18311,4.9273 0.48579,5.0443 -0.2211,5.0626 -0.92374,4.983 -1.60796,4.8058 -2.26098,4.5351 -2.87043,4.1761 -3.42355,3.7364 -3.91039,3.2234 -4.32071,2.6479 -4.6474,2.0207 -4.88303,1.3543 -5.02441,0.6612 -5.06729,-0.044 -5.012,-0.749 -4.85894,-1.4393 -4.61126,-2.1016 z"
       id="path11739"
       inkscape:connector-curvature="0"
       sodipodi:nodetypes="cccccccccccccccccccccccccccccccccccccccccccccccc" />
    <path
       style="fill:none;stroke:#ff0000;stroke-opacity:1"
       d="m -3.949795,1097.6829 -0.653067,-0.899 -0.451914,-1.0151 -0.231059,-1.0868 0,-1.1111 0.231059,-1.0868 0.451914,-1.0151 0.653067,-0.899 0.825775,-0.7433 0.962277,-0.5556 1.056731,-0.3434 L 0,1088.8115 l 1.105012,0.1162 1.056731,0.3434 0.962277,0.5556 0.825775,0.7433 0.653067,0.899 0.451914,1.0151 0.231059,1.0868 0,1.1111 -0.231059,1.0868 -0.451914,1.0151 -0.653067,0.899 -0.825775,0.7434 -0.962277,0.5555 -1.056731,0.3434 L 0,1099.4414 l -1.105012,-0.1162 -1.056731,-0.3434 -0.962277,-0.5555 z"
       id="path11831"
       inkscape:connector-curvature="0"
       sodipodi:nodetypes="ccccccccccccccccccccccccccccccc" />
    <path
       style="fill:none;stroke:#ff0000;stroke-opacity:1"
       d="m 20.773843,1196.9125 -1.096796,-4.9475 -0.397594,-5.0517 -1.676906,-76.9681 0.05304,-0.867 0.173196,-0.8512 0.29002,-0.8188 0.401102,-0.7707 0.504497,-0.7072 0.597968,-0.6304 0.67989,-0.5407 0.748488,-0.4408 0.80263,-0.3323 0.841075,-0.2176 0.863114,-0.098 0.868464,0.023 0.856808,0.1435 0.828496,0.2611 0.784133,0.3742 0.724394,0.4794 0.650622,0.5758 53.238685,55.6101 3.291024,3.8533 2.723031,4.274 2.101536,4.6112 1.439291,4.859 0.749055,5.012 0.04394,5.0672 -0.661181,5.0245 -1.354252,4.883 -2.020748,4.6474 -2.647913,4.3207 -3.223347,3.9104 -3.736417,3.4235 -4.176142,2.8705 -4.535078,2.2609 -4.805788,1.608 -4.982953,0.9237 -5.062677,0.2211 -5.044252,-0.4857 -4.927323,-1.1832 -4.715078,-1.8574 -4.410709,-2.4952 -4.020307,-3.0851 -3.551953,-3.6142 -3.014327,-4.0737 -2.418023,-4.4536 z"
       id="path11901"
       inkscape:connector-curvature="0"
       sodipodi:nodetypes="cccccccccccccccccccccccccccccccccccccccccccccccc" />
    <path
       style="fill:none;stroke:#ff0000;stroke-opacity:1"
       d="m -87.523228,1169.2641 2.723031,-4.274 3.291024,-3.8533 53.238685,-55.6101 0.650622,-0.5758 0.724394,-0.4794 0.784133,-0.3742 0.828496,-0.2611 0.856808,-0.1435 0.868464,-0.023 0.863114,0.098 0.841075,0.2176 0.80263,0.3323 0.748488,0.4408 0.67989,0.5407 0.597968,0.6304 0.504497,0.7072 0.401102,0.7707 0.29002,0.8188 0.173196,0.8512 0.05304,0.867 -1.676906,76.9681 -0.397594,5.0517 -1.096796,4.9475 -1.774736,4.7466 -2.418023,4.4536 -3.014327,4.0737 -3.551953,3.6142 -4.020307,3.0851 -4.410709,2.4952 -4.715078,1.8574 -4.927323,1.1832 -5.044252,0.4857 -5.062677,-0.2211 -4.982953,-0.9237 -4.805788,-1.608 -4.535078,-2.2609 -4.176142,-2.8705 -3.736417,-3.4235 -3.223347,-3.9104 -2.647913,-4.3207 -2.020748,-4.6474 -1.354252,-4.883 -0.661181,-5.0245 0.04394,-5.0672 0.749055,-5.012 1.439291,-4.859 z"
       id="path12007"
       inkscape:connector-curvature="0"
       sodipodi:nodetypes="cccccccccccccccccccccccccccccccccccccccccccccccc" />
    <path
       style="fill:none;stroke:#ff0000;stroke-opacity:1"
       d="m 134.98653,1188.9117 -0.99,0.5046 -1.07326,0.2873 -1.10941,0.058 -1.09736,-0.1736 -1.03748,-0.3983 -0.93189,-0.6052 -0.78556,-0.7855 -0.60519,-0.9319 -0.39827,-1.0375 -0.17398,-1.0973 0.0581,-1.1098 0.28772,-1.0733 0.50457,-0.99 0.69909,-0.8635 0.86351,-0.6991 0.99,-0.5045 1.07326,-0.2878 1.10977,-0.058 1.09736,0.174 1.03748,0.3983 0.93189,0.6052 0.78555,0.7855 0.6052,0.9319 0.39827,1.0375 0.17362,1.0974 -0.0581,1.1094 -0.28737,1.0732 -0.50456,0.99 -0.69945,0.8635 z"
       id="path12125"
       inkscape:connector-curvature="0"
       sodipodi:nodetypes="ccccccccccccccccccccccccccccccc" />
    <path
       style="fill:none;stroke:#ff0000;stroke-opacity:1"
       d="m -133.46752,1179.3203 1.09736,-0.174 1.10977,0.058 1.07326,0.2878 0.99,0.5045 0.86351,0.6991 0.69909,0.8635 0.50457,0.99 0.28772,1.0733 0.0581,1.1098 -0.17398,1.0973 -0.39827,1.0375 -0.60519,0.9319 -0.78556,0.7855 -0.93189,0.6052 -1.03748,0.3983 -1.09736,0.1736 -1.10941,-0.058 -1.07326,-0.2873 -0.99,-0.5046 -0.86351,-0.6995 -0.69945,-0.8635 -0.50456,-0.99 -0.28737,-1.0732 -0.0581,-1.1094 0.17362,-1.0974 0.39827,-1.0375 0.6052,-0.9319 0.78555,-0.7855 0.93189,-0.6052 z"
       id="path12159"
       inkscape:connector-curvature="0"
       sodipodi:nodetypes="ccccccccccccccccccccccccccccccc" />
    <path
       style="fill:none;stroke:#ff0000;stroke-opacity:1"
       d="m 3.949795,1242.725 -0.825775,0.7433 -0.962277,0.5556 -1.056731,0.3434 L 0,1244.4835 l -1.105012,-0.1162 -1.056731,-0.3434 -0.962277,-0.5556 -0.825775,-0.7433 -0.653067,-0.899 -0.451914,-1.0151 -0.231059,-1.0868 0,-1.1111 0.231059,-1.0871 0.451914,-1.0148 0.653067,-0.899 0.825775,-0.7437 0.962277,-0.5552 1.056731,-0.3438 L 0,1233.8536 l 1.105012,0.1158 1.056731,0.3438 0.962277,0.5552 0.825775,0.7437 0.653067,0.899 0.451914,1.0148 0.231059,1.0871 0,1.1111 -0.231059,1.0868 -0.451914,1.0151 z"
       id="path12243"
       inkscape:connector-curvature="0"
       sodipodi:nodetypes="ccccccccccccccccccccccccccccccc" />
  </g>
</svg>
