  0
SECTION
  2
HEADER
  9
$ACADVER
  1
AC1014
  9
$HANDSEED
  5
FFFF
  9
$MEASUREMENT
 70
     1
  0
ENDSEC
  0
SECTION
  2
TABLES
  0
TABLE
  2
VPORT
  5
8
330
0
100
AcDbSymbolTable
 70
     4
  0
VPORT
  5
2E
330
8
100
AcDbSymbolTableRecord
100
AcDbViewportTableRecord
  2
*ACTIVE
 70
     0
 10
0.0
 20
0.0
 11
1.0
 21
1.0
 12
210.0
 22
148.5
 13
0.0
 23
0.0
 14
10.0
 24
10.0
 15
10.0
 25
10.0
 16
0.0
 26
0.0
 36
1.0
 17
0.0
 27
0.0
 37
0.0
 40
341.0
 41
1.24
 42
50.0
 43
0.0
 44
0.0
 50
0.0
 51
0.0
 71
     0
 72
   100
 73
     1
 74
     3
 75
     0
 76
     0
 77
     0
 78
     0
  0
ENDTAB
  0
TABLE
  2
LTYPE
  5
5
330
0
100
AcDbSymbolTable
 70
     1
  0
LTYPE
  5
14
330
5
100
AcDbSymbolTableRecord
100
AcDbLinetypeTableRecord
  2
BYBLOCK
 70
     0
  3

 72
    65
 73
     0
 40
0.0
  0
LTYPE
  5
15
330
5
100
AcDbSymbolTableRecord
100
AcDbLinetypeTableRecord
  2
BYLAYER
 70
     0
  3

 72
    65
 73
     0
 40
0.0
  0
LTYPE
  5
16
330
5
100
AcDbSymbolTableRecord
100
AcDbLinetypeTableRecord
  2
CONTINUOUS
 70
     0
  3
Solid line
 72
    65
 73
     0
 40
0.0
  0
ENDTAB
  0
TABLE
  2
LAYER
  5
2
100
AcDbSymbolTable
 70
1
  0
LAYER
  5
50
100
AcDbSymbolTableRecord
100
AcDbLayerTableRecord
  2
0
 70
0
  6
CONTINUOUS
  0
ENDTAB
  0
TABLE
  2
STYLE
  5
3
330
0
100
AcDbSymbolTable
 70
     1
  0
STYLE
  5
11
330
3
100
AcDbSymbolTableRecord
100
AcDbTextStyleTableRecord
  2
STANDARD
 70
     0
 40
0.0
 41
1.0
 50
0.0
 71
     0
 42
2.5
  3
txt
  4

  0
ENDTAB
  0
TABLE
  2
VIEW
  5
6
330
0
100
AcDbSymbolTable
 70
     0
  0
ENDTAB
  0
TABLE
  2
UCS
  5
7
330
0
100
AcDbSymbolTable
 70
     0
  0
ENDTAB
  0
TABLE
  2
APPID
  5
9
330
0
100
AcDbSymbolTable
 70
     2
  0
APPID
  5
12
330
9
100
AcDbSymbolTableRecord
100
AcDbRegAppTableRecord
  2
ACAD
 70
     0
  0
ENDTAB
  0
TABLE
  2
DIMSTYLE
  5
A
330
0
100
AcDbSymbolTable
 70
     1
  0
DIMSTYLE
105
27
330
A
100
AcDbSymbolTableRecord
100
AcDbDimStyleTableRecord
  2
ISO-25
 70
     0
  3

  4

  5

  6

  7

 40
1.0
 41
2.5
 42
0.625
 43
3.75
 44
1.25
 45
0.0
 46
0.0
 47
0.0
 48
0.0
140
2.5
141
2.5
142
0.0
143
0.03937007874016
144
1.0
145
0.0
146
1.0
147
0.625
 71
     0
 72
     0
 73
     0
 74
     0
 75
     0
 76
     0
 77
     1
 78
     8
170
     0
171
     3
172
     1
173
     0
174
     0
175
     0
176
     0
177
     0
178
     0
270
     2
271
     2
272
     2
273
     2
274
     3
340
11
275
     0
280
     0
281
     0
282
     0
283
     0
284
     8
285
     0
286
     0
287
     3
288
     0
  0
ENDTAB
  0
TABLE
  2
BLOCK_RECORD
  5
1
330
0
100
AcDbSymbolTable
 70
     1
  0
BLOCK_RECORD
  5
1F
330
1
100
AcDbSymbolTableRecord
100
AcDbBlockTableRecord
  2
*MODEL_SPACE
  0
BLOCK_RECORD
  5
1B
330
1
100
AcDbSymbolTableRecord
100
AcDbBlockTableRecord
  2
*PAPER_SPACE
  0
ENDTAB
  0
ENDSEC
  0
SECTION
  2
BLOCKS
  0
BLOCK
  5
20
330
1F
100
AcDbEntity
  8
0
100
AcDbBlockBegin
  2
*MODEL_SPACE
 70
     0
 10
0.0
 20
0.0
 30
0.0
  3
*MODEL_SPACE
  1

  0
ENDBLK
  5
21
330
1F
100
AcDbEntity
  8
0
100
AcDbBlockEnd
  0
BLOCK
  5
1C
330
1B
100
AcDbEntity
 67
     1
  8
0
100
AcDbBlockBegin
  2
*PAPER_SPACE
  1

  0
ENDBLK
  5
1D
330
1B
100
AcDbEntity
 67
     1
  8
0
100
AcDbBlockEnd
  0
ENDSEC
  0
SECTION
  2
ENTITIES
  0
LWPOLYLINE
  5
100
100
AcDbEntity
  8
0
 62
7
100
AcDbPolyline
 90
173
 70
1
 10
47.838100
 20
41.500000
 30
0.0
 10
47.838100
 20
41.495908
 30
0.0
 10
47.916499
 20
41.495908
 30
0.0
 10
48.069901
 20
41.463308
 30
0.0
 10
48.213100
 20
41.399509
 30
0.0
 10
48.339900
 20
41.307409
 30
0.0
 10
48.444901
 20
41.190809
 30
0.0
 10
48.523299
 20
41.055009
 30
0.0
 10
48.571700
 20
40.905908
 30
0.0
 10
48.588097
 20
40.750009
 30
0.0
 10
48.571700
 20
40.594109
 30
0.0
 10
48.523299
 20
40.445008
 30
0.0
 10
48.444901
 20
40.309209
 30
0.0
 10
48.339900
 20
40.192609
 30
0.0
 10
48.213100
 20
40.100508
 30
0.0
 10
48.069901
 20
40.036709
 30
0.0
 10
47.916499
 20
40.004110
 30
0.0
 10
47.838100
 20
40.004110
 30
0.0
 10
47.838100
 20
38.550007
 30
0.0
 10
47.778501
 20
37.983410
 30
0.0
 10
47.602501
 20
37.441710
 30
0.0
 10
47.317700
 20
36.948309
 30
0.0
 10
46.936499
 20
36.524908
 30
0.0
 10
46.475599
 20
36.190108
 30
0.0
 10
45.955201
 20
35.958409
 30
0.0
 10
45.397900
 20
35.839909
 30
0.0
 10
44.828299
 20
35.839909
 30
0.0
 10
44.271001
 20
35.958409
 30
0.0
 10
43.750600
 20
36.190108
 30
0.0
 10
43.289700
 20
36.524908
 30
0.0
 10
42.908499
 20
36.948309
 30
0.0
 10
42.623700
 20
37.441710
 30
0.0
 10
42.447599
 20
37.983410
 30
0.0
 10
42.388099
 20
38.550007
 30
0.0
 10
42.388099
 20
40.004110
 30
0.0
 10
42.309700
 20
40.004110
 30
0.0
 10
42.156301
 20
40.036709
 30
0.0
 10
42.013099
 20
40.100508
 30
0.0
 10
41.886299
 20
40.192609
 30
0.0
 10
41.781301
 20
40.309209
 30
0.0
 10
41.702900
 20
40.445008
 30
0.0
 10
41.654499
 20
40.594109
 30
0.0
 10
41.638101
 20
40.750009
 30
0.0
 10
41.654499
 20
40.905908
 30
0.0
 10
41.702900
 20
41.055108
 30
0.0
 10
41.781301
 20
41.190809
 30
0.0
 10
41.886299
 20
41.307409
 30
0.0
 10
42.013099
 20
41.399509
 30
0.0
 10
42.156301
 20
41.463308
 30
0.0
 10
42.309700
 20
41.495908
 30
0.0
 10
42.388099
 20
41.495908
 30
0.0
 10
42.388099
 20
41.500000
 30
0.0
 10
43.638100
 20
41.500000
 30
0.0
 10
43.638100
 20
44.300000
 30
0.0
 10
33.500001
 20
44.300000
 30
0.0
 10
33.500001
 20
41.500000
 30
0.0
 10
11.613100
 20
41.500000
 30
0.0
 10
11.613100
 20
44.300000
 30
0.0
 10
-11.613100
 20
44.300000
 30
0.0
 10
-11.613100
 20
41.500000
 30
0.0
 10
-33.500001
 20
41.500000
 30
0.0
 10
-33.500001
 20
44.300000
 30
0.0
 10
-43.638100
 20
44.300000
 30
0.0
 10
-43.638100
 20
41.500000
 30
0.0
 10
-42.388099
 20
41.500000
 30
0.0
 10
-42.388099
 20
41.495908
 30
0.0
 10
-42.309700
 20
41.495908
 30
0.0
 10
-42.156301
 20
41.463308
 30
0.0
 10
-42.013099
 20
41.399509
 30
0.0
 10
-41.886200
 20
41.307409
 30
0.0
 10
-41.781301
 20
41.190809
 30
0.0
 10
-41.702900
 20
41.055009
 30
0.0
 10
-41.654499
 20
40.905908
 30
0.0
 10
-41.638101
 20
40.750009
 30
0.0
 10
-41.654499
 20
40.594109
 30
0.0
 10
-41.702900
 20
40.445008
 30
0.0
 10
-41.781301
 20
40.309209
 30
0.0
 10
-41.886200
 20
40.192609
 30
0.0
 10
-42.013099
 20
40.100508
 30
0.0
 10
-42.156301
 20
40.036709
 30
0.0
 10
-42.309700
 20
40.004110
 30
0.0
 10
-42.388099
 20
40.004110
 30
0.0
 10
-42.388099
 20
38.550007
 30
0.0
 10
-42.447599
 20
37.983410
 30
0.0
 10
-42.623700
 20
37.441710
 30
0.0
 10
-42.908499
 20
36.948309
 30
0.0
 10
-43.289700
 20
36.524908
 30
0.0
 10
-43.750600
 20
36.190108
 30
0.0
 10
-44.271001
 20
35.958409
 30
0.0
 10
-44.828200
 20
35.839909
 30
0.0
 10
-45.397900
 20
35.839909
 30
0.0
 10
-45.955100
 20
35.958409
 30
0.0
 10
-46.475599
 20
36.190108
 30
0.0
 10
-46.936499
 20
36.524908
 30
0.0
 10
-47.317601
 20
36.948309
 30
0.0
 10
-47.602501
 20
37.441710
 30
0.0
 10
-47.778501
 20
37.983410
 30
0.0
 10
-47.838100
 20
38.550007
 30
0.0
 10
-47.838100
 20
40.004110
 30
0.0
 10
-47.916499
 20
40.004110
 30
0.0
 10
-48.069799
 20
40.036709
 30
0.0
 10
-48.213100
 20
40.100508
 30
0.0
 10
-48.339900
 20
40.192609
 30
0.0
 10
-48.444799
 20
40.309209
 30
0.0
 10
-48.523200
 20
40.445008
 30
0.0
 10
-48.571700
 20
40.594109
 30
0.0
 10
-48.588097
 20
40.750009
 30
0.0
 10
-48.571700
 20
40.905908
 30
0.0
 10
-48.523200
 20
41.055108
 30
0.0
 10
-48.444799
 20
41.190809
 30
0.0
 10
-48.339900
 20
41.307409
 30
0.0
 10
-48.213100
 20
41.399509
 30
0.0
 10
-48.069799
 20
41.463308
 30
0.0
 10
-47.916499
 20
41.495908
 30
0.0
 10
-47.838100
 20
41.495908
 30
0.0
 10
-47.838100
 20
41.500000
 30
0.0
 10
-46.588099
 20
41.500000
 30
0.0
 10
-46.588099
 20
44.300000
 30
0.0
 10
-56.726201
 20
44.300000
 30
0.0
 10
-56.726201
 20
41.500000
 30
0.0
 10
-59.891100
 20
41.500000
 30
0.0
 10
-59.891100
 20
18.666501
 30
0.0
 10
-62.726200
 20
18.666501
 30
0.0
 10
-62.726200
 20
4.833339
 30
0.0
 10
-59.891100
 20
4.833452
 30
0.0
 10
-59.891100
 20
-18.000104
 30
0.0
 10
-62.726200
 20
-18.000104
 30
0.0
 10
-62.726200
 20
-77.856700
 30
0.0
 10
-60.459899
 20
-79.652988
 30
0.0
 10
-57.071401
 20
-82.114897
 30
0.0
 10
-53.582700
 20
-84.432788
 30
0.0
 10
-49.999999
 20
-86.602512
 30
0.0
 10
-46.329600
 20
-88.620288
 30
0.0
 10
-42.577899
 20
-90.482701
 30
0.0
 10
-38.751600
 20
-92.186307
 30
0.0
 10
-34.857199
 20
-93.728200
 30
0.0
 10
-30.901699
 20
-95.105614
 30
0.0
 10
-26.892000
 20
-96.316291
 30
0.0
 10
-22.835100
 20
-97.357888
 30
0.0
 10
-18.738100
 20
-98.228713
 30
0.0
 10
-14.608300
 20
-98.927213
 30
0.0
 10
-10.452800
 20
-99.452203
 30
0.0
 10
-6.279040
 20
-99.802695
 30
0.0
 10
-2.094240
 20
-99.978096
 30
0.0
 10
2.094240
 20
-99.978096
 30
0.0
 10
6.279040
 20
-99.802695
 30
0.0
 10
10.452800
 20
-99.452203
 30
0.0
 10
14.608300
 20
-98.927213
 30
0.0
 10
18.738100
 20
-98.228713
 30
0.0
 10
22.835100
 20
-97.357888
 30
0.0
 10
26.892000
 20
-96.316291
 30
0.0
 10
30.901699
 20
-95.105614
 30
0.0
 10
34.857199
 20
-93.728200
 30
0.0
 10
38.751600
 20
-92.186307
 30
0.0
 10
42.577899
 20
-90.482701
 30
0.0
 10
46.329600
 20
-88.620288
 30
0.0
 10
49.999999
 20
-86.602512
 30
0.0
 10
53.582700
 20
-84.432788
 30
0.0
 10
57.071401
 20
-82.114897
 30
0.0
 10
60.459899
 20
-79.652988
 30
0.0
 10
62.726200
 20
-77.856700
 30
0.0
 10
62.726200
 20
-18.000104
 30
0.0
 10
59.891100
 20
-18.000104
 30
0.0
 10
59.890999
 20
4.833339
 30
0.0
 10
62.726200
 20
4.833452
 30
0.0
 10
62.726200
 20
18.666501
 30
0.0
 10
59.891100
 20
18.666501
 30
0.0
 10
59.890999
 20
41.500000
 30
0.0
 10
56.726201
 20
41.500000
 30
0.0
 10
56.726201
 20
44.300000
 30
0.0
 10
46.588099
 20
44.300000
 30
0.0
 10
46.588099
 20
41.500000
 30
0.0
 10
47.838100
 20
41.500000
 30
0.0
  0
LWPOLYLINE
  5
101
100
AcDbEntity
  8
0
 62
7
100
AcDbPolyline
 90
5
 70
1
 10
-57.726199
 20
34.500000
 30
0.0
 10
-55.726200
 20
34.500000
 30
0.0
 10
-55.726200
 20
30.500000
 30
0.0
 10
-57.726199
 20
30.500000
 30
0.0
 10
-57.726199
 20
34.500000
 30
0.0
  0
LWPOLYLINE
  5
102
100
AcDbEntity
  8
0
 62
7
100
AcDbPolyline
 90
5
 70
1
 10
55.726200
 20
34.500000
 30
0.0
 10
57.726199
 20
34.500000
 30
0.0
 10
57.726199
 20
30.500000
 30
0.0
 10
55.726200
 20
30.500000
 30
0.0
 10
55.726200
 20
34.500000
 30
0.0
  0
LWPOLYLINE
  5
103
100
AcDbEntity
  8
0
 62
7
100
AcDbPolyline
 90
5
 70
1
 10
45.105501
 20
31.500099
 30
0.0
 10
45.105501
 20
18.666501
 30
0.0
 10
41.343800
 20
18.666501
 30
0.0
 10
41.343699
 20
31.500000
 30
0.0
 10
45.105501
 20
31.500099
 30
0.0
  0
LWPOLYLINE
  5
104
100
AcDbEntity
  8
0
 62
7
100
AcDbPolyline
 90
5
 70
1
 10
-45.105599
 20
31.500000
 30
0.0
 10
-41.343800
 20
31.500099
 30
0.0
 10
-41.343800
 20
18.666501
 30
0.0
 10
-45.105501
 20
18.666501
 30
0.0
 10
-45.105599
 20
31.500000
 30
0.0
  0
LWPOLYLINE
  5
105
100
AcDbEntity
  8
0
 62
7
100
AcDbPolyline
 90
33
 70
1
 10
-30.500001
 20
1.869865
 30
0.0
 10
-31.345601
 20
2.484262
 30
0.0
 10
-32.045100
 20
3.261051
 30
0.0
 10
-32.567699
 20
4.166307
 30
0.0
 10
-32.890700
 20
5.160435
 30
0.0
 10
-32.999999
 20
6.200000
 30
0.0
 10
-32.999999
 20
26.200000
 30
0.0
 10
-32.890700
 20
27.239500
 30
0.0
 10
-32.567699
 20
28.233699
 30
0.0
 10
-32.045100
 20
29.138901
 30
0.0
 10
-31.345601
 20
29.915701
 30
0.0
 10
-30.500001
 20
30.530101
 30
0.0
 10
-29.545099
 20
30.955300
 30
0.0
 10
-28.522600
 20
31.172600
 30
0.0
 10
-27.477400
 20
31.172600
 30
0.0
 10
-26.454900
 20
30.955300
 30
0.0
 10
-25.500000
 20
30.530101
 30
0.0
 10
-24.654300
 20
29.915701
 30
0.0
 10
-23.954900
 20
29.138901
 30
0.0
 10
-23.432300
 20
28.233699
 30
0.0
 10
-23.109300
 20
27.239500
 30
0.0
 10
-23.000000
 20
26.200000
 30
0.0
 10
-23.000000
 20
6.200000
 30
0.0
 10
-23.109300
 20
5.160435
 30
0.0
 10
-23.432300
 20
4.166307
 30
0.0
 10
-23.954900
 20
3.261051
 30
0.0
 10
-24.654300
 20
2.484262
 30
0.0
 10
-25.500000
 20
1.869865
 30
0.0
 10
-26.454900
 20
1.444725
 30
0.0
 10
-27.477400
 20
1.227386
 30
0.0
 10
-28.522600
 20
1.227386
 30
0.0
 10
-29.545099
 20
1.444725
 30
0.0
 10
-30.500001
 20
1.869865
 30
0.0
  0
LWPOLYLINE
  5
106
100
AcDbEntity
  8
0
 62
7
100
AcDbPolyline
 90
33
 70
1
 10
29.545099
 20
30.955300
 30
0.0
 10
30.500001
 20
30.530101
 30
0.0
 10
31.345601
 20
29.915701
 30
0.0
 10
32.045100
 20
29.138901
 30
0.0
 10
32.567699
 20
28.233699
 30
0.0
 10
32.890700
 20
27.239500
 30
0.0
 10
32.999999
 20
26.200000
 30
0.0
 10
32.999999
 20
6.200000
 30
0.0
 10
32.890700
 20
5.160435
 30
0.0
 10
32.567699
 20
4.166307
 30
0.0
 10
32.045100
 20
3.261051
 30
0.0
 10
31.345601
 20
2.484262
 30
0.0
 10
30.500001
 20
1.869865
 30
0.0
 10
29.545099
 20
1.444725
 30
0.0
 10
28.522600
 20
1.227386
 30
0.0
 10
27.477400
 20
1.227386
 30
0.0
 10
26.454900
 20
1.444725
 30
0.0
 10
25.500000
 20
1.869865
 30
0.0
 10
24.654300
 20
2.484262
 30
0.0
 10
23.954900
 20
3.261051
 30
0.0
 10
23.432300
 20
4.166307
 30
0.0
 10
23.109300
 20
5.160435
 30
0.0
 10
23.000000
 20
6.200000
 30
0.0
 10
23.000000
 20
26.200000
 30
0.0
 10
23.109300
 20
27.239500
 30
0.0
 10
23.432300
 20
28.233699
 30
0.0
 10
23.954900
 20
29.138901
 30
0.0
 10
24.654300
 20
29.915701
 30
0.0
 10
25.500000
 20
30.530101
 30
0.0
 10
26.454900
 20
30.955300
 30
0.0
 10
27.477400
 20
31.172600
 30
0.0
 10
28.522600
 20
31.172600
 30
0.0
 10
29.545099
 20
30.955300
 30
0.0
  0
LWPOLYLINE
  5
107
100
AcDbEntity
  8
0
 62
7
100
AcDbPolyline
 90
33
 70
1
 10
-17.000000
 20
26.200000
 30
0.0
 10
-17.000000
 20
6.200000
 30
0.0
 10
-17.032800
 20
5.888116
 30
0.0
 10
-17.129700
 20
5.589892
 30
0.0
 10
-17.286500
 20
5.318310
 30
0.0
 10
-17.496300
 20
5.085279
 30
0.0
 10
-17.750000
 20
4.900960
 30
0.0
 10
-18.036500
 20
4.773423
 30
0.0
 10
-18.343200
 20
4.708202
 30
0.0
 10
-18.656800
 20
4.708202
 30
0.0
 10
-18.963500
 20
4.773423
 30
0.0
 10
-19.250000
 20
4.900960
 30
0.0
 10
-19.503700
 20
5.085279
 30
0.0
 10
-19.713500
 20
5.318310
 30
0.0
 10
-19.870300
 20
5.589892
 30
0.0
 10
-19.967200
 20
5.888116
 30
0.0
 10
-20.000000
 20
6.200000
 30
0.0
 10
-20.000000
 20
26.200000
 30
0.0
 10
-19.967200
 20
26.511900
 30
0.0
 10
-19.870300
 20
26.810099
 30
0.0
 10
-19.713500
 20
27.081701
 30
0.0
 10
-19.503700
 20
27.314698
 30
0.0
 10
-19.250000
 20
27.499001
 30
0.0
 10
-18.963500
 20
27.626599
 30
0.0
 10
-18.656800
 20
27.691801
 30
0.0
 10
-18.343200
 20
27.691801
 30
0.0
 10
-18.036500
 20
27.626599
 30
0.0
 10
-17.750000
 20
27.499001
 30
0.0
 10
-17.496300
 20
27.314698
 30
0.0
 10
-17.286500
 20
27.081701
 30
0.0
 10
-17.129700
 20
26.810099
 30
0.0
 10
-17.032800
 20
26.511900
 30
0.0
 10
-17.000000
 20
26.200000
 30
0.0
  0
LWPOLYLINE
  5
108
100
AcDbEntity
  8
0
 62
7
100
AcDbPolyline
 90
33
 70
1
 10
17.129700
 20
5.589892
 30
0.0
 10
17.032800
 20
5.888116
 30
0.0
 10
17.000000
 20
6.200000
 30
0.0
 10
17.000000
 20
26.200000
 30
0.0
 10
17.032800
 20
26.511900
 30
0.0
 10
17.129700
 20
26.810099
 30
0.0
 10
17.286500
 20
27.081701
 30
0.0
 10
17.496300
 20
27.314698
 30
0.0
 10
17.750000
 20
27.499001
 30
0.0
 10
18.036500
 20
27.626599
 30
0.0
 10
18.343200
 20
27.691801
 30
0.0
 10
18.656800
 20
27.691801
 30
0.0
 10
18.963500
 20
27.626599
 30
0.0
 10
19.250000
 20
27.499001
 30
0.0
 10
19.503700
 20
27.314698
 30
0.0
 10
19.713500
 20
27.081701
 30
0.0
 10
19.870300
 20
26.810099
 30
0.0
 10
19.967200
 20
26.511900
 30
0.0
 10
20.000000
 20
26.200000
 30
0.0
 10
20.000000
 20
6.200000
 30
0.0
 10
19.967200
 20
5.888116
 30
0.0
 10
19.870300
 20
5.589892
 30
0.0
 10
19.713500
 20
5.318310
 30
0.0
 10
19.503700
 20
5.085279
 30
0.0
 10
19.250000
 20
4.900960
 30
0.0
 10
18.963500
 20
4.773423
 30
0.0
 10
18.656800
 20
4.708202
 30
0.0
 10
18.343200
 20
4.708202
 30
0.0
 10
18.036500
 20
4.773423
 30
0.0
 10
17.750000
 20
4.900960
 30
0.0
 10
17.496300
 20
5.085279
 30
0.0
 10
17.286500
 20
5.318310
 30
0.0
 10
17.129700
 20
5.589892
 30
0.0
  0
LWPOLYLINE
  5
109
100
AcDbEntity
  8
0
 62
7
100
AcDbPolyline
 90
5
 70
1
 10
-37.726199
 20
23.499999
 30
0.0
 10
-39.726201
 20
23.499999
 30
0.0
 10
-39.726201
 20
27.500000
 30
0.0
 10
-37.726199
 20
27.500000
 30
0.0
 10
-37.726199
 20
23.499999
 30
0.0
  0
LWPOLYLINE
  5
10a
100
AcDbEntity
  8
0
 62
7
100
AcDbPolyline
 90
5
 70
1
 10
39.726201
 20
27.500000
 30
0.0
 10
39.726201
 20
23.499999
 30
0.0
 10
37.726199
 20
23.499999
 30
0.0
 10
37.726199
 20
27.500000
 30
0.0
 10
39.726201
 20
27.500000
 30
0.0
  0
LWPOLYLINE
  5
10b
100
AcDbEntity
  8
0
 62
7
100
AcDbPolyline
 90
5
 70
1
 10
-46.726201
 20
23.499999
 30
0.0
 10
-48.726200
 20
23.499999
 30
0.0
 10
-48.726200
 20
27.500000
 30
0.0
 10
-46.726201
 20
27.500000
 30
0.0
 10
-46.726201
 20
23.499999
 30
0.0
  0
LWPOLYLINE
  5
10c
100
AcDbEntity
  8
0
 62
7
100
AcDbPolyline
 90
5
 70
1
 10
46.726201
 20
27.500000
 30
0.0
 10
48.726200
 20
27.500000
 30
0.0
 10
48.726200
 20
23.499999
 30
0.0
 10
46.726201
 20
23.499999
 30
0.0
 10
46.726201
 20
27.500000
 30
0.0
  0
LWPOLYLINE
  5
10d
100
AcDbEntity
  8
0
 62
7
100
AcDbPolyline
 90
31
 70
1
 10
-9.737490
 20
6.550577
 30
0.0
 10
-9.417600
 20
6.693014
 30
0.0
 10
-9.075070
 20
6.765828
 30
0.0
 10
-8.724910
 20
6.765828
 30
0.0
 10
-8.382390
 20
6.693014
 30
0.0
 10
-8.062500
 20
6.550577
 30
0.0
 10
-7.779210
 20
6.344752
 30
0.0
 10
-7.544890
 20
6.084543
 30
0.0
 10
-7.369800
 20
5.781267
 30
0.0
 10
-7.261600
 20
5.448245
 30
0.0
 10
-7.224990
 20
5.099983
 30
0.0
 10
-7.261600
 20
4.751749
 30
0.0
 10
-7.369800
 20
4.418698
 30
0.0
 10
-7.544890
 20
4.115450
 30
0.0
 10
-7.779210
 20
3.855213
 30
0.0
 10
-8.062500
 20
3.649389
 30
0.0
 10
-8.382390
 20
3.506979
 30
0.0
 10
-8.724910
 20
3.434166
 30
0.0
 10
-9.075070
 20
3.434166
 30
0.0
 10
-9.417600
 20
3.506979
 30
0.0
 10
-9.737490
 20
3.649389
 30
0.0
 10
-10.020800
 20
3.855213
 30
0.0
 10
-10.255100
 20
4.115450
 30
0.0
 10
-10.430200
 20
4.418698
 30
0.0
 10
-10.538400
 20
4.751749
 30
0.0
 10
-10.575000
 20
5.099983
 30
0.0
 10
-10.538400
 20
5.448245
 30
0.0
 10
-10.430200
 20
5.781267
 30
0.0
 10
-10.255100
 20
6.084543
 30
0.0
 10
-10.020800
 20
6.344752
 30
0.0
 10
-9.737490
 20
6.550577
 30
0.0
  0
LWPOLYLINE
  5
10e
100
AcDbEntity
  8
0
 62
7
100
AcDbPolyline
 90
31
 70
1
 10
7.369800
 20
5.781267
 30
0.0
 10
7.544890
 20
6.084543
 30
0.0
 10
7.779210
 20
6.344752
 30
0.0
 10
8.062500
 20
6.550577
 30
0.0
 10
8.382390
 20
6.693014
 30
0.0
 10
8.724910
 20
6.765828
 30
0.0
 10
9.075070
 20
6.765828
 30
0.0
 10
9.417600
 20
6.693014
 30
0.0
 10
9.737490
 20
6.550577
 30
0.0
 10
10.020800
 20
6.344752
 30
0.0
 10
10.255100
 20
6.084543
 30
0.0
 10
10.430200
 20
5.781267
 30
0.0
 10
10.538400
 20
5.448245
 30
0.0
 10
10.575000
 20
5.099983
 30
0.0
 10
10.538400
 20
4.751749
 30
0.0
 10
10.430200
 20
4.418698
 30
0.0
 10
10.255100
 20
4.115450
 30
0.0
 10
10.020800
 20
3.855213
 30
0.0
 10
9.737490
 20
3.649389
 30
0.0
 10
9.417600
 20
3.506979
 30
0.0
 10
9.075070
 20
3.434166
 30
0.0
 10
8.724910
 20
3.434166
 30
0.0
 10
8.382390
 20
3.506979
 30
0.0
 10
8.062500
 20
3.649389
 30
0.0
 10
7.779210
 20
3.855213
 30
0.0
 10
7.544890
 20
4.115450
 30
0.0
 10
7.369800
 20
4.418698
 30
0.0
 10
7.261600
 20
4.751749
 30
0.0
 10
7.224990
 20
5.099983
 30
0.0
 10
7.261600
 20
5.448245
 30
0.0
 10
7.369800
 20
5.781267
 30
0.0
  0
LWPOLYLINE
  5
10f
100
AcDbEntity
  8
0
 62
7
100
AcDbPolyline
 90
5
 70
1
 10
41.343699
 20
4.833339
 30
0.0
 10
45.105501
 20
4.833452
 30
0.0
 10
45.105501
 20
-18.000104
 30
0.0
 10
41.343800
 20
-18.000104
 30
0.0
 10
41.343699
 20
4.833339
 30
0.0
  0
LWPOLYLINE
  5
110
100
AcDbEntity
  8
0
 62
7
100
AcDbPolyline
 90
5
 70
1
 10
-41.343800
 20
-18.000104
 30
0.0
 10
-45.105501
 20
-18.000104
 30
0.0
 10
-45.105599
 20
4.833339
 30
0.0
 10
-41.343800
 20
4.833452
 30
0.0
 10
-41.343800
 20
-18.000104
 30
0.0
  0
LWPOLYLINE
  5
111
100
AcDbEntity
  8
0
 62
7
100
AcDbPolyline
 90
31
 70
1
 10
-8.724910
 20
-6.765825
 30
0.0
 10
-9.075070
 20
-6.765825
 30
0.0
 10
-9.417600
 20
-6.693012
 30
0.0
 10
-9.737490
 20
-6.550574
 30
0.0
 10
-10.020800
 20
-6.344749
 30
0.0
 10
-10.255100
 20
-6.084540
 30
0.0
 10
-10.430200
 20
-5.781293
 30
0.0
 10
-10.538400
 20
-5.448242
 30
0.0
 10
-10.575000
 20
-5.099980
 30
0.0
 10
-10.538400
 20
-4.751746
 30
0.0
 10
-10.430200
 20
-4.418696
 30
0.0
 10
-10.255100
 20
-4.115448
 30
0.0
 10
-10.020800
 20
-3.855211
 30
0.0
 10
-9.737490
 20
-3.649414
 30
0.0
 10
-9.417600
 20
-3.506977
 30
0.0
 10
-9.075070
 20
-3.434163
 30
0.0
 10
-8.724910
 20
-3.434163
 30
0.0
 10
-8.382390
 20
-3.506977
 30
0.0
 10
-8.062500
 20
-3.649414
 30
0.0
 10
-7.779210
 20
-3.855211
 30
0.0
 10
-7.544890
 20
-4.115448
 30
0.0
 10
-7.369800
 20
-4.418696
 30
0.0
 10
-7.261600
 20
-4.751746
 30
0.0
 10
-7.224990
 20
-5.099980
 30
0.0
 10
-7.261600
 20
-5.448242
 30
0.0
 10
-7.369800
 20
-5.781293
 30
0.0
 10
-7.544890
 20
-6.084540
 30
0.0
 10
-7.779210
 20
-6.344749
 30
0.0
 10
-8.062500
 20
-6.550574
 30
0.0
 10
-8.382390
 20
-6.693012
 30
0.0
 10
-8.724910
 20
-6.765825
 30
0.0
  0
LWPOLYLINE
  5
112
100
AcDbEntity
  8
0
 62
7
100
AcDbPolyline
 90
31
 70
1
 10
8.062500
 20
-3.649414
 30
0.0
 10
8.382390
 20
-3.506977
 30
0.0
 10
8.724910
 20
-3.434163
 30
0.0
 10
9.075070
 20
-3.434163
 30
0.0
 10
9.417600
 20
-3.506977
 30
0.0
 10
9.737490
 20
-3.649414
 30
0.0
 10
10.020800
 20
-3.855211
 30
0.0
 10
10.255100
 20
-4.115448
 30
0.0
 10
10.430200
 20
-4.418696
 30
0.0
 10
10.538400
 20
-4.751746
 30
0.0
 10
10.575000
 20
-5.099980
 30
0.0
 10
10.538400
 20
-5.448242
 30
0.0
 10
10.430200
 20
-5.781293
 30
0.0
 10
10.255100
 20
-6.084540
 30
0.0
 10
10.020800
 20
-6.344749
 30
0.0
 10
9.737490
 20
-6.550574
 30
0.0
 10
9.417600
 20
-6.693012
 30
0.0
 10
9.075070
 20
-6.765825
 30
0.0
 10
8.724910
 20
-6.765825
 30
0.0
 10
8.382390
 20
-6.693012
 30
0.0
 10
8.062500
 20
-6.550574
 30
0.0
 10
7.779210
 20
-6.344749
 30
0.0
 10
7.544890
 20
-6.084540
 30
0.0
 10
7.369800
 20
-5.781293
 30
0.0
 10
7.261600
 20
-5.448242
 30
0.0
 10
7.224990
 20
-5.099980
 30
0.0
 10
7.261600
 20
-4.751746
 30
0.0
 10
7.369800
 20
-4.418696
 30
0.0
 10
7.544890
 20
-4.115448
 30
0.0
 10
7.779210
 20
-3.855211
 30
0.0
 10
8.062500
 20
-3.649414
 30
0.0
  0
LWPOLYLINE
  5
113
100
AcDbEntity
  8
0
 62
7
100
AcDbPolyline
 90
5
 70
1
 10
57.726199
 20
-11.000005
 30
0.0
 10
55.726200
 20
-11.000005
 30
0.0
 10
55.726200
 20
-7.000013
 30
0.0
 10
57.726199
 20
-7.000013
 30
0.0
 10
57.726199
 20
-11.000005
 30
0.0
  0
LWPOLYLINE
  5
114
100
AcDbEntity
  8
0
 62
7
100
AcDbPolyline
 90
5
 70
1
 10
-55.726200
 20
-7.000013
 30
0.0
 10
-55.726200
 20
-11.000005
 30
0.0
 10
-57.726199
 20
-11.000005
 30
0.0
 10
-57.726199
 20
-7.000013
 30
0.0
 10
-55.726200
 20
-7.000013
 30
0.0
  0
LWPOLYLINE
  5
115
100
AcDbEntity
  8
0
 62
7
100
AcDbPolyline
 90
5
 70
1
 10
39.726201
 20
-11.000005
 30
0.0
 10
37.726199
 20
-11.000005
 30
0.0
 10
37.726199
 20
-7.000013
 30
0.0
 10
39.726201
 20
-7.000013
 30
0.0
 10
39.726201
 20
-11.000005
 30
0.0
  0
LWPOLYLINE
  5
116
100
AcDbEntity
  8
0
 62
7
100
AcDbPolyline
 90
5
 70
1
 10
-37.726199
 20
-7.000013
 30
0.0
 10
-37.726199
 20
-11.000005
 30
0.0
 10
-39.726201
 20
-11.000005
 30
0.0
 10
-39.726201
 20
-7.000013
 30
0.0
 10
-37.726199
 20
-7.000013
 30
0.0
  0
LWPOLYLINE
  5
117
100
AcDbEntity
  8
0
 62
7
100
AcDbPolyline
 90
5
 70
1
 10
46.726201
 20
-11.000005
 30
0.0
 10
46.726201
 20
-7.000013
 30
0.0
 10
48.726200
 20
-7.000013
 30
0.0
 10
48.726200
 20
-11.000005
 30
0.0
 10
46.726201
 20
-11.000005
 30
0.0
  0
LWPOLYLINE
  5
118
100
AcDbEntity
  8
0
 62
7
100
AcDbPolyline
 90
5
 70
1
 10
-48.726200
 20
-11.000005
 30
0.0
 10
-48.726200
 20
-7.000013
 30
0.0
 10
-46.726201
 20
-7.000013
 30
0.0
 10
-46.726201
 20
-11.000005
 30
0.0
 10
-48.726200
 20
-11.000005
 30
0.0
  0
LWPOLYLINE
  5
119
100
AcDbEntity
  8
0
 62
7
100
AcDbPolyline
 90
5
 70
1
 10
-48.776199
 20
-74.449995
 30
0.0
 10
-59.676199
 20
-74.449995
 30
0.0
 10
-59.676199
 20
-45.549988
 30
0.0
 10
-48.776199
 20
-45.549988
 30
0.0
 10
-48.776199
 20
-74.449995
 30
0.0
  0
LWPOLYLINE
  5
11a
100
AcDbEntity
  8
0
 62
7
100
AcDbPolyline
 90
5
 70
1
 10
59.676199
 20
-45.549988
 30
0.0
 10
59.676199
 20
-74.449995
 30
0.0
 10
48.776199
 20
-74.449995
 30
0.0
 10
48.776199
 20
-45.549988
 30
0.0
 10
59.676199
 20
-45.549988
 30
0.0
  0
LWPOLYLINE
  5
11b
100
AcDbEntity
  8
0
 62
7
100
AcDbPolyline
 90
31
 70
1
 10
-40.870299
 20
-79.704691
 30
0.0
 10
-40.713499
 20
-79.433108
 30
0.0
 10
-40.503701
 20
-79.199993
 30
0.0
 10
-40.250000
 20
-79.015702
 30
0.0
 10
-39.963499
 20
-78.888194
 30
0.0
 10
-39.656800
 20
-78.823000
 30
0.0
 10
-39.343200
 20
-78.823000
 30
0.0
 10
-39.036501
 20
-78.888194
 30
0.0
 10
-38.750000
 20
-79.015702
 30
0.0
 10
-38.496299
 20
-79.199993
 30
0.0
 10
-38.286501
 20
-79.433108
 30
0.0
 10
-38.129701
 20
-79.704691
 30
0.0
 10
-38.032800
 20
-80.002887
 30
0.0
 10
-38.000000
 20
-80.314714
 30
0.0
 10
-38.032800
 20
-80.626598
 30
0.0
 10
-38.129701
 20
-80.924794
 30
0.0
 10
-38.286501
 20
-81.196404
 30
0.0
 10
-38.496299
 20
-81.429492
 30
0.0
 10
-38.750000
 20
-81.613811
 30
0.0
 10
-39.036501
 20
-81.741291
 30
0.0
 10
-39.343200
 20
-81.806512
 30
0.0
 10
-39.656800
 20
-81.806512
 30
0.0
 10
-39.963499
 20
-81.741291
 30
0.0
 10
-40.250000
 20
-81.613811
 30
0.0
 10
-40.503701
 20
-81.429492
 30
0.0
 10
-40.713499
 20
-81.196404
 30
0.0
 10
-40.870299
 20
-80.924794
 30
0.0
 10
-40.967200
 20
-80.626598
 30
0.0
 10
-41.000000
 20
-80.314714
 30
0.0
 10
-40.967200
 20
-80.002887
 30
0.0
 10
-40.870299
 20
-79.704691
 30
0.0
  0
LWPOLYLINE
  5
11c
100
AcDbEntity
  8
0
 62
7
100
AcDbPolyline
 90
31
 70
1
 10
39.036501
 20
-78.888194
 30
0.0
 10
39.343200
 20
-78.823000
 30
0.0
 10
39.656800
 20
-78.823000
 30
0.0
 10
39.963499
 20
-78.888194
 30
0.0
 10
40.250000
 20
-79.015702
 30
0.0
 10
40.503701
 20
-79.199993
 30
0.0
 10
40.713499
 20
-79.433108
 30
0.0
 10
40.870299
 20
-79.704691
 30
0.0
 10
40.967200
 20
-80.002887
 30
0.0
 10
41.000000
 20
-80.314714
 30
0.0
 10
40.967200
 20
-80.626598
 30
0.0
 10
40.870299
 20
-80.924794
 30
0.0
 10
40.713499
 20
-81.196404
 30
0.0
 10
40.503701
 20
-81.429492
 30
0.0
 10
40.250000
 20
-81.613811
 30
0.0
 10
39.963499
 20
-81.741291
 30
0.0
 10
39.656800
 20
-81.806512
 30
0.0
 10
39.343200
 20
-81.806512
 30
0.0
 10
39.036501
 20
-81.741291
 30
0.0
 10
38.750000
 20
-81.613811
 30
0.0
 10
38.496299
 20
-81.429492
 30
0.0
 10
38.286501
 20
-81.196404
 30
0.0
 10
38.129701
 20
-80.924794
 30
0.0
 10
38.032800
 20
-80.626598
 30
0.0
 10
38.000000
 20
-80.314714
 30
0.0
 10
38.032800
 20
-80.002887
 30
0.0
 10
38.129701
 20
-79.704691
 30
0.0
 10
38.286501
 20
-79.433108
 30
0.0
 10
38.496299
 20
-79.199993
 30
0.0
 10
38.750000
 20
-79.015702
 30
0.0
 10
39.036501
 20
-78.888194
 30
0.0
  0
ENDSEC
  0
SECTION
  2
OBJECTS
  0
DICTIONARY
  5
C
330
0
100
AcDbDictionary
  3
ACAD_GROUP
350
D
  3
ACAD_MLINESTYLE
350
17
  0
DICTIONARY
  5
D
330
C
100
AcDbDictionary
  0
DICTIONARY
  5
1A
330
C
100
AcDbDictionary
  0
DICTIONARY
  5
17
330
C
100
AcDbDictionary
  3
STANDARD
350
18
  0
DICTIONARY
  5
19
330
C
100
AcDbDictionary
  0
ENDSEC
  0
EOF
